<?xml version="1.0" encoding="UTF-8"?>
<svg width="230pt" height="192pt" version="1.1" viewBox="0 0 230 192" xmlns="http://www.w3.org/2000/svg" xmlns:xlink="http://www.w3.org/1999/xlink">
<defs>
<symbol id="ap" overflow="visible">
<path d="m4.1719 0v-0.3125h-0.3125c-0.90625 0-0.92188-0.10938-0.92188-0.46875v-5.5938c0-0.25 0-0.26562-0.23438-0.26562-0.625 0.64062-1.5 0.64062-1.8125 0.64062v0.3125c0.20312 0 0.78125 0 1.2969-0.26562v5.1719c0 0.35938-0.03125 0.46875-0.92188 0.46875h-0.3125v0.3125c0.34375-0.03125 1.2031-0.03125 1.6094-0.03125 0.39062 0 1.2656 0 1.6094 0.03125z"/>
</symbol>
<symbol id="m" overflow="visible">
<path d="m4.4688-1.7344h-0.23438c-0.0625 0.29688-0.125 0.73438-0.23438 0.89062-0.0625 0.078125-0.71875 0.078125-0.9375 0.078125h-1.7969l1.0625-1.0312c1.5469-1.375 2.1406-1.9062 2.1406-2.9062 0-1.1406-0.89062-1.9375-2.1094-1.9375-1.125 0-1.8594 0.92188-1.8594 1.8125 0 0.54688 0.5 0.54688 0.53125 0.54688 0.17188 0 0.51562-0.10938 0.51562-0.53125 0-0.25-0.1875-0.51562-0.53125-0.51562-0.078125 0-0.09375 0-0.125 0.015625 0.21875-0.65625 0.76562-1.0156 1.3438-1.0156 0.90625 0 1.3281 0.8125 1.3281 1.625 0 0.79688-0.48438 1.5781-1.0469 2.2031l-1.9062 2.125c-0.10938 0.10938-0.10938 0.14062-0.10938 0.375h3.7031z"/>
</symbol>
<symbol id="ao" overflow="visible">
<path d="m4.5625-1.7031c0-0.8125-0.64062-1.5938-1.6719-1.8125 0.8125-0.26562 1.3906-0.95312 1.3906-1.75 0-0.8125-0.875-1.375-1.8281-1.375-1 0-1.7656 0.59375-1.7656 1.3594 0 0.32812 0.21875 0.51562 0.51562 0.51562s0.5-0.21875 0.5-0.51562c0-0.48438-0.46875-0.48438-0.60938-0.48438 0.29688-0.5 0.95312-0.625 1.3125-0.625 0.42188 0 0.96875 0.21875 0.96875 1.1094 0 0.125-0.03125 0.70312-0.28125 1.1406-0.29688 0.48438-0.64062 0.51562-0.89062 0.51562-0.078125 0.015625-0.3125 0.03125-0.39062 0.03125-0.078125 0.015625-0.14062 0.03125-0.14062 0.125 0 0.10938 0.0625 0.10938 0.23438 0.10938h0.4375c0.8125 0 1.1875 0.67188 1.1875 1.6562 0 1.3594-0.6875 1.6406-1.125 1.6406s-1.1875-0.17188-1.5312-0.75c0.34375 0.046875 0.65625-0.17188 0.65625-0.54688 0-0.35938-0.26562-0.5625-0.54688-0.5625-0.25 0-0.5625 0.14062-0.5625 0.57812 0 0.90625 0.92188 1.5625 2.0156 1.5625 1.2188 0 2.125-0.90625 2.125-1.9219z"/>
</symbol>
<symbol id="l" overflow="visible">
<path d="m4.6875-1.6406v-0.3125h-0.98438v-4.5312c0-0.20312 0-0.26562-0.17188-0.26562-0.078125 0-0.10938 0-0.1875 0.125l-3.0625 4.6719v0.3125h2.6562v0.85938c0 0.35938-0.03125 0.46875-0.76562 0.46875h-0.20312v0.3125c0.40625-0.03125 0.92188-0.03125 1.3438-0.03125s0.9375 0 1.3594 0.03125v-0.3125h-0.21875c-0.73438 0-0.75-0.10938-0.75-0.46875v-0.85938zm-1.7031-0.3125h-2.4219l2.4219-3.7188z"/>
</symbol>
<symbol id="an" overflow="visible">
<path d="m4.4688-2c0-1.1875-0.8125-2.1875-1.8906-2.1875-0.46875 0-0.90625 0.15625-1.2656 0.51562v-1.9531c0.20312 0.0625 0.53125 0.125 0.84375 0.125 1.2344 0 1.9375-0.90625 1.9375-1.0312 0-0.0625-0.03125-0.10938-0.10938-0.10938 0 0-0.03125 0-0.078125 0.03125-0.20312 0.09375-0.6875 0.29688-1.3594 0.29688-0.39062 0-0.85938-0.078125-1.3281-0.28125-0.078125-0.03125-0.10938-0.03125-0.10938-0.03125-0.10938 0-0.10938 0.078125-0.10938 0.23438v2.9531c0 0.17188 0 0.25 0.14062 0.25 0.078125 0 0.09375-0.015625 0.14062-0.078125 0.10938-0.15625 0.46875-0.70312 1.2812-0.70312 0.51562 0 0.76562 0.45312 0.84375 0.64062 0.15625 0.375 0.1875 0.75 0.1875 1.25 0 0.35938 0 0.95312-0.25 1.375-0.23438 0.39062-0.60938 0.64062-1.0625 0.64062-0.71875 0-1.2969-0.53125-1.4688-1.1094 0.03125 0 0.0625 0.015625 0.17188 0.015625 0.32812 0 0.5-0.25 0.5-0.48438 0-0.25-0.17188-0.5-0.5-0.5-0.14062 0-0.48438 0.078125-0.48438 0.53125 0 0.85938 0.6875 1.8281 1.7969 1.8281 1.1562 0 2.1719-0.95312 2.1719-2.2188z"/>
</symbol>
<symbol id="k" overflow="visible">
<path d="m4.5625-2.0312c0-1.2656-0.89062-2.2188-2-2.2188-0.67188 0-1.0469 0.5-1.25 0.98438v-0.25c0-2.5156 1.2344-2.875 1.75-2.875 0.23438 0 0.65625 0.0625 0.875 0.40625-0.15625 0-0.54688 0-0.54688 0.4375 0 0.3125 0.23438 0.46875 0.45312 0.46875 0.15625 0 0.46875-0.09375 0.46875-0.48438 0-0.59375-0.4375-1.0781-1.2656-1.0781-1.2812 0-2.625 1.2812-2.625 3.4844 0 2.6719 1.1562 3.375 2.0781 3.375 1.1094 0 2.0625-0.9375 2.0625-2.25zm-0.90625-0.015625c0 0.48438 0 0.98438-0.17188 1.3438-0.29688 0.59375-0.75 0.64062-0.98438 0.64062-0.625 0-0.92188-0.59375-0.98438-0.75-0.1875-0.46875-0.1875-1.2656-0.1875-1.4375 0-0.78125 0.32812-1.7812 1.2188-1.7812 0.17188 0 0.625 0 0.9375 0.625 0.17188 0.35938 0.17188 0.875 0.17188 1.3594z"/>
</symbol>
<symbol id="a" overflow="visible">
<path d="m4.5781-3.1875c0-0.79688-0.046875-1.5938-0.39062-2.3281-0.45312-0.96875-1.2812-1.125-1.6875-1.125-0.60938 0-1.3281 0.26562-1.75 1.1875-0.3125 0.6875-0.35938 1.4688-0.35938 2.2656 0 0.75 0.03125 1.6406 0.45312 2.4062 0.42188 0.79688 1.1562 1 1.6406 1 0.53125 0 1.2969-0.20312 1.7344-1.1562 0.3125-0.6875 0.35938-1.4688 0.35938-2.25zm-0.8125-0.125c0 0.75 0 1.4219-0.10938 2.0625-0.15625 0.95312-0.71875 1.25-1.1719 1.25-0.39062 0-0.98438-0.25-1.1562-1.2031-0.10938-0.59375-0.10938-1.5156-0.10938-2.1094 0-0.64062 0-1.2969 0.078125-1.8281 0.1875-1.1875 0.9375-1.2812 1.1875-1.2812 0.32812 0 0.98438 0.1875 1.1719 1.1719 0.10938 0.5625 0.10938 1.3125 0.10938 1.9375z"/>
</symbol>
<symbol id="am" overflow="visible">
<path d="m7.1406-6.5v-0.3125l-1.1719 0.03125-1.1562-0.03125v0.3125c1.0156 0 1.0156 0.46875 1.0156 0.73438v4.2656l-3.5156-5.1719c-0.09375-0.125-0.09375-0.14062-0.28125-0.14062h-1.7031v0.3125h0.29688c0.14062 0 0.34375 0.015625 0.48438 0.015625 0.23438 0.03125 0.25 0.046875 0.25 0.23438v5.2031c0 0.26562 0 0.73438-1.0312 0.73438v0.3125l1.1719-0.03125 1.1562 0.03125v-0.3125c-1.0156 0-1.0156-0.46875-1.0156-0.73438v-5.1875c0.046875 0.046875 0.046875 0.0625 0.09375 0.125l4.0625 5.9844c0.09375 0.10938 0.10938 0.125 0.17188 0.125 0.14062 0 0.14062-0.0625 0.14062-0.26562v-5.5c0-0.26562 0-0.73438 1.0312-0.73438z"/>
</symbol>
<symbol id="ah" overflow="visible">
<path d="m5.3281 0v-0.3125c-0.6875 0-0.76562-0.0625-0.76562-0.5625v-3.5312l-1.4688 0.10938v0.3125c0.6875 0 0.78125 0.0625 0.78125 0.5625v1.7656c0 0.875-0.48438 1.5469-1.2188 1.5469-0.82812 0-0.875-0.46875-0.875-0.98438v-3.3125l-1.4688 0.10938v0.3125c0.78125 0 0.78125 0.03125 0.78125 0.90625v1.5c0 0.78125 0 1.6875 1.5156 1.6875 0.5625 0 1-0.28125 1.2812-0.89062v0.89062zm-1.3281-6.5938c0-0.1875-0.17188-0.35938-0.34375-0.35938-0.15625 0-0.26562 0.10938-0.3125 0.17188l-1.1875 1.5156 0.17188 0.1875 1.5156-1.2188c0.078125-0.078125 0.15625-0.1875 0.15625-0.29688z"/>
</symbol>
<symbol id="ag" overflow="visible">
<path d="m8.1094 0v-0.3125c-0.51562 0-0.76562 0-0.78125-0.29688v-1.9062c0-0.85938 0-1.1562-0.3125-1.5156-0.14062-0.17188-0.46875-0.375-1.0469-0.375-0.82812 0-1.2812 0.59375-1.4375 0.98438-0.14062-0.875-0.875-0.98438-1.3281-0.98438-0.73438 0-1.2031 0.42188-1.4844 1.0469v-1.0469l-1.4062 0.10938v0.3125c0.70312 0 0.78125 0.0625 0.78125 0.5625v2.6719c0 0.4375-0.10938 0.4375-0.78125 0.4375v0.3125l1.1406-0.03125 1.1094 0.03125v-0.3125c-0.67188 0-0.78125 0-0.78125-0.4375v-1.8438c0-1.0312 0.71875-1.5938 1.3438-1.5938 0.64062 0 0.75 0.53125 0.75 1.1094v2.3281c0 0.4375-0.10938 0.4375-0.78125 0.4375v0.3125l1.125-0.03125 1.1094 0.03125v-0.3125c-0.65625 0-0.76562 0-0.76562-0.4375v-1.8438c0-1.0312 0.70312-1.5938 1.3438-1.5938 0.625 0 0.73438 0.53125 0.73438 1.1094v2.3281c0 0.4375-0.10938 0.4375-0.78125 0.4375v0.3125l1.125-0.03125z"/>
</symbol>
<symbol id="af" overflow="visible">
<path d="m4.1406-1.1875c0-0.09375-0.078125-0.125-0.14062-0.125-0.078125 0-0.10938 0.0625-0.125 0.14062-0.34375 1.0312-1.25 1.0312-1.3438 1.0312-0.5 0-0.89062-0.29688-1.125-0.67188-0.29688-0.46875-0.29688-1.125-0.29688-1.4844h2.7812c0.21875 0 0.25 0 0.25-0.21875 0-0.98438-0.54688-1.9531-1.7812-1.9531-1.1562 0-2.0781 1.0312-2.0781 2.2812 0 1.3281 1.0469 2.2969 2.1875 2.2969 1.2188 0 1.6719-1.1094 1.6719-1.2969zm-0.65625-1.3281h-2.375c0.0625-1.4844 0.90625-1.7344 1.25-1.7344 1.0156 0 1.125 1.3438 1.125 1.7344z"/>
</symbol>
<symbol id="ae" overflow="visible">
<path d="m3.625-3.7969c0-0.3125-0.3125-0.60938-0.73438-0.60938-0.73438 0-1.0938 0.67188-1.2188 1.0938v-1.0938l-1.3906 0.10938v0.3125c0.70312 0 0.78125 0.0625 0.78125 0.5625v2.6719c0 0.4375-0.10938 0.4375-0.78125 0.4375v0.3125l1.1406-0.03125c0.39062 0 0.85938 0 1.2656 0.03125v-0.3125h-0.21875c-0.73438 0-0.75-0.10938-0.75-0.46875v-1.5312c0-0.98438 0.42188-1.875 1.1719-1.875 0.0625 0 0.09375 0 0.10938 0.015625-0.03125 0-0.23438 0.125-0.23438 0.39062s0.21875 0.42188 0.4375 0.42188c0.17188 0 0.42188-0.125 0.42188-0.4375z"/>
</symbol>
<symbol id="c" overflow="visible">
<path d="m4.6875-2.1406c0-1.2656-0.98438-2.3281-2.1875-2.3281-1.25 0-2.2188 1.0938-2.2188 2.3281 0 1.2969 1.0312 2.25 2.2031 2.25 1.2031 0 2.2031-0.98438 2.2031-2.25zm-0.8125-0.078125c0 0.35938 0 0.90625-0.21875 1.3438-0.23438 0.45312-0.67188 0.73438-1.1562 0.73438-0.4375 0-0.875-0.20312-1.1406-0.67188-0.25-0.4375-0.25-1.0469-0.25-1.4062 0-0.39062 0-0.92188 0.23438-1.3594 0.26562-0.45312 0.73438-0.67188 1.1406-0.67188 0.4375 0 0.85938 0.21875 1.125 0.65625 0.26562 0.42188 0.26562 1 0.26562 1.375z"/>
</symbol>
<symbol id="ad" overflow="visible">
<path d="m5.25 0v-0.3125c-0.6875 0-0.78125-0.0625-0.78125-0.5625v-6.0469l-1.4219 0.10938v0.3125c0.6875 0 0.76562 0.0625 0.76562 0.5625v2.1562c-0.28125-0.35938-0.71875-0.625-1.25-0.625-1.1719 0-2.2188 0.98438-2.2188 2.2656 0 1.2656 0.96875 2.25 2.1094 2.25 0.64062 0 1.0781-0.34375 1.3281-0.65625v0.65625zm-1.4688-1.1719c0 0.17188 0 0.1875-0.10938 0.35938-0.29688 0.48438-0.73438 0.70312-1.1719 0.70312-0.45312 0-0.8125-0.26562-1.0469-0.64062-0.25-0.40625-0.28125-0.96875-0.28125-1.3906 0-0.35938 0.015625-0.95312 0.29688-1.4062 0.21875-0.3125 0.59375-0.64062 1.1406-0.64062 0.34375 0 0.76562 0.15625 1.0625 0.59375 0.10938 0.17188 0.10938 0.1875 0.10938 0.375z"/>
</symbol>
<symbol id="j" overflow="visible">
<path d="m4.8125-0.89062v-0.5625h-0.25v0.5625c0 0.57812-0.25 0.64062-0.35938 0.64062-0.32812 0-0.35938-0.45312-0.35938-0.5v-1.9844c0-0.42188 0-0.8125-0.35938-1.1875-0.39062-0.39062-0.89062-0.54688-1.375-0.54688-0.8125 0-1.5 0.46875-1.5 1.125 0 0.29688 0.20312 0.46875 0.45312 0.46875 0.28125 0 0.46875-0.20312 0.46875-0.45312 0-0.125-0.0625-0.45312-0.51562-0.45312 0.26562-0.35938 0.76562-0.46875 1.0781-0.46875 0.48438 0 1.0625 0.39062 1.0625 1.2812v0.35938c-0.51562 0.03125-1.2188 0.0625-1.8438 0.35938-0.75 0.34375-1 0.85938-1 1.2969 0 0.8125 0.96875 1.0625 1.5938 1.0625 0.67188 0 1.125-0.40625 1.3125-0.85938 0.046875 0.39062 0.3125 0.8125 0.78125 0.8125 0.20312 0 0.8125-0.14062 0.8125-0.95312zm-1.6562-0.5c0 0.9375-0.71875 1.2812-1.1719 1.2812-0.48438 0-0.89062-0.34375-0.89062-0.84375 0-0.54688 0.40625-1.375 2.0625-1.4375z"/>
</symbol>
<symbol id="i" overflow="visible">
<path d="m2.4688 0v-0.3125c-0.67188 0-0.70312-0.046875-0.70312-0.4375v-3.6562l-1.3906 0.10938v0.3125c0.64062 0 0.73438 0.0625 0.73438 0.54688v2.6875c0 0.4375-0.10938 0.4375-0.78125 0.4375v0.3125l1.0938-0.03125c0.35938 0 0.70312 0.015625 1.0469 0.03125zm-0.5625-6.0156c0-0.28125-0.21875-0.53125-0.51562-0.53125-0.34375 0-0.54688 0.28125-0.54688 0.53125 0 0.26562 0.23438 0.51562 0.53125 0.51562 0.34375 0 0.53125-0.26562 0.53125-0.51562z"/>
</symbol>
<symbol id="al" overflow="visible">
<path d="m5.3281 0v-0.3125c-0.51562 0-0.76562 0-0.76562-0.29688v-1.9062c0-0.85938 0-1.1562-0.3125-1.5156-0.14062-0.17188-0.46875-0.375-1.0469-0.375-0.73438 0-1.2031 0.42188-1.4844 1.0469v-1.0469l-1.4062 0.10938v0.3125c0.70312 0 0.78125 0.0625 0.78125 0.5625v2.6719c0 0.4375-0.10938 0.4375-0.78125 0.4375v0.3125l1.1406-0.03125 1.1094 0.03125v-0.3125c-0.67188 0-0.78125 0-0.78125-0.4375v-1.8438c0-1.0312 0.71875-1.5938 1.3438-1.5938 0.64062 0 0.75 0.53125 0.75 1.1094v2.3281c0 0.4375-0.10938 0.4375-0.78125 0.4375v0.3125l1.125-0.03125z"/>
</symbol>
<symbol id="ak" overflow="visible">
<path d="m4-1.8594h-0.25c-0.09375 1.1719-0.29688 1.6094-1.4531 1.6094h-1.1875l2.7812-3.75c0.09375-0.10938 0.09375-0.125 0.09375-0.17188 0-0.125-0.09375-0.125-0.26562-0.125h-3.1875l-0.10938 1.6094h0.25c0.0625-1.0156 0.25-1.3906 1.3438-1.3906h1.1406l-2.7812 3.7656c-0.09375 0.10938-0.09375 0.125-0.09375 0.17188 0 0.14062 0.0625 0.14062 0.25 0.14062h3.2969z"/>
</symbol>
<symbol id="aj" overflow="visible">
<path d="m4.1406-1.1875c0-0.09375-0.10938-0.09375-0.14062-0.09375-0.078125 0-0.10938 0.03125-0.125 0.09375-0.28125 0.92188-0.9375 1.0469-1.2969 1.0469-0.53125 0-1.4062-0.42188-1.4062-2.0312 0-1.625 0.8125-2.0469 1.3438-2.0469 0.09375 0 0.71875 0.015625 1.0625 0.375-0.40625 0.03125-0.46875 0.32812-0.46875 0.45312 0 0.26562 0.1875 0.45312 0.45312 0.45312s0.46875-0.15625 0.46875-0.46875c0-0.67188-0.76562-1.0625-1.5312-1.0625-1.25 0-2.1562 1.0781-2.1562 2.3125 0 1.1719 0.8125 2.0938 1.8281 2.25v0.82812c0.375 0 0.76562 0.078125 0.76562 0.40625 0 0.40625-0.95312 0.40625-1.7031 0.40625h-0.125v0.26562h0.25c1.0781 0 2.4062 0 2.4062-0.67188 0-0.46875-0.53125-0.67188-1.0781-0.67188v-0.5625c1.1562-0.10938 1.4531-1.1875 1.4531-1.2812z"/>
</symbol>
<symbol id="ai" overflow="visible">
<path d="m4.8125-0.89062v-0.5625h-0.25v0.5625c0 0.57812-0.25 0.64062-0.35938 0.64062-0.32812 0-0.35938-0.45312-0.35938-0.5v-1.9844c0-0.42188 0-0.8125-0.35938-1.1875-0.39062-0.39062-0.89062-0.54688-1.375-0.54688-0.8125 0-1.5 0.46875-1.5 1.125 0 0.29688 0.20312 0.46875 0.45312 0.46875 0.28125 0 0.46875-0.20312 0.46875-0.45312 0-0.125-0.0625-0.45312-0.51562-0.45312 0.26562-0.35938 0.76562-0.46875 1.0781-0.46875 0.48438 0 1.0625 0.39062 1.0625 1.2812v0.35938c-0.51562 0.03125-1.2188 0.0625-1.8438 0.35938-0.75 0.34375-1 0.85938-1 1.2969 0 0.8125 0.96875 1.0625 1.5938 1.0625 0.67188 0 1.125-0.40625 1.3125-0.85938 0.046875 0.39062 0.3125 0.8125 0.78125 0.8125 0.20312 0 0.8125-0.14062 0.8125-0.95312zm-1.6562-0.5c0 0.9375-0.71875 1.2812-1.1719 1.2812-0.48438 0-0.89062-0.34375-0.89062-0.84375 0-0.54688 0.40625-1.375 2.0625-1.4375zm1-4.9531-0.15625-0.14062s-0.375 0.46875-0.8125 0.46875c-0.23438 0-0.48438-0.14062-0.65625-0.25-0.26562-0.15625-0.45312-0.21875-0.625-0.21875-0.375 0-0.5625 0.21875-1.0625 0.76562l0.15625 0.15625s0.375-0.48438 0.8125-0.48438c0.23438 0 0.48438 0.15625 0.65625 0.25 0.26562 0.17188 0.4375 0.23438 0.60938 0.23438 0.375 0 0.57812-0.21875 1.0781-0.78125z"/>
</symbol>
<symbol id="ac" overflow="visible">
<path d="m-2.5781-6.5v0.25c1.5469 0.25 2.2656 0.48438 2.2656 2.1875v1.3281c0 0.46875-0.0625 0.48438-0.39062 0.48438h-2.6719v-0.89062c0-0.96875 0.32812-1.0781 1.1719-1.0781v-0.25h-2.6406v0.25c0.85938 0 1.1719 0.10938 1.1719 1.0781v0.89062h-2.4062c-0.32812 0-0.39062-0.015625-0.39062-0.48438v-1.2812c0-1.5312 0.54688-1.7969 1.9375-1.9531v-0.25l-2.25 0.28125v5.6094h0.3125v-0.23438c0-0.76562 0.10938-0.79688 0.46875-0.79688h5.2188c0.35938 0 0.46875 0.03125 0.46875 0.79688v0.23438h0.3125v-5.75z"/>
</symbol>
<symbol id="h" overflow="visible">
<path d="m0-5.3281h-0.3125c0 0.51562 0 0.76562-0.29688 0.76562h-1.9062c-0.85938 0-1.1562 0-1.5156 0.3125-0.17188 0.14062-0.375 0.46875-0.375 1.0469 0 0.73438 0.42188 1.2031 1.0469 1.4844h-1.0469l0.10938 1.4062h0.3125c0-0.70312 0.0625-0.78125 0.5625-0.78125h2.6719c0.4375 0 0.4375 0.10938 0.4375 0.78125h0.3125l-0.03125-1.1406 0.03125-1.1094h-0.3125c0 0.67188 0 0.78125-0.4375 0.78125h-1.8438c-1.0312 0-1.5938-0.71875-1.5938-1.3438 0-0.64062 0.53125-0.75 1.1094-0.75h2.3281c0.4375 0 0.4375 0.10938 0.4375 0.78125h0.3125l-0.03125-1.125z"/>
</symbol>
<symbol id="g" overflow="visible">
<path d="m-1.1875-4.1406c-0.09375 0-0.125 0.078125-0.125 0.14062 0 0.078125 0.0625 0.10938 0.14062 0.125 1.0312 0.34375 1.0312 1.25 1.0312 1.3438 0 0.5-0.29688 0.89062-0.67188 1.125-0.46875 0.29688-1.125 0.29688-1.4844 0.29688v-2.7812c0-0.21875 0-0.25-0.21875-0.25-0.98438 0-1.9531 0.54688-1.9531 1.7812 0 1.1562 1.0312 2.0781 2.2812 2.0781 1.3281 0 2.2969-1.0469 2.2969-2.1875 0-1.2188-1.1094-1.6719-1.2969-1.6719zm-1.3281 0.65625v2.375c-1.4844-0.0625-1.7344-0.90625-1.7344-1.25 0-1.0156 1.3438-1.125 1.7344-1.125z"/>
</symbol>
<symbol id="x" overflow="visible">
<path d="m-3.7969-3.625c-0.3125 0-0.60938 0.3125-0.60938 0.73438 0 0.73438 0.67188 1.0938 1.0938 1.2188h-1.0938l0.10938 1.3906h0.3125c0-0.70312 0.0625-0.78125 0.5625-0.78125h2.6719c0.4375 0 0.4375 0.10938 0.4375 0.78125h0.3125l-0.03125-1.1406c0-0.39062 0-0.85938 0.03125-1.2656h-0.3125v0.21875c0 0.73438-0.10938 0.75-0.46875 0.75h-1.5312c-0.98438 0-1.875-0.42188-1.875-1.1719 0-0.0625 0-0.09375 0.015625-0.10938 0 0.03125 0.125 0.23438 0.39062 0.23438s0.42188-0.21875 0.42188-0.4375c0-0.17188-0.125-0.42188-0.4375-0.42188z"/>
</symbol>
<symbol id="w" overflow="visible">
<path d="m-4.0312-4.8281c-0.17188 0-0.48438 0.10938-0.48438 0.5 0 0.20312 0.0625 0.64062 0.46875 1.0625-0.32812 0.42188-0.35938 0.82812-0.35938 1.0469 0 0.9375 0.6875 1.625 1.4531 1.625 0.4375 0 0.8125-0.21875 1.0312-0.46875 0.14062 0.125 0.46875 0.3125 0.82812 0.3125 0.3125 0 0.6875-0.14062 0.89062-0.45312 0.15625 0.60938 0.59375 0.92188 0.98438 0.92188 0.71875 0 1.2656-0.98438 1.2656-2.2031 0-1.1719-0.5-2.2031-1.2812-2.2031-0.34375 0-0.85938 0.125-1.1406 0.64062-0.26562 0.53125-0.26562 1.1094-0.26562 1.7188 0 0.25 0 0.67188-0.015625 0.75-0.046875 0.3125-0.34375 0.51562-0.67188 0.51562-0.03125 0-0.26562 0-0.46875-0.15625 0.28125-0.39062 0.3125-0.8125 0.3125-1 0-0.92188-0.6875-1.6094-1.4531-1.6094-0.375 0-0.73438 0.15625-0.96875 0.40625-0.34375-0.35938-0.39062-0.71875-0.39062-0.89062 0 0 0-0.078125 0.015625-0.10938 0.03125 0.10938 0.14062 0.17188 0.26562 0.17188 0.17188 0 0.28125-0.14062 0.28125-0.29688 0-0.09375-0.0625-0.28125-0.29688-0.28125zm1.0781 1.75c0.26562 0 0.59375 0 0.84375 0.15625 0.10938 0.078125 0.39062 0.3125 0.39062 0.70312 0 0.875-1 0.875-1.2188 0.875-0.26562 0-0.59375-0.015625-0.84375-0.15625-0.10938-0.078125-0.39062-0.3125-0.39062-0.71875 0-0.85938 0.98438-0.85938 1.2188-0.85938zm3.7344-1.0938c0.54688 0 1.0469 0.70312 1.0469 1.6719 0 1.0156-0.51562 1.7031-1.0469 1.7031-0.45312 0-0.82812-0.375-0.84375-0.8125v-0.59375c0-0.85938 0-1.9688 0.84375-1.9688z"/>
</symbol>
<symbol id="b" overflow="visible">
<path d="m0-2.4688h-0.3125c0 0.67188-0.046875 0.70312-0.4375 0.70312h-3.6562l0.10938 1.3906h0.3125c0-0.64062 0.0625-0.73438 0.54688-0.73438h2.6875c0.4375 0 0.4375 0.10938 0.4375 0.78125h0.3125l-0.03125-1.0938c0-0.35938 0.015625-0.70312 0.03125-1.0469zm-6.0156 0.5625c-0.28125 0-0.53125 0.21875-0.53125 0.51562 0 0.34375 0.28125 0.54688 0.53125 0.54688 0.26562 0 0.51562-0.23438 0.51562-0.53125 0-0.34375-0.26562-0.53125-0.51562-0.53125z"/>
</symbol>
<symbol id="f" overflow="visible">
<path d="m-0.89062-4.8125h-0.5625v0.25h0.5625c0.57812 0 0.64062 0.25 0.64062 0.35938 0 0.32812-0.45312 0.35938-0.5 0.35938h-1.9844c-0.42188 0-0.8125 0-1.1875 0.35938-0.39062 0.39062-0.54688 0.89062-0.54688 1.375 0 0.8125 0.46875 1.5 1.125 1.5 0.29688 0 0.46875-0.20312 0.46875-0.45312 0-0.28125-0.20312-0.46875-0.45312-0.46875-0.125 0-0.45312 0.0625-0.45312 0.51562-0.35938-0.26562-0.46875-0.76562-0.46875-1.0781 0-0.48438 0.39062-1.0625 1.2812-1.0625h0.35938c0.03125 0.51562 0.0625 1.2188 0.35938 1.8438 0.34375 0.75 0.85938 1 1.2969 1 0.8125 0 1.0625-0.96875 1.0625-1.5938 0-0.67188-0.40625-1.125-0.85938-1.3125 0.39062-0.046875 0.8125-0.3125 0.8125-0.78125 0-0.20312-0.14062-0.8125-0.95312-0.8125zm-0.5 1.6562c0.9375 0 1.2812 0.71875 1.2812 1.1719 0 0.48438-0.34375 0.89062-0.84375 0.89062-0.54688 0-1.375-0.40625-1.4375-2.0625z"/>
</symbol>
<symbol id="v" overflow="visible">
<path d="m0-5.25h-0.3125c0 0.6875-0.0625 0.78125-0.5625 0.78125h-6.0469l0.10938 1.4219h0.3125c0-0.6875 0.0625-0.76562 0.5625-0.76562h2.1562c-0.35938 0.28125-0.625 0.71875-0.625 1.25 0 1.1719 0.98438 2.2188 2.2656 2.2188 1.2656 0 2.25-0.96875 2.25-2.1094 0-0.64062-0.34375-1.0781-0.65625-1.3281h0.65625zm-1.1719 1.4688c0.17188 0 0.1875 0 0.35938 0.10938 0.48438 0.29688 0.70312 0.73438 0.70312 1.1719 0 0.45312-0.26562 0.8125-0.64062 1.0469-0.40625 0.25-0.96875 0.28125-1.3906 0.28125-0.35938 0-0.95312-0.015625-1.4062-0.29688-0.3125-0.21875-0.64062-0.59375-0.64062-1.1406 0-0.34375 0.15625-0.76562 0.59375-1.0625 0.17188-0.10938 0.1875-0.10938 0.375-0.10938z"/>
</symbol>
<symbol id="e" overflow="visible">
<path d="m-2.1406-4.6875c-1.2656 0-2.3281 0.98438-2.3281 2.1875 0 1.25 1.0938 2.2188 2.3281 2.2188 1.2969 0 2.25-1.0312 2.25-2.2031 0-1.2031-0.98438-2.2031-2.25-2.2031zm-0.078125 0.8125c0.35938 0 0.90625 0 1.3438 0.21875 0.45312 0.23438 0.73438 0.67188 0.73438 1.1562 0 0.4375-0.20312 0.875-0.67188 1.1406-0.4375 0.25-1.0469 0.25-1.4062 0.25-0.39062 0-0.92188 0-1.3594-0.23438-0.45312-0.26562-0.67188-0.73438-0.67188-1.1406 0-0.4375 0.21875-0.85938 0.65625-1.125 0.42188-0.26562 1-0.26562 1.375-0.26562z"/>
</symbol>
<symbol id="ab" overflow="visible">
<path d="m-1.8594-4v0.25c1.1719 0.09375 1.6094 0.29688 1.6094 1.4531v1.1875l-3.75-2.7812c-0.10938-0.09375-0.125-0.09375-0.17188-0.09375-0.125 0-0.125 0.09375-0.125 0.26562v3.1875l1.6094 0.10938v-0.25c-1.0156-0.0625-1.3906-0.25-1.3906-1.3438v-1.1406l3.7656 2.7812c0.10938 0.09375 0.125 0.09375 0.17188 0.09375 0.14062 0 0.14062-0.0625 0.14062-0.25v-3.2969z"/>
</symbol>
<symbol id="aa" overflow="visible">
<path d="m-1.1875-4.1406c-0.09375 0-0.09375 0.10938-0.09375 0.14062 0 0.078125 0.03125 0.10938 0.09375 0.125 0.92188 0.28125 1.0469 0.9375 1.0469 1.2969 0 0.53125-0.42188 1.4062-2.0312 1.4062-1.625 0-2.0469-0.8125-2.0469-1.3438 0-0.09375 0.015625-0.71875 0.375-1.0625 0.03125 0.40625 0.32812 0.46875 0.45312 0.46875 0.26562 0 0.45312-0.1875 0.45312-0.45312s-0.15625-0.46875-0.46875-0.46875c-0.67188 0-1.0625 0.76562-1.0625 1.5312 0 1.25 1.0781 2.1562 2.3125 2.1562 1.1719 0 2.0938-0.8125 2.25-1.8281h0.82812c0-0.375 0.078125-0.76562 0.40625-0.76562 0.40625 0 0.40625 0.95312 0.40625 1.7031v0.125h0.26562v-0.25c0-1.0781 0-2.4062-0.67188-2.4062-0.46875 0-0.67188 0.53125-0.67188 1.0781h-0.5625c-0.10938-1.1562-1.1875-1.4531-1.2812-1.4531z"/>
</symbol>
<symbol id="z" overflow="visible">
<path d="m-0.89062-4.8125h-0.5625v0.25h0.5625c0.57812 0 0.64062 0.25 0.64062 0.35938 0 0.32812-0.45312 0.35938-0.5 0.35938h-1.9844c-0.42188 0-0.8125 0-1.1875 0.35938-0.39062 0.39062-0.54688 0.89062-0.54688 1.375 0 0.8125 0.46875 1.5 1.125 1.5 0.29688 0 0.46875-0.20312 0.46875-0.45312 0-0.28125-0.20312-0.46875-0.45312-0.46875-0.125 0-0.45312 0.0625-0.45312 0.51562-0.35938-0.26562-0.46875-0.76562-0.46875-1.0781 0-0.48438 0.39062-1.0625 1.2812-1.0625h0.35938c0.03125 0.51562 0.0625 1.2188 0.35938 1.8438 0.34375 0.75 0.85938 1 1.2969 1 0.8125 0 1.0625-0.96875 1.0625-1.5938 0-0.67188-0.40625-1.125-0.85938-1.3125 0.39062-0.046875 0.8125-0.3125 0.8125-0.78125 0-0.20312-0.14062-0.8125-0.95312-0.8125zm-0.5 1.6562c0.9375 0 1.2812 0.71875 1.2812 1.1719 0 0.48438-0.34375 0.89062-0.84375 0.89062-0.54688 0-1.375-0.40625-1.4375-2.0625zm-4.9531-1-0.14062 0.15625s0.46875 0.375 0.46875 0.8125c0 0.23438-0.14062 0.48438-0.25 0.65625-0.15625 0.26562-0.21875 0.45312-0.21875 0.625 0 0.375 0.21875 0.5625 0.76562 1.0625l0.15625-0.15625s-0.48438-0.375-0.48438-0.8125c0-0.23438 0.15625-0.48438 0.25-0.65625 0.17188-0.26562 0.23438-0.4375 0.23438-0.60938 0-0.375-0.21875-0.57812-0.78125-1.0781z"/>
</symbol>
<symbol id="y" overflow="visible">
<path d="m-0.015625-2.0312c-0.625 0-1.0469 0.25-1.0469 0.64062 0 0.35938 0.28125 0.53125 0.53125 0.53125 0.26562 0 0.53125-0.17188 0.53125-0.53125 0-0.14062-0.0625-0.28125-0.15625-0.39062 0.78125-0.015625 1.3906 0.25 1.8594 0.6875 0.0625 0.0625 0.078125 0.078125 0.10938 0.078125 0.078125 0 0.10938-0.046875 0.10938-0.09375 0-0.125-0.78125-0.92188-1.9375-0.92188z"/>
</symbol>
<symbol id="u" overflow="visible">
<path d="m-0.1875-3.3281c-0.125 0-0.125 0.078125-0.125 0.29688 0 0.1875 0 0.23438-0.015625 0.42188-0.015625 0.21875-0.0625 0.25-0.17188 0.25-0.078125 0-0.15625-0.015625-0.23438-0.03125l-5.3125-1.3438c-0.35938-0.078125-0.45312-0.10938-0.45312-0.90625 0-0.23438 0-0.3125-0.1875-0.3125-0.125 0-0.125 0.10938-0.125 0.14062l0.03125 1.3281-0.03125 1.3281c0 0.0625 0 0.1875 0.20312 0.1875 0.10938 0 0.10938-0.078125 0.10938-0.28125 0-0.40625 0-0.6875 0.1875-0.6875 0.046875 0 0.078125 0 0.15625 0.03125l5.375 1.3438c0.375 0.09375 0.46875 0.10938 0.46875 0.90625 0 0.23438 0 0.3125 0.20312 0.3125 0.10938 0 0.10938-0.10938 0.10938-0.14062l-0.03125-1.3125 0.03125-1.3281c0-0.078125 0-0.20312-0.1875-0.20312z"/>
</symbol>
<symbol id="t" overflow="visible">
<path d="m-7.2812-4.4219c-0.10938 0-0.20312 0.078125-0.20312 0.1875 0 0.078125 0.03125 0.14062 0.09375 0.17188l9.5 3.4688c0.14062 0.046875 0.1875 0.046875 0.1875 0.046875 0.10938 0 0.20312-0.09375 0.20312-0.20312 0-0.125-0.078125-0.15625-0.25-0.21875l-9.3438-3.4062c-0.14062-0.046875-0.1875-0.046875-0.1875-0.046875z"/>
</symbol>
<symbol id="d" overflow="visible">
<path d="m0-3.2969h-0.25v0.26562c0 0.70312-0.09375 0.70312-0.32812 0.70312h-3.8594c-0.1875 0-0.1875 0-0.1875 0.20312 0.4375 0.45312 0.4375 1.0781 0.4375 1.3594h0.25c0-0.15625 0-0.625-0.1875-1h3.5469c0.23438 0 0.32812 0 0.32812 0.6875v0.26562h0.25l-0.03125-1.2344z"/>
</symbol>
<symbol id="s" overflow="visible">
<path d="m0-8.7656h-0.3125v0.25c0 0.76562-0.10938 0.78125-0.46875 0.78125h-5.25c-0.35938 0-0.46875-0.015625-0.46875-0.78125v-0.25h-0.3125v1.6875c0 0.26562 0.015625 0.26562 0.1875 0.32812l5.625 2.1875-5.5938 2.1562c-0.21875 0.09375-0.21875 0.125-0.21875 0.35938v1.6719h0.3125v-0.23438c0-0.76562 0.10938-0.78125 0.46875-0.78125h4.9844c0.26562 0 0.73438 0 0.73438 1.0156h0.3125l-0.03125-1.1562 0.03125-1.1719h-0.3125c0 1.0312-0.46875 1.0312-0.73438 1.0312h-5.375v-0.015625l6.2031-2.4062c0.125-0.046875 0.21875-0.09375 0.21875-0.1875 0-0.10938-0.078125-0.14062-0.1875-0.1875l-6.3125-2.4531h5.7188c0.35938 0 0.46875 0.015625 0.46875 0.78125v0.23438h0.3125c-0.03125-0.35938-0.03125-1.0469-0.03125-1.4375 0-0.375 0-1.0469 0.03125-1.4219z"/>
</symbol>
<symbol id="r" overflow="visible">
<path d="m-6.5-4.6406h-0.3125l0.03125 1.2969c0 0.40625 0 1.2969-0.03125 1.6719h0.3125v-0.35938c0-0.98438 0.125-0.98438 0.48438-0.98438h4.5469c0.90625 0 1.4688 0.5 1.4688 1.0312 0 0.0625 0 0.73438-0.57812 1.0938 0-0.51562-0.29688-0.64062-0.5625-0.64062-0.35938 0-0.54688 0.28125-0.54688 0.5625 0 0.21875 0.125 0.5625 0.57812 0.5625 0.73438 0 1.3281-0.70312 1.3281-1.5938 0-1.0156-0.70312-1.75-1.4375-1.8594-0.09375-0.015625-0.10938-0.015625-0.45312-0.015625h-4.4219c-0.40625 0-0.40625-0.125-0.40625-0.76562z"/>
</symbol>
<symbol id="q" overflow="visible">
<path d="m0-8.1094h-0.3125c0 0.51562 0 0.76562-0.29688 0.78125h-1.9062c-0.85938 0-1.1562 0-1.5156 0.3125-0.17188 0.14062-0.375 0.46875-0.375 1.0469 0 0.82812 0.59375 1.2812 0.98438 1.4375-0.875 0.14062-0.98438 0.875-0.98438 1.3281 0 0.73438 0.42188 1.2031 1.0469 1.4844h-1.0469l0.10938 1.4062h0.3125c0-0.70312 0.0625-0.78125 0.5625-0.78125h2.6719c0.4375 0 0.4375 0.10938 0.4375 0.78125h0.3125l-0.03125-1.1406 0.03125-1.1094h-0.3125c0 0.67188 0 0.78125-0.4375 0.78125h-1.8438c-1.0312 0-1.5938-0.71875-1.5938-1.3438 0-0.64062 0.53125-0.75 1.1094-0.75h2.3281c0.4375 0 0.4375 0.10938 0.4375 0.78125h0.3125l-0.03125-1.125 0.03125-1.1094h-0.3125c0 0.65625 0 0.76562-0.4375 0.76562h-1.8438c-1.0312 0-1.5938-0.70312-1.5938-1.3438 0-0.625 0.53125-0.73438 1.1094-0.73438h2.3281c0.4375 0 0.4375 0.10938 0.4375 0.78125h0.3125l-0.03125-1.125z"/>
</symbol>
<symbol id="p" overflow="visible">
<path d="m-2.1406-4.6875c-1.2656 0-2.3281 0.98438-2.3281 2.1875 0 1.25 1.0938 2.2188 2.3281 2.2188 1.2969 0 2.25-1.0312 2.25-2.2031 0-1.2031-0.98438-2.2031-2.25-2.2031zm-0.078125 0.8125c0.35938 0 0.90625 0 1.3438 0.21875 0.45312 0.23438 0.73438 0.67188 0.73438 1.1562 0 0.4375-0.20312 0.875-0.67188 1.1406-0.4375 0.25-1.0469 0.25-1.4062 0.25-0.39062 0-0.92188 0-1.3594-0.23438-0.45312-0.26562-0.67188-0.73438-0.67188-1.1406 0-0.4375 0.21875-0.85938 0.65625-1.125 0.42188-0.26562 1-0.26562 1.375-0.26562z"/>
</symbol>
<symbol id="o" overflow="visible">
<path d="m0-2.5469h-0.3125c0 0.67188 0 0.78125-0.4375 0.78125h-6.1719l0.10938 1.4375h0.3125c0-0.70312 0.0625-0.78125 0.5625-0.78125h5.1875c0.4375 0 0.4375 0.10938 0.4375 0.78125h0.3125l-0.03125-1.1094z"/>
</symbol>
<symbol id="n" overflow="visible">
<path d="m-1.7344-5.4688c-0.1875 0-0.1875 0.17188-0.1875 0.26562v4.1875c0 0.10938 0 0.26562 0.1875 0.26562 0.15625 0 0.15625-0.17188 0.15625-0.26562v-4.1875c0-0.09375 0-0.26562-0.15625-0.26562z"/>
</symbol>
<clipPath id="aq">
<path d="m32.738 5h194.28v160.65h-194.28z"/>
</clipPath>
</defs>
<path transform="matrix(1 0 0 -1 32.74 165.65)" d="m-0.0017188-4.375e-4v161.39m38.855-161.39v161.39m38.855-161.39v161.39m38.855-161.39v161.39m38.855-161.39v161.39m38.855-161.39v161.39" fill="none" stroke="#bfbfbf" stroke-miterlimit="10" stroke-width=".3985"/>
<path transform="matrix(1 0 0 -1 32.74 165.65)" d="m-0.0017188-4.375e-4h194.28m-194.28 53.797h194.28m-194.28 53.797h194.28m-194.28 53.797h194.28" fill="none" stroke="#bfbfbf" stroke-miterlimit="10" stroke-width=".3985"/>
<path transform="matrix(1 0 0 -1 32.74 165.65)" d="m-0.0017188-4.375e-4v4.2539m38.855-4.2539v4.2539m38.855-4.2539v4.2539m38.855-4.2539v4.2539m38.855-4.2539v4.2539m38.855-4.2539v4.2539m-194.28 157.14v-4.25m38.855 4.25v-4.25m38.855 4.25v-4.25m38.855 4.25v-4.25m38.855 4.25v-4.25m38.855 4.25v-4.25" fill="none" stroke="#7f7f7f" stroke-miterlimit="10" stroke-width=".19925"/>
<path transform="matrix(1 0 0 -1 32.74 165.65)" d="m-0.0017188-4.375e-4h4.2539m-4.2539 53.797h4.2539m-4.2539 53.797h4.2539m-4.2539 53.797h4.2539m190.02-161.39h-4.2539m4.2539 53.797h-4.2539m4.2539 53.797h-4.2539m4.2539 53.797h-4.2539" fill="none" stroke="#7f7f7f" stroke-miterlimit="10" stroke-width=".19925"/>
<path transform="matrix(1 0 0 -1 32.74 165.65)" d="m-0.0017188-4.375e-4v161.39h194.28v-161.39z" fill="none" stroke="#000" stroke-miterlimit="10" stroke-width=".3985"/>
<g>
<use x="30.25" y="175.441" xlink:href="#ap"/>
<use x="69.104" y="175.441" xlink:href="#m"/>
<use x="107.958" y="175.441" xlink:href="#ao"/>
<use x="146.812" y="175.441" xlink:href="#l"/>
<use x="185.667" y="175.441" xlink:href="#an"/>
<use x="224.521" y="175.441" xlink:href="#k"/>
<use x="24.239" y="168.784" xlink:href="#a"/>
<use x="19.258" y="114.988" xlink:href="#m"/>
<use x="24.2393" y="114.988" xlink:href="#a"/>
<use x="19.258" y="61.192" xlink:href="#l"/>
<use x="24.2393" y="61.192" xlink:href="#a"/>
<use x="19.258" y="7.396" xlink:href="#k"/>
<use x="24.2393" y="7.396" xlink:href="#a"/>
</g>
<g clip-path="url(#aq)">
<path transform="matrix(1 0 0 -1 32.74 165.65)" d="m-0.0017188 3.773 38.855 3.9102 38.855 4.6328 38.855 7.7891 38.855 5.2969 38.855 117.88" fill="none" stroke="#0c6dfd" stroke-miterlimit="10" stroke-width="1.1955"/>
</g>
<path transform="matrix(1 0 0 -1 32.74 165.65)" d="m1.9944 3.773c0 1.0977-0.89453 1.9922-1.9961 1.9922-1.0977 0-1.9922-0.89453-1.9922-1.9922 0-1.1016 0.89453-1.9961 1.9922-1.9961 1.1016 0 1.9961 0.89453 1.9961 1.9961z" fill="#fff" stroke="#0c6dfd" stroke-miterlimit="10" stroke-width="1.1955"/>
<path transform="matrix(1 0 0 -1 32.74 165.65)" d="m40.846 7.6832c0 1.0977-0.89062 1.9922-1.9922 1.9922-1.0977 0-1.9922-0.89453-1.9922-1.9922 0-1.1016 0.89453-1.9922 1.9922-1.9922 1.1016 0 1.9922 0.89062 1.9922 1.9922z" fill="#fff" stroke="#0c6dfd" stroke-miterlimit="10" stroke-width="1.1955"/>
<path transform="matrix(1 0 0 -1 32.74 165.65)" d="m79.701 12.316c0 1.0977-0.89062 1.9922-1.9922 1.9922-1.1016 0-1.9922-0.89453-1.9922-1.9922 0-1.1016 0.89062-1.9961 1.9922-1.9961 1.1016 0 1.9922 0.89453 1.9922 1.9961z" fill="#fff" stroke="#0c6dfd" stroke-miterlimit="10" stroke-width="1.1955"/>
<path transform="matrix(1 0 0 -1 32.74 165.65)" d="m118.56 20.105c0 1.1016-0.89062 1.9922-1.9922 1.9922-1.1016 0-1.9922-0.89062-1.9922-1.9922 0-1.0977 0.89062-1.9922 1.9922-1.9922 1.1016 0 1.9922 0.89453 1.9922 1.9922z" fill="#fff" stroke="#0c6dfd" stroke-miterlimit="10" stroke-width="1.1955"/>
<path transform="matrix(1 0 0 -1 32.74 165.65)" d="m157.41 25.402c0 1.1016-0.89453 1.9922-1.9922 1.9922-1.1016 0-1.9922-0.89062-1.9922-1.9922 0-1.0977 0.89062-1.9922 1.9922-1.9922 1.0977 0 1.9922 0.89453 1.9922 1.9922z" fill="#fff" stroke="#0c6dfd" stroke-miterlimit="10" stroke-width="1.1955"/>
<path transform="matrix(1 0 0 -1 32.74 165.65)" d="m196.27 143.28c0 1.1016-0.89453 1.9922-1.9922 1.9922-1.1016 0-1.9961-0.89062-1.9961-1.9922 0-1.1016 0.89453-1.9922 1.9961-1.9922 1.0977 0 1.9922 0.89062 1.9922 1.9922z" fill="#fff" stroke="#0c6dfd" stroke-miterlimit="10" stroke-width="1.1955"/>
<g>
<use x="84.062" y="189.144" xlink:href="#am"/>
<use x="91.53395" y="189.144" xlink:href="#ah"/>
<use x="97.069171" y="189.144" xlink:href="#ag"/>
<use x="105.371005" y="189.144" xlink:href="#af"/>
<use x="109.799381" y="189.144" xlink:href="#ae"/>
<use x="113.701731" y="189.144" xlink:href="#c"/>
<use x="122.000577" y="189.144" xlink:href="#ad"/>
<use x="127.535798" y="189.144" xlink:href="#j"/>
<use x="135.834643" y="189.144" xlink:href="#i"/>
<use x="138.602254" y="189.144" xlink:href="#c"/>
<use x="143.583554" y="189.144" xlink:href="#al"/>
<use x="149.118774" y="189.144" xlink:href="#i"/>
<use x="151.886385" y="189.144" xlink:href="#ak"/>
<use x="156.31476" y="189.144" xlink:href="#j"/>
<use x="161.29606" y="189.144" xlink:href="#aj"/>
<use x="165.724436" y="189.144" xlink:href="#ai"/>
<use x="170.705736" y="189.144" xlink:href="#c"/>
<use x="9.927" y="161.182" xlink:href="#ac"/>
<use x="9.927" y="154.401454" xlink:href="#h"/>
<use x="9.927" y="148.866234" xlink:href="#g"/>
<use x="9.927" y="144.437858" xlink:href="#x"/>
<use x="9.927" y="140.535508" xlink:href="#w"/>
<use x="9.927" y="135.554208" xlink:href="#b"/>
<use x="9.927" y="132.786597" xlink:href="#f"/>
<use x="9.927" y="124.487752" xlink:href="#v"/>
<use x="9.927" y="118.952531" xlink:href="#g"/>
<use x="9.927" y="111.20661" xlink:href="#b"/>
<use x="9.927" y="108.438999" xlink:href="#e"/>
<use x="9.927" y="103.457699" xlink:href="#h"/>
<use x="9.927" y="97.922479" xlink:href="#b"/>
<use x="9.927" y="95.154868" xlink:href="#ab"/>
<use x="9.927" y="90.726493" xlink:href="#f"/>
<use x="9.927" y="85.745193" xlink:href="#aa"/>
<use x="9.927" y="81.316817" xlink:href="#z"/>
<use x="9.927" y="76.335517" xlink:href="#e"/>
<use x="9.927" y="71.354217" xlink:href="#y"/>
<use x="9.927" y="65.264" xlink:href="#u"/>
<use x="11.421" y="60.885" xlink:href="#d"/>
<use x="9.927" y="56.415" xlink:href="#t"/>
<use x="9.927" y="51.434" xlink:href="#s"/>
<use x="9.927" y="42.301285" xlink:href="#r"/>
<use x="9.927" y="35.51775" xlink:href="#q"/>
<use x="9.927" y="27.215916" xlink:href="#p"/>
<use x="9.927" y="22.234616" xlink:href="#o"/>
<use x="5.527" y="19.421" xlink:href="#n"/>
<use x="5.527" y="13.194" xlink:href="#d"/>
</g>
</svg>
