<?xml version="1.0" encoding="UTF-8"?>
<svg width="108pt" height="35pt" version="1.1" viewBox="0 0 108 35" xmlns="http://www.w3.org/2000/svg" xmlns:xlink="http://www.w3.org/1999/xlink">
<defs>
<symbol id="d" overflow="visible">
<path d="m5.7969-4.9062c0-1.0625-0.98438-2.0156-2.3594-2.0156h-2.4844v6.9219h0.89062v-2.875h1.6719c1.2344 0 2.2812-0.90625 2.2812-2.0312zm-0.79688 0c0 0.79688-0.64062 1.4531-1.7812 1.4531h-1.4062v-2.9062h1.4062c1.0938 0 1.7812 0.60938 1.7812 1.4531z"/>
</symbol>
<symbol id="a" overflow="visible">
<path d="m6.1094 0v-6.9219h-0.89062v3.0312h-3.3906v-3.0312h-0.89062v6.9219h0.89062v-3.2969h3.3906v3.2969z"/>
</symbol>
<symbol id="c" overflow="visible">
<path d="m6.0938 0v-6.9219h-0.78125v6.2188h-0.015625l-0.65625-1.375-2.4531-4.8438h-1.2344v6.9219h0.78125v-6.2031h0.015625l0.65625 1.3594 2.4531 4.8438z"/>
</symbol>
<symbol id="b" overflow="visible">
<path d="m4.1406-1.1875c0-0.09375-0.078125-0.125-0.14062-0.125-0.078125 0-0.10938 0.0625-0.125 0.14062-0.34375 1.0312-1.25 1.0312-1.3438 1.0312-0.5 0-0.89062-0.29688-1.125-0.67188-0.29688-0.46875-0.29688-1.125-0.29688-1.4844h2.7812c0.21875 0 0.25 0 0.25-0.21875 0-0.98438-0.54688-1.9531-1.7812-1.9531-1.1562 0-2.0781 1.0312-2.0781 2.2812 0 1.3281 1.0469 2.2969 2.1875 2.2969 1.2188 0 1.6719-1.1094 1.6719-1.2969zm-0.65625-1.3281h-2.375c0.0625-1.4844 0.90625-1.7344 1.25-1.7344 1.0156 0 1.125 1.3438 1.125 1.7344z"/>
</symbol>
</defs>
<path transform="matrix(1 0 0 -1 .589 22.159)" d="m8.4375e-4 -0.0011562 12.422 7.1719" fill="none" stroke="#000" stroke-linecap="round" stroke-miterlimit="10" stroke-width=".59758"/>
<path transform="matrix(1 0 0 -1 .589 22.159)" d="m12.423 7.1707v14.344" fill="none" stroke="#000" stroke-linecap="round" stroke-miterlimit="10" stroke-width=".59758"/>
<g>
<use x="22.249" y="25.619" xlink:href="#d"/>
<use x="21.903" y="34.032" xlink:href="#a"/>
</g>
<path transform="matrix(1 0 0 -1 .589 22.159)" d="m12.423 7.1707 7.8555-4.5352" fill="none" stroke="#000" stroke-linecap="round" stroke-miterlimit="10" stroke-width=".59758"/>
<path transform="matrix(1 0 0 -1 .589 22.159)" d="m29.407 2.6356 7.8555 4.5352" fill="none" stroke="#000" stroke-linecap="round" stroke-miterlimit="10" stroke-width=".59758"/>
<g>
<use x="51.435" y="22.159" xlink:href="#b"/>
</g>
<path transform="matrix(1,0,0,-1,69.445,22.159)" d="m3.125e-4 -0.0011562 12.422 7.1719" fill="none" stroke="#000" stroke-linecap="round" stroke-miterlimit="10" stroke-width=".59758"/>
<path transform="matrix(1,0,0,-1,69.445,22.159)" d="m12.422 7.1707v14.344" fill="none" stroke="#000" stroke-linecap="round" stroke-miterlimit="10" stroke-width=".59758"/>
<g>
<use x="90.759" y="25.619" xlink:href="#c"/>
<use x="90.759" y="34.032" xlink:href="#a"/>
</g>
<path transform="matrix(1,0,0,-1,69.445,22.159)" d="m12.422 7.1707 7.5117-4.3359" fill="none" stroke="#000" stroke-linecap="round" stroke-miterlimit="10" stroke-width=".59758"/>
<path transform="matrix(1,0,0,-1,69.445,22.159)" d="m29.75 2.8348 7.5156 4.3359" fill="none" stroke="#000" stroke-linecap="round" stroke-miterlimit="10" stroke-width=".59758"/>
</svg>
