<?xml version="1.0" encoding="UTF-8"?>
<svg width="117pt" height="33pt" version="1.1" viewBox="0 0 117 33" xmlns="http://www.w3.org/2000/svg" xmlns:xlink="http://www.w3.org/1999/xlink">
<defs>
<symbol id="d" overflow="visible">
<path d="m6.7656-3.4375c0-2.0938-1.4375-3.7031-3.0938-3.7031-1.7031 0-3.1094 1.625-3.1094 3.7031 0 2.1094 1.4688 3.6562 3.0938 3.6562 1.6719 0 3.1094-1.5625 3.1094-3.6562zm-0.89062-0.15625c0 1.9531-1.0625 3.1719-2.2031 3.1719-1.1719 0-2.2188-1.25-2.2188-3.1719 0-1.8125 1.0938-2.9062 2.2031-2.9062 1.1562 0 2.2188 1.125 2.2188 2.9062z"/>
</symbol>
<symbol id="a" overflow="visible">
<path d="m6.1094 0v-6.9219h-0.89062v3.0312h-3.3906v-3.0312h-0.89062v6.9219h0.89062v-3.2969h3.3906v3.2969z"/>
</symbol>
<symbol id="c" overflow="visible">
<path d="m4.9688-1.8906c0-0.64062-0.29688-1.125-0.51562-1.3594-0.46875-0.5-0.79688-0.59375-1.7188-0.8125-0.57812-0.14062-0.73438-0.1875-1.0469-0.4375-0.0625-0.0625-0.34375-0.35938-0.34375-0.79688 0-0.57812 0.54688-1.1875 1.4531-1.1875 0.84375 0 1.3125 0.32812 1.6875 0.64062l0.15625-0.79688c-0.54688-0.32812-1.1094-0.5-1.8281-0.5-1.3906 0-2.25 0.98438-2.25 1.9688 0 0.42188 0.14062 0.84375 0.53125 1.2656 0.42188 0.45312 0.85938 0.5625 1.4531 0.70312 0.84375 0.21875 0.9375 0.25 1.2188 0.48438 0.20312 0.17188 0.42188 0.5 0.42188 0.9375 0 0.65625-0.54688 1.3125-1.4531 1.3125-0.40625 0-1.3125-0.09375-2.1406-0.8125l-0.15625 0.8125c0.875 0.54688 1.6719 0.6875 2.2969 0.6875 1.3281 0 2.2344-1 2.2344-2.1094z"/>
</symbol>
<symbol id="b" overflow="visible">
<path d="m4.1406-1.1875c0-0.09375-0.078125-0.125-0.14062-0.125-0.078125 0-0.10938 0.0625-0.125 0.14062-0.34375 1.0312-1.25 1.0312-1.3438 1.0312-0.5 0-0.89062-0.29688-1.125-0.67188-0.29688-0.46875-0.29688-1.125-0.29688-1.4844h2.7812c0.21875 0 0.25 0 0.25-0.21875 0-0.98438-0.54688-1.9531-1.7812-1.9531-1.1562 0-2.0781 1.0312-2.0781 2.2812 0 1.3281 1.0469 2.2969 2.1875 2.2969 1.2188 0 1.6719-1.1094 1.6719-1.2969zm-0.65625-1.3281h-2.375c0.0625-1.4844 0.90625-1.7344 1.25-1.7344 1.0156 0 1.125 1.3438 1.125 1.7344z"/>
</symbol>
</defs>
<path transform="matrix(1 0 0 -1 .589 25.32)" d="m8.4375e-4 -3.125e-4 12.422-7.1719" fill="none" stroke="#000" stroke-linecap="round" stroke-miterlimit="10" stroke-width=".59758"/>
<path transform="matrix(1 0 0 -1 .589 25.32)" d="m12.423-7.1722 12.422 7.1719" fill="none" stroke="#000" stroke-linecap="round" stroke-miterlimit="10" stroke-width=".59758"/>
<path transform="matrix(1 0 0 -1 .589 25.32)" d="m24.845-3.125e-4v14.344" fill="none" stroke="#000" stroke-linecap="round" stroke-miterlimit="10" stroke-width=".59758"/>
<g>
<use x="34.186" y="7.265" xlink:href="#d"/>
<use x="41.519" y="7.265" xlink:href="#a"/>
</g>
<path transform="matrix(1 0 0 -1 .589 25.32)" d="m24.845 14.343 7.3711 4.2578" fill="none" stroke="#000" stroke-linecap="round" stroke-miterlimit="10" stroke-width=".59758"/>
<path transform="matrix(1 0 0 -1 .589 25.32)" d="m24.845 14.343-12.422 7.1719" fill="none" stroke="#000" stroke-linecap="round" stroke-miterlimit="10" stroke-width=".59758"/>
<path transform="matrix(1 0 0 -1 .589 25.32)" d="m12.423 21.515-12.422-7.1719" fill="none" stroke="#000" stroke-linecap="round" stroke-miterlimit="10" stroke-width=".59758"/>
<path transform="matrix(1 0 0 -1 .589 25.32)" d="m8.4375e-4 14.343v-14.344" fill="none" stroke="#000" stroke-linecap="round" stroke-miterlimit="10" stroke-width=".59758"/>
<g>
<use x="51.897" y="25.32" xlink:href="#b"/>
</g>
<path transform="matrix(1,0,0,-1,69.907,25.32)" d="m-7.5e-4 -3.125e-4 12.422-7.1719" fill="none" stroke="#000" stroke-linecap="round" stroke-miterlimit="10" stroke-width=".59758"/>
<path transform="matrix(1,0,0,-1,69.907,25.32)" d="m12.421-7.1722 12.422 7.1719" fill="none" stroke="#000" stroke-linecap="round" stroke-miterlimit="10" stroke-width=".59758"/>
<path transform="matrix(1,0,0,-1,69.907,25.32)" d="m24.843-3.125e-4v14.344" fill="none" stroke="#000" stroke-linecap="round" stroke-miterlimit="10" stroke-width=".59758"/>
<g>
<use x="104.403" y="7.265" xlink:href="#c"/>
<use x="109.938" y="7.265" xlink:href="#a"/>
</g>
<path transform="matrix(1,0,0,-1,69.907,25.32)" d="m24.843 14.343 8.2734 4.7773" fill="none" stroke="#000" stroke-linecap="round" stroke-miterlimit="10" stroke-width=".59758"/>
<path transform="matrix(1,0,0,-1,69.907,25.32)" d="m24.843 14.343-12.422 7.1719" fill="none" stroke="#000" stroke-linecap="round" stroke-miterlimit="10" stroke-width=".59758"/>
<path transform="matrix(1,0,0,-1,69.907,25.32)" d="m12.421 21.515-12.422-7.1719" fill="none" stroke="#000" stroke-linecap="round" stroke-miterlimit="10" stroke-width=".59758"/>
<path transform="matrix(1,0,0,-1,69.907,25.32)" d="m-7.5e-4 14.343v-14.344" fill="none" stroke="#000" stroke-linecap="round" stroke-miterlimit="10" stroke-width=".59758"/>
</svg>
