<?xml version="1.0" encoding="UTF-8"?>
<svg width="107pt" height="31pt" version="1.1" viewBox="0 0 107 31" xmlns="http://www.w3.org/2000/svg" xmlns:xlink="http://www.w3.org/1999/xlink">
<defs>
<symbol id="a" overflow="visible">
<path d="m6.7656-3.4375c0-2.0938-1.4375-3.7031-3.0938-3.7031-1.7031 0-3.1094 1.625-3.1094 3.7031 0 2.1094 1.4688 3.6562 3.0938 3.6562 1.6719 0 3.1094-1.5625 3.1094-3.6562zm-0.89062-0.15625c0 1.9531-1.0625 3.1719-2.2031 3.1719-1.1719 0-2.2188-1.25-2.2188-3.1719 0-1.8125 1.0938-2.9062 2.2031-2.9062 1.1562 0 2.2188 1.125 2.2188 2.9062z"/>
</symbol>
<symbol id="b" overflow="visible">
<path d="m6.1094 0v-6.9219h-0.89062v3.0312h-3.3906v-3.0312h-0.89062v6.9219h0.89062v-3.2969h3.3906v3.2969z"/>
</symbol>
<symbol id="e" overflow="visible">
<path d="m6.0938 0v-6.9219h-0.78125v6.2188h-0.015625l-0.65625-1.375-2.4531-4.8438h-1.2344v6.9219h0.78125v-6.2031h0.015625l0.65625 1.3594 2.4531 4.8438z"/>
</symbol>
<symbol id="d" overflow="visible">
<path d="m4.1406-1.1875c0-0.09375-0.078125-0.125-0.14062-0.125-0.078125 0-0.10938 0.0625-0.125 0.14062-0.34375 1.0312-1.25 1.0312-1.3438 1.0312-0.5 0-0.89062-0.29688-1.125-0.67188-0.29688-0.46875-0.29688-1.125-0.29688-1.4844h2.7812c0.21875 0 0.25 0 0.25-0.21875 0-0.98438-0.54688-1.9531-1.7812-1.9531-1.1562 0-2.0781 1.0312-2.0781 2.2812 0 1.3281 1.0469 2.2969 2.1875 2.2969 1.2188 0 1.6719-1.1094 1.6719-1.2969zm-0.65625-1.3281h-2.375c0.0625-1.4844 0.90625-1.7344 1.25-1.7344 1.0156 0 1.125 1.3438 1.125 1.7344z"/>
</symbol>
<symbol id="c" overflow="visible">
<path d="m3.3281 0v-0.53125h-1.3594-0.25-0.79688l1.0781-0.95312c0.125-0.10938 0.46875-0.375 0.60938-0.48438 0.29688-0.28125 0.71875-0.64062 0.71875-1.25 0-0.78125-0.59375-1.5-1.5938-1.5-0.73438 0-1.1875 0.39062-1.4219 1.1094l0.32812 0.40625c0.15625-0.57812 0.39062-1.0312 1-1.0312 0.59375 0 1.0312 0.40625 1.0312 1.0312 0 0.57812-0.34375 0.90625-0.75 1.3125-0.14062 0.14062-0.51562 0.45312-0.67188 0.59375-0.20312 0.17188-0.67188 0.64062-0.875 0.8125v0.48438z"/>
</symbol>
</defs>
<path transform="matrix(1 0 0 -1 .589 25.32)" d="m8.4375e-4 -3.125e-4 12.422 7.1719" fill="none" stroke="#000" stroke-linecap="round" stroke-miterlimit="10" stroke-width=".59758"/>
<g>
<use x="9.344" y="7.265" xlink:href="#a"/>
</g>
<path transform="matrix(1 0 0 -1 .589 25.32)" d="m11.177 6.527v9.9336" fill="none" stroke="#000" stroke-linecap="round" stroke-miterlimit="10" stroke-width=".59758"/>
<path transform="matrix(1 0 0 -1 .589 25.32)" d="m13.665 6.527v9.9336" fill="none" stroke="#000" stroke-linecap="round" stroke-miterlimit="10" stroke-width=".59758"/>
<g>
<use x="21.765" y="28.779" xlink:href="#a"/>
<use x="29.098" y="28.779" xlink:href="#b"/>
</g>
<path transform="matrix(1 0 0 -1 .589 25.32)" d="m12.423 7.1716 7.375-4.2578" fill="none" stroke="#000" stroke-linecap="round" stroke-miterlimit="10" stroke-width=".59758"/>
<g>
<use x="49.438" y="25.32" xlink:href="#d"/>
</g>
<path transform="matrix(1,0,0,-1,67.449,25.32)" d="m2.1875e-4 -3.125e-4 12.422 7.1719" fill="none" stroke="#000" stroke-linecap="round" stroke-miterlimit="10" stroke-width=".59758"/>
<g>
<use x="76.203" y="7.265" xlink:href="#a"/>
</g>
<path transform="matrix(1,0,0,-1,67.449,25.32)" d="m11.176 6.527v9.9336" fill="none" stroke="#000" stroke-linecap="round" stroke-miterlimit="10" stroke-width=".59758"/>
<path transform="matrix(1,0,0,-1,67.449,25.32)" d="m13.668 6.527v9.9336" fill="none" stroke="#000" stroke-linecap="round" stroke-miterlimit="10" stroke-width=".59758"/>
<g>
<use x="88.763" y="28.779" xlink:href="#e"/>
<use x="95.819" y="28.779" xlink:href="#b"/>
<use x="102.876" y="30.273" xlink:href="#c"/>
</g>
<path transform="matrix(1,0,0,-1,67.449,25.32)" d="m12.422 7.1716 7.5117-4.3359" fill="none" stroke="#000" stroke-linecap="round" stroke-miterlimit="10" stroke-width=".59758"/>
</svg>
