<?xml version="1.0" standalone="no" ?>
<!DOCTYPE svg PUBLIC "-//W3C//DTD SVG 1.1//EN" "http://www.w3.org/Graphics/SVG/1.1/DTD/svg11.dtd">
<svg width="174px" height="175px" viewBox="0 0 174 175" style="background-color: #ffffff00" xmlns="http://www.w3.org/2000/svg" xmlns:xlink="http://www.w3.org/1999/xlink" version="1.1" >
<path stroke="none" fill="#000000" transform="matrix(0.1 0 0 0.1 -453 -98)" d="M 4909.79,2511.44 L 4890.9,2506.85 L 4893.51,2500.63 L 4960.06,2495.63 L 4964.75,2507.31 L 4909.79,2511.44 L 4909.79,2511.44 Z " />
<path stroke="none" fill="#000000" transform="matrix(0.1 0 0 0.1 -453 -98)" d="M 5058.51,2488.24 L 5067.2,2493.6 L 5066.69,2499.65 L 5044.24,2501.34 L 5039.55,2489.66 L 5058.51,2488.24 L 5058.51,2488.24 Z " />
<path stroke="none" fill="#000000" transform="matrix(0.1 0 0 0.1 -453 -98)" d="M 5064.08,2519.73 L 5064.98,2531.7 L 5056.66,2532.32 L 5051.97,2520.64 L 5064.08,2519.73 L 5064.08,2519.73 Z " />
<path stroke="none" fill="#000000" transform="matrix(0.1 0 0 0.1 -453 -98)" d="M 5394.03,2567.66 L 5395.58,2574.22 L 5393.23,2579.82 L 5066.69,2499.65 L 5067.2,2493.6 L 5071.59,2488.5 L 5394.03,2567.66 L 5394.03,2567.66 Z " />
<path stroke="none" fill="#000000" transform="matrix(0.1 0 0 0.1 -453 -98)" d="M 4952.88,2230.82 L 4957.69,2226.75 L 4964.9,2228.5 L 5014.42,2349.17 L 5001.82,2350.1 L 4952.88,2230.82 L 4952.88,2230.82 Z " />
<path stroke="none" fill="#000000" transform="matrix(0.1 0 0 0.1 -453 -98)" d="M 5071.59,2488.5 L 5067.2,2493.6 L 5058.51,2488.24 L 5048.15,2462.99 L 5060.74,2462.07 L 5071.59,2488.5 L 5071.59,2488.5 Z " />
<path stroke="none" fill="#000000" transform="matrix(0.1 0 0 0.1 -453 -98)" d="M 5030.79,2586.02 L 5043.13,2600.67 L 5040.78,2606.28 L 4886.93,2511.45 L 4890.9,2506.85 L 4909.79,2511.44 L 5030.79,2586.02 Z " />
<path stroke="none" fill="#000000" transform="matrix(0.1 0 0 0.1 -453 -98)" d="M 4667.18,2251.32 L 4672.39,2248.18 L 4678.93,2246.63 L 4893.51,2500.63 L 4890.9,2506.85 L 4886.93,2511.45 L 4667.18,2251.32 Z " />
<path stroke="none" fill="#000000" transform="matrix(0.1 0 0 0.1 -453 -98)" d="M 5370.46,2674.82 L 5371.98,2681.37 L 5371.48,2687.43 L 5040.78,2606.28 L 5043.13,2600.67 L 5047.55,2595.58 L 5370.46,2674.82 Z " />
<path stroke="none" fill="#000000" transform="matrix(0.1 0 0 0.1 -453 -98)" d="M 5357.97,2609 L 5355.11,2620.65 L 5086.62,2554.77 L 5089.48,2543.11 L 5357.97,2609 Z " />
<path stroke="none" fill="#000000" transform="matrix(0.1 0 0 0.1 -453 -98)" d="M 4971.93,2439.24 L 4977.13,2436.1 L 4985.76,2441.49 L 5047.55,2595.58 L 5043.13,2600.67 L 5030.79,2586.02 L 4971.93,2439.24 Z " />
<path stroke="none" fill="#000000" transform="matrix(0.1 0 0 0.1 -453 -98)" d="M 5529.15,2663.57 L 5548.05,2668.17 L 5549.44,2674.08 L 5371.48,2687.43 L 5371.98,2681.37 L 5390.16,2673.99 L 5529.15,2663.57 Z " />
<path stroke="none" fill="#000000" transform="matrix(0.1 0 0 0.1 -453 -98)" d="M 5498.9,2567.39 L 5509.11,2566.67 L 5512.24,2571.87 L 5390.16,2673.99 L 5371.98,2681.37 L 5370.46,2674.82 L 5498.9,2567.39 Z " />
<path stroke="none" fill="#000000" transform="matrix(0.1 0 0 0.1 -453 -98)" d="M 5393.23,2579.82 L 5395.58,2574.22 L 5405.76,2573.44 L 5426.51,2586.23 L 5416.8,2594.34 L 5393.23,2579.82 L 5393.23,2579.82 Z " />
<path stroke="none" fill="#000000" transform="matrix(0.1 0 0 0.1 -453 -98)" d="M 5548.61,2661.46 L 5548.05,2668.17 L 5529.15,2663.57 L 5485.01,2636.37 L 5494.71,2628.25 L 5548.61,2661.46 L 5548.61,2661.46 Z " />
<path stroke="none" fill="#000000" transform="matrix(0.1 0 0 0.1 -453 -98)" d="M 5379.83,2609.43 L 5386.12,2599.21 L 5400.44,2608.03 L 5390.74,2616.15 L 5379.83,2609.43 L 5379.83,2609.43 Z " />
<path stroke="none" fill="#000000" transform="matrix(0.1 0 0 0.1 -453 -98)" d="M 5856.4,2535.84 L 5861.52,2540.23 L 5864.65,2545.43 L 5549.44,2674.08 L 5548.05,2668.17 L 5548.61,2661.46 L 5856.4,2535.84 Z " />
<path stroke="none" fill="#000000" transform="matrix(0.1 0 0 0.1 -453 -98)" d="M 5607.64,2386.38 L 5614.85,2388.13 L 5617.24,2393.97 L 5553.09,2448.41 L 5517.34,2463.01 L 5607.64,2386.38 L 5607.64,2386.38 Z " />
<path stroke="none" fill="#000000" transform="matrix(0.1 0 0 0.1 -453 -98)" d="M 5405.76,2573.44 L 5395.58,2574.22 L 5394.03,2567.66 L 5412.92,2551.63 L 5423.63,2558.28 L 5405.76,2573.44 L 5405.76,2573.44 Z " />
<path stroke="none" fill="#000000" transform="matrix(0.1 0 0 0.1 -453 -98)" d="M 4600.59,2085.23 L 4606.5,2083.86 L 4618.85,2098.52 L 4670.93,2228.43 L 4672.39,2248.18 L 4667.18,2251.32 L 4600.59,2085.23 Z " />
<path stroke="none" fill="#000000" transform="matrix(0.1 0 0 0.1 -453 -98)" d="M 4677.63,2159.49 L 4666.49,2163.96 L 4659.08,2145.48 L 4670.22,2141.02 L 4677.63,2159.49 Z " />
<path stroke="none" fill="#000000" transform="matrix(0.1 0 0 0.1 -453 -98)" d="M 4707.6,2074.63 L 4713.66,2075.12 L 4717.56,2084.61 L 4712.76,2104.74 L 4702.01,2098.11 L 4707.6,2074.63 L 4707.6,2074.63 Z " />
<path stroke="none" fill="#000000" transform="matrix(0.1 0 0 0.1 -453 -98)" d="M 4678.93,2246.63 L 4672.39,2248.18 L 4670.93,2228.43 L 4683.45,2175.95 L 4694.2,2182.59 L 4678.93,2246.63 L 4678.93,2246.63 Z " />
<path stroke="none" fill="#000000" transform="matrix(0.1 0 0 0.1 -453 -98)" d="M 5260.34,2409.35 L 5265.11,2415.02 L 5263.6,2421.14 L 4985.76,2441.49 L 4977.13,2436.1 L 4979.74,2429.9 L 5260.34,2409.35 Z " />
<path stroke="none" fill="#000000" transform="matrix(0.1 0 0 0.1 -453 -98)" d="M 5223.32,2359.95 L 5224.2,2371.91 L 5000.18,2388.32 L 4999.31,2376.35 L 5223.32,2359.95 Z " />
<path stroke="none" fill="#000000" transform="matrix(0.1 0 0 0.1 -453 -98)" d="M 4754.95,2182.45 L 4758.91,2177.85 L 4765.48,2176.32 L 4979.74,2429.9 L 4977.13,2436.1 L 4971.93,2439.24 L 4754.95,2182.45 Z " />
<path stroke="none" fill="#000000" transform="matrix(0.1 0 0 0.1 -453 -98)" d="M 5817.01,2434.45 L 5822.1,2438.86 L 5823.49,2444.77 L 5512.24,2571.87 L 5509.11,2566.67 L 5509.68,2559.96 L 5817.01,2434.45 L 5817.01,2434.45 Z " />
<path stroke="none" fill="#000000" transform="matrix(0.1 0 0 0.1 -453 -98)" d="M 5517.13,2504.14 L 5512.59,2493.04 L 5707.47,2413.45 L 5746.12,2410.63 L 5517.13,2504.14 L 5517.13,2504.14 Z " />
<path stroke="none" fill="#000000" transform="matrix(0.1 0 0 0.1 -453 -98)" d="M 5263.6,2421.14 L 5265.11,2415.02 L 5271.99,2412.23 L 5509.68,2559.96 L 5509.11,2566.67 L 5498.9,2567.39 L 5263.6,2421.14 Z " />
<path stroke="none" fill="#000000" transform="matrix(0.1 0 0 0.1 -453 -98)" d="M 5980.28,2432.99 L 5998.44,2425.61 L 6003.03,2429.59 L 5864.65,2545.43 L 5861.52,2540.23 L 5871.56,2524 L 5980.28,2432.99 Z " />
<path stroke="none" fill="#000000" transform="matrix(0.1 0 0 0.1 -453 -98)" d="M 5904.98,2469.75 L 5897.28,2460.55 L 5911.47,2448.67 L 5919.17,2457.87 L 5904.98,2469.75 Z " />
<path stroke="none" fill="#000000" transform="matrix(0.1 0 0 0.1 -453 -98)" d="M 5895.11,2373.69 L 5902.84,2367.1 L 5908.46,2369.44 L 5902.42,2394.72 L 5889.86,2395.66 L 5895.11,2373.69 L 5895.11,2373.69 Z " />
<path stroke="none" fill="#000000" transform="matrix(0.1 0 0 0.1 -453 -98)" d="M 5871.56,2524 L 5861.52,2540.23 L 5856.4,2535.84 L 5871.33,2473.27 L 5883.9,2472.32 L 5871.56,2524 L 5871.56,2524 Z " />
<path stroke="none" fill="#000000" transform="matrix(0.1 0 0 0.1 -453 -98)" d="M 5899.36,2361.34 L 5902.84,2367.1 L 5895.11,2373.69 L 5877.13,2375 L 5880.18,2362.74 L 5899.36,2361.34 L 5899.36,2361.34 Z " />
<path stroke="none" fill="#000000" transform="matrix(0.1 0 0 0.1 -453 -98)" d="M 5617.24,2393.97 L 5614.85,2388.13 L 5618.75,2381.83 L 5800.42,2368.57 L 5797.37,2380.82 L 5617.24,2393.97 L 5617.24,2393.97 Z " />
<path stroke="none" fill="#000000" transform="matrix(0.1 0 0 0.1 -453 -98)" d="M 5649.06,2339.53 L 5648.19,2327.56 L 5813.61,2315.49 L 5810.56,2327.74 L 5649.06,2339.53 L 5649.06,2339.53 Z " />
<path stroke="none" fill="#000000" transform="matrix(0.1 0 0 0.1 -453 -98)" d="M 5501.08,2126.81 L 5505.47,2121.71 L 5512.18,2122.27 L 5618.75,2381.83 L 5614.85,2388.13 L 5607.64,2386.38 L 5501.08,2126.81 Z " />
<path stroke="none" fill="#000000" transform="matrix(0.1 0 0 0.1 -453 -98)" d="M 4964.9,2228.5 L 4957.69,2226.75 L 4957.15,2219.34 L 5147.1,2058.16 L 5154.84,2067.33 L 4964.9,2228.5 L 4964.9,2228.5 Z " />
<path stroke="none" fill="#000000" transform="matrix(0.1 0 0 0.1 -453 -98)" d="M 4956.86,2167.54 L 4949.09,2158.39 L 5113.74,2018.68 L 5121.48,2027.85 L 4956.86,2167.54 L 4956.86,2167.54 Z " />
<path stroke="none" fill="#000000" transform="matrix(0.1 0 0 0.1 -453 -98)" d="M 4717.56,2084.61 L 4713.66,2075.12 L 4719.42,2071.63 L 4747.94,2089.35 L 4744.9,2101.59 L 4717.56,2084.61 L 4717.56,2084.61 Z " />
<path stroke="none" fill="#000000" transform="matrix(0.1 0 0 0.1 -453 -98)" d="M 4957.15,2219.34 L 4957.69,2226.75 L 4952.88,2230.82 L 4848.31,2165.85 L 4851.35,2153.61 L 4957.15,2219.34 L 4957.15,2219.34 Z " />
<path stroke="none" fill="#000000" transform="matrix(0.1 0 0 0.1 -453 -98)" d="M 5823.49,2444.77 L 5822.1,2438.86 L 5829.93,2432.25 L 5994.95,2419.85 L 5998.44,2425.61 L 5980.28,2432.99 L 5823.49,2444.77 Z " />
<path stroke="none" fill="#000000" transform="matrix(0.1 0 0 0.1 -453 -98)" d="M 6170.22,2137.36 L 6176.92,2137.94 L 6182.53,2140.28 L 6003.03,2429.59 L 5998.44,2425.61 L 5994.95,2419.85 L 6170.22,2137.36 Z " />
<path stroke="none" fill="#000000" transform="matrix(0.1 0 0 0.1 -453 -98)" d="M 5884.7,2162.15 L 5891.57,2159.36 L 5896.93,2162.68 L 5829.93,2432.25 L 5822.1,2438.86 L 5817.01,2434.45 L 5884.7,2162.15 Z " />
<path stroke="none" fill="#000000" transform="matrix(0.1 0 0 0.1 -453 -98)" d="M 6108.42,1983.35 L 6110.88,1973.39 L 6116.8,1972.02 L 6175.47,2118.21 L 6176.92,2137.94 L 6170.22,2137.36 L 6108.42,1983.35 Z " />
<path stroke="none" fill="#000000" transform="matrix(0.1 0 0 0.1 -453 -98)" d="M 6136.78,1968.35 L 6147.92,1963.88 L 6174.76,2030.77 L 6163.63,2035.24 L 6136.78,1968.35 Z " />
<path stroke="none" fill="#000000" transform="matrix(0.1 0 0 0.1 -453 -98)" d="M 6208.2,1981.35 L 6218.24,1965.12 L 6224.3,1965.61 L 6182.53,2140.28 L 6176.92,2137.94 L 6175.47,2118.21 L 6208.2,1981.35 Z " />
<path stroke="none" fill="#000000" transform="matrix(0.1 0 0 0.1 -453 -98)" d="M 6104.68,1970.79 L 6110.88,1973.39 L 6108.42,1983.35 L 5896.93,2162.68 L 5891.57,2159.36 L 5891.03,2151.95 L 6104.68,1970.79 Z " />
<path stroke="none" fill="#000000" transform="matrix(0.1 0 0 0.1 -453 -98)" d="M 5647.4,2014.7 L 5647.97,2007.99 L 5653.73,2004.51 L 5891.03,2151.95 L 5891.57,2159.36 L 5884.7,2162.15 L 5647.4,2014.7 L 5647.4,2014.7 Z " />
<path stroke="none" fill="#000000" transform="matrix(0.1 0 0 0.1 -453 -98)" d="M 5639.93,2070.84 L 5646.26,2060.64 L 5835.58,2178.28 L 5829.24,2188.47 L 5639.93,2070.84 L 5639.93,2070.84 Z " />
<path stroke="none" fill="#000000" transform="matrix(0.1 0 0 0.1 -453 -98)" d="M 4755.07,2168.43 L 4758.91,2177.85 L 4754.95,2182.45 L 4634.63,2108.26 L 4655.07,2106.76 L 4755.07,2168.43 L 4755.07,2168.43 Z " />
<path stroke="none" fill="#000000" transform="matrix(0.1 0 0 0.1 -453 -98)" d="M 4618.85,2098.52 L 4606.5,2083.86 L 4612.26,2080.36 L 4621.34,2085.96 L 4622.42,2100.72 L 4618.85,2098.52 L 4618.85,2098.52 Z " />
<path stroke="none" fill="#000000" transform="matrix(0.1 0 0 0.1 -453 -98)" d="M 4575.7,1745.65 L 4581.76,1746.14 L 4587.96,1748.77 L 4612.26,2080.36 L 4606.5,2083.86 L 4600.59,2085.23 L 4575.7,1745.65 Z " />
<path stroke="none" fill="#000000" transform="matrix(0.1 0 0 0.1 -453 -98)" d="M 5327.96,2137.47 L 5334.52,2135.94 L 5339.61,2140.35 L 5271.99,2412.23 L 5265.11,2415.02 L 5260.34,2409.35 L 5327.96,2137.47 Z " />
<path stroke="none" fill="#000000" transform="matrix(0.1 0 0 0.1 -453 -98)" d="M 6080.46,1639.65 L 6086.22,1636.17 L 6092.27,1636.66 L 6116.8,1972.02 L 6110.88,1973.39 L 6104.68,1970.79 L 6080.46,1639.65 Z " />
<path stroke="none" fill="#000000" transform="matrix(0.1 0 0 0.1 -453 -98)" d="M 5641.66,2004.08 L 5647.97,2007.99 L 5647.4,2014.7 L 5339.61,2140.35 L 5334.52,2135.94 L 5336.29,2128.74 L 5641.66,2004.08 Z " />
<path stroke="none" fill="#000000" transform="matrix(0.1 0 0 0.1 -453 -98)" d="M 5113.34,1883.49 L 5115.95,1877.28 L 5123.35,1876.74 L 5336.29,2128.74 L 5334.52,2135.94 L 5327.96,2137.47 L 5113.34,1883.49 Z " />
<path stroke="none" fill="#000000" transform="matrix(0.1 0 0 0.1 -453 -98)" d="M 5084.84,1944.21 L 5094.01,1936.46 L 5272.43,2147.61 L 5263.26,2155.35 L 5084.84,1944.21 Z " />
<path stroke="none" fill="#000000" transform="matrix(0.1 0 0 0.1 -453 -98)" d="M 4822.13,1898.7 L 4828.43,1898.24 L 4833.2,1903.91 L 4765.48,2176.32 L 4758.91,2177.85 L 4755.07,2168.43 L 4822.13,1898.7 L 4822.13,1898.7 Z " />
<path stroke="none" fill="#000000" transform="matrix(0.1 0 0 0.1 -453 -98)" d="M 4863.86,1945.79 L 4875.51,1948.68 L 4821.46,2166.08 L 4809.82,2163.18 L 4863.86,1945.79 L 4863.86,1945.79 Z " />
<path stroke="none" fill="#000000" transform="matrix(0.1 0 0 0.1 -453 -98)" d="M 6074.36,2079.27 L 6081.08,2079.83 L 6085.67,2083.81 L 5908.46,2369.44 L 5902.84,2367.1 L 5899.36,2361.34 L 6074.36,2079.27 Z " />
<path stroke="none" fill="#000000" transform="matrix(0.1 0 0 0.1 -453 -98)" d="M 5502.67,2114.84 L 5505.47,2121.71 L 5501.08,2126.81 L 5473.83,2120.12 L 5492.73,2112.4 L 5502.67,2114.84 L 5502.67,2114.84 Z " />
<path stroke="none" fill="#000000" transform="matrix(0.1 0 0 0.1 -453 -98)" d="M 5334.04,2085.79 L 5320.86,2070.2 L 5367.17,2081.57 L 5348.27,2089.29 L 5334.04,2085.79 L 5334.04,2085.79 Z " />
<path stroke="none" fill="#000000" transform="matrix(0.1 0 0 0.1 -453 -98)" d="M 5676.53,1834.48 L 5683.93,1833.94 L 5687.41,1839.7 L 5675.19,1859.41 L 5673.7,1839.05 L 5676.53,1834.48 L 5676.53,1834.48 Z " />
<path stroke="none" fill="#000000" transform="matrix(0.1 0 0 0.1 -453 -98)" d="M 5512.18,2122.27 L 5505.47,2121.71 L 5502.67,2114.84 L 5508.06,2106.15 L 5526.97,2098.43 L 5512.18,2122.27 L 5512.18,2122.27 Z " />
<path stroke="none" fill="#000000" transform="matrix(0.1 0 0 0.1 -453 -98)" d="M 5605.54,1948.95 L 5607.03,1969.32 L 5595.13,1988.52 L 5576.22,1996.23 L 5605.54,1948.95 L 5605.54,1948.95 Z " />
<path stroke="none" fill="#000000" transform="matrix(0.1 0 0 0.1 -453 -98)" d="M 5597.97,1845.51 L 5599.46,1865.88 L 5499.1,2027.72 L 5480.19,2035.43 L 5597.97,1845.51 L 5597.97,1845.51 Z " />
<path stroke="none" fill="#000000" transform="matrix(0.1 0 0 0.1 -453 -98)" d="M 4617.41,1570.98 L 4623.02,1573.32 L 4624.47,1593.06 L 4591.8,1729.92 L 4581.76,1746.14 L 4575.7,1745.65 L 4617.41,1570.98 Z " />
<path stroke="none" fill="#000000" transform="matrix(0.1 0 0 0.1 -453 -98)" d="M 4636.61,1679.97 L 4624.93,1677.18 L 4629.45,1658.29 L 4641.12,1661.07 L 4636.61,1679.97 Z " />
<path stroke="none" fill="#000000" transform="matrix(0.1 0 0 0.1 -453 -98)" d="M 4714.29,1627.47 L 4718.88,1631.45 L 4716.44,1641.32 L 4628.37,1714.98 L 4607.87,1716.48 L 4714.29,1627.47 L 4714.29,1627.47 Z " />
<path stroke="none" fill="#000000" transform="matrix(0.1 0 0 0.1 -453 -98)" d="M 4587.96,1748.77 L 4581.76,1746.14 L 4591.8,1729.92 L 4595.12,1727.14 L 4596.19,1741.89 L 4587.96,1748.77 L 4587.96,1748.77 Z " />
<path stroke="none" fill="#000000" transform="matrix(0.1 0 0 0.1 -453 -98)" d="M 5146.15,1706.75 L 5151.91,1703.27 L 5158.21,1707.18 L 5160.17,1733.89 L 5149.41,1751.25 L 5146.15,1706.75 L 5146.15,1706.75 Z " />
<path stroke="none" fill="#000000" transform="matrix(0.1 0 0 0.1 -453 -98)" d="M 5171.88,1893.9 L 5159.47,1879.21 L 5169.61,1862.86 L 5171.88,1893.9 L 5171.88,1893.9 Z " />
<path stroke="none" fill="#000000" transform="matrix(0.1 0 0 0.1 -453 -98)" d="M 4683.1,1739.26 L 4689.01,1737.89 L 4695.22,1740.49 L 4719.42,2071.63 L 4713.66,2075.12 L 4707.6,2074.63 L 4683.1,1739.26 L 4683.1,1739.26 Z " />
<path stroke="none" fill="#000000" transform="matrix(0.1 0 0 0.1 -453 -98)" d="M 4623.02,1752.2 L 4634.98,1751.32 L 4658.25,2069.72 L 4646.29,2070.6 L 4623.02,1752.2 L 4623.02,1752.2 Z " />
<path stroke="none" fill="#000000" transform="matrix(0.1 0 0 0.1 -453 -98)" d="M 5588.14,1711.28 L 5589.63,1731.64 L 5550.56,1685.4 L 5570.38,1690.26 L 5588.14,1711.28 L 5588.14,1711.28 Z " />
<path stroke="none" fill="#000000" transform="matrix(0.1 0 0 0.1 -453 -98)" d="M 5686.54,1827.73 L 5683.93,1833.94 L 5676.53,1834.48 L 5673.06,1830.38 L 5671.57,1810.02 L 5686.54,1827.73 L 5686.54,1827.73 Z " />
<path stroke="none" fill="#000000" transform="matrix(0.1 0 0 0.1 -453 -98)" d="M 5966.76,1807.31 L 5971.53,1812.97 L 5967.63,1819.27 L 5687.41,1839.7 L 5683.93,1833.94 L 5686.54,1827.73 L 5966.76,1807.31 Z " />
<path stroke="none" fill="#000000" transform="matrix(0.1 0 0 0.1 -453 -98)" d="M 5302.75,1648.2 L 5313.51,1630.84 L 5319.1,1628.56 L 5338.93,1633.43 L 5302.75,1648.2 L 5302.75,1648.2 Z " />
<path stroke="none" fill="#000000" transform="matrix(0.1 0 0 0.1 -453 -98)" d="M 5158.21,1707.18 L 5151.91,1703.27 L 5152.48,1696.56 L 5193.78,1679.7 L 5183.01,1697.06 L 5158.21,1707.18 L 5158.21,1707.18 Z " />
<path stroke="none" fill="#000000" transform="matrix(0.1 0 0 0.1 -453 -98)" d="M 5159.93,1640.65 L 5155.4,1629.54 L 5248.44,1591.57 L 5237.68,1608.92 L 5159.93,1640.65 L 5159.93,1640.65 Z " />
<path stroke="none" fill="#000000" transform="matrix(0.1 0 0 0.1 -453 -98)" d="M 4908.81,1559.29 L 4908.26,1551.88 L 4915.14,1549.09 L 5152.48,1696.56 L 5151.91,1703.27 L 5146.15,1706.75 L 4908.81,1559.29 Z " />
<path stroke="none" fill="#000000" transform="matrix(0.1 0 0 0.1 -453 -98)" d="M 4902.91,1548.56 L 4908.26,1551.88 L 4908.81,1559.29 L 4776.44,1671.59 L 4771.65,1659.92 L 4902.91,1548.56 L 4902.91,1548.56 Z " />
<path stroke="none" fill="#000000" transform="matrix(0.1 0 0 0.1 -453 -98)" d="M 4695.22,1740.49 L 4689.01,1737.89 L 4691.48,1727.93 L 4710.72,1711.61 L 4715.51,1723.28 L 4695.22,1740.49 L 4695.22,1740.49 Z " />
<path stroke="none" fill="#000000" transform="matrix(0.1 0 0 0.1 -453 -98)" d="M 4624.47,1593.06 L 4623.02,1573.32 L 4629.72,1573.9 L 4635.84,1589.16 L 4627.99,1601.82 L 4624.47,1593.06 L 4624.47,1593.06 Z " />
<path stroke="none" fill="#000000" transform="matrix(0.1 0 0 0.1 -453 -98)" d="M 4654.52,1635.75 L 4644.84,1643.84 L 4630.73,1608.67 L 4647.94,1619.35 L 4654.52,1635.75 L 4654.52,1635.75 Z " />
<path stroke="none" fill="#000000" transform="matrix(0.1 0 0 0.1 -453 -98)" d="M 4691.48,1727.93 L 4689.01,1737.89 L 4683.1,1739.26 L 4674.59,1718.04 L 4684.27,1709.94 L 4691.48,1727.93 L 4691.48,1727.93 Z " />
<path stroke="none" fill="#000000" transform="matrix(0.1 0 0 0.1 -453 -98)" d="M 5617.58,1675.08 L 5623.24,1670.29 L 5629.45,1672.89 L 5653.73,2004.51 L 5647.97,2007.99 L 5641.66,2004.08 L 5617.58,1675.08 Z " />
<path stroke="none" fill="#000000" transform="matrix(0.1 0 0 0.1 -453 -98)" d="M 6212.04,1962.49 L 6218.24,1965.12 L 6208.2,1981.35 L 6189.29,1997.16 L 6184.59,1985.44 L 6212.04,1962.49 L 6212.04,1962.49 Z " />
<path stroke="none" fill="#000000" transform="matrix(0.1 0 0 0.1 -453 -98)" d="M 6085.67,2083.81 L 6081.08,2079.83 L 6083.52,2069.97 L 6107.21,2050.15 L 6111.91,2061.87 L 6085.67,2083.81 L 6085.67,2083.81 Z " />
<path stroke="none" fill="#000000" transform="matrix(0.1 0 0 0.1 -453 -98)" d="M 6181.09,1946.41 L 6188.79,1955.62 L 6176.68,1965.74 L 6171.98,1954.03 L 6181.09,1946.41 L 6181.09,1946.41 Z " />
<path stroke="none" fill="#000000" transform="matrix(0.1 0 0 0.1 -453 -98)" d="M 6098,2031.54 L 6090.31,2022.33 L 6094.6,2018.74 L 6099.3,2030.45 L 6098,2031.54 L 6098,2031.54 Z " />
<path stroke="none" fill="#000000" transform="matrix(0.1 0 0 0.1 -453 -98)" d="M 5967.63,1819.27 L 5971.53,1812.97 L 5977.83,1812.51 L 6046,1978.59 L 6036.38,1986.74 L 5967.63,1819.27 L 5967.63,1819.27 Z " />
<path stroke="none" fill="#000000" transform="matrix(0.1 0 0 0.1 -453 -98)" d="M 6083.52,2069.97 L 6081.08,2079.83 L 6074.36,2079.27 L 6066.72,2060.66 L 6076.34,2052.5 L 6083.52,2069.97 L 6083.52,2069.97 Z " />
<path stroke="none" fill="#000000" transform="matrix(0.1 0 0 0.1 -453 -98)" d="M 4716.44,1641.32 L 4718.88,1631.45 L 4725.6,1632.01 L 4832.33,1891.94 L 4828.43,1898.24 L 4822.13,1898.7 L 4716.44,1641.32 Z " />
<path stroke="none" fill="#000000" transform="matrix(0.1 0 0 0.1 -453 -98)" d="M 5112.46,1871.52 L 5115.95,1877.28 L 5113.34,1883.49 L 4833.2,1903.91 L 4828.43,1898.24 L 4832.33,1891.94 L 5112.46,1871.52 Z " />
<path stroke="none" fill="#000000" transform="matrix(0.1 0 0 0.1 -453 -98)" d="M 5527.91,1298.97 L 5534.78,1296.18 L 5539.56,1301.85 L 5480.5,1539.53 L 5468.84,1536.67 L 5527.91,1298.97 L 5527.91,1298.97 Z " />
<path stroke="none" fill="#000000" transform="matrix(0.1 0 0 0.1 -453 -98)" d="M 4969.91,1278.93 L 4977.73,1272.32 L 4982.82,1276.72 L 4976.99,1300.19 L 4964.4,1301.11 L 4969.91,1278.93 L 4969.91,1278.93 Z " />
<path stroke="none" fill="#000000" transform="matrix(0.1 0 0 0.1 -453 -98)" d="M 4915.14,1549.09 L 4908.26,1551.88 L 4902.91,1548.56 L 4945.11,1378.72 L 4957.7,1377.8 L 4915.14,1549.09 L 4915.14,1549.09 Z " />
<path stroke="none" fill="#000000" transform="matrix(0.1 0 0 0.1 -453 -98)" d="M 4973.51,1529.21 L 4961.86,1526.31 L 4999.53,1374.75 L 5012.12,1373.83 L 4973.51,1529.21 L 4973.51,1529.21 Z " />
<path stroke="none" fill="#000000" transform="matrix(0.1 0 0 0.1 -453 -98)" d="M 4796.87,1281.61 L 4801.46,1285.59 L 4804.95,1291.34 L 4629.72,1573.9 L 4623.02,1573.32 L 4617.41,1570.98 L 4796.87,1281.61 Z " />
<path stroke="none" fill="#000000" transform="matrix(0.1 0 0 0.1 -453 -98)" d="M 4976.34,1266.41 L 4977.73,1272.32 L 4969.91,1278.93 L 4951.41,1280.32 L 4954.34,1268.06 L 4976.34,1266.41 L 4976.34,1266.41 Z " />
<path stroke="none" fill="#000000" transform="matrix(0.1 0 0 0.1 -453 -98)" d="M 4857.08,1287.42 L 4839.78,1276.69 L 4874.77,1274.05 L 4871.84,1286.31 L 4857.08,1287.42 L 4857.08,1287.42 Z " />
<path stroke="none" fill="#000000" transform="matrix(0.1 0 0 0.1 -453 -98)" d="M 4804.95,1291.34 L 4801.46,1285.59 L 4819.65,1278.2 L 4829.16,1277.49 L 4821.33,1290.11 L 4804.95,1291.34 L 4804.95,1291.34 Z " />
<path stroke="none" fill="#000000" transform="matrix(0.1 0 0 0.1 -453 -98)" d="M 4935.29,1165.88 L 4938.42,1171.09 L 4928.38,1187.3 L 4819.65,1278.2 L 4801.46,1285.59 L 4796.87,1281.61 L 4935.29,1165.88 Z " />
<path stroke="none" fill="#000000" transform="matrix(0.1 0 0 0.1 -453 -98)" d="M 4888.5,1262.52 L 4880.8,1253.32 L 4895.03,1241.43 L 4902.72,1250.63 L 4888.5,1262.52 Z " />
<path stroke="none" fill="#000000" transform="matrix(0.1 0 0 0.1 -453 -98)" d="M 4891.5,1341.77 L 4897.11,1344.11 L 4900.6,1349.87 L 4725.6,1632.01 L 4718.88,1631.45 L 4714.29,1627.47 L 4891.5,1341.77 Z " />
<path stroke="none" fill="#000000" transform="matrix(0.1 0 0 0.1 -453 -98)" d="M 4835.1,1317.24 L 4845.3,1323.56 L 4677.42,1594.21 L 4667.22,1587.89 L 4835.1,1317.24 Z " />
<path stroke="none" fill="#000000" transform="matrix(0.1 0 0 0.1 -453 -98)" d="M 5287.69,1588.99 L 5294.41,1589.55 L 5297.21,1596.41 L 5123.35,1876.74 L 5115.95,1877.28 L 5112.46,1871.52 L 5287.69,1588.99 Z " />
<path stroke="none" fill="#000000" transform="matrix(0.1 0 0 0.1 -453 -98)" d="M 5181.15,1329.43 L 5185.05,1323.13 L 5192.26,1324.89 L 5298.8,1584.45 L 5294.41,1589.55 L 5287.69,1588.99 L 5181.15,1329.43 Z " />
<path stroke="none" fill="#000000" transform="matrix(0.1 0 0 0.1 -453 -98)" d="M 5621.7,1663.73 L 5623.24,1670.29 L 5617.58,1675.08 L 5297.21,1596.41 L 5294.41,1589.55 L 5298.8,1584.45 L 5621.7,1663.73 Z " />
<path stroke="none" fill="#000000" transform="matrix(0.1 0 0 0.1 -453 -98)" d="M 5608.98,1597.85 L 5606.12,1609.51 L 5337.6,1543.57 L 5340.46,1531.92 L 5608.98,1597.85 Z " />
<path stroke="none" fill="#000000" transform="matrix(0.1 0 0 0.1 -453 -98)" d="M 5287.64,1139.37 L 5290.77,1144.57 L 5290.2,1151.28 L 4982.82,1276.72 L 4977.73,1272.32 L 4976.34,1266.41 L 5287.64,1139.37 Z " />
<path stroke="none" fill="#000000" transform="matrix(0.1 0 0 0.1 -453 -98)" d="M 5409.76,1037.27 L 5427.96,1029.88 L 5429.48,1036.44 L 5380.21,1077.62 L 5369.44,1070.98 L 5409.76,1037.27 L 5409.76,1037.27 Z " />
<path stroke="none" fill="#000000" transform="matrix(0.1 0 0 0.1 -453 -98)" d="M 5300.98,1143.85 L 5290.77,1144.57 L 5287.64,1139.37 L 5307.97,1122.37 L 5318.74,1129.01 L 5300.98,1143.85 L 5300.98,1143.85 Z " />
<path stroke="none" fill="#000000" transform="matrix(0.1 0 0 0.1 -453 -98)" d="M 5536.29,1290.06 L 5534.78,1296.18 L 5527.91,1298.97 L 5421.19,1232.67 L 5430.8,1224.51 L 5536.29,1290.06 L 5536.29,1290.06 Z " />
<path stroke="none" fill="#000000" transform="matrix(0.1 0 0 0.1 -453 -98)" d="M 5290.2,1151.28 L 5290.77,1144.57 L 5300.98,1143.85 L 5327.51,1160.33 L 5317.89,1168.49 L 5290.2,1151.28 L 5290.2,1151.28 Z " />
<path stroke="none" fill="#000000" transform="matrix(0.1 0 0 0.1 -453 -98)" d="M 5478.69,1315.14 L 5472.36,1325.34 L 5379.76,1267.81 L 5389.37,1259.65 L 5478.69,1315.14 L 5478.69,1315.14 Z " />
<path stroke="none" fill="#000000" transform="matrix(0.1 0 0 0.1 -453 -98)" d="M 5270.75,1047.75 L 5251.86,1043.16 L 5250.47,1037.24 L 5428.46,1023.83 L 5427.96,1029.88 L 5409.76,1037.27 L 5270.75,1047.75 Z " />
<path stroke="none" fill="#000000" transform="matrix(0.1 0 0 0.1 -453 -98)" d="M 5351.49,1061.51 L 5352.39,1073.47 L 5332.03,1075.01 L 5331.13,1063.04 L 5351.49,1061.51 Z " />
<path stroke="none" fill="#000000" transform="matrix(0.1 0 0 0.1 -453 -98)" d="M 5759.07,1105.01 L 5756.73,1110.61 L 5752.31,1115.7 L 5429.48,1036.44 L 5427.96,1029.88 L 5428.46,1023.83 L 5759.07,1105.01 Z " />
<path stroke="none" fill="#000000" transform="matrix(0.1 0 0 0.1 -453 -98)" d="M 5814.2,1269.79 L 5822.82,1275.18 L 5820.21,1281.38 L 5800.45,1282.82 L 5795.66,1271.14 L 5814.2,1269.79 L 5814.2,1269.79 Z " />
<path stroke="none" fill="#000000" transform="matrix(0.1 0 0 0.1 -453 -98)" d="M 5539.56,1301.85 L 5534.78,1296.18 L 5536.29,1290.06 L 5715.89,1276.96 L 5720.68,1288.64 L 5539.56,1301.85 L 5539.56,1301.85 Z " />
<path stroke="none" fill="#000000" transform="matrix(0.1 0 0 0.1 -453 -98)" d="M 6187.76,1630.94 L 6193.52,1627.44 L 6199.43,1626.07 L 6224.3,1965.61 L 6218.24,1965.12 L 6212.04,1962.49 L 6187.76,1630.94 Z " />
<path stroke="none" fill="#000000" transform="matrix(0.1 0 0 0.1 -453 -98)" d="M 4900.6,1349.87 L 4897.11,1344.11 L 4904.85,1337.53 L 5182.66,1317.29 L 5185.05,1323.13 L 5181.15,1329.43 L 4900.6,1349.87 Z " />
<path stroke="none" fill="#000000" transform="matrix(0.1 0 0 0.1 -453 -98)" d="M 5394.15,1137.89 L 5404.34,1137.12 L 5405.88,1143.68 L 5192.26,1324.89 L 5185.05,1323.13 L 5182.66,1317.29 L 5394.15,1137.89 Z " />
<path stroke="none" fill="#000000" transform="matrix(0.1 0 0 0.1 -453 -98)" d="M 5413.78,1189.12 L 5421.55,1198.27 L 5251.1,1342.85 L 5243.34,1333.7 L 5413.78,1189.12 Z " />
<path stroke="none" fill="#000000" transform="matrix(0.1 0 0 0.1 -453 -98)" d="M 5977.83,1812.51 L 5971.53,1812.97 L 5966.76,1807.31 L 6011.48,1627.41 L 6022.19,1634.07 L 5977.83,1812.51 L 5977.83,1812.51 Z " />
<path stroke="none" fill="#000000" transform="matrix(0.1 0 0 0.1 -453 -98)" d="M 6031.77,1810.45 L 6020.13,1807.55 L 6057.76,1656.16 L 6066.06,1661.31 L 6070.7,1653.83 L 6031.77,1810.45 L 6031.77,1810.45 Z " />
<path stroke="none" fill="#000000" transform="matrix(0.1 0 0 0.1 -453 -98)" d="M 5820.21,1281.38 L 5822.82,1275.18 L 5828.03,1272.04 L 6015.1,1493.45 L 5982.04,1472.91 L 5820.21,1281.38 L 5820.21,1281.38 Z " />
<path stroke="none" fill="#000000" transform="matrix(0.1 0 0 0.1 -453 -98)" d="M 6181.17,1612.78 L 6193.52,1627.44 L 6187.76,1630.94 L 6134.39,1598.04 L 6137.33,1585.75 L 6181.17,1612.78 L 6181.17,1612.78 Z " />
<path stroke="none" fill="#000000" transform="matrix(0.1 0 0 0.1 -453 -98)" d="M 6044.87,1542.85 L 6041.02,1533.43 L 6044.99,1528.83 L 6069.22,1543.76 L 6066.28,1556.05 L 6044.87,1542.85 L 6044.87,1542.85 Z " />
<path stroke="none" fill="#000000" transform="matrix(0.1 0 0 0.1 -453 -98)" d="M 4928.38,1187.3 L 4938.42,1171.09 L 4943.54,1175.48 L 4904.85,1337.53 L 4897.11,1344.11 L 4891.5,1341.77 L 4928.38,1187.3 Z " />
<path stroke="none" fill="#000000" transform="matrix(0.1 0 0 0.1 -453 -98)" d="M 5835,1482.84 L 5842.2,1484.59 L 5842.75,1492 L 5629.45,1672.89 L 5623.24,1670.29 L 5621.7,1663.73 L 5835,1482.84 Z " />
<path stroke="none" fill="#000000" transform="matrix(0.1 0 0 0.1 -453 -98)" d="M 6082.31,1626.68 L 6086.22,1636.17 L 6080.46,1639.65 L 5842.75,1492 L 5842.2,1484.59 L 5847.02,1480.52 L 6082.31,1626.68 Z " />
<path stroke="none" fill="#000000" transform="matrix(0.1 0 0 0.1 -453 -98)" d="M 6055.75,1549.31 L 6049.42,1559.5 L 5880.52,1454.59 L 5886.85,1444.4 L 6055.75,1549.31 Z " />
<path stroke="none" fill="#000000" transform="matrix(0.1 0 0 0.1 -453 -98)" d="M 5728.27,1222.84 L 5732.66,1217.74 L 5741.35,1223.11 L 5847.02,1480.52 L 5842.2,1484.59 L 5835,1482.84 L 5728.27,1222.84 Z " />
<path stroke="none" fill="#000000" transform="matrix(0.1 0 0 0.1 -453 -98)" d="M 5250.47,1037.24 L 5251.86,1043.16 L 5251.31,1049.86 L 4943.54,1175.48 L 4938.42,1171.09 L 4935.29,1165.88 L 5250.47,1037.24 Z " />
<path stroke="none" fill="#000000" transform="matrix(0.1 0 0 0.1 -453 -98)" d="M 5406.69,1131.52 L 5404.34,1137.12 L 5394.15,1137.89 L 5251.31,1049.86 L 5251.86,1043.16 L 5270.75,1047.75 L 5406.69,1131.52 Z " />
<path stroke="none" fill="#000000" transform="matrix(0.1 0 0 0.1 -453 -98)" d="M 5752.31,1115.7 L 5756.73,1110.61 L 5769.08,1125.27 L 5779.11,1150.23 L 5766.56,1151.18 L 5752.31,1115.7 L 5752.31,1115.7 Z " />
<path stroke="none" fill="#000000" transform="matrix(0.1 0 0 0.1 -453 -98)" d="M 5828.03,1272.04 L 5822.82,1275.18 L 5814.2,1269.79 L 5804.02,1244.47 L 5816.58,1243.52 L 5828.03,1272.04 L 5828.03,1272.04 Z " />
<path stroke="none" fill="#000000" transform="matrix(0.1 0 0 0.1 -453 -98)" d="M 5727.64,1139.94 L 5738.78,1135.47 L 5745.72,1152.74 L 5733.16,1153.69 L 5727.64,1139.94 L 5727.64,1139.94 Z " />
<path stroke="none" fill="#000000" transform="matrix(0.1 0 0 0.1 -453 -98)" d="M 5771.35,1248.75 L 5770.63,1246.98 L 5776.95,1246.5 L 5771.35,1248.75 L 5771.35,1248.75 Z " />
<path stroke="none" fill="#000000" transform="matrix(0.1 0 0 0.1 -453 -98)" d="M 5913,1199.87 L 5909.04,1204.47 L 5890.14,1199.88 L 5769.08,1125.27 L 5756.73,1110.61 L 5759.07,1105.01 L 5913,1199.87 Z " />
<path stroke="none" fill="#000000" transform="matrix(0.1 0 0 0.1 -453 -98)" d="M 5733.16,1211.69 L 5732.66,1217.74 L 5728.27,1222.84 L 5405.88,1143.68 L 5404.34,1137.12 L 5406.69,1131.52 L 5733.16,1211.69 Z " />
<path stroke="none" fill="#000000" transform="matrix(0.1 0 0 0.1 -453 -98)" d="M 6129,1482.85 L 6127.55,1463.12 L 6132.76,1459.98 L 6199.43,1626.07 L 6193.52,1627.44 L 6181.17,1612.78 L 6129,1482.85 Z " />
<path stroke="none" fill="#000000" transform="matrix(0.1 0 0 0.1 -453 -98)" d="M 6140.85,1565.7 L 6129.71,1570.17 L 6122.33,1551.78 L 6133.47,1547.31 L 6140.85,1565.7 Z " />
<path stroke="none" fill="#000000" transform="matrix(0.1 0 0 0.1 -453 -98)" d="M 6121.01,1464.67 L 6127.55,1463.12 L 6129,1482.85 L 6092.27,1636.66 L 6086.22,1636.17 L 6082.31,1626.68 L 6121.01,1464.67 Z " />
<path stroke="none" fill="#000000" transform="matrix(0.1 0 0 0.1 -453 -98)" d="M 5890.14,1199.88 L 5909.04,1204.47 L 5906.43,1210.69 L 5741.35,1223.11 L 5732.66,1217.74 L 5733.16,1211.69 L 5890.14,1199.88 Z " />
<path stroke="none" fill="#000000" transform="matrix(0.1 0 0 0.1 -453 -98)" d="M 5808.33,1174.11 L 5809.24,1186.07 L 5735.78,1191.6 L 5734.88,1179.63 L 5808.33,1174.11 Z " />
<path stroke="none" fill="#000000" transform="matrix(0.1 0 0 0.1 -453 -98)" d="M 5906.43,1210.69 L 5909.04,1204.47 L 5913,1199.87 L 6132.76,1459.98 L 6127.55,1463.12 L 6121.01,1464.67 L 5906.43,1210.69 Z " />
</svg>
