<?xml version="1.0" encoding="UTF-8"?>
<svg width="133pt" height="40pt" version="1.1" viewBox="0 0 133 40" xmlns="http://www.w3.org/2000/svg" xmlns:xlink="http://www.w3.org/1999/xlink">
<defs>
<symbol id="e" overflow="visible">
<path d="m6.0938 0v-6.9219h-0.78125v6.2188h-0.015625l-0.65625-1.375-2.4531-4.8438h-1.2344v6.9219h0.78125v-6.2031h0.015625l0.65625 1.3594 2.4531 4.8438z"/>
</symbol>
<symbol id="b" overflow="visible">
<path d="m6.1094 0v-6.9219h-0.89062v3.0312h-3.3906v-3.0312h-0.89062v6.9219h0.89062v-3.2969h3.3906v3.2969z"/>
</symbol>
<symbol id="a" overflow="visible">
<path d="m5.8594-0.45312-0.0625-0.6875c-0.29688 0.20312-0.57812 0.39062-0.92188 0.5-0.3125 0.10938-0.67188 0.10938-1 0.10938-0.65625 0-1.25-0.34375-1.6562-0.85938-0.45312-0.57812-0.67188-1.3281-0.67188-2.0625 0-0.75 0.21875-1.5 0.67188-2.0938 0.40625-0.5 1-0.85938 1.6562-0.85938 0.29688 0 0.59375 0.03125 0.89062 0.125s0.57812 0.23438 0.84375 0.42188l0.125-0.8125c-0.29688-0.125-0.59375-0.21875-0.92188-0.28125-0.3125-0.0625-0.625-0.078125-0.9375-0.078125-0.89062 0-1.6875 0.39062-2.2812 1.0469-0.60938 0.6875-0.9375 1.5938-0.9375 2.5312 0 0.92188 0.32812 1.8281 0.9375 2.5156 0.59375 0.64062 1.3906 1.0469 2.2812 1.0469 0.34375 0 0.6875-0.015625 1.0312-0.10938s0.64062-0.26562 0.95312-0.45312z"/>
</symbol>
<symbol id="d" overflow="visible">
<path d="m3.3281 0v-0.53125h-1.3594-0.25-0.79688l1.0781-0.95312c0.125-0.10938 0.46875-0.375 0.60938-0.48438 0.29688-0.28125 0.71875-0.64062 0.71875-1.25 0-0.78125-0.59375-1.5-1.5938-1.5-0.73438 0-1.1875 0.39062-1.4219 1.1094l0.32812 0.40625c0.15625-0.57812 0.39062-1.0312 1-1.0312 0.59375 0 1.0312 0.40625 1.0312 1.0312 0 0.57812-0.34375 0.90625-0.75 1.3125-0.14062 0.14062-0.51562 0.45312-0.67188 0.59375-0.20312 0.17188-0.67188 0.64062-0.875 0.8125v0.48438z"/>
</symbol>
<symbol id="c" overflow="visible">
<path d="m4.1406-1.1875c0-0.09375-0.078125-0.125-0.14062-0.125-0.078125 0-0.10938 0.0625-0.125 0.14062-0.34375 1.0312-1.25 1.0312-1.3438 1.0312-0.5 0-0.89062-0.29688-1.125-0.67188-0.29688-0.46875-0.29688-1.125-0.29688-1.4844h2.7812c0.21875 0 0.25 0 0.25-0.21875 0-0.98438-0.54688-1.9531-1.7812-1.9531-1.1562 0-2.0781 1.0312-2.0781 2.2812 0 1.3281 1.0469 2.2969 2.1875 2.2969 1.2188 0 1.6719-1.1094 1.6719-1.2969zm-0.65625-1.3281h-2.375c0.0625-1.4844 0.90625-1.7344 1.25-1.7344 1.0156 0 1.125 1.3438 1.125 1.7344z"/>
</symbol>
</defs>
<path transform="matrix(1 0 0 -1 .589 32.491)" d="m8.4375e-4 -0.0011875 12.422-7.1719" fill="none" stroke="#000" stroke-linecap="round" stroke-miterlimit="10" stroke-width=".59758"/>
<path transform="matrix(1 0 0 -1 .589 32.491)" d="m12.423-7.1731 12.422 7.1719" fill="none" stroke="#000" stroke-linecap="round" stroke-miterlimit="10" stroke-width=".59758"/>
<path transform="matrix(1 0 0 -1 .589 32.491)" d="m24.845-0.0011875v14.344" fill="none" stroke="#000" stroke-linecap="round" stroke-miterlimit="10" stroke-width=".59758"/>
<g>
<use x="34.324" y="14.436" xlink:href="#e"/>
<use x="41.381" y="14.436" xlink:href="#b"/>
<use x="48.437" y="15.931" xlink:href="#d"/>
</g>
<path transform="matrix(1 0 0 -1 .589 32.491)" d="m24.845 14.343 7.5117 4.3398" fill="none" stroke="#000" stroke-linecap="round" stroke-miterlimit="10" stroke-width=".59758"/>
<path transform="matrix(1 0 0 -1 .589 32.491)" d="m24.845 14.343-12.422 7.1719" fill="none" stroke="#000" stroke-linecap="round" stroke-miterlimit="10" stroke-width=".59758"/>
<path transform="matrix(1 0 0 -1 .589 32.491)" d="m12.423 21.514-12.422-7.1719" fill="none" stroke="#000" stroke-linecap="round" stroke-miterlimit="10" stroke-width=".59758"/>
<path transform="matrix(1 0 0 -1 .589 32.491)" d="m8.4375e-4 14.343v-14.344" fill="none" stroke="#000" stroke-linecap="round" stroke-miterlimit="10" stroke-width=".59758"/>
<g>
<use x="55.961" y="32.491" xlink:href="#c"/>
</g>
<path transform="matrix(1,0,0,-1,73.971,32.491)" d="m0.0016562-0.0011875 12.418-7.1719" fill="none" stroke="#000" stroke-linecap="round" stroke-miterlimit="10" stroke-width=".59758"/>
<path transform="matrix(1,0,0,-1,73.971,32.491)" d="m12.42-7.1731 12.422 7.1719" fill="none" stroke="#000" stroke-linecap="round" stroke-miterlimit="10" stroke-width=".59758"/>
<path transform="matrix(1,0,0,-1,73.971,32.491)" d="m24.842-0.0011875v14.344" fill="none" stroke="#000" stroke-linecap="round" stroke-miterlimit="10" stroke-width=".59758"/>
<g>
<use x="108.052" y="14.436" xlink:href="#a"/>
</g>
<path transform="matrix(1,0,0,-1,73.971,32.491)" d="m24.842 14.343 7.8594 4.5391" fill="none" stroke="#000" stroke-linecap="round" stroke-miterlimit="10" stroke-width=".59758"/>
<g>
<use x="120.474" y="7.265" xlink:href="#a"/>
<use x="126.839" y="7.265" xlink:href="#b"/>
</g>
<path transform="matrix(1,0,0,-1,73.971,32.491)" d="m41.826 24.147 3.2969 1.9062" fill="none" stroke="#000" stroke-linecap="round" stroke-miterlimit="10" stroke-width=".59758"/>
<path transform="matrix(1,0,0,-1,73.971,32.491)" d="m40.58 26.304 3.2969 1.9062" fill="none" stroke="#000" stroke-linecap="round" stroke-miterlimit="10" stroke-width=".59758"/>
<path transform="matrix(1,0,0,-1,73.971,32.491)" d="m43.072 21.991 3.2969 1.9062" fill="none" stroke="#000" stroke-linecap="round" stroke-miterlimit="10" stroke-width=".59758"/>
<path transform="matrix(1,0,0,-1,73.971,32.491)" d="m24.842 14.343-12.422 7.1719" fill="none" stroke="#000" stroke-linecap="round" stroke-miterlimit="10" stroke-width=".59758"/>
<path transform="matrix(1,0,0,-1,73.971,32.491)" d="m12.42 21.514-12.418-7.1719" fill="none" stroke="#000" stroke-linecap="round" stroke-miterlimit="10" stroke-width=".59758"/>
<path transform="matrix(1,0,0,-1,73.971,32.491)" d="m0.0016562 14.343v-14.344" fill="none" stroke="#000" stroke-linecap="round" stroke-miterlimit="10" stroke-width=".59758"/>
</svg>
