<?xml version="1.0" encoding="UTF-8"?>
<svg width="230pt" height="175pt" version="1.1" viewBox="0 0 230 175" xmlns="http://www.w3.org/2000/svg" xmlns:xlink="http://www.w3.org/1999/xlink">
<defs>
<symbol id="ao" overflow="visible">
<path d="m4.1719 0v-0.3125h-0.3125c-0.90625 0-0.92188-0.10938-0.92188-0.46875v-5.5938c0-0.25 0-0.26562-0.23438-0.26562-0.625 0.64062-1.5 0.64062-1.8125 0.64062v0.3125c0.20312 0 0.78125 0 1.2969-0.26562v5.1719c0 0.35938-0.03125 0.46875-0.92188 0.46875h-0.3125v0.3125c0.34375-0.03125 1.2031-0.03125 1.6094-0.03125 0.39062 0 1.2656 0 1.6094 0.03125z"/>
</symbol>
<symbol id="a" overflow="visible">
<path d="m4.5781-3.1875c0-0.79688-0.046875-1.5938-0.39062-2.3281-0.45312-0.96875-1.2812-1.125-1.6875-1.125-0.60938 0-1.3281 0.26562-1.75 1.1875-0.3125 0.6875-0.35938 1.4688-0.35938 2.2656 0 0.75 0.03125 1.6406 0.45312 2.4062 0.42188 0.79688 1.1562 1 1.6406 1 0.53125 0 1.2969-0.20312 1.7344-1.1562 0.3125-0.6875 0.35938-1.4688 0.35938-2.25zm-0.8125-0.125c0 0.75 0 1.4219-0.10938 2.0625-0.15625 0.95312-0.71875 1.25-1.1719 1.25-0.39062 0-0.98438-0.25-1.1562-1.2031-0.10938-0.59375-0.10938-1.5156-0.10938-2.1094 0-0.64062 0-1.2969 0.078125-1.8281 0.1875-1.1875 0.9375-1.2812 1.1875-1.2812 0.32812 0 0.98438 0.1875 1.1719 1.1719 0.10938 0.5625 0.10938 1.3125 0.10938 1.9375z"/>
</symbol>
<symbol id="an" overflow="visible">
<path d="m4.4688-1.7344h-0.23438c-0.0625 0.29688-0.125 0.73438-0.23438 0.89062-0.0625 0.078125-0.71875 0.078125-0.9375 0.078125h-1.7969l1.0625-1.0312c1.5469-1.375 2.1406-1.9062 2.1406-2.9062 0-1.1406-0.89062-1.9375-2.1094-1.9375-1.125 0-1.8594 0.92188-1.8594 1.8125 0 0.54688 0.5 0.54688 0.53125 0.54688 0.17188 0 0.51562-0.10938 0.51562-0.53125 0-0.25-0.1875-0.51562-0.53125-0.51562-0.078125 0-0.09375 0-0.125 0.015625 0.21875-0.65625 0.76562-1.0156 1.3438-1.0156 0.90625 0 1.3281 0.8125 1.3281 1.625 0 0.79688-0.48438 1.5781-1.0469 2.2031l-1.9062 2.125c-0.10938 0.10938-0.10938 0.14062-0.10938 0.375h3.7031z"/>
</symbol>
<symbol id="am" overflow="visible">
<path d="m4.5625-1.7031c0-0.8125-0.64062-1.5938-1.6719-1.8125 0.8125-0.26562 1.3906-0.95312 1.3906-1.75 0-0.8125-0.875-1.375-1.8281-1.375-1 0-1.7656 0.59375-1.7656 1.3594 0 0.32812 0.21875 0.51562 0.51562 0.51562s0.5-0.21875 0.5-0.51562c0-0.48438-0.46875-0.48438-0.60938-0.48438 0.29688-0.5 0.95312-0.625 1.3125-0.625 0.42188 0 0.96875 0.21875 0.96875 1.1094 0 0.125-0.03125 0.70312-0.28125 1.1406-0.29688 0.48438-0.64062 0.51562-0.89062 0.51562-0.078125 0.015625-0.3125 0.03125-0.39062 0.03125-0.078125 0.015625-0.14062 0.03125-0.14062 0.125 0 0.10938 0.0625 0.10938 0.23438 0.10938h0.4375c0.8125 0 1.1875 0.67188 1.1875 1.6562 0 1.3594-0.6875 1.6406-1.125 1.6406s-1.1875-0.17188-1.5312-0.75c0.34375 0.046875 0.65625-0.17188 0.65625-0.54688 0-0.35938-0.26562-0.5625-0.54688-0.5625-0.25 0-0.5625 0.14062-0.5625 0.57812 0 0.90625 0.92188 1.5625 2.0156 1.5625 1.2188 0 2.125-0.90625 2.125-1.9219z"/>
</symbol>
<symbol id="al" overflow="visible">
<path d="m5.7969-2.5781h-0.25c-0.10938 1.0156-0.25 2.2656-2 2.2656h-0.8125c-0.46875 0-0.48438-0.0625-0.48438-0.39062v-5.3125c0-0.34375 0-0.48438 0.9375-0.48438h0.32812v-0.3125c-0.35938 0.03125-1.2656 0.03125-1.6719 0.03125-0.39062 0-1.1719 0-1.5156-0.03125v0.3125h0.23438c0.76562 0 0.79688 0.10938 0.79688 0.46875v5.25c0 0.35938-0.03125 0.46875-0.79688 0.46875h-0.23438v0.3125h5.1875z"/>
</symbol>
<symbol id="i" overflow="visible">
<path d="m2.4688 0v-0.3125c-0.67188 0-0.70312-0.046875-0.70312-0.4375v-3.6562l-1.3906 0.10938v0.3125c0.64062 0 0.73438 0.0625 0.73438 0.54688v2.6875c0 0.4375-0.10938 0.4375-0.78125 0.4375v0.3125l1.0938-0.03125c0.35938 0 0.70312 0.015625 1.0469 0.03125zm-0.5625-6.0156c0-0.28125-0.21875-0.53125-0.51562-0.53125-0.34375 0-0.54688 0.28125-0.54688 0.53125 0 0.26562 0.23438 0.51562 0.53125 0.51562 0.34375 0 0.53125-0.26562 0.53125-0.51562z"/>
</symbol>
<symbol id="aa" overflow="visible">
<path d="m6.0781-4.5312-0.28125-2.25h-5.4688v0.3125h0.23438c0.76562 0 0.79688 0.10938 0.79688 0.46875v5.2188c0 0.35938-0.03125 0.46875-0.79688 0.46875h-0.23438v0.3125c0.34375-0.03125 1.125-0.03125 1.5156-0.03125 0.40625 0 1.3125 0 1.6719 0.03125v-0.3125h-0.32812c-0.9375 0-0.9375-0.125-0.9375-0.46875v-2.4531h0.84375c0.96875 0 1.0625 0.3125 1.0625 1.1562h0.25v-2.6406h-0.25c0 0.84375-0.09375 1.1719-1.0625 1.1719h-0.84375v-2.5312c0-0.32812 0.015625-0.39062 0.48438-0.39062h1.1875c1.5 0 1.75 0.5625 1.9062 1.9375z"/>
</symbol>
<symbol id="g" overflow="visible">
<path d="m7.1406-6.5v-0.3125l-1.1719 0.03125-1.1562-0.03125v0.3125c1.0156 0 1.0156 0.46875 1.0156 0.73438v4.2656l-3.5156-5.1719c-0.09375-0.125-0.09375-0.14062-0.28125-0.14062h-1.7031v0.3125h0.29688c0.14062 0 0.34375 0.015625 0.48438 0.015625 0.23438 0.03125 0.25 0.046875 0.25 0.23438v5.2031c0 0.26562 0 0.73438-1.0312 0.73438v0.3125l1.1719-0.03125 1.1562 0.03125v-0.3125c-1.0156 0-1.0156-0.46875-1.0156-0.73438v-5.1875c0.046875 0.046875 0.046875 0.0625 0.09375 0.125l4.0625 5.9844c0.09375 0.10938 0.10938 0.125 0.17188 0.125 0.14062 0 0.14062-0.0625 0.14062-0.26562v-5.5c0-0.26562 0-0.73438 1.0312-0.73438z"/>
</symbol>
<symbol id="f" overflow="visible">
<path d="m4.8125-0.89062v-0.5625h-0.25v0.5625c0 0.57812-0.25 0.64062-0.35938 0.64062-0.32812 0-0.35938-0.45312-0.35938-0.5v-1.9844c0-0.42188 0-0.8125-0.35938-1.1875-0.39062-0.39062-0.89062-0.54688-1.375-0.54688-0.8125 0-1.5 0.46875-1.5 1.125 0 0.29688 0.20312 0.46875 0.45312 0.46875 0.28125 0 0.46875-0.20312 0.46875-0.45312 0-0.125-0.0625-0.45312-0.51562-0.45312 0.26562-0.35938 0.76562-0.46875 1.0781-0.46875 0.48438 0 1.0625 0.39062 1.0625 1.2812v0.35938c-0.51562 0.03125-1.2188 0.0625-1.8438 0.35938-0.75 0.34375-1 0.85938-1 1.2969 0 0.8125 0.96875 1.0625 1.5938 1.0625 0.67188 0 1.125-0.40625 1.3125-0.85938 0.046875 0.39062 0.3125 0.8125 0.78125 0.8125 0.20312 0 0.8125-0.14062 0.8125-0.95312zm-1.6562-0.5c0 0.9375-0.71875 1.2812-1.1719 1.2812-0.48438 0-0.89062-0.34375-0.89062-0.84375 0-0.54688 0.40625-1.375 2.0625-1.4375z"/>
</symbol>
<symbol id="e" overflow="visible">
<path d="m6.625-2.3281c0-0.09375 0-0.17188-0.125-0.17188-0.10938 0-0.10938 0.0625-0.125 0.17188-0.078125 1.4219-1.1406 2.2344-2.2344 2.2344-0.60938 0-2.5625-0.32812-2.5625-3.3125 0-2.9688 1.9531-3.3125 2.5625-3.3125 1.0781 0 1.9688 0.90625 2.1719 2.3594 0.015625 0.14062 0.015625 0.17188 0.15625 0.17188 0.15625 0 0.15625-0.03125 0.15625-0.23438v-2.3594c0-0.17188 0-0.25-0.10938-0.25-0.03125 0-0.078125 0-0.15625 0.125l-0.5 0.73438c-0.35938-0.35938-0.875-0.85938-1.8281-0.85938-1.875 0-3.4688 1.5938-3.4688 3.625 0 2.0625 1.6094 3.625 3.4688 3.625 1.625 0 2.5938-1.3906 2.5938-2.5469z"/>
</symbol>
<symbol id="z" overflow="visible">
<path d="m2.5469 0v-0.3125c-0.67188 0-0.78125 0-0.78125-0.4375v-6.1719l-1.4375 0.10938v0.3125c0.70312 0 0.78125 0.0625 0.78125 0.5625v5.1875c0 0.4375-0.10938 0.4375-0.78125 0.4375v0.3125l1.1094-0.03125z"/>
</symbol>
<symbol id="y" overflow="visible">
<path d="m7.3438 0v-0.3125c-0.54688 0-0.75-0.03125-1.0469-0.46875l-2.3125-3.3906 1.7969-1.7344c0.078125-0.078125 0.60938-0.57812 1.4219-0.59375v-0.3125c-0.26562 0.03125-0.57812 0.03125-0.85938 0.03125-0.35938 0-0.92188 0-1.2656-0.03125v0.3125c0.40625 0.015625 0.46875 0.23438 0.46875 0.32812 0 0.15625-0.10938 0.26562-0.1875 0.32812l-3.1094 2.9844v-3.1719c0-0.35938 0.015625-0.46875 0.78125-0.46875h0.23438v-0.3125c-0.34375 0.03125-1.0781 0.03125-1.4688 0.03125-0.375 0-1.125 0-1.4688-0.03125v0.3125h0.23438c0.76562 0 0.79688 0.10938 0.79688 0.46875v5.25c0 0.35938-0.03125 0.46875-0.79688 0.46875h-0.23438v0.3125c0.34375-0.03125 1.0938-0.03125 1.4688-0.03125s1.125 0 1.4688 0.03125v-0.3125h-0.23438c-0.76562 0-0.78125-0.10938-0.78125-0.46875v-1.7344l1.1562-1.1094 1.7969 2.6719c0.0625 0.09375 0.15625 0.21875 0.15625 0.34375 0 0.29688-0.39062 0.29688-0.59375 0.29688v0.3125c0.34375-0.03125 1.0469-0.03125 1.4219-0.03125z"/>
</symbol>
<symbol id="x" overflow="visible">
<path d="m6.4844-1.8281c0-0.85938-0.8125-1.6094-1.9219-1.7344 0.96875-0.1875 1.6562-0.82812 1.6562-1.5625 0-0.85938-0.92188-1.6875-2.2188-1.6875h-3.6406v0.3125h0.23438c0.76562 0 0.79688 0.10938 0.79688 0.46875v5.25c0 0.35938-0.03125 0.46875-0.79688 0.46875h-0.23438v0.3125h3.9062c1.3281 0 2.2188-0.89062 2.2188-1.8281zm-1.2344-3.2969c0 0.64062-0.48438 1.4688-1.5938 1.4688h-1.4375v-2.4375c0-0.34375 0.015625-0.40625 0.48438-0.40625h1.2344c0.96875 0 1.3125 0.84375 1.3125 1.375zm0.25 3.2969c0 0.70312-0.53125 1.5156-1.5469 1.5156h-1.25c-0.46875 0-0.48438-0.0625-0.48438-0.39062v-2.7188h1.875c0.98438 0 1.4062 0.92188 1.4062 1.5938z"/>
</symbol>
<symbol id="l" overflow="visible">
<path d="m3.625-3.7969c0-0.3125-0.3125-0.60938-0.73438-0.60938-0.73438 0-1.0938 0.67188-1.2188 1.0938v-1.0938l-1.3906 0.10938v0.3125c0.70312 0 0.78125 0.0625 0.78125 0.5625v2.6719c0 0.4375-0.10938 0.4375-0.78125 0.4375v0.3125l1.1406-0.03125c0.39062 0 0.85938 0 1.2656 0.03125v-0.3125h-0.21875c-0.73438 0-0.75-0.10938-0.75-0.46875v-1.5312c0-0.98438 0.42188-1.875 1.1719-1.875 0.0625 0 0.09375 0 0.10938 0.015625-0.03125 0-0.23438 0.125-0.23438 0.39062s0.21875 0.42188 0.4375 0.42188c0.17188 0 0.42188-0.125 0.42188-0.4375z"/>
</symbol>
<symbol id="ak" overflow="visible">
<path d="m7.2969-0.875c0-0.0625 0-0.17188-0.125-0.17188-0.10938 0-0.10938 0.09375-0.125 0.15625-0.0625 0.71875-0.40625 0.89062-0.65625 0.89062-0.48438 0-0.5625-0.51562-0.70312-1.4375l-0.14062-0.79688c-0.17188-0.64062-0.65625-0.96875-1.2031-1.1562 0.95312-0.23438 1.7344-0.84375 1.7344-1.625 0-0.95312-1.1406-1.7969-2.5938-1.7969h-3.1406v0.3125h0.25c0.76562 0 0.78125 0.10938 0.78125 0.46875v5.25c0 0.35938-0.015625 0.46875-0.78125 0.46875h-0.25v0.3125c0.35938-0.03125 1.0781-0.03125 1.4531-0.03125 0.39062 0 1.1094 0 1.4688 0.03125v-0.3125h-0.25c-0.76562 0-0.78125-0.10938-0.78125-0.46875v-2.5156h1.1406c0.15625 0 0.57812 0 0.9375 0.34375 0.375 0.34375 0.375 0.65625 0.375 1.3281 0 0.64062 0 1.0469 0.40625 1.4219 0.40625 0.35938 0.95312 0.42188 1.25 0.42188 0.78125 0 0.95312-0.8125 0.95312-1.0938zm-2.25-4.1406c0 0.6875-0.23438 1.5-1.7031 1.5h-1.1094v-2.5781c0-0.23438 0-0.35938 0.21875-0.39062 0.09375-0.015625 0.39062-0.015625 0.59375-0.015625 0.89062 0 2 0.046875 2 1.4844z"/>
</symbol>
<symbol id="aj" overflow="visible">
<path d="m5.1875-2.1562c0-1.2656-0.96875-2.25-2.1094-2.25-0.78125 0-1.2031 0.46875-1.3594 0.64062v-3.1562l-1.4375 0.10938v0.3125c0.70312 0 0.78125 0.0625 0.78125 0.5625v5.9375h0.25l0.35938-0.625c0.14062 0.23438 0.5625 0.73438 1.2969 0.73438 1.1875 0 2.2188-0.98438 2.2188-2.2656zm-0.82812 0c0 0.35938-0.015625 0.95312-0.29688 1.4062-0.21875 0.3125-0.59375 0.64062-1.125 0.64062-0.45312 0-0.8125-0.23438-1.0469-0.60938-0.14062-0.20312-0.14062-0.23438-0.14062-0.42188v-2.0469c0-0.1875 0-0.20312 0.10938-0.35938 0.39062-0.5625 0.9375-0.64062 1.1719-0.64062 0.45312 0 0.8125 0.26562 1.0469 0.64062 0.26562 0.40625 0.28125 0.96875 0.28125 1.3906z"/>
</symbol>
<symbol id="ai" overflow="visible">
<path d="m3.3125 0v-0.3125h-0.25c-0.79688 0-0.8125-0.10938-0.8125-0.46875v-5.25c0-0.35938 0.015625-0.46875 0.8125-0.46875h0.25v-0.3125c-0.34375 0.03125-1.125 0.03125-1.5156 0.03125-0.375 0-1.1719 0-1.5156-0.03125v0.3125h0.25c0.79688 0 0.82812 0.10938 0.82812 0.46875v5.25c0 0.35938-0.03125 0.46875-0.82812 0.46875h-0.25v0.3125c0.34375-0.03125 1.1406-0.03125 1.5156-0.03125 0.39062 0 1.1719 0 1.5156 0.03125z"/>
</symbol>
<symbol id="ah" overflow="visible">
<path d="m3.5938-1.2812c0-0.51562-0.29688-0.82812-0.42188-0.9375-0.32812-0.32812-0.71875-0.40625-1.1406-0.48438-0.5625-0.10938-1.2188-0.23438-1.2188-0.8125 0-0.35938 0.25-0.76562 1.1094-0.76562 1.0938 0 1.1562 0.90625 1.1719 1.2031 0 0.09375 0.10938 0.09375 0.10938 0.09375 0.14062 0 0.14062-0.046875 0.14062-0.23438v-1.0156c0-0.15625 0-0.23438-0.10938-0.23438-0.046875 0-0.078125 0-0.20312 0.125-0.03125 0.03125-0.125 0.125-0.17188 0.15625-0.375-0.28125-0.78125-0.28125-0.9375-0.28125-1.2188 0-1.5938 0.67188-1.5938 1.2344 0 0.34375 0.15625 0.625 0.42188 0.84375 0.32812 0.25 0.60938 0.3125 1.3281 0.45312 0.21875 0.046875 1.0312 0.20312 1.0312 0.92188 0 0.5-0.34375 0.90625-1.125 0.90625-0.84375 0-1.2031-0.5625-1.3906-1.4219-0.03125-0.125-0.03125-0.15625-0.14062-0.15625-0.125 0-0.125 0.0625-0.125 0.23438v1.3281c0 0.17188 0 0.23438 0.10938 0.23438 0.046875 0 0.0625-0.015625 0.25-0.20312 0.015625-0.015625 0.015625-0.03125 0.20312-0.21875 0.4375 0.40625 0.89062 0.42188 1.0938 0.42188 1.1406 0 1.6094-0.67188 1.6094-1.3906z"/>
</symbol>
<symbol id="ag" overflow="visible">
<path d="m7.1406 0v-0.3125h-0.17188c-0.59375 0-0.73438-0.0625-0.84375-0.39062l-2.1562-6.2344c-0.046875-0.125-0.078125-0.20312-0.23438-0.20312s-0.1875 0.0625-0.23438 0.20312l-2.0625 5.9531c-0.1875 0.51562-0.57812 0.67188-1.125 0.67188v0.3125l1.0156-0.03125 1.1562 0.03125v-0.3125c-0.5 0-0.75-0.25-0.75-0.5 0-0.03125 0.015625-0.14062 0.015625-0.15625l0.46875-1.2969h2.4531l0.53125 1.5156c0.015625 0.046875 0.03125 0.10938 0.03125 0.14062 0 0.29688-0.5625 0.29688-0.82812 0.29688v0.3125c0.35938-0.03125 1.0625-0.03125 1.4375-0.03125zm-2.5781-2.5781h-2.2344l1.1094-3.25z"/>
</symbol>
<symbol id="k" overflow="visible">
<path d="m3.3125-1.2344v-0.5625h-0.25v0.54688c0 0.73438-0.29688 1.1094-0.67188 1.1094-0.67188 0-0.67188-0.90625-0.67188-1.0781v-2.7656h1.4375v-0.3125h-1.4375v-1.8281h-0.25c0 0.8125-0.29688 1.875-1.2812 1.9219v0.21875h0.84375v2.75c0 1.2188 0.9375 1.3438 1.2969 1.3438 0.70312 0 0.98438-0.70312 0.98438-1.3438z"/>
</symbol>
<symbol id="af" overflow="visible">
<path d="m5.3281 0v-0.3125c-0.6875 0-0.76562-0.0625-0.76562-0.5625v-3.5312l-1.4688 0.10938v0.3125c0.6875 0 0.78125 0.0625 0.78125 0.5625v1.7656c0 0.875-0.48438 1.5469-1.2188 1.5469-0.82812 0-0.875-0.46875-0.875-0.98438v-3.3125l-1.4688 0.10938v0.3125c0.78125 0 0.78125 0.03125 0.78125 0.90625v1.5c0 0.78125 0 1.6875 1.5156 1.6875 0.5625 0 1-0.28125 1.2812-0.89062v0.89062zm-1.3281-6.5938c0-0.1875-0.17188-0.35938-0.34375-0.35938-0.15625 0-0.26562 0.10938-0.3125 0.17188l-1.1875 1.5156 0.17188 0.1875 1.5156-1.2188c0.078125-0.078125 0.15625-0.1875 0.15625-0.29688z"/>
</symbol>
<symbol id="j" overflow="visible">
<path d="m8.1094 0v-0.3125c-0.51562 0-0.76562 0-0.78125-0.29688v-1.9062c0-0.85938 0-1.1562-0.3125-1.5156-0.14062-0.17188-0.46875-0.375-1.0469-0.375-0.82812 0-1.2812 0.59375-1.4375 0.98438-0.14062-0.875-0.875-0.98438-1.3281-0.98438-0.73438 0-1.2031 0.42188-1.4844 1.0469v-1.0469l-1.4062 0.10938v0.3125c0.70312 0 0.78125 0.0625 0.78125 0.5625v2.6719c0 0.4375-0.10938 0.4375-0.78125 0.4375v0.3125l1.1406-0.03125 1.1094 0.03125v-0.3125c-0.67188 0-0.78125 0-0.78125-0.4375v-1.8438c0-1.0312 0.71875-1.5938 1.3438-1.5938 0.64062 0 0.75 0.53125 0.75 1.1094v2.3281c0 0.4375-0.10938 0.4375-0.78125 0.4375v0.3125l1.125-0.03125 1.1094 0.03125v-0.3125c-0.65625 0-0.76562 0-0.76562-0.4375v-1.8438c0-1.0312 0.70312-1.5938 1.3438-1.5938 0.625 0 0.73438 0.53125 0.73438 1.1094v2.3281c0 0.4375-0.10938 0.4375-0.78125 0.4375v0.3125l1.125-0.03125z"/>
</symbol>
<symbol id="ae" overflow="visible">
<path d="m4.1406-1.1875c0-0.09375-0.078125-0.125-0.14062-0.125-0.078125 0-0.10938 0.0625-0.125 0.14062-0.34375 1.0312-1.25 1.0312-1.3438 1.0312-0.5 0-0.89062-0.29688-1.125-0.67188-0.29688-0.46875-0.29688-1.125-0.29688-1.4844h2.7812c0.21875 0 0.25 0 0.25-0.21875 0-0.98438-0.54688-1.9531-1.7812-1.9531-1.1562 0-2.0781 1.0312-2.0781 2.2812 0 1.3281 1.0469 2.2969 2.1875 2.2969 1.2188 0 1.6719-1.1094 1.6719-1.2969zm-0.65625-1.3281h-2.375c0.0625-1.4844 0.90625-1.7344 1.25-1.7344 1.0156 0 1.125 1.3438 1.125 1.7344z"/>
</symbol>
<symbol id="h" overflow="visible">
<path d="m4.6875-2.1406c0-1.2656-0.98438-2.3281-2.1875-2.3281-1.25 0-2.2188 1.0938-2.2188 2.3281 0 1.2969 1.0312 2.25 2.2031 2.25 1.2031 0 2.2031-0.98438 2.2031-2.25zm-0.8125-0.078125c0 0.35938 0 0.90625-0.21875 1.3438-0.23438 0.45312-0.67188 0.73438-1.1562 0.73438-0.4375 0-0.875-0.20312-1.1406-0.67188-0.25-0.4375-0.25-1.0469-0.25-1.4062 0-0.39062 0-0.92188 0.23438-1.3594 0.26562-0.45312 0.73438-0.67188 1.1406-0.67188 0.4375 0 0.85938 0.21875 1.125 0.65625 0.26562 0.42188 0.26562 1 0.26562 1.375z"/>
</symbol>
<symbol id="ad" overflow="visible">
<path d="m4.6875-2.1406c0-1.2656-0.98438-2.3281-2.1875-2.3281-1.25 0-2.2188 1.0938-2.2188 2.3281 0 1.2969 1.0312 2.25 2.2031 2.25 1.2031 0 2.2031-0.98438 2.2031-2.25zm-0.8125-0.078125c0 0.35938 0 0.90625-0.21875 1.3438-0.23438 0.45312-0.67188 0.73438-1.1562 0.73438-0.4375 0-0.875-0.20312-1.1406-0.67188-0.25-0.4375-0.25-1.0469-0.25-1.4062 0-0.39062 0-0.92188 0.23438-1.3594 0.26562-0.45312 0.73438-0.67188 1.1406-0.67188 0.4375 0 0.85938 0.21875 1.125 0.65625 0.26562 0.42188 0.26562 1 0.26562 1.375zm0.125-3.0625-1.5-1.6094-1.5156 1.6094 0.125 0.14062 1.3906-1.0781 1.375 1.0781z"/>
</symbol>
<symbol id="ac" overflow="visible">
<path d="m4.1406-1.1875c0-0.09375-0.10938-0.09375-0.14062-0.09375-0.078125 0-0.10938 0.03125-0.125 0.09375-0.28125 0.92188-0.9375 1.0469-1.2969 1.0469-0.53125 0-1.4062-0.42188-1.4062-2.0312 0-1.625 0.8125-2.0469 1.3438-2.0469 0.09375 0 0.71875 0.015625 1.0625 0.375-0.40625 0.03125-0.46875 0.32812-0.46875 0.45312 0 0.26562 0.1875 0.45312 0.45312 0.45312s0.46875-0.15625 0.46875-0.46875c0-0.67188-0.76562-1.0625-1.5312-1.0625-1.25 0-2.1562 1.0781-2.1562 2.3125 0 1.2812 0.98438 2.2656 2.1406 2.2656 1.3281 0 1.6562-1.2031 1.6562-1.2969z"/>
</symbol>
<symbol id="ab" overflow="visible">
<path d="m2.0312-0.015625c0-0.625-0.25-1.0469-0.64062-1.0469-0.35938 0-0.53125 0.28125-0.53125 0.53125 0 0.26562 0.17188 0.53125 0.53125 0.53125 0.14062 0 0.28125-0.0625 0.39062-0.15625 0.015625 0.78125-0.25 1.3906-0.6875 1.8594-0.0625 0.0625-0.078125 0.078125-0.078125 0.10938 0 0.078125 0.046875 0.10938 0.09375 0.10938 0.125 0 0.92188-0.78125 0.92188-1.9375z"/>
</symbol>
<symbol id="w" overflow="visible">
<path d="m6.2188-2.5469c0-0.0625-0.03125-0.10938-0.125-0.10938s-0.10938 0.03125-0.17188 0.25c-0.4375 1.3438-0.92188 2.0625-2.6094 2.0625h-1.7031l5.5625-6.2188c0.015625-0.046875 0.03125-0.09375 0.03125-0.15625 0-0.09375-0.046875-0.09375-0.25-0.09375h-4.2031c-0.23438 0-0.25 0.015625-0.3125 0.20312l-0.54688 1.7969c-0.015625 0.046875-0.03125 0.14062-0.03125 0.14062s0 0.10938 0.125 0.10938c0.09375 0 0.10938-0.078125 0.125-0.10938 0.39062-1.1719 0.90625-1.8281 2.4531-1.8281h1.625l-5.5625 6.2344s-0.046875 0.14062-0.046875 0.17188c0 0.09375 0.0625 0.09375 0.25 0.09375h4.3281c0.25 0 0.25-0.015625 0.3125-0.20312l0.71875-2.2031c0-0.03125 0.03125-0.10938 0.03125-0.14062z"/>
</symbol>
<symbol id="v" overflow="visible">
<path d="m-0.875-7.2969c-0.0625 0-0.17188 0-0.17188 0.125 0 0.10938 0.09375 0.10938 0.15625 0.125 0.71875 0.0625 0.89062 0.40625 0.89062 0.65625 0 0.48438-0.51562 0.5625-1.4375 0.70312l-0.79688 0.14062c-0.64062 0.17188-0.96875 0.65625-1.1562 1.2031-0.23438-0.95312-0.84375-1.7344-1.625-1.7344-0.95312 0-1.7969 1.1406-1.7969 2.5938v3.1406h0.3125v-0.25c0-0.76562 0.10938-0.78125 0.46875-0.78125h5.25c0.35938 0 0.46875 0.015625 0.46875 0.78125v0.25h0.3125c-0.03125-0.35938-0.03125-1.0781-0.03125-1.4531 0-0.39062 0-1.1094 0.03125-1.4688h-0.3125v0.25c0 0.76562-0.10938 0.78125-0.46875 0.78125h-2.5156v-1.1406c0-0.15625 0-0.57812 0.34375-0.9375 0.34375-0.375 0.65625-0.375 1.3281-0.375 0.64062 0 1.0469 0 1.4219-0.40625 0.35938-0.40625 0.42188-0.95312 0.42188-1.25 0-0.78125-0.8125-0.95312-1.0938-0.95312zm-4.1406 2.25c0.6875 0 1.5 0.23438 1.5 1.7031v1.1094h-2.5781c-0.23438 0-0.35938 0-0.39062-0.21875-0.015625-0.09375-0.015625-0.39062-0.015625-0.59375 0-0.89062 0.046875-2 1.4844-2z"/>
</symbol>
<symbol id="d" overflow="visible">
<path d="m-0.89062-4.8125h-0.5625v0.25h0.5625c0.57812 0 0.64062 0.25 0.64062 0.35938 0 0.32812-0.45312 0.35938-0.5 0.35938h-1.9844c-0.42188 0-0.8125 0-1.1875 0.35938-0.39062 0.39062-0.54688 0.89062-0.54688 1.375 0 0.8125 0.46875 1.5 1.125 1.5 0.29688 0 0.46875-0.20312 0.46875-0.45312 0-0.28125-0.20312-0.46875-0.45312-0.46875-0.125 0-0.45312 0.0625-0.45312 0.51562-0.35938-0.26562-0.46875-0.76562-0.46875-1.0781 0-0.48438 0.39062-1.0625 1.2812-1.0625h0.35938c0.03125 0.51562 0.0625 1.2188 0.35938 1.8438 0.34375 0.75 0.85938 1 1.2969 1 0.8125 0 1.0625-0.96875 1.0625-1.5938 0-0.67188-0.40625-1.125-0.85938-1.3125 0.39062-0.046875 0.8125-0.3125 0.8125-0.78125 0-0.20312-0.14062-0.8125-0.95312-0.8125zm-0.5 1.6562c0.9375 0 1.2812 0.71875 1.2812 1.1719 0 0.48438-0.34375 0.89062-0.84375 0.89062-0.54688 0-1.375-0.40625-1.4375-2.0625z"/>
</symbol>
<symbol id="c" overflow="visible">
<path d="m0-2.4688h-0.3125c0 0.67188-0.046875 0.70312-0.4375 0.70312h-3.6562l0.10938 1.3906h0.3125c0-0.64062 0.0625-0.73438 0.54688-0.73438h2.6875c0.4375 0 0.4375 0.10938 0.4375 0.78125h0.3125l-0.03125-1.0938c0-0.35938 0.015625-0.70312 0.03125-1.0469zm-6.0156 0.5625c-0.28125 0-0.53125 0.21875-0.53125 0.51562 0 0.34375 0.28125 0.54688 0.53125 0.54688 0.26562 0 0.51562-0.23438 0.51562-0.53125 0-0.34375-0.26562-0.53125-0.51562-0.53125z"/>
</symbol>
<symbol id="b" overflow="visible">
<path d="m-2.1406-4.6875c-1.2656 0-2.3281 0.98438-2.3281 2.1875 0 1.25 1.0938 2.2188 2.3281 2.2188 1.2969 0 2.25-1.0312 2.25-2.2031 0-1.2031-0.98438-2.2031-2.25-2.2031zm-0.078125 0.8125c0.35938 0 0.90625 0 1.3438 0.21875 0.45312 0.23438 0.73438 0.67188 0.73438 1.1562 0 0.4375-0.20312 0.875-0.67188 1.1406-0.4375 0.25-1.0469 0.25-1.4062 0.25-0.39062 0-0.92188 0-1.3594-0.23438-0.45312-0.26562-0.67188-0.73438-0.67188-1.1406 0-0.4375 0.21875-0.85938 0.65625-1.125 0.42188-0.26562 1-0.26562 1.375-0.26562z"/>
</symbol>
<symbol id="u" overflow="visible">
<path d="m-1.2344-3.3125h-0.5625v0.25h0.54688c0.73438 0 1.1094 0.29688 1.1094 0.67188 0 0.67188-0.90625 0.67188-1.0781 0.67188h-2.7656v-1.4375h-0.3125v1.4375h-1.8281v0.25c0.8125 0 1.875 0.29688 1.9219 1.2812h0.21875v-0.84375h2.75c1.2188 0 1.3438-0.9375 1.3438-1.2969 0-0.70312-0.70312-0.98438-1.3438-0.98438z"/>
</symbol>
<symbol id="t" overflow="visible">
<path d="m-2.1406-4.6875c-1.2656 0-2.3281 0.98438-2.3281 2.1875 0 1.25 1.0938 2.2188 2.3281 2.2188 1.2969 0 2.25-1.0312 2.25-2.2031 0-1.2031-0.98438-2.2031-2.25-2.2031zm-0.078125 0.8125c0.35938 0 0.90625 0 1.3438 0.21875 0.45312 0.23438 0.73438 0.67188 0.73438 1.1562 0 0.4375-0.20312 0.875-0.67188 1.1406-0.4375 0.25-1.0469 0.25-1.4062 0.25-0.39062 0-0.92188 0-1.3594-0.23438-0.45312-0.26562-0.67188-0.73438-0.67188-1.1406 0-0.4375 0.21875-0.85938 0.65625-1.125 0.42188-0.26562 1-0.26562 1.375-0.26562zm-3.0625-0.125-1.6094 1.5 1.6094 1.5156 0.14062-0.125-1.0781-1.3906 1.0781-1.375z"/>
</symbol>
<symbol id="s" overflow="visible">
<path d="m0-8.1094h-0.3125c0 0.51562 0 0.76562-0.29688 0.78125h-1.9062c-0.85938 0-1.1562 0-1.5156 0.3125-0.17188 0.14062-0.375 0.46875-0.375 1.0469 0 0.82812 0.59375 1.2812 0.98438 1.4375-0.875 0.14062-0.98438 0.875-0.98438 1.3281 0 0.73438 0.42188 1.2031 1.0469 1.4844h-1.0469l0.10938 1.4062h0.3125c0-0.70312 0.0625-0.78125 0.5625-0.78125h2.6719c0.4375 0 0.4375 0.10938 0.4375 0.78125h0.3125l-0.03125-1.1406 0.03125-1.1094h-0.3125c0 0.67188 0 0.78125-0.4375 0.78125h-1.8438c-1.0312 0-1.5938-0.71875-1.5938-1.3438 0-0.64062 0.53125-0.75 1.1094-0.75h2.3281c0.4375 0 0.4375 0.10938 0.4375 0.78125h0.3125l-0.03125-1.125 0.03125-1.1094h-0.3125c0 0.65625 0 0.76562-0.4375 0.76562h-1.8438c-1.0312 0-1.5938-0.70312-1.5938-1.3438 0-0.625 0.53125-0.73438 1.1094-0.73438h2.3281c0.4375 0 0.4375 0.10938 0.4375 0.78125h0.3125l-0.03125-1.125z"/>
</symbol>
<symbol id="r" overflow="visible">
<path d="m-1.1875-4.1406c-0.09375 0-0.09375 0.10938-0.09375 0.14062 0 0.078125 0.03125 0.10938 0.09375 0.125 0.92188 0.28125 1.0469 0.9375 1.0469 1.2969 0 0.53125-0.42188 1.4062-2.0312 1.4062-1.625 0-2.0469-0.8125-2.0469-1.3438 0-0.09375 0.015625-0.71875 0.375-1.0625 0.03125 0.40625 0.32812 0.46875 0.45312 0.46875 0.26562 0 0.45312-0.1875 0.45312-0.45312s-0.15625-0.46875-0.46875-0.46875c-0.67188 0-1.0625 0.76562-1.0625 1.5312 0 1.25 1.0781 2.1562 2.3125 2.1562 1.2812 0 2.2656-0.98438 2.2656-2.1406 0-1.3281-1.2031-1.6562-1.2969-1.6562z"/>
</symbol>
<symbol id="q" overflow="visible">
<path d="m-0.015625-2.0312c-0.625 0-1.0469 0.25-1.0469 0.64062 0 0.35938 0.28125 0.53125 0.53125 0.53125 0.26562 0 0.53125-0.17188 0.53125-0.53125 0-0.14062-0.0625-0.28125-0.15625-0.39062 0.78125-0.015625 1.3906 0.25 1.8594 0.6875 0.0625 0.0625 0.078125 0.078125 0.10938 0.078125 0.078125 0 0.10938-0.046875 0.10938-0.09375 0-0.125-0.78125-0.92188-1.9375-0.92188z"/>
</symbol>
<symbol id="p" overflow="visible">
<path d="m-3.7656-4.3438c-0.34375 0-0.64062 0.3125-0.64062 0.82812 0 0.64062 0.48438 1.0781 0.76562 1.2656-0.45312 0.09375-0.76562 0.45312-0.76562 0.92188 0 0.45312 0.39062 0.64062 0.5625 0.73438 0.34375 0.17188 0.9375 0.29688 0.96875 0.29688 0.10938 0 0.10938-0.10938 0.10938-0.10938 0-0.10938-0.015625-0.10938-0.23438-0.17188-0.70312-0.17188-1.1875-0.375-1.1875-0.73438 0-0.15625 0.078125-0.29688 0.45312-0.29688 0.21875 0 0.32812 0.03125 0.84375 0.15625l2.2969 0.57812c0.15625 0.03125 0.39062 0.09375 0.4375 0.09375 0.17188 0 0.26562-0.14062 0.26562-0.29688 0-0.125-0.078125-0.29688-0.28125-0.375-0.03125-0.015625-1.3906-0.34375-1.5781-0.39062l-1.2969-0.3125c-0.125-0.046875-0.59375-0.32812-0.8125-0.5625-0.0625-0.078125-0.32812-0.375-0.32812-0.79688 0-0.26562 0.125-0.42188 0.125-0.42188 0.046875 0.29688 0.28125 0.51562 0.54688 0.51562 0.15625 0 0.34375-0.10938 0.34375-0.375s-0.23438-0.54688-0.59375-0.54688z"/>
</symbol>
<symbol id="o" overflow="visible">
<path d="m-7.2812-4.4219c-0.10938 0-0.20312 0.078125-0.20312 0.1875 0 0.078125 0.03125 0.14062 0.09375 0.17188l9.5 3.4688c0.14062 0.046875 0.1875 0.046875 0.1875 0.046875 0.10938 0 0.20312-0.09375 0.20312-0.20312 0-0.125-0.078125-0.15625-0.25-0.21875l-9.3438-3.4062c-0.14062-0.046875-0.1875-0.046875-0.1875-0.046875z"/>
</symbol>
<symbol id="n" overflow="visible">
<path d="m-2.1562-5.1875c-1.2656 0-2.25 0.95312-2.25 2.0781 0 0.78125 0.4375 1.2031 0.65625 1.3906h-0.65625l0.10938 1.4375h0.3125c0-0.70312 0.0625-0.78125 0.5-0.78125h4.6562c0.45312 0 0.45312 0.10938 0.45312 0.78125h0.3125l-0.03125-1.1094 0.03125-1.125h-0.3125c0 0.65625 0 0.76562-0.45312 0.76562h-1.7656c0.17188-0.046875 0.70312-0.46875 0.70312-1.2188 0-1.1875-0.98438-2.2188-2.2656-2.2188zm0 0.82812c1.2031 0 2.0469 0.6875 2.0469 1.4219 0 0.40625-0.20312 0.78125-0.60938 1.0469-0.20312 0.14062-0.21875 0.14062-0.42188 0.14062h-2.2188c-0.51562-0.28125-0.79688-0.76562-0.79688-1.2812 0-0.73438 0.875-1.3281 2-1.3281z"/>
</symbol>
<symbol id="m" overflow="visible">
<path d="m0-8.1094h-0.3125c0 0.51562 0 0.76562-0.29688 0.78125h-1.9062c-0.85938 0-1.1562 0-1.5156 0.3125-0.17188 0.14062-0.375 0.46875-0.375 1.0469 0 0.82812 0.59375 1.2812 0.98438 1.4375-0.875 0.14062-0.98438 0.875-0.98438 1.3281 0 0.73438 0.42188 1.2031 1.0469 1.4844h-1.0469l0.10938 1.4062h0.3125c0-0.70312 0.0625-0.78125 0.5625-0.78125h2.6719c0.4375 0 0.4375 0.10938 0.4375 0.78125h0.3125l-0.03125-1.1406 0.03125-1.1094h-0.3125c0 0.67188 0 0.78125-0.4375 0.78125h-1.8438c-1.0312 0-1.5938-0.71875-1.5938-1.3438 0-0.64062 0.53125-0.75 1.1094-0.75h2.3281c0.4375 0 0.4375 0.10938 0.4375 0.78125h0.3125l-0.03125-1.125 0.03125-1.1094h-0.3125c0 0.65625 0 0.76562-0.4375 0.76562h-1.8438c-1.0312 0-1.5938-0.70312-1.5938-1.3438 0-0.625 0.53125-0.73438 1.1094-0.73438h2.3281c0.4375 0 0.4375 0.10938 0.4375 0.78125h0.3125l-0.03125-1.125z"/>
</symbol>
<clipPath id="as">
<path d="m35.301 66h35.699v64h-35.699z"/>
</clipPath>
<clipPath id="ar">
<path d="m36 95h45v67.398h-45z"/>
</clipPath>
<clipPath id="aq">
<path d="m137 1h37v54h-37z"/>
</clipPath>
<clipPath id="ap">
<path d="m186 64h43.57v58h-43.57z"/>
</clipPath>
</defs>
<path transform="matrix(1 0 0 -1 51.489 148.95)" d="m-16.188 30.47h4.25m-4.25 52.539h4.25m-4.25 52.539h4.25m190.02-105.08h-4.25m4.25 52.539h-4.25m4.25 52.539h-4.25" fill="none" stroke="#7f7f7f" stroke-miterlimit="10" stroke-width=".19925"/>
<path transform="matrix(1 0 0 -1 51.489 148.95)" d="m-16.188-13.451v161.4h194.27v-161.4z" fill="none" stroke="#000" stroke-miterlimit="10" stroke-width=".3985"/>
<g>
<use x="16.836" y="121.612" xlink:href="#ao"/>
<use x="21.8173" y="121.612" xlink:href="#a"/>
<use x="26.7986" y="121.612" xlink:href="#a"/>
<use x="16.836" y="69.075" xlink:href="#an"/>
<use x="21.8173" y="69.075" xlink:href="#a"/>
<use x="26.7986" y="69.075" xlink:href="#a"/>
<use x="16.836" y="16.538" xlink:href="#am"/>
<use x="21.8173" y="16.538" xlink:href="#a"/>
<use x="26.7986" y="16.538" xlink:href="#a"/>
<use x="55.009" y="87.636" xlink:href="#al"/>
<use x="61.235625" y="87.636" xlink:href="#i"/>
</g>
<g clip-path="url(#as)">
<path transform="matrix(1 0 0 -1 51.489 148.95)" d="m-7.1875e-4 65.674 1.9766-28.898" fill="none" stroke="#0c6dfd" stroke-miterlimit="10" stroke-width="1.1955"/>
</g>
<g clip-path="url(#ar)">
<path transform="matrix(1 0 0 -1 51.489 148.95)" d="m1.9758 36.775 1.9727-13.133 1.9727-10.508 1.9766-5.7773 1.9727-4.2031 1.9766-3.1523" fill="none" stroke="#ffc106" stroke-miterlimit="10" stroke-width="1.1955"/>
</g>
<g>
<use x="66.855" y="145.427" xlink:href="#aa"/>
<use x="68.829" y="67.672" xlink:href="#g"/>
<use x="76.30095" y="67.672" xlink:href="#f"/>
</g>
<path transform="matrix(1 0 0 -1 51.489 148.95)" d="m15.796 77.756 1.9727-23.641" fill="none" stroke="#0c6dfd" stroke-miterlimit="10" stroke-width="1.1955"/>
<path transform="matrix(1 0 0 -1 51.489 148.95)" d="m17.769 54.115 1.9727-14.188 1.9766-3.6758 1.9727-6.832 1.9766-5.2539 1.9727-4.7266" fill="none" stroke="#ffc106" stroke-miterlimit="10" stroke-width="1.1955"/>
<g>
<use x="82.649" y="125.989" xlink:href="#e"/>
<use x="89.84399" y="125.989" xlink:href="#z"/>
<use x="86.597" y="39.827" xlink:href="#y"/>
</g>
<path transform="matrix(1 0 0 -1 51.489 148.95)" d="m31.589 105.6 1.9727-25.746" fill="none" stroke="#0c6dfd" stroke-miterlimit="10" stroke-width="1.1955"/>
<path transform="matrix(1 0 0 -1 51.489 148.95)" d="m33.562 79.857 1.9766-5.2539 1.9727-4.2031 1.9766-2.625 1.9727-2.6289 1.9727-2.625 1.9766-2.6289 1.9727-2.1016 1.9766-1.5742 1.9727-2.1016 1.9727-1.5781" fill="none" stroke="#dc3445" stroke-miterlimit="10" stroke-width="1.1955"/>
<path transform="matrix(1 0 0 -1 51.489 148.95)" d="m53.304 52.537 1.9766-3.1523 1.9727-5.7773 1.9766-5.7812 1.9727-5.7773 1.9727-4.7305" fill="none" stroke="#ffc106" stroke-miterlimit="10" stroke-width="1.1955"/>
<g>
<use x="118.185" y="118.108" xlink:href="#x"/>
<use x="125.24151" y="118.108" xlink:href="#l"/>
<use x="122.134" y="28.269" xlink:href="#ak"/>
<use x="129.46747" y="28.269" xlink:href="#aj"/>
</g>
<path transform="matrix(1 0 0 -1 51.489 148.95)" d="m67.124 117.16 1.9766-24.164" fill="none" stroke="#0c6dfd" stroke-miterlimit="10" stroke-width="1.1955"/>
<path transform="matrix(1 0 0 -1 51.489 148.95)" d="m69.101 92.994 1.9727-3.6797 1.9766-3.1523 3.9453-8.4062 1.9766-3.6758 1.9727-2.6289 1.9766-2.625 3.9453-4.2031 1.9766-2.1016" fill="none" stroke="#dc3445" stroke-miterlimit="10" stroke-width="1.1955"/>
<path transform="matrix(1 0 0 -1 51.489 148.95)" d="m88.843 62.521 1.9727-2.6289 1.9766-5.7773 1.9727-6.3047 1.9766-5.2539 1.9727-4.2031" fill="none" stroke="#ffc106" stroke-miterlimit="10" stroke-width="1.1955"/>
<g>
<use x="153.722" y="107.075" xlink:href="#ai"/>
<use x="157.67" y="10.932" xlink:href="#e"/>
<use x="164.86499" y="10.932" xlink:href="#ah"/>
</g>
<g clip-path="url(#aq)">
<path transform="matrix(1 0 0 -1 51.489 148.95)" d="m102.66 134.5 1.9727-23.641" fill="none" stroke="#0c6dfd" stroke-miterlimit="10" stroke-width="1.1955"/>
</g>
<path transform="matrix(1 0 0 -1 51.489 148.95)" d="m104.64 110.86 1.9766-3.1523h3.9453l1.9766-21.543 1.9727-0.52344 1.9766 17.336 1.9727-3.6758 1.9766 1.0508 1.9727-4.2031 1.9727 1.5742 1.9766-1.0508h1.9727l1.9766-2.1016h1.9727" fill="none" stroke="#6e41c1" stroke-miterlimit="10" stroke-width="1.1955"/>
<path transform="matrix(1 0 0 -1 51.489 148.95)" d="m132.28 94.568 1.9727-2.625 1.9766-4.7305 1.9727-4.2031 1.9766-3.6758 1.9727-2.6289 1.9766-1.5742 1.9727-2.6289 1.9727-1.5742 1.9766-1.5781 1.9727-1.5742" fill="none" stroke="#dc3445" stroke-miterlimit="10" stroke-width="1.1955"/>
<g clip-path="url(#ap)">
<path transform="matrix(1 0 0 -1 51.489 148.95)" d="m152.02 67.775 1.9766-7.8828h1.9727l1.9727-6.8281 1.9766-4.2031 1.9727-4.2031" fill="none" stroke="#ffc106" stroke-miterlimit="10" stroke-width="1.1955"/>
</g>
<g>
<use x="198.789" y="114.673" xlink:href="#ag"/>
<use x="205.981997" y="114.673" xlink:href="#k"/>
<use x="89.505" y="172.78" xlink:href="#g"/>
<use x="96.97695" y="172.78" xlink:href="#af"/>
<use x="102.512171" y="172.78" xlink:href="#j"/>
<use x="110.814005" y="172.78" xlink:href="#ae"/>
<use x="115.242381" y="172.78" xlink:href="#l"/>
<use x="119.144731" y="172.78" xlink:href="#h"/>
<use x="127.443577" y="172.78" xlink:href="#f"/>
<use x="132.424877" y="172.78" xlink:href="#k"/>
<use x="136.299332" y="172.78" xlink:href="#ad"/>
<use x="141.280632" y="172.78" xlink:href="#j"/>
<use x="149.582467" y="172.78" xlink:href="#i"/>
<use x="152.350077" y="172.78" xlink:href="#ac"/>
<use x="156.778453" y="172.78" xlink:href="#h"/>
<use x="161.759753" y="172.78" xlink:href="#ab"/>
<use x="167.849" y="172.78" xlink:href="#w"/>
<use x="7.505" y="125.425" xlink:href="#v"/>
<use x="7.505" y="118.09153" xlink:href="#d"/>
<use x="7.505" y="113.11023" xlink:href="#c"/>
<use x="7.505" y="110.34262" xlink:href="#b"/>
<use x="7.505" y="102.043774" xlink:href="#d"/>
<use x="7.505" y="97.062474" xlink:href="#u"/>
<use x="7.505" y="93.188019" xlink:href="#t"/>
<use x="7.505" y="88.206719" xlink:href="#s"/>
<use x="7.505" y="79.904884" xlink:href="#c"/>
<use x="7.505" y="77.137274" xlink:href="#r"/>
<use x="7.505" y="72.708898" xlink:href="#b"/>
<use x="7.505" y="67.727598" xlink:href="#q"/>
<use x="7.505" y="61.637" xlink:href="#p"/>
<use x="7.505" y="56.862922" xlink:href="#o"/>
<use x="7.505" y="51.884" xlink:href="#n"/>
<use x="7.505" y="46.348779" xlink:href="#m"/>
</g>
</svg>
