<?xml version="1.0" encoding="UTF-8"?>
<svg width="73pt" height="56pt" version="1.1" viewBox="0 0 73 56" xmlns="http://www.w3.org/2000/svg" xmlns:xlink="http://www.w3.org/1999/xlink">
<defs>
<symbol id="d" overflow="visible">
<path d="m6.0938 0v-6.9219h-0.78125v6.2188h-0.015625l-0.65625-1.375-2.4531-4.8438h-1.2344v6.9219h0.78125v-6.2031h0.015625l0.65625 1.3594 2.4531 4.8438z"/>
</symbol>
<symbol id="b" overflow="visible">
<path d="m6.1094 0v-6.9219h-0.89062v3.0312h-3.3906v-3.0312h-0.89062v6.9219h0.89062v-3.2969h3.3906v3.2969z"/>
</symbol>
<symbol id="c" overflow="visible">
<path d="m6.0781-1.875c0-0.85938-0.85938-1.5781-1.9219-1.75 0.90625-0.21875 1.6562-0.79688 1.6562-1.5625 0-0.90625-1.0625-1.7344-2.4844-1.7344h-2.3594v6.9219h2.625c1.4375 0 2.4844-0.89062 2.4844-1.875zm-1.0469-3.2969c0 0.59375-0.70312 1.2812-2.0781 1.2812h-1.1562v-2.4688h1.25c1.1094 0 1.9844 0.53125 1.9844 1.1875zm0.25 3.2812c0 0.75-0.89062 1.3281-1.9688 1.3281h-1.5156v-2.7344h1.4375c1.0625 0 2.0469 0.60938 2.0469 1.4062z"/>
</symbol>
<symbol id="a" overflow="visible">
<path d="m5.25-6.2344v-0.65625h-4.3125v6.8906h0.89062v-3.1406h3v-0.60938h-3v-2.5h1.2969c0.125 0 0.25 0.015625 0.35938 0.015625z"/>
</symbol>
</defs>
<g>
<use x="20.671" y="31.605" xlink:href="#d"/>
<use x="9.505" y="12.265" xlink:href="#b"/>
</g>
<path transform="matrix(1,0,0,-1,24.199,31.605)" d="m-2.7928 8.3003-5.5781 9.6602" fill="none" stroke="#000" stroke-linecap="round" stroke-miterlimit="10" stroke-width=".59758"/>
<g>
<use x="-0.728" y="31.605" xlink:href="#b"/>
</g>
<path transform="matrix(1,0,0,-1,24.199,31.605)" d="m-5.1209 3.4605h-11.156" fill="none" stroke="#000" stroke-linecap="round" stroke-miterlimit="10" stroke-width=".59758"/>
<g>
<use x="9.505" y="50.944" xlink:href="#b"/>
</g>
<path transform="matrix(1,0,0,-1,24.199,31.605)" d="m-2.7928-1.3794-5.5781-9.6602" fill="none" stroke="#000" stroke-linecap="round" stroke-miterlimit="10" stroke-width=".59758"/>
<g>
<use x="42.07" y="31.605" xlink:href="#c"/>
</g>
<path transform="matrix(1,0,0,-1,24.199,31.605)" d="m5.1213 3.4605h11.156" fill="none" stroke="#000" stroke-linecap="round" stroke-miterlimit="10" stroke-width=".59758"/>
<g>
<use x="53.721" y="50.944" xlink:href="#a"/>
</g>
<path transform="matrix(1,0,0,-1,62.182,44.237)" d="m0.42738-0.73566c-0.30859-0.17969-0.41406-0.57422-0.23828-0.87891 0.17969-0.30859 0.57031-0.41406 0.87891-0.23828 0.30859 0.17969 0.41406 0.57422 0.23828 0.87891-0.17969 0.30859-0.57422 0.41406-0.87891 0.23828zm-1.4961 2.5859c-0.30859-0.17578-0.41406-0.57031-0.23438-0.87891 0.17578-0.30469 0.57031-0.41016 0.87891-0.23438 0.30469 0.17578 0.41016 0.57031 0.23438 0.87891-0.17969 0.30859-0.57031 0.41406-0.87891 0.23438z" stroke="#000" stroke-miterlimit="10" stroke-width=".3985"/>
<path transform="matrix(1,0,0,-1,50.932,50.733)" d="m-0.42419 0.73691c0.30469 0.17969 0.41016 0.57031 0.23438 0.87891-0.17969 0.30859-0.57031 0.41406-0.87891 0.23438-0.30859-0.17578-0.41406-0.57031-0.23438-0.87891 0.17578-0.30469 0.57031-0.41016 0.87891-0.23438zm1.4922-2.5898c0.30859 0.17969 0.41406 0.57422 0.23828 0.87891-0.17969 0.30859-0.57422 0.41406-0.87891 0.23828-0.30859-0.17969-0.41406-0.57422-0.23828-0.87891 0.17969-0.30859 0.57031-0.41406 0.87891-0.23828z" stroke="#000" stroke-miterlimit="10" stroke-width=".3985"/>
<path transform="matrix(1,0,0,-1,60.164,53.733)" d="m-0.73822-0.42716c-0.17578 0.30859-0.57031 0.41406-0.87891 0.23828-0.30469-0.17969-0.41016-0.57422-0.23438-0.87891 0.17969-0.30859 0.57031-0.41406 0.87891-0.23828 0.30859 0.17969 0.41406 0.57422 0.23438 0.87891zm2.5898 1.4961c-0.17969 0.30859-0.57031 0.41406-0.87891 0.23438-0.30859-0.17578-0.41406-0.57031-0.23438-0.87891 0.17578-0.30469 0.57031-0.41016 0.87891-0.23438 0.30469 0.17578 0.41016 0.57031 0.23438 0.87891z" stroke="#000" stroke-miterlimit="10" stroke-width=".3985"/>
<path transform="matrix(1,0,0,-1,24.199,31.605)" d="m23.985-1.3794 5.5781-9.6602" fill="none" stroke="#000" stroke-linecap="round" stroke-miterlimit="10" stroke-width=".59758"/>
<g>
<use x="63.055" y="31.605" xlink:href="#a"/>
</g>
<path transform="matrix(1,0,0,-1,71.717,28.145)" d="m0.00175-0.85109c-0.35547 0-0.64453-0.28906-0.64453-0.64453s0.28906-0.64062 0.64453-0.64062 0.64062 0.28516 0.64062 0.64062-0.28516 0.64453-0.64062 0.64453zm0 2.9883c-0.35547 0-0.64453-0.28906-0.64453-0.64453 0-0.35547 0.28906-0.64062 0.64453-0.64062s0.64062 0.28516 0.64062 0.64062c0 0.35547-0.28516 0.64453-0.64062 0.64453z" stroke="#000" stroke-miterlimit="10" stroke-width=".3985"/>
<path transform="matrix(1,0,0,-1,65.892,34.594)" d="m-0.85294 2.5e-4c0 0.35547-0.28516 0.64453-0.64062 0.64453-0.35547 0-0.64453-0.28906-0.64453-0.64453s0.28906-0.64453 0.64453-0.64453c0.35547 0 0.64062 0.28906 0.64062 0.64453zm2.9922 0c0 0.35547-0.28906 0.64453-0.64453 0.64453-0.35547 0-0.64453-0.28906-0.64453-0.64453s0.28906-0.64453 0.64453-0.64453c0.35547 0 0.64453 0.28906 0.64453 0.64453z" stroke="#000" stroke-miterlimit="10" stroke-width=".3985"/>
<path transform="matrix(1,0,0,-1,65.892,21.697)" d="m0.85019 0.0016875c0-0.35547 0.28906-0.64453 0.64453-0.64453 0.35547 0 0.64453 0.28906 0.64453 0.64453s-0.28906 0.64063-0.64453 0.64063c-0.35547 0-0.64453-0.28516-0.64453-0.64063zm-2.9883 0c0-0.35547 0.28906-0.64453 0.64453-0.64453 0.35547 0 0.64062 0.28906 0.64062 0.64453s-0.28516 0.64063-0.64062 0.64063c-0.35547 0-0.64453-0.28516-0.64453-0.64063z" stroke="#000" stroke-miterlimit="10" stroke-width=".3985"/>
<path transform="matrix(1,0,0,-1,24.199,31.605)" d="m26.106 3.4605h11.156" fill="none" stroke="#000" stroke-linecap="round" stroke-miterlimit="10" stroke-width=".59758"/>
<g>
<use x="53.721" y="12.265" xlink:href="#a"/>
</g>
<path transform="matrix(1,0,0,-1,50.932,5.558)" d="m0.42738 0.73769c0.30469-0.17969 0.69922-0.074219 0.87891 0.23438 0.17578 0.30859 0.070313 0.70312-0.23828 0.87891-0.30859 0.17969-0.69922 0.074219-0.87891-0.23438-0.17578-0.30859-0.070313-0.70312 0.23828-0.87891zm-1.4961-2.5898c0.30859-0.17578 0.69922-0.070313 0.87891 0.23438 0.17578 0.30859 0.070313 0.70312-0.23438 0.87891-0.30859 0.17969-0.70312 0.074219-0.87891-0.23438-0.17969-0.30859-0.074219-0.69922 0.23438-0.87891z" stroke="#000" stroke-miterlimit="10" stroke-width=".3985"/>
<path transform="matrix(1,0,0,-1,62.182,12.053)" d="m-0.42419-0.73606c-0.30859 0.17578-0.70312 0.070312-0.87891-0.23828-0.17969-0.30469-0.074219-0.69922 0.23438-0.87891 0.30859-0.17578 0.69922-0.070312 0.87891 0.23828 0.17578 0.30859 0.070313 0.69922-0.23438 0.87891zm1.4922 2.5859c-0.30859 0.17969-0.69922 0.074219-0.87891-0.23438-0.17578-0.30859-0.070313-0.69922 0.23828-0.87891 0.30469-0.17578 0.69922-0.070313 0.87891 0.23438 0.17578 0.30859 0.070313 0.70312-0.23828 0.87891z" stroke="#000" stroke-miterlimit="10" stroke-width=".3985"/>
<path transform="matrix(1,0,0,-1,60.164,2.558)" d="m0.73834-0.42638c-0.17969-0.30859-0.074219-0.69922 0.23438-0.87891 0.30859-0.17578 0.69922-0.070313 0.87891 0.23828 0.17578 0.30469 0.070312 0.69922-0.23438 0.87891-0.30859 0.17578-0.70312 0.070313-0.87891-0.23828zm-2.5898 1.4961c-0.17578-0.30859-0.070313-0.70312 0.23438-0.87891 0.30859-0.17969 0.70312-0.074219 0.87891 0.23438 0.17969 0.30859 0.074219 0.70312-0.23438 0.87891-0.30859 0.17969-0.69922 0.074219-0.87891-0.23438z" stroke="#000" stroke-miterlimit="10" stroke-width=".3985"/>
<path transform="matrix(1,0,0,-1,24.199,31.605)" d="m23.985 8.3003 5.5781 9.6602" fill="none" stroke="#000" stroke-linecap="round" stroke-miterlimit="10" stroke-width=".59758"/>
</svg>
