<?xml version="1.0" encoding="UTF-8"?>
<svg width="248pt" height="48pt" version="1.1" viewBox="0 0 248 48" xmlns="http://www.w3.org/2000/svg" xmlns:xlink="http://www.w3.org/1999/xlink">
<defs>
<symbol id="b" overflow="visible">
<path d="m6.0938 0v-6.9219h-0.78125v6.2188h-0.015625l-0.65625-1.375-2.4531-4.8438h-1.2344v6.9219h0.78125v-6.2031h0.015625l0.65625 1.3594 2.4531 4.8438z"/>
</symbol>
<symbol id="a" overflow="visible">
<path d="m6.7656-3.4375c0-2.0938-1.4375-3.7031-3.0938-3.7031-1.7031 0-3.1094 1.625-3.1094 3.7031 0 2.1094 1.4688 3.6562 3.0938 3.6562 1.6719 0 3.1094-1.5625 3.1094-3.6562zm-0.89062-0.15625c0 1.9531-1.0625 3.1719-2.2031 3.1719-1.1719 0-2.2188-1.25-2.2188-3.1719 0-1.8125 1.0938-2.9062 2.2031-2.9062 1.1562 0 2.2188 1.125 2.2188 2.9062z"/>
</symbol>
</defs>
<g>
<use x="24.093" y="32.526" xlink:href="#b"/>
<use x="43.57" y="43.852" xlink:href="#a"/>
</g>
<path transform="matrix(1,0,0,-1,47.237,46.841)" d="m-0.85028 0.0011562c0 0.35547-0.28906 0.64062-0.64453 0.64062-0.35547 0-0.64453-0.28516-0.64453-0.64062 0-0.35547 0.28906-0.64453 0.64453-0.64453 0.35547 0 0.64453 0.28906 0.64453 0.64453zm2.9883 0c0 0.35547-0.28906 0.64062-0.64453 0.64062-0.35547 0-0.64062-0.28516-0.64062-0.64062 0-0.35547 0.28516-0.64453 0.64062-0.64453 0.35547 0 0.64453 0.28906 0.64453 0.64453z" stroke="#000" stroke-miterlimit="10" stroke-width=".3985"/>
<path transform="matrix(1,0,0,-1,53.261,36.915)" d="m0.4265-0.73734c-0.30859-0.17578-0.41406-0.57031-0.23828-0.87891 0.17969-0.30859 0.57422-0.41406 0.87891-0.23438 0.30859 0.17578 0.41406 0.57031 0.23828 0.87891-0.17969 0.30859-0.57031 0.41406-0.87891 0.23438zm-1.4961 2.5898c-0.30859-0.17969-0.41406-0.57422-0.23438-0.87891 0.17578-0.30859 0.57031-0.41406 0.87891-0.23828 0.30859 0.17969 0.41406 0.57422 0.23438 0.87891-0.17578 0.30859-0.57031 0.41406-0.87891 0.23828z" stroke="#000" stroke-miterlimit="10" stroke-width=".3985"/>
<path transform="matrix(1,0,0,-1,27.621,32.526)" d="m5.5313 1.7057 9.6602-5.582" fill="none" stroke="#000" stroke-linecap="round" stroke-miterlimit="10" stroke-width=".59758"/>
<path transform="matrix(1,0,0,-1,27.621,32.526)" d="m4.2852-0.45447 9.6602-5.5781" fill="none" stroke="#000" stroke-linecap="round" stroke-miterlimit="10" stroke-width=".59758"/>
<g>
<use x="23.954" y="11.265" xlink:href="#a"/>
</g>
<path transform="matrix(1,0,0,-1,34.276,7.806)" d="m0.0013438-0.85025c-0.35547 0-0.64453-0.28906-0.64453-0.64453 0-0.35547 0.28906-0.64453 0.64453-0.64453 0.35547 0 0.64063 0.28906 0.64063 0.64453 0 0.35547-0.28516 0.64453-0.64063 0.64453zm0 2.9883c-0.35547 0-0.64453-0.28906-0.64453-0.64453s0.28906-0.64062 0.64453-0.64062c0.35547 0 0.64063 0.28516 0.64063 0.64062s-0.28516 0.64453-0.64063 0.64453z" stroke="#000" stroke-miterlimit="10" stroke-width=".3985"/>
<path transform="matrix(1,0,0,-1,27.621,1.358)" d="m0.85166-0.001375c0-0.35547 0.28906-0.64062 0.64453-0.64062 0.35547 0 0.64062 0.28516 0.64062 0.64062s-0.28516 0.64453-0.64062 0.64453c-0.35547 0-0.64453-0.28906-0.64453-0.64453zm-2.9883 0c0-0.35547 0.28516-0.64062 0.64062-0.64062s0.64453 0.28516 0.64453 0.64062-0.28906 0.64453-0.64453 0.64453-0.64062-0.28906-0.64062-0.64453z" stroke="#000" stroke-miterlimit="10" stroke-width=".3985"/>
<path transform="matrix(1,0,0,-1,21.464,7.806)" d="m8.4375e-4 0.85288c0.35547 0 0.64063 0.28516 0.64063 0.64062s-0.28516 0.64453-0.64063 0.64453c-0.35547 0-0.64453-0.28906-0.64453-0.64453s0.28906-0.64062 0.64453-0.64062zm0-2.9922c0.35547 0 0.64063 0.28906 0.64063 0.64453 0 0.35547-0.28516 0.64453-0.64063 0.64453-0.35547 0-0.64453-0.28906-0.64453-0.64453 0-0.35547 0.28906-0.64453 0.64453-0.64453z" stroke="#000" stroke-miterlimit="10" stroke-width=".3985"/>
<path transform="matrix(1,0,0,-1,27.621,32.526)" d="m9.375e-5 8.5143v11.152" fill="none" stroke="#000" stroke-linecap="round" stroke-miterlimit="10" stroke-width=".59758"/>
<g>
<use x="4.338" y="43.852" xlink:href="#a"/>
</g>
<path transform="matrix(1,0,0,-1,11.363,46.209)" d="m-0.738-0.42381c-0.17578 0.30469-0.57031 0.41016-0.87891 0.23438-0.30859-0.17969-0.41406-0.57031-0.23438-0.87891 0.17578-0.30859 0.57031-0.41406 0.87891-0.23438 0.30859 0.17578 0.41406 0.57031 0.23438 0.87891zm2.5898 1.4922c-0.17969 0.30859-0.57031 0.41406-0.87891 0.23438-0.30859-0.17578-0.41406-0.57031-0.23438-0.87891 0.17578-0.30469 0.57031-0.41016 0.87891-0.23438 0.30469 0.17969 0.41016 0.57031 0.23438 0.87891z" stroke="#000" stroke-miterlimit="10" stroke-width=".3985"/>
<path transform="matrix(1,0,0,-1,1.981,43.871)" d="m-0.42631 0.73819c0.30859 0.17578 0.41406 0.57031 0.23438 0.87891-0.17578 0.30469-0.57031 0.41016-0.87891 0.23438-0.30469-0.17969-0.41016-0.57031-0.23438-0.87891 0.17969-0.30859 0.57031-0.41406 0.87891-0.23438zm1.4961-2.5898c0.30859 0.17969 0.41406 0.57031 0.23438 0.87891-0.17578 0.30859-0.57031 0.41406-0.87891 0.23438-0.30859-0.17578-0.41406-0.57031-0.23438-0.87891 0.17578-0.30469 0.57031-0.41016 0.87891-0.23438z" stroke="#000" stroke-miterlimit="10" stroke-width=".3985"/>
<path transform="matrix(1,0,0,-1,4.647,34.576)" d="m0.73581 0.42366c0.17969-0.30469 0.57422-0.41016 0.87891-0.23438 0.30859 0.17969 0.41406 0.57031 0.23828 0.87891-0.17969 0.30859-0.57422 0.41406-0.87891 0.23438-0.30859-0.17578-0.41406-0.57031-0.23828-0.87891zm-2.5859-1.4922c0.17578-0.30859 0.57031-0.41406 0.87891-0.23438 0.30469 0.17578 0.41016 0.57031 0.23438 0.87891-0.17969 0.30469-0.57031 0.41016-0.87891 0.23438-0.30859-0.17969-0.41406-0.57031-0.23438-0.87891z" stroke="#000" stroke-miterlimit="10" stroke-width=".3985"/>
<path transform="matrix(1,0,0,-1,27.621,32.526)" d="m-4.9101 0.62756-9.6602-5.582" fill="none" stroke="#000" stroke-linecap="round" stroke-miterlimit="10" stroke-width=".59758"/>
<path transform="matrix(1,0,0,-1,4.338,32.526)" d="m58.463 8.4283h26.02" fill="none" stroke="#000" stroke-miterlimit="10" stroke-width=".3985"/>
<path transform="matrix(-1 0 0 1 65.511 24.099)" d="m4.4449-0.0011238-3.2812 1.3164 1.6445-1.3164-1.6445-1.3125z" stroke="#000" stroke-linejoin="round" stroke-miterlimit="10" stroke-width=".3985"/>
<path transform="matrix(1 0 0 -1 86.111 24.099)" d="m4.4433 0.0011238-3.2812 1.3125 1.6484-1.3125-1.6484-1.3164z" stroke="#000" stroke-linejoin="round" stroke-miterlimit="10" stroke-width=".3985"/>
<g>
<use x="120.472" y="32.526" xlink:href="#b"/>
<use x="139.949" y="43.852" xlink:href="#a"/>
</g>
<path transform="matrix(1 0 0 -1 146.97 34.576)" d="m0.73694-0.424c-0.17578-0.30859-0.070312-0.70312 0.23438-0.87891 0.30859-0.17969 0.70312-0.074219 0.87891 0.23438 0.17969 0.30859 0.074218 0.69922-0.23438 0.87891-0.30859 0.17578-0.70312 0.070312-0.87891-0.23438zm-2.5898 1.4922c-0.17578-0.30859-0.070313-0.69922 0.23828-0.87891 0.30469-0.17578 0.69922-0.070312 0.87891 0.23438 0.17578 0.30859 0.070313 0.70312-0.23828 0.87891-0.30469 0.17969-0.69922 0.074219-0.87891-0.23438z" stroke="#000" stroke-miterlimit="10" stroke-width=".3985"/>
<path transform="matrix(1,0,0,-1,149.64,43.871)" d="m-0.42516-0.73838c-0.30859 0.17969-0.70312 0.074219-0.87891-0.23438-0.17969-0.30859-0.074218-0.69922 0.23438-0.87891 0.30859-0.17578 0.70312-0.070313 0.87891 0.23438 0.17969 0.30859 0.074218 0.70312-0.23438 0.87891zm1.4922 2.5898c-0.30469 0.17578-0.69922 0.070312-0.87891-0.23438-0.17578-0.30859-0.070313-0.70312 0.23828-0.87891 0.30859-0.17969 0.69922-0.074218 0.87891 0.23438 0.17578 0.30859 0.070313 0.69922-0.23828 0.87891z" stroke="#000" stroke-miterlimit="10" stroke-width=".3985"/>
<path transform="matrix(1 0 0 -1 140.26 46.209)" d="m-0.73847 0.42384c0.17969 0.30859 0.074219 0.70312-0.23438 0.87891-0.30859 0.17969-0.69922 0.074219-0.87891-0.23438-0.17578-0.30859-0.070313-0.69922 0.23438-0.87891 0.30859-0.17578 0.70312-0.070313 0.87891 0.23438zm2.5898-1.4922c0.17578 0.30859 0.070312 0.69922-0.23438 0.87891-0.30859 0.17578-0.70312 0.070313-0.87891-0.23438-0.17969-0.30859-0.074219-0.70312 0.23438-0.87891 0.30859-0.17969 0.70312-0.074219 0.87891 0.23438z" stroke="#000" stroke-miterlimit="10" stroke-width=".3985"/>
<path transform="matrix(1,0,0,-1,124,32.526)" d="m4.9102 0.62756 9.6602-5.582" fill="none" stroke="#000" stroke-linecap="round" stroke-miterlimit="10" stroke-width=".59758"/>
<g>
<use x="120.333" y="11.265" xlink:href="#a"/>
</g>
<path transform="matrix(1 0 0 -1 130.02 4.328)" d="m0.42522-0.73841c-0.30859-0.17578-0.41406-0.57031-0.23438-0.87891 0.17578-0.30469 0.57031-0.41016 0.87891-0.23438 0.30859 0.17969 0.41406 0.57031 0.23438 0.87891-0.17578 0.30859-0.57031 0.41406-0.87891 0.23438zm-1.4922 2.5898c-0.30859-0.17578-0.41406-0.57031-0.23828-0.87891 0.17969-0.30859 0.57031-0.41406 0.87891-0.23438 0.30859 0.17578 0.41406 0.57031 0.23438 0.87891-0.17578 0.30469-0.57031 0.41016-0.875 0.23438z" stroke="#000" stroke-miterlimit="10" stroke-width=".3985"/>
<path transform="matrix(1 0 0 -1 117.98 4.328)" d="m0.42634 0.73816c0.30859-0.17969 0.69922-0.074219 0.87891 0.23438 0.17578 0.30859 0.070312 0.70312-0.23828 0.87891-0.30469 0.17578-0.69922 0.070313-0.875-0.23438-0.17969-0.30859-0.074219-0.70312 0.23438-0.87891zm-1.4961-2.5898c0.30859-0.17578 0.70312-0.070312 0.87891 0.23438 0.17969 0.30859 0.074219 0.70312-0.23438 0.87891-0.30859 0.17969-0.70312 0.074218-0.87891-0.23438-0.17969-0.30859-0.074219-0.69922 0.23438-0.87891z" stroke="#000" stroke-miterlimit="10" stroke-width=".3985"/>
<path transform="matrix(1,0,0,-1,124,32.526)" d="m-1.2461 8.5143v11.152" fill="none" stroke="#000" stroke-linecap="round" stroke-miterlimit="10" stroke-width=".59758"/>
<path transform="matrix(1,0,0,-1,124,32.526)" d="m1.2461 8.5143v11.152" fill="none" stroke="#000" stroke-linecap="round" stroke-miterlimit="10" stroke-width=".59758"/>
<g>
<use x="100.717" y="43.852" xlink:href="#a"/>
</g>
<path transform="matrix(1 0 0 -1 107.74 46.209)" d="m-0.73809-0.42381c-0.17578 0.30469-0.57031 0.41016-0.87891 0.23438-0.30469-0.17969-0.41016-0.57031-0.23438-0.87891s0.57031-0.41406 0.87891-0.23438c0.30859 0.17578 0.41406 0.57031 0.23438 0.87891zm2.5898 1.4922c-0.17969 0.30859-0.57031 0.41406-0.87891 0.23438-0.30859-0.17578-0.41406-0.57031-0.23438-0.87891 0.17578-0.30469 0.57031-0.41016 0.87891-0.23438 0.30469 0.17969 0.41016 0.57031 0.23438 0.87891z" stroke="#000" stroke-miterlimit="10" stroke-width=".3985"/>
<path transform="matrix(1,0,0,-1,98.36,43.871)" d="m-0.42641 0.73819c0.30859 0.17578 0.41406 0.57031 0.23828 0.87891-0.17969 0.30469-0.57422 0.41016-0.87891 0.23438-0.30859-0.17969-0.41406-0.57031-0.23828-0.87891 0.17969-0.30859 0.57031-0.41406 0.87891-0.23438zm1.4961-2.5898c0.30859 0.17969 0.41406 0.57031 0.23438 0.87891-0.17578 0.30859-0.57031 0.41406-0.87891 0.23438-0.30859-0.17578-0.41406-0.57031-0.23438-0.87891 0.17578-0.30469 0.57031-0.41016 0.87891-0.23438z" stroke="#000" stroke-miterlimit="10" stroke-width=".3985"/>
<path transform="matrix(1 0 0 -1 101.03 34.576)" d="m0.73572 0.42366c0.17969-0.30469 0.57422-0.41016 0.87891-0.23438 0.30859 0.17969 0.41406 0.57031 0.23828 0.87891-0.17969 0.30859-0.57422 0.41406-0.87891 0.23438-0.30859-0.17578-0.41406-0.57031-0.23828-0.87891zm-2.5859-1.4922c0.17578-0.30859 0.57031-0.41406 0.87891-0.23438 0.30469 0.17578 0.41016 0.57031 0.23438 0.87891-0.17578 0.30469-0.57031 0.41016-0.87891 0.23438-0.30859-0.17969-0.41406-0.57031-0.23438-0.87891z" stroke="#000" stroke-miterlimit="10" stroke-width=".3985"/>
<path transform="matrix(1,0,0,-1,124,32.526)" d="m-4.9102 0.62756-9.6602-5.582" fill="none" stroke="#000" stroke-linecap="round" stroke-miterlimit="10" stroke-width=".59758"/>
<path transform="matrix(1,0,0,-1,4.338,32.526)" d="m154.84 8.4283h26.023" fill="none" stroke="#000" stroke-miterlimit="10" stroke-width=".3985"/>
<path transform="matrix(-1 0 0 1 161.89 24.099)" d="m4.4463-0.0011238-3.2852 1.3164 1.6484-1.3164-1.6484-1.3125z" stroke="#000" stroke-linejoin="round" stroke-miterlimit="10" stroke-width=".3985"/>
<path transform="matrix(1 0 0 -1 182.49 24.099)" d="m4.4458 0.0011238-3.2852 1.3125 1.6484-1.3125-1.6484-1.3164z" stroke="#000" stroke-linejoin="round" stroke-miterlimit="10" stroke-width=".3985"/>
<g>
<use x="216.851" y="32.526" xlink:href="#b"/>
<use x="236.328" y="43.852" xlink:href="#a"/>
</g>
<path transform="matrix(1 0 0 -1 243.35 34.576)" d="m0.73684-0.424c-0.17578-0.30859-0.070313-0.70312 0.23438-0.87891 0.30859-0.17969 0.70312-0.074219 0.87891 0.23438 0.17969 0.30859 0.074219 0.69922-0.23438 0.87891-0.30859 0.17578-0.69922 0.070312-0.87891-0.23438zm-2.5898 1.4922c-0.17578-0.30859-0.070313-0.69922 0.23828-0.87891 0.30469-0.17578 0.69922-0.070312 0.87891 0.23438 0.17578 0.30859 0.070313 0.70312-0.23828 0.87891-0.30469 0.17969-0.69922 0.074219-0.87891-0.23438z" stroke="#000" stroke-miterlimit="10" stroke-width=".3985"/>
<path transform="matrix(1 0 0 -1 246.02 43.871)" d="m-0.42525-0.73838c-0.30859 0.17969-0.70312 0.074219-0.87891-0.23438-0.17969-0.30859-0.074219-0.69922 0.23438-0.87891 0.30859-0.17578 0.70312-0.070313 0.87891 0.23438 0.17969 0.30859 0.074219 0.70312-0.23438 0.87891zm1.4961 2.5898c-0.30859 0.17578-0.70312 0.070312-0.87891-0.23438-0.17969-0.30859-0.074218-0.70312 0.23438-0.87891 0.30859-0.17969 0.69922-0.074218 0.87891 0.23438 0.17578 0.30859 0.070312 0.69922-0.23438 0.87891z" stroke="#000" stroke-miterlimit="10" stroke-width=".3985"/>
<path transform="matrix(1 0 0 -1 236.64 46.209)" d="m-0.73856 0.42384c0.17969 0.30859 0.074219 0.70312-0.23438 0.87891-0.30859 0.17969-0.69922 0.074219-0.87891-0.23438-0.17578-0.30859-0.070312-0.69922 0.23438-0.87891 0.30859-0.17578 0.70312-0.070313 0.87891 0.23438zm2.5898-1.4922c0.17969 0.30859 0.074219 0.69922-0.23438 0.87891-0.30859 0.17578-0.70312 0.070313-0.87891-0.23438-0.17969-0.30859-0.074219-0.70312 0.23438-0.87891 0.30859-0.17969 0.70312-0.074219 0.87891 0.23438z" stroke="#000" stroke-miterlimit="10" stroke-width=".3985"/>
<path transform="matrix(1 0 0 -1 220.38 32.526)" d="m4.9101 0.62756 9.6602-5.582" fill="none" stroke="#000" stroke-linecap="round" stroke-miterlimit="10" stroke-width=".59758"/>
<g>
<use x="216.712" y="11.265" xlink:href="#a"/>
</g>
<path transform="matrix(1 0 0 -1 227.04 7.806)" d="m1.5625e-4 -0.85025c-0.35547 0-0.64453-0.28906-0.64453-0.64453 0-0.35547 0.28906-0.64453 0.64453-0.64453 0.35547 0 0.64453 0.28906 0.64453 0.64453 0 0.35547-0.28906 0.64453-0.64453 0.64453zm0 2.9883c-0.35547 0-0.64453-0.28906-0.64453-0.64453s0.28906-0.64062 0.64453-0.64062c0.35547 0 0.64453 0.28516 0.64453 0.64062s-0.28906 0.64453-0.64453 0.64453z" stroke="#000" stroke-miterlimit="10" stroke-width=".3985"/>
<path transform="matrix(1 0 0 -1 220.38 1.358)" d="m0.85147-0.001375c0-0.35547 0.28906-0.64062 0.64453-0.64062s0.64062 0.28516 0.64062 0.64062-0.28516 0.64453-0.64062 0.64453-0.64453-0.28906-0.64453-0.64453zm-2.9883 0c0-0.35547 0.28516-0.64062 0.64062-0.64062 0.35547 0 0.64453 0.28516 0.64453 0.64062s-0.28906 0.64453-0.64453 0.64453c-0.35547 0-0.64062-0.28906-0.64062-0.64453z" stroke="#000" stroke-miterlimit="10" stroke-width=".3985"/>
<path transform="matrix(1 0 0 -1 214.22 7.806)" d="m6.5625e-4 0.85288c0.35547 0 0.64453 0.28516 0.64453 0.64062s-0.28906 0.64453-0.64453 0.64453c-0.35547 0-0.64453-0.28906-0.64453-0.64453s0.28906-0.64062 0.64453-0.64062zm0-2.9922c0.35547 0 0.64453 0.28906 0.64453 0.64453 0 0.35547-0.28906 0.64453-0.64453 0.64453-0.35547 0-0.64453-0.28906-0.64453-0.64453 0-0.35547 0.28906-0.64453 0.64453-0.64453z" stroke="#000" stroke-miterlimit="10" stroke-width=".3985"/>
<path transform="matrix(1 0 0 -1 220.38 32.526)" d="m-9.375e-5 8.5143v11.152" fill="none" stroke="#000" stroke-linecap="round" stroke-miterlimit="10" stroke-width=".59758"/>
<g>
<use x="197.096" y="43.852" xlink:href="#a"/>
</g>
<path transform="matrix(1 0 0 -1 200.76 46.841)" d="m-0.85284 0.0011562c0 0.35547-0.28516 0.64062-0.64062 0.64062s-0.64453-0.28516-0.64453-0.64062c0-0.35547 0.28906-0.64453 0.64453-0.64453s0.64062 0.28906 0.64062 0.64453zm2.9922 0c0 0.35547-0.28906 0.64062-0.64453 0.64062-0.35547 0-0.64453-0.28516-0.64453-0.64062 0-0.35547 0.28906-0.64453 0.64453-0.64453 0.35547 0 0.64453 0.28906 0.64453 0.64453z" stroke="#000" stroke-miterlimit="10" stroke-width=".3985"/>
<path transform="matrix(1 0 0 -1 194.74 36.915)" d="m0.42506 0.73531c0.30859-0.17578 0.70312-0.070312 0.87891 0.23828 0.17969 0.30469 0.074218 0.69922-0.23438 0.87891-0.30859 0.17578-0.70312 0.070312-0.87891-0.23828-0.17969-0.30469-0.074218-0.69922 0.23438-0.87891zm-1.4922-2.5859c0.30469-0.17969 0.69922-0.074219 0.87891 0.23438 0.17578 0.30859 0.070313 0.70312-0.23828 0.87891-0.30859 0.17969-0.69922 0.074219-0.87891-0.23438-0.17578-0.30859-0.070313-0.70312 0.23828-0.87891z" stroke="#000" stroke-miterlimit="10" stroke-width=".3985"/>
<path transform="matrix(1 0 0 -1 220.38 32.526)" d="m-4.2852-0.45447-9.6602-5.5781" fill="none" stroke="#000" stroke-linecap="round" stroke-miterlimit="10" stroke-width=".59758"/>
<path transform="matrix(1 0 0 -1 220.38 32.526)" d="m-5.5313 1.7057-9.6602-5.582" fill="none" stroke="#000" stroke-linecap="round" stroke-miterlimit="10" stroke-width=".59758"/>
</svg>
