<?xml version="1.0" encoding="UTF-8"?>
<svg width="143pt" height="42pt" version="1.1" viewBox="0 0 143 42" xmlns="http://www.w3.org/2000/svg" xmlns:xlink="http://www.w3.org/1999/xlink">
<defs>
<symbol id="b" overflow="visible">
<path d="m5.8594-0.45312-0.0625-0.6875c-0.29688 0.20312-0.57812 0.39062-0.92188 0.5-0.3125 0.10938-0.67188 0.10938-1 0.10938-0.65625 0-1.25-0.34375-1.6562-0.85938-0.45312-0.57812-0.67188-1.3281-0.67188-2.0625 0-0.75 0.21875-1.5 0.67188-2.0938 0.40625-0.5 1-0.85938 1.6562-0.85938 0.29688 0 0.59375 0.03125 0.89062 0.125s0.57812 0.23438 0.84375 0.42188l0.125-0.8125c-0.29688-0.125-0.59375-0.21875-0.92188-0.28125-0.3125-0.0625-0.625-0.078125-0.9375-0.078125-0.89062 0-1.6875 0.39062-2.2812 1.0469-0.60938 0.6875-0.9375 1.5938-0.9375 2.5312 0 0.92188 0.32812 1.8281 0.9375 2.5156 0.59375 0.64062 1.3906 1.0469 2.2812 1.0469 0.34375 0 0.6875-0.015625 1.0312-0.10938s0.64062-0.26562 0.95312-0.45312z"/>
</symbol>
<symbol id="a" overflow="visible">
<path d="m1.5625 0v-6.9219h-0.75v6.9219z"/>
</symbol>
</defs>
<path transform="matrix(1,0,0,-1,1.085,27.844)" d="m9.375e-4 2.5e-4 12.422-7.1719" fill="none" stroke="#000" stroke-linecap="round" stroke-miterlimit="10" stroke-width=".59758"/>
<path transform="matrix(1,0,0,-1,1.085,27.844)" d="m2.4892 1.4378 9.9336-5.7344" fill="none" stroke="#000" stroke-linecap="round" stroke-miterlimit="10" stroke-width=".59758"/>
<path transform="matrix(1,0,0,-1,1.085,27.844)" d="m12.423-7.1716 12.418 7.1719" fill="none" stroke="#000" stroke-linecap="round" stroke-miterlimit="10" stroke-width=".59758"/>
<g>
<use x="38.348" y="41" xlink:href="#b"/>
<use x="44.713105" y="41" xlink:href="#a"/>
</g>
<path transform="matrix(1,0,0,-1,1.085,27.844)" d="m24.841 2.5e-4 11.043-6.375" fill="none" stroke="#000" stroke-linecap="round" stroke-miterlimit="10" stroke-width=".59758"/>
<path transform="matrix(1,0,0,-1,1.085,27.844)" d="m24.841 2.5e-4v14.344" fill="none" stroke="#000" stroke-linecap="round" stroke-miterlimit="10" stroke-width=".59758"/>
<path transform="matrix(1,0,0,-1,1.085,27.844)" d="m22.352 1.4378v11.469" fill="none" stroke="#000" stroke-linecap="round" stroke-miterlimit="10" stroke-width=".59758"/>
<g>
<use x="38.348" y="7.265" xlink:href="#b"/>
<use x="44.713105" y="7.265" xlink:href="#a"/>
</g>
<path transform="matrix(1,0,0,-1,1.085,27.844)" d="m24.841 14.344 11.043 6.375" fill="none" stroke="#000" stroke-linecap="round" stroke-miterlimit="10" stroke-width=".59758"/>
<path transform="matrix(1,0,0,-1,1.085,27.844)" d="m24.841 14.344-12.418 7.1719" fill="none" stroke="#000" stroke-linecap="round" stroke-miterlimit="10" stroke-width=".59758"/>
<path transform="matrix(1,0,0,-1,1.085,27.844)" d="m12.423 21.516-12.422-7.1719" fill="none" stroke="#000" stroke-linecap="round" stroke-miterlimit="10" stroke-width=".59758"/>
<path transform="matrix(1,0,0,-1,1.085,27.844)" d="m12.423 18.641-9.9336-5.7344" fill="none" stroke="#000" stroke-linecap="round" stroke-miterlimit="10" stroke-width=".59758"/>
<path transform="matrix(1,0,0,-1,1.085,27.844)" d="m9.375e-4 14.344v-14.344" fill="none" stroke="#000" stroke-linecap="round" stroke-miterlimit="10" stroke-width=".59758"/>
<path transform="matrix(1 0 0 -1 .786 27.844)" d="m58.206 7.1721h26.02" fill="none" stroke="#000" stroke-miterlimit="10" stroke-width=".3985"/>
<path transform="matrix(-1 0 0 1 61.701 20.673)" d="m4.4432-6.95e-4 -3.2812 1.3164 1.6484-1.3164-1.6484-1.3164z" stroke="#000" stroke-linejoin="round" stroke-miterlimit="10" stroke-width=".3985"/>
<path transform="matrix(1 0 0 -1 82.301 20.673)" d="m4.445 6.95e-4 -3.2852 1.3164 1.6484-1.3164-1.6484-1.3164z" stroke="#000" stroke-linejoin="round" stroke-miterlimit="10" stroke-width=".3985"/>
<path transform="matrix(1,0,0,-1,97.205,27.844)" d="m-0.001875 2.5e-4 12.422-7.1719" fill="none" stroke="#000" stroke-linecap="round" stroke-miterlimit="10" stroke-width=".59758"/>
<path transform="matrix(1,0,0,-1,97.205,27.844)" d="m12.42-7.1716 12.422 7.1719" fill="none" stroke="#000" stroke-linecap="round" stroke-miterlimit="10" stroke-width=".59758"/>
<path transform="matrix(1,0,0,-1,97.205,27.844)" d="m12.42-4.2966 9.9336 5.7344" fill="none" stroke="#000" stroke-linecap="round" stroke-miterlimit="10" stroke-width=".59758"/>
<g>
<use x="134.469" y="41" xlink:href="#b"/>
<use x="140.834105" y="41" xlink:href="#a"/>
</g>
<path transform="matrix(1,0,0,-1,97.205,27.844)" d="m24.842 2.5e-4 11.043-6.375" fill="none" stroke="#000" stroke-linecap="round" stroke-miterlimit="10" stroke-width=".59758"/>
<path transform="matrix(1,0,0,-1,97.205,27.844)" d="m24.842 2.5e-4v14.344" fill="none" stroke="#000" stroke-linecap="round" stroke-miterlimit="10" stroke-width=".59758"/>
<g>
<use x="134.469" y="7.265" xlink:href="#b"/>
<use x="140.834105" y="7.265" xlink:href="#a"/>
</g>
<path transform="matrix(1,0,0,-1,97.205,27.844)" d="m24.842 14.344 11.043 6.375" fill="none" stroke="#000" stroke-linecap="round" stroke-miterlimit="10" stroke-width=".59758"/>
<path transform="matrix(1,0,0,-1,97.205,27.844)" d="m24.842 14.344-12.422 7.1719" fill="none" stroke="#000" stroke-linecap="round" stroke-miterlimit="10" stroke-width=".59758"/>
<path transform="matrix(1,0,0,-1,97.205,27.844)" d="m22.354 12.906-9.9336 5.7344" fill="none" stroke="#000" stroke-linecap="round" stroke-miterlimit="10" stroke-width=".59758"/>
<path transform="matrix(1,0,0,-1,97.205,27.844)" d="m12.42 21.516-12.422-7.1719" fill="none" stroke="#000" stroke-linecap="round" stroke-miterlimit="10" stroke-width=".59758"/>
<path transform="matrix(1,0,0,-1,97.205,27.844)" d="m-0.001875 14.344v-14.344" fill="none" stroke="#000" stroke-linecap="round" stroke-miterlimit="10" stroke-width=".59758"/>
<path transform="matrix(1,0,0,-1,97.205,27.844)" d="m2.4903 12.906v-11.469" fill="none" stroke="#000" stroke-linecap="round" stroke-miterlimit="10" stroke-width=".59758"/>
</svg>
