<?xml version="1.0" encoding="UTF-8"?>
<svg width="146pt" height="30pt" version="1.1" viewBox="0 0 146 30" xmlns="http://www.w3.org/2000/svg" xmlns:xlink="http://www.w3.org/1999/xlink">
<defs>
<symbol id="d" overflow="visible">
<path d="m5.8594-0.45312-0.0625-0.6875c-0.29688 0.20312-0.57812 0.39062-0.92188 0.5-0.3125 0.10938-0.67188 0.10938-1 0.10938-0.65625 0-1.25-0.34375-1.6562-0.85938-0.45312-0.57812-0.67188-1.3281-0.67188-2.0625 0-0.75 0.21875-1.5 0.67188-2.0938 0.40625-0.5 1-0.85938 1.6562-0.85938 0.29688 0 0.59375 0.03125 0.89062 0.125s0.57812 0.23438 0.84375 0.42188l0.125-0.8125c-0.29688-0.125-0.59375-0.21875-0.92188-0.28125-0.3125-0.0625-0.625-0.078125-0.9375-0.078125-0.89062 0-1.6875 0.39062-2.2812 1.0469-0.60938 0.6875-0.9375 1.5938-0.9375 2.5312 0 0.92188 0.32812 1.8281 0.9375 2.5156 0.59375 0.64062 1.3906 1.0469 2.2812 1.0469 0.34375 0 0.6875-0.015625 1.0312-0.10938s0.64062-0.26562 0.95312-0.45312z"/>
</symbol>
<symbol id="b" overflow="visible">
<path d="m4.5625-3.25c0-0.78125-0.046875-1.7188-0.46875-2.5156-0.40625-0.75-1.0938-1-1.5938-1-0.59375 0-1.2969 0.28125-1.7031 1.1562-0.32812 0.73438-0.375 1.5625-0.375 2.3594 0 0.78125 0.03125 1.5156 0.32812 2.25 0.40625 0.95312 1.1562 1.2188 1.7344 1.2188 0.71875 0 1.3594-0.40625 1.6719-1.0938 0.29688-0.65625 0.40625-1.3125 0.40625-2.375zm-0.78125-0.125c0 0.65625 0 1.2969-0.1875 1.9219-0.25 0.90625-0.78125 1.0625-1.0938 1.0625-0.53125 0-0.9375-0.375-1.1406-1.0938-0.15625-0.5625-0.15625-1.1094-0.15625-1.8906 0-0.625 0-1.2188 0.15625-1.7656 0.0625-0.1875 0.3125-1.0156 1.125-1.0156 0.78125 0 1.0312 0.76562 1.1094 0.9375 0.1875 0.5625 0.1875 1.2344 0.1875 1.8438z"/>
</symbol>
<symbol id="a" overflow="visible">
<path d="m6.7656-3.4375c0-2.0938-1.4375-3.7031-3.0938-3.7031-1.7031 0-3.1094 1.625-3.1094 3.7031 0 2.1094 1.4688 3.6562 3.0938 3.6562 1.6719 0 3.1094-1.5625 3.1094-3.6562zm-0.89062-0.15625c0 1.9531-1.0625 3.1719-2.2031 3.1719-1.1719 0-2.2188-1.25-2.2188-3.1719 0-1.8125 1.0938-2.9062 2.2031-2.9062 1.1562 0 2.2188 1.125 2.2188 2.9062z"/>
</symbol>
<symbol id="c" overflow="visible">
<path d="m4.4688 0v-0.70312h-1.8125-0.35938-1.0781c0.3125-0.28125 1.0781-1.0156 1.3906-1.3125 0.1875-0.17188 0.6875-0.59375 0.875-0.78125 0.45312-0.4375 0.98438-0.96875 0.98438-1.8125 0-1.1562-0.79688-2.1562-2.1094-2.1562-1.1406 0-1.7031 0.78125-1.9375 1.6406 0.10938 0.17188 0.17188 0.23438 0.1875 0.26562 0.015625 0.015625 0.125 0.14062 0.21875 0.28125 0.20312-0.76562 0.48438-1.5469 1.3906-1.5469 0.9375 0 1.4375 0.75 1.4375 1.5312 0 0.84375-0.5625 1.4062-1.1562 2.0156l-0.76562 0.70312-1.2344 1.2344v0.64062z"/>
</symbol>
<symbol id="f" overflow="visible">
<path d="m7.1875-2.5c0-0.1875-0.1875-0.1875-0.32812-0.1875h-2.7812v-2.7969c0-0.14062 0-0.32812-0.20312-0.32812s-0.20312 0.1875-0.20312 0.32812v2.7969h-2.7812c-0.14062 0-0.32812 0-0.32812 0.1875 0 0.20312 0.1875 0.20312 0.32812 0.20312h2.7812v2.7969c0 0.14062 0 0.32812 0.20312 0.32812s0.20312-0.1875 0.20312-0.32812v-2.7969h2.7812c0.14062 0 0.32812 0 0.32812-0.20312z"/>
</symbol>
<symbol id="e" overflow="visible">
<path d="m6.9219-2.5c0-0.1875-0.1875-0.1875-0.32812-0.1875h-5.4375c-0.14062 0-0.32812 0-0.32812 0.1875 0 0.20312 0.1875 0.20312 0.32812 0.20312h5.4375c0.14062 0 0.32812 0 0.32812-0.20312z"/>
</symbol>
</defs>
<g>
<use x="21.782" y="25.771" xlink:href="#d"/>
</g>
<g fill="#dc3445">
<use x="22.474" y="8.095" xlink:href="#b"/>
</g>
<g>
<use x="42.49" y="25.771" xlink:href="#a"/>
</g>
<path transform="matrix(1,0,0,-1,46.156,15.863)" d="m0.85181-2.8125e-4c0-0.35547 0.28906-0.64453 0.64453-0.64453 0.35156 0 0.64062 0.28906 0.64062 0.64453 0 0.35547-0.28906 0.64453-0.64062 0.64453-0.35547 0-0.64453-0.28906-0.64453-0.64453zm-2.9883 0c0-0.35547 0.28516-0.64453 0.64062-0.64453 0.35547 0 0.64453 0.28906 0.64453 0.64453 0 0.35547-0.28906 0.64453-0.64453 0.64453-0.35547 0-0.64062-0.28906-0.64062-0.64453z" stroke="#000" stroke-miterlimit="10" stroke-width=".3985"/>
<path transform="matrix(1,0,0,-1,46.156,28.76)" d="m-0.85131-0.0017188c0 0.35547-0.28906 0.64453-0.64453 0.64453-0.35547 0-0.64062-0.28906-0.64062-0.64453 0-0.35547 0.28516-0.64063 0.64062-0.64063 0.35547 0 0.64453 0.28516 0.64453 0.64063zm2.9883 0c0 0.35547-0.28906 0.64453-0.64062 0.64453-0.35547 0-0.64453-0.28906-0.64453-0.64453 0-0.35547 0.28906-0.64063 0.64453-0.64063 0.35156 0 0.64062 0.28516 0.64062 0.64063z" stroke="#000" stroke-miterlimit="10" stroke-width=".3985"/>
<path transform="matrix(1,0,0,-1,24.964,25.771)" d="m4.7782 4.7046h11.152" fill="none" stroke="#000" stroke-linecap="round" stroke-miterlimit="10" stroke-width=".59758"/>
<path transform="matrix(1,0,0,-1,24.964,25.771)" d="m4.7782 2.2124h11.152" fill="none" stroke="#000" stroke-linecap="round" stroke-miterlimit="10" stroke-width=".59758"/>
<g fill="#dc3445">
<use x="43.666" y="8.095" xlink:href="#b"/>
</g>
<g>
<use x="0.105" y="25.771" xlink:href="#a"/>
</g>
<path transform="matrix(1,0,0,-1,3.772,15.863)" d="m0.84909-2.8125e-4c0-0.35547 0.28906-0.64453 0.64453-0.64453s0.64453 0.28906 0.64453 0.64453c0 0.35547-0.28906 0.64453-0.64453 0.64453s-0.64453-0.28906-0.64453-0.64453zm-2.9883 0c0-0.35547 0.28906-0.64453 0.64453-0.64453s0.64453 0.28906 0.64453 0.64453c0 0.35547-0.28906 0.64453-0.64453 0.64453s-0.64453-0.28906-0.64453-0.64453z" stroke="#000" stroke-miterlimit="10" stroke-width=".3985"/>
<path transform="matrix(1,0,0,-1,3.772,28.76)" d="m-0.85012-0.0017188c0 0.35547-0.28906 0.64453-0.64453 0.64453s-0.64453-0.28906-0.64453-0.64453c0-0.35547 0.28906-0.64063 0.64453-0.64063s0.64453 0.28516 0.64453 0.64063zm2.9883 0c0 0.35547-0.28906 0.64453-0.64453 0.64453s-0.64453-0.28906-0.64453-0.64453c0-0.35547 0.28906-0.64063 0.64453-0.64063s0.64453 0.28516 0.64453 0.64063z" stroke="#000" stroke-miterlimit="10" stroke-width=".3985"/>
<path transform="matrix(1,0,0,-1,24.964,25.771)" d="m-4.7765 2.2124h-11.156" fill="none" stroke="#000" stroke-linecap="round" stroke-miterlimit="10" stroke-width=".59758"/>
<path transform="matrix(1,0,0,-1,24.964,25.771)" d="m-4.7765 4.7046h-11.156" fill="none" stroke="#000" stroke-linecap="round" stroke-miterlimit="10" stroke-width=".59758"/>
<g fill="#dc3445">
<use x="1.281" y="8.095" xlink:href="#b"/>
</g>
<g>
<use x="114.67" y="25.771" xlink:href="#a"/>
</g>
<g fill="#dc3445">
<use x="111.972" y="7.268" xlink:href="#f"/>
<use x="119.721" y="7.268" xlink:href="#c"/>
</g>
<g>
<use x="136.347" y="25.771" xlink:href="#d"/>
</g>
<path transform="matrix(1 0 0 -1 139.53 15.863)" d="m0.84991-2.8125e-4c0-0.35547 0.28906-0.64453 0.64453-0.64453 0.35547 0 0.64453 0.28906 0.64453 0.64453 0 0.35547-0.28906 0.64453-0.64453 0.64453-0.35547 0-0.64453-0.28906-0.64453-0.64453zm-2.9883 0c0-0.35547 0.28906-0.64453 0.64453-0.64453 0.35547 0 0.64453 0.28906 0.64453 0.64453 0 0.35547-0.28906 0.64453-0.64453 0.64453-0.35547 0-0.64453-0.28906-0.64453-0.64453z" stroke="#000" stroke-miterlimit="10" stroke-width=".3985"/>
<path transform="matrix(1 0 0 -1 139.53 28.76)" d="m-0.84931-0.0017188c0 0.35547-0.28906 0.64453-0.64453 0.64453-0.35547 0-0.64453-0.28906-0.64453-0.64453 0-0.35547 0.28906-0.64063 0.64453-0.64063 0.35547 0 0.64453 0.28516 0.64453 0.64063zm2.9883 0c0 0.35547-0.28906 0.64453-0.64453 0.64453-0.35547 0-0.64453-0.28906-0.64453-0.64453 0-0.35547 0.28906-0.64063 0.64453-0.64063 0.35547 0 0.64453 0.28516 0.64453 0.64063z" stroke="#000" stroke-miterlimit="10" stroke-width=".3985"/>
<path transform="matrix(1 0 0 -1 118.34 25.771)" d="m5.2607 4.7046h11.156" fill="none" stroke="#000" stroke-linecap="round" stroke-miterlimit="10" stroke-width=".59758"/>
<path transform="matrix(1 0 0 -1 118.34 25.771)" d="m5.2607 2.2124h11.156" fill="none" stroke="#000" stroke-linecap="round" stroke-miterlimit="10" stroke-width=".59758"/>
<g fill="#dc3445">
<use x="133.164" y="7.265" xlink:href="#e"/>
<use x="140.913" y="7.265" xlink:href="#c"/>
</g>
<g>
<use x="92.994" y="25.771" xlink:href="#a"/>
</g>
<path transform="matrix(1,0,0,-1,96.661,15.863)" d="m0.85072-2.8125e-4c0-0.35547 0.28906-0.64453 0.64453-0.64453s0.64062 0.28906 0.64062 0.64453c0 0.35547-0.28516 0.64453-0.64062 0.64453s-0.64453-0.28906-0.64453-0.64453zm-2.9883 0c0-0.35547 0.28906-0.64453 0.64453-0.64453s0.64062 0.28906 0.64062 0.64453c0 0.35547-0.28516 0.64453-0.64062 0.64453s-0.64453-0.28906-0.64453-0.64453z" stroke="#000" stroke-miterlimit="10" stroke-width=".3985"/>
<path transform="matrix(1,0,0,-1,96.661,28.76)" d="m-0.85241-0.0017188c0 0.35547-0.28516 0.64453-0.64062 0.64453s-0.64453-0.28906-0.64453-0.64453c0-0.35547 0.28906-0.64063 0.64453-0.64063s0.64062 0.28516 0.64062 0.64063zm2.9883 0c0 0.35547-0.28516 0.64453-0.64062 0.64453s-0.64453-0.28906-0.64453-0.64453c0-0.35547 0.28906-0.64063 0.64453-0.64063s0.64062 0.28516 0.64062 0.64063z" stroke="#000" stroke-miterlimit="10" stroke-width=".3985"/>
<path transform="matrix(1 0 0 -1 118.34 25.771)" d="m-5.2589 2.2124h-11.156" fill="none" stroke="#000" stroke-linecap="round" stroke-miterlimit="10" stroke-width=".59758"/>
<path transform="matrix(1 0 0 -1 118.34 25.771)" d="m-5.2589 4.7046h-11.156" fill="none" stroke="#000" stroke-linecap="round" stroke-miterlimit="10" stroke-width=".59758"/>
<g fill="#dc3445">
<use x="94.17" y="8.095" xlink:href="#b"/>
</g>
</svg>
