<?xml version="1.0" encoding="UTF-8"?>
<svg width="98pt" height="50pt" version="1.1" viewBox="0 0 98 50" xmlns="http://www.w3.org/2000/svg" xmlns:xlink="http://www.w3.org/1999/xlink">
<defs>
<symbol id="b" overflow="visible">
<path d="m5.8594-0.45312-0.0625-0.6875c-0.29688 0.20312-0.57812 0.39062-0.92188 0.5-0.3125 0.10938-0.67188 0.10938-1 0.10938-0.65625 0-1.25-0.34375-1.6562-0.85938-0.45312-0.57812-0.67188-1.3281-0.67188-2.0625 0-0.75 0.21875-1.5 0.67188-2.0938 0.40625-0.5 1-0.85938 1.6562-0.85938 0.29688 0 0.59375 0.03125 0.89062 0.125s0.57812 0.23438 0.84375 0.42188l0.125-0.8125c-0.29688-0.125-0.59375-0.21875-0.92188-0.28125-0.3125-0.0625-0.625-0.078125-0.9375-0.078125-0.89062 0-1.6875 0.39062-2.2812 1.0469-0.60938 0.6875-0.9375 1.5938-0.9375 2.5312 0 0.92188 0.32812 1.8281 0.9375 2.5156 0.59375 0.64062 1.3906 1.0469 2.2812 1.0469 0.34375 0 0.6875-0.015625 1.0312-0.10938s0.64062-0.26562 0.95312-0.45312z"/>
</symbol>
<symbol id="a" overflow="visible">
<path d="m6.1094 0v-6.9219h-0.89062v3.0312h-3.3906v-3.0312h-0.89062v6.9219h0.89062v-3.2969h3.3906v3.2969z"/>
</symbol>
</defs>
<g>
<use x="4.402" y="28.526" xlink:href="#b"/>
</g>
<path transform="matrix(1,0,0,-1,1.413,25.067)" d="m0.64169 5.9375e-4c0 0.35547-0.28516 0.64453-0.64062 0.64453s-0.64453-0.28906-0.64453-0.64453c0-0.35547 0.28906-0.64453 0.64453-0.64453s0.64062 0.28906 0.64062 0.64453z" stroke="#000" stroke-miterlimit="10" stroke-width=".3985"/>
<g>
<use x="4.056" y="7.265" xlink:href="#a"/>
</g>
<path transform="matrix(1,0,0,-1,7.584,28.526)" d="m0.0019375 8.5143v11.152" fill="none" stroke="#000" stroke-linecap="round" stroke-miterlimit="10" stroke-width=".59758"/>
<g>
<use x="4.056" y="49.788" xlink:href="#a"/>
</g>
<path transform="matrix(1,0,0,-1,7.584,28.526)" d="m0.0019375-1.5951v-11.152" fill="none" stroke="#000" stroke-linecap="round" stroke-miterlimit="10" stroke-width=".59758"/>
<g>
<use x="25.11" y="28.526" xlink:href="#b"/>
</g>
<path transform="matrix(1,0,0,-1,7.584,28.526)" d="m4.7754 3.4596h11.156" fill="none" stroke="#000" stroke-linecap="round" stroke-miterlimit="10" stroke-width=".59758"/>
<g>
<use x="24.764" y="7.265" xlink:href="#a"/>
</g>
<path transform="matrix(1,0,0,-1,7.584,28.526)" d="m20.709 8.5143v11.152" fill="none" stroke="#000" stroke-linecap="round" stroke-miterlimit="10" stroke-width=".59758"/>
<g>
<use x="24.764" y="49.788" xlink:href="#a"/>
</g>
<path transform="matrix(1,0,0,-1,7.584,28.526)" d="m20.709-1.5951v-11.152" fill="none" stroke="#000" stroke-linecap="round" stroke-miterlimit="10" stroke-width=".59758"/>
<g>
<use x="45.817" y="28.526" xlink:href="#b"/>
</g>
<path transform="matrix(1,0,0,-1,7.584,28.526)" d="m25.486 3.4596h11.152" fill="none" stroke="#000" stroke-linecap="round" stroke-miterlimit="10" stroke-width=".59758"/>
<g>
<use x="45.472" y="7.265" xlink:href="#a"/>
</g>
<path transform="matrix(1,0,0,-1,7.584,28.526)" d="m41.416 8.5143v11.152" fill="none" stroke="#000" stroke-linecap="round" stroke-miterlimit="10" stroke-width=".59758"/>
<g>
<use x="45.472" y="49.788" xlink:href="#a"/>
</g>
<path transform="matrix(1,0,0,-1,7.584,28.526)" d="m41.416-1.5951v-11.152" fill="none" stroke="#000" stroke-linecap="round" stroke-miterlimit="10" stroke-width=".59758"/>
<g>
<use x="66.525" y="28.526" xlink:href="#b"/>
</g>
<path transform="matrix(1,0,0,-1,7.584,28.526)" d="m46.193 3.4596h11.156" fill="none" stroke="#000" stroke-linecap="round" stroke-miterlimit="10" stroke-width=".59758"/>
<g>
<use x="66.18" y="7.265" xlink:href="#a"/>
</g>
<path transform="matrix(1,0,0,-1,7.584,28.526)" d="m62.123 8.5143v11.152" fill="none" stroke="#000" stroke-linecap="round" stroke-miterlimit="10" stroke-width=".59758"/>
<g>
<use x="66.18" y="49.788" xlink:href="#a"/>
</g>
<path transform="matrix(1,0,0,-1,7.584,28.526)" d="m62.123-1.5951v-11.152" fill="none" stroke="#000" stroke-linecap="round" stroke-miterlimit="10" stroke-width=".59758"/>
<g>
<use x="87.233" y="28.526" xlink:href="#b"/>
</g>
<path transform="matrix(1,0,0,-1,96.587,25.067)" d="m0.64347 5.9375e-4c0 0.35547-0.28906 0.64453-0.64453 0.64453s-0.64063-0.28906-0.64063-0.64453c0-0.35547 0.28516-0.64453 0.64063-0.64453s0.64453 0.28906 0.64453 0.64453z" stroke="#000" stroke-miterlimit="10" stroke-width=".3985"/>
<path transform="matrix(1,0,0,-1,7.584,28.526)" d="m66.9 3.4596h11.156" fill="none" stroke="#000" stroke-linecap="round" stroke-miterlimit="10" stroke-width=".59758"/>
<g>
<use x="86.887" y="7.265" xlink:href="#a"/>
</g>
<path transform="matrix(1,0,0,-1,7.584,28.526)" d="m82.834 8.5143v11.152" fill="none" stroke="#000" stroke-linecap="round" stroke-miterlimit="10" stroke-width=".59758"/>
<g>
<use x="86.887" y="49.788" xlink:href="#a"/>
</g>
<path transform="matrix(1,0,0,-1,7.584,28.526)" d="m82.834-1.5951v-11.152" fill="none" stroke="#000" stroke-linecap="round" stroke-miterlimit="10" stroke-width=".59758"/>
</svg>
