<?xml version="1.0" encoding="UTF-8"?>
<svg width="196pt" height="28pt" version="1.1" viewBox="0 0 196 28" xmlns="http://www.w3.org/2000/svg" xmlns:xlink="http://www.w3.org/1999/xlink">
<defs>
<symbol id="f" overflow="visible">
<path d="m5.1094 23.516v-0.54688h-2.0625v-22.812h2.0625v-0.5625h-2.6094v23.922z"/>
</symbol>
<symbol id="e" overflow="visible">
<path d="m2.7656 23.516v-23.922h-2.625v0.5625h2.0781v22.812h-2.0781v0.54688z"/>
</symbol>
<symbol id="d" overflow="visible">
<path d="m5.8594-0.45312-0.0625-0.6875c-0.29688 0.20312-0.57812 0.39062-0.92188 0.5-0.3125 0.10938-0.67188 0.10938-1 0.10938-0.65625 0-1.25-0.34375-1.6562-0.85938-0.45312-0.57812-0.67188-1.3281-0.67188-2.0625 0-0.75 0.21875-1.5 0.67188-2.0938 0.40625-0.5 1-0.85938 1.6562-0.85938 0.29688 0 0.59375 0.03125 0.89062 0.125s0.57812 0.23438 0.84375 0.42188l0.125-0.8125c-0.29688-0.125-0.59375-0.21875-0.92188-0.28125-0.3125-0.0625-0.625-0.078125-0.9375-0.078125-0.89062 0-1.6875 0.39062-2.2812 1.0469-0.60938 0.6875-0.9375 1.5938-0.9375 2.5312 0 0.92188 0.32812 1.8281 0.9375 2.5156 0.59375 0.64062 1.3906 1.0469 2.2812 1.0469 0.34375 0 0.6875-0.015625 1.0312-0.10938s0.64062-0.26562 0.95312-0.45312z"/>
</symbol>
<symbol id="c" overflow="visible">
<path d="m1.5625 0v-6.9219h-0.75v6.9219z"/>
</symbol>
<symbol id="a" overflow="visible">
<path d="m6.7656-3.4375c0-2.0938-1.4375-3.7031-3.0938-3.7031-1.7031 0-3.1094 1.625-3.1094 3.7031 0 2.1094 1.4688 3.6562 3.0938 3.6562 1.6719 0 3.1094-1.5625 3.1094-3.6562zm-0.89062-0.15625c0 1.9531-1.0625 3.1719-2.2031 3.1719-1.1719 0-2.2188-1.25-2.2188-3.1719 0-1.8125 1.0938-2.9062 2.2031-2.9062 1.1562 0 2.2188 1.125 2.2188 2.9062z"/>
</symbol>
<symbol id="b" overflow="visible">
<path d="m5.4688-1.7344c0-0.1875-0.17188-0.1875-0.26562-0.1875h-4.1875c-0.10938 0-0.26562 0-0.26562 0.1875 0 0.15625 0.17188 0.15625 0.26562 0.15625h4.1875c0.09375 0 0.26562 0 0.26562-0.15625z"/>
</symbol>
</defs>
<g>
<use x="-2.435" y="2.599" xlink:href="#f"/>
<use x="27.094" y="11.709" xlink:href="#d"/>
<use x="33.459105" y="11.709" xlink:href="#c"/>
</g>
<path transform="matrix(1,0,0,-1,37.124,2.592)" d="m0.60256-0.60331c-0.25391-0.25-0.25391-0.65625 0-0.91016 0.25-0.25 0.65625-0.25 0.91016 0 0.25 0.25391 0.25 0.66016 0 0.91016-0.25391 0.25391-0.66016 0.25391-0.91016 0zm-2.1133 2.1133c-0.25391-0.25-0.25391-0.65625 0-0.90625 0.25-0.25391 0.65625-0.25391 0.91016 0 0.25 0.25 0.25 0.65625 0 0.90625-0.25391 0.25391-0.66016 0.25391-0.91016 0z" stroke="#000" stroke-miterlimit="10" stroke-width=".3985"/>
<path transform="matrix(1,0,0,-1,25.809,2.592)" d="m0.60116 0.60372c0.25-0.25391 0.66016-0.25391 0.91016 0 0.25 0.25 0.25 0.65625 0 0.90625-0.25 0.25391-0.66016 0.25391-0.91016 0-0.25-0.25-0.25-0.65625 0-0.90625zm-2.1133-2.1172c0.25-0.25 0.66016-0.25 0.91016 0 0.25 0.25391 0.25 0.66016 0 0.91016-0.25 0.25391-0.66016 0.25391-0.91016 0-0.25-0.25-0.25-0.65625 0-0.91016z" stroke="#000" stroke-miterlimit="10" stroke-width=".3985"/>
<g>
<use x="48.261" y="23.522" xlink:href="#a"/>
</g>
<path transform="matrix(1,0,0,-1,55.286,14.246)" d="m0.73744-0.42588c-0.17969-0.30859-0.074218-0.69922 0.23438-0.87891 0.30859-0.17578 0.70312-0.070313 0.87891 0.23438 0.17969 0.30859 0.074218 0.70312-0.23438 0.87891-0.30859 0.17969-0.70312 0.074219-0.87891-0.23438zm-2.5898 1.4961c-0.17578-0.30859-0.070313-0.70312 0.23828-0.87891 0.30469-0.17969 0.69922-0.074218 0.87891 0.23438 0.17578 0.30859 0.070313 0.69922-0.23828 0.87891-0.30859 0.17578-0.69922 0.070312-0.87891-0.23438z" stroke="#000" stroke-miterlimit="10" stroke-width=".3985"/>
<path transform="matrix(1,0,0,-1,57.951,23.541)" d="m-0.42366-0.73634c-0.30859 0.17578-0.70312 0.070313-0.87891-0.23438-0.17969-0.30859-0.074218-0.70312 0.23438-0.87891 0.30859-0.17969 0.69922-0.074219 0.87891 0.23438 0.17578 0.30859 0.070312 0.69922-0.23438 0.87891zm1.4922 2.5859c-0.30859 0.17969-0.69922 0.074218-0.87891-0.23438-0.17578-0.30859-0.070313-0.69922 0.23438-0.87891 0.30859-0.17578 0.70312-0.070312 0.87891 0.23438 0.17969 0.30859 0.074219 0.70312-0.23438 0.87891z" stroke="#000" stroke-miterlimit="10" stroke-width=".3985"/>
<path transform="matrix(1,0,0,-1,48.569,25.879)" d="m-0.73697 0.42588c0.17578 0.30859 0.070313 0.69922-0.23438 0.87891-0.30859 0.17578-0.70312 0.070313-0.87891-0.23438-0.17969-0.30859-0.074219-0.70312 0.23438-0.87891 0.30859-0.17969 0.70312-0.074219 0.87891 0.23438zm2.5898-1.4961c0.17578 0.30859 0.070312 0.70312-0.23828 0.87891-0.30469 0.17969-0.69922 0.074219-0.87891-0.23438-0.17578-0.30859-0.070312-0.69922 0.23828-0.87891 0.30469-0.17578 0.69922-0.070312 0.87891 0.23438z" stroke="#000" stroke-miterlimit="10" stroke-width=".3985"/>
<path transform="matrix(1,0,0,-1,31.467,11.709)" d="m5.7518 0.13869 9.6641-5.5781" fill="none" stroke="#000" stroke-linecap="round" stroke-miterlimit="10" stroke-width=".59758"/>
<g>
<use x="7.34" y="23.522" xlink:href="#a"/>
</g>
<path transform="matrix(1,0,0,-1,11.006,26.511)" d="m-0.84975-7.1875e-4c0 0.35547-0.28906 0.64453-0.64453 0.64453-0.35547 0-0.64453-0.28906-0.64453-0.64453 0-0.35547 0.28906-0.64453 0.64453-0.64453 0.35547 0 0.64453 0.28906 0.64453 0.64453zm2.9883 0c0 0.35547-0.28906 0.64453-0.64453 0.64453s-0.64453-0.28906-0.64453-0.64453c0-0.35547 0.28906-0.64453 0.64453-0.64453s0.64453 0.28906 0.64453 0.64453z" stroke="#000" stroke-miterlimit="10" stroke-width=".3985"/>
<path transform="matrix(1,0,0,-1,4.982,16.585)" d="m0.42425 0.73734c0.30859-0.17969 0.70312-0.074219 0.87891 0.23438 0.17969 0.30859 0.074219 0.70312-0.23438 0.87891-0.30859 0.17969-0.69922 0.074219-0.87891-0.23438-0.17578-0.30859-0.070313-0.70312 0.23438-0.87891zm-1.4922-2.5898c0.30859-0.17578 0.69922-0.070313 0.87891 0.23828 0.17578 0.30469 0.070312 0.69922-0.23828 0.87891-0.30469 0.17578-0.69922 0.070313-0.87891-0.23828-0.17578-0.30469-0.070312-0.69922 0.23828-0.87891z" stroke="#000" stroke-miterlimit="10" stroke-width=".3985"/>
<path transform="matrix(1,0,0,-1,31.467,11.709)" d="m-5.1311-0.93944-9.6602-5.5781" fill="none" stroke="#000" stroke-linecap="round" stroke-miterlimit="10" stroke-width=".59758"/>
<path transform="matrix(1,0,0,-1,31.467,11.709)" d="m-6.3732 1.2168-9.6641-5.5781" fill="none" stroke="#000" stroke-linecap="round" stroke-miterlimit="10" stroke-width=".59758"/>
<g>
<use x="60.111" y="2.599" xlink:href="#e"/>
<use x="65.369" y="4.664" xlink:href="#b"/>
</g>
<path transform="matrix(1,0,0,-1,-2.435,11.709)" d="m86.427-1.5215h26.02" fill="none" stroke="#000" stroke-miterlimit="10" stroke-width=".3985"/>
<path transform="matrix(-1 0 0 1 86.701 13.229)" d="m4.4433 0.0012688-3.2812 1.3125 1.6484-1.3125-1.6484-1.3164z" stroke="#000" stroke-linejoin="round" stroke-miterlimit="10" stroke-width=".3985"/>
<path transform="matrix(1 0 0 -1 107.3 13.229)" d="m4.4449-0.0012688-3.2812 1.3164 1.6445-1.3164-1.6445-1.3125z" stroke="#000" stroke-linejoin="round" stroke-miterlimit="10" stroke-width=".3985"/>
<g>
<use x="121.907" y="2.599" xlink:href="#f"/>
<use x="151.436" y="11.709" xlink:href="#d"/>
<use x="157.801105" y="11.709" xlink:href="#c"/>
</g>
<path transform="matrix(1 0 0 -1 161.47 2.592)" d="m0.60041-0.60331c-0.25-0.25-0.25-0.65625 0-0.91016 0.25391-0.25 0.66016-0.25 0.91016 0 0.25391 0.25391 0.25391 0.66016 0 0.91016-0.25 0.25391-0.65625 0.25391-0.91016 0zm-2.1133 2.1133c-0.25-0.25-0.25-0.65625 0-0.90625 0.25391-0.25391 0.66016-0.25391 0.91016 0 0.25391 0.25 0.25391 0.65625 0 0.90625-0.25 0.25391-0.65625 0.25391-0.91016 0z" stroke="#000" stroke-miterlimit="10" stroke-width=".3985"/>
<path transform="matrix(1 0 0 -1 150.15 2.592)" d="m0.60291 0.60372c0.25-0.25391 0.65625-0.25391 0.91016 0 0.25 0.25 0.25 0.65625 0 0.90625-0.25391 0.25391-0.66016 0.25391-0.91016 0-0.25391-0.25-0.25391-0.65625 0-0.90625zm-2.1133-2.1172c0.25-0.25 0.65625-0.25 0.91016 0 0.25 0.25391 0.25 0.66016 0 0.91016-0.25391 0.25391-0.66016 0.25391-0.91016 0-0.25391-0.25-0.25391-0.65625 0-0.91016z" stroke="#000" stroke-miterlimit="10" stroke-width=".3985"/>
<g>
<use x="172.602" y="23.522" xlink:href="#a"/>
</g>
<path transform="matrix(1 0 0 -1 176.27 26.511)" d="m-0.85103-7.1875e-4c0 0.35547-0.28906 0.64453-0.64453 0.64453-0.35547 0-0.64062-0.28906-0.64062-0.64453 0-0.35547 0.28516-0.64453 0.64062-0.64453 0.35547 0 0.64453 0.28906 0.64453 0.64453zm2.9883 0c0 0.35547-0.28906 0.64453-0.64453 0.64453-0.35547 0-0.64062-0.28906-0.64062-0.64453 0-0.35547 0.28516-0.64453 0.64062-0.64453 0.35547 0 0.64453 0.28906 0.64453 0.64453z" stroke="#000" stroke-miterlimit="10" stroke-width=".3985"/>
<path transform="matrix(1 0 0 -1 182.29 16.585)" d="m0.42575-0.73531c-0.30859-0.17969-0.41406-0.57422-0.23438-0.87891 0.17578-0.30859 0.57031-0.41406 0.87891-0.23828 0.30469 0.17969 0.41016 0.57422 0.23438 0.87891-0.17969 0.30859-0.57031 0.41406-0.87891 0.23828zm-1.4961 2.5859c-0.30469-0.17578-0.41016-0.57031-0.23438-0.87891 0.17969-0.30859 0.57031-0.41406 0.87891-0.23438 0.30859 0.17578 0.41406 0.57031 0.23438 0.87891-0.17578 0.30859-0.57031 0.41406-0.87891 0.23438z" stroke="#000" stroke-miterlimit="10" stroke-width=".3985"/>
<path transform="matrix(1 0 0 -1 155.81 11.709)" d="m6.3756 1.2168 9.6602-5.5781" fill="none" stroke="#000" stroke-linecap="round" stroke-miterlimit="10" stroke-width=".59758"/>
<path transform="matrix(1 0 0 -1 155.81 11.709)" d="m5.1295-0.93944 9.6602-5.5781" fill="none" stroke="#000" stroke-linecap="round" stroke-miterlimit="10" stroke-width=".59758"/>
<g>
<use x="131.681" y="23.522" xlink:href="#a"/>
</g>
<path transform="matrix(1 0 0 -1 135.35 26.511)" d="m-0.85191-7.1875e-4c0 0.35547-0.28906 0.64453-0.64062 0.64453-0.35547 0-0.64453-0.28906-0.64453-0.64453 0-0.35547 0.28906-0.64453 0.64453-0.64453 0.35156 0 0.64062 0.28906 0.64062 0.64453zm2.9883 0c0 0.35547-0.28516 0.64453-0.64062 0.64453s-0.64453-0.28906-0.64453-0.64453c0-0.35547 0.28906-0.64453 0.64453-0.64453s0.64062 0.28906 0.64062 0.64453z" stroke="#000" stroke-miterlimit="10" stroke-width=".3985"/>
<path transform="matrix(1 0 0 -1 129.32 16.585)" d="m0.426 0.73734c0.30859-0.17969 0.69922-0.074219 0.87891 0.23438 0.17578 0.30859 0.070313 0.70312-0.23438 0.87891-0.30859 0.17969-0.70312 0.074219-0.87891-0.23438-0.17969-0.30859-0.074219-0.70312 0.23438-0.87891zm-1.4961-2.5898c0.30859-0.17578 0.70312-0.070313 0.87891 0.23828 0.17969 0.30469 0.074218 0.69922-0.23438 0.87891-0.30859 0.17578-0.69922 0.070313-0.87891-0.23828-0.17578-0.30469-0.070312-0.69922 0.23438-0.87891z" stroke="#000" stroke-miterlimit="10" stroke-width=".3985"/>
<path transform="matrix(1 0 0 -1 155.81 11.709)" d="m-5.1283-0.93944-9.6641-5.5781" fill="none" stroke="#000" stroke-linecap="round" stroke-miterlimit="10" stroke-width=".59758"/>
<path transform="matrix(1 0 0 -1 155.81 11.709)" d="m-6.3744 1.2168-9.6641-5.5781" fill="none" stroke="#000" stroke-linecap="round" stroke-miterlimit="10" stroke-width=".59758"/>
<g>
<use x="184.452" y="2.599" xlink:href="#e"/>
<use x="189.71" y="4.664" xlink:href="#b"/>
</g>
</svg>
