<?xml version="1.0" encoding="UTF-8"?>
<svg width="214pt" height="16pt" version="1.1" viewBox="0 0 214 16" xmlns="http://www.w3.org/2000/svg" xmlns:xlink="http://www.w3.org/1999/xlink">
<defs>
<symbol id="c" overflow="visible">
<path d="m6.0938 0v-6.9219h-0.78125v6.2188h-0.015625l-0.65625-1.375-2.4531-4.8438h-1.2344v6.9219h0.78125v-6.2031h0.015625l0.65625 1.3594 2.4531 4.8438z"/>
</symbol>
<symbol id="b" overflow="visible">
<path d="m5.8594-0.45312-0.0625-0.6875c-0.29688 0.20312-0.57812 0.39062-0.92188 0.5-0.3125 0.10938-0.67188 0.10938-1 0.10938-0.65625 0-1.25-0.34375-1.6562-0.85938-0.45312-0.57812-0.67188-1.3281-0.67188-2.0625 0-0.75 0.21875-1.5 0.67188-2.0938 0.40625-0.5 1-0.85938 1.6562-0.85938 0.29688 0 0.59375 0.03125 0.89062 0.125s0.57812 0.23438 0.84375 0.42188l0.125-0.8125c-0.29688-0.125-0.59375-0.21875-0.92188-0.28125-0.3125-0.0625-0.625-0.078125-0.9375-0.078125-0.89062 0-1.6875 0.39062-2.2812 1.0469-0.60938 0.6875-0.9375 1.5938-0.9375 2.5312 0 0.92188 0.32812 1.8281 0.9375 2.5156 0.59375 0.64062 1.3906 1.0469 2.2812 1.0469 0.34375 0 0.6875-0.015625 1.0312-0.10938s0.64062-0.26562 0.95312-0.45312z"/>
</symbol>
<symbol id="a" overflow="visible">
<path d="m4.9688-1.8906c0-0.64062-0.29688-1.125-0.51562-1.3594-0.46875-0.5-0.79688-0.59375-1.7188-0.8125-0.57812-0.14062-0.73438-0.1875-1.0469-0.4375-0.0625-0.0625-0.34375-0.35938-0.34375-0.79688 0-0.57812 0.54688-1.1875 1.4531-1.1875 0.84375 0 1.3125 0.32812 1.6875 0.64062l0.15625-0.79688c-0.54688-0.32812-1.1094-0.5-1.8281-0.5-1.3906 0-2.25 0.98438-2.25 1.9688 0 0.42188 0.14062 0.84375 0.53125 1.2656 0.42188 0.45312 0.85938 0.5625 1.4531 0.70312 0.84375 0.21875 0.9375 0.25 1.2188 0.48438 0.20312 0.17188 0.42188 0.5 0.42188 0.9375 0 0.65625-0.54688 1.3125-1.4531 1.3125-0.40625 0-1.3125-0.09375-2.1406-0.8125l-0.15625 0.8125c0.875 0.54688 1.6719 0.6875 2.2969 0.6875 1.3281 0 2.2344-1 2.2344-2.1094z"/>
</symbol>
</defs>
<g>
<use x="2.328" y="11.436" xlink:href="#c"/>
</g>
<path transform="matrix(1,0,0,-1,2.499,2.16)" d="m0.73538 0.42562c0.17969-0.30859 0.57422-0.41406 0.87891-0.23438 0.30859 0.17578 0.41406 0.57031 0.23828 0.87891-0.17969 0.30469-0.57422 0.41016-0.87891 0.23438-0.30859-0.17969-0.41406-0.57031-0.23828-0.87891zm-2.5859-1.4961c0.17578-0.30469 0.57031-0.41016 0.87891-0.23438 0.30859 0.17969 0.41406 0.57031 0.23438 0.87891-0.17578 0.30859-0.57031 0.41406-0.87891 0.23438-0.30859-0.17578-0.41406-0.57031-0.23438-0.87891z" stroke="#000" stroke-miterlimit="10" stroke-width=".3985"/>
<path transform="matrix(1,0,0,-1,2.499,13.794)" d="m-0.73728 0.42681c0.17969 0.30469 0.074218 0.69922-0.23438 0.87891-0.30859 0.17578-0.70312 0.070312-0.87891-0.23828-0.17969-0.30469-0.074218-0.69922 0.23438-0.87891 0.30859-0.17578 0.70312-0.070312 0.87891 0.23828zm2.5898-1.4961c0.17578 0.30859 0.070313 0.70312-0.23828 0.87891-0.30469 0.17969-0.69922 0.074219-0.87891-0.23438-0.17578-0.30859-0.070313-0.70312 0.23828-0.87891 0.30469-0.17969 0.69922-0.074219 0.87891 0.23438z" stroke="#000" stroke-miterlimit="10" stroke-width=".3985"/>
<g>
<use x="23.728" y="11.436" xlink:href="#b"/>
</g>
<path transform="matrix(1,0,0,-1,5.857,11.436)" d="m5.1235 4.7055h11.152" fill="none" stroke="#000" stroke-linecap="round" stroke-miterlimit="10" stroke-width=".59758"/>
<path transform="matrix(1,0,0,-1,5.857,11.436)" d="m5.1235 2.2133h11.152" fill="none" stroke="#000" stroke-linecap="round" stroke-miterlimit="10" stroke-width=".59758"/>
<g>
<use x="44.436" y="11.436" xlink:href="#a"/>
</g>
<path transform="matrix(1,0,0,-1,50.561,2.16)" d="m0.73588-0.42594c-0.17578-0.30859-0.070313-0.69922 0.23828-0.87891 0.30469-0.17578 0.69922-0.070312 0.87891 0.23438 0.17578 0.30859 0.070313 0.70312-0.23828 0.87891-0.30469 0.17969-0.69922 0.074218-0.87891-0.23438zm-2.5859 1.4961c-0.17969-0.30859-0.074218-0.70312 0.23438-0.87891 0.30859-0.17969 0.69922-0.074219 0.87891 0.23438 0.17578 0.30859 0.070312 0.69922-0.23438 0.87891-0.30859 0.17578-0.70312 0.070313-0.87891-0.23438z" stroke="#000" stroke-miterlimit="10" stroke-width=".3985"/>
<path transform="matrix(1,0,0,-1,50.561,13.794)" d="m-0.73678-0.42475c-0.17969 0.30859-0.57031 0.41406-0.87891 0.23438-0.30859-0.17578-0.41406-0.57031-0.23438-0.87891 0.17578-0.30859 0.57031-0.41406 0.87891-0.23438 0.30469 0.17578 0.41016 0.57031 0.23438 0.87891zm2.5898 1.4922c-0.17969 0.30859-0.57422 0.41406-0.87891 0.23828-0.30859-0.17969-0.41406-0.57422-0.23828-0.87891 0.17969-0.30859 0.57422-0.41406 0.87891-0.23828 0.30859 0.17969 0.41406 0.57422 0.23828 0.87891z" stroke="#000" stroke-miterlimit="10" stroke-width=".3985"/>
<path transform="matrix(1,0,0,-1,5.857,11.436)" d="m25.83 4.7055h11.156" fill="none" stroke="#000" stroke-linecap="round" stroke-miterlimit="10" stroke-width=".59758"/>
<path transform="matrix(1,0,0,-1,5.857,11.436)" d="m25.83 2.2133h11.156" fill="none" stroke="#000" stroke-linecap="round" stroke-miterlimit="10" stroke-width=".59758"/>
<g>
<use x="83.179" y="11.436" xlink:href="#b"/>
</g>
<path transform="matrix(1,0,0,-1,83.004,2.16)" d="m0.73819 0.42562c0.17578-0.30859 0.57031-0.41406 0.87891-0.23438 0.30469 0.17578 0.41016 0.57031 0.23438 0.87891-0.17969 0.30469-0.57031 0.41016-0.87891 0.23438-0.30859-0.17969-0.41406-0.57031-0.23438-0.87891zm-2.5898-1.4961c0.17969-0.30469 0.57031-0.41016 0.87891-0.23438 0.30859 0.17969 0.41406 0.57031 0.23438 0.87891-0.17578 0.30859-0.57031 0.41406-0.87891 0.23438-0.30469-0.17578-0.41016-0.57031-0.23438-0.87891z" stroke="#000" stroke-miterlimit="10" stroke-width=".3985"/>
<path transform="matrix(1,0,0,-1,83.004,13.793)" d="m-0.73838 0.42581c0.17969 0.30859 0.074219 0.69922-0.23438 0.87891-0.30859 0.17578-0.69922 0.070312-0.87891-0.23438-0.17578-0.30859-0.070313-0.70312 0.23438-0.87891 0.30859-0.17969 0.70312-0.074219 0.87891 0.23438zm2.5898-1.4961c0.17578 0.30859 0.070312 0.70312-0.23438 0.87891-0.30859 0.17969-0.70312 0.074219-0.87891-0.23438-0.17969-0.30859-0.074218-0.69922 0.23438-0.87891 0.30859-0.17578 0.69922-0.070313 0.87891 0.23438z" stroke="#000" stroke-miterlimit="10" stroke-width=".3985"/>
<g>
<use x="103.887" y="11.436" xlink:href="#c"/>
</g>
<path transform="matrix(1,0,0,-1,86.362,11.436)" d="m4.7747 4.7055h11.156" fill="none" stroke="#000" stroke-linecap="round" stroke-miterlimit="10" stroke-width=".59758"/>
<path transform="matrix(1,0,0,-1,86.362,11.436)" d="m4.7747 2.2133h11.156" fill="none" stroke="#000" stroke-linecap="round" stroke-miterlimit="10" stroke-width=".59758"/>
<g>
<use x="125.286" y="11.436" xlink:href="#a"/>
</g>
<path transform="matrix(1 0 0 -1 131.41 2.16)" d="m0.73644-0.42594c-0.17578-0.30859-0.070312-0.69922 0.23438-0.87891 0.30859-0.17578 0.70312-0.070312 0.87891 0.23438 0.17969 0.30859 0.074218 0.70312-0.23438 0.87891-0.30859 0.17969-0.69922 0.074218-0.87891-0.23438zm-2.5859 1.4961c-0.17969-0.30859-0.074219-0.70312 0.23438-0.87891 0.30859-0.17969 0.69922-0.074219 0.87891 0.23438 0.17578 0.30859 0.070313 0.69922-0.23438 0.87891-0.30859 0.17578-0.70312 0.070313-0.87891-0.23438z" stroke="#000" stroke-miterlimit="10" stroke-width=".3985"/>
<path transform="matrix(1 0 0 -1 131.41 13.793)" d="m-0.73622-0.42575c-0.17969 0.30859-0.57031 0.41406-0.87891 0.23438-0.30859-0.17578-0.41406-0.57031-0.23438-0.87891 0.17578-0.30469 0.57031-0.41016 0.87891-0.23438 0.30469 0.17969 0.41016 0.57031 0.23438 0.87891zm2.5859 1.4961c-0.17578 0.30469-0.57031 0.41016-0.87891 0.23438-0.30469-0.17969-0.41016-0.57031-0.23438-0.87891 0.17969-0.30859 0.57031-0.41406 0.87891-0.23438 0.30859 0.17578 0.41406 0.57031 0.23438 0.87891z" stroke="#000" stroke-miterlimit="10" stroke-width=".3985"/>
<path transform="matrix(1,0,0,-1,86.362,11.436)" d="m26.177 4.7055h11.152" fill="none" stroke="#000" stroke-linecap="round" stroke-miterlimit="10" stroke-width=".59758"/>
<path transform="matrix(1,0,0,-1,86.362,11.436)" d="m26.177 2.2133h11.152" fill="none" stroke="#000" stroke-linecap="round" stroke-miterlimit="10" stroke-width=".59758"/>
<g>
<use x="164.03" y="11.436" xlink:href="#b"/>
</g>
<path transform="matrix(1 0 0 -1 163.85 2.16)" d="m0.73584 0.42562c0.17969-0.30859 0.57422-0.41406 0.87891-0.23438 0.30859 0.17578 0.41406 0.57031 0.23828 0.87891-0.17969 0.30469-0.57422 0.41016-0.87891 0.23438-0.30859-0.17969-0.41406-0.57031-0.23828-0.87891zm-2.5859-1.4961c0.17578-0.30469 0.57031-0.41016 0.87891-0.23438 0.30469 0.17969 0.41016 0.57031 0.23438 0.87891-0.17969 0.30859-0.57031 0.41406-0.87891 0.23438-0.30859-0.17578-0.41406-0.57031-0.23438-0.87891z" stroke="#000" stroke-miterlimit="10" stroke-width=".3985"/>
<path transform="matrix(1 0 0 -1 163.85 13.793)" d="m-0.73681 0.42581c0.17578 0.30859 0.070313 0.69922-0.23438 0.87891-0.30859 0.17578-0.70312 0.070312-0.87891-0.23438-0.17969-0.30859-0.074219-0.70312 0.23438-0.87891 0.30859-0.17969 0.69922-0.074219 0.87891 0.23438zm2.5898-1.4961c0.17578 0.30859 0.070313 0.70312-0.23828 0.87891-0.30469 0.17969-0.69922 0.074219-0.87891-0.23438-0.17578-0.30859-0.070313-0.69922 0.23828-0.87891 0.30469-0.17578 0.69922-0.070313 0.87891 0.23438z" stroke="#000" stroke-miterlimit="10" stroke-width=".3985"/>
<g>
<use x="184.738" y="11.436" xlink:href="#a"/>
</g>
<path transform="matrix(1 0 0 -1 167.21 11.436)" d="m4.7763 4.7055h11.156" fill="none" stroke="#000" stroke-linecap="round" stroke-miterlimit="10" stroke-width=".59758"/>
<path transform="matrix(1 0 0 -1 167.21 11.436)" d="m4.7763 2.2133h11.156" fill="none" stroke="#000" stroke-linecap="round" stroke-miterlimit="10" stroke-width=".59758"/>
<g>
<use x="204.615" y="11.436" xlink:href="#c"/>
</g>
<path transform="matrix(1 0 0 -1 211.5 2.16)" d="m0.73728-0.42594c-0.17969-0.30859-0.074219-0.69922 0.23438-0.87891 0.30859-0.17578 0.70312-0.070312 0.87891 0.23438 0.17969 0.30859 0.074219 0.70312-0.23438 0.87891-0.30859 0.17969-0.70312 0.074218-0.87891-0.23438zm-2.5898 1.4961c-0.17578-0.30859-0.070312-0.70312 0.23828-0.87891 0.30469-0.17969 0.69922-0.074219 0.87891 0.23438 0.17578 0.30859 0.070312 0.69922-0.23828 0.87891-0.30469 0.17578-0.69922 0.070313-0.87891-0.23438z" stroke="#000" stroke-miterlimit="10" stroke-width=".3985"/>
<path transform="matrix(1 0 0 -1 211.5 13.793)" d="m-0.73538-0.42575c-0.17969 0.30859-0.57422 0.41406-0.87891 0.23438-0.30859-0.17578-0.41406-0.57031-0.23828-0.87891 0.17969-0.30469 0.57422-0.41016 0.87891-0.23438 0.30859 0.17969 0.41406 0.57031 0.23828 0.87891zm2.5859 1.4961c-0.17578 0.30469-0.57031 0.41016-0.87891 0.23438-0.30859-0.17969-0.41406-0.57031-0.23438-0.87891 0.17578-0.30859 0.57031-0.41406 0.87891-0.23438 0.30859 0.17578 0.41406 0.57031 0.23438 0.87891z" stroke="#000" stroke-miterlimit="10" stroke-width=".3985"/>
<path transform="matrix(1 0 0 -1 167.21 11.436)" d="m24.655 4.7055h11.152" fill="none" stroke="#000" stroke-linecap="round" stroke-miterlimit="10" stroke-width=".59758"/>
<path transform="matrix(1 0 0 -1 167.21 11.436)" d="m24.655 2.2133h11.152" fill="none" stroke="#000" stroke-linecap="round" stroke-miterlimit="10" stroke-width=".59758"/>
</svg>
