<?xml version="1.0" encoding="UTF-8"?>
<svg width="54pt" height="35pt" version="1.1" viewBox="0 0 54 35" xmlns="http://www.w3.org/2000/svg" xmlns:xlink="http://www.w3.org/1999/xlink">
<defs>
<symbol id="b" overflow="visible">
<path d="m4.9688-1.8906c0-0.64062-0.29688-1.125-0.51562-1.3594-0.46875-0.5-0.79688-0.59375-1.7188-0.8125-0.57812-0.14062-0.73438-0.1875-1.0469-0.4375-0.0625-0.0625-0.34375-0.35938-0.34375-0.79688 0-0.57812 0.54688-1.1875 1.4531-1.1875 0.84375 0 1.3125 0.32812 1.6875 0.64062l0.15625-0.79688c-0.54688-0.32812-1.1094-0.5-1.8281-0.5-1.3906 0-2.25 0.98438-2.25 1.9688 0 0.42188 0.14062 0.84375 0.53125 1.2656 0.42188 0.45312 0.85938 0.5625 1.4531 0.70312 0.84375 0.21875 0.9375 0.25 1.2188 0.48438 0.20312 0.17188 0.42188 0.5 0.42188 0.9375 0 0.65625-0.54688 1.3125-1.4531 1.3125-0.40625 0-1.3125-0.09375-2.1406-0.8125l-0.15625 0.8125c0.875 0.54688 1.6719 0.6875 2.2969 0.6875 1.3281 0 2.2344-1 2.2344-2.1094z"/>
</symbol>
<symbol id="a" overflow="visible">
<path d="m5.25-6.2344v-0.65625h-4.3125v6.8906h0.89062v-3.1406h3v-0.60938h-3v-2.5h1.2969c0.125 0 0.25 0.015625 0.35938 0.015625z"/>
</symbol>
</defs>
<g>
<use x="24.233" y="11.309" xlink:href="#b"/>
<path transform="matrix(1,0,0,-1,27,1.402)" d="m0.85156-3.4375e-4c0-0.35547 0.28906-0.64453 0.64453-0.64453 0.35547 0 0.64062 0.28906 0.64062 0.64453 0 0.35547-0.28516 0.64453-0.64062 0.64453-0.35547 0-0.64453-0.28906-0.64453-0.64453zm-2.9883 0c0-0.35547 0.28516-0.64453 0.64062-0.64453 0.35547 0 0.64453 0.28906 0.64453 0.64453 0 0.35547-0.28906 0.64453-0.64453 0.64453-0.35547 0-0.64062-0.28906-0.64062-0.64453z" stroke="#000" stroke-miterlimit="10" stroke-width=".3985"/>
<use x="44.11" y="11.309" xlink:href="#a"/>
<path transform="matrix(1,0,0,-1,52.772,7.85)" d="m0.0014375-0.84922c-0.35547 0-0.64453-0.28906-0.64453-0.64453s0.28906-0.64453 0.64453-0.64453 0.64062 0.28906 0.64062 0.64453-0.28516 0.64453-0.64062 0.64453zm0 2.9883c-0.35547 0-0.64453-0.28906-0.64453-0.64453s0.28906-0.64453 0.64453-0.64453 0.64062 0.28906 0.64062 0.64453-0.28516 0.64453-0.64062 0.64453z" stroke="#000" stroke-miterlimit="10" stroke-width=".3985"/>
<path transform="matrix(1,0,0,-1,46.947,1.402)" d="m0.84988-3.4375e-4c0-0.35547 0.28906-0.64453 0.64453-0.64453s0.64453 0.28906 0.64453 0.64453c0 0.35547-0.28906 0.64453-0.64453 0.64453s-0.64453-0.28906-0.64453-0.64453zm-2.9883 0c0-0.35547 0.28906-0.64453 0.64453-0.64453s0.64453 0.28906 0.64453 0.64453c0 0.35547-0.28906 0.64453-0.64453 0.64453s-0.64453-0.28906-0.64453-0.64453z" stroke="#000" stroke-miterlimit="10" stroke-width=".3985"/>
<path transform="matrix(1,0,0,-1,46.947,14.298)" d="m-0.84934 0.001125c0 0.35547-0.28906 0.64062-0.64453 0.64062s-0.64453-0.28516-0.64453-0.64062 0.28906-0.64453 0.64453-0.64453 0.64453 0.28906 0.64453 0.64453zm2.9883 0c0 0.35547-0.28906 0.64062-0.64453 0.64062s-0.64453-0.28516-0.64453-0.64062 0.28906-0.64453 0.64453-0.64453 0.64453 0.28906 0.64453 0.64453z" stroke="#000" stroke-miterlimit="10" stroke-width=".3985"/>
<path d="m35.527 7.8516c0-0.45312-0.36719-0.82031-0.82031-0.82031s-0.81641 0.36719-0.81641 0.82031c0 0.44922 0.36328 0.81641 0.81641 0.81641s0.82031-0.36719 0.82031-0.81641z"/>
<path d="m39.988 7.8516c0-0.45312-0.36719-0.82031-0.82031-0.82031-0.44922 0-0.81641 0.36719-0.81641 0.82031 0 0.44922 0.36719 0.81641 0.81641 0.81641 0.45312 0 0.82031-0.36719 0.82031-0.81641z"/>
<use x="4.217" y="11.309" xlink:href="#a"/>
<path transform="matrix(1,0,0,-1,1.228,7.85)" d="m-0.0014375 0.85c0.35547 0 0.64453 0.28906 0.64453 0.64453s-0.28906 0.64453-0.64453 0.64453-0.64063-0.28906-0.64063-0.64453 0.28516-0.64453 0.64063-0.64453zm0-2.9883c0.35547 0 0.64453 0.28906 0.64453 0.64453s-0.28906 0.64453-0.64453 0.64453-0.64063-0.28906-0.64063-0.64453 0.28516-0.64453 0.64063-0.64453z" stroke="#000" stroke-miterlimit="10" stroke-width=".3985"/>
<path transform="matrix(1,0,0,-1,7.053,1.402)" d="m0.84934-3.4375e-4c0-0.35547 0.28906-0.64453 0.64453-0.64453s0.64453 0.28906 0.64453 0.64453c0 0.35547-0.28906 0.64453-0.64453 0.64453s-0.64453-0.28906-0.64453-0.64453zm-2.9883 0c0-0.35547 0.28906-0.64453 0.64453-0.64453 0.35547 0 0.64453 0.28906 0.64453 0.64453 0 0.35547-0.28906 0.64453-0.64453 0.64453-0.35547 0-0.64453-0.28906-0.64453-0.64453z" stroke="#000" stroke-miterlimit="10" stroke-width=".3985"/>
<path transform="matrix(1,0,0,-1,7.053,14.298)" d="m-0.84988 0.001125c0 0.35547-0.28906 0.64062-0.64453 0.64062-0.35547 0-0.64453-0.28516-0.64453-0.64062s0.28906-0.64453 0.64453-0.64453c0.35547 0 0.64453 0.28906 0.64453 0.64453zm2.9883 0c0 0.35547-0.28906 0.64062-0.64453 0.64062s-0.64453-0.28516-0.64453-0.64062 0.28906-0.64453 0.64453-0.64453 0.64453 0.28906 0.64453 0.64453z" stroke="#000" stroke-miterlimit="10" stroke-width=".3985"/>
<path d="m20.109 7.8516c0-0.45312-0.36328-0.82031-0.81641-0.82031s-0.82031 0.36719-0.82031 0.82031c0 0.44922 0.36719 0.81641 0.82031 0.81641s0.81641-0.36719 0.81641-0.81641z"/>
<path d="m15.648 7.8516c0-0.45312-0.36719-0.82031-0.81641-0.82031-0.45312 0-0.82031 0.36719-0.82031 0.82031 0 0.44922 0.36719 0.81641 0.82031 0.81641 0.44922 0 0.81641-0.36719 0.81641-0.81641z"/>
<use x="35.329" y="30.649" xlink:href="#a"/>
<path transform="matrix(1,0,0,-1,41.524,33.006)" d="m-0.73884-0.42369c-0.17578 0.30469-0.57031 0.41016-0.87891 0.23438-0.30469-0.17969-0.41016-0.57031-0.23438-0.87891 0.17969-0.30859 0.57031-0.41406 0.87891-0.23438 0.30859 0.17578 0.41406 0.57031 0.23438 0.87891zm2.5898 1.4922c-0.17578 0.30859-0.57031 0.41406-0.87891 0.23438-0.30859-0.17578-0.41406-0.57031-0.23438-0.87891 0.17578-0.30469 0.57031-0.41016 0.87891-0.23438 0.30859 0.17969 0.41406 0.57031 0.23438 0.87891z" stroke="#000" stroke-miterlimit="10" stroke-width=".3985"/>
<path transform="matrix(1,0,0,-1,43.36,24.191)" d="m0.42516-0.73869c-0.30859-0.17578-0.41406-0.57031-0.23438-0.87891 0.17578-0.30469 0.57031-0.41016 0.87891-0.23438 0.30859 0.17969 0.41406 0.57031 0.23438 0.87891-0.17578 0.30859-0.57031 0.41406-0.87891 0.23438zm-1.4922 2.5898c-0.30859-0.17578-0.41406-0.57031-0.23828-0.87891 0.17969-0.30859 0.57031-0.41406 0.87891-0.23438 0.30859 0.17578 0.41406 0.57031 0.23828 0.87891-0.17969 0.30859-0.57422 0.41406-0.87891 0.23438z" stroke="#000" stroke-miterlimit="10" stroke-width=".3985"/>
<path transform="matrix(1,0,0,-1,32.972,30.188)" d="m-0.42512 0.73878c0.30859 0.17578 0.41406 0.57031 0.23438 0.87891-0.17578 0.30469-0.57031 0.41016-0.87891 0.23438-0.30859-0.17969-0.41406-0.57031-0.23438-0.87891 0.17578-0.30859 0.57031-0.41406 0.87891-0.23438zm1.4922-2.5898c0.30859 0.17578 0.41406 0.57031 0.23828 0.87891-0.17969 0.30859-0.57031 0.41406-0.87891 0.23438-0.30859-0.17578-0.41406-0.57031-0.23828-0.87891 0.17969-0.30859 0.57422-0.41406 0.87891-0.23438z" stroke="#000" stroke-miterlimit="10" stroke-width=".3985"/>
<path d="m32.285 15.586c0-0.44922-0.36719-0.81641-0.81641-0.81641-0.45312 0-0.82031 0.36719-0.82031 0.81641 0 0.45312 0.36719 0.82031 0.82031 0.82031 0.44922 0 0.81641-0.36719 0.81641-0.82031z"/>
<path d="m34.516 19.453c0-0.45312-0.36328-0.82031-0.81641-0.82031s-0.82031 0.36719-0.82031 0.82031c0 0.44922 0.36719 0.81641 0.82031 0.81641s0.81641-0.36719 0.81641-0.81641z"/>
<use x="12.997" y="30.649" xlink:href="#a"/>
<path transform="matrix(1,0,0,-1,12.476,33.006)" d="m-0.73772 0.42397c0.17969 0.30859 0.074219 0.70312-0.23438 0.87891-0.30859 0.17969-0.70312 0.074219-0.87891-0.23438-0.17969-0.30859-0.074219-0.69922 0.23438-0.87891 0.30859-0.17578 0.70312-0.070313 0.87891 0.23438zm2.5898-1.4922c0.17578 0.30859 0.070313 0.69922-0.23438 0.87891-0.30859 0.17578-0.70312 0.070313-0.87891-0.23438-0.17969-0.30859-0.074219-0.70312 0.23438-0.87891 0.30859-0.17969 0.69922-0.074219 0.87891 0.23438z" stroke="#000" stroke-miterlimit="10" stroke-width=".3985"/>
<path transform="matrix(1,0,0,-1,10.64,24.191)" d="m0.42641 0.73788c0.30859-0.17969 0.69922-0.074219 0.87891 0.23438 0.17578 0.30859 0.070313 0.70312-0.23828 0.87891-0.30469 0.17969-0.69922 0.074219-0.87891-0.23438-0.17578-0.30859-0.070313-0.70312 0.23828-0.87891zm-1.4961-2.5898c0.30859-0.17578 0.70312-0.070312 0.87891 0.23438 0.17969 0.30859 0.074218 0.70312-0.23438 0.87891-0.30859 0.17969-0.70312 0.074219-0.87891-0.23438-0.17969-0.30859-0.074218-0.69922 0.23438-0.87891z" stroke="#000" stroke-miterlimit="10" stroke-width=".3985"/>
<path transform="matrix(1,0,0,-1,21.028,30.188)" d="m-0.42644-0.73778c-0.30859 0.17969-0.69922 0.074218-0.87891-0.23438-0.17578-0.30859-0.070312-0.70312 0.23828-0.87891 0.30469-0.17969 0.69922-0.074218 0.87891 0.23438 0.17578 0.30859 0.070312 0.70312-0.23828 0.87891zm1.4961 2.5898c-0.30859 0.17578-0.70312 0.070313-0.87891-0.23438-0.17969-0.30859-0.074219-0.70312 0.23438-0.87891 0.30859-0.17969 0.70312-0.074219 0.87891 0.23438 0.17969 0.30859 0.074219 0.69922-0.23438 0.87891z" stroke="#000" stroke-miterlimit="10" stroke-width=".3985"/>
<path d="m23.352 15.586c0-0.44922-0.36719-0.81641-0.82031-0.81641-0.44922 0-0.81641 0.36719-0.81641 0.81641 0 0.45312 0.36719 0.82031 0.81641 0.82031 0.45312 0 0.82031-0.36719 0.82031-0.82031z"/>
<path d="m21.121 19.453c0-0.45312-0.36719-0.82031-0.82031-0.82031s-0.81641 0.36719-0.81641 0.82031c0 0.44922 0.36328 0.81641 0.81641 0.81641s0.82031-0.36719 0.82031-0.81641z"/>
</g>
</svg>
