<?xml version="1.0" encoding="UTF-8"?>
<svg width="80pt" height="47pt" version="1.1" viewBox="0 0 80 47" xmlns="http://www.w3.org/2000/svg" xmlns:xlink="http://www.w3.org/1999/xlink">
<defs>
<symbol id="a" overflow="visible">
<path d="m6.1094 0v-6.9219h-0.89062v3.0312h-3.3906v-3.0312h-0.89062v6.9219h0.89062v-3.2969h3.3906v3.2969z"/>
</symbol>
<symbol id="c" overflow="visible">
<path d="m5.8594-0.45312-0.0625-0.6875c-0.29688 0.20312-0.57812 0.39062-0.92188 0.5-0.3125 0.10938-0.67188 0.10938-1 0.10938-0.65625 0-1.25-0.34375-1.6562-0.85938-0.45312-0.57812-0.67188-1.3281-0.67188-2.0625 0-0.75 0.21875-1.5 0.67188-2.0938 0.40625-0.5 1-0.85938 1.6562-0.85938 0.29688 0 0.59375 0.03125 0.89062 0.125s0.57812 0.23438 0.84375 0.42188l0.125-0.8125c-0.29688-0.125-0.59375-0.21875-0.92188-0.28125-0.3125-0.0625-0.625-0.078125-0.9375-0.078125-0.89062 0-1.6875 0.39062-2.2812 1.0469-0.60938 0.6875-0.9375 1.5938-0.9375 2.5312 0 0.92188 0.32812 1.8281 0.9375 2.5156 0.59375 0.64062 1.3906 1.0469 2.2812 1.0469 0.34375 0 0.6875-0.015625 1.0312-0.10938s0.64062-0.26562 0.95312-0.45312z"/>
</symbol>
<symbol id="b" overflow="visible">
<path d="m6.7656-3.4375c0-2.0938-1.4375-3.7031-3.0938-3.7031-1.7031 0-3.1094 1.625-3.1094 3.7031 0 2.1094 1.4688 3.6562 3.0938 3.6562 1.6719 0 3.1094-1.5625 3.1094-3.6562zm-0.89062-0.15625c0 1.9531-1.0625 3.1719-2.2031 3.1719-1.1719 0-2.2188-1.25-2.2188-3.1719 0-1.8125 1.0938-2.9062 2.2031-2.9062 1.1562 0 2.2188 1.125 2.2188 2.9062z"/>
</symbol>
</defs>
<g>
<use x="-0.761" y="26.605" xlink:href="#a"/>
<use x="20.638" y="26.605" xlink:href="#c"/>
<path d="m12.055 23.145c0-0.44922-0.36719-0.81641-0.82031-0.81641-0.44922 0-0.81641 0.36719-0.81641 0.81641 0 0.45312 0.36719 0.82031 0.81641 0.82031 0.45312 0 0.82031-0.36719 0.82031-0.82031z"/>
<path d="m16.516 23.145c0-0.44922-0.36719-0.81641-0.81641-0.81641-0.45312 0-0.82031 0.36719-0.82031 0.81641 0 0.45312 0.36719 0.82031 0.82031 0.82031 0.44922 0 0.81641-0.36719 0.81641-0.82031z"/>
<use x="9.127" y="7.265" xlink:href="#a"/>
<path d="m20.172 15.406c0-0.44922-0.36719-0.81641-0.81641-0.81641-0.45312 0-0.82031 0.36719-0.82031 0.81641 0 0.45312 0.36719 0.82031 0.82031 0.82031 0.44922 0 0.81641-0.36719 0.81641-0.82031z"/>
<path d="m17.941 11.543c0-0.45312-0.36719-0.81641-0.82031-0.81641-0.44922 0-0.81641 0.36328-0.81641 0.81641s0.36719 0.82031 0.81641 0.82031c0.45312 0 0.82031-0.36719 0.82031-0.82031z"/>
<use x="9.127" y="45.944" xlink:href="#a"/>
<path d="m20.172 30.883c0-0.45312-0.36719-0.81641-0.81641-0.81641-0.45312 0-0.82031 0.36328-0.82031 0.81641 0 0.45313 0.36719 0.82031 0.82031 0.82031 0.44922 0 0.81641-0.36719 0.81641-0.82031z"/>
<path d="m17.941 34.746c0-0.44922-0.36719-0.81641-0.82031-0.81641-0.44922 0-0.81641 0.36719-0.81641 0.81641 0 0.45312 0.36719 0.82031 0.81641 0.82031 0.45312 0 0.82031-0.36719 0.82031-0.82031z"/>
<use x="41.346" y="26.605" xlink:href="#c"/>
<path d="m32.762 23.145c0-0.44922-0.36719-0.81641-0.81641-0.81641-0.45312 0-0.82031 0.36719-0.82031 0.81641 0 0.45312 0.36719 0.82031 0.82031 0.82031 0.44922 0 0.81641-0.36719 0.81641-0.82031z"/>
<path d="m37.227 23.145c0-0.44922-0.36719-0.81641-0.82031-0.81641s-0.82031 0.36719-0.82031 0.81641c0 0.45312 0.36719 0.82031 0.82031 0.82031s0.82031-0.36719 0.82031-0.82031z"/>
<use x="52.028" y="7.265" xlink:href="#b"/>
<path d="m49.816 15.406c0-0.44922-0.36719-0.81641-0.82031-0.81641s-0.82031 0.36719-0.82031 0.81641c0 0.45312 0.36719 0.82031 0.82031 0.82031s0.82031-0.36719 0.82031-0.82031z"/>
<path d="m52.047 11.543c0-0.45312-0.36719-0.81641-0.82031-0.81641-0.45312 0-0.81641 0.36328-0.81641 0.81641s0.36328 0.82031 0.81641 0.82031c0.45313 0 0.82031-0.36719 0.82031-0.82031z"/>
<use x="52.028" y="45.945" xlink:href="#b"/>
<path d="m49.816 30.883c0-0.45312-0.36719-0.81641-0.82031-0.81641s-0.82031 0.36328-0.82031 0.81641c0 0.45313 0.36719 0.82031 0.82031 0.82031s0.82031-0.36719 0.82031-0.82031z"/>
<path d="m52.047 34.746c0-0.44922-0.36719-0.81641-0.82031-0.81641-0.45312 0-0.81641 0.36719-0.81641 0.81641 0 0.45312 0.36328 0.82031 0.81641 0.82031 0.45313 0 0.82031-0.36719 0.82031-0.82031z"/>
<use x="73.704" y="45.945" xlink:href="#a"/>
<path d="m65.121 42.484c0-0.44922-0.36719-0.81641-0.82031-0.81641-0.44922 0-0.81641 0.36719-0.81641 0.81641 0 0.45312 0.36719 0.82031 0.81641 0.82031 0.45312 0 0.82031-0.36719 0.82031-0.82031z"/>
<path d="m69.582 42.484c0-0.44922-0.36719-0.81641-0.81641-0.81641-0.45312 0-0.82031 0.36719-0.82031 0.81641 0 0.45312 0.36719 0.82031 0.82031 0.82031 0.44922 0 0.81641-0.36719 0.81641-0.82031z"/>
</g>
</svg>
