<?xml version="1.0" encoding="UTF-8"?>
<svg width="56pt" height="27pt" version="1.1" viewBox="0 0 56 27" xmlns="http://www.w3.org/2000/svg" xmlns:xlink="http://www.w3.org/1999/xlink">
<defs>
<symbol id="a" overflow="visible">
<path d="m6.7656-3.4375c0-2.0938-1.4375-3.7031-3.0938-3.7031-1.7031 0-3.1094 1.625-3.1094 3.7031 0 2.1094 1.4688 3.6562 3.0938 3.6562 1.6719 0 3.1094-1.5625 3.1094-3.6562zm-0.89062-0.15625c0 1.9531-1.0625 3.1719-2.2031 3.1719-1.1719 0-2.2188-1.25-2.2188-3.1719 0-1.8125 1.0938-2.9062 2.2031-2.9062 1.1562 0 2.2188 1.125 2.2188 2.9062z"/>
</symbol>
</defs>
<g>
<use x="4.579" y="22.671" xlink:href="#a"/>
</g>
<path transform="matrix(1,0,0,-1,8.245,25.659)" d="m-0.85047-0.0011562c0 0.35547-0.28906 0.64453-0.64453 0.64453s-0.64453-0.28906-0.64453-0.64453c0-0.35547 0.28906-0.64062 0.64453-0.64062s0.64453 0.28516 0.64453 0.64062zm2.9883 0c0 0.35547-0.28906 0.64453-0.64453 0.64453s-0.64062-0.28906-0.64062-0.64453c0-0.35547 0.28516-0.64062 0.64062-0.64062s0.64453 0.28516 0.64453 0.64062z" stroke="#000" stroke-miterlimit="10" stroke-width=".3985"/>
<path transform="matrix(1,0,0,-1,1.79,15.484)" d="m0.42484 0.73791c0.30859-0.17969 0.70312-0.074218 0.87891 0.23438 0.17969 0.30859 0.074219 0.70312-0.23438 0.87891-0.30859 0.17969-0.70312 0.074218-0.87891-0.23438-0.17969-0.30859-0.074219-0.70312 0.23438-0.87891zm-1.4922-2.5898c0.30469-0.17578 0.69922-0.070313 0.87891 0.23438 0.17578 0.30859 0.070313 0.70312-0.23828 0.87891-0.30469 0.17969-0.69922 0.074219-0.87891-0.23438-0.17578-0.30859-0.070313-0.69922 0.23828-0.87891z" stroke="#000" stroke-miterlimit="10" stroke-width=".3985"/>
<g>
<use x="24.333" y="11.265" xlink:href="#a"/>
</g>
<path transform="matrix(1,0,0,-1,28,1.358)" d="m0.85156-0.001375c0-0.35547 0.28906-0.64062 0.64453-0.64062 0.35547 0 0.64062 0.28516 0.64062 0.64062s-0.28516 0.64453-0.64062 0.64453c-0.35547 0-0.64453-0.28906-0.64453-0.64453zm-2.9883 0c0-0.35547 0.28516-0.64062 0.64062-0.64062s0.64453 0.28516 0.64453 0.64062-0.28906 0.64453-0.64453 0.64453-0.64062-0.28906-0.64062-0.64453z" stroke="#000" stroke-miterlimit="10" stroke-width=".3985"/>
<path transform="matrix(1,0,0,-1,8.245,22.671)" d="m4.423 7.4522 9.6641 5.5781" fill="none" stroke="#000" stroke-linecap="round" stroke-miterlimit="10" stroke-width=".59758"/>
<path transform="matrix(1,0,0,-1,8.245,22.671)" d="m5.6691 5.296 9.6602 5.5781" fill="none" stroke="#000" stroke-linecap="round" stroke-miterlimit="10" stroke-width=".59758"/>
<g>
<use x="44.088" y="22.671" xlink:href="#a"/>
</g>
<path transform="matrix(1,0,0,-1,51.113,13.395)" d="m0.73856-0.42531c-0.17969-0.30859-0.074218-0.70312 0.23438-0.87891 0.30859-0.17969 0.69922-0.074218 0.87891 0.23438 0.17578 0.30859 0.070312 0.70312-0.23438 0.87891-0.30859 0.17969-0.70312 0.074218-0.87891-0.23438zm-2.5898 1.4961c-0.17969-0.30859-0.074219-0.70312 0.23438-0.87891 0.30859-0.17969 0.70312-0.074219 0.87891 0.23438 0.17969 0.30859 0.074219 0.69922-0.23438 0.87891-0.30859 0.17578-0.70312 0.070313-0.87891-0.23438z" stroke="#000" stroke-miterlimit="10" stroke-width=".3985"/>
<path transform="matrix(1,0,0,-1,53.779,22.689)" d="m-0.42744-0.73678c-0.30469 0.17578-0.69922 0.070312-0.87891-0.23438-0.17578-0.30859-0.070312-0.70312 0.23828-0.87891 0.30859-0.17969 0.69922-0.074219 0.87891 0.23438 0.17578 0.30859 0.070312 0.69922-0.23828 0.87891zm1.4961 2.5898c-0.30859 0.17578-0.69922 0.070312-0.87891-0.23828-0.17578-0.30859-0.070313-0.69922 0.23438-0.87891 0.30859-0.17578 0.70312-0.070312 0.87891 0.23828 0.17969 0.30469 0.074219 0.69922-0.23438 0.87891z" stroke="#000" stroke-miterlimit="10" stroke-width=".3985"/>
<path transform="matrix(1,0,0,-1,44.397,25.028)" d="m-0.73684 0.42644c0.17578 0.30859 0.070313 0.69922-0.23438 0.87891-0.30859 0.17578-0.70312 0.070312-0.87891-0.23828-0.17969-0.30469-0.074219-0.69922 0.23438-0.87891 0.30859-0.17578 0.69922-0.070312 0.87891 0.23828zm2.5898-1.4961c0.17578 0.30859 0.070312 0.70312-0.23828 0.87891-0.30469 0.17969-0.69922 0.074219-0.87891-0.23438-0.17578-0.30859-0.070312-0.70312 0.23828-0.87891 0.30469-0.17969 0.69922-0.074219 0.87891 0.23438z" stroke="#000" stroke-miterlimit="10" stroke-width=".3985"/>
<path transform="matrix(1,0,0,-1,8.245,22.671)" d="m24.802 11.952 9.6602-5.5781" fill="none" stroke="#000" stroke-linecap="round" stroke-miterlimit="10" stroke-width=".59758"/>
</svg>
