<?xml version="1.0" encoding="UTF-8"?>
<svg width="56pt" height="27pt" version="1.1" viewBox="0 0 56 27" xmlns="http://www.w3.org/2000/svg" xmlns:xlink="http://www.w3.org/1999/xlink">
<defs>
<symbol id="a" overflow="visible">
<path d="m6.7656-3.4375c0-2.0938-1.4375-3.7031-3.0938-3.7031-1.7031 0-3.1094 1.625-3.1094 3.7031 0 2.1094 1.4688 3.6562 3.0938 3.6562 1.6719 0 3.1094-1.5625 3.1094-3.6562zm-0.89062-0.15625c0 1.9531-1.0625 3.1719-2.2031 3.1719-1.1719 0-2.2188-1.25-2.2188-3.1719 0-1.8125 1.0938-2.9062 2.2031-2.9062 1.1562 0 2.2188 1.125 2.2188 2.9062z"/>
</symbol>
</defs>
<g>
<use x="4.579" y="22.671" xlink:href="#a"/>
</g>
<path transform="matrix(1,0,0,-1,4.887,13.395)" d="m0.738 0.42625c0.17578-0.30859 0.57031-0.41406 0.87891-0.23438 0.30859 0.17578 0.41406 0.57031 0.23438 0.87891-0.17578 0.30469-0.57031 0.41016-0.87891 0.23438-0.30859-0.17969-0.41406-0.57031-0.23438-0.87891zm-2.5898-1.4961c0.17969-0.30859 0.57031-0.41406 0.87891-0.23438 0.30859 0.17578 0.41406 0.57031 0.23438 0.87891-0.17578 0.30859-0.57031 0.41406-0.87891 0.23438-0.30469-0.17578-0.41016-0.57031-0.23438-0.87891z" stroke="#000" stroke-miterlimit="10" stroke-width=".3985"/>
<path transform="matrix(1,0,0,-1,2.221,22.689)" d="m-0.42412 0.73588c0.30469 0.17969 0.41016 0.57422 0.23438 0.87891-0.17969 0.30859-0.57031 0.41406-0.87891 0.23828-0.30859-0.17969-0.41406-0.57422-0.23438-0.87891 0.17578-0.30859 0.57031-0.41406 0.87891-0.23828zm1.4922-2.5859c0.30859 0.17578 0.41406 0.57031 0.23438 0.87891-0.17578 0.30469-0.57031 0.41016-0.875 0.23438-0.30859-0.17969-0.41406-0.57031-0.23828-0.87891 0.17969-0.30859 0.57031-0.41406 0.87891-0.23438z" stroke="#000" stroke-miterlimit="10" stroke-width=".3985"/>
<path transform="matrix(1,0,0,-1,11.604,25.028)" d="m-0.73681-0.42512c-0.17969 0.30859-0.57031 0.41406-0.87891 0.23438-0.30859-0.17578-0.41406-0.57031-0.23438-0.87891 0.17578-0.30859 0.57031-0.41406 0.87891-0.23438 0.30469 0.17578 0.41016 0.57031 0.23438 0.87891zm2.5898 1.4922c-0.17969 0.30859-0.57422 0.41406-0.87891 0.23828-0.30859-0.17969-0.41406-0.57031-0.23828-0.87891 0.17969-0.30859 0.57422-0.41406 0.87891-0.23828 0.30859 0.17969 0.41406 0.57422 0.23828 0.87891z" stroke="#000" stroke-miterlimit="10" stroke-width=".3985"/>
<g>
<use x="24.333" y="11.265" xlink:href="#a"/>
</g>
<path transform="matrix(1,0,0,-1,28,1.358)" d="m0.85156-0.001375c0-0.35547 0.28906-0.64062 0.64453-0.64062 0.35547 0 0.64062 0.28516 0.64062 0.64062s-0.28516 0.64453-0.64062 0.64453c-0.35547 0-0.64453-0.28906-0.64453-0.64453zm-2.9883 0c0-0.35547 0.28516-0.64062 0.64062-0.64062s0.64453 0.28516 0.64453 0.64062-0.28906 0.64453-0.64453 0.64453-0.64062-0.28906-0.64062-0.64453z" stroke="#000" stroke-miterlimit="10" stroke-width=".3985"/>
<path transform="matrix(1,0,0,-1,8.245,22.671)" d="m5.048 6.3741 9.6602 5.5781" fill="none" stroke="#000" stroke-linecap="round" stroke-miterlimit="10" stroke-width=".59758"/>
<g>
<use x="44.088" y="22.671" xlink:href="#a"/>
</g>
<path transform="matrix(1,0,0,-1,47.755,25.659)" d="m-0.85266-0.0011562c0 0.35547-0.28516 0.64453-0.64062 0.64453-0.35547 0-0.64453-0.28906-0.64453-0.64453 0-0.35547 0.28906-0.64062 0.64453-0.64062 0.35547 0 0.64062 0.28516 0.64062 0.64062zm2.9922 0c0 0.35547-0.28906 0.64453-0.64453 0.64453s-0.64453-0.28906-0.64453-0.64453c0-0.35547 0.28906-0.64062 0.64453-0.64062s0.64453 0.28516 0.64453 0.64062z" stroke="#000" stroke-miterlimit="10" stroke-width=".3985"/>
<path transform="matrix(1,0,0,-1,54.21,15.484)" d="m0.42672-0.73866c-0.30859-0.17578-0.41406-0.57031-0.23828-0.87891 0.17969-0.30469 0.57422-0.41016 0.87891-0.23438 0.30859 0.17969 0.41406 0.57031 0.23828 0.87891-0.17969 0.30859-0.57422 0.41406-0.87891 0.23438zm-1.4961 2.5898c-0.30859-0.17578-0.41406-0.57031-0.23438-0.87891 0.17578-0.30859 0.57031-0.41406 0.87891-0.23438 0.30859 0.17578 0.41406 0.57031 0.23438 0.87891-0.17578 0.30859-0.57031 0.41406-0.87891 0.23438z" stroke="#000" stroke-miterlimit="10" stroke-width=".3985"/>
<path transform="matrix(1,0,0,-1,8.245,22.671)" d="m25.423 13.03 9.6641-5.5781" fill="none" stroke="#000" stroke-linecap="round" stroke-miterlimit="10" stroke-width=".59758"/>
<path transform="matrix(1,0,0,-1,8.245,22.671)" d="m24.181 10.874 9.6602-5.5781" fill="none" stroke="#000" stroke-linecap="round" stroke-miterlimit="10" stroke-width=".59758"/>
</svg>
