<?xml version="1.0" encoding="UTF-8"?>
<svg width="57pt" height="57pt" version="1.1" viewBox="0 0 57 57" xmlns="http://www.w3.org/2000/svg" xmlns:xlink="http://www.w3.org/1999/xlink">
<defs>
<symbol id="d" overflow="visible">
<path d="m5.5156 0v-0.70312h-1.25-0.35938-2.0781v-2.5781h3.2812v-0.60938h-3.2812v-2.3594h1.375c0.10938 0 0.23438 0.015625 0.35938 0.015625h1.8281v-0.65625h-4.4531v6.8906z"/>
</symbol>
<symbol id="c" overflow="visible">
<path d="m6.7656-3.4375c0-2.0938-1.4375-3.7031-3.0938-3.7031-1.7031 0-3.1094 1.625-3.1094 3.7031 0 2.1094 1.4688 3.6562 3.0938 3.6562 1.6719 0 3.1094-1.5625 3.1094-3.6562zm-0.89062-0.15625c0 1.9531-1.0625 3.1719-2.2031 3.1719-1.1719 0-2.2188-1.25-2.2188-3.1719 0-1.8125 1.0938-2.9062 2.2031-2.9062 1.1562 0 2.2188 1.125 2.2188 2.9062z"/>
</symbol>
<symbol id="b" overflow="visible">
<path d="m5.8594-0.45312-0.0625-0.6875c-0.29688 0.20312-0.57812 0.39062-0.92188 0.5-0.3125 0.10938-0.67188 0.10938-1 0.10938-0.65625 0-1.25-0.34375-1.6562-0.85938-0.45312-0.57812-0.67188-1.3281-0.67188-2.0625 0-0.75 0.21875-1.5 0.67188-2.0938 0.40625-0.5 1-0.85938 1.6562-0.85938 0.29688 0 0.59375 0.03125 0.89062 0.125s0.57812 0.23438 0.84375 0.42188l0.125-0.8125c-0.29688-0.125-0.59375-0.21875-0.92188-0.28125-0.3125-0.0625-0.625-0.078125-0.9375-0.078125-0.89062 0-1.6875 0.39062-2.2812 1.0469-0.60938 0.6875-0.9375 1.5938-0.9375 2.5312 0 0.92188 0.32812 1.8281 0.9375 2.5156 0.59375 0.64062 1.3906 1.0469 2.2812 1.0469 0.34375 0 0.6875-0.015625 1.0312-0.10938s0.64062-0.26562 0.95312-0.45312z"/>
</symbol>
<symbol id="a" overflow="visible">
<path d="m1.5625 0v-6.9219h-0.75v6.9219z"/>
</symbol>
</defs>
<g>
<use x="27.355" y="30.982" xlink:href="#d"/>
<use x="47.647" y="30.982" xlink:href="#c"/>
</g>
<path transform="matrix(1,0,0,-1,54.672,33.339)" d="m-0.73841-0.42662c-0.17578 0.30859-0.57031 0.41406-0.87891 0.23828-0.30469-0.17969-0.41016-0.57422-0.23438-0.87891 0.17969-0.30859 0.57031-0.41406 0.87891-0.23828 0.30859 0.17969 0.41406 0.57422 0.23438 0.87891zm2.5898 1.4961c-0.17969 0.30859-0.57031 0.41406-0.87891 0.23438-0.30859-0.17578-0.41406-0.57031-0.23438-0.87891 0.17578-0.30859 0.57031-0.41406 0.87891-0.23438 0.30469 0.17578 0.41016 0.57031 0.23438 0.87891z" stroke="#000" stroke-miterlimit="10" stroke-width=".3985"/>
<path transform="matrix(1,0,0,-1,54.672,21.706)" d="m0.73816-0.42681c-0.17969-0.30469-0.074218-0.69922 0.23438-0.87891 0.30859-0.17578 0.70312-0.070312 0.87891 0.23828 0.17578 0.30469 0.070312 0.69922-0.23438 0.87891-0.30859 0.17578-0.70312 0.070312-0.87891-0.23828zm-2.5898 1.4961c-0.17578-0.30859-0.070313-0.70312 0.23438-0.87891 0.30859-0.17969 0.70312-0.074219 0.87891 0.23438 0.17969 0.30859 0.074219 0.70312-0.23438 0.87891-0.30859 0.17969-0.69922 0.074219-0.87891-0.23438z" stroke="#000" stroke-miterlimit="10" stroke-width=".3985"/>
<path transform="matrix(1,0,0,-1,30.33,30.982)" d="m4.5684 4.7047h11.156" fill="none" stroke="#000" stroke-linecap="round" stroke-miterlimit="10" stroke-width=".59758"/>
<path transform="matrix(1,0,0,-1,30.33,30.982)" d="m4.5684 2.2125h11.156" fill="none" stroke="#000" stroke-linecap="round" stroke-miterlimit="10" stroke-width=".59758"/>
<g>
<use x="26.663" y="9.721" xlink:href="#c"/>
</g>
<path transform="matrix(1,0,0,-1,36.354,2.783)" d="m0.42725-0.73653c-0.30859-0.17969-0.41406-0.57031-0.23828-0.87891 0.17969-0.30859 0.57031-0.41406 0.87891-0.23438 0.30859 0.17578 0.41406 0.57031 0.23828 0.87891-0.17969 0.30469-0.57422 0.41016-0.87891 0.23438zm-1.4961 2.5898c-0.30859-0.17969-0.41406-0.57422-0.23438-0.87891 0.17578-0.30859 0.57031-0.41406 0.87891-0.23828 0.30469 0.17969 0.41016 0.57031 0.23438 0.87891-0.17969 0.30859-0.57031 0.41406-0.87891 0.23828z" stroke="#000" stroke-miterlimit="10" stroke-width=".3985"/>
<path transform="matrix(1,0,0,-1,24.306,2.783)" d="m0.42447 0.73612c0.30859-0.17578 0.70312-0.070313 0.87891 0.23828 0.17969 0.30469 0.074219 0.69922-0.23438 0.87891-0.30859 0.17578-0.70312 0.070313-0.87891-0.23828-0.17969-0.30859-0.074219-0.69922 0.23438-0.87891zm-1.4922-2.5859c0.30469-0.17969 0.69922-0.074218 0.87891 0.23438 0.17578 0.30859 0.070312 0.69922-0.23828 0.87891-0.30469 0.17578-0.69922 0.070312-0.87891-0.23438-0.17578-0.30859-0.070312-0.70312 0.23828-0.87891z" stroke="#000" stroke-miterlimit="10" stroke-width=".3985"/>
<path transform="matrix(1,0,0,-1,30.33,30.982)" d="m-1.2441 8.5132v11.156" fill="none" stroke="#000" stroke-linecap="round" stroke-miterlimit="10" stroke-width=".59758"/>
<path transform="matrix(1,0,0,-1,30.33,30.982)" d="m1.2442 8.5132v11.156" fill="none" stroke="#000" stroke-linecap="round" stroke-miterlimit="10" stroke-width=".59758"/>
<g>
<use x="4.267" y="30.982" xlink:href="#b"/>
<use x="10.632105" y="30.982" xlink:href="#a"/>
</g>
<path transform="matrix(1,0,0,-1,8.64,21.075)" d="m0.85219 7.8125e-4c0-0.35547 0.28516-0.64453 0.64062-0.64453 0.35547 0 0.64453 0.28906 0.64453 0.64453 0 0.35547-0.28906 0.64453-0.64453 0.64453-0.35547 0-0.64062-0.28906-0.64062-0.64453zm-2.9883 0c0-0.35547 0.28516-0.64453 0.64062-0.64453 0.35547 0 0.64453 0.28906 0.64453 0.64453 0 0.35547-0.28906 0.64453-0.64453 0.64453-0.35547 0-0.64062-0.28906-0.64062-0.64453z" stroke="#000" stroke-miterlimit="10" stroke-width=".3985"/>
<path transform="matrix(1,0,0,-1,1.278,27.523)" d="m-6.5625e-4 0.85112c0.35547 0 0.64453 0.28906 0.64453 0.64453s-0.28906 0.64062-0.64453 0.64062c-0.35547 0-0.64453-0.28516-0.64453-0.64062s0.28906-0.64453 0.64453-0.64453zm0-2.9883c0.35547 0 0.64453 0.28906 0.64453 0.64453s-0.28906 0.64062-0.64453 0.64062c-0.35547 0-0.64453-0.28516-0.64453-0.64062s0.28906-0.64453 0.64453-0.64453z" stroke="#000" stroke-miterlimit="10" stroke-width=".3985"/>
<path transform="matrix(1,0,0,-1,8.64,33.971)" d="m-0.85094-0.0016562c0 0.35547-0.28906 0.64453-0.64453 0.64453-0.35547 0-0.64062-0.28906-0.64062-0.64453 0-0.35547 0.28516-0.64062 0.64062-0.64062 0.35547 0 0.64453 0.28516 0.64453 0.64062zm2.9883 0c0 0.35547-0.28906 0.64453-0.64453 0.64453-0.35547 0-0.64062-0.28906-0.64062-0.64453 0-0.35547 0.28516-0.64062 0.64062-0.64062 0.35547 0 0.64453 0.28516 0.64453 0.64062z" stroke="#000" stroke-miterlimit="10" stroke-width=".3985"/>
<path transform="matrix(1,0,0,-1,30.33,30.982)" d="m-4.5683 3.4586h-11.156" fill="none" stroke="#000" stroke-linecap="round" stroke-miterlimit="10" stroke-width=".59758"/>
<g>
<use x="25.957" y="52.243" xlink:href="#b"/>
<use x="32.322105" y="52.243" xlink:href="#a"/>
</g>
<path transform="matrix(1,0,0,-1,37.691,48.784)" d="m4.0625e-4 -0.85272c-0.35547 0-0.64453-0.28516-0.64453-0.64062s0.28906-0.64453 0.64453-0.64453c0.35547 0 0.64453 0.28906 0.64453 0.64453s-0.28906 0.64062-0.64453 0.64062zm0 2.9922c-0.35547 0-0.64453-0.28906-0.64453-0.64453 0-0.35547 0.28906-0.64453 0.64453-0.64453 0.35547 0 0.64453 0.28906 0.64453 0.64453 0 0.35547-0.28906 0.64453-0.64453 0.64453z" stroke="#000" stroke-miterlimit="10" stroke-width=".3985"/>
<path transform="matrix(1,0,0,-1,22.968,48.784)" d="m7.5e-4 0.85041c0.35547 0 0.64453 0.28906 0.64453 0.64453 0 0.35547-0.28906 0.64453-0.64453 0.64453s-0.64453-0.28906-0.64453-0.64453c0-0.35547 0.28906-0.64453 0.64453-0.64453zm0-2.9883c0.35547 0 0.64453 0.28906 0.64453 0.64453s-0.28906 0.64062-0.64453 0.64062-0.64453-0.28516-0.64453-0.64062 0.28906-0.64453 0.64453-0.64453z" stroke="#000" stroke-miterlimit="10" stroke-width=".3985"/>
<path transform="matrix(1,0,0,-1,30.33,55.232)" d="m-0.84953 0.0015312c0 0.35547-0.28906 0.64062-0.64453 0.64062-0.35547 0-0.64453-0.28516-0.64453-0.64062 0-0.35547 0.28906-0.64453 0.64453-0.64453 0.35547 0 0.64453 0.28906 0.64453 0.64453zm2.9883 0c0 0.35547-0.28906 0.64062-0.64453 0.64062s-0.64453-0.28516-0.64453-0.64062c0-0.35547 0.28906-0.64453 0.64453-0.64453s0.64453 0.28906 0.64453 0.64453z" stroke="#000" stroke-miterlimit="10" stroke-width=".3985"/>
<path transform="matrix(1,0,0,-1,30.33,30.982)" d="m-0.001875-1.5922v-11.156" fill="none" stroke="#000" stroke-linecap="round" stroke-miterlimit="10" stroke-width=".59758"/>
</svg>
