<?xml version="1.0" encoding="UTF-8"?>
<svg width="55pt" height="41pt" version="1.1" viewBox="0 0 55 41" xmlns="http://www.w3.org/2000/svg" xmlns:xlink="http://www.w3.org/1999/xlink">
<defs>
<symbol id="a" overflow="visible">
<path d="m6.7656-3.4375c0-2.0938-1.4375-3.7031-3.0938-3.7031-1.7031 0-3.1094 1.625-3.1094 3.7031 0 2.1094 1.4688 3.6562 3.0938 3.6562 1.6719 0 3.1094-1.5625 3.1094-3.6562zm-0.89062-0.15625c0 1.9531-1.0625 3.1719-2.2031 3.1719-1.1719 0-2.2188-1.25-2.2188-3.1719 0-1.8125 1.0938-2.9062 2.2031-2.9062 1.1562 0 2.2188 1.125 2.2188 2.9062z"/>
</symbol>
<symbol id="d" overflow="visible">
<path d="m4.4688 0v-0.70312h-1.8125-0.35938-1.0781c0.3125-0.28125 1.0781-1.0156 1.3906-1.3125 0.1875-0.17188 0.6875-0.59375 0.875-0.78125 0.45312-0.4375 0.98438-0.96875 0.98438-1.8125 0-1.1562-0.79688-2.1562-2.1094-2.1562-1.1406 0-1.7031 0.78125-1.9375 1.6406 0.10938 0.17188 0.17188 0.23438 0.1875 0.26562 0.015625 0.015625 0.125 0.14062 0.21875 0.28125 0.20312-0.76562 0.48438-1.5469 1.3906-1.5469 0.9375 0 1.4375 0.75 1.4375 1.5312 0 0.84375-0.5625 1.4062-1.1562 2.0156l-0.76562 0.70312-1.2344 1.2344v0.64062z"/>
</symbol>
<symbol id="c" overflow="visible">
<path d="m4.5625-1.7969c0-0.90625-0.70312-1.5156-1.375-1.7344 0.75-0.40625 1.0938-1.0781 1.0938-1.7188 0-0.84375-0.82812-1.5156-1.8125-1.5156-0.76562 0-1.4844 0.40625-1.9062 1.1094l0.35938 0.53125c0.28125-0.70312 0.9375-1.0625 1.5469-1.0625 0.51562 0 1 0.3125 1 0.9375 0 0.60938-0.40625 1.2031-1.0156 1.3438-0.0625 0.015625-0.078125 0.015625-0.78125 0.0625v0.60938h0.70312c1.0781 0 1.2969 0.9375 1.2969 1.4375 0 0.76562-0.46875 1.4062-1.2344 1.4062-0.6875 0-1.4688-0.34375-1.9062-1.0312l-0.10938 0.60938c0.71875 0.9375 1.6406 1.0312 2.0469 1.0312 1.2031 0 2.0938-0.96875 2.0938-2.0156z"/>
</symbol>
<symbol id="b" overflow="visible">
<path d="m4.2344 0v-0.57812h-1.25v-6.1875h-0.20312c-0.59375 0.60938-1.4219 0.64062-1.8906 0.67188v0.57812c0.32812-0.015625 0.79688-0.03125 1.2969-0.25v5.1875h-1.2344v0.57812z"/>
</symbol>
</defs>
<g>
<use x="23.957" y="25.396" xlink:href="#a"/>
</g>
<path transform="matrix(1,0,0,-1,27.624,15.489)" d="m0.85256 7.1875e-4c0-0.35547 0.28516-0.64453 0.64062-0.64453 0.35547 0 0.64453 0.28906 0.64453 0.64453 0 0.35547-0.28906 0.64453-0.64453 0.64453-0.35547 0-0.64062-0.28906-0.64062-0.64453zm-2.9922 0c0-0.35547 0.28906-0.64453 0.64453-0.64453s0.64453 0.28906 0.64453 0.64453c0 0.35547-0.28906 0.64453-0.64453 0.64453s-0.64453-0.28906-0.64453-0.64453z" stroke="#000" stroke-miterlimit="10" stroke-width=".3985"/>
<g fill="#dc3445">
<use x="25.133" y="7.721" xlink:href="#d"/>
</g>
<g>
<use x="43.712" y="36.802" xlink:href="#a"/>
</g>
<path transform="matrix(1,0,0,-1,50.737,27.526)" d="m0.73566-0.42712c-0.17578-0.30469-0.070312-0.69922 0.23828-0.87891 0.30469-0.17578 0.69922-0.070313 0.87891 0.23828 0.17578 0.30469 0.070312 0.69922-0.23828 0.87891-0.30469 0.17578-0.69922 0.070313-0.87891-0.23828zm-2.5859 1.4961c-0.17969-0.30859-0.074219-0.70312 0.23438-0.87891 0.30859-0.17578 0.70312-0.070312 0.87891 0.23438 0.17578 0.30859 0.070312 0.70312-0.23438 0.87891-0.30859 0.17969-0.70312 0.074218-0.87891-0.23438z" stroke="#000" stroke-miterlimit="10" stroke-width=".3985"/>
<path transform="matrix(1,0,0,-1,53.403,36.82)" d="m-0.42644-0.73859c-0.30859 0.17969-0.69922 0.074219-0.87891-0.23438-0.17578-0.30859-0.070312-0.69922 0.23828-0.87891 0.30469-0.17578 0.69922-0.070313 0.87891 0.23438 0.17578 0.30859 0.070312 0.70312-0.23828 0.87891zm1.4961 2.5898c-0.30859 0.17969-0.70312 0.074219-0.87891-0.23438-0.17969-0.30859-0.074219-0.70312 0.23438-0.87891 0.30859-0.17969 0.70312-0.074219 0.87891 0.23438 0.17969 0.30859 0.074219 0.70312-0.23438 0.87891z" stroke="#000" stroke-miterlimit="10" stroke-width=".3985"/>
<path transform="matrix(1,0,0,-1,44.02,39.159)" d="m-0.73875 0.42462c0.17969 0.30859 0.074219 0.70312-0.23438 0.87891-0.30859 0.17969-0.69922 0.074219-0.87891-0.23438-0.17578-0.30859-0.070313-0.70312 0.23438-0.87891 0.30859-0.17969 0.70312-0.074219 0.87891 0.23438zm2.5898-1.4922c0.17969 0.30469 0.074218 0.69922-0.23438 0.87891-0.30859 0.17578-0.70312 0.070312-0.87891-0.23828-0.17969-0.30469-0.074218-0.69922 0.23438-0.87891 0.30859-0.17578 0.70312-0.070312 0.87891 0.23828z" stroke="#000" stroke-miterlimit="10" stroke-width=".3985"/>
<path transform="matrix(1,0,0,-1,27.624,25.396)" d="m5.0479 0.54444 9.6602-5.5781" fill="none" stroke="#000" stroke-linecap="round" stroke-miterlimit="10" stroke-width=".59758"/>
<g fill="#dc3445">
<use x="44.888" y="19.126" xlink:href="#c"/>
</g>
<g>
<use x="4.203" y="36.802" xlink:href="#a"/>
</g>
<path transform="matrix(1,0,0,-1,7.869,39.79)" d="m-0.84947 9.375e-4c0 0.35547-0.28906 0.64062-0.64453 0.64062s-0.64453-0.28516-0.64453-0.64062 0.28906-0.64453 0.64453-0.64453 0.64453 0.28906 0.64453 0.64453zm2.9883 0c0 0.35547-0.28906 0.64062-0.64453 0.64062s-0.64453-0.28516-0.64453-0.64062 0.28906-0.64453 0.64453-0.64453 0.64453 0.28906 0.64453 0.64453z" stroke="#000" stroke-miterlimit="10" stroke-width=".3985"/>
<path transform="matrix(1,0,0,-1,1.845,29.864)" d="m0.42453 0.73509c0.30859-0.17578 0.70312-0.070313 0.87891 0.23828 0.17969 0.30859 0.074219 0.69922-0.23438 0.87891-0.30859 0.17578-0.70312 0.070313-0.87891-0.23828-0.17969-0.30469-0.074219-0.69922 0.23438-0.87891zm-1.4922-2.5859c0.30469-0.17969 0.69922-0.074219 0.87891 0.23438 0.17578 0.30859 0.070312 0.70312-0.23828 0.87891-0.30469 0.17969-0.69922 0.074219-0.87891-0.23438-0.17578-0.30859-0.070312-0.70312 0.23828-0.87891z" stroke="#000" stroke-miterlimit="10" stroke-width=".3985"/>
<path transform="matrix(1,0,0,-1,27.624,25.396)" d="m-4.4248-0.53369-9.6602-5.5781" fill="none" stroke="#000" stroke-linecap="round" stroke-miterlimit="10" stroke-width=".59758"/>
<path transform="matrix(1,0,0,-1,27.624,25.396)" d="m-5.6709 1.6226-9.6602-5.5781" fill="none" stroke="#000" stroke-linecap="round" stroke-miterlimit="10" stroke-width=".59758"/>
<g fill="#dc3445">
<use x="5.379" y="19.126" xlink:href="#b"/>
</g>
</svg>
