<?xml version="1.0" encoding="UTF-8"?>
<svg width="74pt" height="30pt" version="1.1" viewBox="0 0 74 30" xmlns="http://www.w3.org/2000/svg" xmlns:xlink="http://www.w3.org/1999/xlink">
<defs>
<symbol id="g" overflow="visible">
<path d="m6.1094 0v-6.9219h-0.89062v3.0312h-3.3906v-3.0312h-0.89062v6.9219h0.89062v-3.2969h3.3906v3.2969z"/>
</symbol>
<symbol id="f" overflow="visible">
<path d="m5.8594-0.45312-0.0625-0.6875c-0.29688 0.20312-0.57812 0.39062-0.92188 0.5-0.3125 0.10938-0.67188 0.10938-1 0.10938-0.65625 0-1.25-0.34375-1.6562-0.85938-0.45312-0.57812-0.67188-1.3281-0.67188-2.0625 0-0.75 0.21875-1.5 0.67188-2.0938 0.40625-0.5 1-0.85938 1.6562-0.85938 0.29688 0 0.59375 0.03125 0.89062 0.125s0.57812 0.23438 0.84375 0.42188l0.125-0.8125c-0.29688-0.125-0.59375-0.21875-0.92188-0.28125-0.3125-0.0625-0.625-0.078125-0.9375-0.078125-0.89062 0-1.6875 0.39062-2.2812 1.0469-0.60938 0.6875-0.9375 1.5938-0.9375 2.5312 0 0.92188 0.32812 1.8281 0.9375 2.5156 0.59375 0.64062 1.3906 1.0469 2.2812 1.0469 0.34375 0 0.6875-0.015625 1.0312-0.10938s0.64062-0.26562 0.95312-0.45312z"/>
</symbol>
<symbol id="e" overflow="visible">
<path d="m4.2344 0v-0.57812h-1.25v-6.1875h-0.20312c-0.59375 0.60938-1.4219 0.64062-1.8906 0.67188v0.57812c0.32812-0.015625 0.79688-0.03125 1.2969-0.25v5.1875h-1.2344v0.57812z"/>
</symbol>
<symbol id="d" overflow="visible">
<path d="m6.0938 0v-6.9219h-0.78125v6.2188h-0.015625l-0.65625-1.375-2.4531-4.8438h-1.2344v6.9219h0.78125v-6.2031h0.015625l0.65625 1.3594 2.4531 4.8438z"/>
</symbol>
<symbol id="c" overflow="visible">
<path d="m4.4688 0v-0.70312h-1.8125-0.35938-1.0781c0.3125-0.28125 1.0781-1.0156 1.3906-1.3125 0.1875-0.17188 0.6875-0.59375 0.875-0.78125 0.45312-0.4375 0.98438-0.96875 0.98438-1.8125 0-1.1562-0.79688-2.1562-2.1094-2.1562-1.1406 0-1.7031 0.78125-1.9375 1.6406 0.10938 0.17188 0.17188 0.23438 0.1875 0.26562 0.015625 0.015625 0.125 0.14062 0.21875 0.28125 0.20312-0.76562 0.48438-1.5469 1.3906-1.5469 0.9375 0 1.4375 0.75 1.4375 1.5312 0 0.84375-0.5625 1.4062-1.1562 2.0156l-0.76562 0.70312-1.2344 1.2344v0.64062z"/>
</symbol>
<symbol id="b" overflow="visible">
<path d="m6.7656-3.4375c0-2.0938-1.4375-3.7031-3.0938-3.7031-1.7031 0-3.1094 1.625-3.1094 3.7031 0 2.1094 1.4688 3.6562 3.0938 3.6562 1.6719 0 3.1094-1.5625 3.1094-3.6562zm-0.89062-0.15625c0 1.9531-1.0625 3.1719-2.2031 3.1719-1.1719 0-2.2188-1.25-2.2188-3.1719 0-1.8125 1.0938-2.9062 2.2031-2.9062 1.1562 0 2.2188 1.125 2.2188 2.9062z"/>
</symbol>
<symbol id="a" overflow="visible">
<path d="m4.5625-1.7969c0-0.90625-0.70312-1.5156-1.375-1.7344 0.75-0.40625 1.0938-1.0781 1.0938-1.7188 0-0.84375-0.82812-1.5156-1.8125-1.5156-0.76562 0-1.4844 0.40625-1.9062 1.1094l0.35938 0.53125c0.28125-0.70312 0.9375-1.0625 1.5469-1.0625 0.51562 0 1 0.3125 1 0.9375 0 0.60938-0.40625 1.2031-1.0156 1.3438-0.0625 0.015625-0.078125 0.015625-0.78125 0.0625v0.60938h0.70312c1.0781 0 1.2969 0.9375 1.2969 1.4375 0 0.76562-0.46875 1.4062-1.2344 1.4062-0.6875 0-1.4688-0.34375-1.9062-1.0312l-0.10938 0.60938c0.71875 0.9375 1.6406 1.0312 2.0469 1.0312 1.2031 0 2.0938-0.96875 2.0938-2.0156z"/>
</symbol>
</defs>
<g>
<use x="-0.796" y="25.396" xlink:href="#g"/>
<use x="20.603" y="25.396" xlink:href="#f"/>
</g>
<path transform="matrix(1,0,0,-1,2.732,25.396)" d="m5.1235 3.4585h11.152" fill="none" stroke="#000" stroke-linecap="round" stroke-miterlimit="10" stroke-width=".59758"/>
<g fill="#dc3445">
<use x="21.295" y="7.721" xlink:href="#e"/>
</g>
<g>
<use x="41.311" y="25.396" xlink:href="#d"/>
</g>
<path transform="matrix(1,0,0,-1,2.732,25.396)" d="m25.83 3.4585h11.156" fill="none" stroke="#000" stroke-linecap="round" stroke-miterlimit="10" stroke-width=".59758"/>
<path transform="matrix(1,0,0,-1,2.732,25.396)" d="m25.83 5.9507h11.156" fill="none" stroke="#000" stroke-linecap="round" stroke-miterlimit="10" stroke-width=".59758"/>
<path transform="matrix(1,0,0,-1,2.732,25.396)" d="m25.83 0.97022h11.156" fill="none" stroke="#000" stroke-linecap="round" stroke-miterlimit="10" stroke-width=".59758"/>
<g fill="#dc3445">
<use x="42.349" y="7.721" xlink:href="#c"/>
</g>
<g>
<use x="62.71" y="25.396" xlink:href="#b"/>
</g>
<path transform="matrix(1,0,0,-1,66.377,15.489)" d="m0.84956 7.1875e-4c0-0.35547 0.28906-0.64453 0.64453-0.64453s0.64453 0.28906 0.64453 0.64453c0 0.35547-0.28906 0.64453-0.64453 0.64453s-0.64453-0.28906-0.64453-0.64453zm-2.9883 0c0-0.35547 0.28906-0.64453 0.64453-0.64453 0.35547 0 0.64453 0.28906 0.64453 0.64453 0 0.35547-0.28906 0.64453-0.64453 0.64453-0.35547 0-0.64453-0.28906-0.64453-0.64453z" stroke="#000" stroke-miterlimit="10" stroke-width=".3985"/>
<path transform="matrix(1,0,0,-1,73.033,21.937)" d="m-0.00175-0.85206c-0.35547 0-0.64062-0.28516-0.64062-0.64062 0-0.35547 0.28516-0.64453 0.64062-0.64453s0.64453 0.28906 0.64453 0.64453c0 0.35547-0.28906 0.64062-0.64453 0.64062zm0 2.9883c-0.35547 0-0.64062-0.28516-0.64062-0.64062 0-0.35547 0.28516-0.64453 0.64062-0.64453s0.64453 0.28906 0.64453 0.64453c0 0.35547-0.28906 0.64062-0.64453 0.64062z" stroke="#000" stroke-miterlimit="10" stroke-width=".3985"/>
<path transform="matrix(1,0,0,-1,66.377,28.385)" d="m-0.84966-0.0017188c0 0.35547-0.28906 0.64453-0.64453 0.64453-0.35547 0-0.64453-0.28906-0.64453-0.64453 0-0.35547 0.28906-0.64063 0.64453-0.64063 0.35547 0 0.64453 0.28516 0.64453 0.64063zm2.9883 0c0 0.35547-0.28906 0.64453-0.64453 0.64453s-0.64453-0.28906-0.64453-0.64453c0-0.35547 0.28906-0.64063 0.64453-0.64063s0.64453 0.28516 0.64453 0.64063z" stroke="#000" stroke-miterlimit="10" stroke-width=".3985"/>
<path transform="matrix(1,0,0,-1,2.732,25.396)" d="m47.229 3.4585h11.156" fill="none" stroke="#000" stroke-linecap="round" stroke-miterlimit="10" stroke-width=".59758"/>
<g fill="#dc3445">
<use x="63.886" y="7.721" xlink:href="#a"/>
</g>
</svg>
