<?xml version="1.0" encoding="UTF-8"?>
<svg width="243pt" height="61pt" version="1.1" viewBox="0 0 243 61" xmlns="http://www.w3.org/2000/svg" xmlns:xlink="http://www.w3.org/1999/xlink">
<defs>
<symbol id="b" overflow="visible">
<path d="m4.9688-1.8906c0-0.64062-0.29688-1.125-0.51562-1.3594-0.46875-0.5-0.79688-0.59375-1.7188-0.8125-0.57812-0.14062-0.73438-0.1875-1.0469-0.4375-0.0625-0.0625-0.34375-0.35938-0.34375-0.79688 0-0.57812 0.54688-1.1875 1.4531-1.1875 0.84375 0 1.3125 0.32812 1.6875 0.64062l0.15625-0.79688c-0.54688-0.32812-1.1094-0.5-1.8281-0.5-1.3906 0-2.25 0.98438-2.25 1.9688 0 0.42188 0.14062 0.84375 0.53125 1.2656 0.42188 0.45312 0.85938 0.5625 1.4531 0.70312 0.84375 0.21875 0.9375 0.25 1.2188 0.48438 0.20312 0.17188 0.42188 0.5 0.42188 0.9375 0 0.65625-0.54688 1.3125-1.4531 1.3125-0.40625 0-1.3125-0.09375-2.1406-0.8125l-0.15625 0.8125c0.875 0.54688 1.6719 0.6875 2.2969 0.6875 1.3281 0 2.2344-1 2.2344-2.1094z"/>
</symbol>
<symbol id="a" overflow="visible">
<path d="m6.7656-3.4375c0-2.0938-1.4375-3.7031-3.0938-3.7031-1.7031 0-3.1094 1.625-3.1094 3.7031 0 2.1094 1.4688 3.6562 3.0938 3.6562 1.6719 0 3.1094-1.5625 3.1094-3.6562zm-0.89062-0.15625c0 1.9531-1.0625 3.1719-2.2031 3.1719-1.1719 0-2.2188-1.25-2.2188-3.1719 0-1.8125 1.0938-2.9062 2.2031-2.9062 1.1562 0 2.2188 1.125 2.2188 2.9062z"/>
</symbol>
<symbol id="e" overflow="visible">
<path d="m4.9219 0v-0.46875h-1.3906v-5.7344c0-0.23438 0-0.32812-0.26562-0.32812-0.10938 0-0.125 0-0.21875 0.078125-0.76562 0.5625-1.7969 0.5625-2 0.5625h-0.20312v0.46875h0.20312c0.15625 0 0.70312-0.015625 1.2969-0.20312v5.1562h-1.3906v0.46875c0.4375-0.03125 1.5-0.03125 1.9844-0.03125s1.5469 0 1.9844 0.03125z"/>
</symbol>
<symbol id="d" overflow="visible">
<path d="m5.1562-2.2188h-0.46875c-0.03125 0.20312-0.125 0.84375-0.26562 0.90625-0.10938 0.0625-0.85938 0.0625-1.0156 0.0625h-1.4688c0.46875-0.39062 1-0.8125 1.4375-1.1406 1.1406-0.84375 1.7812-1.3125 1.7812-2.25 0-1.1562-1.0469-1.8906-2.4375-1.8906-1.2188 0-2.1562 0.625-2.1562 1.5156 0 0.59375 0.48438 0.73438 0.71875 0.73438 0.32812 0 0.71875-0.21875 0.71875-0.71875 0-0.51562-0.42188-0.67188-0.5625-0.71875 0.28125-0.23438 0.67188-0.34375 1.0312-0.34375 0.84375 0 1.3125 0.67188 1.3125 1.4219 0 0.6875-0.375 1.375-1.0781 2.0781l-2 2.0469c-0.14062 0.10938-0.14062 0.14062-0.14062 0.34375v0.17188h4.2812z"/>
</symbol>
<symbol id="c" overflow="visible">
<path d="m5.25-1.7969c0-0.54688-0.29688-1.4062-1.7344-1.7188 0.6875-0.20312 1.4062-0.76562 1.4062-1.625 0-0.76562-0.75-1.3906-2.1562-1.3906-1.1875 0-1.9688 0.64062-1.9688 1.4375 0 0.42188 0.3125 0.70312 0.6875 0.70312 0.45312 0 0.70312-0.32812 0.70312-0.6875 0-0.57812-0.54688-0.6875-0.57812-0.70312 0.34375-0.28125 0.78125-0.35938 1.0938-0.35938 0.82812 0 0.85938 0.64062 0.85938 0.96875 0 0.125-0.015625 1.4375-1.0469 1.5-0.40625 0.015625-0.4375 0.015625-0.48438 0.03125-0.09375 0.015625-0.125 0.10938-0.125 0.17188 0 0.17188 0.10938 0.17188 0.28125 0.17188h0.4375c1.0938 0 1.0938 0.98438 1.0938 1.5 0 0.46875 0 1.4844-1.0312 1.4844-0.26562 0-0.78125-0.046875-1.2656-0.34375 0.32812-0.09375 0.57812-0.34375 0.57812-0.75 0-0.45312-0.3125-0.75-0.75-0.75-0.42188 0-0.76562 0.26562-0.76562 0.76562 0 0.90625 0.96875 1.5 2.25 1.5 1.7812 0 2.5156-1 2.5156-1.9062z"/>
</symbol>
</defs>
<g>
<use x="23.999" y="32.982" xlink:href="#b"/>
<use x="41.955" y="43.868" xlink:href="#a"/>
</g>
<path transform="matrix(1,0,0,-1,45.622,46.857)" d="m-0.85247 0.0015312c0 0.35547-0.28516 0.64062-0.64062 0.64062-0.35547 0-0.64453-0.28516-0.64453-0.64062 0-0.35547 0.28906-0.64453 0.64453-0.64453 0.35547 0 0.64062 0.28906 0.64062 0.64453zm2.9922 0c0 0.35547-0.28906 0.64062-0.64453 0.64062-0.35547 0-0.64453-0.28516-0.64453-0.64062 0-0.35547 0.28906-0.64453 0.64453-0.64453 0.35547 0 0.64453 0.28906 0.64453 0.64453z" stroke="#000" stroke-miterlimit="10" stroke-width=".3985"/>
<path transform="matrix(1,0,0,-1,51.646,36.931)" d="m0.42431-0.73697c-0.30469-0.17578-0.41016-0.57031-0.23438-0.87891 0.17969-0.30859 0.57031-0.41406 0.87891-0.23438 0.30859 0.17578 0.41406 0.57031 0.23438 0.87891-0.17578 0.30469-0.57031 0.41016-0.87891 0.23438zm-1.4922 2.5898c-0.30859-0.17969-0.41406-0.57422-0.23828-0.87891 0.17969-0.30859 0.57422-0.41406 0.87891-0.23828 0.30859 0.17969 0.41406 0.57422 0.23828 0.87891-0.17969 0.30859-0.57031 0.41406-0.87891 0.23828z" stroke="#000" stroke-miterlimit="10" stroke-width=".3985"/>
<path transform="matrix(1,0,0,-1,26.767,32.982)" d="m4.7682 2.1422 9.6641-5.5781" fill="none" stroke="#000" stroke-linecap="round" stroke-miterlimit="10" stroke-width=".59758"/>
<path transform="matrix(1,0,0,-1,26.767,32.982)" d="m3.526-0.014094 9.6602-5.5781" fill="none" stroke="#000" stroke-linecap="round" stroke-miterlimit="10" stroke-width=".59758"/>
<g>
<use x="23.1" y="11.721" xlink:href="#a"/>
</g>
<path transform="matrix(1,0,0,-1,32.791,4.783)" d="m0.42384-0.73653c-0.30469-0.17969-0.41016-0.57031-0.23438-0.87891 0.17969-0.30859 0.57031-0.41406 0.87891-0.23438 0.30859 0.17578 0.41406 0.57031 0.23438 0.87891-0.17578 0.30469-0.57031 0.41016-0.87891 0.23438zm-1.4922 2.5898c-0.30859-0.17969-0.41406-0.57422-0.23438-0.87891 0.17578-0.30859 0.57031-0.41406 0.87891-0.23828 0.30469 0.17969 0.41016 0.57031 0.23438 0.87891-0.17969 0.30859-0.57031 0.41406-0.87891 0.23828z" stroke="#000" stroke-miterlimit="10" stroke-width=".3985"/>
<path transform="matrix(1,0,0,-1,20.743,4.783)" d="m0.42497 0.73612c0.30859-0.17578 0.70312-0.070313 0.87891 0.23828 0.17969 0.30469 0.074219 0.69922-0.23438 0.87891-0.30859 0.17578-0.70312 0.070313-0.87891-0.23828-0.17969-0.30859-0.074219-0.69922 0.23438-0.87891zm-1.4922-2.5859c0.30469-0.17969 0.69922-0.074218 0.87891 0.23438 0.17578 0.30859 0.070312 0.69922-0.23828 0.87891-0.30469 0.17578-0.69922 0.070312-0.87891-0.23438-0.17578-0.30859-0.070312-0.70312 0.23828-0.87891z" stroke="#000" stroke-miterlimit="10" stroke-width=".3985"/>
<path transform="matrix(1,0,0,-1,26.767,32.982)" d="m-1.2436 8.5132v11.156" fill="none" stroke="#000" stroke-linecap="round" stroke-miterlimit="10" stroke-width=".59758"/>
<path transform="matrix(1,0,0,-1,26.767,32.982)" d="m1.2447 8.5132v11.156" fill="none" stroke="#000" stroke-linecap="round" stroke-miterlimit="10" stroke-width=".59758"/>
<g>
<use x="4.245" y="43.868" xlink:href="#a"/>
</g>
<path transform="matrix(1,0,0,-1,7.911,46.857)" d="m-0.85241 0.0015312c0 0.35547-0.28516 0.64062-0.64062 0.64062s-0.64453-0.28516-0.64453-0.64062c0-0.35547 0.28906-0.64453 0.64453-0.64453s0.64062 0.28906 0.64062 0.64453zm2.9883 0c0 0.35547-0.28516 0.64062-0.64062 0.64062s-0.64453-0.28516-0.64453-0.64062c0-0.35547 0.28906-0.64453 0.64453-0.64453s0.64062 0.28906 0.64062 0.64453z" stroke="#000" stroke-miterlimit="10" stroke-width=".3985"/>
<path transform="matrix(1,0,0,-1,1.887,36.931)" d="m0.4255 0.73569c0.30859-0.17578 0.70312-0.070312 0.87891 0.23828 0.17578 0.30469 0.070313 0.69922-0.23438 0.87891-0.30859 0.17578-0.70312 0.070312-0.87891-0.23828-0.17969-0.30469-0.074219-0.69922 0.23438-0.87891zm-1.4961-2.5859c0.30859-0.17969 0.70312-0.074219 0.87891 0.23438 0.17969 0.30859 0.074218 0.70312-0.23438 0.87891-0.30859 0.17578-0.69922 0.070313-0.87891-0.23438-0.17578-0.30859-0.070312-0.70312 0.23438-0.87891z" stroke="#000" stroke-miterlimit="10" stroke-width=".3985"/>
<path transform="matrix(1,0,0,-1,26.767,32.982)" d="m-3.5248-0.014094-9.6602-5.5781" fill="none" stroke="#000" stroke-linecap="round" stroke-miterlimit="10" stroke-width=".59758"/>
<path transform="matrix(1,0,0,-1,26.767,32.982)" d="m-4.7709 2.1422-9.6602-5.5781" fill="none" stroke="#000" stroke-linecap="round" stroke-miterlimit="10" stroke-width=".59758"/>
<g>
<use x="23.902" y="60.413" xlink:href="#e"/>
</g>
<path transform="matrix(1,0,0,-1,4.245,32.982)" d="m56.942 2.1461h26.02" fill="none" stroke="#000" stroke-miterlimit="10" stroke-width=".3985"/>
<path transform="matrix(-1 0 0 1 63.897 30.837)" d="m4.4434-0.0013525-3.2812 1.3164 1.6484-1.3164-1.6484-1.3125z" stroke="#000" stroke-linejoin="round" stroke-miterlimit="10" stroke-width=".3985"/>
<path transform="matrix(1 0 0 -1 84.497 30.837)" d="m4.4448 0.0013525-3.2812 1.3125 1.6445-1.3125-1.6445-1.3164z" stroke="#000" stroke-linejoin="round" stroke-miterlimit="10" stroke-width=".3985"/>
<g>
<use x="118.857" y="32.982" xlink:href="#b"/>
<use x="136.813" y="43.868" xlink:href="#a"/>
</g>
<path transform="matrix(1 0 0 -1 140.48 46.857)" d="m-0.85009 0.0015312c0 0.35547-0.28906 0.64062-0.64453 0.64062s-0.64453-0.28516-0.64453-0.64062c0-0.35547 0.28906-0.64453 0.64453-0.64453s0.64453 0.28906 0.64453 0.64453zm2.9883 0c0 0.35547-0.28906 0.64062-0.64453 0.64062-0.35547 0-0.64453-0.28516-0.64453-0.64062 0-0.35547 0.28906-0.64453 0.64453-0.64453 0.35547 0 0.64453 0.28906 0.64453 0.64453z" stroke="#000" stroke-miterlimit="10" stroke-width=".3985"/>
<path transform="matrix(1 0 0 -1 146.5 36.931)" d="m0.42669-0.73697c-0.30859-0.17578-0.41406-0.57031-0.23828-0.87891 0.17969-0.30859 0.57422-0.41406 0.87891-0.23438 0.30859 0.17578 0.41406 0.57031 0.23828 0.87891-0.17969 0.30469-0.57422 0.41016-0.87891 0.23438zm-1.4961 2.5898c-0.30859-0.17969-0.41406-0.57422-0.23438-0.87891 0.17578-0.30859 0.57031-0.41406 0.87891-0.23828 0.30859 0.17969 0.41406 0.57422 0.23438 0.87891-0.17578 0.30859-0.57031 0.41406-0.87891 0.23828z" stroke="#000" stroke-miterlimit="10" stroke-width=".3985"/>
<path transform="matrix(1 0 0 -1 121.62 32.982)" d="m4.7705 2.1422 9.6602-5.5781" fill="none" stroke="#000" stroke-linecap="round" stroke-miterlimit="10" stroke-width=".59758"/>
<path transform="matrix(1 0 0 -1 121.62 32.982)" d="m3.5244-0.014094 9.6602-5.5781" fill="none" stroke="#000" stroke-linecap="round" stroke-miterlimit="10" stroke-width=".59758"/>
<g>
<use x="117.957" y="11.721" xlink:href="#a"/>
</g>
<path transform="matrix(1 0 0 -1 128.28 8.261)" d="m-0.0016562-0.85228c-0.35547 0-0.64062-0.28516-0.64062-0.64062 0-0.35547 0.28516-0.64453 0.64062-0.64453 0.35547 0 0.64453 0.28906 0.64453 0.64453 0 0.35547-0.28906 0.64062-0.64453 0.64062zm0 2.9883c-0.35547 0-0.64062-0.28516-0.64062-0.64062s0.28516-0.64453 0.64062-0.64453c0.35547 0 0.64453 0.28906 0.64453 0.64453s-0.28906 0.64062-0.64453 0.64062z" stroke="#000" stroke-miterlimit="10" stroke-width=".3985"/>
<path transform="matrix(1 0 0 -1 121.62 1.813)" d="m0.85256 5e-4c0-0.35547 0.28516-0.64453 0.64062-0.64453 0.35547 0 0.64453 0.28906 0.64453 0.64453s-0.28906 0.64453-0.64453 0.64453c-0.35547 0-0.64062-0.28906-0.64062-0.64453zm-2.9922 0c0-0.35547 0.28906-0.64453 0.64453-0.64453 0.35547 0 0.64453 0.28906 0.64453 0.64453s-0.28906 0.64453-0.64453 0.64453c-0.35547 0-0.64453-0.28906-0.64453-0.64453z" stroke="#000" stroke-miterlimit="10" stroke-width=".3985"/>
<path transform="matrix(1 0 0 -1 115.47 8.261)" d="m0.00175 0.85084c0.35547 0 0.64062 0.28906 0.64062 0.64453s-0.28516 0.64062-0.64062 0.64062-0.64453-0.28516-0.64453-0.64062 0.28906-0.64453 0.64453-0.64453zm0-2.9883c0.35547 0 0.64062 0.28906 0.64062 0.64453 0 0.35547-0.28516 0.64062-0.64062 0.64062s-0.64453-0.28516-0.64453-0.64062c0-0.35547 0.28906-0.64453 0.64453-0.64453z" stroke="#000" stroke-miterlimit="10" stroke-width=".3985"/>
<path transform="matrix(1 0 0 -1 121.62 32.982)" d="m1e-3 8.5132v11.156" fill="none" stroke="#000" stroke-linecap="round" stroke-miterlimit="10" stroke-width=".59758"/>
<g>
<use x="99.102" y="43.868" xlink:href="#a"/>
</g>
<path transform="matrix(1 0 0 -1 102.77 46.857)" d="m-0.85103 0.0015312c0 0.35547-0.28906 0.64062-0.64453 0.64062-0.35547 0-0.64062-0.28516-0.64062-0.64062 0-0.35547 0.28516-0.64453 0.64062-0.64453 0.35547 0 0.64453 0.28906 0.64453 0.64453zm2.9883 0c0 0.35547-0.28906 0.64062-0.64453 0.64062s-0.64062-0.28516-0.64062-0.64062c0-0.35547 0.28516-0.64453 0.64062-0.64453s0.64453 0.28906 0.64453 0.64453z" stroke="#000" stroke-miterlimit="10" stroke-width=".3985"/>
<path transform="matrix(1,0,0,-1,96.745,36.931)" d="m0.42688 0.73569c0.30469-0.17578 0.69922-0.070312 0.87891 0.23828 0.17578 0.30469 0.070313 0.69922-0.23828 0.87891-0.30469 0.17578-0.69922 0.070312-0.87891-0.23828-0.17578-0.30469-0.070313-0.69922 0.23828-0.87891zm-1.4961-2.5859c0.30859-0.17969 0.70312-0.074219 0.87891 0.23438 0.17969 0.30859 0.074218 0.70312-0.23438 0.87891-0.30859 0.17578-0.70312 0.070313-0.87891-0.23438-0.17969-0.30859-0.074218-0.70312 0.23438-0.87891z" stroke="#000" stroke-miterlimit="10" stroke-width=".3985"/>
<path transform="matrix(1 0 0 -1 121.62 32.982)" d="m-3.5263-0.014094-9.6602-5.5781" fill="none" stroke="#000" stroke-linecap="round" stroke-miterlimit="10" stroke-width=".59758"/>
<path transform="matrix(1 0 0 -1 121.62 32.982)" d="m-4.7685 2.1422-9.6641-5.5781" fill="none" stroke="#000" stroke-linecap="round" stroke-miterlimit="10" stroke-width=".59758"/>
<g>
<use x="118.76" y="60.413" xlink:href="#d"/>
</g>
<path transform="matrix(1,0,0,-1,4.245,32.982)" d="m151.8 2.1461h26.02" fill="none" stroke="#000" stroke-miterlimit="10" stroke-width=".3985"/>
<path transform="matrix(-1 0 0 1 158.76 30.837)" d="m4.4464-0.0013525-3.2852 1.3164 1.6484-1.3164-1.6484-1.3125z" stroke="#000" stroke-linejoin="round" stroke-miterlimit="10" stroke-width=".3985"/>
<path transform="matrix(1 0 0 -1 179.36 30.837)" d="m4.4457 0.0013525-3.2852 1.3125 1.6484-1.3125-1.6484-1.3164z" stroke="#000" stroke-linejoin="round" stroke-miterlimit="10" stroke-width=".3985"/>
<g>
<use x="213.714" y="32.982" xlink:href="#b"/>
<use x="231.67" y="43.868" xlink:href="#a"/>
</g>
<path transform="matrix(1 0 0 -1 238.7 34.592)" d="m0.73859-0.42362c-0.17969-0.30859-0.074219-0.70312 0.23438-0.87891 0.30859-0.17969 0.69922-0.074219 0.87891 0.23438 0.17578 0.30859 0.070313 0.69922-0.23438 0.87891-0.30859 0.17578-0.70312 0.070312-0.87891-0.23438zm-2.5898 1.4922c-0.17969-0.30859-0.074219-0.69922 0.23438-0.87891 0.30859-0.17578 0.70312-0.070312 0.87891 0.23438 0.17969 0.30859 0.074219 0.70312-0.23438 0.87891-0.30859 0.17969-0.70312 0.074219-0.87891-0.23438z" stroke="#000" stroke-miterlimit="10" stroke-width=".3985"/>
<path transform="matrix(1 0 0 -1 241.36 43.887)" d="m-0.42741-0.738c-0.30469 0.17969-0.69922 0.074219-0.87891-0.23438-0.17578-0.30859-0.070313-0.70312 0.23828-0.87891 0.30859-0.17578 0.69922-0.074219 0.87891 0.23438 0.17578 0.30859 0.070313 0.70312-0.23828 0.87891zm1.4961 2.5898c-0.30859 0.17578-0.69922 0.070312-0.87891-0.23438-0.17578-0.30859-0.070312-0.70312 0.23438-0.87891 0.30859-0.17969 0.70312-0.074218 0.87891 0.23438 0.17969 0.30859 0.074218 0.69922-0.23438 0.87891z" stroke="#000" stroke-miterlimit="10" stroke-width=".3985"/>
<path transform="matrix(1 0 0 -1 231.98 46.225)" d="m-0.73581 0.42422c0.17578 0.30859 0.070312 0.70312-0.23828 0.87891-0.30469 0.17969-0.69922 0.074219-0.87891-0.23438-0.17578-0.30859-0.070312-0.69922 0.23828-0.87891 0.30469-0.17578 0.69922-0.070313 0.87891 0.23438zm2.5859-1.4922c0.17969 0.30859 0.074219 0.69922-0.23438 0.87891-0.30859 0.17578-0.69922 0.070313-0.87891-0.23828-0.17578-0.30469-0.070313-0.69922 0.23438-0.87891 0.30859-0.17578 0.70312-0.070313 0.87891 0.23828z" stroke="#000" stroke-miterlimit="10" stroke-width=".3985"/>
<path transform="matrix(1 0 0 -1 216.48 32.982)" d="m4.1479 1.064 9.6602-5.5781" fill="none" stroke="#000" stroke-linecap="round" stroke-miterlimit="10" stroke-width=".59758"/>
<g>
<use x="212.815" y="11.721" xlink:href="#a"/>
</g>
<path transform="matrix(1 0 0 -1 223.14 8.261)" d="m-2.8125e-4 -0.85228c-0.35547 0-0.64453-0.28516-0.64453-0.64062 0-0.35547 0.28906-0.64453 0.64453-0.64453 0.35547 0 0.64453 0.28906 0.64453 0.64453 0 0.35547-0.28906 0.64062-0.64453 0.64062zm0 2.9883c-0.35547 0-0.64453-0.28516-0.64453-0.64062s0.28906-0.64453 0.64453-0.64453c0.35547 0 0.64453 0.28906 0.64453 0.64453s-0.28906 0.64062-0.64453 0.64062z" stroke="#000" stroke-miterlimit="10" stroke-width=".3985"/>
<path transform="matrix(1 0 0 -1 216.48 1.813)" d="m0.85103 5e-4c0-0.35547 0.28906-0.64453 0.64453-0.64453 0.35547 0 0.64062 0.28906 0.64062 0.64453s-0.28516 0.64453-0.64062 0.64453c-0.35547 0-0.64453-0.28906-0.64453-0.64453zm-2.9883 0c0-0.35547 0.28906-0.64453 0.64453-0.64453 0.35547 0 0.64062 0.28906 0.64062 0.64453s-0.28516 0.64453-0.64062 0.64453c-0.35547 0-0.64453-0.28906-0.64453-0.64453z" stroke="#000" stroke-miterlimit="10" stroke-width=".3985"/>
<path transform="matrix(1 0 0 -1 210.32 8.261)" d="m2.1875e-4 0.85084c0.35547 0 0.64453 0.28906 0.64453 0.64453s-0.28906 0.64062-0.64453 0.64062c-0.35547 0-0.64453-0.28516-0.64453-0.64062s0.28906-0.64453 0.64453-0.64453zm0-2.9883c0.35547 0 0.64453 0.28906 0.64453 0.64453 0 0.35547-0.28906 0.64062-0.64453 0.64062-0.35547 0-0.64453-0.28516-0.64453-0.64062 0-0.35547 0.28906-0.64453 0.64453-0.64453z" stroke="#000" stroke-miterlimit="10" stroke-width=".3985"/>
<path transform="matrix(1 0 0 -1 216.48 32.982)" d="m-5.3125e-4 8.5132v11.156" fill="none" stroke="#000" stroke-linecap="round" stroke-miterlimit="10" stroke-width=".59758"/>
<g>
<use x="193.959" y="43.868" xlink:href="#a"/>
</g>
<path transform="matrix(1 0 0 -1 197.63 46.857)" d="m-0.85256 0.0015312c0 0.35547-0.28516 0.64062-0.64062 0.64062-0.35547 0-0.64453-0.28516-0.64453-0.64062 0-0.35547 0.28906-0.64453 0.64453-0.64453 0.35547 0 0.64062 0.28906 0.64062 0.64453zm2.9922 0c0 0.35547-0.28906 0.64062-0.64453 0.64062s-0.64453-0.28516-0.64453-0.64062c0-0.35547 0.28906-0.64453 0.64453-0.64453s0.64453 0.28906 0.64453 0.64453z" stroke="#000" stroke-miterlimit="10" stroke-width=".3985"/>
<path transform="matrix(1 0 0 -1 191.6 36.931)" d="m0.42534 0.73569c0.30859-0.17578 0.70312-0.070312 0.87891 0.23828 0.17969 0.30469 0.074219 0.69922-0.23438 0.87891-0.30859 0.17578-0.70312 0.070312-0.87891-0.23828-0.17969-0.30469-0.074219-0.69922 0.23438-0.87891zm-1.4961-2.5859c0.30859-0.17969 0.70312-0.074219 0.87891 0.23438 0.17969 0.30859 0.074219 0.70312-0.23438 0.87891-0.30859 0.17578-0.69922 0.070313-0.87891-0.23438-0.17578-0.30859-0.070312-0.70312 0.23438-0.87891z" stroke="#000" stroke-miterlimit="10" stroke-width=".3985"/>
<path transform="matrix(1 0 0 -1 216.48 32.982)" d="m-3.524-0.014094-9.6641-5.5781" fill="none" stroke="#000" stroke-linecap="round" stroke-miterlimit="10" stroke-width=".59758"/>
<path transform="matrix(1 0 0 -1 216.48 32.982)" d="m-4.7701 2.1422-9.6602-5.5781" fill="none" stroke="#000" stroke-linecap="round" stroke-miterlimit="10" stroke-width=".59758"/>
<g>
<use x="213.617" y="60.413" xlink:href="#c"/>
</g>
</svg>
