<?xml version="1.0" encoding="UTF-8"?>
<svg width="257pt" height="76pt" version="1.1" viewBox="0 0 257 76" xmlns="http://www.w3.org/2000/svg" xmlns:xlink="http://www.w3.org/1999/xlink">
<defs>
<symbol id="b" overflow="visible">
<path d="m5.7969-4.9062c0-1.0625-0.98438-2.0156-2.3594-2.0156h-2.4844v6.9219h0.89062v-2.875h1.6719c1.2344 0 2.2812-0.90625 2.2812-2.0312zm-0.79688 0c0 0.79688-0.64062 1.4531-1.7812 1.4531h-1.4062v-2.9062h1.4062c1.0938 0 1.7812 0.60938 1.7812 1.4531z"/>
</symbol>
<symbol id="a" overflow="visible">
<path d="m6.7656-3.4375c0-2.0938-1.4375-3.7031-3.0938-3.7031-1.7031 0-3.1094 1.625-3.1094 3.7031 0 2.1094 1.4688 3.6562 3.0938 3.6562 1.6719 0 3.1094-1.5625 3.1094-3.6562zm-0.89062-0.15625c0 1.9531-1.0625 3.1719-2.2031 3.1719-1.1719 0-2.2188-1.25-2.2188-3.1719 0-1.8125 1.0938-2.9062 2.2031-2.9062 1.1562 0 2.2188 1.125 2.2188 2.9062z"/>
</symbol>
<symbol id="e" overflow="visible">
<path d="m4.9219 0v-0.46875h-1.3906v-5.7344c0-0.23438 0-0.32812-0.26562-0.32812-0.10938 0-0.125 0-0.21875 0.078125-0.76562 0.5625-1.7969 0.5625-2 0.5625h-0.20312v0.46875h0.20312c0.15625 0 0.70312-0.015625 1.2969-0.20312v5.1562h-1.3906v0.46875c0.4375-0.03125 1.5-0.03125 1.9844-0.03125s1.5469 0 1.9844 0.03125z"/>
</symbol>
<symbol id="d" overflow="visible">
<path d="m5.1562-2.2188h-0.46875c-0.03125 0.20312-0.125 0.84375-0.26562 0.90625-0.10938 0.0625-0.85938 0.0625-1.0156 0.0625h-1.4688c0.46875-0.39062 1-0.8125 1.4375-1.1406 1.1406-0.84375 1.7812-1.3125 1.7812-2.25 0-1.1562-1.0469-1.8906-2.4375-1.8906-1.2188 0-2.1562 0.625-2.1562 1.5156 0 0.59375 0.48438 0.73438 0.71875 0.73438 0.32812 0 0.71875-0.21875 0.71875-0.71875 0-0.51562-0.42188-0.67188-0.5625-0.71875 0.28125-0.23438 0.67188-0.34375 1.0312-0.34375 0.84375 0 1.3125 0.67188 1.3125 1.4219 0 0.6875-0.375 1.375-1.0781 2.0781l-2 2.0469c-0.14062 0.10938-0.14062 0.14062-0.14062 0.34375v0.17188h4.2812z"/>
</symbol>
<symbol id="c" overflow="visible">
<path d="m5.25-1.7969c0-0.54688-0.29688-1.4062-1.7344-1.7188 0.6875-0.20312 1.4062-0.76562 1.4062-1.625 0-0.76562-0.75-1.3906-2.1562-1.3906-1.1875 0-1.9688 0.64062-1.9688 1.4375 0 0.42188 0.3125 0.70312 0.6875 0.70312 0.45312 0 0.70312-0.32812 0.70312-0.6875 0-0.57812-0.54688-0.6875-0.57812-0.70312 0.34375-0.28125 0.78125-0.35938 1.0938-0.35938 0.82812 0 0.85938 0.64062 0.85938 0.96875 0 0.125-0.015625 1.4375-1.0469 1.5-0.40625 0.015625-0.4375 0.015625-0.48438 0.03125-0.09375 0.015625-0.125 0.10938-0.125 0.17188 0 0.17188 0.10938 0.17188 0.28125 0.17188h0.4375c1.0938 0 1.0938 0.98438 1.0938 1.5 0 0.46875 0 1.4844-1.0312 1.4844-0.26562 0-0.78125-0.046875-1.2656-0.34375 0.32812-0.09375 0.57812-0.34375 0.57812-0.75 0-0.45312-0.3125-0.75-0.75-0.75-0.42188 0-0.76562 0.26562-0.76562 0.76562 0 0.90625 0.96875 1.5 2.25 1.5 1.7812 0 2.5156-1 2.5156-1.9062z"/>
</symbol>
</defs>
<g>
<use x="25.911" y="32.982" xlink:href="#b"/>
<use x="46.618" y="32.982" xlink:href="#a"/>
</g>
<path transform="matrix(1,0,0,-1,53.892,35.77)" d="m-0.73575-0.42531c-0.17969 0.30859-0.57422 0.41406-0.87891 0.23438-0.30859-0.17578-0.41406-0.57031-0.23828-0.87891 0.17969-0.30859 0.57422-0.41406 0.87891-0.23438 0.30859 0.17578 0.41406 0.57031 0.23828 0.87891zm2.5859 1.4961c-0.17578 0.30469-0.57031 0.41016-0.87891 0.23438-0.30469-0.17969-0.41016-0.57031-0.23438-0.87891 0.17969-0.30859 0.57031-0.41406 0.87891-0.23438 0.30859 0.17578 0.41406 0.57031 0.23438 0.87891z" stroke="#000" stroke-miterlimit="10" stroke-width=".3985"/>
<path transform="matrix(1,0,0,-1,53.892,23.275)" d="m0.73691-0.42422c-0.17578-0.30859-0.070312-0.70312 0.23438-0.87891 0.30859-0.17969 0.70312-0.074219 0.87891 0.23438 0.17969 0.30859 0.074218 0.69922-0.23438 0.87891-0.30859 0.17578-0.69922 0.070313-0.87891-0.23438zm-2.5898 1.4922c-0.17578-0.30859-0.070313-0.69922 0.23828-0.87891 0.30469-0.17578 0.69922-0.070312 0.87891 0.23828 0.17578 0.30469 0.070313 0.69922-0.23828 0.87891-0.30469 0.17578-0.69922 0.070312-0.87891-0.23828z" stroke="#000" stroke-miterlimit="10" stroke-width=".3985"/>
<path transform="matrix(1,0,0,-1,29.093,32.982)" d="m4.7781 4.7047h11.152" fill="none" stroke="#000" stroke-linecap="round" stroke-miterlimit="10" stroke-width=".59758"/>
<path transform="matrix(1,0,0,-1,29.093,32.982)" d="m4.7781 2.2125h11.152" fill="none" stroke="#000" stroke-linecap="round" stroke-miterlimit="10" stroke-width=".59758"/>
<g>
<use x="25.426" y="11.721" xlink:href="#a"/>
</g>
<path transform="matrix(1,0,0,-1,35.117,4.783)" d="m0.42597-0.73653c-0.30859-0.17969-0.41406-0.57031-0.23438-0.87891 0.17578-0.30859 0.57031-0.41406 0.87891-0.23438 0.30469 0.17578 0.41016 0.57031 0.23438 0.87891-0.17969 0.30469-0.57031 0.41016-0.87891 0.23438zm-1.4961 2.5898c-0.30469-0.17969-0.41016-0.57422-0.23438-0.87891 0.17969-0.30859 0.57031-0.41406 0.87891-0.23828 0.30859 0.17969 0.41406 0.57031 0.23438 0.87891-0.17578 0.30859-0.57031 0.41406-0.87891 0.23828z" stroke="#000" stroke-miterlimit="10" stroke-width=".3985"/>
<path transform="matrix(1,0,0,-1,23.069,4.783)" d="m0.42709 0.73612c0.30469-0.17578 0.69922-0.070313 0.87891 0.23828 0.17578 0.30469 0.070313 0.69922-0.23828 0.87891-0.30469 0.17578-0.69922 0.070313-0.87891-0.23828-0.17578-0.30859-0.070313-0.69922 0.23828-0.87891zm-1.4961-2.5859c0.30859-0.17969 0.70312-0.074218 0.87891 0.23438 0.17969 0.30859 0.074219 0.69922-0.23438 0.87891-0.30859 0.17578-0.70312 0.070312-0.87891-0.23438-0.17969-0.30859-0.074219-0.70312 0.23438-0.87891z" stroke="#000" stroke-miterlimit="10" stroke-width=".3985"/>
<path transform="matrix(1,0,0,-1,29.093,32.982)" d="m-1.2453 8.5132v11.156" fill="none" stroke="#000" stroke-linecap="round" stroke-miterlimit="10" stroke-width=".59758"/>
<path transform="matrix(1,0,0,-1,29.093,32.982)" d="m1.2468 8.5132v11.156" fill="none" stroke="#000" stroke-linecap="round" stroke-miterlimit="10" stroke-width=".59758"/>
<g>
<use x="4.234" y="32.982" xlink:href="#a"/>
</g>
<path transform="matrix(1,0,0,-1,7.901,23.075)" d="m0.85291 7.8125e-4c0-0.35547 0.28516-0.64453 0.64062-0.64453 0.35547 0 0.64453 0.28906 0.64453 0.64453 0 0.35547-0.28906 0.64453-0.64453 0.64453-0.35547 0-0.64062-0.28906-0.64062-0.64453zm-2.9922 0c0-0.35547 0.28906-0.64453 0.64453-0.64453s0.64453 0.28906 0.64453 0.64453c0 0.35547-0.28906 0.64453-0.64453 0.64453s-0.64453-0.28906-0.64453-0.64453z" stroke="#000" stroke-miterlimit="10" stroke-width=".3985"/>
<path transform="matrix(1,0,0,-1,1.245,29.523)" d="m0.0010938 0.85112c0.35547 0 0.64063 0.28906 0.64063 0.64453s-0.28516 0.64062-0.64063 0.64062c-0.35547 0-0.64453-0.28516-0.64453-0.64062s0.28906-0.64453 0.64453-0.64453zm0-2.9883c0.35547 0 0.64063 0.28906 0.64063 0.64453s-0.28516 0.64062-0.64063 0.64062c-0.35547 0-0.64453-0.28516-0.64453-0.64062s0.28906-0.64453 0.64453-0.64453z" stroke="#000" stroke-miterlimit="10" stroke-width=".3985"/>
<path transform="matrix(1,0,0,-1,7.901,35.971)" d="m-0.85022-0.0016562c0 0.35547-0.28906 0.64453-0.64453 0.64453s-0.64453-0.28906-0.64453-0.64453c0-0.35547 0.28906-0.64062 0.64453-0.64062s0.64453 0.28516 0.64453 0.64062zm2.9883 0c0 0.35547-0.28906 0.64453-0.64453 0.64453-0.35547 0-0.64062-0.28906-0.64062-0.64453 0-0.35547 0.28516-0.64062 0.64062-0.64062 0.35547 0 0.64453 0.28516 0.64453 0.64062z" stroke="#000" stroke-miterlimit="10" stroke-width=".3985"/>
<path transform="matrix(1,0,0,-1,29.093,32.982)" d="m-4.7766 3.4586h-11.156" fill="none" stroke="#000" stroke-linecap="round" stroke-miterlimit="10" stroke-width=".59758"/>
<g>
<use x="25.426" y="54.243" xlink:href="#a"/>
</g>
<path transform="matrix(1,0,0,-1,35.749,50.784)" d="m1e-3 -0.85272c-0.35547 0-0.64453-0.28516-0.64453-0.64062s0.28906-0.64453 0.64453-0.64453 0.64062 0.28906 0.64062 0.64453-0.28516 0.64062-0.64062 0.64062zm0 2.9922c-0.35547 0-0.64453-0.28906-0.64453-0.64453 0-0.35547 0.28906-0.64453 0.64453-0.64453s0.64062 0.28906 0.64062 0.64453c0 0.35547-0.28516 0.64453-0.64062 0.64453z" stroke="#000" stroke-miterlimit="10" stroke-width=".3985"/>
<path transform="matrix(1,0,0,-1,22.437,50.784)" d="m5e-4 0.85041c0.35547 0 0.64453 0.28906 0.64453 0.64453 0 0.35547-0.28906 0.64453-0.64453 0.64453s-0.64453-0.28906-0.64453-0.64453c0-0.35547 0.28906-0.64453 0.64453-0.64453zm0-2.9883c0.35547 0 0.64453 0.28906 0.64453 0.64453s-0.28906 0.64062-0.64453 0.64062-0.64453-0.28516-0.64453-0.64062 0.28906-0.64453 0.64453-0.64453z" stroke="#000" stroke-miterlimit="10" stroke-width=".3985"/>
<path transform="matrix(1,0,0,-1,29.093,57.232)" d="m-0.85081 0.0015312c0 0.35547-0.28906 0.64062-0.64453 0.64062-0.35547 0-0.64062-0.28516-0.64062-0.64062 0-0.35547 0.28516-0.64453 0.64062-0.64453 0.35547 0 0.64453 0.28906 0.64453 0.64453zm2.9883 0c0 0.35547-0.28906 0.64062-0.64453 0.64062-0.35547 0-0.64062-0.28516-0.64062-0.64062 0-0.35547 0.28516-0.64453 0.64062-0.64453 0.35547 0 0.64453 0.28906 0.64453 0.64453z" stroke="#000" stroke-miterlimit="10" stroke-width=".3985"/>
<path transform="matrix(1,0,0,-1,29.093,32.982)" d="m7.5e-4 -1.5922v-11.156" fill="none" stroke="#000" stroke-linecap="round" stroke-miterlimit="10" stroke-width=".59758"/>
<g>
<use x="26.229" y="75.77" xlink:href="#e"/>
</g>
<path transform="matrix(1,0,0,-1,4.234,32.982)" d="m61.614 2.1461h26.023" fill="none" stroke="#000" stroke-miterlimit="10" stroke-width=".3985"/>
<path transform="matrix(-1 0 0 1 68.559 30.837)" d="m4.4458-0.0013525-3.2852 1.3164 1.6484-1.3164-1.6484-1.3125z" stroke="#000" stroke-linejoin="round" stroke-miterlimit="10" stroke-width=".3985"/>
<path transform="matrix(1 0 0 -1 89.159 30.837)" d="m4.4463 0.0013525-3.2852 1.3125 1.6484-1.3125-1.6484-1.3164z" stroke="#000" stroke-linejoin="round" stroke-miterlimit="10" stroke-width=".3985"/>
<g>
<use x="125.441" y="32.982" xlink:href="#b"/>
<use x="146.149" y="32.982" xlink:href="#a"/>
</g>
<path transform="matrix(1 0 0 -1 149.82 23.075)" d="m0.85197 7.8125e-4c0-0.35547 0.28906-0.64453 0.64062-0.64453 0.35547 0 0.64453 0.28906 0.64453 0.64453 0 0.35547-0.28906 0.64453-0.64453 0.64453-0.35156 0-0.64062-0.28906-0.64062-0.64453zm-2.9883 0c0-0.35547 0.28516-0.64453 0.64062-0.64453 0.35547 0 0.64453 0.28906 0.64453 0.64453 0 0.35547-0.28906 0.64453-0.64453 0.64453-0.35547 0-0.64062-0.28906-0.64062-0.64453z" stroke="#000" stroke-miterlimit="10" stroke-width=".3985"/>
<path transform="matrix(1 0 0 -1 156.47 29.523)" d="m0.0016562-0.852c-0.35547 0-0.64453-0.28516-0.64453-0.64062s0.28906-0.64453 0.64453-0.64453c0.35547 0 0.64062 0.28906 0.64062 0.64453s-0.28516 0.64062-0.64062 0.64062zm0 2.9883c-0.35547 0-0.64453-0.28516-0.64453-0.64062s0.28906-0.64453 0.64453-0.64453c0.35547 0 0.64062 0.28906 0.64062 0.64453s-0.28516 0.64062-0.64062 0.64062z" stroke="#000" stroke-miterlimit="10" stroke-width=".3985"/>
<path transform="matrix(1 0 0 -1 149.82 35.971)" d="m-0.85116-0.0016562c0 0.35547-0.28906 0.64453-0.64453 0.64453-0.35547 0-0.64062-0.28906-0.64062-0.64453 0-0.35547 0.28516-0.64062 0.64062-0.64062 0.35547 0 0.64453 0.28516 0.64453 0.64062zm2.9883 0c0 0.35547-0.28906 0.64453-0.64453 0.64453-0.35156 0-0.64062-0.28906-0.64062-0.64453 0-0.35547 0.28906-0.64062 0.64062-0.64062 0.35547 0 0.64453 0.28516 0.64453 0.64062z" stroke="#000" stroke-miterlimit="10" stroke-width=".3985"/>
<path transform="matrix(1 0 0 -1 128.62 32.982)" d="m4.7744 3.4586h11.156" fill="none" stroke="#000" stroke-linecap="round" stroke-miterlimit="10" stroke-width=".59758"/>
<g>
<use x="124.957" y="11.721" xlink:href="#a"/>
</g>
<path transform="matrix(1 0 0 -1 134.65 4.783)" d="m0.42622-0.73653c-0.30859-0.17969-0.41406-0.57031-0.23438-0.87891 0.17578-0.30859 0.57031-0.41406 0.87891-0.23438 0.30469 0.17578 0.41016 0.57031 0.23438 0.87891-0.17969 0.30469-0.57031 0.41016-0.87891 0.23438zm-1.4961 2.5898c-0.30859-0.17969-0.41406-0.57422-0.23438-0.87891 0.17578-0.30859 0.57031-0.41406 0.87891-0.23828 0.30859 0.17969 0.41406 0.57031 0.23438 0.87891-0.17578 0.30859-0.57031 0.41406-0.87891 0.23828z" stroke="#000" stroke-miterlimit="10" stroke-width=".3985"/>
<path transform="matrix(1,0,0,-1,122.6,4.783)" d="m0.42734 0.73612c0.30469-0.17578 0.69922-0.070313 0.87891 0.23828 0.17578 0.30469 0.070313 0.69922-0.23828 0.87891-0.30859 0.17578-0.69922 0.070313-0.87891-0.23828-0.17578-0.30859-0.070313-0.69922 0.23828-0.87891zm-1.4961-2.5859c0.30859-0.17969 0.69922-0.074218 0.87891 0.23438 0.17578 0.30859 0.070313 0.69922-0.23438 0.87891-0.30859 0.17578-0.70312 0.070312-0.87891-0.23438-0.17969-0.30859-0.074219-0.70312 0.23438-0.87891z" stroke="#000" stroke-miterlimit="10" stroke-width=".3985"/>
<path transform="matrix(1 0 0 -1 128.62 32.982)" d="m-1.2451 8.5132v11.156" fill="none" stroke="#000" stroke-linecap="round" stroke-miterlimit="10" stroke-width=".59758"/>
<path transform="matrix(1 0 0 -1 128.62 32.982)" d="m1.2432 8.5132v11.156" fill="none" stroke="#000" stroke-linecap="round" stroke-miterlimit="10" stroke-width=".59758"/>
<g>
<use x="103.765" y="32.982" xlink:href="#a"/>
</g>
<path transform="matrix(1 0 0 -1 107.43 23.075)" d="m0.84925 7.8125e-4c0-0.35547 0.28906-0.64453 0.64453-0.64453 0.35547 0 0.64453 0.28906 0.64453 0.64453 0 0.35547-0.28906 0.64453-0.64453 0.64453-0.35547 0-0.64453-0.28906-0.64453-0.64453zm-2.9883 0c0-0.35547 0.28906-0.64453 0.64453-0.64453s0.64453 0.28906 0.64453 0.64453c0 0.35547-0.28906 0.64453-0.64453 0.64453s-0.64453-0.28906-0.64453-0.64453z" stroke="#000" stroke-miterlimit="10" stroke-width=".3985"/>
<path transform="matrix(1 0 0 -1 100.78 29.523)" d="m0.0013438 0.85112c0.35547 0 0.64063 0.28906 0.64063 0.64453s-0.28516 0.64062-0.64063 0.64062c-0.35547 0-0.64453-0.28516-0.64453-0.64062s0.28906-0.64453 0.64453-0.64453zm0-2.9883c0.35547 0 0.64063 0.28906 0.64063 0.64453s-0.28516 0.64062-0.64063 0.64062c-0.35547 0-0.64453-0.28516-0.64453-0.64062s0.28906-0.64453 0.64453-0.64453z" stroke="#000" stroke-miterlimit="10" stroke-width=".3985"/>
<path transform="matrix(1 0 0 -1 107.43 35.971)" d="m-0.84997-0.0016562c0 0.35547-0.28906 0.64453-0.64453 0.64453s-0.64453-0.28906-0.64453-0.64453c0-0.35547 0.28906-0.64062 0.64453-0.64062s0.64453 0.28516 0.64453 0.64062zm2.9883 0c0 0.35547-0.28906 0.64453-0.64453 0.64453-0.35547 0-0.64453-0.28906-0.64453-0.64453 0-0.35547 0.28906-0.64062 0.64453-0.64062 0.35547 0 0.64453 0.28516 0.64453 0.64062z" stroke="#000" stroke-miterlimit="10" stroke-width=".3985"/>
<path transform="matrix(1 0 0 -1 128.62 32.982)" d="m-4.7763 3.4586h-11.156" fill="none" stroke="#000" stroke-linecap="round" stroke-miterlimit="10" stroke-width=".59758"/>
<g>
<use x="124.957" y="54.243" xlink:href="#a"/>
</g>
<path transform="matrix(1 0 0 -1 135.28 50.784)" d="m-0.0016562-0.85272c-0.35547 0-0.64062-0.28516-0.64062-0.64062s0.28516-0.64453 0.64062-0.64453c0.35547 0 0.64453 0.28906 0.64453 0.64453s-0.28906 0.64062-0.64453 0.64062zm0 2.9922c-0.35547 0-0.64062-0.28906-0.64062-0.64453 0-0.35547 0.28516-0.64453 0.64062-0.64453 0.35547 0 0.64453 0.28906 0.64453 0.64453 0 0.35547-0.28906 0.64453-0.64453 0.64453z" stroke="#000" stroke-miterlimit="10" stroke-width=".3985"/>
<path transform="matrix(1 0 0 -1 121.97 50.784)" d="m7.5e-4 0.85041c0.35547 0 0.64453 0.28906 0.64453 0.64453 0 0.35547-0.28906 0.64453-0.64453 0.64453s-0.64453-0.28906-0.64453-0.64453c0-0.35547 0.28906-0.64453 0.64453-0.64453zm0-2.9883c0.35547 0 0.64453 0.28906 0.64453 0.64453s-0.28906 0.64062-0.64453 0.64062-0.64453-0.28516-0.64453-0.64062 0.28906-0.64453 0.64453-0.64453z" stroke="#000" stroke-miterlimit="10" stroke-width=".3985"/>
<path transform="matrix(1 0 0 -1 128.62 57.232)" d="m-0.85056 0.0015312c0 0.35547-0.28906 0.64062-0.64453 0.64062-0.35547 0-0.64453-0.28516-0.64453-0.64062 0-0.35547 0.28906-0.64453 0.64453-0.64453 0.35547 0 0.64453 0.28906 0.64453 0.64453zm2.9883 0c0 0.35547-0.28906 0.64062-0.64453 0.64062-0.35547 0-0.64062-0.28516-0.64062-0.64062 0-0.35547 0.28516-0.64453 0.64062-0.64453 0.35547 0 0.64453 0.28906 0.64453 0.64453z" stroke="#000" stroke-miterlimit="10" stroke-width=".3985"/>
<path transform="matrix(1 0 0 -1 128.62 32.982)" d="m1e-3 -1.5922v-11.156" fill="none" stroke="#000" stroke-linecap="round" stroke-miterlimit="10" stroke-width=".59758"/>
<g>
<use x="125.76" y="75.77" xlink:href="#d"/>
</g>
<path transform="matrix(1,0,0,-1,4.234,32.982)" d="m161.15 2.1461h26.02" fill="none" stroke="#000" stroke-miterlimit="10" stroke-width=".3985"/>
<path transform="matrix(-1 0 0 1 168.09 30.837)" d="m4.4466-0.0013525-3.2852 1.3164 1.6484-1.3164-1.6484-1.3125z" stroke="#000" stroke-linejoin="round" stroke-miterlimit="10" stroke-width=".3985"/>
<path transform="matrix(1 0 0 -1 188.69 30.837)" d="m4.4455 0.0013525-3.2852 1.3125 1.6484-1.3125-1.6484-1.3164z" stroke="#000" stroke-linejoin="round" stroke-miterlimit="10" stroke-width=".3985"/>
<g>
<use x="224.972" y="32.982" xlink:href="#b"/>
<use x="245.68" y="32.982" xlink:href="#a"/>
</g>
<path transform="matrix(1 0 0 -1 249.35 23.075)" d="m0.85222 7.8125e-4c0-0.35547 0.28516-0.64453 0.64062-0.64453 0.35547 0 0.64453 0.28906 0.64453 0.64453 0 0.35547-0.28906 0.64453-0.64453 0.64453-0.35547 0-0.64062-0.28906-0.64062-0.64453zm-2.9883 0c0-0.35547 0.28516-0.64453 0.64062-0.64453 0.35547 0 0.64453 0.28906 0.64453 0.64453 0 0.35547-0.28906 0.64453-0.64453 0.64453-0.35547 0-0.64062-0.28906-0.64062-0.64453z" stroke="#000" stroke-miterlimit="10" stroke-width=".3985"/>
<path transform="matrix(1 0 0 -1 256 29.523)" d="m0.0019062-0.852c-0.35547 0-0.64453-0.28516-0.64453-0.64062s0.28906-0.64453 0.64453-0.64453c0.35156 0 0.64062 0.28906 0.64062 0.64453s-0.28906 0.64062-0.64062 0.64062zm0 2.9883c-0.35547 0-0.64453-0.28516-0.64453-0.64062s0.28906-0.64453 0.64453-0.64453c0.35156 0 0.64062 0.28906 0.64062 0.64453s-0.28906 0.64062-0.64062 0.64062z" stroke="#000" stroke-miterlimit="10" stroke-width=".3985"/>
<path transform="matrix(1 0 0 -1 249.35 35.971)" d="m-0.85091-0.0016562c0 0.35547-0.28906 0.64453-0.64453 0.64453-0.35547 0-0.64062-0.28906-0.64062-0.64453 0-0.35547 0.28516-0.64062 0.64062-0.64062 0.35547 0 0.64453 0.28516 0.64453 0.64062zm2.9883 0c0 0.35547-0.28906 0.64453-0.64453 0.64453-0.35547 0-0.64062-0.28906-0.64062-0.64453 0-0.35547 0.28516-0.64062 0.64062-0.64062 0.35547 0 0.64453 0.28516 0.64453 0.64062z" stroke="#000" stroke-miterlimit="10" stroke-width=".3985"/>
<path transform="matrix(1 0 0 -1 228.16 32.982)" d="m4.7747 3.4586h11.156" fill="none" stroke="#000" stroke-linecap="round" stroke-miterlimit="10" stroke-width=".59758"/>
<g>
<use x="224.488" y="11.721" xlink:href="#a"/>
</g>
<path transform="matrix(1,0,0,-1,234.81,8.261)" d="m-0.0014062-0.85228c-0.35547 0-0.64062-0.28516-0.64062-0.64062 0-0.35547 0.28516-0.64453 0.64062-0.64453 0.35547 0 0.64453 0.28906 0.64453 0.64453 0 0.35547-0.28906 0.64062-0.64453 0.64062zm0 2.9883c-0.35547 0-0.64062-0.28516-0.64062-0.64062s0.28516-0.64453 0.64062-0.64453c0.35547 0 0.64453 0.28906 0.64453 0.64453s-0.28906 0.64062-0.64453 0.64062z" stroke="#000" stroke-miterlimit="10" stroke-width=".3985"/>
<path transform="matrix(1 0 0 -1 228.16 1.813)" d="m0.85281 5e-4c0-0.35547 0.28516-0.64453 0.64062-0.64453 0.35547 0 0.64453 0.28906 0.64453 0.64453s-0.28906 0.64453-0.64453 0.64453c-0.35547 0-0.64062-0.28906-0.64062-0.64453zm-2.9922 0c0-0.35547 0.28906-0.64453 0.64453-0.64453s0.64453 0.28906 0.64453 0.64453-0.28906 0.64453-0.64453 0.64453-0.64453-0.28906-0.64453-0.64453z" stroke="#000" stroke-miterlimit="10" stroke-width=".3985"/>
<path transform="matrix(1 0 0 -1 222 8.261)" d="m-9.0625e-4 0.85084c0.35547 0 0.64453 0.28906 0.64453 0.64453s-0.28906 0.64062-0.64453 0.64062c-0.35547 0-0.64062-0.28516-0.64062-0.64062s0.28516-0.64453 0.64062-0.64453zm0-2.9883c0.35547 0 0.64453 0.28906 0.64453 0.64453 0 0.35547-0.28906 0.64062-0.64453 0.64062-0.35547 0-0.64062-0.28516-0.64062-0.64062 0-0.35547 0.28516-0.64453 0.64062-0.64453z" stroke="#000" stroke-miterlimit="10" stroke-width=".3985"/>
<path transform="matrix(1 0 0 -1 228.16 32.982)" d="m0.00125 8.5132v11.156" fill="none" stroke="#000" stroke-linecap="round" stroke-miterlimit="10" stroke-width=".59758"/>
<g>
<use x="203.296" y="32.982" xlink:href="#a"/>
</g>
<path transform="matrix(1 0 0 -1 206.96 23.075)" d="m0.8495 7.8125e-4c0-0.35547 0.28906-0.64453 0.64453-0.64453 0.35547 0 0.64453 0.28906 0.64453 0.64453 0 0.35547-0.28906 0.64453-0.64453 0.64453-0.35547 0-0.64453-0.28906-0.64453-0.64453zm-2.9883 0c0-0.35547 0.28906-0.64453 0.64453-0.64453s0.64453 0.28906 0.64453 0.64453c0 0.35547-0.28906 0.64453-0.64453 0.64453s-0.64453-0.28906-0.64453-0.64453z" stroke="#000" stroke-miterlimit="10" stroke-width=".3985"/>
<path transform="matrix(1 0 0 -1 200.31 29.523)" d="m0.0015938 0.85112c0.35547 0 0.64063 0.28906 0.64063 0.64453s-0.28516 0.64062-0.64063 0.64062c-0.35547 0-0.64453-0.28516-0.64453-0.64062s0.28906-0.64453 0.64453-0.64453zm0-2.9883c0.35547 0 0.64063 0.28906 0.64063 0.64453s-0.28516 0.64062-0.64063 0.64062c-0.35547 0-0.64453-0.28516-0.64453-0.64062s0.28906-0.64453 0.64453-0.64453z" stroke="#000" stroke-miterlimit="10" stroke-width=".3985"/>
<path transform="matrix(1 0 0 -1 206.96 35.971)" d="m-0.84972-0.0016562c0 0.35547-0.28906 0.64453-0.64453 0.64453s-0.64453-0.28906-0.64453-0.64453c0-0.35547 0.28906-0.64062 0.64453-0.64062s0.64453 0.28516 0.64453 0.64062zm2.9883 0c0 0.35547-0.28906 0.64453-0.64453 0.64453-0.35547 0-0.64453-0.28906-0.64453-0.64453 0-0.35547 0.28906-0.64062 0.64453-0.64062 0.35547 0 0.64453 0.28516 0.64453 0.64062z" stroke="#000" stroke-miterlimit="10" stroke-width=".3985"/>
<path transform="matrix(1 0 0 -1 228.16 32.982)" d="m-4.7761 3.4586h-11.156" fill="none" stroke="#000" stroke-linecap="round" stroke-miterlimit="10" stroke-width=".59758"/>
<g>
<use x="224.488" y="54.243" xlink:href="#a"/>
</g>
<path transform="matrix(1,0,0,-1,234.81,50.784)" d="m-0.0014062-0.85272c-0.35547 0-0.64062-0.28516-0.64062-0.64062s0.28516-0.64453 0.64062-0.64453c0.35547 0 0.64453 0.28906 0.64453 0.64453s-0.28906 0.64062-0.64453 0.64062zm0 2.9922c-0.35547 0-0.64062-0.28906-0.64062-0.64453 0-0.35547 0.28516-0.64453 0.64062-0.64453 0.35547 0 0.64453 0.28906 0.64453 0.64453 0 0.35547-0.28906 0.64453-0.64453 0.64453z" stroke="#000" stroke-miterlimit="10" stroke-width=".3985"/>
<path transform="matrix(1 0 0 -1 221.5 50.784)" d="m1e-3 0.85041c0.35547 0 0.64062 0.28906 0.64062 0.64453 0 0.35547-0.28516 0.64453-0.64062 0.64453s-0.64453-0.28906-0.64453-0.64453c0-0.35547 0.28906-0.64453 0.64453-0.64453zm0-2.9883c0.35547 0 0.64062 0.28906 0.64062 0.64453s-0.28516 0.64062-0.64062 0.64062-0.64453-0.28516-0.64453-0.64062 0.28906-0.64453 0.64453-0.64453z" stroke="#000" stroke-miterlimit="10" stroke-width=".3985"/>
<path transform="matrix(1 0 0 -1 228.16 57.232)" d="m-0.85031 0.0015312c0 0.35547-0.28906 0.64062-0.64453 0.64062s-0.64453-0.28516-0.64453-0.64062c0-0.35547 0.28906-0.64453 0.64453-0.64453s0.64453 0.28906 0.64453 0.64453zm2.9883 0c0 0.35547-0.28906 0.64062-0.64453 0.64062-0.35547 0-0.64062-0.28516-0.64062-0.64062 0-0.35547 0.28516-0.64453 0.64062-0.64453 0.35547 0 0.64453 0.28906 0.64453 0.64453z" stroke="#000" stroke-miterlimit="10" stroke-width=".3985"/>
<path transform="matrix(1 0 0 -1 228.16 32.982)" d="m0.00125-1.5922v-11.156" fill="none" stroke="#000" stroke-linecap="round" stroke-miterlimit="10" stroke-width=".59758"/>
<g>
<use x="225.291" y="75.77" xlink:href="#c"/>
</g>
</svg>
