<?xml version="1.0" encoding="UTF-8"?>
<svg width="221pt" height="175pt" version="1.1" viewBox="0 0 221 175" xmlns="http://www.w3.org/2000/svg" xmlns:xlink="http://www.w3.org/1999/xlink">
<defs>
<symbol id="al" overflow="visible">
<path d="m4.5781-3.1875c0-0.79688-0.046875-1.5938-0.39062-2.3281-0.45312-0.96875-1.2812-1.125-1.6875-1.125-0.60938 0-1.3281 0.26562-1.75 1.1875-0.3125 0.6875-0.35938 1.4688-0.35938 2.2656 0 0.75 0.03125 1.6406 0.45312 2.4062 0.42188 0.79688 1.1562 1 1.6406 1 0.53125 0 1.2969-0.20312 1.7344-1.1562 0.3125-0.6875 0.35938-1.4688 0.35938-2.25zm-0.8125-0.125c0 0.75 0 1.4219-0.10938 2.0625-0.15625 0.95312-0.71875 1.25-1.1719 1.25-0.39062 0-0.98438-0.25-1.1562-1.2031-0.10938-0.59375-0.10938-1.5156-0.10938-2.1094 0-0.64062 0-1.2969 0.078125-1.8281 0.1875-1.1875 0.9375-1.2812 1.1875-1.2812 0.32812 0 0.98438 0.1875 1.1719 1.1719 0.10938 0.5625 0.10938 1.3125 0.10938 1.9375z"/>
</symbol>
<symbol id="o" overflow="visible">
<path d="m8.0156-4.2812c0-1.4062-0.84375-2.5312-2.3438-2.5312h-3.3438c-0.1875 0-0.29688 0-0.29688 0.1875 0 0.125 0.078125 0.125 0.28125 0.125 0.125 0 0.3125 0.015625 0.42188 0.015625 0.17188 0.03125 0.21875 0.046875 0.21875 0.17188 0 0.03125 0 0.0625-0.03125 0.1875l-1.3438 5.3438c-0.09375 0.39062-0.10938 0.46875-0.90625 0.46875-0.15625 0-0.26562 0-0.26562 0.1875 0 0.125 0.078125 0.125 0.26562 0.125h3.3125c2.0625 0 4.0312-2.1094 4.0312-4.2812zm-0.875-0.375c0 0.48438-0.1875 2.125-1.0469 3.2188-0.28125 0.375-1.0625 1.125-2.2969 1.125h-1.125-0.21875c-0.09375-0.015625-0.125-0.03125-0.125-0.10938 0-0.03125 0-0.046875 0.046875-0.21875l1.3594-5.4844c0.09375-0.34375 0.10938-0.375 0.54688-0.375h1.0625c0.96875 0 1.7969 0.53125 1.7969 1.8438z"/>
</symbol>
<symbol id="ak" overflow="visible">
<path d="m4.3438-3.7656c0-0.34375-0.3125-0.64062-0.82812-0.64062-0.64062 0-1.0781 0.48438-1.2656 0.76562-0.09375-0.45312-0.45312-0.76562-0.92188-0.76562-0.45312 0-0.64062 0.39062-0.73438 0.5625-0.17188 0.34375-0.29688 0.9375-0.29688 0.96875 0 0.10938 0.10938 0.10938 0.10938 0.10938 0.10938 0 0.10938-0.015625 0.17188-0.23438 0.17188-0.70312 0.375-1.1875 0.73438-1.1875 0.15625 0 0.29688 0.078125 0.29688 0.45312 0 0.21875-0.03125 0.32812-0.15625 0.84375l-0.57812 2.2969c-0.03125 0.15625-0.09375 0.39062-0.09375 0.4375 0 0.17188 0.14062 0.26562 0.29688 0.26562 0.125 0 0.29688-0.078125 0.375-0.28125 0.015625-0.03125 0.34375-1.3906 0.39062-1.5781l0.3125-1.2969c0.046875-0.125 0.32812-0.59375 0.5625-0.8125 0.078125-0.0625 0.375-0.32812 0.79688-0.32812 0.26562 0 0.42188 0.125 0.42188 0.125-0.29688 0.046875-0.51562 0.28125-0.51562 0.54688 0 0.15625 0.10938 0.34375 0.375 0.34375s0.54688-0.23438 0.54688-0.59375z"/>
</symbol>
<symbol id="n" overflow="visible">
<path d="m2.7812-4.3906c0-0.3125-0.3125-0.51562-0.6875-0.51562-0.54688 0-1.1875 0.39062-1.1875 1.125v0.78125h-0.59375v0.25h0.59375v2.2031c0 0.29688-0.0625 0.29688-0.51562 0.29688v0.25c0.03125 0 0.51562-0.03125 0.79688-0.03125l0.90625 0.03125v-0.25h-0.14062c-0.51562 0-0.51562-0.078125-0.51562-0.3125v-2.1875h0.875v-0.25h-0.90625v-0.78125c0-0.64062 0.375-0.92188 0.67188-0.92188 0.0625 0 0.14062 0 0.20312 0.03125-0.09375 0.046875-0.15625 0.15625-0.15625 0.28125 0 0.1875 0.14062 0.3125 0.32812 0.3125s0.32812-0.125 0.32812-0.3125z"/>
</symbol>
<symbol id="aj" overflow="visible">
<path d="m3.6875-1.4844c0-0.875-0.75-1.625-1.7031-1.625-0.96875 0-1.7188 0.75-1.7188 1.625 0 0.85938 0.76562 1.5469 1.7188 1.5469 0.9375 0 1.7031-0.6875 1.7031-1.5469zm-0.64062-0.0625c0 0.32812-0.015625 0.70312-0.21875 0.98438-0.1875 0.26562-0.5 0.40625-0.84375 0.40625-0.26562 0-0.64062-0.078125-0.875-0.42188-0.1875-0.28125-0.20312-0.64062-0.20312-0.96875 0-0.29688 0-0.71875 0.25-1.0156 0.17188-0.20312 0.46875-0.34375 0.82812-0.34375 0.40625 0 0.70312 0.1875 0.85938 0.40625 0.1875 0.26562 0.20312 0.625 0.20312 0.95312z"/>
</symbol>
<symbol id="m" overflow="visible">
<path d="m2.8438-2.625c0-0.23438-0.23438-0.45312-0.5625-0.45312-0.34375 0-0.73438 0.21875-0.9375 0.75v-0.75l-1 0.078125v0.25c0.46875 0 0.51562 0.046875 0.51562 0.39062v1.8125c0 0.29688-0.0625 0.29688-0.51562 0.29688v0.25c0.03125 0 0.5-0.03125 0.79688-0.03125l0.90625 0.03125v-0.25h-0.14062c-0.51562 0-0.51562-0.078125-0.51562-0.3125v-1.0312c0-0.57812 0.26562-1.2812 0.9375-1.2812-0.0625 0.046875-0.125 0.14062-0.125 0.25 0 0.23438 0.1875 0.3125 0.3125 0.3125 0.17188 0 0.32812-0.10938 0.32812-0.3125z"/>
</symbol>
<symbol id="ai" overflow="visible">
<path d="m2.6094-0.875v-0.39062h-0.23438v0.375c0 0.48438-0.21875 0.73438-0.5 0.73438-0.46875 0-0.46875-0.57812-0.46875-0.70312v-1.8906h1.0781v-0.25h-1.0781v-1.2812h-0.25c0 0.625-0.28125 1.3125-0.95312 1.3281v0.20312h0.64062v1.875c0 0.78125 0.59375 0.9375 0.98438 0.9375 0.46875 0 0.78125-0.39062 0.78125-0.9375z"/>
</symbol>
<symbol id="ah" overflow="visible">
<path d="m3.2656-0.84375c0-0.015625-0.015625-0.09375-0.125-0.09375-0.09375 0-0.10938 0.046875-0.125 0.10938-0.21875 0.5625-0.75 0.67188-1 0.67188-0.32812 0-0.64062-0.14062-0.84375-0.40625-0.26562-0.32812-0.26562-0.75-0.26562-1.0312h2.1562c0.15625 0 0.20312 0 0.20312-0.14062 0-0.625-0.34375-1.375-1.3906-1.375-0.90625 0-1.6094 0.71875-1.6094 1.5781 0 0.89062 0.78125 1.5938 1.7031 1.5938 0.9375 0 1.2969-0.75 1.2969-0.90625zm-0.48438-0.92188h-1.875c0.078125-0.98438 0.70312-1.1406 0.96875-1.1406 0.85938 0 0.89062 0.96875 0.90625 1.1406z"/>
</symbol>
<symbol id="l" overflow="visible">
<path d="m3.7969-0.625v-0.39062h-0.25v0.375c0 0.078125 0 0.40625-0.25 0.40625-0.26562 0-0.26562-0.32812-0.26562-0.40625v-1.2344c0-0.35938 0-0.625-0.3125-0.89062-0.28125-0.23438-0.625-0.34375-1.0312-0.34375-0.65625 0-1.125 0.25-1.125 0.67188 0 0.23438 0.14062 0.34375 0.32812 0.34375s0.32812-0.14062 0.32812-0.32812c0-0.10938-0.0625-0.26562-0.25-0.3125 0.25-0.17188 0.65625-0.17188 0.70312-0.17188 0.39062 0 0.8125 0.25 0.8125 0.84375v0.20312c-0.375 0.015625-0.84375 0.046875-1.3438 0.23438-0.625 0.21875-0.82812 0.60938-0.82812 0.92188 0 0.59375 0.71875 0.76562 1.2188 0.76562 0.5625 0 0.89062-0.3125 1.0312-0.57812 0.03125 0.28125 0.21875 0.54688 0.53125 0.54688 0 0 0.70312 0 0.70312-0.65625zm-1.3125-0.35938c0 0.67188-0.57812 0.85938-0.89062 0.85938-0.35938 0-0.6875-0.23438-0.6875-0.57812 0-0.39062 0.32812-0.92188 1.5781-0.96875z"/>
</symbol>
<symbol id="ag" overflow="visible">
<path d="m3.2656-0.84375c0-0.078125-0.09375-0.078125-0.125-0.078125-0.09375 0-0.09375 0.015625-0.125 0.125-0.15625 0.42188-0.53125 0.64062-0.95312 0.64062-0.48438 0-1.1094-0.35938-1.1094-1.3594 0-0.875 0.4375-1.375 1.0781-1.375 0.09375 0 0.42188 0 0.67188 0.10938-0.125 0.0625-0.1875 0.17188-0.1875 0.3125 0 0.1875 0.125 0.32812 0.32812 0.32812 0.1875 0 0.32812-0.125 0.32812-0.34375 0-0.625-0.96875-0.625-1.1562-0.625-1.0469 0-1.6875 0.79688-1.6875 1.6094 0 0.875 0.73438 1.5625 1.6562 1.5625 1.0312 0 1.2812-0.8125 1.2812-0.90625z"/>
</symbol>
<symbol id="af" overflow="visible">
<path d="m7.0469-3.3438c0-1.9062-1.3438-3.4688-3.0469-3.4688h-3.6562v0.3125h0.25c0.76562 0 0.78125 0.10938 0.78125 0.46875v5.25c0 0.35938-0.015625 0.46875-0.78125 0.46875h-0.25v0.3125h3.6562c1.6719 0 3.0469-1.4688 3.0469-3.3438zm-1 0c0 1.0938-0.1875 1.7031-0.54688 2.1875-0.20312 0.26562-0.76562 0.84375-1.7656 0.84375h-1.0156c-0.46875 0-0.48438-0.0625-0.48438-0.39062v-5.3906c0-0.34375 0.015625-0.40625 0.48438-0.40625h1c0.625 0 1.3125 0.21875 1.8125 0.92188 0.4375 0.59375 0.51562 1.4531 0.51562 2.2344z"/>
</symbol>
<symbol id="b" overflow="visible">
<path d="m2.4688 0v-0.3125c-0.67188 0-0.70312-0.046875-0.70312-0.4375v-3.6562l-1.3906 0.10938v0.3125c0.64062 0 0.73438 0.0625 0.73438 0.54688v2.6875c0 0.4375-0.10938 0.4375-0.78125 0.4375v0.3125l1.0938-0.03125c0.35938 0 0.70312 0.015625 1.0469 0.03125zm-0.5625-6.0156c0-0.28125-0.21875-0.53125-0.51562-0.53125-0.34375 0-0.54688 0.28125-0.54688 0.53125 0 0.26562 0.23438 0.51562 0.53125 0.51562 0.34375 0 0.53125-0.26562 0.53125-0.51562z"/>
</symbol>
<symbol id="ab" overflow="visible">
<path d="m3.5938-1.2812c0-0.51562-0.29688-0.82812-0.42188-0.9375-0.32812-0.32812-0.71875-0.40625-1.1406-0.48438-0.5625-0.10938-1.2188-0.23438-1.2188-0.8125 0-0.35938 0.25-0.76562 1.1094-0.76562 1.0938 0 1.1562 0.90625 1.1719 1.2031 0 0.09375 0.10938 0.09375 0.10938 0.09375 0.14062 0 0.14062-0.046875 0.14062-0.23438v-1.0156c0-0.15625 0-0.23438-0.10938-0.23438-0.046875 0-0.078125 0-0.20312 0.125-0.03125 0.03125-0.125 0.125-0.17188 0.15625-0.375-0.28125-0.78125-0.28125-0.9375-0.28125-1.2188 0-1.5938 0.67188-1.5938 1.2344 0 0.34375 0.15625 0.625 0.42188 0.84375 0.32812 0.25 0.60938 0.3125 1.3281 0.45312 0.21875 0.046875 1.0312 0.20312 1.0312 0.92188 0 0.5-0.34375 0.90625-1.125 0.90625-0.84375 0-1.2031-0.5625-1.3906-1.4219-0.03125-0.125-0.03125-0.15625-0.14062-0.15625-0.125 0-0.125 0.0625-0.125 0.23438v1.3281c0 0.17188 0 0.23438 0.10938 0.23438 0.046875 0 0.0625-0.015625 0.25-0.20312 0.015625-0.015625 0.015625-0.03125 0.20312-0.21875 0.4375 0.40625 0.89062 0.42188 1.0938 0.42188 1.1406 0 1.6094-0.67188 1.6094-1.3906z"/>
</symbol>
<symbol id="j" overflow="visible">
<path d="m3.3125-1.2344v-0.5625h-0.25v0.54688c0 0.73438-0.29688 1.1094-0.67188 1.1094-0.67188 0-0.67188-0.90625-0.67188-1.0781v-2.7656h1.4375v-0.3125h-1.4375v-1.8281h-0.25c0 0.8125-0.29688 1.875-1.2812 1.9219v0.21875h0.84375v2.75c0 1.2188 0.9375 1.3438 1.2969 1.3438 0.70312 0 0.98438-0.70312 0.98438-1.3438z"/>
</symbol>
<symbol id="aa" overflow="visible">
<path d="m4.8125-0.89062v-0.5625h-0.25v0.5625c0 0.57812-0.25 0.64062-0.35938 0.64062-0.32812 0-0.35938-0.45312-0.35938-0.5v-1.9844c0-0.42188 0-0.8125-0.35938-1.1875-0.39062-0.39062-0.89062-0.54688-1.375-0.54688-0.8125 0-1.5 0.46875-1.5 1.125 0 0.29688 0.20312 0.46875 0.45312 0.46875 0.28125 0 0.46875-0.20312 0.46875-0.45312 0-0.125-0.0625-0.45312-0.51562-0.45312 0.26562-0.35938 0.76562-0.46875 1.0781-0.46875 0.48438 0 1.0625 0.39062 1.0625 1.2812v0.35938c-0.51562 0.03125-1.2188 0.0625-1.8438 0.35938-0.75 0.34375-1 0.85938-1 1.2969 0 0.8125 0.96875 1.0625 1.5938 1.0625 0.67188 0 1.125-0.40625 1.3125-0.85938 0.046875 0.39062 0.3125 0.8125 0.78125 0.8125 0.20312 0 0.8125-0.14062 0.8125-0.95312zm-1.6562-0.5c0 0.9375-0.71875 1.2812-1.1719 1.2812-0.48438 0-0.89062-0.34375-0.89062-0.84375 0-0.54688 0.40625-1.375 2.0625-1.4375zm0.84375-3.8906-1.5-1.6094-1.5156 1.6094 0.125 0.14062 1.3906-1.0781 1.375 1.0781z"/>
</symbol>
<symbol id="a" overflow="visible">
<path d="m5.3281 0v-0.3125c-0.51562 0-0.76562 0-0.76562-0.29688v-1.9062c0-0.85938 0-1.1562-0.3125-1.5156-0.14062-0.17188-0.46875-0.375-1.0469-0.375-0.73438 0-1.2031 0.42188-1.4844 1.0469v-1.0469l-1.4062 0.10938v0.3125c0.70312 0 0.78125 0.0625 0.78125 0.5625v2.6719c0 0.4375-0.10938 0.4375-0.78125 0.4375v0.3125l1.1406-0.03125 1.1094 0.03125v-0.3125c-0.67188 0-0.78125 0-0.78125-0.4375v-1.8438c0-1.0312 0.71875-1.5938 1.3438-1.5938 0.64062 0 0.75 0.53125 0.75 1.1094v2.3281c0 0.4375-0.10938 0.4375-0.78125 0.4375v0.3125l1.125-0.03125z"/>
</symbol>
<symbol id="i" overflow="visible">
<path d="m4.1406-1.1875c0-0.09375-0.10938-0.09375-0.14062-0.09375-0.078125 0-0.10938 0.03125-0.125 0.09375-0.28125 0.92188-0.9375 1.0469-1.2969 1.0469-0.53125 0-1.4062-0.42188-1.4062-2.0312 0-1.625 0.8125-2.0469 1.3438-2.0469 0.09375 0 0.71875 0.015625 1.0625 0.375-0.40625 0.03125-0.46875 0.32812-0.46875 0.45312 0 0.26562 0.1875 0.45312 0.45312 0.45312s0.46875-0.15625 0.46875-0.46875c0-0.67188-0.76562-1.0625-1.5312-1.0625-1.25 0-2.1562 1.0781-2.1562 2.3125 0 1.2812 0.98438 2.2656 2.1406 2.2656 1.3281 0 1.6562-1.2031 1.6562-1.2969z"/>
</symbol>
<symbol id="h" overflow="visible">
<path d="m4.8125-0.89062v-0.5625h-0.25v0.5625c0 0.57812-0.25 0.64062-0.35938 0.64062-0.32812 0-0.35938-0.45312-0.35938-0.5v-1.9844c0-0.42188 0-0.8125-0.35938-1.1875-0.39062-0.39062-0.89062-0.54688-1.375-0.54688-0.8125 0-1.5 0.46875-1.5 1.125 0 0.29688 0.20312 0.46875 0.45312 0.46875 0.28125 0 0.46875-0.20312 0.46875-0.45312 0-0.125-0.0625-0.45312-0.51562-0.45312 0.26562-0.35938 0.76562-0.46875 1.0781-0.46875 0.48438 0 1.0625 0.39062 1.0625 1.2812v0.35938c-0.51562 0.03125-1.2188 0.0625-1.8438 0.35938-0.75 0.34375-1 0.85938-1 1.2969 0 0.8125 0.96875 1.0625 1.5938 1.0625 0.67188 0 1.125-0.40625 1.3125-0.85938 0.046875 0.39062 0.3125 0.8125 0.78125 0.8125 0.20312 0 0.8125-0.14062 0.8125-0.95312zm-1.6562-0.5c0 0.9375-0.71875 1.2812-1.1719 1.2812-0.48438 0-0.89062-0.34375-0.89062-0.84375 0-0.54688 0.40625-1.375 2.0625-1.4375z"/>
</symbol>
<symbol id="g" overflow="visible">
<path d="m4.1406-1.1875c0-0.09375-0.078125-0.125-0.14062-0.125-0.078125 0-0.10938 0.0625-0.125 0.14062-0.34375 1.0312-1.25 1.0312-1.3438 1.0312-0.5 0-0.89062-0.29688-1.125-0.67188-0.29688-0.46875-0.29688-1.125-0.29688-1.4844h2.7812c0.21875 0 0.25 0 0.25-0.21875 0-0.98438-0.54688-1.9531-1.7812-1.9531-1.1562 0-2.0781 1.0312-2.0781 2.2812 0 1.3281 1.0469 2.2969 2.1875 2.2969 1.2188 0 1.6719-1.1094 1.6719-1.2969zm-0.65625-1.3281h-2.375c0.0625-1.4844 0.90625-1.7344 1.25-1.7344 1.0156 0 1.125 1.3438 1.125 1.7344z"/>
</symbol>
<symbol id="k" overflow="visible">
<path d="m3.625-3.7969c0-0.3125-0.3125-0.60938-0.73438-0.60938-0.73438 0-1.0938 0.67188-1.2188 1.0938v-1.0938l-1.3906 0.10938v0.3125c0.70312 0 0.78125 0.0625 0.78125 0.5625v2.6719c0 0.4375-0.10938 0.4375-0.78125 0.4375v0.3125l1.1406-0.03125c0.39062 0 0.85938 0 1.2656 0.03125v-0.3125h-0.21875c-0.73438 0-0.75-0.10938-0.75-0.46875v-1.5312c0-0.98438 0.42188-1.875 1.1719-1.875 0.0625 0 0.09375 0 0.10938 0.015625-0.03125 0-0.23438 0.125-0.23438 0.39062s0.21875 0.42188 0.4375 0.42188c0.17188 0 0.42188-0.125 0.42188-0.4375z"/>
</symbol>
<symbol id="ae" overflow="visible">
<path d="m5.3281 0v-0.3125c-0.6875 0-0.76562-0.0625-0.76562-0.5625v-3.5312l-1.4688 0.10938v0.3125c0.6875 0 0.78125 0.0625 0.78125 0.5625v1.7656c0 0.875-0.48438 1.5469-1.2188 1.5469-0.82812 0-0.875-0.46875-0.875-0.98438v-3.3125l-1.4688 0.10938v0.3125c0.78125 0 0.78125 0.03125 0.78125 0.90625v1.5c0 0.78125 0 1.6875 1.5156 1.6875 0.5625 0 1-0.28125 1.2812-0.89062v0.89062z"/>
</symbol>
<symbol id="ad" overflow="visible">
<path d="m2.5469 0v-0.3125c-0.67188 0-0.78125 0-0.78125-0.4375v-6.1719l-1.4375 0.10938v0.3125c0.70312 0 0.78125 0.0625 0.78125 0.5625v5.1875c0 0.4375-0.10938 0.4375-0.78125 0.4375v0.3125l1.1094-0.03125z"/>
</symbol>
<symbol id="ac" overflow="visible">
<path d="m2.0312-0.015625c0-0.625-0.25-1.0469-0.64062-1.0469-0.35938 0-0.53125 0.28125-0.53125 0.53125 0 0.26562 0.17188 0.53125 0.53125 0.53125 0.14062 0 0.28125-0.0625 0.39062-0.15625 0.015625 0.78125-0.25 1.3906-0.6875 1.8594-0.0625 0.0625-0.078125 0.078125-0.078125 0.10938 0 0.078125 0.046875 0.10938 0.09375 0.10938 0.125 0 0.92188-0.78125 0.92188-1.9375z"/>
</symbol>
<symbol id="z" overflow="visible">
<path d="m-2.5781-6.5v0.25c1.5469 0.25 2.2656 0.48438 2.2656 2.1875v1.3281c0 0.46875-0.0625 0.48438-0.39062 0.48438h-2.6719v-0.89062c0-0.96875 0.32812-1.0781 1.1719-1.0781v-0.25h-2.6406v0.25c0.85938 0 1.1719 0.10938 1.1719 1.0781v0.89062h-2.4062c-0.32812 0-0.39062-0.015625-0.39062-0.48438v-1.2812c0-1.5312 0.54688-1.7969 1.9375-1.9531v-0.25l-2.25 0.28125v5.6094h0.3125v-0.23438c0-0.76562 0.10938-0.79688 0.46875-0.79688h5.2188c0.35938 0 0.46875 0.03125 0.46875 0.79688v0.23438h0.3125v-5.75z"/>
</symbol>
<symbol id="f" overflow="visible">
<path d="m0-5.3281h-0.3125c0 0.51562 0 0.76562-0.29688 0.76562h-1.9062c-0.85938 0-1.1562 0-1.5156 0.3125-0.17188 0.14062-0.375 0.46875-0.375 1.0469 0 0.73438 0.42188 1.2031 1.0469 1.4844h-1.0469l0.10938 1.4062h0.3125c0-0.70312 0.0625-0.78125 0.5625-0.78125h2.6719c0.4375 0 0.4375 0.10938 0.4375 0.78125h0.3125l-0.03125-1.1406 0.03125-1.1094h-0.3125c0 0.67188 0 0.78125-0.4375 0.78125h-1.8438c-1.0312 0-1.5938-0.71875-1.5938-1.3438 0-0.64062 0.53125-0.75 1.1094-0.75h2.3281c0.4375 0 0.4375 0.10938 0.4375 0.78125h0.3125l-0.03125-1.125z"/>
</symbol>
<symbol id="e" overflow="visible">
<path d="m-1.1875-4.1406c-0.09375 0-0.125 0.078125-0.125 0.14062 0 0.078125 0.0625 0.10938 0.14062 0.125 1.0312 0.34375 1.0312 1.25 1.0312 1.3438 0 0.5-0.29688 0.89062-0.67188 1.125-0.46875 0.29688-1.125 0.29688-1.4844 0.29688v-2.7812c0-0.21875 0-0.25-0.21875-0.25-0.98438 0-1.9531 0.54688-1.9531 1.7812 0 1.1562 1.0312 2.0781 2.2812 2.0781 1.3281 0 2.2969-1.0469 2.2969-2.1875 0-1.2188-1.1094-1.6719-1.2969-1.6719zm-1.3281 0.65625v2.375c-1.4844-0.0625-1.7344-0.90625-1.7344-1.25 0-1.0156 1.3438-1.125 1.7344-1.125z"/>
</symbol>
<symbol id="u" overflow="visible">
<path d="m-3.7969-3.625c-0.3125 0-0.60938 0.3125-0.60938 0.73438 0 0.73438 0.67188 1.0938 1.0938 1.2188h-1.0938l0.10938 1.3906h0.3125c0-0.70312 0.0625-0.78125 0.5625-0.78125h2.6719c0.4375 0 0.4375 0.10938 0.4375 0.78125h0.3125l-0.03125-1.1406c0-0.39062 0-0.85938 0.03125-1.2656h-0.3125v0.21875c0 0.73438-0.10938 0.75-0.46875 0.75h-1.5312c-0.98438 0-1.875-0.42188-1.875-1.1719 0-0.0625 0-0.09375 0.015625-0.10938 0 0.03125 0.125 0.23438 0.39062 0.23438s0.42188-0.21875 0.42188-0.4375c0-0.17188-0.125-0.42188-0.4375-0.42188z"/>
</symbol>
<symbol id="t" overflow="visible">
<path d="m-4.0312-4.8281c-0.17188 0-0.48438 0.10938-0.48438 0.5 0 0.20312 0.0625 0.64062 0.46875 1.0625-0.32812 0.42188-0.35938 0.82812-0.35938 1.0469 0 0.9375 0.6875 1.625 1.4531 1.625 0.4375 0 0.8125-0.21875 1.0312-0.46875 0.14062 0.125 0.46875 0.3125 0.82812 0.3125 0.3125 0 0.6875-0.14062 0.89062-0.45312 0.15625 0.60938 0.59375 0.92188 0.98438 0.92188 0.71875 0 1.2656-0.98438 1.2656-2.2031 0-1.1719-0.5-2.2031-1.2812-2.2031-0.34375 0-0.85938 0.125-1.1406 0.64062-0.26562 0.53125-0.26562 1.1094-0.26562 1.7188 0 0.25 0 0.67188-0.015625 0.75-0.046875 0.3125-0.34375 0.51562-0.67188 0.51562-0.03125 0-0.26562 0-0.46875-0.15625 0.28125-0.39062 0.3125-0.8125 0.3125-1 0-0.92188-0.6875-1.6094-1.4531-1.6094-0.375 0-0.73438 0.15625-0.96875 0.40625-0.34375-0.35938-0.39062-0.71875-0.39062-0.89062 0 0 0-0.078125 0.015625-0.10938 0.03125 0.10938 0.14062 0.17188 0.26562 0.17188 0.17188 0 0.28125-0.14062 0.28125-0.29688 0-0.09375-0.0625-0.28125-0.29688-0.28125zm1.0781 1.75c0.26562 0 0.59375 0 0.84375 0.15625 0.10938 0.078125 0.39062 0.3125 0.39062 0.70312 0 0.875-1 0.875-1.2188 0.875-0.26562 0-0.59375-0.015625-0.84375-0.15625-0.10938-0.078125-0.39062-0.3125-0.39062-0.71875 0-0.85938 0.98438-0.85938 1.2188-0.85938zm3.7344-1.0938c0.54688 0 1.0469 0.70312 1.0469 1.6719 0 1.0156-0.51562 1.7031-1.0469 1.7031-0.45312 0-0.82812-0.375-0.84375-0.8125v-0.59375c0-0.85938 0-1.9688 0.84375-1.9688z"/>
</symbol>
<symbol id="d" overflow="visible">
<path d="m0-2.4688h-0.3125c0 0.67188-0.046875 0.70312-0.4375 0.70312h-3.6562l0.10938 1.3906h0.3125c0-0.64062 0.0625-0.73438 0.54688-0.73438h2.6875c0.4375 0 0.4375 0.10938 0.4375 0.78125h0.3125l-0.03125-1.0938c0-0.35938 0.015625-0.70312 0.03125-1.0469zm-6.0156 0.5625c-0.28125 0-0.53125 0.21875-0.53125 0.51562 0 0.34375 0.28125 0.54688 0.53125 0.54688 0.26562 0 0.51562-0.23438 0.51562-0.53125 0-0.34375-0.26562-0.53125-0.51562-0.53125z"/>
</symbol>
<symbol id="c" overflow="visible">
<path d="m-0.89062-4.8125h-0.5625v0.25h0.5625c0.57812 0 0.64062 0.25 0.64062 0.35938 0 0.32812-0.45312 0.35938-0.5 0.35938h-1.9844c-0.42188 0-0.8125 0-1.1875 0.35938-0.39062 0.39062-0.54688 0.89062-0.54688 1.375 0 0.8125 0.46875 1.5 1.125 1.5 0.29688 0 0.46875-0.20312 0.46875-0.45312 0-0.28125-0.20312-0.46875-0.45312-0.46875-0.125 0-0.45312 0.0625-0.45312 0.51562-0.35938-0.26562-0.46875-0.76562-0.46875-1.0781 0-0.48438 0.39062-1.0625 1.2812-1.0625h0.35938c0.03125 0.51562 0.0625 1.2188 0.35938 1.8438 0.34375 0.75 0.85938 1 1.2969 1 0.8125 0 1.0625-0.96875 1.0625-1.5938 0-0.67188-0.40625-1.125-0.85938-1.3125 0.39062-0.046875 0.8125-0.3125 0.8125-0.78125 0-0.20312-0.14062-0.8125-0.95312-0.8125zm-0.5 1.6562c0.9375 0 1.2812 0.71875 1.2812 1.1719 0 0.48438-0.34375 0.89062-0.84375 0.89062-0.54688 0-1.375-0.40625-1.4375-2.0625z"/>
</symbol>
<symbol id="s" overflow="visible">
<path d="m-2.1562-5.1875c-1.2656 0-2.25 0.95312-2.25 2.0781 0 0.78125 0.4375 1.2031 0.65625 1.3906h-0.65625l0.10938 1.4375h0.3125c0-0.70312 0.0625-0.78125 0.5-0.78125h4.6562c0.45312 0 0.45312 0.10938 0.45312 0.78125h0.3125l-0.03125-1.1094 0.03125-1.125h-0.3125c0 0.65625 0 0.76562-0.45312 0.76562h-1.7656c0.17188-0.046875 0.70312-0.46875 0.70312-1.2188 0-1.1875-0.98438-2.2188-2.2656-2.2188zm0 0.82812c1.2031 0 2.0469 0.6875 2.0469 1.4219 0 0.40625-0.20312 0.78125-0.60938 1.0469-0.20312 0.14062-0.21875 0.14062-0.42188 0.14062h-2.2188c-0.51562-0.28125-0.79688-0.76562-0.79688-1.2812 0-0.73438 0.875-1.3281 2-1.3281z"/>
</symbol>
<symbol id="r" overflow="visible">
<path d="m-2.1406-4.6875c-1.2656 0-2.3281 0.98438-2.3281 2.1875 0 1.25 1.0938 2.2188 2.3281 2.2188 1.2969 0 2.25-1.0312 2.25-2.2031 0-1.2031-0.98438-2.2031-2.25-2.2031zm-0.078125 0.8125c0.35938 0 0.90625 0 1.3438 0.21875 0.45312 0.23438 0.73438 0.67188 0.73438 1.1562 0 0.4375-0.20312 0.875-0.67188 1.1406-0.4375 0.25-1.0469 0.25-1.4062 0.25-0.39062 0-0.92188 0-1.3594-0.23438-0.45312-0.26562-0.67188-0.73438-0.67188-1.1406 0-0.4375 0.21875-0.85938 0.65625-1.125 0.42188-0.26562 1-0.26562 1.375-0.26562z"/>
</symbol>
<symbol id="y" overflow="visible">
<path d="m-1.2344-3.3125h-0.5625v0.25h0.54688c0.73438 0 1.1094 0.29688 1.1094 0.67188 0 0.67188-0.90625 0.67188-1.0781 0.67188h-2.7656v-1.4375h-0.3125v1.4375h-1.8281v0.25c0.8125 0 1.875 0.29688 1.9219 1.2812h0.21875v-0.84375h2.75c1.2188 0 1.3438-0.9375 1.3438-1.2969 0-0.70312-0.70312-0.98438-1.3438-0.98438z"/>
</symbol>
<symbol id="x" overflow="visible">
<path d="m-1.1875-4.1406c-0.09375 0-0.09375 0.10938-0.09375 0.14062 0 0.078125 0.03125 0.10938 0.09375 0.125 0.92188 0.28125 1.0469 0.9375 1.0469 1.2969 0 0.53125-0.42188 1.4062-2.0312 1.4062-1.625 0-2.0469-0.8125-2.0469-1.3438 0-0.09375 0.015625-0.71875 0.375-1.0625 0.03125 0.40625 0.32812 0.46875 0.45312 0.46875 0.26562 0 0.45312-0.1875 0.45312-0.45312s-0.15625-0.46875-0.46875-0.46875c-0.67188 0-1.0625 0.76562-1.0625 1.5312 0 1.25 1.0781 2.1562 2.3125 2.1562 1.2812 0 2.2656-0.98438 2.2656-2.1406 0-1.3281-1.2031-1.6562-1.2969-1.6562z"/>
</symbol>
<symbol id="w" overflow="visible">
<path d="m0-2.5469h-0.3125c0 0.67188 0 0.78125-0.4375 0.78125h-6.1719l0.10938 1.4375h0.3125c0-0.70312 0.0625-0.78125 0.5625-0.78125h5.1875c0.4375 0 0.4375 0.10938 0.4375 0.78125h0.3125l-0.03125-1.1094z"/>
</symbol>
<symbol id="v" overflow="visible">
<path d="m-0.015625-2.0312c-0.625 0-1.0469 0.25-1.0469 0.64062 0 0.35938 0.28125 0.53125 0.53125 0.53125 0.26562 0 0.53125-0.17188 0.53125-0.53125 0-0.14062-0.0625-0.28125-0.15625-0.39062 0.78125-0.015625 1.3906 0.25 1.8594 0.6875 0.0625 0.0625 0.078125 0.078125 0.10938 0.078125 0.078125 0 0.10938-0.046875 0.10938-0.09375 0-0.125-0.78125-0.92188-1.9375-0.92188z"/>
</symbol>
<symbol id="q" overflow="visible">
<path d="m-2.4688-7.1094s-0.10938 0-0.10938 0.125c0 0.09375 0.0625 0.10938 0.125 0.125 1.4688 0.65625 2.1406 1.0156 2.1406 2.7188v1.4531 0.21875c-0.015625 0.10938-0.03125 0.14062-0.10938 0.14062-0.03125 0-0.046875 0-0.21875-0.046875l-2.7344-0.6875v-0.98438c0-0.84375 0.21875-0.84375 0.46875-0.84375 0.0625 0 0.1875 0 0.48438 0.0625 0.046875 0.015625 0.078125 0.03125 0.10938 0.03125 0.046875 0 0.10938-0.03125 0.10938-0.125 0-0.078125-0.046875-0.10938-0.20312-0.15625l-2.3281-0.5625c-0.0625 0-0.10938 0.046875-0.10938 0.125s0.0625 0.10938 0.17188 0.125c0.76562 0.21875 1 0.39062 1 1.3125v0.9375l-2.4062-0.59375c-0.35938-0.09375-0.39062-0.10938-0.39062-0.54688v-1.4062c0-1.2031 0.28125-1.5156 1.1094-1.5156 0.23438 0 0.25 0 0.53125 0.046875 0.046875 0 0.125 0.015625 0.17188 0.015625s0.125-0.03125 0.125-0.125c0-0.10938-0.0625-0.125-0.25-0.14062l-1.7344-0.20312c-0.26562-0.03125-0.26562 0.015625-0.26562 0.26562v5.0469c0 0.1875 0 0.29688 0.20312 0.29688 0.10938 0 0.10938-0.09375 0.10938-0.28125 0-0.375 0-0.65625 0.17188-0.65625 0.046875 0 0.0625 0 0.25 0.0625l5.2656 1.3125c0.39062 0.09375 0.46875 0.10938 0.46875 0.90625 0 0.17188 0 0.28125 0.1875 0.28125 0.125 0 0.125-0.09375 0.125-0.28125v-5.1719c0-0.23438-0.015625-0.25-0.17188-0.3125l-2.1562-0.92188-0.14062-0.046875z"/>
</symbol>
<symbol id="p" overflow="visible">
<path d="m-1.5-4.0625c-0.85938 0-1.5781 0.70312-1.5781 1.5938 0 0.39062 0.15625 0.79688 0.4375 1.0781h-0.4375l0.078125 1.0469h0.25c0-0.48438 0.046875-0.51562 0.32812-0.51562h3.2188c0.29688 0 0.29688 0.0625 0.29688 0.51562h0.26562s-0.03125-0.5-0.03125-0.79688c0-0.25 0.015625-0.73438 0.03125-0.79688h-0.26562c0 0.45312 0 0.51562-0.29688 0.51562h-1.125c0.03125-0.03125 0.39062-0.35938 0.39062-0.9375 0-0.92188-0.6875-1.7031-1.5625-1.7031zm0 0.625c0.79688 0 1.375 0.53125 1.375 1.1094 0 0.625-0.53125 0.89062-0.57812 0.90625h-1.625c-0.34375-0.20312-0.51562-0.60938-0.51562-0.96875 0-0.59375 0.60938-1.0469 1.3438-1.0469z"/>
</symbol>
<clipPath id="an">
<path d="m25.664 0.54297h194.27v161.39h-194.27z"/>
</clipPath>
<clipPath id="am">
<path d="m25.664 0.54297h194.27v90.457h-194.27z"/>
</clipPath>
</defs>
<path transform="matrix(1 0 0 -1 25.666 147.27)" d="m-0.0019375 122.27h194.27" fill="none" stroke="#bfbfbf" stroke-miterlimit="10" stroke-width=".3985"/>
<path transform="matrix(1 0 0 -1 25.666 147.27)" d="m-0.0019375 122.27h4.2539m190.02 0h-4.25" fill="none" stroke="#7f7f7f" stroke-miterlimit="10" stroke-width=".19925"/>
<path transform="matrix(1 0 0 -1 25.666 147.27)" d="m-0.0019375-14.672v161.39h194.27v-161.39z" fill="none" stroke="#000" stroke-miterlimit="10" stroke-width=".3985"/>
<g>
<use x="17.165" y="28.136" xlink:href="#al"/>
</g>
<g clip-path="url(#an)">
<path transform="matrix(1 0 0 -1 25.666 147.27)" d="m-0.0019375 932.15 1.3047-115.81 1.3047-105.1 1.3047-91.09 1.3047-81.613 1.3008-69.805 1.3047-63.281 1.3047-55.852 1.3047-48.672 1.3047-42.352 1.3008-37.293 1.3047-33.156 1.3047-28.66 1.3047-25.062 1.3008-21.719 1.3047-18.934 1.3047-16.348 1.3047-14.109 1.3047-12.121 1.3008-10.332 1.3047-8.7344 1.3047-7.3164 1.3047-6.125 1.3008-5.0195 1.3047-4.0547 1.3047-3.1953 1.3047-2.4492 1.3047-1.7891 1.3008-1.2031 1.3047-0.70312 1.3047-0.25391 1.3047 0.13281 1.3047 0.47266 1.3008 0.76562 1.3047 1.0156 1.3047 1.2383 1.3047 1.4219 1.3008 1.5781 1.3047 1.707 1.3047 1.8242 1.3047 1.9141 1.3047 1.9883 1.3008 2.0469 1.3047 2.0938 1.3047 2.1172 1.3047 2.1445 1.3008 2.1562 1.3047 2.168 1.3047 2.1602 1.3047 2.1445 1.3047 2.1406 1.3008 2.1211 1.3047 2.1016 1.3047 2.0781 1.3047 2.0352 1.3047 2.0117 1.3008 1.9844 1.3047 1.9375 1.3047 1.9023 1.3047 1.8789 1.3008 1.8359 1.3047 1.7852 1.3047 1.75 1.3047 1.7188 1.3047 1.6758 1.3008 1.625 1.3047 1.5977 1.3047 1.5586 1.3047 1.5195 1.3008 1.4844 1.3047 1.4375 1.3047 1.4102 1.3047 1.3633 1.3047 1.3242 1.3008 1.3008 1.3047 1.2656 1.3047 1.2266 1.3047 1.1953 1.3008 1.1602 1.3047 1.1289 1.3047 1.1055 1.3047 1.0625 1.3047 1.043 1.3008 1.0039 1.3047 0.98438 1.3047 0.95703 1.3047 0.92578 1.3047 0.89844 1.3008 0.87891 1.3047 0.85156 1.3047 0.82812 1.3047 0.80078 1.3008 0.78516 1.3047 0.75391 1.3047 0.74219 1.3047 0.71484 1.3047 0.69922 1.3008 0.67578 1.3047 0.66016 1.3047 0.64062 1.3047 0.62109 1.3047 0.60547 1.3008 0.58594 1.3047 0.57422 1.3047 0.55469 1.3047 0.53906 1.3008 0.52734 1.3047 0.50781 1.3047 0.49609 1.3047 0.48438 1.3047 0.46484 1.3008 0.46094 1.3047 0.44141 1.3047 0.43359 1.3047 0.41797 1.3008 0.40625 1.3047 0.39453 1.3047 0.39062 1.3047 0.375 1.3047 0.36719 1.3008 0.35156 1.3047 0.34766 1.3047 0.33984 1.3047 0.32422 1.3008 0.32031 1.3047 0.30859 1.3047 0.30469 1.3047 0.29297 1.3047 0.28906 1.3008 0.27734 1.3047 0.27344 1.3047 0.26172 1.3047 0.25781 1.3047 0.25 1.3008 0.24609 2.6094 0.46875 1.3047 0.22656 1.3008 0.21875 1.3047 0.21484 2.6094 0.41406 1.3047 0.19531 1.3008 0.19531 1.3047 0.1875 1.3047 0.18359 1.3047 0.17969 1.3008 0.17578 2.6094 0.33594" fill="none" stroke="#0c6dfd" stroke-miterlimit="10" stroke-width="1.1955"/>
</g>
<g clip-path="url(#am)">
<path transform="matrix(1 0 0 -1 25.666 147.27)" d="m-0.0019375 1641.8 1.3047-169.22 1.3047-153.44 1.3047-134.89 1.3047-124.78 1.3008-108.34 1.3047-96.199 1.3047-86.336 1.3047-77.441 1.3047-68.688 1.3008-62.273 1.3047-55.781 1.3047-48.238 1.3047-44.801 1.3008-39.074 1.3047-35.059 1.3047-31.273 1.3047-27.832 1.3047-24.922 1.3008-22.203 1.3047-19.711 1.3047-17.551 1.3047-15.621 1.3008-13.859 1.3047-12.301 1.3047-10.875 1.3047-9.6445 1.3047-8.4883 1.3008-7.457 1.3047-6.5742 1.3047-5.7891 1.3047-5.0078 1.3047-4.3633 1.3008-3.7734 1.3047-3.2383 1.3047-2.793 1.3047-2.3516 1.3008-1.9766 1.3047-1.6367 1.3047-1.3438 1.3047-1.0664 1.3047-0.83203 1.3008-0.61719 1.3047-0.42969 1.3047-0.26172 1.3047-0.10938 1.3008 0.019531 1.3047 0.13281 1.3047 0.24219 1.3047 0.32422 1.3047 0.40234 1.3008 0.47656 1.3047 0.52734 1.3047 0.58594 1.3047 0.625 1.3047 0.66016 1.3008 0.69141 1.3047 0.71875 1.3047 0.73438 1.3047 0.75391 1.3008 0.76953 1.3047 0.77344 1.3047 0.78125 2.6094 1.5781 1.3008 0.78125 1.3047 0.78125 1.3047 0.77734 1.3047 0.77344 1.3008 0.76562 1.3047 0.75781 1.3047 0.75 1.3047 0.73828 1.3047 0.72266 1.3008 0.72266 1.3047 0.70312 1.3047 0.69531 1.3047 0.67969 1.3008 0.66406 1.3047 0.65625 1.3047 0.64453 1.3047 0.62891 1.3047 0.61328 1.3008 0.60156 1.3047 0.59375 1.3047 0.57422 1.3047 0.56641 1.3047 0.55078 1.3008 0.53906 1.3047 0.52344 1.3047 0.51562 1.3047 0.5 1.3008 0.48828 1.3047 0.48047 1.3047 0.46484 1.3047 0.45312 1.3047 0.44531 1.3008 0.43359 1.3047 0.42188 1.3047 0.41016 1.3047 0.40234 1.3047 0.39062 1.3008 0.37891 1.3047 0.375 1.3047 0.35938 1.3047 0.35156 1.3008 0.34766 1.3047 0.33203 2.6094 0.64844 1.3047 0.30469 1.3008 0.30469 1.3047 0.29297 1.3047 0.28516 1.3047 0.28125 1.3008 0.27344 2.6094 0.52344 1.3047 0.25 1.3047 0.24609 1.3008 0.23828 1.3047 0.23438 1.3047 0.22656 1.3047 0.22266 1.3008 0.21484 1.3047 0.21094 1.3047 0.20312 1.3047 0.19922 1.3047 0.19531 1.3008 0.1875 1.3047 0.1875 1.3047 0.17969 1.3047 0.17578 1.3047 0.17188 1.3008 0.16406 1.3047 0.16406 1.3047 0.16016 1.3047 0.15234 1.3008 0.15234 2.6094 0.28906 1.3047 0.14062 1.3047 0.13672 1.3008 0.13281 2.6094 0.25781 1.3047 0.12109 1.3008 0.12109 2.6094 0.23438" fill="none" stroke="#dc3445" stroke-miterlimit="10" stroke-width="1.1955"/>
</g>
<path transform="matrix(1 0 0 -1 25.666 147.27)" d="m39.209 7.9301v111.75" fill="none" stroke="#000" stroke-miterlimit="10" stroke-width=".79701"/>
<path transform="matrix(0 1 1 0 64.874 139.53)" d="m8.1625e-4 3.0871v-6.1758" fill="none" stroke="#000" stroke-miterlimit="10" stroke-width=".79701"/>
<path d="m64.875 25-2.0742 4.1406 2.0742-1.5508 2.0703 1.5508"/>
<g>
<use x="68.592" y="92.678" xlink:href="#o"/>
<use x="76.84" y="94.172" xlink:href="#n"/>
<use x="79.31012" y="94.172" xlink:href="#aj"/>
<use x="83.281002" y="94.172" xlink:href="#m"/>
<use x="86.394106" y="94.172" xlink:href="#ai"/>
<use x="89.50721" y="94.172" xlink:href="#ah"/>
</g>
<path transform="matrix(1 0 0 -1 25.666 147.27)" d="m58.99 78.848v40.828" fill="none" stroke="#000" stroke-miterlimit="10" stroke-width=".79701"/>
<path transform="matrix(0 1 1 0 84.654 68.617)" d="m-1.125e-4 3.0878v-6.1758" fill="none" stroke="#000" stroke-miterlimit="10" stroke-width=".79701"/>
<path d="m84.656 25-2.0742 4.1406 2.0742-1.5508 2.0703 1.5508"/>
<g>
<use x="88.372" y="49.665" xlink:href="#o"/>
<use x="96.621" y="51.159" xlink:href="#n"/>
<use x="99.09112" y="51.159" xlink:href="#m"/>
<use x="102.204224" y="51.159" xlink:href="#l"/>
<use x="106.175106" y="51.159" xlink:href="#ag"/>
<use x="109.717099" y="51.159" xlink:href="#l"/>
<use x="69.509" y="172.322" xlink:href="#af"/>
<use x="77.11943" y="172.322" xlink:href="#b"/>
<use x="79.88704" y="172.322" xlink:href="#ab"/>
<use x="83.817286" y="172.322" xlink:href="#j"/>
<use x="87.691741" y="172.322" xlink:href="#aa"/>
<use x="92.673041" y="172.322" xlink:href="#a"/>
<use x="98.208262" y="172.322" xlink:href="#i"/>
<use x="102.636638" y="172.322" xlink:href="#b"/>
<use x="105.404248" y="172.322" xlink:href="#h"/>
<use x="113.703094" y="172.322" xlink:href="#b"/>
<use x="116.470704" y="172.322" xlink:href="#a"/>
<use x="121.726972" y="172.322" xlink:href="#j"/>
<use x="125.601427" y="172.322" xlink:href="#g"/>
<use x="130.029802" y="172.322" xlink:href="#k"/>
<use x="133.932153" y="172.322" xlink:href="#a"/>
<use x="139.188421" y="172.322" xlink:href="#ae"/>
<use x="144.723641" y="172.322" xlink:href="#i"/>
<use x="149.152017" y="172.322" xlink:href="#ad"/>
<use x="151.919627" y="172.322" xlink:href="#g"/>
<use x="156.348003" y="172.322" xlink:href="#h"/>
<use x="161.329303" y="172.322" xlink:href="#k"/>
<use x="165.231653" y="172.322" xlink:href="#ac"/>
<use x="171.322" y="172.322" xlink:href="#ak"/>
<use x="7.474" y="128.548" xlink:href="#z"/>
<use x="7.474" y="121.767454" xlink:href="#f"/>
<use x="7.474" y="116.232234" xlink:href="#e"/>
<use x="7.474" y="111.803858" xlink:href="#u"/>
<use x="7.474" y="107.901508" xlink:href="#t"/>
<use x="7.474" y="102.920208" xlink:href="#d"/>
<use x="7.474" y="100.152597" xlink:href="#c"/>
<use x="7.474" y="91.853752" xlink:href="#s"/>
<use x="7.474" y="86.039578" xlink:href="#r"/>
<use x="7.474" y="81.058278" xlink:href="#y"/>
<use x="7.474" y="77.183823" xlink:href="#e"/>
<use x="7.474" y="72.755447" xlink:href="#f"/>
<use x="7.474" y="67.220227" xlink:href="#x"/>
<use x="7.474" y="62.791851" xlink:href="#d"/>
<use x="7.474" y="60.024241" xlink:href="#c"/>
<use x="7.474" y="55.042941" xlink:href="#w"/>
<use x="7.474" y="52.275331" xlink:href="#v"/>
<use x="7.474" y="46.19" xlink:href="#q"/>
<use x="8.968" y="38.836" xlink:href="#p"/>
</g>
</svg>
