<?xml version="1.0" encoding="UTF-8"?>
<svg width="191pt" height="37pt" version="1.1" viewBox="0 0 191 37" xmlns="http://www.w3.org/2000/svg" xmlns:xlink="http://www.w3.org/1999/xlink">
<defs>
<symbol id="i" overflow="visible">
<path d="m6.5625 0.29688v-0.6875h-3.3125v17.938h0.6875v-17.25z"/>
</symbol>
<symbol id="h" overflow="visible">
<path d="m6.5625 17.531v-0.6875h-2.625v-17.25h-0.6875v17.938z"/>
</symbol>
<symbol id="g" overflow="visible">
<path d="m3.3906 17.547v-17.938h-3.3281v0.6875h2.6406v17.25z"/>
</symbol>
<symbol id="f" overflow="visible">
<path d="m3.3906 17.531v-17.938h-0.6875v17.25h-2.6406v0.6875z"/>
</symbol>
<symbol id="b" overflow="visible">
<path d="m6.7656-3.4375c0-2.0938-1.4375-3.7031-3.0938-3.7031-1.7031 0-3.1094 1.625-3.1094 3.7031 0 2.1094 1.4688 3.6562 3.0938 3.6562 1.6719 0 3.1094-1.5625 3.1094-3.6562zm-0.89062-0.15625c0 1.9531-1.0625 3.1719-2.2031 3.1719-1.1719 0-2.2188-1.25-2.2188-3.1719 0-1.8125 1.0938-2.9062 2.2031-2.9062 1.1562 0 2.2188 1.125 2.2188 2.9062z"/>
</symbol>
<symbol id="e" overflow="visible">
<path d="m6.0938 0v-6.9219h-0.78125v6.2188h-0.015625l-0.65625-1.375-2.4531-4.8438h-1.2344v6.9219h0.78125v-6.2031h0.015625l0.65625 1.3594 2.4531 4.8438z"/>
</symbol>
<symbol id="d" overflow="visible">
<path d="m4.0781 0v-2.875c0-1.0156-0.73438-1.7188-1.6406-1.7188-0.65625 0-1.1094 0.15625-1.5625 0.42188l0.046875 0.65625c0.53125-0.35938 1.0156-0.48438 1.5156-0.48438 0.46875 0 0.85938 0.39062 0.85938 1.125v0.4375c-1.5 0.015625-2.7656 0.4375-2.7656 1.3125 0 0.42188 0.28125 1.2344 1.1406 1.2344 0.14062 0 1.0781-0.015625 1.6562-0.46875v0.35938zm-0.78125-1.3125c0 0.1875 0 0.4375-0.34375 0.625-0.28125 0.17188-0.65625 0.1875-0.76562 0.1875-0.48438 0-0.9375-0.23438-0.9375-0.64062 0-0.70312 1.625-0.76562 2.0469-0.79688z"/>
</symbol>
<symbol id="a" overflow="visible">
<path d="m2.75-1.8594v-0.57812h-2.6406v0.57812z"/>
</symbol>
<symbol id="c" overflow="visible">
<path d="m7.1875-2.5c0-0.1875-0.1875-0.1875-0.32812-0.1875h-2.7812v-2.7969c0-0.14062 0-0.32812-0.20312-0.32812s-0.20312 0.1875-0.20312 0.32812v2.7969h-2.7812c-0.14062 0-0.32812 0-0.32812 0.1875 0 0.20312 0.1875 0.20312 0.32812 0.20312h2.7812v2.7969c0 0.14062 0 0.32812 0.20312 0.32812s0.20312-0.1875 0.20312-0.32812v-2.7969h2.7812c0.14062 0 0.32812 0 0.32812-0.20312z"/>
</symbol>
</defs>
<g>
<use x="-2.25" y="0.745" xlink:href="#i"/>
<use x="-2.25" y="18.678" xlink:href="#h"/>
</g>
<path transform="matrix(1,0,0,-1,9.206,29.036)" d="m0.0010312 8.4375e-4 12.422 7.1719" fill="none" stroke="#000" stroke-linecap="round" stroke-miterlimit="10" stroke-width=".59758"/>
<path transform="matrix(1,0,0,-1,9.206,29.036)" d="m12.423 7.1727 12.418-7.1719" fill="none" stroke="#000" stroke-linecap="round" stroke-miterlimit="10" stroke-width=".59758"/>
<path transform="matrix(1,0,0,-1,9.206,29.036)" d="m24.841 8.4375e-4 12.422 7.1719" fill="none" stroke="#000" stroke-linecap="round" stroke-miterlimit="10" stroke-width=".59758"/>
<path transform="matrix(1,0,0,-1,9.206,29.036)" d="m37.263 7.1727 12.422-7.1719" fill="none" stroke="#000" stroke-linecap="round" stroke-miterlimit="10" stroke-width=".59758"/>
<path transform="matrix(1,0,0,-1,9.206,29.036)" d="m49.685 8.4375e-4 12.422 7.1719" fill="none" stroke="#000" stroke-linecap="round" stroke-miterlimit="10" stroke-width=".59758"/>
<path transform="matrix(1,0,0,-1,9.206,29.036)" d="m62.106 7.1727 12.422-7.1719" fill="none" stroke="#000" stroke-linecap="round" stroke-miterlimit="10" stroke-width=".59758"/>
<path transform="matrix(1,0,0,-1,9.206,29.036)" d="m74.528 8.4375e-4 12.422 7.1719" fill="none" stroke="#000" stroke-linecap="round" stroke-miterlimit="10" stroke-width=".59758"/>
<path transform="matrix(1,0,0,-1,9.206,29.036)" d="m86.95 7.1727 12.422-7.1719" fill="none" stroke="#000" stroke-linecap="round" stroke-miterlimit="10" stroke-width=".59758"/>
<path transform="matrix(1,0,0,-1,9.206,29.036)" d="m99.372 8.4375e-4 12.418 7.1719" fill="none" stroke="#000" stroke-linecap="round" stroke-miterlimit="10" stroke-width=".59758"/>
<path transform="matrix(1,0,0,-1,9.206,29.036)" d="m111.79 7.1727 12.422-7.1719" fill="none" stroke="#000" stroke-linecap="round" stroke-miterlimit="10" stroke-width=".59758"/>
<path transform="matrix(1,0,0,-1,9.206,29.036)" d="m124.21 8.4375e-4 12.422 7.1719" fill="none" stroke="#000" stroke-linecap="round" stroke-miterlimit="10" stroke-width=".59758"/>
<g>
<use x="142.173" y="10.982" xlink:href="#b"/>
</g>
<path transform="matrix(1,0,0,-1,9.206,29.036)" d="m135.39 6.5282v9.9336" fill="none" stroke="#000" stroke-linecap="round" stroke-miterlimit="10" stroke-width=".59758"/>
<path transform="matrix(1,0,0,-1,9.206,29.036)" d="m137.88 6.5282v9.9336" fill="none" stroke="#000" stroke-linecap="round" stroke-miterlimit="10" stroke-width=".59758"/>
<g>
<use x="154.594" y="32.496" xlink:href="#b"/>
<use x="161.553" y="25.287" xlink:href="#a"/>
</g>
<path transform="matrix(1,0,0,-1,9.206,29.036)" d="m136.63 7.1727 7.375-4.2578" fill="none" stroke="#000" stroke-linecap="round" stroke-miterlimit="10" stroke-width=".59758"/>
<g>
<use x="166.444" y="0.745" xlink:href="#g"/>
<use x="166.444" y="18.678" xlink:href="#f"/>
<use x="172.901" y="3.765" xlink:href="#a"/>
<use x="176.407" y="29.036" xlink:href="#e"/>
<use x="183.46351" y="29.036" xlink:href="#d"/>
<use x="183.408" y="23.115" xlink:href="#c"/>
</g>
</svg>
