<?xml version="1.0" encoding="UTF-8"?>
<svg width="221pt" height="175pt" version="1.1" viewBox="0 0 221 175" xmlns="http://www.w3.org/2000/svg" xmlns:xlink="http://www.w3.org/1999/xlink">
<defs>
<symbol id="al" overflow="visible">
<path d="m4.5781-3.1875c0-0.79688-0.046875-1.5938-0.39062-2.3281-0.45312-0.96875-1.2812-1.125-1.6875-1.125-0.60938 0-1.3281 0.26562-1.75 1.1875-0.3125 0.6875-0.35938 1.4688-0.35938 2.2656 0 0.75 0.03125 1.6406 0.45312 2.4062 0.42188 0.79688 1.1562 1 1.6406 1 0.53125 0 1.2969-0.20312 1.7344-1.1562 0.3125-0.6875 0.35938-1.4688 0.35938-2.25zm-0.8125-0.125c0 0.75 0 1.4219-0.10938 2.0625-0.15625 0.95312-0.71875 1.25-1.1719 1.25-0.39062 0-0.98438-0.25-1.1562-1.2031-0.10938-0.59375-0.10938-1.5156-0.10938-2.1094 0-0.64062 0-1.2969 0.078125-1.8281 0.1875-1.1875 0.9375-1.2812 1.1875-1.2812 0.32812 0 0.98438 0.1875 1.1719 1.1719 0.10938 0.5625 0.10938 1.3125 0.10938 1.9375z"/>
</symbol>
<symbol id="ak" overflow="visible">
<path d="m5.7969-2.5781h-0.25c-0.10938 1.0156-0.25 2.2656-2 2.2656h-0.8125c-0.46875 0-0.48438-0.0625-0.48438-0.39062v-5.3125c0-0.34375 0-0.48438 0.9375-0.48438h0.32812v-0.3125c-0.35938 0.03125-1.2656 0.03125-1.6719 0.03125-0.39062 0-1.1719 0-1.5156-0.03125v0.3125h0.23438c0.76562 0 0.79688 0.10938 0.79688 0.46875v5.25c0 0.35938-0.03125 0.46875-0.79688 0.46875h-0.23438v0.3125h5.1875z"/>
</symbol>
<symbol id="f" overflow="visible">
<path d="m2.4688 0v-0.3125c-0.67188 0-0.70312-0.046875-0.70312-0.4375v-3.6562l-1.3906 0.10938v0.3125c0.64062 0 0.73438 0.0625 0.73438 0.54688v2.6875c0 0.4375-0.10938 0.4375-0.78125 0.4375v0.3125l1.0938-0.03125c0.35938 0 0.70312 0.015625 1.0469 0.03125zm-0.5625-6.0156c0-0.28125-0.21875-0.53125-0.51562-0.53125-0.34375 0-0.54688 0.28125-0.54688 0.53125 0 0.26562 0.23438 0.51562 0.53125 0.51562 0.34375 0 0.53125-0.26562 0.53125-0.51562z"/>
</symbol>
<symbol id="ae" overflow="visible">
<path d="m4.8281-4.0312c0-0.17188-0.10938-0.48438-0.5-0.48438-0.20312 0-0.64062 0.0625-1.0625 0.46875-0.42188-0.32812-0.82812-0.35938-1.0469-0.35938-0.9375 0-1.625 0.6875-1.625 1.4531 0 0.4375 0.21875 0.8125 0.46875 1.0312-0.125 0.14062-0.3125 0.46875-0.3125 0.82812 0 0.3125 0.14062 0.6875 0.45312 0.89062-0.60938 0.15625-0.92188 0.59375-0.92188 0.98438 0 0.71875 0.98438 1.2656 2.2031 1.2656 1.1719 0 2.2031-0.5 2.2031-1.2812 0-0.34375-0.125-0.85938-0.64062-1.1406-0.53125-0.26562-1.1094-0.26562-1.7188-0.26562-0.25 0-0.67188 0-0.75-0.015625-0.3125-0.046875-0.51562-0.34375-0.51562-0.67188 0-0.03125 0-0.26562 0.15625-0.46875 0.39062 0.28125 0.8125 0.3125 1 0.3125 0.92188 0 1.6094-0.6875 1.6094-1.4531 0-0.375-0.15625-0.73438-0.40625-0.96875 0.35938-0.34375 0.71875-0.39062 0.89062-0.39062 0 0 0.078125 0 0.10938 0.015625-0.10938 0.03125-0.17188 0.14062-0.17188 0.26562 0 0.17188 0.14062 0.28125 0.29688 0.28125 0.09375 0 0.28125-0.0625 0.28125-0.29688zm-1.75 1.0781c0 0.26562 0 0.59375-0.15625 0.84375-0.078125 0.10938-0.3125 0.39062-0.70312 0.39062-0.875 0-0.875-1-0.875-1.2188 0-0.26562 0.015625-0.59375 0.15625-0.84375 0.078125-0.10938 0.3125-0.39062 0.71875-0.39062 0.85938 0 0.85938 0.98438 0.85938 1.2188zm1.0938 3.7344c0 0.54688-0.70312 1.0469-1.6719 1.0469-1.0156 0-1.7031-0.51562-1.7031-1.0469 0-0.45312 0.375-0.82812 0.8125-0.84375h0.59375c0.85938 0 1.9688 0 1.9688 0.84375z"/>
</symbol>
<symbol id="b" overflow="visible">
<path d="m4.8125-0.89062v-0.5625h-0.25v0.5625c0 0.57812-0.25 0.64062-0.35938 0.64062-0.32812 0-0.35938-0.45312-0.35938-0.5v-1.9844c0-0.42188 0-0.8125-0.35938-1.1875-0.39062-0.39062-0.89062-0.54688-1.375-0.54688-0.8125 0-1.5 0.46875-1.5 1.125 0 0.29688 0.20312 0.46875 0.45312 0.46875 0.28125 0 0.46875-0.20312 0.46875-0.45312 0-0.125-0.0625-0.45312-0.51562-0.45312 0.26562-0.35938 0.76562-0.46875 1.0781-0.46875 0.48438 0 1.0625 0.39062 1.0625 1.2812v0.35938c-0.51562 0.03125-1.2188 0.0625-1.8438 0.35938-0.75 0.34375-1 0.85938-1 1.2969 0 0.8125 0.96875 1.0625 1.5938 1.0625 0.67188 0 1.125-0.40625 1.3125-0.85938 0.046875 0.39062 0.3125 0.8125 0.78125 0.8125 0.20312 0 0.8125-0.14062 0.8125-0.95312zm-1.6562-0.5c0 0.9375-0.71875 1.2812-1.1719 1.2812-0.48438 0-0.89062-0.34375-0.89062-0.84375 0-0.54688 0.40625-1.375 2.0625-1.4375z"/>
</symbol>
<symbol id="k" overflow="visible">
<path d="m4.1406-1.1875c0-0.09375-0.10938-0.09375-0.14062-0.09375-0.078125 0-0.10938 0.03125-0.125 0.09375-0.28125 0.92188-0.9375 1.0469-1.2969 1.0469-0.53125 0-1.4062-0.42188-1.4062-2.0312 0-1.625 0.8125-2.0469 1.3438-2.0469 0.09375 0 0.71875 0.015625 1.0625 0.375-0.40625 0.03125-0.46875 0.32812-0.46875 0.45312 0 0.26562 0.1875 0.45312 0.45312 0.45312s0.46875-0.15625 0.46875-0.46875c0-0.67188-0.76562-1.0625-1.5312-1.0625-1.25 0-2.1562 1.0781-2.1562 2.3125 0 1.1719 0.8125 2.0938 1.8281 2.25v0.82812c0.375 0 0.76562 0.078125 0.76562 0.40625 0 0.40625-0.95312 0.40625-1.7031 0.40625h-0.125v0.26562h0.25c1.0781 0 2.4062 0 2.4062-0.67188 0-0.46875-0.53125-0.67188-1.0781-0.67188v-0.5625c1.1562-0.10938 1.4531-1.1875 1.4531-1.2812z"/>
</symbol>
<symbol id="j" overflow="visible">
<path d="m4.8125-0.89062v-0.5625h-0.25v0.5625c0 0.57812-0.25 0.64062-0.35938 0.64062-0.32812 0-0.35938-0.45312-0.35938-0.5v-1.9844c0-0.42188 0-0.8125-0.35938-1.1875-0.39062-0.39062-0.89062-0.54688-1.375-0.54688-0.8125 0-1.5 0.46875-1.5 1.125 0 0.29688 0.20312 0.46875 0.45312 0.46875 0.28125 0 0.46875-0.20312 0.46875-0.45312 0-0.125-0.0625-0.45312-0.51562-0.45312 0.26562-0.35938 0.76562-0.46875 1.0781-0.46875 0.48438 0 1.0625 0.39062 1.0625 1.2812v0.35938c-0.51562 0.03125-1.2188 0.0625-1.8438 0.35938-0.75 0.34375-1 0.85938-1 1.2969 0 0.8125 0.96875 1.0625 1.5938 1.0625 0.67188 0 1.125-0.40625 1.3125-0.85938 0.046875 0.39062 0.3125 0.8125 0.78125 0.8125 0.20312 0 0.8125-0.14062 0.8125-0.95312zm-1.6562-0.5c0 0.9375-0.71875 1.2812-1.1719 1.2812-0.48438 0-0.89062-0.34375-0.89062-0.84375 0-0.54688 0.40625-1.375 2.0625-1.4375zm1-4.9531-0.15625-0.14062s-0.375 0.46875-0.8125 0.46875c-0.23438 0-0.48438-0.14062-0.65625-0.25-0.26562-0.15625-0.45312-0.21875-0.625-0.21875-0.375 0-0.5625 0.21875-1.0625 0.76562l0.15625 0.15625s0.375-0.48438 0.8125-0.48438c0.23438 0 0.48438 0.15625 0.65625 0.25 0.26562 0.17188 0.4375 0.23438 0.60938 0.23438 0.375 0 0.57812-0.21875 1.0781-0.78125z"/>
</symbol>
<symbol id="c" overflow="visible">
<path d="m4.6875-2.1406c0-1.2656-0.98438-2.3281-2.1875-2.3281-1.25 0-2.2188 1.0938-2.2188 2.3281 0 1.2969 1.0312 2.25 2.2031 2.25 1.2031 0 2.2031-0.98438 2.2031-2.25zm-0.8125-0.078125c0 0.35938 0 0.90625-0.21875 1.3438-0.23438 0.45312-0.67188 0.73438-1.1562 0.73438-0.4375 0-0.875-0.20312-1.1406-0.67188-0.25-0.4375-0.25-1.0469-0.25-1.4062 0-0.39062 0-0.92188 0.23438-1.3594 0.26562-0.45312 0.73438-0.67188 1.1406-0.67188 0.4375 0 0.85938 0.21875 1.125 0.65625 0.26562 0.42188 0.26562 1 0.26562 1.375z"/>
</symbol>
<symbol id="ad" overflow="visible">
<path d="m4.6875-2.1406c0-1.2656-0.98438-2.3281-2.1875-2.3281-1.25 0-2.2188 1.0938-2.2188 2.3281 0 1.2969 1.0312 2.25 2.2031 2.25 1.2031 0 2.2031-0.98438 2.2031-2.25zm-0.8125-0.078125c0 0.35938 0 0.90625-0.21875 1.3438-0.23438 0.45312-0.67188 0.73438-1.1562 0.73438-0.4375 0-0.875-0.20312-1.1406-0.67188-0.25-0.4375-0.25-1.0469-0.25-1.4062 0-0.39062 0-0.92188 0.23438-1.3594 0.26562-0.45312 0.73438-0.67188 1.1406-0.67188 0.4375 0 0.85938 0.21875 1.125 0.65625 0.26562 0.42188 0.26562 1 0.26562 1.375zm0.125-3.0625-1.5-1.6094-1.5156 1.6094 0.125 0.14062 1.3906-1.0781 1.375 1.0781z"/>
</symbol>
<symbol id="e" overflow="visible">
<path d="m5.3281 0v-0.3125c-0.51562 0-0.76562 0-0.76562-0.29688v-1.9062c0-0.85938 0-1.1562-0.3125-1.5156-0.14062-0.17188-0.46875-0.375-1.0469-0.375-0.73438 0-1.2031 0.42188-1.4844 1.0469v-1.0469l-1.4062 0.10938v0.3125c0.70312 0 0.78125 0.0625 0.78125 0.5625v2.6719c0 0.4375-0.10938 0.4375-0.78125 0.4375v0.3125l1.1406-0.03125 1.1094 0.03125v-0.3125c-0.67188 0-0.78125 0-0.78125-0.4375v-1.8438c0-1.0312 0.71875-1.5938 1.3438-1.5938 0.64062 0 0.75 0.53125 0.75 1.1094v2.3281c0 0.4375-0.10938 0.4375-0.78125 0.4375v0.3125l1.125-0.03125z"/>
</symbol>
<symbol id="i" overflow="visible">
<path d="m4.1406-1.1875c0-0.09375-0.10938-0.09375-0.14062-0.09375-0.078125 0-0.10938 0.03125-0.125 0.09375-0.28125 0.92188-0.9375 1.0469-1.2969 1.0469-0.53125 0-1.4062-0.42188-1.4062-2.0312 0-1.625 0.8125-2.0469 1.3438-2.0469 0.09375 0 0.71875 0.015625 1.0625 0.375-0.40625 0.03125-0.46875 0.32812-0.46875 0.45312 0 0.26562 0.1875 0.45312 0.45312 0.45312s0.46875-0.15625 0.46875-0.46875c0-0.67188-0.76562-1.0625-1.5312-1.0625-1.25 0-2.1562 1.0781-2.1562 2.3125 0 1.2812 0.98438 2.2656 2.1406 2.2656 1.3281 0 1.6562-1.2031 1.6562-1.2969z"/>
</symbol>
<symbol id="a" overflow="visible">
<path d="m4.1406-1.1875c0-0.09375-0.078125-0.125-0.14062-0.125-0.078125 0-0.10938 0.0625-0.125 0.14062-0.34375 1.0312-1.25 1.0312-1.3438 1.0312-0.5 0-0.89062-0.29688-1.125-0.67188-0.29688-0.46875-0.29688-1.125-0.29688-1.4844h2.7812c0.21875 0 0.25 0 0.25-0.21875 0-0.98438-0.54688-1.9531-1.7812-1.9531-1.1562 0-2.0781 1.0312-2.0781 2.2812 0 1.3281 1.0469 2.2969 2.1875 2.2969 1.2188 0 1.6719-1.1094 1.6719-1.2969zm-0.65625-1.3281h-2.375c0.0625-1.4844 0.90625-1.7344 1.25-1.7344 1.0156 0 1.125 1.3438 1.125 1.7344z"/>
</symbol>
<symbol id="aj" overflow="visible">
<path d="m5.0625-3.9844v-0.3125c-0.23438 0.015625-0.51562 0.03125-0.75 0.03125l-0.85938-0.03125v0.3125c0.35938 0 0.46875 0.23438 0.46875 0.42188 0 0.09375-0.015625 0.14062-0.046875 0.25l-1.0312 2.5312-1.1094-2.7812c-0.0625-0.125-0.0625-0.17188-0.0625-0.17188 0-0.25 0.39062-0.25 0.57812-0.25v-0.3125l-1.0938 0.03125c-0.26562 0-0.67188-0.015625-0.96875-0.03125v0.3125c0.625 0 0.67188 0.0625 0.79688 0.35938l1.4375 3.5469c0.0625 0.14062 0.078125 0.1875 0.20312 0.1875 0.14062 0 0.17188-0.09375 0.21875-0.1875l1.2969-3.2344c0.09375-0.23438 0.26562-0.67188 0.92188-0.67188z"/>
</symbol>
<symbol id="g" overflow="visible">
<path d="m2.5469 0v-0.3125c-0.67188 0-0.78125 0-0.78125-0.4375v-6.1719l-1.4375 0.10938v0.3125c0.70312 0 0.78125 0.0625 0.78125 0.5625v5.1875c0 0.4375-0.10938 0.4375-0.78125 0.4375v0.3125l1.1094-0.03125z"/>
</symbol>
<symbol id="h" overflow="visible">
<path d="m3.3125-1.2344v-0.5625h-0.25v0.54688c0 0.73438-0.29688 1.1094-0.67188 1.1094-0.67188 0-0.67188-0.90625-0.67188-1.0781v-2.7656h1.4375v-0.3125h-1.4375v-1.8281h-0.25c0 0.8125-0.29688 1.875-1.2812 1.9219v0.21875h0.84375v2.75c0 1.2188 0.9375 1.3438 1.2969 1.3438 0.70312 0 0.98438-0.70312 0.98438-1.3438z"/>
</symbol>
<symbol id="ai" overflow="visible">
<path d="m3.3125 0v-0.3125h-0.25c-0.79688 0-0.8125-0.10938-0.8125-0.46875v-5.25c0-0.35938 0.015625-0.46875 0.8125-0.46875h0.25v-0.3125c-0.34375 0.03125-1.125 0.03125-1.5156 0.03125-0.375 0-1.1719 0-1.5156-0.03125v0.3125h0.25c0.79688 0 0.82812 0.10938 0.82812 0.46875v5.25c0 0.35938-0.03125 0.46875-0.82812 0.46875h-0.25v0.3125c0.34375-0.03125 1.1406-0.03125 1.5156-0.03125 0.39062 0 1.1719 0 1.5156 0.03125z"/>
</symbol>
<symbol id="d" overflow="visible">
<path d="m3.625-3.7969c0-0.3125-0.3125-0.60938-0.73438-0.60938-0.73438 0-1.0938 0.67188-1.2188 1.0938v-1.0938l-1.3906 0.10938v0.3125c0.70312 0 0.78125 0.0625 0.78125 0.5625v2.6719c0 0.4375-0.10938 0.4375-0.78125 0.4375v0.3125l1.1406-0.03125c0.39062 0 0.85938 0 1.2656 0.03125v-0.3125h-0.21875c-0.73438 0-0.75-0.10938-0.75-0.46875v-1.5312c0-0.98438 0.42188-1.875 1.1719-1.875 0.0625 0 0.09375 0 0.10938 0.015625-0.03125 0-0.23438 0.125-0.23438 0.39062s0.21875 0.42188 0.4375 0.42188c0.17188 0 0.42188-0.125 0.42188-0.4375z"/>
</symbol>
<symbol id="q" overflow="visible">
<path d="m8.1094 0v-0.3125c-0.51562 0-0.76562 0-0.78125-0.29688v-1.9062c0-0.85938 0-1.1562-0.3125-1.5156-0.14062-0.17188-0.46875-0.375-1.0469-0.375-0.82812 0-1.2812 0.59375-1.4375 0.98438-0.14062-0.875-0.875-0.98438-1.3281-0.98438-0.73438 0-1.2031 0.42188-1.4844 1.0469v-1.0469l-1.4062 0.10938v0.3125c0.70312 0 0.78125 0.0625 0.78125 0.5625v2.6719c0 0.4375-0.10938 0.4375-0.78125 0.4375v0.3125l1.1406-0.03125 1.1094 0.03125v-0.3125c-0.67188 0-0.78125 0-0.78125-0.4375v-1.8438c0-1.0312 0.71875-1.5938 1.3438-1.5938 0.64062 0 0.75 0.53125 0.75 1.1094v2.3281c0 0.4375-0.10938 0.4375-0.78125 0.4375v0.3125l1.125-0.03125 1.1094 0.03125v-0.3125c-0.65625 0-0.76562 0-0.76562-0.4375v-1.8438c0-1.0312 0.70312-1.5938 1.3438-1.5938 0.625 0 0.73438 0.53125 0.73438 1.1094v2.3281c0 0.4375-0.10938 0.4375-0.78125 0.4375v0.3125l1.125-0.03125z"/>
</symbol>
<symbol id="p" overflow="visible">
<path d="m5.3281 0v-0.3125c-0.6875 0-0.76562-0.0625-0.76562-0.5625v-3.5312l-1.4688 0.10938v0.3125c0.6875 0 0.78125 0.0625 0.78125 0.5625v1.7656c0 0.875-0.48438 1.5469-1.2188 1.5469-0.82812 0-0.875-0.46875-0.875-0.98438v-3.3125l-1.4688 0.10938v0.3125c0.78125 0 0.78125 0.03125 0.78125 0.90625v1.5c0 0.78125 0 1.6875 1.5156 1.6875 0.5625 0 1-0.28125 1.2812-0.89062v0.89062z"/>
</symbol>
<symbol id="ah" overflow="visible">
<path d="m4.9688-1.8594c0-0.98438-0.65625-1.8125-1.4844-2.0156l-1.2812-0.29688c-0.625-0.15625-1-0.6875-1-1.2656 0-0.70312 0.53125-1.3125 1.3125-1.3125 1.6562 0 1.875 1.6406 1.9375 2.0781 0.015625 0.0625 0.015625 0.125 0.125 0.125 0.125 0 0.125-0.046875 0.125-0.23438v-2c0-0.17188 0-0.25-0.10938-0.25-0.0625 0-0.078125 0.015625-0.14062 0.14062l-0.35938 0.5625c-0.29688-0.29688-0.70312-0.70312-1.5938-0.70312-1.1094 0-1.9375 0.875-1.9375 1.9375 0 0.82812 0.53125 1.5625 1.2969 1.8281 0.10938 0.03125 0.625 0.15625 1.3281 0.32812 0.26562 0.0625 0.5625 0.14062 0.84375 0.5 0.20312 0.26562 0.3125 0.59375 0.3125 0.92188 0 0.70312-0.5 1.4219-1.3438 1.4219-0.28125 0-1.0469-0.046875-1.5781-0.53125-0.57812-0.54688-0.60938-1.1719-0.60938-1.5312-0.015625-0.10938-0.09375-0.10938-0.125-0.10938-0.125 0-0.125 0.078125-0.125 0.25v2c0 0.17188 0 0.23438 0.10938 0.23438 0.0625 0 0.078125-0.015625 0.14062-0.125 0 0 0.03125-0.046875 0.35938-0.57812 0.3125 0.34375 0.95312 0.70312 1.8438 0.70312 1.1562 0 1.9531-0.96875 1.9531-2.0781z"/>
</symbol>
<symbol id="ag" overflow="visible">
<path d="m5.1875-2.1562c0-1.2656-0.95312-2.25-2.0781-2.25-0.78125 0-1.2031 0.4375-1.3906 0.65625v-0.65625l-1.4375 0.10938v0.3125c0.70312 0 0.78125 0.0625 0.78125 0.5v4.6562c0 0.45312-0.10938 0.45312-0.78125 0.45312v0.3125l1.1094-0.03125 1.125 0.03125v-0.3125c-0.65625 0-0.76562 0-0.76562-0.45312v-1.7656c0.046875 0.17188 0.46875 0.70312 1.2188 0.70312 1.1875 0 2.2188-0.98438 2.2188-2.2656zm-0.82812 0c0 1.2031-0.6875 2.0469-1.4219 2.0469-0.40625 0-0.78125-0.20312-1.0469-0.60938-0.14062-0.20312-0.14062-0.21875-0.14062-0.42188v-2.2188c0.28125-0.51562 0.76562-0.79688 1.2812-0.79688 0.73438 0 1.3281 0.875 1.3281 2z"/>
</symbol>
<symbol id="af" overflow="visible">
<path d="m2.0312-0.015625c0-0.625-0.25-1.0469-0.64062-1.0469-0.35938 0-0.53125 0.28125-0.53125 0.53125 0 0.26562 0.17188 0.53125 0.53125 0.53125 0.14062 0 0.28125-0.0625 0.39062-0.15625 0.015625 0.78125-0.25 1.3906-0.6875 1.8594-0.0625 0.0625-0.078125 0.078125-0.078125 0.10938 0 0.078125 0.046875 0.10938 0.09375 0.10938 0.125 0 0.92188-0.78125 0.92188-1.9375z"/>
</symbol>
<symbol id="ac" overflow="visible">
<path d="m4.3438-3.7656c0-0.34375-0.3125-0.64062-0.82812-0.64062-0.64062 0-1.0781 0.48438-1.2656 0.76562-0.09375-0.45312-0.45312-0.76562-0.92188-0.76562-0.45312 0-0.64062 0.39062-0.73438 0.5625-0.17188 0.34375-0.29688 0.9375-0.29688 0.96875 0 0.10938 0.10938 0.10938 0.10938 0.10938 0.10938 0 0.10938-0.015625 0.17188-0.23438 0.17188-0.70312 0.375-1.1875 0.73438-1.1875 0.15625 0 0.29688 0.078125 0.29688 0.45312 0 0.21875-0.03125 0.32812-0.15625 0.84375l-0.57812 2.2969c-0.03125 0.15625-0.09375 0.39062-0.09375 0.4375 0 0.17188 0.14062 0.26562 0.29688 0.26562 0.125 0 0.29688-0.078125 0.375-0.28125 0.015625-0.03125 0.34375-1.3906 0.39062-1.5781l0.3125-1.2969c0.046875-0.125 0.32812-0.59375 0.5625-0.8125 0.078125-0.0625 0.375-0.32812 0.79688-0.32812 0.26562 0 0.42188 0.125 0.42188 0.125-0.29688 0.046875-0.51562 0.28125-0.51562 0.54688 0 0.15625 0.10938 0.34375 0.375 0.34375s0.54688-0.23438 0.54688-0.59375z"/>
</symbol>
<symbol id="ab" overflow="visible">
<path d="m-2.5781-6.5v0.25c1.5469 0.25 2.2656 0.48438 2.2656 2.1875v1.3281c0 0.46875-0.0625 0.48438-0.39062 0.48438h-2.6719v-0.89062c0-0.96875 0.32812-1.0781 1.1719-1.0781v-0.25h-2.6406v0.25c0.85938 0 1.1719 0.10938 1.1719 1.0781v0.89062h-2.4062c-0.32812 0-0.39062-0.015625-0.39062-0.48438v-1.2812c0-1.5312 0.54688-1.7969 1.9375-1.9531v-0.25l-2.25 0.28125v5.6094h0.3125v-0.23438c0-0.76562 0.10938-0.79688 0.46875-0.79688h5.2188c0.35938 0 0.46875 0.03125 0.46875 0.79688v0.23438h0.3125v-5.75z"/>
</symbol>
<symbol id="o" overflow="visible">
<path d="m0-5.3281h-0.3125c0 0.51562 0 0.76562-0.29688 0.76562h-1.9062c-0.85938 0-1.1562 0-1.5156 0.3125-0.17188 0.14062-0.375 0.46875-0.375 1.0469 0 0.73438 0.42188 1.2031 1.0469 1.4844h-1.0469l0.10938 1.4062h0.3125c0-0.70312 0.0625-0.78125 0.5625-0.78125h2.6719c0.4375 0 0.4375 0.10938 0.4375 0.78125h0.3125l-0.03125-1.1406 0.03125-1.1094h-0.3125c0 0.67188 0 0.78125-0.4375 0.78125h-1.8438c-1.0312 0-1.5938-0.71875-1.5938-1.3438 0-0.64062 0.53125-0.75 1.1094-0.75h2.3281c0.4375 0 0.4375 0.10938 0.4375 0.78125h0.3125l-0.03125-1.125z"/>
</symbol>
<symbol id="n" overflow="visible">
<path d="m-1.1875-4.1406c-0.09375 0-0.125 0.078125-0.125 0.14062 0 0.078125 0.0625 0.10938 0.14062 0.125 1.0312 0.34375 1.0312 1.25 1.0312 1.3438 0 0.5-0.29688 0.89062-0.67188 1.125-0.46875 0.29688-1.125 0.29688-1.4844 0.29688v-2.7812c0-0.21875 0-0.25-0.21875-0.25-0.98438 0-1.9531 0.54688-1.9531 1.7812 0 1.1562 1.0312 2.0781 2.2812 2.0781 1.3281 0 2.2969-1.0469 2.2969-2.1875 0-1.2188-1.1094-1.6719-1.2969-1.6719zm-1.3281 0.65625v2.375c-1.4844-0.0625-1.7344-0.90625-1.7344-1.25 0-1.0156 1.3438-1.125 1.7344-1.125z"/>
</symbol>
<symbol id="w" overflow="visible">
<path d="m-3.7969-3.625c-0.3125 0-0.60938 0.3125-0.60938 0.73438 0 0.73438 0.67188 1.0938 1.0938 1.2188h-1.0938l0.10938 1.3906h0.3125c0-0.70312 0.0625-0.78125 0.5625-0.78125h2.6719c0.4375 0 0.4375 0.10938 0.4375 0.78125h0.3125l-0.03125-1.1406c0-0.39062 0-0.85938 0.03125-1.2656h-0.3125v0.21875c0 0.73438-0.10938 0.75-0.46875 0.75h-1.5312c-0.98438 0-1.875-0.42188-1.875-1.1719 0-0.0625 0-0.09375 0.015625-0.10938 0 0.03125 0.125 0.23438 0.39062 0.23438s0.42188-0.21875 0.42188-0.4375c0-0.17188-0.125-0.42188-0.4375-0.42188z"/>
</symbol>
<symbol id="v" overflow="visible">
<path d="m-4.0312-4.8281c-0.17188 0-0.48438 0.10938-0.48438 0.5 0 0.20312 0.0625 0.64062 0.46875 1.0625-0.32812 0.42188-0.35938 0.82812-0.35938 1.0469 0 0.9375 0.6875 1.625 1.4531 1.625 0.4375 0 0.8125-0.21875 1.0312-0.46875 0.14062 0.125 0.46875 0.3125 0.82812 0.3125 0.3125 0 0.6875-0.14062 0.89062-0.45312 0.15625 0.60938 0.59375 0.92188 0.98438 0.92188 0.71875 0 1.2656-0.98438 1.2656-2.2031 0-1.1719-0.5-2.2031-1.2812-2.2031-0.34375 0-0.85938 0.125-1.1406 0.64062-0.26562 0.53125-0.26562 1.1094-0.26562 1.7188 0 0.25 0 0.67188-0.015625 0.75-0.046875 0.3125-0.34375 0.51562-0.67188 0.51562-0.03125 0-0.26562 0-0.46875-0.15625 0.28125-0.39062 0.3125-0.8125 0.3125-1 0-0.92188-0.6875-1.6094-1.4531-1.6094-0.375 0-0.73438 0.15625-0.96875 0.40625-0.34375-0.35938-0.39062-0.71875-0.39062-0.89062 0 0 0-0.078125 0.015625-0.10938 0.03125 0.10938 0.14062 0.17188 0.26562 0.17188 0.17188 0 0.28125-0.14062 0.28125-0.29688 0-0.09375-0.0625-0.28125-0.29688-0.28125zm1.0781 1.75c0.26562 0 0.59375 0 0.84375 0.15625 0.10938 0.078125 0.39062 0.3125 0.39062 0.70312 0 0.875-1 0.875-1.2188 0.875-0.26562 0-0.59375-0.015625-0.84375-0.15625-0.10938-0.078125-0.39062-0.3125-0.39062-0.71875 0-0.85938 0.98438-0.85938 1.2188-0.85938zm3.7344-1.0938c0.54688 0 1.0469 0.70312 1.0469 1.6719 0 1.0156-0.51562 1.7031-1.0469 1.7031-0.45312 0-0.82812-0.375-0.84375-0.8125v-0.59375c0-0.85938 0-1.9688 0.84375-1.9688z"/>
</symbol>
<symbol id="m" overflow="visible">
<path d="m0-2.4688h-0.3125c0 0.67188-0.046875 0.70312-0.4375 0.70312h-3.6562l0.10938 1.3906h0.3125c0-0.64062 0.0625-0.73438 0.54688-0.73438h2.6875c0.4375 0 0.4375 0.10938 0.4375 0.78125h0.3125l-0.03125-1.0938c0-0.35938 0.015625-0.70312 0.03125-1.0469zm-6.0156 0.5625c-0.28125 0-0.53125 0.21875-0.53125 0.51562 0 0.34375 0.28125 0.54688 0.53125 0.54688 0.26562 0 0.51562-0.23438 0.51562-0.53125 0-0.34375-0.26562-0.53125-0.51562-0.53125z"/>
</symbol>
<symbol id="l" overflow="visible">
<path d="m-0.89062-4.8125h-0.5625v0.25h0.5625c0.57812 0 0.64062 0.25 0.64062 0.35938 0 0.32812-0.45312 0.35938-0.5 0.35938h-1.9844c-0.42188 0-0.8125 0-1.1875 0.35938-0.39062 0.39062-0.54688 0.89062-0.54688 1.375 0 0.8125 0.46875 1.5 1.125 1.5 0.29688 0 0.46875-0.20312 0.46875-0.45312 0-0.28125-0.20312-0.46875-0.45312-0.46875-0.125 0-0.45312 0.0625-0.45312 0.51562-0.35938-0.26562-0.46875-0.76562-0.46875-1.0781 0-0.48438 0.39062-1.0625 1.2812-1.0625h0.35938c0.03125 0.51562 0.0625 1.2188 0.35938 1.8438 0.34375 0.75 0.85938 1 1.2969 1 0.8125 0 1.0625-0.96875 1.0625-1.5938 0-0.67188-0.40625-1.125-0.85938-1.3125 0.39062-0.046875 0.8125-0.3125 0.8125-0.78125 0-0.20312-0.14062-0.8125-0.95312-0.8125zm-0.5 1.6562c0.9375 0 1.2812 0.71875 1.2812 1.1719 0 0.48438-0.34375 0.89062-0.84375 0.89062-0.54688 0-1.375-0.40625-1.4375-2.0625z"/>
</symbol>
<symbol id="u" overflow="visible">
<path d="m-2.1562-5.1875c-1.2656 0-2.25 0.95312-2.25 2.0781 0 0.78125 0.4375 1.2031 0.65625 1.3906h-0.65625l0.10938 1.4375h0.3125c0-0.70312 0.0625-0.78125 0.5-0.78125h4.6562c0.45312 0 0.45312 0.10938 0.45312 0.78125h0.3125l-0.03125-1.1094 0.03125-1.125h-0.3125c0 0.65625 0 0.76562-0.45312 0.76562h-1.7656c0.17188-0.046875 0.70312-0.46875 0.70312-1.2188 0-1.1875-0.98438-2.2188-2.2656-2.2188zm0 0.82812c1.2031 0 2.0469 0.6875 2.0469 1.4219 0 0.40625-0.20312 0.78125-0.60938 1.0469-0.20312 0.14062-0.21875 0.14062-0.42188 0.14062h-2.2188c-0.51562-0.28125-0.79688-0.76562-0.79688-1.2812 0-0.73438 0.875-1.3281 2-1.3281z"/>
</symbol>
<symbol id="t" overflow="visible">
<path d="m-2.1406-4.6875c-1.2656 0-2.3281 0.98438-2.3281 2.1875 0 1.25 1.0938 2.2188 2.3281 2.2188 1.2969 0 2.25-1.0312 2.25-2.2031 0-1.2031-0.98438-2.2031-2.25-2.2031zm-0.078125 0.8125c0.35938 0 0.90625 0 1.3438 0.21875 0.45312 0.23438 0.73438 0.67188 0.73438 1.1562 0 0.4375-0.20312 0.875-0.67188 1.1406-0.4375 0.25-1.0469 0.25-1.4062 0.25-0.39062 0-0.92188 0-1.3594-0.23438-0.45312-0.26562-0.67188-0.73438-0.67188-1.1406 0-0.4375 0.21875-0.85938 0.65625-1.125 0.42188-0.26562 1-0.26562 1.375-0.26562z"/>
</symbol>
<symbol id="aa" overflow="visible">
<path d="m-1.2344-3.3125h-0.5625v0.25h0.54688c0.73438 0 1.1094 0.29688 1.1094 0.67188 0 0.67188-0.90625 0.67188-1.0781 0.67188h-2.7656v-1.4375h-0.3125v1.4375h-1.8281v0.25c0.8125 0 1.875 0.29688 1.9219 1.2812h0.21875v-0.84375h2.75c1.2188 0 1.3438-0.9375 1.3438-1.2969 0-0.70312-0.70312-0.98438-1.3438-0.98438z"/>
</symbol>
<symbol id="z" overflow="visible">
<path d="m-1.1875-4.1406c-0.09375 0-0.09375 0.10938-0.09375 0.14062 0 0.078125 0.03125 0.10938 0.09375 0.125 0.92188 0.28125 1.0469 0.9375 1.0469 1.2969 0 0.53125-0.42188 1.4062-2.0312 1.4062-1.625 0-2.0469-0.8125-2.0469-1.3438 0-0.09375 0.015625-0.71875 0.375-1.0625 0.03125 0.40625 0.32812 0.46875 0.45312 0.46875 0.26562 0 0.45312-0.1875 0.45312-0.45312s-0.15625-0.46875-0.46875-0.46875c-0.67188 0-1.0625 0.76562-1.0625 1.5312 0 1.25 1.0781 2.1562 2.3125 2.1562 1.2812 0 2.2656-0.98438 2.2656-2.1406 0-1.3281-1.2031-1.6562-1.2969-1.6562z"/>
</symbol>
<symbol id="y" overflow="visible">
<path d="m0-2.5469h-0.3125c0 0.67188 0 0.78125-0.4375 0.78125h-6.1719l0.10938 1.4375h0.3125c0-0.70312 0.0625-0.78125 0.5625-0.78125h5.1875c0.4375 0 0.4375 0.10938 0.4375 0.78125h0.3125l-0.03125-1.1094z"/>
</symbol>
<symbol id="x" overflow="visible">
<path d="m-0.015625-2.0312c-0.625 0-1.0469 0.25-1.0469 0.64062 0 0.35938 0.28125 0.53125 0.53125 0.53125 0.26562 0 0.53125-0.17188 0.53125-0.53125 0-0.14062-0.0625-0.28125-0.15625-0.39062 0.78125-0.015625 1.3906 0.25 1.8594 0.6875 0.0625 0.0625 0.078125 0.078125 0.10938 0.078125 0.078125 0 0.10938-0.046875 0.10938-0.09375 0-0.125-0.78125-0.92188-1.9375-0.92188z"/>
</symbol>
<symbol id="s" overflow="visible">
<path d="m-2.4688-7.1094s-0.10938 0-0.10938 0.125c0 0.09375 0.0625 0.10938 0.125 0.125 1.4688 0.65625 2.1406 1.0156 2.1406 2.7188v1.4531 0.21875c-0.015625 0.10938-0.03125 0.14062-0.10938 0.14062-0.03125 0-0.046875 0-0.21875-0.046875l-2.7344-0.6875v-0.98438c0-0.84375 0.21875-0.84375 0.46875-0.84375 0.0625 0 0.1875 0 0.48438 0.0625 0.046875 0.015625 0.078125 0.03125 0.10938 0.03125 0.046875 0 0.10938-0.03125 0.10938-0.125 0-0.078125-0.046875-0.10938-0.20312-0.15625l-2.3281-0.5625c-0.0625 0-0.10938 0.046875-0.10938 0.125s0.0625 0.10938 0.17188 0.125c0.76562 0.21875 1 0.39062 1 1.3125v0.9375l-2.4062-0.59375c-0.35938-0.09375-0.39062-0.10938-0.39062-0.54688v-1.4062c0-1.2031 0.28125-1.5156 1.1094-1.5156 0.23438 0 0.25 0 0.53125 0.046875 0.046875 0 0.125 0.015625 0.17188 0.015625s0.125-0.03125 0.125-0.125c0-0.10938-0.0625-0.125-0.25-0.14062l-1.7344-0.20312c-0.26562-0.03125-0.26562 0.015625-0.26562 0.26562v5.0469c0 0.1875 0 0.29688 0.20312 0.29688 0.10938 0 0.10938-0.09375 0.10938-0.28125 0-0.375 0-0.65625 0.17188-0.65625 0.046875 0 0.0625 0 0.25 0.0625l5.2656 1.3125c0.39062 0.09375 0.46875 0.10938 0.46875 0.90625 0 0.17188 0 0.28125 0.1875 0.28125 0.125 0 0.125-0.09375 0.125-0.28125v-5.1719c0-0.23438-0.015625-0.25-0.17188-0.3125l-2.1562-0.92188-0.14062-0.046875z"/>
</symbol>
<symbol id="r" overflow="visible">
<path d="m-1.5-4.0625c-0.85938 0-1.5781 0.70312-1.5781 1.5938 0 0.39062 0.15625 0.79688 0.4375 1.0781h-0.4375l0.078125 1.0469h0.25c0-0.48438 0.046875-0.51562 0.32812-0.51562h3.2188c0.29688 0 0.29688 0.0625 0.29688 0.51562h0.26562s-0.03125-0.5-0.03125-0.79688c0-0.25 0.015625-0.73438 0.03125-0.79688h-0.26562c0 0.45312 0 0.51562-0.29688 0.51562h-1.125c0.03125-0.03125 0.39062-0.35938 0.39062-0.9375 0-0.92188-0.6875-1.7031-1.5625-1.7031zm0 0.625c0.79688 0 1.375 0.53125 1.375 1.1094 0 0.625-0.53125 0.89062-0.57812 0.90625h-1.625c-0.34375-0.20312-0.51562-0.60938-0.51562-0.96875 0-0.59375 0.60938-1.0469 1.3438-1.0469z"/>
</symbol>
<clipPath id="an">
<path d="m25.664 0.54297h194.28v161.4h-194.28z"/>
</clipPath>
<clipPath id="am">
<path d="m55 0.54297h164.94v80.457h-164.94z"/>
</clipPath>
</defs>
<path transform="matrix(1 0 0 -1 25.666 147.27)" d="m-0.0019375 104.71h194.28" fill="none" stroke="#bfbfbf" stroke-miterlimit="10" stroke-width=".3985"/>
<path transform="matrix(1 0 0 -1 25.666 147.27)" d="m-0.0019375 104.71h4.2539m190.02 0h-4.2539" fill="none" stroke="#7f7f7f" stroke-miterlimit="10" stroke-width=".19925"/>
<path transform="matrix(1 0 0 -1 25.666 147.27)" d="m-0.0019375-14.673v161.4h194.28v-161.4z" fill="none" stroke="#000" stroke-miterlimit="10" stroke-width=".3985"/>
<g>
<use x="17.165" y="45.697" xlink:href="#al"/>
</g>
<g clip-path="url(#an)">
<path transform="matrix(1 0 0 -1 25.666 147.27)" d="m7.7715 1716.7 1.25-571.61 1.2539-388.15 1.25-263.23 1.2539-177.86 1.25-119.37 1.25-79.074 1.2539-51.375 1.25-32.262 1.2539-19.16 1.25-10.23 1.2539-4.1836 1.25-0.15625 1.25 2.4688 1.2539 4.1133 1.25 5.082 1.2539 5.5859 1.25 5.7734 1.2539 5.7461 1.25 5.5898 1.2539 5.3438 1.25 5.0508 1.25 4.7227 1.2539 4.3984 1.25 4.0703 1.2539 3.7539 1.25 3.457 1.2539 3.1719 1.25 2.9102 1.25 2.6641 1.2539 2.4375 1.25 2.2344 1.2539 2.0391 1.25 1.8672 1.2539 1.7109 1.25 1.5625 1.25 1.4336 1.2539 1.3125 1.25 1.1992 1.2539 1.1055 1.25 1.0078 1.2539 0.92969 1.25 0.85547 1.25 0.78516 1.2539 0.71875 1.25 0.66797 1.2539 0.60938 1.25 0.56641 1.2539 0.51953 1.25 0.48438 1.25 0.44531 1.2539 0.41016 1.25 0.37891 1.2539 0.35547 1.25 0.32422 1.2539 0.30469 1.25 0.28125 1.2539 0.26172 1.25 0.24219 1.25 0.22656 1.2539 0.21094 1.25 0.19531 1.2539 0.18359 1.25 0.17188 1.2539 0.16016 1.25 0.14844 1.25 0.13672 1.2539 0.12891 1.25 0.125 1.2539 0.11328 1.25 0.10547 1.2539 0.10156 2.5 0.17969 1.2539 0.082031 1.25 0.078125 1.2539 0.074219 1.25 0.066406 1.2539 0.066406 2.5 0.11719 1.2539 0.054687 1.25 0.050782 1.2539 0.046875 1.25 0.042968 1.2539 0.042969 1.25 0.042969 1.25 0.035156 1.2539 0.039063 1.25 0.03125 1.2539 0.035156 1.25 0.027344 1.2539 0.03125 1.25 0.027343 1.2539 0.023438 1.25 0.027344 1.25 0.023437 1.2539 0.019531 1.25 0.023438 1.2539 0.019531 1.25 0.019531 1.2539 0.015625 1.25 0.019532 2.5039 0.03125 1.25 0.015625 1.2539 0.011718 1.25 0.015625 1.2539 0.011719 3.7539 0.035156 1.25 0.007813 1.2539 0.011719 1.25 0.007812 1.2539 0.011719 3.7539 0.023437 2.5039 0.015625 2.5039 0.015625 1.25 0.003907 1.25 0.007812 1.2539 0.003906 1.25 0.007813 1.2539 0.003906 1.25 0.003906 1.2539 0.007813 2.5039 0.007812 11.262 0.035157h1.2539l3.7539 0.011718h1.2539l1.25 0.003907h1.25l1.2539 0.003906 1.25 0.003906" fill="none" stroke="#0c6dfd" stroke-miterlimit="10" stroke-width="1.1955"/>
</g>
<g clip-path="url(#am)">
<path transform="matrix(1 0 0 -1 25.666 147.27)" d="m46.627 1265.4 0.98828-172.26 0.99219-146.85 0.99219-125.39 0.98828-107.25 0.99219-91.656 0.99219-78.523 0.98828-67.254 0.99219-57.688 0.99219-49.387 0.98828-42.402 0.99219-36.332 0.99219-31.164 0.98828-26.738 0.99219-22.941 0.99219-19.711 0.98828-16.809 0.99219-14.418 0.99219-12.332 0.98828-10.523 0.99219-8.9844 0.99219-7.625 0.98828-6.4609 0.99219-5.4844 0.99219-4.6211 0.99219-3.8711 0.98828-3.2383 0.99219-2.6836 0.99219-2.207 0.98828-1.7969 0.99219-1.4453 0.99219-1.1445 0.98828-0.88281 0.99219-0.65625 0.99219-0.46875 0.98828-0.30469 0.99219-0.16797 0.99219-0.050781 0.98828 0.050781 0.99219 0.13281 0.99219 0.20312 0.98828 0.26172 0.99219 0.30859 0.99219 0.34766 0.98828 0.37891 0.99219 0.40234 0.99219 0.42578 0.98828 0.4375 0.99219 0.44531 0.99219 0.45703 0.98828 0.45703 1.9844 0.91406 0.98828 0.45312 0.99219 0.44922 0.99219 0.44531 0.98828 0.4375 0.99219 0.42578 0.99219 0.41797 0.98828 0.41406 0.99219 0.39844 0.99219 0.39062 0.98828 0.38281 0.99219 0.37109 0.99219 0.35938 0.98828 0.35156 0.99219 0.33984 0.99219 0.32812 0.98828 0.32031 0.99219 0.30859 0.99219 0.30078 0.98828 0.28906 0.99219 0.28125 0.99219 0.26953 0.99219 0.26172 0.98828 0.25391 0.99219 0.24609 0.99219 0.23828 0.98828 0.22656 0.99219 0.22266 0.99219 0.21094 0.98828 0.20703 0.99219 0.19922 0.99219 0.19141 0.98828 0.1875 1.9844 0.35156 0.98828 0.16406 0.99219 0.16406 0.99219 0.15625 0.98828 0.14844 0.99219 0.14453 0.99219 0.14062 0.98828 0.13672 0.99219 0.12891 0.99219 0.125 0.98828 0.12109 0.99219 0.11719 0.99219 0.11328 0.98828 0.11328 0.99219 0.10547 0.99219 0.10156 0.98828 0.097656 1.9844 0.1875 0.98828 0.089844 0.99219 0.085937 0.99219 0.082032 0.98828 0.082031 0.99219 0.078125 0.99219 0.074219 0.98828 0.074218 0.99219 0.070313 0.99219 0.066406 0.98828 0.066406 1.9844 0.125 0.98828 0.058594 0.99219 0.058594 0.99219 0.054687 0.98828 0.054688 2.9766 0.15234 0.98828 0.046875 0.99219 0.046875 0.99219 0.042968 0.98828 0.042969 0.99219 0.042969 0.99219 0.039062 0.98828 0.039063 0.99219 0.039062 0.99219 0.035157 0.98828 0.035156 1.9844 0.070312 0.98828 0.03125 1.9844 0.0625 0.98828 0.027344 0.99219 0.03125 0.99219 0.027344 0.98828 0.027344 0.99219 0.027343 0.99219 0.023438 0.98828 0.023437 0.99219 0.027344 0.99219 0.023438 0.98828 0.019531 0.99219 0.023437" fill="none" stroke="#dc3445" stroke-miterlimit="10" stroke-width="1.1955"/>
</g>
<g>
<use x="60.269" y="139.555" xlink:href="#ak"/>
<use x="66.495625" y="139.555" xlink:href="#f"/>
<use x="69.263235" y="139.555" xlink:href="#ae"/>
<use x="74.244535" y="139.555" xlink:href="#b"/>
<use x="79.225835" y="139.555" xlink:href="#k"/>
<use x="83.654211" y="139.555" xlink:href="#j"/>
<use x="88.635511" y="139.555" xlink:href="#c"/>
<use x="96.934357" y="139.555" xlink:href="#f"/>
<use x="99.701967" y="139.555" xlink:href="#ad"/>
<use x="104.683267" y="139.555" xlink:href="#e"/>
<use x="110.218488" y="139.555" xlink:href="#f"/>
<use x="112.986098" y="139.555" xlink:href="#i"/>
<use x="117.414474" y="139.555" xlink:href="#b"/>
<use x="125.713319" y="139.555" xlink:href="#a"/>
<use x="133.469204" y="139.555" xlink:href="#i"/>
<use x="137.897579" y="139.555" xlink:href="#c"/>
<use x="142.599926" y="139.555" xlink:href="#aj"/>
<use x="147.300281" y="139.555" xlink:href="#b"/>
<use x="152.281581" y="139.555" xlink:href="#g"/>
<use x="155.049191" y="139.555" xlink:href="#a"/>
<use x="159.477567" y="139.555" xlink:href="#e"/>
<use x="164.733835" y="139.555" xlink:href="#h"/>
<use x="168.60829" y="139.555" xlink:href="#a"/>
<use x="91.352" y="78.635" xlink:href="#ai"/>
<use x="94.949495" y="78.635" xlink:href="#e"/>
<use x="100.205763" y="78.635" xlink:href="#h"/>
<use x="104.080218" y="78.635" xlink:href="#a"/>
<use x="108.508593" y="78.635" xlink:href="#d"/>
<use x="112.410944" y="78.635" xlink:href="#b"/>
<use x="117.392244" y="78.635" xlink:href="#k"/>
<use x="121.82062" y="78.635" xlink:href="#j"/>
<use x="126.80192" y="78.635" xlink:href="#c"/>
<use x="135.100765" y="78.635" xlink:href="#f"/>
<use x="137.868376" y="78.635" xlink:href="#e"/>
<use x="143.134606" y="78.635" xlink:href="#h"/>
<use x="147.009061" y="78.635" xlink:href="#a"/>
<use x="151.437437" y="78.635" xlink:href="#d"/>
<use x="155.329825" y="78.635" xlink:href="#q"/>
<use x="163.631659" y="78.635" xlink:href="#c"/>
<use x="168.612959" y="78.635" xlink:href="#g"/>
<use x="171.38057" y="78.635" xlink:href="#a"/>
<use x="175.808945" y="78.635" xlink:href="#i"/>
<use x="180.237321" y="78.635" xlink:href="#p"/>
<use x="185.772542" y="78.635" xlink:href="#g"/>
<use x="188.540152" y="78.635" xlink:href="#b"/>
<use x="193.521452" y="78.635" xlink:href="#d"/>
<use x="62.674" y="172.324" xlink:href="#ah"/>
<use x="68.209221" y="172.324" xlink:href="#a"/>
<use x="72.637596" y="172.324" xlink:href="#ag"/>
<use x="78.172817" y="172.324" xlink:href="#b"/>
<use x="83.154117" y="172.324" xlink:href="#d"/>
<use x="87.056467" y="172.324" xlink:href="#b"/>
<use x="92.037767" y="172.324" xlink:href="#k"/>
<use x="96.466143" y="172.324" xlink:href="#j"/>
<use x="101.447443" y="172.324" xlink:href="#c"/>
<use x="109.746289" y="172.324" xlink:href="#f"/>
<use x="112.513899" y="172.324" xlink:href="#e"/>
<use x="117.770167" y="172.324" xlink:href="#h"/>
<use x="121.644622" y="172.324" xlink:href="#a"/>
<use x="126.072998" y="172.324" xlink:href="#d"/>
<use x="129.975348" y="172.324" xlink:href="#q"/>
<use x="138.277183" y="172.324" xlink:href="#c"/>
<use x="143.258483" y="172.324" xlink:href="#g"/>
<use x="146.026093" y="172.324" xlink:href="#a"/>
<use x="150.454469" y="172.324" xlink:href="#i"/>
<use x="154.882844" y="172.324" xlink:href="#p"/>
<use x="160.418065" y="172.324" xlink:href="#g"/>
<use x="163.185675" y="172.324" xlink:href="#b"/>
<use x="168.166975" y="172.324" xlink:href="#d"/>
<use x="172.069326" y="172.324" xlink:href="#af"/>
<use x="178.157" y="172.324" xlink:href="#ac"/>
<use x="7.474" y="128.549" xlink:href="#ab"/>
<use x="7.474" y="121.768454" xlink:href="#o"/>
<use x="7.474" y="116.233234" xlink:href="#n"/>
<use x="7.474" y="111.804858" xlink:href="#w"/>
<use x="7.474" y="107.902508" xlink:href="#v"/>
<use x="7.474" y="102.921208" xlink:href="#m"/>
<use x="7.474" y="100.153597" xlink:href="#l"/>
<use x="7.474" y="91.854752" xlink:href="#u"/>
<use x="7.474" y="86.040578" xlink:href="#t"/>
<use x="7.474" y="81.059278" xlink:href="#aa"/>
<use x="7.474" y="77.184823" xlink:href="#n"/>
<use x="7.474" y="72.756447" xlink:href="#o"/>
<use x="7.474" y="67.221227" xlink:href="#z"/>
<use x="7.474" y="62.792851" xlink:href="#m"/>
<use x="7.474" y="60.025241" xlink:href="#l"/>
<use x="7.474" y="55.043941" xlink:href="#y"/>
<use x="7.474" y="52.276331" xlink:href="#x"/>
<use x="7.474" y="46.191" xlink:href="#s"/>
<use x="8.968" y="38.837" xlink:href="#r"/>
</g>
</svg>
