<?xml version="1.0" encoding="UTF-8"?>
<svg width="138pt" height="58pt" version="1.1" viewBox="0 0 138 58" xmlns="http://www.w3.org/2000/svg" xmlns:xlink="http://www.w3.org/1999/xlink">
<defs>
<symbol id="a" overflow="visible">
<path d="m6.7656-3.4375c0-2.0938-1.4375-3.7031-3.0938-3.7031-1.7031 0-3.1094 1.625-3.1094 3.7031 0 2.1094 1.4688 3.6562 3.0938 3.6562 1.6719 0 3.1094-1.5625 3.1094-3.6562zm-0.89062-0.15625c0 1.9531-1.0625 3.1719-2.2031 3.1719-1.1719 0-2.2188-1.25-2.2188-3.1719 0-1.8125 1.0938-2.9062 2.2031-2.9062 1.1562 0 2.2188 1.125 2.2188 2.9062z"/>
</symbol>
<symbol id="b" overflow="visible">
<path d="m6.0938 0v-6.9219h-0.78125v6.2188h-0.015625l-0.65625-1.375-2.4531-4.8438h-1.2344v6.9219h0.78125v-6.2031h0.015625l0.65625 1.3594 2.4531 4.8438z"/>
</symbol>
<symbol id="d" overflow="visible">
<path d="m7.1875-2.5c0-0.1875-0.1875-0.1875-0.32812-0.1875h-2.7812v-2.7969c0-0.14062 0-0.32812-0.20312-0.32812s-0.20312 0.1875-0.20312 0.32812v2.7969h-2.7812c-0.14062 0-0.32812 0-0.32812 0.1875 0 0.20312 0.1875 0.20312 0.32812 0.20312h2.7812v2.7969c0 0.14062 0 0.32812 0.20312 0.32812s0.20312-0.1875 0.20312-0.32812v-2.7969h2.7812c0.14062 0 0.32812 0 0.32812-0.20312z"/>
</symbol>
<symbol id="c" overflow="visible">
<path d="m2.75-1.8594v-0.57812h-2.6406v0.57812z"/>
</symbol>
</defs>
<g>
<use x="9.488" y="57.464" xlink:href="#a"/>
</g>
<path transform="matrix(1 0 0 -1 .733 46.834)" d="m0.001375-0.0019375 7.375-4.2578" fill="none" stroke="#000" stroke-linecap="round" stroke-miterlimit="10" stroke-width=".59758"/>
<path transform="matrix(1 0 0 -1 .733 46.834)" d="m17.466-4.2598 7.375 4.2578" fill="none" stroke="#000" stroke-linecap="round" stroke-miterlimit="10" stroke-width=".59758"/>
<path transform="matrix(1 0 0 -1 .733 46.834)" d="m24.841-0.0019375 12.422-7.168" fill="none" stroke="#000" stroke-linecap="round" stroke-miterlimit="10" stroke-width=".59758"/>
<path transform="matrix(1 0 0 -1 .733 46.834)" d="m37.263-7.1699 12.422 7.168" fill="none" stroke="#000" stroke-linecap="round" stroke-miterlimit="10" stroke-width=".59758"/>
<path transform="matrix(1 0 0 -1 .733 46.834)" d="m37.263-4.2949 9.9336 5.7344" fill="none" stroke="#000" stroke-linecap="round" stroke-miterlimit="10" stroke-width=".59758"/>
<path transform="matrix(1 0 0 -1 .733 46.834)" d="m49.685-0.0019375v14.344" fill="none" stroke="#000" stroke-linecap="round" stroke-miterlimit="10" stroke-width=".59758"/>
<g>
<use x="59.311" y="28.779" xlink:href="#b"/>
</g>
<path transform="matrix(1 0 0 -1 .733 46.834)" d="m49.685 14.342 7.5117 4.3398" fill="none" stroke="#000" stroke-linecap="round" stroke-miterlimit="10" stroke-width=".59758"/>
<g>
<use x="71.732" y="35.95" xlink:href="#b"/>
<use x="71.386" y="28.534" xlink:href="#d"/>
</g>
<path transform="matrix(1 0 0 -1 .733 46.834)" d="m67.638 19.76 2.6055-1.5039" fill="none" stroke="#000" stroke-linecap="round" stroke-miterlimit="10" stroke-width=".59758"/>
<path transform="matrix(1 0 0 -1 .733 46.834)" d="m66.392 17.604 2.6055-1.5039" fill="none" stroke="#000" stroke-linecap="round" stroke-miterlimit="10" stroke-width=".59758"/>
<g>
<use x="71.594" y="50.293" xlink:href="#a"/>
<use x="78.761" y="45.058" xlink:href="#c"/>
</g>
<path transform="matrix(1 0 0 -1 .733 46.834)" d="m74.529 9.291v-4.2383" fill="none" stroke="#000" stroke-linecap="round" stroke-miterlimit="10" stroke-width=".59758"/>
<path transform="matrix(1 0 0 -1 .733 46.834)" d="m79.435 17.178 7.5156 4.3359" fill="none" stroke="#000" stroke-linecap="round" stroke-miterlimit="10" stroke-width=".59758"/>
<path transform="matrix(1 0 0 -1 .733 46.834)" d="m86.951 21.514 12.422-7.1719" fill="none" stroke="#000" stroke-linecap="round" stroke-miterlimit="10" stroke-width=".59758"/>
<path transform="matrix(1 0 0 -1 .733 46.834)" d="m99.372 14.342 12.418 7.1719" fill="none" stroke="#000" stroke-linecap="round" stroke-miterlimit="10" stroke-width=".59758"/>
<path transform="matrix(1 0 0 -1 .733 46.834)" d="m99.372 17.217 9.9297 5.7344" fill="none" stroke="#000" stroke-linecap="round" stroke-miterlimit="10" stroke-width=".59758"/>
<path transform="matrix(1 0 0 -1 .733 46.834)" d="m111.79 21.514v14.344" fill="none" stroke="#000" stroke-linecap="round" stroke-miterlimit="10" stroke-width=".59758"/>
<g>
<use x="121.278" y="7.265" xlink:href="#a"/>
</g>
<path transform="matrix(1 0 0 -1 .733 46.834)" d="m111.79 35.857 7.375 4.2578" fill="none" stroke="#000" stroke-linecap="round" stroke-miterlimit="10" stroke-width=".59758"/>
<path transform="matrix(1 0 0 -1 .733 46.834)" d="m129.26 40.115 7.375-4.2578" fill="none" stroke="#000" stroke-linecap="round" stroke-miterlimit="10" stroke-width=".59758"/>
<path transform="matrix(1 0 0 -1 .733 46.834)" d="m111.79 35.857-12.418 7.1719" fill="none" stroke="#000" stroke-linecap="round" stroke-miterlimit="10" stroke-width=".59758"/>
<path transform="matrix(1 0 0 -1 .733 46.834)" d="m109.3 34.42-9.9297 5.7344" fill="none" stroke="#000" stroke-linecap="round" stroke-miterlimit="10" stroke-width=".59758"/>
<path transform="matrix(1 0 0 -1 .733 46.834)" d="m99.372 43.029-12.422-7.1719" fill="none" stroke="#000" stroke-linecap="round" stroke-miterlimit="10" stroke-width=".59758"/>
<path transform="matrix(1 0 0 -1 .733 46.834)" d="m86.951 35.857v-14.344" fill="none" stroke="#000" stroke-linecap="round" stroke-miterlimit="10" stroke-width=".59758"/>
<path transform="matrix(1 0 0 -1 .733 46.834)" d="m89.439 34.42v-11.469" fill="none" stroke="#000" stroke-linecap="round" stroke-miterlimit="10" stroke-width=".59758"/>
<path transform="matrix(1 0 0 -1 .733 46.834)" d="m49.685 14.342-12.422 7.1719" fill="none" stroke="#000" stroke-linecap="round" stroke-miterlimit="10" stroke-width=".59758"/>
<path transform="matrix(1 0 0 -1 .733 46.834)" d="m47.197 12.904-9.9336 5.7344" fill="none" stroke="#000" stroke-linecap="round" stroke-miterlimit="10" stroke-width=".59758"/>
<path transform="matrix(1 0 0 -1 .733 46.834)" d="m37.263 21.514-12.422-7.1719" fill="none" stroke="#000" stroke-linecap="round" stroke-miterlimit="10" stroke-width=".59758"/>
<path transform="matrix(1 0 0 -1 .733 46.834)" d="m24.841 14.342v-14.344" fill="none" stroke="#000" stroke-linecap="round" stroke-miterlimit="10" stroke-width=".59758"/>
<path transform="matrix(1 0 0 -1 .733 46.834)" d="m27.333 12.904v-11.465" fill="none" stroke="#000" stroke-linecap="round" stroke-miterlimit="10" stroke-width=".59758"/>
</svg>
