<?xml version="1.0" encoding="UTF-8"?>
<svg width="64pt" height="33pt" version="1.1" viewBox="0 0 64 33" xmlns="http://www.w3.org/2000/svg" xmlns:xlink="http://www.w3.org/1999/xlink">
<defs>
<symbol id="b" overflow="visible">
<path d="m6.7656-3.4375c0-2.0938-1.4375-3.7031-3.0938-3.7031-1.7031 0-3.1094 1.625-3.1094 3.7031 0 2.1094 1.4688 3.6562 3.0938 3.6562 1.6719 0 3.1094-1.5625 3.1094-3.6562zm-0.89062-0.15625c0 1.9531-1.0625 3.1719-2.2031 3.1719-1.1719 0-2.2188-1.25-2.2188-3.1719 0-1.8125 1.0938-2.9062 2.2031-2.9062 1.1562 0 2.2188 1.125 2.2188 2.9062z"/>
</symbol>
<symbol id="a" overflow="visible">
<path d="m6.1094 0v-6.9219h-0.89062v3.0312h-3.3906v-3.0312h-0.89062v6.9219h0.89062v-3.2969h3.3906v3.2969z"/>
</symbol>
</defs>
<g>
<use x="6.819" y="19.686" xlink:href="#b"/>
<use x="-0.214" y="7.265" xlink:href="#a"/>
</g>
<path transform="matrix(1,0,0,-1,10.486,19.686)" d="m-2.7946 8.2993-1.582 2.7422" fill="none" stroke="#000" stroke-linecap="round" stroke-miterlimit="10" stroke-width=".59758"/>
<g>
<use x="-0.214" y="32.107" xlink:href="#a"/>
</g>
<path transform="matrix(1,0,0,-1,10.486,19.686)" d="m-2.7946-1.3804-1.582-2.7422" fill="none" stroke="#000" stroke-linecap="round" stroke-miterlimit="10" stroke-width=".59758"/>
<g>
<use x="35.643" y="19.686" xlink:href="#a"/>
</g>
<path transform="matrix(1,0,0,-1,10.486,19.686)" d="m5.2601 3.4594h18.305" fill="none" stroke="#dc3445" stroke-dasharray="2.98883,2.98883" stroke-linecap="round" stroke-miterlimit="10" stroke-width="1.1955"/>
<g>
<use x="49.847" y="19.686" xlink:href="#b"/>
</g>
<path transform="matrix(1,0,0,-1,10.486,19.686)" d="m33.807 3.4594h3.9609" fill="none" stroke="#000" stroke-linecap="round" stroke-miterlimit="10" stroke-width=".59758"/>
<g>
<use x="57.157" y="32.107" xlink:href="#a"/>
</g>
<path transform="matrix(1,0,0,-1,10.486,19.686)" d="m45.823-1.3804 1.582-2.7422" fill="none" stroke="#000" stroke-linecap="round" stroke-miterlimit="10" stroke-width=".59758"/>
</svg>
