<?xml version="1.0" encoding="UTF-8"?>
<svg width="131pt" height="131pt" version="1.1" viewBox="0 0 131 131" xmlns="http://www.w3.org/2000/svg" xmlns:xlink="http://www.w3.org/1999/xlink">
<defs>
<symbol id="b" overflow="visible">
<path d="m4.9688-1.4219c0-0.10938-0.09375-0.10938-0.125-0.10938-0.09375 0-0.10938 0.046875-0.14062 0.1875-0.17188 0.64062-0.34375 1.2344-0.75 1.2344-0.28125 0-0.29688-0.26562-0.29688-0.45312 0-0.21875 0.015625-0.3125 0.125-0.75l0.21875-0.89062 0.35938-1.3906c0.0625-0.28125 0.0625-0.29688 0.0625-0.34375 0-0.17188-0.10938-0.26562-0.28125-0.26562-0.25 0-0.39062 0.21875-0.42188 0.4375-0.1875-0.375-0.46875-0.64062-0.92188-0.64062-1.1562 0-2.3906 1.4688-2.3906 2.9219 0 0.9375 0.54688 1.5938 1.3125 1.5938 0.20312 0 0.70312-0.046875 1.2969-0.75 0.078125 0.42188 0.4375 0.75 0.90625 0.75 0.35938 0 0.57812-0.23438 0.75-0.54688 0.15625-0.35938 0.29688-0.98438 0.29688-0.98438zm-1.4062-1.7188-0.48438 1.9531c-0.0625 0.1875-0.0625 0.20312-0.20312 0.375-0.4375 0.54688-0.84375 0.70312-1.125 0.70312-0.5 0-0.64062-0.54688-0.64062-0.9375 0-0.5 0.3125-1.7188 0.54688-2.1875 0.3125-0.57812 0.75-0.95312 1.1562-0.95312 0.64062 0 0.78125 0.8125 0.78125 0.875s-0.015625 0.125-0.03125 0.17188z"/>
</symbol>
<symbol id="a" overflow="visible">
<path d="m1.9375-4.375-0.15625 0.15625c0.15625 0.25 0.42188 0.60938 0.45312 0.79688 0 0.09375-0.46875 0.5625-0.60938 0.70312l-1.2812 1.2812 0.03125-1.4688c0.10938-2.0781 0.15625-2.875-0.54688-3.5781-0.79688-0.79688-2-0.75-2.8594 0.10938-0.79688 0.79688-0.65625 1.9688-0.015625 2.6094 0.375 0.375 0.71875 0.03125 0.75 0 0.10938-0.10938 0.28125-0.4375-0.015625-0.73438-0.17188-0.17188-0.48438-0.23438-0.73438 0.015625-0.0625 0.0625-0.0625 0.0625-0.078125 0.10938-0.3125-0.625-0.17188-1.2656 0.23438-1.6719 0.64062-0.64062 1.5-0.375 2.0781 0.20312 0.5625 0.5625 0.78125 1.4688 0.82812 2.2969l0.15625 2.8438c0 0.15625 0.015625 0.17188 0.1875 0.34375l2.6094-2.6094z"/>
</symbol>
<symbol id="f" overflow="visible">
<path d="m2.6406-7.5156c-0.14062-0.14062-0.26562-0.015625-0.375 0.09375l-4.2188 4.2188c-0.09375 0.09375-0.23438 0.23438-0.09375 0.375 0.125 0.125 0.26562-0.015625 0.35938-0.10938l4.2188-4.2188c0.10938-0.10938 0.23438-0.23438 0.10938-0.35938zm1.3594 1.3594c-0.14062-0.14062-0.26562-0.015625-0.375 0.09375l-4.2188 4.2188c-0.09375 0.09375-0.23438 0.23438-0.09375 0.375s0.28125 0 0.375-0.09375l4.2188-4.2188c0.10938-0.10938 0.23438-0.23438 0.09375-0.375z"/>
</symbol>
<symbol id="e" overflow="visible">
<path d="m0.42188-5.7344c-0.25-0.25-0.6875-0.21875-1.0469 0.14062-0.45312 0.45312-0.42188 1.1094-0.35938 1.4219-0.375-0.25-0.85938-0.20312-1.1875 0.125-0.3125 0.3125-0.1875 0.71875-0.125 0.90625 0.125 0.375 0.4375 0.875 0.46875 0.90625 0.078125 0.078125 0.15625 0 0.15625 0 0.078125-0.078125 0.0625-0.09375-0.046875-0.29688-0.375-0.625-0.57812-1.1094-0.32812-1.3594 0.10938-0.10938 0.28125-0.15625 0.54688 0.10938 0.15625 0.15625 0.20312 0.26562 0.48438 0.70312l1.2188 2.0312c0.078125 0.14062 0.20312 0.35938 0.23438 0.39062 0.125 0.125 0.29688 0.078125 0.40625-0.03125 0.078125-0.078125 0.14062-0.26562 0.0625-0.46875-0.015625-0.015625-0.75-1.2188-0.84375-1.375l-0.6875-1.1562c-0.0625-0.125-0.20312-0.64062-0.1875-0.96875 0.03125-0.09375 0.03125-0.5 0.32812-0.79688 0.1875-0.1875 0.39062-0.20312 0.39062-0.20312-0.17188 0.23438-0.15625 0.5625 0.03125 0.75 0.10938 0.10938 0.3125 0.15625 0.5-0.03125s0.23438-0.54688-0.015625-0.79688z"/>
</symbol>
<symbol id="d" overflow="visible">
<path d="m2.5156-4.5156c-0.078125-0.078125-0.14062-0.015625-0.17188 0.015625-0.0625 0.0625-0.046875 0.10938 0.03125 0.21875 0.32812 0.57812 0.625 1.125 0.34375 1.4062-0.20312 0.20312-0.40625 0.03125-0.53125-0.09375-0.15625-0.15625-0.21875-0.25-0.4375-0.625l-0.48438-0.79688-0.73438-1.2344c-0.14062-0.23438-0.15625-0.25-0.1875-0.28125-0.125-0.125-0.26562-0.10938-0.39062 0.015625-0.17188 0.17188-0.10938 0.42188 0.015625 0.60938-0.39062-0.14062-0.78125-0.125-1.0938 0.1875-0.82812 0.82812-0.67188 2.7344 0.35938 3.7656 0.65625 0.65625 1.5156 0.73438 2.0625 0.1875 0.14062-0.14062 0.46875-0.53125 0.375-1.4375 0.35938 0.23438 0.84375 0.21875 1.1719-0.10938 0.26562-0.26562 0.25-0.59375 0.14062-0.92188-0.14062-0.35938-0.46875-0.90625-0.46875-0.90625zm-2.2188-0.21875 1.0312 1.7188c0.09375 0.1875 0.09375 0.1875 0.125 0.40625 0.078125 0.70312-0.09375 1.0938-0.29688 1.2969-0.34375 0.34375-0.84375 0.0625-1.1094-0.20312-0.35938-0.35938-1-1.4375-1.1562-1.9375-0.20312-0.64062-0.15625-1.2188 0.125-1.5 0.45312-0.45312 1.1406 0.015625 1.1875 0.0625s0.078125 0.10938 0.09375 0.15625z"/>
</symbol>
<symbol id="c" overflow="visible">
<path d="m5.875-6.1562c-0.078125-0.078125-0.20312-0.078125-0.29688 0.015625-0.0625 0.0625-0.046875 0.14062 0 0.28125l3.1719 9.1406-4-1.5c-0.09375-0.03125-0.14062-0.078125-0.20312-0.015625-0.015625 0.015625-0.03125 0.03125-0.03125 0.15625l-0.17188 1.2344c-0.015625 0.14062 0 0.15625 0.015625 0.17188 0.0625 0.0625 0.10938 0.046875 0.14062 0.015625s0.046875-0.046875 0.046875-0.17188l0.09375-0.625 4.4531 1.6719c0.15625 0.0625 0.17188 0.046875 0.25-0.03125 0.125-0.125 0.09375-0.15625 0.03125-0.3125l-3.4219-9.8594c-0.03125-0.125-0.046875-0.14062-0.078125-0.17188z"/>
</symbol>
<clipPath id="n">
<path d="m14.574 71h57.426v57.039h-57.426z"/>
</clipPath>
<clipPath id="m">
<path d="m14.574 60h68.426v68.039h-68.426z"/>
</clipPath>
<clipPath id="l">
<path d="m14.574 14.652h57.426v57.348h-57.426z"/>
</clipPath>
<clipPath id="k">
<path d="m14.574 14.652h68.426v68.348h-68.426z"/>
</clipPath>
<clipPath id="j">
<path d="m71 14.652h56.961v57.348h-56.961z"/>
</clipPath>
<clipPath id="i">
<path d="m60 14.652h67.961v68.348h-67.961z"/>
</clipPath>
<clipPath id="h">
<path d="m71 71h56.961v57.039h-56.961z"/>
</clipPath>
<clipPath id="g">
<path d="m60 60h67.961v68.039h-67.961z"/>
</clipPath>
</defs>
<path d="m14.574 128.04v-113.39h113.39v113.39z" fill="#ffc106" fill-opacity=".25"/>
<g clip-path="url(#n)">
<path d="m71.27 128.04c0-31.312-25.383-56.695-56.695-56.695s-56.695 25.383-56.695 56.695 25.383 56.695 56.695 56.695 56.695-25.383 56.695-56.695z" fill="#5599fd"/>
</g>
<g clip-path="url(#m)">
<path transform="matrix(1 0 0 -1 14.574 128.04)" d="m56.696-6.25e-5c0 31.313-25.383 56.695-56.695 56.695-31.312 0-56.695-25.383-56.695-56.695 0-31.312 25.383-56.695 56.695-56.695 31.313 0 56.695 25.383 56.695 56.695z" fill="none" stroke="#000" stroke-miterlimit="10" stroke-width=".79701"/>
</g>
<g clip-path="url(#l)">
<path d="m71.27 14.652c0-31.312-25.383-56.695-56.695-56.695s-56.695 25.383-56.695 56.695 25.383 56.691 56.695 56.691 56.695-25.379 56.695-56.691z" fill="#5599fd"/>
</g>
<g clip-path="url(#k)">
<path transform="matrix(1 0 0 -1 14.574 128.04)" d="m56.696 113.39c0 31.312-25.383 56.695-56.695 56.695-31.312 0-56.695-25.383-56.695-56.695s25.383-56.691 56.695-56.691c31.313 0 56.695 25.379 56.695 56.691z" fill="none" stroke="#000" stroke-miterlimit="10" stroke-width=".79701"/>
</g>
<g clip-path="url(#j)">
<path d="m184.66 14.652c0-31.312-25.383-56.695-56.695-56.695s-56.691 25.383-56.691 56.695 25.379 56.691 56.691 56.691 56.695-25.379 56.695-56.691z" fill="#5599fd"/>
</g>
<g clip-path="url(#i)">
<path transform="matrix(1 0 0 -1 14.574 128.04)" d="m170.08 113.39c0 31.312-25.383 56.695-56.695 56.695-31.312 0-56.691-25.383-56.691-56.695s25.379-56.691 56.691-56.691c31.312 0 56.695 25.379 56.695 56.691z" fill="none" stroke="#000" stroke-miterlimit="10" stroke-width=".79701"/>
</g>
<g clip-path="url(#h)">
<path d="m184.66 128.04c0-31.312-25.383-56.695-56.695-56.695s-56.691 25.383-56.691 56.695 25.379 56.695 56.691 56.695 56.695-25.383 56.695-56.695z" fill="#5599fd"/>
</g>
<g clip-path="url(#g)">
<path transform="matrix(1 0 0 -1 14.574 128.04)" d="m170.08-6.25e-5c0 31.313-25.383 56.695-56.695 56.695-31.312 0-56.691-25.383-56.691-56.695 0-31.312 25.379-56.695 56.691-56.695 31.312 0 56.695 25.383 56.695 56.695z" fill="none" stroke="#000" stroke-miterlimit="10" stroke-width=".79701"/>
</g>
<path transform="matrix(1 0 0 -1 14.574 128.04)" d="m2.1875e-4 -6.25e-5v113.39h113.39v-113.39z" fill="none" stroke="#000" stroke-miterlimit="10" stroke-width=".79701"/>
<path d="m16.688 128.04c0-1.168-0.94531-2.1133-2.1133-2.1133s-2.1133 0.94531-2.1133 2.1133c0 1.168 0.94531 2.1133 2.1133 2.1133s2.1133-0.94531 2.1133-2.1133z"/>
<path d="m16.688 14.652c0-1.168-0.94531-2.1133-2.1133-2.1133s-2.1133 0.94531-2.1133 2.1133c0 1.168 0.94531 2.1133 2.1133 2.1133s2.1133-0.94531 2.1133-2.1133z"/>
<path d="m130.07 14.652c0-1.168-0.94531-2.1133-2.1133-2.1133-1.168 0-2.1133 0.94531-2.1133 2.1133 0 1.168 0.94531 2.1133 2.1133 2.1133 1.168 0 2.1133-0.94531 2.1133-2.1133z"/>
<path d="m130.07 128.04c0-1.168-0.94531-2.1133-2.1133-2.1133-1.168 0-2.1133 0.94531-2.1133 2.1133 0 1.168 0.94531 2.1133 2.1133 2.1133 1.168 0 2.1133-0.94531 2.1133-2.1133z"/>
<path transform="matrix(1 0 0 -1 14.574 128.04)" d="m5.5783 119.36h102.23" fill="none" stroke="#000" stroke-miterlimit="10" stroke-width=".79701"/>
<path d="m17.562 8.6758 4.1445 2.0703-1.5547-2.0703 1.5547-2.0742"/>
<path d="m124.97 8.6758-4.1445-2.0742 1.5547 2.0742-1.5547 2.0703"/>
<g>
<use x="68.633" y="4.956" xlink:href="#b"/>
</g>
<path transform="matrix(1 0 0 -1 14.574 128.04)" d="m-5.9763 5.5781v102.23" fill="none" stroke="#000" stroke-miterlimit="10" stroke-width=".79701"/>
<path d="m8.5977 125.05 2.0703-4.1445-2.0703 1.5547-2.0742-1.5547"/>
<path d="m8.5977 17.641-2.0742 4.1445 2.0742-1.5547 2.0703 1.5547"/>
<g>
<use x="-0.389" y="73.491" xlink:href="#b"/>
</g>
<path transform="matrix(1 0 0 -1 14.574 128.04)" d="m3.9455 3.9452 105.5 105.5" fill="none" stroke="#000" stroke-miterlimit="10" stroke-width=".79701"/>
<path d="m16.688 125.93 4.3945-1.4648-2.5625-0.36719-0.36719-2.5625"/>
<path d="m125.85 16.766-4.3945 1.4648 2.5625 0.36719 0.36719 2.5625"/>
<g>
<use x="52.947" y="82.432" xlink:href="#a"/>
<use x="56.469065" y="78.909935" xlink:href="#e"/>
<use x="61.799892" y="73.579108" xlink:href="#f"/>
<use x="63.460163" y="60.367652" xlink:href="#c"/>
</g>
<path transform="matrix(.7071 -.7071 -.7071 -.7071 69.19 54.357)" d="m0.001936-3.4394e-4h4.9774" fill="none" stroke="#000" stroke-miterlimit="10" stroke-width=".398"/>
<g>
<use x="75.1061" y="60.2729" xlink:href="#a"/>
<use x="78.628872" y="56.750128" xlink:href="#d"/>
</g>
</svg>
