<?xml version="1.0" encoding="UTF-8"?>
<svg width="176pt" height="136pt" version="1.1" viewBox="0 0 176 136" xmlns="http://www.w3.org/2000/svg" xmlns:xlink="http://www.w3.org/1999/xlink">
<defs>
<symbol id="l" overflow="visible">
<path d="m5.5-6.3438c0-0.45312-0.45312-0.6875-0.85938-0.6875-0.34375 0-0.96875 0.1875-1.2656 1.1719-0.0625 0.20312-0.09375 0.3125-0.32812 1.5625h-0.6875c-0.20312 0-0.3125 0-0.3125 0.1875 0 0.125 0.09375 0.125 0.28125 0.125h0.65625l-0.73438 3.9375c-0.1875 0.96875-0.35938 1.875-0.875 1.875-0.046875 0-0.28125 0-0.48438-0.1875 0.46875-0.03125 0.5625-0.39062 0.5625-0.53125 0-0.23438-0.1875-0.35938-0.375-0.35938-0.26562 0-0.54688 0.23438-0.54688 0.60938 0 0.4375 0.4375 0.6875 0.84375 0.6875 0.54688 0 0.95312-0.59375 1.125-0.96875 0.32812-0.625 0.54688-1.8281 0.5625-1.9062l0.59375-3.1562h0.85938c0.20312 0 0.29688 0 0.29688-0.20312 0-0.10938-0.09375-0.10938-0.26562-0.10938h-0.82812c0.10938-0.57812 0.09375-0.5625 0.20312-1.1406 0.046875-0.20312 0.1875-0.90625 0.25-1.0312 0.078125-0.1875 0.25-0.34375 0.46875-0.34375 0.03125 0 0.29688 0 0.48438 0.1875-0.4375 0.03125-0.54688 0.39062-0.54688 0.53125 0 0.23438 0.1875 0.35938 0.375 0.35938 0.26562 0 0.54688-0.23438 0.54688-0.60938z"/>
</symbol>
<symbol id="b" overflow="visible">
<path d="m4.9688-1.4219c0-0.10938-0.09375-0.10938-0.125-0.10938-0.09375 0-0.10938 0.046875-0.14062 0.1875-0.17188 0.64062-0.34375 1.2344-0.75 1.2344-0.28125 0-0.29688-0.26562-0.29688-0.45312 0-0.21875 0.015625-0.3125 0.125-0.75l0.21875-0.89062 0.35938-1.3906c0.0625-0.28125 0.0625-0.29688 0.0625-0.34375 0-0.17188-0.10938-0.26562-0.28125-0.26562-0.25 0-0.39062 0.21875-0.42188 0.4375-0.1875-0.375-0.46875-0.64062-0.92188-0.64062-1.1562 0-2.3906 1.4688-2.3906 2.9219 0 0.9375 0.54688 1.5938 1.3125 1.5938 0.20312 0 0.70312-0.046875 1.2969-0.75 0.078125 0.42188 0.4375 0.75 0.90625 0.75 0.35938 0 0.57812-0.23438 0.75-0.54688 0.15625-0.35938 0.29688-0.98438 0.29688-0.98438zm-1.4062-1.7188-0.48438 1.9531c-0.0625 0.1875-0.0625 0.20312-0.20312 0.375-0.4375 0.54688-0.84375 0.70312-1.125 0.70312-0.5 0-0.64062-0.54688-0.64062-0.9375 0-0.5 0.3125-1.7188 0.54688-2.1875 0.3125-0.57812 0.75-0.95312 1.1562-0.95312 0.64062 0 0.78125 0.8125 0.78125 0.875s-0.015625 0.125-0.03125 0.17188z"/>
</symbol>
<symbol id="k" overflow="visible">
<path d="m7.1875-3.4531c0-0.20312-0.1875-0.20312-0.32812-0.20312h-5.9688c-0.14062 0-0.32812 0-0.32812 0.20312 0 0.1875 0.1875 0.1875 0.32812 0.1875h5.9531c0.15625 0 0.34375 0 0.34375-0.1875zm0 1.9219c0-0.1875-0.1875-0.1875-0.34375-0.1875h-5.9531c-0.14062 0-0.32812 0-0.32812 0.1875 0 0.20312 0.1875 0.20312 0.32812 0.20312h5.9688c0.14062 0 0.32812 0 0.32812-0.20312z"/>
</symbol>
<symbol id="j" overflow="visible">
<path d="m4.4688-1.7344h-0.23438c-0.0625 0.29688-0.125 0.73438-0.23438 0.89062-0.0625 0.078125-0.71875 0.078125-0.9375 0.078125h-1.7969l1.0625-1.0312c1.5469-1.375 2.1406-1.9062 2.1406-2.9062 0-1.1406-0.89062-1.9375-2.1094-1.9375-1.125 0-1.8594 0.92188-1.8594 1.8125 0 0.54688 0.5 0.54688 0.53125 0.54688 0.17188 0 0.51562-0.10938 0.51562-0.53125 0-0.25-0.1875-0.51562-0.53125-0.51562-0.078125 0-0.09375 0-0.125 0.015625 0.21875-0.65625 0.76562-1.0156 1.3438-1.0156 0.90625 0 1.3281 0.8125 1.3281 1.625 0 0.79688-0.48438 1.5781-1.0469 2.2031l-1.9062 2.125c-0.10938 0.10938-0.10938 0.14062-0.10938 0.375h3.7031z"/>
</symbol>
<symbol id="i" overflow="visible">
<path d="m8.5-0.20312c0-0.10938-0.078125-0.20312-0.20312-0.20312-0.10938 0-0.14062 0.078125-0.20312 0.20312l-4.2188 8.7188-1.7656-3.9062c-0.046875-0.078125-0.0625-0.14062-0.14062-0.14062-0.03125 0-0.046875 0-0.14062 0.09375l-0.98438 0.73438c-0.10938 0.09375-0.10938 0.10938-0.10938 0.14062 0 0.078125 0.03125 0.10938 0.09375 0.10938 0.03125 0 0.046875 0 0.14062-0.078125l0.51562-0.39062 1.9688 4.3438c0.0625 0.14062 0.078125 0.14062 0.20312 0.14062 0.15625 0 0.17188-0.03125 0.23438-0.1875l4.5469-9.4062c0.0625-0.10938 0.0625-0.125 0.0625-0.17188z"/>
</symbol>
<symbol id="h" overflow="visible">
<path d="m2.8594-4.0469-0.1875-0.26562-0.79688 0.5625-2.625-3.6875c-0.125-0.15625-0.15625-0.21875-0.29688-0.10938-0.0625 0.046875-0.09375 0.0625-0.078125 0.21875l0.21875 5.5781 0.1875 0.26562 2.1562-1.5469 0.5 0.6875c0.20312 0.29688 0.23438 0.40625-0.35938 0.82812l-0.15625 0.125 0.1875 0.25c0.3125-0.26562 0.73438-0.57812 1.0781-0.8125 0.32812-0.25 0.75-0.54688 1.1094-0.76562l-0.1875-0.25-0.17188 0.125c-0.59375 0.4375-0.67188 0.34375-0.875 0.046875l-0.5-0.6875zm-1.5781 0.71875-1.9688 1.4062-0.1875-4.4219z"/>
</symbol>
<symbol id="a" overflow="visible">
<path d="m3.8438-6.9844c-0.125-0.15625-0.26562-0.046875-0.39062 0.03125l-4.8594 3.4688c-0.10938 0.078125-0.26562 0.1875-0.14062 0.34375 0.10938 0.15625 0.26562 0.046875 0.375-0.03125l4.8438-3.4688c0.14062-0.078125 0.28125-0.1875 0.17188-0.34375zm1.1094 1.5625c-0.10938-0.15625-0.25-0.046875-0.39062 0.03125l-4.8438 3.4688c-0.10938 0.078125-0.26562 0.1875-0.15625 0.34375 0.125 0.17188 0.28125 0.0625 0.39062-0.015625l4.8594-3.4688c0.125-0.078125 0.26562-0.1875 0.14062-0.35938z"/>
</symbol>
<symbol id="g" overflow="visible">
<path d="m2.7344-4.0469c-0.48438-0.65625-1.4688-0.92188-2.4219-0.5 0.5-0.6875 0.57812-1.5781 0.10938-2.2188-0.46875-0.67188-1.5156-0.625-2.2812-0.0625-0.8125 0.57812-1.0938 1.5-0.64062 2.125 0.1875 0.26562 0.46875 0.29688 0.71875 0.125 0.23438-0.17188 0.28125-0.46875 0.10938-0.70312-0.28125-0.39062-0.67188-0.125-0.78125-0.046875-0.0625-0.57812 0.40625-1.0625 0.6875-1.2812 0.34375-0.23438 0.92188-0.375 1.4531 0.34375 0.0625 0.09375 0.375 0.60938 0.42188 1.0938 0.046875 0.57812-0.21875 0.79688-0.42188 0.9375-0.046875 0.0625-0.25 0.21875-0.3125 0.26562-0.046875 0.046875-0.09375 0.09375-0.03125 0.17188 0.0625 0.09375 0.10938 0.046875 0.25-0.046875l0.35938-0.25c0.65625-0.46875 1.3594-0.14062 1.9375 0.65625 0.78125 1.1094 0.39062 1.7344 0.03125 1.9844-0.34375 0.26562-1.0781 0.5625-1.6719 0.28125 0.29688-0.15625 0.42188-0.51562 0.20312-0.82812-0.20312-0.29688-0.53125-0.29688-0.76562-0.14062-0.20312 0.15625-0.375 0.4375-0.125 0.79688 0.53125 0.73438 1.6562 0.73438 2.5469 0.09375 0.98438-0.70312 1.2031-1.9688 0.625-2.7969z"/>
</symbol>
<symbol id="f" overflow="visible">
<path d="m1.3438-5.5938c-0.20312-0.28125-0.625-0.32812-1.0469-0.03125-0.51562 0.375-0.59375 1.0156-0.57812 1.3438-0.34375-0.29688-0.8125-0.34375-1.2031-0.0625-0.35938 0.25-0.28125 0.67188-0.26562 0.875 0.0625 0.375 0.29688 0.9375 0.3125 0.95312 0.0625 0.09375 0.15625 0.03125 0.15625 0.03125 0.09375-0.0625 0.09375-0.078125 0-0.29688-0.26562-0.67188-0.375-1.1719-0.09375-1.3906 0.125-0.09375 0.29688-0.10938 0.51562 0.20312 0.125 0.17188 0.15625 0.28125 0.35938 0.76562l0.875 2.2031c0.0625 0.15625 0.14062 0.375 0.17188 0.42188 0.10938 0.14062 0.26562 0.14062 0.39062 0.046875 0.10938-0.078125 0.20312-0.23438 0.15625-0.45312-0.03125-0.046875-0.53125-1.3281-0.60938-1.5156l-0.5-1.2344c-0.03125-0.125-0.078125-0.67188-0.015625-0.98438 0.03125-0.09375 0.10938-0.48438 0.45312-0.73438 0.21875-0.15625 0.42188-0.14062 0.42188-0.14062-0.20312 0.21875-0.26562 0.53125-0.10938 0.75 0.09375 0.125 0.29688 0.21875 0.51562 0.0625s0.29688-0.51562 0.09375-0.8125z"/>
</symbol>
<symbol id="e" overflow="visible">
<path d="m1.7344-4.6875c-0.51562-0.75-1.3594-0.98438-2.0156-0.53125-0.35938 0.26562-0.53125 0.75-0.60938 1.1562l-1.125-2.8594s-0.0625-0.078125-0.17188-0.015625c-0.17188 0.125-0.73438 0.625-0.92188 0.79688-0.0625 0.046875-0.15625 0.125-0.046875 0.26562 0.0625 0.09375 0.14062 0.03125 0.26562-0.0625 0.375-0.26562 0.4375-0.21875 0.5-0.14062 0.03125 0.0625 0.17188 0.39062 0.25 0.57812l1.2188 3.125c0.20312 0.46875 0.25 0.64062 0.45312 0.92188 0.54688 0.76562 1.3438 0.96875 1.9375 0.53125 0.95312-0.67188 1.1094-2.6094 0.26562-3.7656zm-0.03125 2.0781c0.125 0.73438-0.03125 1.2812-0.35938 1.5-0.28125 0.20312-0.70312 0.17188-1.125-0.42188-0.125-0.15625-0.23438-0.3125-0.46875-0.90625l-0.32812-0.89062c-0.09375-0.20312-0.10938-0.21875-0.09375-0.35938 0.015625-0.79688 0.29688-1.1875 0.51562-1.3438 0.28125-0.20312 0.67188-0.125 1.0469 0.40625 0.34375 0.48438 0.75 1.5938 0.8125 2.0156z"/>
</symbol>
<symbol id="d" overflow="visible">
<path d="m3.2188-4.0469c-0.0625-0.09375-0.14062-0.03125-0.17188-0.015625-0.078125 0.046875-0.046875 0.10938 0 0.23438 0.23438 0.60938 0.4375 1.2031 0.10938 1.4375-0.23438 0.15625-0.40625-0.046875-0.51562-0.1875-0.125-0.1875-0.17188-0.28125-0.32812-0.6875l-0.34375-0.85938-0.51562-1.3281c-0.10938-0.26562-0.125-0.28125-0.14062-0.3125-0.10938-0.14062-0.23438-0.15625-0.375-0.0625-0.20312 0.14062-0.20312 0.40625-0.09375 0.60938-0.375-0.20312-0.76562-0.25-1.125 0.015625-0.95312 0.67188-1.0938 2.5781-0.25 3.7656 0.54688 0.76562 1.375 0.98438 2 0.53125 0.15625-0.10938 0.53125-0.45312 0.60938-1.3594 0.3125 0.29688 0.79688 0.35938 1.1719 0.078125 0.29688-0.20312 0.32812-0.53125 0.29688-0.89062-0.09375-0.39062-0.32812-0.96875-0.32812-0.96875zm-2.1406-0.59375 0.73438 1.875c0.0625 0.20312 0.0625 0.21875 0.0625 0.4375-0.046875 0.6875-0.28125 1.0469-0.51562 1.2188-0.40625 0.29688-0.82812-0.0625-1.0625-0.39062-0.29688-0.40625-0.75-1.5781-0.82812-2.0938-0.078125-0.65625 0.046875-1.2188 0.375-1.4531 0.53125-0.35938 1.1094 0.20312 1.1562 0.25 0.03125 0.0625 0.046875 0.125 0.078125 0.15625z"/>
</symbol>
<symbol id="c" overflow="visible">
<path d="m6.7969-5.1094c-0.0625-0.078125-0.17188-0.10938-0.28125-0.046875-0.09375 0.0625-0.0625 0.15625-0.046875 0.28125l1.6406 9.5469-3.7188-2.1406c-0.078125-0.046875-0.125-0.078125-0.1875-0.03125-0.03125 0.015625-0.046875 0.03125-0.0625 0.15625l-0.375 1.1719c-0.03125 0.14062-0.03125 0.15625-0.015625 0.17188 0.046875 0.0625 0.09375 0.078125 0.14062 0.03125 0.03125-0.015625 0.046875-0.03125 0.0625-0.14062l0.20312-0.625 4.125 2.4062c0.14062 0.0625 0.15625 0.0625 0.25-0.015625 0.14062-0.09375 0.125-0.125 0.09375-0.29688l-1.7812-10.297c0-0.10938-0.015625-0.125-0.046875-0.17188z"/>
</symbol>
<clipPath id="u">
<path d="m33 20.266h121v113.39h-121z"/>
</clipPath>
<clipPath id="t">
<path d="m14.574 84h49.426v49.652h-49.426z"/>
</clipPath>
<clipPath id="s">
<path d="m14.574 73h60.426v60.652h-60.426z"/>
</clipPath>
<clipPath id="r">
<path d="m14.574 20.266h49.426v49.734h-49.426z"/>
</clipPath>
<clipPath id="q">
<path d="m14.574 20.266h60.426v60.734h-60.426z"/>
</clipPath>
<clipPath id="p">
<path d="m124 20.266h49.316v49.734h-49.316z"/>
</clipPath>
<clipPath id="o">
<path d="m113 20.266h60.316v60.734h-60.316z"/>
</clipPath>
<clipPath id="n">
<path d="m124 84h49.316v49.652h-49.316z"/>
</clipPath>
<clipPath id="m">
<path d="m113 73h60.316v60.652h-60.316z"/>
</clipPath>
</defs>
<path d="m14.574 133.65v-113.39h158.74v113.39z" fill="#ffc106" fill-opacity=".25"/>
<path d="m142.7 76.957c0-26.926-21.832-48.758-48.758-48.758-26.93 0-48.758 21.832-48.758 48.758 0 26.93 21.828 48.758 48.758 48.758 26.926 0 48.758-21.828 48.758-48.758z" fill="#e6717c"/>
<g clip-path="url(#u)">
<path transform="matrix(1 0 0 -1 14.574 133.65)" d="m128.13 56.694c0 26.926-21.832 48.758-48.758 48.758-26.93 0-48.758-21.832-48.758-48.758 0-26.93 21.828-48.758 48.758-48.758 26.926 0 48.758 21.828 48.758 48.758z" fill="none" stroke="#000" stroke-miterlimit="10" stroke-width=".79701"/>
</g>
<g clip-path="url(#t)">
<path d="m63.332 133.65c0-26.93-21.832-48.758-48.758-48.758-26.93 0-48.758 21.828-48.758 48.758 0 26.926 21.828 48.754 48.758 48.754 26.926 0 48.758-21.828 48.758-48.754z" fill="#5599fd"/>
</g>
<g clip-path="url(#s)">
<path transform="matrix(1 0 0 -1 14.574 133.65)" d="m48.758-0.0013438c0 26.93-21.832 48.758-48.758 48.758-26.93 0-48.758-21.828-48.758-48.758 0-26.926 21.828-48.754 48.758-48.754 26.926 0 48.758 21.828 48.758 48.754z" fill="none" stroke="#000" stroke-miterlimit="10" stroke-width=".79701"/>
</g>
<g clip-path="url(#r)">
<path d="m63.332 20.266c0-26.93-21.832-48.758-48.758-48.758-26.93 0-48.758 21.828-48.758 48.758 0 26.926 21.828 48.754 48.758 48.754 26.926 0 48.758-21.828 48.758-48.754z" fill="#5599fd"/>
</g>
<g clip-path="url(#q)">
<path transform="matrix(1 0 0 -1 14.574 133.65)" d="m48.758 113.39c0 26.93-21.832 48.758-48.758 48.758-26.93 0-48.758-21.828-48.758-48.758 0-26.926 21.828-48.754 48.758-48.754 26.926 0 48.758 21.828 48.758 48.754z" fill="none" stroke="#000" stroke-miterlimit="10" stroke-width=".79701"/>
</g>
<g clip-path="url(#p)">
<path d="m222.07 20.266c0-26.93-21.832-48.758-48.758-48.758-26.93 0-48.758 21.828-48.758 48.758 0 26.926 21.828 48.754 48.758 48.754 26.926 0 48.758-21.828 48.758-48.754z" fill="#5599fd"/>
</g>
<g clip-path="url(#o)">
<path transform="matrix(1 0 0 -1 14.574 133.65)" d="m207.5 113.39c0 26.93-21.832 48.758-48.758 48.758-26.93 0-48.758-21.828-48.758-48.758 0-26.926 21.828-48.754 48.758-48.754 26.926 0 48.758 21.828 48.758 48.754z" fill="none" stroke="#000" stroke-miterlimit="10" stroke-width=".79701"/>
</g>
<g clip-path="url(#n)">
<path d="m222.07 133.65c0-26.93-21.832-48.758-48.758-48.758-26.93 0-48.758 21.828-48.758 48.758 0 26.926 21.828 48.754 48.758 48.754 26.926 0 48.758-21.828 48.758-48.754z" fill="#5599fd"/>
</g>
<g clip-path="url(#m)">
<path transform="matrix(1 0 0 -1 14.574 133.65)" d="m207.5-0.0013438c0 26.93-21.832 48.758-48.758 48.758-26.93 0-48.758-21.828-48.758-48.758 0-26.926 21.828-48.754 48.758-48.754 26.926 0 48.758 21.828 48.758 48.754z" fill="none" stroke="#000" stroke-miterlimit="10" stroke-width=".79701"/>
</g>
<path transform="matrix(1 0 0 -1 14.574 133.65)" d="m2.1875e-4 -0.0013438v113.39h158.74v-113.39z" fill="none" stroke="#000" stroke-miterlimit="10" stroke-width=".79701"/>
<path d="m16.688 133.65c0-1.168-0.94531-2.1133-2.1133-2.1133s-2.1133 0.94531-2.1133 2.1133c0 1.1641 0.94531 2.1133 2.1133 2.1133s2.1133-0.94922 2.1133-2.1133z"/>
<path d="m16.688 20.266c0-1.168-0.94531-2.1172-2.1133-2.1172s-2.1133 0.94922-2.1133 2.1172c0 1.1641 0.94531 2.1133 2.1133 2.1133s2.1133-0.94922 2.1133-2.1133z"/>
<path d="m175.43 20.266c0-1.168-0.94531-2.1172-2.1133-2.1172-1.168 0-2.1133 0.94922-2.1133 2.1172 0 1.1641 0.94531 2.1133 2.1133 2.1133 1.168 0 2.1133-0.94922 2.1133-2.1133z"/>
<path d="m175.43 133.65c0-1.168-0.94531-2.1133-2.1133-2.1133-1.168 0-2.1133 0.94531-2.1133 2.1133 0 1.1641 0.94531 2.1133 2.1133 2.1133 1.168 0 2.1133-0.94922 2.1133-2.1133z"/>
<path d="m96.059 76.957c0-1.168-0.94531-2.1133-2.1133-2.1133-1.168 0-2.1133 0.94531-2.1133 2.1133s0.94531 2.1133 2.1133 2.1133c1.168 0 2.1133-0.94531 2.1133-2.1133z"/>
<path transform="matrix(1 0 0 -1 14.574 133.65)" d="m5.5783 119.37h147.59" fill="none" stroke="#000" stroke-miterlimit="10" stroke-width=".79701"/>
<path d="m17.562 14.285 4.1445 2.0742-1.5547-2.0742 1.5547-2.0703"/>
<path d="m170.33 14.285-4.1445-2.0703 1.5547 2.0703-1.5547 2.0742"/>
<g>
<use x="75.052" y="8.632" xlink:href="#l"/>
<use x="83.769" y="8.632" xlink:href="#k"/>
<use x="94.286" y="0.464" xlink:href="#i"/>
</g>
<path transform="matrix(1 0 0 -1 102.59 .265)" d="m0.0018438-6.25e-4h4.9805" fill="none" stroke="#000" stroke-miterlimit="10" stroke-width=".398"/>
<g>
<use x="102.588" y="8.632" xlink:href="#j"/>
<use x="107.569" y="8.632" xlink:href="#b"/>
</g>
<path transform="matrix(1 0 0 -1 14.574 133.65)" d="m-5.9763 5.5807v102.23" fill="none" stroke="#000" stroke-miterlimit="10" stroke-width=".79701"/>
<path d="m8.5977 130.66 2.0703-4.1445-2.0703 1.5508-2.0742-1.5508"/>
<path d="m8.5977 23.254-2.0742 4.1445 2.0742-1.5547 2.0703 1.5547"/>
<g>
<use x="-0.389" y="79.103" xlink:href="#b"/>
</g>
<path transform="matrix(1 0 0 -1 14.574 133.65)" d="m4.5393 3.2408 149.66 106.9" fill="none" stroke="#000" stroke-miterlimit="10" stroke-width=".79701"/>
<path d="m17.008 131.91 4.5742-0.72266-2.4688-0.78125 0.0625-2.5898"/>
<path d="m170.88 22-4.5742 0.72266 2.4688 0.78516-0.0625 2.5859"/>
<g>
<use x="66.908" y="89.984" xlink:href="#h"/>
<use x="70.96099" y="87.089093" xlink:href="#f"/>
<use x="77.095399" y="82.707501" xlink:href="#a"/>
<use x="85.652163" y="76.595707" xlink:href="#e"/>
<use x="91.382982" y="72.502386" xlink:href="#a"/>
<use x="95.193399" y="59.743791" xlink:href="#c"/>
</g>
<path transform="matrix(.81369 -.58119 -.58119 -.81369 101.83 54.757)" d="m-0.0013586-2.4058e-4 4.9822-0.0012929" fill="none" stroke="#000" stroke-miterlimit="10" stroke-width=".398"/>
<g>
<use x="106.695814" y="61.564971" xlink:href="#g"/>
<use x="110.748804" y="58.670064" xlink:href="#d"/>
</g>
</svg>
