<?xml version="1.0" encoding="UTF-8"?>
<svg width="208pt" height="190pt" version="1.1" viewBox="0 0 208 190" xmlns="http://www.w3.org/2000/svg" xmlns:xlink="http://www.w3.org/1999/xlink">
<defs>
<symbol id="n" overflow="visible">
<path d="m6.7344-4.7344 0.26562-1.7344c0.015625-0.046875 0.015625-0.14062 0.015625-0.17188 0-0.10938-0.09375-0.10938-0.26562-0.10938h-5.5312c-0.23438 0-0.25 0.015625-0.32812 0.20312l-0.59375 1.75c0 0.015625-0.0625 0.1875-0.0625 0.1875 0 0.046875 0.0625 0.10938 0.125 0.10938 0.09375 0 0.10938-0.0625 0.17188-0.21875 0.53125-1.5469 0.79688-1.7188 2.2656-1.7188h0.39062c0.28125 0 0.28125 0.03125 0.28125 0.125 0 0.046875-0.03125 0.17188-0.046875 0.20312l-1.3281 5.3281c-0.09375 0.35938-0.125 0.46875-1.1875 0.46875-0.35938 0-0.42188 0-0.42188 0.1875 0 0.125 0.10938 0.125 0.17188 0.125 0.26562 0 0.54688-0.015625 0.8125-0.015625l0.85938-0.015625 0.82812 0.015625c0.28125 0 0.57812 0.015625 0.85938 0.015625 0.09375 0 0.21875 0 0.21875-0.20312 0-0.10938-0.078125-0.10938-0.34375-0.10938-0.23438 0-0.375 0-0.625-0.015625-0.29688-0.03125-0.375-0.0625-0.375-0.21875 0 0 0-0.0625 0.046875-0.20312l1.3125-5.2969c0.078125-0.28125 0.10938-0.34375 0.23438-0.375 0.09375-0.015625 0.42188-0.015625 0.625-0.015625 1.0156 0 1.4531 0.03125 1.4531 0.8125 0 0.15625-0.03125 0.54688-0.078125 0.79688 0 0.046875-0.03125 0.15625-0.03125 0.1875 0 0.0625 0.03125 0.14062 0.125 0.14062 0.10938 0 0.125-0.078125 0.15625-0.23438z"/>
</symbol>
<symbol id="aj" overflow="visible">
<path d="m2.7812-4.3906c0-0.3125-0.3125-0.51562-0.6875-0.51562-0.54688 0-1.1875 0.39062-1.1875 1.125v0.78125h-0.59375v0.25h0.59375v2.2031c0 0.29688-0.0625 0.29688-0.51562 0.29688v0.25c0.03125 0 0.51562-0.03125 0.79688-0.03125l0.90625 0.03125v-0.25h-0.14062c-0.51562 0-0.51562-0.078125-0.51562-0.3125v-2.1875h0.875v-0.25h-0.90625v-0.78125c0-0.64062 0.375-0.92188 0.67188-0.92188 0.0625 0 0.14062 0 0.20312 0.03125-0.09375 0.046875-0.15625 0.15625-0.15625 0.28125 0 0.1875 0.14062 0.3125 0.32812 0.3125s0.32812-0.125 0.32812-0.3125z"/>
</symbol>
<symbol id="ai" overflow="visible">
<path d="m4.0625-1.5c0-0.85938-0.70312-1.5781-1.625-1.5781-0.42188 0-0.79688 0.17188-1.0469 0.42188v-2.1875l-1.0469 0.078125v0.25c0.46875 0 0.51562 0.0625 0.51562 0.40625v4.1094h0.23438l0.25-0.42188c0.26562 0.34375 0.65625 0.48438 1.0156 0.48438 0.92188 0 1.7031-0.6875 1.7031-1.5625zm-0.625-0.015625c0 0.15625 0 0.6875-0.28125 1.0156-0.28125 0.3125-0.625 0.375-0.82812 0.375-0.5625 0-0.84375-0.4375-0.90625-0.57812v-1.625c0.1875-0.32812 0.5625-0.54688 0.98438-0.54688 0.39062 0 0.67188 0.21875 0.8125 0.42188s0.21875 0.48438 0.21875 0.9375z"/>
</symbol>
<symbol id="w" overflow="visible">
<path d="m4.9688-1.8594c0-0.98438-0.65625-1.8125-1.4844-2.0156l-1.2812-0.29688c-0.625-0.15625-1-0.6875-1-1.2656 0-0.70312 0.53125-1.3125 1.3125-1.3125 1.6562 0 1.875 1.6406 1.9375 2.0781 0.015625 0.0625 0.015625 0.125 0.125 0.125 0.125 0 0.125-0.046875 0.125-0.23438v-2c0-0.17188 0-0.25-0.10938-0.25-0.0625 0-0.078125 0.015625-0.14062 0.14062l-0.35938 0.5625c-0.29688-0.29688-0.70312-0.70312-1.5938-0.70312-1.1094 0-1.9375 0.875-1.9375 1.9375 0 0.82812 0.53125 1.5625 1.2969 1.8281 0.10938 0.03125 0.625 0.15625 1.3281 0.32812 0.26562 0.0625 0.5625 0.14062 0.84375 0.5 0.20312 0.26562 0.3125 0.59375 0.3125 0.92188 0 0.70312-0.5 1.4219-1.3438 1.4219-0.28125 0-1.0469-0.046875-1.5781-0.53125-0.57812-0.54688-0.60938-1.1719-0.60938-1.5312-0.015625-0.10938-0.09375-0.10938-0.125-0.10938-0.125 0-0.125 0.078125-0.125 0.25v2c0 0.17188 0 0.23438 0.10938 0.23438 0.0625 0 0.078125-0.015625 0.14062-0.125 0 0 0.03125-0.046875 0.35938-0.57812 0.3125 0.34375 0.95312 0.70312 1.8438 0.70312 1.1562 0 1.9531-0.96875 1.9531-2.0781z"/>
</symbol>
<symbol id="r" overflow="visible">
<path d="m4.6875-2.1406c0-1.2656-0.98438-2.3281-2.1875-2.3281-1.25 0-2.2188 1.0938-2.2188 2.3281 0 1.2969 1.0312 2.25 2.2031 2.25 1.2031 0 2.2031-0.98438 2.2031-2.25zm-0.8125-0.078125c0 0.35938 0 0.90625-0.21875 1.3438-0.23438 0.45312-0.67188 0.73438-1.1562 0.73438-0.4375 0-0.875-0.20312-1.1406-0.67188-0.25-0.4375-0.25-1.0469-0.25-1.4062 0-0.39062 0-0.92188 0.23438-1.3594 0.26562-0.45312 0.73438-0.67188 1.1406-0.67188 0.4375 0 0.85938 0.21875 1.125 0.65625 0.26562 0.42188 0.26562 1 0.26562 1.375zm-0.14062-4.375c0-0.1875-0.1875-0.35938-0.35938-0.35938-0.15625 0-0.26562 0.10938-0.29688 0.17188l-1.2031 1.5156 0.17188 0.1875 1.5156-1.2188c0.09375-0.078125 0.17188-0.1875 0.17188-0.29688z"/>
</symbol>
<symbol id="c" overflow="visible">
<path d="m2.5469 0v-0.3125c-0.67188 0-0.78125 0-0.78125-0.4375v-6.1719l-1.4375 0.10938v0.3125c0.70312 0 0.78125 0.0625 0.78125 0.5625v5.1875c0 0.4375-0.10938 0.4375-0.78125 0.4375v0.3125l1.1094-0.03125z"/>
</symbol>
<symbol id="f" overflow="visible">
<path d="m2.4688 0v-0.3125c-0.67188 0-0.70312-0.046875-0.70312-0.4375v-3.6562l-1.3906 0.10938v0.3125c0.64062 0 0.73438 0.0625 0.73438 0.54688v2.6875c0 0.4375-0.10938 0.4375-0.78125 0.4375v0.3125l1.0938-0.03125c0.35938 0 0.70312 0.015625 1.0469 0.03125zm-0.5625-6.0156c0-0.28125-0.21875-0.53125-0.51562-0.53125-0.34375 0-0.54688 0.28125-0.54688 0.53125 0 0.26562 0.23438 0.51562 0.53125 0.51562 0.34375 0 0.53125-0.26562 0.53125-0.51562z"/>
</symbol>
<symbol id="e" overflow="visible">
<path d="m5.25 0v-0.3125c-0.6875 0-0.78125-0.0625-0.78125-0.5625v-6.0469l-1.4219 0.10938v0.3125c0.6875 0 0.76562 0.0625 0.76562 0.5625v2.1562c-0.28125-0.35938-0.71875-0.625-1.25-0.625-1.1719 0-2.2188 0.98438-2.2188 2.2656 0 1.2656 0.96875 2.25 2.1094 2.25 0.64062 0 1.0781-0.34375 1.3281-0.65625v0.65625zm-1.4688-1.1719c0 0.17188 0 0.1875-0.10938 0.35938-0.29688 0.48438-0.73438 0.70312-1.1719 0.70312-0.45312 0-0.8125-0.26562-1.0469-0.64062-0.25-0.40625-0.28125-0.96875-0.28125-1.3906 0-0.35938 0.015625-0.95312 0.29688-1.4062 0.21875-0.3125 0.59375-0.64062 1.1406-0.64062 0.34375 0 0.76562 0.15625 1.0625 0.59375 0.10938 0.17188 0.10938 0.1875 0.10938 0.375z"/>
</symbol>
<symbol id="b" overflow="visible">
<path d="m4.6875-2.1406c0-1.2656-0.98438-2.3281-2.1875-2.3281-1.25 0-2.2188 1.0938-2.2188 2.3281 0 1.2969 1.0312 2.25 2.2031 2.25 1.2031 0 2.2031-0.98438 2.2031-2.25zm-0.8125-0.078125c0 0.35938 0 0.90625-0.21875 1.3438-0.23438 0.45312-0.67188 0.73438-1.1562 0.73438-0.4375 0-0.875-0.20312-1.1406-0.67188-0.25-0.4375-0.25-1.0469-0.25-1.4062 0-0.39062 0-0.92188 0.23438-1.3594 0.26562-0.45312 0.73438-0.67188 1.1406-0.67188 0.4375 0 0.85938 0.21875 1.125 0.65625 0.26562 0.42188 0.26562 1 0.26562 1.375z"/>
</symbol>
<symbol id="a" overflow="visible">
<path d="m4.1406-1.1875c0-0.09375-0.078125-0.125-0.14062-0.125-0.078125 0-0.10938 0.0625-0.125 0.14062-0.34375 1.0312-1.25 1.0312-1.3438 1.0312-0.5 0-0.89062-0.29688-1.125-0.67188-0.29688-0.46875-0.29688-1.125-0.29688-1.4844h2.7812c0.21875 0 0.25 0 0.25-0.21875 0-0.98438-0.54688-1.9531-1.7812-1.9531-1.1562 0-2.0781 1.0312-2.0781 2.2812 0 1.3281 1.0469 2.2969 2.1875 2.2969 1.2188 0 1.6719-1.1094 1.6719-1.2969zm-0.65625-1.3281h-2.375c0.0625-1.4844 0.90625-1.7344 1.25-1.7344 1.0156 0 1.125 1.3438 1.125 1.7344z"/>
</symbol>
<symbol id="i" overflow="visible">
<path d="m3.5938-1.2812c0-0.51562-0.29688-0.82812-0.42188-0.9375-0.32812-0.32812-0.71875-0.40625-1.1406-0.48438-0.5625-0.10938-1.2188-0.23438-1.2188-0.8125 0-0.35938 0.25-0.76562 1.1094-0.76562 1.0938 0 1.1562 0.90625 1.1719 1.2031 0 0.09375 0.10938 0.09375 0.10938 0.09375 0.14062 0 0.14062-0.046875 0.14062-0.23438v-1.0156c0-0.15625 0-0.23438-0.10938-0.23438-0.046875 0-0.078125 0-0.20312 0.125-0.03125 0.03125-0.125 0.125-0.17188 0.15625-0.375-0.28125-0.78125-0.28125-0.9375-0.28125-1.2188 0-1.5938 0.67188-1.5938 1.2344 0 0.34375 0.15625 0.625 0.42188 0.84375 0.32812 0.25 0.60938 0.3125 1.3281 0.45312 0.21875 0.046875 1.0312 0.20312 1.0312 0.92188 0 0.5-0.34375 0.90625-1.125 0.90625-0.84375 0-1.2031-0.5625-1.3906-1.4219-0.03125-0.125-0.03125-0.15625-0.14062-0.15625-0.125 0-0.125 0.0625-0.125 0.23438v1.3281c0 0.17188 0 0.23438 0.10938 0.23438 0.046875 0 0.0625-0.015625 0.25-0.20312 0.015625-0.015625 0.015625-0.03125 0.20312-0.21875 0.4375 0.40625 0.89062 0.42188 1.0938 0.42188 1.1406 0 1.6094-0.67188 1.6094-1.3906z"/>
</symbol>
<symbol id="d" overflow="visible">
<path d="m3.3125-1.2344v-0.5625h-0.25v0.54688c0 0.73438-0.29688 1.1094-0.67188 1.1094-0.67188 0-0.67188-0.90625-0.67188-1.0781v-2.7656h1.4375v-0.3125h-1.4375v-1.8281h-0.25c0 0.8125-0.29688 1.875-1.2812 1.9219v0.21875h0.84375v2.75c0 1.2188 0.9375 1.3438 1.2969 1.3438 0.70312 0 0.98438-0.70312 0.98438-1.3438z"/>
</symbol>
<symbol id="m" overflow="visible">
<path d="m4.8125-0.89062v-0.5625h-0.25v0.5625c0 0.57812-0.25 0.64062-0.35938 0.64062-0.32812 0-0.35938-0.45312-0.35938-0.5v-1.9844c0-0.42188 0-0.8125-0.35938-1.1875-0.39062-0.39062-0.89062-0.54688-1.375-0.54688-0.8125 0-1.5 0.46875-1.5 1.125 0 0.29688 0.20312 0.46875 0.45312 0.46875 0.28125 0 0.46875-0.20312 0.46875-0.45312 0-0.125-0.0625-0.45312-0.51562-0.45312 0.26562-0.35938 0.76562-0.46875 1.0781-0.46875 0.48438 0 1.0625 0.39062 1.0625 1.2812v0.35938c-0.51562 0.03125-1.2188 0.0625-1.8438 0.35938-0.75 0.34375-1 0.85938-1 1.2969 0 0.8125 0.96875 1.0625 1.5938 1.0625 0.67188 0 1.125-0.40625 1.3125-0.85938 0.046875 0.39062 0.3125 0.8125 0.78125 0.8125 0.20312 0 0.8125-0.14062 0.8125-0.95312zm-1.6562-0.5c0 0.9375-0.71875 1.2812-1.1719 1.2812-0.48438 0-0.89062-0.34375-0.89062-0.84375 0-0.54688 0.40625-1.375 2.0625-1.4375zm0.57812-5.2031c0-0.1875-0.1875-0.35938-0.35938-0.35938-0.15625 0-0.26562 0.10938-0.29688 0.17188l-1.2031 1.5156 0.17188 0.1875 1.5156-1.2188c0.09375-0.078125 0.17188-0.1875 0.17188-0.29688z"/>
</symbol>
<symbol id="l" overflow="visible">
<path d="m5.0625-3.9844v-0.3125c-0.23438 0.015625-0.51562 0.03125-0.75 0.03125l-0.85938-0.03125v0.3125c0.35938 0 0.46875 0.23438 0.46875 0.42188 0 0.09375-0.015625 0.14062-0.046875 0.25l-1.0312 2.5312-1.1094-2.7812c-0.0625-0.125-0.0625-0.17188-0.0625-0.17188 0-0.25 0.39062-0.25 0.57812-0.25v-0.3125l-1.0938 0.03125c-0.26562 0-0.67188-0.015625-0.96875-0.03125v0.3125c0.625 0 0.67188 0.0625 0.79688 0.35938l1.4375 3.5469c0.0625 0.14062 0.078125 0.1875 0.20312 0.1875 0.14062 0 0.17188-0.09375 0.21875-0.1875l1.2969-3.2344c0.09375-0.23438 0.26562-0.67188 0.92188-0.67188z"/>
</symbol>
<symbol id="v" overflow="visible">
<path d="m5.7969-2.5781h-0.25c-0.10938 1.0156-0.25 2.2656-2 2.2656h-0.8125c-0.46875 0-0.48438-0.0625-0.48438-0.39062v-5.3125c0-0.34375 0-0.48438 0.9375-0.48438h0.32812v-0.3125c-0.35938 0.03125-1.2656 0.03125-1.6719 0.03125-0.39062 0-1.1719 0-1.5156-0.03125v0.3125h0.23438c0.76562 0 0.79688 0.10938 0.79688 0.46875v5.25c0 0.35938-0.03125 0.46875-0.79688 0.46875h-0.23438v0.3125h5.1875z"/>
</symbol>
<symbol id="u" overflow="visible">
<path d="m2.4688 0v-0.3125c-0.67188 0-0.70312-0.046875-0.70312-0.4375v-3.6562l-1.3906 0.10938v0.3125c0.64062 0 0.73438 0.0625 0.73438 0.54688v2.6875c0 0.4375-0.10938 0.4375-0.78125 0.4375v0.3125l1.0938-0.03125c0.35938 0 0.70312 0.015625 1.0469 0.03125zm0.15625-6.5938c0-0.1875-0.1875-0.35938-0.35938-0.35938-0.15625 0-0.26562 0.10938-0.29688 0.17188l-1.2031 1.5156 0.17188 0.1875 1.5156-1.2188c0.09375-0.078125 0.17188-0.1875 0.17188-0.29688z"/>
</symbol>
<symbol id="t" overflow="visible">
<path d="m5.25 1.9375v-0.3125c-0.67188 0-0.78125 0-0.78125-0.45312v-5.5781h-0.21875l-0.375 0.90625c-0.125-0.28125-0.53125-0.90625-1.3281-0.90625-1.1562 0-2.2031 0.96875-2.2031 2.2656 0 1.25 0.96875 2.25 2.125 2.25 0.6875 0 1.0938-0.42188 1.3125-0.71875v1.7812c0 0.45312-0.10938 0.45312-0.76562 0.45312v0.3125l1.1094-0.03125zm-1.4375-3.2969c0 0.32812-0.17188 0.60938-0.39062 0.84375-0.125 0.14062-0.45312 0.40625-0.92188 0.40625-0.71875 0-1.3281-0.89062-1.3281-2.0312 0-1.1875 0.6875-2.0156 1.4375-2.0156 0.79688 0 1.2031 0.85938 1.2031 1.3906z"/>
</symbol>
<symbol id="k" overflow="visible">
<path d="m5.3281 0v-0.3125c-0.6875 0-0.76562-0.0625-0.76562-0.5625v-3.5312l-1.4688 0.10938v0.3125c0.6875 0 0.78125 0.0625 0.78125 0.5625v1.7656c0 0.875-0.48438 1.5469-1.2188 1.5469-0.82812 0-0.875-0.46875-0.875-0.98438v-3.3125l-1.4688 0.10938v0.3125c0.78125 0 0.78125 0.03125 0.78125 0.90625v1.5c0 0.78125 0 1.6875 1.5156 1.6875 0.5625 0 1-0.28125 1.2812-0.89062v0.89062z"/>
</symbol>
<symbol id="s" overflow="visible">
<path d="m7.2812-6.5v-0.3125c-0.3125 0.03125-0.71875 0.03125-0.96875 0.03125l-1.1406-0.03125v0.3125c0.51562 0.015625 0.73438 0.26562 0.73438 0.5 0 0.078125-0.03125 0.14062-0.046875 0.20312l-1.8281 4.7969-1.9062-5.0312c-0.0625-0.14062-0.0625-0.17188-0.0625-0.17188 0-0.29688 0.5625-0.29688 0.8125-0.29688v-0.3125c-0.35938 0.03125-1.0469 0.03125-1.4219 0.03125l-1.2656-0.03125v0.3125c0.65625 0 0.84375 0 0.98438 0.375l2.3125 6.125c0.0625 0.1875 0.10938 0.21875 0.25 0.21875 0.15625 0 0.1875-0.046875 0.23438-0.1875l2.2188-5.8594c0.14062-0.375 0.40625-0.65625 1.0938-0.67188z"/>
</symbol>
<symbol id="h" overflow="visible">
<path d="m4.8125-0.89062v-0.5625h-0.25v0.5625c0 0.57812-0.25 0.64062-0.35938 0.64062-0.32812 0-0.35938-0.45312-0.35938-0.5v-1.9844c0-0.42188 0-0.8125-0.35938-1.1875-0.39062-0.39062-0.89062-0.54688-1.375-0.54688-0.8125 0-1.5 0.46875-1.5 1.125 0 0.29688 0.20312 0.46875 0.45312 0.46875 0.28125 0 0.46875-0.20312 0.46875-0.45312 0-0.125-0.0625-0.45312-0.51562-0.45312 0.26562-0.35938 0.76562-0.46875 1.0781-0.46875 0.48438 0 1.0625 0.39062 1.0625 1.2812v0.35938c-0.51562 0.03125-1.2188 0.0625-1.8438 0.35938-0.75 0.34375-1 0.85938-1 1.2969 0 0.8125 0.96875 1.0625 1.5938 1.0625 0.67188 0 1.125-0.40625 1.3125-0.85938 0.046875 0.39062 0.3125 0.8125 0.78125 0.8125 0.20312 0 0.8125-0.14062 0.8125-0.95312zm-1.6562-0.5c0 0.9375-0.71875 1.2812-1.1719 1.2812-0.48438 0-0.89062-0.34375-0.89062-0.84375 0-0.54688 0.40625-1.375 2.0625-1.4375z"/>
</symbol>
<symbol id="j" overflow="visible">
<path d="m5.1875-2.1562c0-1.2656-0.95312-2.25-2.0781-2.25-0.78125 0-1.2031 0.4375-1.3906 0.65625v-0.65625l-1.4375 0.10938v0.3125c0.70312 0 0.78125 0.0625 0.78125 0.5v4.6562c0 0.45312-0.10938 0.45312-0.78125 0.45312v0.3125l1.1094-0.03125 1.125 0.03125v-0.3125c-0.65625 0-0.76562 0-0.76562-0.45312v-1.7656c0.046875 0.17188 0.46875 0.70312 1.2188 0.70312 1.1875 0 2.2188-0.98438 2.2188-2.2656zm-0.82812 0c0 1.2031-0.6875 2.0469-1.4219 2.0469-0.40625 0-0.78125-0.20312-1.0469-0.60938-0.14062-0.20312-0.14062-0.21875-0.14062-0.42188v-2.2188c0.28125-0.51562 0.76562-0.79688 1.2812-0.79688 0.73438 0 1.3281 0.875 1.3281 2z"/>
</symbol>
<symbol id="g" overflow="visible">
<path d="m3.625-3.7969c0-0.3125-0.3125-0.60938-0.73438-0.60938-0.73438 0-1.0938 0.67188-1.2188 1.0938v-1.0938l-1.3906 0.10938v0.3125c0.70312 0 0.78125 0.0625 0.78125 0.5625v2.6719c0 0.4375-0.10938 0.4375-0.78125 0.4375v0.3125l1.1406-0.03125c0.39062 0 0.85938 0 1.2656 0.03125v-0.3125h-0.21875c-0.73438 0-0.75-0.10938-0.75-0.46875v-1.5312c0-0.98438 0.42188-1.875 1.1719-1.875 0.0625 0 0.09375 0 0.10938 0.015625-0.03125 0-0.23438 0.125-0.23438 0.39062s0.21875 0.42188 0.4375 0.42188c0.17188 0 0.42188-0.125 0.42188-0.4375z"/>
</symbol>
<symbol id="ah" overflow="visible">
<path d="m6.8281-4.5-0.1875-2.25h-6.0938l-0.1875 2.25h0.25c0.14062-1.6094 0.28125-1.9375 1.7969-1.9375 0.17188 0 0.4375 0 0.53125 0.015625 0.21875 0.046875 0.21875 0.15625 0.21875 0.375v5.2656c0 0.32812 0 0.46875-1.0469 0.46875h-0.40625v0.3125c0.40625-0.03125 1.4219-0.03125 1.8906-0.03125 0.45312 0 1.4844 0 1.8906 0.03125v-0.3125h-0.40625c-1.0469 0-1.0469-0.14062-1.0469-0.46875v-5.2656c0-0.1875 0-0.32812 0.1875-0.375 0.10938-0.015625 0.375-0.015625 0.5625-0.015625 1.5156 0 1.6562 0.32812 1.7969 1.9375z"/>
</symbol>
<symbol id="ag" overflow="visible">
<path d="m8.1094 0v-0.3125c-0.51562 0-0.76562 0-0.78125-0.29688v-1.9062c0-0.85938 0-1.1562-0.3125-1.5156-0.14062-0.17188-0.46875-0.375-1.0469-0.375-0.82812 0-1.2812 0.59375-1.4375 0.98438-0.14062-0.875-0.875-0.98438-1.3281-0.98438-0.73438 0-1.2031 0.42188-1.4844 1.0469v-1.0469l-1.4062 0.10938v0.3125c0.70312 0 0.78125 0.0625 0.78125 0.5625v2.6719c0 0.4375-0.10938 0.4375-0.78125 0.4375v0.3125l1.1406-0.03125 1.1094 0.03125v-0.3125c-0.67188 0-0.78125 0-0.78125-0.4375v-1.8438c0-1.0312 0.71875-1.5938 1.3438-1.5938 0.64062 0 0.75 0.53125 0.75 1.1094v2.3281c0 0.4375-0.10938 0.4375-0.78125 0.4375v0.3125l1.125-0.03125 1.1094 0.03125v-0.3125c-0.65625 0-0.76562 0-0.76562-0.4375v-1.8438c0-1.0312 0.70312-1.5938 1.3438-1.5938 0.625 0 0.73438 0.53125 0.73438 1.1094v2.3281c0 0.4375-0.10938 0.4375-0.78125 0.4375v0.3125l1.125-0.03125z"/>
</symbol>
<symbol id="af" overflow="visible">
<path d="m2.0312-0.015625c0-0.625-0.25-1.0469-0.64062-1.0469-0.35938 0-0.53125 0.28125-0.53125 0.53125 0 0.26562 0.17188 0.53125 0.53125 0.53125 0.14062 0 0.28125-0.0625 0.39062-0.15625 0.015625 0.78125-0.25 1.3906-0.6875 1.8594-0.0625 0.0625-0.078125 0.078125-0.078125 0.10938 0 0.078125 0.046875 0.10938 0.09375 0.10938 0.125 0 0.92188-0.78125 0.92188-1.9375z"/>
</symbol>
<symbol id="ae" overflow="visible">
<path d="m-2.5781-6.5v0.25c1.5469 0.25 2.2656 0.48438 2.2656 2.1875v1.3281c0 0.46875-0.0625 0.48438-0.39062 0.48438h-2.6719v-0.89062c0-0.96875 0.32812-1.0781 1.1719-1.0781v-0.25h-2.6406v0.25c0.85938 0 1.1719 0.10938 1.1719 1.0781v0.89062h-2.4062c-0.32812 0-0.39062-0.015625-0.39062-0.48438v-1.2812c0-1.5312 0.54688-1.7969 1.9375-1.9531v-0.25l-2.25 0.28125v5.6094h0.3125v-0.23438c0-0.76562 0.10938-0.79688 0.46875-0.79688h5.2188c0.35938 0 0.46875 0.03125 0.46875 0.79688v0.23438h0.3125v-5.75z"/>
</symbol>
<symbol id="ac" overflow="visible">
<path d="m0-5.3281h-0.3125c0 0.51562 0 0.76562-0.29688 0.76562h-1.9062c-0.85938 0-1.1562 0-1.5156 0.3125-0.17188 0.14062-0.375 0.46875-0.375 1.0469 0 0.73438 0.42188 1.2031 1.0469 1.4844h-1.0469l0.10938 1.4062h0.3125c0-0.70312 0.0625-0.78125 0.5625-0.78125h2.6719c0.4375 0 0.4375 0.10938 0.4375 0.78125h0.3125l-0.03125-1.1406 0.03125-1.1094h-0.3125c0 0.67188 0 0.78125-0.4375 0.78125h-1.8438c-1.0312 0-1.5938-0.71875-1.5938-1.3438 0-0.64062 0.53125-0.75 1.1094-0.75h2.3281c0.4375 0 0.4375 0.10938 0.4375 0.78125h0.3125l-0.03125-1.125z"/>
</symbol>
<symbol id="q" overflow="visible">
<path d="m-1.1875-4.1406c-0.09375 0-0.125 0.078125-0.125 0.14062 0 0.078125 0.0625 0.10938 0.14062 0.125 1.0312 0.34375 1.0312 1.25 1.0312 1.3438 0 0.5-0.29688 0.89062-0.67188 1.125-0.46875 0.29688-1.125 0.29688-1.4844 0.29688v-2.7812c0-0.21875 0-0.25-0.21875-0.25-0.98438 0-1.9531 0.54688-1.9531 1.7812 0 1.1562 1.0312 2.0781 2.2812 2.0781 1.3281 0 2.2969-1.0469 2.2969-2.1875 0-1.2188-1.1094-1.6719-1.2969-1.6719zm-1.3281 0.65625v2.375c-1.4844-0.0625-1.7344-0.90625-1.7344-1.25 0-1.0156 1.3438-1.125 1.7344-1.125z"/>
</symbol>
<symbol id="p" overflow="visible">
<path d="m-3.7969-3.625c-0.3125 0-0.60938 0.3125-0.60938 0.73438 0 0.73438 0.67188 1.0938 1.0938 1.2188h-1.0938l0.10938 1.3906h0.3125c0-0.70312 0.0625-0.78125 0.5625-0.78125h2.6719c0.4375 0 0.4375 0.10938 0.4375 0.78125h0.3125l-0.03125-1.1406c0-0.39062 0-0.85938 0.03125-1.2656h-0.3125v0.21875c0 0.73438-0.10938 0.75-0.46875 0.75h-1.5312c-0.98438 0-1.875-0.42188-1.875-1.1719 0-0.0625 0-0.09375 0.015625-0.10938 0 0.03125 0.125 0.23438 0.39062 0.23438s0.42188-0.21875 0.42188-0.4375c0-0.17188-0.125-0.42188-0.4375-0.42188z"/>
</symbol>
<symbol id="ab" overflow="visible">
<path d="m-4.0312-4.8281c-0.17188 0-0.48438 0.10938-0.48438 0.5 0 0.20312 0.0625 0.64062 0.46875 1.0625-0.32812 0.42188-0.35938 0.82812-0.35938 1.0469 0 0.9375 0.6875 1.625 1.4531 1.625 0.4375 0 0.8125-0.21875 1.0312-0.46875 0.14062 0.125 0.46875 0.3125 0.82812 0.3125 0.3125 0 0.6875-0.14062 0.89062-0.45312 0.15625 0.60938 0.59375 0.92188 0.98438 0.92188 0.71875 0 1.2656-0.98438 1.2656-2.2031 0-1.1719-0.5-2.2031-1.2812-2.2031-0.34375 0-0.85938 0.125-1.1406 0.64062-0.26562 0.53125-0.26562 1.1094-0.26562 1.7188 0 0.25 0 0.67188-0.015625 0.75-0.046875 0.3125-0.34375 0.51562-0.67188 0.51562-0.03125 0-0.26562 0-0.46875-0.15625 0.28125-0.39062 0.3125-0.8125 0.3125-1 0-0.92188-0.6875-1.6094-1.4531-1.6094-0.375 0-0.73438 0.15625-0.96875 0.40625-0.34375-0.35938-0.39062-0.71875-0.39062-0.89062 0 0 0-0.078125 0.015625-0.10938 0.03125 0.10938 0.14062 0.17188 0.26562 0.17188 0.17188 0 0.28125-0.14062 0.28125-0.29688 0-0.09375-0.0625-0.28125-0.29688-0.28125zm1.0781 1.75c0.26562 0 0.59375 0 0.84375 0.15625 0.10938 0.078125 0.39062 0.3125 0.39062 0.70312 0 0.875-1 0.875-1.2188 0.875-0.26562 0-0.59375-0.015625-0.84375-0.15625-0.10938-0.078125-0.39062-0.3125-0.39062-0.71875 0-0.85938 0.98438-0.85938 1.2188-0.85938zm3.7344-1.0938c0.54688 0 1.0469 0.70312 1.0469 1.6719 0 1.0156-0.51562 1.7031-1.0469 1.7031-0.45312 0-0.82812-0.375-0.84375-0.8125v-0.59375c0-0.85938 0-1.9688 0.84375-1.9688z"/>
</symbol>
<symbol id="o" overflow="visible">
<path d="m0-2.4688h-0.3125c0 0.67188-0.046875 0.70312-0.4375 0.70312h-3.6562l0.10938 1.3906h0.3125c0-0.64062 0.0625-0.73438 0.54688-0.73438h2.6875c0.4375 0 0.4375 0.10938 0.4375 0.78125h0.3125l-0.03125-1.0938c0-0.35938 0.015625-0.70312 0.03125-1.0469zm-6.0156 0.5625c-0.28125 0-0.53125 0.21875-0.53125 0.51562 0 0.34375 0.28125 0.54688 0.53125 0.54688 0.26562 0 0.51562-0.23438 0.51562-0.53125 0-0.34375-0.26562-0.53125-0.51562-0.53125z"/>
</symbol>
<symbol id="aa" overflow="visible">
<path d="m-0.89062-4.8125h-0.5625v0.25h0.5625c0.57812 0 0.64062 0.25 0.64062 0.35938 0 0.32812-0.45312 0.35938-0.5 0.35938h-1.9844c-0.42188 0-0.8125 0-1.1875 0.35938-0.39062 0.39062-0.54688 0.89062-0.54688 1.375 0 0.8125 0.46875 1.5 1.125 1.5 0.29688 0 0.46875-0.20312 0.46875-0.45312 0-0.28125-0.20312-0.46875-0.45312-0.46875-0.125 0-0.45312 0.0625-0.45312 0.51562-0.35938-0.26562-0.46875-0.76562-0.46875-1.0781 0-0.48438 0.39062-1.0625 1.2812-1.0625h0.35938c0.03125 0.51562 0.0625 1.2188 0.35938 1.8438 0.34375 0.75 0.85938 1 1.2969 1 0.8125 0 1.0625-0.96875 1.0625-1.5938 0-0.67188-0.40625-1.125-0.85938-1.3125 0.39062-0.046875 0.8125-0.3125 0.8125-0.78125 0-0.20312-0.14062-0.8125-0.95312-0.8125zm-0.5 1.6562c0.9375 0 1.2812 0.71875 1.2812 1.1719 0 0.48438-0.34375 0.89062-0.84375 0.89062-0.54688 0-1.375-0.40625-1.4375-2.0625z"/>
</symbol>
<symbol id="z" overflow="visible">
<path d="m0-2.5469h-0.3125c0 0.67188 0 0.78125-0.4375 0.78125h-6.1719l0.10938 1.4375h0.3125c0-0.70312 0.0625-0.78125 0.5625-0.78125h5.1875c0.4375 0 0.4375 0.10938 0.4375 0.78125h0.3125l-0.03125-1.1094z"/>
</symbol>
<symbol id="y" overflow="visible">
<path d="m-3.9844-5.0625h-0.3125c0.015625 0.23438 0.03125 0.51562 0.03125 0.75l-0.03125 0.85938h0.3125c0-0.35938 0.23438-0.46875 0.42188-0.46875 0.09375 0 0.14062 0.015625 0.25 0.046875l2.5312 1.0312-2.7812 1.1094c-0.125 0.0625-0.17188 0.0625-0.17188 0.0625-0.25 0-0.25-0.39062-0.25-0.57812h-0.3125l0.03125 1.0938c0 0.26562-0.015625 0.67188-0.03125 0.96875h0.3125c0-0.625 0.0625-0.67188 0.35938-0.79688l3.5469-1.4375c0.14062-0.0625 0.1875-0.078125 0.1875-0.20312 0-0.14062-0.09375-0.17188-0.1875-0.21875l-3.2344-1.2969c-0.23438-0.09375-0.67188-0.26562-0.67188-0.92188z"/>
</symbol>
<symbol id="ad" overflow="visible">
<path d="m-0.015625-2.0312c-0.625 0-1.0469 0.25-1.0469 0.64062 0 0.35938 0.28125 0.53125 0.53125 0.53125 0.26562 0 0.53125-0.17188 0.53125-0.53125 0-0.14062-0.0625-0.28125-0.15625-0.39062 0.78125-0.015625 1.3906 0.25 1.8594 0.6875 0.0625 0.0625 0.078125 0.078125 0.10938 0.078125 0.078125 0 0.10938-0.046875 0.10938-0.09375 0-0.125-0.78125-0.92188-1.9375-0.92188z"/>
</symbol>
<symbol id="x" overflow="visible">
<path d="m-2.6094-7.1875c-0.078125 0-0.10938 0.046875-0.10938 0.125 0 0.23438 0.03125 0.82812 0.03125 1.0469l-0.03125 1.4062c0 0.078125 0 0.20312 0.20312 0.20312 0.10938 0 0.10938-0.078125 0.10938-0.29688 0 0 0-0.29688 0.015625-0.53125 0.03125-0.26562 0.0625-0.3125 0.1875-0.3125 0.09375 0 0.53125 0.10938 0.90625 0.21875 1.0938 0.28125 1.2031 1.5625 1.2031 1.9219 0 0.95312-0.5625 2-2.0938 2-0.3125 0-1.9531-0.09375-3.25-1.1406-0.67188-0.54688-1.2812-1.5156-1.2812-2.5 0-1.0156 0.76562-1.6094 1.9219-1.6094 0.40625 0 0.40625 0.03125 0.51562 0.03125 0.09375 0 0.09375-0.10938 0.09375-0.14062 0-0.125-0.015625-0.125-0.20312-0.1875l-2.5312-0.625c-0.03125 0-0.10938 0.015625-0.10938 0.10938 0 0.03125 0.015625 0.046875 0.125 0.15625l0.76562 0.6875c-0.14062 0.09375-0.89062 0.54688-0.89062 1.6562 0 2.2344 2.2031 4.4688 4.5156 4.4688 1.5938 0 2.7344-1.1094 2.7344-2.7188 0-0.4375-0.09375-0.89062-0.23438-1.25-0.20312-0.5-0.40625-0.6875-0.60938-0.85938 0.25-0.09375 0.60938-0.35938 0.60938-0.45312 0-0.046875-0.03125-0.078125-0.03125-0.078125-0.015625-0.015625-0.40625-0.10938-0.60938-0.15625l-0.76562-0.1875c-0.17188-0.046875-0.34375-0.09375-0.51562-0.14062-0.4375-0.10938-0.46875-0.10938-0.46875-0.6875 0-0.046875-0.015625-0.15625-0.20312-0.15625z"/>
</symbol>
<clipPath id="ao">
<path d="m13.352 43h194.27v105h-194.27z"/>
</clipPath>
<clipPath id="an">
<path d="m13.352 1h162.65v145h-162.65z"/>
</clipPath>
<clipPath id="am">
<path d="m13.352 158h69.648v4.3945h-69.648z"/>
</clipPath>
<clipPath id="al">
<path d="m73 158h75v4.3945h-75z"/>
</clipPath>
<clipPath id="ak">
<path d="m138 158h69.625v4.3945h-69.625z"/>
</clipPath>
</defs>
<path transform="matrix(1 0 0 -1 13.353 162.39)" d="m64.756-5.3125e-4v161.39m64.758-161.39v161.39" fill="none" stroke="#bfbfbf" stroke-miterlimit="10" stroke-width=".3985"/>
<path transform="matrix(1 0 0 -1 13.353 162.39)" d="m64.756-5.3125e-4v4.2539m64.758-4.2539v4.2539m-64.758 157.14v-4.25m64.758 4.25v-4.25" fill="none" stroke="#7f7f7f" stroke-miterlimit="10" stroke-width=".19925"/>
<path transform="matrix(1 0 0 -1 13.353 162.39)" d="m-0.0014375-5.3125e-4v161.39h194.27v-161.39z" fill="none" stroke="#000" stroke-miterlimit="10" stroke-width=".3985"/>
<g>
<use x="73.465" y="172.722" xlink:href="#n"/>
<use x="79.287" y="174.216" xlink:href="#aj"/>
<use x="137.506" y="172.722" xlink:href="#n"/>
<use x="143.328" y="174.216" xlink:href="#ai"/>
</g>
<path transform="matrix(1 0 0 -1 13.353 162.39)" d="m12.952 80.699h168.37" fill="none" stroke="#0c6dfd" stroke-miterlimit="10" stroke-width="1.1955"/>
<g clip-path="url(#ao)">
<path transform="matrix(1 0 0 -1 13.353 162.39)" d="m12.952 102.22 1.1289-0.47266 1.1289-0.46875 1.1328-0.46875 2.2578-0.9375 1.1328-0.46875 1.1289-0.47266 2.2578-0.9375 1.1328-0.46875 2.2578-0.9375 1.1328-0.46875 1.1289-0.47266 2.2578-0.9375 1.1328-0.46875 2.2578-0.9375 1.1289-0.47266 1.1328-0.46875 2.2578-0.9375 1.1328-0.46875 1.1289-0.46875 1.1289-0.47266 1.1289-0.46875 1.1328-0.46875 2.2578-0.9375 1.1328-0.46875 1.1289-0.47266 2.2578-0.9375 1.1328-0.46875 2.2578-0.9375 1.1289-0.47266 1.1328-0.46875 2.2578-0.9375 1.1328-0.46875 2.2578-0.9375 1.1289-0.47266 1.1328-0.46875 2.2578-0.9375 1.1328-0.46875 1.1289-0.46875 1.1289-0.47266 1.1289-0.46875 1.1328-0.46875 3.3867-1.4062 1.1328-0.47266 2.2578-0.9375 1.1328-0.46875 2.2578-0.9375 1.1289-0.47266 1.1328-0.46875 2.2578-0.9375 1.1328-0.46875 1.1289-0.46875 1.1289-0.47266 1.1289-0.46875 1.1328-0.46875 3.3867-1.4062 1.1328-0.46875 1.1289-0.47266 1.1289-0.46875 1.1328-0.46875 3.3867-1.4062 1.1328-0.47266 2.2578-0.9375 1.1328-0.46875 2.2578-0.9375 1.1289-0.47266 1.1328-0.46875 3.3867-1.4062 1.1328-0.46875 1.1289-0.47266 1.1289-0.46875 1.1328-0.46875 3.3867-1.4062 1.1328-0.46875 1.1289-0.47266 1.1289-0.46875 1.1328-0.46875 3.3867-1.4062 1.1328-0.47266 3.3867-1.4062 1.1328-0.46875 1.1289-0.46875 1.1289-0.47266 1.1328-0.46875 3.3867-1.4062 1.1328-0.46875 1.1289-0.47266 1.1289-0.46875 1.1328-0.46875 3.3867-1.4062 1.1328-0.47266 3.3867-1.4062 1.1328-0.46875 2.2578-0.9375 1.1328-0.47266 3.3867-1.4062 1.1328-0.46875 1.1289-0.46875 1.1289-0.47266 1.1328-0.46875 3.3867-1.4062 1.1328-0.46875 1.1289-0.47266 2.2578-0.9375 1.1328-0.46875 2.2578-0.9375" fill="none" stroke="#188653" stroke-miterlimit="10" stroke-width="1.1955"/>
</g>
<g clip-path="url(#an)">
<path transform="matrix(1 0 0 -1 13.353 162.39)" d="m-0.0014375 215.19 0.98047-1.2188 1.9531-2.4375 0.98047-1.2188 1.9531-2.4375 0.98047-1.2188 1.9531-2.4375 0.98047-1.2188 1.9531-2.4375 0.98047-1.2188 1.9531-2.4375 0.98047-1.2188 1.9531-2.4375 0.98047-1.2188 1.9531-2.4375 0.98047-1.2148 1.9531-2.4375 0.98047-1.2188 1.9531-2.4375 0.98047-1.2188 1.9531-2.4375 0.98047-1.2188 1.9531-2.4375 0.98047-1.2188 1.9531-2.4375 0.98047-1.2188 1.9531-2.4375 0.98047-1.2188 1.9531-2.4375 0.98047-1.2188 0.97656-1.2188 0.97656-1.2148 0.98047-1.2188 1.9531-2.4375 0.98047-1.2188 0.97656-1.2188 0.98047-1.2188 1.9531-2.4375 0.98047-1.2188 1.9531-2.4375 0.98047-1.2188 1.9531-2.4375 0.98047-1.2188 1.9531-2.4375 0.98047-1.2188 1.9531-2.4375 0.98047-1.2188 0.97656-1.2148 0.97656-1.2188 0.98047-1.2188 1.9531-2.4375 0.98047-1.2188 1.9531-2.4375 0.98047-1.2188 1.9531-2.4375 0.98047-1.2188 1.9531-2.4375 0.98047-1.2188 1.9531-2.4375 0.98047-1.2188 1.9531-2.4375 0.98047-1.2188 1.9531-2.4375 0.98047-1.2188 0.97656-1.2148 0.97656-1.2188 0.98047-1.2188 1.9531-2.4375 0.98047-1.2188 1.9531-2.4375 0.98047-1.2188 1.9531-2.4375 0.98047-1.2188 1.9531-2.4375 0.98047-1.2188 1.9531-2.4375 0.98047-1.2188 1.9531-2.4375 0.98047-1.2188 1.9531-2.4375 0.98047-1.2148 1.9531-2.4375 0.98047-1.2188 1.9531-2.4375 0.98047-1.2188 1.9531-2.4375 0.98047-1.2188 1.9531-2.4375 0.98047-1.2188 1.9531-2.4375 0.98047-1.2188 1.9531-2.4375 0.98047-1.2188 1.9531-2.4375 0.98047-1.2188 0.97656-1.2148 0.97656-1.2188 0.98047-1.2188 1.9531-2.4375 0.98047-1.2188 1.9531-2.4375 0.98047-1.2188 1.9531-2.4375 0.98047-1.2188 1.9531-2.4375" fill="none" stroke="#dc3445" stroke-miterlimit="10" stroke-width="1.1955"/>
</g>
<g clip-path="url(#am)">
<path transform="matrix(1 0 0 -1 13.353 162.39)" d="m-0.0014375-5.3125e-4h64.758" fill="none" stroke="#0c6dfd" stroke-miterlimit="10" stroke-width="8.5789"/>
</g>
<g clip-path="url(#al)">
<path transform="matrix(1 0 0 -1 13.353 162.39)" d="m64.756-5.3125e-4h64.758" fill="none" stroke="#188653" stroke-miterlimit="10" stroke-width="8.5789"/>
</g>
<g clip-path="url(#ak)">
<path transform="matrix(1 0 0 -1 13.353 162.39)" d="m129.51-5.3125e-4h64.758" fill="none" stroke="#dc3445" stroke-miterlimit="10" stroke-width="8.5789"/>
</g>
<g>
<use x="32.448" y="141.539" xlink:href="#w"/>
<use x="37.983221" y="141.539" xlink:href="#r"/>
<use x="42.964521" y="141.539" xlink:href="#c"/>
<use x="45.732131" y="141.539" xlink:href="#f"/>
<use x="48.499741" y="141.539" xlink:href="#e"/>
<use x="54.034962" y="141.539" xlink:href="#b"/>
<use x="31.174" y="153.494" xlink:href="#a"/>
<use x="35.602376" y="153.494" xlink:href="#i"/>
<use x="39.532621" y="153.494" xlink:href="#d"/>
<use x="43.407077" y="153.494" xlink:href="#m"/>
<use x="48.109424" y="153.494" xlink:href="#l"/>
<use x="53.088731" y="153.494" xlink:href="#a"/>
<use x="57.517107" y="153.494" xlink:href="#c"/>
<use x="93.952" y="141.539" xlink:href="#v"/>
<use x="100.178625" y="141.539" xlink:href="#u"/>
<use x="102.946235" y="141.539" xlink:href="#t"/>
<use x="108.204496" y="141.539" xlink:href="#k"/>
<use x="113.739716" y="141.539" xlink:href="#f"/>
<use x="116.507326" y="141.539" xlink:href="#e"/>
<use x="122.042547" y="141.539" xlink:href="#b"/>
<use x="95.931" y="153.494" xlink:href="#a"/>
<use x="100.359376" y="153.494" xlink:href="#i"/>
<use x="104.289621" y="153.494" xlink:href="#d"/>
<use x="108.164077" y="153.494" xlink:href="#m"/>
<use x="112.866424" y="153.494" xlink:href="#l"/>
<use x="117.845731" y="153.494" xlink:href="#a"/>
<use x="122.274107" y="153.494" xlink:href="#c"/>
<use x="162.085" y="141.539" xlink:href="#s"/>
<use x="168.730054" y="141.539" xlink:href="#h"/>
<use x="173.711354" y="141.539" xlink:href="#j"/>
<use x="179.515565" y="141.539" xlink:href="#b"/>
<use x="184.496865" y="141.539" xlink:href="#g"/>
<use x="160.687" y="153.494" xlink:href="#a"/>
<use x="165.115376" y="153.494" xlink:href="#i"/>
<use x="169.045621" y="153.494" xlink:href="#d"/>
<use x="172.920077" y="153.494" xlink:href="#m"/>
<use x="177.622424" y="153.494" xlink:href="#l"/>
<use x="182.601731" y="153.494" xlink:href="#a"/>
<use x="187.030107" y="153.494" xlink:href="#c"/>
<use x="32.448" y="97.46" xlink:href="#w"/>
<use x="37.983221" y="97.46" xlink:href="#r"/>
<use x="42.964521" y="97.46" xlink:href="#c"/>
<use x="45.732131" y="97.46" xlink:href="#f"/>
<use x="48.499741" y="97.46" xlink:href="#e"/>
<use x="54.034962" y="97.46" xlink:href="#b"/>
<use x="29.196" y="54.722" xlink:href="#v"/>
<use x="35.422625" y="54.722" xlink:href="#u"/>
<use x="38.190235" y="54.722" xlink:href="#t"/>
<use x="43.448496" y="54.722" xlink:href="#k"/>
<use x="48.983716" y="54.722" xlink:href="#f"/>
<use x="51.751326" y="54.722" xlink:href="#e"/>
<use x="57.286547" y="54.722" xlink:href="#b"/>
<use x="84.377" y="27.823" xlink:href="#s"/>
<use x="91.022054" y="27.823" xlink:href="#h"/>
<use x="96.003354" y="27.823" xlink:href="#j"/>
<use x="101.807565" y="27.823" xlink:href="#b"/>
<use x="106.788865" y="27.823" xlink:href="#g"/>
</g>
<path transform="matrix(1 0 0 -1 13.353 162.39)" d="m66.749 80.699c0 1.0977-0.89062 1.9922-1.9922 1.9922-1.0977 0-1.9922-0.89453-1.9922-1.9922 0-1.1016 0.89453-1.9922 1.9922-1.9922 1.1016 0 1.9922 0.89062 1.9922 1.9922z" fill="#fff" stroke="#188653" stroke-miterlimit="10" stroke-width="1.1955"/>
<path transform="matrix(1 0 0 -1 13.353 162.39)" d="m131.51 53.796c0 1.1016-0.89062 1.9961-1.9922 1.9961-1.1016 0-1.9922-0.89453-1.9922-1.9961 0-1.0977 0.89062-1.9922 1.9922-1.9922 1.1016 0 1.9922 0.89453 1.9922 1.9922z" fill="#fff" stroke="#dc3445" stroke-miterlimit="10" stroke-width="1.1955"/>
<g>
<use x="75.586" y="187.919" xlink:href="#ah"/>
<use x="81.954094" y="187.919" xlink:href="#a"/>
<use x="86.38247" y="187.919" xlink:href="#ag"/>
<use x="94.684304" y="187.919" xlink:href="#j"/>
<use x="100.488515" y="187.919" xlink:href="#a"/>
<use x="104.916891" y="187.919" xlink:href="#g"/>
<use x="108.819241" y="187.919" xlink:href="#h"/>
<use x="113.800541" y="187.919" xlink:href="#d"/>
<use x="117.674996" y="187.919" xlink:href="#k"/>
<use x="123.210217" y="187.919" xlink:href="#g"/>
<use x="127.112567" y="187.919" xlink:href="#h"/>
<use x="132.093867" y="187.919" xlink:href="#af"/>
<use x="138.184" y="187.919" xlink:href="#n"/>
<use x="7.896" y="116.568" xlink:href="#ae"/>
<use x="7.896" y="109.787454" xlink:href="#ac"/>
<use x="7.896" y="104.252234" xlink:href="#q"/>
<use x="7.896" y="99.823858" xlink:href="#p"/>
<use x="7.896" y="95.921508" xlink:href="#ab"/>
<use x="7.896" y="90.940208" xlink:href="#o"/>
<use x="7.896" y="88.172597" xlink:href="#aa"/>
<use x="7.896" y="79.873752" xlink:href="#z"/>
<use x="7.896" y="77.106141" xlink:href="#o"/>
<use x="7.896" y="74.338531" xlink:href="#y"/>
<use x="7.896" y="69.080271" xlink:href="#p"/>
<use x="7.896" y="65.17792" xlink:href="#q"/>
<use x="7.896" y="60.749545" xlink:href="#ad"/>
<use x="7.896" y="54.661" xlink:href="#x"/>
</g>
</svg>
