<?xml version="1.0" encoding="UTF-8"?>
<svg width="228pt" height="190pt" version="1.1" viewBox="0 0 228 190" xmlns="http://www.w3.org/2000/svg" xmlns:xlink="http://www.w3.org/1999/xlink">
<defs>
<symbol id="as" overflow="visible">
<path d="m6.9219-2.5c0-0.1875-0.1875-0.1875-0.32812-0.1875h-5.4375c-0.14062 0-0.32812 0-0.32812 0.1875 0 0.20312 0.1875 0.20312 0.32812 0.20312h5.4375c0.14062 0 0.32812 0 0.32812-0.20312z"/>
</symbol>
<symbol id="m" overflow="visible">
<path d="m4.4688-2c0-1.1875-0.8125-2.1875-1.8906-2.1875-0.46875 0-0.90625 0.15625-1.2656 0.51562v-1.9531c0.20312 0.0625 0.53125 0.125 0.84375 0.125 1.2344 0 1.9375-0.90625 1.9375-1.0312 0-0.0625-0.03125-0.10938-0.10938-0.10938 0 0-0.03125 0-0.078125 0.03125-0.20312 0.09375-0.6875 0.29688-1.3594 0.29688-0.39062 0-0.85938-0.078125-1.3281-0.28125-0.078125-0.03125-0.10938-0.03125-0.10938-0.03125-0.10938 0-0.10938 0.078125-0.10938 0.23438v2.9531c0 0.17188 0 0.25 0.14062 0.25 0.078125 0 0.09375-0.015625 0.14062-0.078125 0.10938-0.15625 0.46875-0.70312 1.2812-0.70312 0.51562 0 0.76562 0.45312 0.84375 0.64062 0.15625 0.375 0.1875 0.75 0.1875 1.25 0 0.35938 0 0.95312-0.25 1.375-0.23438 0.39062-0.60938 0.64062-1.0625 0.64062-0.71875 0-1.2969-0.53125-1.4688-1.1094 0.03125 0 0.0625 0.015625 0.17188 0.015625 0.32812 0 0.5-0.25 0.5-0.48438 0-0.25-0.17188-0.5-0.5-0.5-0.14062 0-0.48438 0.078125-0.48438 0.53125 0 0.85938 0.6875 1.8281 1.7969 1.8281 1.1562 0 2.1719-0.95312 2.1719-2.2188z"/>
</symbol>
<symbol id="ar" overflow="visible">
<path d="m4.5625-2.0312c0-1.2656-0.89062-2.2188-2-2.2188-0.67188 0-1.0469 0.5-1.25 0.98438v-0.25c0-2.5156 1.2344-2.875 1.75-2.875 0.23438 0 0.65625 0.0625 0.875 0.40625-0.15625 0-0.54688 0-0.54688 0.4375 0 0.3125 0.23438 0.46875 0.45312 0.46875 0.15625 0 0.46875-0.09375 0.46875-0.48438 0-0.59375-0.4375-1.0781-1.2656-1.0781-1.2812 0-2.625 1.2812-2.625 3.4844 0 2.6719 1.1562 3.375 2.0781 3.375 1.1094 0 2.0625-0.9375 2.0625-2.25zm-0.90625-0.015625c0 0.48438 0 0.98438-0.17188 1.3438-0.29688 0.59375-0.75 0.64062-0.98438 0.64062-0.625 0-0.92188-0.59375-0.98438-0.75-0.1875-0.46875-0.1875-1.2656-0.1875-1.4375 0-0.78125 0.32812-1.7812 1.2188-1.7812 0.17188 0 0.625 0 0.9375 0.625 0.17188 0.35938 0.17188 0.875 0.17188 1.3594z"/>
</symbol>
<symbol id="l" overflow="visible">
<path d="m4.5625-1.7031c0-0.8125-0.64062-1.5938-1.6719-1.8125 0.8125-0.26562 1.3906-0.95312 1.3906-1.75 0-0.8125-0.875-1.375-1.8281-1.375-1 0-1.7656 0.59375-1.7656 1.3594 0 0.32812 0.21875 0.51562 0.51562 0.51562s0.5-0.21875 0.5-0.51562c0-0.48438-0.46875-0.48438-0.60938-0.48438 0.29688-0.5 0.95312-0.625 1.3125-0.625 0.42188 0 0.96875 0.21875 0.96875 1.1094 0 0.125-0.03125 0.70312-0.28125 1.1406-0.29688 0.48438-0.64062 0.51562-0.89062 0.51562-0.078125 0.015625-0.3125 0.03125-0.39062 0.03125-0.078125 0.015625-0.14062 0.03125-0.14062 0.125 0 0.10938 0.0625 0.10938 0.23438 0.10938h0.4375c0.8125 0 1.1875 0.67188 1.1875 1.6562 0 1.3594-0.6875 1.6406-1.125 1.6406s-1.1875-0.17188-1.5312-0.75c0.34375 0.046875 0.65625-0.17188 0.65625-0.54688 0-0.35938-0.26562-0.5625-0.54688-0.5625-0.25 0-0.5625 0.14062-0.5625 0.57812 0 0.90625 0.92188 1.5625 2.0156 1.5625 1.2188 0 2.125-0.90625 2.125-1.9219z"/>
</symbol>
<symbol id="k" overflow="visible">
<path d="m4.1719 0v-0.3125h-0.3125c-0.90625 0-0.92188-0.10938-0.92188-0.46875v-5.5938c0-0.25 0-0.26562-0.23438-0.26562-0.625 0.64062-1.5 0.64062-1.8125 0.64062v0.3125c0.20312 0 0.78125 0 1.2969-0.26562v5.1719c0 0.35938-0.03125 0.46875-0.92188 0.46875h-0.3125v0.3125c0.34375-0.03125 1.2031-0.03125 1.6094-0.03125 0.39062 0 1.2656 0 1.6094 0.03125z"/>
</symbol>
<symbol id="aq" overflow="visible">
<path d="m4.8281-6.4219h-2.4219c-1.2031 0-1.2344-0.125-1.2656-0.3125h-0.25l-0.32812 2.0469h0.25c0.03125-0.15625 0.10938-0.78125 0.25-0.90625 0.0625-0.0625 0.84375-0.0625 0.96875-0.0625h2.0625l-1.1094 1.5781c-0.90625 1.3438-1.2344 2.7344-1.2344 3.75 0 0.09375 0 0.54688 0.46875 0.54688 0.45312 0 0.45312-0.45312 0.45312-0.54688v-0.51562c0-0.54688 0.03125-1.0938 0.10938-1.625 0.046875-0.23438 0.17188-1.0938 0.625-1.7031l1.3438-1.9062c0.078125-0.10938 0.078125-0.125 0.078125-0.34375z"/>
</symbol>
<symbol id="ap" overflow="visible">
<path d="m6.625-2.3281c0-0.09375 0-0.17188-0.125-0.17188-0.10938 0-0.10938 0.0625-0.125 0.17188-0.078125 1.4219-1.1406 2.2344-2.2344 2.2344-0.60938 0-2.5625-0.32812-2.5625-3.3125 0-2.9688 1.9531-3.3125 2.5625-3.3125 1.0781 0 1.9688 0.90625 2.1719 2.3594 0.015625 0.14062 0.015625 0.17188 0.15625 0.17188 0.15625 0 0.15625-0.03125 0.15625-0.23438v-2.3594c0-0.17188 0-0.25-0.10938-0.25-0.03125 0-0.078125 0-0.15625 0.125l-0.5 0.73438c-0.35938-0.35938-0.875-0.85938-1.8281-0.85938-1.875 0-3.4688 1.5938-3.4688 3.625 0 2.0625 1.6094 3.625 3.4688 3.625 1.625 0 2.5938-1.3906 2.5938-2.5469z"/>
</symbol>
<symbol id="ao" overflow="visible">
<path d="m2.0312-0.015625c0-0.65625-0.25-1.0469-0.64062-1.0469-0.32812 0-0.53125 0.25-0.53125 0.53125 0 0.26562 0.20312 0.53125 0.53125 0.53125 0.10938 0 0.25-0.046875 0.34375-0.125 0.03125-0.03125 0.046875-0.03125 0.046875-0.03125s0.015625 0 0.015625 0.14062c0 0.75-0.34375 1.3438-0.67188 1.6719-0.10938 0.10938-0.10938 0.125-0.10938 0.15625 0 0.078125 0.046875 0.10938 0.09375 0.10938 0.10938 0 0.92188-0.76562 0.92188-1.9375z"/>
</symbol>
<symbol id="an" overflow="visible">
<path d="m6.7344-4.7344 0.26562-1.7344c0.015625-0.046875 0.015625-0.14062 0.015625-0.17188 0-0.10938-0.09375-0.10938-0.26562-0.10938h-5.5312c-0.23438 0-0.25 0.015625-0.32812 0.20312l-0.59375 1.75c0 0.015625-0.0625 0.1875-0.0625 0.1875 0 0.046875 0.0625 0.10938 0.125 0.10938 0.09375 0 0.10938-0.0625 0.17188-0.21875 0.53125-1.5469 0.79688-1.7188 2.2656-1.7188h0.39062c0.28125 0 0.28125 0.03125 0.28125 0.125 0 0.046875-0.03125 0.17188-0.046875 0.20312l-1.3281 5.3281c-0.09375 0.35938-0.125 0.46875-1.1875 0.46875-0.35938 0-0.42188 0-0.42188 0.1875 0 0.125 0.10938 0.125 0.17188 0.125 0.26562 0 0.54688-0.015625 0.8125-0.015625l0.85938-0.015625 0.82812 0.015625c0.28125 0 0.57812 0.015625 0.85938 0.015625 0.09375 0 0.21875 0 0.21875-0.20312 0-0.10938-0.078125-0.10938-0.34375-0.10938-0.23438 0-0.375 0-0.625-0.015625-0.29688-0.03125-0.375-0.0625-0.375-0.21875 0 0 0-0.0625 0.046875-0.20312l1.3125-5.2969c0.078125-0.28125 0.10938-0.34375 0.23438-0.375 0.09375-0.015625 0.42188-0.015625 0.625-0.015625 1.0156 0 1.4531 0.03125 1.4531 0.8125 0 0.15625-0.03125 0.54688-0.078125 0.79688 0 0.046875-0.03125 0.15625-0.03125 0.1875 0 0.0625 0.03125 0.14062 0.125 0.14062 0.10938 0 0.125-0.078125 0.15625-0.23438z"/>
</symbol>
<symbol id="am" overflow="visible">
<path d="m4.4219-7.2812c0-0.10938-0.078125-0.20312-0.1875-0.20312-0.078125 0-0.14062 0.03125-0.17188 0.09375l-3.4688 9.5c-0.046875 0.14062-0.046875 0.1875-0.046875 0.1875 0 0.10938 0.09375 0.20312 0.20312 0.20312 0.125 0 0.15625-0.078125 0.21875-0.25l3.4062-9.3438c0.046875-0.14062 0.046875-0.1875 0.046875-0.1875z"/>
</symbol>
<symbol id="al" overflow="visible">
<path d="m4.9688-1.8594c0-0.98438-0.65625-1.8125-1.4844-2.0156l-1.2812-0.29688c-0.625-0.15625-1-0.6875-1-1.2656 0-0.70312 0.53125-1.3125 1.3125-1.3125 1.6562 0 1.875 1.6406 1.9375 2.0781 0.015625 0.0625 0.015625 0.125 0.125 0.125 0.125 0 0.125-0.046875 0.125-0.23438v-2c0-0.17188 0-0.25-0.10938-0.25-0.0625 0-0.078125 0.015625-0.14062 0.14062l-0.35938 0.5625c-0.29688-0.29688-0.70312-0.70312-1.5938-0.70312-1.1094 0-1.9375 0.875-1.9375 1.9375 0 0.82812 0.53125 1.5625 1.2969 1.8281 0.10938 0.03125 0.625 0.15625 1.3281 0.32812 0.26562 0.0625 0.5625 0.14062 0.84375 0.5 0.20312 0.26562 0.3125 0.59375 0.3125 0.92188 0 0.70312-0.5 1.4219-1.3438 1.4219-0.28125 0-1.0469-0.046875-1.5781-0.53125-0.57812-0.54688-0.60938-1.1719-0.60938-1.5312-0.015625-0.10938-0.09375-0.10938-0.125-0.10938-0.125 0-0.125 0.078125-0.125 0.25v2c0 0.17188 0 0.23438 0.10938 0.23438 0.0625 0 0.078125-0.015625 0.14062-0.125 0 0 0.03125-0.046875 0.35938-0.57812 0.3125 0.34375 0.95312 0.70312 1.8438 0.70312 1.1562 0 1.9531-0.96875 1.9531-2.0781z"/>
</symbol>
<symbol id="ae" overflow="visible">
<path d="m4.6875-2.1406c0-1.2656-0.98438-2.3281-2.1875-2.3281-1.25 0-2.2188 1.0938-2.2188 2.3281 0 1.2969 1.0312 2.25 2.2031 2.25 1.2031 0 2.2031-0.98438 2.2031-2.25zm-0.8125-0.078125c0 0.35938 0 0.90625-0.21875 1.3438-0.23438 0.45312-0.67188 0.73438-1.1562 0.73438-0.4375 0-0.875-0.20312-1.1406-0.67188-0.25-0.4375-0.25-1.0469-0.25-1.4062 0-0.39062 0-0.92188 0.23438-1.3594 0.26562-0.45312 0.73438-0.67188 1.1406-0.67188 0.4375 0 0.85938 0.21875 1.125 0.65625 0.26562 0.42188 0.26562 1 0.26562 1.375zm-0.14062-4.375c0-0.1875-0.1875-0.35938-0.35938-0.35938-0.15625 0-0.26562 0.10938-0.29688 0.17188l-1.2031 1.5156 0.17188 0.1875 1.5156-1.2188c0.09375-0.078125 0.17188-0.1875 0.17188-0.29688z"/>
</symbol>
<symbol id="h" overflow="visible">
<path d="m2.5469 0v-0.3125c-0.67188 0-0.78125 0-0.78125-0.4375v-6.1719l-1.4375 0.10938v0.3125c0.70312 0 0.78125 0.0625 0.78125 0.5625v5.1875c0 0.4375-0.10938 0.4375-0.78125 0.4375v0.3125l1.1094-0.03125z"/>
</symbol>
<symbol id="g" overflow="visible">
<path d="m2.4688 0v-0.3125c-0.67188 0-0.70312-0.046875-0.70312-0.4375v-3.6562l-1.3906 0.10938v0.3125c0.64062 0 0.73438 0.0625 0.73438 0.54688v2.6875c0 0.4375-0.10938 0.4375-0.78125 0.4375v0.3125l1.0938-0.03125c0.35938 0 0.70312 0.015625 1.0469 0.03125zm-0.5625-6.0156c0-0.28125-0.21875-0.53125-0.51562-0.53125-0.34375 0-0.54688 0.28125-0.54688 0.53125 0 0.26562 0.23438 0.51562 0.53125 0.51562 0.34375 0 0.53125-0.26562 0.53125-0.51562z"/>
</symbol>
<symbol id="f" overflow="visible">
<path d="m5.25 0v-0.3125c-0.6875 0-0.78125-0.0625-0.78125-0.5625v-6.0469l-1.4219 0.10938v0.3125c0.6875 0 0.76562 0.0625 0.76562 0.5625v2.1562c-0.28125-0.35938-0.71875-0.625-1.25-0.625-1.1719 0-2.2188 0.98438-2.2188 2.2656 0 1.2656 0.96875 2.25 2.1094 2.25 0.64062 0 1.0781-0.34375 1.3281-0.65625v0.65625zm-1.4688-1.1719c0 0.17188 0 0.1875-0.10938 0.35938-0.29688 0.48438-0.73438 0.70312-1.1719 0.70312-0.45312 0-0.8125-0.26562-1.0469-0.64062-0.25-0.40625-0.28125-0.96875-0.28125-1.3906 0-0.35938 0.015625-0.95312 0.29688-1.4062 0.21875-0.3125 0.59375-0.64062 1.1406-0.64062 0.34375 0 0.76562 0.15625 1.0625 0.59375 0.10938 0.17188 0.10938 0.1875 0.10938 0.375z"/>
</symbol>
<symbol id="a" overflow="visible">
<path d="m4.6875-2.1406c0-1.2656-0.98438-2.3281-2.1875-2.3281-1.25 0-2.2188 1.0938-2.2188 2.3281 0 1.2969 1.0312 2.25 2.2031 2.25 1.2031 0 2.2031-0.98438 2.2031-2.25zm-0.8125-0.078125c0 0.35938 0 0.90625-0.21875 1.3438-0.23438 0.45312-0.67188 0.73438-1.1562 0.73438-0.4375 0-0.875-0.20312-1.1406-0.67188-0.25-0.4375-0.25-1.0469-0.25-1.4062 0-0.39062 0-0.92188 0.23438-1.3594 0.26562-0.45312 0.73438-0.67188 1.1406-0.67188 0.4375 0 0.85938 0.21875 1.125 0.65625 0.26562 0.42188 0.26562 1 0.26562 1.375z"/>
</symbol>
<symbol id="aa" overflow="visible">
<path d="m3.2969 2.3906c0-0.03125 0-0.046875-0.17188-0.21875-1.2344-1.25-1.5625-3.1406-1.5625-4.6719 0-1.7344 0.375-3.4688 1.6094-4.7031 0.125-0.125 0.125-0.14062 0.125-0.17188 0-0.078125-0.03125-0.10938-0.09375-0.10938-0.10938 0-1 0.6875-1.5938 1.9531-0.5 1.0938-0.625 2.2031-0.625 3.0312 0 0.78125 0.10938 1.9844 0.65625 3.125 0.60938 1.2188 1.4531 1.875 1.5625 1.875 0.0625 0 0.09375-0.03125 0.09375-0.10938z"/>
</symbol>
<symbol id="z" overflow="visible">
<path d="m4.8281-4.0312c0-0.17188-0.10938-0.48438-0.5-0.48438-0.20312 0-0.64062 0.0625-1.0625 0.46875-0.42188-0.32812-0.82812-0.35938-1.0469-0.35938-0.9375 0-1.625 0.6875-1.625 1.4531 0 0.4375 0.21875 0.8125 0.46875 1.0312-0.125 0.14062-0.3125 0.46875-0.3125 0.82812 0 0.3125 0.14062 0.6875 0.45312 0.89062-0.60938 0.15625-0.92188 0.59375-0.92188 0.98438 0 0.71875 0.98438 1.2656 2.2031 1.2656 1.1719 0 2.2031-0.5 2.2031-1.2812 0-0.34375-0.125-0.85938-0.64062-1.1406-0.53125-0.26562-1.1094-0.26562-1.7188-0.26562-0.25 0-0.67188 0-0.75-0.015625-0.3125-0.046875-0.51562-0.34375-0.51562-0.67188 0-0.03125 0-0.26562 0.15625-0.46875 0.39062 0.28125 0.8125 0.3125 1 0.3125 0.92188 0 1.6094-0.6875 1.6094-1.4531 0-0.375-0.15625-0.73438-0.40625-0.96875 0.35938-0.34375 0.71875-0.39062 0.89062-0.39062 0 0 0.078125 0 0.10938 0.015625-0.10938 0.03125-0.17188 0.14062-0.17188 0.26562 0 0.17188 0.14062 0.28125 0.29688 0.28125 0.09375 0 0.28125-0.0625 0.28125-0.29688zm-1.75 1.0781c0 0.26562 0 0.59375-0.15625 0.84375-0.078125 0.10938-0.3125 0.39062-0.70312 0.39062-0.875 0-0.875-1-0.875-1.2188 0-0.26562 0.015625-0.59375 0.15625-0.84375 0.078125-0.10938 0.3125-0.39062 0.71875-0.39062 0.85938 0 0.85938 0.98438 0.85938 1.2188zm1.0938 3.7344c0 0.54688-0.70312 1.0469-1.6719 1.0469-1.0156 0-1.7031-0.51562-1.7031-1.0469 0-0.45312 0.375-0.82812 0.8125-0.84375h0.59375c0.85938 0 1.9688 0 1.9688 0.84375z"/>
</symbol>
<symbol id="b" overflow="visible">
<path d="m4.1406-1.1875c0-0.09375-0.078125-0.125-0.14062-0.125-0.078125 0-0.10938 0.0625-0.125 0.14062-0.34375 1.0312-1.25 1.0312-1.3438 1.0312-0.5 0-0.89062-0.29688-1.125-0.67188-0.29688-0.46875-0.29688-1.125-0.29688-1.4844h2.7812c0.21875 0 0.25 0 0.25-0.21875 0-0.98438-0.54688-1.9531-1.7812-1.9531-1.1562 0-2.0781 1.0312-2.0781 2.2812 0 1.3281 1.0469 2.2969 2.1875 2.2969 1.2188 0 1.6719-1.1094 1.6719-1.2969zm-0.65625-1.3281h-2.375c0.0625-1.4844 0.90625-1.7344 1.25-1.7344 1.0156 0 1.125 1.3438 1.125 1.7344z"/>
</symbol>
<symbol id="ak" overflow="visible">
<path d="m2.875-2.5c0-0.76562-0.10938-1.9688-0.65625-3.1094-0.59375-1.2188-1.4531-1.875-1.5469-1.875-0.0625 0-0.10938 0.046875-0.10938 0.10938 0 0.03125 0 0.046875 0.1875 0.23438 0.98438 0.98438 1.5469 2.5625 1.5469 4.6406 0 1.7188-0.35938 3.4688-1.5938 4.7188-0.14062 0.125-0.14062 0.14062-0.14062 0.17188 0 0.0625 0.046875 0.10938 0.10938 0.10938 0.09375 0 1-0.6875 1.5781-1.9531 0.51562-1.0938 0.625-2.2031 0.625-3.0469z"/>
</symbol>
<symbol id="aj" overflow="visible">
<path d="m5.7969-2.5781h-0.25c-0.10938 1.0156-0.25 2.2656-2 2.2656h-0.8125c-0.46875 0-0.48438-0.0625-0.48438-0.39062v-5.3125c0-0.34375 0-0.48438 0.9375-0.48438h0.32812v-0.3125c-0.35938 0.03125-1.2656 0.03125-1.6719 0.03125-0.39062 0-1.1719 0-1.5156-0.03125v0.3125h0.23438c0.76562 0 0.79688 0.10938 0.79688 0.46875v5.25c0 0.35938-0.03125 0.46875-0.79688 0.46875h-0.23438v0.3125h5.1875z"/>
</symbol>
<symbol id="ai" overflow="visible">
<path d="m2.4688 0v-0.3125c-0.67188 0-0.70312-0.046875-0.70312-0.4375v-3.6562l-1.3906 0.10938v0.3125c0.64062 0 0.73438 0.0625 0.73438 0.54688v2.6875c0 0.4375-0.10938 0.4375-0.78125 0.4375v0.3125l1.0938-0.03125c0.35938 0 0.70312 0.015625 1.0469 0.03125zm0.15625-6.5938c0-0.1875-0.1875-0.35938-0.35938-0.35938-0.15625 0-0.26562 0.10938-0.29688 0.17188l-1.2031 1.5156 0.17188 0.1875 1.5156-1.2188c0.09375-0.078125 0.17188-0.1875 0.17188-0.29688z"/>
</symbol>
<symbol id="ah" overflow="visible">
<path d="m5.25 1.9375v-0.3125c-0.67188 0-0.78125 0-0.78125-0.45312v-5.5781h-0.21875l-0.375 0.90625c-0.125-0.28125-0.53125-0.90625-1.3281-0.90625-1.1562 0-2.2031 0.96875-2.2031 2.2656 0 1.25 0.96875 2.25 2.125 2.25 0.6875 0 1.0938-0.42188 1.3125-0.71875v1.7812c0 0.45312-0.10938 0.45312-0.76562 0.45312v0.3125l1.1094-0.03125zm-1.4375-3.2969c0 0.32812-0.17188 0.60938-0.39062 0.84375-0.125 0.14062-0.45312 0.40625-0.92188 0.40625-0.71875 0-1.3281-0.89062-1.3281-2.0312 0-1.1875 0.6875-2.0156 1.4375-2.0156 0.79688 0 1.2031 0.85938 1.2031 1.3906z"/>
</symbol>
<symbol id="j" overflow="visible">
<path d="m5.3281 0v-0.3125c-0.6875 0-0.76562-0.0625-0.76562-0.5625v-3.5312l-1.4688 0.10938v0.3125c0.6875 0 0.78125 0.0625 0.78125 0.5625v1.7656c0 0.875-0.48438 1.5469-1.2188 1.5469-0.82812 0-0.875-0.46875-0.875-0.98438v-3.3125l-1.4688 0.10938v0.3125c0.78125 0 0.78125 0.03125 0.78125 0.90625v1.5c0 0.78125 0 1.6875 1.5156 1.6875 0.5625 0 1-0.28125 1.2812-0.89062v0.89062z"/>
</symbol>
<symbol id="ag" overflow="visible">
<path d="m7.2812-6.5v-0.3125c-0.3125 0.03125-0.71875 0.03125-0.96875 0.03125l-1.1406-0.03125v0.3125c0.51562 0.015625 0.73438 0.26562 0.73438 0.5 0 0.078125-0.03125 0.14062-0.046875 0.20312l-1.8281 4.7969-1.9062-5.0312c-0.0625-0.14062-0.0625-0.17188-0.0625-0.17188 0-0.29688 0.5625-0.29688 0.8125-0.29688v-0.3125c-0.35938 0.03125-1.0469 0.03125-1.4219 0.03125l-1.2656-0.03125v0.3125c0.65625 0 0.84375 0 0.98438 0.375l2.3125 6.125c0.0625 0.1875 0.10938 0.21875 0.25 0.21875 0.15625 0 0.1875-0.046875 0.23438-0.1875l2.2188-5.8594c0.14062-0.375 0.40625-0.65625 1.0938-0.67188z"/>
</symbol>
<symbol id="d" overflow="visible">
<path d="m4.8125-0.89062v-0.5625h-0.25v0.5625c0 0.57812-0.25 0.64062-0.35938 0.64062-0.32812 0-0.35938-0.45312-0.35938-0.5v-1.9844c0-0.42188 0-0.8125-0.35938-1.1875-0.39062-0.39062-0.89062-0.54688-1.375-0.54688-0.8125 0-1.5 0.46875-1.5 1.125 0 0.29688 0.20312 0.46875 0.45312 0.46875 0.28125 0 0.46875-0.20312 0.46875-0.45312 0-0.125-0.0625-0.45312-0.51562-0.45312 0.26562-0.35938 0.76562-0.46875 1.0781-0.46875 0.48438 0 1.0625 0.39062 1.0625 1.2812v0.35938c-0.51562 0.03125-1.2188 0.0625-1.8438 0.35938-0.75 0.34375-1 0.85938-1 1.2969 0 0.8125 0.96875 1.0625 1.5938 1.0625 0.67188 0 1.125-0.40625 1.3125-0.85938 0.046875 0.39062 0.3125 0.8125 0.78125 0.8125 0.20312 0 0.8125-0.14062 0.8125-0.95312zm-1.6562-0.5c0 0.9375-0.71875 1.2812-1.1719 1.2812-0.48438 0-0.89062-0.34375-0.89062-0.84375 0-0.54688 0.40625-1.375 2.0625-1.4375z"/>
</symbol>
<symbol id="i" overflow="visible">
<path d="m5.1875-2.1562c0-1.2656-0.95312-2.25-2.0781-2.25-0.78125 0-1.2031 0.4375-1.3906 0.65625v-0.65625l-1.4375 0.10938v0.3125c0.70312 0 0.78125 0.0625 0.78125 0.5v4.6562c0 0.45312-0.10938 0.45312-0.78125 0.45312v0.3125l1.1094-0.03125 1.125 0.03125v-0.3125c-0.65625 0-0.76562 0-0.76562-0.45312v-1.7656c0.046875 0.17188 0.46875 0.70312 1.2188 0.70312 1.1875 0 2.2188-0.98438 2.2188-2.2656zm-0.82812 0c0 1.2031-0.6875 2.0469-1.4219 2.0469-0.40625 0-0.78125-0.20312-1.0469-0.60938-0.14062-0.20312-0.14062-0.21875-0.14062-0.42188v-2.2188c0.28125-0.51562 0.76562-0.79688 1.2812-0.79688 0.73438 0 1.3281 0.875 1.3281 2z"/>
</symbol>
<symbol id="c" overflow="visible">
<path d="m3.625-3.7969c0-0.3125-0.3125-0.60938-0.73438-0.60938-0.73438 0-1.0938 0.67188-1.2188 1.0938v-1.0938l-1.3906 0.10938v0.3125c0.70312 0 0.78125 0.0625 0.78125 0.5625v2.6719c0 0.4375-0.10938 0.4375-0.78125 0.4375v0.3125l1.1406-0.03125c0.39062 0 0.85938 0 1.2656 0.03125v-0.3125h-0.21875c-0.73438 0-0.75-0.10938-0.75-0.46875v-1.5312c0-0.98438 0.42188-1.875 1.1719-1.875 0.0625 0 0.09375 0 0.10938 0.015625-0.03125 0-0.23438 0.125-0.23438 0.39062s0.21875 0.42188 0.4375 0.42188c0.17188 0 0.42188-0.125 0.42188-0.4375z"/>
</symbol>
<symbol id="af" overflow="visible">
<path d="m6.8281-4.5-0.1875-2.25h-6.0938l-0.1875 2.25h0.25c0.14062-1.6094 0.28125-1.9375 1.7969-1.9375 0.17188 0 0.4375 0 0.53125 0.015625 0.21875 0.046875 0.21875 0.15625 0.21875 0.375v5.2656c0 0.32812 0 0.46875-1.0469 0.46875h-0.40625v0.3125c0.40625-0.03125 1.4219-0.03125 1.8906-0.03125 0.45312 0 1.4844 0 1.8906 0.03125v-0.3125h-0.40625c-1.0469 0-1.0469-0.14062-1.0469-0.46875v-5.2656c0-0.1875 0-0.32812 0.1875-0.375 0.10938-0.015625 0.375-0.015625 0.5625-0.015625 1.5156 0 1.6562 0.32812 1.7969 1.9375z"/>
</symbol>
<symbol id="ad" overflow="visible">
<path d="m8.1094 0v-0.3125c-0.51562 0-0.76562 0-0.78125-0.29688v-1.9062c0-0.85938 0-1.1562-0.3125-1.5156-0.14062-0.17188-0.46875-0.375-1.0469-0.375-0.82812 0-1.2812 0.59375-1.4375 0.98438-0.14062-0.875-0.875-0.98438-1.3281-0.98438-0.73438 0-1.2031 0.42188-1.4844 1.0469v-1.0469l-1.4062 0.10938v0.3125c0.70312 0 0.78125 0.0625 0.78125 0.5625v2.6719c0 0.4375-0.10938 0.4375-0.78125 0.4375v0.3125l1.1406-0.03125 1.1094 0.03125v-0.3125c-0.67188 0-0.78125 0-0.78125-0.4375v-1.8438c0-1.0312 0.71875-1.5938 1.3438-1.5938 0.64062 0 0.75 0.53125 0.75 1.1094v2.3281c0 0.4375-0.10938 0.4375-0.78125 0.4375v0.3125l1.125-0.03125 1.1094 0.03125v-0.3125c-0.65625 0-0.76562 0-0.76562-0.4375v-1.8438c0-1.0312 0.70312-1.5938 1.3438-1.5938 0.625 0 0.73438 0.53125 0.73438 1.1094v2.3281c0 0.4375-0.10938 0.4375-0.78125 0.4375v0.3125l1.125-0.03125z"/>
</symbol>
<symbol id="ac" overflow="visible">
<path d="m3.3125-1.2344v-0.5625h-0.25v0.54688c0 0.73438-0.29688 1.1094-0.67188 1.1094-0.67188 0-0.67188-0.90625-0.67188-1.0781v-2.7656h1.4375v-0.3125h-1.4375v-1.8281h-0.25c0 0.8125-0.29688 1.875-1.2812 1.9219v0.21875h0.84375v2.75c0 1.2188 0.9375 1.3438 1.2969 1.3438 0.70312 0 0.98438-0.70312 0.98438-1.3438z"/>
</symbol>
<symbol id="ab" overflow="visible">
<path d="m2.0312-0.015625c0-0.625-0.25-1.0469-0.64062-1.0469-0.35938 0-0.53125 0.28125-0.53125 0.53125 0 0.26562 0.17188 0.53125 0.53125 0.53125 0.14062 0 0.28125-0.0625 0.39062-0.15625 0.015625 0.78125-0.25 1.3906-0.6875 1.8594-0.0625 0.0625-0.078125 0.078125-0.078125 0.10938 0 0.078125 0.046875 0.10938 0.09375 0.10938 0.125 0 0.92188-0.78125 0.92188-1.9375z"/>
</symbol>
<symbol id="y" overflow="visible">
<path d="m3.5312-1.7344c0-0.85938-0.6875-1.5-1.5-1.5-0.82812 0-1.4844 0.67188-1.4844 1.4844 0 0.84375 0.67188 1.5 1.4844 1.5 0.82812 0 1.5-0.67188 1.5-1.4844zm-0.34375-0.015625c0 0.64062-0.51562 1.1562-1.1562 1.1562s-1.1406-0.53125-1.1406-1.1406c0-0.65625 0.51562-1.1719 1.1406-1.1719 0.65625 0 1.1562 0.53125 1.1562 1.1562z"/>
</symbol>
<symbol id="x" overflow="visible">
<path d="m-4.9531-6.2188c-0.98438 0-1.8594 0.98438-1.8594 2.3438v3.5312h0.3125v-0.25c0-0.76562 0.10938-0.78125 0.46875-0.78125h5.25c0.35938 0 0.46875 0.015625 0.46875 0.78125v0.25h0.3125c-0.03125-0.35938-0.03125-1.0938-0.03125-1.4688s0-1.125 0.03125-1.4844h-0.3125v0.25c0 0.76562-0.10938 0.78125-0.46875 0.78125h-2.375v-1.6875c0-1.1875-0.79688-2.2656-1.7969-2.2656zm0 1.0312c0.46875 0 1.5469 0 1.5469 1.5781v1.375h-2.6875c-0.34375 0-0.40625-0.015625-0.40625-0.48438v-0.89062c0-1.5781 1.0625-1.5781 1.5469-1.5781z"/>
</symbol>
<symbol id="w" overflow="visible">
<path d="m-3.7969-3.625c-0.3125 0-0.60938 0.3125-0.60938 0.73438 0 0.73438 0.67188 1.0938 1.0938 1.2188h-1.0938l0.10938 1.3906h0.3125c0-0.70312 0.0625-0.78125 0.5625-0.78125h2.6719c0.4375 0 0.4375 0.10938 0.4375 0.78125h0.3125l-0.03125-1.1406c0-0.39062 0-0.85938 0.03125-1.2656h-0.3125v0.21875c0 0.73438-0.10938 0.75-0.46875 0.75h-1.5312c-0.98438 0-1.875-0.42188-1.875-1.1719 0-0.0625 0-0.09375 0.015625-0.10938 0 0.03125 0.125 0.23438 0.39062 0.23438s0.42188-0.21875 0.42188-0.4375c0-0.17188-0.125-0.42188-0.4375-0.42188z"/>
</symbol>
<symbol id="v" overflow="visible">
<path d="m-1.1875-4.1406c-0.09375 0-0.125 0.078125-0.125 0.14062 0 0.078125 0.0625 0.10938 0.14062 0.125 1.0312 0.34375 1.0312 1.25 1.0312 1.3438 0 0.5-0.29688 0.89062-0.67188 1.125-0.46875 0.29688-1.125 0.29688-1.4844 0.29688v-2.7812c0-0.21875 0-0.25-0.21875-0.25-0.98438 0-1.9531 0.54688-1.9531 1.7812 0 1.1562 1.0312 2.0781 2.2812 2.0781 1.3281 0 2.2969-1.0469 2.2969-2.1875 0-1.2188-1.1094-1.6719-1.2969-1.6719zm-1.3281 0.65625v2.375c-1.4844-0.0625-1.7344-0.90625-1.7344-1.25 0-1.0156 1.3438-1.125 1.7344-1.125z"/>
</symbol>
<symbol id="e" overflow="visible">
<path d="m-1.2812-3.5938c-0.51562 0-0.82812 0.29688-0.9375 0.42188-0.32812 0.32812-0.40625 0.71875-0.48438 1.1406-0.10938 0.5625-0.23438 1.2188-0.8125 1.2188-0.35938 0-0.76562-0.25-0.76562-1.1094 0-1.0938 0.90625-1.1562 1.2031-1.1719 0.09375 0 0.09375-0.10938 0.09375-0.10938 0-0.14062-0.046875-0.14062-0.23438-0.14062h-1.0156c-0.15625 0-0.23438 0-0.23438 0.10938 0 0.046875 0 0.078125 0.125 0.20312 0.03125 0.03125 0.125 0.125 0.15625 0.17188-0.28125 0.375-0.28125 0.78125-0.28125 0.9375 0 1.2188 0.67188 1.5938 1.2344 1.5938 0.34375 0 0.625-0.15625 0.84375-0.42188 0.25-0.32812 0.3125-0.60938 0.45312-1.3281 0.046875-0.21875 0.20312-1.0312 0.92188-1.0312 0.5 0 0.90625 0.34375 0.90625 1.125 0 0.84375-0.5625 1.2031-1.4219 1.3906-0.125 0.03125-0.15625 0.03125-0.15625 0.14062 0 0.125 0.0625 0.125 0.23438 0.125h1.3281c0.17188 0 0.23438 0 0.23438-0.10938 0-0.046875-0.015625-0.0625-0.20312-0.25-0.015625-0.015625-0.03125-0.015625-0.21875-0.20312 0.40625-0.4375 0.42188-0.89062 0.42188-1.0938 0-1.1406-0.67188-1.6094-1.3906-1.6094z"/>
</symbol>
<symbol id="u" overflow="visible">
<path d="m-0.89062-4.8125h-0.5625v0.25h0.5625c0.57812 0 0.64062 0.25 0.64062 0.35938 0 0.32812-0.45312 0.35938-0.5 0.35938h-1.9844c-0.42188 0-0.8125 0-1.1875 0.35938-0.39062 0.39062-0.54688 0.89062-0.54688 1.375 0 0.8125 0.46875 1.5 1.125 1.5 0.29688 0 0.46875-0.20312 0.46875-0.45312 0-0.28125-0.20312-0.46875-0.45312-0.46875-0.125 0-0.45312 0.0625-0.45312 0.51562-0.35938-0.26562-0.46875-0.76562-0.46875-1.0781 0-0.48438 0.39062-1.0625 1.2812-1.0625h0.35938c0.03125 0.51562 0.0625 1.2188 0.35938 1.8438 0.34375 0.75 0.85938 1 1.2969 1 0.8125 0 1.0625-0.96875 1.0625-1.5938 0-0.67188-0.40625-1.125-0.85938-1.3125 0.39062-0.046875 0.8125-0.3125 0.8125-0.78125 0-0.20312-0.14062-0.8125-0.95312-0.8125zm-0.5 1.6562c0.9375 0 1.2812 0.71875 1.2812 1.1719 0 0.48438-0.34375 0.89062-0.84375 0.89062-0.54688 0-1.375-0.40625-1.4375-2.0625zm-4.9531-1-0.14062 0.15625s0.46875 0.375 0.46875 0.8125c0 0.23438-0.14062 0.48438-0.25 0.65625-0.15625 0.26562-0.21875 0.45312-0.21875 0.625 0 0.375 0.21875 0.5625 0.76562 1.0625l0.15625-0.15625s-0.48438-0.375-0.48438-0.8125c0-0.23438 0.15625-0.48438 0.25-0.65625 0.17188-0.26562 0.23438-0.4375 0.23438-0.60938 0-0.375-0.21875-0.57812-0.78125-1.0781z"/>
</symbol>
<symbol id="t" overflow="visible">
<path d="m-2.1406-4.6875c-1.2656 0-2.3281 0.98438-2.3281 2.1875 0 1.25 1.0938 2.2188 2.3281 2.2188 1.2969 0 2.25-1.0312 2.25-2.2031 0-1.2031-0.98438-2.2031-2.25-2.2031zm-0.078125 0.8125c0.35938 0 0.90625 0 1.3438 0.21875 0.45312 0.23438 0.73438 0.67188 0.73438 1.1562 0 0.4375-0.20312 0.875-0.67188 1.1406-0.4375 0.25-1.0469 0.25-1.4062 0.25-0.39062 0-0.92188 0-1.3594-0.23438-0.45312-0.26562-0.67188-0.73438-0.67188-1.1406 0-0.4375 0.21875-0.85938 0.65625-1.125 0.42188-0.26562 1-0.26562 1.375-0.26562z"/>
</symbol>
<symbol id="s" overflow="visible">
<path d="m-0.015625-2.0312c-0.625 0-1.0469 0.25-1.0469 0.64062 0 0.35938 0.28125 0.53125 0.53125 0.53125 0.26562 0 0.53125-0.17188 0.53125-0.53125 0-0.14062-0.0625-0.28125-0.15625-0.39062 0.78125-0.015625 1.3906 0.25 1.8594 0.6875 0.0625 0.0625 0.078125 0.078125 0.10938 0.078125 0.078125 0 0.10938-0.046875 0.10938-0.09375 0-0.125-0.78125-0.92188-1.9375-0.92188z"/>
</symbol>
<symbol id="r" overflow="visible">
<path d="m-5.2969-7.5156c-0.78125 0-1.5156 0.65625-1.5156 1.9688v3.2188c0 0.1875 0 0.29688 0.1875 0.29688 0.125 0 0.125-0.078125 0.125-0.28125 0-0.125 0.015625-0.3125 0.015625-0.42188 0.03125-0.17188 0.046875-0.21875 0.17188-0.21875 0.03125 0 0.0625 0 0.1875 0.03125l5.3438 1.3438c0.39062 0.09375 0.46875 0.10938 0.46875 0.90625 0 0.15625 0 0.26562 0.1875 0.26562 0.125 0 0.125-0.10938 0.125-0.14062l-0.03125-1.2656 0.015625-0.64062c0-0.21875 0.015625-0.4375 0.015625-0.64062 0-0.078125 0-0.20312-0.20312-0.20312-0.10938 0-0.10938 0.09375-0.10938 0.28125 0 0.35938 0 0.64062-0.17188 0.64062-0.0625 0-0.10938-0.015625-0.17188-0.03125l-2.5-0.60938v-1.7031c0-1.4062-1.0312-2.7969-2.1406-2.7969zm-0.25 0.92188c0.39062 0 1.25 0.20312 1.6094 0.59375 0.45312 0.5 0.53125 1.0938 0.53125 1.5312v1.4062l-2.7188-0.67188c-0.34375-0.09375-0.375-0.10938-0.375-0.54688v-0.95312c0-0.82812 0.26562-1.3594 0.95312-1.3594z"/>
</symbol>
<symbol id="q" overflow="visible">
<path d="m-7.2812-4.4219c-0.10938 0-0.20312 0.078125-0.20312 0.1875 0 0.078125 0.03125 0.14062 0.09375 0.17188l9.5 3.4688c0.14062 0.046875 0.1875 0.046875 0.1875 0.046875 0.10938 0 0.20312-0.09375 0.20312-0.20312 0-0.125-0.078125-0.15625-0.25-0.21875l-9.3438-3.4062c-0.14062-0.046875-0.1875-0.046875-0.1875-0.046875z"/>
</symbol>
<symbol id="p" overflow="visible">
<path d="m-0.89062-4.8125h-0.5625v0.25h0.5625c0.57812 0 0.64062 0.25 0.64062 0.35938 0 0.32812-0.45312 0.35938-0.5 0.35938h-1.9844c-0.42188 0-0.8125 0-1.1875 0.35938-0.39062 0.39062-0.54688 0.89062-0.54688 1.375 0 0.8125 0.46875 1.5 1.125 1.5 0.29688 0 0.46875-0.20312 0.46875-0.45312 0-0.28125-0.20312-0.46875-0.45312-0.46875-0.125 0-0.45312 0.0625-0.45312 0.51562-0.35938-0.26562-0.46875-0.76562-0.46875-1.0781 0-0.48438 0.39062-1.0625 1.2812-1.0625h0.35938c0.03125 0.51562 0.0625 1.2188 0.35938 1.8438 0.34375 0.75 0.85938 1 1.2969 1 0.8125 0 1.0625-0.96875 1.0625-1.5938 0-0.67188-0.40625-1.125-0.85938-1.3125 0.39062-0.046875 0.8125-0.3125 0.8125-0.78125 0-0.20312-0.14062-0.8125-0.95312-0.8125zm-0.5 1.6562c0.9375 0 1.2812 0.71875 1.2812 1.1719 0 0.48438-0.34375 0.89062-0.84375 0.89062-0.54688 0-1.375-0.40625-1.4375-2.0625z"/>
</symbol>
<symbol id="o" overflow="visible">
<path d="m-1.2344-3.3125h-0.5625v0.25h0.54688c0.73438 0 1.1094 0.29688 1.1094 0.67188 0 0.67188-0.90625 0.67188-1.0781 0.67188h-2.7656v-1.4375h-0.3125v1.4375h-1.8281v0.25c0.8125 0 1.875 0.29688 1.9219 1.2812h0.21875v-0.84375h2.75c1.2188 0 1.3438-0.9375 1.3438-1.2969 0-0.70312-0.70312-0.98438-1.3438-0.98438z"/>
</symbol>
<symbol id="n" overflow="visible">
<path d="m0-8.1094h-0.3125c0 0.51562 0 0.76562-0.29688 0.78125h-1.9062c-0.85938 0-1.1562 0-1.5156 0.3125-0.17188 0.14062-0.375 0.46875-0.375 1.0469 0 0.82812 0.59375 1.2812 0.98438 1.4375-0.875 0.14062-0.98438 0.875-0.98438 1.3281 0 0.73438 0.42188 1.2031 1.0469 1.4844h-1.0469l0.10938 1.4062h0.3125c0-0.70312 0.0625-0.78125 0.5625-0.78125h2.6719c0.4375 0 0.4375 0.10938 0.4375 0.78125h0.3125l-0.03125-1.1406 0.03125-1.1094h-0.3125c0 0.67188 0 0.78125-0.4375 0.78125h-1.8438c-1.0312 0-1.5938-0.71875-1.5938-1.3438 0-0.64062 0.53125-0.75 1.1094-0.75h2.3281c0.4375 0 0.4375 0.10938 0.4375 0.78125h0.3125l-0.03125-1.125 0.03125-1.1094h-0.3125c0 0.65625 0 0.76562-0.4375 0.76562h-1.8438c-1.0312 0-1.5938-0.70312-1.5938-1.3438 0-0.625 0.53125-0.73438 1.1094-0.73438h2.3281c0.4375 0 0.4375 0.10938 0.4375 0.78125h0.3125l-0.03125-1.125z"/>
</symbol>
<clipPath id="au">
<path d="m33.086 118h50.914v44.391h-50.914z"/>
</clipPath>
<clipPath id="at">
<path d="m49 1h50v152h-50z"/>
</clipPath>
</defs>
<path transform="matrix(1 0 0 -1 33.086 162.39)" d="m33.305-0.001625v161.39m120.72-161.39v161.39" fill="none" stroke="#bfbfbf" stroke-miterlimit="10" stroke-width=".3985"/>
<path transform="matrix(1 0 0 -1 33.086 162.39)" d="m-6.25e-5 26.897h194.27m-194.27 104.01h194.27" fill="none" stroke="#bfbfbf" stroke-miterlimit="10" stroke-width=".3985"/>
<path transform="matrix(1 0 0 -1 33.086 162.39)" d="m33.305-0.001625v4.2539m120.72-4.2539v4.2539m-120.72 157.14v-4.25m120.72 4.25v-4.25" fill="none" stroke="#7f7f7f" stroke-miterlimit="10" stroke-width=".19925"/>
<path transform="matrix(1 0 0 -1 33.086 162.39)" d="m-6.25e-5 26.897h4.25m-4.25 104.01h4.25m190.02-104.01h-4.2539m4.2539 104.01h-4.2539" fill="none" stroke="#7f7f7f" stroke-miterlimit="10" stroke-width=".19925"/>
<path transform="matrix(1 0 0 -1 33.086 162.39)" d="m-6.25e-5 -0.001625v161.39h194.27v-161.39z" fill="none" stroke="#000" stroke-miterlimit="10" stroke-width=".3985"/>
<g>
<use x="57.533" y="172.183" xlink:href="#as"/>
<use x="65.282" y="172.183" xlink:href="#m"/>
<use x="70.2633" y="172.183" xlink:href="#ar"/>
<use x="182.13" y="172.183" xlink:href="#l"/>
<use x="187.1113" y="172.183" xlink:href="#k"/>
<use x="16.836" y="137.66" xlink:href="#m"/>
<use x="21.817" y="137.66" xlink:href="#ao"/>
<use x="24.585" y="137.66" xlink:href="#k"/>
<use x="19.603" y="34.623" xlink:href="#aq"/>
<use x="24.5843" y="34.623" xlink:href="#l"/>
</g>
<g clip-path="url(#au)">
<path transform="matrix(1 0 0 -1 33.086 162.39)" d="m-27.754 3.5882c30.527 0 54.188 18.066 61.059 23.309" fill="none" stroke="#0c6dfd" stroke-miterlimit="10" stroke-width="1.1955"/>
</g>
<path transform="matrix(1 0 0 -1 33.086 162.39)" d="m33.305 26.897c60.359 0 107.14 80.605 120.72 104.01" fill="none" stroke="#0c6dfd" stroke-miterlimit="10" stroke-width="1.1955"/>
<g clip-path="url(#at)">
<path transform="matrix(1 0 0 -1 33.086 162.39)" d="m33.305 26.897 15.262 134.49" fill="none" stroke="#0c6dfd" stroke-miterlimit="10" stroke-width="1.1955"/>
</g>
<g>
<use x="36.605" y="86.87" xlink:href="#al"/>
<use x="42.140221" y="86.87" xlink:href="#ae"/>
<use x="47.121521" y="86.87" xlink:href="#h"/>
<use x="49.889131" y="86.87" xlink:href="#g"/>
<use x="52.656741" y="86.87" xlink:href="#f"/>
<use x="58.191962" y="86.87" xlink:href="#a"/>
<use x="37.435" y="98.825" xlink:href="#aa"/>
<use x="41.309455" y="98.825" xlink:href="#z"/>
<use x="46.290755" y="98.825" xlink:href="#b"/>
<use x="50.719131" y="98.825" xlink:href="#h"/>
<use x="53.486741" y="98.825" xlink:href="#a"/>
<use x="58.468041" y="98.825" xlink:href="#ak"/>
<use x="99.808" y="67.272" xlink:href="#aj"/>
<use x="106.034625" y="67.272" xlink:href="#ai"/>
<use x="108.802235" y="67.272" xlink:href="#ah"/>
<use x="114.060496" y="67.272" xlink:href="#j"/>
<use x="119.595716" y="67.272" xlink:href="#g"/>
<use x="122.363326" y="67.272" xlink:href="#f"/>
<use x="127.898547" y="67.272" xlink:href="#a"/>
<use x="161.491" y="151.403" xlink:href="#ag"/>
<use x="168.136054" y="151.403" xlink:href="#d"/>
<use x="173.117354" y="151.403" xlink:href="#i"/>
<use x="178.921565" y="151.403" xlink:href="#a"/>
<use x="183.902865" y="151.403" xlink:href="#c"/>
</g>
<path transform="matrix(1 0 0 -1 33.086 162.39)" d="m35.297 26.897c0 1.1016-0.89453 1.9922-1.9922 1.9922-1.1016 0-1.9922-0.89062-1.9922-1.9922 0-1.0977 0.89062-1.9922 1.9922-1.9922 1.0977 0 1.9922 0.89453 1.9922 1.9922z" fill="#fff" stroke="#0c6dfd" stroke-miterlimit="10" stroke-width="1.1955"/>
<path transform="matrix(1 0 0 -1 33.086 162.39)" d="m156.02 130.9c0 1.1016-0.89062 1.9922-1.9922 1.9922-1.1016 0-1.9922-0.89062-1.9922-1.9922 0-1.1016 0.89062-1.9922 1.9922-1.9922 1.1016 0 1.9922 0.89062 1.9922 1.9922z" fill="#fff" stroke="#0c6dfd" stroke-miterlimit="10" stroke-width="1.1955"/>
<g>
<use x="87.077" y="187.325" xlink:href="#af"/>
<use x="93.445094" y="187.325" xlink:href="#b"/>
<use x="97.87347" y="187.325" xlink:href="#ad"/>
<use x="106.175304" y="187.325" xlink:href="#i"/>
<use x="111.979515" y="187.325" xlink:href="#b"/>
<use x="116.407891" y="187.325" xlink:href="#c"/>
<use x="120.310241" y="187.325" xlink:href="#d"/>
<use x="125.291541" y="187.325" xlink:href="#ac"/>
<use x="129.165996" y="187.325" xlink:href="#j"/>
<use x="134.701217" y="187.325" xlink:href="#c"/>
<use x="138.603567" y="187.325" xlink:href="#d"/>
<use x="143.584867" y="187.325" xlink:href="#ab"/>
<use x="149.675" y="187.325" xlink:href="#an"/>
<use x="156.602992" y="187.325" xlink:href="#am"/>
<use x="161.586" y="183.71" xlink:href="#y"/>
<use x="166.166" y="187.325" xlink:href="#ap"/>
<use x="7.505" y="115.925" xlink:href="#x"/>
<use x="7.505" y="109.144454" xlink:href="#w"/>
<use x="7.505" y="105.242104" xlink:href="#v"/>
<use x="7.505" y="100.813728" xlink:href="#e"/>
<use x="7.505" y="96.883483" xlink:href="#e"/>
<use x="7.505" y="92.953237" xlink:href="#u"/>
<use x="7.505" y="87.971937" xlink:href="#t"/>
<use x="7.505" y="82.990637" xlink:href="#s"/>
<use x="7.505" y="76.905" xlink:href="#r"/>
<use x="7.505" y="69.682115" xlink:href="#q"/>
<use x="7.505" y="64.697" xlink:href="#p"/>
<use x="7.505" y="59.7157" xlink:href="#o"/>
<use x="7.505" y="55.841245" xlink:href="#n"/>
</g>
</svg>
