<?xml version="1.0" encoding="UTF-8"?>
<svg width="238pt" height="193pt" version="1.1" viewBox="0 0 238 193" xmlns="http://www.w3.org/2000/svg" xmlns:xlink="http://www.w3.org/1999/xlink">
<defs>
<symbol id="a" overflow="visible">
<path d="m4.5781-3.1875c0-0.79688-0.046875-1.5938-0.39062-2.3281-0.45312-0.96875-1.2812-1.125-1.6875-1.125-0.60938 0-1.3281 0.26562-1.75 1.1875-0.3125 0.6875-0.35938 1.4688-0.35938 2.2656 0 0.75 0.03125 1.6406 0.45312 2.4062 0.42188 0.79688 1.1562 1 1.6406 1 0.53125 0 1.2969-0.20312 1.7344-1.1562 0.3125-0.6875 0.35938-1.4688 0.35938-2.25zm-0.8125-0.125c0 0.75 0 1.4219-0.10938 2.0625-0.15625 0.95312-0.71875 1.25-1.1719 1.25-0.39062 0-0.98438-0.25-1.1562-1.2031-0.10938-0.59375-0.10938-1.5156-0.10938-2.1094 0-0.64062 0-1.2969 0.078125-1.8281 0.1875-1.1875 0.9375-1.2812 1.1875-1.2812 0.32812 0 0.98438 0.1875 1.1719 1.1719 0.10938 0.5625 0.10938 1.3125 0.10938 1.9375z"/>
</symbol>
<symbol id="o" overflow="visible">
<path d="m4.4688-1.7344h-0.23438c-0.0625 0.29688-0.125 0.73438-0.23438 0.89062-0.0625 0.078125-0.71875 0.078125-0.9375 0.078125h-1.7969l1.0625-1.0312c1.5469-1.375 2.1406-1.9062 2.1406-2.9062 0-1.1406-0.89062-1.9375-2.1094-1.9375-1.125 0-1.8594 0.92188-1.8594 1.8125 0 0.54688 0.5 0.54688 0.53125 0.54688 0.17188 0 0.51562-0.10938 0.51562-0.53125 0-0.25-0.1875-0.51562-0.53125-0.51562-0.078125 0-0.09375 0-0.125 0.015625 0.21875-0.65625 0.76562-1.0156 1.3438-1.0156 0.90625 0 1.3281 0.8125 1.3281 1.625 0 0.79688-0.48438 1.5781-1.0469 2.2031l-1.9062 2.125c-0.10938 0.10938-0.10938 0.14062-0.10938 0.375h3.7031z"/>
</symbol>
<symbol id="aw" overflow="visible">
<path d="m4.6875-1.6406v-0.3125h-0.98438v-4.5312c0-0.20312 0-0.26562-0.17188-0.26562-0.078125 0-0.10938 0-0.1875 0.125l-3.0625 4.6719v0.3125h2.6562v0.85938c0 0.35938-0.03125 0.46875-0.76562 0.46875h-0.20312v0.3125c0.40625-0.03125 0.92188-0.03125 1.3438-0.03125s0.9375 0 1.3594 0.03125v-0.3125h-0.21875c-0.73438 0-0.75-0.10938-0.75-0.46875v-0.85938zm-1.7031-0.3125h-2.4219l2.4219-3.7188z"/>
</symbol>
<symbol id="av" overflow="visible">
<path d="m4.5625-2.0312c0-1.2656-0.89062-2.2188-2-2.2188-0.67188 0-1.0469 0.5-1.25 0.98438v-0.25c0-2.5156 1.2344-2.875 1.75-2.875 0.23438 0 0.65625 0.0625 0.875 0.40625-0.15625 0-0.54688 0-0.54688 0.4375 0 0.3125 0.23438 0.46875 0.45312 0.46875 0.15625 0 0.46875-0.09375 0.46875-0.48438 0-0.59375-0.4375-1.0781-1.2656-1.0781-1.2812 0-2.625 1.2812-2.625 3.4844 0 2.6719 1.1562 3.375 2.0781 3.375 1.1094 0 2.0625-0.9375 2.0625-2.25zm-0.90625-0.015625c0 0.48438 0 0.98438-0.17188 1.3438-0.29688 0.59375-0.75 0.64062-0.98438 0.64062-0.625 0-0.92188-0.59375-0.98438-0.75-0.1875-0.46875-0.1875-1.2656-0.1875-1.4375 0-0.78125 0.32812-1.7812 1.2188-1.7812 0.17188 0 0.625 0 0.9375 0.625 0.17188 0.35938 0.17188 0.875 0.17188 1.3594z"/>
</symbol>
<symbol id="au" overflow="visible">
<path d="m4.5625-1.6719c0-0.35938-0.10938-0.8125-0.5-1.2344-0.1875-0.20312-0.34375-0.29688-0.98438-0.70312 0.71875-0.375 1.2031-0.89062 1.2031-1.5469 0-0.92188-0.875-1.4844-1.7812-1.4844-1 0-1.8125 0.73438-1.8125 1.6719 0 0.17188 0.015625 0.625 0.4375 1.0938 0.10938 0.10938 0.48438 0.35938 0.73438 0.53125-0.57812 0.29688-1.4375 0.84375-1.4375 1.8438 0 1.0469 1.0156 1.7188 2.0625 1.7188 1.125 0 2.0781-0.82812 2.0781-1.8906zm-0.71875-3.4844c0 0.57812-0.39062 1.0469-0.98438 1.3906l-1.2344-0.79688c-0.45312-0.29688-0.5-0.625-0.5-0.79688 0-0.60938 0.65625-1.0312 1.3594-1.0312 0.71875 0 1.3594 0.51562 1.3594 1.2344zm0.21875 3.8438c0 0.73438-0.75 1.25-1.5625 1.25-0.85938 0-1.5781-0.60938-1.5781-1.4375 0-0.57812 0.3125-1.2188 1.1562-1.6875l1.2344 0.78125c0.28125 0.1875 0.75 0.48438 0.75 1.0938z"/>
</symbol>
<symbol id="e" overflow="visible">
<path d="m4.1719 0v-0.3125h-0.3125c-0.90625 0-0.92188-0.10938-0.92188-0.46875v-5.5938c0-0.25 0-0.26562-0.23438-0.26562-0.625 0.64062-1.5 0.64062-1.8125 0.64062v0.3125c0.20312 0 0.78125 0 1.2969-0.26562v5.1719c0 0.35938-0.03125 0.46875-0.92188 0.46875h-0.3125v0.3125c0.34375-0.03125 1.2031-0.03125 1.6094-0.03125 0.39062 0 1.2656 0 1.6094 0.03125z"/>
</symbol>
<symbol id="n" overflow="visible">
<path d="m4.4688-2c0-1.1875-0.8125-2.1875-1.8906-2.1875-0.46875 0-0.90625 0.15625-1.2656 0.51562v-1.9531c0.20312 0.0625 0.53125 0.125 0.84375 0.125 1.2344 0 1.9375-0.90625 1.9375-1.0312 0-0.0625-0.03125-0.10938-0.10938-0.10938 0 0-0.03125 0-0.078125 0.03125-0.20312 0.09375-0.6875 0.29688-1.3594 0.29688-0.39062 0-0.85938-0.078125-1.3281-0.28125-0.078125-0.03125-0.10938-0.03125-0.10938-0.03125-0.10938 0-0.10938 0.078125-0.10938 0.23438v2.9531c0 0.17188 0 0.25 0.14062 0.25 0.078125 0 0.09375-0.015625 0.14062-0.078125 0.10938-0.15625 0.46875-0.70312 1.2812-0.70312 0.51562 0 0.76562 0.45312 0.84375 0.64062 0.15625 0.375 0.1875 0.75 0.1875 1.25 0 0.35938 0 0.95312-0.25 1.375-0.23438 0.39062-0.60938 0.64062-1.0625 0.64062-0.71875 0-1.2969-0.53125-1.4688-1.1094 0.03125 0 0.0625 0.015625 0.17188 0.015625 0.32812 0 0.5-0.25 0.5-0.48438 0-0.25-0.17188-0.5-0.5-0.5-0.14062 0-0.48438 0.078125-0.48438 0.53125 0 0.85938 0.6875 1.8281 1.7969 1.8281 1.1562 0 2.1719-0.95312 2.1719-2.2188z"/>
</symbol>
<symbol id="at" overflow="visible">
<path d="m6.625-2.3281c0-0.09375 0-0.17188-0.125-0.17188-0.10938 0-0.10938 0.0625-0.125 0.17188-0.078125 1.4219-1.1406 2.2344-2.2344 2.2344-0.60938 0-2.5625-0.32812-2.5625-3.3125 0-2.9688 1.9531-3.3125 2.5625-3.3125 1.0781 0 1.9688 0.90625 2.1719 2.3594 0.015625 0.14062 0.015625 0.17188 0.15625 0.17188 0.15625 0 0.15625-0.03125 0.15625-0.23438v-2.3594c0-0.17188 0-0.25-0.10938-0.25-0.03125 0-0.078125 0-0.15625 0.125l-0.5 0.73438c-0.35938-0.35938-0.875-0.85938-1.8281-0.85938-1.875 0-3.4688 1.5938-3.4688 3.625 0 2.0625 1.6094 3.625 3.4688 3.625 1.625 0 2.5938-1.3906 2.5938-2.5469z"/>
</symbol>
<symbol id="as" overflow="visible">
<path d="m7.1406 0v-0.3125h-0.17188c-0.59375 0-0.73438-0.0625-0.84375-0.39062l-2.1562-6.2344c-0.046875-0.125-0.078125-0.20312-0.23438-0.20312s-0.1875 0.0625-0.23438 0.20312l-2.0625 5.9531c-0.1875 0.51562-0.57812 0.67188-1.125 0.67188v0.3125l1.0156-0.03125 1.1562 0.03125v-0.3125c-0.5 0-0.75-0.25-0.75-0.5 0-0.03125 0.015625-0.14062 0.015625-0.15625l0.46875-1.2969h2.4531l0.53125 1.5156c0.015625 0.046875 0.03125 0.10938 0.03125 0.14062 0 0.29688-0.5625 0.29688-0.82812 0.29688v0.3125c0.35938-0.03125 1.0625-0.03125 1.4375-0.03125zm-2.5781-2.5781h-2.2344l1.1094-3.25zm0.54688-6.0625c0.03125-0.21875-0.14062-0.42188-0.35938-0.42188-0.10938 0-0.21875 0.078125-0.25 0.125l-1.4531 1.2969 0.14062 0.20312 1.7031-0.9375c0.10938-0.046875 0.1875-0.14062 0.21875-0.26562z"/>
</symbol>
<symbol id="ak" overflow="visible">
<path d="m4.8281-4.0312c0-0.17188-0.10938-0.48438-0.5-0.48438-0.20312 0-0.64062 0.0625-1.0625 0.46875-0.42188-0.32812-0.82812-0.35938-1.0469-0.35938-0.9375 0-1.625 0.6875-1.625 1.4531 0 0.4375 0.21875 0.8125 0.46875 1.0312-0.125 0.14062-0.3125 0.46875-0.3125 0.82812 0 0.3125 0.14062 0.6875 0.45312 0.89062-0.60938 0.15625-0.92188 0.59375-0.92188 0.98438 0 0.71875 0.98438 1.2656 2.2031 1.2656 1.1719 0 2.2031-0.5 2.2031-1.2812 0-0.34375-0.125-0.85938-0.64062-1.1406-0.53125-0.26562-1.1094-0.26562-1.7188-0.26562-0.25 0-0.67188 0-0.75-0.015625-0.3125-0.046875-0.51562-0.34375-0.51562-0.67188 0-0.03125 0-0.26562 0.15625-0.46875 0.39062 0.28125 0.8125 0.3125 1 0.3125 0.92188 0 1.6094-0.6875 1.6094-1.4531 0-0.375-0.15625-0.73438-0.40625-0.96875 0.35938-0.34375 0.71875-0.39062 0.89062-0.39062 0 0 0.078125 0 0.10938 0.015625-0.10938 0.03125-0.17188 0.14062-0.17188 0.26562 0 0.17188 0.14062 0.28125 0.29688 0.28125 0.09375 0 0.28125-0.0625 0.28125-0.29688zm-1.75 1.0781c0 0.26562 0 0.59375-0.15625 0.84375-0.078125 0.10938-0.3125 0.39062-0.70312 0.39062-0.875 0-0.875-1-0.875-1.2188 0-0.26562 0.015625-0.59375 0.15625-0.84375 0.078125-0.10938 0.3125-0.39062 0.71875-0.39062 0.85938 0 0.85938 0.98438 0.85938 1.2188zm1.0938 3.7344c0 0.54688-0.70312 1.0469-1.6719 1.0469-1.0156 0-1.7031-0.51562-1.7031-1.0469 0-0.45312 0.375-0.82812 0.8125-0.84375h0.59375c0.85938 0 1.9688 0 1.9688 0.84375z"/>
</symbol>
<symbol id="l" overflow="visible">
<path d="m5.3281 0v-0.3125c-0.6875 0-0.76562-0.0625-0.76562-0.5625v-3.5312l-1.4688 0.10938v0.3125c0.6875 0 0.78125 0.0625 0.78125 0.5625v1.7656c0 0.875-0.48438 1.5469-1.2188 1.5469-0.82812 0-0.875-0.46875-0.875-0.98438v-3.3125l-1.4688 0.10938v0.3125c0.78125 0 0.78125 0.03125 0.78125 0.90625v1.5c0 0.78125 0 1.6875 1.5156 1.6875 0.5625 0 1-0.28125 1.2812-0.89062v0.89062z"/>
</symbol>
<symbol id="c" overflow="visible">
<path d="m4.8125-0.89062v-0.5625h-0.25v0.5625c0 0.57812-0.25 0.64062-0.35938 0.64062-0.32812 0-0.35938-0.45312-0.35938-0.5v-1.9844c0-0.42188 0-0.8125-0.35938-1.1875-0.39062-0.39062-0.89062-0.54688-1.375-0.54688-0.8125 0-1.5 0.46875-1.5 1.125 0 0.29688 0.20312 0.46875 0.45312 0.46875 0.28125 0 0.46875-0.20312 0.46875-0.45312 0-0.125-0.0625-0.45312-0.51562-0.45312 0.26562-0.35938 0.76562-0.46875 1.0781-0.46875 0.48438 0 1.0625 0.39062 1.0625 1.2812v0.35938c-0.51562 0.03125-1.2188 0.0625-1.8438 0.35938-0.75 0.34375-1 0.85938-1 1.2969 0 0.8125 0.96875 1.0625 1.5938 1.0625 0.67188 0 1.125-0.40625 1.3125-0.85938 0.046875 0.39062 0.3125 0.8125 0.78125 0.8125 0.20312 0 0.8125-0.14062 0.8125-0.95312zm-1.6562-0.5c0 0.9375-0.71875 1.2812-1.1719 1.2812-0.48438 0-0.89062-0.34375-0.89062-0.84375 0-0.54688 0.40625-1.375 2.0625-1.4375z"/>
</symbol>
<symbol id="aj" overflow="visible">
<path d="m6.5-2.5781h-0.25c-0.25 1.5469-0.48438 2.2656-2.1875 2.2656h-1.3281c-0.46875 0-0.48438-0.0625-0.48438-0.39062v-2.6719h0.89062c0.96875 0 1.0781 0.32812 1.0781 1.1719h0.25v-2.6406h-0.25c0 0.85938-0.10938 1.1719-1.0781 1.1719h-0.89062v-2.4062c0-0.32812 0.015625-0.39062 0.48438-0.39062h1.2812c1.5312 0 1.7969 0.54688 1.9531 1.9375h0.25l-0.28125-2.25h-5.6094v0.3125h0.23438c0.76562 0 0.79688 0.10938 0.79688 0.46875v5.2188c0 0.35938-0.03125 0.46875-0.79688 0.46875h-0.23438v0.3125h5.75z"/>
</symbol>
<symbol id="b" overflow="visible">
<path d="m3.3125-1.2344v-0.5625h-0.25v0.54688c0 0.73438-0.29688 1.1094-0.67188 1.1094-0.67188 0-0.67188-0.90625-0.67188-1.0781v-2.7656h1.4375v-0.3125h-1.4375v-1.8281h-0.25c0 0.8125-0.29688 1.875-1.2812 1.9219v0.21875h0.84375v2.75c0 1.2188 0.9375 1.3438 1.2969 1.3438 0.70312 0 0.98438-0.70312 0.98438-1.3438z"/>
</symbol>
<symbol id="ai" overflow="visible">
<path d="m5.3281 0v-0.3125c-0.51562 0-0.76562 0-0.76562-0.29688v-1.9062c0-0.85938 0-1.1562-0.3125-1.5156-0.14062-0.17188-0.46875-0.375-1.0469-0.375-0.73438 0-1.2031 0.42188-1.4844 1.0469v-1.0469l-1.4062 0.10938v0.3125c0.70312 0 0.78125 0.0625 0.78125 0.5625v2.6719c0 0.4375-0.10938 0.4375-0.78125 0.4375v0.3125l1.1406-0.03125 1.1094 0.03125v-0.3125c-0.67188 0-0.78125 0-0.78125-0.4375v-1.8438c0-1.0312 0.71875-1.5938 1.3438-1.5938 0.64062 0 0.75 0.53125 0.75 1.1094v2.3281c0 0.4375-0.10938 0.4375-0.78125 0.4375v0.3125l1.125-0.03125z"/>
</symbol>
<symbol id="ah" overflow="visible">
<path d="m4.6875-2.1406c0-1.2656-0.98438-2.3281-2.1875-2.3281-1.25 0-2.2188 1.0938-2.2188 2.3281 0 1.2969 1.0312 2.25 2.2031 2.25 1.2031 0 2.2031-0.98438 2.2031-2.25zm-0.8125-0.078125c0 0.35938 0 0.90625-0.21875 1.3438-0.23438 0.45312-0.67188 0.73438-1.1562 0.73438-0.4375 0-0.875-0.20312-1.1406-0.67188-0.25-0.4375-0.25-1.0469-0.25-1.4062 0-0.39062 0-0.92188 0.23438-1.3594 0.26562-0.45312 0.73438-0.67188 1.1406-0.67188 0.4375 0 0.85938 0.21875 1.125 0.65625 0.26562 0.42188 0.26562 1 0.26562 1.375z"/>
</symbol>
<symbol id="k" overflow="visible">
<path d="m2.5469 0v-0.3125c-0.67188 0-0.78125 0-0.78125-0.4375v-6.1719l-1.4375 0.10938v0.3125c0.70312 0 0.78125 0.0625 0.78125 0.5625v5.1875c0 0.4375-0.10938 0.4375-0.78125 0.4375v0.3125l1.1094-0.03125z"/>
</symbol>
<symbol id="ar" overflow="visible">
<path d="m7.0469-3.3438c0-1.9062-1.3438-3.4688-3.0469-3.4688h-3.6562v0.3125h0.25c0.76562 0 0.78125 0.10938 0.78125 0.46875v5.25c0 0.35938-0.015625 0.46875-0.78125 0.46875h-0.25v0.3125h3.6562c1.6719 0 3.0469-1.4688 3.0469-3.3438zm-1 0c0 1.0938-0.1875 1.7031-0.54688 2.1875-0.20312 0.26562-0.76562 0.84375-1.7656 0.84375h-1.0156c-0.46875 0-0.48438-0.0625-0.48438-0.39062v-5.3906c0-0.34375 0.015625-0.40625 0.48438-0.40625h1c0.625 0 1.3125 0.21875 1.8125 0.92188 0.4375 0.59375 0.51562 1.4531 0.51562 2.2344z"/>
</symbol>
<symbol id="m" overflow="visible">
<path d="m2.4688 0v-0.3125c-0.67188 0-0.70312-0.046875-0.70312-0.4375v-3.6562l-1.3906 0.10938v0.3125c0.64062 0 0.73438 0.0625 0.73438 0.54688v2.6875c0 0.4375-0.10938 0.4375-0.78125 0.4375v0.3125l1.0938-0.03125c0.35938 0 0.70312 0.015625 1.0469 0.03125zm-0.5625-6.0156c0-0.28125-0.21875-0.53125-0.51562-0.53125-0.34375 0-0.54688 0.28125-0.54688 0.53125 0 0.26562 0.23438 0.51562 0.53125 0.51562 0.34375 0 0.53125-0.26562 0.53125-0.51562z"/>
</symbol>
<symbol id="d" overflow="visible">
<path d="m4.1406-1.1875c0-0.09375-0.078125-0.125-0.14062-0.125-0.078125 0-0.10938 0.0625-0.125 0.14062-0.34375 1.0312-1.25 1.0312-1.3438 1.0312-0.5 0-0.89062-0.29688-1.125-0.67188-0.29688-0.46875-0.29688-1.125-0.29688-1.4844h2.7812c0.21875 0 0.25 0 0.25-0.21875 0-0.98438-0.54688-1.9531-1.7812-1.9531-1.1562 0-2.0781 1.0312-2.0781 2.2812 0 1.3281 1.0469 2.2969 2.1875 2.2969 1.2188 0 1.6719-1.1094 1.6719-1.2969zm-0.65625-1.3281h-2.375c0.0625-1.4844 0.90625-1.7344 1.25-1.7344 1.0156 0 1.125 1.3438 1.125 1.7344z"/>
</symbol>
<symbol id="aq" overflow="visible">
<path d="m2.75-1.8594v-0.57812h-2.6406v0.57812z"/>
</symbol>
<symbol id="ap" overflow="visible">
<path d="m4.1406-1.1875c0-0.09375-0.078125-0.125-0.14062-0.125-0.078125 0-0.10938 0.0625-0.125 0.14062-0.34375 1.0312-1.25 1.0312-1.3438 1.0312-0.5 0-0.89062-0.29688-1.125-0.67188-0.29688-0.46875-0.29688-1.125-0.29688-1.4844h2.7812c0.21875 0 0.25 0 0.25-0.21875 0-0.98438-0.54688-1.9531-1.7812-1.9531-1.1562 0-2.0781 1.0312-2.0781 2.2812 0 1.3281 1.0469 2.2969 2.1875 2.2969 1.2188 0 1.6719-1.1094 1.6719-1.2969zm-0.65625-1.3281h-2.375c0.0625-1.4844 0.90625-1.7344 1.25-1.7344 1.0156 0 1.125 1.3438 1.125 1.7344zm-0.03125-4.0781c0-0.1875-0.1875-0.35938-0.35938-0.35938-0.15625 0-0.26562 0.10938-0.29688 0.17188l-1.2031 1.5156 0.17188 0.1875 1.5156-1.2188c0.09375-0.078125 0.17188-0.1875 0.17188-0.29688z"/>
</symbol>
<symbol id="f" overflow="visible">
<path d="m3.625-3.7969c0-0.3125-0.3125-0.60938-0.73438-0.60938-0.73438 0-1.0938 0.67188-1.2188 1.0938v-1.0938l-1.3906 0.10938v0.3125c0.70312 0 0.78125 0.0625 0.78125 0.5625v2.6719c0 0.4375-0.10938 0.4375-0.78125 0.4375v0.3125l1.1406-0.03125c0.39062 0 0.85938 0 1.2656 0.03125v-0.3125h-0.21875c-0.73438 0-0.75-0.10938-0.75-0.46875v-1.5312c0-0.98438 0.42188-1.875 1.1719-1.875 0.0625 0 0.09375 0 0.10938 0.015625-0.03125 0-0.23438 0.125-0.23438 0.39062s0.21875 0.42188 0.4375 0.42188c0.17188 0 0.42188-0.125 0.42188-0.4375z"/>
</symbol>
<symbol id="ao" overflow="visible">
<path d="m6.8281-4.5-0.1875-2.25h-6.0938l-0.1875 2.25h0.25c0.14062-1.6094 0.28125-1.9375 1.7969-1.9375 0.17188 0 0.4375 0 0.53125 0.015625 0.21875 0.046875 0.21875 0.15625 0.21875 0.375v5.2656c0 0.32812 0 0.46875-1.0469 0.46875h-0.40625v0.3125c0.40625-0.03125 1.4219-0.03125 1.8906-0.03125 0.45312 0 1.4844 0 1.8906 0.03125v-0.3125h-0.40625c-1.0469 0-1.0469-0.14062-1.0469-0.46875v-5.2656c0-0.1875 0-0.32812 0.1875-0.375 0.10938-0.015625 0.375-0.015625 0.5625-0.015625 1.5156 0 1.6562 0.32812 1.7969 1.9375z"/>
</symbol>
<symbol id="an" overflow="visible">
<path d="m8.1094 0v-0.3125c-0.51562 0-0.76562 0-0.78125-0.29688v-1.9062c0-0.85938 0-1.1562-0.3125-1.5156-0.14062-0.17188-0.46875-0.375-1.0469-0.375-0.82812 0-1.2812 0.59375-1.4375 0.98438-0.14062-0.875-0.875-0.98438-1.3281-0.98438-0.73438 0-1.2031 0.42188-1.4844 1.0469v-1.0469l-1.4062 0.10938v0.3125c0.70312 0 0.78125 0.0625 0.78125 0.5625v2.6719c0 0.4375-0.10938 0.4375-0.78125 0.4375v0.3125l1.1406-0.03125 1.1094 0.03125v-0.3125c-0.67188 0-0.78125 0-0.78125-0.4375v-1.8438c0-1.0312 0.71875-1.5938 1.3438-1.5938 0.64062 0 0.75 0.53125 0.75 1.1094v2.3281c0 0.4375-0.10938 0.4375-0.78125 0.4375v0.3125l1.125-0.03125 1.1094 0.03125v-0.3125c-0.65625 0-0.76562 0-0.76562-0.4375v-1.8438c0-1.0312 0.70312-1.5938 1.3438-1.5938 0.625 0 0.73438 0.53125 0.73438 1.1094v2.3281c0 0.4375-0.10938 0.4375-0.78125 0.4375v0.3125l1.125-0.03125z"/>
</symbol>
<symbol id="am" overflow="visible">
<path d="m5.1875-2.1562c0-1.2656-0.95312-2.25-2.0781-2.25-0.78125 0-1.2031 0.4375-1.3906 0.65625v-0.65625l-1.4375 0.10938v0.3125c0.70312 0 0.78125 0.0625 0.78125 0.5v4.6562c0 0.45312-0.10938 0.45312-0.78125 0.45312v0.3125l1.1094-0.03125 1.125 0.03125v-0.3125c-0.65625 0-0.76562 0-0.76562-0.45312v-1.7656c0.046875 0.17188 0.46875 0.70312 1.2188 0.70312 1.1875 0 2.2188-0.98438 2.2188-2.2656zm-0.82812 0c0 1.2031-0.6875 2.0469-1.4219 2.0469-0.40625 0-0.78125-0.20312-1.0469-0.60938-0.14062-0.20312-0.14062-0.21875-0.14062-0.42188v-2.2188c0.28125-0.51562 0.76562-0.79688 1.2812-0.79688 0.73438 0 1.3281 0.875 1.3281 2z"/>
</symbol>
<symbol id="al" overflow="visible">
<path d="m2.0312-0.015625c0-0.625-0.25-1.0469-0.64062-1.0469-0.35938 0-0.53125 0.28125-0.53125 0.53125 0 0.26562 0.17188 0.53125 0.53125 0.53125 0.14062 0 0.28125-0.0625 0.39062-0.15625 0.015625 0.78125-0.25 1.3906-0.6875 1.8594-0.0625 0.0625-0.078125 0.078125-0.078125 0.10938 0 0.078125 0.046875 0.10938 0.09375 0.10938 0.125 0 0.92188-0.78125 0.92188-1.9375z"/>
</symbol>
<symbol id="ag" overflow="visible">
<path d="m6.7344-4.7344 0.26562-1.7344c0.015625-0.046875 0.015625-0.14062 0.015625-0.17188 0-0.10938-0.09375-0.10938-0.26562-0.10938h-5.5312c-0.23438 0-0.25 0.015625-0.32812 0.20312l-0.59375 1.75c0 0.015625-0.0625 0.1875-0.0625 0.1875 0 0.046875 0.0625 0.10938 0.125 0.10938 0.09375 0 0.10938-0.0625 0.17188-0.21875 0.53125-1.5469 0.79688-1.7188 2.2656-1.7188h0.39062c0.28125 0 0.28125 0.03125 0.28125 0.125 0 0.046875-0.03125 0.17188-0.046875 0.20312l-1.3281 5.3281c-0.09375 0.35938-0.125 0.46875-1.1875 0.46875-0.35938 0-0.42188 0-0.42188 0.1875 0 0.125 0.10938 0.125 0.17188 0.125 0.26562 0 0.54688-0.015625 0.8125-0.015625l0.85938-0.015625 0.82812 0.015625c0.28125 0 0.57812 0.015625 0.85938 0.015625 0.09375 0 0.21875 0 0.21875-0.20312 0-0.10938-0.078125-0.10938-0.34375-0.10938-0.23438 0-0.375 0-0.625-0.015625-0.29688-0.03125-0.375-0.0625-0.375-0.21875 0 0 0-0.0625 0.046875-0.20312l1.3125-5.2969c0.078125-0.28125 0.10938-0.34375 0.23438-0.375 0.09375-0.015625 0.42188-0.015625 0.625-0.015625 1.0156 0 1.4531 0.03125 1.4531 0.8125 0 0.15625-0.03125 0.54688-0.078125 0.79688 0 0.046875-0.03125 0.15625-0.03125 0.1875 0 0.0625 0.03125 0.14062 0.125 0.14062 0.10938 0 0.125-0.078125 0.15625-0.23438z"/>
</symbol>
<symbol id="af" overflow="visible">
<path d="m4.4219-7.2812c0-0.10938-0.078125-0.20312-0.1875-0.20312-0.078125 0-0.14062 0.03125-0.17188 0.09375l-3.4688 9.5c-0.046875 0.14062-0.046875 0.1875-0.046875 0.1875 0 0.10938 0.09375 0.20312 0.20312 0.20312 0.125 0 0.15625-0.078125 0.21875-0.25l3.4062-9.3438c0.046875-0.14062 0.046875-0.1875 0.046875-0.1875z"/>
</symbol>
<symbol id="ae" overflow="visible">
<path d="m3.5312-1.7344c0-0.85938-0.6875-1.5-1.5-1.5-0.82812 0-1.4844 0.67188-1.4844 1.4844 0 0.84375 0.67188 1.5 1.4844 1.5 0.82812 0 1.5-0.67188 1.5-1.4844zm-0.34375-0.015625c0 0.64062-0.51562 1.1562-1.1562 1.1562s-1.1406-0.53125-1.1406-1.1406c0-0.65625 0.51562-1.1719 1.1406-1.1719 0.65625 0 1.1562 0.53125 1.1562 1.1562z"/>
</symbol>
<symbol id="ad" overflow="visible">
<path d="m-4.9531-6.2188c-0.98438 0-1.8594 0.98438-1.8594 2.3438v3.5312h0.3125v-0.25c0-0.76562 0.10938-0.78125 0.46875-0.78125h5.25c0.35938 0 0.46875 0.015625 0.46875 0.78125v0.25h0.3125c-0.03125-0.35938-0.03125-1.0938-0.03125-1.4688s0-1.125 0.03125-1.4844h-0.3125v0.25c0 0.76562-0.10938 0.78125-0.46875 0.78125h-2.375v-1.6875c0-1.1875-0.79688-2.2656-1.7969-2.2656zm0 1.0312c0.46875 0 1.5469 0 1.5469 1.5781v1.375h-2.6875c-0.34375 0-0.40625-0.015625-0.40625-0.48438v-0.89062c0-1.5781 1.0625-1.5781 1.5469-1.5781z"/>
</symbol>
<symbol id="j" overflow="visible">
<path d="m-3.7969-3.625c-0.3125 0-0.60938 0.3125-0.60938 0.73438 0 0.73438 0.67188 1.0938 1.0938 1.2188h-1.0938l0.10938 1.3906h0.3125c0-0.70312 0.0625-0.78125 0.5625-0.78125h2.6719c0.4375 0 0.4375 0.10938 0.4375 0.78125h0.3125l-0.03125-1.1406c0-0.39062 0-0.85938 0.03125-1.2656h-0.3125v0.21875c0 0.73438-0.10938 0.75-0.46875 0.75h-1.5312c-0.98438 0-1.875-0.42188-1.875-1.1719 0-0.0625 0-0.09375 0.015625-0.10938 0 0.03125 0.125 0.23438 0.39062 0.23438s0.42188-0.21875 0.42188-0.4375c0-0.17188-0.125-0.42188-0.4375-0.42188z"/>
</symbol>
<symbol id="i" overflow="visible">
<path d="m-1.1875-4.1406c-0.09375 0-0.125 0.078125-0.125 0.14062 0 0.078125 0.0625 0.10938 0.14062 0.125 1.0312 0.34375 1.0312 1.25 1.0312 1.3438 0 0.5-0.29688 0.89062-0.67188 1.125-0.46875 0.29688-1.125 0.29688-1.4844 0.29688v-2.7812c0-0.21875 0-0.25-0.21875-0.25-0.98438 0-1.9531 0.54688-1.9531 1.7812 0 1.1562 1.0312 2.0781 2.2812 2.0781 1.3281 0 2.2969-1.0469 2.2969-2.1875 0-1.2188-1.1094-1.6719-1.2969-1.6719zm-1.3281 0.65625v2.375c-1.4844-0.0625-1.7344-0.90625-1.7344-1.25 0-1.0156 1.3438-1.125 1.7344-1.125z"/>
</symbol>
<symbol id="h" overflow="visible">
<path d="m-1.2812-3.5938c-0.51562 0-0.82812 0.29688-0.9375 0.42188-0.32812 0.32812-0.40625 0.71875-0.48438 1.1406-0.10938 0.5625-0.23438 1.2188-0.8125 1.2188-0.35938 0-0.76562-0.25-0.76562-1.1094 0-1.0938 0.90625-1.1562 1.2031-1.1719 0.09375 0 0.09375-0.10938 0.09375-0.10938 0-0.14062-0.046875-0.14062-0.23438-0.14062h-1.0156c-0.15625 0-0.23438 0-0.23438 0.10938 0 0.046875 0 0.078125 0.125 0.20312 0.03125 0.03125 0.125 0.125 0.15625 0.17188-0.28125 0.375-0.28125 0.78125-0.28125 0.9375 0 1.2188 0.67188 1.5938 1.2344 1.5938 0.34375 0 0.625-0.15625 0.84375-0.42188 0.25-0.32812 0.3125-0.60938 0.45312-1.3281 0.046875-0.21875 0.20312-1.0312 0.92188-1.0312 0.5 0 0.90625 0.34375 0.90625 1.125 0 0.84375-0.5625 1.2031-1.4219 1.3906-0.125 0.03125-0.15625 0.03125-0.15625 0.14062 0 0.125 0.0625 0.125 0.23438 0.125h1.3281c0.17188 0 0.23438 0 0.23438-0.10938 0-0.046875-0.015625-0.0625-0.20312-0.25-0.015625-0.015625-0.03125-0.015625-0.21875-0.20312 0.40625-0.4375 0.42188-0.89062 0.42188-1.0938 0-1.1406-0.67188-1.6094-1.3906-1.6094z"/>
</symbol>
<symbol id="aa" overflow="visible">
<path d="m-0.89062-4.8125h-0.5625v0.25h0.5625c0.57812 0 0.64062 0.25 0.64062 0.35938 0 0.32812-0.45312 0.35938-0.5 0.35938h-1.9844c-0.42188 0-0.8125 0-1.1875 0.35938-0.39062 0.39062-0.54688 0.89062-0.54688 1.375 0 0.8125 0.46875 1.5 1.125 1.5 0.29688 0 0.46875-0.20312 0.46875-0.45312 0-0.28125-0.20312-0.46875-0.45312-0.46875-0.125 0-0.45312 0.0625-0.45312 0.51562-0.35938-0.26562-0.46875-0.76562-0.46875-1.0781 0-0.48438 0.39062-1.0625 1.2812-1.0625h0.35938c0.03125 0.51562 0.0625 1.2188 0.35938 1.8438 0.34375 0.75 0.85938 1 1.2969 1 0.8125 0 1.0625-0.96875 1.0625-1.5938 0-0.67188-0.40625-1.125-0.85938-1.3125 0.39062-0.046875 0.8125-0.3125 0.8125-0.78125 0-0.20312-0.14062-0.8125-0.95312-0.8125zm-0.5 1.6562c0.9375 0 1.2812 0.71875 1.2812 1.1719 0 0.48438-0.34375 0.89062-0.84375 0.89062-0.54688 0-1.375-0.40625-1.4375-2.0625zm-4.9531-1-0.14062 0.15625s0.46875 0.375 0.46875 0.8125c0 0.23438-0.14062 0.48438-0.25 0.65625-0.15625 0.26562-0.21875 0.45312-0.21875 0.625 0 0.375 0.21875 0.5625 0.76562 1.0625l0.15625-0.15625s-0.48438-0.375-0.48438-0.8125c0-0.23438 0.15625-0.48438 0.25-0.65625 0.17188-0.26562 0.23438-0.4375 0.23438-0.60938 0-0.375-0.21875-0.57812-0.78125-1.0781z"/>
</symbol>
<symbol id="g" overflow="visible">
<path d="m-2.1406-4.6875c-1.2656 0-2.3281 0.98438-2.3281 2.1875 0 1.25 1.0938 2.2188 2.3281 2.2188 1.2969 0 2.25-1.0312 2.25-2.2031 0-1.2031-0.98438-2.2031-2.25-2.2031zm-0.078125 0.8125c0.35938 0 0.90625 0 1.3438 0.21875 0.45312 0.23438 0.73438 0.67188 0.73438 1.1562 0 0.4375-0.20312 0.875-0.67188 1.1406-0.4375 0.25-1.0469 0.25-1.4062 0.25-0.39062 0-0.92188 0-1.3594-0.23438-0.45312-0.26562-0.67188-0.73438-0.67188-1.1406 0-0.4375 0.21875-0.85938 0.65625-1.125 0.42188-0.26562 1-0.26562 1.375-0.26562z"/>
</symbol>
<symbol id="z" overflow="visible">
<path d="m0-5.25h-0.3125c0 0.6875-0.0625 0.78125-0.5625 0.78125h-6.0469l0.10938 1.4219h0.3125c0-0.6875 0.0625-0.76562 0.5625-0.76562h2.1562c-0.35938 0.28125-0.625 0.71875-0.625 1.25 0 1.1719 0.98438 2.2188 2.2656 2.2188 1.2656 0 2.25-0.96875 2.25-2.1094 0-0.64062-0.34375-1.0781-0.65625-1.3281h0.65625zm-1.1719 1.4688c0.17188 0 0.1875 0 0.35938 0.10938 0.48438 0.29688 0.70312 0.73438 0.70312 1.1719 0 0.45312-0.26562 0.8125-0.64062 1.0469-0.40625 0.25-0.96875 0.28125-1.3906 0.28125-0.35938 0-0.95312-0.015625-1.4062-0.29688-0.3125-0.21875-0.64062-0.59375-0.64062-1.1406 0-0.34375 0.15625-0.76562 0.59375-1.0625 0.17188-0.10938 0.1875-0.10938 0.375-0.10938z"/>
</symbol>
<symbol id="y" overflow="visible">
<path d="m-3.9844-5.0625h-0.3125c0.015625 0.23438 0.03125 0.51562 0.03125 0.75l-0.03125 0.85938h0.3125c0-0.35938 0.23438-0.46875 0.42188-0.46875 0.09375 0 0.14062 0.015625 0.25 0.046875l2.5312 1.0312-2.7812 1.1094c-0.125 0.0625-0.17188 0.0625-0.17188 0.0625-0.25 0-0.25-0.39062-0.25-0.57812h-0.3125l0.03125 1.0938c0 0.26562-0.015625 0.67188-0.03125 0.96875h0.3125c0-0.625 0.0625-0.67188 0.35938-0.79688l3.5469-1.4375c0.14062-0.0625 0.1875-0.078125 0.1875-0.20312 0-0.14062-0.09375-0.17188-0.1875-0.21875l-3.2344-1.2969c-0.23438-0.09375-0.67188-0.26562-0.67188-0.92188z"/>
</symbol>
<symbol id="x" overflow="visible">
<path d="m-0.89062-4.8125h-0.5625v0.25h0.5625c0.57812 0 0.64062 0.25 0.64062 0.35938 0 0.32812-0.45312 0.35938-0.5 0.35938h-1.9844c-0.42188 0-0.8125 0-1.1875 0.35938-0.39062 0.39062-0.54688 0.89062-0.54688 1.375 0 0.8125 0.46875 1.5 1.125 1.5 0.29688 0 0.46875-0.20312 0.46875-0.45312 0-0.28125-0.20312-0.46875-0.45312-0.46875-0.125 0-0.45312 0.0625-0.45312 0.51562-0.35938-0.26562-0.46875-0.76562-0.46875-1.0781 0-0.48438 0.39062-1.0625 1.2812-1.0625h0.35938c0.03125 0.51562 0.0625 1.2188 0.35938 1.8438 0.34375 0.75 0.85938 1 1.2969 1 0.8125 0 1.0625-0.96875 1.0625-1.5938 0-0.67188-0.40625-1.125-0.85938-1.3125 0.39062-0.046875 0.8125-0.3125 0.8125-0.78125 0-0.20312-0.14062-0.8125-0.95312-0.8125zm-0.5 1.6562c0.9375 0 1.2812 0.71875 1.2812 1.1719 0 0.48438-0.34375 0.89062-0.84375 0.89062-0.54688 0-1.375-0.40625-1.4375-2.0625z"/>
</symbol>
<symbol id="ac" overflow="visible">
<path d="m-2.1562-5.1875c-1.2656 0-2.25 0.95312-2.25 2.0781 0 0.78125 0.4375 1.2031 0.65625 1.3906h-0.65625l0.10938 1.4375h0.3125c0-0.70312 0.0625-0.78125 0.5-0.78125h4.6562c0.45312 0 0.45312 0.10938 0.45312 0.78125h0.3125l-0.03125-1.1094 0.03125-1.125h-0.3125c0 0.65625 0 0.76562-0.45312 0.76562h-1.7656c0.17188-0.046875 0.70312-0.46875 0.70312-1.2188 0-1.1875-0.98438-2.2188-2.2656-2.2188zm0 0.82812c1.2031 0 2.0469 0.6875 2.0469 1.4219 0 0.40625-0.20312 0.78125-0.60938 1.0469-0.20312 0.14062-0.21875 0.14062-0.42188 0.14062h-2.2188c-0.51562-0.28125-0.79688-0.76562-0.79688-1.2812 0-0.73438 0.875-1.3281 2-1.3281z"/>
</symbol>
<symbol id="ab" overflow="visible">
<path d="m-0.015625-2.0312c-0.625 0-1.0469 0.25-1.0469 0.64062 0 0.35938 0.28125 0.53125 0.53125 0.53125 0.26562 0 0.53125-0.17188 0.53125-0.53125 0-0.14062-0.0625-0.28125-0.15625-0.39062 0.78125-0.015625 1.3906 0.25 1.8594 0.6875 0.0625 0.0625 0.078125 0.078125 0.10938 0.078125 0.078125 0 0.10938-0.046875 0.10938-0.09375 0-0.125-0.78125-0.92188-1.9375-0.92188z"/>
</symbol>
<symbol id="w" overflow="visible">
<path d="m-5.2969-7.5156c-0.78125 0-1.5156 0.65625-1.5156 1.9688v3.2188c0 0.1875 0 0.29688 0.1875 0.29688 0.125 0 0.125-0.078125 0.125-0.28125 0-0.125 0.015625-0.3125 0.015625-0.42188 0.03125-0.17188 0.046875-0.21875 0.17188-0.21875 0.03125 0 0.0625 0 0.1875 0.03125l5.3438 1.3438c0.39062 0.09375 0.46875 0.10938 0.46875 0.90625 0 0.15625 0 0.26562 0.1875 0.26562 0.125 0 0.125-0.10938 0.125-0.14062l-0.03125-1.2656 0.015625-0.64062c0-0.21875 0.015625-0.4375 0.015625-0.64062 0-0.078125 0-0.20312-0.20312-0.20312-0.10938 0-0.10938 0.09375-0.10938 0.28125 0 0.35938 0 0.64062-0.17188 0.64062-0.0625 0-0.10938-0.015625-0.17188-0.03125l-2.5-0.60938v-1.7031c0-1.4062-1.0312-2.7969-2.1406-2.7969zm-0.25 0.92188c0.39062 0 1.25 0.20312 1.6094 0.59375 0.45312 0.5 0.53125 1.0938 0.53125 1.5312v1.4062l-2.7188-0.67188c-0.34375-0.09375-0.375-0.10938-0.375-0.54688v-0.95312c0-0.82812 0.26562-1.3594 0.95312-1.3594z"/>
</symbol>
<symbol id="v" overflow="visible">
<path d="m-7.2812-4.4219c-0.10938 0-0.20312 0.078125-0.20312 0.1875 0 0.078125 0.03125 0.14062 0.09375 0.17188l9.5 3.4688c0.14062 0.046875 0.1875 0.046875 0.1875 0.046875 0.10938 0 0.20312-0.09375 0.20312-0.20312 0-0.125-0.078125-0.15625-0.25-0.21875l-9.3438-3.4062c-0.14062-0.046875-0.1875-0.046875-0.1875-0.046875z"/>
</symbol>
<symbol id="u" overflow="visible">
<path d="m-2.75-3.9531h-0.25c0.015625 0.17188 0.03125 0.34375 0.03125 0.53125s-0.015625 0.4375-0.03125 0.625h0.25c0.015625-0.29688 0.23438-0.29688 0.26562-0.29688s0.09375 0.015625 0.20312 0.0625l1.7188 0.78125-1.8906 0.875s-0.09375 0.03125-0.14062 0.03125c-0.15625 0-0.15625-0.23438-0.15625-0.34375h-0.25s0.03125 0.5 0.03125 0.78125c0 0.21875-0.015625 0.48438-0.03125 0.6875h0.25c0-0.375 0.015625-0.46875 0.25-0.5625l2.4219-1.1094c0.078125-0.03125 0.14062-0.078125 0.14062-0.1875 0-0.14062-0.0625-0.17188-0.125-0.20312l-2.2656-1.0156c-0.42188-0.20312-0.42188-0.54688-0.42188-0.65625z"/>
</symbol>
<symbol id="t" overflow="visible">
<path d="m-0.625-3.7969h-0.39062v0.25h0.375c0.078125 0 0.40625 0 0.40625 0.25 0 0.26562-0.32812 0.26562-0.40625 0.26562h-1.2344c-0.35938 0-0.625 0-0.89062 0.3125-0.23438 0.28125-0.34375 0.625-0.34375 1.0312 0 0.65625 0.25 1.125 0.67188 1.125 0.23438 0 0.34375-0.14062 0.34375-0.32812s-0.14062-0.32812-0.32812-0.32812c-0.10938 0-0.26562 0.0625-0.3125 0.25-0.17188-0.25-0.17188-0.65625-0.17188-0.70312 0-0.39062 0.25-0.8125 0.84375-0.8125h0.20312c0.015625 0.375 0.046875 0.84375 0.23438 1.3438 0.21875 0.625 0.60938 0.82812 0.92188 0.82812 0.59375 0 0.76562-0.71875 0.76562-1.2188 0-0.5625-0.3125-0.89062-0.57812-1.0312 0.28125-0.03125 0.54688-0.21875 0.54688-0.53125 0 0 0-0.70312-0.65625-0.70312zm-0.35938 1.3125c0.67188 0 0.85938 0.57812 0.85938 0.89062 0 0.35938-0.23438 0.6875-0.57812 0.6875-0.39062 0-0.92188-0.32812-0.96875-1.5781z"/>
</symbol>
<symbol id="s" overflow="visible">
<path d="m-1.5-4.0625c-0.85938 0-1.5781 0.70312-1.5781 1.5938 0 0.39062 0.15625 0.79688 0.4375 1.0781h-0.4375l0.078125 1.0469h0.25c0-0.48438 0.046875-0.51562 0.32812-0.51562h3.2188c0.29688 0 0.29688 0.0625 0.29688 0.51562h0.26562s-0.03125-0.5-0.03125-0.79688c0-0.25 0.015625-0.73438 0.03125-0.79688h-0.26562c0 0.45312 0 0.51562-0.29688 0.51562h-1.125c0.03125-0.03125 0.39062-0.35938 0.39062-0.9375 0-0.92188-0.6875-1.7031-1.5625-1.7031zm0 0.625c0.79688 0 1.375 0.53125 1.375 1.1094 0 0.625-0.53125 0.89062-0.57812 0.90625h-1.625c-0.34375-0.20312-0.51562-0.60938-0.51562-0.96875 0-0.59375 0.60938-1.0469 1.3438-1.0469z"/>
</symbol>
<symbol id="r" overflow="visible">
<path d="m0-5.0938h-0.3125c0 0.375 0 0.59375-0.53125 0.96875l-1.7812 1.2656c-0.015625 0.015625-0.078125 0.0625-0.10938 0.0625s-0.64062-0.71875-0.71875-0.8125c-0.5-0.625-0.53125-1.0469-0.53125-1.25h-0.3125c0.03125 0.28125 0.03125 0.40625 0.03125 0.6875 0 0.35938-0.015625 0.98438-0.03125 1.125h0.3125c0-0.1875 0.10938-0.29688 0.25-0.29688 0.20312 0 0.3125 0.14062 0.39062 0.21875l1.2031 1.4062h-4.7812l0.10938 1.4375h0.3125c0-0.70312 0.0625-0.78125 0.5625-0.78125h5.1875c0.4375 0 0.4375 0.10938 0.4375 0.78125h0.3125l-0.03125-1.0781 0.03125-1.1094h-0.3125c0 0.67188 0 0.78125-0.4375 0.78125h-1.0312l-0.54688-0.64062c1.0469-0.76562 1.6094-1.1875 1.7969-1.1875s0.21875 0.17188 0.21875 0.35938h0.3125l-0.03125-1.0781c0-0.28125 0.015625-0.57812 0.03125-0.85938z"/>
</symbol>
<symbol id="q" overflow="visible">
<path d="m-4.9531-6.2188c-0.98438 0-1.8594 0.98438-1.8594 2.3438v3.5312h0.3125v-0.25c0-0.76562 0.10938-0.78125 0.46875-0.78125h5.25c0.35938 0 0.46875 0.015625 0.46875 0.78125v0.25h0.3125c-0.03125-0.35938-0.03125-1.0938-0.03125-1.4688s0-1.125 0.03125-1.4844h-0.3125v0.25c0 0.76562-0.10938 0.78125-0.46875 0.78125h-2.375v-1.6875c0-1.1875-0.79688-2.2656-1.7969-2.2656zm0 1.0312c0.46875 0 1.5469 0 1.5469 1.5781v1.375h-2.6875c-0.34375 0-0.40625-0.015625-0.40625-0.48438v-0.89062c0-1.5781 1.0625-1.5781 1.5469-1.5781z"/>
</symbol>
<symbol id="p" overflow="visible">
<path d="m-0.89062-4.8125h-0.5625v0.25h0.5625c0.57812 0 0.64062 0.25 0.64062 0.35938 0 0.32812-0.45312 0.35938-0.5 0.35938h-1.9844c-0.42188 0-0.8125 0-1.1875 0.35938-0.39062 0.39062-0.54688 0.89062-0.54688 1.375 0 0.8125 0.46875 1.5 1.125 1.5 0.29688 0 0.46875-0.20312 0.46875-0.45312 0-0.28125-0.20312-0.46875-0.45312-0.46875-0.125 0-0.45312 0.0625-0.45312 0.51562-0.35938-0.26562-0.46875-0.76562-0.46875-1.0781 0-0.48438 0.39062-1.0625 1.2812-1.0625h0.35938c0.03125 0.51562 0.0625 1.2188 0.35938 1.8438 0.34375 0.75 0.85938 1 1.2969 1 0.8125 0 1.0625-0.96875 1.0625-1.5938 0-0.67188-0.40625-1.125-0.85938-1.3125 0.39062-0.046875 0.8125-0.3125 0.8125-0.78125 0-0.20312-0.14062-0.8125-0.95312-0.8125zm-0.5 1.6562c0.9375 0 1.2812 0.71875 1.2812 1.1719 0 0.48438-0.34375 0.89062-0.84375 0.89062-0.54688 0-1.375-0.40625-1.4375-2.0625z"/>
</symbol>
<clipPath id="az">
<path d="m35.664 4.2578h194.27v161.39h-194.27z"/>
</clipPath>
<clipPath id="ay">
<path d="m35.664 4.2578h194.27v161.39h-194.27z"/>
</clipPath>
<clipPath id="ax">
<path d="m35.664 4.2578h194.27v161.39h-194.27z"/>
</clipPath>
</defs>
<path transform="matrix(1 0 0 -1 -207.18 165.65)" d="m242.84 6.5625e-4v4.2461m32.379-4.2461v4.2461m32.379-4.2461v4.2461m32.379-4.2461v4.2461m32.379-4.2461v4.2461m32.379-4.2461v4.2461m32.379-4.2461v4.2461m-194.27 157.15v-4.25m32.379 4.25v-4.25m32.379 4.25v-4.25m32.379 4.25v-4.25m32.379 4.25v-4.25m32.379 4.25v-4.25m32.379 4.25v-4.25" fill="none" stroke="#7f7f7f" stroke-miterlimit="10" stroke-width=".19925"/>
<path transform="matrix(1 0 0 -1 -207.18 165.65)" d="m242.84 6.5625e-4h4.25m-4.25 53.797h4.25m-4.25 53.801h4.25m-4.25 53.797h4.25m190.02-161.39h-4.2539m4.2539 53.797h-4.2539m4.2539 53.801h-4.2539m4.2539 53.797h-4.2539" fill="none" stroke="#7f7f7f" stroke-miterlimit="10" stroke-width=".19925"/>
<path transform="matrix(1 0 0 -1 -207.18 165.65)" d="m242.84 6.5625e-4v161.39h194.27v-161.39z" fill="none" stroke="#000" stroke-miterlimit="10" stroke-width=".3985"/>
<g>
<use x="33.169" y="175.446" xlink:href="#a"/>
<use x="63.057" y="175.446" xlink:href="#o"/>
<use x="68.0383" y="175.446" xlink:href="#a"/>
<use x="95.435" y="175.446" xlink:href="#aw"/>
<use x="100.4163" y="175.446" xlink:href="#a"/>
<use x="127.814" y="175.446" xlink:href="#av"/>
<use x="132.7953" y="175.446" xlink:href="#a"/>
<use x="160.192" y="175.446" xlink:href="#au"/>
<use x="165.1733" y="175.446" xlink:href="#a"/>
<use x="190.08" y="175.446" xlink:href="#e"/>
<use x="195.0613" y="175.446" xlink:href="#a"/>
<use x="200.0426" y="175.446" xlink:href="#a"/>
<use x="222.459" y="175.446" xlink:href="#e"/>
<use x="227.4403" y="175.446" xlink:href="#o"/>
<use x="232.4216" y="175.446" xlink:href="#a"/>
<use x="27.158" y="168.789" xlink:href="#a"/>
<use x="22.177" y="114.992" xlink:href="#n"/>
<use x="27.1583" y="114.992" xlink:href="#a"/>
<use x="17.196" y="61.194" xlink:href="#e"/>
<use x="22.1773" y="61.194" xlink:href="#a"/>
<use x="27.1586" y="61.194" xlink:href="#a"/>
<use x="17.196" y="7.396" xlink:href="#e"/>
<use x="22.1773" y="7.396" xlink:href="#n"/>
<use x="27.1586" y="7.396" xlink:href="#a"/>
</g>
<path transform="matrix(1 0 0 -1 -207.18 165.65)" d="m404.74 6.5625e-4v161.39" fill="none" stroke="#bfbfbf" stroke-miterlimit="10" stroke-width=".3985"/>
<path transform="matrix(1 0 0 -1 -207.18 165.65)" d="m404.74 6.5625e-4v4.2461m0 157.15v-4.25" fill="none" stroke="#7f7f7f" stroke-miterlimit="10" stroke-width=".19925"/>
<path transform="matrix(1 0 0 -1 -207.18 165.65)" d="m242.84 107.6h194.27" fill="none" stroke="#bfbfbf" stroke-miterlimit="10" stroke-width=".3985"/>
<path transform="matrix(1 0 0 -1 -207.18 165.65)" d="m242.84 107.6h4.25m190.02 0h-4.2539" fill="none" stroke="#7f7f7f" stroke-miterlimit="10" stroke-width=".19925"/>
<g clip-path="url(#az)">
<path transform="matrix(1 0 0 -1 -207.18 165.65)" d="m3.125e-4 6.5625e-4h143.75l2.9336 0.0039062h11.734l2.9375 0.0039062h2.9336l2.9336 0.0039062h2.9336l5.8672 0.0078125h2.9336l2.9336 0.0078125 5.8672 0.0078125 8.8008 0.023438 5.8672 0.023438 5.8672 0.03125 5.8672 0.039063 2.9336 0.023437 2.9336 0.027344 2.9336 0.03125 5.8672 0.078125 2.9336 0.046875 2.9336 0.050781 2.9336 0.058594 2.9336 0.066406 2.9336 0.070313 2.9336 0.085937 2.9336 0.089844 2.9336 0.10547 2.9336 0.11328 2.9336 0.13281 2.9336 0.14062 2.9336 0.16016 2.9336 0.17969 2.9336 0.19531 2.9336 0.21875 2.9336 0.24219 2.9336 0.26562 2.9336 0.29297 2.9336 0.32422 2.9336 0.35547 2.9336 0.39062 2.9336 0.42969 2.9336 0.46875 2.9336 0.51562 2.9336 0.56641 2.9336 0.61328 2.9336 0.67578 2.9336 0.73047 2.9336 0.79297 2.9336 0.87109 2.9336 0.93359 2.9336 1.0273 2.9336 1.1094 2.9336 1.207 2.9336 1.3008 2.9336 1.4102 2.9336 1.5273 2.9336 1.625 2.9336 1.7656 2.9336 1.9258 2.9336 2.0664 2.9336 2.207 2.9336 2.3555 2.9336 2.5859 2.9336 2.7422 2.9336 2.9375 2.9336 3.1133 2.9336 3.3984 2.9336 3.5859 2.9336 3.8633 2.9336 4.1445 2.9336 4.4102 2.9336 4.6836 2.9336 4.9727 2.9336 5.3477 2.9336 5.6602 2.9336 6.0039 2.9336 6.4375 2.9336 6.8008 2.9336 7.2266 2.9336 7.7031 2.9336 8.1133 2.9336 8.6211 2.9336 9.1406 2.9336 9.6172 2.9336 10.18 2.9336 10.961 2.9375 11.316 2.9297 12.16 2.9375 12.742 2.9297 13.34" fill="none" stroke="#0c6dfd" stroke-miterlimit="10" stroke-width="1.1955"/>
</g>
<g>
<use x="168.693" y="136.991" xlink:href="#as"/>
<use x="176.16495" y="136.991" xlink:href="#ak"/>
<use x="181.14625" y="136.991" xlink:href="#l"/>
<use x="186.681471" y="136.991" xlink:href="#c"/>
</g>
<g clip-path="url(#ay)">
<path transform="matrix(1 0 0 -1 -207.18 165.65)" d="m3.125e-4 6.5625e-4h111.48l2.9336 0.0039062h11.734l2.9336 0.0039062h2.9336l2.9336 0.0039062h2.9336l11.734 0.015625 2.9336 0.0078125 2.9336 0.0039062 2.9336 0.0078125 2.9375 0.011719 2.9336 0.0078125 2.9336 0.015625 2.9336 0.011719 2.9336 0.015625 2.9336 0.019531 5.8672 0.046875 2.9336 0.027344 5.8672 0.070313 2.9336 0.042968 2.9336 0.046875 2.9336 0.054688 2.9336 0.058594 2.9336 0.070312 2.9336 0.078125 2.9336 0.085938 2.9336 0.097656 2.9336 0.10938 2.9336 0.12109 2.9336 0.13672 2.9336 0.15234 2.9336 0.16797 2.9336 0.1875 2.9336 0.20703 2.9336 0.23047 2.9336 0.25391 2.9336 0.27734 2.9336 0.30859 2.9336 0.34375 2.9336 0.375 2.9336 0.41016 2.9336 0.45312 2.9336 0.49219 2.9336 0.53906 2.9336 0.59375 2.9336 0.64453 2.9336 0.70312 2.9336 0.76562 2.9336 0.83203 2.9336 0.90625 2.9336 0.97656 2.9336 1.0664 2.9336 1.1641 2.9336 1.2461 2.9336 1.3477 2.9336 1.4531 2.9336 1.5703 2.9336 1.6875 2.9336 1.832 2.9336 1.957 2.9336 2.0977 2.9336 2.2734 2.9336 2.4102 2.9336 2.625 2.9336 2.7656 2.9336 2.9922 2.9336 3.1953 2.9336 3.4141 2.9336 3.6367 2.9336 3.8555 2.9336 4.1289 2.9336 4.4375 2.9336 4.6992 2.9336 4.9844 2.9336 5.2422 2.9336 5.7031 2.9336 5.9727 2.9336 6.3516 2.9336 6.6172 2.9336 7.1602 2.9336 7.4727 2.9336 7.9844 2.9336 8.4766 2.9336 8.918 2.9336 9.3867 2.9336 9.8516 2.9336 10.496 2.9336 11.02 2.9336 11.543 2.9336 12.277 2.9336 12.852 2.9336 13.547 2.9336 14.273 2.9336 14.898 2.9336 15.68 2.9336 16.48 2.9336 17.18 2.9336 18.027 2.9336 19.227 2.9375 19.684 2.9297 20.969 2.9375 21.793 2.9297 22.605" fill="none" stroke="#dc3445" stroke-miterlimit="10" stroke-width="1.1955"/>
</g>
<g>
<use x="67.977" y="136.805" xlink:href="#aj"/>
<use x="74.757546" y="136.805" xlink:href="#b"/>
<use x="78.632001" y="136.805" xlink:href="#c"/>
<use x="83.613301" y="136.805" xlink:href="#ai"/>
<use x="89.148521" y="136.805" xlink:href="#ah"/>
<use x="94.129821" y="136.805" xlink:href="#k"/>
</g>
<g clip-path="url(#ax)">
<path transform="matrix(1 0 0 -1 -207.18 165.65)" d="m3.125e-4 6.5625e-4h55.738l2.9336 0.0039062h8.8008l2.9336 0.0039062h2.9336l2.9336 0.0039062h2.9336l5.8672 0.0078125 2.9336 0.0078125 2.9336 0.0039062 8.8008 0.023438 2.9336 0.011719 5.8672 0.03125 5.8672 0.039062 5.8672 0.054687 5.8672 0.070313 2.9336 0.046875 2.9336 0.050781 2.9336 0.058594 2.9336 0.066406 2.9336 0.074219 2.9336 0.085937 2.9336 0.097657 2.9336 0.10938 2.9336 0.125 2.9336 0.13672 2.9336 0.15625 2.9375 0.17188 2.9336 0.19531 2.9336 0.21875 2.9336 0.24219 2.9336 0.26953 2.9336 0.30078 2.9336 0.33203 2.9336 0.36328 2.9336 0.40234 2.9336 0.44922 2.9336 0.48828 2.9336 0.53906 2.9336 0.58984 2.9336 0.64844 2.9336 0.70703 2.9336 0.77344 2.9336 0.84375 2.9336 0.91797 2.9336 1.0039 2.9336 1.0781 2.9336 1.1836 2.9336 1.2695 2.9336 1.3906 2.9336 1.4961 2.9336 1.6133 2.9336 1.7422 2.9336 1.8828 2.9336 2.0156 2.9336 2.1641 2.9336 2.332 2.9336 2.5078 2.9336 2.6797 2.9336 2.875 2.9336 3.0781 2.9336 3.2734 2.9336 3.5078 2.9336 3.7656 2.9336 3.9805 2.9336 4.2305 2.9336 4.5195 2.9336 4.8008 2.9336 5.1133 2.9336 5.4336 2.9336 5.7266 2.9336 6.1016 2.9336 6.457 2.9336 6.793 2.9336 7.1758 2.9336 7.6562 2.9336 8.0039 2.9336 8.5469 2.9336 8.9219 2.9336 9.4023 2.9336 9.9609 2.9336 10.359 2.9336 11.086 2.9336 11.453 2.9336 12.156 2.9336 12.754 2.9336 13.383 2.9336 14.008 2.9336 14.566 2.9336 15.324 2.9336 16.223 2.9336 16.832 2.9336 17.566 2.9336 18.195 2.9336 19.457 2.9336 20 2.9336 20.957 2.9336 21.492 2.9336 22.941 2.9336 23.5 2.9336 24.715 2.9336 25.82 2.9336 26.762 2.9336 27.727 2.9336 28.684 2.9336 30.105 2.9336 31.125 2.9336 32.137 2.9336 33.68 2.9336 34.766 2.9336 36.109 2.9336 37.523 2.9336 38.637 2.9336 40.082 2.9336 41.566 2.9336 42.754 2.9336 44.246 2.9336 46.629 2.9375 47.02 2.9297 49.48 2.9375 50.746 2.9297 52" fill="none" stroke="#188653" stroke-miterlimit="10" stroke-width="1.1955"/>
</g>
<g>
<use x="103.936" y="39.97" xlink:href="#ar"/>
<use x="111.54643" y="39.97" xlink:href="#m"/>
<use x="114.31404" y="39.97" xlink:href="#d"/>
<use x="118.742416" y="39.97" xlink:href="#b"/>
<use x="122.616871" y="39.97" xlink:href="#m"/>
<use x="125.384482" y="39.97" xlink:href="#k"/>
<use x="128.152092" y="39.97" xlink:href="#aq"/>
<use x="131.472626" y="39.97" xlink:href="#ap"/>
<use x="135.901002" y="39.97" xlink:href="#b"/>
<use x="139.775457" y="39.97" xlink:href="#d"/>
<use x="144.203833" y="39.97" xlink:href="#f"/>
<use x="89.653" y="189.758" xlink:href="#ao"/>
<use x="96.021094" y="189.758" xlink:href="#d"/>
<use x="100.44947" y="189.758" xlink:href="#an"/>
<use x="108.751304" y="189.758" xlink:href="#am"/>
<use x="114.555515" y="189.758" xlink:href="#d"/>
<use x="118.983891" y="189.758" xlink:href="#f"/>
<use x="122.886241" y="189.758" xlink:href="#c"/>
<use x="127.867541" y="189.758" xlink:href="#b"/>
<use x="131.741996" y="189.758" xlink:href="#l"/>
<use x="137.277217" y="189.758" xlink:href="#f"/>
<use x="141.179567" y="189.758" xlink:href="#c"/>
<use x="146.160867" y="189.758" xlink:href="#al"/>
<use x="152.251" y="189.758" xlink:href="#ag"/>
<use x="159.178992" y="189.758" xlink:href="#af"/>
<use x="164.162" y="186.143" xlink:href="#ae"/>
<use x="168.742" y="189.758" xlink:href="#at"/>
<use x="7.505" y="145.386" xlink:href="#ad"/>
<use x="7.505" y="138.605454" xlink:href="#j"/>
<use x="7.505" y="134.703104" xlink:href="#i"/>
<use x="7.505" y="130.274728" xlink:href="#h"/>
<use x="7.505" y="126.344483" xlink:href="#h"/>
<use x="7.505" y="122.414237" xlink:href="#aa"/>
<use x="7.505" y="117.432937" xlink:href="#g"/>
<use x="7.505" y="109.134091" xlink:href="#z"/>
<use x="7.505" y="103.598871" xlink:href="#i"/>
<use x="7.505" y="95.852949" xlink:href="#y"/>
<use x="7.505" y="91.142632" xlink:href="#x"/>
<use x="7.505" y="86.161332" xlink:href="#ac"/>
<use x="7.505" y="80.347158" xlink:href="#g"/>
<use x="7.505" y="75.365858" xlink:href="#j"/>
<use x="7.505" y="71.473471" xlink:href="#ab"/>
<use x="7.505" y="65.38" xlink:href="#w"/>
<use x="8.999" y="58.984" xlink:href="#u"/>
<use x="8.999" y="55.230701" xlink:href="#t"/>
<use x="8.999" y="51.259819" xlink:href="#s"/>
<use x="7.505" y="46.358" xlink:href="#v"/>
<use x="7.505" y="41.377" xlink:href="#r"/>
<use x="7.505" y="36.11874" xlink:href="#q"/>
<use x="7.505" y="29.617147" xlink:href="#p"/>
</g>
</svg>
