<?xml version="1.0" encoding="UTF-8"?>
<svg width="232pt" height="190pt" version="1.1" viewBox="0 0 232 190" xmlns="http://www.w3.org/2000/svg" xmlns:xlink="http://www.w3.org/1999/xlink">
<defs>
<symbol id="a" overflow="visible">
<path d="m4.5781-3.1875c0-0.79688-0.046875-1.5938-0.39062-2.3281-0.45312-0.96875-1.2812-1.125-1.6875-1.125-0.60938 0-1.3281 0.26562-1.75 1.1875-0.3125 0.6875-0.35938 1.4688-0.35938 2.2656 0 0.75 0.03125 1.6406 0.45312 2.4062 0.42188 0.79688 1.1562 1 1.6406 1 0.53125 0 1.2969-0.20312 1.7344-1.1562 0.3125-0.6875 0.35938-1.4688 0.35938-2.25zm-0.8125-0.125c0 0.75 0 1.4219-0.10938 2.0625-0.15625 0.95312-0.71875 1.25-1.1719 1.25-0.39062 0-0.98438-0.25-1.1562-1.2031-0.10938-0.59375-0.10938-1.5156-0.10938-2.1094 0-0.64062 0-1.2969 0.078125-1.8281 0.1875-1.1875 0.9375-1.2812 1.1875-1.2812 0.32812 0 0.98438 0.1875 1.1719 1.1719 0.10938 0.5625 0.10938 1.3125 0.10938 1.9375z"/>
</symbol>
<symbol id="az" overflow="visible">
<path d="m4.4688-1.7344h-0.23438c-0.0625 0.29688-0.125 0.73438-0.23438 0.89062-0.0625 0.078125-0.71875 0.078125-0.9375 0.078125h-1.7969l1.0625-1.0312c1.5469-1.375 2.1406-1.9062 2.1406-2.9062 0-1.1406-0.89062-1.9375-2.1094-1.9375-1.125 0-1.8594 0.92188-1.8594 1.8125 0 0.54688 0.5 0.54688 0.53125 0.54688 0.17188 0 0.51562-0.10938 0.51562-0.53125 0-0.25-0.1875-0.51562-0.53125-0.51562-0.078125 0-0.09375 0-0.125 0.015625 0.21875-0.65625 0.76562-1.0156 1.3438-1.0156 0.90625 0 1.3281 0.8125 1.3281 1.625 0 0.79688-0.48438 1.5781-1.0469 2.2031l-1.9062 2.125c-0.10938 0.10938-0.10938 0.14062-0.10938 0.375h3.7031z"/>
</symbol>
<symbol id="ay" overflow="visible">
<path d="m4.6875-1.6406v-0.3125h-0.98438v-4.5312c0-0.20312 0-0.26562-0.17188-0.26562-0.078125 0-0.10938 0-0.1875 0.125l-3.0625 4.6719v0.3125h2.6562v0.85938c0 0.35938-0.03125 0.46875-0.76562 0.46875h-0.20312v0.3125c0.40625-0.03125 0.92188-0.03125 1.3438-0.03125s0.9375 0 1.3594 0.03125v-0.3125h-0.21875c-0.73438 0-0.75-0.10938-0.75-0.46875v-0.85938zm-1.7031-0.3125h-2.4219l2.4219-3.7188z"/>
</symbol>
<symbol id="ax" overflow="visible">
<path d="m4.5625-2.0312c0-1.2656-0.89062-2.2188-2-2.2188-0.67188 0-1.0469 0.5-1.25 0.98438v-0.25c0-2.5156 1.2344-2.875 1.75-2.875 0.23438 0 0.65625 0.0625 0.875 0.40625-0.15625 0-0.54688 0-0.54688 0.4375 0 0.3125 0.23438 0.46875 0.45312 0.46875 0.15625 0 0.46875-0.09375 0.46875-0.48438 0-0.59375-0.4375-1.0781-1.2656-1.0781-1.2812 0-2.625 1.2812-2.625 3.4844 0 2.6719 1.1562 3.375 2.0781 3.375 1.1094 0 2.0625-0.9375 2.0625-2.25zm-0.90625-0.015625c0 0.48438 0 0.98438-0.17188 1.3438-0.29688 0.59375-0.75 0.64062-0.98438 0.64062-0.625 0-0.92188-0.59375-0.98438-0.75-0.1875-0.46875-0.1875-1.2656-0.1875-1.4375 0-0.78125 0.32812-1.7812 1.2188-1.7812 0.17188 0 0.625 0 0.9375 0.625 0.17188 0.35938 0.17188 0.875 0.17188 1.3594z"/>
</symbol>
<symbol id="t" overflow="visible">
<path d="m4.5625-1.6719c0-0.35938-0.10938-0.8125-0.5-1.2344-0.1875-0.20312-0.34375-0.29688-0.98438-0.70312 0.71875-0.375 1.2031-0.89062 1.2031-1.5469 0-0.92188-0.875-1.4844-1.7812-1.4844-1 0-1.8125 0.73438-1.8125 1.6719 0 0.17188 0.015625 0.625 0.4375 1.0938 0.10938 0.10938 0.48438 0.35938 0.73438 0.53125-0.57812 0.29688-1.4375 0.84375-1.4375 1.8438 0 1.0469 1.0156 1.7188 2.0625 1.7188 1.125 0 2.0781-0.82812 2.0781-1.8906zm-0.71875-3.4844c0 0.57812-0.39062 1.0469-0.98438 1.3906l-1.2344-0.79688c-0.45312-0.29688-0.5-0.625-0.5-0.79688 0-0.60938 0.65625-1.0312 1.3594-1.0312 0.71875 0 1.3594 0.51562 1.3594 1.2344zm0.21875 3.8438c0 0.73438-0.75 1.25-1.5625 1.25-0.85938 0-1.5781-0.60938-1.5781-1.4375 0-0.57812 0.3125-1.2188 1.1562-1.6875l1.2344 0.78125c0.28125 0.1875 0.75 0.48438 0.75 1.0938z"/>
</symbol>
<symbol id="e" overflow="visible">
<path d="m4.1719 0v-0.3125h-0.3125c-0.90625 0-0.92188-0.10938-0.92188-0.46875v-5.5938c0-0.25 0-0.26562-0.23438-0.26562-0.625 0.64062-1.5 0.64062-1.8125 0.64062v0.3125c0.20312 0 0.78125 0 1.2969-0.26562v5.1719c0 0.35938-0.03125 0.46875-0.92188 0.46875h-0.3125v0.3125c0.34375-0.03125 1.2031-0.03125 1.6094-0.03125 0.39062 0 1.2656 0 1.6094 0.03125z"/>
</symbol>
<symbol id="aw" overflow="visible">
<path d="m4.5625-3.2812c0-2.6875-1.1562-3.3594-2.0469-3.3594-0.54688 0-1.0312 0.1875-1.4531 0.625-0.42188 0.45312-0.64062 0.875-0.64062 1.625 0 1.2344 0.875 2.2188 1.9844 2.2188 0.60938 0 1.0156-0.42188 1.25-1v0.32812c0 2.3281-1.0312 2.7812-1.6094 2.7812-0.17188 0-0.71875-0.015625-0.98438-0.35938 0.4375 0 0.51562-0.28125 0.51562-0.45312 0-0.3125-0.23438-0.45312-0.45312-0.45312-0.15625 0-0.45312 0.078125-0.45312 0.46875 0 0.67188 0.53125 1.0781 1.375 1.0781 1.2969 0 2.5156-1.3594 2.5156-3.5zm-0.92188-0.92188c0 0.82812-0.34375 1.7969-1.2188 1.7969-0.15625 0-0.625 0-0.92188-0.625-0.1875-0.375-0.1875-0.85938-0.1875-1.3594 0-0.53125 0-1 0.21875-1.375 0.26562-0.5 0.64062-0.625 0.98438-0.625 0.46875 0 0.79688 0.34375 0.96875 0.78125 0.10938 0.32812 0.15625 0.95312 0.15625 1.4062z"/>
</symbol>
<symbol id="d" overflow="visible">
<path d="m2.0312-0.015625c0-0.65625-0.25-1.0469-0.64062-1.0469-0.32812 0-0.53125 0.25-0.53125 0.53125 0 0.26562 0.20312 0.53125 0.53125 0.53125 0.10938 0 0.25-0.046875 0.34375-0.125 0.03125-0.03125 0.046875-0.03125 0.046875-0.03125s0.015625 0 0.015625 0.14062c0 0.75-0.34375 1.3438-0.67188 1.6719-0.10938 0.10938-0.10938 0.125-0.10938 0.15625 0 0.078125 0.046875 0.10938 0.09375 0.10938 0.10938 0 0.92188-0.76562 0.92188-1.9375z"/>
</symbol>
<symbol id="av" overflow="visible">
<path d="m4.9375-1.4219c0-0.10938-0.078125-0.10938-0.10938-0.10938-0.09375 0-0.10938 0.046875-0.14062 0.10938-0.32812 1.0781-1 1.3125-1.3125 1.3125-0.39062 0-0.54688-0.3125-0.54688-0.65625 0-0.21875 0.046875-0.4375 0.15625-0.875l0.34375-1.375c0.0625-0.25 0.29688-1.1719 0.98438-1.1719 0.046875 0 0.29688 0 0.5 0.125-0.28125 0.0625-0.46875 0.29688-0.46875 0.54688 0 0.15625 0.10938 0.34375 0.375 0.34375 0.21875 0 0.53125-0.17188 0.53125-0.57812 0-0.51562-0.57812-0.65625-0.92188-0.65625-0.57812 0-0.92188 0.53125-1.0469 0.75-0.25-0.65625-0.78125-0.75-1.0781-0.75-1.0312 0-1.6094 1.2812-1.6094 1.5312 0 0.10938 0.125 0.10938 0.125 0.10938 0.078125 0 0.10938-0.03125 0.125-0.10938 0.34375-1.0625 1-1.3125 1.3438-1.3125 0.1875 0 0.53125 0.09375 0.53125 0.67188 0 0.3125-0.17188 0.96875-0.53125 2.375-0.15625 0.60938-0.51562 1.0312-0.95312 1.0312-0.0625 0-0.28125 0-0.5-0.125 0.25-0.0625 0.46875-0.26562 0.46875-0.54688 0-0.26562-0.21875-0.34375-0.35938-0.34375-0.3125 0-0.54688 0.25-0.54688 0.57812 0 0.45312 0.48438 0.65625 0.92188 0.65625 0.67188 0 1.0312-0.70312 1.0469-0.75 0.125 0.35938 0.48438 0.75 1.0781 0.75 1.0312 0 1.5938-1.2812 1.5938-1.5312z"/>
</symbol>
<symbol id="au" overflow="visible">
<path d="m5.7969-2.5781h-0.25c-0.10938 1.0156-0.25 2.2656-2 2.2656h-0.8125c-0.46875 0-0.48438-0.0625-0.48438-0.39062v-5.3125c0-0.34375 0-0.48438 0.9375-0.48438h0.32812v-0.3125c-0.35938 0.03125-1.2656 0.03125-1.6719 0.03125-0.39062 0-1.1719 0-1.5156-0.03125v0.3125h0.23438c0.76562 0 0.79688 0.10938 0.79688 0.46875v5.25c0 0.35938-0.03125 0.46875-0.79688 0.46875h-0.23438v0.3125h5.1875z"/>
</symbol>
<symbol id="ap" overflow="visible">
<path d="m2.4688 0v-0.3125c-0.67188 0-0.70312-0.046875-0.70312-0.4375v-3.6562l-1.3906 0.10938v0.3125c0.64062 0 0.73438 0.0625 0.73438 0.54688v2.6875c0 0.4375-0.10938 0.4375-0.78125 0.4375v0.3125l1.0938-0.03125c0.35938 0 0.70312 0.015625 1.0469 0.03125zm0.15625-6.5938c0-0.1875-0.1875-0.35938-0.35938-0.35938-0.15625 0-0.26562 0.10938-0.29688 0.17188l-1.2031 1.5156 0.17188 0.1875 1.5156-1.2188c0.09375-0.078125 0.17188-0.1875 0.17188-0.29688z"/>
</symbol>
<symbol id="aj" overflow="visible">
<path d="m5.25 1.9375v-0.3125c-0.67188 0-0.78125 0-0.78125-0.45312v-5.5781h-0.21875l-0.375 0.90625c-0.125-0.28125-0.53125-0.90625-1.3281-0.90625-1.1562 0-2.2031 0.96875-2.2031 2.2656 0 1.25 0.96875 2.25 2.125 2.25 0.6875 0 1.0938-0.42188 1.3125-0.71875v1.7812c0 0.45312-0.10938 0.45312-0.76562 0.45312v0.3125l1.1094-0.03125zm-1.4375-3.2969c0 0.32812-0.17188 0.60938-0.39062 0.84375-0.125 0.14062-0.45312 0.40625-0.92188 0.40625-0.71875 0-1.3281-0.89062-1.3281-2.0312 0-1.1875 0.6875-2.0156 1.4375-2.0156 0.79688 0 1.2031 0.85938 1.2031 1.3906z"/>
</symbol>
<symbol id="ai" overflow="visible">
<path d="m5.3281 0v-0.3125c-0.6875 0-0.76562-0.0625-0.76562-0.5625v-3.5312l-1.4688 0.10938v0.3125c0.6875 0 0.78125 0.0625 0.78125 0.5625v1.7656c0 0.875-0.48438 1.5469-1.2188 1.5469-0.82812 0-0.875-0.46875-0.875-0.98438v-3.3125l-1.4688 0.10938v0.3125c0.78125 0 0.78125 0.03125 0.78125 0.90625v1.5c0 0.78125 0 1.6875 1.5156 1.6875 0.5625 0 1-0.28125 1.2812-0.89062v0.89062z"/>
</symbol>
<symbol id="ah" overflow="visible">
<path d="m2.4688 0v-0.3125c-0.67188 0-0.70312-0.046875-0.70312-0.4375v-3.6562l-1.3906 0.10938v0.3125c0.64062 0 0.73438 0.0625 0.73438 0.54688v2.6875c0 0.4375-0.10938 0.4375-0.78125 0.4375v0.3125l1.0938-0.03125c0.35938 0 0.70312 0.015625 1.0469 0.03125zm-0.5625-6.0156c0-0.28125-0.21875-0.53125-0.51562-0.53125-0.34375 0-0.54688 0.28125-0.54688 0.53125 0 0.26562 0.23438 0.51562 0.53125 0.51562 0.34375 0 0.53125-0.26562 0.53125-0.51562z"/>
</symbol>
<symbol id="o" overflow="visible">
<path d="m5.25 0v-0.3125c-0.6875 0-0.78125-0.0625-0.78125-0.5625v-6.0469l-1.4219 0.10938v0.3125c0.6875 0 0.76562 0.0625 0.76562 0.5625v2.1562c-0.28125-0.35938-0.71875-0.625-1.25-0.625-1.1719 0-2.2188 0.98438-2.2188 2.2656 0 1.2656 0.96875 2.25 2.1094 2.25 0.64062 0 1.0781-0.34375 1.3281-0.65625v0.65625zm-1.4688-1.1719c0 0.17188 0 0.1875-0.10938 0.35938-0.29688 0.48438-0.73438 0.70312-1.1719 0.70312-0.45312 0-0.8125-0.26562-1.0469-0.64062-0.25-0.40625-0.28125-0.96875-0.28125-1.3906 0-0.35938 0.015625-0.95312 0.29688-1.4062 0.21875-0.3125 0.59375-0.64062 1.1406-0.64062 0.34375 0 0.76562 0.15625 1.0625 0.59375 0.10938 0.17188 0.10938 0.1875 0.10938 0.375z"/>
</symbol>
<symbol id="c" overflow="visible">
<path d="m4.6875-2.1406c0-1.2656-0.98438-2.3281-2.1875-2.3281-1.25 0-2.2188 1.0938-2.2188 2.3281 0 1.2969 1.0312 2.25 2.2031 2.25 1.2031 0 2.2031-0.98438 2.2031-2.25zm-0.8125-0.078125c0 0.35938 0 0.90625-0.21875 1.3438-0.23438 0.45312-0.67188 0.73438-1.1562 0.73438-0.4375 0-0.875-0.20312-1.1406-0.67188-0.25-0.4375-0.25-1.0469-0.25-1.4062 0-0.39062 0-0.92188 0.23438-1.3594 0.26562-0.45312 0.73438-0.67188 1.1406-0.67188 0.4375 0 0.85938 0.21875 1.125 0.65625 0.26562 0.42188 0.26562 1 0.26562 1.375z"/>
</symbol>
<symbol id="b" overflow="visible">
<path d="m4.1406-1.1875c0-0.09375-0.078125-0.125-0.14062-0.125-0.078125 0-0.10938 0.0625-0.125 0.14062-0.34375 1.0312-1.25 1.0312-1.3438 1.0312-0.5 0-0.89062-0.29688-1.125-0.67188-0.29688-0.46875-0.29688-1.125-0.29688-1.4844h2.7812c0.21875 0 0.25 0 0.25-0.21875 0-0.98438-0.54688-1.9531-1.7812-1.9531-1.1562 0-2.0781 1.0312-2.0781 2.2812 0 1.3281 1.0469 2.2969 2.1875 2.2969 1.2188 0 1.6719-1.1094 1.6719-1.2969zm-0.65625-1.3281h-2.375c0.0625-1.4844 0.90625-1.7344 1.25-1.7344 1.0156 0 1.125 1.3438 1.125 1.7344z"/>
</symbol>
<symbol id="n" overflow="visible">
<path d="m3.5938-1.2812c0-0.51562-0.29688-0.82812-0.42188-0.9375-0.32812-0.32812-0.71875-0.40625-1.1406-0.48438-0.5625-0.10938-1.2188-0.23438-1.2188-0.8125 0-0.35938 0.25-0.76562 1.1094-0.76562 1.0938 0 1.1562 0.90625 1.1719 1.2031 0 0.09375 0.10938 0.09375 0.10938 0.09375 0.14062 0 0.14062-0.046875 0.14062-0.23438v-1.0156c0-0.15625 0-0.23438-0.10938-0.23438-0.046875 0-0.078125 0-0.20312 0.125-0.03125 0.03125-0.125 0.125-0.17188 0.15625-0.375-0.28125-0.78125-0.28125-0.9375-0.28125-1.2188 0-1.5938 0.67188-1.5938 1.2344 0 0.34375 0.15625 0.625 0.42188 0.84375 0.32812 0.25 0.60938 0.3125 1.3281 0.45312 0.21875 0.046875 1.0312 0.20312 1.0312 0.92188 0 0.5-0.34375 0.90625-1.125 0.90625-0.84375 0-1.2031-0.5625-1.3906-1.4219-0.03125-0.125-0.03125-0.15625-0.14062-0.15625-0.125 0-0.125 0.0625-0.125 0.23438v1.3281c0 0.17188 0 0.23438 0.10938 0.23438 0.046875 0 0.0625-0.015625 0.25-0.20312 0.015625-0.015625 0.015625-0.03125 0.20312-0.21875 0.4375 0.40625 0.89062 0.42188 1.0938 0.42188 1.1406 0 1.6094-0.67188 1.6094-1.3906z"/>
</symbol>
<symbol id="s" overflow="visible">
<path d="m3.3125-1.2344v-0.5625h-0.25v0.54688c0 0.73438-0.29688 1.1094-0.67188 1.1094-0.67188 0-0.67188-0.90625-0.67188-1.0781v-2.7656h1.4375v-0.3125h-1.4375v-1.8281h-0.25c0 0.8125-0.29688 1.875-1.2812 1.9219v0.21875h0.84375v2.75c0 1.2188 0.9375 1.3438 1.2969 1.3438 0.70312 0 0.98438-0.70312 0.98438-1.3438z"/>
</symbol>
<symbol id="r" overflow="visible">
<path d="m4.8125-0.89062v-0.5625h-0.25v0.5625c0 0.57812-0.25 0.64062-0.35938 0.64062-0.32812 0-0.35938-0.45312-0.35938-0.5v-1.9844c0-0.42188 0-0.8125-0.35938-1.1875-0.39062-0.39062-0.89062-0.54688-1.375-0.54688-0.8125 0-1.5 0.46875-1.5 1.125 0 0.29688 0.20312 0.46875 0.45312 0.46875 0.28125 0 0.46875-0.20312 0.46875-0.45312 0-0.125-0.0625-0.45312-0.51562-0.45312 0.26562-0.35938 0.76562-0.46875 1.0781-0.46875 0.48438 0 1.0625 0.39062 1.0625 1.2812v0.35938c-0.51562 0.03125-1.2188 0.0625-1.8438 0.35938-0.75 0.34375-1 0.85938-1 1.2969 0 0.8125 0.96875 1.0625 1.5938 1.0625 0.67188 0 1.125-0.40625 1.3125-0.85938 0.046875 0.39062 0.3125 0.8125 0.78125 0.8125 0.20312 0 0.8125-0.14062 0.8125-0.95312zm-1.6562-0.5c0 0.9375-0.71875 1.2812-1.1719 1.2812-0.48438 0-0.89062-0.34375-0.89062-0.84375 0-0.54688 0.40625-1.375 2.0625-1.4375zm0.57812-5.2031c0-0.1875-0.1875-0.35938-0.35938-0.35938-0.15625 0-0.26562 0.10938-0.29688 0.17188l-1.2031 1.5156 0.17188 0.1875 1.5156-1.2188c0.09375-0.078125 0.17188-0.1875 0.17188-0.29688z"/>
</symbol>
<symbol id="q" overflow="visible">
<path d="m5.0625-3.9844v-0.3125c-0.23438 0.015625-0.51562 0.03125-0.75 0.03125l-0.85938-0.03125v0.3125c0.35938 0 0.46875 0.23438 0.46875 0.42188 0 0.09375-0.015625 0.14062-0.046875 0.25l-1.0312 2.5312-1.1094-2.7812c-0.0625-0.125-0.0625-0.17188-0.0625-0.17188 0-0.25 0.39062-0.25 0.57812-0.25v-0.3125l-1.0938 0.03125c-0.26562 0-0.67188-0.015625-0.96875-0.03125v0.3125c0.625 0 0.67188 0.0625 0.79688 0.35938l1.4375 3.5469c0.0625 0.14062 0.078125 0.1875 0.20312 0.1875 0.14062 0 0.17188-0.09375 0.21875-0.1875l1.2969-3.2344c0.09375-0.23438 0.26562-0.67188 0.92188-0.67188z"/>
</symbol>
<symbol id="h" overflow="visible">
<path d="m2.5469 0v-0.3125c-0.67188 0-0.78125 0-0.78125-0.4375v-6.1719l-1.4375 0.10938v0.3125c0.70312 0 0.78125 0.0625 0.78125 0.5625v5.1875c0 0.4375-0.10938 0.4375-0.78125 0.4375v0.3125l1.1094-0.03125z"/>
</symbol>
<symbol id="at" overflow="visible">
<path d="m7.2812-6.5v-0.3125c-0.3125 0.03125-0.71875 0.03125-0.96875 0.03125l-1.1406-0.03125v0.3125c0.51562 0.015625 0.73438 0.26562 0.73438 0.5 0 0.078125-0.03125 0.14062-0.046875 0.20312l-1.8281 4.7969-1.9062-5.0312c-0.0625-0.14062-0.0625-0.17188-0.0625-0.17188 0-0.29688 0.5625-0.29688 0.8125-0.29688v-0.3125c-0.35938 0.03125-1.0469 0.03125-1.4219 0.03125l-1.2656-0.03125v0.3125c0.65625 0 0.84375 0 0.98438 0.375l2.3125 6.125c0.0625 0.1875 0.10938 0.21875 0.25 0.21875 0.15625 0 0.1875-0.046875 0.23438-0.1875l2.2188-5.8594c0.14062-0.375 0.40625-0.65625 1.0938-0.67188z"/>
</symbol>
<symbol id="g" overflow="visible">
<path d="m4.8125-0.89062v-0.5625h-0.25v0.5625c0 0.57812-0.25 0.64062-0.35938 0.64062-0.32812 0-0.35938-0.45312-0.35938-0.5v-1.9844c0-0.42188 0-0.8125-0.35938-1.1875-0.39062-0.39062-0.89062-0.54688-1.375-0.54688-0.8125 0-1.5 0.46875-1.5 1.125 0 0.29688 0.20312 0.46875 0.45312 0.46875 0.28125 0 0.46875-0.20312 0.46875-0.45312 0-0.125-0.0625-0.45312-0.51562-0.45312 0.26562-0.35938 0.76562-0.46875 1.0781-0.46875 0.48438 0 1.0625 0.39062 1.0625 1.2812v0.35938c-0.51562 0.03125-1.2188 0.0625-1.8438 0.35938-0.75 0.34375-1 0.85938-1 1.2969 0 0.8125 0.96875 1.0625 1.5938 1.0625 0.67188 0 1.125-0.40625 1.3125-0.85938 0.046875 0.39062 0.3125 0.8125 0.78125 0.8125 0.20312 0 0.8125-0.14062 0.8125-0.95312zm-1.6562-0.5c0 0.9375-0.71875 1.2812-1.1719 1.2812-0.48438 0-0.89062-0.34375-0.89062-0.84375 0-0.54688 0.40625-1.375 2.0625-1.4375z"/>
</symbol>
<symbol id="as" overflow="visible">
<path d="m5.1875-2.1562c0-1.2656-0.95312-2.25-2.0781-2.25-0.78125 0-1.2031 0.4375-1.3906 0.65625v-0.65625l-1.4375 0.10938v0.3125c0.70312 0 0.78125 0.0625 0.78125 0.5v4.6562c0 0.45312-0.10938 0.45312-0.78125 0.45312v0.3125l1.1094-0.03125 1.125 0.03125v-0.3125c-0.65625 0-0.76562 0-0.76562-0.45312v-1.7656c0.046875 0.17188 0.46875 0.70312 1.2188 0.70312 1.1875 0 2.2188-0.98438 2.2188-2.2656zm-0.82812 0c0 1.2031-0.6875 2.0469-1.4219 2.0469-0.40625 0-0.78125-0.20312-1.0469-0.60938-0.14062-0.20312-0.14062-0.21875-0.14062-0.42188v-2.2188c0.28125-0.51562 0.76562-0.79688 1.2812-0.79688 0.73438 0 1.3281 0.875 1.3281 2z"/>
</symbol>
<symbol id="f" overflow="visible">
<path d="m3.625-3.7969c0-0.3125-0.3125-0.60938-0.73438-0.60938-0.73438 0-1.0938 0.67188-1.2188 1.0938v-1.0938l-1.3906 0.10938v0.3125c0.70312 0 0.78125 0.0625 0.78125 0.5625v2.6719c0 0.4375-0.10938 0.4375-0.78125 0.4375v0.3125l1.1406-0.03125c0.39062 0 0.85938 0 1.2656 0.03125v-0.3125h-0.21875c-0.73438 0-0.75-0.10938-0.75-0.46875v-1.5312c0-0.98438 0.42188-1.875 1.1719-1.875 0.0625 0 0.09375 0 0.10938 0.015625-0.03125 0-0.23438 0.125-0.23438 0.39062s0.21875 0.42188 0.4375 0.42188c0.17188 0 0.42188-0.125 0.42188-0.4375z"/>
</symbol>
<symbol id="ar" overflow="visible">
<path d="m6.0781-4.5312-0.28125-2.25h-5.4688v0.3125h0.23438c0.76562 0 0.79688 0.10938 0.79688 0.46875v5.2188c0 0.35938-0.03125 0.46875-0.79688 0.46875h-0.23438v0.3125c0.34375-0.03125 1.125-0.03125 1.5156-0.03125 0.40625 0 1.3125 0 1.6719 0.03125v-0.3125h-0.32812c-0.9375 0-0.9375-0.125-0.9375-0.46875v-2.4531h0.84375c0.96875 0 1.0625 0.3125 1.0625 1.1562h0.25v-2.6406h-0.25c0 0.84375-0.09375 1.1719-1.0625 1.1719h-0.84375v-2.5312c0-0.32812 0.015625-0.39062 0.48438-0.39062h1.1875c1.5 0 1.75 0.5625 1.9062 1.9375z"/>
</symbol>
<symbol id="aq" overflow="visible">
<path d="m4.1406-1.1875c0-0.09375-0.10938-0.09375-0.14062-0.09375-0.078125 0-0.10938 0.03125-0.125 0.09375-0.28125 0.92188-0.9375 1.0469-1.2969 1.0469-0.53125 0-1.4062-0.42188-1.4062-2.0312 0-1.625 0.8125-2.0469 1.3438-2.0469 0.09375 0 0.71875 0.015625 1.0625 0.375-0.40625 0.03125-0.46875 0.32812-0.46875 0.45312 0 0.26562 0.1875 0.45312 0.45312 0.45312s0.46875-0.15625 0.46875-0.46875c0-0.67188-0.76562-1.0625-1.5312-1.0625-1.25 0-2.1562 1.0781-2.1562 2.3125 0 1.1719 0.8125 2.0938 1.8281 2.25v0.82812c0.375 0 0.76562 0.078125 0.76562 0.40625 0 0.40625-0.95312 0.40625-1.7031 0.40625h-0.125v0.26562h0.25c1.0781 0 2.4062 0 2.4062-0.67188 0-0.46875-0.53125-0.67188-1.0781-0.67188v-0.5625c1.1562-0.10938 1.4531-1.1875 1.4531-1.2812z"/>
</symbol>
<symbol id="ao" overflow="visible">
<path d="m4.8125-0.89062v-0.5625h-0.25v0.5625c0 0.57812-0.25 0.64062-0.35938 0.64062-0.32812 0-0.35938-0.45312-0.35938-0.5v-1.9844c0-0.42188 0-0.8125-0.35938-1.1875-0.39062-0.39062-0.89062-0.54688-1.375-0.54688-0.8125 0-1.5 0.46875-1.5 1.125 0 0.29688 0.20312 0.46875 0.45312 0.46875 0.28125 0 0.46875-0.20312 0.46875-0.45312 0-0.125-0.0625-0.45312-0.51562-0.45312 0.26562-0.35938 0.76562-0.46875 1.0781-0.46875 0.48438 0 1.0625 0.39062 1.0625 1.2812v0.35938c-0.51562 0.03125-1.2188 0.0625-1.8438 0.35938-0.75 0.34375-1 0.85938-1 1.2969 0 0.8125 0.96875 1.0625 1.5938 1.0625 0.67188 0 1.125-0.40625 1.3125-0.85938 0.046875 0.39062 0.3125 0.8125 0.78125 0.8125 0.20312 0 0.8125-0.14062 0.8125-0.95312zm-1.6562-0.5c0 0.9375-0.71875 1.2812-1.1719 1.2812-0.48438 0-0.89062-0.34375-0.89062-0.84375 0-0.54688 0.40625-1.375 2.0625-1.4375zm1-4.9531-0.15625-0.14062s-0.375 0.46875-0.8125 0.46875c-0.23438 0-0.48438-0.14062-0.65625-0.25-0.26562-0.15625-0.45312-0.21875-0.625-0.21875-0.375 0-0.5625 0.21875-1.0625 0.76562l0.15625 0.15625s0.375-0.48438 0.8125-0.48438c0.23438 0 0.48438 0.15625 0.65625 0.25 0.26562 0.17188 0.4375 0.23438 0.60938 0.23438 0.375 0 0.57812-0.21875 1.0781-0.78125z"/>
</symbol>
<symbol id="an" overflow="visible">
<path d="m8.1094 0v-0.3125c-0.51562 0-0.76562 0-0.78125-0.29688v-1.9062c0-0.85938 0-1.1562-0.3125-1.5156-0.14062-0.17188-0.46875-0.375-1.0469-0.375-0.82812 0-1.2812 0.59375-1.4375 0.98438-0.14062-0.875-0.875-0.98438-1.3281-0.98438-0.73438 0-1.2031 0.42188-1.4844 1.0469v-1.0469l-1.4062 0.10938v0.3125c0.70312 0 0.78125 0.0625 0.78125 0.5625v2.6719c0 0.4375-0.10938 0.4375-0.78125 0.4375v0.3125l1.1406-0.03125 1.1094 0.03125v-0.3125c-0.67188 0-0.78125 0-0.78125-0.4375v-1.8438c0-1.0312 0.71875-1.5938 1.3438-1.5938 0.64062 0 0.75 0.53125 0.75 1.1094v2.3281c0 0.4375-0.10938 0.4375-0.78125 0.4375v0.3125l1.125-0.03125 1.1094 0.03125v-0.3125c-0.65625 0-0.76562 0-0.76562-0.4375v-1.8438c0-1.0312 0.70312-1.5938 1.3438-1.5938 0.625 0 0.73438 0.53125 0.73438 1.1094v2.3281c0 0.4375-0.10938 0.4375-0.78125 0.4375v0.3125l1.125-0.03125z"/>
</symbol>
<symbol id="am" overflow="visible">
<path d="m5.1875-2.1562c0-1.2656-0.96875-2.25-2.1094-2.25-0.78125 0-1.2031 0.46875-1.3594 0.64062v-3.1562l-1.4375 0.10938v0.3125c0.70312 0 0.78125 0.0625 0.78125 0.5625v5.9375h0.25l0.35938-0.625c0.14062 0.23438 0.5625 0.73438 1.2969 0.73438 1.1875 0 2.2188-0.98438 2.2188-2.2656zm-0.82812 0c0 0.35938-0.015625 0.95312-0.29688 1.4062-0.21875 0.3125-0.59375 0.64062-1.125 0.64062-0.45312 0-0.8125-0.23438-1.0469-0.60938-0.14062-0.20312-0.14062-0.23438-0.14062-0.42188v-2.0469c0-0.1875 0-0.20312 0.10938-0.35938 0.39062-0.5625 0.9375-0.64062 1.1719-0.64062 0.45312 0 0.8125 0.26562 1.0469 0.64062 0.26562 0.40625 0.28125 0.96875 0.28125 1.3906z"/>
</symbol>
<symbol id="p" overflow="visible">
<path d="m5.3281 0v-0.3125c-0.51562 0-0.76562 0-0.76562-0.29688v-1.9062c0-0.85938 0-1.1562-0.3125-1.5156-0.14062-0.17188-0.46875-0.375-1.0469-0.375-0.73438 0-1.2031 0.42188-1.4844 1.0469v-1.0469l-1.4062 0.10938v0.3125c0.70312 0 0.78125 0.0625 0.78125 0.5625v2.6719c0 0.4375-0.10938 0.4375-0.78125 0.4375v0.3125l1.1406-0.03125 1.1094 0.03125v-0.3125c-0.67188 0-0.78125 0-0.78125-0.4375v-1.8438c0-1.0312 0.71875-1.5938 1.3438-1.5938 0.64062 0 0.75 0.53125 0.75 1.1094v2.3281c0 0.4375-0.10938 0.4375-0.78125 0.4375v0.3125l1.125-0.03125z"/>
</symbol>
<symbol id="al" overflow="visible">
<path d="m4-1.8594h-0.25c-0.09375 1.1719-0.29688 1.6094-1.4531 1.6094h-1.1875l2.7812-3.75c0.09375-0.10938 0.09375-0.125 0.09375-0.17188 0-0.125-0.09375-0.125-0.26562-0.125h-3.1875l-0.10938 1.6094h0.25c0.0625-1.0156 0.25-1.3906 1.3438-1.3906h1.1406l-2.7812 3.7656c-0.09375 0.10938-0.09375 0.125-0.09375 0.17188 0 0.14062 0.0625 0.14062 0.25 0.14062h3.2969z"/>
</symbol>
<symbol id="ak" overflow="visible">
<path d="m2.0312-0.015625c0-0.625-0.25-1.0469-0.64062-1.0469-0.35938 0-0.53125 0.28125-0.53125 0.53125 0 0.26562 0.17188 0.53125 0.53125 0.53125 0.14062 0 0.28125-0.0625 0.39062-0.15625 0.015625 0.78125-0.25 1.3906-0.6875 1.8594-0.0625 0.0625-0.078125 0.078125-0.078125 0.10938 0 0.078125 0.046875 0.10938 0.09375 0.10938 0.125 0 0.92188-0.78125 0.92188-1.9375z"/>
</symbol>
<symbol id="ag" overflow="visible">
<path d="m4.0625-1.5c0-0.85938-0.70312-1.5781-1.625-1.5781-0.42188 0-0.79688 0.17188-1.0469 0.42188v-2.1875l-1.0469 0.078125v0.25c0.46875 0 0.51562 0.0625 0.51562 0.40625v4.1094h0.23438l0.25-0.42188c0.26562 0.34375 0.65625 0.48438 1.0156 0.48438 0.92188 0 1.7031-0.6875 1.7031-1.5625zm-0.625-0.015625c0 0.15625 0 0.6875-0.28125 1.0156-0.28125 0.3125-0.625 0.375-0.82812 0.375-0.5625 0-0.84375-0.4375-0.90625-0.57812v-1.625c0.1875-0.32812 0.5625-0.54688 0.98438-0.54688 0.39062 0 0.67188 0.21875 0.8125 0.42188s0.21875 0.48438 0.21875 0.9375z"/>
</symbol>
<symbol id="m" overflow="visible">
<path d="m3.2656-0.84375c0-0.015625-0.015625-0.09375-0.125-0.09375-0.09375 0-0.10938 0.046875-0.125 0.10938-0.21875 0.5625-0.75 0.67188-1 0.67188-0.32812 0-0.64062-0.14062-0.84375-0.40625-0.26562-0.32812-0.26562-0.75-0.26562-1.0312h2.1562c0.15625 0 0.20312 0 0.20312-0.14062 0-0.625-0.34375-1.375-1.3906-1.375-0.90625 0-1.6094 0.71875-1.6094 1.5781 0 0.89062 0.78125 1.5938 1.7031 1.5938 0.9375 0 1.2969-0.75 1.2969-0.90625zm-0.48438-0.92188h-1.875c0.078125-0.98438 0.70312-1.1406 0.96875-1.1406 0.85938 0 0.89062 0.96875 0.90625 1.1406z"/>
</symbol>
<symbol id="l" overflow="visible">
<path d="m4.1094 0v-0.25c-0.45312 0-0.51562 0-0.51562-0.29688v-1.5625c0-0.60938-0.29688-0.96875-1.0469-0.96875-0.57812 0-0.9375 0.3125-1.1406 0.6875v-0.6875l-1.0312 0.078125v0.25c0.46875 0 0.53125 0.046875 0.53125 0.39062v1.8125c0 0.29688-0.078125 0.29688-0.53125 0.29688v0.25s0.5-0.03125 0.79688-0.03125c0.25 0 0.73438 0.03125 0.79688 0.03125v-0.25c-0.45312 0-0.51562 0-0.51562-0.29688v-1.2656c0-0.71875 0.57812-1.0625 1.0312-1.0625 0.48438 0 0.54688 0.375 0.54688 0.73438v1.5938c0 0.29688-0.0625 0.29688-0.51562 0.29688v0.25s0.5-0.03125 0.79688-0.03125c0.25 0 0.73438 0.03125 0.79688 0.03125z"/>
</symbol>
<symbol id="af" overflow="visible">
<path d="m3.1562-1.3594h-0.23438c-0.078125 0.82812-0.21875 1.1406-1.0938 1.1406h-0.85938l2.1094-2.5469c0.046875-0.0625 0.0625-0.078125 0.0625-0.125 0-0.10938-0.09375-0.10938-0.20312-0.10938h-2.4844l-0.078125 1.1562h0.23438c0.046875-0.73438 0.21875-0.96875 1-0.96875h0.82812l-2.1094 2.5469c-0.0625 0.078125-0.0625 0.10938-0.0625 0.14062 0 0.125 0.078125 0.125 0.20312 0.125h2.5625z"/>
</symbol>
<symbol id="ae" overflow="visible">
<path d="m3.6875-1.4844c0-0.875-0.75-1.625-1.7031-1.625-0.96875 0-1.7188 0.75-1.7188 1.625 0 0.85938 0.76562 1.5469 1.7188 1.5469 0.9375 0 1.7031-0.6875 1.7031-1.5469zm-0.64062-0.0625c0 0.32812-0.015625 0.70312-0.21875 0.98438-0.1875 0.26562-0.5 0.40625-0.84375 0.40625-0.26562 0-0.64062-0.078125-0.875-0.42188-0.1875-0.28125-0.20312-0.64062-0.20312-0.96875 0-0.29688 0-0.71875 0.25-1.0156 0.17188-0.20312 0.46875-0.34375 0.82812-0.34375 0.40625 0 0.70312 0.1875 0.85938 0.40625 0.1875 0.26562 0.20312 0.625 0.20312 0.95312z"/>
</symbol>
<symbol id="ad" overflow="visible">
<path d="m-4.5-6.8281-2.25 0.1875v6.0938l2.25 0.1875v-0.25c-1.6094-0.14062-1.9375-0.28125-1.9375-1.7969 0-0.17188 0-0.4375 0.015625-0.53125 0.046875-0.21875 0.15625-0.21875 0.375-0.21875h5.2656c0.32812 0 0.46875 0 0.46875 1.0469v0.40625h0.3125c-0.03125-0.40625-0.03125-1.4219-0.03125-1.8906 0-0.45312 0-1.4844 0.03125-1.8906h-0.3125v0.40625c0 1.0469-0.14062 1.0469-0.46875 1.0469h-5.2656c-0.1875 0-0.32812 0-0.375-0.1875-0.015625-0.10938-0.015625-0.375-0.015625-0.5625 0-1.5156 0.32812-1.6562 1.9375-1.7969z"/>
</symbol>
<symbol id="k" overflow="visible">
<path d="m-1.1875-4.1406c-0.09375 0-0.125 0.078125-0.125 0.14062 0 0.078125 0.0625 0.10938 0.14062 0.125 1.0312 0.34375 1.0312 1.25 1.0312 1.3438 0 0.5-0.29688 0.89062-0.67188 1.125-0.46875 0.29688-1.125 0.29688-1.4844 0.29688v-2.7812c0-0.21875 0-0.25-0.21875-0.25-0.98438 0-1.9531 0.54688-1.9531 1.7812 0 1.1562 1.0312 2.0781 2.2812 2.0781 1.3281 0 2.2969-1.0469 2.2969-2.1875 0-1.2188-1.1094-1.6719-1.2969-1.6719zm-1.3281 0.65625v2.375c-1.4844-0.0625-1.7344-0.90625-1.7344-1.25 0-1.0156 1.3438-1.125 1.7344-1.125z"/>
</symbol>
<symbol id="ac" overflow="visible">
<path d="m0-8.1094h-0.3125c0 0.51562 0 0.76562-0.29688 0.78125h-1.9062c-0.85938 0-1.1562 0-1.5156 0.3125-0.17188 0.14062-0.375 0.46875-0.375 1.0469 0 0.82812 0.59375 1.2812 0.98438 1.4375-0.875 0.14062-0.98438 0.875-0.98438 1.3281 0 0.73438 0.42188 1.2031 1.0469 1.4844h-1.0469l0.10938 1.4062h0.3125c0-0.70312 0.0625-0.78125 0.5625-0.78125h2.6719c0.4375 0 0.4375 0.10938 0.4375 0.78125h0.3125l-0.03125-1.1406 0.03125-1.1094h-0.3125c0 0.67188 0 0.78125-0.4375 0.78125h-1.8438c-1.0312 0-1.5938-0.71875-1.5938-1.3438 0-0.64062 0.53125-0.75 1.1094-0.75h2.3281c0.4375 0 0.4375 0.10938 0.4375 0.78125h0.3125l-0.03125-1.125 0.03125-1.1094h-0.3125c0 0.65625 0 0.76562-0.4375 0.76562h-1.8438c-1.0312 0-1.5938-0.70312-1.5938-1.3438 0-0.625 0.53125-0.73438 1.1094-0.73438h2.3281c0.4375 0 0.4375 0.10938 0.4375 0.78125h0.3125l-0.03125-1.125z"/>
</symbol>
<symbol id="ab" overflow="visible">
<path d="m-2.1562-5.1875c-1.2656 0-2.25 0.95312-2.25 2.0781 0 0.78125 0.4375 1.2031 0.65625 1.3906h-0.65625l0.10938 1.4375h0.3125c0-0.70312 0.0625-0.78125 0.5-0.78125h4.6562c0.45312 0 0.45312 0.10938 0.45312 0.78125h0.3125l-0.03125-1.1094 0.03125-1.125h-0.3125c0 0.65625 0 0.76562-0.45312 0.76562h-1.7656c0.17188-0.046875 0.70312-0.46875 0.70312-1.2188 0-1.1875-0.98438-2.2188-2.2656-2.2188zm0 0.82812c1.2031 0 2.0469 0.6875 2.0469 1.4219 0 0.40625-0.20312 0.78125-0.60938 1.0469-0.20312 0.14062-0.21875 0.14062-0.42188 0.14062h-2.2188c-0.51562-0.28125-0.79688-0.76562-0.79688-1.2812 0-0.73438 0.875-1.3281 2-1.3281z"/>
</symbol>
<symbol id="j" overflow="visible">
<path d="m-3.7969-3.625c-0.3125 0-0.60938 0.3125-0.60938 0.73438 0 0.73438 0.67188 1.0938 1.0938 1.2188h-1.0938l0.10938 1.3906h0.3125c0-0.70312 0.0625-0.78125 0.5625-0.78125h2.6719c0.4375 0 0.4375 0.10938 0.4375 0.78125h0.3125l-0.03125-1.1406c0-0.39062 0-0.85938 0.03125-1.2656h-0.3125v0.21875c0 0.73438-0.10938 0.75-0.46875 0.75h-1.5312c-0.98438 0-1.875-0.42188-1.875-1.1719 0-0.0625 0-0.09375 0.015625-0.10938 0 0.03125 0.125 0.23438 0.39062 0.23438s0.42188-0.21875 0.42188-0.4375c0-0.17188-0.125-0.42188-0.4375-0.42188z"/>
</symbol>
<symbol id="i" overflow="visible">
<path d="m-0.89062-4.8125h-0.5625v0.25h0.5625c0.57812 0 0.64062 0.25 0.64062 0.35938 0 0.32812-0.45312 0.35938-0.5 0.35938h-1.9844c-0.42188 0-0.8125 0-1.1875 0.35938-0.39062 0.39062-0.54688 0.89062-0.54688 1.375 0 0.8125 0.46875 1.5 1.125 1.5 0.29688 0 0.46875-0.20312 0.46875-0.45312 0-0.28125-0.20312-0.46875-0.45312-0.46875-0.125 0-0.45312 0.0625-0.45312 0.51562-0.35938-0.26562-0.46875-0.76562-0.46875-1.0781 0-0.48438 0.39062-1.0625 1.2812-1.0625h0.35938c0.03125 0.51562 0.0625 1.2188 0.35938 1.8438 0.34375 0.75 0.85938 1 1.2969 1 0.8125 0 1.0625-0.96875 1.0625-1.5938 0-0.67188-0.40625-1.125-0.85938-1.3125 0.39062-0.046875 0.8125-0.3125 0.8125-0.78125 0-0.20312-0.14062-0.8125-0.95312-0.8125zm-0.5 1.6562c0.9375 0 1.2812 0.71875 1.2812 1.1719 0 0.48438-0.34375 0.89062-0.84375 0.89062-0.54688 0-1.375-0.40625-1.4375-2.0625z"/>
</symbol>
<symbol id="aa" overflow="visible">
<path d="m-1.2344-3.3125h-0.5625v0.25h0.54688c0.73438 0 1.1094 0.29688 1.1094 0.67188 0 0.67188-0.90625 0.67188-1.0781 0.67188h-2.7656v-1.4375h-0.3125v1.4375h-1.8281v0.25c0.8125 0 1.875 0.29688 1.9219 1.2812h0.21875v-0.84375h2.75c1.2188 0 1.3438-0.9375 1.3438-1.2969 0-0.70312-0.70312-0.98438-1.3438-0.98438z"/>
</symbol>
<symbol id="z" overflow="visible">
<path d="m0-5.3281h-0.3125c0 0.6875-0.0625 0.76562-0.5625 0.76562h-3.5312l0.10938 1.4688h0.3125c0-0.6875 0.0625-0.78125 0.5625-0.78125h1.7656c0.875 0 1.5469 0.48438 1.5469 1.2188 0 0.82812-0.46875 0.875-0.98438 0.875h-3.3125l0.10938 1.4688h0.3125c0-0.78125 0.03125-0.78125 0.90625-0.78125h1.5c0.78125 0 1.6875 0 1.6875-1.5156 0-0.5625-0.28125-1-0.89062-1.2812h0.89062z"/>
</symbol>
<symbol id="y" overflow="visible">
<path d="m-0.015625-2.0312c-0.625 0-1.0469 0.25-1.0469 0.64062 0 0.35938 0.28125 0.53125 0.53125 0.53125 0.26562 0 0.53125-0.17188 0.53125-0.53125 0-0.14062-0.0625-0.28125-0.15625-0.39062 0.78125-0.015625 1.3906 0.25 1.8594 0.6875 0.0625 0.0625 0.078125 0.078125 0.10938 0.078125 0.078125 0 0.10938-0.046875 0.10938-0.09375 0-0.125-0.78125-0.92188-1.9375-0.92188z"/>
</symbol>
<symbol id="x" overflow="visible">
<path d="m-4.7344-6.7344-1.7344-0.26562c-0.046875-0.015625-0.14062-0.015625-0.17188-0.015625-0.10938 0-0.10938 0.09375-0.10938 0.26562v5.5312c0 0.23438 0.015625 0.25 0.20312 0.32812l1.75 0.59375c0.015625 0 0.1875 0.0625 0.1875 0.0625 0.046875 0 0.10938-0.0625 0.10938-0.125 0-0.09375-0.0625-0.10938-0.21875-0.17188-1.5469-0.53125-1.7188-0.79688-1.7188-2.2656v-0.39062c0-0.28125 0.03125-0.28125 0.125-0.28125 0.046875 0 0.17188 0.03125 0.20312 0.046875l5.3281 1.3281c0.35938 0.09375 0.46875 0.125 0.46875 1.1875 0 0.35938 0 0.42188 0.1875 0.42188 0.125 0 0.125-0.10938 0.125-0.17188 0-0.26562-0.015625-0.54688-0.015625-0.8125l-0.015625-0.85938 0.015625-0.82812c0-0.28125 0.015625-0.57812 0.015625-0.85938 0-0.09375 0-0.21875-0.20312-0.21875-0.10938 0-0.10938 0.078125-0.10938 0.34375 0 0.23438 0 0.375-0.015625 0.625-0.03125 0.29688-0.0625 0.375-0.21875 0.375 0 0-0.0625 0-0.20312-0.046875l-5.2969-1.3125c-0.28125-0.078125-0.34375-0.10938-0.375-0.23438-0.015625-0.09375-0.015625-0.42188-0.015625-0.625 0-1.0156 0.03125-1.4531 0.8125-1.4531 0.15625 0 0.54688 0.03125 0.79688 0.078125 0.046875 0 0.15625 0.03125 0.1875 0.03125 0.0625 0 0.14062-0.03125 0.14062-0.125 0-0.10938-0.078125-0.125-0.23438-0.15625z"/>
</symbol>
<symbol id="w" overflow="visible">
<path d="m-7.2812-4.4219c-0.10938 0-0.20312 0.078125-0.20312 0.1875 0 0.078125 0.03125 0.14062 0.09375 0.17188l9.5 3.4688c0.14062 0.046875 0.1875 0.046875 0.1875 0.046875 0.10938 0 0.20312-0.09375 0.20312-0.20312 0-0.125-0.078125-0.15625-0.25-0.21875l-9.3438-3.4062c-0.14062-0.046875-0.1875-0.046875-0.1875-0.046875z"/>
</symbol>
<symbol id="v" overflow="visible">
<path d="m-1.7344-3.5312c-0.85938 0-1.5 0.6875-1.5 1.5 0 0.82812 0.67188 1.4844 1.4844 1.4844 0.84375 0 1.5-0.67188 1.5-1.4844 0-0.82812-0.67188-1.5-1.4844-1.5zm-0.015625 0.34375c0.64062 0 1.1562 0.51562 1.1562 1.1562s-0.53125 1.1406-1.1406 1.1406c-0.65625 0-1.1719-0.51562-1.1719-1.1406 0-0.65625 0.53125-1.1562 1.1562-1.1562z"/>
</symbol>
<symbol id="u" overflow="visible">
<path d="m-2.3281-6.625c-0.09375 0-0.17188 0-0.17188 0.125 0 0.10938 0.0625 0.10938 0.17188 0.125 1.4219 0.078125 2.2344 1.1406 2.2344 2.2344 0 0.60938-0.32812 2.5625-3.3125 2.5625-2.9688 0-3.3125-1.9531-3.3125-2.5625 0-1.0781 0.90625-1.9688 2.3594-2.1719 0.14062-0.015625 0.17188-0.015625 0.17188-0.15625 0-0.15625-0.03125-0.15625-0.23438-0.15625h-2.3594c-0.17188 0-0.25 0-0.25 0.10938 0 0.03125 0 0.078125 0.125 0.15625l0.73438 0.5c-0.35938 0.35938-0.85938 0.875-0.85938 1.8281 0 1.875 1.5938 3.4688 3.625 3.4688 2.0625 0 3.625-1.6094 3.625-3.4688 0-1.625-1.3906-2.5938-2.5469-2.5938z"/>
</symbol>
<clipPath id="ba">
<path d="m35.301 4h194.27v156h-194.27z"/>
</clipPath>
</defs>
<path transform="matrix(1 0 0 -1 35.3 162.4)" d="m7.8125e-4 0.0014688v4.25m38.855-4.25v4.25m38.852-4.25v4.25m38.855-4.25v4.25m38.855-4.25v4.25m38.855-4.25v4.25m-194.27 157.14v-4.25m38.855 4.25v-4.25m38.852 4.25v-4.25m38.855 4.25v-4.25m38.855 4.25v-4.25m38.855 4.25v-4.25" fill="none" stroke="#7f7f7f" stroke-miterlimit="10" stroke-width=".19925"/>
<path transform="matrix(1 0 0 -1 35.3 162.4)" d="m7.8125e-4 20.173h4.25m-4.25 40.352h4.25m-4.25 40.348h4.25m-4.25 40.348h4.25m190.02-121.05h-4.2539m4.2539 40.352h-4.2539m4.2539 40.348h-4.2539m4.2539 40.348h-4.2539" fill="none" stroke="#7f7f7f" stroke-miterlimit="10" stroke-width=".19925"/>
<path transform="matrix(1 0 0 -1 35.3 162.4)" d="m7.8125e-4 0.0014688v161.39h194.27v-161.39z" fill="none" stroke="#000" stroke-miterlimit="10" stroke-width=".3985"/>
<g>
<use x="32.809" y="172.189" xlink:href="#a"/>
<use x="67.789" y="172.189" xlink:href="#a"/>
<use x="72.77" y="172.189" xlink:href="#d"/>
<use x="75.537" y="172.189" xlink:href="#az"/>
<use x="106.643" y="172.189" xlink:href="#a"/>
<use x="111.624" y="172.189" xlink:href="#d"/>
<use x="114.392" y="172.189" xlink:href="#ay"/>
<use x="145.497" y="172.189" xlink:href="#a"/>
<use x="150.479" y="172.189" xlink:href="#d"/>
<use x="153.246" y="172.189" xlink:href="#ax"/>
<use x="184.351" y="172.189" xlink:href="#a"/>
<use x="189.333" y="172.189" xlink:href="#d"/>
<use x="192.1" y="172.189" xlink:href="#t"/>
<use x="227.08" y="172.189" xlink:href="#e"/>
<use x="21.817" y="145.358" xlink:href="#t"/>
<use x="26.7983" y="145.358" xlink:href="#a"/>
<use x="21.817" y="105.01" xlink:href="#aw"/>
<use x="26.7983" y="105.01" xlink:href="#a"/>
<use x="16.836" y="64.661" xlink:href="#e"/>
<use x="21.8173" y="64.661" xlink:href="#a"/>
<use x="26.7986" y="64.661" xlink:href="#a"/>
<use x="16.836" y="24.312" xlink:href="#e"/>
<use x="21.8173" y="24.312" xlink:href="#e"/>
<use x="26.7986" y="24.312" xlink:href="#a"/>
</g>
<g clip-path="url(#ba)">
<path transform="matrix(1 0 0 -1 35.3 162.4)" d="m7.8125e-4 141.22c21.855-27.234 97.137-121.05 194.27-121.05" fill="none" stroke="#0c6dfd" stroke-miterlimit="10" stroke-width="1.1955"/>
</g>
<g>
<use x="67.332" y="119.501" xlink:href="#au"/>
<use x="73.558625" y="119.501" xlink:href="#ap"/>
<use x="76.326235" y="119.501" xlink:href="#aj"/>
<use x="81.584496" y="119.501" xlink:href="#ai"/>
<use x="87.119716" y="119.501" xlink:href="#ah"/>
<use x="89.887326" y="119.501" xlink:href="#o"/>
<use x="95.422547" y="119.501" xlink:href="#c"/>
<use x="69.311" y="131.456" xlink:href="#b"/>
<use x="73.739376" y="131.456" xlink:href="#n"/>
<use x="77.669621" y="131.456" xlink:href="#s"/>
<use x="81.544077" y="131.456" xlink:href="#r"/>
<use x="86.246424" y="131.456" xlink:href="#q"/>
<use x="91.225731" y="131.456" xlink:href="#b"/>
<use x="95.654107" y="131.456" xlink:href="#h"/>
<use x="158.13" y="75.117" xlink:href="#at"/>
<use x="164.775054" y="75.117" xlink:href="#g"/>
<use x="169.756354" y="75.117" xlink:href="#as"/>
<use x="175.560565" y="75.117" xlink:href="#c"/>
<use x="180.541865" y="75.117" xlink:href="#f"/>
<use x="156.733" y="87.073" xlink:href="#b"/>
<use x="161.161376" y="87.073" xlink:href="#n"/>
<use x="165.091621" y="87.073" xlink:href="#s"/>
<use x="168.966077" y="87.073" xlink:href="#r"/>
<use x="173.668424" y="87.073" xlink:href="#q"/>
<use x="178.647731" y="87.073" xlink:href="#b"/>
<use x="183.076107" y="87.073" xlink:href="#h"/>
<use x="57.812" y="187.829" xlink:href="#ar"/>
<use x="63.488689" y="187.829" xlink:href="#f"/>
<use x="67.39104" y="187.829" xlink:href="#g"/>
<use x="72.37234" y="187.829" xlink:href="#aq"/>
<use x="76.800716" y="187.829" xlink:href="#ao"/>
<use x="81.782016" y="187.829" xlink:href="#c"/>
<use x="90.080861" y="187.829" xlink:href="#an"/>
<use x="98.382696" y="187.829" xlink:href="#c"/>
<use x="103.363996" y="187.829" xlink:href="#h"/>
<use x="106.131606" y="187.829" xlink:href="#g"/>
<use x="111.112906" y="187.829" xlink:href="#f"/>
<use x="118.332802" y="187.829" xlink:href="#o"/>
<use x="123.868023" y="187.829" xlink:href="#b"/>
<use x="131.613945" y="187.829" xlink:href="#am"/>
<use x="137.428118" y="187.829" xlink:href="#b"/>
<use x="141.856494" y="187.829" xlink:href="#p"/>
<use x="147.391714" y="187.829" xlink:href="#al"/>
<use x="151.82009" y="187.829" xlink:href="#b"/>
<use x="156.248466" y="187.829" xlink:href="#p"/>
<use x="161.783686" y="187.829" xlink:href="#c"/>
<use x="166.764986" y="187.829" xlink:href="#ak"/>
<use x="172.853" y="187.829" xlink:href="#av"/>
<use x="178.547" y="189.324" xlink:href="#ag"/>
<use x="183.163656" y="189.324" xlink:href="#m"/>
<use x="186.705649" y="189.324" xlink:href="#l"/>
<use x="191.106116" y="189.324" xlink:href="#af"/>
<use x="194.648109" y="189.324" xlink:href="#m"/>
<use x="198.190102" y="189.324" xlink:href="#l"/>
<use x="202.59057" y="189.324" xlink:href="#ae"/>
<use x="7.505" y="124.84" xlink:href="#ad"/>
<use x="7.505" y="118.471906" xlink:href="#k"/>
<use x="7.505" y="114.04353" xlink:href="#ac"/>
<use x="7.505" y="105.741696" xlink:href="#ab"/>
<use x="7.505" y="99.937485" xlink:href="#k"/>
<use x="7.505" y="95.509109" xlink:href="#j"/>
<use x="7.505" y="91.606759" xlink:href="#i"/>
<use x="7.505" y="86.625459" xlink:href="#aa"/>
<use x="7.505" y="82.751004" xlink:href="#z"/>
<use x="7.505" y="77.215783" xlink:href="#j"/>
<use x="7.505" y="73.313433" xlink:href="#i"/>
<use x="7.505" y="68.332133" xlink:href="#y"/>
<use x="7.505" y="62.242" xlink:href="#x"/>
<use x="7.505" y="55.314008" xlink:href="#w"/>
<use x="3.89" y="50.332" xlink:href="#v"/>
<use x="7.505" y="45.752" xlink:href="#u"/>
</g>
</svg>
