<?xml version="1.0" encoding="UTF-8"?>
<svg width="231pt" height="195pt" version="1.1" viewBox="0 0 231 195" xmlns="http://www.w3.org/2000/svg" xmlns:xlink="http://www.w3.org/1999/xlink">
<defs>
<symbol id="a" overflow="visible">
<path d="m4.5781-3.1875c0-0.79688-0.046875-1.5938-0.39062-2.3281-0.45312-0.96875-1.2812-1.125-1.6875-1.125-0.60938 0-1.3281 0.26562-1.75 1.1875-0.3125 0.6875-0.35938 1.4688-0.35938 2.2656 0 0.75 0.03125 1.6406 0.45312 2.4062 0.42188 0.79688 1.1562 1 1.6406 1 0.53125 0 1.2969-0.20312 1.7344-1.1562 0.3125-0.6875 0.35938-1.4688 0.35938-2.25zm-0.8125-0.125c0 0.75 0 1.4219-0.10938 2.0625-0.15625 0.95312-0.71875 1.25-1.1719 1.25-0.39062 0-0.98438-0.25-1.1562-1.2031-0.10938-0.59375-0.10938-1.5156-0.10938-2.1094 0-0.64062 0-1.2969 0.078125-1.8281 0.1875-1.1875 0.9375-1.2812 1.1875-1.2812 0.32812 0 0.98438 0.1875 1.1719 1.1719 0.10938 0.5625 0.10938 1.3125 0.10938 1.9375z"/>
</symbol>
<symbol id="ba" overflow="visible">
<path d="m4.4688-1.7344h-0.23438c-0.0625 0.29688-0.125 0.73438-0.23438 0.89062-0.0625 0.078125-0.71875 0.078125-0.9375 0.078125h-1.7969l1.0625-1.0312c1.5469-1.375 2.1406-1.9062 2.1406-2.9062 0-1.1406-0.89062-1.9375-2.1094-1.9375-1.125 0-1.8594 0.92188-1.8594 1.8125 0 0.54688 0.5 0.54688 0.53125 0.54688 0.17188 0 0.51562-0.10938 0.51562-0.53125 0-0.25-0.1875-0.51562-0.53125-0.51562-0.078125 0-0.09375 0-0.125 0.015625 0.21875-0.65625 0.76562-1.0156 1.3438-1.0156 0.90625 0 1.3281 0.8125 1.3281 1.625 0 0.79688-0.48438 1.5781-1.0469 2.2031l-1.9062 2.125c-0.10938 0.10938-0.10938 0.14062-0.10938 0.375h3.7031z"/>
</symbol>
<symbol id="az" overflow="visible">
<path d="m4.6875-1.6406v-0.3125h-0.98438v-4.5312c0-0.20312 0-0.26562-0.17188-0.26562-0.078125 0-0.10938 0-0.1875 0.125l-3.0625 4.6719v0.3125h2.6562v0.85938c0 0.35938-0.03125 0.46875-0.76562 0.46875h-0.20312v0.3125c0.40625-0.03125 0.92188-0.03125 1.3438-0.03125s0.9375 0 1.3594 0.03125v-0.3125h-0.21875c-0.73438 0-0.75-0.10938-0.75-0.46875v-0.85938zm-1.7031-0.3125h-2.4219l2.4219-3.7188z"/>
</symbol>
<symbol id="ay" overflow="visible">
<path d="m4.5625-2.0312c0-1.2656-0.89062-2.2188-2-2.2188-0.67188 0-1.0469 0.5-1.25 0.98438v-0.25c0-2.5156 1.2344-2.875 1.75-2.875 0.23438 0 0.65625 0.0625 0.875 0.40625-0.15625 0-0.54688 0-0.54688 0.4375 0 0.3125 0.23438 0.46875 0.45312 0.46875 0.15625 0 0.46875-0.09375 0.46875-0.48438 0-0.59375-0.4375-1.0781-1.2656-1.0781-1.2812 0-2.625 1.2812-2.625 3.4844 0 2.6719 1.1562 3.375 2.0781 3.375 1.1094 0 2.0625-0.9375 2.0625-2.25zm-0.90625-0.015625c0 0.48438 0 0.98438-0.17188 1.3438-0.29688 0.59375-0.75 0.64062-0.98438 0.64062-0.625 0-0.92188-0.59375-0.98438-0.75-0.1875-0.46875-0.1875-1.2656-0.1875-1.4375 0-0.78125 0.32812-1.7812 1.2188-1.7812 0.17188 0 0.625 0 0.9375 0.625 0.17188 0.35938 0.17188 0.875 0.17188 1.3594z"/>
</symbol>
<symbol id="ax" overflow="visible">
<path d="m4.5625-1.6719c0-0.35938-0.10938-0.8125-0.5-1.2344-0.1875-0.20312-0.34375-0.29688-0.98438-0.70312 0.71875-0.375 1.2031-0.89062 1.2031-1.5469 0-0.92188-0.875-1.4844-1.7812-1.4844-1 0-1.8125 0.73438-1.8125 1.6719 0 0.17188 0.015625 0.625 0.4375 1.0938 0.10938 0.10938 0.48438 0.35938 0.73438 0.53125-0.57812 0.29688-1.4375 0.84375-1.4375 1.8438 0 1.0469 1.0156 1.7188 2.0625 1.7188 1.125 0 2.0781-0.82812 2.0781-1.8906zm-0.71875-3.4844c0 0.57812-0.39062 1.0469-0.98438 1.3906l-1.2344-0.79688c-0.45312-0.29688-0.5-0.625-0.5-0.79688 0-0.60938 0.65625-1.0312 1.3594-1.0312 0.71875 0 1.3594 0.51562 1.3594 1.2344zm0.21875 3.8438c0 0.73438-0.75 1.25-1.5625 1.25-0.85938 0-1.5781-0.60938-1.5781-1.4375 0-0.57812 0.3125-1.2188 1.1562-1.6875l1.2344 0.78125c0.28125 0.1875 0.75 0.48438 0.75 1.0938z"/>
</symbol>
<symbol id="g" overflow="visible">
<path d="m4.1719 0v-0.3125h-0.3125c-0.90625 0-0.92188-0.10938-0.92188-0.46875v-5.5938c0-0.25 0-0.26562-0.23438-0.26562-0.625 0.64062-1.5 0.64062-1.8125 0.64062v0.3125c0.20312 0 0.78125 0 1.2969-0.26562v5.1719c0 0.35938-0.03125 0.46875-0.92188 0.46875h-0.3125v0.3125c0.34375-0.03125 1.2031-0.03125 1.6094-0.03125 0.39062 0 1.2656 0 1.6094 0.03125z"/>
</symbol>
<symbol id="s" overflow="visible">
<path d="m4.4688-2c0-1.1875-0.8125-2.1875-1.8906-2.1875-0.46875 0-0.90625 0.15625-1.2656 0.51562v-1.9531c0.20312 0.0625 0.53125 0.125 0.84375 0.125 1.2344 0 1.9375-0.90625 1.9375-1.0312 0-0.0625-0.03125-0.10938-0.10938-0.10938 0 0-0.03125 0-0.078125 0.03125-0.20312 0.09375-0.6875 0.29688-1.3594 0.29688-0.39062 0-0.85938-0.078125-1.3281-0.28125-0.078125-0.03125-0.10938-0.03125-0.10938-0.03125-0.10938 0-0.10938 0.078125-0.10938 0.23438v2.9531c0 0.17188 0 0.25 0.14062 0.25 0.078125 0 0.09375-0.015625 0.14062-0.078125 0.10938-0.15625 0.46875-0.70312 1.2812-0.70312 0.51562 0 0.76562 0.45312 0.84375 0.64062 0.15625 0.375 0.1875 0.75 0.1875 1.25 0 0.35938 0 0.95312-0.25 1.375-0.23438 0.39062-0.60938 0.64062-1.0625 0.64062-0.71875 0-1.2969-0.53125-1.4688-1.1094 0.03125 0 0.0625 0.015625 0.17188 0.015625 0.32812 0 0.5-0.25 0.5-0.48438 0-0.25-0.17188-0.5-0.5-0.5-0.14062 0-0.48438 0.078125-0.48438 0.53125 0 0.85938 0.6875 1.8281 1.7969 1.8281 1.1562 0 2.1719-0.95312 2.1719-2.2188z"/>
</symbol>
<symbol id="aw" overflow="visible">
<path d="m4.8125-0.89062v-0.5625h-0.25v0.5625c0 0.57812-0.25 0.64062-0.35938 0.64062-0.32812 0-0.35938-0.45312-0.35938-0.5v-1.9844c0-0.42188 0-0.8125-0.35938-1.1875-0.39062-0.39062-0.89062-0.54688-1.375-0.54688-0.8125 0-1.5 0.46875-1.5 1.125 0 0.29688 0.20312 0.46875 0.45312 0.46875 0.28125 0 0.46875-0.20312 0.46875-0.45312 0-0.125-0.0625-0.45312-0.51562-0.45312 0.26562-0.35938 0.76562-0.46875 1.0781-0.46875 0.48438 0 1.0625 0.39062 1.0625 1.2812v0.35938c-0.51562 0.03125-1.2188 0.0625-1.8438 0.35938-0.75 0.34375-1 0.85938-1 1.2969 0 0.8125 0.96875 1.0625 1.5938 1.0625 0.67188 0 1.125-0.40625 1.3125-0.85938 0.046875 0.39062 0.3125 0.8125 0.78125 0.8125 0.20312 0 0.8125-0.14062 0.8125-0.95312zm-1.6562-0.5c0 0.9375-0.71875 1.2812-1.1719 1.2812-0.48438 0-0.89062-0.34375-0.89062-0.84375 0-0.54688 0.40625-1.375 2.0625-1.4375z"/>
</symbol>
<symbol id="av" overflow="visible">
<path d="m3.3125-1.2344v-0.5625h-0.25v0.54688c0 0.73438-0.29688 1.1094-0.67188 1.1094-0.67188 0-0.67188-0.90625-0.67188-1.0781v-2.7656h1.4375v-0.3125h-1.4375v-1.8281h-0.25c0 0.8125-0.29688 1.875-1.2812 1.9219v0.21875h0.84375v2.75c0 1.2188 0.9375 1.3438 1.2969 1.3438 0.70312 0 0.98438-0.70312 0.98438-1.3438z"/>
</symbol>
<symbol id="bb" overflow="visible">
<path d="m8.1094 0v-0.3125c-0.51562 0-0.76562 0-0.78125-0.29688v-1.9062c0-0.85938 0-1.1562-0.3125-1.5156-0.14062-0.17188-0.46875-0.375-1.0469-0.375-0.82812 0-1.2812 0.59375-1.4375 0.98438-0.14062-0.875-0.875-0.98438-1.3281-0.98438-0.73438 0-1.2031 0.42188-1.4844 1.0469v-1.0469l-1.4062 0.10938v0.3125c0.70312 0 0.78125 0.0625 0.78125 0.5625v2.6719c0 0.4375-0.10938 0.4375-0.78125 0.4375v0.3125l1.1406-0.03125 1.1094 0.03125v-0.3125c-0.67188 0-0.78125 0-0.78125-0.4375v-1.8438c0-1.0312 0.71875-1.5938 1.3438-1.5938 0.64062 0 0.75 0.53125 0.75 1.1094v2.3281c0 0.4375-0.10938 0.4375-0.78125 0.4375v0.3125l1.125-0.03125 1.1094 0.03125v-0.3125c-0.65625 0-0.76562 0-0.76562-0.4375v-1.8438c0-1.0312 0.70312-1.5938 1.3438-1.5938 0.625 0 0.73438 0.53125 0.73438 1.1094v2.3281c0 0.4375-0.10938 0.4375-0.78125 0.4375v0.3125l1.125-0.03125z"/>
</symbol>
<symbol id="c" overflow="visible">
<path d="m2.0312-0.015625c0-0.65625-0.25-1.0469-0.64062-1.0469-0.32812 0-0.53125 0.25-0.53125 0.53125 0 0.26562 0.20312 0.53125 0.53125 0.53125 0.10938 0 0.25-0.046875 0.34375-0.125 0.03125-0.03125 0.046875-0.03125 0.046875-0.03125s0.015625 0 0.015625 0.14062c0 0.75-0.34375 1.3438-0.67188 1.6719-0.10938 0.10938-0.10938 0.125-0.10938 0.15625 0 0.078125 0.046875 0.10938 0.09375 0.10938 0.10938 0 0.92188-0.76562 0.92188-1.9375z"/>
</symbol>
<symbol id="au" overflow="visible">
<path d="m7.5156-5.2969c0-0.78125-0.65625-1.5156-1.9688-1.5156h-3.2188c-0.1875 0-0.29688 0-0.29688 0.1875 0 0.125 0.078125 0.125 0.28125 0.125 0.125 0 0.3125 0.015625 0.42188 0.015625 0.17188 0.03125 0.21875 0.046875 0.21875 0.17188 0 0.03125 0 0.0625-0.03125 0.1875l-1.3438 5.3438c-0.09375 0.39062-0.10938 0.46875-0.90625 0.46875-0.15625 0-0.26562 0-0.26562 0.1875 0 0.125 0.10938 0.125 0.14062 0.125l1.2656-0.03125 0.64062 0.015625c0.21875 0 0.4375 0.015625 0.64062 0.015625 0.078125 0 0.20312 0 0.20312-0.20312 0-0.10938-0.09375-0.10938-0.28125-0.10938-0.35938 0-0.64062 0-0.64062-0.17188 0-0.0625 0.015625-0.10938 0.03125-0.17188l0.60938-2.5h1.7031c1.4062 0 2.7969-1.0312 2.7969-2.1406zm-0.92188-0.25c0 0.39062-0.20312 1.25-0.59375 1.6094-0.5 0.45312-1.0938 0.53125-1.5312 0.53125h-1.4062l0.67188-2.7188c0.09375-0.34375 0.10938-0.375 0.54688-0.375h0.95312c0.82812 0 1.3594 0.26562 1.3594 0.95312z"/>
</symbol>
<symbol id="at" overflow="visible">
<path d="m4.4219-7.2812c0-0.10938-0.078125-0.20312-0.1875-0.20312-0.078125 0-0.14062 0.03125-0.17188 0.09375l-3.4688 9.5c-0.046875 0.14062-0.046875 0.1875-0.046875 0.1875 0 0.10938 0.09375 0.20312 0.20312 0.20312 0.125 0 0.15625-0.078125 0.21875-0.25l3.4062-9.3438c0.046875-0.14062 0.046875-0.1875 0.046875-0.1875z"/>
</symbol>
<symbol id="as" overflow="visible">
<path d="m7.1875-3.375c0-2.0312-1.5-3.6562-3.3125-3.6562-1.7969 0-3.3125 1.5938-3.3125 3.6562 0 2.0469 1.5312 3.5938 3.3125 3.5938 1.8125 0 3.3125-1.5781 3.3125-3.5938zm-1.0312-0.14062c0 2.6406-1.3594 3.4688-2.2812 3.4688-0.95312 0-2.2969-0.875-2.2969-3.4688 0-2.5781 1.4688-3.2656 2.2969-3.2656 0.85938 0 2.2812 0.70312 2.2812 3.2656z"/>
</symbol>
<symbol id="al" overflow="visible">
<path d="m5.1406 0v-0.3125c-0.53125 0-0.71875-0.015625-0.9375-0.3125l-1.3438-1.7188c0.29688-0.375 0.67188-0.85938 0.92188-1.125 0.3125-0.35938 0.71875-0.51562 1.1875-0.51562v-0.3125c-0.26562 0.015625-0.5625 0.03125-0.82812 0.03125-0.29688 0-0.82812-0.015625-0.95312-0.03125v0.3125c0.21875 0.015625 0.29688 0.14062 0.29688 0.3125 0 0.15625-0.10938 0.28125-0.15625 0.34375l-0.60938 0.78125-0.78125-1.0156c-0.09375-0.09375-0.09375-0.10938-0.09375-0.17188 0-0.15625 0.15625-0.25 0.34375-0.25v-0.3125l-1.0781 0.03125c-0.20312 0-0.67188-0.015625-0.9375-0.03125v0.3125c0.70312 0 0.70312 0 1.1719 0.60938l0.98438 1.2812c-0.46875 0.59375-0.46875 0.625-0.9375 1.1875-0.46875 0.57812-1.0625 0.59375-1.2656 0.59375v0.3125c0.25-0.015625 0.5625-0.03125 0.82812-0.03125l0.9375 0.03125v-0.3125c-0.21875-0.03125-0.28125-0.15625-0.28125-0.3125 0-0.21875 0.28125-0.54688 0.89062-1.2656l0.76562 1c0.078125 0.10938 0.20312 0.26562 0.20312 0.32812 0 0.09375-0.09375 0.25-0.35938 0.25v0.3125l1.0781-0.03125c0.26562 0 0.65625 0.015625 0.95312 0.03125z"/>
</symbol>
<symbol id="b" overflow="visible">
<path d="m2.4688 0v-0.3125c-0.67188 0-0.70312-0.046875-0.70312-0.4375v-3.6562l-1.3906 0.10938v0.3125c0.64062 0 0.73438 0.0625 0.73438 0.54688v2.6875c0 0.4375-0.10938 0.4375-0.78125 0.4375v0.3125l1.0938-0.03125c0.35938 0 0.70312 0.015625 1.0469 0.03125zm-0.5625-6.0156c0-0.28125-0.21875-0.53125-0.51562-0.53125-0.34375 0-0.54688 0.28125-0.54688 0.53125 0 0.26562 0.23438 0.51562 0.53125 0.51562 0.34375 0 0.53125-0.26562 0.53125-0.51562z"/>
</symbol>
<symbol id="o" overflow="visible">
<path d="m4.8281-4.0312c0-0.17188-0.10938-0.48438-0.5-0.48438-0.20312 0-0.64062 0.0625-1.0625 0.46875-0.42188-0.32812-0.82812-0.35938-1.0469-0.35938-0.9375 0-1.625 0.6875-1.625 1.4531 0 0.4375 0.21875 0.8125 0.46875 1.0312-0.125 0.14062-0.3125 0.46875-0.3125 0.82812 0 0.3125 0.14062 0.6875 0.45312 0.89062-0.60938 0.15625-0.92188 0.59375-0.92188 0.98438 0 0.71875 0.98438 1.2656 2.2031 1.2656 1.1719 0 2.2031-0.5 2.2031-1.2812 0-0.34375-0.125-0.85938-0.64062-1.1406-0.53125-0.26562-1.1094-0.26562-1.7188-0.26562-0.25 0-0.67188 0-0.75-0.015625-0.3125-0.046875-0.51562-0.34375-0.51562-0.67188 0-0.03125 0-0.26562 0.15625-0.46875 0.39062 0.28125 0.8125 0.3125 1 0.3125 0.92188 0 1.6094-0.6875 1.6094-1.4531 0-0.375-0.15625-0.73438-0.40625-0.96875 0.35938-0.34375 0.71875-0.39062 0.89062-0.39062 0 0 0.078125 0 0.10938 0.015625-0.10938 0.03125-0.17188 0.14062-0.17188 0.26562 0 0.17188 0.14062 0.28125 0.29688 0.28125 0.09375 0 0.28125-0.0625 0.28125-0.29688zm-1.75 1.0781c0 0.26562 0 0.59375-0.15625 0.84375-0.078125 0.10938-0.3125 0.39062-0.70312 0.39062-0.875 0-0.875-1-0.875-1.2188 0-0.26562 0.015625-0.59375 0.15625-0.84375 0.078125-0.10938 0.3125-0.39062 0.71875-0.39062 0.85938 0 0.85938 0.98438 0.85938 1.2188zm1.0938 3.7344c0 0.54688-0.70312 1.0469-1.6719 1.0469-1.0156 0-1.7031-0.51562-1.7031-1.0469 0-0.45312 0.375-0.82812 0.8125-0.84375h0.59375c0.85938 0 1.9688 0 1.9688 0.84375z"/>
</symbol>
<symbol id="n" overflow="visible">
<path d="m4.1406-1.1875c0-0.09375-0.078125-0.125-0.14062-0.125-0.078125 0-0.10938 0.0625-0.125 0.14062-0.34375 1.0312-1.25 1.0312-1.3438 1.0312-0.5 0-0.89062-0.29688-1.125-0.67188-0.29688-0.46875-0.29688-1.125-0.29688-1.4844h2.7812c0.21875 0 0.25 0 0.25-0.21875 0-0.98438-0.54688-1.9531-1.7812-1.9531-1.1562 0-2.0781 1.0312-2.0781 2.2812 0 1.3281 1.0469 2.2969 2.1875 2.2969 1.2188 0 1.6719-1.1094 1.6719-1.2969zm-0.65625-1.3281h-2.375c0.0625-1.4844 0.90625-1.7344 1.25-1.7344 1.0156 0 1.125 1.3438 1.125 1.7344zm0.25-2.7656-1.5156-1.6094-1.5156 1.6094 0.125 0.14062 1.3906-1.0781 1.375 1.0781z"/>
</symbol>
<symbol id="m" overflow="visible">
<path d="m5.3281 0v-0.3125c-0.51562 0-0.76562 0-0.76562-0.29688v-1.9062c0-0.85938 0-1.1562-0.3125-1.5156-0.14062-0.17188-0.46875-0.375-1.0469-0.375-0.73438 0-1.2031 0.42188-1.4844 1.0469v-1.0469l-1.4062 0.10938v0.3125c0.70312 0 0.78125 0.0625 0.78125 0.5625v2.6719c0 0.4375-0.10938 0.4375-0.78125 0.4375v0.3125l1.1406-0.03125 1.1094 0.03125v-0.3125c-0.67188 0-0.78125 0-0.78125-0.4375v-1.8438c0-1.0312 0.71875-1.5938 1.3438-1.5938 0.64062 0 0.75 0.53125 0.75 1.1094v2.3281c0 0.4375-0.10938 0.4375-0.78125 0.4375v0.3125l1.125-0.03125z"/>
</symbol>
<symbol id="d" overflow="visible">
<path d="m4.6875-2.1406c0-1.2656-0.98438-2.3281-2.1875-2.3281-1.25 0-2.2188 1.0938-2.2188 2.3281 0 1.2969 1.0312 2.25 2.2031 2.25 1.2031 0 2.2031-0.98438 2.2031-2.25zm-0.8125-0.078125c0 0.35938 0 0.90625-0.21875 1.3438-0.23438 0.45312-0.67188 0.73438-1.1562 0.73438-0.4375 0-0.875-0.20312-1.1406-0.67188-0.25-0.4375-0.25-1.0469-0.25-1.4062 0-0.39062 0-0.92188 0.23438-1.3594 0.26562-0.45312 0.73438-0.67188 1.1406-0.67188 0.4375 0 0.85938 0.21875 1.125 0.65625 0.26562 0.42188 0.26562 1 0.26562 1.375z"/>
</symbol>
<symbol id="ai" overflow="visible">
<path d="m7.1406-6.5v-0.3125l-1.1719 0.03125-1.1562-0.03125v0.3125c1.0156 0 1.0156 0.46875 1.0156 0.73438v4.2656l-3.5156-5.1719c-0.09375-0.125-0.09375-0.14062-0.28125-0.14062h-1.7031v0.3125h0.29688c0.14062 0 0.34375 0.015625 0.48438 0.015625 0.23438 0.03125 0.25 0.046875 0.25 0.23438v5.2031c0 0.26562 0 0.73438-1.0312 0.73438v0.3125l1.1719-0.03125 1.1562 0.03125v-0.3125c-1.0156 0-1.0156-0.46875-1.0156-0.73438v-5.1875c0.046875 0.046875 0.046875 0.0625 0.09375 0.125l4.0625 5.9844c0.09375 0.10938 0.10938 0.125 0.17188 0.125 0.14062 0 0.14062-0.0625 0.14062-0.26562v-5.5c0-0.26562 0-0.73438 1.0312-0.73438z"/>
</symbol>
<symbol id="ah" overflow="visible">
<path d="m3.3125-1.2344v-0.5625h-0.25v0.54688c0 0.73438-0.29688 1.1094-0.67188 1.1094-0.67188 0-0.67188-0.90625-0.67188-1.0781v-2.7656h1.4375v-0.3125h-1.4375v-1.8281h-0.25c0 0.8125-0.29688 1.875-1.2812 1.9219v0.21875h0.84375v2.75c0 1.2188 0.9375 1.3438 1.2969 1.3438 0.70312 0 0.98438-0.70312 0.98438-1.3438z"/>
</symbol>
<symbol id="f" overflow="visible">
<path d="m3.625-3.7969c0-0.3125-0.3125-0.60938-0.73438-0.60938-0.73438 0-1.0938 0.67188-1.2188 1.0938v-1.0938l-1.3906 0.10938v0.3125c0.70312 0 0.78125 0.0625 0.78125 0.5625v2.6719c0 0.4375-0.10938 0.4375-0.78125 0.4375v0.3125l1.1406-0.03125c0.39062 0 0.85938 0 1.2656 0.03125v-0.3125h-0.21875c-0.73438 0-0.75-0.10938-0.75-0.46875v-1.5312c0-0.98438 0.42188-1.875 1.1719-1.875 0.0625 0 0.09375 0 0.10938 0.015625-0.03125 0-0.23438 0.125-0.23438 0.39062s0.21875 0.42188 0.4375 0.42188c0.17188 0 0.42188-0.125 0.42188-0.4375z"/>
</symbol>
<symbol id="ar" overflow="visible">
<path d="m7.1406 0v-0.3125h-0.25c-0.76562 0-0.78125-0.10938-0.78125-0.46875v-5.25c0-0.35938 0.015625-0.46875 0.78125-0.46875h0.25v-0.3125c-0.35938 0.03125-1.0938 0.03125-1.4688 0.03125s-1.125 0-1.4688-0.03125v0.3125h0.23438c0.76562 0 0.78125 0.10938 0.78125 0.46875v2.3281h-2.9688v-2.3281c0-0.35938 0.015625-0.46875 0.78125-0.46875h0.23438v-0.3125c-0.34375 0.03125-1.0781 0.03125-1.4688 0.03125-0.375 0-1.125 0-1.4688-0.03125v0.3125h0.23438c0.76562 0 0.79688 0.10938 0.79688 0.46875v5.25c0 0.35938-0.03125 0.46875-0.79688 0.46875h-0.23438v0.3125c0.34375-0.03125 1.0938-0.03125 1.4688-0.03125s1.125 0 1.4688 0.03125v-0.3125h-0.23438c-0.76562 0-0.78125-0.10938-0.78125-0.46875v-2.6094h2.9688v2.6094c0 0.35938-0.015625 0.46875-0.78125 0.46875h-0.23438v0.3125c0.34375-0.03125 1.0781-0.03125 1.4531-0.03125 0.39062 0 1.125 0 1.4844 0.03125z"/>
</symbol>
<symbol id="aq" overflow="visible">
<path d="m4.1406-1.1875c0-0.09375-0.078125-0.125-0.14062-0.125-0.078125 0-0.10938 0.0625-0.125 0.14062-0.34375 1.0312-1.25 1.0312-1.3438 1.0312-0.5 0-0.89062-0.29688-1.125-0.67188-0.29688-0.46875-0.29688-1.125-0.29688-1.4844h2.7812c0.21875 0 0.25 0 0.25-0.21875 0-0.98438-0.54688-1.9531-1.7812-1.9531-1.1562 0-2.0781 1.0312-2.0781 2.2812 0 1.3281 1.0469 2.2969 2.1875 2.2969 1.2188 0 1.6719-1.1094 1.6719-1.2969zm-0.65625-1.3281h-2.375c0.0625-1.4844 0.90625-1.7344 1.25-1.7344 1.0156 0 1.125 1.3438 1.125 1.7344zm-0.03125-4.0781c0-0.1875-0.1875-0.35938-0.35938-0.35938-0.15625 0-0.26562 0.10938-0.29688 0.17188l-1.2031 1.5156 0.17188 0.1875 1.5156-1.2188c0.09375-0.078125 0.17188-0.1875 0.17188-0.29688z"/>
</symbol>
<symbol id="r" overflow="visible">
<path d="m2.5469 0v-0.3125c-0.67188 0-0.78125 0-0.78125-0.4375v-6.1719l-1.4375 0.10938v0.3125c0.70312 0 0.78125 0.0625 0.78125 0.5625v5.1875c0 0.4375-0.10938 0.4375-0.78125 0.4375v0.3125l1.1094-0.03125z"/>
</symbol>
<symbol id="ap" overflow="visible">
<path d="m6.2188-4.9531c0-0.98438-0.98438-1.8594-2.3438-1.8594h-3.5312v0.3125h0.25c0.76562 0 0.78125 0.10938 0.78125 0.46875v5.25c0 0.35938-0.015625 0.46875-0.78125 0.46875h-0.25v0.3125c0.35938-0.03125 1.0938-0.03125 1.4688-0.03125s1.125 0 1.4844 0.03125v-0.3125h-0.25c-0.76562 0-0.78125-0.10938-0.78125-0.46875v-2.375h1.6875c1.1875 0 2.2656-0.79688 2.2656-1.7969zm-1.0312 0c0 0.46875 0 1.5469-1.5781 1.5469h-1.375v-2.6875c0-0.34375 0.015625-0.40625 0.48438-0.40625h0.89062c1.5781 0 1.5781 1.0625 1.5781 1.5469z"/>
</symbol>
<symbol id="ao" overflow="visible">
<path d="m4.1406-1.1875c0-0.09375-0.078125-0.125-0.14062-0.125-0.078125 0-0.10938 0.0625-0.125 0.14062-0.34375 1.0312-1.25 1.0312-1.3438 1.0312-0.5 0-0.89062-0.29688-1.125-0.67188-0.29688-0.46875-0.29688-1.125-0.29688-1.4844h2.7812c0.21875 0 0.25 0 0.25-0.21875 0-0.98438-0.54688-1.9531-1.7812-1.9531-1.1562 0-2.0781 1.0312-2.0781 2.2812 0 1.3281 1.0469 2.2969 2.1875 2.2969 1.2188 0 1.6719-1.1094 1.6719-1.2969zm-0.65625-1.3281h-2.375c0.0625-1.4844 0.90625-1.7344 1.25-1.7344 1.0156 0 1.125 1.3438 1.125 1.7344z"/>
</symbol>
<symbol id="q" overflow="visible">
<path d="m3.5938-1.2812c0-0.51562-0.29688-0.82812-0.42188-0.9375-0.32812-0.32812-0.71875-0.40625-1.1406-0.48438-0.5625-0.10938-1.2188-0.23438-1.2188-0.8125 0-0.35938 0.25-0.76562 1.1094-0.76562 1.0938 0 1.1562 0.90625 1.1719 1.2031 0 0.09375 0.10938 0.09375 0.10938 0.09375 0.14062 0 0.14062-0.046875 0.14062-0.23438v-1.0156c0-0.15625 0-0.23438-0.10938-0.23438-0.046875 0-0.078125 0-0.20312 0.125-0.03125 0.03125-0.125 0.125-0.17188 0.15625-0.375-0.28125-0.78125-0.28125-0.9375-0.28125-1.2188 0-1.5938 0.67188-1.5938 1.2344 0 0.34375 0.15625 0.625 0.42188 0.84375 0.32812 0.25 0.60938 0.3125 1.3281 0.45312 0.21875 0.046875 1.0312 0.20312 1.0312 0.92188 0 0.5-0.34375 0.90625-1.125 0.90625-0.84375 0-1.2031-0.5625-1.3906-1.4219-0.03125-0.125-0.03125-0.15625-0.14062-0.15625-0.125 0-0.125 0.0625-0.125 0.23438v1.3281c0 0.17188 0 0.23438 0.10938 0.23438 0.046875 0 0.0625-0.015625 0.25-0.20312 0.015625-0.015625 0.015625-0.03125 0.20312-0.21875 0.4375 0.40625 0.89062 0.42188 1.0938 0.42188 1.1406 0 1.6094-0.67188 1.6094-1.3906z"/>
</symbol>
<symbol id="an" overflow="visible">
<path d="m4.8125-0.89062v-0.5625h-0.25v0.5625c0 0.57812-0.25 0.64062-0.35938 0.64062-0.32812 0-0.35938-0.45312-0.35938-0.5v-1.9844c0-0.42188 0-0.8125-0.35938-1.1875-0.39062-0.39062-0.89062-0.54688-1.375-0.54688-0.8125 0-1.5 0.46875-1.5 1.125 0 0.29688 0.20312 0.46875 0.45312 0.46875 0.28125 0 0.46875-0.20312 0.46875-0.45312 0-0.125-0.0625-0.45312-0.51562-0.45312 0.26562-0.35938 0.76562-0.46875 1.0781-0.46875 0.48438 0 1.0625 0.39062 1.0625 1.2812v0.35938c-0.51562 0.03125-1.2188 0.0625-1.8438 0.35938-0.75 0.34375-1 0.85938-1 1.2969 0 0.8125 0.96875 1.0625 1.5938 1.0625 0.67188 0 1.125-0.40625 1.3125-0.85938 0.046875 0.39062 0.3125 0.8125 0.78125 0.8125 0.20312 0 0.8125-0.14062 0.8125-0.95312zm-1.6562-0.5c0 0.9375-0.71875 1.2812-1.1719 1.2812-0.48438 0-0.89062-0.34375-0.89062-0.84375 0-0.54688 0.40625-1.375 2.0625-1.4375zm1-4.9531-0.15625-0.14062s-0.375 0.46875-0.8125 0.46875c-0.23438 0-0.48438-0.14062-0.65625-0.25-0.26562-0.15625-0.45312-0.21875-0.625-0.21875-0.375 0-0.5625 0.21875-1.0625 0.76562l0.15625 0.15625s0.375-0.48438 0.8125-0.48438c0.23438 0 0.48438 0.15625 0.65625 0.25 0.26562 0.17188 0.4375 0.23438 0.60938 0.23438 0.375 0 0.57812-0.21875 1.0781-0.78125z"/>
</symbol>
<symbol id="am" overflow="visible">
<path d="m5.1875-2.1562c0-1.2656-0.95312-2.25-2.0781-2.25-0.78125 0-1.2031 0.4375-1.3906 0.65625v-0.65625l-1.4375 0.10938v0.3125c0.70312 0 0.78125 0.0625 0.78125 0.5v4.6562c0 0.45312-0.10938 0.45312-0.78125 0.45312v0.3125l1.1094-0.03125 1.125 0.03125v-0.3125c-0.65625 0-0.76562 0-0.76562-0.45312v-1.7656c0.046875 0.17188 0.46875 0.70312 1.2188 0.70312 1.1875 0 2.2188-0.98438 2.2188-2.2656zm-0.82812 0c0 1.2031-0.6875 2.0469-1.4219 2.0469-0.40625 0-0.78125-0.20312-1.0469-0.60938-0.14062-0.20312-0.14062-0.21875-0.14062-0.42188v-2.2188c0.28125-0.51562 0.76562-0.79688 1.2812-0.79688 0.73438 0 1.3281 0.875 1.3281 2z"/>
</symbol>
<symbol id="p" overflow="visible">
<path d="m4.8125-0.89062v-0.5625h-0.25v0.5625c0 0.57812-0.25 0.64062-0.35938 0.64062-0.32812 0-0.35938-0.45312-0.35938-0.5v-1.9844c0-0.42188 0-0.8125-0.35938-1.1875-0.39062-0.39062-0.89062-0.54688-1.375-0.54688-0.8125 0-1.5 0.46875-1.5 1.125 0 0.29688 0.20312 0.46875 0.45312 0.46875 0.28125 0 0.46875-0.20312 0.46875-0.45312 0-0.125-0.0625-0.45312-0.51562-0.45312 0.26562-0.35938 0.76562-0.46875 1.0781-0.46875 0.48438 0 1.0625 0.39062 1.0625 1.2812v0.35938c-0.51562 0.03125-1.2188 0.0625-1.8438 0.35938-0.75 0.34375-1 0.85938-1 1.2969 0 0.8125 0.96875 1.0625 1.5938 1.0625 0.67188 0 1.125-0.40625 1.3125-0.85938 0.046875 0.39062 0.3125 0.8125 0.78125 0.8125 0.20312 0 0.8125-0.14062 0.8125-0.95312zm-1.6562-0.5c0 0.9375-0.71875 1.2812-1.1719 1.2812-0.48438 0-0.89062-0.34375-0.89062-0.84375 0-0.54688 0.40625-1.375 2.0625-1.4375z"/>
</symbol>
<symbol id="ak" overflow="visible">
<path d="m4.1406-1.1875c0-0.09375-0.10938-0.09375-0.14062-0.09375-0.078125 0-0.10938 0.03125-0.125 0.09375-0.28125 0.92188-0.9375 1.0469-1.2969 1.0469-0.53125 0-1.4062-0.42188-1.4062-2.0312 0-1.625 0.8125-2.0469 1.3438-2.0469 0.09375 0 0.71875 0.015625 1.0625 0.375-0.40625 0.03125-0.46875 0.32812-0.46875 0.45312 0 0.26562 0.1875 0.45312 0.45312 0.45312s0.46875-0.15625 0.46875-0.46875c0-0.67188-0.76562-1.0625-1.5312-1.0625-1.25 0-2.1562 1.0781-2.1562 2.3125 0 1.2812 0.98438 2.2656 2.1406 2.2656 1.3281 0 1.6562-1.2031 1.6562-1.2969z"/>
</symbol>
<symbol id="aj" overflow="visible">
<path d="m2.0312-0.015625c0-0.625-0.25-1.0469-0.64062-1.0469-0.35938 0-0.53125 0.28125-0.53125 0.53125 0 0.26562 0.17188 0.53125 0.53125 0.53125 0.14062 0 0.28125-0.0625 0.39062-0.15625 0.015625 0.78125-0.25 1.3906-0.6875 1.8594-0.0625 0.0625-0.078125 0.078125-0.078125 0.10938 0 0.078125 0.046875 0.10938 0.09375 0.10938 0.125 0 0.92188-0.78125 0.92188-1.9375z"/>
</symbol>
<symbol id="ag" overflow="visible">
<path d="m-1.8594-4.9688c-0.98438 0-1.8125 0.65625-2.0156 1.4844l-0.29688 1.2812c-0.15625 0.625-0.6875 1-1.2656 1-0.70312 0-1.3125-0.53125-1.3125-1.3125 0-1.6562 1.6406-1.875 2.0781-1.9375 0.0625-0.015625 0.125-0.015625 0.125-0.125 0-0.125-0.046875-0.125-0.23438-0.125h-2c-0.17188 0-0.25 0-0.25 0.10938 0 0.0625 0.015625 0.078125 0.14062 0.14062l0.5625 0.35938c-0.29688 0.29688-0.70312 0.70312-0.70312 1.5938 0 1.1094 0.875 1.9375 1.9375 1.9375 0.82812 0 1.5625-0.53125 1.8281-1.2969 0.03125-0.10938 0.15625-0.625 0.32812-1.3281 0.0625-0.26562 0.14062-0.5625 0.5-0.84375 0.26562-0.20312 0.59375-0.3125 0.92188-0.3125 0.70312 0 1.4219 0.5 1.4219 1.3438 0 0.28125-0.046875 1.0469-0.53125 1.5781-0.54688 0.57812-1.1719 0.60938-1.5312 0.60938-0.10938 0.015625-0.10938 0.09375-0.10938 0.125 0 0.125 0.078125 0.125 0.25 0.125h2c0.17188 0 0.23438 0 0.23438-0.10938 0-0.0625-0.015625-0.078125-0.125-0.14062 0 0-0.046875-0.03125-0.57812-0.35938 0.34375-0.3125 0.70312-0.95312 0.70312-1.8438 0-1.1562-0.96875-1.9531-2.0781-1.9531z"/>
</symbol>
<symbol id="l" overflow="visible">
<path d="m-2.1406-4.6875c-1.2656 0-2.3281 0.98438-2.3281 2.1875 0 1.25 1.0938 2.2188 2.3281 2.2188 1.2969 0 2.25-1.0312 2.25-2.2031 0-1.2031-0.98438-2.2031-2.25-2.2031zm-0.078125 0.8125c0.35938 0 0.90625 0 1.3438 0.21875 0.45312 0.23438 0.73438 0.67188 0.73438 1.1562 0 0.4375-0.20312 0.875-0.67188 1.1406-0.4375 0.25-1.0469 0.25-1.4062 0.25-0.39062 0-0.92188 0-1.3594-0.23438-0.45312-0.26562-0.67188-0.73438-0.67188-1.1406 0-0.4375 0.21875-0.85938 0.65625-1.125 0.42188-0.26562 1-0.26562 1.375-0.26562z"/>
</symbol>
<symbol id="e" overflow="visible">
<path d="m0-2.5469h-0.3125c0 0.67188 0 0.78125-0.4375 0.78125h-6.1719l0.10938 1.4375h0.3125c0-0.70312 0.0625-0.78125 0.5625-0.78125h5.1875c0.4375 0 0.4375 0.10938 0.4375 0.78125h0.3125l-0.03125-1.1094z"/>
</symbol>
<symbol id="ac" overflow="visible">
<path d="m0-5.3281h-0.3125c0 0.6875-0.0625 0.76562-0.5625 0.76562h-3.5312l0.10938 1.4688h0.3125c0-0.6875 0.0625-0.78125 0.5625-0.78125h1.7656c0.875 0 1.5469 0.48438 1.5469 1.2188 0 0.82812-0.46875 0.875-0.98438 0.875h-3.3125l0.10938 1.4688h0.3125c0-0.78125 0.03125-0.78125 0.90625-0.78125h1.5c0.78125 0 1.6875 0 1.6875-1.5156 0-0.5625-0.28125-1-0.89062-1.2812h0.89062z"/>
</symbol>
<symbol id="ab" overflow="visible">
<path d="m-2.1562-5.1875c-1.2656 0-2.25 0.96875-2.25 2.1094 0 0.78125 0.46875 1.2031 0.64062 1.3594h-3.1562l0.10938 1.4375h0.3125c0-0.70312 0.0625-0.78125 0.5625-0.78125h5.9375v-0.25l-0.625-0.35938c0.23438-0.14062 0.73438-0.5625 0.73438-1.2969 0-1.1875-0.98438-2.2188-2.2656-2.2188zm0 0.82812c0.35938 0 0.95312 0.015625 1.4062 0.29688 0.3125 0.21875 0.64062 0.59375 0.64062 1.125 0 0.45312-0.23438 0.8125-0.60938 1.0469-0.20312 0.14062-0.23438 0.14062-0.42188 0.14062h-2.0469c-0.1875 0-0.20312 0-0.35938-0.10938-0.5625-0.39062-0.64062-0.9375-0.64062-1.1719 0-0.45312 0.26562-0.8125 0.64062-1.0469 0.40625-0.26562 0.96875-0.28125 1.3906-0.28125z"/>
</symbol>
<symbol id="k" overflow="visible">
<path d="m0-2.4688h-0.3125c0 0.67188-0.046875 0.70312-0.4375 0.70312h-3.6562l0.10938 1.3906h0.3125c0-0.64062 0.0625-0.73438 0.54688-0.73438h2.6875c0.4375 0 0.4375 0.10938 0.4375 0.78125h0.3125l-0.03125-1.0938c0-0.35938 0.015625-0.70312 0.03125-1.0469zm-6.0156 0.5625c-0.28125 0-0.53125 0.21875-0.53125 0.51562 0 0.34375 0.28125 0.54688 0.53125 0.54688 0.26562 0 0.51562-0.23438 0.51562-0.53125 0-0.34375-0.26562-0.53125-0.51562-0.53125z"/>
</symbol>
<symbol id="j" overflow="visible">
<path d="m0-5.25h-0.3125c0 0.6875-0.0625 0.78125-0.5625 0.78125h-6.0469l0.10938 1.4219h0.3125c0-0.6875 0.0625-0.76562 0.5625-0.76562h2.1562c-0.35938 0.28125-0.625 0.71875-0.625 1.25 0 1.1719 0.98438 2.2188 2.2656 2.2188 1.2656 0 2.25-0.96875 2.25-2.1094 0-0.64062-0.34375-1.0781-0.65625-1.3281h0.65625zm-1.1719 1.4688c0.17188 0 0.1875 0 0.35938 0.10938 0.48438 0.29688 0.70312 0.73438 0.70312 1.1719 0 0.45312-0.26562 0.8125-0.64062 1.0469-0.40625 0.25-0.96875 0.28125-1.3906 0.28125-0.35938 0-0.95312-0.015625-1.4062-0.29688-0.3125-0.21875-0.64062-0.59375-0.64062-1.1406 0-0.34375 0.15625-0.76562 0.59375-1.0625 0.17188-0.10938 0.1875-0.10938 0.375-0.10938z"/>
</symbol>
<symbol id="i" overflow="visible">
<path d="m-0.89062-4.8125h-0.5625v0.25h0.5625c0.57812 0 0.64062 0.25 0.64062 0.35938 0 0.32812-0.45312 0.35938-0.5 0.35938h-1.9844c-0.42188 0-0.8125 0-1.1875 0.35938-0.39062 0.39062-0.54688 0.89062-0.54688 1.375 0 0.8125 0.46875 1.5 1.125 1.5 0.29688 0 0.46875-0.20312 0.46875-0.45312 0-0.28125-0.20312-0.46875-0.45312-0.46875-0.125 0-0.45312 0.0625-0.45312 0.51562-0.35938-0.26562-0.46875-0.76562-0.46875-1.0781 0-0.48438 0.39062-1.0625 1.2812-1.0625h0.35938c0.03125 0.51562 0.0625 1.2188 0.35938 1.8438 0.34375 0.75 0.85938 1 1.2969 1 0.8125 0 1.0625-0.96875 1.0625-1.5938 0-0.67188-0.40625-1.125-0.85938-1.3125 0.39062-0.046875 0.8125-0.3125 0.8125-0.78125 0-0.20312-0.14062-0.8125-0.95312-0.8125zm-0.5 1.6562c0.9375 0 1.2812 0.71875 1.2812 1.1719 0 0.48438-0.34375 0.89062-0.84375 0.89062-0.54688 0-1.375-0.40625-1.4375-2.0625z"/>
</symbol>
<symbol id="aa" overflow="visible">
<path d="m-1.1875-4.1406c-0.09375 0-0.125 0.078125-0.125 0.14062 0 0.078125 0.0625 0.10938 0.14062 0.125 1.0312 0.34375 1.0312 1.25 1.0312 1.3438 0 0.5-0.29688 0.89062-0.67188 1.125-0.46875 0.29688-1.125 0.29688-1.4844 0.29688v-2.7812c0-0.21875 0-0.25-0.21875-0.25-0.98438 0-1.9531 0.54688-1.9531 1.7812 0 1.1562 1.0312 2.0781 2.2812 2.0781 1.3281 0 2.2969-1.0469 2.2969-2.1875 0-1.2188-1.1094-1.6719-1.2969-1.6719zm-1.3281 0.65625v2.375c-1.4844-0.0625-1.7344-0.90625-1.7344-1.25 0-1.0156 1.3438-1.125 1.7344-1.125z"/>
</symbol>
<symbol id="af" overflow="visible">
<path d="m0-8.1094h-0.3125c0 0.51562 0 0.76562-0.29688 0.78125h-1.9062c-0.85938 0-1.1562 0-1.5156 0.3125-0.17188 0.14062-0.375 0.46875-0.375 1.0469 0 0.82812 0.59375 1.2812 0.98438 1.4375-0.875 0.14062-0.98438 0.875-0.98438 1.3281 0 0.73438 0.42188 1.2031 1.0469 1.4844h-1.0469l0.10938 1.4062h0.3125c0-0.70312 0.0625-0.78125 0.5625-0.78125h2.6719c0.4375 0 0.4375 0.10938 0.4375 0.78125h0.3125l-0.03125-1.1406 0.03125-1.1094h-0.3125c0 0.67188 0 0.78125-0.4375 0.78125h-1.8438c-1.0312 0-1.5938-0.71875-1.5938-1.3438 0-0.64062 0.53125-0.75 1.1094-0.75h2.3281c0.4375 0 0.4375 0.10938 0.4375 0.78125h0.3125l-0.03125-1.125 0.03125-1.1094h-0.3125c0 0.65625 0 0.76562-0.4375 0.76562h-1.8438c-1.0312 0-1.5938-0.70312-1.5938-1.3438 0-0.625 0.53125-0.73438 1.1094-0.73438h2.3281c0.4375 0 0.4375 0.10938 0.4375 0.78125h0.3125l-0.03125-1.125z"/>
</symbol>
<symbol id="ae" overflow="visible">
<path d="m-3.7969-3.625c-0.3125 0-0.60938 0.3125-0.60938 0.73438 0 0.73438 0.67188 1.0938 1.0938 1.2188h-1.0938l0.10938 1.3906h0.3125c0-0.70312 0.0625-0.78125 0.5625-0.78125h2.6719c0.4375 0 0.4375 0.10938 0.4375 0.78125h0.3125l-0.03125-1.1406c0-0.39062 0-0.85938 0.03125-1.2656h-0.3125v0.21875c0 0.73438-0.10938 0.75-0.46875 0.75h-1.5312c-0.98438 0-1.875-0.42188-1.875-1.1719 0-0.0625 0-0.09375 0.015625-0.10938 0 0.03125 0.125 0.23438 0.39062 0.23438s0.42188-0.21875 0.42188-0.4375c0-0.17188-0.125-0.42188-0.4375-0.42188z"/>
</symbol>
<symbol id="ad" overflow="visible">
<path d="m-0.015625-2.0312c-0.625 0-1.0469 0.25-1.0469 0.64062 0 0.35938 0.28125 0.53125 0.53125 0.53125 0.26562 0 0.53125-0.17188 0.53125-0.53125 0-0.14062-0.0625-0.28125-0.15625-0.39062 0.78125-0.015625 1.3906 0.25 1.8594 0.6875 0.0625 0.0625 0.078125 0.078125 0.10938 0.078125 0.078125 0 0.10938-0.046875 0.10938-0.09375 0-0.125-0.78125-0.92188-1.9375-0.92188z"/>
</symbol>
<symbol id="z" overflow="visible">
<path d="m-1.5469-3.9531c-0.35938 0-0.60938 0.1875-0.71875 0.3125-0.28125 0.26562-0.34375 0.5625-0.42188 1-0.078125 0.35938-0.15625 0.75-0.60938 0.75-0.28125 0-0.89062-0.23438-0.89062-1.1094 0-0.25 0.078125-0.75 0.45312-0.89062 0.015625 0.26562 0.23438 0.46875 0.45312 0.46875 0.14062 0 0.29688-0.09375 0.29688-0.3125s-0.17188-0.45312-0.5625-0.45312c-0.45312 0-0.85938 0.42188-0.85938 1.1875 0 1.3125 1.0156 1.6875 1.4531 1.6875 0.78125 0 0.92188-0.73438 0.98438-1.0312 0.10938-0.51562 0.21875-1.0312 0.76562-1.0312 0.25 0 1.0938 0.21875 1.0938 1.4219 0 0.14062 0 0.90625-0.53125 1.1406 0.046875-0.39062-0.25-0.64062-0.53125-0.64062-0.21875 0-0.34375 0.17188-0.34375 0.375 0 0.26562 0.20312 0.5625 0.65625 0.5625 0.5625 0 0.96875-0.57812 0.96875-1.4219 0-1.625-1.2031-2.0156-1.6562-2.0156z"/>
</symbol>
<symbol id="y" overflow="visible">
<path d="m-7.2812-4.4219c-0.10938 0-0.20312 0.078125-0.20312 0.1875 0 0.078125 0.03125 0.14062 0.09375 0.17188l9.5 3.4688c0.14062 0.046875 0.1875 0.046875 0.1875 0.046875 0.10938 0 0.20312-0.09375 0.20312-0.20312 0-0.125-0.078125-0.15625-0.25-0.21875l-9.3438-3.4062c-0.14062-0.046875-0.1875-0.046875-0.1875-0.046875z"/>
</symbol>
<symbol id="h" overflow="visible">
<path d="m0-8.1094h-0.3125c0 0.51562 0 0.76562-0.29688 0.78125h-1.9062c-0.85938 0-1.1562 0-1.5156 0.3125-0.17188 0.14062-0.375 0.46875-0.375 1.0469 0 0.82812 0.59375 1.2812 0.98438 1.4375-0.875 0.14062-0.98438 0.875-0.98438 1.3281 0 0.73438 0.42188 1.2031 1.0469 1.4844h-1.0469l0.10938 1.4062h0.3125c0-0.70312 0.0625-0.78125 0.5625-0.78125h2.6719c0.4375 0 0.4375 0.10938 0.4375 0.78125h0.3125l-0.03125-1.1406 0.03125-1.1094h-0.3125c0 0.67188 0 0.78125-0.4375 0.78125h-1.8438c-1.0312 0-1.5938-0.71875-1.5938-1.3438 0-0.64062 0.53125-0.75 1.1094-0.75h2.3281c0.4375 0 0.4375 0.10938 0.4375 0.78125h0.3125l-0.03125-1.125 0.03125-1.1094h-0.3125c0 0.65625 0 0.76562-0.4375 0.76562h-1.8438c-1.0312 0-1.5938-0.70312-1.5938-1.3438 0-0.625 0.53125-0.73438 1.1094-0.73438h2.3281c0.4375 0 0.4375 0.10938 0.4375 0.78125h0.3125l-0.03125-1.125z"/>
</symbol>
<symbol id="x" overflow="visible">
<path d="m-2.1406-4.6875c-1.2656 0-2.3281 0.98438-2.3281 2.1875 0 1.25 1.0938 2.2188 2.3281 2.2188 1.2969 0 2.25-1.0312 2.25-2.2031 0-1.2031-0.98438-2.2031-2.25-2.2031zm-0.078125 0.8125c0.35938 0 0.90625 0 1.3438 0.21875 0.45312 0.23438 0.73438 0.67188 0.73438 1.1562 0 0.4375-0.20312 0.875-0.67188 1.1406-0.4375 0.25-1.0469 0.25-1.4062 0.25-0.39062 0-0.92188 0-1.3594-0.23438-0.45312-0.26562-0.67188-0.73438-0.67188-1.1406 0-0.4375 0.21875-0.85938 0.65625-1.125 0.42188-0.26562 1-0.26562 1.375-0.26562z"/>
</symbol>
<symbol id="w" overflow="visible">
<path d="m0-2.5469h-0.3125c0 0.67188 0 0.78125-0.4375 0.78125h-6.1719l0.10938 1.4375h0.3125c0-0.70312 0.0625-0.78125 0.5625-0.78125h5.1875c0.4375 0 0.4375 0.10938 0.4375 0.78125h0.3125l-0.03125-1.1094z"/>
</symbol>
<symbol id="v" overflow="visible">
<path d="m-2.5781-5.7969v0.25c1.0156 0.10938 2.2656 0.25 2.2656 2v0.8125c0 0.46875-0.0625 0.48438-0.39062 0.48438h-5.3125c-0.34375 0-0.48438 0-0.48438-0.9375v-0.32812h-0.3125c0.03125 0.35938 0.03125 1.2656 0.03125 1.6719 0 0.39062 0 1.1719-0.03125 1.5156h0.3125v-0.23438c0-0.76562 0.10938-0.79688 0.46875-0.79688h5.25c0.35938 0 0.46875 0.03125 0.46875 0.79688v0.23438h0.3125v-5.1875z"/>
</symbol>
<symbol id="u" overflow="visible">
<path d="m-1.7344-5.4688c-0.1875 0-0.1875 0.17188-0.1875 0.26562v4.1875c0 0.10938 0 0.26562 0.1875 0.26562 0.15625 0 0.15625-0.17188 0.15625-0.26562v-4.1875c0-0.09375 0-0.26562-0.15625-0.26562z"/>
</symbol>
<symbol id="t" overflow="visible">
<path d="m0-3.2969h-0.25v0.26562c0 0.70312-0.09375 0.70312-0.32812 0.70312h-3.8594c-0.1875 0-0.1875 0-0.1875 0.20312 0.4375 0.45312 0.4375 1.0781 0.4375 1.3594h0.25c0-0.15625 0-0.625-0.1875-1h3.5469c0.23438 0 0.32812 0 0.32812 0.6875v0.26562h0.25l-0.03125-1.2344z"/>
</symbol>
<clipPath id="be">
<path d="m34.301 109h194.27v57.164h-194.27z"/>
</clipPath>
<clipPath id="bd">
<path d="m34.301 73h194.27v93.164h-194.27z"/>
</clipPath>
<clipPath id="bc">
<path d="m34.301 9h194.27v157.16h-194.27z"/>
</clipPath>
</defs>
<path transform="matrix(1 0 0 -1 34.301 166.16)" d="m-2.1875e-4 9.375e-4v4.25m38.855-4.25v4.25m38.855-4.25v4.25m38.852-4.25v4.25m38.855-4.25v4.25m38.855-4.25v4.25m-194.27 157.14v-4.2539m38.855 4.2539v-4.2539m38.855 4.2539v-4.2539m38.852 4.2539v-4.2539m38.855 4.2539v-4.2539m38.855 4.2539v-4.2539" fill="none" stroke="#7f7f7f" stroke-miterlimit="10" stroke-width=".19925"/>
<path transform="matrix(1 0 0 -1 34.301 166.16)" d="m-2.1875e-4 9.375e-4h4.2539m-4.2539 53.797h4.2539m-4.2539 53.797h4.2539m-4.2539 53.801h4.2539m190.02-161.39h-4.2539m4.2539 53.797h-4.2539m4.2539 53.797h-4.2539m4.2539 53.801h-4.2539" fill="none" stroke="#7f7f7f" stroke-miterlimit="10" stroke-width=".19925"/>
<path transform="matrix(1 0 0 -1 34.301 166.16)" d="m-2.1875e-4 9.375e-4v161.39h194.27v-161.39z" fill="none" stroke="#000" stroke-miterlimit="10" stroke-width=".3985"/>
<g>
<use x="31.811" y="175.959" xlink:href="#a"/>
<use x="66.79" y="175.959" xlink:href="#a"/>
<use x="71.772" y="175.959" xlink:href="#c"/>
<use x="74.539" y="175.959" xlink:href="#ba"/>
<use x="105.645" y="175.959" xlink:href="#a"/>
<use x="110.626" y="175.959" xlink:href="#c"/>
<use x="113.393" y="175.959" xlink:href="#az"/>
<use x="144.499" y="175.959" xlink:href="#a"/>
<use x="149.48" y="175.959" xlink:href="#c"/>
<use x="152.248" y="175.959" xlink:href="#ay"/>
<use x="183.353" y="175.959" xlink:href="#a"/>
<use x="188.334" y="175.959" xlink:href="#c"/>
<use x="191.102" y="175.959" xlink:href="#ax"/>
<use x="226.082" y="175.959" xlink:href="#g"/>
<use x="25.8" y="169.302" xlink:href="#a"/>
<use x="18.051" y="114.536" xlink:href="#a"/>
<use x="23.033" y="114.536" xlink:href="#c"/>
<use x="25.8" y="114.536" xlink:href="#s"/>
<use x="25.8" y="61.707" xlink:href="#g"/>
<use x="18.051" y="6.941" xlink:href="#g"/>
<use x="23.033" y="6.941" xlink:href="#c"/>
<use x="25.8" y="6.941" xlink:href="#s"/>
</g>
<g clip-path="url(#be)">
<path transform="matrix(1 0 0 -1 34.301 166.16)" d="m-2.1875e-4 9.375e-4 1.3047 0.26563 1.3047 0.26953 1.3008 0.26562 1.3047 0.26562 1.3047 0.26953 1.3047 0.26562 1.3047 0.26953 1.3008 0.26562 1.3047 0.26562 1.3047 0.26953 1.3047 0.26562 1.3008 0.26953 2.6094 0.53125 1.3047 0.26953 1.3047 0.26562 1.3008 0.26953 2.6094 0.53125 1.3047 0.26953 1.3008 0.26562 1.3047 0.26953 2.6094 0.53125 1.3047 0.26953 1.3008 0.26562 1.3047 0.26953 2.6094 0.53125 1.3008 0.26953 1.3047 0.26562 1.3047 0.26953 2.6094 0.53125 1.3008 0.26953 1.3047 0.26562 1.3047 0.26953 1.3047 0.26562 1.3008 0.26562 1.3047 0.26953 2.6094 0.53125 1.3047 0.26953 1.3008 0.26562 1.3047 0.26953 2.6094 0.53125 1.3047 0.26953 1.3008 0.26562 1.3047 0.26953 2.6094 0.53125 1.3008 0.26953 1.3047 0.26562 1.3047 0.26953 2.6094 0.53125 1.3008 0.26953 1.3047 0.26562 1.3047 0.26953 1.3047 0.26562 1.3008 0.26562 1.3047 0.26953 1.3047 0.26562 1.3047 0.26953 1.3047 0.26562 1.3008 0.26562 1.3047 0.26953 1.3047 0.26562 1.3047 0.26953 1.3008 0.26562 1.3047 0.26562 1.3047 0.26953 1.3047 0.26562 1.3047 0.26953 1.3008 0.26562 1.3047 0.26562 1.3047 0.26953 1.3047 0.26562 1.3008 0.26953 2.6094 0.53125 1.3047 0.26953 1.3047 0.26562 1.3008 0.26953 2.6094 0.53125 1.3047 0.26953 1.3008 0.26562 1.3047 0.26953 2.6094 0.53125 1.3047 0.26953 1.3008 0.26562 1.3047 0.26953 2.6094 0.53125 1.3047 0.26953 1.3008 0.26562 1.3047 0.26953 2.6094 0.53125 1.3008 0.26953 1.3047 0.26562 1.3047 0.26953 2.6094 0.53125 1.3008 0.26953 1.3047 0.26562 1.3047 0.26953 1.3047 0.26562 1.3008 0.26562 1.3047 0.26953 1.3047 0.26562 1.3047 0.26953 1.3047 0.26562 1.3008 0.26562 1.3047 0.26953 1.3047 0.26562 1.3047 0.26953 1.3008 0.26562 1.3047 0.26562 1.3047 0.26953 1.3047 0.26562 1.3047 0.26953 1.3008 0.26562 1.3047 0.26562 1.3047 0.26953 1.3047 0.26562 1.3008 0.26953 2.6094 0.53125 1.3047 0.26953 1.3047 0.26562 1.3008 0.26953 2.6094 0.53125 1.3047 0.26953 1.3008 0.26562 1.3047 0.26953 2.6094 0.53125 1.3047 0.26953 1.3008 0.26562 1.3047 0.26953 2.6094 0.53125 1.3047 0.26953 1.3008 0.26562" fill="none" stroke="#0c6dfd" stroke-miterlimit="10" stroke-width="1.1955"/>
</g>
<g clip-path="url(#bd)">
<path transform="matrix(1 0 0 -1 34.301 166.16)" d="m-2.1875e-4 9.375e-4 1.3047 0.50391 1.3047 0.50781 1.3008 0.50391 1.3047 0.50391 1.3047 0.50781 1.3047 0.50391 1.3047 0.50781 1.3008 0.50391 1.3047 0.50391 1.3047 0.50781 1.3047 0.50391 1.3008 0.50781 2.6094 1.0078 1.3047 0.50781 1.3047 0.50391 1.3008 0.50781 2.6094 1.0078 1.3047 0.50781 1.3008 0.50391 1.3047 0.50781 2.6094 1.0078 1.3047 0.50781 1.3008 0.50391 1.3047 0.50781 2.6094 1.0078 1.3008 0.50781 1.3047 0.50391 1.3047 0.50781 2.6094 1.0078 1.3008 0.50781 1.3047 0.50391 1.3047 0.50781 1.3047 0.50391 1.3008 0.50391 1.3047 0.50781 1.3047 0.50391 1.3047 0.50781 1.3047 0.50391 1.3008 0.50391 1.3047 0.50781 1.3047 0.50391 1.3047 0.50781 1.3047 0.50391 1.3008 0.50391 1.3047 0.50781 1.3047 0.50391 1.3047 0.50781 1.3008 0.50391 1.3047 0.50391 1.3047 0.50781 1.3047 0.50391 1.3047 0.50781 1.3008 0.50391 1.3047 0.50781 2.6094 1.0078 1.3008 0.50781 1.3047 0.50391 1.3047 0.50781 2.6094 1.0078 1.3008 0.50781 1.3047 0.50391 1.3047 0.50781 1.3047 0.50391 1.3008 0.50391 1.3047 0.50781 1.3047 0.50391 1.3047 0.50781 1.3047 0.50391 1.3008 0.50391 1.3047 0.50781 1.3047 0.50391 1.3047 0.50781 1.3008 0.50391 1.3047 0.50391 1.3047 0.50781 1.3047 0.50391 1.3047 0.50781 1.3008 0.50391 1.3047 0.50391 1.3047 0.50781 1.3047 0.50391 1.3008 0.50781 2.6094 1.0078 1.3047 0.50781 1.3047 0.50391 1.3008 0.50781 2.6094 1.0078 1.3047 0.50781 1.3047 0.50391 1.3008 0.50781 2.6094 1.0078 1.3047 0.50781 1.3008 0.50391 1.3047 0.50781 2.6094 1.0078 1.3047 0.50781 1.3008 0.50391 1.3047 0.50781 2.6094 1.0078 1.3008 0.50781 1.3047 0.50391 1.3047 0.50781 2.6094 1.0078 1.3008 0.50781 1.3047 0.50391 1.3047 0.50781 1.3047 0.50391 1.3008 0.50391 1.3047 0.50781 1.3047 0.50391 1.3047 0.50781 1.3047 0.50391 1.3008 0.50391 1.3047 0.50781 1.3047 0.50391 1.3047 0.50781 1.3008 0.50391 1.3047 0.50781 2.6094 1.0078 1.3047 0.50781 1.3008 0.50391 1.3047 0.50781 2.6094 1.0078 1.3008 0.50781 1.3047 0.50391 1.3047 0.50781 2.6094 1.0078 1.3008 0.50781 1.3047 0.50391 1.3047 0.50781 2.6094 1.0078 1.3008 0.50781" fill="none" stroke="#dc3445" stroke-miterlimit="10" stroke-width="1.1955"/>
</g>
<g clip-path="url(#bc)">
<path transform="matrix(1 0 0 -1 34.301 166.16)" d="m-2.1875e-4 9.375e-4 2.6094 1.875 1.3008 0.94141 2.6094 1.875 1.3047 0.94141 1.3047 0.9375 1.3008 0.9375 1.3047 0.94141 2.6094 1.875 1.3008 0.94141 2.6094 1.875 1.3047 0.94141 1.3047 0.9375 1.3008 0.9375 1.3047 0.9375 1.3047 0.94141 1.3047 0.9375 1.3008 0.9375 1.3047 0.94141 2.6094 1.875 1.3047 0.94141 1.3008 0.9375 1.3047 0.9375 1.3047 0.94141 1.3047 0.9375 1.3008 0.9375 1.3047 0.94141 2.6094 1.875 1.3047 0.94141 1.3008 0.9375 1.3047 0.9375 1.3047 0.94141 1.3047 0.9375 1.3008 0.9375 1.3047 0.94141 3.9141 2.8125 1.3008 0.94141 2.6094 1.875 1.3047 0.94141 1.3047 0.9375 1.3008 0.9375 1.3047 0.94141 2.6094 1.875 1.3008 0.94141 2.6094 1.875 1.3047 0.94141 1.3047 0.9375 1.3008 0.9375 1.3047 0.94141 2.6094 1.875 1.3008 0.94141 2.6094 1.875 1.3047 0.94141 1.3047 0.9375 1.3008 0.9375 1.3047 0.9375 1.3047 0.94141 1.3047 0.9375 1.3008 0.9375 1.3047 0.94141 2.6094 1.875 1.3047 0.94141 1.3008 0.9375 1.3047 0.9375 1.3047 0.94141 1.3047 0.9375 1.3008 0.9375 1.3047 0.94141 2.6094 1.875 1.3047 0.94141 1.3008 0.9375 1.3047 0.9375 1.3047 0.94141 1.3047 0.9375 1.3008 0.9375 1.3047 0.9375 1.3047 0.94141 2.6094 1.875 1.3008 0.94141 2.6094 1.875 1.3047 0.94141 1.3047 0.9375 1.3008 0.9375 1.3047 0.94141 2.6094 1.875 1.3008 0.94141 2.6094 1.875 1.3047 0.94141 1.3047 0.9375 1.3008 0.9375 1.3047 0.94141 2.6094 1.875 1.3008 0.94141 3.9141 2.8125 1.3047 0.94141 1.3008 0.9375 1.3047 0.9375 1.3047 0.94141 1.3047 0.9375 1.3008 0.9375 1.3047 0.94141 2.6094 1.875 1.3047 0.94141 1.3008 0.9375 1.3047 0.9375 1.3047 0.94141 1.3047 0.9375 1.3008 0.9375 1.3047 0.94141 2.6094 1.875 1.3047 0.94141 1.3008 0.9375 2.6094 1.875 1.3047 0.94141 1.3008 0.9375 1.3047 0.9375 1.3047 0.94141 2.6094 1.875 1.3008 0.94141 2.6094 1.875 1.3047 0.94141 1.3047 0.9375 1.3008 0.9375" fill="none" stroke="#188653" stroke-miterlimit="10" stroke-width="1.1955"/>
</g>
<g>
<use x="170.484" y="31.594" xlink:href="#as"/>
<use x="178.23291" y="31.594" xlink:href="#al"/>
<use x="183.491171" y="31.594" xlink:href="#b"/>
<use x="186.258781" y="31.594" xlink:href="#o"/>
<use x="191.240081" y="31.594" xlink:href="#n"/>
<use x="195.668457" y="31.594" xlink:href="#m"/>
<use x="201.203677" y="31.594" xlink:href="#b"/>
<use x="203.971287" y="31.594" xlink:href="#d"/>
<use x="166.873" y="89.695" xlink:href="#ai"/>
<use x="174.34495" y="89.695" xlink:href="#b"/>
<use x="177.11256" y="89.695" xlink:href="#ah"/>
<use x="180.987015" y="89.695" xlink:href="#f"/>
<use x="184.889366" y="89.695" xlink:href="#d"/>
<use x="189.870666" y="89.695" xlink:href="#o"/>
<use x="194.851966" y="89.695" xlink:href="#n"/>
<use x="199.280342" y="89.695" xlink:href="#m"/>
<use x="204.815562" y="89.695" xlink:href="#b"/>
<use x="207.583172" y="89.695" xlink:href="#d"/>
<use x="178.51" y="149.649" xlink:href="#ar"/>
<use x="185.98195" y="149.649" xlink:href="#aq"/>
<use x="190.410326" y="149.649" xlink:href="#r"/>
<use x="193.177936" y="149.649" xlink:href="#b"/>
<use x="195.945546" y="149.649" xlink:href="#d"/>
<use x="80.865" y="192.208" xlink:href="#ap"/>
<use x="87.645546" y="192.208" xlink:href="#f"/>
<use x="91.547896" y="192.208" xlink:href="#ao"/>
<use x="95.976272" y="192.208" xlink:href="#q"/>
<use x="99.906517" y="192.208" xlink:href="#q"/>
<use x="103.836763" y="192.208" xlink:href="#an"/>
<use x="108.818063" y="192.208" xlink:href="#d"/>
<use x="117.116909" y="192.208" xlink:href="#am"/>
<use x="122.652129" y="192.208" xlink:href="#p"/>
<use x="127.633429" y="192.208" xlink:href="#f"/>
<use x="131.53578" y="192.208" xlink:href="#ak"/>
<use x="135.964156" y="192.208" xlink:href="#b"/>
<use x="138.731766" y="192.208" xlink:href="#p"/>
<use x="143.713066" y="192.208" xlink:href="#r"/>
<use x="146.480676" y="192.208" xlink:href="#aj"/>
<use x="152.569" y="192.208" xlink:href="#au"/>
<use x="159.791885" y="192.208" xlink:href="#at"/>
<use x="164.776" y="192.208" xlink:href="#aw"/>
<use x="169.7573" y="192.208" xlink:href="#av"/>
<use x="173.631755" y="192.208" xlink:href="#bb"/>
<use x="8.72" y="155.525" xlink:href="#ag"/>
<use x="8.72" y="149.989779" xlink:href="#l"/>
<use x="8.72" y="145.008479" xlink:href="#e"/>
<use x="8.72" y="142.240869" xlink:href="#ac"/>
<use x="8.72" y="136.705649" xlink:href="#ab"/>
<use x="8.72" y="131.170428" xlink:href="#k"/>
<use x="8.72" y="128.402818" xlink:href="#e"/>
<use x="8.72" y="125.635207" xlink:href="#k"/>
<use x="8.72" y="122.867597" xlink:href="#j"/>
<use x="8.72" y="117.332377" xlink:href="#i"/>
<use x="8.72" y="112.351077" xlink:href="#j"/>
<use x="8.72" y="106.815856" xlink:href="#aa"/>
<use x="8.72" y="99.069935" xlink:href="#af"/>
<use x="8.72" y="90.7681" xlink:href="#l"/>
<use x="8.72" y="85.7868" xlink:href="#e"/>
<use x="8.72" y="83.01919" xlink:href="#i"/>
<use x="8.72" y="78.03789" xlink:href="#ae"/>
<use x="8.72" y="74.135539" xlink:href="#ad"/>
<use x="8.72" y="68.048" xlink:href="#z"/>
<use x="8.72" y="63.377533" xlink:href="#y"/>
<use x="8.72" y="58.397" xlink:href="#h"/>
<use x="8.72" y="50.095165" xlink:href="#h"/>
<use x="8.72" y="41.793331" xlink:href="#x"/>
<use x="8.72" y="36.812031" xlink:href="#w"/>
<use x="8.72" y="32.330853" xlink:href="#v"/>
<use x="5.105" y="26.107" xlink:href="#u"/>
<use x="5.105" y="19.881" xlink:href="#t"/>
</g>
</svg>
