<?xml version="1.0" encoding="UTF-8"?>
<svg width="238pt" height="189pt" version="1.1" viewBox="0 0 238 189" xmlns="http://www.w3.org/2000/svg" xmlns:xlink="http://www.w3.org/1999/xlink">
<defs>
<symbol id="a" overflow="visible">
<path d="m4.5781-3.1875c0-0.79688-0.046875-1.5938-0.39062-2.3281-0.45312-0.96875-1.2812-1.125-1.6875-1.125-0.60938 0-1.3281 0.26562-1.75 1.1875-0.3125 0.6875-0.35938 1.4688-0.35938 2.2656 0 0.75 0.03125 1.6406 0.45312 2.4062 0.42188 0.79688 1.1562 1 1.6406 1 0.53125 0 1.2969-0.20312 1.7344-1.1562 0.3125-0.6875 0.35938-1.4688 0.35938-2.25zm-0.8125-0.125c0 0.75 0 1.4219-0.10938 2.0625-0.15625 0.95312-0.71875 1.25-1.1719 1.25-0.39062 0-0.98438-0.25-1.1562-1.2031-0.10938-0.59375-0.10938-1.5156-0.10938-2.1094 0-0.64062 0-1.2969 0.078125-1.8281 0.1875-1.1875 0.9375-1.2812 1.1875-1.2812 0.32812 0 0.98438 0.1875 1.1719 1.1719 0.10938 0.5625 0.10938 1.3125 0.10938 1.9375z"/>
</symbol>
<symbol id="ap" overflow="visible">
<path d="m4.4688-1.7344h-0.23438c-0.0625 0.29688-0.125 0.73438-0.23438 0.89062-0.0625 0.078125-0.71875 0.078125-0.9375 0.078125h-1.7969l1.0625-1.0312c1.5469-1.375 2.1406-1.9062 2.1406-2.9062 0-1.1406-0.89062-1.9375-2.1094-1.9375-1.125 0-1.8594 0.92188-1.8594 1.8125 0 0.54688 0.5 0.54688 0.53125 0.54688 0.17188 0 0.51562-0.10938 0.51562-0.53125 0-0.25-0.1875-0.51562-0.53125-0.51562-0.078125 0-0.09375 0-0.125 0.015625 0.21875-0.65625 0.76562-1.0156 1.3438-1.0156 0.90625 0 1.3281 0.8125 1.3281 1.625 0 0.79688-0.48438 1.5781-1.0469 2.2031l-1.9062 2.125c-0.10938 0.10938-0.10938 0.14062-0.10938 0.375h3.7031z"/>
</symbol>
<symbol id="ao" overflow="visible">
<path d="m4.6875-1.6406v-0.3125h-0.98438v-4.5312c0-0.20312 0-0.26562-0.17188-0.26562-0.078125 0-0.10938 0-0.1875 0.125l-3.0625 4.6719v0.3125h2.6562v0.85938c0 0.35938-0.03125 0.46875-0.76562 0.46875h-0.20312v0.3125c0.40625-0.03125 0.92188-0.03125 1.3438-0.03125s0.9375 0 1.3594 0.03125v-0.3125h-0.21875c-0.73438 0-0.75-0.10938-0.75-0.46875v-0.85938zm-1.7031-0.3125h-2.4219l2.4219-3.7188z"/>
</symbol>
<symbol id="o" overflow="visible">
<path d="m4.5625-2.0312c0-1.2656-0.89062-2.2188-2-2.2188-0.67188 0-1.0469 0.5-1.25 0.98438v-0.25c0-2.5156 1.2344-2.875 1.75-2.875 0.23438 0 0.65625 0.0625 0.875 0.40625-0.15625 0-0.54688 0-0.54688 0.4375 0 0.3125 0.23438 0.46875 0.45312 0.46875 0.15625 0 0.46875-0.09375 0.46875-0.48438 0-0.59375-0.4375-1.0781-1.2656-1.0781-1.2812 0-2.625 1.2812-2.625 3.4844 0 2.6719 1.1562 3.375 2.0781 3.375 1.1094 0 2.0625-0.9375 2.0625-2.25zm-0.90625-0.015625c0 0.48438 0 0.98438-0.17188 1.3438-0.29688 0.59375-0.75 0.64062-0.98438 0.64062-0.625 0-0.92188-0.59375-0.98438-0.75-0.1875-0.46875-0.1875-1.2656-0.1875-1.4375 0-0.78125 0.32812-1.7812 1.2188-1.7812 0.17188 0 0.625 0 0.9375 0.625 0.17188 0.35938 0.17188 0.875 0.17188 1.3594z"/>
</symbol>
<symbol id="n" overflow="visible">
<path d="m4.5625-1.6719c0-0.35938-0.10938-0.8125-0.5-1.2344-0.1875-0.20312-0.34375-0.29688-0.98438-0.70312 0.71875-0.375 1.2031-0.89062 1.2031-1.5469 0-0.92188-0.875-1.4844-1.7812-1.4844-1 0-1.8125 0.73438-1.8125 1.6719 0 0.17188 0.015625 0.625 0.4375 1.0938 0.10938 0.10938 0.48438 0.35938 0.73438 0.53125-0.57812 0.29688-1.4375 0.84375-1.4375 1.8438 0 1.0469 1.0156 1.7188 2.0625 1.7188 1.125 0 2.0781-0.82812 2.0781-1.8906zm-0.71875-3.4844c0 0.57812-0.39062 1.0469-0.98438 1.3906l-1.2344-0.79688c-0.45312-0.29688-0.5-0.625-0.5-0.79688 0-0.60938 0.65625-1.0312 1.3594-1.0312 0.71875 0 1.3594 0.51562 1.3594 1.2344zm0.21875 3.8438c0 0.73438-0.75 1.25-1.5625 1.25-0.85938 0-1.5781-0.60938-1.5781-1.4375 0-0.57812 0.3125-1.2188 1.1562-1.6875l1.2344 0.78125c0.28125 0.1875 0.75 0.48438 0.75 1.0938z"/>
</symbol>
<symbol id="m" overflow="visible">
<path d="m4.1719 0v-0.3125h-0.3125c-0.90625 0-0.92188-0.10938-0.92188-0.46875v-5.5938c0-0.25 0-0.26562-0.23438-0.26562-0.625 0.64062-1.5 0.64062-1.8125 0.64062v0.3125c0.20312 0 0.78125 0 1.2969-0.26562v5.1719c0 0.35938-0.03125 0.46875-0.92188 0.46875h-0.3125v0.3125c0.34375-0.03125 1.2031-0.03125 1.6094-0.03125 0.39062 0 1.2656 0 1.6094 0.03125z"/>
</symbol>
<symbol id="an" overflow="visible">
<path d="m6.625-2.3281c0-0.09375 0-0.17188-0.125-0.17188-0.10938 0-0.10938 0.0625-0.125 0.17188-0.078125 1.4219-1.1406 2.2344-2.2344 2.2344-0.60938 0-2.5625-0.32812-2.5625-3.3125 0-2.9688 1.9531-3.3125 2.5625-3.3125 1.0781 0 1.9688 0.90625 2.1719 2.3594 0.015625 0.14062 0.015625 0.17188 0.15625 0.17188 0.15625 0 0.15625-0.03125 0.15625-0.23438v-2.3594c0-0.17188 0-0.25-0.10938-0.25-0.03125 0-0.078125 0-0.15625 0.125l-0.5 0.73438c-0.35938-0.35938-0.875-0.85938-1.8281-0.85938-1.875 0-3.4688 1.5938-3.4688 3.625 0 2.0625 1.6094 3.625 3.4688 3.625 1.625 0 2.5938-1.3906 2.5938-2.5469z"/>
</symbol>
<symbol id="am" overflow="visible">
<path d="m7.1875-0.20312c0-0.10938-0.09375-0.10938-0.23438-0.10938-0.60938 0-0.60938-0.0625-0.64062-0.35938l-0.60938-6.2188c-0.015625-0.20312-0.015625-0.25-0.1875-0.25-0.15625 0-0.20312 0.078125-0.26562 0.17188l-3.4688 5.8281c-0.39062 0.65625-0.78125 0.79688-1.2188 0.82812-0.125 0.015625-0.21875 0.015625-0.21875 0.20312 0 0.0625 0.0625 0.10938 0.14062 0.10938 0.26562 0 0.57812-0.03125 0.84375-0.03125 0.34375 0 0.6875 0.03125 1 0.03125 0.0625 0 0.1875 0 0.1875-0.1875 0-0.10938-0.078125-0.125-0.15625-0.125-0.21875-0.015625-0.46875-0.09375-0.46875-0.34375 0-0.125 0.0625-0.23438 0.14062-0.375 0.078125-0.10938 0.078125-0.10938 0.76562-1.2656h2.5c0.015625 0.20312 0.15625 1.5625 0.15625 1.6562 0 0.29688-0.51562 0.32812-0.71875 0.32812-0.14062 0-0.23438 0-0.23438 0.20312 0 0.10938 0.14062 0.10938 0.14062 0.10938 0.40625 0 0.82812-0.03125 1.2344-0.03125 0.25 0 0.89062 0.03125 1.1406 0.03125 0.046875 0 0.17188 0 0.17188-0.20312zm-1.9219-2.4062h-2.2812l1.9531-3.2969z"/>
</symbol>
<symbol id="al" overflow="visible">
<path d="m7-2.1562c0-0.71875-0.57812-1.2969-1.5469-1.4062 1.0312-0.1875 2.0781-0.92188 2.0781-1.875 0-0.73438-0.65625-1.375-1.8438-1.375h-3.3594c-0.1875 0-0.28125 0-0.28125 0.20312 0 0.10938 0.09375 0.10938 0.28125 0.10938 0 0 0.20312 0 0.375 0.015625 0.17188 0.03125 0.26562 0.03125 0.26562 0.17188 0 0.03125-0.015625 0.0625-0.03125 0.1875l-1.3438 5.3438c-0.09375 0.39062-0.125 0.46875-0.90625 0.46875-0.17188 0-0.26562 0-0.26562 0.20312 0 0.10938 0.09375 0.10938 0.26562 0.10938h3.5625c1.5781 0 2.75-1.1719 2.75-2.1562zm-0.375-3.3125c0 0.875-0.85938 1.8125-2.0625 1.8125h-1.4688l0.625-2.4688c0.09375-0.34375 0.10938-0.375 0.53125-0.375h1.2969c0.875 0 1.0781 0.59375 1.0781 1.0312zm-0.54688 3.2031c0 0.98438-0.89062 1.9531-2.0781 1.9531h-1.3438-0.21875c-0.10938-0.015625-0.14062-0.03125-0.14062-0.10938 0-0.03125 0-0.046875 0.0625-0.21875l0.6875-2.7812h1.875c0.95312 0 1.1562 0.73438 1.1562 1.1562z"/>
</symbol>
<symbol id="ak" overflow="visible">
<path d="m6.7344-4.7344 0.26562-1.7344c0.015625-0.046875 0.015625-0.14062 0.015625-0.17188 0-0.10938-0.09375-0.10938-0.26562-0.10938h-5.5312c-0.23438 0-0.25 0.015625-0.32812 0.20312l-0.59375 1.75c0 0.015625-0.0625 0.1875-0.0625 0.1875 0 0.046875 0.0625 0.10938 0.125 0.10938 0.09375 0 0.10938-0.0625 0.17188-0.21875 0.53125-1.5469 0.79688-1.7188 2.2656-1.7188h0.39062c0.28125 0 0.28125 0.03125 0.28125 0.125 0 0.046875-0.03125 0.17188-0.046875 0.20312l-1.3281 5.3281c-0.09375 0.35938-0.125 0.46875-1.1875 0.46875-0.35938 0-0.42188 0-0.42188 0.1875 0 0.125 0.10938 0.125 0.17188 0.125 0.26562 0 0.54688-0.015625 0.8125-0.015625l0.85938-0.015625 0.82812 0.015625c0.28125 0 0.57812 0.015625 0.85938 0.015625 0.09375 0 0.21875 0 0.21875-0.20312 0-0.10938-0.078125-0.10938-0.34375-0.10938-0.23438 0-0.375 0-0.625-0.015625-0.29688-0.03125-0.375-0.0625-0.375-0.21875 0 0 0-0.0625 0.046875-0.20312l1.3125-5.2969c0.078125-0.28125 0.10938-0.34375 0.23438-0.375 0.09375-0.015625 0.42188-0.015625 0.625-0.015625 1.0156 0 1.4531 0.03125 1.4531 0.8125 0 0.15625-0.03125 0.54688-0.078125 0.79688 0 0.046875-0.03125 0.15625-0.03125 0.1875 0 0.0625 0.03125 0.14062 0.125 0.14062 0.10938 0 0.125-0.078125 0.15625-0.23438z"/>
</symbol>
<symbol id="aj" overflow="visible">
<path d="m4.4219-7.2812c0-0.10938-0.078125-0.20312-0.1875-0.20312-0.078125 0-0.14062 0.03125-0.17188 0.09375l-3.4688 9.5c-0.046875 0.14062-0.046875 0.1875-0.046875 0.1875 0 0.10938 0.09375 0.20312 0.20312 0.20312 0.125 0 0.15625-0.078125 0.21875-0.25l3.4062-9.3438c0.046875-0.14062 0.046875-0.1875 0.046875-0.1875z"/>
</symbol>
<symbol id="ai" overflow="visible">
<path d="m6.8281-4.5-0.1875-2.25h-6.0938l-0.1875 2.25h0.25c0.14062-1.6094 0.28125-1.9375 1.7969-1.9375 0.17188 0 0.4375 0 0.53125 0.015625 0.21875 0.046875 0.21875 0.15625 0.21875 0.375v5.2656c0 0.32812 0 0.46875-1.0469 0.46875h-0.40625v0.3125c0.40625-0.03125 1.4219-0.03125 1.8906-0.03125 0.45312 0 1.4844 0 1.8906 0.03125v-0.3125h-0.40625c-1.0469 0-1.0469-0.14062-1.0469-0.46875v-5.2656c0-0.1875 0-0.32812 0.1875-0.375 0.10938-0.015625 0.375-0.015625 0.5625-0.015625 1.5156 0 1.6562 0.32812 1.7969 1.9375z"/>
</symbol>
<symbol id="l" overflow="visible">
<path d="m4.1406-1.1875c0-0.09375-0.078125-0.125-0.14062-0.125-0.078125 0-0.10938 0.0625-0.125 0.14062-0.34375 1.0312-1.25 1.0312-1.3438 1.0312-0.5 0-0.89062-0.29688-1.125-0.67188-0.29688-0.46875-0.29688-1.125-0.29688-1.4844h2.7812c0.21875 0 0.25 0 0.25-0.21875 0-0.98438-0.54688-1.9531-1.7812-1.9531-1.1562 0-2.0781 1.0312-2.0781 2.2812 0 1.3281 1.0469 2.2969 2.1875 2.2969 1.2188 0 1.6719-1.1094 1.6719-1.2969zm-0.65625-1.3281h-2.375c0.0625-1.4844 0.90625-1.7344 1.25-1.7344 1.0156 0 1.125 1.3438 1.125 1.7344z"/>
</symbol>
<symbol id="ah" overflow="visible">
<path d="m8.1094 0v-0.3125c-0.51562 0-0.76562 0-0.78125-0.29688v-1.9062c0-0.85938 0-1.1562-0.3125-1.5156-0.14062-0.17188-0.46875-0.375-1.0469-0.375-0.82812 0-1.2812 0.59375-1.4375 0.98438-0.14062-0.875-0.875-0.98438-1.3281-0.98438-0.73438 0-1.2031 0.42188-1.4844 1.0469v-1.0469l-1.4062 0.10938v0.3125c0.70312 0 0.78125 0.0625 0.78125 0.5625v2.6719c0 0.4375-0.10938 0.4375-0.78125 0.4375v0.3125l1.1406-0.03125 1.1094 0.03125v-0.3125c-0.67188 0-0.78125 0-0.78125-0.4375v-1.8438c0-1.0312 0.71875-1.5938 1.3438-1.5938 0.64062 0 0.75 0.53125 0.75 1.1094v2.3281c0 0.4375-0.10938 0.4375-0.78125 0.4375v0.3125l1.125-0.03125 1.1094 0.03125v-0.3125c-0.65625 0-0.76562 0-0.76562-0.4375v-1.8438c0-1.0312 0.70312-1.5938 1.3438-1.5938 0.625 0 0.73438 0.53125 0.73438 1.1094v2.3281c0 0.4375-0.10938 0.4375-0.78125 0.4375v0.3125l1.125-0.03125z"/>
</symbol>
<symbol id="ag" overflow="visible">
<path d="m5.1875-2.1562c0-1.2656-0.95312-2.25-2.0781-2.25-0.78125 0-1.2031 0.4375-1.3906 0.65625v-0.65625l-1.4375 0.10938v0.3125c0.70312 0 0.78125 0.0625 0.78125 0.5v4.6562c0 0.45312-0.10938 0.45312-0.78125 0.45312v0.3125l1.1094-0.03125 1.125 0.03125v-0.3125c-0.65625 0-0.76562 0-0.76562-0.45312v-1.7656c0.046875 0.17188 0.46875 0.70312 1.2188 0.70312 1.1875 0 2.2188-0.98438 2.2188-2.2656zm-0.82812 0c0 1.2031-0.6875 2.0469-1.4219 2.0469-0.40625 0-0.78125-0.20312-1.0469-0.60938-0.14062-0.20312-0.14062-0.21875-0.14062-0.42188v-2.2188c0.28125-0.51562 0.76562-0.79688 1.2812-0.79688 0.73438 0 1.3281 0.875 1.3281 2z"/>
</symbol>
<symbol id="k" overflow="visible">
<path d="m3.625-3.7969c0-0.3125-0.3125-0.60938-0.73438-0.60938-0.73438 0-1.0938 0.67188-1.2188 1.0938v-1.0938l-1.3906 0.10938v0.3125c0.70312 0 0.78125 0.0625 0.78125 0.5625v2.6719c0 0.4375-0.10938 0.4375-0.78125 0.4375v0.3125l1.1406-0.03125c0.39062 0 0.85938 0 1.2656 0.03125v-0.3125h-0.21875c-0.73438 0-0.75-0.10938-0.75-0.46875v-1.5312c0-0.98438 0.42188-1.875 1.1719-1.875 0.0625 0 0.09375 0 0.10938 0.015625-0.03125 0-0.23438 0.125-0.23438 0.39062s0.21875 0.42188 0.4375 0.42188c0.17188 0 0.42188-0.125 0.42188-0.4375z"/>
</symbol>
<symbol id="j" overflow="visible">
<path d="m4.8125-0.89062v-0.5625h-0.25v0.5625c0 0.57812-0.25 0.64062-0.35938 0.64062-0.32812 0-0.35938-0.45312-0.35938-0.5v-1.9844c0-0.42188 0-0.8125-0.35938-1.1875-0.39062-0.39062-0.89062-0.54688-1.375-0.54688-0.8125 0-1.5 0.46875-1.5 1.125 0 0.29688 0.20312 0.46875 0.45312 0.46875 0.28125 0 0.46875-0.20312 0.46875-0.45312 0-0.125-0.0625-0.45312-0.51562-0.45312 0.26562-0.35938 0.76562-0.46875 1.0781-0.46875 0.48438 0 1.0625 0.39062 1.0625 1.2812v0.35938c-0.51562 0.03125-1.2188 0.0625-1.8438 0.35938-0.75 0.34375-1 0.85938-1 1.2969 0 0.8125 0.96875 1.0625 1.5938 1.0625 0.67188 0 1.125-0.40625 1.3125-0.85938 0.046875 0.39062 0.3125 0.8125 0.78125 0.8125 0.20312 0 0.8125-0.14062 0.8125-0.95312zm-1.6562-0.5c0 0.9375-0.71875 1.2812-1.1719 1.2812-0.48438 0-0.89062-0.34375-0.89062-0.84375 0-0.54688 0.40625-1.375 2.0625-1.4375z"/>
</symbol>
<symbol id="af" overflow="visible">
<path d="m3.3125-1.2344v-0.5625h-0.25v0.54688c0 0.73438-0.29688 1.1094-0.67188 1.1094-0.67188 0-0.67188-0.90625-0.67188-1.0781v-2.7656h1.4375v-0.3125h-1.4375v-1.8281h-0.25c0 0.8125-0.29688 1.875-1.2812 1.9219v0.21875h0.84375v2.75c0 1.2188 0.9375 1.3438 1.2969 1.3438 0.70312 0 0.98438-0.70312 0.98438-1.3438z"/>
</symbol>
<symbol id="ae" overflow="visible">
<path d="m5.3281 0v-0.3125c-0.6875 0-0.76562-0.0625-0.76562-0.5625v-3.5312l-1.4688 0.10938v0.3125c0.6875 0 0.78125 0.0625 0.78125 0.5625v1.7656c0 0.875-0.48438 1.5469-1.2188 1.5469-0.82812 0-0.875-0.46875-0.875-0.98438v-3.3125l-1.4688 0.10938v0.3125c0.78125 0 0.78125 0.03125 0.78125 0.90625v1.5c0 0.78125 0 1.6875 1.5156 1.6875 0.5625 0 1-0.28125 1.2812-0.89062v0.89062z"/>
</symbol>
<symbol id="ad" overflow="visible">
<path d="m2.0312-0.015625c0-0.625-0.25-1.0469-0.64062-1.0469-0.35938 0-0.53125 0.28125-0.53125 0.53125 0 0.26562 0.17188 0.53125 0.53125 0.53125 0.14062 0 0.28125-0.0625 0.39062-0.15625 0.015625 0.78125-0.25 1.3906-0.6875 1.8594-0.0625 0.0625-0.078125 0.078125-0.078125 0.10938 0 0.078125 0.046875 0.10938 0.09375 0.10938 0.125 0 0.92188-0.78125 0.92188-1.9375z"/>
</symbol>
<symbol id="ac" overflow="visible">
<path d="m3.5312-1.7344c0-0.85938-0.6875-1.5-1.5-1.5-0.82812 0-1.4844 0.67188-1.4844 1.4844 0 0.84375 0.67188 1.5 1.4844 1.5 0.82812 0 1.5-0.67188 1.5-1.4844zm-0.34375-0.015625c0 0.64062-0.51562 1.1562-1.1562 1.1562s-1.1406-0.53125-1.1406-1.1406c0-0.65625 0.51562-1.1719 1.1406-1.1719 0.65625 0 1.1562 0.53125 1.1562 1.1562z"/>
</symbol>
<symbol id="ab" overflow="visible">
<path d="m-1.8594-4.9688c-0.98438 0-1.8125 0.65625-2.0156 1.4844l-0.29688 1.2812c-0.15625 0.625-0.6875 1-1.2656 1-0.70312 0-1.3125-0.53125-1.3125-1.3125 0-1.6562 1.6406-1.875 2.0781-1.9375 0.0625-0.015625 0.125-0.015625 0.125-0.125 0-0.125-0.046875-0.125-0.23438-0.125h-2c-0.17188 0-0.25 0-0.25 0.10938 0 0.0625 0.015625 0.078125 0.14062 0.14062l0.5625 0.35938c-0.29688 0.29688-0.70312 0.70312-0.70312 1.5938 0 1.1094 0.875 1.9375 1.9375 1.9375 0.82812 0 1.5625-0.53125 1.8281-1.2969 0.03125-0.10938 0.15625-0.625 0.32812-1.3281 0.0625-0.26562 0.14062-0.5625 0.5-0.84375 0.26562-0.20312 0.59375-0.3125 0.92188-0.3125 0.70312 0 1.4219 0.5 1.4219 1.3438 0 0.28125-0.046875 1.0469-0.53125 1.5781-0.54688 0.57812-1.1719 0.60938-1.5312 0.60938-0.10938 0.015625-0.10938 0.09375-0.10938 0.125 0 0.125 0.078125 0.125 0.25 0.125h2c0.17188 0 0.23438 0 0.23438-0.10938 0-0.0625-0.015625-0.078125-0.125-0.14062 0 0-0.046875-0.03125-0.57812-0.35938 0.34375-0.3125 0.70312-0.95312 0.70312-1.8438 0-1.1562-0.96875-1.9531-2.0781-1.9531z"/>
</symbol>
<symbol id="d" overflow="visible">
<path d="m-2.1406-4.6875c-1.2656 0-2.3281 0.98438-2.3281 2.1875 0 1.25 1.0938 2.2188 2.3281 2.2188 1.2969 0 2.25-1.0312 2.25-2.2031 0-1.2031-0.98438-2.2031-2.25-2.2031zm-0.078125 0.8125c0.35938 0 0.90625 0 1.3438 0.21875 0.45312 0.23438 0.73438 0.67188 0.73438 1.1562 0 0.4375-0.20312 0.875-0.67188 1.1406-0.4375 0.25-1.0469 0.25-1.4062 0.25-0.39062 0-0.92188 0-1.3594-0.23438-0.45312-0.26562-0.67188-0.73438-0.67188-1.1406 0-0.4375 0.21875-0.85938 0.65625-1.125 0.42188-0.26562 1-0.26562 1.375-0.26562z"/>
</symbol>
<symbol id="c" overflow="visible">
<path d="m0-2.5469h-0.3125c0 0.67188 0 0.78125-0.4375 0.78125h-6.1719l0.10938 1.4375h0.3125c0-0.70312 0.0625-0.78125 0.5625-0.78125h5.1875c0.4375 0 0.4375 0.10938 0.4375 0.78125h0.3125l-0.03125-1.1094z"/>
</symbol>
<symbol id="b" overflow="visible">
<path d="m0-5.3281h-0.3125c0 0.6875-0.0625 0.76562-0.5625 0.76562h-3.5312l0.10938 1.4688h0.3125c0-0.6875 0.0625-0.78125 0.5625-0.78125h1.7656c0.875 0 1.5469 0.48438 1.5469 1.2188 0 0.82812-0.46875 0.875-0.98438 0.875h-3.3125l0.10938 1.4688h0.3125c0-0.78125 0.03125-0.78125 0.90625-0.78125h1.5c0.78125 0 1.6875 0 1.6875-1.5156 0-0.5625-0.28125-1-0.89062-1.2812h0.89062z"/>
</symbol>
<symbol id="u" overflow="visible">
<path d="m-2.1562-5.1875c-1.2656 0-2.25 0.96875-2.25 2.1094 0 0.78125 0.46875 1.2031 0.64062 1.3594h-3.1562l0.10938 1.4375h0.3125c0-0.70312 0.0625-0.78125 0.5625-0.78125h5.9375v-0.25l-0.625-0.35938c0.23438-0.14062 0.73438-0.5625 0.73438-1.2969 0-1.1875-0.98438-2.2188-2.2656-2.2188zm0 0.82812c0.35938 0 0.95312 0.015625 1.4062 0.29688 0.3125 0.21875 0.64062 0.59375 0.64062 1.125 0 0.45312-0.23438 0.8125-0.60938 1.0469-0.20312 0.14062-0.23438 0.14062-0.42188 0.14062h-2.0469c-0.1875 0-0.20312 0-0.35938-0.10938-0.5625-0.39062-0.64062-0.9375-0.64062-1.1719 0-0.45312 0.26562-0.8125 0.64062-1.0469 0.40625-0.26562 0.96875-0.28125 1.3906-0.28125z"/>
</symbol>
<symbol id="h" overflow="visible">
<path d="m0-2.4688h-0.3125c0 0.67188-0.046875 0.70312-0.4375 0.70312h-3.6562l0.10938 1.3906h0.3125c0-0.64062 0.0625-0.73438 0.54688-0.73438h2.6875c0.4375 0 0.4375 0.10938 0.4375 0.78125h0.3125l-0.03125-1.0938c0-0.35938 0.015625-0.70312 0.03125-1.0469zm-6.0156 0.5625c-0.28125 0-0.53125 0.21875-0.53125 0.51562 0 0.34375 0.28125 0.54688 0.53125 0.54688 0.26562 0 0.51562-0.23438 0.51562-0.53125 0-0.34375-0.26562-0.53125-0.51562-0.53125z"/>
</symbol>
<symbol id="g" overflow="visible">
<path d="m0-5.25h-0.3125c0 0.6875-0.0625 0.78125-0.5625 0.78125h-6.0469l0.10938 1.4219h0.3125c0-0.6875 0.0625-0.76562 0.5625-0.76562h2.1562c-0.35938 0.28125-0.625 0.71875-0.625 1.25 0 1.1719 0.98438 2.2188 2.2656 2.2188 1.2656 0 2.25-0.96875 2.25-2.1094 0-0.64062-0.34375-1.0781-0.65625-1.3281h0.65625zm-1.1719 1.4688c0.17188 0 0.1875 0 0.35938 0.10938 0.48438 0.29688 0.70312 0.73438 0.70312 1.1719 0 0.45312-0.26562 0.8125-0.64062 1.0469-0.40625 0.25-0.96875 0.28125-1.3906 0.28125-0.35938 0-0.95312-0.015625-1.4062-0.29688-0.3125-0.21875-0.64062-0.59375-0.64062-1.1406 0-0.34375 0.15625-0.76562 0.59375-1.0625 0.17188-0.10938 0.1875-0.10938 0.375-0.10938z"/>
</symbol>
<symbol id="f" overflow="visible">
<path d="m-0.89062-4.8125h-0.5625v0.25h0.5625c0.57812 0 0.64062 0.25 0.64062 0.35938 0 0.32812-0.45312 0.35938-0.5 0.35938h-1.9844c-0.42188 0-0.8125 0-1.1875 0.35938-0.39062 0.39062-0.54688 0.89062-0.54688 1.375 0 0.8125 0.46875 1.5 1.125 1.5 0.29688 0 0.46875-0.20312 0.46875-0.45312 0-0.28125-0.20312-0.46875-0.45312-0.46875-0.125 0-0.45312 0.0625-0.45312 0.51562-0.35938-0.26562-0.46875-0.76562-0.46875-1.0781 0-0.48438 0.39062-1.0625 1.2812-1.0625h0.35938c0.03125 0.51562 0.0625 1.2188 0.35938 1.8438 0.34375 0.75 0.85938 1 1.2969 1 0.8125 0 1.0625-0.96875 1.0625-1.5938 0-0.67188-0.40625-1.125-0.85938-1.3125 0.39062-0.046875 0.8125-0.3125 0.8125-0.78125 0-0.20312-0.14062-0.8125-0.95312-0.8125zm-0.5 1.6562c0.9375 0 1.2812 0.71875 1.2812 1.1719 0 0.48438-0.34375 0.89062-0.84375 0.89062-0.54688 0-1.375-0.40625-1.4375-2.0625z"/>
</symbol>
<symbol id="t" overflow="visible">
<path d="m-1.1875-4.1406c-0.09375 0-0.125 0.078125-0.125 0.14062 0 0.078125 0.0625 0.10938 0.14062 0.125 1.0312 0.34375 1.0312 1.25 1.0312 1.3438 0 0.5-0.29688 0.89062-0.67188 1.125-0.46875 0.29688-1.125 0.29688-1.4844 0.29688v-2.7812c0-0.21875 0-0.25-0.21875-0.25-0.98438 0-1.9531 0.54688-1.9531 1.7812 0 1.1562 1.0312 2.0781 2.2812 2.0781 1.3281 0 2.2969-1.0469 2.2969-2.1875 0-1.2188-1.1094-1.6719-1.2969-1.6719zm-1.3281 0.65625v2.375c-1.4844-0.0625-1.7344-0.90625-1.7344-1.25 0-1.0156 1.3438-1.125 1.7344-1.125z"/>
</symbol>
<symbol id="aa" overflow="visible">
<path d="m-0.015625-2.0312c-0.625 0-1.0469 0.25-1.0469 0.64062 0 0.35938 0.28125 0.53125 0.53125 0.53125 0.26562 0 0.53125-0.17188 0.53125-0.53125 0-0.14062-0.0625-0.28125-0.15625-0.39062 0.78125-0.015625 1.3906 0.25 1.8594 0.6875 0.0625 0.0625 0.078125 0.078125 0.10938 0.078125 0.078125 0 0.10938-0.046875 0.10938-0.09375 0-0.125-0.78125-0.92188-1.9375-0.92188z"/>
</symbol>
<symbol id="e" overflow="visible">
<path d="m-4.0312-4.8281c-0.17188 0-0.48438 0.10938-0.48438 0.5 0 0.20312 0.0625 0.64062 0.46875 1.0625-0.32812 0.42188-0.35938 0.82812-0.35938 1.0469 0 0.9375 0.6875 1.625 1.4531 1.625 0.4375 0 0.8125-0.21875 1.0312-0.46875 0.14062 0.125 0.46875 0.3125 0.82812 0.3125 0.3125 0 0.6875-0.14062 0.89062-0.45312 0.15625 0.60938 0.59375 0.92188 0.98438 0.92188 0.71875 0 1.2656-0.98438 1.2656-2.2031 0-1.1719-0.5-2.2031-1.2812-2.2031-0.34375 0-0.85938 0.125-1.1406 0.64062-0.26562 0.53125-0.26562 1.1094-0.26562 1.7188 0 0.25 0 0.67188-0.015625 0.75-0.046875 0.3125-0.34375 0.51562-0.67188 0.51562-0.03125 0-0.26562 0-0.46875-0.15625 0.28125-0.39062 0.3125-0.8125 0.3125-1 0-0.92188-0.6875-1.6094-1.4531-1.6094-0.375 0-0.73438 0.15625-0.96875 0.40625-0.34375-0.35938-0.39062-0.71875-0.39062-0.89062 0 0 0-0.078125 0.015625-0.10938 0.03125 0.10938 0.14062 0.17188 0.26562 0.17188 0.17188 0 0.28125-0.14062 0.28125-0.29688 0-0.09375-0.0625-0.28125-0.29688-0.28125zm1.0781 1.75c0.26562 0 0.59375 0 0.84375 0.15625 0.10938 0.078125 0.39062 0.3125 0.39062 0.70312 0 0.875-1 0.875-1.2188 0.875-0.26562 0-0.59375-0.015625-0.84375-0.15625-0.10938-0.078125-0.39062-0.3125-0.39062-0.71875 0-0.85938 0.98438-0.85938 1.2188-0.85938zm3.7344-1.0938c0.54688 0 1.0469 0.70312 1.0469 1.6719 0 1.0156-0.51562 1.7031-1.0469 1.7031-0.45312 0-0.82812-0.375-0.84375-0.8125v-0.59375c0-0.85938 0-1.9688 0.84375-1.9688z"/>
</symbol>
<symbol id="z" overflow="visible">
<path d="m-1.2812-3.5938c-0.51562 0-0.82812 0.29688-0.9375 0.42188-0.32812 0.32812-0.40625 0.71875-0.48438 1.1406-0.10938 0.5625-0.23438 1.2188-0.8125 1.2188-0.35938 0-0.76562-0.25-0.76562-1.1094 0-1.0938 0.90625-1.1562 1.2031-1.1719 0.09375 0 0.09375-0.10938 0.09375-0.10938 0-0.14062-0.046875-0.14062-0.23438-0.14062h-1.0156c-0.15625 0-0.23438 0-0.23438 0.10938 0 0.046875 0 0.078125 0.125 0.20312 0.03125 0.03125 0.125 0.125 0.15625 0.17188-0.28125 0.375-0.28125 0.78125-0.28125 0.9375 0 1.2188 0.67188 1.5938 1.2344 1.5938 0.34375 0 0.625-0.15625 0.84375-0.42188 0.25-0.32812 0.3125-0.60938 0.45312-1.3281 0.046875-0.21875 0.20312-1.0312 0.92188-1.0312 0.5 0 0.90625 0.34375 0.90625 1.125 0 0.84375-0.5625 1.2031-1.4219 1.3906-0.125 0.03125-0.15625 0.03125-0.15625 0.14062 0 0.125 0.0625 0.125 0.23438 0.125h1.3281c0.17188 0 0.23438 0 0.23438-0.10938 0-0.046875-0.015625-0.0625-0.20312-0.25-0.015625-0.015625-0.03125-0.015625-0.21875-0.20312 0.40625-0.4375 0.42188-0.89062 0.42188-1.0938 0-1.1406-0.67188-1.6094-1.3906-1.6094z"/>
</symbol>
<symbol id="y" overflow="visible">
<path d="m-1.2344-3.3125h-0.5625v0.25h0.54688c0.73438 0 1.1094 0.29688 1.1094 0.67188 0 0.67188-0.90625 0.67188-1.0781 0.67188h-2.7656v-1.4375h-0.3125v1.4375h-1.8281v0.25c0.8125 0 1.875 0.29688 1.9219 1.2812h0.21875v-0.84375h2.75c1.2188 0 1.3438-0.9375 1.3438-1.2969 0-0.70312-0.70312-0.98438-1.3438-0.98438z"/>
</symbol>
<symbol id="x" overflow="visible">
<path d="m-7.2812-4.4219c-0.10938 0-0.20312 0.09375-0.20312 0.20312 0 0.14062 0.10938 0.1875 0.20312 0.21875l9.3906 3.3906c0.14062 0.046875 0.1875 0.046875 0.1875 0.046875 0.10938 0 0.20312-0.078125 0.20312-0.1875 0-0.14062-0.10938-0.1875-0.20312-0.21875l-9.3906-3.3906c-0.14062-0.0625-0.1875-0.0625-0.1875-0.0625z"/>
</symbol>
<symbol id="w" overflow="visible">
<path d="m0-4.1719h-0.3125v0.3125c0 0.90625-0.10938 0.92188-0.46875 0.92188h-5.5938c-0.25 0-0.26562 0-0.26562 0.23438 0.64062 0.625 0.64062 1.5 0.64062 1.8125h0.3125c0-0.20312 0-0.78125-0.26562-1.2969h5.1719c0.35938 0 0.46875 0.03125 0.46875 0.92188v0.3125h0.3125c-0.03125-0.34375-0.03125-1.2031-0.03125-1.6094 0-0.39062 0-1.2656 0.03125-1.6094z"/>
</symbol>
<symbol id="i" overflow="visible">
<path d="m-3.1875-4.5781c-0.79688 0-1.5938 0.046875-2.3281 0.39062-0.96875 0.45312-1.125 1.2812-1.125 1.6875 0 0.60938 0.26562 1.3281 1.1875 1.75 0.6875 0.3125 1.4688 0.35938 2.2656 0.35938 0.75 0 1.6406-0.03125 2.4062-0.45312 0.79688-0.42188 1-1.1562 1-1.6406 0-0.53125-0.20312-1.2969-1.1562-1.7344-0.6875-0.3125-1.4688-0.35938-2.25-0.35938zm-0.125 0.8125c0.75 0 1.4219 0 2.0625 0.10938 0.95312 0.15625 1.25 0.71875 1.25 1.1719 0 0.39062-0.25 0.98438-1.2031 1.1562-0.59375 0.10938-1.5156 0.10938-2.1094 0.10938-0.64062 0-1.2969 0-1.8281-0.078125-1.1875-0.1875-1.2812-0.9375-1.2812-1.1875 0-0.32812 0.1875-0.98438 1.1719-1.1719 0.5625-0.10938 1.3125-0.10938 1.9375-0.10938z"/>
</symbol>
<symbol id="v" overflow="visible">
<path d="m-0.89062-4.8125h-0.5625v0.25h0.5625c0.57812 0 0.64062 0.25 0.64062 0.35938 0 0.32812-0.45312 0.35938-0.5 0.35938h-1.9844c-0.42188 0-0.8125 0-1.1875 0.35938-0.39062 0.39062-0.54688 0.89062-0.54688 1.375 0 0.8125 0.46875 1.5 1.125 1.5 0.29688 0 0.46875-0.20312 0.46875-0.45312 0-0.28125-0.20312-0.46875-0.45312-0.46875-0.125 0-0.45312 0.0625-0.45312 0.51562-0.35938-0.26562-0.46875-0.76562-0.46875-1.0781 0-0.48438 0.39062-1.0625 1.2812-1.0625h0.35938c0.03125 0.51562 0.0625 1.2188 0.35938 1.8438 0.34375 0.75 0.85938 1 1.2969 1 0.8125 0 1.0625-0.96875 1.0625-1.5938 0-0.67188-0.40625-1.125-0.85938-1.3125 0.39062-0.046875 0.8125-0.3125 0.8125-0.78125 0-0.20312-0.14062-0.8125-0.95312-0.8125zm-0.5 1.6562c0.9375 0 1.2812 0.71875 1.2812 1.1719 0 0.48438-0.34375 0.89062-0.84375 0.89062-0.54688 0-1.375-0.40625-1.4375-2.0625zm-5.2031-0.57812c-0.1875 0-0.35938 0.1875-0.35938 0.35938 0 0.15625 0.10938 0.26562 0.17188 0.29688l1.5156 1.2031 0.1875-0.17188-1.2188-1.5156c-0.078125-0.09375-0.1875-0.17188-0.29688-0.17188z"/>
</symbol>
<symbol id="s" overflow="visible">
<path d="m-1.5469-3.9531c-0.35938 0-0.60938 0.1875-0.71875 0.3125-0.28125 0.26562-0.34375 0.5625-0.42188 1-0.078125 0.35938-0.15625 0.75-0.60938 0.75-0.28125 0-0.89062-0.23438-0.89062-1.1094 0-0.25 0.078125-0.75 0.45312-0.89062 0.015625 0.26562 0.23438 0.46875 0.45312 0.46875 0.14062 0 0.29688-0.09375 0.29688-0.3125s-0.17188-0.45312-0.5625-0.45312c-0.45312 0-0.85938 0.42188-0.85938 1.1875 0 1.3125 1.0156 1.6875 1.4531 1.6875 0.78125 0 0.92188-0.73438 0.98438-1.0312 0.10938-0.51562 0.21875-1.0312 0.76562-1.0312 0.25 0 1.0938 0.21875 1.0938 1.4219 0 0.14062 0 0.90625-0.53125 1.1406 0.046875-0.39062-0.25-0.64062-0.53125-0.64062-0.21875 0-0.34375 0.17188-0.34375 0.375 0 0.26562 0.20312 0.5625 0.65625 0.5625 0.5625 0 0.96875-0.57812 0.96875-1.4219 0-1.625-1.2031-2.0156-1.6562-2.0156z"/>
</symbol>
<symbol id="r" overflow="visible">
<path d="m-7.2812-4.4219c-0.10938 0-0.20312 0.078125-0.20312 0.1875 0 0.078125 0.03125 0.14062 0.09375 0.17188l9.5 3.4688c0.14062 0.046875 0.1875 0.046875 0.1875 0.046875 0.10938 0 0.20312-0.09375 0.20312-0.20312 0-0.125-0.078125-0.15625-0.25-0.21875l-9.3438-3.4062c-0.14062-0.046875-0.1875-0.046875-0.1875-0.046875z"/>
</symbol>
<symbol id="q" overflow="visible">
<path d="m2.3906-3.2969c-0.03125 0-0.046875 0-0.21875 0.17188-1.25 1.2344-3.1406 1.5625-4.6719 1.5625-1.7344 0-3.4688-0.375-4.7031-1.6094-0.125-0.125-0.14062-0.125-0.17188-0.125-0.078125 0-0.10938 0.03125-0.10938 0.09375 0 0.10938 0.6875 1 1.9531 1.5938 1.0938 0.5 2.2031 0.625 3.0312 0.625 0.78125 0 1.9844-0.10938 3.125-0.65625 1.2188-0.60938 1.875-1.4531 1.875-1.5625 0-0.0625-0.03125-0.09375-0.10938-0.09375z"/>
</symbol>
<symbol id="p" overflow="visible">
<path d="m-2.5-2.875c-0.76562 0-1.9688 0.10938-3.1094 0.65625-1.2188 0.59375-1.875 1.4531-1.875 1.5469 0 0.0625 0.046875 0.10938 0.10938 0.10938 0.03125 0 0.046875 0 0.23438-0.1875 0.98438-0.98438 2.5625-1.5469 4.6406-1.5469 1.7188 0 3.4688 0.35938 4.7188 1.5938 0.125 0.14062 0.14062 0.14062 0.17188 0.14062 0.0625 0 0.10938-0.046875 0.10938-0.10938 0-0.09375-0.6875-1-1.9531-1.5781-1.0938-0.51562-2.2031-0.625-3.0469-0.625z"/>
</symbol>
<clipPath id="ar">
<path d="m35.879 25h194.27v136.87h-194.27z"/>
</clipPath>
<clipPath id="aq">
<path d="m35.879 8h194.27v153.87h-194.27z"/>
</clipPath>
</defs>
<path transform="matrix(1 0 0 -1 35.878 161.87)" d="m9.0625e-4 -9.375e-5v161.39m38.855-161.39v161.39m38.852-161.39v161.39m38.855-161.39v161.39m38.855-161.39v161.39m38.855-161.39v161.39" fill="none" stroke="#bfbfbf" stroke-miterlimit="10" stroke-width=".3985"/>
<path transform="matrix(1 0 0 -1 35.878 161.87)" d="m9.0625e-4 24.828h194.27m-194.27 49.66h194.27m-194.27 49.656h194.27" fill="none" stroke="#bfbfbf" stroke-miterlimit="10" stroke-width=".3985"/>
<path transform="matrix(1 0 0 -1 35.878 161.87)" d="m9.0625e-4 -9.375e-5v4.2539m38.855-4.2539v4.2539m38.852-4.2539v4.2539m38.855-4.2539v4.2539m38.855-4.2539v4.2539m38.855-4.2539v4.2539m-194.27 157.14v-4.2539m38.855 4.2539v-4.2539m38.852 4.2539v-4.2539m38.855 4.2539v-4.2539m38.855 4.2539v-4.2539m38.855 4.2539v-4.2539" fill="none" stroke="#7f7f7f" stroke-miterlimit="10" stroke-width=".19925"/>
<path transform="matrix(1 0 0 -1 35.878 161.87)" d="m9.0625e-4 24.828h4.25m-4.25 49.66h4.25m-4.25 49.656h4.25m190.02-99.316h-4.2539m4.2539 49.66h-4.2539m4.2539 49.656h-4.2539" fill="none" stroke="#7f7f7f" stroke-miterlimit="10" stroke-width=".19925"/>
<path transform="matrix(1 0 0 -1 35.878 161.87)" d="m9.0625e-4 -9.375e-5v161.39h194.27v-161.39z" fill="none" stroke="#000" stroke-miterlimit="10" stroke-width=".3985"/>
<g clip-path="url(#ar)">
<path d="m35.879 149.46 1.3047-0.83203 1.3008-0.83594 2.6094-1.6641 1.3047-0.83594 1.3008-0.83203 1.3047-0.83203 1.3047-0.83594 2.6094-1.6641 1.3008-0.83203 1.3047-0.83594 2.6094-1.6641 1.3008-0.83594 3.9141-2.4961 1.3047-0.83594 1.3008-0.83203 1.3047-0.83203 1.3047-0.83594 1.3047-0.83203 1.3008-0.83203 1.3047-0.83594 3.9141-2.4961 1.3008-0.83594 2.6094-1.6641 1.3047-0.83594 1.3047-0.83203 1.3008-0.83203 1.3047-0.83203 1.3047-0.83594 1.3047-0.83203 1.3008-0.83203 1.3047-0.83594 2.6094-1.6641 1.3047-0.83594 1.3008-0.83203 2.6094-1.6641 1.3047-0.83594 1.3008-0.83203 1.3047-0.83203 1.3047-0.83594 2.6094-1.6641 1.3008-0.83203 1.3047-0.83594 2.6094-1.6641 1.3008-0.83594 2.6094-1.6641 1.3047-0.83594 1.3047-0.83203 1.3008-0.83203 1.3047-0.83203 1.3047-0.83594 1.3047-0.83203 1.3008-0.83203 1.3047-0.83594 3.9141-2.4961 1.3008-0.83594 2.6094-1.6641 1.3047-0.83594 1.3047-0.83203 1.3008-0.83203 1.3047-0.83594 2.6094-1.6641 1.3008-0.83203 1.3047-0.83594 2.6094-1.6641 1.3047-0.83594 1.3008-0.83203 1.3047-0.83203 1.3047-0.83594 1.3047-0.83203 1.3008-0.83203 1.3047-0.83203 1.3047-0.83594 2.6094-1.6641 1.3008-0.83594 3.9141-2.4961 1.3008-0.83594 2.6094-1.6641 1.3047-0.83594 1.3047-0.83203 1.3008-0.83203 1.3047-0.83594 2.6094-1.6641 1.3008-0.83203 1.3047-0.83594 2.6094-1.6641 1.3047-0.83594 1.3008-0.83203 2.6094-1.6641 1.3047-0.83594 1.3008-0.83203 1.3047-0.83203 1.3047-0.83594 2.6094-1.6641 1.3008-0.83594 3.9141-2.4961 1.3008-0.83594 2.6094-1.6641 1.3047-0.83594 1.3047-0.83203 1.3008-0.83203 1.3047-0.83203 1.3047-0.83594 2.6094-1.6641 1.3008-0.83594 2.6094-1.6641 1.3047-0.83594 1.3008-0.83203 2.6094-1.6641 1.3047-0.83594 1.3047-0.83203 1.3008-0.83203 1.3047-0.83594 2.6094-1.6641 1.3008-0.83203 1.3047-0.83594 1.3086-0.83594v260.71h-194.27z" fill="#0c6dfd" fill-opacity=".1"/>
</g>
<g>
<use x="33.387" y="171.665" xlink:href="#a"/>
<use x="69.751" y="171.665" xlink:href="#ap"/>
<use x="74.7323" y="171.665" xlink:href="#a"/>
<use x="108.605" y="171.665" xlink:href="#ao"/>
<use x="113.5863" y="171.665" xlink:href="#a"/>
<use x="147.459" y="171.665" xlink:href="#o"/>
<use x="152.4403" y="171.665" xlink:href="#a"/>
<use x="186.313" y="171.665" xlink:href="#n"/>
<use x="191.2943" y="171.665" xlink:href="#a"/>
<use x="222.677" y="171.665" xlink:href="#m"/>
<use x="227.6583" y="171.665" xlink:href="#a"/>
<use x="232.6396" y="171.665" xlink:href="#a"/>
<use x="22.395" y="140.179" xlink:href="#o"/>
<use x="27.3763" y="140.179" xlink:href="#a"/>
<use x="22.395" y="90.521" xlink:href="#n"/>
<use x="27.3763" y="90.521" xlink:href="#a"/>
<use x="17.414" y="40.863" xlink:href="#m"/>
<use x="22.3953" y="40.863" xlink:href="#a"/>
<use x="27.3766" y="40.863" xlink:href="#a"/>
</g>
<g clip-path="url(#aq)">
<path transform="matrix(1 0 0 -1 35.878 161.87)" d="m9.0625e-4 12.414 1.3047 0.83203 1.3008 0.83594 2.6094 1.6641 1.3047 0.83594 1.3008 0.83203 1.3047 0.83203 1.3047 0.83594 2.6094 1.6641 1.3008 0.83203 1.3047 0.83594 2.6094 1.6641 1.3008 0.83594 3.9141 2.4961 1.3047 0.83594 1.3008 0.83203 1.3047 0.83203 1.3047 0.83594 1.3047 0.83203 1.3008 0.83203 1.3047 0.83594 3.9141 2.4961 1.3008 0.83594 2.6094 1.6641 1.3047 0.83594 1.3047 0.83203 1.3008 0.83203 1.3047 0.83203 1.3047 0.83594 1.3047 0.83203 1.3008 0.83203 1.3047 0.83594 2.6094 1.6641 1.3047 0.83594 1.3008 0.83203 2.6094 1.6641 1.3047 0.83594 1.3008 0.83203 1.3047 0.83203 1.3047 0.83594 2.6094 1.6641 1.3008 0.83203 1.3047 0.83594 2.6094 1.6641 1.3008 0.83594 2.6094 1.6641 1.3047 0.83594 1.3047 0.83203 1.3008 0.83203 1.3047 0.83203 1.3047 0.83594 1.3047 0.83203 1.3008 0.83203 1.3047 0.83594 3.9141 2.4961 1.3008 0.83594 2.6094 1.6641 1.3047 0.83594 1.3047 0.83203 1.3008 0.83203 1.3047 0.83594 2.6094 1.6641 1.3008 0.83203 1.3047 0.83594 2.6094 1.6641 1.3047 0.83594 1.3008 0.83203 1.3047 0.83203 1.3047 0.83594 1.3047 0.83203 1.3008 0.83203 1.3047 0.83203 1.3047 0.83594 2.6094 1.6641 1.3008 0.83594 3.9141 2.4961 1.3008 0.83594 2.6094 1.6641 1.3047 0.83594 1.3047 0.83203 1.3008 0.83203 1.3047 0.83594 2.6094 1.6641 1.3008 0.83203 1.3047 0.83594 2.6094 1.6641 1.3047 0.83594 1.3008 0.83203 2.6094 1.6641 1.3047 0.83594 1.3008 0.83203 1.3047 0.83203 1.3047 0.83594 2.6094 1.6641 1.3008 0.83594 3.9141 2.4961 1.3008 0.83594 2.6094 1.6641 1.3047 0.83594 1.3047 0.83203 1.3008 0.83203 1.3047 0.83203 1.3047 0.83594 2.6094 1.6641 1.3008 0.83594 2.6094 1.6641 1.3047 0.83594 1.3008 0.83203 2.6094 1.6641 1.3047 0.83594 1.3047 0.83203 1.3008 0.83203 1.3047 0.83594 2.6094 1.6641 1.3008 0.83203 1.3047 0.83594 1.3047 0.83203" fill="none" stroke="#0c6dfd" stroke-miterlimit="10" stroke-width="1.1955"/>
</g>
<g>
<use x="90.423" y="65.959" xlink:href="#am"/>
<use x="167.839" y="115.617" xlink:href="#al"/>
<use x="89.872" y="185.977" xlink:href="#ai"/>
<use x="96.240094" y="185.977" xlink:href="#l"/>
<use x="100.66847" y="185.977" xlink:href="#ah"/>
<use x="108.970304" y="185.977" xlink:href="#ag"/>
<use x="114.774515" y="185.977" xlink:href="#l"/>
<use x="119.202891" y="185.977" xlink:href="#k"/>
<use x="123.105241" y="185.977" xlink:href="#j"/>
<use x="128.086541" y="185.977" xlink:href="#af"/>
<use x="131.960996" y="185.977" xlink:href="#ae"/>
<use x="137.496217" y="185.977" xlink:href="#k"/>
<use x="141.398567" y="185.977" xlink:href="#j"/>
<use x="146.379867" y="185.977" xlink:href="#ad"/>
<use x="152.47" y="185.977" xlink:href="#ak"/>
<use x="159.397992" y="185.977" xlink:href="#aj"/>
<use x="164.38" y="182.362" xlink:href="#ac"/>
<use x="168.96" y="185.977" xlink:href="#an"/>
<use x="8.083" y="162.687" xlink:href="#ab"/>
<use x="8.083" y="157.151779" xlink:href="#d"/>
<use x="8.083" y="152.170479" xlink:href="#c"/>
<use x="8.083" y="149.402869" xlink:href="#b"/>
<use x="8.083" y="143.867649" xlink:href="#u"/>
<use x="8.083" y="138.332428" xlink:href="#h"/>
<use x="8.083" y="135.564818" xlink:href="#c"/>
<use x="8.083" y="132.797207" xlink:href="#h"/>
<use x="8.083" y="130.029597" xlink:href="#g"/>
<use x="8.083" y="124.494377" xlink:href="#f"/>
<use x="8.083" y="119.513077" xlink:href="#g"/>
<use x="8.083" y="113.977856" xlink:href="#t"/>
<use x="8.083" y="109.54948" xlink:href="#aa"/>
<use x="8.083" y="103.465" xlink:href="#s"/>
<use x="8.083" y="98.794533" xlink:href="#r"/>
<use x="8.083" y="93.814" xlink:href="#q"/>
<use x="8.083" y="89.939" xlink:href="#e"/>
<use x="8.083" y="81.640154" xlink:href="#z"/>
<use x="8.083" y="77.709908" xlink:href="#d"/>
<use x="8.083" y="72.728608" xlink:href="#c"/>
<use x="8.083" y="69.960998" xlink:href="#b"/>
<use x="8.083" y="64.425778" xlink:href="#y"/>
<use x="8.083" y="60.551323" xlink:href="#d"/>
<use x="8.083" y="55.570023" xlink:href="#x"/>
<use x="8.083" y="50.588723" xlink:href="#w"/>
<use x="8.083" y="45.607423" xlink:href="#i"/>
<use x="8.083" y="40.626123" xlink:href="#i"/>
<use x="8.083" y="32.317314" xlink:href="#e"/>
<use x="8.083" y="24.018468" xlink:href="#v"/>
<use x="8.083" y="19.037168" xlink:href="#e"/>
<use x="8.083" y="14.055868" xlink:href="#b"/>
<use x="8.083" y="8.520648" xlink:href="#f"/>
<use x="8.083" y="3.541" xlink:href="#p"/>
</g>
</svg>
