<?xml version="1.0" encoding="UTF-8"?>
<svg width="215pt" height="235pt" version="1.1" viewBox="0 0 215 235" xmlns="http://www.w3.org/2000/svg" xmlns:xlink="http://www.w3.org/1999/xlink">
<defs>
<symbol id="g" overflow="visible">
<path d="m7.1406 0v-0.3125h-0.25c-0.76562 0-0.78125-0.10938-0.78125-0.46875v-5.25c0-0.35938 0.015625-0.46875 0.78125-0.46875h0.25v-0.3125c-0.35938 0.03125-1.0938 0.03125-1.4688 0.03125s-1.125 0-1.4688-0.03125v0.3125h0.23438c0.76562 0 0.78125 0.10938 0.78125 0.46875v2.3281h-2.9688v-2.3281c0-0.35938 0.015625-0.46875 0.78125-0.46875h0.23438v-0.3125c-0.34375 0.03125-1.0781 0.03125-1.4688 0.03125-0.375 0-1.125 0-1.4688-0.03125v0.3125h0.23438c0.76562 0 0.79688 0.10938 0.79688 0.46875v5.25c0 0.35938-0.03125 0.46875-0.79688 0.46875h-0.23438v0.3125c0.34375-0.03125 1.0938-0.03125 1.4688-0.03125s1.125 0 1.4688 0.03125v-0.3125h-0.23438c-0.76562 0-0.78125-0.10938-0.78125-0.46875v-2.6094h2.9688v2.6094c0 0.35938-0.015625 0.46875-0.78125 0.46875h-0.23438v0.3125c0.34375-0.03125 1.0781-0.03125 1.4531-0.03125 0.39062 0 1.125 0 1.4844 0.03125z"/>
</symbol>
<symbol id="f" overflow="visible">
<path d="m7.1406-6.5v-0.3125l-1.1719 0.03125-1.1562-0.03125v0.3125c1.0156 0 1.0156 0.46875 1.0156 0.73438v4.2656l-3.5156-5.1719c-0.09375-0.125-0.09375-0.14062-0.28125-0.14062h-1.7031v0.3125h0.29688c0.14062 0 0.34375 0.015625 0.48438 0.015625 0.23438 0.03125 0.25 0.046875 0.25 0.23438v5.2031c0 0.26562 0 0.73438-1.0312 0.73438v0.3125l1.1719-0.03125 1.1562 0.03125v-0.3125c-1.0156 0-1.0156-0.46875-1.0156-0.73438v-5.1875c0.046875 0.046875 0.046875 0.0625 0.09375 0.125l4.0625 5.9844c0.09375 0.10938 0.10938 0.125 0.17188 0.125 0.14062 0 0.14062-0.0625 0.14062-0.26562v-5.5c0-0.26562 0-0.73438 1.0312-0.73438z"/>
</symbol>
<symbol id="y" overflow="visible">
<path d="m6.8281-4.5-0.1875-2.25h-6.0938l-0.1875 2.25h0.25c0.14062-1.6094 0.28125-1.9375 1.7969-1.9375 0.17188 0 0.4375 0 0.53125 0.015625 0.21875 0.046875 0.21875 0.15625 0.21875 0.375v5.2656c0 0.32812 0 0.46875-1.0469 0.46875h-0.40625v0.3125c0.40625-0.03125 1.4219-0.03125 1.8906-0.03125 0.45312 0 1.4844 0 1.8906 0.03125v-0.3125h-0.40625c-1.0469 0-1.0469-0.14062-1.0469-0.46875v-5.2656c0-0.1875 0-0.32812 0.1875-0.375 0.10938-0.015625 0.375-0.015625 0.5625-0.015625 1.5156 0 1.6562 0.32812 1.7969 1.9375z"/>
</symbol>
<symbol id="x" overflow="visible">
<path d="m4.1406-1.1875c0-0.09375-0.078125-0.125-0.14062-0.125-0.078125 0-0.10938 0.0625-0.125 0.14062-0.34375 1.0312-1.25 1.0312-1.3438 1.0312-0.5 0-0.89062-0.29688-1.125-0.67188-0.29688-0.46875-0.29688-1.125-0.29688-1.4844h2.7812c0.21875 0 0.25 0 0.25-0.21875 0-0.98438-0.54688-1.9531-1.7812-1.9531-1.1562 0-2.0781 1.0312-2.0781 2.2812 0 1.3281 1.0469 2.2969 2.1875 2.2969 1.2188 0 1.6719-1.1094 1.6719-1.2969zm-0.65625-1.3281h-2.375c0.0625-1.4844 0.90625-1.7344 1.25-1.7344 1.0156 0 1.125 1.3438 1.125 1.7344z"/>
</symbol>
<symbol id="w" overflow="visible">
<path d="m8.1094 0v-0.3125c-0.51562 0-0.76562 0-0.78125-0.29688v-1.9062c0-0.85938 0-1.1562-0.3125-1.5156-0.14062-0.17188-0.46875-0.375-1.0469-0.375-0.82812 0-1.2812 0.59375-1.4375 0.98438-0.14062-0.875-0.875-0.98438-1.3281-0.98438-0.73438 0-1.2031 0.42188-1.4844 1.0469v-1.0469l-1.4062 0.10938v0.3125c0.70312 0 0.78125 0.0625 0.78125 0.5625v2.6719c0 0.4375-0.10938 0.4375-0.78125 0.4375v0.3125l1.1406-0.03125 1.1094 0.03125v-0.3125c-0.67188 0-0.78125 0-0.78125-0.4375v-1.8438c0-1.0312 0.71875-1.5938 1.3438-1.5938 0.64062 0 0.75 0.53125 0.75 1.1094v2.3281c0 0.4375-0.10938 0.4375-0.78125 0.4375v0.3125l1.125-0.03125 1.1094 0.03125v-0.3125c-0.65625 0-0.76562 0-0.76562-0.4375v-1.8438c0-1.0312 0.70312-1.5938 1.3438-1.5938 0.625 0 0.73438 0.53125 0.73438 1.1094v2.3281c0 0.4375-0.10938 0.4375-0.78125 0.4375v0.3125l1.125-0.03125z"/>
</symbol>
<symbol id="v" overflow="visible">
<path d="m5.1875-2.1562c0-1.2656-0.95312-2.25-2.0781-2.25-0.78125 0-1.2031 0.4375-1.3906 0.65625v-0.65625l-1.4375 0.10938v0.3125c0.70312 0 0.78125 0.0625 0.78125 0.5v4.6562c0 0.45312-0.10938 0.45312-0.78125 0.45312v0.3125l1.1094-0.03125 1.125 0.03125v-0.3125c-0.65625 0-0.76562 0-0.76562-0.45312v-1.7656c0.046875 0.17188 0.46875 0.70312 1.2188 0.70312 1.1875 0 2.2188-0.98438 2.2188-2.2656zm-0.82812 0c0 1.2031-0.6875 2.0469-1.4219 2.0469-0.40625 0-0.78125-0.20312-1.0469-0.60938-0.14062-0.20312-0.14062-0.21875-0.14062-0.42188v-2.2188c0.28125-0.51562 0.76562-0.79688 1.2812-0.79688 0.73438 0 1.3281 0.875 1.3281 2z"/>
</symbol>
<symbol id="u" overflow="visible">
<path d="m4.6875-2.1406c0-1.2656-0.98438-2.3281-2.1875-2.3281-1.25 0-2.2188 1.0938-2.2188 2.3281 0 1.2969 1.0312 2.25 2.2031 2.25 1.2031 0 2.2031-0.98438 2.2031-2.25zm-0.8125-0.078125c0 0.35938 0 0.90625-0.21875 1.3438-0.23438 0.45312-0.67188 0.73438-1.1562 0.73438-0.4375 0-0.875-0.20312-1.1406-0.67188-0.25-0.4375-0.25-1.0469-0.25-1.4062 0-0.39062 0-0.92188 0.23438-1.3594 0.26562-0.45312 0.73438-0.67188 1.1406-0.67188 0.4375 0 0.85938 0.21875 1.125 0.65625 0.26562 0.42188 0.26562 1 0.26562 1.375z"/>
</symbol>
<symbol id="t" overflow="visible">
<path d="m2.0312-0.015625c0-0.625-0.25-1.0469-0.64062-1.0469-0.35938 0-0.53125 0.28125-0.53125 0.53125 0 0.26562 0.17188 0.53125 0.53125 0.53125 0.14062 0 0.28125-0.0625 0.39062-0.15625 0.015625 0.78125-0.25 1.3906-0.6875 1.8594-0.0625 0.0625-0.078125 0.078125-0.078125 0.10938 0 0.078125 0.046875 0.10938 0.09375 0.10938 0.125 0 0.92188-0.78125 0.92188-1.9375z"/>
</symbol>
<symbol id="e" overflow="visible">
<path d="m3.5156-1.2656h-0.23438c-0.015625 0.15625-0.09375 0.5625-0.1875 0.625-0.046875 0.046875-0.57812 0.046875-0.6875 0.046875h-1.2812c0.73438-0.64062 0.98438-0.84375 1.3906-1.1719 0.51562-0.40625 1-0.84375 1-1.5 0-0.84375-0.73438-1.3594-1.625-1.3594-0.85938 0-1.4531 0.60938-1.4531 1.25 0 0.34375 0.29688 0.39062 0.375 0.39062 0.15625 0 0.35938-0.125 0.35938-0.375 0-0.125-0.046875-0.375-0.40625-0.375 0.21875-0.48438 0.6875-0.64062 1.0156-0.64062 0.70312 0 1.0625 0.54688 1.0625 1.1094 0 0.60938-0.4375 1.0781-0.65625 1.3281l-1.6719 1.6719c-0.078125 0.0625-0.078125 0.078125-0.078125 0.26562h2.875z"/>
</symbol>
<symbol id="r" overflow="visible">
<path d="m3.5781-1.2031c0-0.54688-0.4375-1.0938-1.2031-1.25 0.71875-0.26562 0.98438-0.78125 0.98438-1.2188 0-0.54688-0.625-0.95312-1.4062-0.95312-0.76562 0-1.3594 0.375-1.3594 0.9375 0 0.23438 0.15625 0.35938 0.35938 0.35938 0.21875 0 0.35938-0.15625 0.35938-0.34375 0-0.20312-0.14062-0.35938-0.35938-0.375 0.25-0.29688 0.71875-0.375 0.98438-0.375 0.3125 0 0.75 0.15625 0.75 0.75 0 0.29688-0.09375 0.625-0.28125 0.82812-0.21875 0.26562-0.42188 0.28125-0.76562 0.3125-0.17188 0.015625-0.1875 0.015625-0.21875 0.015625 0 0-0.078125 0.015625-0.078125 0.09375 0 0.09375 0.0625 0.09375 0.1875 0.09375h0.375c0.54688 0 0.9375 0.375 0.9375 1.125 0 0.85938-0.51562 1.125-0.90625 1.125-0.28125 0-0.90625-0.078125-1.1875-0.5 0.32812 0 0.40625-0.23438 0.40625-0.39062 0-0.21875-0.17188-0.375-0.39062-0.375-0.1875 0-0.39062 0.125-0.39062 0.40625 0 0.65625 0.71875 1.0781 1.5625 1.0781 0.96875 0 1.6406-0.65625 1.6406-1.3438z"/>
</symbol>
<symbol id="q" overflow="visible">
<path d="m-2.3281-6.625c-0.09375 0-0.17188 0-0.17188 0.125 0 0.10938 0.0625 0.10938 0.17188 0.125 1.4219 0.078125 2.2344 1.1406 2.2344 2.2344 0 0.60938-0.32812 2.5625-3.3125 2.5625-2.9688 0-3.3125-1.9531-3.3125-2.5625 0-1.0781 0.90625-1.9688 2.3594-2.1719 0.14062-0.015625 0.17188-0.015625 0.17188-0.15625 0-0.15625-0.03125-0.15625-0.23438-0.15625h-2.3594c-0.17188 0-0.25 0-0.25 0.10938 0 0.03125 0 0.078125 0.125 0.15625l0.73438 0.5c-0.35938 0.35938-0.85938 0.875-0.85938 1.8281 0 1.875 1.5938 3.4688 3.625 3.4688 2.0625 0 3.625-1.6094 3.625-3.4688 0-1.625-1.3906-2.5938-2.5469-2.5938z"/>
</symbol>
<symbol id="a" overflow="visible">
<path d="m-2.1406-4.6875c-1.2656 0-2.3281 0.98438-2.3281 2.1875 0 1.25 1.0938 2.2188 2.3281 2.2188 1.2969 0 2.25-1.0312 2.25-2.2031 0-1.2031-0.98438-2.2031-2.25-2.2031zm-0.078125 0.8125c0.35938 0 0.90625 0 1.3438 0.21875 0.45312 0.23438 0.73438 0.67188 0.73438 1.1562 0 0.4375-0.20312 0.875-0.67188 1.1406-0.4375 0.25-1.0469 0.25-1.4062 0.25-0.39062 0-0.92188 0-1.3594-0.23438-0.45312-0.26562-0.67188-0.73438-0.67188-1.1406 0-0.4375 0.21875-0.85938 0.65625-1.125 0.42188-0.26562 1-0.26562 1.375-0.26562z"/>
</symbol>
<symbol id="d" overflow="visible">
<path d="m0-5.3281h-0.3125c0 0.51562 0 0.76562-0.29688 0.76562h-1.9062c-0.85938 0-1.1562 0-1.5156 0.3125-0.17188 0.14062-0.375 0.46875-0.375 1.0469 0 0.73438 0.42188 1.2031 1.0469 1.4844h-1.0469l0.10938 1.4062h0.3125c0-0.70312 0.0625-0.78125 0.5625-0.78125h2.6719c0.4375 0 0.4375 0.10938 0.4375 0.78125h0.3125l-0.03125-1.1406 0.03125-1.1094h-0.3125c0 0.67188 0 0.78125-0.4375 0.78125h-1.8438c-1.0312 0-1.5938-0.71875-1.5938-1.3438 0-0.64062 0.53125-0.75 1.1094-0.75h2.3281c0.4375 0 0.4375 0.10938 0.4375 0.78125h0.3125l-0.03125-1.125z"/>
</symbol>
<symbol id="l" overflow="visible">
<path d="m-1.1875-4.1406c-0.09375 0-0.09375 0.10938-0.09375 0.14062 0 0.078125 0.03125 0.10938 0.09375 0.125 0.92188 0.28125 1.0469 0.9375 1.0469 1.2969 0 0.53125-0.42188 1.4062-2.0312 1.4062-1.625 0-2.0469-0.8125-2.0469-1.3438 0-0.09375 0.015625-0.71875 0.375-1.0625 0.03125 0.40625 0.32812 0.46875 0.45312 0.46875 0.26562 0 0.45312-0.1875 0.45312-0.45312s-0.15625-0.46875-0.46875-0.46875c-0.67188 0-1.0625 0.76562-1.0625 1.5312 0 1.25 1.0781 2.1562 2.3125 2.1562 1.2812 0 2.2656-0.98438 2.2656-2.1406 0-1.3281-1.2031-1.6562-1.2969-1.6562z"/>
</symbol>
<symbol id="k" overflow="visible">
<path d="m-1.1875-4.1406c-0.09375 0-0.125 0.078125-0.125 0.14062 0 0.078125 0.0625 0.10938 0.14062 0.125 1.0312 0.34375 1.0312 1.25 1.0312 1.3438 0 0.5-0.29688 0.89062-0.67188 1.125-0.46875 0.29688-1.125 0.29688-1.4844 0.29688v-2.7812c0-0.21875 0-0.25-0.21875-0.25-0.98438 0-1.9531 0.54688-1.9531 1.7812 0 1.1562 1.0312 2.0781 2.2812 2.0781 1.3281 0 2.2969-1.0469 2.2969-2.1875 0-1.2188-1.1094-1.6719-1.2969-1.6719zm-1.3281 0.65625v2.375c-1.4844-0.0625-1.7344-0.90625-1.7344-1.25 0-1.0156 1.3438-1.125 1.7344-1.125z"/>
</symbol>
<symbol id="j" overflow="visible">
<path d="m-1.2344-3.3125h-0.5625v0.25h0.54688c0.73438 0 1.1094 0.29688 1.1094 0.67188 0 0.67188-0.90625 0.67188-1.0781 0.67188h-2.7656v-1.4375h-0.3125v1.4375h-1.8281v0.25c0.8125 0 1.875 0.29688 1.9219 1.2812h0.21875v-0.84375h2.75c1.2188 0 1.3438-0.9375 1.3438-1.2969 0-0.70312-0.70312-0.98438-1.3438-0.98438z"/>
</symbol>
<symbol id="c" overflow="visible">
<path d="m-3.7969-3.625c-0.3125 0-0.60938 0.3125-0.60938 0.73438 0 0.73438 0.67188 1.0938 1.0938 1.2188h-1.0938l0.10938 1.3906h0.3125c0-0.70312 0.0625-0.78125 0.5625-0.78125h2.6719c0.4375 0 0.4375 0.10938 0.4375 0.78125h0.3125l-0.03125-1.1406c0-0.39062 0-0.85938 0.03125-1.2656h-0.3125v0.21875c0 0.73438-0.10938 0.75-0.46875 0.75h-1.5312c-0.98438 0-1.875-0.42188-1.875-1.1719 0-0.0625 0-0.09375 0.015625-0.10938 0 0.03125 0.125 0.23438 0.39062 0.23438s0.42188-0.21875 0.42188-0.4375c0-0.17188-0.125-0.42188-0.4375-0.42188z"/>
</symbol>
<symbol id="b" overflow="visible">
<path d="m-0.89062-4.8125h-0.5625v0.25h0.5625c0.57812 0 0.64062 0.25 0.64062 0.35938 0 0.32812-0.45312 0.35938-0.5 0.35938h-1.9844c-0.42188 0-0.8125 0-1.1875 0.35938-0.39062 0.39062-0.54688 0.89062-0.54688 1.375 0 0.8125 0.46875 1.5 1.125 1.5 0.29688 0 0.46875-0.20312 0.46875-0.45312 0-0.28125-0.20312-0.46875-0.45312-0.46875-0.125 0-0.45312 0.0625-0.45312 0.51562-0.35938-0.26562-0.46875-0.76562-0.46875-1.0781 0-0.48438 0.39062-1.0625 1.2812-1.0625h0.35938c0.03125 0.51562 0.0625 1.2188 0.35938 1.8438 0.34375 0.75 0.85938 1 1.2969 1 0.8125 0 1.0625-0.96875 1.0625-1.5938 0-0.67188-0.40625-1.125-0.85938-1.3125 0.39062-0.046875 0.8125-0.3125 0.8125-0.78125 0-0.20312-0.14062-0.8125-0.95312-0.8125zm-0.5 1.6562c0.9375 0 1.2812 0.71875 1.2812 1.1719 0 0.48438-0.34375 0.89062-0.84375 0.89062-0.54688 0-1.375-0.40625-1.4375-2.0625z"/>
</symbol>
<symbol id="i" overflow="visible">
<path d="m-1.1875-4.1406c-0.09375 0-0.09375 0.10938-0.09375 0.14062 0 0.078125 0.03125 0.10938 0.09375 0.125 0.92188 0.28125 1.0469 0.9375 1.0469 1.2969 0 0.53125-0.42188 1.4062-2.0312 1.4062-1.625 0-2.0469-0.8125-2.0469-1.3438 0-0.09375 0.015625-0.71875 0.375-1.0625 0.03125 0.40625 0.32812 0.46875 0.45312 0.46875 0.26562 0 0.45312-0.1875 0.45312-0.45312s-0.15625-0.46875-0.46875-0.46875c-0.67188 0-1.0625 0.76562-1.0625 1.5312 0 1.25 1.0781 2.1562 2.3125 2.1562 1.1719 0 2.0938-0.8125 2.25-1.8281h0.82812c0-0.375 0.078125-0.76562 0.40625-0.76562 0.40625 0 0.40625 0.95312 0.40625 1.7031v0.125h0.26562v-0.25c0-1.0781 0-2.4062-0.67188-2.4062-0.46875 0-0.67188 0.53125-0.67188 1.0781h-0.5625c-0.10938-1.1562-1.1875-1.4531-1.2812-1.4531z"/>
</symbol>
<symbol id="p" overflow="visible">
<path d="m-0.89062-4.8125h-0.5625v0.25h0.5625c0.57812 0 0.64062 0.25 0.64062 0.35938 0 0.32812-0.45312 0.35938-0.5 0.35938h-1.9844c-0.42188 0-0.8125 0-1.1875 0.35938-0.39062 0.39062-0.54688 0.89062-0.54688 1.375 0 0.8125 0.46875 1.5 1.125 1.5 0.29688 0 0.46875-0.20312 0.46875-0.45312 0-0.28125-0.20312-0.46875-0.45312-0.46875-0.125 0-0.45312 0.0625-0.45312 0.51562-0.35938-0.26562-0.46875-0.76562-0.46875-1.0781 0-0.48438 0.39062-1.0625 1.2812-1.0625h0.35938c0.03125 0.51562 0.0625 1.2188 0.35938 1.8438 0.34375 0.75 0.85938 1 1.2969 1 0.8125 0 1.0625-0.96875 1.0625-1.5938 0-0.67188-0.40625-1.125-0.85938-1.3125 0.39062-0.046875 0.8125-0.3125 0.8125-0.78125 0-0.20312-0.14062-0.8125-0.95312-0.8125zm-0.5 1.6562c0.9375 0 1.2812 0.71875 1.2812 1.1719 0 0.48438-0.34375 0.89062-0.84375 0.89062-0.54688 0-1.375-0.40625-1.4375-2.0625zm-4.9531-1-0.14062 0.15625s0.46875 0.375 0.46875 0.8125c0 0.23438-0.14062 0.48438-0.25 0.65625-0.15625 0.26562-0.21875 0.45312-0.21875 0.625 0 0.375 0.21875 0.5625 0.76562 1.0625l0.15625-0.15625s-0.48438-0.375-0.48438-0.8125c0-0.23438 0.15625-0.48438 0.25-0.65625 0.17188-0.26562 0.23438-0.4375 0.23438-0.60938 0-0.375-0.21875-0.57812-0.78125-1.0781z"/>
</symbol>
<symbol id="o" overflow="visible">
<path d="m0-8.1094h-0.3125c0 0.51562 0 0.76562-0.29688 0.78125h-1.9062c-0.85938 0-1.1562 0-1.5156 0.3125-0.17188 0.14062-0.375 0.46875-0.375 1.0469 0 0.82812 0.59375 1.2812 0.98438 1.4375-0.875 0.14062-0.98438 0.875-0.98438 1.3281 0 0.73438 0.42188 1.2031 1.0469 1.4844h-1.0469l0.10938 1.4062h0.3125c0-0.70312 0.0625-0.78125 0.5625-0.78125h2.6719c0.4375 0 0.4375 0.10938 0.4375 0.78125h0.3125l-0.03125-1.1406 0.03125-1.1094h-0.3125c0 0.67188 0 0.78125-0.4375 0.78125h-1.8438c-1.0312 0-1.5938-0.71875-1.5938-1.3438 0-0.64062 0.53125-0.75 1.1094-0.75h2.3281c0.4375 0 0.4375 0.10938 0.4375 0.78125h0.3125l-0.03125-1.125 0.03125-1.1094h-0.3125c0 0.65625 0 0.76562-0.4375 0.76562h-1.8438c-1.0312 0-1.5938-0.70312-1.5938-1.3438 0-0.625 0.53125-0.73438 1.1094-0.73438h2.3281c0.4375 0 0.4375 0.10938 0.4375 0.78125h0.3125l-0.03125-1.125z"/>
</symbol>
<symbol id="n" overflow="visible">
<path d="m0-2.5469h-0.3125c0 0.67188 0 0.78125-0.4375 0.78125h-6.1719l0.10938 1.4375h0.3125c0-0.70312 0.0625-0.78125 0.5625-0.78125h5.1875c0.4375 0 0.4375 0.10938 0.4375 0.78125h0.3125l-0.03125-1.1094z"/>
</symbol>
<symbol id="m" overflow="visible">
<path d="m-0.015625-2.0312c-0.625 0-1.0469 0.25-1.0469 0.64062 0 0.35938 0.28125 0.53125 0.53125 0.53125 0.26562 0 0.53125-0.17188 0.53125-0.53125 0-0.14062-0.0625-0.28125-0.15625-0.39062 0.78125-0.015625 1.3906 0.25 1.8594 0.6875 0.0625 0.0625 0.078125 0.078125 0.10938 0.078125 0.078125 0 0.10938-0.046875 0.10938-0.09375 0-0.125-0.78125-0.92188-1.9375-0.92188z"/>
</symbol>
<symbol id="h" overflow="visible">
<path d="m-1.0625-4.2812c-0.0625 0-0.14062 0.046875-0.14062 0.10938s0.03125 0.078125 0.10938 0.14062c0.98438 0.78125 0.98438 1.875 0.98438 1.9844 0 0.625-0.48438 0.90625-1.0938 0.90625-0.40625 0-1.375-0.20312-1.9844-0.54688-0.57812-0.3125-1-0.85938-1-1.4062 0-0.32812 0.125-0.71875 0.40625-0.85938 0 0.17188 0 0.29688 0.125 0.4375 0.15625 0.17188 0.32812 0.1875 0.39062 0.1875 0.25 0 0.35938-0.1875 0.35938-0.375 0-0.28125-0.25-0.54688-0.64062-0.54688-0.48438 0-0.85938 0.46875-0.85938 1.1719 0 1.3438 1.4219 2.6719 2.8281 2.6719 0.90625 0 1.6875-0.57812 1.6875-1.625 0-1.4219-1.0625-2.25-1.1719-2.25z"/>
</symbol>
<symbol id="s" overflow="visible">
<path d="m3.125-1.4219c0-0.10938-0.078125-0.10938-0.10938-0.10938-0.09375 0-0.10938 0.03125-0.15625 0.14062-0.42188 1.0469-0.95312 1.2812-1.2969 1.2812-0.20312 0-0.3125-0.125-0.3125-0.45312 0-0.25 0.03125-0.3125 0.0625-0.48438l0.73438-2.9375h0.9375c0.20312 0 0.3125 0 0.3125-0.20312 0-0.10938-0.10938-0.10938-0.28125-0.10938h-0.875c0.35938-1.4219 0.40625-1.6094 0.40625-1.6719 0-0.17188-0.125-0.26562-0.29688-0.26562-0.03125 0-0.3125 0-0.39062 0.35938l-0.39062 1.5781h-0.9375c-0.20312 0-0.29688 0-0.29688 0.1875 0 0.125 0.078125 0.125 0.28125 0.125h0.875c-0.71875 2.8281-0.76562 3-0.76562 3.1719 0 0.54688 0.375 0.92188 0.92188 0.92188 1.0156 0 1.5781-1.4531 1.5781-1.5312z"/>
</symbol>
<clipPath id="ae">
<path d="m19.77 0.66406h194.27v99.336h-194.27z"/>
</clipPath>
<clipPath id="ad">
<path d="m19.77 53h194.27v52.273h-194.27z"/>
</clipPath>
<clipPath id="ac">
<path d="m19.77 33h194.27v72.273h-194.27z"/>
</clipPath>
<clipPath id="ab">
<path d="m19.77 115h194.27v99.859h-194.27z"/>
</clipPath>
<clipPath id="aa">
<path d="m19.77 170h194.27v44.859h-194.27z"/>
</clipPath>
<clipPath id="z">
<path d="m19.77 128h194.27v86.859h-194.27z"/>
</clipPath>
</defs>
<path transform="matrix(1 0 0 -1 19.771 105.27)" d="m-0.0014688-0.0014375v104.61m48.57-104.61v104.61m48.566-104.61v104.61m48.566-104.61v104.61m48.566-104.61v104.61" fill="none" stroke="#bfbfbf" stroke-miterlimit="10" stroke-width=".3985"/>
<path transform="matrix(1 0 0 -1 19.771 105.27)" d="m-0.0014688-0.0014375h194.27m-194.27 34.871h194.27m-194.27 34.867h194.27m-194.27 34.871h194.27" fill="none" stroke="#bfbfbf" stroke-miterlimit="10" stroke-width=".3985"/>
<path transform="matrix(1 0 0 -1 19.771 105.27)" d="m-0.0014688-0.0014375v4.2539m48.57-4.2539v4.2539m48.566-4.2539v4.2539m48.566-4.2539v4.2539m48.566-4.2539v4.2539m-194.27 100.36v-4.2539m48.57 4.2539v-4.2539m48.566 4.2539v-4.2539m48.566 4.2539v-4.2539m48.566 4.2539v-4.2539" fill="none" stroke="#7f7f7f" stroke-miterlimit="10" stroke-width=".19925"/>
<path transform="matrix(1 0 0 -1 19.771 105.27)" d="m-0.0014688-0.0014375h4.2539m-4.2539 34.871h4.2539m-4.2539 34.867h4.2539m-4.2539 34.871h4.2539m190.02-104.61h-4.25m4.25 34.871h-4.25m4.25 34.867h-4.25m4.25 34.871h-4.25" fill="none" stroke="#7f7f7f" stroke-miterlimit="10" stroke-width=".19925"/>
<path transform="matrix(1 0 0 -1 19.771 105.27)" d="m-0.0014688-0.0014375v104.61h194.27v-104.61z" fill="none" stroke="#000" stroke-miterlimit="10" stroke-width=".3985"/>
<g clip-path="url(#ae)">
<path transform="matrix(1 0 0 -1 19.771 105.27)" d="m-0.0014688 104.61 1.3047-2.1992 1.3047-2.1602 1.3047-2.1016 1.3008-2.043 1.3047-1.9922 1.3047-1.9414 1.3047-1.8828 1.3047-1.8438 1.3008-1.7891 1.3047-1.7422 1.3047-1.6914 1.3047-1.6484 1.3008-1.6055 1.3047-1.5664 1.3047-1.5234 1.3047-1.4805 1.3047-1.4414 1.3008-1.4062 1.3047-1.3711 1.3047-1.332 1.3047-1.2969 1.3008-1.2578 1.3047-1.2266 1.3047-1.1992 1.3047-1.1641 1.3047-1.1289 1.3008-1.1055 1.3047-1.082 1.3047-1.0352 1.3047-1.0234 1.3008-0.98438 1.3047-0.97266 1.3047-0.9375 1.3047-0.91406 1.3047-0.88672 1.3008-0.87109 1.3047-0.84375 1.3047-0.82031 1.3047-0.79688 1.3008-0.77734 1.3047-0.76172 1.3047-0.73438 1.3047-0.72266 1.3047-0.69531 1.3008-0.68359 1.3047-0.66406 1.3047-0.64453 1.3047-0.625 1.3008-0.61328 1.3047-0.59375 1.3047-0.57812 1.3047-0.55859 1.3047-0.55469 1.3008-0.53516 1.3047-0.51953 1.3047-0.50781 1.3047-0.48828 1.3008-0.48438 1.3047-0.46875 1.3047-0.45312 1.3047-0.44141 1.3047-0.42969 1.3008-0.42578 1.3047-0.40234 1.3047-0.39844 1.3047-0.38672 1.3008-0.37891 1.3047-0.36719 1.3047-0.35938 2.6094-0.6875 1.3008-0.32422 1.3047-0.32031 1.3047-0.31641 1.3047-0.30078 1.3008-0.30078 1.3047-0.28516 2.6094-0.55469 1.3047-0.26562 1.3008-0.26172 1.3047-0.25 2.6094-0.48438 1.3008-0.23438 1.3047-0.22266 1.3047-0.21875 1.3047-0.21484 1.3047-0.20703 1.3008-0.20312 1.3047-0.19922 1.3047-0.19141 1.3047-0.1875 1.3008-0.18359 1.3047-0.17969 1.3047-0.17188 1.3047-0.16797 1.3047-0.16406 1.3008-0.16016 1.3047-0.15625 2.6094-0.29688 1.3008-0.14453 1.3047-0.14062 2.6094-0.26562 1.3047-0.12891 1.3008-0.125 2.6094-0.24219 1.3047-0.11719 1.3008-0.10938 2.6094-0.21875 2.6094-0.20312 1.3008-0.097656 1.3047-0.097656 1.3047-0.09375 1.3047-0.089844 1.3008-0.089844 1.3047-0.085937 2.6094-0.16406 1.3047-0.078125 1.3008-0.078125 1.3047-0.078125 1.3047-0.070312 1.3047-0.074219 1.3008-0.066406 1.3047-0.070313 1.3047-0.0625 1.3047-0.066406 1.3047-0.0625 1.3008-0.058594 1.3047-0.0625 1.3047-0.054687 1.3047-0.058594 1.3008-0.054687 5.2188-0.20312 1.3008-0.046875 2.6094-0.09375 1.3047-0.042969 1.3008-0.042969 1.3047-0.039062" fill="none" stroke="#0c6dfd" stroke-miterlimit="10" stroke-width="1.1955"/>
</g>
<g clip-path="url(#ad)">
<path transform="matrix(1 0 0 -1 19.771 105.27)" d="m-0.0014688 34.87 1.3047-0.73438 1.3047-0.71875 1.3047-0.69922 1.3008-0.68359 1.3047-0.66406 1.3047-0.64453 1.3047-0.62891 1.3047-0.61328 1.3008-0.59766 1.3047-0.58203 1.3047-0.5625 1.3047-0.55078 1.3008-0.53516 1.3047-0.51953 1.3047-0.50781 1.3047-0.49609 1.3047-0.48047 1.3008-0.46875 1.3047-0.45703 1.3047-0.44141 1.3047-0.43359 1.3008-0.41797 1.3047-0.41016 1.3047-0.39844 1.3047-0.39062 1.3047-0.375 1.3008-0.36719 1.3047-0.36328 1.3047-0.34375 1.3047-0.33984 1.3008-0.33203 1.3047-0.32031 1.3047-0.3125 1.3047-0.30469 1.3047-0.29688 1.3008-0.28906 1.3047-0.28125 1.3047-0.27344 1.3047-0.26562 1.3008-0.26172 1.3047-0.25391 1.3047-0.24609 1.3047-0.23828 1.3047-0.23047 1.3008-0.23047 1.3047-0.21875 1.3047-0.21484 1.3047-0.21094 1.3008-0.20312 1.3047-0.19922 1.3047-0.19141 1.3047-0.1875 1.3047-0.18359 1.3008-0.17969 2.6094-0.34375 1.3047-0.16016 1.3008-0.16016 1.3047-0.15625 1.3047-0.15234 1.3047-0.14844 1.3047-0.14062 1.3008-0.14453 2.6094-0.26562 1.3047-0.12891 1.3008-0.125 1.3047-0.125 2.6094-0.23438 1.3047-0.11328 1.3008-0.10938 2.6094-0.21094 1.3047-0.10156 1.3008-0.10156 1.3047-0.09375 1.3047-0.089844 1.3047-0.09375 1.3047-0.089844 1.3008-0.085937 3.9141-0.24609 1.3008-0.078125 1.3047-0.074219 1.3047-0.070312 1.3047-0.074219 1.3047-0.070313 1.3008-0.066406 1.3047-0.066406 2.6094-0.125 1.3008-0.0625 2.6094-0.11719 2.6094-0.10938 1.3008-0.054687 2.6094-0.10156 1.3047-0.046875 1.3008-0.050781 1.3047-0.046875 3.9141-0.12891 1.3008-0.042969 1.3047-0.042969 2.6094-0.078125 1.3008-0.035156 1.3047-0.039062 2.6094-0.070313 1.3047-0.03125 1.3008-0.035156 2.6094-0.0625 1.3047-0.027344 1.3008-0.03125 1.3047-0.027344 1.3047-0.03125 1.3047-0.023437 1.3047-0.027344 1.3008-0.027344 1.3047-0.023437 1.3047-0.027344 1.3047-0.023437 1.3008-0.023438 1.3047-0.019531 1.3047-0.023438 1.3047-0.019531 1.3047-0.023437 1.3008-0.019532 3.9141-0.058593 1.3008-0.015625 1.3047-0.019532 1.3047-0.015625 1.3047-0.019531 2.6055-0.03125 2.6094-0.03125 1.3047-0.011719 1.3008-0.015625 1.3047-0.015625" fill="none" stroke="#188653" stroke-miterlimit="10" stroke-width="1.1955"/>
</g>
<g clip-path="url(#ac)">
<path transform="matrix(1 0 0 -1 19.771 105.27)" d="m-0.0014688-0.0014375 1.3047 1.4687 1.3047 1.4375 1.3047 1.4023 1.3008 1.3594 1.3047 1.3281 1.3047 1.2969 1.3047 1.2539 1.3047 1.2305 1.3008 1.1914 1.3047 1.1602 1.3047 1.1289 1.3047 1.0977 1.3008 1.0703 1.3047 1.0469 1.3047 1.0156 1.3047 0.98438 1.3047 0.96094 1.3008 0.9375 1.3047 0.91797 1.3047 0.88672 1.3047 0.86328 1.3008 0.83984 1.3047 0.81641 1.3047 0.80078 1.3047 0.77344 1.3047 0.75391 1.3008 0.73828 1.3047 0.71875 1.3047 0.69141 1.3047 0.67969 1.3008 0.66016 1.3047 0.64844 1.3047 0.625 1.3047 0.60547 1.3047 0.59375 1.3008 0.58203 1.3047 0.5625 1.3047 0.54688 1.3047 0.53125 1.3008 0.51562 1.3047 0.50781 1.3047 0.49219 1.3047 0.48047 1.3047 0.46484 1.3008 0.45703 1.3047 0.4375 1.3047 0.42969 1.3047 0.41797 1.3008 0.41016 1.3047 0.39453 1.3047 0.38672 1.3047 0.375 1.3047 0.36719 1.3008 0.35547 1.3047 0.34766 1.3047 0.33984 1.3047 0.32422 1.3008 0.32422 1.3047 0.3125 1.3047 0.30078 1.3047 0.29688 1.3047 0.28516 1.3008 0.28125 1.3047 0.26953 1.3047 0.26562 1.3047 0.25781 1.3008 0.25 1.3047 0.24609 1.3047 0.24219 1.3047 0.22656 1.3047 0.23047 1.3008 0.21875 2.6094 0.42188 1.3047 0.20312 1.3008 0.19922 2.6094 0.375 1.3047 0.18359 1.3047 0.17969 1.3008 0.17188 1.3047 0.16797 1.3047 0.16016 1.3047 0.16406 1.3008 0.15625 1.3047 0.14453 1.3047 0.14844 2.6094 0.28125 1.3008 0.13672 2.6094 0.25781 1.3047 0.125 1.3008 0.12109 1.3047 0.12109 2.6094 0.22656 1.3047 0.10938 1.3008 0.10547 1.3047 0.10547 1.3047 0.10156 1.3047 0.097656 1.3008 0.09375 1.3047 0.09375 2.6094 0.17969 1.3047 0.085937 1.3008 0.082031 1.3047 0.082032 2.6094 0.15625 1.3008 0.074218 1.3047 0.074219 2.6094 0.14062 1.3047 0.066406 1.3008 0.066407 3.9141 0.1875 1.3008 0.058593 1.3047 0.058594 2.6094 0.10938 1.3047 0.050781 1.3008 0.054688 1.3047 0.046875 1.3047 0.050781 1.3047 0.046875 1.3008 0.046875 1.3047 0.046875 2.6094 0.085938 1.3047 0.039062 1.3008 0.042969 2.6094 0.078125 1.3047 0.035156 1.3008 0.035156 1.3047 0.039063 1.3047 0.03125 1.3047 0.035156 1.3047 0.03125 1.3008 0.03125 3.9141 0.09375 1.3008 0.027344 1.3047 0.027344" fill="none" stroke="#dc3445" stroke-miterlimit="10" stroke-width="1.1955"/>
</g>
<g>
<use x="38.084" y="21.51" xlink:href="#g"/>
<use x="45.556" y="23.005" xlink:href="#e"/>
<use x="38.084" y="65.389" xlink:href="#f"/>
<use x="45.556" y="66.884" xlink:href="#e"/>
<use x="180.048" y="44.469" xlink:href="#f"/>
<use x="187.51995" y="44.469" xlink:href="#g"/>
<use x="194.992" y="45.963" xlink:href="#r"/>
<use x="7.474" y="101.783" xlink:href="#q"/>
<use x="7.474" y="94.58801" xlink:href="#a"/>
<use x="7.474" y="89.60671" xlink:href="#d"/>
<use x="7.474" y="84.07149" xlink:href="#l"/>
<use x="7.474" y="79.643114" xlink:href="#k"/>
<use x="7.474" y="75.214738" xlink:href="#d"/>
<use x="7.474" y="69.958471" xlink:href="#j"/>
<use x="7.474" y="66.084015" xlink:href="#c"/>
<use x="7.474" y="62.181665" xlink:href="#b"/>
<use x="7.474" y="57.200365" xlink:href="#i"/>
<use x="7.474" y="52.771989" xlink:href="#p"/>
<use x="7.474" y="47.790689" xlink:href="#a"/>
<use x="7.474" y="39.491843" xlink:href="#o"/>
<use x="7.474" y="31.190009" xlink:href="#a"/>
<use x="7.474" y="26.208709" xlink:href="#n"/>
<use x="7.474" y="23.441099" xlink:href="#b"/>
<use x="7.474" y="18.459799" xlink:href="#c"/>
<use x="7.474" y="14.557448" xlink:href="#m"/>
<use x="7.474" y="8.467" xlink:href="#h"/>
</g>
<path transform="matrix(1 0 0 -1 19.771 214.86)" d="m-0.0014688-0.001375v104.61m48.57-104.61v104.61m48.566-104.61v104.61m48.566-104.61v104.61m48.566-104.61v104.61" fill="none" stroke="#bfbfbf" stroke-miterlimit="10" stroke-width=".3985"/>
<path transform="matrix(1 0 0 -1 19.771 214.86)" d="m-0.0014688-0.001375h194.27m-194.27 34.871h194.27m-194.27 34.867h194.27m-194.27 34.871h194.27" fill="none" stroke="#bfbfbf" stroke-miterlimit="10" stroke-width=".3985"/>
<path transform="matrix(1 0 0 -1 19.771 214.86)" d="m-0.0014688-0.001375v4.2539m48.57-4.2539v4.2539m48.566-4.2539v4.2539m48.566-4.2539v4.2539m48.566-4.2539v4.2539m-194.27 100.36v-4.2539m48.57 4.2539v-4.2539m48.566 4.2539v-4.2539m48.566 4.2539v-4.2539m48.566 4.2539v-4.2539" fill="none" stroke="#7f7f7f" stroke-miterlimit="10" stroke-width=".19925"/>
<path transform="matrix(1 0 0 -1 19.771 214.86)" d="m-0.0014688-0.001375h4.2539m-4.2539 34.871h4.2539m-4.2539 34.867h4.2539m-4.2539 34.871h4.2539m190.02-104.61h-4.25m4.25 34.871h-4.25m4.25 34.867h-4.25m4.25 34.871h-4.25" fill="none" stroke="#7f7f7f" stroke-miterlimit="10" stroke-width=".19925"/>
<path transform="matrix(1 0 0 -1 19.771 214.86)" d="m-0.0014688-0.001375v104.61h194.27v-104.61z" fill="none" stroke="#000" stroke-miterlimit="10" stroke-width=".3985"/>
<g clip-path="url(#ab)">
<path transform="matrix(1 0 0 -1 19.771 214.86)" d="m-0.0014688-0.001375 1.3047 2.1992 1.3047 2.1602 1.3047 2.1016 1.3008 2.043 1.3047 1.9922 1.3047 1.9414 1.3047 1.8828 1.3047 1.8438 1.3008 1.7891 1.3047 1.7422 1.3047 1.6875 1.3047 1.6523 1.3008 1.6055 1.3047 1.5664 1.3047 1.5234 1.3047 1.4805 1.3047 1.4414 1.3008 1.4062 1.3047 1.3711 1.3047 1.332 1.3047 1.2969 1.3008 1.2578 1.3047 1.2266 1.3047 1.1992 1.3047 1.1641 1.3047 1.1289 1.3008 1.1055 1.3047 1.0781 1.3047 1.0391 1.3047 1.0195 1.3008 0.98828 1.3047 0.97266 1.3047 0.9375 1.3047 0.91016 1.3047 0.89062 1.3008 0.87109 1.3047 0.84375 1.3047 0.82031 1.3047 0.79688 1.3008 0.77734 1.3047 0.76172 1.3047 0.73438 1.3047 0.72266 1.3047 0.69531 1.3008 0.68359 1.3047 0.66406 1.3047 0.64062 1.3047 0.62891 1.3008 0.61328 1.3047 0.59375 1.3047 0.57812 1.3047 0.55859 1.3047 0.55469 1.3008 0.53516 1.3047 0.51953 1.3047 0.50781 1.3047 0.48828 1.3008 0.48438 1.3047 0.46875 1.3047 0.45312 1.3047 0.44141 1.3047 0.42969 1.3008 0.42578 1.3047 0.40234 1.3047 0.39844 1.3047 0.38672 1.3008 0.37891 1.3047 0.36719 1.3047 0.35938 2.6094 0.6875 1.3008 0.32422 1.3047 0.32031 1.3047 0.31641 1.3047 0.30078 1.3008 0.30078 1.3047 0.28516 2.6094 0.55469 1.3047 0.26562 1.3008 0.26172 1.3047 0.25 2.6094 0.48438 1.3008 0.23438 1.3047 0.22266 1.3047 0.21875 1.3047 0.21484 1.3047 0.20703 1.3008 0.20312 1.3047 0.19922 1.3047 0.19141 1.3047 0.1875 1.3008 0.18359 1.3047 0.17969 1.3047 0.17188 1.3047 0.16797 1.3047 0.16406 1.3008 0.16016 1.3047 0.15625 2.6094 0.29688 1.3008 0.14453 2.6094 0.27344 1.3047 0.13281 1.3047 0.12891 1.3008 0.125 2.6094 0.24219 1.3047 0.11328 1.3008 0.11328 2.6094 0.21875 2.6094 0.20312 1.3008 0.097656 1.3047 0.097656 1.3047 0.09375 1.3047 0.089844 1.3008 0.089844 1.3047 0.085937 2.6094 0.16406 1.3047 0.078125 1.3008 0.078125 2.6094 0.14844 1.3047 0.070313 1.3008 0.070312 1.3047 0.070313 1.3047 0.0625 1.3047 0.066406 1.3047 0.0625 1.3008 0.058594 3.9141 0.17578 1.3008 0.054688 5.2188 0.20312 1.3008 0.046875 1.3047 0.046875 1.3047 0.042968 1.3047 0.046875 1.3008 0.042969 1.3047 0.039063" fill="none" stroke="#0c6dfd" stroke-miterlimit="10" stroke-width="1.1955"/>
</g>
<g clip-path="url(#aa)">
<path transform="matrix(1 0 0 -1 19.771 214.86)" d="m-0.0014688-0.001375 1.3047 0.73438 1.3047 0.71875 1.3047 0.69922 1.3008 0.68359 1.3047 0.66406 1.3047 0.64844 1.3047 0.625 1.3047 0.61328 1.3008 0.59766 1.3047 0.58203 1.3047 0.5625 1.3047 0.55078 1.3008 0.53516 1.3047 0.52344 1.3047 0.50391 1.3047 0.49609 1.3047 0.48047 1.3008 0.46875 1.3047 0.45703 1.3047 0.44141 1.3047 0.43359 1.3008 0.41797 1.3047 0.41016 1.3047 0.40234 1.3047 0.38672 1.3047 0.375 1.3008 0.37109 1.3047 0.35938 1.3047 0.34375 1.3047 0.33984 1.3008 0.33203 1.3047 0.32031 1.3047 0.3125 1.3047 0.30469 1.3047 0.29688 1.3008 0.28906 1.3047 0.28516 1.3047 0.27344 1.3047 0.26172 1.3008 0.26172 1.3047 0.25391 1.3047 0.24609 1.3047 0.23828 1.3047 0.23047 1.3008 0.23047 1.3047 0.21875 1.3047 0.21484 1.3047 0.21094 1.3008 0.20312 1.3047 0.19922 1.3047 0.19141 1.3047 0.1875 1.3047 0.18359 1.3008 0.17969 2.6094 0.34375 1.3047 0.16016 1.3008 0.16406 1.3047 0.15625 2.6094 0.29688 1.3047 0.14062 1.3008 0.14453 2.6094 0.26562 1.3047 0.12891 1.3008 0.125 1.3047 0.125 1.3047 0.12109 2.6094 0.22656 1.3008 0.10938 2.6094 0.21094 1.3047 0.10156 1.3008 0.10156 2.6094 0.1875 2.6094 0.17969 1.3008 0.085937 3.9141 0.24609 1.3008 0.078125 2.6094 0.14844 2.6094 0.14062 1.3008 0.066406 1.3047 0.066406 2.6094 0.125 1.3008 0.0625 2.6094 0.11719 2.6094 0.10938 1.3008 0.054687 3.9141 0.15234 1.3008 0.046875 1.3047 0.046875 1.3047 0.042969 1.3047 0.046875 1.3047 0.042968 1.3008 0.039063 1.3047 0.042969 2.6094 0.078125 1.3008 0.035156 1.3047 0.039062 2.6094 0.070313 1.3047 0.03125 1.3008 0.035156 3.9141 0.09375 1.3008 0.027344 1.3047 0.027344 1.3047 0.03125 1.3047 0.027343 1.3047 0.023438 1.3008 0.027344 1.3047 0.023437 1.3047 0.027344 1.3047 0.023437 1.3008 0.023438 1.3047 0.019531 2.6094 0.046875 1.3047 0.019531 5.2148 0.078125 1.3008 0.015625 1.3047 0.019532 1.3047 0.015625 1.3047 0.019531 1.3047 0.015625 3.9102 0.046875 1.3047 0.011719 2.6055 0.03125" fill="none" stroke="#188653" stroke-miterlimit="10" stroke-width="1.1955"/>
</g>
<g clip-path="url(#z)">
<path transform="matrix(1 0 0 -1 19.771 214.86)" d="m-0.0014688 69.737 1.3047-1.4648 1.3047-1.4414 1.3047-1.3984 1.3008-1.3633 1.3047-1.3281 1.3047-1.293 1.3047-1.2578 1.3047-1.2266 1.3008-1.1953 1.3047-1.1602 1.3047-1.125 1.3047-1.1016 1.3008-1.0703 1.3047-1.043 1.3047-1.0156 1.3047-0.98828 1.3047-0.96094 1.3008-0.9375 1.3047-0.91406 1.3047-0.88672 1.3047-0.86328 1.3008-0.83984 1.3047-0.82031 1.3047-0.79688 1.3047-0.77734 1.3047-0.75391 1.3008-0.73438 1.3047-0.72266 1.3047-0.69141 1.3047-0.67969 1.3008-0.65625 1.3047-0.64844 1.3047-0.625 1.3047-0.60938 1.3047-0.58984 1.3008-0.58203 1.3047-0.5625 1.3047-0.54688 1.3047-0.53125 1.3008-0.51953 1.3047-0.50781 1.3047-0.49219 1.3047-0.47656 1.3047-0.46484 1.3008-0.45703 1.3047-0.44141 1.3047-0.42969 1.3047-0.41797 1.3008-0.40625 1.3047-0.39844 1.3047-0.38281 1.3047-0.375 1.3047-0.36719 1.3008-0.35938 1.3047-0.34375 1.3047-0.33984 1.3047-0.32422 1.3008-0.32422 1.3047-0.3125 1.3047-0.30078 1.3047-0.29688 1.3047-0.28516 1.3008-0.28516 1.3047-0.26562 1.3047-0.26953 1.3047-0.25781 1.3008-0.25 1.3047-0.24609 1.3047-0.23828 1.3047-0.23047 1.3047-0.22656 1.3008-0.21875 1.3047-0.21094 1.3047-0.21484 1.3047-0.19922 1.3008-0.19922 1.3047-0.19141 2.6094-0.36719 1.3047-0.17969 1.3008-0.17188 1.3047-0.16797 1.3047-0.16406 1.3047-0.16016 1.3008-0.15625 1.3047-0.14844 2.6094-0.28906 1.3047-0.13672 1.3008-0.13672 1.3047-0.13281 1.3047-0.12891 1.3047-0.125 1.3008-0.12109 2.6094-0.23438 1.3047-0.11328 1.3047-0.10938 1.3008-0.10547 2.6094-0.20312 1.3047-0.097656 1.3008-0.097657 1.3047-0.09375 1.3047-0.089843 2.6094-0.17188 1.3008-0.085938 1.3047-0.082031 2.6094-0.15625 1.3008-0.074219 1.3047-0.074219 1.3047-0.070312 1.3047-0.066406 1.3047-0.070313 1.3008-0.066406 2.6094-0.125 1.3047-0.058594 1.3008-0.058594 1.3047-0.058593 3.9141-0.16406 1.3008-0.050781 1.3047-0.050781 1.3047-0.046875 1.3047-0.050782 1.3008-0.042968 1.3047-0.046875 3.9141-0.12891 1.3008-0.039062 3.9141-0.11719 1.3008-0.035156 2.6094-0.070312 1.3047-0.03125 1.3047-0.035157 1.3008-0.03125 2.6094-0.0625 1.3047-0.027343 1.3008-0.027344 1.3047-0.03125" fill="none" stroke="#dc3445" stroke-miterlimit="10" stroke-width="1.1955"/>
</g>
<g>
<use x="183.784" y="127.61" xlink:href="#g"/>
<use x="191.256" y="129.104" xlink:href="#e"/>
<use x="183.784" y="174.976" xlink:href="#f"/>
<use x="191.256" y="176.47" xlink:href="#e"/>
<use x="34.348" y="140.107" xlink:href="#f"/>
<use x="41.81995" y="140.107" xlink:href="#g"/>
<use x="49.292" y="141.602" xlink:href="#r"/>
<use x="97.118" y="232.081" xlink:href="#y"/>
<use x="103.486094" y="232.081" xlink:href="#x"/>
<use x="107.91447" y="232.081" xlink:href="#w"/>
<use x="116.216304" y="232.081" xlink:href="#v"/>
<use x="122.020515" y="232.081" xlink:href="#u"/>
<use x="127.001815" y="232.081" xlink:href="#t"/>
<use x="133.093" y="232.081" xlink:href="#s"/>
<use x="7.474" y="211.37" xlink:href="#q"/>
<use x="7.474" y="204.17501" xlink:href="#a"/>
<use x="7.474" y="199.19371" xlink:href="#d"/>
<use x="7.474" y="193.65849" xlink:href="#l"/>
<use x="7.474" y="189.230114" xlink:href="#k"/>
<use x="7.474" y="184.801738" xlink:href="#d"/>
<use x="7.474" y="179.545471" xlink:href="#j"/>
<use x="7.474" y="175.671015" xlink:href="#c"/>
<use x="7.474" y="171.768665" xlink:href="#b"/>
<use x="7.474" y="166.787365" xlink:href="#i"/>
<use x="7.474" y="162.358989" xlink:href="#p"/>
<use x="7.474" y="157.377689" xlink:href="#a"/>
<use x="7.474" y="149.078843" xlink:href="#o"/>
<use x="7.474" y="140.777009" xlink:href="#a"/>
<use x="7.474" y="135.795709" xlink:href="#n"/>
<use x="7.474" y="133.028099" xlink:href="#b"/>
<use x="7.474" y="128.046799" xlink:href="#c"/>
<use x="7.474" y="124.144448" xlink:href="#m"/>
<use x="7.474" y="118.054" xlink:href="#h"/>
</g>
</svg>
