<?xml version="1.0" encoding="UTF-8"?>
<svg width="208pt" height="173pt" version="1.1" viewBox="0 0 208 173" xmlns="http://www.w3.org/2000/svg" xmlns:xlink="http://www.w3.org/1999/xlink">
<defs>
<symbol id="g" overflow="visible">
<path d="m6.5-2.5781h-0.25c-0.25 1.5469-0.48438 2.2656-2.1875 2.2656h-1.3281c-0.46875 0-0.48438-0.0625-0.48438-0.39062v-2.6719h0.89062c0.96875 0 1.0781 0.32812 1.0781 1.1719h0.25v-2.6406h-0.25c0 0.85938-0.10938 1.1719-1.0781 1.1719h-0.89062v-2.4062c0-0.32812 0.015625-0.39062 0.48438-0.39062h1.2812c1.5312 0 1.7969 0.54688 1.9531 1.9375h0.25l-0.28125-2.25h-5.6094v0.3125h0.23438c0.76562 0 0.79688 0.10938 0.79688 0.46875v5.2188c0 0.35938-0.03125 0.46875-0.79688 0.46875h-0.23438v0.3125h5.75z"/>
</symbol>
<symbol id="c" overflow="visible">
<path d="m3.5938-1.2812c0-0.51562-0.29688-0.82812-0.42188-0.9375-0.32812-0.32812-0.71875-0.40625-1.1406-0.48438-0.5625-0.10938-1.2188-0.23438-1.2188-0.8125 0-0.35938 0.25-0.76562 1.1094-0.76562 1.0938 0 1.1562 0.90625 1.1719 1.2031 0 0.09375 0.10938 0.09375 0.10938 0.09375 0.14062 0 0.14062-0.046875 0.14062-0.23438v-1.0156c0-0.15625 0-0.23438-0.10938-0.23438-0.046875 0-0.078125 0-0.20312 0.125-0.03125 0.03125-0.125 0.125-0.17188 0.15625-0.375-0.28125-0.78125-0.28125-0.9375-0.28125-1.2188 0-1.5938 0.67188-1.5938 1.2344 0 0.34375 0.15625 0.625 0.42188 0.84375 0.32812 0.25 0.60938 0.3125 1.3281 0.45312 0.21875 0.046875 1.0312 0.20312 1.0312 0.92188 0 0.5-0.34375 0.90625-1.125 0.90625-0.84375 0-1.2031-0.5625-1.3906-1.4219-0.03125-0.125-0.03125-0.15625-0.14062-0.15625-0.125 0-0.125 0.0625-0.125 0.23438v1.3281c0 0.17188 0 0.23438 0.10938 0.23438 0.046875 0 0.0625-0.015625 0.25-0.20312 0.015625-0.015625 0.015625-0.03125 0.20312-0.21875 0.4375 0.40625 0.89062 0.42188 1.0938 0.42188 1.1406 0 1.6094-0.67188 1.6094-1.3906z"/>
</symbol>
<symbol id="l" overflow="visible">
<path d="m5.1875-2.1562c0-1.2656-0.95312-2.25-2.0781-2.25-0.78125 0-1.2031 0.4375-1.3906 0.65625v-0.65625l-1.4375 0.10938v0.3125c0.70312 0 0.78125 0.0625 0.78125 0.5v4.6562c0 0.45312-0.10938 0.45312-0.78125 0.45312v0.3125l1.1094-0.03125 1.125 0.03125v-0.3125c-0.65625 0-0.76562 0-0.76562-0.45312v-1.7656c0.046875 0.17188 0.46875 0.70312 1.2188 0.70312 1.1875 0 2.2188-0.98438 2.2188-2.2656zm-0.82812 0c0 1.2031-0.6875 2.0469-1.4219 2.0469-0.40625 0-0.78125-0.20312-1.0469-0.60938-0.14062-0.20312-0.14062-0.21875-0.14062-0.42188v-2.2188c0.28125-0.51562 0.76562-0.79688 1.2812-0.79688 0.73438 0 1.3281 0.875 1.3281 2z"/>
</symbol>
<symbol id="a" overflow="visible">
<path d="m4.6875-2.1406c0-1.2656-0.98438-2.3281-2.1875-2.3281-1.25 0-2.2188 1.0938-2.2188 2.3281 0 1.2969 1.0312 2.25 2.2031 2.25 1.2031 0 2.2031-0.98438 2.2031-2.25zm-0.8125-0.078125c0 0.35938 0 0.90625-0.21875 1.3438-0.23438 0.45312-0.67188 0.73438-1.1562 0.73438-0.4375 0-0.875-0.20312-1.1406-0.67188-0.25-0.4375-0.25-1.0469-0.25-1.4062 0-0.39062 0-0.92188 0.23438-1.3594 0.26562-0.45312 0.73438-0.67188 1.1406-0.67188 0.4375 0 0.85938 0.21875 1.125 0.65625 0.26562 0.42188 0.26562 1 0.26562 1.375z"/>
</symbol>
<symbol id="b" overflow="visible">
<path d="m5.3281 0v-0.3125c-0.51562 0-0.76562 0-0.76562-0.29688v-1.9062c0-0.85938 0-1.1562-0.3125-1.5156-0.14062-0.17188-0.46875-0.375-1.0469-0.375-0.73438 0-1.2031 0.42188-1.4844 1.0469v-1.0469l-1.4062 0.10938v0.3125c0.70312 0 0.78125 0.0625 0.78125 0.5625v2.6719c0 0.4375-0.10938 0.4375-0.78125 0.4375v0.3125l1.1406-0.03125 1.1094 0.03125v-0.3125c-0.67188 0-0.78125 0-0.78125-0.4375v-1.8438c0-1.0312 0.71875-1.5938 1.3438-1.5938 0.64062 0 0.75 0.53125 0.75 1.1094v2.3281c0 0.4375-0.10938 0.4375-0.78125 0.4375v0.3125l1.125-0.03125z"/>
</symbol>
<symbol id="k" overflow="visible">
<path d="m3.3125-1.2344v-0.5625h-0.25v0.54688c0 0.73438-0.29688 1.1094-0.67188 1.1094-0.67188 0-0.67188-0.90625-0.67188-1.0781v-2.7656h1.4375v-0.3125h-1.4375v-1.8281h-0.25c0 0.8125-0.29688 1.875-1.2812 1.9219v0.21875h0.84375v2.75c0 1.2188 0.9375 1.3438 1.2969 1.3438 0.70312 0 0.98438-0.70312 0.98438-1.3438z"/>
</symbol>
<symbol id="j" overflow="visible">
<path d="m4.8125-0.89062v-0.5625h-0.25v0.5625c0 0.57812-0.25 0.64062-0.35938 0.64062-0.32812 0-0.35938-0.45312-0.35938-0.5v-1.9844c0-0.42188 0-0.8125-0.35938-1.1875-0.39062-0.39062-0.89062-0.54688-1.375-0.54688-0.8125 0-1.5 0.46875-1.5 1.125 0 0.29688 0.20312 0.46875 0.45312 0.46875 0.28125 0 0.46875-0.20312 0.46875-0.45312 0-0.125-0.0625-0.45312-0.51562-0.45312 0.26562-0.35938 0.76562-0.46875 1.0781-0.46875 0.48438 0 1.0625 0.39062 1.0625 1.2812v0.35938c-0.51562 0.03125-1.2188 0.0625-1.8438 0.35938-0.75 0.34375-1 0.85938-1 1.2969 0 0.8125 0.96875 1.0625 1.5938 1.0625 0.67188 0 1.125-0.40625 1.3125-0.85938 0.046875 0.39062 0.3125 0.8125 0.78125 0.8125 0.20312 0 0.8125-0.14062 0.8125-0.95312zm-1.6562-0.5c0 0.9375-0.71875 1.2812-1.1719 1.2812-0.48438 0-0.89062-0.34375-0.89062-0.84375 0-0.54688 0.40625-1.375 2.0625-1.4375zm0.84375-3.8906-1.5-1.6094-1.5156 1.6094 0.125 0.14062 1.3906-1.0781 1.375 1.0781z"/>
</symbol>
<symbol id="f" overflow="visible">
<path d="m4.1406-1.1875c0-0.09375-0.078125-0.125-0.14062-0.125-0.078125 0-0.10938 0.0625-0.125 0.14062-0.34375 1.0312-1.25 1.0312-1.3438 1.0312-0.5 0-0.89062-0.29688-1.125-0.67188-0.29688-0.46875-0.29688-1.125-0.29688-1.4844h2.7812c0.21875 0 0.25 0 0.25-0.21875 0-0.98438-0.54688-1.9531-1.7812-1.9531-1.1562 0-2.0781 1.0312-2.0781 2.2812 0 1.3281 1.0469 2.2969 2.1875 2.2969 1.2188 0 1.6719-1.1094 1.6719-1.2969zm-0.65625-1.3281h-2.375c0.0625-1.4844 0.90625-1.7344 1.25-1.7344 1.0156 0 1.125 1.3438 1.125 1.7344z"/>
</symbol>
<symbol id="ab" overflow="visible">
<path d="m5.25 1.9375v-0.3125c-0.67188 0-0.78125 0-0.78125-0.45312v-5.5781h-0.21875l-0.375 0.90625c-0.125-0.28125-0.53125-0.90625-1.3281-0.90625-1.1562 0-2.2031 0.96875-2.2031 2.2656 0 1.25 0.96875 2.25 2.125 2.25 0.6875 0 1.0938-0.42188 1.3125-0.71875v1.7812c0 0.45312-0.10938 0.45312-0.76562 0.45312v0.3125l1.1094-0.03125zm-1.4375-3.2969c0 0.32812-0.17188 0.60938-0.39062 0.84375-0.125 0.14062-0.45312 0.40625-0.92188 0.40625-0.71875 0-1.3281-0.89062-1.3281-2.0312 0-1.1875 0.6875-2.0156 1.4375-2.0156 0.79688 0 1.2031 0.85938 1.2031 1.3906z"/>
</symbol>
<symbol id="ah" overflow="visible">
<path d="m5.3281 0v-0.3125c-0.6875 0-0.76562-0.0625-0.76562-0.5625v-3.5312l-1.4688 0.10938v0.3125c0.6875 0 0.78125 0.0625 0.78125 0.5625v1.7656c0 0.875-0.48438 1.5469-1.2188 1.5469-0.82812 0-0.875-0.46875-0.875-0.98438v-3.3125l-1.4688 0.10938v0.3125c0.78125 0 0.78125 0.03125 0.78125 0.90625v1.5c0 0.78125 0 1.6875 1.5156 1.6875 0.5625 0 1-0.28125 1.2812-0.89062v0.89062z"/>
</symbol>
<symbol id="n" overflow="visible">
<path d="m2.4688 0v-0.3125c-0.67188 0-0.70312-0.046875-0.70312-0.4375v-3.6562l-1.3906 0.10938v0.3125c0.64062 0 0.73438 0.0625 0.73438 0.54688v2.6875c0 0.4375-0.10938 0.4375-0.78125 0.4375v0.3125l1.0938-0.03125c0.35938 0 0.70312 0.015625 1.0469 0.03125zm-0.5625-6.0156c0-0.28125-0.21875-0.53125-0.51562-0.53125-0.34375 0-0.54688 0.28125-0.54688 0.53125 0 0.26562 0.23438 0.51562 0.53125 0.51562 0.34375 0 0.53125-0.26562 0.53125-0.51562z"/>
</symbol>
<symbol id="ag" overflow="visible">
<path d="m2.5469 0v-0.3125c-0.67188 0-0.78125 0-0.78125-0.4375v-6.1719l-1.4375 0.10938v0.3125c0.70312 0 0.78125 0.0625 0.78125 0.5625v5.1875c0 0.4375-0.10938 0.4375-0.78125 0.4375v0.3125l1.1094-0.03125z"/>
</symbol>
<symbol id="af" overflow="visible">
<path d="m2.4688 0v-0.3125c-0.67188 0-0.70312-0.046875-0.70312-0.4375v-3.6562l-1.3906 0.10938v0.3125c0.64062 0 0.73438 0.0625 0.73438 0.54688v2.6875c0 0.4375-0.10938 0.4375-0.78125 0.4375v0.3125l1.0938-0.03125c0.35938 0 0.70312 0.015625 1.0469 0.03125zm0.15625-6.5938c0-0.1875-0.1875-0.35938-0.35938-0.35938-0.15625 0-0.26562 0.10938-0.29688 0.17188l-1.2031 1.5156 0.17188 0.1875 1.5156-1.2188c0.09375-0.078125 0.17188-0.1875 0.17188-0.29688z"/>
</symbol>
<symbol id="ae" overflow="visible">
<path d="m5.1875-2.1562c0-1.2656-0.96875-2.25-2.1094-2.25-0.78125 0-1.2031 0.46875-1.3594 0.64062v-3.1562l-1.4375 0.10938v0.3125c0.70312 0 0.78125 0.0625 0.78125 0.5625v5.9375h0.25l0.35938-0.625c0.14062 0.23438 0.5625 0.73438 1.2969 0.73438 1.1875 0 2.2188-0.98438 2.2188-2.2656zm-0.82812 0c0 0.35938-0.015625 0.95312-0.29688 1.4062-0.21875 0.3125-0.59375 0.64062-1.125 0.64062-0.45312 0-0.8125-0.23438-1.0469-0.60938-0.14062-0.20312-0.14062-0.23438-0.14062-0.42188v-2.0469c0-0.1875 0-0.20312 0.10938-0.35938 0.39062-0.5625 0.9375-0.64062 1.1719-0.64062 0.45312 0 0.8125 0.26562 1.0469 0.64062 0.26562 0.40625 0.28125 0.96875 0.28125 1.3906z"/>
</symbol>
<symbol id="m" overflow="visible">
<path d="m3.625-3.7969c0-0.3125-0.3125-0.60938-0.73438-0.60938-0.73438 0-1.0938 0.67188-1.2188 1.0938v-1.0938l-1.3906 0.10938v0.3125c0.70312 0 0.78125 0.0625 0.78125 0.5625v2.6719c0 0.4375-0.10938 0.4375-0.78125 0.4375v0.3125l1.1406-0.03125c0.39062 0 0.85938 0 1.2656 0.03125v-0.3125h-0.21875c-0.73438 0-0.75-0.10938-0.75-0.46875v-1.5312c0-0.98438 0.42188-1.875 1.1719-1.875 0.0625 0 0.09375 0 0.10938 0.015625-0.03125 0-0.23438 0.125-0.23438 0.39062s0.21875 0.42188 0.4375 0.42188c0.17188 0 0.42188-0.125 0.42188-0.4375z"/>
</symbol>
<symbol id="ad" overflow="visible">
<path d="m6.2188-4.9531c0-0.98438-0.98438-1.8594-2.3438-1.8594h-3.5312v0.3125h0.25c0.76562 0 0.78125 0.10938 0.78125 0.46875v5.25c0 0.35938-0.015625 0.46875-0.78125 0.46875h-0.25v0.3125c0.35938-0.03125 1.0938-0.03125 1.4688-0.03125s1.125 0 1.4844 0.03125v-0.3125h-0.25c-0.76562 0-0.78125-0.10938-0.78125-0.46875v-2.375h1.6875c1.1875 0 2.2656-0.79688 2.2656-1.7969zm-1.0312 0c0 0.46875 0 1.5469-1.5781 1.5469h-1.375v-2.6875c0-0.34375 0.015625-0.40625 0.48438-0.40625h0.89062c1.5781 0 1.5781 1.0625 1.5781 1.5469z"/>
</symbol>
<symbol id="ac" overflow="visible">
<path d="m4.1406-1.1875c0-0.09375-0.10938-0.09375-0.14062-0.09375-0.078125 0-0.10938 0.03125-0.125 0.09375-0.28125 0.92188-0.9375 1.0469-1.2969 1.0469-0.53125 0-1.4062-0.42188-1.4062-2.0312 0-1.625 0.8125-2.0469 1.3438-2.0469 0.09375 0 0.71875 0.015625 1.0625 0.375-0.40625 0.03125-0.46875 0.32812-0.46875 0.45312 0 0.26562 0.1875 0.45312 0.45312 0.45312s0.46875-0.15625 0.46875-0.46875c0-0.67188-0.76562-1.0625-1.5312-1.0625-1.25 0-2.1562 1.0781-2.1562 2.3125 0 1.2812 0.98438 2.2656 2.1406 2.2656 1.3281 0 1.6562-1.2031 1.6562-1.2969z"/>
</symbol>
<symbol id="aa" overflow="visible">
<path d="m-2.5781-6.5v0.25c1.5469 0.25 2.2656 0.48438 2.2656 2.1875v1.3281c0 0.46875-0.0625 0.48438-0.39062 0.48438h-2.6719v-0.89062c0-0.96875 0.32812-1.0781 1.1719-1.0781v-0.25h-2.6406v0.25c0.85938 0 1.1719 0.10938 1.1719 1.0781v0.89062h-2.4062c-0.32812 0-0.39062-0.015625-0.39062-0.48438v-1.2812c0-1.5312 0.54688-1.7969 1.9375-1.9531v-0.25l-2.25 0.28125v5.6094h0.3125v-0.23438c0-0.76562 0.10938-0.79688 0.46875-0.79688h5.2188c0.35938 0 0.46875 0.03125 0.46875 0.79688v0.23438h0.3125v-5.75z"/>
</symbol>
<symbol id="v" overflow="visible">
<path d="m0-5.3281h-0.3125c0 0.51562 0 0.76562-0.29688 0.76562h-1.9062c-0.85938 0-1.1562 0-1.5156 0.3125-0.17188 0.14062-0.375 0.46875-0.375 1.0469 0 0.73438 0.42188 1.2031 1.0469 1.4844h-1.0469l0.10938 1.4062h0.3125c0-0.70312 0.0625-0.78125 0.5625-0.78125h2.6719c0.4375 0 0.4375 0.10938 0.4375 0.78125h0.3125l-0.03125-1.1406 0.03125-1.1094h-0.3125c0 0.67188 0 0.78125-0.4375 0.78125h-1.8438c-1.0312 0-1.5938-0.71875-1.5938-1.3438 0-0.64062 0.53125-0.75 1.1094-0.75h2.3281c0.4375 0 0.4375 0.10938 0.4375 0.78125h0.3125l-0.03125-1.125z"/>
</symbol>
<symbol id="e" overflow="visible">
<path d="m-1.1875-4.1406c-0.09375 0-0.125 0.078125-0.125 0.14062 0 0.078125 0.0625 0.10938 0.14062 0.125 1.0312 0.34375 1.0312 1.25 1.0312 1.3438 0 0.5-0.29688 0.89062-0.67188 1.125-0.46875 0.29688-1.125 0.29688-1.4844 0.29688v-2.7812c0-0.21875 0-0.25-0.21875-0.25-0.98438 0-1.9531 0.54688-1.9531 1.7812 0 1.1562 1.0312 2.0781 2.2812 2.0781 1.3281 0 2.2969-1.0469 2.2969-2.1875 0-1.2188-1.1094-1.6719-1.2969-1.6719zm-1.3281 0.65625v2.375c-1.4844-0.0625-1.7344-0.90625-1.7344-1.25 0-1.0156 1.3438-1.125 1.7344-1.125z"/>
</symbol>
<symbol id="h" overflow="visible">
<path d="m-3.7969-3.625c-0.3125 0-0.60938 0.3125-0.60938 0.73438 0 0.73438 0.67188 1.0938 1.0938 1.2188h-1.0938l0.10938 1.3906h0.3125c0-0.70312 0.0625-0.78125 0.5625-0.78125h2.6719c0.4375 0 0.4375 0.10938 0.4375 0.78125h0.3125l-0.03125-1.1406c0-0.39062 0-0.85938 0.03125-1.2656h-0.3125v0.21875c0 0.73438-0.10938 0.75-0.46875 0.75h-1.5312c-0.98438 0-1.875-0.42188-1.875-1.1719 0-0.0625 0-0.09375 0.015625-0.10938 0 0.03125 0.125 0.23438 0.39062 0.23438s0.42188-0.21875 0.42188-0.4375c0-0.17188-0.125-0.42188-0.4375-0.42188z"/>
</symbol>
<symbol id="u" overflow="visible">
<path d="m-4.0312-4.8281c-0.17188 0-0.48438 0.10938-0.48438 0.5 0 0.20312 0.0625 0.64062 0.46875 1.0625-0.32812 0.42188-0.35938 0.82812-0.35938 1.0469 0 0.9375 0.6875 1.625 1.4531 1.625 0.4375 0 0.8125-0.21875 1.0312-0.46875 0.14062 0.125 0.46875 0.3125 0.82812 0.3125 0.3125 0 0.6875-0.14062 0.89062-0.45312 0.15625 0.60938 0.59375 0.92188 0.98438 0.92188 0.71875 0 1.2656-0.98438 1.2656-2.2031 0-1.1719-0.5-2.2031-1.2812-2.2031-0.34375 0-0.85938 0.125-1.1406 0.64062-0.26562 0.53125-0.26562 1.1094-0.26562 1.7188 0 0.25 0 0.67188-0.015625 0.75-0.046875 0.3125-0.34375 0.51562-0.67188 0.51562-0.03125 0-0.26562 0-0.46875-0.15625 0.28125-0.39062 0.3125-0.8125 0.3125-1 0-0.92188-0.6875-1.6094-1.4531-1.6094-0.375 0-0.73438 0.15625-0.96875 0.40625-0.34375-0.35938-0.39062-0.71875-0.39062-0.89062 0 0 0-0.078125 0.015625-0.10938 0.03125 0.10938 0.14062 0.17188 0.26562 0.17188 0.17188 0 0.28125-0.14062 0.28125-0.29688 0-0.09375-0.0625-0.28125-0.29688-0.28125zm1.0781 1.75c0.26562 0 0.59375 0 0.84375 0.15625 0.10938 0.078125 0.39062 0.3125 0.39062 0.70312 0 0.875-1 0.875-1.2188 0.875-0.26562 0-0.59375-0.015625-0.84375-0.15625-0.10938-0.078125-0.39062-0.3125-0.39062-0.71875 0-0.85938 0.98438-0.85938 1.2188-0.85938zm3.7344-1.0938c0.54688 0 1.0469 0.70312 1.0469 1.6719 0 1.0156-0.51562 1.7031-1.0469 1.7031-0.45312 0-0.82812-0.375-0.84375-0.8125v-0.59375c0-0.85938 0-1.9688 0.84375-1.9688z"/>
</symbol>
<symbol id="d" overflow="visible">
<path d="m0-2.4688h-0.3125c0 0.67188-0.046875 0.70312-0.4375 0.70312h-3.6562l0.10938 1.3906h0.3125c0-0.64062 0.0625-0.73438 0.54688-0.73438h2.6875c0.4375 0 0.4375 0.10938 0.4375 0.78125h0.3125l-0.03125-1.0938c0-0.35938 0.015625-0.70312 0.03125-1.0469zm-6.0156 0.5625c-0.28125 0-0.53125 0.21875-0.53125 0.51562 0 0.34375 0.28125 0.54688 0.53125 0.54688 0.26562 0 0.51562-0.23438 0.51562-0.53125 0-0.34375-0.26562-0.53125-0.51562-0.53125z"/>
</symbol>
<symbol id="t" overflow="visible">
<path d="m-0.89062-4.8125h-0.5625v0.25h0.5625c0.57812 0 0.64062 0.25 0.64062 0.35938 0 0.32812-0.45312 0.35938-0.5 0.35938h-1.9844c-0.42188 0-0.8125 0-1.1875 0.35938-0.39062 0.39062-0.54688 0.89062-0.54688 1.375 0 0.8125 0.46875 1.5 1.125 1.5 0.29688 0 0.46875-0.20312 0.46875-0.45312 0-0.28125-0.20312-0.46875-0.45312-0.46875-0.125 0-0.45312 0.0625-0.45312 0.51562-0.35938-0.26562-0.46875-0.76562-0.46875-1.0781 0-0.48438 0.39062-1.0625 1.2812-1.0625h0.35938c0.03125 0.51562 0.0625 1.2188 0.35938 1.8438 0.34375 0.75 0.85938 1 1.2969 1 0.8125 0 1.0625-0.96875 1.0625-1.5938 0-0.67188-0.40625-1.125-0.85938-1.3125 0.39062-0.046875 0.8125-0.3125 0.8125-0.78125 0-0.20312-0.14062-0.8125-0.95312-0.8125zm-0.5 1.6562c0.9375 0 1.2812 0.71875 1.2812 1.1719 0 0.48438-0.34375 0.89062-0.84375 0.89062-0.54688 0-1.375-0.40625-1.4375-2.0625z"/>
</symbol>
<symbol id="s" overflow="visible">
<path d="m0-2.5469h-0.3125c0 0.67188 0 0.78125-0.4375 0.78125h-6.1719l0.10938 1.4375h0.3125c0-0.70312 0.0625-0.78125 0.5625-0.78125h5.1875c0.4375 0 0.4375 0.10938 0.4375 0.78125h0.3125l-0.03125-1.1094z"/>
</symbol>
<symbol id="r" overflow="visible">
<path d="m-3.9844-5.0625h-0.3125c0.015625 0.23438 0.03125 0.51562 0.03125 0.75l-0.03125 0.85938h0.3125c0-0.35938 0.23438-0.46875 0.42188-0.46875 0.09375 0 0.14062 0.015625 0.25 0.046875l2.5312 1.0312-2.7812 1.1094c-0.125 0.0625-0.17188 0.0625-0.17188 0.0625-0.25 0-0.25-0.39062-0.25-0.57812h-0.3125l0.03125 1.0938c0 0.26562-0.015625 0.67188-0.03125 0.96875h0.3125c0-0.625 0.0625-0.67188 0.35938-0.79688l3.5469-1.4375c0.14062-0.0625 0.1875-0.078125 0.1875-0.20312 0-0.14062-0.09375-0.17188-0.1875-0.21875l-3.2344-1.2969c-0.23438-0.09375-0.67188-0.26562-0.67188-0.92188z"/>
</symbol>
<symbol id="z" overflow="visible">
<path d="m0-5.25h-0.3125c0 0.6875-0.0625 0.78125-0.5625 0.78125h-6.0469l0.10938 1.4219h0.3125c0-0.6875 0.0625-0.76562 0.5625-0.76562h2.1562c-0.35938 0.28125-0.625 0.71875-0.625 1.25 0 1.1719 0.98438 2.2188 2.2656 2.2188 1.2656 0 2.25-0.96875 2.25-2.1094 0-0.64062-0.34375-1.0781-0.65625-1.3281h0.65625zm-1.1719 1.4688c0.17188 0 0.1875 0 0.35938 0.10938 0.48438 0.29688 0.70312 0.73438 0.70312 1.1719 0 0.45312-0.26562 0.8125-0.64062 1.0469-0.40625 0.25-0.96875 0.28125-1.3906 0.28125-0.35938 0-0.95312-0.015625-1.4062-0.29688-0.3125-0.21875-0.64062-0.59375-0.64062-1.1406 0-0.34375 0.15625-0.76562 0.59375-1.0625 0.17188-0.10938 0.1875-0.10938 0.375-0.10938z"/>
</symbol>
<symbol id="y" overflow="visible">
<path d="m-2.4062-7.3281h-0.3125l0.03125 1.2188c0 0.39062 0 1.25-0.03125 1.6094h0.3125v-0.32812c0-0.89062 0.10938-0.92188 0.46875-0.92188h0.64062c1.125 0 1.2031 1.2656 1.2031 1.5469 0 0.64062-0.34375 2.625-3.3125 2.625-2.9844 0-3.3125-1.9688-3.3125-2.5625 0-1.0781 0.89062-1.9844 2.3594-2.1719 0.14062-0.03125 0.17188-0.03125 0.17188-0.17188 0-0.15625-0.03125-0.15625-0.23438-0.15625h-2.3594c-0.17188 0-0.25 0-0.25 0.10938 0 0.046875 0 0.078125 0.125 0.15625l0.73438 0.5c-0.3125 0.32812-0.85938 0.85938-0.85938 1.8438 0 1.8594 1.5781 3.4688 3.625 3.4688s3.625-1.5938 3.625-3.4844c0-0.73438-0.26562-1.5312-0.84375-1.8594 0.21875-0.14062 0.60938-0.53125 0.60938-0.64062 0-0.09375-0.078125-0.09375-0.21875-0.09375h-1.7344c-0.39062 0-0.4375-0.03125-0.4375-0.6875z"/>
</symbol>
<symbol id="i" overflow="visible">
<path d="m-2.1562-5.1875c-1.2656 0-2.25 0.96875-2.25 2.1094 0 0.78125 0.46875 1.2031 0.64062 1.3594h-3.1562l0.10938 1.4375h0.3125c0-0.70312 0.0625-0.78125 0.5625-0.78125h5.9375v-0.25l-0.625-0.35938c0.23438-0.14062 0.73438-0.5625 0.73438-1.2969 0-1.1875-0.98438-2.2188-2.2656-2.2188zm0 0.82812c0.35938 0 0.95312 0.015625 1.4062 0.29688 0.3125 0.21875 0.64062 0.59375 0.64062 1.125 0 0.45312-0.23438 0.8125-0.60938 1.0469-0.20312 0.14062-0.23438 0.14062-0.42188 0.14062h-2.0469c-0.1875 0-0.20312 0-0.35938-0.10938-0.5625-0.39062-0.64062-0.9375-0.64062-1.1719 0-0.45312 0.26562-0.8125 0.64062-1.0469 0.40625-0.26562 0.96875-0.28125 1.3906-0.28125z"/>
</symbol>
<symbol id="x" overflow="visible">
<path d="m-1.2812-3.5938c-0.51562 0-0.82812 0.29688-0.9375 0.42188-0.32812 0.32812-0.40625 0.71875-0.48438 1.1406-0.10938 0.5625-0.23438 1.2188-0.8125 1.2188-0.35938 0-0.76562-0.25-0.76562-1.1094 0-1.0938 0.90625-1.1562 1.2031-1.1719 0.09375 0 0.09375-0.10938 0.09375-0.10938 0-0.14062-0.046875-0.14062-0.23438-0.14062h-1.0156c-0.15625 0-0.23438 0-0.23438 0.10938 0 0.046875 0 0.078125 0.125 0.20312 0.03125 0.03125 0.125 0.125 0.15625 0.17188-0.28125 0.375-0.28125 0.78125-0.28125 0.9375 0 1.2188 0.67188 1.5938 1.2344 1.5938 0.34375 0 0.625-0.15625 0.84375-0.42188 0.25-0.32812 0.3125-0.60938 0.45312-1.3281 0.046875-0.21875 0.20312-1.0312 0.92188-1.0312 0.5 0 0.90625 0.34375 0.90625 1.125 0 0.84375-0.5625 1.2031-1.4219 1.3906-0.125 0.03125-0.15625 0.03125-0.15625 0.14062 0 0.125 0.0625 0.125 0.23438 0.125h1.3281c0.17188 0 0.23438 0 0.23438-0.10938 0-0.046875-0.015625-0.0625-0.20312-0.25-0.015625-0.015625-0.03125-0.015625-0.21875-0.20312 0.40625-0.4375 0.42188-0.89062 0.42188-1.0938 0-1.1406-0.67188-1.6094-1.3906-1.6094z"/>
</symbol>
<symbol id="w" overflow="visible">
<path d="m-0.015625-2.0312c-0.625 0-1.0469 0.25-1.0469 0.64062 0 0.35938 0.28125 0.53125 0.53125 0.53125 0.26562 0 0.53125-0.17188 0.53125-0.53125 0-0.14062-0.0625-0.28125-0.15625-0.39062 0.78125-0.015625 1.3906 0.25 1.8594 0.6875 0.0625 0.0625 0.078125 0.078125 0.10938 0.078125 0.078125 0 0.10938-0.046875 0.10938-0.09375 0-0.125-0.78125-0.92188-1.9375-0.92188z"/>
</symbol>
<symbol id="q" overflow="visible">
<path d="m-2.6094-7.1875c-0.078125 0-0.10938 0.046875-0.10938 0.125 0 0.23438 0.03125 0.82812 0.03125 1.0469l-0.03125 1.4062c0 0.078125 0 0.20312 0.20312 0.20312 0.10938 0 0.10938-0.078125 0.10938-0.29688 0 0 0-0.29688 0.015625-0.53125 0.03125-0.26562 0.0625-0.3125 0.1875-0.3125 0.09375 0 0.53125 0.10938 0.90625 0.21875 1.0938 0.28125 1.2031 1.5625 1.2031 1.9219 0 0.95312-0.5625 2-2.0938 2-0.3125 0-1.9531-0.09375-3.25-1.1406-0.67188-0.54688-1.2812-1.5156-1.2812-2.5 0-1.0156 0.76562-1.6094 1.9219-1.6094 0.40625 0 0.40625 0.03125 0.51562 0.03125 0.09375 0 0.09375-0.10938 0.09375-0.14062 0-0.125-0.015625-0.125-0.20312-0.1875l-2.5312-0.625c-0.03125 0-0.10938 0.015625-0.10938 0.10938 0 0.03125 0.015625 0.046875 0.125 0.15625l0.76562 0.6875c-0.14062 0.09375-0.89062 0.54688-0.89062 1.6562 0 2.2344 2.2031 4.4688 4.5156 4.4688 1.5938 0 2.7344-1.1094 2.7344-2.7188 0-0.4375-0.09375-0.89062-0.23438-1.25-0.20312-0.5-0.40625-0.6875-0.60938-0.85938 0.25-0.09375 0.60938-0.35938 0.60938-0.45312 0-0.046875-0.03125-0.078125-0.03125-0.078125-0.015625-0.015625-0.40625-0.10938-0.60938-0.15625l-0.76562-0.1875c-0.17188-0.046875-0.34375-0.09375-0.51562-0.14062-0.4375-0.10938-0.46875-0.10938-0.46875-0.6875 0-0.046875-0.015625-0.15625-0.20312-0.15625z"/>
</symbol>
<clipPath id="am">
<path d="m13.352 1h194.27v152h-194.27z"/>
</clipPath>
<clipPath id="al">
<path d="m13.352 1h194.27v161.39h-194.27z"/>
</clipPath>
<filter id="an" x="0%" y="0%" width="100%" height="100%">
<feColorMatrix in="SourceGraphic" values="0 0 0 0 1 0 0 0 0 1 0 0 0 0 1 0 0 0 1 0"/>
</filter>
<mask id="p">
<g filter="url(#an)">
<rect width="208" height="173" fill-opacity=".75"/>
</g>
</mask>
<clipPath id="aj">
<path d="m0.35156 0h120.65v150h-120.65z"/>
</clipPath>
<clipPath id="ai">
<path d="m76 4h118.62v157.39h-118.62z"/>
</clipPath>
<clipPath id="ak">
<rect width="195" height="162"/>
</clipPath>
<g id="o" clip-path="url(#ak)">
<g clip-path="url(#aj)">
<path transform="matrix(1 0 0 -1 .353 161.39)" d="m15.338 134.49 20.617-37.965" fill="none" stroke="#dc3445" stroke-miterlimit="10" stroke-width="5.9777"/>
</g>
<path d="m41.254 73.969-0.62891-18.523-4.3164 9.418-10.25-1.5078" fill="#dc3445"/>
<g clip-path="url(#ai)">
<path transform="matrix(1 0 0 -1 .353 161.39)" d="m184.05 72.358-23.66-25.73" fill="none" stroke="#dc3445" stroke-miterlimit="10" stroke-width="5.9777"/>
</g>
<path d="m153.73 122.39 17.32-6.5898-10.309-1.0352-1.8906-10.188" fill="#dc3445"/>
</g>
</defs>
<path transform="matrix(1 0 0 -1 13.353 162.39)" d="m-0.0014375-0.001625v161.39h194.27v-161.39z" fill="none" stroke="#000" stroke-miterlimit="10" stroke-width=".3985"/>
<g clip-path="url(#am)">
<path transform="matrix(1 0 0 -1 13.353 162.39)" d="m-0.0014375 169.19 1.3047-3.1367 1.3047-3.1016 1.3047-3.0703 1.3008-3.0312 1.3047-3 1.3047-2.9609 1.3047-2.9297 1.3047-2.8945 1.3008-2.8555 1.3047-2.8242 1.3047-2.7891 1.3047-2.7539 1.3047-2.7188 1.3008-2.6797 1.3047-2.6484 1.3047-2.6133 1.3047-2.5781 1.3008-2.5469 1.3047-2.5078 1.3047-2.4727 1.3047-2.4375 1.3047-2.4023 1.3008-2.3711 1.3047-2.332 1.3047-2.2969 1.3047-2.2656 1.3008-2.2266 1.3047-2.1953 1.3047-2.1562 1.3047-2.125 1.3047-2.0859 1.3008-2.0547 1.3047-2.0195 1.3047-1.9805 1.3047-1.9492 1.3008-1.9141 1.3047-1.8789 1.3047-1.8438 1.3047-1.8086 1.3047-1.7734 1.3008-1.7383 1.3047-1.7031 1.3047-1.668 1.3047-1.6328 1.3047-1.6016 1.3008-1.5625 1.3047-1.5273 1.3047-1.4922 1.3047-1.4609 1.3008-1.4219 1.3047-1.3906 1.3047-1.3516 1.3047-1.3203 1.3047-1.2812 1.3008-1.25 1.3047-1.2148 1.3047-1.1758 1.3047-1.1445 1.3008-1.1094 1.3047-1.0742 1.3047-1.0391 1.3047-1.0039 1.3047-0.96875 1.3008-0.93359 1.3047-0.89844 1.3047-0.86328 1.3047-0.82812 1.3008-0.79297 1.3047-0.76172 1.3047-0.72266 1.3047-0.6875 1.3047-0.65625 1.3008-0.61719 1.3047-0.58203 1.3047-0.55078 1.3047-0.51172 1.3008-0.48047 1.3047-0.44531 1.3047-0.40625 1.3047-0.375 1.3047-0.33984 1.3008-0.30469 1.3047-0.26562 1.3047-0.23438 1.3047-0.19922 1.3047-0.16406 1.3008-0.12891 1.3047-0.09375 1.3047-0.058594 1.3047-0.023437 1.3008 0.007812 1.3047 0.046875 1.3047 0.082032 1.3047 0.11719 1.3047 0.14844 1.3008 0.1875 1.3047 0.21875 1.3047 0.25781 1.3047 0.28906 1.3008 0.32812 1.3047 0.35938 1.3047 0.39844 1.3047 0.42969 1.3047 0.46484 1.3008 0.5 1.3047 0.53906 1.3047 0.57031 1.3047 0.60547 1.3008 0.64062 1.3047 0.67578 1.3047 0.71094 1.3047 0.74609 1.3047 0.78125 1.3008 0.81641 1.3047 0.84766 1.3047 0.88672 1.3047 0.92188 1.3047 0.95703 1.3008 0.98828 1.3047 1.0273 1.3047 1.0586 1.3047 1.0977 1.3008 1.1289 1.3047 1.168 1.3047 1.1992 1.3047 1.2344 1.3047 1.2734 1.3008 1.3047 1.3047 1.3398 1.3047 1.375 1.3047 1.4102 1.3008 1.4453 1.3047 1.4844 1.3047 1.5156 1.3047 1.5469 1.3047 1.5859 1.3008 1.6211 1.3047 1.6562 1.3047 1.6914 1.3047 1.7266 1.3008 1.7578 1.3047 1.7969 1.3047 1.832 1.3047 1.8633 1.3047 1.9023 1.3008 1.9336 1.3047 1.9727 1.3047 2.0039 1.3047 2.0391" fill="none" stroke="#0c6dfd" stroke-miterlimit="10" stroke-width="1.1955"/>
</g>
<g clip-path="url(#al)">
<use transform="translate(13 1)" mask="url(#p)" xlink:href="#o"/>
</g>
<g>
<use x="42.434" y="35.891" xlink:href="#g"/>
<use x="49.214546" y="35.891" xlink:href="#c"/>
<use x="53.144791" y="35.891" xlink:href="#l"/>
<use x="58.958965" y="35.891" xlink:href="#a"/>
<use x="63.940265" y="35.891" xlink:href="#b"/>
<use x="69.196532" y="35.891" xlink:href="#k"/>
<use x="73.070988" y="35.891" xlink:href="#j"/>
<use x="78.052288" y="35.891" xlink:href="#b"/>
<use x="83.587508" y="35.891" xlink:href="#f"/>
<use x="88.015884" y="35.891" xlink:href="#a"/>
<use x="143.318" y="84.308" xlink:href="#g"/>
<use x="150.098546" y="84.308" xlink:href="#c"/>
<use x="154.028791" y="84.308" xlink:href="#l"/>
<use x="159.842965" y="84.308" xlink:href="#a"/>
<use x="164.824265" y="84.308" xlink:href="#b"/>
<use x="170.080532" y="84.308" xlink:href="#k"/>
<use x="173.954988" y="84.308" xlink:href="#j"/>
<use x="178.936288" y="84.308" xlink:href="#b"/>
<use x="184.471508" y="84.308" xlink:href="#f"/>
<use x="188.899884" y="84.308" xlink:href="#a"/>
</g>
<path transform="matrix(1 0 0 -1 13.353 162.39)" d="m92.733 39.967h49.703v15.441h-49.703z" fill="#fff" stroke="#000" stroke-miterlimit="10" stroke-width=".3985"/>
<g>
<use x="109.407" y="117.166" xlink:href="#g"/>
<use x="116.187546" y="117.166" xlink:href="#ab"/>
<use x="121.445806" y="117.166" xlink:href="#ah"/>
<use x="126.981026" y="117.166" xlink:href="#n"/>
<use x="129.748637" y="117.166" xlink:href="#ag"/>
<use x="132.516247" y="117.166" xlink:href="#af"/>
<use x="135.283857" y="117.166" xlink:href="#ae"/>
<use x="140.819078" y="117.166" xlink:href="#m"/>
<use x="144.721428" y="117.166" xlink:href="#n"/>
<use x="147.489039" y="117.166" xlink:href="#a"/>
</g>
<path transform="matrix(1 0 0 -1 13.353 162.39)" d="m117.58 26.897v12.871" fill="none" stroke="#7f7f7f" stroke-miterlimit="10" stroke-width=".19925"/>
<path transform="matrix(1 0 0 -1 13.353 162.39)" d="m119.58 26.897c0 1.1016-0.89062 1.9922-1.9922 1.9922-1.0977 0-1.9922-0.89062-1.9922-1.9922 0-1.0977 0.89453-1.9922 1.9922-1.9922 1.1016 0 1.9922 0.89453 1.9922 1.9922z" fill="#fff" stroke="#0c6dfd" stroke-miterlimit="10" stroke-width="1.1955"/>
<g>
<use x="91.669" y="172.772" xlink:href="#ad"/>
<use x="98.449546" y="172.772" xlink:href="#m"/>
<use x="102.351896" y="172.772" xlink:href="#a"/>
<use x="107.612149" y="172.772" xlink:href="#ac"/>
<use x="112.040524" y="172.772" xlink:href="#f"/>
<use x="116.4689" y="172.772" xlink:href="#c"/>
<use x="120.399146" y="172.772" xlink:href="#c"/>
<use x="124.329392" y="172.772" xlink:href="#a"/>
<use x="7.896" y="137.66" xlink:href="#aa"/>
<use x="7.896" y="130.879454" xlink:href="#v"/>
<use x="7.896" y="125.344234" xlink:href="#e"/>
<use x="7.896" y="120.915858" xlink:href="#h"/>
<use x="7.896" y="117.013508" xlink:href="#u"/>
<use x="7.896" y="112.032208" xlink:href="#d"/>
<use x="7.896" y="109.264597" xlink:href="#t"/>
<use x="7.896" y="100.965752" xlink:href="#s"/>
<use x="7.896" y="98.198141" xlink:href="#d"/>
<use x="7.896" y="95.430531" xlink:href="#r"/>
<use x="7.896" y="90.172271" xlink:href="#h"/>
<use x="7.896" y="86.26992" xlink:href="#e"/>
<use x="7.896" y="78.523999" xlink:href="#z"/>
<use x="7.896" y="72.988778" xlink:href="#e"/>
<use x="7.896" y="65.232894" xlink:href="#y"/>
<use x="7.896" y="57.415242" xlink:href="#d"/>
<use x="7.896" y="54.647632" xlink:href="#i"/>
<use x="7.896" y="49.112411" xlink:href="#i"/>
<use x="7.896" y="43.587153" xlink:href="#x"/>
<use x="7.896" y="39.656908" xlink:href="#w"/>
<use x="7.896" y="33.565" xlink:href="#q"/>
</g>
</svg>
