<?xml version="1.0" encoding="UTF-8"?>
<svg width="215pt" height="175pt" version="1.1" viewBox="0 0 215 175" xmlns="http://www.w3.org/2000/svg" xmlns:xlink="http://www.w3.org/1999/xlink">
<defs>
<symbol id="o" overflow="visible">
<path d="m4.8125-0.89062v-0.5625h-0.25v0.5625c0 0.57812-0.25 0.64062-0.35938 0.64062-0.32812 0-0.35938-0.45312-0.35938-0.5v-1.9844c0-0.42188 0-0.8125-0.35938-1.1875-0.39062-0.39062-0.89062-0.54688-1.375-0.54688-0.8125 0-1.5 0.46875-1.5 1.125 0 0.29688 0.20312 0.46875 0.45312 0.46875 0.28125 0 0.46875-0.20312 0.46875-0.45312 0-0.125-0.0625-0.45312-0.51562-0.45312 0.26562-0.35938 0.76562-0.46875 1.0781-0.46875 0.48438 0 1.0625 0.39062 1.0625 1.2812v0.35938c-0.51562 0.03125-1.2188 0.0625-1.8438 0.35938-0.75 0.34375-1 0.85938-1 1.2969 0 0.8125 0.96875 1.0625 1.5938 1.0625 0.67188 0 1.125-0.40625 1.3125-0.85938 0.046875 0.39062 0.3125 0.8125 0.78125 0.8125 0.20312 0 0.8125-0.14062 0.8125-0.95312zm-1.6562-0.5c0 0.9375-0.71875 1.2812-1.1719 1.2812-0.48438 0-0.89062-0.34375-0.89062-0.84375 0-0.54688 0.40625-1.375 2.0625-1.4375z"/>
</symbol>
<symbol id="b" overflow="visible">
<path d="m5.25 0v-0.3125c-0.6875 0-0.78125-0.0625-0.78125-0.5625v-6.0469l-1.4219 0.10938v0.3125c0.6875 0 0.76562 0.0625 0.76562 0.5625v2.1562c-0.28125-0.35938-0.71875-0.625-1.25-0.625-1.1719 0-2.2188 0.98438-2.2188 2.2656 0 1.2656 0.96875 2.25 2.1094 2.25 0.64062 0 1.0781-0.34375 1.3281-0.65625v0.65625zm-1.4688-1.1719c0 0.17188 0 0.1875-0.10938 0.35938-0.29688 0.48438-0.73438 0.70312-1.1719 0.70312-0.45312 0-0.8125-0.26562-1.0469-0.64062-0.25-0.40625-0.28125-0.96875-0.28125-1.3906 0-0.35938 0.015625-0.95312 0.29688-1.4062 0.21875-0.3125 0.59375-0.64062 1.1406-0.64062 0.34375 0 0.76562 0.15625 1.0625 0.59375 0.10938 0.17188 0.10938 0.1875 0.10938 0.375z"/>
</symbol>
<symbol id="n" overflow="visible">
<path d="m2.4688 0v-0.3125c-0.67188 0-0.70312-0.046875-0.70312-0.4375v-3.6562l-1.3906 0.10938v0.3125c0.64062 0 0.73438 0.0625 0.73438 0.54688v2.6875c0 0.4375-0.10938 0.4375-0.78125 0.4375v0.3125l1.0938-0.03125c0.35938 0 0.70312 0.015625 1.0469 0.03125zm-0.5625-6.0156c0-0.28125-0.21875-0.53125-0.51562-0.53125-0.34375 0-0.54688 0.28125-0.54688 0.53125 0 0.26562 0.23438 0.51562 0.53125 0.51562 0.34375 0 0.53125-0.26562 0.53125-0.51562z"/>
</symbol>
<symbol id="m" overflow="visible">
<path d="m4.1406-1.1875c0-0.09375-0.10938-0.09375-0.14062-0.09375-0.078125 0-0.10938 0.03125-0.125 0.09375-0.28125 0.92188-0.9375 1.0469-1.2969 1.0469-0.53125 0-1.4062-0.42188-1.4062-2.0312 0-1.625 0.8125-2.0469 1.3438-2.0469 0.09375 0 0.71875 0.015625 1.0625 0.375-0.40625 0.03125-0.46875 0.32812-0.46875 0.45312 0 0.26562 0.1875 0.45312 0.45312 0.45312s0.46875-0.15625 0.46875-0.46875c0-0.67188-0.76562-1.0625-1.5312-1.0625-1.25 0-2.1562 1.0781-2.1562 2.3125 0 1.1719 0.8125 2.0938 1.8281 2.25v0.82812c0.375 0 0.76562 0.078125 0.76562 0.40625 0 0.40625-0.95312 0.40625-1.7031 0.40625h-0.125v0.26562h0.25c1.0781 0 2.4062 0 2.4062-0.67188 0-0.46875-0.53125-0.67188-1.0781-0.67188v-0.5625c1.1562-0.10938 1.4531-1.1875 1.4531-1.2812z"/>
</symbol>
<symbol id="l" overflow="visible">
<path d="m4.8125-0.89062v-0.5625h-0.25v0.5625c0 0.57812-0.25 0.64062-0.35938 0.64062-0.32812 0-0.35938-0.45312-0.35938-0.5v-1.9844c0-0.42188 0-0.8125-0.35938-1.1875-0.39062-0.39062-0.89062-0.54688-1.375-0.54688-0.8125 0-1.5 0.46875-1.5 1.125 0 0.29688 0.20312 0.46875 0.45312 0.46875 0.28125 0 0.46875-0.20312 0.46875-0.45312 0-0.125-0.0625-0.45312-0.51562-0.45312 0.26562-0.35938 0.76562-0.46875 1.0781-0.46875 0.48438 0 1.0625 0.39062 1.0625 1.2812v0.35938c-0.51562 0.03125-1.2188 0.0625-1.8438 0.35938-0.75 0.34375-1 0.85938-1 1.2969 0 0.8125 0.96875 1.0625 1.5938 1.0625 0.67188 0 1.125-0.40625 1.3125-0.85938 0.046875 0.39062 0.3125 0.8125 0.78125 0.8125 0.20312 0 0.8125-0.14062 0.8125-0.95312zm-1.6562-0.5c0 0.9375-0.71875 1.2812-1.1719 1.2812-0.48438 0-0.89062-0.34375-0.89062-0.84375 0-0.54688 0.40625-1.375 2.0625-1.4375zm1-4.9531-0.15625-0.14062s-0.375 0.46875-0.8125 0.46875c-0.23438 0-0.48438-0.14062-0.65625-0.25-0.26562-0.15625-0.45312-0.21875-0.625-0.21875-0.375 0-0.5625 0.21875-1.0625 0.76562l0.15625 0.15625s0.375-0.48438 0.8125-0.48438c0.23438 0 0.48438 0.15625 0.65625 0.25 0.26562 0.17188 0.4375 0.23438 0.60938 0.23438 0.375 0 0.57812-0.21875 1.0781-0.78125z"/>
</symbol>
<symbol id="k" overflow="visible">
<path d="m4.6875-2.1406c0-1.2656-0.98438-2.3281-2.1875-2.3281-1.25 0-2.2188 1.0938-2.2188 2.3281 0 1.2969 1.0312 2.25 2.2031 2.25 1.2031 0 2.2031-0.98438 2.2031-2.25zm-0.8125-0.078125c0 0.35938 0 0.90625-0.21875 1.3438-0.23438 0.45312-0.67188 0.73438-1.1562 0.73438-0.4375 0-0.875-0.20312-1.1406-0.67188-0.25-0.4375-0.25-1.0469-0.25-1.4062 0-0.39062 0-0.92188 0.23438-1.3594 0.26562-0.45312 0.73438-0.67188 1.1406-0.67188 0.4375 0 0.85938 0.21875 1.125 0.65625 0.26562 0.42188 0.26562 1 0.26562 1.375z"/>
</symbol>
<symbol id="j" overflow="visible">
<path d="m4.1406-1.1875c0-0.09375-0.078125-0.125-0.14062-0.125-0.078125 0-0.10938 0.0625-0.125 0.14062-0.34375 1.0312-1.25 1.0312-1.3438 1.0312-0.5 0-0.89062-0.29688-1.125-0.67188-0.29688-0.46875-0.29688-1.125-0.29688-1.4844h2.7812c0.21875 0 0.25 0 0.25-0.21875 0-0.98438-0.54688-1.9531-1.7812-1.9531-1.1562 0-2.0781 1.0312-2.0781 2.2812 0 1.3281 1.0469 2.2969 2.1875 2.2969 1.2188 0 1.6719-1.1094 1.6719-1.2969zm-0.65625-1.3281h-2.375c0.0625-1.4844 0.90625-1.7344 1.25-1.7344 1.0156 0 1.125 1.3438 1.125 1.7344z"/>
</symbol>
<symbol id="a" overflow="visible">
<path d="m7.1406 0v-0.3125h-0.25c-0.76562 0-0.78125-0.10938-0.78125-0.46875v-5.25c0-0.35938 0.015625-0.46875 0.78125-0.46875h0.25v-0.3125c-0.35938 0.03125-1.0938 0.03125-1.4688 0.03125s-1.125 0-1.4688-0.03125v0.3125h0.23438c0.76562 0 0.78125 0.10938 0.78125 0.46875v2.3281h-2.9688v-2.3281c0-0.35938 0.015625-0.46875 0.78125-0.46875h0.23438v-0.3125c-0.34375 0.03125-1.0781 0.03125-1.4688 0.03125-0.375 0-1.125 0-1.4688-0.03125v0.3125h0.23438c0.76562 0 0.79688 0.10938 0.79688 0.46875v5.25c0 0.35938-0.03125 0.46875-0.79688 0.46875h-0.23438v0.3125c0.34375-0.03125 1.0938-0.03125 1.4688-0.03125s1.125 0 1.4688 0.03125v-0.3125h-0.23438c-0.76562 0-0.78125-0.10938-0.78125-0.46875v-2.6094h2.9688v2.6094c0 0.35938-0.015625 0.46875-0.78125 0.46875h-0.23438v0.3125c0.34375-0.03125 1.0781-0.03125 1.4531-0.03125 0.39062 0 1.125 0 1.4844 0.03125z"/>
</symbol>
<symbol id="e" overflow="visible">
<path d="m7.1406-6.5v-0.3125l-1.1719 0.03125-1.1562-0.03125v0.3125c1.0156 0 1.0156 0.46875 1.0156 0.73438v4.2656l-3.5156-5.1719c-0.09375-0.125-0.09375-0.14062-0.28125-0.14062h-1.7031v0.3125h0.29688c0.14062 0 0.34375 0.015625 0.48438 0.015625 0.23438 0.03125 0.25 0.046875 0.25 0.23438v5.2031c0 0.26562 0 0.73438-1.0312 0.73438v0.3125l1.1719-0.03125 1.1562 0.03125v-0.3125c-1.0156 0-1.0156-0.46875-1.0156-0.73438v-5.1875c0.046875 0.046875 0.046875 0.0625 0.09375 0.125l4.0625 5.9844c0.09375 0.10938 0.10938 0.125 0.17188 0.125 0.14062 0 0.14062-0.0625 0.14062-0.26562v-5.5c0-0.26562 0-0.73438 1.0312-0.73438z"/>
</symbol>
<symbol id="d" overflow="visible">
<path d="m3.5156-1.2656h-0.23438c-0.015625 0.15625-0.09375 0.5625-0.1875 0.625-0.046875 0.046875-0.57812 0.046875-0.6875 0.046875h-1.2812c0.73438-0.64062 0.98438-0.84375 1.3906-1.1719 0.51562-0.40625 1-0.84375 1-1.5 0-0.84375-0.73438-1.3594-1.625-1.3594-0.85938 0-1.4531 0.60938-1.4531 1.25 0 0.34375 0.29688 0.39062 0.375 0.39062 0.15625 0 0.35938-0.125 0.35938-0.375 0-0.125-0.046875-0.375-0.40625-0.375 0.21875-0.48438 0.6875-0.64062 1.0156-0.64062 0.70312 0 1.0625 0.54688 1.0625 1.1094 0 0.60938-0.4375 1.0781-0.65625 1.3281l-1.6719 1.6719c-0.078125 0.0625-0.078125 0.078125-0.078125 0.26562h2.875z"/>
</symbol>
<symbol id="i" overflow="visible">
<path d="m3.5781-1.2031c0-0.54688-0.4375-1.0938-1.2031-1.25 0.71875-0.26562 0.98438-0.78125 0.98438-1.2188 0-0.54688-0.625-0.95312-1.4062-0.95312-0.76562 0-1.3594 0.375-1.3594 0.9375 0 0.23438 0.15625 0.35938 0.35938 0.35938 0.21875 0 0.35938-0.15625 0.35938-0.34375 0-0.20312-0.14062-0.35938-0.35938-0.375 0.25-0.29688 0.71875-0.375 0.98438-0.375 0.3125 0 0.75 0.15625 0.75 0.75 0 0.29688-0.09375 0.625-0.28125 0.82812-0.21875 0.26562-0.42188 0.28125-0.76562 0.3125-0.17188 0.015625-0.1875 0.015625-0.21875 0.015625 0 0-0.078125 0.015625-0.078125 0.09375 0 0.09375 0.0625 0.09375 0.1875 0.09375h0.375c0.54688 0 0.9375 0.375 0.9375 1.125 0 0.85938-0.51562 1.125-0.90625 1.125-0.28125 0-0.90625-0.078125-1.1875-0.5 0.32812 0 0.40625-0.23438 0.40625-0.39062 0-0.21875-0.17188-0.375-0.39062-0.375-0.1875 0-0.39062 0.125-0.39062 0.40625 0 0.65625 0.71875 1.0781 1.5625 1.0781 0.96875 0 1.6406-0.65625 1.6406-1.3438z"/>
</symbol>
<symbol id="y" overflow="visible">
<path d="m-2.3281-6.625c-0.09375 0-0.17188 0-0.17188 0.125 0 0.10938 0.0625 0.10938 0.17188 0.125 1.4219 0.078125 2.2344 1.1406 2.2344 2.2344 0 0.60938-0.32812 2.5625-3.3125 2.5625-2.9688 0-3.3125-1.9531-3.3125-2.5625 0-1.0781 0.90625-1.9688 2.3594-2.1719 0.14062-0.015625 0.17188-0.015625 0.17188-0.15625 0-0.15625-0.03125-0.15625-0.23438-0.15625h-2.3594c-0.17188 0-0.25 0-0.25 0.10938 0 0.03125 0 0.078125 0.125 0.15625l0.73438 0.5c-0.35938 0.35938-0.85938 0.875-0.85938 1.8281 0 1.875 1.5938 3.4688 3.625 3.4688 2.0625 0 3.625-1.6094 3.625-3.4688 0-1.625-1.3906-2.5938-2.5469-2.5938z"/>
</symbol>
<symbol id="c" overflow="visible">
<path d="m-2.1406-4.6875c-1.2656 0-2.3281 0.98438-2.3281 2.1875 0 1.25 1.0938 2.2188 2.3281 2.2188 1.2969 0 2.25-1.0312 2.25-2.2031 0-1.2031-0.98438-2.2031-2.25-2.2031zm-0.078125 0.8125c0.35938 0 0.90625 0 1.3438 0.21875 0.45312 0.23438 0.73438 0.67188 0.73438 1.1562 0 0.4375-0.20312 0.875-0.67188 1.1406-0.4375 0.25-1.0469 0.25-1.4062 0.25-0.39062 0-0.92188 0-1.3594-0.23438-0.45312-0.26562-0.67188-0.73438-0.67188-1.1406 0-0.4375 0.21875-0.85938 0.65625-1.125 0.42188-0.26562 1-0.26562 1.375-0.26562z"/>
</symbol>
<symbol id="h" overflow="visible">
<path d="m0-5.3281h-0.3125c0 0.51562 0 0.76562-0.29688 0.76562h-1.9062c-0.85938 0-1.1562 0-1.5156 0.3125-0.17188 0.14062-0.375 0.46875-0.375 1.0469 0 0.73438 0.42188 1.2031 1.0469 1.4844h-1.0469l0.10938 1.4062h0.3125c0-0.70312 0.0625-0.78125 0.5625-0.78125h2.6719c0.4375 0 0.4375 0.10938 0.4375 0.78125h0.3125l-0.03125-1.1406 0.03125-1.1094h-0.3125c0 0.67188 0 0.78125-0.4375 0.78125h-1.8438c-1.0312 0-1.5938-0.71875-1.5938-1.3438 0-0.64062 0.53125-0.75 1.1094-0.75h2.3281c0.4375 0 0.4375 0.10938 0.4375 0.78125h0.3125l-0.03125-1.125z"/>
</symbol>
<symbol id="t" overflow="visible">
<path d="m-1.1875-4.1406c-0.09375 0-0.09375 0.10938-0.09375 0.14062 0 0.078125 0.03125 0.10938 0.09375 0.125 0.92188 0.28125 1.0469 0.9375 1.0469 1.2969 0 0.53125-0.42188 1.4062-2.0312 1.4062-1.625 0-2.0469-0.8125-2.0469-1.3438 0-0.09375 0.015625-0.71875 0.375-1.0625 0.03125 0.40625 0.32812 0.46875 0.45312 0.46875 0.26562 0 0.45312-0.1875 0.45312-0.45312s-0.15625-0.46875-0.46875-0.46875c-0.67188 0-1.0625 0.76562-1.0625 1.5312 0 1.25 1.0781 2.1562 2.3125 2.1562 1.2812 0 2.2656-0.98438 2.2656-2.1406 0-1.3281-1.2031-1.6562-1.2969-1.6562z"/>
</symbol>
<symbol id="s" overflow="visible">
<path d="m-1.1875-4.1406c-0.09375 0-0.125 0.078125-0.125 0.14062 0 0.078125 0.0625 0.10938 0.14062 0.125 1.0312 0.34375 1.0312 1.25 1.0312 1.3438 0 0.5-0.29688 0.89062-0.67188 1.125-0.46875 0.29688-1.125 0.29688-1.4844 0.29688v-2.7812c0-0.21875 0-0.25-0.21875-0.25-0.98438 0-1.9531 0.54688-1.9531 1.7812 0 1.1562 1.0312 2.0781 2.2812 2.0781 1.3281 0 2.2969-1.0469 2.2969-2.1875 0-1.2188-1.1094-1.6719-1.2969-1.6719zm-1.3281 0.65625v2.375c-1.4844-0.0625-1.7344-0.90625-1.7344-1.25 0-1.0156 1.3438-1.125 1.7344-1.125z"/>
</symbol>
<symbol id="r" overflow="visible">
<path d="m-1.2344-3.3125h-0.5625v0.25h0.54688c0.73438 0 1.1094 0.29688 1.1094 0.67188 0 0.67188-0.90625 0.67188-1.0781 0.67188h-2.7656v-1.4375h-0.3125v1.4375h-1.8281v0.25c0.8125 0 1.875 0.29688 1.9219 1.2812h0.21875v-0.84375h2.75c1.2188 0 1.3438-0.9375 1.3438-1.2969 0-0.70312-0.70312-0.98438-1.3438-0.98438z"/>
</symbol>
<symbol id="g" overflow="visible">
<path d="m-3.7969-3.625c-0.3125 0-0.60938 0.3125-0.60938 0.73438 0 0.73438 0.67188 1.0938 1.0938 1.2188h-1.0938l0.10938 1.3906h0.3125c0-0.70312 0.0625-0.78125 0.5625-0.78125h2.6719c0.4375 0 0.4375 0.10938 0.4375 0.78125h0.3125l-0.03125-1.1406c0-0.39062 0-0.85938 0.03125-1.2656h-0.3125v0.21875c0 0.73438-0.10938 0.75-0.46875 0.75h-1.5312c-0.98438 0-1.875-0.42188-1.875-1.1719 0-0.0625 0-0.09375 0.015625-0.10938 0 0.03125 0.125 0.23438 0.39062 0.23438s0.42188-0.21875 0.42188-0.4375c0-0.17188-0.125-0.42188-0.4375-0.42188z"/>
</symbol>
<symbol id="f" overflow="visible">
<path d="m-0.89062-4.8125h-0.5625v0.25h0.5625c0.57812 0 0.64062 0.25 0.64062 0.35938 0 0.32812-0.45312 0.35938-0.5 0.35938h-1.9844c-0.42188 0-0.8125 0-1.1875 0.35938-0.39062 0.39062-0.54688 0.89062-0.54688 1.375 0 0.8125 0.46875 1.5 1.125 1.5 0.29688 0 0.46875-0.20312 0.46875-0.45312 0-0.28125-0.20312-0.46875-0.45312-0.46875-0.125 0-0.45312 0.0625-0.45312 0.51562-0.35938-0.26562-0.46875-0.76562-0.46875-1.0781 0-0.48438 0.39062-1.0625 1.2812-1.0625h0.35938c0.03125 0.51562 0.0625 1.2188 0.35938 1.8438 0.34375 0.75 0.85938 1 1.2969 1 0.8125 0 1.0625-0.96875 1.0625-1.5938 0-0.67188-0.40625-1.125-0.85938-1.3125 0.39062-0.046875 0.8125-0.3125 0.8125-0.78125 0-0.20312-0.14062-0.8125-0.95312-0.8125zm-0.5 1.6562c0.9375 0 1.2812 0.71875 1.2812 1.1719 0 0.48438-0.34375 0.89062-0.84375 0.89062-0.54688 0-1.375-0.40625-1.4375-2.0625z"/>
</symbol>
<symbol id="q" overflow="visible">
<path d="m-1.1875-4.1406c-0.09375 0-0.09375 0.10938-0.09375 0.14062 0 0.078125 0.03125 0.10938 0.09375 0.125 0.92188 0.28125 1.0469 0.9375 1.0469 1.2969 0 0.53125-0.42188 1.4062-2.0312 1.4062-1.625 0-2.0469-0.8125-2.0469-1.3438 0-0.09375 0.015625-0.71875 0.375-1.0625 0.03125 0.40625 0.32812 0.46875 0.45312 0.46875 0.26562 0 0.45312-0.1875 0.45312-0.45312s-0.15625-0.46875-0.46875-0.46875c-0.67188 0-1.0625 0.76562-1.0625 1.5312 0 1.25 1.0781 2.1562 2.3125 2.1562 1.1719 0 2.0938-0.8125 2.25-1.8281h0.82812c0-0.375 0.078125-0.76562 0.40625-0.76562 0.40625 0 0.40625 0.95312 0.40625 1.7031v0.125h0.26562v-0.25c0-1.0781 0-2.4062-0.67188-2.4062-0.46875 0-0.67188 0.53125-0.67188 1.0781h-0.5625c-0.10938-1.1562-1.1875-1.4531-1.2812-1.4531z"/>
</symbol>
<symbol id="x" overflow="visible">
<path d="m-0.89062-4.8125h-0.5625v0.25h0.5625c0.57812 0 0.64062 0.25 0.64062 0.35938 0 0.32812-0.45312 0.35938-0.5 0.35938h-1.9844c-0.42188 0-0.8125 0-1.1875 0.35938-0.39062 0.39062-0.54688 0.89062-0.54688 1.375 0 0.8125 0.46875 1.5 1.125 1.5 0.29688 0 0.46875-0.20312 0.46875-0.45312 0-0.28125-0.20312-0.46875-0.45312-0.46875-0.125 0-0.45312 0.0625-0.45312 0.51562-0.35938-0.26562-0.46875-0.76562-0.46875-1.0781 0-0.48438 0.39062-1.0625 1.2812-1.0625h0.35938c0.03125 0.51562 0.0625 1.2188 0.35938 1.8438 0.34375 0.75 0.85938 1 1.2969 1 0.8125 0 1.0625-0.96875 1.0625-1.5938 0-0.67188-0.40625-1.125-0.85938-1.3125 0.39062-0.046875 0.8125-0.3125 0.8125-0.78125 0-0.20312-0.14062-0.8125-0.95312-0.8125zm-0.5 1.6562c0.9375 0 1.2812 0.71875 1.2812 1.1719 0 0.48438-0.34375 0.89062-0.84375 0.89062-0.54688 0-1.375-0.40625-1.4375-2.0625zm-4.9531-1-0.14062 0.15625s0.46875 0.375 0.46875 0.8125c0 0.23438-0.14062 0.48438-0.25 0.65625-0.15625 0.26562-0.21875 0.45312-0.21875 0.625 0 0.375 0.21875 0.5625 0.76562 1.0625l0.15625-0.15625s-0.48438-0.375-0.48438-0.8125c0-0.23438 0.15625-0.48438 0.25-0.65625 0.17188-0.26562 0.23438-0.4375 0.23438-0.60938 0-0.375-0.21875-0.57812-0.78125-1.0781z"/>
</symbol>
<symbol id="w" overflow="visible">
<path d="m0-8.1094h-0.3125c0 0.51562 0 0.76562-0.29688 0.78125h-1.9062c-0.85938 0-1.1562 0-1.5156 0.3125-0.17188 0.14062-0.375 0.46875-0.375 1.0469 0 0.82812 0.59375 1.2812 0.98438 1.4375-0.875 0.14062-0.98438 0.875-0.98438 1.3281 0 0.73438 0.42188 1.2031 1.0469 1.4844h-1.0469l0.10938 1.4062h0.3125c0-0.70312 0.0625-0.78125 0.5625-0.78125h2.6719c0.4375 0 0.4375 0.10938 0.4375 0.78125h0.3125l-0.03125-1.1406 0.03125-1.1094h-0.3125c0 0.67188 0 0.78125-0.4375 0.78125h-1.8438c-1.0312 0-1.5938-0.71875-1.5938-1.3438 0-0.64062 0.53125-0.75 1.1094-0.75h2.3281c0.4375 0 0.4375 0.10938 0.4375 0.78125h0.3125l-0.03125-1.125 0.03125-1.1094h-0.3125c0 0.65625 0 0.76562-0.4375 0.76562h-1.8438c-1.0312 0-1.5938-0.70312-1.5938-1.3438 0-0.625 0.53125-0.73438 1.1094-0.73438h2.3281c0.4375 0 0.4375 0.10938 0.4375 0.78125h0.3125l-0.03125-1.125z"/>
</symbol>
<symbol id="v" overflow="visible">
<path d="m0-2.5469h-0.3125c0 0.67188 0 0.78125-0.4375 0.78125h-6.1719l0.10938 1.4375h0.3125c0-0.70312 0.0625-0.78125 0.5625-0.78125h5.1875c0.4375 0 0.4375 0.10938 0.4375 0.78125h0.3125l-0.03125-1.1094z"/>
</symbol>
<symbol id="u" overflow="visible">
<path d="m-0.015625-2.0312c-0.625 0-1.0469 0.25-1.0469 0.64062 0 0.35938 0.28125 0.53125 0.53125 0.53125 0.26562 0 0.53125-0.17188 0.53125-0.53125 0-0.14062-0.0625-0.28125-0.15625-0.39062 0.78125-0.015625 1.3906 0.25 1.8594 0.6875 0.0625 0.0625 0.078125 0.078125 0.10938 0.078125 0.078125 0 0.10938-0.046875 0.10938-0.09375 0-0.125-0.78125-0.92188-1.9375-0.92188z"/>
</symbol>
<symbol id="p" overflow="visible">
<path d="m-1.0625-4.2812c-0.0625 0-0.14062 0.046875-0.14062 0.10938s0.03125 0.078125 0.10938 0.14062c0.98438 0.78125 0.98438 1.875 0.98438 1.9844 0 0.625-0.48438 0.90625-1.0938 0.90625-0.40625 0-1.375-0.20312-1.9844-0.54688-0.57812-0.3125-1-0.85938-1-1.4062 0-0.32812 0.125-0.71875 0.40625-0.85938 0 0.17188 0 0.29688 0.125 0.4375 0.15625 0.17188 0.32812 0.1875 0.39062 0.1875 0.25 0 0.35938-0.1875 0.35938-0.375 0-0.28125-0.25-0.54688-0.64062-0.54688-0.48438 0-0.85938 0.46875-0.85938 1.1719 0 1.3438 1.4219 2.6719 2.8281 2.6719 0.90625 0 1.6875-0.57812 1.6875-1.625 0-1.4219-1.0625-2.25-1.1719-2.25z"/>
</symbol>
<clipPath id="ae">
<path d="m20.191 1.1211h81.809v64.879h-81.809z"/>
</clipPath>
<clipPath id="ad">
<path d="m20.191 91h81.809v51h-81.809z"/>
</clipPath>
<clipPath id="ac">
<path d="m20.191 113h81.809v49.516h-81.809z"/>
</clipPath>
<clipPath id="ab">
<path d="m132 1.1211h82.469v60.879h-82.469z"/>
</clipPath>
<clipPath id="aa">
<path d="m132 102h82.469v46h-82.469z"/>
</clipPath>
<clipPath id="z">
<path d="m132 59h82.469v56h-82.469z"/>
</clipPath>
</defs>
<path transform="matrix(1 0 0 -1 20.193 162.52)" d="m64.756-6.25e-4v161.39m64.762-161.39v161.39" fill="none" stroke="#bfbfbf" stroke-miterlimit="10" stroke-width=".3985"/>
<path transform="matrix(1 0 0 -1 20.193 162.52)" d="m-0.0015938-6.25e-4h194.28m-194.28 53.801h194.28m-194.28 53.797h194.28m-194.28 53.797h194.28" fill="none" stroke="#bfbfbf" stroke-miterlimit="10" stroke-width=".3985"/>
<path transform="matrix(1 0 0 -1 20.193 162.52)" d="m64.756-6.25e-4v4.2539m64.762-4.2539v4.2539m-64.762 157.14v-4.25m64.762 4.25v-4.25" fill="none" stroke="#7f7f7f" stroke-miterlimit="10" stroke-width=".19925"/>
<path transform="matrix(1 0 0 -1 20.193 162.52)" d="m-0.0015938-6.25e-4h4.2539m-4.2539 53.801h4.2539m-4.2539 53.797h4.2539m-4.2539 53.797h4.2539m190.02-161.39h-4.2539m4.2539 53.801h-4.2539m4.2539 53.797h-4.2539m4.2539 53.797h-4.2539" fill="none" stroke="#7f7f7f" stroke-miterlimit="10" stroke-width=".19925"/>
<path transform="matrix(1 0 0 -1 20.193 162.52)" d="m-0.0015938-6.25e-4v161.39h194.28v-161.39z" fill="none" stroke="#000" stroke-miterlimit="10" stroke-width=".3985"/>
<g>
<use x="53.797" y="172.898" xlink:href="#o"/>
<use x="58.7783" y="172.898" xlink:href="#b"/>
<use x="64.313521" y="172.898" xlink:href="#n"/>
<use x="67.081131" y="172.898" xlink:href="#m"/>
<use x="71.509507" y="172.898" xlink:href="#l"/>
<use x="76.490807" y="172.898" xlink:href="#k"/>
<use x="84.789652" y="172.898" xlink:href="#b"/>
<use x="90.324873" y="172.898" xlink:href="#j"/>
<use x="98.070794" y="172.898" xlink:href="#a"/>
<use x="105.547" y="174.392" xlink:href="#d"/>
<use x="120.905" y="172.898" xlink:href="#o"/>
<use x="125.8863" y="172.898" xlink:href="#b"/>
<use x="131.421521" y="172.898" xlink:href="#n"/>
<use x="134.189131" y="172.898" xlink:href="#m"/>
<use x="138.617507" y="172.898" xlink:href="#l"/>
<use x="143.598807" y="172.898" xlink:href="#k"/>
<use x="151.897652" y="172.898" xlink:href="#b"/>
<use x="157.432873" y="172.898" xlink:href="#j"/>
<use x="165.178794" y="172.898" xlink:href="#e"/>
<use x="172.650744" y="172.898" xlink:href="#a"/>
<use x="180.128" y="174.392" xlink:href="#i"/>
</g>
<g clip-path="url(#ae)">
<path transform="matrix(1 0 0 -1 20.193 162.52)" d="m-0.0015938 161.39 0.4375-1.2734 0.43359-1.2461 0.43359-1.2148 0.43359-1.1836 0.4375-1.1523 0.43359-1.125 0.43359-1.0898 0.43359-1.0664 0.4375-1.0352 0.43359-1.0078 0.43359-0.97656 0.4375-0.95312 0.43359-0.92969 0.43359-0.90625 0.43359-0.88281 0.4375-0.85547 0.43359-0.83594 0.43359-0.8125 0.43359-0.79297 0.4375-0.76953 0.43359-0.75 0.43359-0.72656 0.43359-0.71484 0.4375-0.69141 0.43359-0.67188 0.43359-0.65625 0.43359-0.63672 0.4375-0.625 0.43359-0.60156 0.43359-0.58984 0.4375-0.57422 0.43359-0.55859 0.43359-0.54297 0.43359-0.52734 0.4375-0.51562 0.43359-0.50391 0.43359-0.48828 0.43359-0.47266 0.4375-0.46094 0.43359-0.44922 0.43359-0.44141 0.43359-0.42578 0.4375-0.41797 0.43359-0.40234 0.43359-0.39844 0.43359-0.38281 0.4375-0.37109 0.43359-0.36328 0.43359-0.35547 0.4375-0.34375 0.43359-0.33203 0.43359-0.32422 0.43359-0.32031 0.4375-0.30859 0.43359-0.30078 0.43359-0.29688 0.43359-0.28125 0.4375-0.28125 0.43359-0.26953 0.43359-0.26172 0.43359-0.25781 0.4375-0.24609 0.43359-0.24609 0.43359-0.23438 0.43359-0.23047 0.4375-0.22266 0.43359-0.21875 0.43359-0.21484 0.43359-0.20703 0.4375-0.19922 0.43359-0.19922 0.43359-0.1875 0.4375-0.18359 0.43359-0.18359 0.43359-0.17578 0.43359-0.17188 0.4375-0.16797 0.43359-0.16016 0.86719-0.3125 0.4375-0.15234 0.43359-0.14453 0.86719-0.28125 0.4375-0.13281 0.86719-0.25781 0.43359-0.12109 0.4375-0.12109 0.86719-0.23438 0.4375-0.10938 0.43359-0.10938 0.43359-0.10547 0.43359-0.10156 0.4375-0.10156 0.43359-0.097656 0.86719-0.1875 0.4375-0.089844 0.86719-0.17188 0.43359-0.082031 0.4375-0.082031 0.86719-0.15625 0.43359-0.074219 0.4375-0.070313 0.43359-0.074218 0.86719-0.13281 0.4375-0.066406 0.86719-0.125 0.4375-0.058594 0.86719-0.11719 0.43359-0.054688 0.4375-0.054687 1.3008-0.15234 0.4375-0.050781 0.43359-0.046875 0.43359-0.042969 0.43359-0.046875 0.4375-0.042969 0.86719-0.085937 0.43359-0.039063 0.4375-0.039062 0.43359-0.039063 0.86719-0.070312 0.4375-0.035157 0.86719-0.070312 0.4375-0.03125 0.86719-0.0625 0.43359-0.027344 0.4375-0.03125 1.3008-0.082031 0.4375-0.027344 0.43359-0.023437 0.43359-0.027344 0.43359-0.023438" fill="none" stroke="#0c6dfd" stroke-miterlimit="10" stroke-width="1.1955"/>
</g>
<g clip-path="url(#ad)">
<path transform="matrix(1 0 0 -1 20.193 162.52)" d="m-0.0015938 53.8 0.4375-0.42578 0.43359-0.41797 0.43359-0.40234 0.43359-0.39453 0.4375-0.38672 0.43359-0.37109 0.43359-0.36328 0.43359-0.35547 0.4375-0.34766 0.43359-0.33594 0.43359-0.32422 0.4375-0.32031 0.43359-0.30859 0.43359-0.30078 0.43359-0.29297 0.4375-0.28906 0.43359-0.27734 0.43359-0.26953 0.43359-0.26562 0.4375-0.25781 0.43359-0.25 0.43359-0.24219 0.43359-0.23438 0.4375-0.23438 0.43359-0.22266 0.43359-0.21875 0.43359-0.21094 0.4375-0.21094 0.43359-0.19922 0.43359-0.19531 0.4375-0.19141 0.43359-0.1875 0.43359-0.17969 0.43359-0.17578 0.4375-0.17188 0.43359-0.16797 0.43359-0.16406 0.43359-0.15625 0.4375-0.15625 0.86719-0.29688 0.43359-0.14062 0.4375-0.14062 0.86719-0.26562 0.43359-0.125 0.4375-0.125 0.43359-0.12109 0.43359-0.11719 0.4375-0.11719 0.86719-0.21875 0.43359-0.10547 0.4375-0.10547 0.43359-0.097657 0.43359-0.10156 0.43359-0.09375 0.4375-0.089844 0.43359-0.09375 0.86719-0.17188 0.4375-0.082031 0.43359-0.082031 0.86719-0.15625 0.4375-0.074219 1.3008-0.21094 0.4375-0.066406 0.43359-0.066406 0.43359-0.0625 0.4375-0.0625 0.43359-0.0625 0.43359-0.054688 0.43359-0.058593 0.4375-0.054688 0.86719-0.10938 0.43359-0.050781 0.4375-0.050781 1.3008-0.14062 0.4375-0.046875 0.43359-0.042969 0.43359-0.039063 0.43359-0.042968 0.4375-0.039063 0.86719-0.078125 0.4375-0.039062 1.3008-0.10547 0.4375-0.03125 0.43359-0.035156 0.86719-0.0625 0.4375-0.027344 0.43359-0.03125 0.86719-0.054688 0.4375-0.027343 0.43359-0.027344 0.43359-0.023438 0.43359-0.027343 0.4375-0.023438 0.86719-0.046875 0.43359-0.019531 0.4375-0.023438 0.43359-0.019531 0.43359-0.023437 0.4375-0.019532 0.86719-0.039062 0.43359-0.015625 0.4375-0.019531 0.43359-0.015625 0.43359-0.019532 0.43359-0.015625 0.4375-0.015625 1.3008-0.046875 0.4375-0.015625 0.43359-0.011718 0.43359-0.015625 0.43359-0.011719 0.4375-0.015625 1.3008-0.035156 0.4375-0.011719 0.86719-0.023438 0.4375-0.011718 0.43359-0.007813 0.43359-0.011719 0.43359-0.007812 0.4375-0.011719 0.43359-0.007812 0.43359-0.011719 0.43359-0.007813 0.4375-0.007812 0.86719-0.015625 0.43359-0.011719" fill="none" stroke="#188653" stroke-miterlimit="10" stroke-width="1.1955"/>
</g>
<g clip-path="url(#ac)">
<path transform="matrix(1 0 0 -1 20.193 162.52)" d="m-0.0015938-6.25e-4 0.4375 0.84766 0.43359 0.83594 0.43359 0.80859 0.43359 0.78906 0.4375 0.76562 0.43359 0.75 0.43359 0.72656 0.43359 0.71094 0.4375 0.69141 0.43359 0.67188 0.43359 0.65234 0.4375 0.63672 0.43359 0.61719 0.43359 0.60547 0.43359 0.58594 0.4375 0.57031 0.43359 0.55859 0.43359 0.54297 0.43359 0.52734 0.4375 0.51172 0.43359 0.50391 0.43359 0.48438 0.43359 0.47266 0.4375 0.46094 0.43359 0.44922 0.43359 0.4375 0.43359 0.42578 0.4375 0.41797 0.43359 0.39844 0.43359 0.39453 0.4375 0.37891 0.43359 0.375 0.43359 0.36328 0.43359 0.35156 0.4375 0.34375 0.43359 0.33594 0.43359 0.32422 0.43359 0.31641 0.4375 0.30859 0.86719 0.59375 0.43359 0.28125 0.4375 0.27734 0.43359 0.26953 0.43359 0.26562 0.43359 0.25391 0.4375 0.25 0.43359 0.24219 0.43359 0.23438 0.4375 0.23047 0.43359 0.22266 0.86719 0.42969 0.4375 0.20703 0.43359 0.19922 0.43359 0.19531 0.43359 0.1875 0.4375 0.1875 0.43359 0.17969 0.43359 0.17578 0.43359 0.17188 0.4375 0.16406 0.43359 0.16406 0.43359 0.15625 0.43359 0.15234 0.4375 0.15234 0.43359 0.14453 0.86719 0.28125 0.4375 0.12891 0.43359 0.13281 0.43359 0.12891 0.4375 0.12109 0.43359 0.12109 0.86719 0.23438 0.4375 0.10938 0.43359 0.10547 0.43359 0.10938 0.43359 0.10156 0.4375 0.10156 0.43359 0.09375 0.43359 0.097657 0.43359 0.089843 0.4375 0.09375 0.43359 0.082032 0.43359 0.085937 0.43359 0.082031 0.4375 0.082032 0.43359 0.078125 0.43359 0.074218 0.4375 0.074219 0.43359 0.074219 0.86719 0.14062 0.4375 0.066406 1.3008 0.1875 0.4375 0.0625 0.43359 0.058594 0.86719 0.10938 0.4375 0.054687 0.43359 0.050782 0.43359 0.054687 0.43359 0.046875 0.4375 0.050781 0.43359 0.046875 0.43359 0.042969 0.43359 0.046875 0.4375 0.042969 0.43359 0.042969 0.43359 0.039062 0.4375 0.042969 0.43359 0.039062 0.43359 0.035157 0.43359 0.039062 0.4375 0.035156 0.86719 0.070313 0.43359 0.03125 0.4375 0.03125 1.3008 0.09375 0.4375 0.027344 0.43359 0.03125 0.86719 0.054687 0.4375 0.023438 0.43359 0.027343 0.86719 0.046875 0.4375 0.023438 0.86719 0.046875 0.4375 0.019531 0.43359 0.023438 0.86719 0.039062 0.4375 0.019531 0.43359 0.019532 0.43359 0.015625 0.43359 0.019531 0.4375 0.019531 1.3008 0.046875" fill="none" stroke="#dc3445" stroke-miterlimit="10" stroke-width="1.1955"/>
</g>
<path transform="matrix(1 0 0 -1 20.193 162.52)" d="m64.756 112.98v21.52" fill="none" stroke="#0c6dfd" stroke-dasharray="2.98883,2.98883" stroke-miterlimit="10" stroke-width="1.1955"/>
<path transform="matrix(1 0 0 -1 20.193 162.52)" d="m64.756 134.5 0.4375-0.42578 0.43359-0.41406 0.43359-0.40625 0.43359-0.39453 0.4375-0.38281 0.43359-0.375 0.43359-0.36328 0.4375-0.35547 0.43359-0.34375 0.43359-0.33594 0.43359-0.32812 0.4375-0.31641 0.43359-0.30859 0.43359-0.30469 0.43359-0.29297 0.4375-0.28516 0.43359-0.27734 0.43359-0.27344 0.43359-0.26172 0.4375-0.25781 0.43359-0.25 0.43359-0.24219 0.43359-0.23828 0.4375-0.23047 0.43359-0.22266 0.43359-0.21875 0.4375-0.21484 0.43359-0.20703 0.86719-0.39844 0.4375-0.19141 0.86719-0.36719 0.43359-0.17578 0.4375-0.17188 0.43359-0.16797 0.86719-0.32031 0.4375-0.15234 0.43359-0.15234 0.86719-0.28906 0.4375-0.13672 0.86719-0.26562 0.43359-0.12891 0.4375-0.125 0.43359-0.12109 0.43359-0.11719 0.4375-0.11328 0.43359-0.11328 0.43359-0.10547 0.43359-0.10938 0.4375-0.10156 0.43359-0.10156 0.43359-0.097656 0.43359-0.09375 0.4375-0.09375 0.43359-0.089844 0.86719-0.17188 0.4375-0.082031 0.43359-0.082032 0.86719-0.15625 0.4375-0.074218 0.43359-0.074219 0.43359-0.070313 0.4375-0.070312 0.86719-0.13281 0.43359-0.0625 0.4375-0.058593 0.43359-0.0625 0.86719-0.11719 0.4375-0.054687 0.43359-0.054688 0.86719-0.10156 0.4375-0.050782 0.43359-0.050781 0.86719-0.09375 0.4375-0.042969 0.86719-0.085937 0.4375-0.039063 0.43359-0.042968 0.86719-0.078125 0.4375-0.035157 1.3008-0.10547 0.4375-0.035157 1.3008-0.09375 0.4375-0.03125 1.3008-0.082031 0.4375-0.027344 0.86719-0.054687 0.43359-0.023438 0.4375-0.023437 0.86719-0.046875 0.4375-0.023438 0.43359-0.019531 0.43359-0.023437 0.43359-0.019532 0.4375-0.019531 1.3008-0.058594 0.4375-0.015625 0.43359-0.019531 0.86719-0.03125 0.4375-0.019531 0.86719-0.03125 0.43359-0.011719 0.4375-0.015625 0.43359-0.015625 0.43359-0.011719 0.43359-0.015625 0.4375-0.011718 0.86719-0.023438 0.4375-0.011719 1.3008-0.035156 0.4375-0.011719 0.43359-0.011718 0.43359-0.007813 0.43359-0.011719 0.4375-0.007812 0.43359-0.011719 0.86719-0.015625 0.4375-0.011719 1.3008-0.023437" fill="none" stroke="#0c6dfd" stroke-miterlimit="10" stroke-width="1.1955"/>
<path transform="matrix(1 0 0 -1 20.193 162.52)" d="m64.756 37.66 0.4375-0.14062 0.43359-0.14062 0.86719-0.26562 0.4375-0.12891 0.43359-0.125 0.43359-0.12109 0.4375-0.11719 0.43359-0.11719 0.86719-0.21875 0.4375-0.10547 0.43359-0.10547 0.43359-0.097656 0.43359-0.10156 0.4375-0.09375 0.43359-0.09375 0.43359-0.089844 0.43359-0.085937 0.4375-0.085938 0.43359-0.085937 0.43359-0.078125 0.43359-0.082031 0.4375-0.074219 0.86719-0.14844 0.4375-0.070312 0.43359-0.070313 0.86719-0.13281 0.4375-0.0625 0.43359-0.0625 0.86719-0.11719 0.4375-0.058593 1.3008-0.16406 0.4375-0.050781 0.43359-0.050781 0.86719-0.09375 0.4375-0.046875 0.43359-0.046875 0.86719-0.085938 0.4375-0.039062 0.43359-0.042969 0.43359-0.039063 0.4375-0.039062 1.3008-0.10547 0.4375-0.035156 0.43359-0.035156 0.86719-0.0625 0.4375-0.03125 0.43359-0.03125 0.43359-0.027344 0.43359-0.03125 0.4375-0.027344 0.43359-0.027344 0.43359-0.023437 0.43359-0.027344 0.4375-0.023437 0.43359-0.023438 0.43359-0.027344 0.4375-0.019531 0.86719-0.046875 0.43359-0.019531 0.4375-0.019531 0.43359-0.023438 0.43359-0.019531 0.43359-0.015625 0.4375-0.019531 0.43359-0.019532 0.43359-0.015625 0.43359-0.019531 0.4375-0.015625 1.3008-0.046875 0.4375-0.015625 0.43359-0.015625 0.43359-0.011719 0.4375-0.015625 0.86719-0.023437 0.43359-0.015625 0.4375-0.011719 1.3008-0.035156 0.4375-0.011719 0.43359-0.011719 0.43359-0.007812 0.43359-0.011719 0.4375-0.007812 0.43359-0.011719 0.43359-0.007813 0.43359-0.011718 0.4375-0.007813 0.86719-0.015625 0.43359-0.011719 0.4375-0.007812 0.86719-0.015625 0.4375-0.003906 1.3008-0.023438 0.4375-0.007812 0.43359-0.003907 0.43359-0.007812 0.43359-0.003906 0.4375-0.007813 0.43359-0.003906 0.43359-0.007813 0.43359-0.003906 0.4375-0.007812 0.86719-0.007813 0.43359-0.007812 0.4375-0.003907 1.3008-0.011718 0.4375-0.007813 0.86719-0.007812 0.4375-0.003907 1.3008-0.011718 0.4375-0.003907h0.43359l0.86719-0.007812 0.4375-0.003906 0.86719-0.007813h0.43359l0.4375-0.003906 0.86719-0.007813h0.43359" fill="none" stroke="#188653" stroke-miterlimit="10" stroke-width="1.1955"/>
<path transform="matrix(1 0 0 -1 20.193 162.52)" d="m64.756 31.742 0.4375 0.28125 0.43359 0.27734 0.43359 0.26953 0.43359 0.26562 0.4375 0.25391 0.43359 0.25 0.43359 0.24219 0.4375 0.23828 0.43359 0.23047 0.43359 0.22266 0.43359 0.21875 0.4375 0.21094 0.43359 0.20703 0.86719 0.39844 0.4375 0.1875 0.43359 0.1875 0.43359 0.17969 0.43359 0.17578 0.4375 0.17188 0.43359 0.16797 0.43359 0.16016 0.43359 0.15625 0.4375 0.15625 0.43359 0.14844 0.43359 0.14453 0.4375 0.14453 0.43359 0.13672 0.86719 0.26562 0.4375 0.12891 0.43359 0.125 0.86719 0.23438 0.4375 0.11719 0.86719 0.21875 0.43359 0.10547 0.4375 0.10156 0.43359 0.10156 0.43359 0.097656 0.43359 0.09375 0.4375 0.09375 0.43359 0.089844 0.86719 0.17188 0.4375 0.082031 0.43359 0.082031 0.43359 0.078125 0.4375 0.078125 0.43359 0.074219 0.86719 0.14062 0.4375 0.070313 0.86719 0.13281 0.43359 0.0625 0.4375 0.0625 1.3008 0.17578 0.4375 0.054688 0.43359 0.054687 0.86719 0.10156 0.4375 0.050781 0.86719 0.09375 0.4375 0.046875 0.43359 0.046875 0.86719 0.085938 0.4375 0.039062 0.43359 0.042969 0.43359 0.039062 0.43359 0.035157 0.4375 0.039062 1.3008 0.10547 0.4375 0.03125 0.43359 0.035156 0.86719 0.0625 0.4375 0.027344 0.43359 0.03125 0.43359 0.027344 0.4375 0.027343 0.43359 0.027344 0.43359 0.023438 0.43359 0.027343 0.4375 0.023438 1.3008 0.070312 0.4375 0.023438 0.43359 0.023437 0.86719 0.039063 0.4375 0.019531 1.3008 0.058594 0.4375 0.015625 0.43359 0.019531 0.43359 0.015625 0.43359 0.019531 0.4375 0.015625 0.86719 0.03125 0.4375 0.011719 0.86719 0.03125 0.43359 0.011719 0.4375 0.015625 1.3008 0.035156 0.4375 0.011719 1.3008 0.035156 0.4375 0.011719 0.43359 0.011719 0.43359 0.007812 0.43359 0.011719 0.4375 0.007812 0.43359 0.011719 0.86719 0.015625 0.4375 0.011719 0.86719 0.015625 0.4375 0.007812 1.3008 0.023438 0.4375 0.007812 0.43359 0.003907 0.86719 0.015625 0.4375 0.003906 0.86719 0.015625 0.43359 0.003906 0.4375 0.007813 0.86719 0.007812 0.43359 0.007813" fill="none" stroke="#dc3445" stroke-miterlimit="10" stroke-width="1.1955"/>
<path transform="matrix(1 0 0 -1 20.193 162.52)" d="m129.52 43.038v43.039" fill="none" stroke="#dc3445" stroke-dasharray="2.98883,2.98883" stroke-miterlimit="10" stroke-width="1.1955"/>
<g clip-path="url(#ab)">
<path transform="matrix(1 0 0 -1 20.193 162.52)" d="m129.52 118.35 0.43359 0.85156 0.43359 0.83203 0.43359 0.80859 0.4375 0.78906 0.43359 0.76953 0.43359 0.74609 0.43359 0.72656 0.4375 0.71094 0.43359 0.69141 0.43359 0.67188 0.43359 0.65234 0.4375 0.63672 0.43359 0.61719 0.43359 0.60547 0.43359 0.58594 0.4375 0.57422 0.43359 0.55469 0.43359 0.54297 0.43359 0.52734 0.4375 0.51562 0.43359 0.5 0.43359 0.48438 0.4375 0.47266 0.43359 0.46094 0.43359 0.44922 0.43359 0.4375 0.4375 0.42578 0.43359 0.41797 0.43359 0.39844 0.43359 0.39453 0.4375 0.38281 0.43359 0.37109 0.43359 0.36328 0.43359 0.35156 0.4375 0.34375 0.43359 0.33594 0.43359 0.32422 0.43359 0.31641 0.4375 0.30859 0.86719 0.59375 0.43359 0.28125 0.4375 0.28125 0.86719 0.53125 0.4375 0.25391 0.43359 0.25 0.43359 0.24219 0.43359 0.23438 0.4375 0.23047 0.43359 0.22266 0.86719 0.42969 0.4375 0.20703 0.43359 0.19922 0.43359 0.19531 0.43359 0.1875 0.4375 0.1875 0.43359 0.18359 0.86719 0.34375 0.4375 0.16406 0.43359 0.16406 0.43359 0.15625 0.4375 0.15625 0.43359 0.14844 0.43359 0.14453 0.43359 0.14062 0.4375 0.14062 0.86719 0.26562 0.43359 0.125 0.4375 0.12109 0.43359 0.125 0.43359 0.11328 0.43359 0.11719 0.4375 0.10938 0.43359 0.10938 0.43359 0.10547 0.43359 0.10156 0.4375 0.10156 0.43359 0.097656 0.86719 0.1875 0.4375 0.089844 0.43359 0.082031 0.43359 0.085938 0.4375 0.082031 0.43359 0.082031 0.86719 0.15625 0.4375 0.074219 1.3008 0.21094 0.4375 0.066406 0.43359 0.0625 0.43359 0.066406 0.43359 0.058594 0.4375 0.0625 0.43359 0.058594 0.86719 0.10938 0.4375 0.054687 0.43359 0.054688 0.43359 0.050781 0.4375 0.046875 0.43359 0.050781 0.86719 0.09375 0.4375 0.042969 0.86719 0.085937 0.43359 0.039063 0.4375 0.042969 0.43359 0.039062 0.43359 0.035156 0.43359 0.039063 0.4375 0.035156 0.86719 0.070313 0.43359 0.03125 0.4375 0.035156 0.86719 0.0625 0.4375 0.027344 0.43359 0.03125 0.86719 0.054687 0.4375 0.027344 0.43359 0.023437 0.43359 0.027344 0.43359 0.023438 0.4375 0.023437 1.3008 0.070313 0.4375 0.019531 0.43359 0.023437 0.86719 0.039063 0.4375 0.019531 0.86719 0.039063 0.43359 0.015625 0.4375 0.019531 0.86719 0.03125 0.4375 0.015625" fill="none" stroke="#0c6dfd" stroke-miterlimit="10" stroke-width="1.1955"/>
</g>
<g clip-path="url(#aa)">
<path transform="matrix(1 0 0 -1 20.193 162.52)" d="m129.52 32.281 0.43359 0.28125 0.43359 0.27734 0.43359 0.26953 0.4375 0.26172 0.43359 0.25781 0.43359 0.25 0.43359 0.24219 0.4375 0.23828 0.86719 0.45312 0.43359 0.21484 0.4375 0.21484 0.43359 0.20703 0.43359 0.19922 0.43359 0.19531 0.4375 0.19141 0.86719 0.36719 0.43359 0.17578 0.4375 0.17188 0.86719 0.32812 0.4375 0.15625 0.43359 0.15625 0.43359 0.14844 0.43359 0.14453 0.4375 0.14062 0.43359 0.14062 0.86719 0.26562 0.4375 0.125 0.43359 0.125 0.43359 0.12109 0.43359 0.11719 0.4375 0.11328 0.43359 0.11328 0.43359 0.10938 0.43359 0.10547 0.4375 0.10156 0.43359 0.10156 0.43359 0.097657 0.43359 0.09375 0.4375 0.09375 0.43359 0.089843 0.43359 0.085938 0.4375 0.085937 0.86719 0.16406 0.43359 0.078125 0.4375 0.074219 0.86719 0.14844 0.43359 0.070313 0.4375 0.070312 0.86719 0.13281 0.43359 0.0625 0.4375 0.0625 0.86719 0.11719 0.43359 0.054688 0.4375 0.058593 0.43359 0.054688 0.43359 0.050781 0.4375 0.050781 0.43359 0.050782 0.86719 0.09375 0.4375 0.046875 0.43359 0.042968 0.43359 0.046875 0.43359 0.039063 0.4375 0.042969 1.3008 0.11719 0.4375 0.039063 1.3008 0.10547 0.4375 0.03125 1.3008 0.09375 0.4375 0.03125 0.43359 0.027344 0.43359 0.03125 0.4375 0.027344 0.43359 0.023437 0.86719 0.054688 0.4375 0.023437 1.3008 0.070313 0.4375 0.023437 0.43359 0.019532 0.43359 0.023437 0.43359 0.019531 0.4375 0.019532 1.3008 0.058593 0.4375 0.015625 0.43359 0.019532 0.43359 0.015625 0.4375 0.015625 1.3008 0.046875 0.4375 0.015625 0.43359 0.015625 0.43359 0.011718 0.43359 0.015625 0.4375 0.011719 0.43359 0.015625 0.86719 0.023438 0.4375 0.011718 1.3008 0.035157 0.4375 0.011718 0.43359 0.007813 0.43359 0.011719 0.4375 0.011718 0.86719 0.015625 0.43359 0.011719 0.4375 0.007813 0.86719 0.015625 0.43359 0.011718 0.4375 0.007813 0.86719 0.015625 0.43359 0.003906 0.4375 0.007813 1.3008 0.023437 0.4375 0.003906 0.43359 0.007813 0.43359 0.003906 0.43359 0.007813 0.4375 0.003906 0.43359 0.007812 0.43359 0.003907 0.4375 0.007812" fill="none" stroke="#188653" stroke-miterlimit="10" stroke-width="1.1955"/>
</g>
<g clip-path="url(#z)">
<path transform="matrix(1 0 0 -1 20.193 162.52)" d="m129.52 86.078 0.43359-0.56641 0.43359-0.55469 0.43359-0.53906 0.4375-0.52734 0.43359-0.51172 0.43359-0.5 0.43359-0.48438 0.4375-0.47266 0.43359-0.46094 0.43359-0.44531 0.43359-0.4375 0.4375-0.42188 0.43359-0.41406 0.43359-0.40234 0.43359-0.39062 0.4375-0.38281 0.43359-0.37109 0.43359-0.35938 0.43359-0.35547 0.4375-0.33984 0.43359-0.33594 0.43359-0.32031 0.4375-0.31641 0.43359-0.30859 0.43359-0.30078 0.43359-0.28906 0.4375-0.28516 0.43359-0.27734 0.86719-0.53125 0.4375-0.25391 0.43359-0.24609 0.43359-0.24219 0.43359-0.23438 0.4375-0.23047 0.43359-0.22266 0.43359-0.21875 0.43359-0.21094 0.4375-0.20312 0.43359-0.19922 0.43359-0.19531 0.43359-0.19141 0.4375-0.18359 0.43359-0.17969 0.43359-0.17578 0.4375-0.17188 0.43359-0.16406 0.86719-0.32031 0.4375-0.15234 0.43359-0.14844 0.43359-0.14453 0.43359-0.14062 0.4375-0.13672 0.86719-0.26562 0.43359-0.125 0.4375-0.125 0.43359-0.12109 0.43359-0.11719 0.43359-0.11328 0.4375-0.10938 0.43359-0.10938 0.43359-0.10156 0.4375-0.10547 0.86719-0.19531 0.43359-0.09375 0.4375-0.09375 0.43359-0.089844 0.86719-0.17188 0.4375-0.082031 0.43359-0.082031 0.43359-0.074219 0.43359-0.078125 0.4375-0.074219 1.3008-0.21094 0.4375-0.066407 0.43359-0.066406 0.86719-0.125 0.4375-0.058594 0.43359-0.054687 0.43359-0.058594 0.4375-0.054687 0.43359-0.054688 0.86719-0.10156 0.4375-0.050782 1.3008-0.14062 0.4375-0.042968 1.3008-0.12891 0.4375-0.039062 0.86719-0.078125 0.43359-0.035156 0.4375-0.035157 0.86719-0.070312 0.4375-0.03125 0.43359-0.035156 0.86719-0.0625 0.4375-0.027344 0.43359-0.03125 0.86719-0.054688 0.4375-0.027343 0.43359-0.023438 0.43359-0.027344 0.43359-0.023437 0.4375-0.023438 1.3008-0.070312 0.4375-0.019531 0.43359-0.023438 0.43359-0.019531 0.4375-0.019531 0.86719-0.039063 0.43359-0.015625 0.4375-0.019531 0.43359-0.015625 0.43359-0.019531 0.43359-0.015625 0.4375-0.015625 1.3008-0.046875 0.4375-0.011719 0.86719-0.03125 0.43359-0.011719 0.4375-0.011719 0.43359-0.011718 0.43359-0.015625 0.43359-0.011719 0.4375-0.011719 0.43359-0.011719 0.43359-0.007812 0.4375-0.011719" fill="none" stroke="#dc3445" stroke-miterlimit="10" stroke-width="1.1955"/>
</g>
<g>
<use x="46.601" y="28.387" xlink:href="#a"/>
<use x="54.073" y="29.881" xlink:href="#d"/>
<use x="46.601" y="103.703" xlink:href="#e"/>
<use x="54.073" y="105.198" xlink:href="#d"/>
<use x="42.865" y="151.379" xlink:href="#e"/>
<use x="50.33695" y="151.379" xlink:href="#a"/>
<use x="57.809" y="152.873" xlink:href="#i"/>
<use x="7.896" y="130.633" xlink:href="#y"/>
<use x="7.896" y="123.43801" xlink:href="#c"/>
<use x="7.896" y="118.45671" xlink:href="#h"/>
<use x="7.896" y="112.92149" xlink:href="#t"/>
<use x="7.896" y="108.493114" xlink:href="#s"/>
<use x="7.896" y="104.064738" xlink:href="#h"/>
<use x="7.896" y="98.808471" xlink:href="#r"/>
<use x="7.896" y="94.934015" xlink:href="#g"/>
<use x="7.896" y="91.031665" xlink:href="#f"/>
<use x="7.896" y="86.050365" xlink:href="#q"/>
<use x="7.896" y="81.621989" xlink:href="#x"/>
<use x="7.896" y="76.640689" xlink:href="#c"/>
<use x="7.896" y="68.341844" xlink:href="#w"/>
<use x="7.896" y="60.040009" xlink:href="#c"/>
<use x="7.896" y="55.058709" xlink:href="#v"/>
<use x="7.896" y="52.291099" xlink:href="#f"/>
<use x="7.896" y="47.309799" xlink:href="#g"/>
<use x="7.896" y="43.407448" xlink:href="#u"/>
<use x="7.896" y="37.317" xlink:href="#p"/>
</g>
</svg>
