<?xml version="1.0" encoding="UTF-8"?>
<svg width="234pt" height="192pt" version="1.1" viewBox="0 0 234 192" xmlns="http://www.w3.org/2000/svg" xmlns:xlink="http://www.w3.org/1999/xlink">
<defs>
<symbol id="a" overflow="visible">
<path d="m4.5781-3.1875c0-0.79688-0.046875-1.5938-0.39062-2.3281-0.45312-0.96875-1.2812-1.125-1.6875-1.125-0.60938 0-1.3281 0.26562-1.75 1.1875-0.3125 0.6875-0.35938 1.4688-0.35938 2.2656 0 0.75 0.03125 1.6406 0.45312 2.4062 0.42188 0.79688 1.1562 1 1.6406 1 0.53125 0 1.2969-0.20312 1.7344-1.1562 0.3125-0.6875 0.35938-1.4688 0.35938-2.25zm-0.8125-0.125c0 0.75 0 1.4219-0.10938 2.0625-0.15625 0.95312-0.71875 1.25-1.1719 1.25-0.39062 0-0.98438-0.25-1.1562-1.2031-0.10938-0.59375-0.10938-1.5156-0.10938-2.1094 0-0.64062 0-1.2969 0.078125-1.8281 0.1875-1.1875 0.9375-1.2812 1.1875-1.2812 0.32812 0 0.98438 0.1875 1.1719 1.1719 0.10938 0.5625 0.10938 1.3125 0.10938 1.9375z"/>
</symbol>
<symbol id="i" overflow="visible">
<path d="m4.4688-1.7344h-0.23438c-0.0625 0.29688-0.125 0.73438-0.23438 0.89062-0.0625 0.078125-0.71875 0.078125-0.9375 0.078125h-1.7969l1.0625-1.0312c1.5469-1.375 2.1406-1.9062 2.1406-2.9062 0-1.1406-0.89062-1.9375-2.1094-1.9375-1.125 0-1.8594 0.92188-1.8594 1.8125 0 0.54688 0.5 0.54688 0.53125 0.54688 0.17188 0 0.51562-0.10938 0.51562-0.53125 0-0.25-0.1875-0.51562-0.53125-0.51562-0.078125 0-0.09375 0-0.125 0.015625 0.21875-0.65625 0.76562-1.0156 1.3438-1.0156 0.90625 0 1.3281 0.8125 1.3281 1.625 0 0.79688-0.48438 1.5781-1.0469 2.2031l-1.9062 2.125c-0.10938 0.10938-0.10938 0.14062-0.10938 0.375h3.7031z"/>
</symbol>
<symbol id="h" overflow="visible">
<path d="m4.6875-1.6406v-0.3125h-0.98438v-4.5312c0-0.20312 0-0.26562-0.17188-0.26562-0.078125 0-0.10938 0-0.1875 0.125l-3.0625 4.6719v0.3125h2.6562v0.85938c0 0.35938-0.03125 0.46875-0.76562 0.46875h-0.20312v0.3125c0.40625-0.03125 0.92188-0.03125 1.3438-0.03125s0.9375 0 1.3594 0.03125v-0.3125h-0.21875c-0.73438 0-0.75-0.10938-0.75-0.46875v-0.85938zm-1.7031-0.3125h-2.4219l2.4219-3.7188z"/>
</symbol>
<symbol id="g" overflow="visible">
<path d="m4.5625-2.0312c0-1.2656-0.89062-2.2188-2-2.2188-0.67188 0-1.0469 0.5-1.25 0.98438v-0.25c0-2.5156 1.2344-2.875 1.75-2.875 0.23438 0 0.65625 0.0625 0.875 0.40625-0.15625 0-0.54688 0-0.54688 0.4375 0 0.3125 0.23438 0.46875 0.45312 0.46875 0.15625 0 0.46875-0.09375 0.46875-0.48438 0-0.59375-0.4375-1.0781-1.2656-1.0781-1.2812 0-2.625 1.2812-2.625 3.4844 0 2.6719 1.1562 3.375 2.0781 3.375 1.1094 0 2.0625-0.9375 2.0625-2.25zm-0.90625-0.015625c0 0.48438 0 0.98438-0.17188 1.3438-0.29688 0.59375-0.75 0.64062-0.98438 0.64062-0.625 0-0.92188-0.59375-0.98438-0.75-0.1875-0.46875-0.1875-1.2656-0.1875-1.4375 0-0.78125 0.32812-1.7812 1.2188-1.7812 0.17188 0 0.625 0 0.9375 0.625 0.17188 0.35938 0.17188 0.875 0.17188 1.3594z"/>
</symbol>
<symbol id="f" overflow="visible">
<path d="m4.5625-1.6719c0-0.35938-0.10938-0.8125-0.5-1.2344-0.1875-0.20312-0.34375-0.29688-0.98438-0.70312 0.71875-0.375 1.2031-0.89062 1.2031-1.5469 0-0.92188-0.875-1.4844-1.7812-1.4844-1 0-1.8125 0.73438-1.8125 1.6719 0 0.17188 0.015625 0.625 0.4375 1.0938 0.10938 0.10938 0.48438 0.35938 0.73438 0.53125-0.57812 0.29688-1.4375 0.84375-1.4375 1.8438 0 1.0469 1.0156 1.7188 2.0625 1.7188 1.125 0 2.0781-0.82812 2.0781-1.8906zm-0.71875-3.4844c0 0.57812-0.39062 1.0469-0.98438 1.3906l-1.2344-0.79688c-0.45312-0.29688-0.5-0.625-0.5-0.79688 0-0.60938 0.65625-1.0312 1.3594-1.0312 0.71875 0 1.3594 0.51562 1.3594 1.2344zm0.21875 3.8438c0 0.73438-0.75 1.25-1.5625 1.25-0.85938 0-1.5781-0.60938-1.5781-1.4375 0-0.57812 0.3125-1.2188 1.1562-1.6875l1.2344 0.78125c0.28125 0.1875 0.75 0.48438 0.75 1.0938z"/>
</symbol>
<symbol id="e" overflow="visible">
<path d="m4.1719 0v-0.3125h-0.3125c-0.90625 0-0.92188-0.10938-0.92188-0.46875v-5.5938c0-0.25 0-0.26562-0.23438-0.26562-0.625 0.64062-1.5 0.64062-1.8125 0.64062v0.3125c0.20312 0 0.78125 0 1.2969-0.26562v5.1719c0 0.35938-0.03125 0.46875-0.92188 0.46875h-0.3125v0.3125c0.34375-0.03125 1.2031-0.03125 1.6094-0.03125 0.39062 0 1.2656 0 1.6094 0.03125z"/>
</symbol>
<symbol id="ai" overflow="visible">
<path d="m5.3281 0v-0.3125c-0.51562 0-0.76562 0-0.76562-0.29688v-1.9062c0-0.85938 0-1.1562-0.3125-1.5156-0.14062-0.17188-0.46875-0.375-1.0469-0.375-0.84375 0-1.2812 0.59375-1.4375 0.95312h-0.015625v-3.4688l-1.4375 0.10938v0.3125c0.70312 0 0.78125 0.0625 0.78125 0.5625v5.1875c0 0.4375-0.10938 0.4375-0.78125 0.4375v0.3125l1.1406-0.03125 1.1094 0.03125v-0.3125c-0.67188 0-0.78125 0-0.78125-0.4375v-1.8438c0-1.0312 0.71875-1.5938 1.3438-1.5938 0.64062 0 0.75 0.53125 0.75 1.1094v2.3281c0 0.4375-0.10938 0.4375-0.78125 0.4375v0.3125l1.125-0.03125z"/>
</symbol>
<symbol id="b" overflow="visible">
<path d="m2.0312-0.015625c0-0.65625-0.25-1.0469-0.64062-1.0469-0.32812 0-0.53125 0.25-0.53125 0.53125 0 0.26562 0.20312 0.53125 0.53125 0.53125 0.10938 0 0.25-0.046875 0.34375-0.125 0.03125-0.03125 0.046875-0.03125 0.046875-0.03125s0.015625 0 0.015625 0.14062c0 0.75-0.34375 1.3438-0.67188 1.6719-0.10938 0.10938-0.10938 0.125-0.10938 0.15625 0 0.078125 0.046875 0.10938 0.09375 0.10938 0.10938 0 0.92188-0.76562 0.92188-1.9375z"/>
</symbol>
<symbol id="ah" overflow="visible">
<path d="m3.125-1.4219c0-0.10938-0.078125-0.10938-0.10938-0.10938-0.09375 0-0.10938 0.03125-0.15625 0.14062-0.42188 1.0469-0.95312 1.2812-1.2969 1.2812-0.20312 0-0.3125-0.125-0.3125-0.45312 0-0.25 0.03125-0.3125 0.0625-0.48438l0.73438-2.9375h0.9375c0.20312 0 0.3125 0 0.3125-0.20312 0-0.10938-0.10938-0.10938-0.28125-0.10938h-0.875c0.35938-1.4219 0.40625-1.6094 0.40625-1.6719 0-0.17188-0.125-0.26562-0.29688-0.26562-0.03125 0-0.3125 0-0.39062 0.35938l-0.39062 1.5781h-0.9375c-0.20312 0-0.29688 0-0.29688 0.1875 0 0.125 0.078125 0.125 0.28125 0.125h0.875c-0.71875 2.8281-0.76562 3-0.76562 3.1719 0 0.54688 0.375 0.92188 0.92188 0.92188 1.0156 0 1.5781-1.4531 1.5781-1.5312z"/>
</symbol>
<symbol id="ag" overflow="visible">
<path d="m4.4219-7.2812c0-0.10938-0.078125-0.20312-0.1875-0.20312-0.078125 0-0.14062 0.03125-0.17188 0.09375l-3.4688 9.5c-0.046875 0.14062-0.046875 0.1875-0.046875 0.1875 0 0.10938 0.09375 0.20312 0.20312 0.20312 0.125 0 0.15625-0.078125 0.21875-0.25l3.4062-9.3438c0.046875-0.14062 0.046875-0.1875 0.046875-0.1875z"/>
</symbol>
<symbol id="af" overflow="visible">
<path d="m6.8281-4.5-0.1875-2.25h-6.0938l-0.1875 2.25h0.25c0.14062-1.6094 0.28125-1.9375 1.7969-1.9375 0.17188 0 0.4375 0 0.53125 0.015625 0.21875 0.046875 0.21875 0.15625 0.21875 0.375v5.2656c0 0.32812 0 0.46875-1.0469 0.46875h-0.40625v0.3125c0.40625-0.03125 1.4219-0.03125 1.8906-0.03125 0.45312 0 1.4844 0 1.8906 0.03125v-0.3125h-0.40625c-1.0469 0-1.0469-0.14062-1.0469-0.46875v-5.2656c0-0.1875 0-0.32812 0.1875-0.375 0.10938-0.015625 0.375-0.015625 0.5625-0.015625 1.5156 0 1.6562 0.32812 1.7969 1.9375z"/>
</symbol>
<symbol id="ae" overflow="visible">
<path d="m4.1406-1.1875c0-0.09375-0.078125-0.125-0.14062-0.125-0.078125 0-0.10938 0.0625-0.125 0.14062-0.34375 1.0312-1.25 1.0312-1.3438 1.0312-0.5 0-0.89062-0.29688-1.125-0.67188-0.29688-0.46875-0.29688-1.125-0.29688-1.4844h2.7812c0.21875 0 0.25 0 0.25-0.21875 0-0.98438-0.54688-1.9531-1.7812-1.9531-1.1562 0-2.0781 1.0312-2.0781 2.2812 0 1.3281 1.0469 2.2969 2.1875 2.2969 1.2188 0 1.6719-1.1094 1.6719-1.2969zm-0.65625-1.3281h-2.375c0.0625-1.4844 0.90625-1.7344 1.25-1.7344 1.0156 0 1.125 1.3438 1.125 1.7344z"/>
</symbol>
<symbol id="ad" overflow="visible">
<path d="m8.1094 0v-0.3125c-0.51562 0-0.76562 0-0.78125-0.29688v-1.9062c0-0.85938 0-1.1562-0.3125-1.5156-0.14062-0.17188-0.46875-0.375-1.0469-0.375-0.82812 0-1.2812 0.59375-1.4375 0.98438-0.14062-0.875-0.875-0.98438-1.3281-0.98438-0.73438 0-1.2031 0.42188-1.4844 1.0469v-1.0469l-1.4062 0.10938v0.3125c0.70312 0 0.78125 0.0625 0.78125 0.5625v2.6719c0 0.4375-0.10938 0.4375-0.78125 0.4375v0.3125l1.1406-0.03125 1.1094 0.03125v-0.3125c-0.67188 0-0.78125 0-0.78125-0.4375v-1.8438c0-1.0312 0.71875-1.5938 1.3438-1.5938 0.64062 0 0.75 0.53125 0.75 1.1094v2.3281c0 0.4375-0.10938 0.4375-0.78125 0.4375v0.3125l1.125-0.03125 1.1094 0.03125v-0.3125c-0.65625 0-0.76562 0-0.76562-0.4375v-1.8438c0-1.0312 0.70312-1.5938 1.3438-1.5938 0.625 0 0.73438 0.53125 0.73438 1.1094v2.3281c0 0.4375-0.10938 0.4375-0.78125 0.4375v0.3125l1.125-0.03125z"/>
</symbol>
<symbol id="ac" overflow="visible">
<path d="m5.1875-2.1562c0-1.2656-0.95312-2.25-2.0781-2.25-0.78125 0-1.2031 0.4375-1.3906 0.65625v-0.65625l-1.4375 0.10938v0.3125c0.70312 0 0.78125 0.0625 0.78125 0.5v4.6562c0 0.45312-0.10938 0.45312-0.78125 0.45312v0.3125l1.1094-0.03125 1.125 0.03125v-0.3125c-0.65625 0-0.76562 0-0.76562-0.45312v-1.7656c0.046875 0.17188 0.46875 0.70312 1.2188 0.70312 1.1875 0 2.2188-0.98438 2.2188-2.2656zm-0.82812 0c0 1.2031-0.6875 2.0469-1.4219 2.0469-0.40625 0-0.78125-0.20312-1.0469-0.60938-0.14062-0.20312-0.14062-0.21875-0.14062-0.42188v-2.2188c0.28125-0.51562 0.76562-0.79688 1.2812-0.79688 0.73438 0 1.3281 0.875 1.3281 2z"/>
</symbol>
<symbol id="ab" overflow="visible">
<path d="m4.6875-2.1406c0-1.2656-0.98438-2.3281-2.1875-2.3281-1.25 0-2.2188 1.0938-2.2188 2.3281 0 1.2969 1.0312 2.25 2.2031 2.25 1.2031 0 2.2031-0.98438 2.2031-2.25zm-0.8125-0.078125c0 0.35938 0 0.90625-0.21875 1.3438-0.23438 0.45312-0.67188 0.73438-1.1562 0.73438-0.4375 0-0.875-0.20312-1.1406-0.67188-0.25-0.4375-0.25-1.0469-0.25-1.4062 0-0.39062 0-0.92188 0.23438-1.3594 0.26562-0.45312 0.73438-0.67188 1.1406-0.67188 0.4375 0 0.85938 0.21875 1.125 0.65625 0.26562 0.42188 0.26562 1 0.26562 1.375z"/>
</symbol>
<symbol id="aa" overflow="visible">
<path d="m2.0312-0.015625c0-0.625-0.25-1.0469-0.64062-1.0469-0.35938 0-0.53125 0.28125-0.53125 0.53125 0 0.26562 0.17188 0.53125 0.53125 0.53125 0.14062 0 0.28125-0.0625 0.39062-0.15625 0.015625 0.78125-0.25 1.3906-0.6875 1.8594-0.0625 0.0625-0.078125 0.078125-0.078125 0.10938 0 0.078125 0.046875 0.10938 0.09375 0.10938 0.125 0 0.92188-0.78125 0.92188-1.9375z"/>
</symbol>
<symbol id="z" overflow="visible">
<path d="m-2.3281-6.625c-0.09375 0-0.17188 0-0.17188 0.125 0 0.10938 0.0625 0.10938 0.17188 0.125 1.4219 0.078125 2.2344 1.1406 2.2344 2.2344 0 0.60938-0.32812 2.5625-3.3125 2.5625-2.9688 0-3.3125-1.9531-3.3125-2.5625 0-1.0781 0.90625-1.9688 2.3594-2.1719 0.14062-0.015625 0.17188-0.015625 0.17188-0.15625 0-0.15625-0.03125-0.15625-0.23438-0.15625h-2.3594c-0.17188 0-0.25 0-0.25 0.10938 0 0.03125 0 0.078125 0.125 0.15625l0.73438 0.5c-0.35938 0.35938-0.85938 0.875-0.85938 1.8281 0 1.875 1.5938 3.4688 3.625 3.4688 2.0625 0 3.625-1.6094 3.625-3.4688 0-1.625-1.3906-2.5938-2.5469-2.5938z"/>
</symbol>
<symbol id="d" overflow="visible">
<path d="m-2.1406-4.6875c-1.2656 0-2.3281 0.98438-2.3281 2.1875 0 1.25 1.0938 2.2188 2.3281 2.2188 1.2969 0 2.25-1.0312 2.25-2.2031 0-1.2031-0.98438-2.2031-2.25-2.2031zm-0.078125 0.8125c0.35938 0 0.90625 0 1.3438 0.21875 0.45312 0.23438 0.73438 0.67188 0.73438 1.1562 0 0.4375-0.20312 0.875-0.67188 1.1406-0.4375 0.25-1.0469 0.25-1.4062 0.25-0.39062 0-0.92188 0-1.3594-0.23438-0.45312-0.26562-0.67188-0.73438-0.67188-1.1406 0-0.4375 0.21875-0.85938 0.65625-1.125 0.42188-0.26562 1-0.26562 1.375-0.26562z"/>
</symbol>
<symbol id="c" overflow="visible">
<path d="m0-5.3281h-0.3125c0 0.51562 0 0.76562-0.29688 0.76562h-1.9062c-0.85938 0-1.1562 0-1.5156 0.3125-0.17188 0.14062-0.375 0.46875-0.375 1.0469 0 0.73438 0.42188 1.2031 1.0469 1.4844h-1.0469l0.10938 1.4062h0.3125c0-0.70312 0.0625-0.78125 0.5625-0.78125h2.6719c0.4375 0 0.4375 0.10938 0.4375 0.78125h0.3125l-0.03125-1.1406 0.03125-1.1094h-0.3125c0 0.67188 0 0.78125-0.4375 0.78125h-1.8438c-1.0312 0-1.5938-0.71875-1.5938-1.3438 0-0.64062 0.53125-0.75 1.1094-0.75h2.3281c0.4375 0 0.4375 0.10938 0.4375 0.78125h0.3125l-0.03125-1.125z"/>
</symbol>
<symbol id="w" overflow="visible">
<path d="m-1.1875-4.1406c-0.09375 0-0.09375 0.10938-0.09375 0.14062 0 0.078125 0.03125 0.10938 0.09375 0.125 0.92188 0.28125 1.0469 0.9375 1.0469 1.2969 0 0.53125-0.42188 1.4062-2.0312 1.4062-1.625 0-2.0469-0.8125-2.0469-1.3438 0-0.09375 0.015625-0.71875 0.375-1.0625 0.03125 0.40625 0.32812 0.46875 0.45312 0.46875 0.26562 0 0.45312-0.1875 0.45312-0.45312s-0.15625-0.46875-0.46875-0.46875c-0.67188 0-1.0625 0.76562-1.0625 1.5312 0 1.25 1.0781 2.1562 2.3125 2.1562 1.2812 0 2.2656-0.98438 2.2656-2.1406 0-1.3281-1.2031-1.6562-1.2969-1.6562z"/>
</symbol>
<symbol id="v" overflow="visible">
<path d="m-1.1875-4.1406c-0.09375 0-0.125 0.078125-0.125 0.14062 0 0.078125 0.0625 0.10938 0.14062 0.125 1.0312 0.34375 1.0312 1.25 1.0312 1.3438 0 0.5-0.29688 0.89062-0.67188 1.125-0.46875 0.29688-1.125 0.29688-1.4844 0.29688v-2.7812c0-0.21875 0-0.25-0.21875-0.25-0.98438 0-1.9531 0.54688-1.9531 1.7812 0 1.1562 1.0312 2.0781 2.2812 2.0781 1.3281 0 2.2969-1.0469 2.2969-2.1875 0-1.2188-1.1094-1.6719-1.2969-1.6719zm-1.3281 0.65625v2.375c-1.4844-0.0625-1.7344-0.90625-1.7344-1.25 0-1.0156 1.3438-1.125 1.7344-1.125z"/>
</symbol>
<symbol id="u" overflow="visible">
<path d="m-1.2344-3.3125h-0.5625v0.25h0.54688c0.73438 0 1.1094 0.29688 1.1094 0.67188 0 0.67188-0.90625 0.67188-1.0781 0.67188h-2.7656v-1.4375h-0.3125v1.4375h-1.8281v0.25c0.8125 0 1.875 0.29688 1.9219 1.2812h0.21875v-0.84375h2.75c1.2188 0 1.3438-0.9375 1.3438-1.2969 0-0.70312-0.70312-0.98438-1.3438-0.98438z"/>
</symbol>
<symbol id="t" overflow="visible">
<path d="m-3.7969-3.625c-0.3125 0-0.60938 0.3125-0.60938 0.73438 0 0.73438 0.67188 1.0938 1.0938 1.2188h-1.0938l0.10938 1.3906h0.3125c0-0.70312 0.0625-0.78125 0.5625-0.78125h2.6719c0.4375 0 0.4375 0.10938 0.4375 0.78125h0.3125l-0.03125-1.1406c0-0.39062 0-0.85938 0.03125-1.2656h-0.3125v0.21875c0 0.73438-0.10938 0.75-0.46875 0.75h-1.5312c-0.98438 0-1.875-0.42188-1.875-1.1719 0-0.0625 0-0.09375 0.015625-0.10938 0 0.03125 0.125 0.23438 0.39062 0.23438s0.42188-0.21875 0.42188-0.4375c0-0.17188-0.125-0.42188-0.4375-0.42188z"/>
</symbol>
<symbol id="s" overflow="visible">
<path d="m-0.89062-4.8125h-0.5625v0.25h0.5625c0.57812 0 0.64062 0.25 0.64062 0.35938 0 0.32812-0.45312 0.35938-0.5 0.35938h-1.9844c-0.42188 0-0.8125 0-1.1875 0.35938-0.39062 0.39062-0.54688 0.89062-0.54688 1.375 0 0.8125 0.46875 1.5 1.125 1.5 0.29688 0 0.46875-0.20312 0.46875-0.45312 0-0.28125-0.20312-0.46875-0.45312-0.46875-0.125 0-0.45312 0.0625-0.45312 0.51562-0.35938-0.26562-0.46875-0.76562-0.46875-1.0781 0-0.48438 0.39062-1.0625 1.2812-1.0625h0.35938c0.03125 0.51562 0.0625 1.2188 0.35938 1.8438 0.34375 0.75 0.85938 1 1.2969 1 0.8125 0 1.0625-0.96875 1.0625-1.5938 0-0.67188-0.40625-1.125-0.85938-1.3125 0.39062-0.046875 0.8125-0.3125 0.8125-0.78125 0-0.20312-0.14062-0.8125-0.95312-0.8125zm-0.5 1.6562c0.9375 0 1.2812 0.71875 1.2812 1.1719 0 0.48438-0.34375 0.89062-0.84375 0.89062-0.54688 0-1.375-0.40625-1.4375-2.0625z"/>
</symbol>
<symbol id="r" overflow="visible">
<path d="m-1.1875-4.1406c-0.09375 0-0.09375 0.10938-0.09375 0.14062 0 0.078125 0.03125 0.10938 0.09375 0.125 0.92188 0.28125 1.0469 0.9375 1.0469 1.2969 0 0.53125-0.42188 1.4062-2.0312 1.4062-1.625 0-2.0469-0.8125-2.0469-1.3438 0-0.09375 0.015625-0.71875 0.375-1.0625 0.03125 0.40625 0.32812 0.46875 0.45312 0.46875 0.26562 0 0.45312-0.1875 0.45312-0.45312s-0.15625-0.46875-0.46875-0.46875c-0.67188 0-1.0625 0.76562-1.0625 1.5312 0 1.25 1.0781 2.1562 2.3125 2.1562 1.1719 0 2.0938-0.8125 2.25-1.8281h0.82812c0-0.375 0.078125-0.76562 0.40625-0.76562 0.40625 0 0.40625 0.95312 0.40625 1.7031v0.125h0.26562v-0.25c0-1.0781 0-2.4062-0.67188-2.4062-0.46875 0-0.67188 0.53125-0.67188 1.0781h-0.5625c-0.10938-1.1562-1.1875-1.4531-1.2812-1.4531z"/>
</symbol>
<symbol id="y" overflow="visible">
<path d="m-0.89062-4.8125h-0.5625v0.25h0.5625c0.57812 0 0.64062 0.25 0.64062 0.35938 0 0.32812-0.45312 0.35938-0.5 0.35938h-1.9844c-0.42188 0-0.8125 0-1.1875 0.35938-0.39062 0.39062-0.54688 0.89062-0.54688 1.375 0 0.8125 0.46875 1.5 1.125 1.5 0.29688 0 0.46875-0.20312 0.46875-0.45312 0-0.28125-0.20312-0.46875-0.45312-0.46875-0.125 0-0.45312 0.0625-0.45312 0.51562-0.35938-0.26562-0.46875-0.76562-0.46875-1.0781 0-0.48438 0.39062-1.0625 1.2812-1.0625h0.35938c0.03125 0.51562 0.0625 1.2188 0.35938 1.8438 0.34375 0.75 0.85938 1 1.2969 1 0.8125 0 1.0625-0.96875 1.0625-1.5938 0-0.67188-0.40625-1.125-0.85938-1.3125 0.39062-0.046875 0.8125-0.3125 0.8125-0.78125 0-0.20312-0.14062-0.8125-0.95312-0.8125zm-0.5 1.6562c0.9375 0 1.2812 0.71875 1.2812 1.1719 0 0.48438-0.34375 0.89062-0.84375 0.89062-0.54688 0-1.375-0.40625-1.4375-2.0625zm-4.9531-1-0.14062 0.15625s0.46875 0.375 0.46875 0.8125c0 0.23438-0.14062 0.48438-0.25 0.65625-0.15625 0.26562-0.21875 0.45312-0.21875 0.625 0 0.375 0.21875 0.5625 0.76562 1.0625l0.15625-0.15625s-0.48438-0.375-0.48438-0.8125c0-0.23438 0.15625-0.48438 0.25-0.65625 0.17188-0.26562 0.23438-0.4375 0.23438-0.60938 0-0.375-0.21875-0.57812-0.78125-1.0781z"/>
</symbol>
<symbol id="x" overflow="visible">
<path d="m-0.015625-2.0312c-0.625 0-1.0469 0.25-1.0469 0.64062 0 0.35938 0.28125 0.53125 0.53125 0.53125 0.26562 0 0.53125-0.17188 0.53125-0.53125 0-0.14062-0.0625-0.28125-0.15625-0.39062 0.78125-0.015625 1.3906 0.25 1.8594 0.6875 0.0625 0.0625 0.078125 0.078125 0.10938 0.078125 0.078125 0 0.10938-0.046875 0.10938-0.09375 0-0.125-0.78125-0.92188-1.9375-0.92188z"/>
</symbol>
<symbol id="q" overflow="visible">
<path d="m-1.0625-4.2812c-0.0625 0-0.14062 0.046875-0.14062 0.10938s0.03125 0.078125 0.10938 0.14062c0.98438 0.78125 0.98438 1.875 0.98438 1.9844 0 0.625-0.48438 0.90625-1.0938 0.90625-0.40625 0-1.375-0.20312-1.9844-0.54688-0.57812-0.3125-1-0.85938-1-1.4062 0-0.32812 0.125-0.71875 0.40625-0.85938 0 0.17188 0 0.29688 0.125 0.4375 0.15625 0.17188 0.32812 0.1875 0.39062 0.1875 0.25 0 0.35938-0.1875 0.35938-0.375 0-0.28125-0.25-0.54688-0.64062-0.54688-0.48438 0-0.85938 0.46875-0.85938 1.1719 0 1.3438 1.4219 2.6719 2.8281 2.6719 0.90625 0 1.6875-0.57812 1.6875-1.625 0-1.4219-1.0625-2.25-1.1719-2.25z"/>
</symbol>
<symbol id="p" overflow="visible">
<path d="m-7.2812-4.4219c-0.10938 0-0.20312 0.078125-0.20312 0.1875 0 0.078125 0.03125 0.14062 0.09375 0.17188l9.5 3.4688c0.14062 0.046875 0.1875 0.046875 0.1875 0.046875 0.10938 0 0.20312-0.09375 0.20312-0.20312 0-0.125-0.078125-0.15625-0.25-0.21875l-9.3438-3.4062c-0.14062-0.046875-0.1875-0.046875-0.1875-0.046875z"/>
</symbol>
<symbol id="o" overflow="visible">
<path d="m0-8.1094h-0.3125c0 0.51562 0 0.76562-0.29688 0.78125h-1.9062c-0.85938 0-1.1562 0-1.5156 0.3125-0.17188 0.14062-0.375 0.46875-0.375 1.0469 0 0.82812 0.59375 1.2812 0.98438 1.4375-0.875 0.14062-0.98438 0.875-0.98438 1.3281 0 0.73438 0.42188 1.2031 1.0469 1.4844h-1.0469l0.10938 1.4062h0.3125c0-0.70312 0.0625-0.78125 0.5625-0.78125h2.6719c0.4375 0 0.4375 0.10938 0.4375 0.78125h0.3125l-0.03125-1.1406 0.03125-1.1094h-0.3125c0 0.67188 0 0.78125-0.4375 0.78125h-1.8438c-1.0312 0-1.5938-0.71875-1.5938-1.3438 0-0.64062 0.53125-0.75 1.1094-0.75h2.3281c0.4375 0 0.4375 0.10938 0.4375 0.78125h0.3125l-0.03125-1.125 0.03125-1.1094h-0.3125c0 0.65625 0 0.76562-0.4375 0.76562h-1.8438c-1.0312 0-1.5938-0.70312-1.5938-1.3438 0-0.625 0.53125-0.73438 1.1094-0.73438h2.3281c0.4375 0 0.4375 0.10938 0.4375 0.78125h0.3125l-0.03125-1.125z"/>
</symbol>
<symbol id="n" overflow="visible">
<path d="m-2.1406-4.6875c-1.2656 0-2.3281 0.98438-2.3281 2.1875 0 1.25 1.0938 2.2188 2.3281 2.2188 1.2969 0 2.25-1.0312 2.25-2.2031 0-1.2031-0.98438-2.2031-2.25-2.2031zm-0.078125 0.8125c0.35938 0 0.90625 0 1.3438 0.21875 0.45312 0.23438 0.73438 0.67188 0.73438 1.1562 0 0.4375-0.20312 0.875-0.67188 1.1406-0.4375 0.25-1.0469 0.25-1.4062 0.25-0.39062 0-0.92188 0-1.3594-0.23438-0.45312-0.26562-0.67188-0.73438-0.67188-1.1406 0-0.4375 0.21875-0.85938 0.65625-1.125 0.42188-0.26562 1-0.26562 1.375-0.26562z"/>
</symbol>
<symbol id="m" overflow="visible">
<path d="m0-2.5469h-0.3125c0 0.67188 0 0.78125-0.4375 0.78125h-6.1719l0.10938 1.4375h0.3125c0-0.70312 0.0625-0.78125 0.5625-0.78125h5.1875c0.4375 0 0.4375 0.10938 0.4375 0.78125h0.3125l-0.03125-1.1094z"/>
</symbol>
<symbol id="l" overflow="visible">
<path d="m-2.5781-5.7969v0.25c1.0156 0.10938 2.2656 0.25 2.2656 2v0.8125c0 0.46875-0.0625 0.48438-0.39062 0.48438h-5.3125c-0.34375 0-0.48438 0-0.48438-0.9375v-0.32812h-0.3125c0.03125 0.35938 0.03125 1.2656 0.03125 1.6719 0 0.39062 0 1.1719-0.03125 1.5156h0.3125v-0.23438c0-0.76562 0.10938-0.79688 0.46875-0.79688h5.25c0.35938 0 0.46875 0.03125 0.46875 0.79688v0.23438h0.3125v-5.1875z"/>
</symbol>
<symbol id="k" overflow="visible">
<path d="m-1.7344-5.4688c-0.1875 0-0.1875 0.17188-0.1875 0.26562v4.1875c0 0.10938 0 0.26562 0.1875 0.26562 0.15625 0 0.15625-0.17188 0.15625-0.26562v-4.1875c0-0.09375 0-0.26562-0.15625-0.26562z"/>
</symbol>
<symbol id="j" overflow="visible">
<path d="m0-3.2969h-0.25v0.26562c0 0.70312-0.09375 0.70312-0.32812 0.70312h-3.8594c-0.1875 0-0.1875 0-0.1875 0.20312 0.4375 0.45312 0.4375 1.0781 0.4375 1.3594h0.25c0-0.15625 0-0.625-0.1875-1h3.5469c0.23438 0 0.32812 0 0.32812 0.6875v0.26562h0.25l-0.03125-1.2344z"/>
</symbol>
<clipPath id="al">
<path d="m34.301 3.8008h194.27v114.2h-194.27z"/>
</clipPath>
<clipPath id="ak">
<path d="m34.301 51h194.27v114.2h-194.27z"/>
</clipPath>
<clipPath id="aj">
<path d="m34.301 3.8008h194.27v161.4h-194.27z"/>
</clipPath>
</defs>
<path transform="matrix(1 0 0 -1 34.301 165.2)" d="m-2.1875e-4 -0.0012188v161.4m38.855-161.4v161.4m38.855-161.4v161.4m38.852-161.4v161.4m38.855-161.4v161.4m38.855-161.4v161.4" fill="none" stroke="#bfbfbf" stroke-miterlimit="10" stroke-width=".3985"/>
<path transform="matrix(1 0 0 -1 34.301 165.2)" d="m-2.1875e-4 -0.0012188h194.27m-194.27 32.281h194.27m-194.27 32.277h194.27m-194.27 32.281h194.27m-194.27 32.277h194.27m-194.27 32.281h194.27" fill="none" stroke="#bfbfbf" stroke-miterlimit="10" stroke-width=".3985"/>
<path transform="matrix(1 0 0 -1 34.301 165.2)" d="m-2.1875e-4 -0.0012188v4.2539m38.855-4.2539v4.2539m38.855-4.2539v4.2539m38.852-4.2539v4.2539m38.855-4.2539v4.2539m38.855-4.2539v4.2539m-194.27 157.14v-4.2539m38.855 4.2539v-4.2539m38.855 4.2539v-4.2539m38.852 4.2539v-4.2539m38.855 4.2539v-4.2539m38.855 4.2539v-4.2539" fill="none" stroke="#7f7f7f" stroke-miterlimit="10" stroke-width=".19925"/>
<path transform="matrix(1 0 0 -1 34.301 165.2)" d="m-2.1875e-4 -0.0012188h4.2539m-4.2539 32.281h4.2539m-4.2539 32.277h4.2539m-4.2539 32.281h4.2539m-4.2539 32.277h4.2539m-4.2539 32.281h4.2539m190.02-161.4h-4.2539m4.2539 32.281h-4.2539m4.2539 32.277h-4.2539m4.2539 32.281h-4.2539m4.2539 32.277h-4.2539m4.2539 32.281h-4.2539" fill="none" stroke="#7f7f7f" stroke-miterlimit="10" stroke-width=".19925"/>
<path transform="matrix(1 0 0 -1 34.301 165.2)" d="m-2.1875e-4 -0.0012188v161.4h194.27v-161.4z" fill="none" stroke="#000" stroke-miterlimit="10" stroke-width=".3985"/>
<g>
<use x="31.811" y="174.992" xlink:href="#a"/>
<use x="70.665" y="174.992" xlink:href="#i"/>
<use x="109.519" y="174.992" xlink:href="#h"/>
<use x="148.373" y="174.992" xlink:href="#g"/>
<use x="187.227" y="174.992" xlink:href="#f"/>
<use x="223.591" y="174.992" xlink:href="#e"/>
<use x="228.5723" y="174.992" xlink:href="#a"/>
<use x="25.8" y="168.335" xlink:href="#a"/>
<use x="18.051" y="135.088" xlink:href="#a"/>
<use x="23.033" y="135.088" xlink:href="#b"/>
<use x="25.8" y="135.088" xlink:href="#i"/>
<use x="18.051" y="102.809" xlink:href="#a"/>
<use x="23.033" y="102.809" xlink:href="#b"/>
<use x="25.8" y="102.809" xlink:href="#h"/>
<use x="18.051" y="70.53" xlink:href="#a"/>
<use x="23.033" y="70.53" xlink:href="#b"/>
<use x="25.8" y="70.53" xlink:href="#g"/>
<use x="18.051" y="38.251" xlink:href="#a"/>
<use x="23.033" y="38.251" xlink:href="#b"/>
<use x="25.8" y="38.251" xlink:href="#f"/>
<use x="25.8" y="6.941" xlink:href="#e"/>
</g>
<g clip-path="url(#al)">
<path transform="matrix(1 0 0 -1 34.301 165.2)" d="m-2.1875e-4 161.4 1.3047-6.2656 1.3047-5.8789 1.3008-5.5 1.3047-5.1445 1.3047-4.8047 1.3047-4.4922 1.3047-4.207 1.3008-3.9297 1.3047-3.6719 1.3047-3.4375 1.3047-3.2188 1.3008-3 1.3047-2.8086 1.3047-2.6289 1.3047-2.457 1.3047-2.2969 1.3008-2.1523 1.3047-2.0117 1.3047-1.8711 1.3047-1.7617 1.3008-1.6367 1.3047-1.5391 1.3047-1.4336 1.3047-1.3477 1.3047-1.2578 1.3008-1.1719 1.3047-1.0977 1.3047-1.0234 1.3047-0.96094 1.3008-0.89844 1.3047-0.84375 1.3047-0.78516 1.3047-0.73828 1.3047-0.6875 1.3008-0.63281 1.3047-0.60156 1.3047-0.55859 1.3047-0.52734 1.3008-0.48828 1.3047-0.46094 1.3047-0.42969 1.3047-0.39844 1.3047-0.375 1.3008-0.35156 1.3047-0.32812 1.3047-0.30859 1.3047-0.28516 1.3047-0.26953 1.3008-0.25 1.3047-0.23438 1.3047-0.21875 1.3047-0.20703 1.3008-0.19141 1.3047-0.17578 1.3047-0.16797 1.3047-0.16016 1.3047-0.14453 1.3008-0.13672 1.3047-0.12891 1.3047-0.12109 1.3047-0.10938 1.3008-0.10547 1.3047-0.097656 1.3047-0.09375 1.3047-0.085938 1.3047-0.078125 1.3008-0.074219 1.3047-0.070312 1.3047-0.066406 1.3047-0.0625 1.3008-0.054688 1.3047-0.054687 1.3047-0.050782 1.3047-0.046875 1.3047-0.042968 1.3008-0.042969 1.3047-0.035156 1.3047-0.039063 1.3047-0.03125 1.3008-0.03125 1.3047-0.03125 1.3047-0.027344 2.6094-0.046875 1.3008-0.023437 1.3047-0.023438 1.3047-0.019531 1.3047-0.015625 1.3008-0.019531 2.6094-0.03125 2.6094-0.023438 1.3008-0.015625 1.3047-0.011718 1.3047-0.007813 1.3047-0.011719 2.6055-0.015625 1.3047-0.011718 1.3047-0.003907 2.6055-0.015625 1.3047-0.007812 1.3047-0.003906 1.3047-0.007813 11.734-0.035156h1.3047l1.3008-0.003906 1.3047-0.003907h1.3047l1.3047-0.003906h1.3008l1.3047-0.003906h1.3047l1.3047-0.003906h2.6055l1.3047-0.003907h2.6094l1.3008-0.003906h3.9141l1.3047-0.003906h5.2148l1.3008-0.003906h10.434l1.3047-0.003907h1.3008" fill="none" stroke="#0c6dfd" stroke-miterlimit="10" stroke-width="1.1955"/>
</g>
<g clip-path="url(#ak)">
<path transform="matrix(1 0 0 -1 34.301 165.2)" d="m-2.1875e-4 -0.0012188 1.3047 6.2656 1.3047 5.8789 1.3008 5.5 1.3047 5.1445 1.3047 4.8047 1.3047 4.4922 1.3047 4.207 1.3008 3.9297 1.3047 3.6719 1.3047 3.4375 1.3047 3.2188 1.3008 3 1.3047 2.8086 1.3047 2.6289 1.3047 2.457 1.3047 2.2969 1.3008 2.1523 1.3047 2.0117 1.3047 1.8711 1.3047 1.7617 1.3008 1.6367 1.3047 1.5391 1.3047 1.4375 1.3047 1.3438 1.3047 1.2578 1.3008 1.1719 1.3047 1.0977 1.3047 1.0273 1.3047 0.95703 1.3008 0.90234 1.3047 0.83984 1.3047 0.78516 1.3047 0.73828 1.3047 0.6875 1.3008 0.63281 1.3047 0.60156 1.3047 0.55859 1.3047 0.52734 1.3008 0.48828 1.3047 0.46094 1.3047 0.42969 1.3047 0.39844 1.3047 0.375 1.3008 0.35156 1.3047 0.32812 1.3047 0.30859 1.3047 0.28516 1.3047 0.26953 1.3008 0.25 1.3047 0.23438 1.3047 0.21875 1.3047 0.20703 1.3008 0.19141 1.3047 0.17969 1.3047 0.16406 1.3047 0.16016 1.3047 0.14453 1.3008 0.13672 1.3047 0.12891 1.3047 0.12109 1.3047 0.10938 1.3008 0.10547 1.3047 0.097657 1.3047 0.09375 1.3047 0.085937 1.3047 0.078125 1.3008 0.074219 1.3047 0.070312 1.3047 0.066407 1.3047 0.0625 1.3008 0.058593 2.6094 0.10156 1.3047 0.046875 1.3047 0.042969 1.3008 0.042968 1.3047 0.039063 1.3047 0.035156 1.3047 0.03125 1.3008 0.03125 1.3047 0.03125 1.3047 0.027344 2.6094 0.046875 1.3008 0.023437 1.3047 0.023438 1.3047 0.019531 1.3047 0.015625 1.3008 0.019531 2.6094 0.03125 1.3047 0.011719 1.3047 0.015625 2.6055 0.023438 1.3047 0.007812 1.3047 0.011719 1.3047 0.007812 1.3008 0.011719 2.6094 0.015625 1.3047 0.003906 2.6055 0.015625 1.3047 0.003907 1.3047 0.007812 1.3047 0.003906 5.2148 0.015625 5.2148 0.015625h1.3047l2.6055 0.007813h1.3047l1.3047 0.003906h1.3008l1.3047 0.003906h1.3047l1.3047 0.003907h1.3047l1.3008 0.003906h3.9141l1.3008 0.003906h3.9141l1.3047 0.003906h5.2148l1.3008 0.003907h9.1289l1.3047 0.003906h2.6055" fill="none" stroke="#dc3445" stroke-miterlimit="10" stroke-width="1.1955"/>
</g>
<g clip-path="url(#aj)">
<path transform="matrix(1 0 0 -1 34.301 165.2)" d="m-2.1875e-4 -0.0012188 1.3047 9.3945 1.3047 8.8203 1.3008 8.2539 1.3047 7.7148 1.3047 7.207 1.3047 6.7383 1.3047 6.3086 1.3008 5.8984 1.3047 5.5078 1.3047 5.1562 1.3047 4.8242 1.3008 4.5039 1.3047 4.2109 1.3047 3.9414 1.3047 3.6875 1.3047 3.4453 1.3008 3.2266 1.3047 3.0195 1.3047 2.8047 1.3047 2.6445 1.3008 2.457 1.3047 2.3086 1.3047 2.1523 1.3047 2.0195 1.3047 1.8867 1.3008 1.7578 1.3047 1.6406 1.3047 1.543 1.3047 1.4375 1.3008 1.3516 1.3047 1.2656 1.3047 1.1758 1.3047 1.1016 1.3047 1.0312 1.3008 0.95312 1.3047 0.89844 1.3047 0.84375 1.3047 0.78516 1.3008 0.73828 1.3047 0.6875 1.3047 0.64453 1.3047 0.60156 1.3047 0.5625 1.3008 0.52734 1.3047 0.49219 1.3047 0.45703 1.3047 0.42969 1.3047 0.40234 1.3008 0.37891 1.3047 0.35156 1.3047 0.32812 1.3047 0.30859 1.3008 0.28516 1.3047 0.26953 1.3047 0.25391 1.3047 0.23438 1.3047 0.21875 1.3008 0.20703 1.3047 0.19141 1.3047 0.17969 1.3047 0.16797 1.3008 0.15625 1.3047 0.14844 1.3047 0.13672 1.3047 0.12891 1.3047 0.12109 1.3008 0.11328 2.6094 0.20312 1.3047 0.089844 1.3008 0.085938 1.3047 0.082031 1.3047 0.074219 1.3047 0.070312 1.3047 0.066406 1.3008 0.058594 1.3047 0.058594 1.3047 0.054687 1.3047 0.050782 1.3008 0.046875 2.6094 0.085937 1.3047 0.035156 1.3047 0.039063 1.3008 0.03125 2.6094 0.0625 1.3047 0.027344 1.3008 0.023437 3.9141 0.070313 1.3047 0.019531 1.3008 0.015625 1.3047 0.019531 2.6094 0.03125 1.3047 0.011719 1.3008 0.015625 2.6094 0.023437 1.3047 0.007813 1.3008 0.011719 1.3047 0.007812 1.3047 0.011719 2.6094 0.015625 1.3008 0.007812 1.3047 0.003907 1.3047 0.007812 1.3047 0.003906 1.3008 0.007813 3.9141 0.011719 1.3047 0.007812 2.6055 0.007813h1.3047l1.3047 0.003906 2.6055 0.007812h1.3047l2.6094 0.007813h1.3008l1.3047 0.003906h1.3047l1.3047 0.003906h2.6055l1.3047 0.003907h2.6094l1.3008 0.003906h3.9141l1.3008 0.003906h3.9141l1.3047 0.003906h7.8203" fill="none" stroke="#188653" stroke-miterlimit="10" stroke-width="1.1955"/>
</g>
<g>
<use x="106.356" y="189.304" xlink:href="#af"/>
<use x="112.724094" y="189.304" xlink:href="#ae"/>
<use x="117.15247" y="189.304" xlink:href="#ad"/>
<use x="125.454304" y="189.304" xlink:href="#ac"/>
<use x="131.258515" y="189.304" xlink:href="#ab"/>
<use x="136.239815" y="189.304" xlink:href="#aa"/>
<use x="142.332" y="189.304" xlink:href="#ah"/>
<use x="145.929495" y="189.304" xlink:href="#ag"/>
<use x="150.911" y="189.304" xlink:href="#ai"/>
<use x="8.72" y="139.02" xlink:href="#z"/>
<use x="8.72" y="131.82501" xlink:href="#d"/>
<use x="8.72" y="126.84371" xlink:href="#c"/>
<use x="8.72" y="121.30849" xlink:href="#w"/>
<use x="8.72" y="116.880114" xlink:href="#v"/>
<use x="8.72" y="112.451738" xlink:href="#c"/>
<use x="8.72" y="107.195471" xlink:href="#u"/>
<use x="8.72" y="103.321015" xlink:href="#t"/>
<use x="8.72" y="99.418665" xlink:href="#s"/>
<use x="8.72" y="94.437365" xlink:href="#r"/>
<use x="8.72" y="90.008989" xlink:href="#y"/>
<use x="8.72" y="85.027689" xlink:href="#d"/>
<use x="8.72" y="80.046389" xlink:href="#x"/>
<use x="8.72" y="73.958" xlink:href="#q"/>
<use x="8.72" y="69.646187" xlink:href="#p"/>
<use x="8.72" y="64.665" xlink:href="#o"/>
<use x="8.72" y="56.363165" xlink:href="#n"/>
<use x="8.72" y="51.381865" xlink:href="#m"/>
<use x="8.72" y="46.900688" xlink:href="#l"/>
<use x="5.104" y="40.678" xlink:href="#k"/>
<use x="5.104" y="34.451" xlink:href="#j"/>
</g>
</svg>
