<?xml version="1.0" encoding="UTF-8"?>
<svg width="237pt" height="29pt" version="1.1" viewBox="0 0 237 29" xmlns="http://www.w3.org/2000/svg" xmlns:xlink="http://www.w3.org/1999/xlink">
<defs>
<symbol id="b" overflow="visible">
<path d="m6.1094 0v-6.9219h-0.89062v3.0312h-3.3906v-3.0312h-0.89062v6.9219h0.89062v-3.2969h3.3906v3.2969z"/>
</symbol>
<symbol id="a" overflow="visible">
<path d="m6.7656-3.4375c0-2.0938-1.4375-3.7031-3.0938-3.7031-1.7031 0-3.1094 1.625-3.1094 3.7031 0 2.1094 1.4688 3.6562 3.0938 3.6562 1.6719 0 3.1094-1.5625 3.1094-3.6562zm-0.89062-0.15625c0 1.9531-1.0625 3.1719-2.2031 3.1719-1.1719 0-2.2188-1.25-2.2188-3.1719 0-1.8125 1.0938-2.9062 2.2031-2.9062 1.1562 0 2.2188 1.125 2.2188 2.9062z"/>
</symbol>
<symbol id="d" overflow="visible">
<path d="m7.1875-2.5c0-0.1875-0.1875-0.1875-0.32812-0.1875h-2.7812v-2.7969c0-0.14062 0-0.32812-0.20312-0.32812s-0.20312 0.1875-0.20312 0.32812v2.7969h-2.7812c-0.14062 0-0.32812 0-0.32812 0.1875 0 0.20312 0.1875 0.20312 0.32812 0.20312h2.7812v2.7969c0 0.14062 0 0.32812 0.20312 0.32812s0.20312-0.1875 0.20312-0.32812v-2.7969h2.7812c0.14062 0 0.32812 0 0.32812-0.20312z"/>
</symbol>
<symbol id="e" overflow="visible">
<path d="m3.5156-1.2656h-0.23438c-0.015625 0.15625-0.09375 0.5625-0.1875 0.625-0.046875 0.046875-0.57812 0.046875-0.6875 0.046875h-1.2812c0.73438-0.64062 0.98438-0.84375 1.3906-1.1719 0.51562-0.40625 1-0.84375 1-1.5 0-0.84375-0.73438-1.3594-1.625-1.3594-0.85938 0-1.4531 0.60938-1.4531 1.25 0 0.34375 0.29688 0.39062 0.375 0.39062 0.15625 0 0.35938-0.125 0.35938-0.375 0-0.125-0.046875-0.375-0.40625-0.375 0.21875-0.48438 0.6875-0.64062 1.0156-0.64062 0.70312 0 1.0625 0.54688 1.0625 1.1094 0 0.60938-0.4375 1.0781-0.65625 1.3281l-1.6719 1.6719c-0.078125 0.0625-0.078125 0.078125-0.078125 0.26562h2.875z"/>
</symbol>
<symbol id="c" overflow="visible">
<path d="m5.4688-1.7344c0-0.1875-0.17188-0.1875-0.26562-0.1875h-4.1875c-0.10938 0-0.26562 0-0.26562 0.1875 0 0.15625 0.17188 0.15625 0.26562 0.15625h4.1875c0.09375 0 0.26562 0 0.26562-0.15625z"/>
</symbol>
</defs>
<g>
<use x="0.023" y="22.046" xlink:href="#b"/>
<use x="19.501" y="10.721" xlink:href="#a"/>
</g>
<path transform="matrix(1,0,0,-1,28.121,2.308)" d="m0.60166-0.60216c-0.25-0.25-0.25-0.66016 0-0.91016s0.66016-0.25 0.91016 0 0.25 0.66016 0 0.91016-0.66016 0.25-0.91016 0zm-2.1133 2.1133c-0.25-0.25-0.25-0.65625 0-0.91016 0.25-0.25 0.66016-0.25 0.91016 0 0.25 0.25391 0.25 0.66016 0 0.91016s-0.66016 0.25-0.91016 0z" stroke="#000" stroke-miterlimit="10" stroke-width=".3985"/>
<path transform="matrix(1,0,0,-1,18.215,2.308)" d="m0.60141 0.60097c0.25-0.25 0.66016-0.25 0.91016 0 0.25 0.25391 0.25 0.66016 0 0.91016s-0.66016 0.25-0.91016 0-0.25-0.65625 0-0.91016zm-2.1133-2.1133c0.25-0.25 0.66016-0.25 0.91016 0s0.25 0.66016 0 0.91016-0.66016 0.25-0.91016 0-0.25-0.66016 0-0.91016z" stroke="#000" stroke-miterlimit="10" stroke-width=".3985"/>
<path transform="matrix(1,0,0,-1,3.552,22.046)" d="m4.9089 6.2921 9.6602 5.5781" fill="none" stroke="#000" stroke-linecap="round" stroke-miterlimit="10" stroke-width=".59758"/>
<g fill="#dc3445">
<use x="39.256" y="22.046" xlink:href="#b"/>
</g>
<path transform="matrix(1,0,0,-1,3.552,22.046)" d="m24.663 11.87 9.6602-5.5781" fill="none" stroke="#000" stroke-linecap="round" stroke-miterlimit="10" stroke-width=".59758"/>
<g>
<use x="58.267" y="15.415" xlink:href="#d"/>
<use x="77.972" y="16.383" xlink:href="#a"/>
</g>
<path transform="matrix(1,0,0,-1,88.294,12.924)" d="m-0.0010312-0.84944c-0.35547 0-0.64062-0.28906-0.64062-0.64453 0-0.35547 0.28516-0.64453 0.64062-0.64453 0.35547 0 0.64453 0.28906 0.64453 0.64453 0 0.35547-0.28906 0.64453-0.64453 0.64453zm0 2.9883c-0.35547 0-0.64062-0.28906-0.64062-0.64453 0-0.35547 0.28516-0.64453 0.64062-0.64453 0.35547 0 0.64453 0.28906 0.64453 0.64453 0 0.35547-0.28906 0.64453-0.64453 0.64453z" stroke="#000" stroke-miterlimit="10" stroke-width=".3985"/>
<path transform="matrix(1,0,0,-1,81.638,6.476)" d="m0.85028-5.625e-4c0-0.35547 0.28906-0.64453 0.64453-0.64453 0.35547 0 0.64453 0.28906 0.64453 0.64453s-0.28906 0.64453-0.64453 0.64453c-0.35547 0-0.64453-0.28906-0.64453-0.64453zm-2.9883 0c0-0.35547 0.28906-0.64453 0.64453-0.64453s0.64062 0.28906 0.64062 0.64453-0.28516 0.64453-0.64062 0.64453-0.64453-0.28906-0.64453-0.64453z" stroke="#000" stroke-miterlimit="10" stroke-width=".3985"/>
<path transform="matrix(1,0,0,-1,74.983,12.924)" d="m0.001375 0.84978c0.35547 0 0.64062 0.28906 0.64062 0.64453 0 0.35547-0.28516 0.64453-0.64062 0.64453s-0.64453-0.28906-0.64453-0.64453c0-0.35547 0.28906-0.64453 0.64453-0.64453zm0-2.9883c0.35547 0 0.64062 0.28906 0.64062 0.64453 0 0.35547-0.28516 0.64453-0.64062 0.64453s-0.64453-0.28906-0.64453-0.64453c0-0.35547 0.28906-0.64453 0.64453-0.64453z" stroke="#000" stroke-miterlimit="10" stroke-width=".3985"/>
<path transform="matrix(1,0,0,-1,81.638,19.372)" d="m-0.85284 9.0625e-4c0 0.35547-0.28516 0.64062-0.64062 0.64062s-0.64453-0.28516-0.64453-0.64062c0-0.35547 0.28906-0.64453 0.64453-0.64453s0.64062 0.28906 0.64062 0.64453zm2.9922 0c0 0.35547-0.28906 0.64062-0.64453 0.64062-0.35547 0-0.64453-0.28516-0.64453-0.64062 0-0.35547 0.28906-0.64453 0.64453-0.64453 0.35547 0 0.64453 0.28906 0.64453 0.64453z" stroke="#000" stroke-miterlimit="10" stroke-width=".3985"/>
<g>
<use x="86.28" y="6.583" xlink:href="#e"/>
<use x="90.251" y="6.583" xlink:href="#c"/>
</g>
<path transform="matrix(1 0 0 -1 .023 22.046)" d="m95.247 9.1202h27.953" fill="none" stroke="#000" stroke-miterlimit="10" stroke-width=".3985"/>
<path transform="matrix(1 0 0 -1 120.51 12.924)" d="m4.4444-0.0019412-3.2812 1.3164 1.6445-1.3164-1.6445-1.3125z" stroke="#000" stroke-linejoin="round" stroke-miterlimit="10" stroke-width=".3985"/>
<g>
<use x="135.118" y="16.383" xlink:href="#b"/>
<use x="156.517" y="16.383" xlink:href="#a"/>
</g>
<path transform="matrix(1 0 0 -1 160.18 19.372)" d="m-0.85197 9.0625e-4c0 0.35547-0.28906 0.64062-0.64062 0.64062-0.35547 0-0.64453-0.28516-0.64453-0.64062 0-0.35547 0.28906-0.64453 0.64453-0.64453 0.35156 0 0.64062 0.28906 0.64062 0.64453zm2.9883 0c0 0.35547-0.28516 0.64062-0.64062 0.64062-0.35547 0-0.64453-0.28516-0.64453-0.64062 0-0.35547 0.28906-0.64453 0.64453-0.64453 0.35547 0 0.64062 0.28906 0.64062 0.64453z" stroke="#000" stroke-miterlimit="10" stroke-width=".3985"/>
<path transform="matrix(1 0 0 -1 160.18 6.476)" d="m0.85116-5.625e-4c0-0.35547 0.28906-0.64453 0.64453-0.64453 0.35547 0 0.64062 0.28906 0.64062 0.64453s-0.28516 0.64453-0.64062 0.64453c-0.35547 0-0.64453-0.28906-0.64453-0.64453zm-2.9883 0c0-0.35547 0.28906-0.64453 0.64453-0.64453 0.35156 0 0.64062 0.28906 0.64062 0.64453s-0.28906 0.64453-0.64062 0.64453c-0.35547 0-0.64453-0.28906-0.64453-0.64453z" stroke="#000" stroke-miterlimit="10" stroke-width=".3985"/>
<path transform="matrix(1,0,0,-1,166.84,12.924)" d="m-1.5625e-4 -0.84944c-0.35547 0-0.64453-0.28906-0.64453-0.64453 0-0.35547 0.28906-0.64453 0.64453-0.64453 0.35547 0 0.64453 0.28906 0.64453 0.64453 0 0.35547-0.28906 0.64453-0.64453 0.64453zm0 2.9883c-0.35547 0-0.64453-0.28906-0.64453-0.64453 0-0.35547 0.28906-0.64453 0.64453-0.64453 0.35547 0 0.64453 0.28906 0.64453 0.64453 0 0.35547-0.28906 0.64453-0.64453 0.64453z" stroke="#000" stroke-miterlimit="10" stroke-width=".3985"/>
<g>
<use x="165.285" y="7.775" xlink:href="#c"/>
</g>
<path transform="matrix(1 0 0 -1 138.65 16.383)" d="m5.1235 3.4611h11.152" fill="none" stroke="#000" stroke-linecap="round" stroke-miterlimit="10" stroke-width=".59758"/>
<g>
<use x="180.787" y="15.415" xlink:href="#d"/>
</g>
<g fill="#dc3445">
<use x="200.492" y="16.383" xlink:href="#b"/>
</g>
<g>
<use x="221.891" y="16.383" xlink:href="#a"/>
</g>
<path transform="matrix(1 0 0 -1 225.56 19.372)" d="m-0.85097 9.0625e-4c0 0.35547-0.28906 0.64062-0.64453 0.64062s-0.64062-0.28516-0.64062-0.64062c0-0.35547 0.28516-0.64453 0.64062-0.64453s0.64453 0.28906 0.64453 0.64453zm2.9883 0c0 0.35547-0.28906 0.64062-0.64453 0.64062s-0.64062-0.28516-0.64062-0.64062c0-0.35547 0.28516-0.64453 0.64062-0.64453s0.64453 0.28906 0.64453 0.64453z" stroke="#000" stroke-miterlimit="10" stroke-width=".3985"/>
<path transform="matrix(1 0 0 -1 225.56 6.476)" d="m0.85216-5.625e-4c0-0.35547 0.28516-0.64453 0.64062-0.64453s0.64453 0.28906 0.64453 0.64453-0.28906 0.64453-0.64453 0.64453-0.64062-0.28906-0.64062-0.64453zm-2.9883 0c0-0.35547 0.28516-0.64453 0.64062-0.64453s0.64453 0.28906 0.64453 0.64453-0.28906 0.64453-0.64453 0.64453-0.64062-0.28906-0.64062-0.64453z" stroke="#000" stroke-miterlimit="10" stroke-width=".3985"/>
<path transform="matrix(1 0 0 -1 232.21 12.924)" d="m0.0018438-0.84944c-0.35547 0-0.64453-0.28906-0.64453-0.64453 0-0.35547 0.28906-0.64453 0.64453-0.64453 0.35156 0 0.64063 0.28906 0.64063 0.64453 0 0.35547-0.28906 0.64453-0.64063 0.64453zm0 2.9883c-0.35547 0-0.64453-0.28906-0.64453-0.64453 0-0.35547 0.28906-0.64453 0.64453-0.64453 0.35156 0 0.64063 0.28906 0.64063 0.64453 0 0.35547-0.28906 0.64453-0.64063 0.64453z" stroke="#000" stroke-miterlimit="10" stroke-width=".3985"/>
<g>
<use x="230.658" y="7.775" xlink:href="#c"/>
</g>
<path transform="matrix(1,0,0,-1,204.02,16.383)" d="m5.1206 3.4611h11.156" fill="none" stroke="#000" stroke-linecap="round" stroke-miterlimit="10" stroke-width=".59758"/>
<path transform="matrix(1 0 0 -1 229.22 22.046)" d="m-154.57 16.105c-9.0547 9.0547-20.535 6.9922-27.309-4.7305" fill="none" stroke="#188653" stroke-miterlimit="10" stroke-width=".59776"/>
<path transform="matrix(-.5 .86601 .86601 .5 49.008 7.8004)" d="m5.1739 5.0582e-4 -3.4322 1.3743 1.7276-1.3751-1.727-1.376z" fill="#188653" stroke="#188653" stroke-linejoin="round" stroke-miterlimit="10" stroke-width=".59776"/>
<path transform="matrix(1 0 0 -1 229.22 22.046)" d="m-189.93-2.5868c-5.0117-8.6836-16.125 0.36328-16.125 8.7695" fill="none" stroke="#188653" stroke-miterlimit="10" stroke-width=".59776"/>
<path transform="matrix(0 -1 -1 0 23.165 19.181)" d="m5.1731 7.175e-4 -3.4297 1.375 1.7227-1.375-1.7227-1.375z" fill="#188653" stroke="#188653" stroke-linejoin="round" stroke-miterlimit="10" stroke-width=".59776"/>
</svg>
