<?xml version="1.0" encoding="UTF-8"?>
<svg width="215pt" height="184pt" version="1.1" viewBox="0 0 215 184" xmlns="http://www.w3.org/2000/svg" xmlns:xlink="http://www.w3.org/1999/xlink">
<defs>
<symbol id="aj" overflow="visible">
<path d="m7.1406-6.5v-0.3125l-1.1719 0.03125-1.1562-0.03125v0.3125c1.0156 0 1.0156 0.46875 1.0156 0.73438v4.2656l-3.5156-5.1719c-0.09375-0.125-0.09375-0.14062-0.28125-0.14062h-1.7031v0.3125h0.29688c0.14062 0 0.34375 0.015625 0.48438 0.015625 0.23438 0.03125 0.25 0.046875 0.25 0.23438v5.2031c0 0.26562 0 0.73438-1.0312 0.73438v0.3125l1.1719-0.03125 1.1562 0.03125v-0.3125c-1.0156 0-1.0156-0.46875-1.0156-0.73438v-5.1875c0.046875 0.046875 0.046875 0.0625 0.09375 0.125l4.0625 5.9844c0.09375 0.10938 0.10938 0.125 0.17188 0.125 0.14062 0 0.14062-0.0625 0.14062-0.26562v-5.5c0-0.26562 0-0.73438 1.0312-0.73438z"/>
</symbol>
<symbol id="c" overflow="visible">
<path d="m4.1406-1.1875c0-0.09375-0.078125-0.125-0.14062-0.125-0.078125 0-0.10938 0.0625-0.125 0.14062-0.34375 1.0312-1.25 1.0312-1.3438 1.0312-0.5 0-0.89062-0.29688-1.125-0.67188-0.29688-0.46875-0.29688-1.125-0.29688-1.4844h2.7812c0.21875 0 0.25 0 0.25-0.21875 0-0.98438-0.54688-1.9531-1.7812-1.9531-1.1562 0-2.0781 1.0312-2.0781 2.2812 0 1.3281 1.0469 2.2969 2.1875 2.2969 1.2188 0 1.6719-1.1094 1.6719-1.2969zm-0.65625-1.3281h-2.375c0.0625-1.4844 0.90625-1.7344 1.25-1.7344 1.0156 0 1.125 1.3438 1.125 1.7344z"/>
</symbol>
<symbol id="z" overflow="visible">
<path d="m5.3281 0v-0.3125c-0.6875 0-0.76562-0.0625-0.76562-0.5625v-3.5312l-1.4688 0.10938v0.3125c0.6875 0 0.78125 0.0625 0.78125 0.5625v1.7656c0 0.875-0.48438 1.5469-1.2188 1.5469-0.82812 0-0.875-0.46875-0.875-0.98438v-3.3125l-1.4688 0.10938v0.3125c0.78125 0 0.78125 0.03125 0.78125 0.90625v1.5c0 0.78125 0 1.6875 1.5156 1.6875 0.5625 0 1-0.28125 1.2812-0.89062v0.89062z"/>
</symbol>
<symbol id="i" overflow="visible">
<path d="m3.3125-1.2344v-0.5625h-0.25v0.54688c0 0.73438-0.29688 1.1094-0.67188 1.1094-0.67188 0-0.67188-0.90625-0.67188-1.0781v-2.7656h1.4375v-0.3125h-1.4375v-1.8281h-0.25c0 0.8125-0.29688 1.875-1.2812 1.9219v0.21875h0.84375v2.75c0 1.2188 0.9375 1.3438 1.2969 1.3438 0.70312 0 0.98438-0.70312 0.98438-1.3438z"/>
</symbol>
<symbol id="h" overflow="visible">
<path d="m3.625-3.7969c0-0.3125-0.3125-0.60938-0.73438-0.60938-0.73438 0-1.0938 0.67188-1.2188 1.0938v-1.0938l-1.3906 0.10938v0.3125c0.70312 0 0.78125 0.0625 0.78125 0.5625v2.6719c0 0.4375-0.10938 0.4375-0.78125 0.4375v0.3125l1.1406-0.03125c0.39062 0 0.85938 0 1.2656 0.03125v-0.3125h-0.21875c-0.73438 0-0.75-0.10938-0.75-0.46875v-1.5312c0-0.98438 0.42188-1.875 1.1719-1.875 0.0625 0 0.09375 0 0.10938 0.015625-0.03125 0-0.23438 0.125-0.23438 0.39062s0.21875 0.42188 0.4375 0.42188c0.17188 0 0.42188-0.125 0.42188-0.4375z"/>
</symbol>
<symbol id="a" overflow="visible">
<path d="m4.6875-2.1406c0-1.2656-0.98438-2.3281-2.1875-2.3281-1.25 0-2.2188 1.0938-2.2188 2.3281 0 1.2969 1.0312 2.25 2.2031 2.25 1.2031 0 2.2031-0.98438 2.2031-2.25zm-0.8125-0.078125c0 0.35938 0 0.90625-0.21875 1.3438-0.23438 0.45312-0.67188 0.73438-1.1562 0.73438-0.4375 0-0.875-0.20312-1.1406-0.67188-0.25-0.4375-0.25-1.0469-0.25-1.4062 0-0.39062 0-0.92188 0.23438-1.3594 0.26562-0.45312 0.73438-0.67188 1.1406-0.67188 0.4375 0 0.85938 0.21875 1.125 0.65625 0.26562 0.42188 0.26562 1 0.26562 1.375z"/>
</symbol>
<symbol id="y" overflow="visible">
<path d="m7.1406 0v-0.3125h-0.17188c-0.59375 0-0.73438-0.0625-0.84375-0.39062l-2.1562-6.2344c-0.046875-0.125-0.078125-0.20312-0.23438-0.20312s-0.1875 0.0625-0.23438 0.20312l-2.0625 5.9531c-0.1875 0.51562-0.57812 0.67188-1.125 0.67188v0.3125l1.0156-0.03125 1.1562 0.03125v-0.3125c-0.5 0-0.75-0.25-0.75-0.5 0-0.03125 0.015625-0.14062 0.015625-0.15625l0.46875-1.2969h2.4531l0.53125 1.5156c0.015625 0.046875 0.03125 0.10938 0.03125 0.14062 0 0.29688-0.5625 0.29688-0.82812 0.29688v0.3125c0.35938-0.03125 1.0625-0.03125 1.4375-0.03125zm-2.5781-2.5781h-2.2344l1.1094-3.25zm0.54688-6.0625c0.03125-0.21875-0.14062-0.42188-0.35938-0.42188-0.10938 0-0.21875 0.078125-0.25 0.125l-1.4531 1.2969 0.14062 0.20312 1.7031-0.9375c0.10938-0.046875 0.1875-0.14062 0.21875-0.26562z"/>
</symbol>
<symbol id="b" overflow="visible">
<path d="m4.1406-1.1875c0-0.09375-0.10938-0.09375-0.14062-0.09375-0.078125 0-0.10938 0.03125-0.125 0.09375-0.28125 0.92188-0.9375 1.0469-1.2969 1.0469-0.53125 0-1.4062-0.42188-1.4062-2.0312 0-1.625 0.8125-2.0469 1.3438-2.0469 0.09375 0 0.71875 0.015625 1.0625 0.375-0.40625 0.03125-0.46875 0.32812-0.46875 0.45312 0 0.26562 0.1875 0.45312 0.45312 0.45312s0.46875-0.15625 0.46875-0.46875c0-0.67188-0.76562-1.0625-1.5312-1.0625-1.25 0-2.1562 1.0781-2.1562 2.3125 0 1.2812 0.98438 2.2656 2.1406 2.2656 1.3281 0 1.6562-1.2031 1.6562-1.2969z"/>
</symbol>
<symbol id="g" overflow="visible">
<path d="m2.4688 0v-0.3125c-0.67188 0-0.70312-0.046875-0.70312-0.4375v-3.6562l-1.3906 0.10938v0.3125c0.64062 0 0.73438 0.0625 0.73438 0.54688v2.6875c0 0.4375-0.10938 0.4375-0.78125 0.4375v0.3125l1.0938-0.03125c0.35938 0 0.70312 0.015625 1.0469 0.03125zm-0.5625-6.0156c0-0.28125-0.21875-0.53125-0.51562-0.53125-0.34375 0-0.54688 0.28125-0.54688 0.53125 0 0.26562 0.23438 0.51562 0.53125 0.51562 0.34375 0 0.53125-0.26562 0.53125-0.51562z"/>
</symbol>
<symbol id="k" overflow="visible">
<path d="m5.25 0v-0.3125c-0.6875 0-0.78125-0.0625-0.78125-0.5625v-6.0469l-1.4219 0.10938v0.3125c0.6875 0 0.76562 0.0625 0.76562 0.5625v2.1562c-0.28125-0.35938-0.71875-0.625-1.25-0.625-1.1719 0-2.2188 0.98438-2.2188 2.2656 0 1.2656 0.96875 2.25 2.1094 2.25 0.64062 0 1.0781-0.34375 1.3281-0.65625v0.65625zm-1.4688-1.1719c0 0.17188 0 0.1875-0.10938 0.35938-0.29688 0.48438-0.73438 0.70312-1.1719 0.70312-0.45312 0-0.8125-0.26562-1.0469-0.64062-0.25-0.40625-0.28125-0.96875-0.28125-1.3906 0-0.35938 0.015625-0.95312 0.29688-1.4062 0.21875-0.3125 0.59375-0.64062 1.1406-0.64062 0.34375 0 0.76562 0.15625 1.0625 0.59375 0.10938 0.17188 0.10938 0.1875 0.10938 0.375z"/>
</symbol>
<symbol id="ai" overflow="visible">
<path d="m6.4844-1.8281c0-0.85938-0.8125-1.6094-1.9219-1.7344 0.96875-0.1875 1.6562-0.82812 1.6562-1.5625 0-0.85938-0.92188-1.6875-2.2188-1.6875h-3.6406v0.3125h0.23438c0.76562 0 0.79688 0.10938 0.79688 0.46875v5.25c0 0.35938-0.03125 0.46875-0.79688 0.46875h-0.23438v0.3125h3.9062c1.3281 0 2.2188-0.89062 2.2188-1.8281zm-1.2344-3.2969c0 0.64062-0.48438 1.4688-1.5938 1.4688h-1.4375v-2.4375c0-0.34375 0.015625-0.40625 0.48438-0.40625h1.2344c0.96875 0 1.3125 0.84375 1.3125 1.375zm0.25 3.2969c0 0.70312-0.53125 1.5156-1.5469 1.5156h-1.25c-0.46875 0-0.48438-0.0625-0.48438-0.39062v-2.7188h1.875c0.98438 0 1.4062 0.92188 1.4062 1.5938z"/>
</symbol>
<symbol id="ah" overflow="visible">
<path d="m4.8125-0.89062v-0.5625h-0.25v0.5625c0 0.57812-0.25 0.64062-0.35938 0.64062-0.32812 0-0.35938-0.45312-0.35938-0.5v-1.9844c0-0.42188 0-0.8125-0.35938-1.1875-0.39062-0.39062-0.89062-0.54688-1.375-0.54688-0.8125 0-1.5 0.46875-1.5 1.125 0 0.29688 0.20312 0.46875 0.45312 0.46875 0.28125 0 0.46875-0.20312 0.46875-0.45312 0-0.125-0.0625-0.45312-0.51562-0.45312 0.26562-0.35938 0.76562-0.46875 1.0781-0.46875 0.48438 0 1.0625 0.39062 1.0625 1.2812v0.35938c-0.51562 0.03125-1.2188 0.0625-1.8438 0.35938-0.75 0.34375-1 0.85938-1 1.2969 0 0.8125 0.96875 1.0625 1.5938 1.0625 0.67188 0 1.125-0.40625 1.3125-0.85938 0.046875 0.39062 0.3125 0.8125 0.78125 0.8125 0.20312 0 0.8125-0.14062 0.8125-0.95312zm-1.6562-0.5c0 0.9375-0.71875 1.2812-1.1719 1.2812-0.48438 0-0.89062-0.34375-0.89062-0.84375 0-0.54688 0.40625-1.375 2.0625-1.4375zm0.57812-5.2031c0-0.1875-0.1875-0.35938-0.35938-0.35938-0.15625 0-0.26562 0.10938-0.29688 0.17188l-1.2031 1.5156 0.17188 0.1875 1.5156-1.2188c0.09375-0.078125 0.17188-0.1875 0.17188-0.29688z"/>
</symbol>
<symbol id="ag" overflow="visible">
<path d="m3.5938-1.2812c0-0.51562-0.29688-0.82812-0.42188-0.9375-0.32812-0.32812-0.71875-0.40625-1.1406-0.48438-0.5625-0.10938-1.2188-0.23438-1.2188-0.8125 0-0.35938 0.25-0.76562 1.1094-0.76562 1.0938 0 1.1562 0.90625 1.1719 1.2031 0 0.09375 0.10938 0.09375 0.10938 0.09375 0.14062 0 0.14062-0.046875 0.14062-0.23438v-1.0156c0-0.15625 0-0.23438-0.10938-0.23438-0.046875 0-0.078125 0-0.20312 0.125-0.03125 0.03125-0.125 0.125-0.17188 0.15625-0.375-0.28125-0.78125-0.28125-0.9375-0.28125-1.2188 0-1.5938 0.67188-1.5938 1.2344 0 0.34375 0.15625 0.625 0.42188 0.84375 0.32812 0.25 0.60938 0.3125 1.3281 0.45312 0.21875 0.046875 1.0312 0.20312 1.0312 0.92188 0 0.5-0.34375 0.90625-1.125 0.90625-0.84375 0-1.2031-0.5625-1.3906-1.4219-0.03125-0.125-0.03125-0.15625-0.14062-0.15625-0.125 0-0.125 0.0625-0.125 0.23438v1.3281c0 0.17188 0 0.23438 0.10938 0.23438 0.046875 0 0.0625-0.015625 0.25-0.20312 0.015625-0.015625 0.015625-0.03125 0.20312-0.21875 0.4375 0.40625 0.89062 0.42188 1.0938 0.42188 1.1406 0 1.6094-0.67188 1.6094-1.3906z"/>
</symbol>
<symbol id="af" overflow="visible">
<path d="m6.625-2.3281c0-0.09375 0-0.17188-0.125-0.17188-0.10938 0-0.10938 0.0625-0.125 0.17188-0.078125 1.4219-1.1406 2.2344-2.2344 2.2344-0.60938 0-2.5625-0.32812-2.5625-3.3125 0-2.9688 1.9531-3.3125 2.5625-3.3125 1.0781 0 1.9688 0.90625 2.1719 2.3594 0.015625 0.14062 0.015625 0.17188 0.15625 0.17188 0.15625 0 0.15625-0.03125 0.15625-0.23438v-2.3594c0-0.17188 0-0.25-0.10938-0.25-0.03125 0-0.078125 0-0.15625 0.125l-0.5 0.73438c-0.35938-0.35938-0.875-0.85938-1.8281-0.85938-1.875 0-3.4688 1.5938-3.4688 3.625 0 2.0625 1.6094 3.625 3.4688 3.625 1.625 0 2.5938-1.3906 2.5938-2.5469z"/>
</symbol>
<symbol id="j" overflow="visible">
<path d="m5.3281 0v-0.3125c-0.51562 0-0.76562 0-0.76562-0.29688v-1.9062c0-0.85938 0-1.1562-0.3125-1.5156-0.14062-0.17188-0.46875-0.375-1.0469-0.375-0.73438 0-1.2031 0.42188-1.4844 1.0469v-1.0469l-1.4062 0.10938v0.3125c0.70312 0 0.78125 0.0625 0.78125 0.5625v2.6719c0 0.4375-0.10938 0.4375-0.78125 0.4375v0.3125l1.1406-0.03125 1.1094 0.03125v-0.3125c-0.67188 0-0.78125 0-0.78125-0.4375v-1.8438c0-1.0312 0.71875-1.5938 1.3438-1.5938 0.64062 0 0.75 0.53125 0.75 1.1094v2.3281c0 0.4375-0.10938 0.4375-0.78125 0.4375v0.3125l1.125-0.03125z"/>
</symbol>
<symbol id="ae" overflow="visible">
<path d="m4.8125-0.89062v-0.5625h-0.25v0.5625c0 0.57812-0.25 0.64062-0.35938 0.64062-0.32812 0-0.35938-0.45312-0.35938-0.5v-1.9844c0-0.42188 0-0.8125-0.35938-1.1875-0.39062-0.39062-0.89062-0.54688-1.375-0.54688-0.8125 0-1.5 0.46875-1.5 1.125 0 0.29688 0.20312 0.46875 0.45312 0.46875 0.28125 0 0.46875-0.20312 0.46875-0.45312 0-0.125-0.0625-0.45312-0.51562-0.45312 0.26562-0.35938 0.76562-0.46875 1.0781-0.46875 0.48438 0 1.0625 0.39062 1.0625 1.2812v0.35938c-0.51562 0.03125-1.2188 0.0625-1.8438 0.35938-0.75 0.34375-1 0.85938-1 1.2969 0 0.8125 0.96875 1.0625 1.5938 1.0625 0.67188 0 1.125-0.40625 1.3125-0.85938 0.046875 0.39062 0.3125 0.8125 0.78125 0.8125 0.20312 0 0.8125-0.14062 0.8125-0.95312zm-1.6562-0.5c0 0.9375-0.71875 1.2812-1.1719 1.2812-0.48438 0-0.89062-0.34375-0.89062-0.84375 0-0.54688 0.40625-1.375 2.0625-1.4375z"/>
</symbol>
<symbol id="ad" overflow="visible">
<path d="m4.1406-1.1875c0-0.09375-0.10938-0.09375-0.14062-0.09375-0.078125 0-0.10938 0.03125-0.125 0.09375-0.28125 0.92188-0.9375 1.0469-1.2969 1.0469-0.53125 0-1.4062-0.42188-1.4062-2.0312 0-1.625 0.8125-2.0469 1.3438-2.0469 0.09375 0 0.71875 0.015625 1.0625 0.375-0.40625 0.03125-0.46875 0.32812-0.46875 0.45312 0 0.26562 0.1875 0.45312 0.45312 0.45312s0.46875-0.15625 0.46875-0.46875c0-0.67188-0.76562-1.0625-1.5312-1.0625-1.25 0-2.1562 1.0781-2.1562 2.3125 0 1.1719 0.8125 2.0938 1.8281 2.25v0.82812c0.375 0 0.76562 0.078125 0.76562 0.40625 0 0.40625-0.95312 0.40625-1.7031 0.40625h-0.125v0.26562h0.25c1.0781 0 2.4062 0 2.4062-0.67188 0-0.46875-0.53125-0.67188-1.0781-0.67188v-0.5625c1.1562-0.10938 1.4531-1.1875 1.4531-1.2812z"/>
</symbol>
<symbol id="ac" overflow="visible">
<path d="m4.8125-0.89062v-0.5625h-0.25v0.5625c0 0.57812-0.25 0.64062-0.35938 0.64062-0.32812 0-0.35938-0.45312-0.35938-0.5v-1.9844c0-0.42188 0-0.8125-0.35938-1.1875-0.39062-0.39062-0.89062-0.54688-1.375-0.54688-0.8125 0-1.5 0.46875-1.5 1.125 0 0.29688 0.20312 0.46875 0.45312 0.46875 0.28125 0 0.46875-0.20312 0.46875-0.45312 0-0.125-0.0625-0.45312-0.51562-0.45312 0.26562-0.35938 0.76562-0.46875 1.0781-0.46875 0.48438 0 1.0625 0.39062 1.0625 1.2812v0.35938c-0.51562 0.03125-1.2188 0.0625-1.8438 0.35938-0.75 0.34375-1 0.85938-1 1.2969 0 0.8125 0.96875 1.0625 1.5938 1.0625 0.67188 0 1.125-0.40625 1.3125-0.85938 0.046875 0.39062 0.3125 0.8125 0.78125 0.8125 0.20312 0 0.8125-0.14062 0.8125-0.95312zm-1.6562-0.5c0 0.9375-0.71875 1.2812-1.1719 1.2812-0.48438 0-0.89062-0.34375-0.89062-0.84375 0-0.54688 0.40625-1.375 2.0625-1.4375zm1-4.9531-0.15625-0.14062s-0.375 0.46875-0.8125 0.46875c-0.23438 0-0.48438-0.14062-0.65625-0.25-0.26562-0.15625-0.45312-0.21875-0.625-0.21875-0.375 0-0.5625 0.21875-1.0625 0.76562l0.15625 0.15625s0.375-0.48438 0.8125-0.48438c0.23438 0 0.48438 0.15625 0.65625 0.25 0.26562 0.17188 0.4375 0.23438 0.60938 0.23438 0.375 0 0.57812-0.21875 1.0781-0.78125z"/>
</symbol>
<symbol id="ab" overflow="visible">
<path d="m7.1406 0v-0.3125h-0.25c-0.76562 0-0.78125-0.10938-0.78125-0.46875v-5.25c0-0.35938 0.015625-0.46875 0.78125-0.46875h0.25v-0.3125c-0.35938 0.03125-1.0938 0.03125-1.4688 0.03125s-1.125 0-1.4688-0.03125v0.3125h0.23438c0.76562 0 0.78125 0.10938 0.78125 0.46875v2.3281h-2.9688v-2.3281c0-0.35938 0.015625-0.46875 0.78125-0.46875h0.23438v-0.3125c-0.34375 0.03125-1.0781 0.03125-1.4688 0.03125-0.375 0-1.125 0-1.4688-0.03125v0.3125h0.23438c0.76562 0 0.79688 0.10938 0.79688 0.46875v5.25c0 0.35938-0.03125 0.46875-0.79688 0.46875h-0.23438v0.3125c0.34375-0.03125 1.0938-0.03125 1.4688-0.03125s1.125 0 1.4688 0.03125v-0.3125h-0.23438c-0.76562 0-0.78125-0.10938-0.78125-0.46875v-2.6094h2.9688v2.6094c0 0.35938-0.015625 0.46875-0.78125 0.46875h-0.23438v0.3125c0.34375-0.03125 1.0781-0.03125 1.4531-0.03125 0.39062 0 1.125 0 1.4844 0.03125z"/>
</symbol>
<symbol id="aa" overflow="visible">
<path d="m7.1875-3.375c0-2.0312-1.5-3.6562-3.3125-3.6562-1.7969 0-3.3125 1.5938-3.3125 3.6562 0 2.0469 1.5312 3.5938 3.3125 3.5938 1.8125 0 3.3125-1.5781 3.3125-3.5938zm-1.0312-0.14062c0 2.6406-1.3594 3.4688-2.2812 3.4688-0.95312 0-2.2969-0.875-2.2969-3.4688 0-2.5781 1.4688-3.2656 2.2969-3.2656 0.85938 0 2.2812 0.70312 2.2812 3.2656z"/>
</symbol>
<symbol id="x" overflow="visible">
<path d="m3.5781-1.2031c0-0.54688-0.4375-1.0938-1.2031-1.25 0.71875-0.26562 0.98438-0.78125 0.98438-1.2188 0-0.54688-0.625-0.95312-1.4062-0.95312-0.76562 0-1.3594 0.375-1.3594 0.9375 0 0.23438 0.15625 0.35938 0.35938 0.35938 0.21875 0 0.35938-0.15625 0.35938-0.34375 0-0.20312-0.14062-0.35938-0.35938-0.375 0.25-0.29688 0.71875-0.375 0.98438-0.375 0.3125 0 0.75 0.15625 0.75 0.75 0 0.29688-0.09375 0.625-0.28125 0.82812-0.21875 0.26562-0.42188 0.28125-0.76562 0.3125-0.17188 0.015625-0.1875 0.015625-0.21875 0.015625 0 0-0.078125 0.015625-0.078125 0.09375 0 0.09375 0.0625 0.09375 0.1875 0.09375h0.375c0.54688 0 0.9375 0.375 0.9375 1.125 0 0.85938-0.51562 1.125-0.90625 1.125-0.28125 0-0.90625-0.078125-1.1875-0.5 0.32812 0 0.40625-0.23438 0.40625-0.39062 0-0.21875-0.17188-0.375-0.39062-0.375-0.1875 0-0.39062 0.125-0.39062 0.40625 0 0.65625 0.71875 1.0781 1.5625 1.0781 0.96875 0 1.6406-0.65625 1.6406-1.3438z"/>
</symbol>
<symbol id="w" overflow="visible">
<path d="m5.6094-1.7344c0-0.1875-0.15625-0.1875-0.25-0.1875h-2.1406v-2.1406c0-0.078125 0-0.25-0.15625-0.25-0.17188 0-0.17188 0.15625-0.17188 0.25v2.1406h-2.1406c-0.09375 0-0.26562 0-0.26562 0.17188s0.15625 0.17188 0.26562 0.17188h2.1406v2.1406c0 0.09375 0 0.26562 0.15625 0.26562 0.17188 0 0.17188-0.17188 0.17188-0.26562v-2.1406h2.1406c0.09375 0 0.25 0 0.25-0.15625z"/>
</symbol>
<symbol id="v" overflow="visible">
<path d="m-2.3281-6.625c-0.09375 0-0.17188 0-0.17188 0.125 0 0.10938 0.0625 0.10938 0.17188 0.125 1.4219 0.078125 2.2344 1.1406 2.2344 2.2344 0 0.60938-0.32812 2.5625-3.3125 2.5625-2.9688 0-3.3125-1.9531-3.3125-2.5625 0-1.0781 0.90625-1.9688 2.3594-2.1719 0.14062-0.015625 0.17188-0.015625 0.17188-0.15625 0-0.15625-0.03125-0.15625-0.23438-0.15625h-2.3594c-0.17188 0-0.25 0-0.25 0.10938 0 0.03125 0 0.078125 0.125 0.15625l0.73438 0.5c-0.35938 0.35938-0.85938 0.875-0.85938 1.8281 0 1.875 1.5938 3.4688 3.625 3.4688 2.0625 0 3.625-1.6094 3.625-3.4688 0-1.625-1.3906-2.5938-2.5469-2.5938z"/>
</symbol>
<symbol id="f" overflow="visible">
<path d="m-2.1406-4.6875c-1.2656 0-2.3281 0.98438-2.3281 2.1875 0 1.25 1.0938 2.2188 2.3281 2.2188 1.2969 0 2.25-1.0312 2.25-2.2031 0-1.2031-0.98438-2.2031-2.25-2.2031zm-0.078125 0.8125c0.35938 0 0.90625 0 1.3438 0.21875 0.45312 0.23438 0.73438 0.67188 0.73438 1.1562 0 0.4375-0.20312 0.875-0.67188 1.1406-0.4375 0.25-1.0469 0.25-1.4062 0.25-0.39062 0-0.92188 0-1.3594-0.23438-0.45312-0.26562-0.67188-0.73438-0.67188-1.1406 0-0.4375 0.21875-0.85938 0.65625-1.125 0.42188-0.26562 1-0.26562 1.375-0.26562z"/>
</symbol>
<symbol id="e" overflow="visible">
<path d="m0-5.3281h-0.3125c0 0.51562 0 0.76562-0.29688 0.76562h-1.9062c-0.85938 0-1.1562 0-1.5156 0.3125-0.17188 0.14062-0.375 0.46875-0.375 1.0469 0 0.73438 0.42188 1.2031 1.0469 1.4844h-1.0469l0.10938 1.4062h0.3125c0-0.70312 0.0625-0.78125 0.5625-0.78125h2.6719c0.4375 0 0.4375 0.10938 0.4375 0.78125h0.3125l-0.03125-1.1406 0.03125-1.1094h-0.3125c0 0.67188 0 0.78125-0.4375 0.78125h-1.8438c-1.0312 0-1.5938-0.71875-1.5938-1.3438 0-0.64062 0.53125-0.75 1.1094-0.75h2.3281c0.4375 0 0.4375 0.10938 0.4375 0.78125h0.3125l-0.03125-1.125z"/>
</symbol>
<symbol id="q" overflow="visible">
<path d="m-1.1875-4.1406c-0.09375 0-0.09375 0.10938-0.09375 0.14062 0 0.078125 0.03125 0.10938 0.09375 0.125 0.92188 0.28125 1.0469 0.9375 1.0469 1.2969 0 0.53125-0.42188 1.4062-2.0312 1.4062-1.625 0-2.0469-0.8125-2.0469-1.3438 0-0.09375 0.015625-0.71875 0.375-1.0625 0.03125 0.40625 0.32812 0.46875 0.45312 0.46875 0.26562 0 0.45312-0.1875 0.45312-0.45312s-0.15625-0.46875-0.46875-0.46875c-0.67188 0-1.0625 0.76562-1.0625 1.5312 0 1.25 1.0781 2.1562 2.3125 2.1562 1.2812 0 2.2656-0.98438 2.2656-2.1406 0-1.3281-1.2031-1.6562-1.2969-1.6562z"/>
</symbol>
<symbol id="d" overflow="visible">
<path d="m-1.1875-4.1406c-0.09375 0-0.125 0.078125-0.125 0.14062 0 0.078125 0.0625 0.10938 0.14062 0.125 1.0312 0.34375 1.0312 1.25 1.0312 1.3438 0 0.5-0.29688 0.89062-0.67188 1.125-0.46875 0.29688-1.125 0.29688-1.4844 0.29688v-2.7812c0-0.21875 0-0.25-0.21875-0.25-0.98438 0-1.9531 0.54688-1.9531 1.7812 0 1.1562 1.0312 2.0781 2.2812 2.0781 1.3281 0 2.2969-1.0469 2.2969-2.1875 0-1.2188-1.1094-1.6719-1.2969-1.6719zm-1.3281 0.65625v2.375c-1.4844-0.0625-1.7344-0.90625-1.7344-1.25 0-1.0156 1.3438-1.125 1.7344-1.125z"/>
</symbol>
<symbol id="p" overflow="visible">
<path d="m-1.2344-3.3125h-0.5625v0.25h0.54688c0.73438 0 1.1094 0.29688 1.1094 0.67188 0 0.67188-0.90625 0.67188-1.0781 0.67188h-2.7656v-1.4375h-0.3125v1.4375h-1.8281v0.25c0.8125 0 1.875 0.29688 1.9219 1.2812h0.21875v-0.84375h2.75c1.2188 0 1.3438-0.9375 1.3438-1.2969 0-0.70312-0.70312-0.98438-1.3438-0.98438z"/>
</symbol>
<symbol id="o" overflow="visible">
<path d="m-3.7969-3.625c-0.3125 0-0.60938 0.3125-0.60938 0.73438 0 0.73438 0.67188 1.0938 1.0938 1.2188h-1.0938l0.10938 1.3906h0.3125c0-0.70312 0.0625-0.78125 0.5625-0.78125h2.6719c0.4375 0 0.4375 0.10938 0.4375 0.78125h0.3125l-0.03125-1.1406c0-0.39062 0-0.85938 0.03125-1.2656h-0.3125v0.21875c0 0.73438-0.10938 0.75-0.46875 0.75h-1.5312c-0.98438 0-1.875-0.42188-1.875-1.1719 0-0.0625 0-0.09375 0.015625-0.10938 0 0.03125 0.125 0.23438 0.39062 0.23438s0.42188-0.21875 0.42188-0.4375c0-0.17188-0.125-0.42188-0.4375-0.42188z"/>
</symbol>
<symbol id="n" overflow="visible">
<path d="m-0.89062-4.8125h-0.5625v0.25h0.5625c0.57812 0 0.64062 0.25 0.64062 0.35938 0 0.32812-0.45312 0.35938-0.5 0.35938h-1.9844c-0.42188 0-0.8125 0-1.1875 0.35938-0.39062 0.39062-0.54688 0.89062-0.54688 1.375 0 0.8125 0.46875 1.5 1.125 1.5 0.29688 0 0.46875-0.20312 0.46875-0.45312 0-0.28125-0.20312-0.46875-0.45312-0.46875-0.125 0-0.45312 0.0625-0.45312 0.51562-0.35938-0.26562-0.46875-0.76562-0.46875-1.0781 0-0.48438 0.39062-1.0625 1.2812-1.0625h0.35938c0.03125 0.51562 0.0625 1.2188 0.35938 1.8438 0.34375 0.75 0.85938 1 1.2969 1 0.8125 0 1.0625-0.96875 1.0625-1.5938 0-0.67188-0.40625-1.125-0.85938-1.3125 0.39062-0.046875 0.8125-0.3125 0.8125-0.78125 0-0.20312-0.14062-0.8125-0.95312-0.8125zm-0.5 1.6562c0.9375 0 1.2812 0.71875 1.2812 1.1719 0 0.48438-0.34375 0.89062-0.84375 0.89062-0.54688 0-1.375-0.40625-1.4375-2.0625z"/>
</symbol>
<symbol id="m" overflow="visible">
<path d="m-1.1875-4.1406c-0.09375 0-0.09375 0.10938-0.09375 0.14062 0 0.078125 0.03125 0.10938 0.09375 0.125 0.92188 0.28125 1.0469 0.9375 1.0469 1.2969 0 0.53125-0.42188 1.4062-2.0312 1.4062-1.625 0-2.0469-0.8125-2.0469-1.3438 0-0.09375 0.015625-0.71875 0.375-1.0625 0.03125 0.40625 0.32812 0.46875 0.45312 0.46875 0.26562 0 0.45312-0.1875 0.45312-0.45312s-0.15625-0.46875-0.46875-0.46875c-0.67188 0-1.0625 0.76562-1.0625 1.5312 0 1.25 1.0781 2.1562 2.3125 2.1562 1.1719 0 2.0938-0.8125 2.25-1.8281h0.82812c0-0.375 0.078125-0.76562 0.40625-0.76562 0.40625 0 0.40625 0.95312 0.40625 1.7031v0.125h0.26562v-0.25c0-1.0781 0-2.4062-0.67188-2.4062-0.46875 0-0.67188 0.53125-0.67188 1.0781h-0.5625c-0.10938-1.1562-1.1875-1.4531-1.2812-1.4531z"/>
</symbol>
<symbol id="u" overflow="visible">
<path d="m-0.89062-4.8125h-0.5625v0.25h0.5625c0.57812 0 0.64062 0.25 0.64062 0.35938 0 0.32812-0.45312 0.35938-0.5 0.35938h-1.9844c-0.42188 0-0.8125 0-1.1875 0.35938-0.39062 0.39062-0.54688 0.89062-0.54688 1.375 0 0.8125 0.46875 1.5 1.125 1.5 0.29688 0 0.46875-0.20312 0.46875-0.45312 0-0.28125-0.20312-0.46875-0.45312-0.46875-0.125 0-0.45312 0.0625-0.45312 0.51562-0.35938-0.26562-0.46875-0.76562-0.46875-1.0781 0-0.48438 0.39062-1.0625 1.2812-1.0625h0.35938c0.03125 0.51562 0.0625 1.2188 0.35938 1.8438 0.34375 0.75 0.85938 1 1.2969 1 0.8125 0 1.0625-0.96875 1.0625-1.5938 0-0.67188-0.40625-1.125-0.85938-1.3125 0.39062-0.046875 0.8125-0.3125 0.8125-0.78125 0-0.20312-0.14062-0.8125-0.95312-0.8125zm-0.5 1.6562c0.9375 0 1.2812 0.71875 1.2812 1.1719 0 0.48438-0.34375 0.89062-0.84375 0.89062-0.54688 0-1.375-0.40625-1.4375-2.0625zm-4.9531-1-0.14062 0.15625s0.46875 0.375 0.46875 0.8125c0 0.23438-0.14062 0.48438-0.25 0.65625-0.15625 0.26562-0.21875 0.45312-0.21875 0.625 0 0.375 0.21875 0.5625 0.76562 1.0625l0.15625-0.15625s-0.48438-0.375-0.48438-0.8125c0-0.23438 0.15625-0.48438 0.25-0.65625 0.17188-0.26562 0.23438-0.4375 0.23438-0.60938 0-0.375-0.21875-0.57812-0.78125-1.0781z"/>
</symbol>
<symbol id="t" overflow="visible">
<path d="m0-5.25h-0.3125c0 0.6875-0.0625 0.78125-0.5625 0.78125h-6.0469l0.10938 1.4219h0.3125c0-0.6875 0.0625-0.76562 0.5625-0.76562h2.1562c-0.35938 0.28125-0.625 0.71875-0.625 1.25 0 1.1719 0.98438 2.2188 2.2656 2.2188 1.2656 0 2.25-0.96875 2.25-2.1094 0-0.64062-0.34375-1.0781-0.65625-1.3281h0.65625zm-1.1719 1.4688c0.17188 0 0.1875 0 0.35938 0.10938 0.48438 0.29688 0.70312 0.73438 0.70312 1.1719 0 0.45312-0.26562 0.8125-0.64062 1.0469-0.40625 0.25-0.96875 0.28125-1.3906 0.28125-0.35938 0-0.95312-0.015625-1.4062-0.29688-0.3125-0.21875-0.64062-0.59375-0.64062-1.1406 0-0.34375 0.15625-0.76562 0.59375-1.0625 0.17188-0.10938 0.1875-0.10938 0.375-0.10938z"/>
</symbol>
<symbol id="s" overflow="visible">
<path d="m-3.375-7.1875c-2.0312 0-3.6562 1.5-3.6562 3.3125 0 1.7969 1.5938 3.3125 3.6562 3.3125 2.0469 0 3.5938-1.5312 3.5938-3.3125 0-1.8125-1.5781-3.3125-3.5938-3.3125zm-0.14062 1.0312c2.6406 0 3.4688 1.3594 3.4688 2.2812 0 0.95312-0.875 2.2969-3.4688 2.2969-2.5781 0-3.2656-1.4688-3.2656-2.2969 0-0.85938 0.70312-2.2812 3.2656-2.2812z"/>
</symbol>
<symbol id="r" overflow="visible">
<path d="m0-7.1406h-0.3125v0.25c0 0.76562-0.10938 0.78125-0.46875 0.78125h-5.25c-0.35938 0-0.46875-0.015625-0.46875-0.78125v-0.25h-0.3125c0.03125 0.35938 0.03125 1.0938 0.03125 1.4688s0 1.125-0.03125 1.4688h0.3125v-0.23438c0-0.76562 0.10938-0.78125 0.46875-0.78125h2.3281v2.9688h-2.3281c-0.35938 0-0.46875-0.015625-0.46875-0.78125v-0.23438h-0.3125c0.03125 0.34375 0.03125 1.0781 0.03125 1.4688 0 0.375 0 1.125-0.03125 1.4688h0.3125v-0.23438c0-0.76562 0.10938-0.79688 0.46875-0.79688h5.25c0.35938 0 0.46875 0.03125 0.46875 0.79688v0.23438h0.3125c-0.03125-0.34375-0.03125-1.0938-0.03125-1.4688s0-1.125 0.03125-1.4688h-0.3125v0.23438c0 0.76562-0.10938 0.78125-0.46875 0.78125h-2.6094v-2.9688h2.6094c0.35938 0 0.46875 0.015625 0.46875 0.78125v0.23438h0.3125c-0.03125-0.34375-0.03125-1.0781-0.03125-1.4531 0-0.39062 0-1.125 0.03125-1.4844z"/>
</symbol>
<symbol id="l" overflow="visible">
<path d="m-1.75-3.9062h-0.20312v3.8438h0.20312z"/>
</symbol>
<clipPath id="ak">
<path d="m20.191 1h194.27v161.39h-194.27z"/>
</clipPath>
</defs>
<path transform="matrix(1 0 0 -1 20.193 162.39)" d="m38.854 3.75e-4v161.39" fill="none" stroke="#bfbfbf" stroke-miterlimit="10" stroke-width=".3985"/>
<path transform="matrix(1 0 0 -1 20.193 162.39)" d="m-0.0015938 32.278h194.27" fill="none" stroke="#bfbfbf" stroke-miterlimit="10" stroke-width=".3985"/>
<path transform="matrix(1 0 0 -1 20.193 162.39)" d="m38.854 3.75e-4v4.25m0 157.14v-4.25" fill="none" stroke="#7f7f7f" stroke-miterlimit="10" stroke-width=".19925"/>
<path transform="matrix(1 0 0 -1 20.193 162.39)" d="m-0.0015938 32.278h4.2539m190.02 0h-4.25" fill="none" stroke="#7f7f7f" stroke-miterlimit="10" stroke-width=".19925"/>
<path transform="matrix(1 0 0 -1 20.193 162.39)" d="m-0.0015938 3.75e-4v161.39h194.27v-161.39z" fill="none" stroke="#000" stroke-miterlimit="10" stroke-width=".3985"/>
<g clip-path="url(#ak)">
<path transform="matrix(1 0 0 -1 20.193 162.39)" d="m3.8851 322.79 2.582-128.86 2.582-55.328 2.582-30.766 2.582-19.59 2.582-13.562 2.5781-9.957 2.582-7.6055 2.582-6.0117 2.582-4.8672 2.582-4.0195 2.582-3.3711 2.582-2.8789 2.582-2.4805 2.582-2.1602 2.582-1.8984 2.5781-1.6797 2.582-1.5 2.582-1.3477 2.582-1.2148 2.582-1.1016 2.582-1.0039 2.582-0.91797 2.582-0.84375 2.582-0.77734 2.5781-0.71875 2.582-0.66797 2.582-0.61719 2.582-0.57812 2.582-0.53906 2.582-0.50781 2.582-0.47266 2.582-0.44531 2.582-0.42188 2.582-0.39453 2.5781-0.375 2.582-0.35547 2.582-0.33594 2.582-0.32031 2.582-0.30469 2.582-0.28906 2.582-0.27344 2.582-0.26172 2.582-0.25391 2.5781-0.23828 2.582-0.23047 2.582-0.21875 2.582-0.21094 2.582-0.20312 2.582-0.19531 2.582-0.18359 2.582-0.17969 2.582-0.17578 2.582-0.16406 2.5781-0.16016 2.582-0.15625 2.582-0.14844 2.582-0.14453 2.582-0.14062 2.582-0.13672 2.582-0.12891 5.1641-0.25 2.5781-0.11719 5.1641-0.22656 2.582-0.10938 2.582-0.10547 2.582-0.10156 5.1641-0.19531 2.582-0.09375 2.582-0.089844 2.5781-0.089844 2.582-0.085937 2.582-0.082032 2.582-0.085937 5.1641-0.15625 7.7461-0.22266 2.5781-0.070313 2.582-0.066406 2.582-0.070313 2.582-0.0625 2.582-0.066406 5.1641-0.125 7.7461-0.17578 2.5781-0.054688 5.1641-0.10938 2.582-0.050781 2.582-0.054687 2.582-0.046875 5.1641-0.10156 7.7422-0.14062 12.91-0.21484 2.582-0.039062 2.582-0.042969 5.1602-0.078125 2.582-0.035156 2.582-0.039063 2.582-0.035156 2.582-0.039062 5.1641-0.070313 2.582-0.03125 5.1602-0.070312 15.492-0.1875 2.582-0.027344 2.582-0.03125 2.5781-0.027344 5.1641-0.054687 2.582-0.03125 2.582-0.023438 7.7461-0.082031 2.582-0.023438 2.582-0.027343 2.5781-0.023438 5.1641-0.046875 2.582-0.027344 2.582-0.019531 10.328-0.09375 2.582-0.019531 2.5781-0.023438" fill="none" stroke="#0c6dfd" stroke-miterlimit="10" stroke-width="1.1955"/>
</g>
<g>
<use x="62.567" y="126.593" xlink:href="#aj"/>
<use x="70.03895" y="126.593" xlink:href="#c"/>
<use x="74.467326" y="126.593" xlink:href="#z"/>
<use x="80.002546" y="126.593" xlink:href="#i"/>
<use x="83.877001" y="126.593" xlink:href="#h"/>
<use x="87.779352" y="126.593" xlink:href="#a"/>
<use x="143.73" y="142.803" xlink:href="#y"/>
<use x="150.922997" y="142.803" xlink:href="#b"/>
<use x="155.351373" y="142.803" xlink:href="#g"/>
<use x="158.118983" y="142.803" xlink:href="#k"/>
<use x="163.654204" y="142.803" xlink:href="#a"/>
<use x="44.975" y="52.85" xlink:href="#ai"/>
<use x="52.03151" y="52.85" xlink:href="#ah"/>
<use x="57.01281" y="52.85" xlink:href="#ag"/>
<use x="60.943055" y="52.85" xlink:href="#g"/>
<use x="63.710666" y="52.85" xlink:href="#b"/>
<use x="68.139041" y="52.85" xlink:href="#a"/>
</g>
<path transform="matrix(1 0 0 -1 20.193 162.39)" d="m40.846 32.278c0 1.1016-0.89062 1.9922-1.9922 1.9922-1.1016 0-1.9922-0.89062-1.9922-1.9922 0-1.1016 0.89062-1.9922 1.9922-1.9922 1.1016 0 1.9922 0.89062 1.9922 1.9922z" fill="#fff" stroke="#0c6dfd" stroke-miterlimit="10" stroke-width="1.1955"/>
<g>
<use x="66.388" y="181.543" xlink:href="#af"/>
<use x="73.58299" y="181.543" xlink:href="#a"/>
<use x="78.56429" y="181.543" xlink:href="#j"/>
<use x="84.09951" y="181.543" xlink:href="#b"/>
<use x="88.527886" y="181.543" xlink:href="#c"/>
<use x="92.956262" y="181.543" xlink:href="#j"/>
<use x="98.212529" y="181.543" xlink:href="#i"/>
<use x="102.086985" y="181.543" xlink:href="#h"/>
<use x="105.989335" y="181.543" xlink:href="#ae"/>
<use x="110.970635" y="181.543" xlink:href="#ad"/>
<use x="115.399011" y="181.543" xlink:href="#ac"/>
<use x="120.380311" y="181.543" xlink:href="#a"/>
<use x="128.679156" y="181.543" xlink:href="#k"/>
<use x="134.214377" y="181.543" xlink:href="#c"/>
<use x="141.970261" y="181.543" xlink:href="#ab"/>
<use x="149.437" y="183.037" xlink:href="#x"/>
<use x="153.906" y="181.543" xlink:href="#aa"/>
<use x="161.655" y="177.143" xlink:href="#w"/>
<use x="7.896" y="130.231" xlink:href="#v"/>
<use x="7.896" y="123.03601" xlink:href="#f"/>
<use x="7.896" y="118.05471" xlink:href="#e"/>
<use x="7.896" y="112.51949" xlink:href="#q"/>
<use x="7.896" y="108.091114" xlink:href="#d"/>
<use x="7.896" y="103.662738" xlink:href="#e"/>
<use x="7.896" y="98.406471" xlink:href="#p"/>
<use x="7.896" y="94.532015" xlink:href="#o"/>
<use x="7.896" y="90.629665" xlink:href="#n"/>
<use x="7.896" y="85.648365" xlink:href="#m"/>
<use x="7.896" y="81.219989" xlink:href="#u"/>
<use x="7.896" y="76.238689" xlink:href="#f"/>
<use x="7.896" y="67.939843" xlink:href="#t"/>
<use x="7.896" y="62.404623" xlink:href="#d"/>
<use x="7.896" y="54.648739" xlink:href="#s"/>
<use x="7.896" y="46.899829" xlink:href="#r"/>
<use x="3.496" y="38.532" xlink:href="#l"/>
</g>
</svg>
