<?xml version="1.0" encoding="UTF-8"?>
<svg width="86pt" height="16pt" version="1.1" viewBox="0 0 86 16" xmlns="http://www.w3.org/2000/svg" xmlns:xlink="http://www.w3.org/1999/xlink">
<defs>
<symbol id="a" overflow="visible">
<path d="m6.1094 0v-6.9219h-0.89062v3.0312h-3.3906v-3.0312h-0.89062v6.9219h0.89062v-3.2969h3.3906v3.2969z"/>
</symbol>
<symbol id="e" overflow="visible">
<path d="m4.9688-1.8906c0-0.64062-0.29688-1.125-0.51562-1.3594-0.46875-0.5-0.79688-0.59375-1.7188-0.8125-0.57812-0.14062-0.73438-0.1875-1.0469-0.4375-0.0625-0.0625-0.34375-0.35938-0.34375-0.79688 0-0.57812 0.54688-1.1875 1.4531-1.1875 0.84375 0 1.3125 0.32812 1.6875 0.64062l0.15625-0.79688c-0.54688-0.32812-1.1094-0.5-1.8281-0.5-1.3906 0-2.25 0.98438-2.25 1.9688 0 0.42188 0.14062 0.84375 0.53125 1.2656 0.42188 0.45312 0.85938 0.5625 1.4531 0.70312 0.84375 0.21875 0.9375 0.25 1.2188 0.48438 0.20312 0.17188 0.42188 0.5 0.42188 0.9375 0 0.65625-0.54688 1.3125-1.4531 1.3125-0.40625 0-1.3125-0.09375-2.1406-0.8125l-0.15625 0.8125c0.875 0.54688 1.6719 0.6875 2.2969 0.6875 1.3281 0 2.2344-1 2.2344-2.1094z"/>
</symbol>
<symbol id="d" overflow="visible">
<path d="m6.7656-3.4375c0-2.0938-1.4375-3.7031-3.0938-3.7031-1.7031 0-3.1094 1.625-3.1094 3.7031 0 2.1094 1.4688 3.6562 3.0938 3.6562 1.6719 0 3.1094-1.5625 3.1094-3.6562zm-0.89062-0.15625c0 1.9531-1.0625 3.1719-2.2031 3.1719-1.1719 0-2.2188-1.25-2.2188-3.1719 0-1.8125 1.0938-2.9062 2.2031-2.9062 1.1562 0 2.2188 1.125 2.2188 2.9062z"/>
</symbol>
<symbol id="c" overflow="visible">
<path d="m4.7188 0-1.9219-4.8438h-0.67188l-1.9219 4.8438h0.57812l0.54688-1.375h2.1094l0.54688 1.375zm-1.4531-1.7969h-1.7656l0.89062-2.5156z"/>
</symbol>
<symbol id="b" overflow="visible">
<path d="m4.5156-1.3125c0-0.60938-0.64062-1.1094-1.4219-1.2188 0.71875-0.17188 1.2188-0.59375 1.2188-1.0938 0-0.64062-0.8125-1.2188-1.8281-1.2188h-1.7812v4.8438h1.9844c1.0312 0 1.8281-0.60938 1.8281-1.3125zm-0.8125-2.2969c0 0.45312-0.64062 0.85938-1.4219 0.85938h-0.92188v-1.6719h0.90625c0.78125 0 1.4375 0.35938 1.4375 0.8125zm0.17188 2.2969c0 0.51562-0.64062 0.90625-1.4062 0.90625h-1.1094v-1.875h0.98438c0.875 0 1.5312 0.4375 1.5312 0.96875z"/>
</symbol>
</defs>
<g fill="#0c6dfd">
<use x="-0.71" y="14.436" xlink:href="#a"/>
<use x="6.347" y="15.931" xlink:href="#c"/>
</g>
<g>
<use x="15.192" y="7.265" xlink:href="#e"/>
</g>
<path transform="matrix(1,0,0,-1,5.538,14.436)" d="m7.6261 7.1157 0.64844 0.375" fill="none" stroke="#000" stroke-linecap="round" stroke-miterlimit="10" stroke-width=".59758"/>
<path transform="matrix(1,0,0,-1,5.538,14.436)" d="m16.567 7.4907 8.2734-4.7773" fill="none" stroke="#000" stroke-linecap="round" stroke-miterlimit="10" stroke-width=".59758"/>
<path transform="matrix(1,0,0,-1,5.538,14.436)" d="m24.841 2.7133 12.422 7.1719" fill="none" stroke="#000" stroke-linecap="round" stroke-miterlimit="10" stroke-width=".59758"/>
<path transform="matrix(1,0,0,-1,5.538,14.436)" d="m37.263 9.8852 12.422-7.1719" fill="none" stroke="#000" stroke-linecap="round" stroke-miterlimit="10" stroke-width=".59758"/>
<g>
<use x="63.977" y="8.012" xlink:href="#d"/>
</g>
<path transform="matrix(1,0,0,-1,5.538,14.436)" d="m49.685 2.7133 7.375 4.2578" fill="none" stroke="#000" stroke-linecap="round" stroke-miterlimit="10" stroke-width=".59758"/>
<g fill="#dc3445">
<use x="73.818" y="14.436" xlink:href="#a"/>
<use x="80.874" y="15.931" xlink:href="#b"/>
</g>
<path transform="matrix(1,0,0,-1,5.538,14.436)" d="m67.153 6.9712-0.25391 0.14453" fill="none" stroke="#000" stroke-linecap="round" stroke-miterlimit="10" stroke-width=".59758"/>
</svg>
