<?xml version="1.0" encoding="UTF-8"?>
<svg width="176pt" height="181pt" version="1.1" viewBox="0 0 176 181" xmlns="http://www.w3.org/2000/svg" xmlns:xlink="http://www.w3.org/1999/xlink">
<defs>
<symbol id="q" overflow="visible">
<path d="m-0.89062-4.8125h-0.5625v0.25h0.5625c0.57812 0 0.64062 0.25 0.64062 0.35938 0 0.32812-0.45312 0.35938-0.5 0.35938h-1.9844c-0.42188 0-0.8125 0-1.1875 0.35938-0.39062 0.39062-0.54688 0.89062-0.54688 1.375 0 0.8125 0.46875 1.5 1.125 1.5 0.29688 0 0.46875-0.20312 0.46875-0.45312 0-0.28125-0.20312-0.46875-0.45312-0.46875-0.125 0-0.45312 0.0625-0.45312 0.51562-0.35938-0.26562-0.46875-0.76562-0.46875-1.0781 0-0.48438 0.39062-1.0625 1.2812-1.0625h0.35938c0.03125 0.51562 0.0625 1.2188 0.35938 1.8438 0.34375 0.75 0.85938 1 1.2969 1 0.8125 0 1.0625-0.96875 1.0625-1.5938 0-0.67188-0.40625-1.125-0.85938-1.3125 0.39062-0.046875 0.8125-0.3125 0.8125-0.78125 0-0.20312-0.14062-0.8125-0.95312-0.8125zm-0.5 1.6562c0.9375 0 1.2812 0.71875 1.2812 1.1719 0 0.48438-0.34375 0.89062-0.84375 0.89062-0.54688 0-1.375-0.40625-1.4375-2.0625z"/>
</symbol>
<symbol id="ao" overflow="visible">
<path d="m0-5.3281h-0.3125c0 0.51562 0 0.76562-0.29688 0.76562h-1.9062c-0.85938 0-1.1562 0-1.5156 0.3125-0.17188 0.14062-0.375 0.46875-0.375 1.0469 0 0.73438 0.42188 1.2031 1.0469 1.4844h-1.0469l0.10938 1.4062h0.3125c0-0.70312 0.0625-0.78125 0.5625-0.78125h2.6719c0.4375 0 0.4375 0.10938 0.4375 0.78125h0.3125l-0.03125-1.1406 0.03125-1.1094h-0.3125c0 0.67188 0 0.78125-0.4375 0.78125h-1.8438c-1.0312 0-1.5938-0.71875-1.5938-1.3438 0-0.64062 0.53125-0.75 1.1094-0.75h2.3281c0.4375 0 0.4375 0.10938 0.4375 0.78125h0.3125l-0.03125-1.125z"/>
</symbol>
<symbol id="b" overflow="visible">
<path d="m-2.1406-4.6875c-1.2656 0-2.3281 0.98438-2.3281 2.1875 0 1.25 1.0938 2.2188 2.3281 2.2188 1.2969 0 2.25-1.0312 2.25-2.2031 0-1.2031-0.98438-2.2031-2.25-2.2031zm-0.078125 0.8125c0.35938 0 0.90625 0 1.3438 0.21875 0.45312 0.23438 0.73438 0.67188 0.73438 1.1562 0 0.4375-0.20312 0.875-0.67188 1.1406-0.4375 0.25-1.0469 0.25-1.4062 0.25-0.39062 0-0.92188 0-1.3594-0.23438-0.45312-0.26562-0.67188-0.73438-0.67188-1.1406 0-0.4375 0.21875-0.85938 0.65625-1.125 0.42188-0.26562 1-0.26562 1.375-0.26562z"/>
</symbol>
<symbol id="p" overflow="visible">
<path d="m0-5.25h-0.3125c0 0.6875-0.0625 0.78125-0.5625 0.78125h-6.0469l0.10938 1.4219h0.3125c0-0.6875 0.0625-0.76562 0.5625-0.76562h2.1562c-0.35938 0.28125-0.625 0.71875-0.625 1.25 0 1.1719 0.98438 2.2188 2.2656 2.2188 1.2656 0 2.25-0.96875 2.25-2.1094 0-0.64062-0.34375-1.0781-0.65625-1.3281h0.65625zm-1.1719 1.4688c0.17188 0 0.1875 0 0.35938 0.10938 0.48438 0.29688 0.70312 0.73438 0.70312 1.1719 0 0.45312-0.26562 0.8125-0.64062 1.0469-0.40625 0.25-0.96875 0.28125-1.3906 0.28125-0.35938 0-0.95312-0.015625-1.4062-0.29688-0.3125-0.21875-0.64062-0.59375-0.64062-1.1406 0-0.34375 0.15625-0.76562 0.59375-1.0625 0.17188-0.10938 0.1875-0.10938 0.375-0.10938z"/>
</symbol>
<symbol id="an" overflow="visible">
<path d="m-1.1875-4.1406c-0.09375 0-0.09375 0.10938-0.09375 0.14062 0 0.078125 0.03125 0.10938 0.09375 0.125 0.92188 0.28125 1.0469 0.9375 1.0469 1.2969 0 0.53125-0.42188 1.4062-2.0312 1.4062-1.625 0-2.0469-0.8125-2.0469-1.3438 0-0.09375 0.015625-0.71875 0.375-1.0625 0.03125 0.40625 0.32812 0.46875 0.45312 0.46875 0.26562 0 0.45312-0.1875 0.45312-0.45312s-0.15625-0.46875-0.46875-0.46875c-0.67188 0-1.0625 0.76562-1.0625 1.5312 0 1.25 1.0781 2.1562 2.3125 2.1562 1.2812 0 2.2656-0.98438 2.2656-2.1406 0-1.3281-1.2031-1.6562-1.2969-1.6562z"/>
</symbol>
<symbol id="am" overflow="visible">
<path d="m-1.2344-3.3125h-0.5625v0.25h0.54688c0.73438 0 1.1094 0.29688 1.1094 0.67188 0 0.67188-0.90625 0.67188-1.0781 0.67188h-2.7656v-1.4375h-0.3125v1.4375h-1.8281v0.25c0.8125 0 1.875 0.29688 1.9219 1.2812h0.21875v-0.84375h2.75c1.2188 0 1.3438-0.9375 1.3438-1.2969 0-0.70312-0.70312-0.98438-1.3438-0.98438z"/>
</symbol>
<symbol id="o" overflow="visible">
<path d="m6.2188-4.9531c0-0.98438-0.98438-1.8594-2.3438-1.8594h-3.5312v0.3125h0.25c0.76562 0 0.78125 0.10938 0.78125 0.46875v5.25c0 0.35938-0.015625 0.46875-0.78125 0.46875h-0.25v0.3125c0.35938-0.03125 1.0938-0.03125 1.4688-0.03125s1.125 0 1.4844 0.03125v-0.3125h-0.25c-0.76562 0-0.78125-0.10938-0.78125-0.46875v-2.375h1.6875c1.1875 0 2.2656-0.79688 2.2656-1.7969zm-1.0312 0c0 0.46875 0 1.5469-1.5781 1.5469h-1.375v-2.6875c0-0.34375 0.015625-0.40625 0.48438-0.40625h0.89062c1.5781 0 1.5781 1.0625 1.5781 1.5469z"/>
</symbol>
<symbol id="c" overflow="visible">
<path d="m3.3125-1.2344v-0.5625h-0.25v0.54688c0 0.73438-0.29688 1.1094-0.67188 1.1094-0.67188 0-0.67188-0.90625-0.67188-1.0781v-2.7656h1.4375v-0.3125h-1.4375v-1.8281h-0.25c0 0.8125-0.29688 1.875-1.2812 1.9219v0.21875h0.84375v2.75c0 1.2188 0.9375 1.3438 1.2969 1.3438 0.70312 0 0.98438-0.70312 0.98438-1.3438z"/>
</symbol>
<symbol id="ah" overflow="visible">
<path d="m8.7656 0v-0.3125h-0.25c-0.76562 0-0.78125-0.10938-0.78125-0.46875v-5.25c0-0.35938 0.015625-0.46875 0.78125-0.46875h0.25v-0.3125h-1.6875c-0.26562 0-0.26562 0.015625-0.32812 0.1875l-2.1875 5.625-2.1562-5.5938c-0.09375-0.21875-0.125-0.21875-0.35938-0.21875h-1.6719v0.3125h0.23438c0.76562 0 0.78125 0.10938 0.78125 0.46875v4.9844c0 0.26562 0 0.73438-1.0156 0.73438v0.3125l1.1562-0.03125 1.1719 0.03125v-0.3125c-1.0312 0-1.0312-0.46875-1.0312-0.73438v-5.375h0.015625l2.4062 6.2031c0.046875 0.125 0.09375 0.21875 0.1875 0.21875 0.10938 0 0.14062-0.078125 0.1875-0.1875l2.4531-6.3125v5.7188c0 0.35938-0.015625 0.46875-0.78125 0.46875h-0.23438v0.3125c0.35938-0.03125 1.0469-0.03125 1.4375-0.03125 0.375 0 1.0469 0 1.4219 0.03125z"/>
</symbol>
<symbol id="ag" overflow="visible">
<path d="m4.8281-4.0312c0-0.17188-0.10938-0.48438-0.5-0.48438-0.20312 0-0.64062 0.0625-1.0625 0.46875-0.42188-0.32812-0.82812-0.35938-1.0469-0.35938-0.9375 0-1.625 0.6875-1.625 1.4531 0 0.4375 0.21875 0.8125 0.46875 1.0312-0.125 0.14062-0.3125 0.46875-0.3125 0.82812 0 0.3125 0.14062 0.6875 0.45312 0.89062-0.60938 0.15625-0.92188 0.59375-0.92188 0.98438 0 0.71875 0.98438 1.2656 2.2031 1.2656 1.1719 0 2.2031-0.5 2.2031-1.2812 0-0.34375-0.125-0.85938-0.64062-1.1406-0.53125-0.26562-1.1094-0.26562-1.7188-0.26562-0.25 0-0.67188 0-0.75-0.015625-0.3125-0.046875-0.51562-0.34375-0.51562-0.67188 0-0.03125 0-0.26562 0.15625-0.46875 0.39062 0.28125 0.8125 0.3125 1 0.3125 0.92188 0 1.6094-0.6875 1.6094-1.4531 0-0.375-0.15625-0.73438-0.40625-0.96875 0.35938-0.34375 0.71875-0.39062 0.89062-0.39062 0 0 0.078125 0 0.10938 0.015625-0.10938 0.03125-0.17188 0.14062-0.17188 0.26562 0 0.17188 0.14062 0.28125 0.29688 0.28125 0.09375 0 0.28125-0.0625 0.28125-0.29688zm-1.75 1.0781c0 0.26562 0 0.59375-0.15625 0.84375-0.078125 0.10938-0.3125 0.39062-0.70312 0.39062-0.875 0-0.875-1-0.875-1.2188 0-0.26562 0.015625-0.59375 0.15625-0.84375 0.078125-0.10938 0.3125-0.39062 0.71875-0.39062 0.85938 0 0.85938 0.98438 0.85938 1.2188zm1.0938 3.7344c0 0.54688-0.70312 1.0469-1.6719 1.0469-1.0156 0-1.7031-0.51562-1.7031-1.0469 0-0.45312 0.375-0.82812 0.8125-0.84375h0.59375c0.85938 0 1.9688 0 1.9688 0.84375z"/>
</symbol>
<symbol id="j" overflow="visible">
<path d="m6.625-2.3281c0-0.09375 0-0.17188-0.125-0.17188-0.10938 0-0.10938 0.0625-0.125 0.17188-0.078125 1.4219-1.1406 2.2344-2.2344 2.2344-0.60938 0-2.5625-0.32812-2.5625-3.3125 0-2.9688 1.9531-3.3125 2.5625-3.3125 1.0781 0 1.9688 0.90625 2.1719 2.3594 0.015625 0.14062 0.015625 0.17188 0.15625 0.17188 0.15625 0 0.15625-0.03125 0.15625-0.23438v-2.3594c0-0.17188 0-0.25-0.10938-0.25-0.03125 0-0.078125 0-0.15625 0.125l-0.5 0.73438c-0.35938-0.35938-0.875-0.85938-1.8281-0.85938-1.875 0-3.4688 1.5938-3.4688 3.625 0 2.0625 1.6094 3.625 3.4688 3.625 1.625 0 2.5938-1.3906 2.5938-2.5469z"/>
</symbol>
<symbol id="i" overflow="visible">
<path d="m2.5469 0v-0.3125c-0.67188 0-0.78125 0-0.78125-0.4375v-6.1719l-1.4375 0.10938v0.3125c0.70312 0 0.78125 0.0625 0.78125 0.5625v5.1875c0 0.4375-0.10938 0.4375-0.78125 0.4375v0.3125l1.1094-0.03125z"/>
</symbol>
<symbol id="af" overflow="visible">
<path d="m7.1875-3.375c0-2.0312-1.5-3.6562-3.3125-3.6562-1.7969 0-3.3125 1.5938-3.3125 3.6562 0 2.0469 1.5312 3.5938 3.3125 3.5938 1.8125 0 3.3125-1.5781 3.3125-3.5938zm-1.0312-0.14062c0 2.6406-1.3594 3.4688-2.2812 3.4688-0.95312 0-2.2969-0.875-2.2969-3.4688 0-2.5781 1.4688-3.2656 2.2969-3.2656 0.85938 0 2.2812 0.70312 2.2812 3.2656z"/>
</symbol>
<symbol id="ae" overflow="visible">
<path d="m5.1406 0v-0.3125c-0.53125 0-0.71875-0.015625-0.9375-0.3125l-1.3438-1.7188c0.29688-0.375 0.67188-0.85938 0.92188-1.125 0.3125-0.35938 0.71875-0.51562 1.1875-0.51562v-0.3125c-0.26562 0.015625-0.5625 0.03125-0.82812 0.03125-0.29688 0-0.82812-0.015625-0.95312-0.03125v0.3125c0.21875 0.015625 0.29688 0.14062 0.29688 0.3125 0 0.15625-0.10938 0.28125-0.15625 0.34375l-0.60938 0.78125-0.78125-1.0156c-0.09375-0.09375-0.09375-0.10938-0.09375-0.17188 0-0.15625 0.15625-0.25 0.34375-0.25v-0.3125l-1.0781 0.03125c-0.20312 0-0.67188-0.015625-0.9375-0.03125v0.3125c0.70312 0 0.70312 0 1.1719 0.60938l0.98438 1.2812c-0.46875 0.59375-0.46875 0.625-0.9375 1.1875-0.46875 0.57812-1.0625 0.59375-1.2656 0.59375v0.3125c0.25-0.015625 0.5625-0.03125 0.82812-0.03125l0.9375 0.03125v-0.3125c-0.21875-0.03125-0.28125-0.15625-0.28125-0.3125 0-0.21875 0.28125-0.54688 0.89062-1.2656l0.76562 1c0.078125 0.10938 0.20312 0.26562 0.20312 0.32812 0 0.09375-0.09375 0.25-0.35938 0.25v0.3125l1.0781-0.03125c0.26562 0 0.65625 0.015625 0.95312 0.03125z"/>
</symbol>
<symbol id="h" overflow="visible">
<path d="m2.4688 0v-0.3125c-0.67188 0-0.70312-0.046875-0.70312-0.4375v-3.6562l-1.3906 0.10938v0.3125c0.64062 0 0.73438 0.0625 0.73438 0.54688v2.6875c0 0.4375-0.10938 0.4375-0.78125 0.4375v0.3125l1.0938-0.03125c0.35938 0 0.70312 0.015625 1.0469 0.03125zm-0.5625-6.0156c0-0.28125-0.21875-0.53125-0.51562-0.53125-0.34375 0-0.54688 0.28125-0.54688 0.53125 0 0.26562 0.23438 0.51562 0.53125 0.51562 0.34375 0 0.53125-0.26562 0.53125-0.51562z"/>
</symbol>
<symbol id="n" overflow="visible">
<path d="m5.25 0v-0.3125c-0.6875 0-0.78125-0.0625-0.78125-0.5625v-6.0469l-1.4219 0.10938v0.3125c0.6875 0 0.76562 0.0625 0.76562 0.5625v2.1562c-0.28125-0.35938-0.71875-0.625-1.25-0.625-1.1719 0-2.2188 0.98438-2.2188 2.2656 0 1.2656 0.96875 2.25 2.1094 2.25 0.64062 0 1.0781-0.34375 1.3281-0.65625v0.65625zm-1.4688-1.1719c0 0.17188 0 0.1875-0.10938 0.35938-0.29688 0.48438-0.73438 0.70312-1.1719 0.70312-0.45312 0-0.8125-0.26562-1.0469-0.64062-0.25-0.40625-0.28125-0.96875-0.28125-1.3906 0-0.35938 0.015625-0.95312 0.29688-1.4062 0.21875-0.3125 0.59375-0.64062 1.1406-0.64062 0.34375 0 0.76562 0.15625 1.0625 0.59375 0.10938 0.17188 0.10938 0.1875 0.10938 0.375z"/>
</symbol>
<symbol id="e" overflow="visible">
<path d="m4.8125-0.89062v-0.5625h-0.25v0.5625c0 0.57812-0.25 0.64062-0.35938 0.64062-0.32812 0-0.35938-0.45312-0.35938-0.5v-1.9844c0-0.42188 0-0.8125-0.35938-1.1875-0.39062-0.39062-0.89062-0.54688-1.375-0.54688-0.8125 0-1.5 0.46875-1.5 1.125 0 0.29688 0.20312 0.46875 0.45312 0.46875 0.28125 0 0.46875-0.20312 0.46875-0.45312 0-0.125-0.0625-0.45312-0.51562-0.45312 0.26562-0.35938 0.76562-0.46875 1.0781-0.46875 0.48438 0 1.0625 0.39062 1.0625 1.2812v0.35938c-0.51562 0.03125-1.2188 0.0625-1.8438 0.35938-0.75 0.34375-1 0.85938-1 1.2969 0 0.8125 0.96875 1.0625 1.5938 1.0625 0.67188 0 1.125-0.40625 1.3125-0.85938 0.046875 0.39062 0.3125 0.8125 0.78125 0.8125 0.20312 0 0.8125-0.14062 0.8125-0.95312zm-1.6562-0.5c0 0.9375-0.71875 1.2812-1.1719 1.2812-0.48438 0-0.89062-0.34375-0.89062-0.84375 0-0.54688 0.40625-1.375 2.0625-1.4375z"/>
</symbol>
<symbol id="m" overflow="visible">
<path d="m4.1406-1.1875c0-0.09375-0.10938-0.09375-0.14062-0.09375-0.078125 0-0.10938 0.03125-0.125 0.09375-0.28125 0.92188-0.9375 1.0469-1.2969 1.0469-0.53125 0-1.4062-0.42188-1.4062-2.0312 0-1.625 0.8125-2.0469 1.3438-2.0469 0.09375 0 0.71875 0.015625 1.0625 0.375-0.40625 0.03125-0.46875 0.32812-0.46875 0.45312 0 0.26562 0.1875 0.45312 0.45312 0.45312s0.46875-0.15625 0.46875-0.46875c0-0.67188-0.76562-1.0625-1.5312-1.0625-1.25 0-2.1562 1.0781-2.1562 2.3125 0 1.1719 0.8125 2.0938 1.8281 2.25v0.82812c0.375 0 0.76562 0.078125 0.76562 0.40625 0 0.40625-0.95312 0.40625-1.7031 0.40625h-0.125v0.26562h0.25c1.0781 0 2.4062 0 2.4062-0.67188 0-0.46875-0.53125-0.67188-1.0781-0.67188v-0.5625c1.1562-0.10938 1.4531-1.1875 1.4531-1.2812z"/>
</symbol>
<symbol id="l" overflow="visible">
<path d="m4.8125-0.89062v-0.5625h-0.25v0.5625c0 0.57812-0.25 0.64062-0.35938 0.64062-0.32812 0-0.35938-0.45312-0.35938-0.5v-1.9844c0-0.42188 0-0.8125-0.35938-1.1875-0.39062-0.39062-0.89062-0.54688-1.375-0.54688-0.8125 0-1.5 0.46875-1.5 1.125 0 0.29688 0.20312 0.46875 0.45312 0.46875 0.28125 0 0.46875-0.20312 0.46875-0.45312 0-0.125-0.0625-0.45312-0.51562-0.45312 0.26562-0.35938 0.76562-0.46875 1.0781-0.46875 0.48438 0 1.0625 0.39062 1.0625 1.2812v0.35938c-0.51562 0.03125-1.2188 0.0625-1.8438 0.35938-0.75 0.34375-1 0.85938-1 1.2969 0 0.8125 0.96875 1.0625 1.5938 1.0625 0.67188 0 1.125-0.40625 1.3125-0.85938 0.046875 0.39062 0.3125 0.8125 0.78125 0.8125 0.20312 0 0.8125-0.14062 0.8125-0.95312zm-1.6562-0.5c0 0.9375-0.71875 1.2812-1.1719 1.2812-0.48438 0-0.89062-0.34375-0.89062-0.84375 0-0.54688 0.40625-1.375 2.0625-1.4375zm1-4.9531-0.15625-0.14062s-0.375 0.46875-0.8125 0.46875c-0.23438 0-0.48438-0.14062-0.65625-0.25-0.26562-0.15625-0.45312-0.21875-0.625-0.21875-0.375 0-0.5625 0.21875-1.0625 0.76562l0.15625 0.15625s0.375-0.48438 0.8125-0.48438c0.23438 0 0.48438 0.15625 0.65625 0.25 0.26562 0.17188 0.4375 0.23438 0.60938 0.23438 0.375 0 0.57812-0.21875 1.0781-0.78125z"/>
</symbol>
<symbol id="k" overflow="visible">
<path d="m4.6875-2.1406c0-1.2656-0.98438-2.3281-2.1875-2.3281-1.25 0-2.2188 1.0938-2.2188 2.3281 0 1.2969 1.0312 2.25 2.2031 2.25 1.2031 0 2.2031-0.98438 2.2031-2.25zm-0.8125-0.078125c0 0.35938 0 0.90625-0.21875 1.3438-0.23438 0.45312-0.67188 0.73438-1.1562 0.73438-0.4375 0-0.875-0.20312-1.1406-0.67188-0.25-0.4375-0.25-1.0469-0.25-1.4062 0-0.39062 0-0.92188 0.23438-1.3594 0.26562-0.45312 0.73438-0.67188 1.1406-0.67188 0.4375 0 0.85938 0.21875 1.125 0.65625 0.26562 0.42188 0.26562 1 0.26562 1.375z"/>
</symbol>
<symbol id="al" overflow="visible">
<path d="m7.2969-0.875c0-0.0625 0-0.17188-0.125-0.17188-0.10938 0-0.10938 0.09375-0.125 0.15625-0.0625 0.71875-0.40625 0.89062-0.65625 0.89062-0.48438 0-0.5625-0.51562-0.70312-1.4375l-0.14062-0.79688c-0.17188-0.64062-0.65625-0.96875-1.2031-1.1562 0.95312-0.23438 1.7344-0.84375 1.7344-1.625 0-0.95312-1.1406-1.7969-2.5938-1.7969h-3.1406v0.3125h0.25c0.76562 0 0.78125 0.10938 0.78125 0.46875v5.25c0 0.35938-0.015625 0.46875-0.78125 0.46875h-0.25v0.3125c0.35938-0.03125 1.0781-0.03125 1.4531-0.03125 0.39062 0 1.1094 0 1.4688 0.03125v-0.3125h-0.25c-0.76562 0-0.78125-0.10938-0.78125-0.46875v-2.5156h1.1406c0.15625 0 0.57812 0 0.9375 0.34375 0.375 0.34375 0.375 0.65625 0.375 1.3281 0 0.64062 0 1.0469 0.40625 1.4219 0.40625 0.35938 0.95312 0.42188 1.25 0.42188 0.78125 0 0.95312-0.8125 0.95312-1.0938zm-2.25-4.1406c0 0.6875-0.23438 1.5-1.7031 1.5h-1.1094v-2.5781c0-0.23438 0-0.35938 0.21875-0.39062 0.09375-0.015625 0.39062-0.015625 0.59375-0.015625 0.89062 0 2 0.046875 2 1.4844z"/>
</symbol>
<symbol id="d" overflow="visible">
<path d="m4.1406-1.1875c0-0.09375-0.078125-0.125-0.14062-0.125-0.078125 0-0.10938 0.0625-0.125 0.14062-0.34375 1.0312-1.25 1.0312-1.3438 1.0312-0.5 0-0.89062-0.29688-1.125-0.67188-0.29688-0.46875-0.29688-1.125-0.29688-1.4844h2.7812c0.21875 0 0.25 0 0.25-0.21875 0-0.98438-0.54688-1.9531-1.7812-1.9531-1.1562 0-2.0781 1.0312-2.0781 2.2812 0 1.3281 1.0469 2.2969 2.1875 2.2969 1.2188 0 1.6719-1.1094 1.6719-1.2969zm-0.65625-1.3281h-2.375c0.0625-1.4844 0.90625-1.7344 1.25-1.7344 1.0156 0 1.125 1.3438 1.125 1.7344z"/>
</symbol>
<symbol id="ak" overflow="visible">
<path d="m5.3281 0v-0.3125c-0.6875 0-0.76562-0.0625-0.76562-0.5625v-3.5312l-1.4688 0.10938v0.3125c0.6875 0 0.78125 0.0625 0.78125 0.5625v1.7656c0 0.875-0.48438 1.5469-1.2188 1.5469-0.82812 0-0.875-0.46875-0.875-0.98438v-3.3125l-1.4688 0.10938v0.3125c0.78125 0 0.78125 0.03125 0.78125 0.90625v1.5c0 0.78125 0 1.6875 1.5156 1.6875 0.5625 0 1-0.28125 1.2812-0.89062v0.89062z"/>
</symbol>
<symbol id="aj" overflow="visible">
<path d="m6.4844-1.8281c0-0.85938-0.8125-1.6094-1.9219-1.7344 0.96875-0.1875 1.6562-0.82812 1.6562-1.5625 0-0.85938-0.92188-1.6875-2.2188-1.6875h-3.6406v0.3125h0.23438c0.76562 0 0.79688 0.10938 0.79688 0.46875v5.25c0 0.35938-0.03125 0.46875-0.79688 0.46875h-0.23438v0.3125h3.9062c1.3281 0 2.2188-0.89062 2.2188-1.8281zm-1.2344-3.2969c0 0.64062-0.48438 1.4688-1.5938 1.4688h-1.4375v-2.4375c0-0.34375 0.015625-0.40625 0.48438-0.40625h1.2344c0.96875 0 1.3125 0.84375 1.3125 1.375zm0.25 3.2969c0 0.70312-0.53125 1.5156-1.5469 1.5156h-1.25c-0.46875 0-0.48438-0.0625-0.48438-0.39062v-2.7188h1.875c0.98438 0 1.4062 0.92188 1.4062 1.5938z"/>
</symbol>
<symbol id="ai" overflow="visible">
<path d="m3.625-3.7969c0-0.3125-0.3125-0.60938-0.73438-0.60938-0.73438 0-1.0938 0.67188-1.2188 1.0938v-1.0938l-1.3906 0.10938v0.3125c0.70312 0 0.78125 0.0625 0.78125 0.5625v2.6719c0 0.4375-0.10938 0.4375-0.78125 0.4375v0.3125l1.1406-0.03125c0.39062 0 0.85938 0 1.2656 0.03125v-0.3125h-0.21875c-0.73438 0-0.75-0.10938-0.75-0.46875v-1.5312c0-0.98438 0.42188-1.875 1.1719-1.875 0.0625 0 0.09375 0 0.10938 0.015625-0.03125 0-0.23438 0.125-0.23438 0.39062s0.21875 0.42188 0.4375 0.42188c0.17188 0 0.42188-0.125 0.42188-0.4375z"/>
</symbol>
<symbol id="g" overflow="visible">
<path d="m3.5156-1.2656h-0.23438c-0.015625 0.15625-0.09375 0.5625-0.1875 0.625-0.046875 0.046875-0.57812 0.046875-0.6875 0.046875h-1.2812c0.73438-0.64062 0.98438-0.84375 1.3906-1.1719 0.51562-0.40625 1-0.84375 1-1.5 0-0.84375-0.73438-1.3594-1.625-1.3594-0.85938 0-1.4531 0.60938-1.4531 1.25 0 0.34375 0.29688 0.39062 0.375 0.39062 0.15625 0 0.35938-0.125 0.35938-0.375 0-0.125-0.046875-0.375-0.40625-0.375 0.21875-0.48438 0.6875-0.64062 1.0156-0.64062 0.70312 0 1.0625 0.54688 1.0625 1.1094 0 0.60938-0.4375 1.0781-0.65625 1.3281l-1.6719 1.6719c-0.078125 0.0625-0.078125 0.078125-0.078125 0.26562h2.875z"/>
</symbol>
<symbol id="ad" overflow="visible">
<path d="m5.6094-1.7344c0-0.1875-0.15625-0.1875-0.25-0.1875h-2.1406v-2.1406c0-0.078125 0-0.25-0.15625-0.25-0.17188 0-0.17188 0.15625-0.17188 0.25v2.1406h-2.1406c-0.09375 0-0.26562 0-0.26562 0.17188s0.15625 0.17188 0.26562 0.17188h2.1406v2.1406c0 0.09375 0 0.26562 0.15625 0.26562 0.17188 0 0.17188-0.17188 0.17188-0.26562v-2.1406h2.1406c0.09375 0 0.25 0 0.25-0.15625z"/>
</symbol>
<symbol id="f" overflow="visible">
<path d="m3.9062-1.75v-0.20312h-3.8438v0.20312z"/>
</symbol>
<symbol id="a" overflow="visible">
<path d="m6.9219-2.5c0-0.1875-0.1875-0.1875-0.32812-0.1875h-5.4375c-0.14062 0-0.32812 0-0.32812 0.1875 0 0.20312 0.1875 0.20312 0.32812 0.20312h5.4375c0.14062 0 0.32812 0 0.32812-0.20312z"/>
</symbol>
<symbol id="ac" overflow="visible">
<path d="m9.4062-2.5c0-0.046875-0.046875-0.078125-0.078125-0.09375-1.0781-0.375-1.8594-1.2969-2.0469-2.4062-0.015625-0.046875-0.0625-0.09375-0.10938-0.09375h-0.1875c-0.0625 0-0.10938 0.046875-0.10938 0.125 0.15625 0.92188 0.6875 1.7344 1.4219 2.2812h-7.5469c-0.125 0-0.20312 0.09375-0.20312 0.1875 0 0.10938 0.078125 0.20312 0.20312 0.20312h7.5469c-0.73438 0.54688-1.2656 1.3594-1.4219 2.2812 0 0.078125 0.046875 0.125 0.10938 0.125h0.1875c0.046875 0 0.09375-0.046875 0.10938-0.09375 0.1875-1.1094 0.96875-2.0312 2.0469-2.4062 0.03125-0.015625 0.078125-0.046875 0.078125-0.10938z"/>
</symbol>
<symbol id="ab" overflow="visible">
<path d="m9.4062-2.5c0-0.09375-0.078125-0.1875-0.21875-0.1875h-7.5469c0.75-0.54688 1.2656-1.3594 1.4375-2.2812 0-0.078125-0.0625-0.125-0.125-0.125h-0.17188c-0.046875 0-0.09375 0.046875-0.10938 0.09375-0.1875 1.1094-0.98438 2.0312-2.0469 2.4062-0.03125 0.015625-0.078125 0.046875-0.078125 0.09375 0 0.0625 0.046875 0.09375 0.078125 0.10938 1.0625 0.375 1.8594 1.2969 2.0469 2.4062 0.015625 0.046875 0.0625 0.09375 0.10938 0.09375h0.17188c0.0625 0 0.125-0.046875 0.125-0.125-0.17188-0.92188-0.6875-1.7344-1.4375-2.2812h7.5469c0.14062 0 0.21875-0.09375 0.21875-0.20312z"/>
</symbol>
<symbol id="aa" overflow="visible">
<path d="m6.0625-10.234h-2l-2.8125 5.5938 2.2656-0.60938-2.0312 3.4688-0.84375-1.2969-0.046875 3.0781 3.4688-1.1875-2.0781-0.21875 3.7031-5.1562-2.9062 0.75z"/>
</symbol>
<symbol id="z" overflow="visible">
<path d="m4.75-2.1875h3.0781c0.14062 0 0.4375 0 0.4375-0.3125 0-0.29688-0.29688-0.29688-0.4375-0.29688h-3.0781v-3.0938c0-0.125 0-0.42188-0.29688-0.42188-0.3125 0-0.3125 0.29688-0.3125 0.42188v3.0938h-3.0781c-0.14062 0-0.42188 0-0.42188 0.29688 0 0.3125 0.29688 0.3125 0.42188 0.3125h3.0781v3.0781c0 0.125 0 0.42188 0.3125 0.42188 0.29688 0 0.29688-0.28125 0.29688-0.42188z"/>
</symbol>
<symbol id="y" overflow="visible">
<path d="m7.5-2.1875c0.14062 0 0.4375 0 0.4375-0.3125 0-0.29688-0.28125-0.29688-0.4375-0.29688h-6.0938c-0.15625 0-0.45312 0-0.45312 0.29688 0 0.3125 0.29688 0.3125 0.45312 0.3125z"/>
</symbol>
<clipPath id="bb">
<path d="m4 19h172v126h-172z"/>
</clipPath>
<clipPath id="aw">
<path d="m4.7852 144.29v-113.79c0-6.2617 38.074-11.336 85.043-11.336 46.965 0 85.039 5.0742 85.039 11.336l0.39844 113.79h-170.48"/>
</clipPath>
<linearGradient id="x" x2="0" y1="25.003" y2="74.997" gradientTransform="matrix(0 -2.5028 -3.41 0 260.53 206.86)" gradientUnits="userSpaceOnUse">
<stop stop-color="#e5e5e5" offset="0"/>
<stop stop-color="#e5e5e5" offset=".015625"/>
<stop stop-color="#e6e6e6" offset=".03125"/>
<stop stop-color="#e7e7e7" offset=".046875"/>
<stop stop-color="#e8e8e8" offset=".0625"/>
<stop stop-color="#e9e9e9" offset=".078125"/>
<stop stop-color="#e9e9e9" offset=".09375"/>
<stop stop-color="#eaeaea" offset=".10938"/>
<stop stop-color="#ebebeb" offset=".125"/>
<stop stop-color="#ececec" offset=".14062"/>
<stop stop-color="#ededed" offset=".15625"/>
<stop stop-color="#ededed" offset=".17188"/>
<stop stop-color="#eee" offset=".1875"/>
<stop stop-color="#efefef" offset=".20312"/>
<stop stop-color="#f0f0f0" offset=".21875"/>
<stop stop-color="#f1f1f1" offset=".23438"/>
<stop stop-color="#f1f1f1" offset=".25"/>
<stop stop-color="#f2f2f2" offset=".26562"/>
<stop stop-color="#f3f3f3" offset=".28125"/>
<stop stop-color="#f4f4f4" offset=".29688"/>
<stop stop-color="#f5f5f5" offset=".3125"/>
<stop stop-color="#f5f5f5" offset=".32812"/>
<stop stop-color="#f6f6f6" offset=".34375"/>
<stop stop-color="#f7f7f7" offset=".35938"/>
<stop stop-color="#f8f8f8" offset=".375"/>
<stop stop-color="#f9f9f9" offset=".39062"/>
<stop stop-color="#f9f9f9" offset=".40625"/>
<stop stop-color="#fafafa" offset=".42188"/>
<stop stop-color="#fbfbfb" offset=".4375"/>
<stop stop-color="#fcfcfc" offset=".45312"/>
<stop stop-color="#fdfdfd" offset=".46875"/>
<stop stop-color="#fdfdfd" offset=".48438"/>
<stop stop-color="#fefefe" offset=".5"/>
<stop stop-color="#fefefe" offset=".51562"/>
<stop stop-color="#fdfdfd" offset=".53125"/>
<stop stop-color="#fdfdfd" offset=".54688"/>
<stop stop-color="#fcfcfc" offset=".5625"/>
<stop stop-color="#fbfbfb" offset=".57812"/>
<stop stop-color="#fafafa" offset=".59375"/>
<stop stop-color="#f9f9f9" offset=".60938"/>
<stop stop-color="#f9f9f9" offset=".625"/>
<stop stop-color="#f8f8f8" offset=".64062"/>
<stop stop-color="#f7f7f7" offset=".65625"/>
<stop stop-color="#f6f6f6" offset=".67188"/>
<stop stop-color="#f5f5f5" offset=".6875"/>
<stop stop-color="#f5f5f5" offset=".70312"/>
<stop stop-color="#f4f4f4" offset=".71875"/>
<stop stop-color="#f3f3f3" offset=".73438"/>
<stop stop-color="#f2f2f2" offset=".75"/>
<stop stop-color="#f1f1f1" offset=".76562"/>
<stop stop-color="#f1f1f1" offset=".78125"/>
<stop stop-color="#f0f0f0" offset=".79688"/>
<stop stop-color="#efefef" offset=".8125"/>
<stop stop-color="#eee" offset=".82812"/>
<stop stop-color="#ededed" offset=".84375"/>
<stop stop-color="#ededed" offset=".85938"/>
<stop stop-color="#ececec" offset=".875"/>
<stop stop-color="#ebebeb" offset=".89062"/>
<stop stop-color="#eaeaea" offset=".90625"/>
<stop stop-color="#e9e9e9" offset=".92188"/>
<stop stop-color="#e9e9e9" offset=".9375"/>
<stop stop-color="#e8e8e8" offset=".95312"/>
<stop stop-color="#e7e7e7" offset=".96875"/>
<stop stop-color="#e6e6e6" offset=".98438"/>
<stop stop-color="#e5e5e5" offset="1"/>
</linearGradient>
<clipPath id="av">
<path d="m4.7852 58.848h170.48v85.438h-170.48z"/>
</clipPath>
<clipPath id="au">
<path d="m-47.5 224.97 308.96-54.48-33.91-192.32-308.96 54.477z"/>
</clipPath>
<linearGradient id="w" x2="0" y1="20.878" y2="79.122" gradientTransform="matrix(3.0896 -.54478 -.33912 -1.9232 -47.499 224.97)" gradientUnits="userSpaceOnUse">
<stop stop-color="#dc3445" stop-opacity=".25" offset="0"/>
<stop stop-color="#dc3445" stop-opacity=".25" offset=".0625"/>
<stop stop-color="#dc3545" stop-opacity=".25" offset=".078125"/>
<stop stop-color="#dc3645" stop-opacity=".25" offset=".085938"/>
<stop stop-color="#dc3646" stop-opacity=".25" offset=".09375"/>
<stop stop-color="#dc3747" stop-opacity=".25" offset=".10156"/>
<stop stop-color="#dc3848" stop-opacity=".25" offset=".10938"/>
<stop stop-color="#dc3848" stop-opacity=".25" offset=".11719"/>
<stop stop-color="#dc3949" stop-opacity=".25" offset=".125"/>
<stop stop-color="#dc3a4a" stop-opacity=".25" offset=".13281"/>
<stop stop-color="#dd3b4a" stop-opacity=".25" offset=".14062"/>
<stop stop-color="#dd3b4b" stop-opacity=".25" offset=".14844"/>
<stop stop-color="#dd3c4c" stop-opacity=".25" offset=".15625"/>
<stop stop-color="#dd3d4c" stop-opacity=".25" offset=".16406"/>
<stop stop-color="#dd3e4d" stop-opacity=".25" offset=".17188"/>
<stop stop-color="#dd3e4e" stop-opacity=".25" offset=".17969"/>
<stop stop-color="#dd3f4e" stop-opacity=".25" offset=".1875"/>
<stop stop-color="#dd404f" stop-opacity=".25" offset=".19531"/>
<stop stop-color="#de4150" stop-opacity=".25" offset=".20312"/>
<stop stop-color="#de4150" stop-opacity=".25" offset=".21094"/>
<stop stop-color="#de4251" stop-opacity=".25" offset=".21875"/>
<stop stop-color="#de4352" stop-opacity=".25" offset=".22656"/>
<stop stop-color="#de4452" stop-opacity=".25" offset=".23438"/>
<stop stop-color="#de4453" stop-opacity=".25" offset=".24219"/>
<stop stop-color="#de4554" stop-opacity=".25" offset=".25"/>
<stop stop-color="#de4654" stop-opacity=".25" offset=".25781"/>
<stop stop-color="#df4655" stop-opacity=".25" offset=".26562"/>
<stop stop-color="#df4756" stop-opacity=".25" offset=".27344"/>
<stop stop-color="#df4856" stop-opacity=".25" offset=".28125"/>
<stop stop-color="#df4957" stop-opacity=".25" offset=".28906"/>
<stop stop-color="#df4958" stop-opacity=".25" offset=".29688"/>
<stop stop-color="#df4a58" stop-opacity=".25" offset=".30469"/>
<stop stop-color="#df4b59" stop-opacity=".25" offset=".3125"/>
<stop stop-color="#e04c5a" stop-opacity=".25" offset=".32031"/>
<stop stop-color="#e04c5a" stop-opacity=".25" offset=".32812"/>
<stop stop-color="#e04d5b" stop-opacity=".25" offset=".33594"/>
<stop stop-color="#e04e5c" stop-opacity=".25" offset=".34375"/>
<stop stop-color="#e04f5c" stop-opacity=".25" offset=".35156"/>
<stop stop-color="#e04f5d" stop-opacity=".25" offset=".35938"/>
<stop stop-color="#e0505e" stop-opacity=".25" offset=".36719"/>
<stop stop-color="#e0515f" stop-opacity=".25" offset=".375"/>
<stop stop-color="#e1515f" stop-opacity=".25" offset=".38281"/>
<stop stop-color="#e15260" stop-opacity=".25" offset=".39062"/>
<stop stop-color="#e15361" stop-opacity=".25" offset=".39844"/>
<stop stop-color="#e15461" stop-opacity=".25" offset=".40625"/>
<stop stop-color="#e15462" stop-opacity=".25" offset=".41406"/>
<stop stop-color="#e15563" stop-opacity=".25" offset=".42188"/>
<stop stop-color="#e15663" stop-opacity=".25" offset=".42969"/>
<stop stop-color="#e15764" stop-opacity=".25" offset=".4375"/>
<stop stop-color="#e25765" stop-opacity=".25" offset=".44531"/>
<stop stop-color="#e25865" stop-opacity=".25" offset=".45312"/>
<stop stop-color="#e25966" stop-opacity=".25" offset=".46094"/>
<stop stop-color="#e25a67" stop-opacity=".25" offset=".46875"/>
<stop stop-color="#e25a67" stop-opacity=".25" offset=".47656"/>
<stop stop-color="#e25b68" stop-opacity=".25" offset=".48438"/>
<stop stop-color="#e25c69" stop-opacity=".25" offset=".49219"/>
<stop stop-color="#e25d69" stop-opacity=".25" offset=".5"/>
<stop stop-color="#e35d6a" stop-opacity=".25" offset=".50781"/>
<stop stop-color="#e35e6b" stop-opacity=".25" offset=".51562"/>
<stop stop-color="#e35f6b" stop-opacity=".25" offset=".52344"/>
<stop stop-color="#e35f6c" stop-opacity=".25" offset=".53125"/>
<stop stop-color="#e3606d" stop-opacity=".25" offset=".53906"/>
<stop stop-color="#e3616d" stop-opacity=".25" offset=".54688"/>
<stop stop-color="#e3626e" stop-opacity=".25" offset=".55469"/>
<stop stop-color="#e3626f" stop-opacity=".25" offset=".5625"/>
<stop stop-color="#e4636f" stop-opacity=".25" offset=".57031"/>
<stop stop-color="#e46470" stop-opacity=".25" offset=".57812"/>
<stop stop-color="#e46571" stop-opacity=".25" offset=".58594"/>
<stop stop-color="#e46571" stop-opacity=".25" offset=".59375"/>
<stop stop-color="#e46672" stop-opacity=".25" offset=".60156"/>
<stop stop-color="#e46773" stop-opacity=".25" offset=".60938"/>
<stop stop-color="#e46874" stop-opacity=".25" offset=".61719"/>
<stop stop-color="#e46874" stop-opacity=".25" offset=".625"/>
<stop stop-color="#e56975" stop-opacity=".25" offset=".63281"/>
<stop stop-color="#e56a76" stop-opacity=".25" offset=".64062"/>
<stop stop-color="#e56a76" stop-opacity=".25" offset=".64844"/>
<stop stop-color="#e56b77" stop-opacity=".25" offset=".65625"/>
<stop stop-color="#e56c78" stop-opacity=".25" offset=".66406"/>
<stop stop-color="#e56d78" stop-opacity=".25" offset=".67188"/>
<stop stop-color="#e56d79" stop-opacity=".25" offset=".67969"/>
<stop stop-color="#e56e7a" stop-opacity=".25" offset=".6875"/>
<stop stop-color="#e66f7a" stop-opacity=".25" offset=".69531"/>
<stop stop-color="#e6707b" stop-opacity=".25" offset=".70312"/>
<stop stop-color="#e6707c" stop-opacity=".25" offset=".71094"/>
<stop stop-color="#e6717c" stop-opacity=".25" offset=".71875"/>
<stop stop-color="#e6727d" stop-opacity=".25" offset=".72656"/>
<stop stop-color="#e6737e" stop-opacity=".25" offset=".73438"/>
<stop stop-color="#e6737e" stop-opacity=".25" offset=".74219"/>
<stop stop-color="#e7747f" stop-opacity=".25" offset=".75"/>
<stop stop-color="#e77580" stop-opacity=".25" offset=".75781"/>
<stop stop-color="#e77680" stop-opacity=".25" offset=".76562"/>
<stop stop-color="#e77681" stop-opacity=".25" offset=".77344"/>
<stop stop-color="#e77782" stop-opacity=".25" offset=".78125"/>
<stop stop-color="#e77882" stop-opacity=".25" offset=".78906"/>
<stop stop-color="#e77883" stop-opacity=".25" offset=".79688"/>
<stop stop-color="#e77984" stop-opacity=".25" offset=".80469"/>
<stop stop-color="#e87a84" stop-opacity=".25" offset=".8125"/>
<stop stop-color="#e87b85" stop-opacity=".25" offset=".82031"/>
<stop stop-color="#e87b86" stop-opacity=".25" offset=".82812"/>
<stop stop-color="#e87c86" stop-opacity=".25" offset=".83594"/>
<stop stop-color="#e87d87" stop-opacity=".25" offset=".84375"/>
<stop stop-color="#e87e88" stop-opacity=".25" offset=".85156"/>
<stop stop-color="#e87e89" stop-opacity=".25" offset=".85938"/>
<stop stop-color="#e87f89" stop-opacity=".25" offset=".86719"/>
<stop stop-color="#e9808a" stop-opacity=".25" offset=".875"/>
<stop stop-color="#e9818b" stop-opacity=".25" offset=".88281"/>
<stop stop-color="#e9818b" stop-opacity=".25" offset=".89062"/>
<stop stop-color="#e9828c" stop-opacity=".25" offset=".89844"/>
<stop stop-color="#e9838d" stop-opacity=".25" offset=".90625"/>
<stop stop-color="#e9838d" stop-opacity=".25" offset=".91406"/>
<stop stop-color="#e9848e" stop-opacity=".25" offset=".92188"/>
<stop stop-color="#e9858f" stop-opacity=".25" offset=".9375"/>
<stop stop-color="#ea858f" stop-opacity=".25" offset="1"/>
</linearGradient>
<clipPath id="at">
<path d="m4 47h171v12h-171z"/>
</clipPath>
<clipPath id="as">
<path d="m4.7852 58.848c0-6.2617 38.074-11.34 85.043-11.34 46.965 0 85.039 5.0781 85.039 11.34z"/>
</clipPath>
<clipPath id="ar">
<path d="m-47.375 112.85 286.54-50.527-12.133-68.816-286.54 50.523z"/>
</clipPath>
<linearGradient id="v" x2="0" y1="20.878" y2="79.122" gradientTransform="matrix(2.8654 -.50525 -.12134 -.68817 -47.377 112.85)" gradientUnits="userSpaceOnUse">
<stop stop-color="#dc3445" stop-opacity=".25" offset="0"/>
<stop stop-color="#dc3445" stop-opacity=".25" offset=".0625"/>
<stop stop-color="#dc3545" stop-opacity=".25" offset=".078125"/>
<stop stop-color="#dc3645" stop-opacity=".25" offset=".085938"/>
<stop stop-color="#dc3646" stop-opacity=".25" offset=".09375"/>
<stop stop-color="#dc3747" stop-opacity=".25" offset=".10156"/>
<stop stop-color="#dc3848" stop-opacity=".25" offset=".10938"/>
<stop stop-color="#dc3848" stop-opacity=".25" offset=".11719"/>
<stop stop-color="#dc3949" stop-opacity=".25" offset=".125"/>
<stop stop-color="#dc3a4a" stop-opacity=".25" offset=".13281"/>
<stop stop-color="#dd3b4a" stop-opacity=".25" offset=".14062"/>
<stop stop-color="#dd3b4b" stop-opacity=".25" offset=".14844"/>
<stop stop-color="#dd3c4c" stop-opacity=".25" offset=".15625"/>
<stop stop-color="#dd3d4c" stop-opacity=".25" offset=".16406"/>
<stop stop-color="#dd3e4d" stop-opacity=".25" offset=".17188"/>
<stop stop-color="#dd3e4e" stop-opacity=".25" offset=".17969"/>
<stop stop-color="#dd3f4e" stop-opacity=".25" offset=".1875"/>
<stop stop-color="#dd404f" stop-opacity=".25" offset=".19531"/>
<stop stop-color="#de4150" stop-opacity=".25" offset=".20312"/>
<stop stop-color="#de4150" stop-opacity=".25" offset=".21094"/>
<stop stop-color="#de4251" stop-opacity=".25" offset=".21875"/>
<stop stop-color="#de4352" stop-opacity=".25" offset=".22656"/>
<stop stop-color="#de4452" stop-opacity=".25" offset=".23438"/>
<stop stop-color="#de4453" stop-opacity=".25" offset=".24219"/>
<stop stop-color="#de4554" stop-opacity=".25" offset=".25"/>
<stop stop-color="#de4654" stop-opacity=".25" offset=".25781"/>
<stop stop-color="#df4655" stop-opacity=".25" offset=".26562"/>
<stop stop-color="#df4756" stop-opacity=".25" offset=".27344"/>
<stop stop-color="#df4856" stop-opacity=".25" offset=".28125"/>
<stop stop-color="#df4957" stop-opacity=".25" offset=".28906"/>
<stop stop-color="#df4958" stop-opacity=".25" offset=".29688"/>
<stop stop-color="#df4a58" stop-opacity=".25" offset=".30469"/>
<stop stop-color="#df4b59" stop-opacity=".25" offset=".3125"/>
<stop stop-color="#e04c5a" stop-opacity=".25" offset=".32031"/>
<stop stop-color="#e04c5a" stop-opacity=".25" offset=".32812"/>
<stop stop-color="#e04d5b" stop-opacity=".25" offset=".33594"/>
<stop stop-color="#e04e5c" stop-opacity=".25" offset=".34375"/>
<stop stop-color="#e04f5c" stop-opacity=".25" offset=".35156"/>
<stop stop-color="#e04f5d" stop-opacity=".25" offset=".35938"/>
<stop stop-color="#e0505e" stop-opacity=".25" offset=".36719"/>
<stop stop-color="#e0515f" stop-opacity=".25" offset=".375"/>
<stop stop-color="#e1515f" stop-opacity=".25" offset=".38281"/>
<stop stop-color="#e15260" stop-opacity=".25" offset=".39062"/>
<stop stop-color="#e15361" stop-opacity=".25" offset=".39844"/>
<stop stop-color="#e15461" stop-opacity=".25" offset=".40625"/>
<stop stop-color="#e15462" stop-opacity=".25" offset=".41406"/>
<stop stop-color="#e15563" stop-opacity=".25" offset=".42188"/>
<stop stop-color="#e15663" stop-opacity=".25" offset=".42969"/>
<stop stop-color="#e15764" stop-opacity=".25" offset=".4375"/>
<stop stop-color="#e25765" stop-opacity=".25" offset=".44531"/>
<stop stop-color="#e25865" stop-opacity=".25" offset=".45312"/>
<stop stop-color="#e25966" stop-opacity=".25" offset=".46094"/>
<stop stop-color="#e25a67" stop-opacity=".25" offset=".46875"/>
<stop stop-color="#e25a67" stop-opacity=".25" offset=".47656"/>
<stop stop-color="#e25b68" stop-opacity=".25" offset=".48438"/>
<stop stop-color="#e25c69" stop-opacity=".25" offset=".49219"/>
<stop stop-color="#e25d69" stop-opacity=".25" offset=".5"/>
<stop stop-color="#e35d6a" stop-opacity=".25" offset=".50781"/>
<stop stop-color="#e35e6b" stop-opacity=".25" offset=".51562"/>
<stop stop-color="#e35f6b" stop-opacity=".25" offset=".52344"/>
<stop stop-color="#e35f6c" stop-opacity=".25" offset=".53125"/>
<stop stop-color="#e3606d" stop-opacity=".25" offset=".53906"/>
<stop stop-color="#e3616d" stop-opacity=".25" offset=".54688"/>
<stop stop-color="#e3626e" stop-opacity=".25" offset=".55469"/>
<stop stop-color="#e3626f" stop-opacity=".25" offset=".5625"/>
<stop stop-color="#e4636f" stop-opacity=".25" offset=".57031"/>
<stop stop-color="#e46470" stop-opacity=".25" offset=".57812"/>
<stop stop-color="#e46571" stop-opacity=".25" offset=".58594"/>
<stop stop-color="#e46571" stop-opacity=".25" offset=".59375"/>
<stop stop-color="#e46672" stop-opacity=".25" offset=".60156"/>
<stop stop-color="#e46773" stop-opacity=".25" offset=".60938"/>
<stop stop-color="#e46874" stop-opacity=".25" offset=".61719"/>
<stop stop-color="#e46874" stop-opacity=".25" offset=".625"/>
<stop stop-color="#e56975" stop-opacity=".25" offset=".63281"/>
<stop stop-color="#e56a76" stop-opacity=".25" offset=".64062"/>
<stop stop-color="#e56a76" stop-opacity=".25" offset=".64844"/>
<stop stop-color="#e56b77" stop-opacity=".25" offset=".65625"/>
<stop stop-color="#e56c78" stop-opacity=".25" offset=".66406"/>
<stop stop-color="#e56d78" stop-opacity=".25" offset=".67188"/>
<stop stop-color="#e56d79" stop-opacity=".25" offset=".67969"/>
<stop stop-color="#e56e7a" stop-opacity=".25" offset=".6875"/>
<stop stop-color="#e66f7a" stop-opacity=".25" offset=".69531"/>
<stop stop-color="#e6707b" stop-opacity=".25" offset=".70312"/>
<stop stop-color="#e6707c" stop-opacity=".25" offset=".71094"/>
<stop stop-color="#e6717c" stop-opacity=".25" offset=".71875"/>
<stop stop-color="#e6727d" stop-opacity=".25" offset=".72656"/>
<stop stop-color="#e6737e" stop-opacity=".25" offset=".73438"/>
<stop stop-color="#e6737e" stop-opacity=".25" offset=".74219"/>
<stop stop-color="#e7747f" stop-opacity=".25" offset=".75"/>
<stop stop-color="#e77580" stop-opacity=".25" offset=".75781"/>
<stop stop-color="#e77680" stop-opacity=".25" offset=".76562"/>
<stop stop-color="#e77681" stop-opacity=".25" offset=".77344"/>
<stop stop-color="#e77782" stop-opacity=".25" offset=".78125"/>
<stop stop-color="#e77882" stop-opacity=".25" offset=".78906"/>
<stop stop-color="#e77883" stop-opacity=".25" offset=".79688"/>
<stop stop-color="#e77984" stop-opacity=".25" offset=".80469"/>
<stop stop-color="#e87a84" stop-opacity=".25" offset=".8125"/>
<stop stop-color="#e87b85" stop-opacity=".25" offset=".82031"/>
<stop stop-color="#e87b86" stop-opacity=".25" offset=".82812"/>
<stop stop-color="#e87c86" stop-opacity=".25" offset=".83594"/>
<stop stop-color="#e87d87" stop-opacity=".25" offset=".84375"/>
<stop stop-color="#e87e88" stop-opacity=".25" offset=".85156"/>
<stop stop-color="#e87e89" stop-opacity=".25" offset=".85938"/>
<stop stop-color="#e87f89" stop-opacity=".25" offset=".86719"/>
<stop stop-color="#e9808a" stop-opacity=".25" offset=".875"/>
<stop stop-color="#e9818b" stop-opacity=".25" offset=".88281"/>
<stop stop-color="#e9818b" stop-opacity=".25" offset=".89062"/>
<stop stop-color="#e9828c" stop-opacity=".25" offset=".89844"/>
<stop stop-color="#e9838d" stop-opacity=".25" offset=".90625"/>
<stop stop-color="#e9838d" stop-opacity=".25" offset=".91406"/>
<stop stop-color="#e9848e" stop-opacity=".25" offset=".92188"/>
<stop stop-color="#e9858f" stop-opacity=".25" offset=".9375"/>
<stop stop-color="#ea858f" stop-opacity=".25" offset="1"/>
</linearGradient>
<clipPath id="aq">
<path d="m1.1094 66.332h19.844v113.39h-19.844z"/>
</clipPath>
<linearGradient id="u" x2="0" y1="25.003" y2="74.997" gradientTransform="matrix(0 -2.268 -.3969 0 30.876 236.43)" gradientUnits="userSpaceOnUse">
<stop stop-color="#b2b2b2" offset="0"/>
<stop stop-color="#b2b2b2" offset=".015625"/>
<stop stop-color="#b3b3b3" offset=".03125"/>
<stop stop-color="#b4b4b4" offset=".046875"/>
<stop stop-color="#b5b5b5" offset=".0625"/>
<stop stop-color="#b6b6b6" offset=".078125"/>
<stop stop-color="#b6b6b6" offset=".09375"/>
<stop stop-color="#b7b7b7" offset=".10938"/>
<stop stop-color="#b8b8b8" offset=".125"/>
<stop stop-color="#b9b9b9" offset=".14062"/>
<stop stop-color="#bababa" offset=".15625"/>
<stop stop-color="#bababa" offset=".17188"/>
<stop stop-color="#bbb" offset=".1875"/>
<stop stop-color="#bcbcbc" offset=".20312"/>
<stop stop-color="#bdbdbd" offset=".21875"/>
<stop stop-color="#bebebe" offset=".23438"/>
<stop stop-color="#bebebe" offset=".25"/>
<stop stop-color="#bfbfbf" offset=".26562"/>
<stop stop-color="#c0c0c0" offset=".28125"/>
<stop stop-color="#c1c1c1" offset=".29688"/>
<stop stop-color="#c2c2c2" offset=".3125"/>
<stop stop-color="#c2c2c2" offset=".32812"/>
<stop stop-color="#c3c3c3" offset=".34375"/>
<stop stop-color="#c4c4c4" offset=".35938"/>
<stop stop-color="#c5c5c5" offset=".375"/>
<stop stop-color="#c6c6c6" offset=".39062"/>
<stop stop-color="#c6c6c6" offset=".40625"/>
<stop stop-color="#c7c7c7" offset=".42188"/>
<stop stop-color="#c8c8c8" offset=".4375"/>
<stop stop-color="#c9c9c9" offset=".45312"/>
<stop stop-color="#cacaca" offset=".46875"/>
<stop stop-color="#cacaca" offset=".48438"/>
<stop stop-color="#cbcbcb" offset=".5"/>
<stop stop-color="#cbcbcb" offset=".51562"/>
<stop stop-color="#cacaca" offset=".53125"/>
<stop stop-color="#cacaca" offset=".54688"/>
<stop stop-color="#c9c9c9" offset=".5625"/>
<stop stop-color="#c8c8c8" offset=".57812"/>
<stop stop-color="#c7c7c7" offset=".59375"/>
<stop stop-color="#c6c6c6" offset=".60938"/>
<stop stop-color="#c6c6c6" offset=".625"/>
<stop stop-color="#c5c5c5" offset=".64062"/>
<stop stop-color="#c4c4c4" offset=".65625"/>
<stop stop-color="#c3c3c3" offset=".67188"/>
<stop stop-color="#c2c2c2" offset=".6875"/>
<stop stop-color="#c2c2c2" offset=".70312"/>
<stop stop-color="#c1c1c1" offset=".71875"/>
<stop stop-color="#c0c0c0" offset=".73438"/>
<stop stop-color="#bfbfbf" offset=".75"/>
<stop stop-color="#bebebe" offset=".76562"/>
<stop stop-color="#bebebe" offset=".78125"/>
<stop stop-color="#bdbdbd" offset=".79688"/>
<stop stop-color="#bcbcbc" offset=".8125"/>
<stop stop-color="#bbb" offset=".82812"/>
<stop stop-color="#bababa" offset=".84375"/>
<stop stop-color="#bababa" offset=".85938"/>
<stop stop-color="#b9b9b9" offset=".875"/>
<stop stop-color="#b8b8b8" offset=".89062"/>
<stop stop-color="#b7b7b7" offset=".90625"/>
<stop stop-color="#b6b6b6" offset=".92188"/>
<stop stop-color="#b6b6b6" offset=".9375"/>
<stop stop-color="#b5b5b5" offset=".95312"/>
<stop stop-color="#b4b4b4" offset=".96875"/>
<stop stop-color="#b3b3b3" offset=".98438"/>
<stop stop-color="#b2b2b2" offset="1"/>
</linearGradient>
<clipPath id="ap">
<path d="m143.24 66.332h19.844v113.39h-19.844z"/>
</clipPath>
<linearGradient id="t" x2="0" y1="25.003" y2="74.997" gradientTransform="matrix(0 -2.268 -.3969 0 173.01 236.43)" gradientUnits="userSpaceOnUse">
<stop stop-color="#b2b2b2" offset="0"/>
<stop stop-color="#b2b2b2" offset=".015625"/>
<stop stop-color="#b3b3b3" offset=".03125"/>
<stop stop-color="#b4b4b4" offset=".046875"/>
<stop stop-color="#b5b5b5" offset=".0625"/>
<stop stop-color="#b6b6b6" offset=".078125"/>
<stop stop-color="#b6b6b6" offset=".09375"/>
<stop stop-color="#b7b7b7" offset=".10938"/>
<stop stop-color="#b8b8b8" offset=".125"/>
<stop stop-color="#b9b9b9" offset=".14062"/>
<stop stop-color="#bababa" offset=".15625"/>
<stop stop-color="#bababa" offset=".17188"/>
<stop stop-color="#bbb" offset=".1875"/>
<stop stop-color="#bcbcbc" offset=".20312"/>
<stop stop-color="#bdbdbd" offset=".21875"/>
<stop stop-color="#bebebe" offset=".23438"/>
<stop stop-color="#bebebe" offset=".25"/>
<stop stop-color="#bfbfbf" offset=".26562"/>
<stop stop-color="#c0c0c0" offset=".28125"/>
<stop stop-color="#c1c1c1" offset=".29688"/>
<stop stop-color="#c2c2c2" offset=".3125"/>
<stop stop-color="#c2c2c2" offset=".32812"/>
<stop stop-color="#c3c3c3" offset=".34375"/>
<stop stop-color="#c4c4c4" offset=".35938"/>
<stop stop-color="#c5c5c5" offset=".375"/>
<stop stop-color="#c6c6c6" offset=".39062"/>
<stop stop-color="#c6c6c6" offset=".40625"/>
<stop stop-color="#c7c7c7" offset=".42188"/>
<stop stop-color="#c8c8c8" offset=".4375"/>
<stop stop-color="#c9c9c9" offset=".45312"/>
<stop stop-color="#cacaca" offset=".46875"/>
<stop stop-color="#cacaca" offset=".48438"/>
<stop stop-color="#cbcbcb" offset=".5"/>
<stop stop-color="#cbcbcb" offset=".51562"/>
<stop stop-color="#cacaca" offset=".53125"/>
<stop stop-color="#cacaca" offset=".54688"/>
<stop stop-color="#c9c9c9" offset=".5625"/>
<stop stop-color="#c8c8c8" offset=".57812"/>
<stop stop-color="#c7c7c7" offset=".59375"/>
<stop stop-color="#c6c6c6" offset=".60938"/>
<stop stop-color="#c6c6c6" offset=".625"/>
<stop stop-color="#c5c5c5" offset=".64062"/>
<stop stop-color="#c4c4c4" offset=".65625"/>
<stop stop-color="#c3c3c3" offset=".67188"/>
<stop stop-color="#c2c2c2" offset=".6875"/>
<stop stop-color="#c2c2c2" offset=".70312"/>
<stop stop-color="#c1c1c1" offset=".71875"/>
<stop stop-color="#c0c0c0" offset=".73438"/>
<stop stop-color="#bfbfbf" offset=".75"/>
<stop stop-color="#bebebe" offset=".76562"/>
<stop stop-color="#bebebe" offset=".78125"/>
<stop stop-color="#bdbdbd" offset=".79688"/>
<stop stop-color="#bcbcbc" offset=".8125"/>
<stop stop-color="#bbb" offset=".82812"/>
<stop stop-color="#bababa" offset=".84375"/>
<stop stop-color="#bababa" offset=".85938"/>
<stop stop-color="#b9b9b9" offset=".875"/>
<stop stop-color="#b8b8b8" offset=".89062"/>
<stop stop-color="#b7b7b7" offset=".90625"/>
<stop stop-color="#b6b6b6" offset=".92188"/>
<stop stop-color="#b6b6b6" offset=".9375"/>
<stop stop-color="#b5b5b5" offset=".95312"/>
<stop stop-color="#b4b4b4" offset=".96875"/>
<stop stop-color="#b3b3b3" offset=".98438"/>
<stop stop-color="#b2b2b2" offset="1"/>
</linearGradient>
<clipPath id="ba">
<path d="m67 20h30v11h-30z"/>
</clipPath>
<clipPath id="az">
<path d="m94.852 20.137h-25.512c-0.78125 0-1.4141 0.63281-1.4141 1.418v8.5039c0 0.78125 0.63281 1.418 1.4141 1.418h25.512c0.78516 0 1.418-0.63672 1.418-1.418v-8.5039c0-0.78516-0.63281-1.418-1.418-1.418z"/>
</clipPath>
<linearGradient id="s" x2="0" y1="25.002" y2="74.998" gradientTransform="matrix(.567 0 0 -.22679 53.747 37.145)" gradientUnits="userSpaceOnUse">
<stop stop-color="#ccc" offset="0"/>
<stop stop-color="#ccc" offset=".015625"/>
<stop stop-color="#cdcdcd" offset=".03125"/>
<stop stop-color="#cdcdcd" offset=".046875"/>
<stop stop-color="#cecece" offset=".0625"/>
<stop stop-color="#cfcfcf" offset=".078125"/>
<stop stop-color="#d0d0d0" offset=".09375"/>
<stop stop-color="#d1d1d1" offset=".10938"/>
<stop stop-color="#d1d1d1" offset=".125"/>
<stop stop-color="#d2d2d2" offset=".14062"/>
<stop stop-color="#d3d3d3" offset=".15625"/>
<stop stop-color="#d4d4d4" offset=".17188"/>
<stop stop-color="#d5d5d5" offset=".1875"/>
<stop stop-color="#d5d5d5" offset=".20312"/>
<stop stop-color="#d6d6d6" offset=".21875"/>
<stop stop-color="#d7d7d7" offset=".23438"/>
<stop stop-color="#d8d8d8" offset=".25"/>
<stop stop-color="#d9d9d9" offset=".26562"/>
<stop stop-color="#d9d9d9" offset=".28125"/>
<stop stop-color="#dadada" offset=".29688"/>
<stop stop-color="#dbdbdb" offset=".3125"/>
<stop stop-color="#dcdcdc" offset=".32812"/>
<stop stop-color="#ddd" offset=".34375"/>
<stop stop-color="#ddd" offset=".35938"/>
<stop stop-color="#dedede" offset=".375"/>
<stop stop-color="#dfdfdf" offset=".39062"/>
<stop stop-color="#e0e0e0" offset=".40625"/>
<stop stop-color="#e1e1e1" offset=".42188"/>
<stop stop-color="#e1e1e1" offset=".4375"/>
<stop stop-color="#e2e2e2" offset=".45312"/>
<stop stop-color="#e3e3e3" offset=".46875"/>
<stop stop-color="#e4e4e4" offset=".48438"/>
<stop stop-color="#e5e5e5" offset=".5"/>
<stop stop-color="#e5e5e5" offset=".51562"/>
<stop stop-color="#e4e4e4" offset=".53125"/>
<stop stop-color="#e3e3e3" offset=".54688"/>
<stop stop-color="#e2e2e2" offset=".5625"/>
<stop stop-color="#e1e1e1" offset=".57812"/>
<stop stop-color="#e1e1e1" offset=".59375"/>
<stop stop-color="#e0e0e0" offset=".60938"/>
<stop stop-color="#dfdfdf" offset=".625"/>
<stop stop-color="#dedede" offset=".64062"/>
<stop stop-color="#ddd" offset=".65625"/>
<stop stop-color="#ddd" offset=".67188"/>
<stop stop-color="#dcdcdc" offset=".6875"/>
<stop stop-color="#dbdbdb" offset=".70312"/>
<stop stop-color="#dadada" offset=".71875"/>
<stop stop-color="#d9d9d9" offset=".73438"/>
<stop stop-color="#d9d9d9" offset=".75"/>
<stop stop-color="#d8d8d8" offset=".76562"/>
<stop stop-color="#d7d7d7" offset=".78125"/>
<stop stop-color="#d6d6d6" offset=".79688"/>
<stop stop-color="#d5d5d5" offset=".8125"/>
<stop stop-color="#d5d5d5" offset=".82812"/>
<stop stop-color="#d4d4d4" offset=".84375"/>
<stop stop-color="#d3d3d3" offset=".85938"/>
<stop stop-color="#d2d2d2" offset=".875"/>
<stop stop-color="#d1d1d1" offset=".89062"/>
<stop stop-color="#d1d1d1" offset=".90625"/>
<stop stop-color="#d0d0d0" offset=".92188"/>
<stop stop-color="#cfcfcf" offset=".9375"/>
<stop stop-color="#cecece" offset=".95312"/>
<stop stop-color="#cdcdcd" offset=".96875"/>
<stop stop-color="#cdcdcd" offset=".98438"/>
<stop stop-color="#ccc" offset="1"/>
</linearGradient>
<clipPath id="ay">
<path d="m72 16h21v20h-21z"/>
</clipPath>
<clipPath id="ax">
<path d="m90.602 15.883h-17.008c-0.78516 0-1.418 0.63672-1.418 1.418v17.008c0 0.78516 0.63281 1.418 1.418 1.418h17.008c0.78125 0 1.418-0.63281 1.418-1.418v-17.008c0-0.78125-0.63672-1.418-1.418-1.418z"/>
</clipPath>
<linearGradient id="r" x2="0" y1="25.003" y2="74.997" gradientTransform="matrix(.3969 0 0 -.3969 62.252 45.651)" gradientUnits="userSpaceOnUse">
<stop stop-color="#ccc" offset="0"/>
<stop stop-color="#ccc" offset=".015625"/>
<stop stop-color="#cdcdcd" offset=".03125"/>
<stop stop-color="#cdcdcd" offset=".046875"/>
<stop stop-color="#cecece" offset=".0625"/>
<stop stop-color="#cfcfcf" offset=".078125"/>
<stop stop-color="#d0d0d0" offset=".09375"/>
<stop stop-color="#d1d1d1" offset=".10938"/>
<stop stop-color="#d1d1d1" offset=".125"/>
<stop stop-color="#d2d2d2" offset=".14062"/>
<stop stop-color="#d3d3d3" offset=".15625"/>
<stop stop-color="#d4d4d4" offset=".17188"/>
<stop stop-color="#d5d5d5" offset=".1875"/>
<stop stop-color="#d5d5d5" offset=".20312"/>
<stop stop-color="#d6d6d6" offset=".21875"/>
<stop stop-color="#d7d7d7" offset=".23438"/>
<stop stop-color="#d8d8d8" offset=".25"/>
<stop stop-color="#d9d9d9" offset=".26562"/>
<stop stop-color="#d9d9d9" offset=".28125"/>
<stop stop-color="#dadada" offset=".29688"/>
<stop stop-color="#dbdbdb" offset=".3125"/>
<stop stop-color="#dcdcdc" offset=".32812"/>
<stop stop-color="#ddd" offset=".34375"/>
<stop stop-color="#ddd" offset=".35938"/>
<stop stop-color="#dedede" offset=".375"/>
<stop stop-color="#dfdfdf" offset=".39062"/>
<stop stop-color="#e0e0e0" offset=".40625"/>
<stop stop-color="#e1e1e1" offset=".42188"/>
<stop stop-color="#e1e1e1" offset=".4375"/>
<stop stop-color="#e2e2e2" offset=".45312"/>
<stop stop-color="#e3e3e3" offset=".46875"/>
<stop stop-color="#e4e4e4" offset=".48438"/>
<stop stop-color="#e5e5e5" offset=".5"/>
<stop stop-color="#e5e5e5" offset=".51562"/>
<stop stop-color="#e4e4e4" offset=".53125"/>
<stop stop-color="#e3e3e3" offset=".54688"/>
<stop stop-color="#e2e2e2" offset=".5625"/>
<stop stop-color="#e1e1e1" offset=".57812"/>
<stop stop-color="#e1e1e1" offset=".59375"/>
<stop stop-color="#e0e0e0" offset=".60938"/>
<stop stop-color="#dfdfdf" offset=".625"/>
<stop stop-color="#dedede" offset=".64062"/>
<stop stop-color="#ddd" offset=".65625"/>
<stop stop-color="#ddd" offset=".67188"/>
<stop stop-color="#dcdcdc" offset=".6875"/>
<stop stop-color="#dbdbdb" offset=".70312"/>
<stop stop-color="#dadada" offset=".71875"/>
<stop stop-color="#d9d9d9" offset=".73438"/>
<stop stop-color="#d9d9d9" offset=".75"/>
<stop stop-color="#d8d8d8" offset=".76562"/>
<stop stop-color="#d7d7d7" offset=".78125"/>
<stop stop-color="#d6d6d6" offset=".79688"/>
<stop stop-color="#d5d5d5" offset=".8125"/>
<stop stop-color="#d5d5d5" offset=".82812"/>
<stop stop-color="#d4d4d4" offset=".84375"/>
<stop stop-color="#d3d3d3" offset=".85938"/>
<stop stop-color="#d2d2d2" offset=".875"/>
<stop stop-color="#d1d1d1" offset=".89062"/>
<stop stop-color="#d1d1d1" offset=".90625"/>
<stop stop-color="#d0d0d0" offset=".92188"/>
<stop stop-color="#cfcfcf" offset=".9375"/>
<stop stop-color="#cecece" offset=".95312"/>
<stop stop-color="#cdcdcd" offset=".96875"/>
<stop stop-color="#cdcdcd" offset=".98438"/>
<stop stop-color="#ccc" offset="1"/>
</linearGradient>
</defs>
<g clip-path="url(#bb)">
<g clip-path="url(#aw)">
<path d="m175.27 144.29h-170.48v-125.12h170.48z" fill="url(#x)"/>
</g>
</g>
<path transform="matrix(1,0,0,-1,90.026,87.394)" d="m-85.241-56.891v113.79c0 6.2617 38.074 11.336 85.043 11.336 46.965 0 85.039-5.0742 85.039-11.336l0.39844-113.79h-170.48" fill="none" stroke="#7f7f7f" stroke-linecap="round" stroke-miterlimit="10" stroke-width=".79701"/>
<path transform="matrix(1,0,0,-1,90.026,87.394)" d="m85.24-56.891c0 6.2617-38.074 11.336-85.039 11.336-46.969 0-85.043-5.0742-85.043-11.336" fill="none" stroke="#7f7f7f" stroke-dasharray="2.98883,2.98883" stroke-miterlimit="10" stroke-width=".79701"/>
<g clip-path="url(#av)">
<g clip-path="url(#au)">
<path d="m9.9258 173.44-19.75-112.02 179.95-31.73 19.75 112.02z" fill="url(#w)"/>
</g>
</g>
<g clip-path="url(#at)">
<g clip-path="url(#as)">
<g clip-path="url(#ar)">
<path d="m9.9141 87.934-7.0664-40.082 166.89-29.426 7.0664 40.082z" fill="url(#v)"/>
</g>
</g>
</g>
<g clip-path="url(#aq)">
<path d="m20.953 179.72h-19.844v-113.39h19.844z" fill="url(#u)"/>
</g>
<path transform="matrix(1,0,0,-1,90.026,87.394)" d="m-88.917-92.325h19.844v113.39h-19.844z" fill="none" stroke="#5f5f5f" stroke-miterlimit="10" stroke-width=".79701"/>
<g>
<use x="14.464" y="136.171" xlink:href="#q"/>
<use x="14.464" y="131.1897" xlink:href="#ao"/>
<use x="14.464" y="125.654479" xlink:href="#b"/>
<use x="14.464" y="120.394227" xlink:href="#p"/>
<use x="14.464" y="114.859006" xlink:href="#b"/>
</g>
<g clip-path="url(#ap)">
<path d="m163.09 179.72h-19.844v-113.39h19.844z" fill="url(#t)"/>
</g>
<path transform="matrix(1,0,0,-1,90.026,87.394)" d="m53.216-92.325h19.844v113.39h-19.844z" fill="none" stroke="#5f5f5f" stroke-miterlimit="10" stroke-width=".79701"/>
<g>
<use x="156.594" y="137.555" xlink:href="#an"/>
<use x="156.594" y="133.126624" xlink:href="#q"/>
<use x="156.594" y="128.145324" xlink:href="#am"/>
<use x="156.594" y="124.270869" xlink:href="#b"/>
<use x="156.594" y="119.010616" xlink:href="#p"/>
<use x="156.594" y="113.475396" xlink:href="#b"/>
<use x="13.633" y="138.39" xlink:href="#o"/>
<use x="20.413546" y="138.39" xlink:href="#c"/>
<use x="155.764" y="138.39" xlink:href="#o"/>
<use x="162.544546" y="138.39" xlink:href="#c"/>
<use x="107.412" y="118.045" xlink:href="#ah"/>
<use x="116.544715" y="118.045" xlink:href="#ag"/>
<use x="121.526" y="113.645" xlink:href="#g"/>
<use x="125.496882" y="113.645" xlink:href="#ad"/>
<use x="134.879" y="118.045" xlink:href="#a"/>
<use x="139.858307" y="118.045" xlink:href="#a"/>
<use x="144.837615" y="118.045" xlink:href="#ac"/>
<use x="25.248" y="118.045" xlink:href="#ab"/>
<use x="32.440997" y="118.045" xlink:href="#a"/>
<use x="37.420305" y="118.045" xlink:href="#a"/>
<use x="47.94" y="118.045" xlink:href="#j"/>
<use x="55.13499" y="118.045" xlink:href="#i"/>
<use x="58.804" y="113.645" xlink:href="#f"/>
<use x="27.066" y="159.65" xlink:href="#af"/>
<use x="34.81491" y="159.65" xlink:href="#ae"/>
<use x="40.073171" y="159.65" xlink:href="#h"/>
<use x="42.840781" y="159.65" xlink:href="#n"/>
<use x="48.376001" y="159.65" xlink:href="#e"/>
<use x="53.357301" y="159.65" xlink:href="#m"/>
<use x="57.785677" y="159.65" xlink:href="#l"/>
<use x="62.766977" y="159.65" xlink:href="#k"/>
<use x="114.035" y="159.65" xlink:href="#al"/>
<use x="121.36847" y="159.65" xlink:href="#d"/>
<use x="125.796846" y="159.65" xlink:href="#n"/>
<use x="131.332066" y="159.65" xlink:href="#ak"/>
<use x="136.867287" y="159.65" xlink:href="#m"/>
<use x="141.295662" y="159.65" xlink:href="#l"/>
<use x="146.276962" y="159.65" xlink:href="#k"/>
</g>
<path d="m22.039 120.89c0-1.1016-0.89453-1.9922-1.9922-1.9922-1.1016 0-1.9922 0.89062-1.9922 1.9922 0 1.1016 0.89062 1.9922 1.9922 1.9922 1.0977 0 1.9922-0.89062 1.9922-1.9922z" fill="#83cb15" fill-opacity=".4"/>
<path d="m26.891 120.43c0-1.1016-0.89062-1.9922-1.9922-1.9922-1.1016 0-1.9922 0.89062-1.9922 1.9922 0 1.1016 0.89062 1.9922 1.9922 1.9922 1.1016 0 1.9922-0.89062 1.9922-1.9922z" fill="#83cb15" fill-opacity=".4"/>
<path d="m28.988 117.98c0-1.0977-0.89062-1.9922-1.9922-1.9922-1.0977 0-1.9922 0.89453-1.9922 1.9922 0 1.1016 0.89453 1.9922 1.9922 1.9922 1.1016 0 1.9922-0.89062 1.9922-1.9922z" fill="#83cb15" fill-opacity=".4"/>
<path d="m26.211 113.92c0-1.1016-0.89063-1.9922-1.9922-1.9922-1.0977 0-1.9922 0.89062-1.9922 1.9922s0.89453 1.9922 1.9922 1.9922c1.1016 0 1.9922-0.89062 1.9922-1.9922z" fill="#83cb15" fill-opacity=".4"/>
<path d="m29.926 116.96c0-1.1016-0.89062-1.9922-1.9922-1.9922-1.1016 0-1.9922 0.89062-1.9922 1.9922 0 1.1016 0.89062 1.9922 1.9922 1.9922 1.1016 0 1.9922-0.89062 1.9922-1.9922z" fill="#83cb15" fill-opacity=".4"/>
<path d="m23.203 112.72c0-1.1016-0.89062-1.9922-1.9922-1.9922-1.0977 0-1.9922 0.89062-1.9922 1.9922 0 1.0977 0.89453 1.9922 1.9922 1.9922 1.1016 0 1.9922-0.89453 1.9922-1.9922z" fill="#83cb15" fill-opacity=".4"/>
<path d="m22.094 102.2c0-1.1016-0.89062-1.9961-1.9922-1.9961-1.0977 0-1.9922 0.89453-1.9922 1.9961 0 1.0977 0.89453 1.9922 1.9922 1.9922 1.1016 0 1.9922-0.89453 1.9922-1.9922z" fill="#83cb15" fill-opacity=".4"/>
<path d="m21.734 115.17c0-1.0977-0.89453-1.9922-1.9961-1.9922-1.0977 0-1.9922 0.89453-1.9922 1.9922 0 1.1016 0.89453 1.9961 1.9922 1.9961 1.1016 0 1.9961-0.89453 1.9961-1.9961z" fill="#83cb15" fill-opacity=".4"/>
<path d="m23.754 105.54c0-1.0977-0.89062-1.9922-1.9922-1.9922-1.1016 0-1.9922 0.89453-1.9922 1.9922 0 1.1016 0.89062 1.9922 1.9922 1.9922 1.1016 0 1.9922-0.89062 1.9922-1.9922z" fill="#83cb15" fill-opacity=".4"/>
<path d="m24.332 96.203c0-1.1016-0.89062-1.9961-1.9922-1.9961-1.1016 0-1.9922 0.89453-1.9922 1.9961 0 1.0977 0.89062 1.9922 1.9922 1.9922 1.1016 0 1.9922-0.89453 1.9922-1.9922z" fill="#83cb15" fill-opacity=".4"/>
<path d="m28.508 96.254c0-1.0977-0.89062-1.9922-1.9922-1.9922s-1.9922 0.89453-1.9922 1.9922c0 1.1016 0.89062 1.9922 1.9922 1.9922s1.9922-0.89062 1.9922-1.9922z" fill="#83cb15" fill-opacity=".4"/>
<path d="m23.52 100.61c0-1.1016-0.89062-1.9922-1.9922-1.9922-1.1016 0-1.9922 0.89062-1.9922 1.9922 0 1.1016 0.89062 1.9922 1.9922 1.9922 1.1016 0 1.9922-0.89062 1.9922-1.9922z" fill="#83cb15" fill-opacity=".4"/>
<path d="m28.898 103.75c0-1.1016-0.89453-1.9961-1.9922-1.9961-1.1016 0-1.9922 0.89453-1.9922 1.9961 0 1.0977 0.89063 1.9922 1.9922 1.9922 1.0977 0 1.9922-0.89453 1.9922-1.9922z" fill="#83cb15" fill-opacity=".4"/>
<path d="m24.207 111.39c0-1.1016-0.89062-1.9922-1.9922-1.9922-1.1016 0-1.9922 0.89062-1.9922 1.9922 0 1.1016 0.89062 1.9922 1.9922 1.9922 1.1016 0 1.9922-0.89062 1.9922-1.9922z" fill="#83cb15" fill-opacity=".4"/>
<path d="m25.293 106.8c0-1.0977-0.89453-1.9922-1.9922-1.9922-1.1016 0-1.9922 0.89453-1.9922 1.9922 0 1.1016 0.89062 1.9922 1.9922 1.9922 1.0977 0 1.9922-0.89062 1.9922-1.9922z" fill="#83cb15" fill-opacity=".4"/>
<path d="m23.109 119.25c0-1.1016-0.89062-1.9922-1.9922-1.9922-1.1016 0-1.9922 0.89062-1.9922 1.9922 0 1.1016 0.89062 1.9922 1.9922 1.9922 1.1016 0 1.9922-0.89062 1.9922-1.9922z" fill="#83cb15" fill-opacity=".4"/>
<path d="m20.008 101.36c0-1.0977-0.89453-1.9922-1.9961-1.9922-1.0977 0-1.9922 0.89453-1.9922 1.9922 0 1.1016 0.89453 1.9922 1.9922 1.9922 1.1016 0 1.9961-0.89062 1.9961-1.9922z" fill="#83cb15" fill-opacity=".4"/>
<path d="m22.41 108.39c0-1.1016-0.89062-1.9922-1.9922-1.9922-1.0977 0-1.9922 0.89062-1.9922 1.9922s0.89453 1.9922 1.9922 1.9922c1.1016 0 1.9922-0.89062 1.9922-1.9922z" fill="#83cb15" fill-opacity=".4"/>
<path d="m30.387 105.99c0-1.1016-0.89062-1.9922-1.9922-1.9922-1.1016 0-1.9922 0.89062-1.9922 1.9922 0 1.1016 0.89062 1.9922 1.9922 1.9922 1.1016 0 1.9922-0.89062 1.9922-1.9922z" fill="#83cb15" fill-opacity=".4"/>
<path d="m28.465 97.727c0-1.0977-0.89453-1.9922-1.9922-1.9922-1.1016 0-1.9922 0.89453-1.9922 1.9922 0 1.1016 0.89062 1.9961 1.9922 1.9961 1.0977 0 1.9922-0.89453 1.9922-1.9961z" fill="#83cb15" fill-opacity=".4"/>
<path d="m23.941 119.37c0-1.1016-0.89062-1.9922-1.9922-1.9922-1.1016 0-1.9922 0.89062-1.9922 1.9922 0 1.0977 0.89062 1.9922 1.9922 1.9922 1.1016 0 1.9922-0.89453 1.9922-1.9922z" fill="#83cb15" fill-opacity=".4"/>
<path d="m26.18 108.58c0-1.1016-0.89453-1.9922-1.9961-1.9922-1.0977 0-1.9922 0.89062-1.9922 1.9922 0 1.1016 0.89453 1.9922 1.9922 1.9922 1.1016 0 1.9961-0.89062 1.9961-1.9922z" fill="#83cb15" fill-opacity=".4"/>
<path d="m20.555 100.02c0-1.0977-0.89063-1.9922-1.9922-1.9922s-1.9922 0.89453-1.9922 1.9922c0 1.1016 0.89063 1.9961 1.9922 1.9961s1.9922-0.89453 1.9922-1.9961z" fill="#83cb15" fill-opacity=".4"/>
<path d="m23.258 97.105c0-1.1016-0.89453-1.9922-1.9922-1.9922-1.1016 0-1.9922 0.89062-1.9922 1.9922 0 1.1016 0.89062 1.9922 1.9922 1.9922 1.0977 0 1.9922-0.89062 1.9922-1.9922z" fill="#83cb15" fill-opacity=".4"/>
<path d="m20.395 105.36c0-1.1016-0.89062-1.9922-1.9922-1.9922-1.1016 0-1.9922 0.89062-1.9922 1.9922 0 1.0977 0.89062 1.9922 1.9922 1.9922 1.1016 0 1.9922-0.89453 1.9922-1.9922z" fill="#83cb15" fill-opacity=".4"/>
<path d="m24.023 120.33c0-1.1016-0.89063-1.9922-1.9922-1.9922-1.0977 0-1.9922 0.89062-1.9922 1.9922 0 1.0977 0.89453 1.9922 1.9922 1.9922 1.1016 0 1.9922-0.89453 1.9922-1.9922z" fill="#83cb15" fill-opacity=".4"/>
<path d="m21.703 97.203c0-1.1016-0.89453-1.9922-1.9961-1.9922-1.0977 0-1.9922 0.89062-1.9922 1.9922 0 1.0977 0.89453 1.9922 1.9922 1.9922 1.1016 0 1.9961-0.89453 1.9961-1.9922z" fill="#83cb15" fill-opacity=".4"/>
<path d="m20.895 99.648c0-1.1016-0.89062-1.9961-1.9922-1.9961-1.0977 0-1.9922 0.89453-1.9922 1.9961 0 1.0977 0.89453 1.9922 1.9922 1.9922 1.1016 0 1.9922-0.89453 1.9922-1.9922z" fill="#83cb15" fill-opacity=".4"/>
<path d="m20.555 106.92c0-1.1016-0.89063-1.9922-1.9922-1.9922s-1.9922 0.89062-1.9922 1.9922c0 1.1016 0.89063 1.9922 1.9922 1.9922s1.9922-0.89062 1.9922-1.9922z" fill="#83cb15" fill-opacity=".4"/>
<path d="m29.258 123.01c0-1.1016-0.89062-1.9922-1.9922-1.9922s-1.9922 0.89062-1.9922 1.9922c0 1.0977 0.89062 1.9922 1.9922 1.9922s1.9922-0.89453 1.9922-1.9922z" fill="#83cb15" fill-opacity=".4"/>
<path d="m22.621 89.766c0-1.0977-0.89453-1.9922-1.9961-1.9922-1.0977 0-1.9922 0.89453-1.9922 1.9922 0 1.1016 0.89453 1.9961 1.9922 1.9961 1.1016 0 1.9961-0.89453 1.9961-1.9961z" fill="#83cb15" fill-opacity=".4"/>
<path d="m30.305 71.434c0-1.0977-0.89063-1.9922-1.9922-1.9922-1.0977 0-1.9922 0.89453-1.9922 1.9922 0 1.1016 0.89453 1.9961 1.9922 1.9961 1.1016 0 1.9922-0.89453 1.9922-1.9961z" fill="#83cb15" fill-opacity=".4"/>
<path d="m22.105 87.68c0-1.1016-0.89062-1.9922-1.9922-1.9922-1.0977 0-1.9922 0.89062-1.9922 1.9922 0 1.1016 0.89453 1.9922 1.9922 1.9922 1.1016 0 1.9922-0.89062 1.9922-1.9922z" fill="#83cb15" fill-opacity=".4"/>
<path d="m23.52 79.66c0-1.0977-0.89453-1.9922-1.9922-1.9922-1.1016 0-1.9922 0.89453-1.9922 1.9922 0 1.1016 0.89062 1.9961 1.9922 1.9961 1.0977 0 1.9922-0.89453 1.9922-1.9961z" fill="#83cb15" fill-opacity=".4"/>
<path d="m21.426 69.477c0-1.0977-0.89453-1.9922-1.9961-1.9922-1.0977 0-1.9922 0.89453-1.9922 1.9922 0 1.1016 0.89453 1.9922 1.9922 1.9922 1.1016 0 1.9961-0.89062 1.9961-1.9922z" fill="#83cb15" fill-opacity=".4"/>
<path d="m26.699 70.004c0-1.1016-0.89453-1.9922-1.9922-1.9922-1.1016 0-1.9922 0.89062-1.9922 1.9922 0 1.1016 0.89062 1.9922 1.9922 1.9922 1.0977 0 1.9922-0.89062 1.9922-1.9922z" fill="#83cb15" fill-opacity=".4"/>
<path d="m20.133 72.383c0-1.1016-0.89062-1.9922-1.9922-1.9922-1.0977 0-1.9922 0.89062-1.9922 1.9922 0 1.0977 0.89453 1.9922 1.9922 1.9922 1.1016 0 1.9922-0.89453 1.9922-1.9922z" fill="#83cb15" fill-opacity=".4"/>
<path d="m29.242 71.457c0-1.0977-0.89453-1.9922-1.9922-1.9922-1.1016 0-1.9922 0.89453-1.9922 1.9922 0 1.1016 0.89063 1.9922 1.9922 1.9922 1.0977 0 1.9922-0.89062 1.9922-1.9922z" fill="#83cb15" fill-opacity=".4"/>
<path d="m26.168 74.598c0-1.0977-0.89453-1.9922-1.9961-1.9922-1.0977 0-1.9922 0.89453-1.9922 1.9922 0 1.1016 0.89453 1.9922 1.9922 1.9922 1.1016 0 1.9961-0.89062 1.9961-1.9922z" fill="#83cb15" fill-opacity=".4"/>
<path d="m27.168 90.555c0-1.0977-0.89062-1.9922-1.9922-1.9922-1.0977 0-1.9922 0.89453-1.9922 1.9922 0 1.1016 0.89453 1.9922 1.9922 1.9922 1.1016 0 1.9922-0.89062 1.9922-1.9922z" fill="#83cb15" fill-opacity=".4"/>
<path d="m22.301 87.855c0-1.0977-0.89062-1.9922-1.9922-1.9922-1.1016 0-1.9922 0.89453-1.9922 1.9922 0 1.1016 0.89062 1.9961 1.9922 1.9961 1.1016 0 1.9922-0.89453 1.9922-1.9961z" fill="#83cb15" fill-opacity=".4"/>
<path d="m22.027 86.828c0-1.1016-0.89062-1.9922-1.9922-1.9922-1.1016 0-1.9922 0.89062-1.9922 1.9922s0.89062 1.9922 1.9922 1.9922c1.1016 0 1.9922-0.89062 1.9922-1.9922z" fill="#83cb15" fill-opacity=".4"/>
<path d="m29.094 95.324c0-1.0977-0.89062-1.9922-1.9922-1.9922-1.0977 0-1.9922 0.89453-1.9922 1.9922 0 1.1016 0.89453 1.9922 1.9922 1.9922 1.1016 0 1.9922-0.89062 1.9922-1.9922z" fill="#83cb15" fill-opacity=".4"/>
<path d="m20.426 74.293c0-1.1016-0.89453-1.9922-1.9922-1.9922-1.1016 0-1.9961 0.89062-1.9961 1.9922 0 1.0977 0.89453 1.9922 1.9961 1.9922 1.0977 0 1.9922-0.89453 1.9922-1.9922z" fill="#83cb15" fill-opacity=".4"/>
<path d="m25.457 80.184c0-1.1016-0.89062-1.9961-1.9922-1.9961-1.0977 0-1.9922 0.89453-1.9922 1.9961 0 1.0977 0.89453 1.9922 1.9922 1.9922 1.1016 0 1.9922-0.89453 1.9922-1.9922z" fill="#83cb15" fill-opacity=".4"/>
<path d="m25.449 52.953c0-1.1016-0.89062-1.9922-1.9922-1.9922-1.1016 0-1.9922 0.89062-1.9922 1.9922 0 1.0977 0.89062 1.9922 1.9922 1.9922 1.1016 0 1.9922-0.89453 1.9922-1.9922z" fill="#83cb15" fill-opacity=".4"/>
<path d="m24.051 50.504c0-1.1016-0.89062-1.9922-1.9922-1.9922-1.1016 0-1.9922 0.89062-1.9922 1.9922 0 1.1016 0.89062 1.9922 1.9922 1.9922 1.1016 0 1.9922-0.89062 1.9922-1.9922z" fill="#83cb15" fill-opacity=".4"/>
<path d="m27.016 55.363c0-1.1016-0.89062-1.9922-1.9922-1.9922-1.0977 0-1.9922 0.89062-1.9922 1.9922 0 1.1016 0.89453 1.9922 1.9922 1.9922 1.1016 0 1.9922-0.89062 1.9922-1.9922z" fill="#83cb15" fill-opacity=".4"/>
<path d="m30.379 64.293c0-1.1016-0.89062-1.9961-1.9922-1.9961-1.0977 0-1.9922 0.89453-1.9922 1.9961 0 1.0977 0.89453 1.9922 1.9922 1.9922 1.1016 0 1.9922-0.89453 1.9922-1.9922z" fill="#83cb15" fill-opacity=".4"/>
<path d="m28.41 65.551c0-1.0977-0.89062-1.9922-1.9922-1.9922-1.1016 0-1.9922 0.89453-1.9922 1.9922 0 1.1016 0.89062 1.9922 1.9922 1.9922 1.1016 0 1.9922-0.89062 1.9922-1.9922z" fill="#83cb15" fill-opacity=".4"/>
<path d="m25.328 46.676c0-1.1016-0.89062-1.9922-1.9922-1.9922-1.1016 0-1.9922 0.89062-1.9922 1.9922 0 1.1016 0.89062 1.9922 1.9922 1.9922 1.1016 0 1.9922-0.89062 1.9922-1.9922z" fill="#83cb15" fill-opacity=".4"/>
<path d="m27.516 68.125c0-1.1016-0.89453-1.9922-1.9922-1.9922-1.1016 0-1.9961 0.89063-1.9961 1.9922 0 1.0977 0.89453 1.9922 1.9961 1.9922 1.0977 0 1.9922-0.89453 1.9922-1.9922z" fill="#83cb15" fill-opacity=".4"/>
<g>
<use x="35.099" y="146.029" xlink:href="#j"/>
<use x="42.29399" y="146.029" xlink:href="#i"/>
<use x="45.061" y="147.523" xlink:href="#g"/>
</g>
<path transform="matrix(1,0,0,-1,90.026,87.394)" d="m-67.546-38.696 10.984-9.5586" fill="none" stroke="#7f7f7f" stroke-miterlimit="10" stroke-width=".79701"/>
<g clip-path="url(#ba)">
<g clip-path="url(#az)">
<path d="m67.926 31.477v-11.34h28.344v11.34z" fill="url(#s)"/>
</g>
</g>
<path transform="matrix(1,0,0,-1,90.026,87.394)" d="m4.8256 67.257h-25.512c-0.78125 0-1.4141-0.63281-1.4141-1.418v-8.5039c0-0.78125 0.63281-1.418 1.4141-1.418h25.512c0.78516 0 1.418 0.63672 1.418 1.418v8.5039c0 0.78516-0.63281 1.418-1.418 1.418z" fill="none" stroke="#5f5f5f" stroke-miterlimit="10" stroke-width=".79701"/>
<g clip-path="url(#ay)">
<g clip-path="url(#ax)">
<path d="m72.176 35.727v-19.844h19.844v19.844z" fill="url(#r)"/>
</g>
</g>
<path transform="matrix(1,0,0,-1,90.026,87.394)" d="m0.57556 71.511h-17.008c-0.78516 0-1.418-0.63672-1.418-1.418v-17.008c0-0.78516 0.63281-1.418 1.418-1.418h17.008c0.78125 0 1.418 0.63281 1.418 1.418v17.008c0 0.78125-0.63672 1.418-1.418 1.418z" fill="none" stroke="#5f5f5f" stroke-miterlimit="10" stroke-width=".79701"/>
<g fill="#dc3445">
<use x="78.762" y="30.827" xlink:href="#aa"/>
</g>
<g>
<use x="66.102" y="6.985" xlink:href="#aj"/>
<use x="73.15851" y="6.985" xlink:href="#e"/>
<use x="78.13981" y="6.985" xlink:href="#c"/>
<use x="82.014265" y="6.985" xlink:href="#d"/>
<use x="86.44264" y="6.985" xlink:href="#ai"/>
<use x="90.344991" y="6.985" xlink:href="#h"/>
<use x="93.112601" y="6.985" xlink:href="#e"/>
</g>
<g fill="#dc3445">
<use x="55.095" y="20.958" xlink:href="#z"/>
<use x="100.189" y="20.958" xlink:href="#y"/>
</g>
<path transform="matrix(1,0,0,-1,90.026,87.394)" d="m-22.503 61.589h-42.32c-7.8281 0-14.172-6.3477-14.172-14.176v-28.344" fill="none" stroke="#a52733" stroke-miterlimit="10" stroke-width="1.1955"/>
<path transform="matrix(1,0,0,-1,90.026,87.394)" d="m6.642 61.589h42.32c7.8281 0 14.176-6.3477 14.176-14.176v-28.344" fill="none" stroke="#a52733" stroke-miterlimit="10" stroke-width="1.1955"/>
<path transform="matrix(1,0,0,-1,90.026,87.394)" d="m23.65 53.085h22.48c4.6953 0 8.5039-3.8086 8.5039-8.5039v-7.707" fill="none" stroke="#dc3445" stroke-linecap="round" stroke-miterlimit="10" stroke-width=".79701"/>
<path transform="matrix(0 1 1 0 144.66 50.919)" d="m-2.5518 3.1101c0.46875-1.8672 1.5039-2.7461 2.5508-3.1094-1.0469-0.36328-2.082-1.2461-2.5508-3.1133" fill="none" stroke="#dc3445" stroke-linecap="round" stroke-linejoin="round" stroke-miterlimit="10" stroke-width=".79701"/>
<g fill="#dc3445">
<use x="127.971" y="46.246" xlink:href="#d"/>
<use x="133.3" y="41.846" xlink:href="#f"/>
</g>
</svg>
