<?xml version="1.0" encoding="UTF-8"?>
<svg width="189pt" height="178pt" version="1.1" viewBox="0 0 189 178" xmlns="http://www.w3.org/2000/svg" xmlns:xlink="http://www.w3.org/1999/xlink">
<defs>
<symbol id="al" overflow="visible">
<path d="m0.51562 7.125 0.3125-0.015625-0.015625-0.17188c-0.046875-0.59375 0.015625-0.75 0.32812-0.875l6.0625-2.6094c0.125-0.0625 0.20312-0.09375 0.1875-0.25 0-0.15625-0.078125-0.1875-0.21875-0.21875l-6.0781-1.625c-0.53125-0.14062-0.71875-0.51562-0.76562-1.0625l-0.3125 0.015625 0.10938 1.0156 0.046875 1.1562 0.3125-0.015625c-0.03125-0.5 0.20312-0.78125 0.45312-0.79688 0.03125 0 0.14062 0.015625 0.15625 0.015625l1.3281 0.375 0.1875 2.4375-1.4844 0.64062c-0.046875 0.015625-0.10938 0.03125-0.14062 0.03125-0.29688 0.03125-0.32812-0.53125-0.35938-0.79688l-0.3125 0.015625c0.0625 0.35938 0.10938 1.0625 0.14062 1.4375zm2.3906-2.7656-0.15625-2.2188 3.3125 0.85938z"/>
</symbol>
<symbol id="ak" overflow="visible">
<path d="m1.875 3.9844v-0.25c-1.1719-0.078125-1.6094-0.28125-1.6094-1.4375l-0.015625-1.1875 3.7656 2.7656c0.10938 0.09375 0.125 0.09375 0.17188 0.09375 0.125 0 0.125-0.09375 0.125-0.26562l-0.015625-3.1875-1.6094-0.10938v0.25c1.0156 0.0625 1.3906 0.25 1.4062 1.3438v1.1406l-3.7812-2.7656c-0.10938-0.09375-0.125-0.09375-0.17188-0.09375-0.14062 0-0.14062 0.0625-0.14062 0.25l0.015625 3.2969z"/>
</symbol>
<symbol id="z" overflow="visible">
<path d="m-0.28125 5.3281 0.3125 0.015625c0.046875-0.6875 0.10938-0.76562 0.60938-0.73438l3.5312 0.1875-0.03125-1.4844-0.3125-0.015625c-0.046875 0.6875-0.10938 0.78125-0.60938 0.75l-1.7656-0.09375c-0.875-0.03125-1.5156-0.5625-1.4844-1.2969 0.046875-0.82812 0.51562-0.84375 1.0312-0.8125l3.3125 0.17188-0.03125-1.4844-0.3125-0.015625c-0.046875 0.78125-0.078125 0.78125-0.95312 0.73438l-1.5-0.078125c-0.78125-0.03125-1.6875-0.078125-1.7656 1.4375-0.03125 0.5625 0.23438 1.0156 0.82812 1.3281l-0.89062-0.046875z"/>
</symbol>
<symbol id="o" overflow="visible">
<path d="m-0.25 2.5312 0.3125 0.03125c0.0625-0.67188 0.078125-0.78125 0.51562-0.73438l6.1406 0.60938 0.03125-1.4375-0.3125-0.03125c-0.078125 0.70312-0.14062 0.78125-0.64062 0.73438l-5.1562-0.51562c-0.4375-0.046875-0.42188-0.15625-0.35938-0.82812l-0.3125-0.03125-0.078125 1.1094z"/>
</symbol>
<symbol id="f" overflow="visible">
<path d="m9.2031-3.2656 0.10938-0.29688c-0.29688-0.078125-0.67188-0.23438-0.90625-0.32812l-1.0469-0.46875-0.10938 0.29688c0.46875 0.21875 0.57812 0.53125 0.48438 0.75-0.03125 0.0625-0.078125 0.10938-0.125 0.17188l-3.5 3.75 0.14062-5.3906v-0.17188c0.125-0.28125 0.64062-0.0625 0.875 0.03125l0.10938-0.29688c-0.34375-0.10938-0.98438-0.375-1.3281-0.51562l-1.1562-0.5-0.10938 0.29688c0.60938 0.23438 0.78125 0.3125 0.75 0.70312l-0.17188 6.5469c-0.015625 0.20312 0.03125 0.25 0.15625 0.29688 0.14062 0.0625 0.1875 0.03125 0.28125-0.078125l4.2812-4.5781c0.26562-0.29688 0.625-0.45312 1.2656-0.21875z"/>
</symbol>
<symbol id="e" overflow="visible">
<path d="m2.2344 1.0625 0.14062-0.28125c-0.60938-0.28125-0.625-0.34375-0.45312-0.6875l1.5781-3.2969-1.2969-0.51562-0.14062 0.28125c0.57812 0.28125 0.625 0.39062 0.42188 0.82812l-1.1562 2.4219c-0.1875 0.39062-0.28125 0.34375-0.89062 0.046875l-0.14062 0.28125 1 0.4375c0.32812 0.15625 0.625 0.32812 0.9375 0.48438zm2.0781-5.6562c0.125-0.25 0.03125-0.57812-0.23438-0.71875-0.3125-0.14062-0.60938 0.015625-0.71875 0.25s-0.015625 0.57812 0.25 0.70312c0.3125 0.15625 0.59375-0.015625 0.70312-0.23438z"/>
</symbol>
<symbol id="d" overflow="visible">
<path d="m5.1562 0.3125c0.59375-1.1094 0.21875-2.5-0.84375-3.0781-1.0938-0.57812-2.4688-0.09375-3.0469 1-0.625 1.1406-0.15625 2.4844 0.875 3.0312 1.0625 0.5625 2.4062 0.17188 3.0156-0.95312zm-0.6875-0.4375c-0.17188 0.3125-0.42188 0.79688-0.84375 1.0781-0.40625 0.28125-0.9375 0.32812-1.3594 0.09375-0.39062-0.20312-0.67188-0.57812-0.6875-1.125 0-0.51562 0.28125-1.0469 0.45312-1.3594 0.1875-0.34375 0.4375-0.8125 0.84375-1.0781 0.45312-0.28125 0.95312-0.25 1.3125-0.0625 0.39062 0.20312 0.67188 0.59375 0.6875 1.1094 0.046875 0.5-0.23438 1.0156-0.40625 1.3438z"/>
</symbol>
<symbol id="c" overflow="visible">
<path d="m2.1875 1.2969 0.15625-0.26562c-0.57812-0.34375-0.67188-0.39062-0.45312-0.76562l3.1562-5.3125-1.2969-0.64062-0.15625 0.26562c0.60938 0.35938 0.64062 0.4375 0.39062 0.875l-2.6562 4.4688c-0.21875 0.375-0.3125 0.32812-0.89062-0.015625l-0.15625 0.26562 0.96875 0.53125z"/>
</symbol>
<symbol id="b" overflow="visible">
<path d="m4.1094 1.25c0.0625-0.078125 0.015625-0.14062-0.03125-0.17188-0.0625-0.03125-0.125 0-0.1875 0.046875-0.84375 0.67188-1.6094 0.17188-1.6875 0.125-0.42188-0.26562-0.59375-0.71875-0.57812-1.1719 0.015625-0.54688 0.35938-1.0938 0.5625-1.3906l2.3281 1.5156c0.1875 0.10938 0.20312 0.125 0.32812-0.0625 0.53125-0.82812 0.60938-1.9375-0.42188-2.6094-0.96875-0.625-2.3125-0.26562-3 0.79688-0.71875 1.1094-0.375 2.4844 0.59375 3.1094 1.0156 0.65625 2-0.03125 2.0938-0.1875zm0.1875-1.4688-1.9844-1.2812c0.84375-1.2188 1.6875-0.96875 1.9844-0.78125 0.84375 0.5625 0.20312 1.7344 0 2.0625z"/>
</symbol>
<symbol id="a" overflow="visible">
<path d="m3.4062 0.9375 0.32812-0.45312-0.20312-0.15625-0.3125 0.4375c-0.4375 0.59375-0.89062 0.73438-1.2031 0.51562-0.54688-0.39062-0.015625-1.125 0.078125-1.2656l1.625-2.25 1.1719 0.84375 0.17188-0.25-1.1719-0.84375 1.0781-1.4844-0.20312-0.14062c-0.48438 0.65625-1.3281 1.3438-2.1562 0.79688l-0.125 0.1875 0.6875 0.48438-1.6094 2.2344c-0.70312 0.98438-0.03125 1.6406 0.26562 1.8594 0.57812 0.40625 1.2031 0 1.5781-0.51562z"/>
</symbol>
<symbol id="aj" overflow="visible">
<path d="m4.3281 2.2969 0.34375-0.4375-0.20312-0.15625-0.34375 0.4375c-0.375 0.45312-0.59375 0.34375-0.6875 0.28125-0.25-0.20312 0-0.57812 0.03125-0.625l1.2344-1.5469c0.26562-0.32812 0.5-0.64062 0.45312-1.1406-0.046875-0.5625-0.34375-1-0.71875-1.2969-0.64062-0.5-1.4688-0.5625-1.8906-0.046875-0.17188 0.23438-0.10938 0.48438 0.078125 0.64062 0.21875 0.1875 0.5 0.14062 0.65625-0.0625 0.078125-0.09375 0.23438-0.375-0.125-0.65625 0.42188-0.125 0.89062 0.09375 1.1406 0.29688 0.375 0.29688 0.57812 0.96875 0.015625 1.6562l-0.21875 0.28125c-0.42188-0.29688-0.98438-0.70312-1.6562-0.875-0.8125-0.1875-1.3281 0.046875-1.5938 0.39062-0.5 0.64062 0.09375 1.4375 0.57812 1.8281 0.53125 0.42188 1.1406 0.39062 1.5625 0.14062-0.21875 0.34375-0.25 0.84375 0.10938 1.1406 0.15625 0.125 0.71875 0.39062 1.2344-0.25zm-1-1.4219c-0.57812 0.73438-1.3594 0.5625-1.7188 0.28125-0.375-0.29688-0.46875-0.82812-0.15625-1.2188 0.34375-0.42188 1.1719-0.82812 2.5 0.15625z"/>
</symbol>
<symbol id="ai" overflow="visible">
<path d="m1.2031-9.6875-0.20312-0.23438c-0.21875 0.21875-0.53125 0.48438-0.71875 0.65625l-0.875 0.73438 0.20312 0.23438c0.40625-0.32812 0.71875-0.28125 0.875-0.10938 0.046875 0.0625 0.078125 0.125 0.10938 0.1875l1.7812 4.8125-4.75-2.5312c-0.14062-0.0625-0.15625-0.09375-0.15625-0.09375-0.20312-0.21875 0.21875-0.59375 0.40625-0.75l-0.20312-0.23438c-0.25 0.25-0.76562 0.70312-1.0469 0.95312l-0.96875 0.8125 0.20312 0.23438c0.5-0.4375 0.64062-0.54688 0.98438-0.35938l5.7812 3.0781c0.17188 0.10938 0.21875 0.10938 0.32812 0.015625 0.10938-0.10938 0.10938-0.17188 0.046875-0.29688l-2.1875-5.8906c-0.125-0.375-0.10938-0.75 0.39062-1.2188z"/>
</symbol>
<symbol id="ah" overflow="visible">
<path d="m2.5781-3.4531c-0.0625-0.078125-0.14062-0.0625-0.1875-0.015625-0.0625 0.046875-0.046875 0.10938-0.015625 0.1875 0.35938 1.0312-0.35938 1.5781-0.4375 1.6406-0.40625 0.29688-0.89062 0.29688-1.3125 0.14062-0.53125-0.1875-0.92188-0.71875-1.1406-1l2.2188-1.6875c0.17188-0.125 0.20312-0.15625 0.0625-0.32812-0.59375-0.78125-1.6094-1.2031-2.5938-0.46875-0.92188 0.70312-1.0312 2.0781-0.28125 3.0781 0.8125 1.0469 2.2344 1.1875 3.1406 0.5 0.96875-0.73438 0.65625-1.9062 0.54688-2.0469zm-1.3438-0.65625-1.8906 1.4375c-0.82812-1.2188-0.3125-1.9219-0.046875-2.1406 0.8125-0.60938 1.7031 0.39062 1.9375 0.70312z"/>
</symbol>
<symbol id="ag" overflow="visible">
<path d="m0.82812-5.1875c-0.17188-0.25-0.59375-0.3125-0.95312-0.078125-0.59375 0.42188-0.51562 1.1719-0.375 1.5781l-0.625-0.89062-1.0781 0.89062 0.17188 0.25c0.57812-0.40625 0.67188-0.40625 0.96875 0.015625l1.5156 2.1875c0.25 0.375 0.15625 0.4375-0.39062 0.82812l0.17188 0.25 0.92188-0.6875c0.3125-0.21875 0.70312-0.48438 1.0625-0.6875l-0.17188-0.25-0.1875 0.125c-0.60938 0.42188-0.67188 0.34375-0.875 0.046875l-0.875-1.2656c-0.5625-0.8125-0.71875-1.7969-0.10938-2.2188 0.0625-0.03125 0.078125-0.046875 0.09375-0.046875-0.03125 0.015625-0.10938 0.25 0.046875 0.46875 0.14062 0.21875 0.40625 0.21875 0.59375 0.09375 0.14062-0.10938 0.26562-0.35938 0.09375-0.60938z"/>
</symbol>
<symbol id="af" overflow="visible">
<path d="m6.9844-4.125-0.15625-0.26562c-0.45312 0.25-0.67188 0.39062-0.82812 0.125l-0.96875-1.6406c-0.4375-0.73438-0.59375-0.98438-1.0469-1.1406-0.20312-0.0625-0.59375-0.078125-1.0938 0.20312-0.71875 0.42188-0.79688 1.1719-0.73438 1.5938-0.5625-0.6875-1.2656-0.40625-1.6562-0.17188-0.625 0.375-0.8125 0.98438-0.73438 1.6562l-0.53125-0.90625-1.1562 0.8125 0.15625 0.28125c0.60938-0.35938 0.70312-0.35938 0.95312 0.078125l1.375 2.2969c0.21875 0.375 0.125 0.4375-0.45312 0.78125l0.15625 0.26562 0.96875-0.60938 0.96875-0.54688-0.15625-0.26562c-0.57812 0.34375-0.67188 0.40625-0.89062 0.03125l-0.95312-1.5938c-0.51562-0.89062-0.1875-1.75 0.34375-2.0625 0.54688-0.32812 0.92188 0.09375 1.2188 0.57812l1.1875 2.0156c0.21875 0.375 0.125 0.42188-0.45312 0.76562l0.15625 0.26562 0.95312-0.60938 0.96875-0.53125-0.15625-0.26562c-0.5625 0.34375-0.65625 0.39062-0.875 0.015625l-0.95312-1.5938c-0.51562-0.89062-0.20312-1.7344 0.34375-2.0625 0.54688-0.3125 0.92188 0.10938 1.2188 0.59375l1.1875 2.0156c0.21875 0.375 0.125 0.42188-0.45312 0.76562l0.15625 0.26562 0.95312-0.60938z"/>
</symbol>
<symbol id="ae" overflow="visible">
<path d="m3.1719-2.9062c-0.046875-0.078125-0.10938-0.078125-0.17188-0.046875s-0.078125 0.09375-0.046875 0.17188c0.14062 1.0781-0.67188 1.4844-0.75 1.5312-0.45312 0.21875-0.92188 0.125-1.2969-0.10938-0.48438-0.28125-0.76562-0.875-0.9375-1.2031l2.4844-1.2344c0.1875-0.09375 0.21875-0.10938 0.125-0.29688-0.4375-0.875-1.3594-1.5156-2.4688-0.95312-1.0312 0.51562-1.3906 1.8438-0.82812 2.9688 0.57812 1.1875 1.9531 1.5781 2.9688 1.0781 1.0938-0.54688 1-1.7344 0.92188-1.9062zm-1.1719-0.89062-2.125 1.0469c-0.60938-1.3438 0.03125-1.9531 0.34375-2.0938 0.90625-0.45312 1.6094 0.70312 1.7812 1.0469z"/>
</symbol>
<symbol id="ad" overflow="visible">
<path d="m2.3281-1.0469-0.125-0.28125c-0.60938 0.28125-0.71875 0.32812-0.90625-0.078125l-2.5156-5.625-1.2656 0.67188 0.125 0.28125c0.64062-0.28125 0.75-0.25 0.95312 0.20312l2.1094 4.7344c0.1875 0.40625 0.078125 0.45312-0.53125 0.71875l0.125 0.28125 1-0.48438z"/>
</symbol>
<symbol id="ac" overflow="visible">
<path d="m4.9531-1.9531-0.10938-0.29688c-0.46875 0.1875-0.70312 0.28125-0.8125 0.015625l-0.70312-1.7812c-0.3125-0.79688-0.42188-1.0781-0.84375-1.2812-0.1875-0.10938-0.57812-0.17188-1.1094 0.03125-0.78125 0.3125-0.98438 1.0156-1 1.4062h-0.015625l-1.2656-3.2188-1.2812 0.625 0.10938 0.29688c0.65625-0.26562 0.73438-0.25 0.92188 0.21875l1.8906 4.8281c0.17188 0.40625 0.078125 0.45312-0.54688 0.70312l0.10938 0.29688 1.0469-0.45312 1.0469-0.375-0.10938-0.29688c-0.625 0.25-0.73438 0.28125-0.90625-0.125l-0.67188-1.7188c-0.375-0.95312 0.09375-1.7188 0.67188-1.9531 0.59375-0.23438 0.89062 0.20312 1.1094 0.75l0.84375 2.1562c0.17188 0.40625 0.0625 0.45312-0.5625 0.70312l0.10938 0.29688 1.0312-0.45312z"/>
</symbol>
<symbol id="ab" overflow="visible">
<path d="m3.7969-3.4844c-0.39062-1.2031-1.6562-1.9062-2.7969-1.5312-1.1875 0.375-1.7812 1.7188-1.3906 2.8906 0.39062 1.2344 1.6719 1.8281 2.7812 1.4688 1.1406-0.375 1.7969-1.625 1.4062-2.8281zm-0.79688 0.17188c0.10938 0.34375 0.28125 0.85938 0.21875 1.3594-0.09375 0.48438-0.42188 0.89062-0.89062 1.0469-0.40625 0.125-0.89062 0.078125-1.2812-0.28125-0.375-0.34375-0.5625-0.92188-0.67188-1.2656-0.125-0.375-0.28125-0.875-0.20312-1.375 0.10938-0.5 0.48438-0.85938 0.875-0.98438 0.42188-0.14062 0.89062-0.046875 1.2812 0.28125 0.375 0.3125 0.5625 0.85938 0.67188 1.2188z"/>
</symbol>
<symbol id="aa" overflow="visible">
<path d="m-3.4531-5.3125 0.046875 0.23438c1.0156-0.046875 2.2656-0.10938 2.5469 1.625l0.125 0.79688c0.0625 0.46875 0.015625 0.5-0.29688 0.54688l-5.25 0.82812c-0.34375 0.046875-0.48438 0.078125-0.64062-0.85938l-0.046875-0.3125-0.3125 0.046875c0.09375 0.32812 0.23438 1.2344 0.29688 1.625s0.17188 1.1719 0.20312 1.5156l0.3125-0.046875-0.046875-0.23438c-0.10938-0.75-0.015625-0.8125 0.34375-0.85938l5.1875-0.8125c0.34375-0.0625 0.46875-0.046875 0.57812 0.70312l0.046875 0.23438 0.3125-0.046875-0.8125-5.125z"/>
</symbol>
<symbol id="y" overflow="visible">
<path d="m-1.3281-4.7188-0.5625 0.0625 0.015625 0.25 0.5625-0.0625c0.57812-0.046875 0.67188 0.1875 0.67188 0.29688 0.03125 0.32812-0.42188 0.40625-0.46875 0.40625l-1.9688 0.1875c-0.42188 0.046875-0.8125 0.078125-1.1562 0.46875-0.34375 0.42188-0.45312 0.9375-0.40625 1.4219 0.0625 0.79688 0.59375 1.4531 1.25 1.3906 0.29688-0.03125 0.45312-0.25 0.4375-0.5-0.03125-0.28125-0.25-0.45312-0.5-0.42188-0.125 0-0.45312 0.09375-0.40625 0.54688-0.39062-0.23438-0.53125-0.71875-0.5625-1.0156-0.046875-0.48438 0.28125-1.0938 1.1719-1.1875l0.35938-0.03125c0.078125 0.51562 0.1875 1.2188 0.53125 1.7969 0.42188 0.71875 0.9375 0.92188 1.375 0.89062 0.8125-0.078125 0.96875-1.0781 0.92188-1.6875-0.0625-0.67188-0.51562-1.0781-0.98438-1.2344 0.39062-0.078125 0.78125-0.375 0.73438-0.84375-0.015625-0.20312-0.20312-0.8125-1.0156-0.73438zm-0.35938 1.7031c0.9375-0.078125 1.3594 0.60938 1.3906 1.0625 0.046875 0.46875-0.25 0.90625-0.75 0.95312-0.54688 0.046875-1.4062-0.28125-1.625-1.9219z"/>
</symbol>
<symbol id="x" overflow="visible">
<path d="m-3.9531-3.4688c-0.3125 0.015625-0.59375 0.34375-0.57812 0.76562 0.03125 0.73438 0.71875 1.0625 1.1562 1.1719l-1.0938 0.046875 0.15625 1.375h0.3125c-0.03125-0.70312 0.03125-0.79688 0.53125-0.8125l2.6719-0.10938c0.4375-0.015625 0.4375 0.09375 0.46875 0.76562l0.3125-0.015625-0.078125-1.1406c-0.015625-0.39062-0.03125-0.85938-0.015625-1.2656l-0.3125 0.015625v0.21875c0.03125 0.73438-0.078125 0.75-0.4375 0.76562l-1.5312 0.0625c-0.98438 0.046875-1.8906-0.34375-1.9219-1.0938 0-0.0625 0-0.09375 0.015625-0.10938 0 0.03125 0.14062 0.23438 0.40625 0.21875s0.40625-0.23438 0.39062-0.45312c0-0.17188-0.14062-0.42188-0.45312-0.40625z"/>
</symbol>
<symbol id="w" overflow="visible">
<path d="m-0.84375-4.8125-0.5625-0.015625v0.25l0.5625 0.015625c0.57812 0 0.625 0.25 0.625 0.35938 0 0.32812-0.45312 0.35938-0.5 0.35938l-1.9844-0.03125c-0.42188 0-0.8125 0-1.1875 0.35938-0.39062 0.39062-0.5625 0.875-0.5625 1.3594 0 0.8125 0.45312 1.5156 1.1094 1.5156 0.29688 0 0.46875-0.20312 0.48438-0.45312 0-0.28125-0.20312-0.46875-0.45312-0.46875-0.125 0-0.45312 0.0625-0.45312 0.51562-0.35938-0.26562-0.46875-0.76562-0.46875-1.0781 0-0.48438 0.40625-1.0625 1.2969-1.0625l0.35938 0.015625c0.015625 0.51562 0.046875 1.2188 0.34375 1.8438 0.32812 0.75 0.84375 1 1.2812 1 0.8125 0.015625 1.0781-0.95312 1.0781-1.5781 0-0.67188-0.39062-1.125-0.84375-1.3125 0.39062-0.046875 0.8125-0.3125 0.8125-0.78125 0-0.20312-0.125-0.8125-0.9375-0.8125zm-0.51562 1.6406c0.9375 0.015625 1.2656 0.73438 1.2656 1.1875 0 0.48438-0.34375 0.89062-0.84375 0.875-0.54688 0-1.375-0.40625-1.4219-2.0625z"/>
</symbol>
<symbol id="v" overflow="visible">
<path d="m0.35938-5.3125-0.3125-0.015625c-0.03125 0.51562-0.046875 0.76562-0.34375 0.73438l-1.9062-0.125c-0.84375-0.0625-1.1406-0.078125-1.5156 0.20312-0.1875 0.14062-0.40625 0.45312-0.45312 1.0156-0.046875 0.73438 0.34375 1.2344 0.95312 1.5469l-1.0469-0.0625v1.4062l0.3125 0.03125c0.046875-0.70312 0.125-0.78125 0.625-0.75l2.6562 0.1875c0.4375 0.03125 0.42188 0.14062 0.375 0.8125l0.3125 0.015625 0.046875-1.1406 0.10938-1.1094-0.3125-0.015625c-0.046875 0.67188-0.046875 0.78125-0.48438 0.75l-1.8438-0.125c-1.0156-0.078125-1.5312-0.82812-1.4844-1.4531 0.03125-0.625 0.57812-0.70312 1.1406-0.65625l2.3281 0.15625c0.4375 0.03125 0.42188 0.14062 0.39062 0.79688l0.3125 0.015625 0.03125-1.1094z"/>
</symbol>
<symbol id="u" overflow="visible">
<path d="m0.75-2.0156-4.875-0.57812-0.078125 1.5156 0.3125 0.03125c0.09375-0.75 0.17188-0.82812 0.67188-0.78125l3.9062 0.46875c0.45312 0.046875 1.2812 0.25 1.2031 0.875 0 0.046875-0.03125 0.28125-0.20312 0.51562-0.015625-0.15625-0.125-0.375-0.39062-0.40625-0.25-0.03125-0.46875 0.125-0.51562 0.40625-0.03125 0.28125 0.15625 0.48438 0.40625 0.51562 0.51562 0.0625 0.85938-0.46875 0.92188-1.0469 0.09375-0.71875-0.46875-1.4062-1.3594-1.5156zm-6.4688-0.76562c-0.28125-0.03125-0.5625 0.17188-0.59375 0.46875-0.046875 0.34375 0.21875 0.54688 0.46875 0.57812 0.26562 0.03125 0.51562-0.14062 0.5625-0.45312 0.03125-0.32812-0.1875-0.5625-0.4375-0.59375z"/>
</symbol>
<symbol id="t" overflow="visible">
<path d="m-0.09375-4.8906-0.5625-0.09375-0.046875 0.25 0.5625 0.09375c0.5625 0.09375 0.59375 0.34375 0.57812 0.45312-0.0625 0.3125-0.5 0.28125-0.54688 0.26562l-1.9688-0.3125c-0.40625-0.078125-0.79688-0.14062-1.2344 0.15625-0.4375 0.32812-0.67188 0.79688-0.75 1.2812-0.14062 0.79688 0.20312 1.5469 0.85938 1.6562 0.29688 0.046875 0.48438-0.125 0.53125-0.375 0.046875-0.28125-0.10938-0.5-0.35938-0.54688-0.125-0.015625-0.46875 0-0.53125 0.45312-0.3125-0.32812-0.34375-0.82812-0.28125-1.1406 0.078125-0.48438 0.54688-0.98438 1.4375-0.84375l0.34375 0.0625c-0.0625 0.5-0.14062 1.2188 0.0625 1.875 0.21875 0.78125 0.67188 1.125 1.1094 1.1875 0.79688 0.14062 1.2031-0.78125 1.3125-1.3906 0.10938-0.67188-0.23438-1.1719-0.64062-1.4375 0.39062 0.015625 0.85938-0.17188 0.9375-0.64062 0.03125-0.1875-0.015625-0.82812-0.8125-0.95312zm-0.76562 1.5625c0.92188 0.14062 1.1406 0.90625 1.0781 1.3594-0.078125 0.46875-0.5 0.8125-0.98438 0.73438-0.54688-0.09375-1.2812-0.625-1.0781-2.2656z"/>
</symbol>
<symbol id="s" overflow="visible">
<path d="m5.5469 4.4844 0.20312-0.25-0.125-0.09375c-0.46875-0.375-0.54688-0.51562-0.42188-0.82812l2.2344-6.2031c0.046875-0.125 0.078125-0.20312-0.046875-0.3125-0.125-0.09375-0.1875-0.0625-0.3125 0.015625l-5.3281 3.3281c-0.48438 0.28125-0.875 0.15625-1.2969-0.1875l-0.20312 0.25 0.79688 0.59375 0.89062 0.76562 0.20312-0.25c-0.39062-0.3125-0.4375-0.65625-0.28125-0.84375 0.015625-0.03125 0.09375-0.10938 0.10938-0.125l1.1719-0.71875 1.9062 1.5469-0.53125 1.5156c-0.015625 0.046875-0.046875 0.10938-0.0625 0.14062-0.1875 0.21875-0.625-0.14062-0.82812-0.3125l-0.20312 0.25c0.29688 0.20312 0.84375 0.64062 1.1406 0.875zm-0.375-3.6094-1.7344-1.4062 2.9062-1.8438z"/>
</symbol>
<symbol id="r" overflow="visible">
<path d="m6.7031 4.5469 0.17188-0.26562c-0.42188-0.28125-0.625-0.42188-0.46875-0.67188l1.0625-1.5781c0.48438-0.71875 0.65625-0.95312 0.60938-1.4219-0.03125-0.23438-0.1875-0.57812-0.67188-0.90625-0.6875-0.45312-1.3906-0.23438-1.7344 0.015625 0.375-0.8125-0.17188-1.3125-0.54688-1.5625-0.60938-0.40625-1.2344-0.32812-1.8125 0.03125l0.57812-0.85938-1.2188-0.71875-0.17188 0.26562c0.57812 0.39062 0.60938 0.48438 0.32812 0.90625l-1.5 2.2031c-0.25 0.35938-0.34375 0.29688-0.89062-0.078125l-0.17188 0.26562 0.95312 0.60938 0.90625 0.65625 0.17188-0.26562c-0.5625-0.375-0.65625-0.4375-0.40625-0.79688l1.0312-1.5156c0.57812-0.85938 1.4844-0.92188 2-0.57812 0.53125 0.35938 0.32812 0.85938 0.015625 1.3438l-1.3125 1.9219c-0.25 0.35938-0.34375 0.29688-0.89062-0.078125l-0.17188 0.26562 0.9375 0.60938 0.90625 0.64062 0.17188-0.26562c-0.54688-0.35938-0.625-0.42188-0.375-0.78125l1.0312-1.5156c0.57812-0.85938 1.4688-0.9375 2-0.57812 0.51562 0.35938 0.3125 0.85938 0 1.3438l-1.3125 1.9219c-0.25 0.35938-0.34375 0.29688-0.90625-0.078125l-0.17188 0.26562 0.95312 0.59375z"/>
</symbol>
<symbol id="q" overflow="visible">
<path d="m4.6094 1.6406 0.28125-0.48438-0.20312-0.125-0.28125 0.48438c-0.29688 0.5-0.54688 0.42188-0.64062 0.375-0.28125-0.17188-0.078125-0.57812-0.0625-0.625l1-1.7031c0.20312-0.375 0.40625-0.70312 0.28125-1.2031-0.15625-0.54688-0.5-0.92188-0.92188-1.1562-0.70312-0.40625-1.5312-0.34375-1.8594 0.21875-0.14062 0.25-0.0625 0.5 0.15625 0.625 0.23438 0.14062 0.51562 0.0625 0.64062-0.15625 0.0625-0.10938 0.15625-0.42188-0.23438-0.64062 0.42188-0.1875 0.90625-0.03125 1.1719 0.125 0.42188 0.25 0.73438 0.85938 0.28125 1.6406l-0.17188 0.3125c-0.46875-0.23438-1.0938-0.5625-1.7812-0.625-0.82812-0.078125-1.2969 0.25-1.5156 0.625-0.40625 0.70312 0.29688 1.4062 0.84375 1.7188 0.57812 0.34375 1.1875 0.21875 1.5625-0.09375-0.14062 0.375-0.125 0.85938 0.26562 1.0938 0.1875 0.10938 0.78125 0.29688 1.1875-0.40625zm-1.1719-1.2656c-0.46875 0.8125-1.2656 0.75-1.6562 0.53125-0.42188-0.25-0.59375-0.75-0.34375-1.1875 0.26562-0.46875 1.0312-0.98438 2.5-0.20312z"/>
</symbol>
<symbol id="p" overflow="visible">
<path d="m4.9688-1.7031c0.14062-0.28125 0-0.6875-0.375-0.875-0.64062-0.34375-1.2812 0.09375-1.5938 0.40625l0.51562-0.96875-1.2969-0.54688-0.14062 0.28125c0.625 0.32812 0.65625 0.40625 0.4375 0.85938l-1.2344 2.3594c-0.20312 0.39062-0.29688 0.34375-0.89062 0.03125l-0.14062 0.28125 1.0312 0.5c0.34375 0.17188 0.76562 0.39062 1.1094 0.60938l0.14062-0.28125-0.20312-0.09375c-0.64062-0.34375-0.60938-0.4375-0.4375-0.75l0.70312-1.3594c0.45312-0.875 1.2344-1.4844 1.8906-1.1406 0.0625 0.03125 0.09375 0.046875 0.09375 0.0625-0.015625-0.015625-0.26562 0-0.39062 0.23438s0.015625 0.48438 0.20312 0.57812c0.15625 0.078125 0.4375 0.09375 0.57812-0.1875z"/>
</symbol>
<symbol id="n" overflow="visible">
<path d="m4.25 0.65625c0.03125-0.078125-0.015625-0.14062-0.078125-0.15625-0.0625-0.046875-0.10938 0-0.17188 0.0625-0.73438 0.79688-1.5625 0.42188-1.6406 0.375-0.45312-0.20312-0.6875-0.64062-0.73438-1.0781-0.09375-0.54688 0.1875-1.1562 0.34375-1.4688l2.5312 1.1719c0.20312 0.078125 0.21875 0.09375 0.3125-0.10938 0.40625-0.89062 0.32812-2-0.79688-2.5312-1.0469-0.48438-2.3281 0.078125-2.8438 1.2188-0.5625 1.2031-0.015625 2.5156 1.0156 2.9844 1.1094 0.51562 1.9844-0.29688 2.0625-0.46875zm-0.03125-1.4688-2.1562-1c0.6875-1.3281 1.5469-1.2031 1.8594-1.0625 0.92188 0.4375 0.45312 1.7031 0.29688 2.0625z"/>
</symbol>
<symbol id="m" overflow="visible">
<path d="m2.3438 0.98438 0.125-0.28125c-0.60938-0.26562-0.71875-0.3125-0.5625-0.71875l2.375-5.7031-1.3594-0.4375-0.125 0.28125c0.65625 0.26562 0.71875 0.35938 0.51562 0.8125l-2 4.7969c-0.15625 0.40625-0.26562 0.375-0.89062 0.10938l-0.125 0.28125 1.0469 0.39062z"/>
</symbol>
<symbol id="l" overflow="visible">
<path d="m5.125-0.39062c0.4375-1.1875-0.10938-2.5156-1.2344-2.9375-1.1719-0.42188-2.4531 0.25-2.8906 1.4062-0.4375 1.2188 0.20312 2.4844 1.2969 2.8906 1.125 0.42188 2.3906-0.17188 2.8281-1.3594zm-0.71875-0.34375c-0.125 0.32812-0.3125 0.84375-0.67188 1.1719-0.39062 0.35938-0.89062 0.46875-1.3438 0.29688-0.40625-0.14062-0.73438-0.5-0.82812-1.0312-0.078125-0.48438 0.125-1.0625 0.25-1.3906 0.14062-0.375 0.32812-0.875 0.6875-1.2031 0.40625-0.32812 0.92188-0.375 1.2969-0.23438 0.40625 0.15625 0.73438 0.5 0.84375 1 0.09375 0.5-0.10938 1.0312-0.23438 1.3906z"/>
</symbol>
<symbol id="k" overflow="visible">
<path d="m3.9375-8.9375-0.125-0.28125c-0.26562 0.17188-0.64062 0.32812-0.85938 0.4375l-1.0625 0.4375 0.125 0.28125c0.48438-0.1875 0.78125-0.046875 0.875 0.15625 0.03125 0.078125 0.03125 0.15625 0.046875 0.20312l0.32812 5.125-3.8125-3.7969c-0.125-0.10938-0.14062-0.14062-0.14062-0.14062-0.125-0.26562 0.39062-0.48438 0.625-0.59375l-0.125-0.28125c-0.3125 0.17188-0.9375 0.46875-1.2812 0.625l-1.1719 0.48438 0.125 0.28125c0.59375-0.26562 0.76562-0.34375 1.0469-0.0625l4.6406 4.625c0.14062 0.14062 0.1875 0.15625 0.32812 0.09375s0.15625-0.125 0.125-0.26562l-0.39062-6.2656c-0.03125-0.39062 0.09375-0.75 0.70312-1.0625z"/>
</symbol>
<symbol id="j" overflow="visible">
<path d="m3.0938-3c-0.046875-0.078125-0.125-0.0625-0.17188-0.03125-0.0625 0.03125-0.078125 0.09375-0.046875 0.17188 0.17188 1.0781-0.625 1.5-0.70312 1.5469-0.4375 0.23438-0.92188 0.15625-1.3125-0.0625-0.48438-0.26562-0.78125-0.84375-0.95312-1.1719l2.4531-1.3125c0.1875-0.10938 0.21875-0.125 0.10938-0.3125-0.45312-0.875-1.3906-1.4531-2.4844-0.875-1.0156 0.54688-1.3438 1.8906-0.76562 2.9844 0.625 1.1719 2 1.5312 3 1 1.0781-0.57812 0.96875-1.7656 0.875-1.9375zm-1.2031-0.85938-2.0938 1.125c-0.64062-1.3438-0.015625-1.9688 0.28125-2.125 0.90625-0.48438 1.6406 0.65625 1.8125 1z"/>
</symbol>
<symbol id="i" overflow="visible">
<path d="m1.1875-5.1094c-0.15625-0.26562-0.59375-0.375-0.95312-0.15625-0.625 0.375-0.59375 1.125-0.48438 1.5781l-0.5625-0.95312-1.1406 0.79688 0.15625 0.26562c0.60938-0.35938 0.71875-0.34375 0.98438 0.078125l1.3594 2.3125c0.21875 0.375 0.125 0.4375-0.46875 0.78125l0.15625 0.26562 0.96875-0.60938c0.34375-0.20312 0.75-0.4375 1.1094-0.625l-0.15625-0.26562-0.1875 0.125c-0.625 0.375-0.70312 0.28125-0.875-0.03125l-0.78125-1.3125c-0.5-0.85938-0.59375-1.8438 0.046875-2.2188 0.0625-0.03125 0.078125-0.046875 0.09375-0.046875-0.015625 0.015625-0.14062 0.23438 0 0.46875 0.14062 0.21875 0.40625 0.25 0.59375 0.14062 0.15625-0.09375 0.3125-0.32812 0.14062-0.59375z"/>
</symbol>
<symbol id="h" overflow="visible">
<path d="m4.375-2.8906-0.17188-0.26562c-0.5625 0.375-0.67188 0.375-0.95312-0.046875l-3.3281-5.0469-1.125 0.875 0.17188 0.26562c0.5625-0.375 0.67188-0.375 0.9375 0.046875l1.2031 1.7969c-0.4375-0.14062-0.96875-0.10938-1.4062 0.1875-0.98438 0.64062-1.3125 2.0312-0.60938 3.1094 0.70312 1.0469 2.0625 1.3438 3.0156 0.70312 0.53125-0.34375 0.71875-0.89062 0.75-1.2656l0.35938 0.54688zm-1.8594-0.17188c0.09375 0.15625 0.09375 0.15625 0.09375 0.35938 0.015625 0.5625-0.21875 0.98438-0.59375 1.2344s-0.8125 0.21875-1.2031 0.046875c-0.45312-0.20312-0.78125-0.65625-1.0156-1-0.1875-0.29688-0.51562-0.8125-0.53125-1.3438 0.015625-0.39062 0.14062-0.875 0.59375-1.1719 0.29688-0.1875 0.73438-0.28125 1.2188-0.09375 0.1875 0.09375 0.20312 0.10938 0.29688 0.26562z"/>
</symbol>
<symbol id="g" overflow="visible">
<path d="m2.625-3.4219c-0.0625-0.078125-0.14062-0.0625-0.1875-0.015625-0.0625 0.046875-0.0625 0.125-0.03125 0.1875 0.35938 1.0312-0.375 1.5781-0.45312 1.6406-0.40625 0.29688-0.90625 0.28125-1.3125 0.10938-0.51562-0.1875-0.90625-0.71875-1.1094-1l2.2344-1.6562c0.17188-0.14062 0.20312-0.15625 0.0625-0.32812-0.57812-0.79688-1.5938-1.25-2.5938-0.51562-0.92188 0.6875-1.0625 2.0625-0.3125 3.0625 0.78125 1.0781 2.2031 1.2344 3.125 0.5625 0.98438-0.71875 0.6875-1.8906 0.57812-2.0469zm-1.3281-0.67188-1.9062 1.4219c-0.82812-1.25-0.29688-1.9531-0.03125-2.1562 0.82812-0.60938 1.7031 0.42188 1.9375 0.73438z"/>
</symbol>
</defs>
<g>
<use x="181.458" y="79.135" xlink:href="#al"/>
<use x="181.947" y="86.59" xlink:href="#ak"/>
<use x="181.983" y="91.019" xlink:href="#z"/>
<use x="181.664" y="96.544" xlink:href="#o"/>
</g>
<path transform="matrix(1,0,0,-1,94.086,89.221)" d="m58.918-34.017c12.152 21.047 12.152 46.988 0 68.035" fill="none" stroke="#000" stroke-miterlimit="10" stroke-width="24.271"/>
<path transform="matrix(1,0,0,-1,94.086,89.221)" d="m58.918-34.017c12.152 21.047 12.152 46.988 0 68.035" fill="none" stroke="#0c6dfd" stroke-miterlimit="10" stroke-width="22.677"/>
<path transform="matrix(1,0,0,-1,94.086,89.221)" d="m49.098-28.345 19.641-11.34" fill="none" stroke="#000" stroke-miterlimit="10" stroke-width=".79701"/>
<path transform="matrix(1,0,0,-1,94.086,89.221)" d="m-6.25e-5 -0.0016562h50.227" fill="none" stroke="#000" stroke-miterlimit="10" stroke-width=".79701"/>
<path transform="matrix(1 0 0 -1 144.71 89.221)" d="m-2.5517 3.1116c0.46875-1.8672 1.5039-2.75 2.5508-3.1133-1.0469-0.35937-2.082-1.2422-2.5508-3.1094" fill="none" stroke="#000" stroke-linecap="round" stroke-linejoin="round" stroke-miterlimit="10" stroke-width=".79701"/>
<g>
<use x="123.889" y="6.47" xlink:href="#f"/>
<use x="130.777" y="9.362" xlink:href="#e"/>
<use x="133.283" y="10.535" xlink:href="#d"/>
<use x="137.664" y="12.903" xlink:href="#c"/>
<use x="140.054" y="14.298" xlink:href="#b"/>
<use x="143.765" y="16.713" xlink:href="#a"/>
<use x="146.921" y="18.961" xlink:href="#aj"/>
</g>
<path transform="matrix(1,0,0,-1,94.086,89.221)" d="m58.918 34.018c-12.152 21.043-34.617 34.016-58.918 34.016" fill="none" stroke="#000" stroke-miterlimit="10" stroke-width="24.271"/>
<path transform="matrix(1,0,0,-1,94.086,89.221)" d="m58.918 34.018c-12.152 21.043-34.617 34.016-58.918 34.016" fill="none" stroke="#7f007f" stroke-miterlimit="10" stroke-width="22.677"/>
<path transform="matrix(1,0,0,-1,94.086,89.221)" d="m49.098 28.346 19.641 11.34" fill="none" stroke="#000" stroke-miterlimit="10" stroke-width=".79701"/>
<path transform="matrix(1,0,0,-1,94.086,89.221)" d="m-6.25e-5 -0.0016562 25.113 43.5" fill="none" stroke="#000" stroke-miterlimit="10" stroke-width=".79701"/>
<path transform="matrix(.49998 -.86601 -.86601 -.49998 119.4 45.378)" d="m-2.5502 3.1108c0.46374-1.8658 1.5055-2.7483 2.5494-3.111-1.044-0.36367-2.0833-1.2433-2.5488-3.1089" fill="none" stroke="#000" stroke-linecap="round" stroke-linejoin="round" stroke-miterlimit="10" stroke-width=".79701"/>
<g>
<use x="33.396" y="25.56" xlink:href="#ai"/>
<use x="39.052" y="20.678" xlink:href="#ah"/>
<use x="42.578" y="18" xlink:href="#ag"/>
<use x="45.749" y="15.72" xlink:href="#af"/>
<use x="52.928" y="11.551" xlink:href="#ae"/>
<use x="56.898" y="9.593" xlink:href="#ad"/>
<use x="59.41" y="8.431" xlink:href="#ac"/>
<use x="64.566" y="6.416" xlink:href="#ab"/>
</g>
<path transform="matrix(1,0,0,-1,94.086,89.221)" d="m-6.25e-5 68.034c-24.301 0-46.766-12.973-58.918-34.016" fill="none" stroke="#000" stroke-miterlimit="10" stroke-width="24.271"/>
<path transform="matrix(1,0,0,-1,94.086,89.221)" d="m-6.25e-5 68.034c-24.301 0-46.766-12.973-58.918-34.016" fill="none" stroke="#dc3445" stroke-miterlimit="10" stroke-width="22.677"/>
<path transform="matrix(1,0,0,-1,94.086,89.221)" d="m-6.25e-5 56.694v22.676" fill="none" stroke="#000" stroke-miterlimit="10" stroke-width=".79701"/>
<path transform="matrix(1,0,0,-1,94.086,89.221)" d="m-6.25e-5 -0.0016562-25.113 43.5" fill="none" stroke="#000" stroke-miterlimit="10" stroke-width=".79701"/>
<path transform="matrix(-.49998 -.86601 -.86601 .49998 68.773 45.378)" d="m-2.5497 3.1092c0.46558-1.8656 1.5049-2.7452 2.5488-3.1089-1.0438-0.36263-2.0856-1.2452-2.5494-3.111" fill="none" stroke="#000" stroke-linecap="round" stroke-linejoin="round" stroke-miterlimit="10" stroke-width=".79701"/>
<g>
<use x="7.764" y="105.954" xlink:href="#aa"/>
<use x="6.817" y="99.8" xlink:href="#y"/>
<use x="6.372" y="94.839" xlink:href="#x"/>
<use x="6.196" y="90.94" xlink:href="#w"/>
<use x="6.231" y="85.958" xlink:href="#v"/>
<use x="6.64" y="80.439" xlink:href="#u"/>
<use x="6.974" y="77.414" xlink:href="#t"/>
</g>
<path transform="matrix(1,0,0,-1,94.086,89.221)" d="m-58.918 34.018c-12.152-21.047-12.152-46.988 0-68.035" fill="none" stroke="#000" stroke-miterlimit="10" stroke-width="24.271"/>
<path transform="matrix(1,0,0,-1,94.086,89.221)" d="m-58.918 34.018c-12.152-21.047-12.152-46.988 0-68.035" fill="none" stroke="#fd7e13" stroke-miterlimit="10" stroke-width="22.677"/>
<path transform="matrix(1,0,0,-1,94.086,89.221)" d="m-49.098 28.346-19.641 11.34" fill="none" stroke="#000" stroke-miterlimit="10" stroke-width=".79701"/>
<path transform="matrix(1,0,0,-1,94.086,89.221)" d="m-6.25e-5 -0.0016562h-50.227" fill="none" stroke="#000" stroke-miterlimit="10" stroke-width=".79701"/>
<path transform="matrix(-1 0 0 1 43.46 89.221)" d="m-2.5515 3.111c0.46875-1.8672 1.5039-2.75 2.5508-3.1094-1.0469-0.36328-2.082-1.2461-2.5508-3.1133" fill="none" stroke="#000" stroke-linecap="round" stroke-linejoin="round" stroke-miterlimit="10" stroke-width=".79701"/>
<g>
<use x="32.322" y="159.574" xlink:href="#s"/>
<use x="38.123" y="164.291" xlink:href="#r"/>
<use x="45.026" y="168.903" xlink:href="#q"/>
<use x="49.342" y="171.39" xlink:href="#p"/>
<use x="52.803" y="173.189" xlink:href="#n"/>
<use x="56.827" y="175.034" xlink:href="#m"/>
<use x="59.372" y="176.119" xlink:href="#l"/>
</g>
<path transform="matrix(1,0,0,-1,94.086,89.221)" d="m-58.918-34.017c12.152-21.047 34.617-34.016 58.918-34.016" fill="none" stroke="#000" stroke-miterlimit="10" stroke-width="24.271"/>
<path transform="matrix(1,0,0,-1,94.086,89.221)" d="m-58.918-34.017c12.152-21.047 34.617-34.016 58.918-34.016" fill="none" stroke="#ffc106" stroke-miterlimit="10" stroke-width="22.677"/>
<path transform="matrix(1,0,0,-1,94.086,89.221)" d="m-49.098-28.345-19.641-11.34" fill="none" stroke="#000" stroke-miterlimit="10" stroke-width=".79701"/>
<path transform="matrix(1,0,0,-1,94.086,89.221)" d="m-6.25e-5 -0.0016562-25.113-43.496" fill="none" stroke="#000" stroke-miterlimit="10" stroke-width=".79701"/>
<path transform="matrix(-.49998 .86601 .86601 .49998 68.773 133.06)" d="m-2.5507 3.1103c0.46713-1.8638 1.5055-2.7483 2.5494-3.111-1.044-0.36367-2.0833-1.2433-2.5488-3.1089" fill="none" stroke="#000" stroke-linecap="round" stroke-linejoin="round" stroke-miterlimit="10" stroke-width=".79701"/>
<g>
<use x="129.322" y="175.953" xlink:href="#k"/>
<use x="136.105" y="172.823" xlink:href="#j"/>
<use x="140.01" y="170.736" xlink:href="#i"/>
<use x="143.38" y="168.768" xlink:href="#h"/>
<use x="147.988" y="165.703" xlink:href="#g"/>
</g>
<path transform="matrix(1,0,0,-1,94.086,89.221)" d="m-6.25e-5 -68.033c24.301 0 46.766 12.969 58.918 34.016" fill="none" stroke="#000" stroke-miterlimit="10" stroke-width="24.271"/>
<path transform="matrix(1,0,0,-1,94.086,89.221)" d="m-6.25e-5 -68.033c24.301 0 46.766 12.969 58.918 34.016" fill="none" stroke="#188653" stroke-miterlimit="10" stroke-width="22.677"/>
<path transform="matrix(1,0,0,-1,94.086,89.221)" d="m-6.25e-5 -56.693v-22.68" fill="none" stroke="#000" stroke-miterlimit="10" stroke-width=".79701"/>
<path transform="matrix(1,0,0,-1,94.086,89.221)" d="m-6.25e-5 -0.0016562 25.113-43.496" fill="none" stroke="#000" stroke-miterlimit="10" stroke-width=".79701"/>
<path transform="matrix(.49998 .86601 .86601 -.49998 119.4 133.06)" d="m-2.5503 3.1094c0.46558-1.8656 1.5049-2.7452 2.5488-3.1089-1.0438-0.36263-2.0822-1.2471-2.5494-3.111" fill="none" stroke="#000" stroke-linecap="round" stroke-linejoin="round" stroke-miterlimit="10" stroke-width=".79701"/>
</svg>
