<?xml version="1.0" encoding="UTF-8"?>
<svg width="236pt" height="30pt" version="1.1" viewBox="0 0 236 30" xmlns="http://www.w3.org/2000/svg" xmlns:xlink="http://www.w3.org/1999/xlink">
<defs>
<symbol id="b" overflow="visible">
<path d="m6.1094 0v-6.9219h-0.89062v3.0312h-3.3906v-3.0312h-0.89062v6.9219h0.89062v-3.2969h3.3906v3.2969z"/>
</symbol>
<symbol id="a" overflow="visible">
<path d="m6.7656-3.4375c0-2.0938-1.4375-3.7031-3.0938-3.7031-1.7031 0-3.1094 1.625-3.1094 3.7031 0 2.1094 1.4688 3.6562 3.0938 3.6562 1.6719 0 3.1094-1.5625 3.1094-3.6562zm-0.89062-0.15625c0 1.9531-1.0625 3.1719-2.2031 3.1719-1.1719 0-2.2188-1.25-2.2188-3.1719 0-1.8125 1.0938-2.9062 2.2031-2.9062 1.1562 0 2.2188 1.125 2.2188 2.9062z"/>
</symbol>
<symbol id="d" overflow="visible">
<path d="m7.1875-2.5c0-0.1875-0.1875-0.1875-0.32812-0.1875h-2.7812v-2.7969c0-0.14062 0-0.32812-0.20312-0.32812s-0.20312 0.1875-0.20312 0.32812v2.7969h-2.7812c-0.14062 0-0.32812 0-0.32812 0.1875 0 0.20312 0.1875 0.20312 0.32812 0.20312h2.7812v2.7969c0 0.14062 0 0.32812 0.20312 0.32812s0.20312-0.1875 0.20312-0.32812v-2.7969h2.7812c0.14062 0 0.32812 0 0.32812-0.20312z"/>
</symbol>
<symbol id="e" overflow="visible">
<path d="m3.5156-1.2656h-0.23438c-0.015625 0.15625-0.09375 0.5625-0.1875 0.625-0.046875 0.046875-0.57812 0.046875-0.6875 0.046875h-1.2812c0.73438-0.64062 0.98438-0.84375 1.3906-1.1719 0.51562-0.40625 1-0.84375 1-1.5 0-0.84375-0.73438-1.3594-1.625-1.3594-0.85938 0-1.4531 0.60938-1.4531 1.25 0 0.34375 0.29688 0.39062 0.375 0.39062 0.15625 0 0.35938-0.125 0.35938-0.375 0-0.125-0.046875-0.375-0.40625-0.375 0.21875-0.48438 0.6875-0.64062 1.0156-0.64062 0.70312 0 1.0625 0.54688 1.0625 1.1094 0 0.60938-0.4375 1.0781-0.65625 1.3281l-1.6719 1.6719c-0.078125 0.0625-0.078125 0.078125-0.078125 0.26562h2.875z"/>
</symbol>
<symbol id="c" overflow="visible">
<path d="m5.4688-1.7344c0-0.1875-0.17188-0.1875-0.26562-0.1875h-4.1875c-0.10938 0-0.26562 0-0.26562 0.1875 0 0.15625 0.17188 0.15625 0.26562 0.15625h4.1875c0.09375 0 0.26562 0 0.26562-0.15625z"/>
</symbol>
</defs>
<g>
<use x="-0.6" y="22.591" xlink:href="#b"/>
<use x="18.877" y="11.265" xlink:href="#a"/>
</g>
<path transform="matrix(1,0,0,-1,27.497,2.853)" d="m0.60066-0.60012c-0.25-0.25391-0.25-0.66016 0-0.91016 0.25391-0.25391 0.66016-0.25391 0.91016 0 0.25391 0.25 0.25391 0.65625 0 0.91016-0.25 0.25-0.65625 0.25-0.91016 0zm-2.1133 2.1133c-0.25-0.25391-0.25-0.66016 0-0.91016 0.25391-0.25391 0.66016-0.25391 0.91016 0 0.25 0.25 0.25 0.65625 0 0.91016-0.25 0.25-0.65625 0.25-0.91016 0z" stroke="#000" stroke-miterlimit="10" stroke-width=".3985"/>
<path transform="matrix(1,0,0,-1,17.591,2.853)" d="m0.60041 0.603c0.25391-0.25391 0.66016-0.25391 0.91016 0 0.25391 0.25 0.25391 0.65625 0 0.91016-0.25 0.25-0.65625 0.25-0.91016 0-0.25-0.25391-0.25-0.66016 0-0.91016zm-2.1133-2.1133c0.25391-0.25391 0.66016-0.25391 0.91016 0 0.25391 0.25 0.25391 0.65625 0 0.91016-0.25 0.25-0.65625 0.25-0.91016 0-0.25-0.25391-0.25-0.66016 0-0.91016z" stroke="#000" stroke-miterlimit="10" stroke-width=".3985"/>
<path transform="matrix(1,0,0,-1,2.928,22.591)" d="m4.9079 6.2941 9.6602 5.5781" fill="none" stroke="#000" stroke-linecap="round" stroke-miterlimit="10" stroke-width=".59758"/>
<g fill="#dc3445">
<use x="38.632" y="22.591" xlink:href="#b"/>
</g>
<path transform="matrix(1,0,0,-1,2.928,22.591)" d="m24.662 11.872 9.6641-5.5781" fill="none" stroke="#000" stroke-linecap="round" stroke-miterlimit="10" stroke-width=".59758"/>
<g>
<use x="57.644" y="15.959" xlink:href="#d"/>
<use x="77.348" y="16.928" xlink:href="#a"/>
</g>
<path transform="matrix(1,0,0,-1,87.67,13.469)" d="m0.001875-0.85131c-0.35547 0-0.64453-0.28906-0.64453-0.64453 0-0.35547 0.28906-0.64062 0.64453-0.64062 0.35156 0 0.64062 0.28516 0.64062 0.64062 0 0.35547-0.28906 0.64453-0.64062 0.64453zm0 2.9883c-0.35547 0-0.64453-0.28906-0.64453-0.64062 0-0.35547 0.28906-0.64453 0.64453-0.64453 0.35156 0 0.64062 0.28906 0.64062 0.64453 0 0.35156-0.28906 0.64062-0.64062 0.64062z" stroke="#000" stroke-miterlimit="10" stroke-width=".3985"/>
<path transform="matrix(1,0,0,-1,81.015,7.021)" d="m0.85219 0.0014688c0-0.35547 0.28516-0.64453 0.64062-0.64453 0.35547 0 0.64453 0.28906 0.64453 0.64453 0 0.35547-0.28906 0.64063-0.64453 0.64063-0.35547 0-0.64062-0.28516-0.64062-0.64063zm-2.9883 0c0-0.35547 0.28516-0.64453 0.64062-0.64453s0.64453 0.28906 0.64453 0.64453c0 0.35547-0.28906 0.64063-0.64453 0.64063s-0.64062-0.28516-0.64062-0.64063z" stroke="#000" stroke-miterlimit="10" stroke-width=".3985"/>
<path transform="matrix(1,0,0,-1,74.359,13.469)" d="m3.75e-4 0.85181c0.35547 0 0.64453 0.28906 0.64453 0.64453 0 0.35156-0.28906 0.64062-0.64453 0.64062s-0.64453-0.28906-0.64453-0.64062c0-0.35547 0.28906-0.64453 0.64453-0.64453zm0-2.9883c0.35547 0 0.64453 0.28516 0.64453 0.64062 0 0.35547-0.28906 0.64453-0.64453 0.64453s-0.64453-0.28906-0.64453-0.64453c0-0.35547 0.28906-0.64062 0.64453-0.64062z" stroke="#000" stroke-miterlimit="10" stroke-width=".3985"/>
<path transform="matrix(1,0,0,-1,81.015,19.917)" d="m-0.85094-9.6875e-4c0 0.35547-0.28906 0.64453-0.64453 0.64453s-0.64062-0.28906-0.64062-0.64453c0-0.35547 0.28516-0.64063 0.64062-0.64063s0.64453 0.28516 0.64453 0.64063zm2.9883 0c0 0.35547-0.28906 0.64453-0.64453 0.64453-0.35547 0-0.64062-0.28906-0.64062-0.64453 0-0.35547 0.28516-0.64063 0.64062-0.64063 0.35547 0 0.64453 0.28516 0.64453 0.64063z" stroke="#000" stroke-miterlimit="10" stroke-width=".3985"/>
<g>
<use x="85.656" y="7.127" xlink:href="#e"/>
<use x="89.627" y="7.127" xlink:href="#c"/>
</g>
<path transform="matrix(1 0 0 -1 -.6 22.591)" d="m95.245 9.1222h27.957" fill="none" stroke="#000" stroke-miterlimit="10" stroke-width=".3985"/>
<path transform="matrix(1 0 0 -1 119.89 13.469)" d="m4.4463 9e-5 -3.2852 1.3164 1.6484-1.3164-1.6484-1.3164z" stroke="#000" stroke-linejoin="round" stroke-miterlimit="10" stroke-width=".3985"/>
<g>
<use x="134.495" y="16.928" xlink:href="#b"/>
<use x="155.894" y="16.928" xlink:href="#a"/>
</g>
<path transform="matrix(1 0 0 -1 159.56 19.917)" d="m-0.85006-9.6875e-4c0 0.35547-0.28906 0.64453-0.64453 0.64453s-0.64453-0.28906-0.64453-0.64453c0-0.35547 0.28906-0.64063 0.64453-0.64063s0.64453 0.28516 0.64453 0.64063zm2.9883 0c0 0.35547-0.28906 0.64453-0.64453 0.64453-0.35547 0-0.64453-0.28906-0.64453-0.64453 0-0.35547 0.28906-0.64063 0.64453-0.64063 0.35547 0 0.64453 0.28516 0.64453 0.64063z" stroke="#000" stroke-miterlimit="10" stroke-width=".3985"/>
<path transform="matrix(1 0 0 -1 159.56 7.021)" d="m0.84916 0.0014688c0-0.35547 0.28906-0.64453 0.64453-0.64453 0.35547 0 0.64453 0.28906 0.64453 0.64453 0 0.35547-0.28906 0.64063-0.64453 0.64063-0.35547 0-0.64453-0.28516-0.64453-0.64063zm-2.9883 0c0-0.35547 0.28906-0.64453 0.64453-0.64453s0.64453 0.28906 0.64453 0.64453c0 0.35547-0.28906 0.64063-0.64453 0.64063s-0.64453-0.28516-0.64453-0.64063z" stroke="#000" stroke-miterlimit="10" stroke-width=".3985"/>
<path transform="matrix(1 0 0 -1 166.22 13.469)" d="m-0.0011562-0.85131c-0.35547 0-0.64062-0.28906-0.64062-0.64453 0-0.35547 0.28516-0.64062 0.64062-0.64062 0.35547 0 0.64453 0.28516 0.64453 0.64062 0 0.35547-0.28906 0.64453-0.64453 0.64453zm0 2.9883c-0.35547 0-0.64062-0.28906-0.64062-0.64062 0-0.35547 0.28516-0.64453 0.64062-0.64453 0.35547 0 0.64453 0.28906 0.64453 0.64453 0 0.35156-0.28906 0.64062-0.64453 0.64062z" stroke="#000" stroke-miterlimit="10" stroke-width=".3985"/>
<g>
<use x="164.661" y="8.32" xlink:href="#c"/>
</g>
<path transform="matrix(1 0 0 -1 138.02 16.928)" d="m5.1215 3.4592h11.156" fill="none" stroke="#000" stroke-linecap="round" stroke-miterlimit="10" stroke-width=".59758"/>
<g>
<use x="180.164" y="15.959" xlink:href="#d"/>
</g>
<g fill="#dc3445">
<use x="199.868" y="16.928" xlink:href="#b"/>
</g>
<g>
<use x="221.268" y="16.928" xlink:href="#a"/>
</g>
<path transform="matrix(1 0 0 -1 224.93 19.917)" d="m-0.85197-9.6875e-4c0 0.35547-0.28906 0.64453-0.64062 0.64453-0.35547 0-0.64453-0.28906-0.64453-0.64453 0-0.35547 0.28906-0.64063 0.64453-0.64063 0.35156 0 0.64062 0.28516 0.64062 0.64063zm2.9883 0c0 0.35547-0.28516 0.64453-0.64062 0.64453-0.35547 0-0.64453-0.28906-0.64453-0.64453 0-0.35547 0.28906-0.64063 0.64453-0.64063 0.35547 0 0.64062 0.28516 0.64062 0.64063z" stroke="#000" stroke-miterlimit="10" stroke-width=".3985"/>
<path transform="matrix(1 0 0 -1 224.93 7.021)" d="m0.85116 0.0014688c0-0.35547 0.28906-0.64453 0.64453-0.64453 0.35547 0 0.64062 0.28906 0.64062 0.64453 0 0.35547-0.28516 0.64063-0.64062 0.64063-0.35547 0-0.64453-0.28516-0.64453-0.64063zm-2.9883 0c0-0.35547 0.28906-0.64453 0.64453-0.64453 0.35156 0 0.64062 0.28906 0.64062 0.64453 0 0.35547-0.28906 0.64063-0.64062 0.64063-0.35547 0-0.64453-0.28516-0.64453-0.64063z" stroke="#000" stroke-miterlimit="10" stroke-width=".3985"/>
<path transform="matrix(1,0,0,-1,231.59,13.469)" d="m-1.5625e-4 -0.85131c-0.35547 0-0.64453-0.28906-0.64453-0.64453 0-0.35547 0.28906-0.64062 0.64453-0.64062 0.35547 0 0.64453 0.28516 0.64453 0.64062 0 0.35547-0.28906 0.64453-0.64453 0.64453zm0 2.9883c-0.35547 0-0.64453-0.28906-0.64453-0.64062 0-0.35547 0.28906-0.64453 0.64453-0.64453 0.35547 0 0.64453 0.28906 0.64453 0.64453 0 0.35156-0.28906 0.64062-0.64453 0.64062z" stroke="#000" stroke-miterlimit="10" stroke-width=".3985"/>
<g>
<use x="230.035" y="8.32" xlink:href="#c"/>
</g>
<path transform="matrix(1 0 0 -1 203.4 16.928)" d="m5.1225 3.4592h11.156" fill="none" stroke="#000" stroke-linecap="round" stroke-miterlimit="10" stroke-width=".59758"/>
<path transform="matrix(1 0 0 -1 228.6 22.591)" d="m-154.57 16.103c-9.0547 9.0547-20.535 6.9961-27.305-4.7305" fill="none" stroke="#188653" stroke-miterlimit="10" stroke-width=".59776"/>
<path transform="matrix(-.5 .86601 .86601 .5 48.385 8.3454)" d="m5.1712 0.001141-3.4268 1.3729 1.7223-1.3737-1.7236-1.374z" fill="#188653" stroke="#188653" stroke-linejoin="round" stroke-miterlimit="10" stroke-width=".59776"/>
<path transform="matrix(1 0 0 -1 228.6 22.591)" d="m-189.93-2.5887c-5.0156-8.6797-16.125 0.36719-16.125 8.7734" fill="none" stroke="#188653" stroke-miterlimit="10" stroke-width=".59776"/>
<path transform="matrix(0 -1 -1 0 22.542 19.726)" d="m5.1712-0.0011888-3.4297 1.375 1.7266-1.375-1.7266-1.375z" fill="#188653" stroke="#188653" stroke-linejoin="round" stroke-miterlimit="10" stroke-width=".59776"/>
</svg>
