<?xml version="1.0" encoding="UTF-8"?>
<svg width="230pt" height="59pt" version="1.1" viewBox="0 0 230 59" xmlns="http://www.w3.org/2000/svg" xmlns:xlink="http://www.w3.org/1999/xlink">
<defs>
<symbol id="a" overflow="visible">
<path d="m6.7656-3.4375c0-2.0938-1.4375-3.7031-3.0938-3.7031-1.7031 0-3.1094 1.625-3.1094 3.7031 0 2.1094 1.4688 3.6562 3.0938 3.6562 1.6719 0 3.1094-1.5625 3.1094-3.6562zm-0.89062-0.15625c0 1.9531-1.0625 3.1719-2.2031 3.1719-1.1719 0-2.2188-1.25-2.2188-3.1719 0-1.8125 1.0938-2.9062 2.2031-2.9062 1.1562 0 2.2188 1.125 2.2188 2.9062z"/>
</symbol>
<symbol id="c" overflow="visible">
<path d="m5.8594-0.45312-0.0625-0.6875c-0.29688 0.20312-0.57812 0.39062-0.92188 0.5-0.3125 0.10938-0.67188 0.10938-1 0.10938-0.65625 0-1.25-0.34375-1.6562-0.85938-0.45312-0.57812-0.67188-1.3281-0.67188-2.0625 0-0.75 0.21875-1.5 0.67188-2.0938 0.40625-0.5 1-0.85938 1.6562-0.85938 0.29688 0 0.59375 0.03125 0.89062 0.125s0.57812 0.23438 0.84375 0.42188l0.125-0.8125c-0.29688-0.125-0.59375-0.21875-0.92188-0.28125-0.3125-0.0625-0.625-0.078125-0.9375-0.078125-0.89062 0-1.6875 0.39062-2.2812 1.0469-0.60938 0.6875-0.9375 1.5938-0.9375 2.5312 0 0.92188 0.32812 1.8281 0.9375 2.5156 0.59375 0.64062 1.3906 1.0469 2.2812 1.0469 0.34375 0 0.6875-0.015625 1.0312-0.10938s0.64062-0.26562 0.95312-0.45312z"/>
</symbol>
<symbol id="b" overflow="visible">
<path d="m6.1094 0v-6.9219h-0.89062v3.0312h-3.3906v-3.0312h-0.89062v6.9219h0.89062v-3.2969h3.3906v3.2969z"/>
</symbol>
<symbol id="d" overflow="visible">
<path d="m7.1875-2.5c0-0.1875-0.1875-0.1875-0.32812-0.1875h-2.7812v-2.7969c0-0.14062 0-0.32812-0.20312-0.32812s-0.20312 0.1875-0.20312 0.32812v2.7969h-2.7812c-0.14062 0-0.32812 0-0.32812 0.1875 0 0.20312 0.1875 0.20312 0.32812 0.20312h2.7812v2.7969c0 0.14062 0 0.32812 0.20312 0.32812s0.20312-0.1875 0.20312-0.32812v-2.7969h2.7812c0.14062 0 0.32812 0 0.32812-0.20312z"/>
</symbol>
</defs>
<g>
<use x="10.352" y="53.788" xlink:href="#a"/>
</g>
<path transform="matrix(1,0,0,-1,18.972,55.281)" d="m-0.60091-0.60181c-0.25391 0.25-0.66016 0.25-0.91016 0s-0.25-0.66016 0-0.91016 0.65625-0.25 0.91016 0c0.25 0.25 0.25 0.66016 0 0.91016zm2.1133 2.1133c-0.25391 0.25-0.66016 0.25-0.91016 0s-0.25-0.66016 0-0.91016 0.65625-0.25 0.91016 0c0.25 0.25 0.25 0.66016 0 0.91016z" stroke="#000" stroke-miterlimit="10" stroke-width=".3985"/>
<path transform="matrix(1,0,0,-1,9.066,55.281)" d="m-0.60116 0.60131c0.25 0.25 0.25 0.66016 0 0.91016s-0.66016 0.25-0.91016 0-0.25-0.66016 0-0.91016 0.66016-0.25 0.91016 0zm2.1133-2.1133c0.25 0.25 0.25 0.66016 0 0.91016s-0.66016 0.25-0.91016 0-0.25-0.66016 0-0.91016 0.66016-0.25 0.91016 0z" stroke="#000" stroke-miterlimit="10" stroke-width=".3985"/>
<g>
<use x="10.836" y="32.526" xlink:href="#c"/>
</g>
<path transform="matrix(1,0,0,-1,14.019,53.788)" d="m-1.2456 8.5107v11.156" fill="none" stroke="#000" stroke-linecap="round" stroke-miterlimit="10" stroke-width=".59758"/>
<path transform="matrix(1,0,0,-1,14.019,53.788)" d="m1.2466 8.5107v11.156" fill="none" stroke="#000" stroke-linecap="round" stroke-miterlimit="10" stroke-width=".59758"/>
<g>
<use x="10.352" y="11.265" xlink:href="#a"/>
</g>
<path transform="matrix(1,0,0,-1,18.972,2.853)" d="m0.60222-0.60012c-0.25-0.25391-0.25-0.66016 0-0.91016 0.25-0.25391 0.65625-0.25391 0.91016 0 0.25 0.25 0.25 0.65625 0 0.91016-0.25391 0.25-0.66016 0.25-0.91016 0zm-2.1133 2.1133c-0.25-0.25391-0.25-0.66016 0-0.91016 0.25-0.25391 0.65625-0.25391 0.91016 0 0.25 0.25 0.25 0.65625 0 0.91016-0.25391 0.25-0.66016 0.25-0.91016 0z" stroke="#000" stroke-miterlimit="10" stroke-width=".3985"/>
<path transform="matrix(1,0,0,-1,9.066,2.853)" d="m0.60197 0.603c0.25-0.25391 0.66016-0.25391 0.91016 0 0.25 0.25 0.25 0.65625 0 0.91016-0.25 0.25-0.66016 0.25-0.91016 0-0.25-0.25391-0.25-0.66016 0-0.91016zm-2.1133-2.1133c0.25-0.25391 0.66016-0.25391 0.91016 0 0.25 0.25 0.25 0.65625 0 0.91016-0.25 0.25-0.66016 0.25-0.91016 0-0.25-0.25391-0.25-0.66016 0-0.91016z" stroke="#000" stroke-miterlimit="10" stroke-width=".3985"/>
<path transform="matrix(1,0,0,-1,14.019,53.788)" d="m-1.2456 29.772v11.156" fill="none" stroke="#000" stroke-linecap="round" stroke-miterlimit="10" stroke-width=".59758"/>
<path transform="matrix(1,0,0,-1,14.019,53.788)" d="m1.2466 29.772v11.156" fill="none" stroke="#000" stroke-linecap="round" stroke-miterlimit="10" stroke-width=".59758"/>
<g>
<use x="29.641" y="31.558" xlink:href="#d"/>
</g>
<g fill="#dc3445">
<use x="49.345" y="38.189" xlink:href="#b"/>
</g>
<g>
<use x="68.823" y="26.863" xlink:href="#a"/>
</g>
<path transform="matrix(1,0,0,-1,77.442,18.451)" d="m0.60097-0.60369c-0.25-0.25-0.25-0.65625 0-0.90625 0.25391-0.25391 0.66016-0.25391 0.91016 0 0.25 0.25 0.25 0.65625 0 0.90625-0.25 0.25391-0.65625 0.25391-0.91016 0zm-2.1133 2.1172c-0.25-0.25391-0.25-0.66016 0-0.91016 0.25-0.25391 0.66016-0.25391 0.91016 0 0.25 0.25 0.25 0.65625 0 0.91016-0.25 0.25-0.66016 0.25-0.91016 0z" stroke="#000" stroke-miterlimit="10" stroke-width=".3985"/>
<path transform="matrix(1,0,0,-1,67.536,18.451)" d="m0.60072 0.60334c0.25391-0.25391 0.66016-0.25391 0.91016 0 0.25391 0.25 0.25391 0.65625 0 0.91016-0.25 0.25-0.65625 0.25-0.91016 0-0.25-0.25391-0.25-0.66016 0-0.91016zm-2.1133-2.1133c0.25391-0.25391 0.66016-0.25391 0.91016 0 0.25 0.25 0.25 0.65625 0 0.90625-0.25 0.25391-0.65625 0.25391-0.91016 0-0.25-0.25-0.25-0.65625 0-0.90625z" stroke="#000" stroke-miterlimit="10" stroke-width=".3985"/>
<path transform="matrix(1,0,0,-1,52.873,38.189)" d="m4.9082 6.2945 9.6602 5.5781" fill="none" stroke="#000" stroke-linecap="round" stroke-miterlimit="10" stroke-width=".59758"/>
<g>
<use x="88.577" y="38.189" xlink:href="#b"/>
</g>
<path transform="matrix(1,0,0,-1,52.873,38.189)" d="m24.662 11.873 9.6641-5.5781" fill="none" stroke="#000" stroke-linecap="round" stroke-miterlimit="10" stroke-width=".59758"/>
<path transform="matrix(1,0,0,-1,10.352,53.788)" d="m95.246 24.722h27.953" fill="none" stroke="#000" stroke-miterlimit="10" stroke-width=".3985"/>
<path transform="matrix(1 0 0 -1 130.84 29.067)" d="m4.4435 7.5375e-4 -3.2812 1.3164 1.6484-1.3164-1.6484-1.3164z" stroke="#000" stroke-linejoin="round" stroke-miterlimit="10" stroke-width=".3985"/>
<g fill="#dc3445">
<use x="145.447" y="37.395" xlink:href="#b"/>
</g>
<g>
<use x="164.925" y="48.721" xlink:href="#a"/>
</g>
<path transform="matrix(1 0 0 -1 173.54 50.214)" d="m-0.60359-0.60241c-0.25 0.25-0.65625 0.25-0.90625 0-0.25391-0.25-0.25391-0.65625 0-0.91016 0.25-0.25 0.65625-0.25 0.90625 0 0.25391 0.25391 0.25391 0.66016 0 0.91016zm2.1133 2.1133c-0.25 0.25391-0.65625 0.25391-0.90625 0-0.25391-0.25-0.25391-0.65625 0-0.91016 0.25-0.25 0.65625-0.25 0.90625 0 0.25391 0.25391 0.25391 0.66016 0 0.91016z" stroke="#000" stroke-miterlimit="10" stroke-width=".3985"/>
<path transform="matrix(1 0 0 -1 163.64 50.214)" d="m-0.60284 0.60072c0.25391 0.25391 0.25391 0.66016 0 0.91016-0.25 0.25391-0.65625 0.25391-0.91016 0-0.25-0.25-0.25-0.65625 0-0.91016 0.25391-0.25 0.66016-0.25 0.91016 0zm2.1133-2.1133c0.25391 0.25391 0.25391 0.66016 0 0.91016-0.25 0.25-0.65625 0.25-0.91016 0-0.25-0.25-0.25-0.65625 0-0.91016 0.25391-0.25 0.66016-0.25 0.91016 0z" stroke="#000" stroke-miterlimit="10" stroke-width=".3985"/>
<path transform="matrix(1 0 0 -1 148.98 37.395)" d="m4.9078 0.62547 9.6602-5.5781" fill="none" stroke="#000" stroke-linecap="round" stroke-miterlimit="10" stroke-width=".59758"/>
<g>
<use x="184.679" y="37.595" xlink:href="#c"/>
</g>
<path transform="matrix(1 0 0 -1 148.98 37.395)" d="m24.662-4.9527 9.6641 5.5781" fill="none" stroke="#000" stroke-linecap="round" stroke-miterlimit="10" stroke-width=".59758"/>
<g>
<use x="184.195" y="16.334" xlink:href="#a"/>
</g>
<path transform="matrix(1 0 0 -1 192.82 7.921)" d="m0.60297-0.60244c-0.25391-0.25-0.25391-0.65625 0-0.91016 0.25-0.25 0.65625-0.25 0.91016 0 0.25 0.25391 0.25 0.66016 0 0.91016-0.25391 0.25-0.66016 0.25-0.91016 0zm-2.1133 2.1133c-0.25391-0.25-0.25391-0.65625 0-0.91016 0.25-0.25 0.65625-0.25 0.91016 0 0.25 0.25391 0.25 0.66016 0 0.91016-0.25391 0.25391-0.66016 0.25391-0.91016 0z" stroke="#000" stroke-miterlimit="10" stroke-width=".3985"/>
<path transform="matrix(1 0 0 -1 182.91 7.921)" d="m0.60272 0.60069c0.25-0.25 0.65625-0.25 0.91016 0 0.25 0.25391 0.25 0.66016 0 0.91016-0.25391 0.25391-0.66016 0.25391-0.91016 0-0.25391-0.25-0.25391-0.65625 0-0.91016zm-2.1133-2.1133c0.25-0.25 0.65625-0.25 0.91016 0 0.25 0.25391 0.25 0.66016 0 0.91016-0.25391 0.25-0.66016 0.25-0.91016 0-0.25391-0.25-0.25391-0.65625 0-0.91016z" stroke="#000" stroke-miterlimit="10" stroke-width=".3985"/>
<path transform="matrix(1 0 0 -1 148.98 37.395)" d="m37.642 8.313v11.156" fill="none" stroke="#000" stroke-linecap="round" stroke-miterlimit="10" stroke-width=".59758"/>
<path transform="matrix(1 0 0 -1 148.98 37.395)" d="m40.13 8.313v11.156" fill="none" stroke="#000" stroke-linecap="round" stroke-miterlimit="10" stroke-width=".59758"/>
<g>
<use x="203.466" y="48.721" xlink:href="#a"/>
</g>
<path transform="matrix(1 0 0 -1 212.08 50.214)" d="m-0.60062-0.60241c-0.25391 0.25-0.66016 0.25-0.91016 0-0.25391-0.25-0.25391-0.65625 0-0.91016 0.25-0.25 0.65625-0.25 0.91016 0 0.25 0.25391 0.25 0.66016 0 0.91016zm2.1133 2.1133c-0.25391 0.25391-0.66016 0.25391-0.91016 0-0.25391-0.25-0.25391-0.65625 0-0.91016 0.25-0.25 0.65625-0.25 0.91016 0 0.25 0.25391 0.25 0.66016 0 0.91016z" stroke="#000" stroke-miterlimit="10" stroke-width=".3985"/>
<path transform="matrix(1 0 0 -1 202.18 50.214)" d="m-0.60088 0.60072c0.25 0.25391 0.25 0.66016 0 0.91016-0.25391 0.25391-0.66016 0.25391-0.91016 0-0.25-0.25-0.25-0.65625 0-0.91016 0.25-0.25 0.65625-0.25 0.91016 0zm2.1133-2.1133c0.25 0.25391 0.25 0.66016 0 0.91016-0.25391 0.25-0.66016 0.25-0.91016 0s-0.25-0.65625 0-0.91016c0.25-0.25 0.65625-0.25 0.91016 0z" stroke="#000" stroke-miterlimit="10" stroke-width=".3985"/>
<path transform="matrix(1 0 0 -1 148.98 37.395)" d="m43.451 0.62547 9.6602-5.5781" fill="none" stroke="#000" stroke-linecap="round" stroke-miterlimit="10" stroke-width=".59758"/>
<g>
<use x="223.22" y="37.395" xlink:href="#b"/>
</g>
<path transform="matrix(1 0 0 -1 148.98 37.395)" d="m63.205-4.9527 9.6602 5.5781" fill="none" stroke="#000" stroke-linecap="round" stroke-miterlimit="10" stroke-width=".59758"/>
<path transform="matrix(1 0 0 -1 230.28 53.788)" d="m-165.48 38.069c-14.363 14.363-28.734 8.6992-43.965-6.5312" fill="none" stroke="#188653" stroke-miterlimit="10" stroke-width=".59776"/>
<path transform="matrix(-.70709 .7071 .7071 .70709 23.181 19.902)" d="m5.172-0.0012024-3.4306 1.3756 1.7264-1.3728-1.7236-1.3756z" fill="#188653" stroke="#188653" stroke-linejoin="round" stroke-miterlimit="10" stroke-width=".59776"/>
<path transform="matrix(1 0 0 -1 230.28 53.788)" d="m-207.42-1.6456c10.797-6.2344 18.672 1.0625 25.445 12.789" fill="none" stroke="#188653" stroke-miterlimit="10" stroke-width=".59776"/>
<path transform="matrix(.5 -.86601 -.86601 -.5 46.644 45.516)" d="m5.1742 5.4919e-4 -3.4322 1.3743 1.7276-1.3751-1.727-1.376z" fill="#188653" stroke="#188653" stroke-linejoin="round" stroke-miterlimit="10" stroke-width=".59776"/>
<path transform="matrix(1 0 0 -1 230.28 53.788)" d="m-222.33 23.097c-10.359-2.7773-8.6602-11.133-2.0508-14.949" fill="none" stroke="#188653" stroke-miterlimit="10" stroke-width=".59776"/>
<path transform="matrix(.86601 .5 .5 -.86601 3.0225 43.982)" d="m5.1734 0.0023587-3.4302 1.3709 1.7223-1.3737-1.7236-1.374z" fill="#188653" stroke="#188653" stroke-linejoin="round" stroke-miterlimit="10" stroke-width=".59776"/>
</svg>
