<?xml version="1.0" encoding="UTF-8"?>
<svg width="75pt" height="95pt" version="1.1" viewBox="0 0 75 95" xmlns="http://www.w3.org/2000/svg" xmlns:xlink="http://www.w3.org/1999/xlink">
<defs>
<symbol id="g" overflow="visible">
<path d="m5.7969-4.9062c0-1.0625-0.98438-2.0156-2.3594-2.0156h-2.4844v6.9219h0.89062v-2.875h1.6719c1.2344 0 2.2812-0.90625 2.2812-2.0312zm-0.79688 0c0 0.79688-0.64062 1.4531-1.7812 1.4531h-1.4062v-2.9062h1.4062c1.0938 0 1.7812 0.60938 1.7812 1.4531z"/>
</symbol>
<symbol id="f" overflow="visible">
<path d="m4.7812-2.2188c0-1.2344-0.67188-2.3125-1.6094-2.3125-0.39062 0-1.0156 0.09375-1.6094 0.57812v-2.9688h-0.75v6.9219h0.78125v-0.45312c0.23438 0.21875 0.67188 0.5625 1.3438 0.5625 0.98438 0 1.8438-1 1.8438-2.3281zm-0.78125 0c0 1.2969-0.82812 1.7188-1.4375 1.7188-0.39062 0-0.71875-0.17188-0.96875-0.64062v-2.2031c0.15625-0.23438 0.51562-0.57812 1.0625-0.57812 0.59375 0 1.3438 0.42188 1.3438 1.7031z"/>
</symbol>
<symbol id="a" overflow="visible">
<path d="m6.7656-3.4375c0-2.0938-1.4375-3.7031-3.0938-3.7031-1.7031 0-3.1094 1.625-3.1094 3.7031 0 2.1094 1.4688 3.6562 3.0938 3.6562 1.6719 0 3.1094-1.5625 3.1094-3.6562zm-0.89062-0.15625c0 1.9531-1.0625 3.1719-2.2031 3.1719-1.1719 0-2.2188-1.25-2.2188-3.1719 0-1.8125 1.0938-2.9062 2.2031-2.9062 1.1562 0 2.2188 1.125 2.2188 2.9062z"/>
</symbol>
<symbol id="c" overflow="visible">
<path d="m6.0938 0v-6.9219h-0.78125v6.2188h-0.015625l-0.65625-1.375-2.4531-4.8438h-1.2344v6.9219h0.78125v-6.2031h0.015625l0.65625 1.3594 2.4531 4.8438z"/>
</symbol>
<symbol id="e" overflow="visible">
<path d="m3.5156-1.2656h-0.23438c-0.015625 0.15625-0.09375 0.5625-0.1875 0.625-0.046875 0.046875-0.57812 0.046875-0.6875 0.046875h-1.2812c0.73438-0.64062 0.98438-0.84375 1.3906-1.1719 0.51562-0.40625 1-0.84375 1-1.5 0-0.84375-0.73438-1.3594-1.625-1.3594-0.85938 0-1.4531 0.60938-1.4531 1.25 0 0.34375 0.29688 0.39062 0.375 0.39062 0.15625 0 0.35938-0.125 0.35938-0.375 0-0.125-0.046875-0.375-0.40625-0.375 0.21875-0.48438 0.6875-0.64062 1.0156-0.64062 0.70312 0 1.0625 0.54688 1.0625 1.1094 0 0.60938-0.4375 1.0781-0.65625 1.3281l-1.6719 1.6719c-0.078125 0.0625-0.078125 0.078125-0.078125 0.26562h2.875z"/>
</symbol>
<symbol id="d" overflow="visible">
<path d="m5.6094-1.7344c0-0.1875-0.15625-0.1875-0.25-0.1875h-2.1406v-2.1406c0-0.078125 0-0.25-0.15625-0.25-0.17188 0-0.17188 0.15625-0.17188 0.25v2.1406h-2.1406c-0.09375 0-0.26562 0-0.26562 0.17188s0.15625 0.17188 0.26562 0.17188h2.1406v2.1406c0 0.09375 0 0.26562 0.15625 0.26562 0.17188 0 0.17188-0.17188 0.17188-0.26562v-2.1406h2.1406c0.09375 0 0.25 0 0.25-0.15625z"/>
</symbol>
<symbol id="b" overflow="visible">
<path d="m5.4688-1.7344c0-0.1875-0.17188-0.1875-0.26562-0.1875h-4.1875c-0.10938 0-0.26562 0-0.26562 0.1875 0 0.15625 0.17188 0.15625 0.26562 0.15625h4.1875c0.09375 0 0.26562 0 0.26562-0.15625z"/>
</symbol>
</defs>
<g fill="#dc3445">
<use x="34.323" y="50.644" xlink:href="#g"/>
<use x="40.688105" y="50.644" xlink:href="#f"/>
<use x="42.102" y="41.902" xlink:href="#e"/>
<use x="46.072882" y="41.902" xlink:href="#d"/>
</g>
<g>
<use x="61.35" y="44.469" xlink:href="#a"/>
<use x="68.683" y="40.853" xlink:href="#b"/>
</g>
<path transform="matrix(1,0,0,-1,40.079,50.644)" d="m7.296 5.4135 12.434 3.332" fill="none" stroke="#dc3445" stroke-linecap="round" stroke-miterlimit="10" stroke-width=".79701"/>
<path transform="matrix(1,0,0,-1,40.079,50.644)" d="m21.851 15.488-2.293 3.9688" fill="none" stroke="#000" stroke-linecap="round" stroke-miterlimit="10" stroke-width=".59758"/>
<g>
<use x="63.578" y="27.04" xlink:href="#a"/>
</g>
<path transform="matrix(1,0,0,-1,40.079,50.644)" d="m18.226 19.882 3.4727 3.4766" fill="none" stroke="#000" stroke-linecap="round" stroke-miterlimit="10" stroke-width=".59758"/>
<path transform="matrix(1,0,0,-1,40.079,50.644)" d="m19.984 18.121 3.4766 3.4766" fill="none" stroke="#000" stroke-linecap="round" stroke-miterlimit="10" stroke-width=".59758"/>
<g>
<use x="36.412" y="25.334" xlink:href="#a"/>
<use x="43.746" y="21.719" xlink:href="#b"/>
</g>
<path transform="matrix(1,0,0,-1,40.079,50.644)" d="m-8.75e-4 8.5112v15.207" fill="none" stroke="#dc3445" stroke-linecap="round" stroke-miterlimit="10" stroke-width=".79701"/>
<path transform="matrix(1,0,0,-1,40.079,50.644)" d="m-5.0478 32.191-7.375 4.2578" fill="none" stroke="#000" stroke-linecap="round" stroke-miterlimit="10" stroke-width=".59758"/>
<g>
<use x="21.207" y="7.265" xlink:href="#a"/>
</g>
<path transform="matrix(1,0,0,-1,40.079,50.644)" d="m-13.458 35.503-1.6094 6.0156" fill="none" stroke="#000" stroke-linecap="round" stroke-miterlimit="10" stroke-width=".59758"/>
<path transform="matrix(1,0,0,-1,40.079,50.644)" d="m-11.052 36.148-1.6133 6.0156" fill="none" stroke="#000" stroke-linecap="round" stroke-miterlimit="10" stroke-width=".59758"/>
<g>
<use x="17.919" y="39.887" xlink:href="#c"/>
</g>
<path transform="matrix(1,0,0,-1,40.079,50.644)" d="m-7.1376 7.5776-6.5859 3.8047" fill="none" stroke="#dc3445" stroke-linecap="round" stroke-miterlimit="10" stroke-width=".79701"/>
<path transform="matrix(1,0,0,-1,40.079,50.644)" d="m-23.755 14.218h-9.2188" fill="none" stroke="#000" stroke-linecap="round" stroke-miterlimit="10" stroke-width=".59758"/>
<path transform="matrix(1,0,0,-1,40.079,50.644)" d="m-19.97 19.214-2.375 8.8555" fill="none" stroke="#000" stroke-linecap="round" stroke-miterlimit="10" stroke-width=".59758"/>
<path transform="matrix(1,0,0,-1,40.079,50.644)" d="m-12.423 36.449-9.9219-8.3789" fill="none" stroke="#000" stroke-linecap="round" stroke-miterlimit="10" stroke-width=".59758"/>
<path transform="matrix(1,0,0,-1,40.079,50.644)" d="m-13.724 17.05 7.5117 4.3359" fill="none" stroke="#000" stroke-linecap="round" stroke-miterlimit="10" stroke-width=".59758"/>
<path transform="matrix(1,0,0,-1,40.079,50.644)" d="m19.558 19.456-25.77 1.9297" fill="none" stroke="#000" stroke-linecap="round" stroke-miterlimit="10" stroke-width=".59758"/>
<g>
<use x="55.044" y="61.908" xlink:href="#a"/>
<use x="62.378" y="58.293" xlink:href="#b"/>
</g>
<path transform="matrix(1,0,0,-1,40.079,50.644)" d="m7.1358-0.66069 6.4492-3.7227" fill="none" stroke="#dc3445" stroke-linecap="round" stroke-miterlimit="10" stroke-width=".79701"/>
<path transform="matrix(1,0,0,-1,40.079,50.644)" d="m13.839-12.09-2.8125-2.8125" fill="none" stroke="#000" stroke-linecap="round" stroke-miterlimit="10" stroke-width=".59758"/>
<g>
<use x="52.816" y="78.323" xlink:href="#a"/>
</g>
<path transform="matrix(1,0,0,-1,40.079,50.644)" d="m11.78-13.723 2.9062-5.0352" fill="none" stroke="#000" stroke-linecap="round" stroke-miterlimit="10" stroke-width=".59758"/>
<path transform="matrix(1,0,0,-1,40.079,50.644)" d="m9.6241-14.969 2.9062-5.0352" fill="none" stroke="#000" stroke-linecap="round" stroke-miterlimit="10" stroke-width=".59758"/>
<g>
<use x="36.412" y="76.968" xlink:href="#a"/>
<use x="43.746" y="73.353" xlink:href="#b"/>
</g>
<path transform="matrix(1,0,0,-1,40.079,50.644)" d="m-8.75e-4 -1.5943v-15.203" fill="none" stroke="#dc3445" stroke-linecap="round" stroke-miterlimit="10" stroke-width=".79701"/>
<path transform="matrix(1,0,0,-1,40.079,50.644)" d="m-5.0478-25.27-7.375-4.2578" fill="none" stroke="#000" stroke-linecap="round" stroke-miterlimit="10" stroke-width=".59758"/>
<g>
<use x="21.207" y="94.023" xlink:href="#a"/>
</g>
<path transform="matrix(1,0,0,-1,40.079,50.644)" d="m-11.052-29.231-1.6133-6.0117" fill="none" stroke="#000" stroke-linecap="round" stroke-miterlimit="10" stroke-width=".59758"/>
<path transform="matrix(1,0,0,-1,40.079,50.644)" d="m-13.458-28.586-1.6094-6.0117" fill="none" stroke="#000" stroke-linecap="round" stroke-miterlimit="10" stroke-width=".59758"/>
<g>
<use x="11.614" y="57.326" xlink:href="#c"/>
</g>
<path transform="matrix(1,0,0,-1,40.079,50.644)" d="m-7.2938 1.5034-12.574-3.3672" fill="none" stroke="#dc3445" stroke-linecap="round" stroke-miterlimit="10" stroke-width=".79701"/>
<path transform="matrix(1,0,0,-1,40.079,50.644)" d="m-30.005-1.8638-8.7852 2.3516" fill="none" stroke="#000" stroke-linecap="round" stroke-miterlimit="10" stroke-width=".59758"/>
<path transform="matrix(1,0,0,-1,40.079,50.644)" d="m-32.974 14.218-5.8164-13.73" fill="none" stroke="#000" stroke-linecap="round" stroke-miterlimit="10" stroke-width=".59758"/>
<path transform="matrix(1,0,0,-1,40.079,50.644)" d="m-26.278-8.2232-2.3711-8.8555" fill="none" stroke="#000" stroke-linecap="round" stroke-miterlimit="10" stroke-width=".59758"/>
<path transform="matrix(1,0,0,-1,40.079,50.644)" d="m-12.423-29.528-16.227 12.449" fill="none" stroke="#000" stroke-linecap="round" stroke-miterlimit="10" stroke-width=".59758"/>
<path transform="matrix(1,0,0,-1,40.079,50.644)" d="m-22.145-8.063 2.5859-4.4766" fill="none" stroke="#000" stroke-linecap="round" stroke-miterlimit="10" stroke-width=".59758"/>
<path transform="matrix(1,0,0,-1,40.079,50.644)" d="m11.026-14.903-30.586 2.3633" fill="none" stroke="#000" stroke-linecap="round" stroke-miterlimit="10" stroke-width=".59758"/>
</svg>
