<?xml version="1.0" encoding="UTF-8"?>
<svg width="52pt" height="44pt" version="1.1" viewBox="0 0 52 44" xmlns="http://www.w3.org/2000/svg" xmlns:xlink="http://www.w3.org/1999/xlink">
<defs>
<symbol id="g" overflow="visible">
<path d="m5.7969-4.9062c0-1.0625-0.98438-2.0156-2.3594-2.0156h-2.4844v6.9219h0.89062v-2.875h1.6719c1.2344 0 2.2812-0.90625 2.2812-2.0312zm-0.79688 0c0 0.79688-0.64062 1.4531-1.7812 1.4531h-1.4062v-2.9062h1.4062c1.0938 0 1.7812 0.60938 1.7812 1.4531z"/>
</symbol>
<symbol id="f" overflow="visible">
<path d="m3.3125-0.26562-0.15625-0.59375c-0.26562 0.21875-0.57812 0.32812-0.90625 0.32812-0.35938 0-0.5-0.29688-0.5-0.82812v-2.4844h1.4062v-0.57812h-1.4062v-1.2656h-0.6875v1.2656h-0.875v0.57812h0.84375v2.6562c0 0.59375 0.14062 1.2969 0.82812 1.2969s1.2031-0.25 1.4531-0.375z"/>
</symbol>
<symbol id="e" overflow="visible">
<path d="m6.0938 0v-6.9219h-0.78125v6.2188h-0.015625l-0.65625-1.375-2.4531-4.8438h-1.2344v6.9219h0.78125v-6.2031h0.015625l0.65625 1.3594 2.4531 4.8438z"/>
</symbol>
<symbol id="d" overflow="visible">
<path d="m6.1094 0v-6.9219h-0.89062v3.0312h-3.3906v-3.0312h-0.89062v6.9219h0.89062v-3.2969h3.3906v3.2969z"/>
</symbol>
<symbol id="c" overflow="visible">
<path d="m5.8594-0.45312-0.0625-0.6875c-0.29688 0.20312-0.57812 0.39062-0.92188 0.5-0.3125 0.10938-0.67188 0.10938-1 0.10938-0.65625 0-1.25-0.34375-1.6562-0.85938-0.45312-0.57812-0.67188-1.3281-0.67188-2.0625 0-0.75 0.21875-1.5 0.67188-2.0938 0.40625-0.5 1-0.85938 1.6562-0.85938 0.29688 0 0.59375 0.03125 0.89062 0.125s0.57812 0.23438 0.84375 0.42188l0.125-0.8125c-0.29688-0.125-0.59375-0.21875-0.92188-0.28125-0.3125-0.0625-0.625-0.078125-0.9375-0.078125-0.89062 0-1.6875 0.39062-2.2812 1.0469-0.60938 0.6875-0.9375 1.5938-0.9375 2.5312 0 0.92188 0.32812 1.8281 0.9375 2.5156 0.59375 0.64062 1.3906 1.0469 2.2812 1.0469 0.34375 0 0.6875-0.015625 1.0312-0.10938s0.64062-0.26562 0.95312-0.45312z"/>
</symbol>
<symbol id="b" overflow="visible">
<path d="m1.5625 0v-6.9219h-0.75v6.9219z"/>
</symbol>
<symbol id="a" overflow="visible">
<path d="m3.3906-1.2656c0-0.57812-0.46875-1.0312-1.0156-1.1875 0.53125-0.28125 0.79688-0.75 0.79688-1.2031 0-0.59375-0.59375-1.0625-1.3438-1.0625-0.60938 0-1.125 0.32812-1.4219 0.73438l0.29688 0.40625c0.28125-0.54688 0.78125-0.70312 1.1094-0.70312 0.42188 0 0.71875 0.23438 0.71875 0.625 0 0.375-0.25 0.82812-0.78125 0.92188-0.03125 0-0.0625 0-0.51562 0.03125v0.46875h0.54688c0.65625 0 0.90625 0.51562 0.90625 0.95312 0 0.54688-0.34375 0.96875-0.875 0.96875-0.5 0-1.0625-0.23438-1.4219-0.6875l-0.078125 0.45312c0.39062 0.45312 0.96875 0.6875 1.5 0.6875 0.92188 0 1.5781-0.67188 1.5781-1.4062z"/>
</symbol>
</defs>
<g fill="#dc3445">
<use x="15.811" y="24.325" xlink:href="#g"/>
<use x="22.176105" y="24.325" xlink:href="#f"/>
</g>
<g>
<use x="34.325" y="7.265" xlink:href="#e"/>
<use x="41.382" y="7.265" xlink:href="#d"/>
<use x="48.438" y="8.759" xlink:href="#a"/>
</g>
<path transform="matrix(1,0,0,-1,20.792,24.325)" d="m4.5869 8.0438 7.8867 7.8906" fill="none" stroke="#dc3445" stroke-linecap="round" stroke-miterlimit="10" stroke-width=".79701"/>
<g>
<use x="-0.641" y="7.265" xlink:href="#c"/>
<use x="5.724105" y="7.265" xlink:href="#b"/>
</g>
<path transform="matrix(1,0,0,-1,20.792,24.325)" d="m-4.585 8.0438-7.8906 7.8906" fill="none" stroke="#dc3445" stroke-linecap="round" stroke-miterlimit="10" stroke-width=".79701"/>
<g>
<use x="34.325" y="41.386" xlink:href="#e"/>
<use x="41.382" y="41.386" xlink:href="#d"/>
<use x="48.438" y="42.88" xlink:href="#a"/>
</g>
<path transform="matrix(1,0,0,-1,20.792,24.325)" d="m4.5869-1.1281 7.8867-7.8867" fill="none" stroke="#dc3445" stroke-linecap="round" stroke-miterlimit="10" stroke-width=".79701"/>
<g>
<use x="-0.641" y="41.386" xlink:href="#c"/>
<use x="5.724105" y="41.386" xlink:href="#b"/>
</g>
<path transform="matrix(1,0,0,-1,20.792,24.325)" d="m-4.585-1.1281-7.8906-7.8867" fill="none" stroke="#dc3445" stroke-linecap="round" stroke-miterlimit="10" stroke-width=".79701"/>
</svg>
