<?xml version="1.0" encoding="UTF-8"?>
<svg width="227pt" height="189pt" version="1.1" viewBox="0 0 227 189" xmlns="http://www.w3.org/2000/svg" xmlns:xlink="http://www.w3.org/1999/xlink">
<defs>
<symbol id="a" overflow="visible">
<path d="m4.5781-3.1875c0-0.79688-0.046875-1.5938-0.39062-2.3281-0.45312-0.96875-1.2812-1.125-1.6875-1.125-0.60938 0-1.3281 0.26562-1.75 1.1875-0.3125 0.6875-0.35938 1.4688-0.35938 2.2656 0 0.75 0.03125 1.6406 0.45312 2.4062 0.42188 0.79688 1.1562 1 1.6406 1 0.53125 0 1.2969-0.20312 1.7344-1.1562 0.3125-0.6875 0.35938-1.4688 0.35938-2.25zm-0.8125-0.125c0 0.75 0 1.4219-0.10938 2.0625-0.15625 0.95312-0.71875 1.25-1.1719 1.25-0.39062 0-0.98438-0.25-1.1562-1.2031-0.10938-0.59375-0.10938-1.5156-0.10938-2.1094 0-0.64062 0-1.2969 0.078125-1.8281 0.1875-1.1875 0.9375-1.2812 1.1875-1.2812 0.32812 0 0.98438 0.1875 1.1719 1.1719 0.10938 0.5625 0.10938 1.3125 0.10938 1.9375z"/>
</symbol>
<symbol id="am" overflow="visible">
<path d="m4.1719 0v-0.3125h-0.3125c-0.90625 0-0.92188-0.10938-0.92188-0.46875v-5.5938c0-0.25 0-0.26562-0.23438-0.26562-0.625 0.64062-1.5 0.64062-1.8125 0.64062v0.3125c0.20312 0 0.78125 0 1.2969-0.26562v5.1719c0 0.35938-0.03125 0.46875-0.92188 0.46875h-0.3125v0.3125c0.34375-0.03125 1.2031-0.03125 1.6094-0.03125 0.39062 0 1.2656 0 1.6094 0.03125z"/>
</symbol>
<symbol id="g" overflow="visible">
<path d="m4.4688-1.7344h-0.23438c-0.0625 0.29688-0.125 0.73438-0.23438 0.89062-0.0625 0.078125-0.71875 0.078125-0.9375 0.078125h-1.7969l1.0625-1.0312c1.5469-1.375 2.1406-1.9062 2.1406-2.9062 0-1.1406-0.89062-1.9375-2.1094-1.9375-1.125 0-1.8594 0.92188-1.8594 1.8125 0 0.54688 0.5 0.54688 0.53125 0.54688 0.17188 0 0.51562-0.10938 0.51562-0.53125 0-0.25-0.1875-0.51562-0.53125-0.51562-0.078125 0-0.09375 0-0.125 0.015625 0.21875-0.65625 0.76562-1.0156 1.3438-1.0156 0.90625 0 1.3281 0.8125 1.3281 1.625 0 0.79688-0.48438 1.5781-1.0469 2.2031l-1.9062 2.125c-0.10938 0.10938-0.10938 0.14062-0.10938 0.375h3.7031z"/>
</symbol>
<symbol id="al" overflow="visible">
<path d="m4.5625-1.7031c0-0.8125-0.64062-1.5938-1.6719-1.8125 0.8125-0.26562 1.3906-0.95312 1.3906-1.75 0-0.8125-0.875-1.375-1.8281-1.375-1 0-1.7656 0.59375-1.7656 1.3594 0 0.32812 0.21875 0.51562 0.51562 0.51562s0.5-0.21875 0.5-0.51562c0-0.48438-0.46875-0.48438-0.60938-0.48438 0.29688-0.5 0.95312-0.625 1.3125-0.625 0.42188 0 0.96875 0.21875 0.96875 1.1094 0 0.125-0.03125 0.70312-0.28125 1.1406-0.29688 0.48438-0.64062 0.51562-0.89062 0.51562-0.078125 0.015625-0.3125 0.03125-0.39062 0.03125-0.078125 0.015625-0.14062 0.03125-0.14062 0.125 0 0.10938 0.0625 0.10938 0.23438 0.10938h0.4375c0.8125 0 1.1875 0.67188 1.1875 1.6562 0 1.3594-0.6875 1.6406-1.125 1.6406s-1.1875-0.17188-1.5312-0.75c0.34375 0.046875 0.65625-0.17188 0.65625-0.54688 0-0.35938-0.26562-0.5625-0.54688-0.5625-0.25 0-0.5625 0.14062-0.5625 0.57812 0 0.90625 0.92188 1.5625 2.0156 1.5625 1.2188 0 2.125-0.90625 2.125-1.9219z"/>
</symbol>
<symbol id="f" overflow="visible">
<path d="m4.6875-1.6406v-0.3125h-0.98438v-4.5312c0-0.20312 0-0.26562-0.17188-0.26562-0.078125 0-0.10938 0-0.1875 0.125l-3.0625 4.6719v0.3125h2.6562v0.85938c0 0.35938-0.03125 0.46875-0.76562 0.46875h-0.20312v0.3125c0.40625-0.03125 0.92188-0.03125 1.3438-0.03125s0.9375 0 1.3594 0.03125v-0.3125h-0.21875c-0.73438 0-0.75-0.10938-0.75-0.46875v-0.85938zm-1.7031-0.3125h-2.4219l2.4219-3.7188z"/>
</symbol>
<symbol id="ak" overflow="visible">
<path d="m4.5625-2.0312c0-1.2656-0.89062-2.2188-2-2.2188-0.67188 0-1.0469 0.5-1.25 0.98438v-0.25c0-2.5156 1.2344-2.875 1.75-2.875 0.23438 0 0.65625 0.0625 0.875 0.40625-0.15625 0-0.54688 0-0.54688 0.4375 0 0.3125 0.23438 0.46875 0.45312 0.46875 0.15625 0 0.46875-0.09375 0.46875-0.48438 0-0.59375-0.4375-1.0781-1.2656-1.0781-1.2812 0-2.625 1.2812-2.625 3.4844 0 2.6719 1.1562 3.375 2.0781 3.375 1.1094 0 2.0625-0.9375 2.0625-2.25zm-0.90625-0.015625c0 0.48438 0 0.98438-0.17188 1.3438-0.29688 0.59375-0.75 0.64062-0.98438 0.64062-0.625 0-0.92188-0.59375-0.98438-0.75-0.1875-0.46875-0.1875-1.2656-0.1875-1.4375 0-0.78125 0.32812-1.7812 1.2188-1.7812 0.17188 0 0.625 0 0.9375 0.625 0.17188 0.35938 0.17188 0.875 0.17188 1.3594z"/>
</symbol>
<symbol id="aj" overflow="visible">
<path d="m4.5625-1.6719c0-0.35938-0.10938-0.8125-0.5-1.2344-0.1875-0.20312-0.34375-0.29688-0.98438-0.70312 0.71875-0.375 1.2031-0.89062 1.2031-1.5469 0-0.92188-0.875-1.4844-1.7812-1.4844-1 0-1.8125 0.73438-1.8125 1.6719 0 0.17188 0.015625 0.625 0.4375 1.0938 0.10938 0.10938 0.48438 0.35938 0.73438 0.53125-0.57812 0.29688-1.4375 0.84375-1.4375 1.8438 0 1.0469 1.0156 1.7188 2.0625 1.7188 1.125 0 2.0781-0.82812 2.0781-1.8906zm-0.71875-3.4844c0 0.57812-0.39062 1.0469-0.98438 1.3906l-1.2344-0.79688c-0.45312-0.29688-0.5-0.625-0.5-0.79688 0-0.60938 0.65625-1.0312 1.3594-1.0312 0.71875 0 1.3594 0.51562 1.3594 1.2344zm0.21875 3.8438c0 0.73438-0.75 1.25-1.5625 1.25-0.85938 0-1.5781-0.60938-1.5781-1.4375 0-0.57812 0.3125-1.2188 1.1562-1.6875l1.2344 0.78125c0.28125 0.1875 0.75 0.48438 0.75 1.0938z"/>
</symbol>
<symbol id="ai" overflow="visible">
<path d="m8.1094 0v-0.3125c-0.51562 0-0.76562 0-0.78125-0.29688v-1.9062c0-0.85938 0-1.1562-0.3125-1.5156-0.14062-0.17188-0.46875-0.375-1.0469-0.375-0.82812 0-1.2812 0.59375-1.4375 0.98438-0.14062-0.875-0.875-0.98438-1.3281-0.98438-0.73438 0-1.2031 0.42188-1.4844 1.0469v-1.0469l-1.4062 0.10938v0.3125c0.70312 0 0.78125 0.0625 0.78125 0.5625v2.6719c0 0.4375-0.10938 0.4375-0.78125 0.4375v0.3125l1.1406-0.03125 1.1094 0.03125v-0.3125c-0.67188 0-0.78125 0-0.78125-0.4375v-1.8438c0-1.0312 0.71875-1.5938 1.3438-1.5938 0.64062 0 0.75 0.53125 0.75 1.1094v2.3281c0 0.4375-0.10938 0.4375-0.78125 0.4375v0.3125l1.125-0.03125 1.1094 0.03125v-0.3125c-0.65625 0-0.76562 0-0.76562-0.4375v-1.8438c0-1.0312 0.70312-1.5938 1.3438-1.5938 0.625 0 0.73438 0.53125 0.73438 1.1094v2.3281c0 0.4375-0.10938 0.4375-0.78125 0.4375v0.3125l1.125-0.03125z"/>
</symbol>
<symbol id="ah" overflow="visible">
<path d="m2.4688 0v-0.3125c-0.67188 0-0.70312-0.046875-0.70312-0.4375v-3.6562l-1.3906 0.10938v0.3125c0.64062 0 0.73438 0.0625 0.73438 0.54688v2.6875c0 0.4375-0.10938 0.4375-0.78125 0.4375v0.3125l1.0938-0.03125c0.35938 0 0.70312 0.015625 1.0469 0.03125zm-0.5625-6.0156c0-0.28125-0.21875-0.53125-0.51562-0.53125-0.34375 0-0.54688 0.28125-0.54688 0.53125 0 0.26562 0.23438 0.51562 0.53125 0.51562 0.34375 0 0.53125-0.26562 0.53125-0.51562z"/>
</symbol>
<symbol id="an" overflow="visible">
<path d="m5.3281 0v-0.3125c-0.51562 0-0.76562 0-0.76562-0.29688v-1.9062c0-0.85938 0-1.1562-0.3125-1.5156-0.14062-0.17188-0.46875-0.375-1.0469-0.375-0.73438 0-1.2031 0.42188-1.4844 1.0469v-1.0469l-1.4062 0.10938v0.3125c0.70312 0 0.78125 0.0625 0.78125 0.5625v2.6719c0 0.4375-0.10938 0.4375-0.78125 0.4375v0.3125l1.1406-0.03125 1.1094 0.03125v-0.3125c-0.67188 0-0.78125 0-0.78125-0.4375v-1.8438c0-1.0312 0.71875-1.5938 1.3438-1.5938 0.64062 0 0.75 0.53125 0.75 1.1094v2.3281c0 0.4375-0.10938 0.4375-0.78125 0.4375v0.3125l1.125-0.03125z"/>
</symbol>
<symbol id="ag" overflow="visible">
<path d="m6.8281-4.5-0.1875-2.25h-6.0938l-0.1875 2.25h0.25c0.14062-1.6094 0.28125-1.9375 1.7969-1.9375 0.17188 0 0.4375 0 0.53125 0.015625 0.21875 0.046875 0.21875 0.15625 0.21875 0.375v5.2656c0 0.32812 0 0.46875-1.0469 0.46875h-0.40625v0.3125c0.40625-0.03125 1.4219-0.03125 1.8906-0.03125 0.45312 0 1.4844 0 1.8906 0.03125v-0.3125h-0.40625c-1.0469 0-1.0469-0.14062-1.0469-0.46875v-5.2656c0-0.1875 0-0.32812 0.1875-0.375 0.10938-0.015625 0.375-0.015625 0.5625-0.015625 1.5156 0 1.6562 0.32812 1.7969 1.9375z"/>
</symbol>
<symbol id="af" overflow="visible">
<path d="m4.1406-1.1875c0-0.09375-0.078125-0.125-0.14062-0.125-0.078125 0-0.10938 0.0625-0.125 0.14062-0.34375 1.0312-1.25 1.0312-1.3438 1.0312-0.5 0-0.89062-0.29688-1.125-0.67188-0.29688-0.46875-0.29688-1.125-0.29688-1.4844h2.7812c0.21875 0 0.25 0 0.25-0.21875 0-0.98438-0.54688-1.9531-1.7812-1.9531-1.1562 0-2.0781 1.0312-2.0781 2.2812 0 1.3281 1.0469 2.2969 2.1875 2.2969 1.2188 0 1.6719-1.1094 1.6719-1.2969zm-0.65625-1.3281h-2.375c0.0625-1.4844 0.90625-1.7344 1.25-1.7344 1.0156 0 1.125 1.3438 1.125 1.7344z"/>
</symbol>
<symbol id="ae" overflow="visible">
<path d="m8.1094 0v-0.3125c-0.51562 0-0.76562 0-0.78125-0.29688v-1.9062c0-0.85938 0-1.1562-0.3125-1.5156-0.14062-0.17188-0.46875-0.375-1.0469-0.375-0.82812 0-1.2812 0.59375-1.4375 0.98438-0.14062-0.875-0.875-0.98438-1.3281-0.98438-0.73438 0-1.2031 0.42188-1.4844 1.0469v-1.0469l-1.4062 0.10938v0.3125c0.70312 0 0.78125 0.0625 0.78125 0.5625v2.6719c0 0.4375-0.10938 0.4375-0.78125 0.4375v0.3125l1.1406-0.03125 1.1094 0.03125v-0.3125c-0.67188 0-0.78125 0-0.78125-0.4375v-1.8438c0-1.0312 0.71875-1.5938 1.3438-1.5938 0.64062 0 0.75 0.53125 0.75 1.1094v2.3281c0 0.4375-0.10938 0.4375-0.78125 0.4375v0.3125l1.125-0.03125 1.1094 0.03125v-0.3125c-0.65625 0-0.76562 0-0.76562-0.4375v-1.8438c0-1.0312 0.70312-1.5938 1.3438-1.5938 0.625 0 0.73438 0.53125 0.73438 1.1094v2.3281c0 0.4375-0.10938 0.4375-0.78125 0.4375v0.3125l1.125-0.03125z"/>
</symbol>
<symbol id="ad" overflow="visible">
<path d="m5.1875-2.1562c0-1.2656-0.95312-2.25-2.0781-2.25-0.78125 0-1.2031 0.4375-1.3906 0.65625v-0.65625l-1.4375 0.10938v0.3125c0.70312 0 0.78125 0.0625 0.78125 0.5v4.6562c0 0.45312-0.10938 0.45312-0.78125 0.45312v0.3125l1.1094-0.03125 1.125 0.03125v-0.3125c-0.65625 0-0.76562 0-0.76562-0.45312v-1.7656c0.046875 0.17188 0.46875 0.70312 1.2188 0.70312 1.1875 0 2.2188-0.98438 2.2188-2.2656zm-0.82812 0c0 1.2031-0.6875 2.0469-1.4219 2.0469-0.40625 0-0.78125-0.20312-1.0469-0.60938-0.14062-0.20312-0.14062-0.21875-0.14062-0.42188v-2.2188c0.28125-0.51562 0.76562-0.79688 1.2812-0.79688 0.73438 0 1.3281 0.875 1.3281 2z"/>
</symbol>
<symbol id="ac" overflow="visible">
<path d="m4.6875-2.1406c0-1.2656-0.98438-2.3281-2.1875-2.3281-1.25 0-2.2188 1.0938-2.2188 2.3281 0 1.2969 1.0312 2.25 2.2031 2.25 1.2031 0 2.2031-0.98438 2.2031-2.25zm-0.8125-0.078125c0 0.35938 0 0.90625-0.21875 1.3438-0.23438 0.45312-0.67188 0.73438-1.1562 0.73438-0.4375 0-0.875-0.20312-1.1406-0.67188-0.25-0.4375-0.25-1.0469-0.25-1.4062 0-0.39062 0-0.92188 0.23438-1.3594 0.26562-0.45312 0.73438-0.67188 1.1406-0.67188 0.4375 0 0.85938 0.21875 1.125 0.65625 0.26562 0.42188 0.26562 1 0.26562 1.375z"/>
</symbol>
<symbol id="ab" overflow="visible">
<path d="m2.0312-0.015625c0-0.625-0.25-1.0469-0.64062-1.0469-0.35938 0-0.53125 0.28125-0.53125 0.53125 0 0.26562 0.17188 0.53125 0.53125 0.53125 0.14062 0 0.28125-0.0625 0.39062-0.15625 0.015625 0.78125-0.25 1.3906-0.6875 1.8594-0.0625 0.0625-0.078125 0.078125-0.078125 0.10938 0 0.078125 0.046875 0.10938 0.09375 0.10938 0.125 0 0.92188-0.78125 0.92188-1.9375z"/>
</symbol>
<symbol id="aa" overflow="visible">
<path d="m3.125-1.4219c0-0.10938-0.078125-0.10938-0.10938-0.10938-0.09375 0-0.10938 0.03125-0.15625 0.14062-0.42188 1.0469-0.95312 1.2812-1.2969 1.2812-0.20312 0-0.3125-0.125-0.3125-0.45312 0-0.25 0.03125-0.3125 0.0625-0.48438l0.73438-2.9375h0.9375c0.20312 0 0.3125 0 0.3125-0.20312 0-0.10938-0.10938-0.10938-0.28125-0.10938h-0.875c0.35938-1.4219 0.40625-1.6094 0.40625-1.6719 0-0.17188-0.125-0.26562-0.29688-0.26562-0.03125 0-0.3125 0-0.39062 0.35938l-0.39062 1.5781h-0.9375c-0.20312 0-0.29688 0-0.29688 0.1875 0 0.125 0.078125 0.125 0.28125 0.125h0.875c-0.71875 2.8281-0.76562 3-0.76562 3.1719 0 0.54688 0.375 0.92188 0.92188 0.92188 1.0156 0 1.5781-1.4531 1.5781-1.5312z"/>
</symbol>
<symbol id="z" overflow="visible">
<path d="m4.4219-7.2812c0-0.10938-0.078125-0.20312-0.1875-0.20312-0.078125 0-0.14062 0.03125-0.17188 0.09375l-3.4688 9.5c-0.046875 0.14062-0.046875 0.1875-0.046875 0.1875 0 0.10938 0.09375 0.20312 0.20312 0.20312 0.125 0 0.15625-0.078125 0.21875-0.25l3.4062-9.3438c0.046875-0.14062 0.046875-0.1875 0.046875-0.1875z"/>
</symbol>
<symbol id="y" overflow="visible">
<path d="m-2.3281-6.625c-0.09375 0-0.17188 0-0.17188 0.125 0 0.10938 0.0625 0.10938 0.17188 0.125 1.4219 0.078125 2.2344 1.1406 2.2344 2.2344 0 0.60938-0.32812 2.5625-3.3125 2.5625-2.9688 0-3.3125-1.9531-3.3125-2.5625 0-1.0781 0.90625-1.9688 2.3594-2.1719 0.14062-0.015625 0.17188-0.015625 0.17188-0.15625 0-0.15625-0.03125-0.15625-0.23438-0.15625h-2.3594c-0.17188 0-0.25 0-0.25 0.10938 0 0.03125 0 0.078125 0.125 0.15625l0.73438 0.5c-0.35938 0.35938-0.85938 0.875-0.85938 1.8281 0 1.875 1.5938 3.4688 3.625 3.4688 2.0625 0 3.625-1.6094 3.625-3.4688 0-1.625-1.3906-2.5938-2.5469-2.5938z"/>
</symbol>
<symbol id="b" overflow="visible">
<path d="m-2.1406-4.6875c-1.2656 0-2.3281 0.98438-2.3281 2.1875 0 1.25 1.0938 2.2188 2.3281 2.2188 1.2969 0 2.25-1.0312 2.25-2.2031 0-1.2031-0.98438-2.2031-2.25-2.2031zm-0.078125 0.8125c0.35938 0 0.90625 0 1.3438 0.21875 0.45312 0.23438 0.73438 0.67188 0.73438 1.1562 0 0.4375-0.20312 0.875-0.67188 1.1406-0.4375 0.25-1.0469 0.25-1.4062 0.25-0.39062 0-0.92188 0-1.3594-0.23438-0.45312-0.26562-0.67188-0.73438-0.67188-1.1406 0-0.4375 0.21875-0.85938 0.65625-1.125 0.42188-0.26562 1-0.26562 1.375-0.26562z"/>
</symbol>
<symbol id="e" overflow="visible">
<path d="m0-5.3281h-0.3125c0 0.51562 0 0.76562-0.29688 0.76562h-1.9062c-0.85938 0-1.1562 0-1.5156 0.3125-0.17188 0.14062-0.375 0.46875-0.375 1.0469 0 0.73438 0.42188 1.2031 1.0469 1.4844h-1.0469l0.10938 1.4062h0.3125c0-0.70312 0.0625-0.78125 0.5625-0.78125h2.6719c0.4375 0 0.4375 0.10938 0.4375 0.78125h0.3125l-0.03125-1.1406 0.03125-1.1094h-0.3125c0 0.67188 0 0.78125-0.4375 0.78125h-1.8438c-1.0312 0-1.5938-0.71875-1.5938-1.3438 0-0.64062 0.53125-0.75 1.1094-0.75h2.3281c0.4375 0 0.4375 0.10938 0.4375 0.78125h0.3125l-0.03125-1.125z"/>
</symbol>
<symbol id="t" overflow="visible">
<path d="m-1.1875-4.1406c-0.09375 0-0.09375 0.10938-0.09375 0.14062 0 0.078125 0.03125 0.10938 0.09375 0.125 0.92188 0.28125 1.0469 0.9375 1.0469 1.2969 0 0.53125-0.42188 1.4062-2.0312 1.4062-1.625 0-2.0469-0.8125-2.0469-1.3438 0-0.09375 0.015625-0.71875 0.375-1.0625 0.03125 0.40625 0.32812 0.46875 0.45312 0.46875 0.26562 0 0.45312-0.1875 0.45312-0.45312s-0.15625-0.46875-0.46875-0.46875c-0.67188 0-1.0625 0.76562-1.0625 1.5312 0 1.25 1.0781 2.1562 2.3125 2.1562 1.2812 0 2.2656-0.98438 2.2656-2.1406 0-1.3281-1.2031-1.6562-1.2969-1.6562z"/>
</symbol>
<symbol id="s" overflow="visible">
<path d="m-1.1875-4.1406c-0.09375 0-0.125 0.078125-0.125 0.14062 0 0.078125 0.0625 0.10938 0.14062 0.125 1.0312 0.34375 1.0312 1.25 1.0312 1.3438 0 0.5-0.29688 0.89062-0.67188 1.125-0.46875 0.29688-1.125 0.29688-1.4844 0.29688v-2.7812c0-0.21875 0-0.25-0.21875-0.25-0.98438 0-1.9531 0.54688-1.9531 1.7812 0 1.1562 1.0312 2.0781 2.2812 2.0781 1.3281 0 2.2969-1.0469 2.2969-2.1875 0-1.2188-1.1094-1.6719-1.2969-1.6719zm-1.3281 0.65625v2.375c-1.4844-0.0625-1.7344-0.90625-1.7344-1.25 0-1.0156 1.3438-1.125 1.7344-1.125z"/>
</symbol>
<symbol id="r" overflow="visible">
<path d="m-1.2344-3.3125h-0.5625v0.25h0.54688c0.73438 0 1.1094 0.29688 1.1094 0.67188 0 0.67188-0.90625 0.67188-1.0781 0.67188h-2.7656v-1.4375h-0.3125v1.4375h-1.8281v0.25c0.8125 0 1.875 0.29688 1.9219 1.2812h0.21875v-0.84375h2.75c1.2188 0 1.3438-0.9375 1.3438-1.2969 0-0.70312-0.70312-0.98438-1.3438-0.98438z"/>
</symbol>
<symbol id="d" overflow="visible">
<path d="m-3.7969-3.625c-0.3125 0-0.60938 0.3125-0.60938 0.73438 0 0.73438 0.67188 1.0938 1.0938 1.2188h-1.0938l0.10938 1.3906h0.3125c0-0.70312 0.0625-0.78125 0.5625-0.78125h2.6719c0.4375 0 0.4375 0.10938 0.4375 0.78125h0.3125l-0.03125-1.1406c0-0.39062 0-0.85938 0.03125-1.2656h-0.3125v0.21875c0 0.73438-0.10938 0.75-0.46875 0.75h-1.5312c-0.98438 0-1.875-0.42188-1.875-1.1719 0-0.0625 0-0.09375 0.015625-0.10938 0 0.03125 0.125 0.23438 0.39062 0.23438s0.42188-0.21875 0.42188-0.4375c0-0.17188-0.125-0.42188-0.4375-0.42188z"/>
</symbol>
<symbol id="c" overflow="visible">
<path d="m-0.89062-4.8125h-0.5625v0.25h0.5625c0.57812 0 0.64062 0.25 0.64062 0.35938 0 0.32812-0.45312 0.35938-0.5 0.35938h-1.9844c-0.42188 0-0.8125 0-1.1875 0.35938-0.39062 0.39062-0.54688 0.89062-0.54688 1.375 0 0.8125 0.46875 1.5 1.125 1.5 0.29688 0 0.46875-0.20312 0.46875-0.45312 0-0.28125-0.20312-0.46875-0.45312-0.46875-0.125 0-0.45312 0.0625-0.45312 0.51562-0.35938-0.26562-0.46875-0.76562-0.46875-1.0781 0-0.48438 0.39062-1.0625 1.2812-1.0625h0.35938c0.03125 0.51562 0.0625 1.2188 0.35938 1.8438 0.34375 0.75 0.85938 1 1.2969 1 0.8125 0 1.0625-0.96875 1.0625-1.5938 0-0.67188-0.40625-1.125-0.85938-1.3125 0.39062-0.046875 0.8125-0.3125 0.8125-0.78125 0-0.20312-0.14062-0.8125-0.95312-0.8125zm-0.5 1.6562c0.9375 0 1.2812 0.71875 1.2812 1.1719 0 0.48438-0.34375 0.89062-0.84375 0.89062-0.54688 0-1.375-0.40625-1.4375-2.0625z"/>
</symbol>
<symbol id="q" overflow="visible">
<path d="m-1.1875-4.1406c-0.09375 0-0.09375 0.10938-0.09375 0.14062 0 0.078125 0.03125 0.10938 0.09375 0.125 0.92188 0.28125 1.0469 0.9375 1.0469 1.2969 0 0.53125-0.42188 1.4062-2.0312 1.4062-1.625 0-2.0469-0.8125-2.0469-1.3438 0-0.09375 0.015625-0.71875 0.375-1.0625 0.03125 0.40625 0.32812 0.46875 0.45312 0.46875 0.26562 0 0.45312-0.1875 0.45312-0.45312s-0.15625-0.46875-0.46875-0.46875c-0.67188 0-1.0625 0.76562-1.0625 1.5312 0 1.25 1.0781 2.1562 2.3125 2.1562 1.1719 0 2.0938-0.8125 2.25-1.8281h0.82812c0-0.375 0.078125-0.76562 0.40625-0.76562 0.40625 0 0.40625 0.95312 0.40625 1.7031v0.125h0.26562v-0.25c0-1.0781 0-2.4062-0.67188-2.4062-0.46875 0-0.67188 0.53125-0.67188 1.0781h-0.5625c-0.10938-1.1562-1.1875-1.4531-1.2812-1.4531z"/>
</symbol>
<symbol id="x" overflow="visible">
<path d="m-0.89062-4.8125h-0.5625v0.25h0.5625c0.57812 0 0.64062 0.25 0.64062 0.35938 0 0.32812-0.45312 0.35938-0.5 0.35938h-1.9844c-0.42188 0-0.8125 0-1.1875 0.35938-0.39062 0.39062-0.54688 0.89062-0.54688 1.375 0 0.8125 0.46875 1.5 1.125 1.5 0.29688 0 0.46875-0.20312 0.46875-0.45312 0-0.28125-0.20312-0.46875-0.45312-0.46875-0.125 0-0.45312 0.0625-0.45312 0.51562-0.35938-0.26562-0.46875-0.76562-0.46875-1.0781 0-0.48438 0.39062-1.0625 1.2812-1.0625h0.35938c0.03125 0.51562 0.0625 1.2188 0.35938 1.8438 0.34375 0.75 0.85938 1 1.2969 1 0.8125 0 1.0625-0.96875 1.0625-1.5938 0-0.67188-0.40625-1.125-0.85938-1.3125 0.39062-0.046875 0.8125-0.3125 0.8125-0.78125 0-0.20312-0.14062-0.8125-0.95312-0.8125zm-0.5 1.6562c0.9375 0 1.2812 0.71875 1.2812 1.1719 0 0.48438-0.34375 0.89062-0.84375 0.89062-0.54688 0-1.375-0.40625-1.4375-2.0625zm-4.9531-1-0.14062 0.15625s0.46875 0.375 0.46875 0.8125c0 0.23438-0.14062 0.48438-0.25 0.65625-0.15625 0.26562-0.21875 0.45312-0.21875 0.625 0 0.375 0.21875 0.5625 0.76562 1.0625l0.15625-0.15625s-0.48438-0.375-0.48438-0.8125c0-0.23438 0.15625-0.48438 0.25-0.65625 0.17188-0.26562 0.23438-0.4375 0.23438-0.60938 0-0.375-0.21875-0.57812-0.78125-1.0781z"/>
</symbol>
<symbol id="w" overflow="visible">
<path d="m0-8.1094h-0.3125c0 0.51562 0 0.76562-0.29688 0.78125h-1.9062c-0.85938 0-1.1562 0-1.5156 0.3125-0.17188 0.14062-0.375 0.46875-0.375 1.0469 0 0.82812 0.59375 1.2812 0.98438 1.4375-0.875 0.14062-0.98438 0.875-0.98438 1.3281 0 0.73438 0.42188 1.2031 1.0469 1.4844h-1.0469l0.10938 1.4062h0.3125c0-0.70312 0.0625-0.78125 0.5625-0.78125h2.6719c0.4375 0 0.4375 0.10938 0.4375 0.78125h0.3125l-0.03125-1.1406 0.03125-1.1094h-0.3125c0 0.67188 0 0.78125-0.4375 0.78125h-1.8438c-1.0312 0-1.5938-0.71875-1.5938-1.3438 0-0.64062 0.53125-0.75 1.1094-0.75h2.3281c0.4375 0 0.4375 0.10938 0.4375 0.78125h0.3125l-0.03125-1.125 0.03125-1.1094h-0.3125c0 0.65625 0 0.76562-0.4375 0.76562h-1.8438c-1.0312 0-1.5938-0.70312-1.5938-1.3438 0-0.625 0.53125-0.73438 1.1094-0.73438h2.3281c0.4375 0 0.4375 0.10938 0.4375 0.78125h0.3125l-0.03125-1.125z"/>
</symbol>
<symbol id="v" overflow="visible">
<path d="m0-2.5469h-0.3125c0 0.67188 0 0.78125-0.4375 0.78125h-6.1719l0.10938 1.4375h0.3125c0-0.70312 0.0625-0.78125 0.5625-0.78125h5.1875c0.4375 0 0.4375 0.10938 0.4375 0.78125h0.3125l-0.03125-1.1094z"/>
</symbol>
<symbol id="u" overflow="visible">
<path d="m-0.015625-2.0312c-0.625 0-1.0469 0.25-1.0469 0.64062 0 0.35938 0.28125 0.53125 0.53125 0.53125 0.26562 0 0.53125-0.17188 0.53125-0.53125 0-0.14062-0.0625-0.28125-0.15625-0.39062 0.78125-0.015625 1.3906 0.25 1.8594 0.6875 0.0625 0.0625 0.078125 0.078125 0.10938 0.078125 0.078125 0 0.10938-0.046875 0.10938-0.09375 0-0.125-0.78125-0.92188-1.9375-0.92188z"/>
</symbol>
<symbol id="p" overflow="visible">
<path d="m2.5-2.5469h-0.40625v0.96875h-9.1719v-0.96875h-0.40625v1.375h9.9844z"/>
</symbol>
<symbol id="o" overflow="visible">
<path d="m-6.5-7.1406h-0.3125l0.03125 1.1719-0.03125 1.1562h0.3125c0-1.0156 0.46875-1.0156 0.73438-1.0156h4.2656l-5.1719 3.5156c-0.125 0.09375-0.14062 0.09375-0.14062 0.28125v1.7031h0.3125v-0.29688c0-0.14062 0.015625-0.34375 0.015625-0.48438 0.03125-0.23438 0.046875-0.25 0.23438-0.25h5.2031c0.26562 0 0.73438 0 0.73438 1.0312h0.3125l-0.03125-1.1719 0.03125-1.1562h-0.3125c0 1.0156-0.46875 1.0156-0.73438 1.0156h-5.1875c0.046875-0.046875 0.0625-0.046875 0.125-0.09375l5.9844-4.0625c0.10938-0.09375 0.125-0.10938 0.125-0.17188 0-0.14062-0.0625-0.14062-0.26562-0.14062h-5.5c-0.26562 0-0.73438 0-0.73438-1.0312z"/>
</symbol>
<symbol id="n" overflow="visible">
<path d="m-3.375-7.1875c-2.0312 0-3.6562 1.5-3.6562 3.3125 0 1.7969 1.5938 3.3125 3.6562 3.3125 2.0469 0 3.5938-1.5312 3.5938-3.3125 0-1.8125-1.5781-3.3125-3.5938-3.3125zm-0.14062 1.0312c2.6406 0 3.4688 1.3594 3.4688 2.2812 0 0.95312-0.875 2.2969-3.4688 2.2969-2.5781 0-3.2656-1.4688-3.2656-2.2969 0-0.85938 0.70312-2.2812 3.2656-2.2812z"/>
</symbol>
<symbol id="m" overflow="visible">
<path d="m2.5-1.5781h-9.9844v1.3594h0.40625v-0.96875h9.1719v0.96875h0.40625z"/>
</symbol>
<symbol id="l" overflow="visible">
<path d="m0-8.1094h-0.3125c0 0.51562 0 0.76562-0.29688 0.78125h-1.9062c-0.85938 0-1.1562 0-1.5156 0.3125-0.17188 0.14062-0.375 0.46875-0.375 1.0469 0 0.82812 0.59375 1.2812 0.98438 1.4375-0.875 0.14062-0.98438 0.875-0.98438 1.3281 0 0.73438 0.42188 1.2031 1.0469 1.4844h-1.0469l0.10938 1.4062h0.3125c0-0.70312 0.0625-0.78125 0.5625-0.78125h2.6719c0.4375 0 0.4375 0.10938 0.4375 0.78125h0.3125l-0.03125-1.1406 0.03125-1.1094h-0.3125c0 0.67188 0 0.78125-0.4375 0.78125h-1.8438c-1.0312 0-1.5938-0.71875-1.5938-1.3438 0-0.64062 0.53125-0.75 1.1094-0.75h2.3281c0.4375 0 0.4375 0.10938 0.4375 0.78125h0.3125l-0.03125-1.125 0.03125-1.1094h-0.3125c0 0.65625 0 0.76562-0.4375 0.76562h-1.8438c-1.0312 0-1.5938-0.70312-1.5938-1.3438 0-0.625 0.53125-0.73438 1.1094-0.73438h2.3281c0.4375 0 0.4375 0.10938 0.4375 0.78125h0.3125l-0.03125-1.125z"/>
</symbol>
<symbol id="k" overflow="visible">
<path d="m0-8.7656h-0.3125v0.25c0 0.76562-0.10938 0.78125-0.46875 0.78125h-5.25c-0.35938 0-0.46875-0.015625-0.46875-0.78125v-0.25h-0.3125v1.6875c0 0.26562 0.015625 0.26562 0.1875 0.32812l5.625 2.1875-5.5938 2.1562c-0.21875 0.09375-0.21875 0.125-0.21875 0.35938v1.6719h0.3125v-0.23438c0-0.76562 0.10938-0.78125 0.46875-0.78125h4.9844c0.26562 0 0.73438 0 0.73438 1.0156h0.3125l-0.03125-1.1562 0.03125-1.1719h-0.3125c0 1.0312-0.46875 1.0312-0.73438 1.0312h-5.375v-0.015625l6.2031-2.4062c0.125-0.046875 0.21875-0.09375 0.21875-0.1875 0-0.10938-0.078125-0.14062-0.1875-0.1875l-6.3125-2.4531h5.7188c0.35938 0 0.46875 0.015625 0.46875 0.78125v0.23438h0.3125c-0.03125-0.35938-0.03125-1.0469-0.03125-1.4375 0-0.375 0-1.0469 0.03125-1.4219z"/>
</symbol>
<symbol id="j" overflow="visible">
<path d="m-1.2656-3.5156v0.23438c0.15625 0.015625 0.5625 0.09375 0.625 0.1875 0.046875 0.046875 0.046875 0.57812 0.046875 0.6875v1.2812c-0.64062-0.73438-0.84375-0.98438-1.1719-1.3906-0.40625-0.51562-0.84375-1-1.5-1-0.84375 0-1.3594 0.73438-1.3594 1.625 0 0.85938 0.60938 1.4531 1.25 1.4531 0.34375 0 0.39062-0.29688 0.39062-0.375 0-0.15625-0.125-0.35938-0.375-0.35938-0.125 0-0.375 0.046875-0.375 0.40625-0.48438-0.21875-0.64062-0.6875-0.64062-1.0156 0-0.70312 0.54688-1.0625 1.1094-1.0625 0.60938 0 1.0781 0.4375 1.3281 0.65625l1.6719 1.6719c0.0625 0.078125 0.078125 0.078125 0.26562 0.078125v-2.875z"/>
</symbol>
<symbol id="i" overflow="visible">
<path d="m-1.4062-3.5156c-0.78125 0-1.5 0.59375-1.5 1.4531 0 0.3125 0.0625 0.67188 0.32812 0.98438h-1.3125c0.09375-0.35938 0.09375-0.5625 0.09375-0.67188 0-0.92188-0.625-1.4688-0.73438-1.4688-0.078125 0-0.09375 0.046875-0.09375 0.078125 0 0 0 0.03125 0.015625 0.0625 0.0625 0.17188 0.20312 0.53125 0.20312 1.0469 0 0.20312-0.015625 0.5625-0.1875 1.0156-0.03125 0.078125-0.03125 0.09375-0.03125 0.09375 0 0.09375 0.078125 0.09375 0.1875 0.09375h2.0469c0.125 0 0.20312 0 0.20312-0.10938 0-0.0625 0-0.078125-0.09375-0.14062-0.375-0.29688-0.4375-0.73438-0.4375-0.96875 0-0.42188 0.32812-0.60938 0.39062-0.64062 0.23438-0.125 0.5-0.17188 0.90625-0.17188 0.20312 0 0.60938 0 0.92188 0.21875 0.25 0.17188 0.42188 0.46875 0.42188 0.8125 0 0.45312-0.25 0.92188-0.71875 1.0938 0.015625-0.26562-0.15625-0.40625-0.34375-0.40625-0.29688 0-0.34375 0.26562-0.34375 0.35938 0 0 0 0.34375 0.375 0.34375 0.625 0 1.25-0.57812 1.25-1.4062 0-0.89062-0.65625-1.6719-1.5469-1.6719z"/>
</symbol>
<symbol id="h" overflow="visible">
<path d="m-7.2812-4.4219c-0.10938 0-0.20312 0.078125-0.20312 0.1875 0 0.078125 0.03125 0.14062 0.09375 0.17188l9.5 3.4688c0.14062 0.046875 0.1875 0.046875 0.1875 0.046875 0.10938 0 0.20312-0.09375 0.20312-0.20312 0-0.125-0.078125-0.15625-0.25-0.21875l-9.3438-3.4062c-0.14062-0.046875-0.1875-0.046875-0.1875-0.046875z"/>
</symbol>
<clipPath id="ax">
<path d="m30.316 127h194.27v35.391h-194.27z"/>
</clipPath>
<clipPath id="av">
<path d="m30.316 109h194.27v53.391h-194.27z"/>
</clipPath>
<clipPath id="au">
<path d="m30.316 73h194.27v89.391h-194.27z"/>
</clipPath>
<clipPath id="at">
<path d="m30.316 37h194.27v125.39h-194.27z"/>
</clipPath>
<clipPath id="as">
<path d="m30.316 2h194.27v160.39h-194.27z"/>
</clipPath>
<clipPath id="ar">
<path d="m30.316 133h194.27v29.391h-194.27z"/>
</clipPath>
<clipPath id="aq">
<path d="m30.316 115h194.27v47.391h-194.27z"/>
</clipPath>
<clipPath id="ap">
<path d="m30.316 79h194.27v83.391h-194.27z"/>
</clipPath>
<clipPath id="ao">
<path d="m30.316 43h194.27v119.39h-194.27z"/>
</clipPath>
<clipPath id="aw">
<path d="m30.316 7h194.27v155.39h-194.27z"/>
</clipPath>
</defs>
<path transform="matrix(1 0 0 -1 30.318 736.22)" d="m-0.0015938 573.83v161.4m48.57-161.4v161.4m48.566-161.4v161.4m48.566-161.4v161.4m48.566-161.4v161.4" fill="none" stroke="#bfbfbf" stroke-miterlimit="10" stroke-width=".3985"/>
<path transform="matrix(1 0 0 -1 30.318 736.22)" d="m-0.0015938 573.83h194.27m-194.27 35.867h194.27m-194.27 35.867h194.27m-194.27 35.867h194.27m-194.27 35.863h194.27" fill="none" stroke="#bfbfbf" stroke-miterlimit="10" stroke-width=".3985"/>
<path transform="matrix(1 0 0 -1 30.318 736.22)" d="m-0.0015938 573.83v4.2539m48.57-4.2539v4.2539m48.566-4.2539v4.2539m48.566-4.2539v4.2539m48.566-4.2539v4.2539m-194.27 157.14v-4.25m48.57 4.25v-4.25m48.566 4.25v-4.25m48.566 4.25v-4.25m48.566 4.25v-4.25" fill="none" stroke="#7f7f7f" stroke-miterlimit="10" stroke-width=".19925"/>
<path transform="matrix(1 0 0 -1 30.318 736.22)" d="m-0.0015938 573.83h4.2539m-4.2539 35.867h4.2539m-4.2539 35.867h4.2539m-4.2539 35.867h4.2539m-4.2539 35.863h4.2539m190.02-143.46h-4.25m4.25 35.867h-4.25m4.25 35.867h-4.25m4.25 35.867h-4.25m4.25 35.863h-4.25" fill="none" stroke="#7f7f7f" stroke-miterlimit="10" stroke-width=".19925"/>
<path transform="matrix(1 0 0 -1 30.318 736.22)" d="m-0.0015938 573.83v161.4h194.27v-161.4z" fill="none" stroke="#000" stroke-miterlimit="10" stroke-width=".3985"/>
<g>
<use x="27.828" y="172.19" xlink:href="#a"/>
<use x="76.394" y="172.19" xlink:href="#am"/>
<use x="124.961" y="172.19" xlink:href="#g"/>
<use x="173.528" y="172.19" xlink:href="#al"/>
<use x="222.094" y="172.19" xlink:href="#f"/>
<use x="21.817" y="165.533" xlink:href="#a"/>
<use x="16.836" y="129.668" xlink:href="#g"/>
<use x="21.8173" y="129.668" xlink:href="#a"/>
<use x="16.836" y="93.802" xlink:href="#f"/>
<use x="21.8173" y="93.802" xlink:href="#a"/>
<use x="16.836" y="57.936" xlink:href="#ak"/>
<use x="21.8173" y="57.936" xlink:href="#a"/>
<use x="16.836" y="22.071" xlink:href="#aj"/>
<use x="21.8173" y="22.071" xlink:href="#a"/>
</g>
<g clip-path="url(#ax)">
<path transform="matrix(1 0 0 -1 30.318 736.22)" d="m-0.0015938 591.77 3.25-0.58594 1.625-0.28906 1.625-0.28125 1.6211-0.27734 1.625-0.27344 1.625-0.26953 1.625-0.26562 3.25-0.51562 1.6211-0.25 3.25-0.49219 3.25-0.47656 1.6211-0.23047 1.625-0.22656 3.25-0.44531 1.625-0.21484 1.625-0.21094 1.6211-0.21094 1.625-0.20703 1.625-0.20312 1.625-0.19922 1.625-0.19531 1.6211-0.19141 3.25-0.375 1.625-0.18359 1.625-0.17969 1.625-0.17578 1.6211-0.17578 1.625-0.17188 3.25-0.33594 1.625-0.16016 1.6211-0.16016 1.625-0.16016 4.875-0.45703 1.625-0.14453 1.6211-0.14844 3.25-0.28125 3.25-0.27344 1.6211-0.13281 4.875-0.38672 1.625-0.125 1.625-0.12109 1.6211-0.12109 4.875-0.35156 1.625-0.11328 1.6211-0.10938 1.625-0.10938 4.875-0.31641 1.6211-0.10156 1.625-0.10156 3.25-0.19531 3.25-0.1875 1.6211-0.09375 3.25-0.17969 1.625-0.085938 1.625-0.089844 1.6211-0.082031 1.625-0.085937 1.625-0.082032 1.625-0.078125 1.625-0.082031 1.625-0.074219 1.6211-0.078125 1.625-0.074218 1.625-0.078125 3.25-0.14062 1.6211-0.074219 1.625-0.066406 1.625-0.070313 4.875-0.19922 1.6211-0.0625 3.25-0.125 1.625-0.058593 1.625-0.0625 1.6211-0.058594 1.625-0.054688 1.625-0.058593 1.625-0.054688 1.625-0.058594 1.625-0.050781 1.6211-0.054687 1.625-0.054688 1.625-0.046875 3.25-0.10156 1.6211-0.046875 1.625-0.050782 4.875-0.14062 1.6211-0.042968 1.625-0.046875 3.25-0.085938 1.625-0.039062 1.625-0.042969 1.6211-0.039063 1.625-0.042968 3.25-0.078125 1.625-0.035157 1.6211-0.039062 3.25-0.070313 1.625-0.039062 1.625-0.035156 1.625-0.03125 1.6211-0.035157 1.625-0.03125 1.625-0.035156 3.25-0.0625 1.625-0.035156 1.6211-0.027344 1.625-0.03125 1.625-0.027344 1.625-0.03125 3.2461-0.054687 8.1211-0.13672 3.25-0.046875 1.625-0.027344 4.8711-0.070312 3.25-0.046875 1.625-0.019531 3.2461-0.046875 3.25-0.039063 1.625-0.023437 4.8711-0.058594 1.625-0.019531 1.625-0.015625 3.25-0.039063 1.6211-0.015625 1.625-0.019531 1.625-0.015625 1.625-0.019531 3.2461-0.03125 1.625-0.015625 1.625-0.019532 1.625-0.015625 1.625-0.011718 3.2461-0.03125 3.25-0.03125 1.625-0.011719 1.625-0.015625 1.625-0.011719 1.6211-0.015625 1.625-0.011719 1.625-0.015625 4.8711-0.035156 14.621-0.10547 1.625-0.007812 1.6211-0.011719 1.625-0.007812 3.25-0.023438 3.2461-0.015625 1.625-0.011719 3.25-0.015625 1.625-0.011718 3.2461-0.015625 3.25-0.015625 1.625-0.011719 3.2461-0.015625 3.25-0.015625 1.625-0.003906 8.1211-0.039063 1.625-0.003906 3.2461-0.015625 1.625-0.003906 3.25-0.015625 1.625-0.003907 1.6211-0.007812 1.625-0.003906 1.625-0.007813 1.625-0.003906 1.625-0.007813 1.625-0.003906 1.6211-0.007812 3.25-0.007813 1.625-0.007812 4.8711-0.011719 1.625-0.007813 6.4961-0.015625 1.625-0.007812 25.988-0.0625h1.625l8.1211-0.019531h1.625l4.8711-0.011719h1.625l3.25-0.007813h1.625l3.2461-0.007812h1.625l3.25-0.007813h1.625l1.6211-0.003906 1.625-0.003906h1.625l1.625-0.003906h1.625l1.6211-0.003907h1.625l3.25-0.007812h1.625l1.625-0.003906" fill="none" stroke="#0c6dfd" stroke-miterlimit="10" stroke-width="1.1955"/>
</g>
<g clip-path="url(#av)">
<path transform="matrix(1 0 0 -1 30.318 736.22)" d="m-0.0015938 609.7 3.25-1.1719 1.625-0.57812 1.625-0.5625 1.6211-0.55469 1.625-0.55078 1.625-0.53516 1.625-0.53125 1.625-0.51953 1.625-0.51172 1.6211-0.5 1.625-0.49609 1.625-0.48828 3.25-0.95312 1.6211-0.46094 1.625-0.45312 1.625-0.44922 1.625-0.44141 1.625-0.43359 1.625-0.42188 1.6211-0.41797 1.625-0.41406 1.625-0.40625 1.625-0.39844 1.625-0.39062 1.6211-0.38281 1.625-0.37891 1.625-0.375 1.625-0.36719 1.625-0.35938 1.625-0.35156 1.6211-0.35156 1.625-0.34375 1.625-0.33594 1.625-0.33203 1.625-0.32422 1.6211-0.32031 1.625-0.31641 1.625-0.30859 1.625-0.30469 1.625-0.30078 1.625-0.29297 1.6211-0.29297 3.25-0.5625 3.25-0.54688 1.6211-0.26562 1.625-0.26172 3.25-0.51562 3.25-0.49219 1.6211-0.24219 3.25-0.46875 1.625-0.23047 1.625-0.22656 1.6211-0.22266 3.25-0.42969 1.625-0.21094 1.625-0.20703 1.6211-0.20703 3.25-0.39844 3.25-0.38281 1.625-0.1875 1.6211-0.18359 3.25-0.35938 3.25-0.35156 1.6211-0.16797 1.625-0.16797 1.625-0.16406 3.25-0.32031 1.625-0.15234 1.6211-0.15625 1.625-0.14844 1.625-0.15234 1.625-0.14453 1.625-0.14062 1.6211-0.14453 1.625-0.13672 1.625-0.14062 3.25-0.26562 1.625-0.12891 1.6211-0.12891 1.625-0.125 4.875-0.36328 1.6211-0.11719 1.625-0.11328 1.625-0.11719 1.625-0.10938 1.625-0.11328 1.625-0.10547 1.6211-0.10547 1.625-0.10938 1.625-0.097656 3.25-0.20312 1.6211-0.09375 3.25-0.19531 1.625-0.089844 1.625-0.09375 1.6211-0.089844 1.625-0.089844 3.25-0.17188 3.25-0.16406 1.6211-0.082031 1.625-0.082032 3.25-0.15625 1.625-0.074218 1.6211-0.074219 1.625-0.074219 1.625-0.070312 1.625-0.074219 1.625-0.070313 1.625-0.066406 1.6211-0.070312 1.625-0.0625 1.625-0.070313 3.25-0.125 1.625-0.066406 1.6211-0.058594 6.5-0.23438 1.6211-0.054687 4.875-0.16406 1.625-0.050781 1.6211-0.054688 1.625-0.050781 1.625-0.046875 1.625-0.050781 1.625-0.046875 1.625-0.050781 1.6211-0.046875 1.625-0.042969 1.625-0.046875 1.625-0.042969 1.625-0.046875 1.6211-0.042969 1.625-0.039062 3.25-0.085938 3.25-0.078125 1.6211-0.039062 1.625-0.039063 1.625-0.035156 1.625-0.039062 1.625-0.035157 1.6211-0.035156 6.5-0.14062 1.6211-0.03125 1.625-0.03125 1.625-0.035156 1.625-0.03125 1.625-0.027344 3.2461-0.0625 1.625-0.027344 1.625-0.03125 6.4961-0.10938 3.25-0.054687 1.625-0.023438 1.625-0.027343 1.6211-0.023438 9.7461-0.14062 1.625-0.019531 3.25-0.046875 3.2461-0.039063 3.25-0.039062 1.625-0.023438 1.625-0.015625 1.6211-0.019531 3.25-0.039062 1.625-0.015625 1.625-0.019532 1.625-0.015625 1.6211-0.019531 3.25-0.03125 1.625-0.019531 3.2461-0.03125 3.25-0.03125 1.625-0.011719 4.8711-0.046875 1.625-0.011719 1.625-0.015625 1.625-0.011718 1.625-0.015625 1.6211-0.011719 1.625-0.011719 1.625-0.015625 4.8711-0.035156 9.7461-0.070313 1.625-0.007812 3.25-0.023438 1.625-0.007812 1.625-0.011719 1.6211-0.007812 1.625-0.011719 1.625-0.007813 1.625-0.011718 3.2461-0.015625 1.625-0.011719 6.5-0.03125 1.6211-0.011719 9.7461-0.046875 1.625-0.003906 6.4961-0.03125 1.625-0.003906 3.25-0.015625 1.625-0.003907 1.6211-0.007812 1.625-0.007813 1.625-0.003906 1.625-0.007812 1.625-0.003907 1.6211-0.007812 3.25-0.007813 1.625-0.007812 1.625-0.003906 1.625-0.007813 1.6211-0.003906 1.625-0.003906 1.625-0.007813 4.8711-0.011719 1.625-0.007812 9.7461-0.023438 1.625-0.007812 3.25-0.007813" fill="none" stroke="#0c6dfd" stroke-miterlimit="10" stroke-width="1.1955"/>
</g>
<g clip-path="url(#au)">
<path transform="matrix(1 0 0 -1 30.318 736.22)" d="m-0.0015938 645.57 1.625-1.1758 1.625-1.168 1.625-1.1562 1.625-1.125 1.6211-1.1133 1.625-1.0977 1.625-1.0742 1.625-1.0586 1.625-1.0391 1.625-1.0273 1.6211-1 1.625-0.99219 1.625-0.97656 1.625-0.95312 1.625-0.94922 1.6211-0.92578 1.625-0.90234 1.625-0.89844 1.625-0.87891 1.625-0.87109 1.625-0.84375 1.6211-0.83984 1.625-0.82812 1.625-0.80859 1.625-0.79688 1.625-0.78125 1.6211-0.76953 1.625-0.75781 1.625-0.75 1.625-0.73047 1.625-0.71875 1.625-0.70703 1.6211-0.69922 1.625-0.6875 1.625-0.67578 1.625-0.66016 1.625-0.65234 1.6211-0.63672 1.625-0.63281 1.625-0.61719 1.625-0.60938 1.625-0.60156 1.625-0.58984 1.6211-0.58203 1.625-0.56641 1.625-0.55859 1.625-0.55078 1.625-0.54688 1.6211-0.53125 1.625-0.52344 1.625-0.51562 1.625-0.51172 1.625-0.49219 1.625-0.49609 1.6211-0.48047 1.625-0.47266 1.625-0.46875 1.625-0.45703 1.625-0.45312 1.6211-0.44531 3.25-0.85938 1.625-0.42578 1.625-0.41406 1.6211-0.41016 1.625-0.40234 1.625-0.39453 1.625-0.38672 1.625-0.37891 1.625-0.375 1.6211-0.37109 3.25-0.71875 1.625-0.35156 1.625-0.34766 1.6211-0.33594 1.625-0.33594 1.625-0.32812 1.625-0.32422 1.625-0.31641 1.625-0.30859 1.6211-0.30859 3.25-0.60156 1.625-0.28516 1.625-0.28906 1.6211-0.28906 1.625-0.27344 1.625-0.27734 3.25-0.53125 1.625-0.25781 1.6211-0.25781 1.625-0.25391 3.25-0.48438 1.625-0.23828 1.6211-0.23828 1.625-0.22656 1.625-0.23047 3.25-0.44531 1.625-0.21484 1.6211-0.20703 1.625-0.21875 3.25-0.39844 1.625-0.20312 1.6211-0.19141 3.25-0.39062 1.625-0.17969 1.625-0.18359 1.6211-0.17969 1.625-0.17969 3.25-0.34375 1.625-0.16797 1.625-0.16406 1.6211-0.16406 1.625-0.16016 3.25-0.3125 1.625-0.15234 1.6211-0.14844 4.875-0.43359 1.625-0.14062 1.625-0.13672 1.6211-0.13672 1.625-0.12891 1.625-0.13672 1.625-0.12891 1.625-0.125 1.625-0.12891 1.6211-0.12109 1.625-0.11328 1.625-0.12109 1.625-0.11328 1.625-0.11719 1.6211-0.10938 1.625-0.11328 1.625-0.10938 3.25-0.21094 1.6211-0.10547 1.625-0.10156 6.5-0.39062 1.6211-0.09375 6.5-0.35938 1.6211-0.085937 1.625-0.082031 1.625-0.085938 1.625-0.082031 1.625-0.078125 1.625-0.082031 1.6211-0.074219 1.625-0.078125 4.875-0.22266 1.6211-0.070313 4.875-0.21094 1.625-0.066407 1.6211-0.066406 1.625-0.0625 1.625-0.066406 1.625-0.0625 1.625-0.058594 1.625-0.0625 1.6211-0.058594 3.25-0.11719 1.625-0.054688 1.625-0.058593 1.625-0.054688 1.6211-0.054687 1.625-0.050782 1.625-0.054687 3.25-0.10156 1.6211-0.046875 1.625-0.050781 6.5-0.1875 1.6211-0.042969 1.625-0.042968 1.625-0.046875 1.625-0.042969 1.625-0.039063 1.6211-0.042968 3.25-0.078125 1.625-0.042969 1.625-0.035156 1.6211-0.039063 1.625-0.039062 6.5-0.14062 1.6211-0.035157 1.625-0.035156 1.625-0.03125 1.625-0.035156 3.2461-0.0625 3.25-0.0625 1.625-0.027344 1.625-0.03125 1.625-0.027344 1.6211-0.03125 8.1211-0.13672 1.625-0.023438 1.625-0.027344 3.25-0.046875 1.6211-0.027343 3.25-0.046875 1.625-0.019532 4.8711-0.070312 3.25-0.039063 1.625-0.023437 4.8711-0.058594 6.5-0.078125 1.6211-0.015625 1.625-0.019531 1.625-0.015625 1.625-0.019531 3.25-0.03125 1.6211-0.019532 9.7461-0.09375 1.625-0.011718 3.25-0.03125 1.6211-0.011719 1.625-0.015625 3.25-0.023438 1.625-0.015625 3.2461-0.023437 1.625-0.015625 8.1211-0.058594 1.625-0.007812 4.875-0.035157 1.6211-0.007812 3.25-0.023438 1.625-0.007812 1.625-0.011719 1.6211-0.007812 1.625-0.011719 3.25-0.015625 1.625-0.011719 1.6211-0.007812 3.25-0.015625 1.625-0.011719 3.25-0.015625" fill="none" stroke="#0c6dfd" stroke-miterlimit="10" stroke-width="1.1955"/>
</g>
<g clip-path="url(#at)">
<path transform="matrix(1 0 0 -1 30.318 736.22)" d="m-0.0015938 681.44 1.625-1.7617 1.625-1.7539 1.625-1.7344 1.625-1.6914 1.6211-1.668 1.625-1.6445 1.625-1.6133 1.625-1.5859 1.625-1.5586 1.625-1.5391 1.6211-1.5039 1.625-1.4883 1.625-1.4609 1.625-1.4336 1.625-1.4219 1.6211-1.3867 1.625-1.3555 1.625-1.3477 1.625-1.3203 1.625-1.3047 1.625-1.2695 1.6211-1.2578 1.625-1.2383 1.625-1.2148 1.625-1.1953 1.625-1.1758 1.6211-1.1523 1.625-1.1367 1.625-1.1211 1.625-1.0977 1.625-1.0781 1.625-1.0625 1.6211-1.0469 1.625-1.0312 1.625-1.0117 1.625-0.99219 1.625-0.97656 1.6211-0.96094 1.625-0.94531 1.625-0.92578 1.625-0.91406 1.625-0.90625 1.625-0.88281 1.6211-0.87109 1.625-0.84766 1.625-0.83984 1.625-0.82812 1.625-0.82031 1.6211-0.79688 1.625-0.78516 1.625-0.77344 1.625-0.76562 3.25-1.4844 1.6211-0.72266 1.625-0.70703 1.625-0.69922 1.625-0.69141 1.625-0.67578 1.6211-0.66797 1.625-0.64453 1.625-0.64844 1.625-0.63672 1.625-0.62109 1.6211-0.61328 1.625-0.60156 1.625-0.59375 1.625-0.58203 1.625-0.57031 1.625-0.55859 1.6211-0.55859 3.25-1.0781 1.625-0.52734 1.625-0.51953 1.6211-0.50391 1.625-0.50391 1.625-0.49609 1.625-0.48438 1.625-0.47266 1.625-0.46484 1.6211-0.46094 3.25-0.90625 1.625-0.42578 1.625-0.43359 1.6211-0.42969 1.625-0.41016 1.625-0.41797 3.25-0.79688 1.625-0.38672 1.6211-0.39062 1.625-0.375 1.625-0.36719 1.625-0.36328 1.625-0.35547 1.6211-0.35547 3.25-0.6875 1.625-0.33594 1.625-0.33203 1.625-0.32422 1.6211-0.3125 1.625-0.32422 1.625-0.29688 1.625-0.30469 1.625-0.30078 1.6211-0.28906 1.625-0.28906 1.625-0.29297 1.625-0.26953 1.625-0.28125 1.6211-0.26953 1.625-0.26562 1.625-0.26172 1.625-0.25781 1.625-0.24609 1.625-0.25 1.6211-0.24609 1.625-0.23438 3.25-0.47656 1.625-0.22656 1.6211-0.22266 1.625-0.21484 1.625-0.21875 3.25-0.42969 1.625-0.20312 1.6211-0.20312 1.625-0.19531 1.625-0.20312 1.625-0.19531 1.625-0.18359 1.625-0.19531 1.6211-0.17969 4.875-0.52734 1.625-0.17188 1.6211-0.16797 3.25-0.32812 3.25-0.32031 1.6211-0.15625 1.625-0.15234 3.25-0.29688 3.25-0.28906 1.6211-0.14062 3.25-0.27344 3.25-0.26562 1.6211-0.12891 4.875-0.375 1.625-0.12109 1.625-0.11719 1.6211-0.11719 4.875-0.33984 1.625-0.10938 1.6211-0.10547 3.25-0.21094 3.25-0.20312 1.6211-0.097657 3.25-0.19531 1.625-0.09375 1.625-0.089844 1.625-0.09375 1.6211-0.089844 4.875-0.25781 3.25-0.16406 1.6211-0.082031 1.625-0.082031 1.625-0.078125 1.625-0.074219 1.625-0.078125 1.6211-0.074219 1.625-0.070312 1.625-0.074219 3.25-0.14062 1.625-0.066406 1.6211-0.070313 1.625-0.0625 3.25-0.13281 1.625-0.0625 1.6211-0.0625 3.25-0.11719 1.625-0.0625 1.625-0.054687 1.6211-0.058594 6.5-0.21875 1.625-0.050781 1.6211-0.050781 4.875-0.15234 1.625-0.046875 1.6211-0.046875 3.25-0.09375 1.625-0.042969 1.625-0.046875 1.625-0.042969 1.6211-0.042968 1.625-0.042969 1.625-0.039063 1.625-0.042968 1.625-0.039063 1.6211-0.039062 3.25-0.078125 1.625-0.035157 1.625-0.039062 1.6211-0.035156 6.5-0.14062 1.625-0.03125 1.6211-0.035157 8.125-0.15625 1.6211-0.027343 1.625-0.03125 6.4961-0.10938 4.875-0.082032 3.25-0.046875 1.6211-0.027343 8.1211-0.11719 1.625-0.023437 1.625-0.019532 1.625-0.023437 3.2461-0.039063 1.625-0.023437 8.1211-0.097656 1.625-0.019532 1.625-0.015625 1.625-0.019531 1.625-0.015625 1.6211-0.019531 3.25-0.03125 1.625-0.019531 4.8711-0.046875 4.875-0.046875 1.625-0.011719 1.6211-0.015625 1.625-0.015625 1.625-0.011719 1.625-0.015625 1.625-0.011719 1.6211-0.015625 3.25-0.023437 1.625-0.015625 3.25-0.023438" fill="none" stroke="#0c6dfd" stroke-miterlimit="10" stroke-width="1.1955"/>
</g>
<g clip-path="url(#as)">
<path transform="matrix(1 0 0 -1 30.318 736.22)" d="m-0.0015938 717.3 1.625-2.3477 1.625-2.3398 1.625-2.3086 1.625-2.2539 1.6211-2.2227 1.625-2.1953 1.625-2.1523 1.625-2.1133 1.625-2.0781 1.625-2.0547 1.6211-2.0039 1.625-1.9844 1.625-1.9492 1.625-1.9102 1.625-1.8945 1.6211-1.8516 1.625-1.8047 1.625-1.7969 1.625-1.7617 1.625-1.7383 1.625-1.6914 1.6211-1.6797 1.625-1.6523 1.625-1.6211 1.625-1.5938 1.625-1.5625 1.6211-1.5352 1.625-1.5195 1.625-1.4961 1.625-1.4609 1.625-1.4375 1.625-1.418 1.6211-1.3945 1.625-1.375 1.625-1.3516 1.625-1.3203 1.625-1.3047 1.6211-1.2773 1.625-1.2617 1.625-1.2344 1.625-1.2188 1.625-1.207 1.625-1.1797 1.6211-1.1602 1.625-1.1328 1.625-1.1211 1.625-1.1016 1.625-1.0938 1.6211-1.0586 1.625-1.0469 1.625-1.0352 1.625-1.0195 3.25-1.9766 1.6211-0.96484 1.625-0.94531 1.625-0.93359 1.625-0.91797 1.625-0.90625 1.6211-0.89062 3.25-1.7188 1.625-0.84766 1.625-0.83203 1.6211-0.81641 1.625-0.80469 1.625-0.78906 1.625-0.77734 1.625-0.75781 1.625-0.74609 1.6211-0.74609 3.25-1.4375 1.625-0.70312 1.625-0.69141 1.6211-0.67188 1.625-0.67188 1.625-0.66016 1.625-0.64844 1.625-0.63281 1.625-0.61328 1.6211-0.61719 1.625-0.60547 1.625-0.60156 1.625-0.57031 1.625-0.57812 1.6211-0.57422 1.625-0.54688 1.625-0.55469 1.625-0.53125 1.625-0.53516 1.625-0.51562 1.6211-0.51562 1.625-0.50391 1.625-0.48438 1.625-0.48828 1.625-0.47656 1.6211-0.47266 1.625-0.45703 1.625-0.46094 1.625-0.44531 1.625-0.44141 1.625-0.43359 1.6211-0.41406 1.625-0.43359 1.625-0.39844 3.25-0.80469 1.6211-0.38672 1.625-0.38672 1.625-0.39062 1.625-0.35547 1.625-0.375 1.6211-0.35938 1.625-0.35938 3.25-0.6875 1.625-0.33203 1.625-0.32812 1.6211-0.32812 4.875-0.94922 1.625-0.30078 1.6211-0.30078 1.625-0.28516 1.625-0.29297 3.25-0.57031 1.625-0.27344 1.6211-0.27344 1.625-0.25781 1.625-0.27344 1.625-0.25781 1.625-0.24609 1.625-0.25781 1.6211-0.24219 1.625-0.23047 1.625-0.23828 3.25-0.46094 1.6211-0.22266 1.625-0.22266 1.625-0.21875 1.625-0.21484 1.625-0.21094 1.6211-0.20703 1.625-0.20312 1.625-0.19922 3.25-0.39062 1.625-0.19141 1.6211-0.1875 1.625-0.18359 3.25-0.35938 1.625-0.17578 1.6211-0.17188 3.25-0.33594 1.625-0.16406 3.25-0.32031 1.6211-0.15234 1.625-0.15625 4.875-0.44531 1.6211-0.14062 3.25-0.28125 1.625-0.13672 1.625-0.13281 1.6211-0.13281 3.25-0.25781 1.625-0.125 3.25-0.24219 1.6211-0.12109 1.625-0.11719 4.875-0.33984 1.625-0.10938 1.6211-0.10938 3.25-0.21094 3.25-0.20312 1.6211-0.097656 3.25-0.19531 3.25-0.1875 1.625-0.089844 1.6211-0.089843 1.625-0.085938 1.625-0.089844 1.625-0.085937 1.625-0.082031 1.6211-0.082032 1.625-0.082031 1.625-0.078125 1.625-0.082031 1.625-0.074219 1.6211-0.078125 3.25-0.14844 4.875-0.21094 1.6211-0.070312 4.875-0.19922 1.625-0.0625 1.6211-0.0625 3.25-0.125 4.875-0.17578 1.6211-0.058594 6.5-0.21875 1.6211-0.054688 4.875-0.15234 1.625-0.046875 1.6211-0.050782 3.25-0.09375 1.625-0.042968 1.625-0.046875 1.625-0.042969 1.6211-0.046875 1.625-0.042969 1.625-0.039062 3.25-0.085938 1.625-0.039062 1.6211-0.039063 3.25-0.078125 1.625-0.035156 1.625-0.039063 1.6211-0.035156 6.5-0.14062 1.625-0.03125 1.6211-0.035156 8.1211-0.15625 1.625-0.03125 3.25-0.054688 1.625-0.03125 1.6211-0.027343 3.25-0.054688 1.625-0.023437 3.25-0.054688 1.6211-0.023437 1.625-0.023438 1.625-0.027344 4.8711-0.070312 1.625-0.023438 1.625-0.019531 3.25-0.046875 3.2461-0.039062 1.625-0.023438 6.4961-0.078125 3.25-0.039062 1.625-0.015625 1.625-0.019532 1.6211-0.015625 1.625-0.019531 1.625-0.015625 1.625-0.019531 3.25-0.03125" fill="none" stroke="#0c6dfd" stroke-miterlimit="10" stroke-width="1.1955"/>
</g>
<g clip-path="url(#ar)">
<path transform="matrix(1 0 0 -1 30.318 736.22)" d="m-0.0015938 591.77 1.625-0.29688 4.875-0.90234 1.6211-0.29688 6.5-1.2031 1.625-0.29688 1.6211-0.30078 3.25-0.60156 1.625-0.29688 1.625-0.30078 1.6211-0.30078 1.625-0.30078 1.625-0.29688 4.875-0.90234 1.6211-0.30078 1.625-0.29688 4.875-0.90234 1.6211-0.29688 4.875-0.90234 1.625-0.29688 1.625-0.30078 1.6211-0.30078 3.25-0.60156 1.625-0.29688 1.625-0.30078 1.6211-0.30078 1.625-0.30078 1.625-0.29688 4.875-0.90234 1.6211-0.29688 4.875-0.90234 1.625-0.29688 1.6211-0.30078 4.875-0.90234 1.625-0.29688 1.625-0.30078 1.6211-0.30078 1.625-0.30078 1.625-0.29688 3.25-0.60156 1.6211-0.30078 1.625-0.29688 4.875-0.90234 1.6211-0.30078 1.625-0.29688 4.875-0.90234 1.625-0.29688 1.6211-0.30078 4.875-0.90234 1.625-0.29688 1.6211-0.30078 3.25-0.60156 1.625-0.29688 3.25-0.60156 1.6211-0.30078 1.625-0.29688 4.875-0.90234 1.6211-0.29688 6.5-1.2031 1.625-0.29688 1.6211-0.30078 3.25-0.60156 1.625-0.29688 1.625-0.30078 1.6211-0.30078 1.625-0.30078 1.625-0.29688 4.875-0.90234 1.6211-0.29688 6.5-1.2031 1.6211-0.29688 4.875-0.90234 1.625-0.29688 1.6211-0.30078 4.875-0.90234 1.625-0.29688 1.625-0.30078 1.6211-0.30078 1.625-0.30078 1.625-0.29688 3.25-0.60156 1.6211-0.30078 1.625-0.29688 6.5-1.2031 1.6211-0.29688 4.875-0.90234 1.625-0.29688 1.625-0.30078 1.6211-0.30078 1.625-0.30078 1.625-0.29688 3.25-0.60156 1.6211-0.30078 1.625-0.29688 4.875-0.90234 1.6211-0.30078 1.625-0.29688 4.875-0.90234 1.625-0.29688 1.6211-0.30078 3.25-0.60156 1.625-0.29688 1.625-0.30078 1.6211-0.30078 1.625-0.30078 1.625-0.29688 4.875-0.90234 1.6211-0.30078 1.625-0.29688 4.875-0.90234 1.6211-0.29688 6.5-1.2031 1.6211-0.29688 4.875-0.90234 1.625-0.29688 1.625-0.30078 1.6211-0.30078 1.625-0.30078 1.625-0.29688 4.875-0.90234 1.6211-0.30078 1.625-0.29688 4.875-0.90234 1.6211-0.29688 4.875-0.90234 1.625-0.29688 1.625-0.30078 1.6211-0.30078 3.25-0.60156 1.625-0.29688 1.625-0.30078 1.6211-0.30078 1.625-0.30078 1.625-0.29688 3.25-0.60156 1.6211-0.30078 1.625-0.29688 6.5-1.2031 1.6211-0.29688 4.875-0.90234 1.625-0.29688 1.6211-0.30078 3.25-0.60156 1.625-0.29688 3.25-0.60156 1.6211-0.30078 1.625-0.29688 4.875-0.90234 1.6211-0.30078 1.625-0.29688 4.875-0.90234 1.6211-0.29688 4.875-0.90234 1.625-0.29688 1.625-0.30078 1.6211-0.30078 3.25-0.60156 1.625-0.29688 3.25-0.60156 1.6211-0.30078 1.625-0.29688 4.875-0.90234 1.6211-0.29688 6.5-1.2031 1.625-0.29688 1.6211-0.30078 3.25-0.60156 1.625-0.29688 1.625-0.30078 1.6211-0.30078 1.625-0.30078 1.625-0.29688 3.25-0.60156 1.6211-0.30078 1.625-0.30078 1.625-0.29688 4.875-0.90234 1.6211-0.29688 4.875-0.90234 1.625-0.29688 1.6211-0.30078 4.875-0.90234 1.625-0.29688 1.625-0.30078 1.6211-0.30078 1.625-0.30078 1.625-0.29688 3.25-0.60156 1.6211-0.30078 1.625-0.29688 4.875-0.90234 1.6211-0.29688 6.5-1.2031 1.625-0.29688" fill="none" stroke="#000" stroke-miterlimit="10" stroke-width=".79701"/>
</g>
<g clip-path="url(#aq)">
<path transform="matrix(1 0 0 -1 30.318 736.22)" d="m-0.0015938 609.7 1.625-0.59766 1.625-0.60156 1.625-0.59766 1.625-0.60156 1.6211-0.59766 3.25-1.2031 1.625-0.59766 1.625-0.60156 1.625-0.59766 1.6211-0.60156 1.625-0.59766 1.625-0.60156 1.625-0.59766 1.625-0.60156 1.6211-0.59766 1.625-0.60156 1.625-0.59766 3.25-1.2031 1.625-0.59766 1.6211-0.60156 1.625-0.59766 1.625-0.60156 1.625-0.59766 1.625-0.60156 1.6211-0.59766 1.625-0.60156 1.625-0.59766 1.625-0.60156 1.625-0.59766 1.625-0.60156 1.6211-0.59766 3.25-1.2031 1.625-0.59766 1.625-0.60156 1.6211-0.59766 1.625-0.60156 1.625-0.59766 1.625-0.60156 1.625-0.59766 1.625-0.60156 1.6211-0.59766 1.625-0.60156 1.625-0.59766 1.625-0.60156 1.625-0.59766 1.6211-0.60156 1.625-0.60156 1.625-0.59766 1.625-0.60156 1.625-0.59766 1.625-0.60156 1.6211-0.59766 1.625-0.60156 1.625-0.59766 1.625-0.60156 1.625-0.59766 1.6211-0.60156 1.625-0.59766 3.25-1.2031 1.625-0.59766 1.6211-0.60156 1.625-0.59766 1.625-0.60156 1.625-0.59766 1.625-0.60156 1.625-0.59766 1.6211-0.60156 1.625-0.59766 3.25-1.2031 1.625-0.59766 1.6211-0.59766 3.25-1.2031 1.625-0.59766 1.625-0.60156 1.625-0.59766 1.6211-0.60156 1.625-0.59766 1.625-0.60156 1.625-0.59766 1.625-0.60156 1.6211-0.59766 1.625-0.60156 1.625-0.59766 3.25-1.2031 1.625-0.59766 1.6211-0.60156 1.625-0.59766 1.625-0.60156 1.625-0.59766 1.625-0.60156 1.6211-0.59766 1.625-0.60156 1.625-0.59766 1.625-0.60156 1.625-0.59766 1.625-0.60156 1.6211-0.59766 3.25-1.2031 1.625-0.59766 1.625-0.60156 1.6211-0.59766 1.625-0.60156 1.625-0.59766 1.625-0.60156 1.625-0.59766 1.6211-0.60156 1.625-0.59766 3.25-1.2031 1.625-0.59766 1.625-0.60156 1.6211-0.59766 1.625-0.60156 1.625-0.59766 1.625-0.60156 1.625-0.59766 1.6211-0.60156 1.625-0.59766 1.625-0.60156 1.625-0.59766 3.25-1.2031 1.6211-0.59766 1.625-0.59766 3.25-1.2031 1.625-0.59766 1.625-0.60156 1.6211-0.59766 1.625-0.60156 1.625-0.59766 1.625-0.60156 1.625-0.59766 1.6211-0.60156 1.625-0.59766 1.625-0.60156 1.625-0.59766 1.625-0.60156 1.6211-0.60156 1.625-0.59766 1.625-0.60156 1.625-0.59766 1.625-0.60156 1.625-0.59766 1.6211-0.60156 1.625-0.59766 1.625-0.60156 1.625-0.59766 1.625-0.60156 1.6211-0.60156 3.25-1.1953 3.25-1.2031 1.625-0.59766 1.6211-0.60156 1.625-0.59766 1.625-0.60156 1.625-0.59766 1.625-0.60156 1.6211-0.59766 1.625-0.60156 1.625-0.59766 3.25-1.2031 1.6211-0.59766 1.625-0.60156 1.625-0.59766 1.625-0.60156 1.625-0.59766 1.625-0.60156 1.6211-0.59766 1.625-0.60156 1.625-0.59766 1.625-0.60156 1.625-0.59766 1.625-0.60156 1.6211-0.60156 1.625-0.59766 1.625-0.60156 1.625-0.59766 1.625-0.60156 1.6211-0.59766 1.625-0.60156 1.625-0.59766 1.625-0.60156 1.625-0.59766 1.625-0.60156 1.6211-0.59766 1.625-0.60156 1.625-0.59766 3.25-1.2031 1.6211-0.59766 1.625-0.60156 1.625-0.59766 1.625-0.60156 1.625-0.59766 1.6211-0.60156 1.625-0.59766 1.625-0.60156 1.625-0.59766 3.25-1.2031 1.6211-0.59766 1.625-0.60156 1.625-0.59766 1.625-0.60156 1.625-0.59766 1.6211-0.60156 1.625-0.59766 1.625-0.60156 1.625-0.59766 1.625-0.60156 1.625-0.59766 1.6211-0.60156 1.625-0.59766 1.625-0.60156 1.625-0.59766 1.625-0.60156 1.6211-0.60156 1.625-0.59766 1.625-0.60156 1.625-0.59766 1.625-0.60156 1.6211-0.59766 1.625-0.60156 1.625-0.59766 1.625-0.60156 1.625-0.59766 1.625-0.60156 1.6211-0.60156 1.625-0.59766 1.625-0.60156 1.625-0.59766 1.625-0.60156 1.625-0.59766 1.6211-0.60156 1.625-0.59766 1.625-0.60156 1.625-0.59766 1.625-0.60156 1.6211-0.59766 1.625-0.60156 1.625-0.59766 3.25-1.2031 1.625-0.59766 1.6211-0.60156 1.625-0.59766 1.625-0.60156 1.625-0.59766 1.625-0.60156 1.6211-0.59766 1.625-0.60156 1.625-0.59766 1.625-0.60156 1.625-0.59766 1.6211-0.60156 1.625-0.60156 1.625-0.59766 1.625-0.60156 1.625-0.59766 1.625-0.60156 1.6211-0.59766 1.625-0.60156 1.625-0.59766 1.625-0.60156 1.625-0.59766 1.6211-0.60156 1.625-0.59766 3.25-1.2031 1.625-0.59766 1.625-0.60156 1.6211-0.59766 1.625-0.60156 1.625-0.59766 1.625-0.60156 1.625-0.59766 1.6211-0.60156 1.625-0.59766 1.625-0.60156 1.625-0.59766 1.625-0.60156 1.6211-0.59766 1.625-0.60156 1.625-0.59766 3.25-1.2031 1.625-0.59766" fill="none" stroke="#000" stroke-miterlimit="10" stroke-width=".79701"/>
</g>
<g clip-path="url(#ap)">
<path transform="matrix(1 0 0 -1 30.318 736.22)" d="m-0.0015938 645.57 6.5-4.7969 1.6211-1.1992 1.625-1.2031 6.5-4.7969 1.6211-1.1992 6.5-4.7969 1.6211-1.1992 4.875-3.5977 1.625-1.2031 1.625-1.1992 1.6211-1.1992 6.5-4.7969 1.6211-1.1992 8.125-5.9961 1.6211-1.1992 1.625-1.1992 1.625-1.2031 3.25-2.3984 1.6211-1.1992 8.125-5.9961 1.6211-1.1992 6.5-4.7969 1.6211-1.2031 8.125-5.9961 1.6211-1.1992 6.5-4.7969 1.6211-1.1992 1.625-1.1992 1.625-1.2031 3.25-2.3984 1.6211-1.1992 8.125-5.9961 1.6211-1.1992 3.25-2.3984 1.625-1.2031 1.625-1.1992 1.6211-1.1953 3.25-2.3984 1.625-1.2031 3.25-2.3984 1.6211-1.1992 6.5-4.7969 1.6211-1.1992 4.875-3.5977 1.625-1.2031 1.625-1.1992 1.6211-1.1992 6.5-4.7969 1.6211-1.1992 6.5-4.7969 1.625-1.2031 1.6211-1.1953 1.625-1.2031 4.875-3.5977 1.6211-1.1992 6.5-4.7969 1.6211-1.1992 3.25-2.3984 1.625-1.2031 3.25-2.3984 1.6211-1.1992 6.5-4.7969 1.6211-1.1992 4.875-3.5977 1.625-1.2031 1.625-1.1992 1.6211-1.1992 1.625-1.1953 1.625-1.1992 1.625-1.2031 3.25-2.3984 1.6211-1.1992 6.5-4.7969 1.6211-1.1992 4.875-3.5977 1.625-1.2031 1.6211-1.1992 8.125-5.9961 1.6211-1.1992 6.5-4.7969 1.6211-1.2031 1.625-1.1953 1.625-1.1992 1.625-1.2031 3.25-2.3984 1.6211-1.1992 6.5-4.7969 1.6211-1.1992 4.875-3.5977 1.625-1.2031 1.6211-1.1992 8.125-5.9961 1.6211-1.1992 6.5-4.7969 1.625-1.2031 1.6211-1.1992 1.625-1.1953 1.625-1.2031 3.25-2.3984 1.6211-1.1992 8.125-5.9961 1.6211-1.1992 4.875-3.5977 1.625-1.2031 1.6211-1.1992 6.5-4.7969 1.6211-1.1992 8.125-5.9961 1.6211-1.2031 6.5-4.7969 1.6211-1.1992 8.125-5.9961 1.6211-1.1992 6.5-4.7969 1.6211-1.2031 6.5-4.7969 1.6211-1.1992 8.125-5.9961 1.6211-1.2031 8.125-5.9961 1.6211-1.1992 6.5-4.7969 1.6211-1.1992 4.875-3.5977 1.625-1.2031 1.625-1.1992 1.6211-1.1992 6.5-4.7969 1.6211-1.1992 6.5-4.7969 1.6211-1.1992 1.625-1.2031 6.5-4.7969 1.6211-1.1992 6.5-4.7969 1.6211-1.1992 1.625-1.1992 1.625-1.2031 1.625-1.1992 1.625-1.1953 1.625-1.2031 1.6211-1.1992 6.5-4.7969 1.6211-1.1992 6.5-4.7969 1.6211-1.1992 3.25-2.3984 1.625-1.2031 3.25-2.3984" fill="none" stroke="#000" stroke-miterlimit="10" stroke-width=".79701"/>
</g>
<g clip-path="url(#ao)">
<path transform="matrix(1 0 0 -1 30.318 736.22)" d="m-0.0015938 681.44 3.25-3.6016 1.625-1.7969 1.625-1.8008 1.6211-1.7969 3.25-3.6016 1.625-1.7969 1.625-1.8008 1.625-1.7969 1.6211-1.8008 1.625-1.8008 1.625-1.7969 3.25-3.6016 1.6211-1.7969 1.625-1.8008 1.625-1.7969 3.25-3.6016 1.625-1.7969 1.6211-1.8008 1.625-1.7969 3.25-3.6016 1.625-1.7969 1.6211-1.8008 1.625-1.7969 1.625-1.8008 1.625-1.7969 3.25-3.6016 1.6211-1.7969 3.25-3.6016 1.625-1.7969 1.625-1.8008 1.6211-1.7969 3.25-3.6016 1.625-1.7969 1.625-1.8008 1.625-1.7969 1.6211-1.8008 1.625-1.8008 1.625-1.7969 1.625-1.8008 1.625-1.7969 1.6211-1.8008 1.625-1.8008 1.625-1.7969 3.25-3.6016 1.625-1.7969 1.6211-1.8008 1.625-1.7969 1.625-1.8008 1.625-1.7969 1.625-1.8008 1.6211-1.8008 1.625-1.7969 3.25-3.6016 1.625-1.7969 1.6211-1.8008 1.625-1.7969 1.625-1.8008 1.625-1.7969 3.25-3.6016 1.6211-1.8008 1.625-1.7969 3.25-3.6016 1.625-1.7969 1.6211-1.7969 1.625-1.8008 1.625-1.7969 4.875-5.4023 1.6211-1.7969 3.25-3.6016 3.25-3.5938 1.6211-1.8008 1.625-1.8008 1.625-1.7969 3.25-3.6016 1.625-1.7969 1.6211-1.8008 1.625-1.7969 3.25-3.6016 1.625-1.7969 1.6211-1.8008 1.625-1.8008 1.625-1.7969 1.625-1.8008 1.625-1.7969 1.625-1.8008 1.6211-1.7969 3.25-3.6016 1.625-1.7969 1.625-1.8008 1.6211-1.8008 1.625-1.7969 3.25-3.6016 1.625-1.7969 1.6211-1.8008 1.625-1.7969 3.25-3.6016 1.625-1.7969 1.625-1.8008 1.6211-1.8008 3.25-3.5938 3.25-3.6016 1.6211-1.7969 3.25-3.6016 1.625-1.7969 3.25-3.6016 1.6211-1.7969 1.625-1.7969 3.25-3.6016 1.625-1.7969 1.625-1.8008 1.6211-1.8008 1.625-1.7969 3.25-3.6016 1.625-1.7969 1.6211-1.8008 1.625-1.7969 1.625-1.8008 1.625-1.7969 1.625-1.8008 1.6211-1.8008 1.625-1.7969 3.25-3.6016 1.625-1.7969 1.625-1.8008 1.6211-1.7969 3.25-3.6016 1.625-1.7969 1.625-1.8008 1.6211-1.8008 3.25-3.5938 4.875-5.4023 1.6211-1.7969 1.625-1.8008 1.625-1.7969 3.25-3.6016 1.6211-1.7969 1.625-1.8008 1.625-1.7969 3.25-3.6016 1.6211-1.7969 3.25-3.6016 1.625-1.7969 1.625-1.8008 1.625-1.7969 1.6211-1.8008 1.625-1.7969 3.25-3.6016 1.625-1.7969 1.625-1.8008 1.6211-1.8008 3.25-3.5938 3.25-3.6016 1.6211-1.8008 1.625-1.7969 1.625-1.8008 1.625-1.7969 3.25-3.6016 1.6211-1.7969 1.625-1.8008 1.625-1.7969 3.25-3.6016 1.6211-1.7969 3.25-3.6016 1.625-1.7969 1.625-1.8008 1.6211-1.7969 3.25-3.6016 1.625-1.7969 1.625-1.8008 1.625-1.7969 1.6211-1.8008 1.625-1.8008 1.625-1.7969 1.625-1.8008 1.625-1.7969 1.6211-1.8008 1.625-1.8008 1.625-1.7969 3.25-3.6016 1.625-1.7969 1.6211-1.7969 3.25-3.6016 1.625-1.7969 1.625-1.8008 1.6211-1.8008 1.625-1.7969 3.25-3.6016 1.625-1.7969 1.6211-1.7969 3.25-3.6016 1.625-1.7969 3.25-3.6016 1.6211-1.8008 1.625-1.7969 3.25-3.6016 3.25-3.5938 1.6211-1.8008 1.625-1.8008 1.625-1.7969 3.25-3.6016 1.6211-1.7969 1.625-1.8008 1.625-1.7969 3.25-3.6016 1.625-1.7969 1.6211-1.8008 1.625-1.7969 3.25-3.6016 1.625-1.7969 1.6211-1.8008 1.625-1.7969 3.25-3.6016 1.625-1.7969 1.6211-1.8008 1.625-1.8008 1.625-1.7969 1.625-1.8008 1.625-1.7969 1.625-1.8008 1.6211-1.8008 1.625-1.7969 1.625-1.8008 1.625-1.7969 1.625-1.8008 1.6211-1.8008 1.625-1.7969 3.25-3.6016 1.625-1.7969 1.625-1.8008 1.6211-1.7969 3.25-3.6016 1.625-1.7969 1.625-1.8008 1.6211-1.8008 3.25-3.5938 3.25-3.6016 1.6211-1.7969 1.625-1.8008 1.625-1.7969 3.25-3.6016 1.625-1.7969" fill="none" stroke="#000" stroke-miterlimit="10" stroke-width=".79701"/>
</g>
<g clip-path="url(#aw)">
<path transform="matrix(1 0 0 -1 30.318 736.22)" d="m-0.0015938 717.3 6.5-9.5938 1.6211-2.3984 1.625-2.4023 6.5-9.5938 1.6211-2.3984 1.625-2.3984 1.625-2.4023 3.25-4.7969 1.6211-2.3984 4.875-7.1953 1.625-2.4023 1.625-2.3984 1.6211-2.3984 6.5-9.5938 1.6211-2.4023 8.125-11.992 1.6211-2.3984 1.625-2.3984 1.625-2.4023 3.25-4.7969 1.6211-2.3984 3.25-4.7969 1.625-2.4023 3.25-4.7969 1.6211-2.3984 6.5-9.5938 1.6211-2.4023 8.125-11.992 1.6211-2.4023 1.625-2.3984 1.625-2.3945 1.625-2.4023 1.625-2.3984 1.6211-2.3984 1.625-2.3984 1.625-2.4023 3.25-4.7969 1.6211-2.3984 6.5-9.5938 1.625-2.4023 1.6211-2.3984 3.25-4.7969 1.625-2.4023 1.625-2.3984 1.6211-2.3945 3.25-4.7969 1.625-2.4023 3.25-4.7969 1.6211-2.4023 6.5-9.5938 1.6211-2.3984 4.875-7.1953 1.625-2.4023 1.625-2.3984 1.6211-2.3984 6.5-9.5938 1.6211-2.4023 6.5-9.5938 1.625-2.4023 1.6211-2.3945 1.625-2.4023 4.875-7.1953 1.6211-2.4023 6.5-9.5938 1.6211-2.3984 3.25-4.7969 1.625-2.4023 3.25-4.7969 1.6211-2.3984 6.5-9.5938 1.6211-2.4023 4.875-7.1953 1.625-2.4023 1.625-2.3984 1.6211-2.3984 1.625-2.3945 1.625-2.3984 1.625-2.4023 3.25-4.7969 1.6211-2.4023 6.5-9.5938 1.6211-2.3984 4.875-7.1953 1.625-2.4023 1.6211-2.3984 8.125-11.992 1.6211-2.4023 6.5-9.5938 1.6211-2.4023 1.625-2.3945 1.625-2.3984 1.625-2.4023 3.25-4.7969 1.6211-2.3984 1.625-2.3984 1.625-2.4023 3.25-4.7969 1.6211-2.3984 4.875-7.1953 1.625-2.4023 1.6211-2.3984 3.25-4.7969 1.625-2.4023 1.625-2.3984 1.625-2.3945 1.6211-2.4023 6.5-9.5938 1.625-2.4023 1.6211-2.3984 1.625-2.3945 1.625-2.3984 1.625-2.4023 1.625-2.3984 1.6211-2.3984 1.625-2.4023 6.5-9.5938 1.6211-2.3984 4.875-7.1953 1.625-2.4023 1.6211-2.3984 1.625-2.3984 1.625-2.4023 3.25-4.7969 1.6211-2.3945 1.625-2.3984 1.625-2.4023 4.875-7.1953 1.6211-2.4023 6.5-9.5938 1.6211-2.3984 3.25-4.7969 1.625-2.4023 3.25-4.7969 1.6211-2.3984 6.5-9.5938 1.6211-2.4023 6.5-9.5938 1.6211-2.3984 1.625-2.4023 6.5-9.5938 1.6211-2.4023 8.125-11.992 1.6211-2.3984 1.625-2.4023 4.875-7.1953 1.6211-2.3984 4.875-7.1953 1.625-2.4023 1.625-2.3984 1.6211-2.3984 1.625-2.3984 1.625-2.4023 3.25-4.7969 1.6211-2.3945 1.625-2.3984 1.625-2.4023 3.25-4.7969 1.6211-2.3984 1.625-2.4023 6.5-9.5938 1.6211-2.3984 4.875-7.1953 1.625-2.4023 1.6211-2.3984 3.25-4.7969 1.625-2.4023 1.625-2.3945 1.625-2.4023 1.6211-2.3984 6.5-9.5938 1.6211-2.4023 6.5-9.5938 1.6211-2.3984 3.25-4.7969 1.625-2.4023 3.25-4.7969" fill="none" stroke="#000" stroke-miterlimit="10" stroke-width=".79701"/>
</g>
<g>
<use x="96.836" y="186.502" xlink:href="#ag"/>
<use x="103.204094" y="186.502" xlink:href="#af"/>
<use x="107.63247" y="186.502" xlink:href="#ae"/>
<use x="115.934304" y="186.502" xlink:href="#ad"/>
<use x="121.738515" y="186.502" xlink:href="#ac"/>
<use x="126.719815" y="186.502" xlink:href="#ab"/>
<use x="132.812" y="186.502" xlink:href="#aa"/>
<use x="136.409495" y="186.502" xlink:href="#z"/>
<use x="141.391" y="186.502" xlink:href="#ai"/>
<use x="149.692835" y="186.502" xlink:href="#ah"/>
<use x="152.460445" y="186.502" xlink:href="#an"/>
<use x="7.505" y="154.437" xlink:href="#y"/>
<use x="7.505" y="147.24201" xlink:href="#b"/>
<use x="7.505" y="142.26071" xlink:href="#e"/>
<use x="7.505" y="136.72549" xlink:href="#t"/>
<use x="7.505" y="132.297114" xlink:href="#s"/>
<use x="7.505" y="127.868738" xlink:href="#e"/>
<use x="7.505" y="122.612471" xlink:href="#r"/>
<use x="7.505" y="118.738015" xlink:href="#d"/>
<use x="7.505" y="114.835665" xlink:href="#c"/>
<use x="7.505" y="109.854365" xlink:href="#q"/>
<use x="7.505" y="105.425989" xlink:href="#x"/>
<use x="7.505" y="100.444689" xlink:href="#b"/>
<use x="7.505" y="92.145843" xlink:href="#w"/>
<use x="7.505" y="83.844009" xlink:href="#b"/>
<use x="7.505" y="78.862709" xlink:href="#v"/>
<use x="7.505" y="76.095099" xlink:href="#c"/>
<use x="7.505" y="71.113799" xlink:href="#d"/>
<use x="7.505" y="67.211448" xlink:href="#u"/>
<use x="7.505" y="61.121" xlink:href="#p"/>
<use x="7.505" y="58.303577" xlink:href="#o"/>
<use x="8.999" y="50.832" xlink:href="#j"/>
<use x="7.505" y="46.362" xlink:href="#n"/>
<use x="8.999" y="38.614" xlink:href="#i"/>
<use x="7.505" y="34.144" xlink:href="#m"/>
<use x="7.505" y="31.377" xlink:href="#h"/>
<use x="7.505" y="26.396" xlink:href="#l"/>
<use x="7.505" y="18.094165" xlink:href="#k"/>
</g>
</svg>
