<?xml version="1.0" encoding="UTF-8"?>
<svg width="232pt" height="213pt" version="1.1" viewBox="0 0 232 213" xmlns="http://www.w3.org/2000/svg" xmlns:xlink="http://www.w3.org/1999/xlink">
<defs>
<symbol id="a" overflow="visible">
<path d="m4.5781-3.1875c0-0.79688-0.046875-1.5938-0.39062-2.3281-0.45312-0.96875-1.2812-1.125-1.6875-1.125-0.60938 0-1.3281 0.26562-1.75 1.1875-0.3125 0.6875-0.35938 1.4688-0.35938 2.2656 0 0.75 0.03125 1.6406 0.45312 2.4062 0.42188 0.79688 1.1562 1 1.6406 1 0.53125 0 1.2969-0.20312 1.7344-1.1562 0.3125-0.6875 0.35938-1.4688 0.35938-2.25zm-0.8125-0.125c0 0.75 0 1.4219-0.10938 2.0625-0.15625 0.95312-0.71875 1.25-1.1719 1.25-0.39062 0-0.98438-0.25-1.1562-1.2031-0.10938-0.59375-0.10938-1.5156-0.10938-2.1094 0-0.64062 0-1.2969 0.078125-1.8281 0.1875-1.1875 0.9375-1.2812 1.1875-1.2812 0.32812 0 0.98438 0.1875 1.1719 1.1719 0.10938 0.5625 0.10938 1.3125 0.10938 1.9375z"/>
</symbol>
<symbol id="p" overflow="visible">
<path d="m4.4688-1.7344h-0.23438c-0.0625 0.29688-0.125 0.73438-0.23438 0.89062-0.0625 0.078125-0.71875 0.078125-0.9375 0.078125h-1.7969l1.0625-1.0312c1.5469-1.375 2.1406-1.9062 2.1406-2.9062 0-1.1406-0.89062-1.9375-2.1094-1.9375-1.125 0-1.8594 0.92188-1.8594 1.8125 0 0.54688 0.5 0.54688 0.53125 0.54688 0.17188 0 0.51562-0.10938 0.51562-0.53125 0-0.25-0.1875-0.51562-0.53125-0.51562-0.078125 0-0.09375 0-0.125 0.015625 0.21875-0.65625 0.76562-1.0156 1.3438-1.0156 0.90625 0 1.3281 0.8125 1.3281 1.625 0 0.79688-0.48438 1.5781-1.0469 2.2031l-1.9062 2.125c-0.10938 0.10938-0.10938 0.14062-0.10938 0.375h3.7031z"/>
</symbol>
<symbol id="o" overflow="visible">
<path d="m4.6875-1.6406v-0.3125h-0.98438v-4.5312c0-0.20312 0-0.26562-0.17188-0.26562-0.078125 0-0.10938 0-0.1875 0.125l-3.0625 4.6719v0.3125h2.6562v0.85938c0 0.35938-0.03125 0.46875-0.76562 0.46875h-0.20312v0.3125c0.40625-0.03125 0.92188-0.03125 1.3438-0.03125s0.9375 0 1.3594 0.03125v-0.3125h-0.21875c-0.73438 0-0.75-0.10938-0.75-0.46875v-0.85938zm-1.7031-0.3125h-2.4219l2.4219-3.7188z"/>
</symbol>
<symbol id="bi" overflow="visible">
<path d="m4.5625-2.0312c0-1.2656-0.89062-2.2188-2-2.2188-0.67188 0-1.0469 0.5-1.25 0.98438v-0.25c0-2.5156 1.2344-2.875 1.75-2.875 0.23438 0 0.65625 0.0625 0.875 0.40625-0.15625 0-0.54688 0-0.54688 0.4375 0 0.3125 0.23438 0.46875 0.45312 0.46875 0.15625 0 0.46875-0.09375 0.46875-0.48438 0-0.59375-0.4375-1.0781-1.2656-1.0781-1.2812 0-2.625 1.2812-2.625 3.4844 0 2.6719 1.1562 3.375 2.0781 3.375 1.1094 0 2.0625-0.9375 2.0625-2.25zm-0.90625-0.015625c0 0.48438 0 0.98438-0.17188 1.3438-0.29688 0.59375-0.75 0.64062-0.98438 0.64062-0.625 0-0.92188-0.59375-0.98438-0.75-0.1875-0.46875-0.1875-1.2656-0.1875-1.4375 0-0.78125 0.32812-1.7812 1.2188-1.7812 0.17188 0 0.625 0 0.9375 0.625 0.17188 0.35938 0.17188 0.875 0.17188 1.3594z"/>
</symbol>
<symbol id="bh" overflow="visible">
<path d="m4.5625-1.6719c0-0.35938-0.10938-0.8125-0.5-1.2344-0.1875-0.20312-0.34375-0.29688-0.98438-0.70312 0.71875-0.375 1.2031-0.89062 1.2031-1.5469 0-0.92188-0.875-1.4844-1.7812-1.4844-1 0-1.8125 0.73438-1.8125 1.6719 0 0.17188 0.015625 0.625 0.4375 1.0938 0.10938 0.10938 0.48438 0.35938 0.73438 0.53125-0.57812 0.29688-1.4375 0.84375-1.4375 1.8438 0 1.0469 1.0156 1.7188 2.0625 1.7188 1.125 0 2.0781-0.82812 2.0781-1.8906zm-0.71875-3.4844c0 0.57812-0.39062 1.0469-0.98438 1.3906l-1.2344-0.79688c-0.45312-0.29688-0.5-0.625-0.5-0.79688 0-0.60938 0.65625-1.0312 1.3594-1.0312 0.71875 0 1.3594 0.51562 1.3594 1.2344zm0.21875 3.8438c0 0.73438-0.75 1.25-1.5625 1.25-0.85938 0-1.5781-0.60938-1.5781-1.4375 0-0.57812 0.3125-1.2188 1.1562-1.6875l1.2344 0.78125c0.28125 0.1875 0.75 0.48438 0.75 1.0938z"/>
</symbol>
<symbol id="bg" overflow="visible">
<path d="m4.1719 0v-0.3125h-0.3125c-0.90625 0-0.92188-0.10938-0.92188-0.46875v-5.5938c0-0.25 0-0.26562-0.23438-0.26562-0.625 0.64062-1.5 0.64062-1.8125 0.64062v0.3125c0.20312 0 0.78125 0 1.2969-0.26562v5.1719c0 0.35938-0.03125 0.46875-0.92188 0.46875h-0.3125v0.3125c0.34375-0.03125 1.2031-0.03125 1.6094-0.03125 0.39062 0 1.2656 0 1.6094 0.03125z"/>
</symbol>
<symbol id="bf" overflow="visible">
<path d="m4.5625-1.7031c0-0.8125-0.64062-1.5938-1.6719-1.8125 0.8125-0.26562 1.3906-0.95312 1.3906-1.75 0-0.8125-0.875-1.375-1.8281-1.375-1 0-1.7656 0.59375-1.7656 1.3594 0 0.32812 0.21875 0.51562 0.51562 0.51562s0.5-0.21875 0.5-0.51562c0-0.48438-0.46875-0.48438-0.60938-0.48438 0.29688-0.5 0.95312-0.625 1.3125-0.625 0.42188 0 0.96875 0.21875 0.96875 1.1094 0 0.125-0.03125 0.70312-0.28125 1.1406-0.29688 0.48438-0.64062 0.51562-0.89062 0.51562-0.078125 0.015625-0.3125 0.03125-0.39062 0.03125-0.078125 0.015625-0.14062 0.03125-0.14062 0.125 0 0.10938 0.0625 0.10938 0.23438 0.10938h0.4375c0.8125 0 1.1875 0.67188 1.1875 1.6562 0 1.3594-0.6875 1.6406-1.125 1.6406s-1.1875-0.17188-1.5312-0.75c0.34375 0.046875 0.65625-0.17188 0.65625-0.54688 0-0.35938-0.26562-0.5625-0.54688-0.5625-0.25 0-0.5625 0.14062-0.5625 0.57812 0 0.90625 0.92188 1.5625 2.0156 1.5625 1.2188 0 2.125-0.90625 2.125-1.9219z"/>
</symbol>
<symbol id="be" overflow="visible">
<path d="m7.1875-3.4531c0-0.20312-0.1875-0.20312-0.32812-0.20312h-5.9688c-0.14062 0-0.32812 0-0.32812 0.20312 0 0.1875 0.1875 0.1875 0.32812 0.1875h5.9531c0.15625 0 0.34375 0 0.34375-0.1875zm0 1.9219c0-0.1875-0.1875-0.1875-0.34375-0.1875h-5.9531c-0.14062 0-0.32812 0-0.32812 0.1875 0 0.20312 0.1875 0.20312 0.32812 0.20312h5.9688c0.14062 0 0.32812 0 0.32812-0.20312z"/>
</symbol>
<symbol id="bd" overflow="visible">
<path d="m4.4688-2c0-1.1875-0.8125-2.1875-1.8906-2.1875-0.46875 0-0.90625 0.15625-1.2656 0.51562v-1.9531c0.20312 0.0625 0.53125 0.125 0.84375 0.125 1.2344 0 1.9375-0.90625 1.9375-1.0312 0-0.0625-0.03125-0.10938-0.10938-0.10938 0 0-0.03125 0-0.078125 0.03125-0.20312 0.09375-0.6875 0.29688-1.3594 0.29688-0.39062 0-0.85938-0.078125-1.3281-0.28125-0.078125-0.03125-0.10938-0.03125-0.10938-0.03125-0.10938 0-0.10938 0.078125-0.10938 0.23438v2.9531c0 0.17188 0 0.25 0.14062 0.25 0.078125 0 0.09375-0.015625 0.14062-0.078125 0.10938-0.15625 0.46875-0.70312 1.2812-0.70312 0.51562 0 0.76562 0.45312 0.84375 0.64062 0.15625 0.375 0.1875 0.75 0.1875 1.25 0 0.35938 0 0.95312-0.25 1.375-0.23438 0.39062-0.60938 0.64062-1.0625 0.64062-0.71875 0-1.2969-0.53125-1.4688-1.1094 0.03125 0 0.0625 0.015625 0.17188 0.015625 0.32812 0 0.5-0.25 0.5-0.48438 0-0.25-0.17188-0.5-0.5-0.5-0.14062 0-0.48438 0.078125-0.48438 0.53125 0 0.85938 0.6875 1.8281 1.7969 1.8281 1.1562 0 2.1719-0.95312 2.1719-2.2188z"/>
</symbol>
<symbol id="q" overflow="visible">
<path d="m8.1094 0v-0.3125c-0.51562 0-0.76562 0-0.78125-0.29688v-1.9062c0-0.85938 0-1.1562-0.3125-1.5156-0.14062-0.17188-0.46875-0.375-1.0469-0.375-0.82812 0-1.2812 0.59375-1.4375 0.98438-0.14062-0.875-0.875-0.98438-1.3281-0.98438-0.73438 0-1.2031 0.42188-1.4844 1.0469v-1.0469l-1.4062 0.10938v0.3125c0.70312 0 0.78125 0.0625 0.78125 0.5625v2.6719c0 0.4375-0.10938 0.4375-0.78125 0.4375v0.3125l1.1406-0.03125 1.1094 0.03125v-0.3125c-0.67188 0-0.78125 0-0.78125-0.4375v-1.8438c0-1.0312 0.71875-1.5938 1.3438-1.5938 0.64062 0 0.75 0.53125 0.75 1.1094v2.3281c0 0.4375-0.10938 0.4375-0.78125 0.4375v0.3125l1.125-0.03125 1.1094 0.03125v-0.3125c-0.65625 0-0.76562 0-0.76562-0.4375v-1.8438c0-1.0312 0.70312-1.5938 1.3438-1.5938 0.625 0 0.73438 0.53125 0.73438 1.1094v2.3281c0 0.4375-0.10938 0.4375-0.78125 0.4375v0.3125l1.125-0.03125z"/>
</symbol>
<symbol id="bp" overflow="visible">
<path d="m2.4688 0v-0.3125c-0.67188 0-0.70312-0.046875-0.70312-0.4375v-3.6562l-1.3906 0.10938v0.3125c0.64062 0 0.73438 0.0625 0.73438 0.54688v2.6875c0 0.4375-0.10938 0.4375-0.78125 0.4375v0.3125l1.0938-0.03125c0.35938 0 0.70312 0.015625 1.0469 0.03125zm-0.5625-6.0156c0-0.28125-0.21875-0.53125-0.51562-0.53125-0.34375 0-0.54688 0.28125-0.54688 0.53125 0 0.26562 0.23438 0.51562 0.53125 0.51562 0.34375 0 0.53125-0.26562 0.53125-0.51562z"/>
</symbol>
<symbol id="bo" overflow="visible">
<path d="m5.3281 0v-0.3125c-0.51562 0-0.76562 0-0.76562-0.29688v-1.9062c0-0.85938 0-1.1562-0.3125-1.5156-0.14062-0.17188-0.46875-0.375-1.0469-0.375-0.73438 0-1.2031 0.42188-1.4844 1.0469v-1.0469l-1.4062 0.10938v0.3125c0.70312 0 0.78125 0.0625 0.78125 0.5625v2.6719c0 0.4375-0.10938 0.4375-0.78125 0.4375v0.3125l1.1406-0.03125 1.1094 0.03125v-0.3125c-0.67188 0-0.78125 0-0.78125-0.4375v-1.8438c0-1.0312 0.71875-1.5938 1.3438-1.5938 0.64062 0 0.75 0.53125 0.75 1.1094v2.3281c0 0.4375-0.10938 0.4375-0.78125 0.4375v0.3125l1.125-0.03125z"/>
</symbol>
<symbol id="bn" overflow="visible">
<path d="m2.5469 2.5v-0.40625h-0.96875v-9.1719h0.96875v-0.40625h-1.375v9.9844z"/>
</symbol>
<symbol id="bm" overflow="visible">
<path d="m7.1406-6.5v-0.3125l-1.1719 0.03125-1.1562-0.03125v0.3125c1.0156 0 1.0156 0.46875 1.0156 0.73438v4.2656l-3.5156-5.1719c-0.09375-0.125-0.09375-0.14062-0.28125-0.14062h-1.7031v0.3125h0.29688c0.14062 0 0.34375 0.015625 0.48438 0.015625 0.23438 0.03125 0.25 0.046875 0.25 0.23438v5.2031c0 0.26562 0 0.73438-1.0312 0.73438v0.3125l1.1719-0.03125 1.1562 0.03125v-0.3125c-1.0156 0-1.0156-0.46875-1.0156-0.73438v-5.1875c0.046875 0.046875 0.046875 0.0625 0.09375 0.125l4.0625 5.9844c0.09375 0.10938 0.10938 0.125 0.17188 0.125 0.14062 0 0.14062-0.0625 0.14062-0.26562v-5.5c0-0.26562 0-0.73438 1.0312-0.73438z"/>
</symbol>
<symbol id="bl" overflow="visible">
<path d="m7.1875-3.375c0-2.0312-1.5-3.6562-3.3125-3.6562-1.7969 0-3.3125 1.5938-3.3125 3.6562 0 2.0469 1.5312 3.5938 3.3125 3.5938 1.8125 0 3.3125-1.5781 3.3125-3.5938zm-1.0312-0.14062c0 2.6406-1.3594 3.4688-2.2812 3.4688-0.95312 0-2.2969-0.875-2.2969-3.4688 0-2.5781 1.4688-3.2656 2.2969-3.2656 0.85938 0 2.2812 0.70312 2.2812 3.2656z"/>
</symbol>
<symbol id="bk" overflow="visible">
<path d="m1.5781 2.5v-9.9844h-1.3594v0.40625h0.96875v9.1719h-0.96875v0.40625z"/>
</symbol>
<symbol id="bj" overflow="visible">
<path d="m8.7656 0v-0.3125h-0.25c-0.76562 0-0.78125-0.10938-0.78125-0.46875v-5.25c0-0.35938 0.015625-0.46875 0.78125-0.46875h0.25v-0.3125h-1.6875c-0.26562 0-0.26562 0.015625-0.32812 0.1875l-2.1875 5.625-2.1562-5.5938c-0.09375-0.21875-0.125-0.21875-0.35938-0.21875h-1.6719v0.3125h0.23438c0.76562 0 0.78125 0.10938 0.78125 0.46875v4.9844c0 0.26562 0 0.73438-1.0156 0.73438v0.3125l1.1562-0.03125 1.1719 0.03125v-0.3125c-1.0312 0-1.0312-0.46875-1.0312-0.73438v-5.375h0.015625l2.4062 6.2031c0.046875 0.125 0.09375 0.21875 0.1875 0.21875 0.10938 0 0.14062-0.078125 0.1875-0.1875l2.4531-6.3125v5.7188c0 0.35938-0.015625 0.46875-0.78125 0.46875h-0.23438v0.3125c0.35938-0.03125 1.0469-0.03125 1.4375-0.03125 0.375 0 1.0469 0 1.4219 0.03125z"/>
</symbol>
<symbol id="n" overflow="visible">
<path d="m4.1406-1.1875c0-0.09375-0.10938-0.09375-0.14062-0.09375-0.078125 0-0.10938 0.03125-0.125 0.09375-0.28125 0.92188-0.9375 1.0469-1.2969 1.0469-0.53125 0-1.4062-0.42188-1.4062-2.0312 0-1.625 0.8125-2.0469 1.3438-2.0469 0.09375 0 0.71875 0.015625 1.0625 0.375-0.40625 0.03125-0.46875 0.32812-0.46875 0.45312 0 0.26562 0.1875 0.45312 0.45312 0.45312s0.46875-0.15625 0.46875-0.46875c0-0.67188-0.76562-1.0625-1.5312-1.0625-1.25 0-2.1562 1.0781-2.1562 2.3125 0 1.2812 0.98438 2.2656 2.1406 2.2656 1.3281 0 1.6562-1.2031 1.6562-1.2969z"/>
</symbol>
<symbol id="e" overflow="visible">
<path d="m4.6875-2.1406c0-1.2656-0.98438-2.3281-2.1875-2.3281-1.25 0-2.2188 1.0938-2.2188 2.3281 0 1.2969 1.0312 2.25 2.2031 2.25 1.2031 0 2.2031-0.98438 2.2031-2.25zm-0.8125-0.078125c0 0.35938 0 0.90625-0.21875 1.3438-0.23438 0.45312-0.67188 0.73438-1.1562 0.73438-0.4375 0-0.875-0.20312-1.1406-0.67188-0.25-0.4375-0.25-1.0469-0.25-1.4062 0-0.39062 0-0.92188 0.23438-1.3594 0.26562-0.45312 0.73438-0.67188 1.1406-0.67188 0.4375 0 0.85938 0.21875 1.125 0.65625 0.26562 0.42188 0.26562 1 0.26562 1.375z"/>
</symbol>
<symbol id="k" overflow="visible">
<path d="m4.1406-1.1875c0-0.09375-0.078125-0.125-0.14062-0.125-0.078125 0-0.10938 0.0625-0.125 0.14062-0.34375 1.0312-1.25 1.0312-1.3438 1.0312-0.5 0-0.89062-0.29688-1.125-0.67188-0.29688-0.46875-0.29688-1.125-0.29688-1.4844h2.7812c0.21875 0 0.25 0 0.25-0.21875 0-0.98438-0.54688-1.9531-1.7812-1.9531-1.1562 0-2.0781 1.0312-2.0781 2.2812 0 1.3281 1.0469 2.2969 2.1875 2.2969 1.2188 0 1.6719-1.1094 1.6719-1.2969zm-0.65625-1.3281h-2.375c0.0625-1.4844 0.90625-1.7344 1.25-1.7344 1.0156 0 1.125 1.3438 1.125 1.7344z"/>
</symbol>
<symbol id="ax" overflow="visible">
<path d="m3.5625-6.3281c0-0.375-0.375-0.70312-0.90625-0.70312-0.6875 0-1.5469 0.53125-1.5469 1.5938v1.1406h-0.78125v0.3125h0.78125v3.2344c0 0.4375-0.10938 0.4375-0.76562 0.4375v0.3125l1.125-0.03125c0.40625 0 0.875 0 1.2656 0.03125v-0.3125h-0.20312c-0.73438 0-0.75-0.10938-0.75-0.46875v-3.2031h1.125v-0.3125h-1.1562v-1.1562c0-0.875 0.46875-1.3594 0.90625-1.3594 0.03125 0 0.1875 0 0.32812 0.078125-0.10938 0.03125-0.29688 0.17188-0.29688 0.42188 0 0.21875 0.15625 0.42188 0.4375 0.42188s0.4375-0.20312 0.4375-0.4375z"/>
</symbol>
<symbol id="aw" overflow="visible">
<path d="m1.9062-0.53125c0-0.28125-0.23438-0.53125-0.51562-0.53125-0.29688 0-0.53125 0.25-0.53125 0.53125 0 0.29688 0.23438 0.53125 0.53125 0.53125 0.28125 0 0.51562-0.23438 0.51562-0.53125z"/>
</symbol>
<symbol id="d" overflow="visible">
<path d="m4.8125-0.89062v-0.5625h-0.25v0.5625c0 0.57812-0.25 0.64062-0.35938 0.64062-0.32812 0-0.35938-0.45312-0.35938-0.5v-1.9844c0-0.42188 0-0.8125-0.35938-1.1875-0.39062-0.39062-0.89062-0.54688-1.375-0.54688-0.8125 0-1.5 0.46875-1.5 1.125 0 0.29688 0.20312 0.46875 0.45312 0.46875 0.28125 0 0.46875-0.20312 0.46875-0.45312 0-0.125-0.0625-0.45312-0.51562-0.45312 0.26562-0.35938 0.76562-0.46875 1.0781-0.46875 0.48438 0 1.0625 0.39062 1.0625 1.2812v0.35938c-0.51562 0.03125-1.2188 0.0625-1.8438 0.35938-0.75 0.34375-1 0.85938-1 1.2969 0 0.8125 0.96875 1.0625 1.5938 1.0625 0.67188 0 1.125-0.40625 1.3125-0.85938 0.046875 0.39062 0.3125 0.8125 0.78125 0.8125 0.20312 0 0.8125-0.14062 0.8125-0.95312zm-1.6562-0.5c0 0.9375-0.71875 1.2812-1.1719 1.2812-0.48438 0-0.89062-0.34375-0.89062-0.84375 0-0.54688 0.40625-1.375 2.0625-1.4375z"/>
</symbol>
<symbol id="g" overflow="visible">
<path d="m5.3281 0v-0.3125c-0.51562 0-0.76562 0-0.76562-0.29688v-1.9062c0-0.85938 0-1.1562-0.3125-1.5156-0.14062-0.17188-0.46875-0.375-1.0469-0.375-0.73438 0-1.2031 0.42188-1.4844 1.0469v-1.0469l-1.4062 0.10938v0.3125c0.70312 0 0.78125 0.0625 0.78125 0.5625v2.6719c0 0.4375-0.10938 0.4375-0.78125 0.4375v0.3125l1.1406-0.03125 1.1094 0.03125v-0.3125c-0.67188 0-0.78125 0-0.78125-0.4375v-1.8438c0-1.0312 0.71875-1.5938 1.3438-1.5938 0.64062 0 0.75 0.53125 0.75 1.1094v2.3281c0 0.4375-0.10938 0.4375-0.78125 0.4375v0.3125l1.125-0.03125z"/>
</symbol>
<symbol id="av" overflow="visible">
<path d="m4.8281-4.0312c0-0.17188-0.10938-0.48438-0.5-0.48438-0.20312 0-0.64062 0.0625-1.0625 0.46875-0.42188-0.32812-0.82812-0.35938-1.0469-0.35938-0.9375 0-1.625 0.6875-1.625 1.4531 0 0.4375 0.21875 0.8125 0.46875 1.0312-0.125 0.14062-0.3125 0.46875-0.3125 0.82812 0 0.3125 0.14062 0.6875 0.45312 0.89062-0.60938 0.15625-0.92188 0.59375-0.92188 0.98438 0 0.71875 0.98438 1.2656 2.2031 1.2656 1.1719 0 2.2031-0.5 2.2031-1.2812 0-0.34375-0.125-0.85938-0.64062-1.1406-0.53125-0.26562-1.1094-0.26562-1.7188-0.26562-0.25 0-0.67188 0-0.75-0.015625-0.3125-0.046875-0.51562-0.34375-0.51562-0.67188 0-0.03125 0-0.26562 0.15625-0.46875 0.39062 0.28125 0.8125 0.3125 1 0.3125 0.92188 0 1.6094-0.6875 1.6094-1.4531 0-0.375-0.15625-0.73438-0.40625-0.96875 0.35938-0.34375 0.71875-0.39062 0.89062-0.39062 0 0 0.078125 0 0.10938 0.015625-0.10938 0.03125-0.17188 0.14062-0.17188 0.26562 0 0.17188 0.14062 0.28125 0.29688 0.28125 0.09375 0 0.28125-0.0625 0.28125-0.29688zm-1.75 1.0781c0 0.26562 0 0.59375-0.15625 0.84375-0.078125 0.10938-0.3125 0.39062-0.70312 0.39062-0.875 0-0.875-1-0.875-1.2188 0-0.26562 0.015625-0.59375 0.15625-0.84375 0.078125-0.10938 0.3125-0.39062 0.71875-0.39062 0.85938 0 0.85938 0.98438 0.85938 1.2188zm1.0938 3.7344c0 0.54688-0.70312 1.0469-1.6719 1.0469-1.0156 0-1.7031-0.51562-1.7031-1.0469 0-0.45312 0.375-0.82812 0.8125-0.84375h0.59375c0.85938 0 1.9688 0 1.9688 0.84375z"/>
</symbol>
<symbol id="au" overflow="visible">
<path d="m5.3281 0v-0.3125c-0.6875 0-0.76562-0.0625-0.76562-0.5625v-3.5312l-1.4688 0.10938v0.3125c0.6875 0 0.78125 0.0625 0.78125 0.5625v1.7656c0 0.875-0.48438 1.5469-1.2188 1.5469-0.82812 0-0.875-0.46875-0.875-0.98438v-3.3125l-1.4688 0.10938v0.3125c0.78125 0 0.78125 0.03125 0.78125 0.90625v1.5c0 0.78125 0 1.6875 1.5156 1.6875 0.5625 0 1-0.28125 1.2812-0.89062v0.89062z"/>
</symbol>
<symbol id="m" overflow="visible">
<path d="m2.5469 0v-0.3125c-0.67188 0-0.78125 0-0.78125-0.4375v-6.1719l-1.4375 0.10938v0.3125c0.70312 0 0.78125 0.0625 0.78125 0.5625v5.1875c0 0.4375-0.10938 0.4375-0.78125 0.4375v0.3125l1.1094-0.03125z"/>
</symbol>
<symbol id="h" overflow="visible">
<path d="m3.625-3.7969c0-0.3125-0.3125-0.60938-0.73438-0.60938-0.73438 0-1.0938 0.67188-1.2188 1.0938v-1.0938l-1.3906 0.10938v0.3125c0.70312 0 0.78125 0.0625 0.78125 0.5625v2.6719c0 0.4375-0.10938 0.4375-0.78125 0.4375v0.3125l1.1406-0.03125c0.39062 0 0.85938 0 1.2656 0.03125v-0.3125h-0.21875c-0.73438 0-0.75-0.10938-0.75-0.46875v-1.5312c0-0.98438 0.42188-1.875 1.1719-1.875 0.0625 0 0.09375 0 0.10938 0.015625-0.03125 0-0.23438 0.125-0.23438 0.39062s0.21875 0.42188 0.4375 0.42188c0.17188 0 0.42188-0.125 0.42188-0.4375z"/>
</symbol>
<symbol id="l" overflow="visible">
<path d="m2.0312-0.015625c0-0.625-0.25-1.0469-0.64062-1.0469-0.35938 0-0.53125 0.28125-0.53125 0.53125 0 0.26562 0.17188 0.53125 0.53125 0.53125 0.14062 0 0.28125-0.0625 0.39062-0.15625 0.015625 0.78125-0.25 1.3906-0.6875 1.8594-0.0625 0.0625-0.078125 0.078125-0.078125 0.10938 0 0.078125 0.046875 0.10938 0.09375 0.10938 0.125 0 0.92188-0.78125 0.92188-1.9375z"/>
</symbol>
<symbol id="bc" overflow="visible">
<path d="m6.625-2.3281c0-0.09375 0-0.17188-0.125-0.17188-0.10938 0-0.10938 0.0625-0.125 0.17188-0.078125 1.4219-1.1406 2.2344-2.2344 2.2344-0.60938 0-2.5625-0.32812-2.5625-3.3125 0-2.9688 1.9531-3.3125 2.5625-3.3125 1.0781 0 1.9688 0.90625 2.1719 2.3594 0.015625 0.14062 0.015625 0.17188 0.15625 0.17188 0.15625 0 0.15625-0.03125 0.15625-0.23438v-2.3594c0-0.17188 0-0.25-0.10938-0.25-0.03125 0-0.078125 0-0.15625 0.125l-0.5 0.73438c-0.35938-0.35938-0.875-0.85938-1.8281-0.85938-1.875 0-3.4688 1.5938-3.4688 3.625 0 2.0625 1.6094 3.625 3.4688 3.625 1.625 0 2.5938-1.3906 2.5938-2.5469z"/>
</symbol>
<symbol id="bb" overflow="visible">
<path d="m3.3125-1.2344v-0.5625h-0.25v0.54688c0 0.73438-0.29688 1.1094-0.67188 1.1094-0.67188 0-0.67188-0.90625-0.67188-1.0781v-2.7656h1.4375v-0.3125h-1.4375v-1.8281h-0.25c0 0.8125-0.29688 1.875-1.2812 1.9219v0.21875h0.84375v2.75c0 1.2188 0.9375 1.3438 1.2969 1.3438 0.70312 0 0.98438-0.70312 0.98438-1.3438z"/>
</symbol>
<symbol id="ba" overflow="visible">
<path d="m4.1406-1.1875c0-0.09375-0.10938-0.09375-0.14062-0.09375-0.078125 0-0.10938 0.03125-0.125 0.09375-0.28125 0.92188-0.9375 1.0469-1.2969 1.0469-0.53125 0-1.4062-0.42188-1.4062-2.0312 0-1.625 0.8125-2.0469 1.3438-2.0469 0.09375 0 0.71875 0.015625 1.0625 0.375-0.40625 0.03125-0.46875 0.32812-0.46875 0.45312 0 0.26562 0.1875 0.45312 0.45312 0.45312s0.46875-0.15625 0.46875-0.46875c0-0.67188-0.76562-1.0625-1.5312-1.0625-1.25 0-2.1562 1.0781-2.1562 2.3125 0 1.1719 0.8125 2.0938 1.8281 2.25v0.82812c0.375 0 0.76562 0.078125 0.76562 0.40625 0 0.40625-0.95312 0.40625-1.7031 0.40625h-0.125v0.26562h0.25c1.0781 0 2.4062 0 2.4062-0.67188 0-0.46875-0.53125-0.67188-1.0781-0.67188v-0.5625c1.1562-0.10938 1.4531-1.1875 1.4531-1.2812z"/>
</symbol>
<symbol id="az" overflow="visible">
<path d="m4.8125-0.89062v-0.5625h-0.25v0.5625c0 0.57812-0.25 0.64062-0.35938 0.64062-0.32812 0-0.35938-0.45312-0.35938-0.5v-1.9844c0-0.42188 0-0.8125-0.35938-1.1875-0.39062-0.39062-0.89062-0.54688-1.375-0.54688-0.8125 0-1.5 0.46875-1.5 1.125 0 0.29688 0.20312 0.46875 0.45312 0.46875 0.28125 0 0.46875-0.20312 0.46875-0.45312 0-0.125-0.0625-0.45312-0.51562-0.45312 0.26562-0.35938 0.76562-0.46875 1.0781-0.46875 0.48438 0 1.0625 0.39062 1.0625 1.2812v0.35938c-0.51562 0.03125-1.2188 0.0625-1.8438 0.35938-0.75 0.34375-1 0.85938-1 1.2969 0 0.8125 0.96875 1.0625 1.5938 1.0625 0.67188 0 1.125-0.40625 1.3125-0.85938 0.046875 0.39062 0.3125 0.8125 0.78125 0.8125 0.20312 0 0.8125-0.14062 0.8125-0.95312zm-1.6562-0.5c0 0.9375-0.71875 1.2812-1.1719 1.2812-0.48438 0-0.89062-0.34375-0.89062-0.84375 0-0.54688 0.40625-1.375 2.0625-1.4375zm1-4.9531-0.15625-0.14062s-0.375 0.46875-0.8125 0.46875c-0.23438 0-0.48438-0.14062-0.65625-0.25-0.26562-0.15625-0.45312-0.21875-0.625-0.21875-0.375 0-0.5625 0.21875-1.0625 0.76562l0.15625 0.15625s0.375-0.48438 0.8125-0.48438c0.23438 0 0.48438 0.15625 0.65625 0.25 0.26562 0.17188 0.4375 0.23438 0.60938 0.23438 0.375 0 0.57812-0.21875 1.0781-0.78125z"/>
</symbol>
<symbol id="ay" overflow="visible">
<path d="m8.1094 0v-0.3125c-0.51562 0-0.76562 0-0.78125-0.29688v-1.9062c0-0.85938 0-1.1562-0.3125-1.5156-0.14062-0.17188-0.46875-0.375-1.0469-0.375-0.82812 0-1.2812 0.59375-1.4375 0.98438-0.14062-0.875-0.875-0.98438-1.3281-0.98438-0.73438 0-1.2031 0.42188-1.4844 1.0469v-1.0469l-1.4062 0.10938v0.3125c0.70312 0 0.78125 0.0625 0.78125 0.5625v2.6719c0 0.4375-0.10938 0.4375-0.78125 0.4375v0.3125l1.1406-0.03125 1.1094 0.03125v-0.3125c-0.67188 0-0.78125 0-0.78125-0.4375v-1.8438c0-1.0312 0.71875-1.5938 1.3438-1.5938 0.64062 0 0.75 0.53125 0.75 1.1094v2.3281c0 0.4375-0.10938 0.4375-0.78125 0.4375v0.3125l1.125-0.03125 1.1094 0.03125v-0.3125c-0.65625 0-0.76562 0-0.76562-0.4375v-1.8438c0-1.0312 0.70312-1.5938 1.3438-1.5938 0.625 0 0.73438 0.53125 0.73438 1.1094v2.3281c0 0.4375-0.10938 0.4375-0.78125 0.4375v0.3125l1.125-0.03125z"/>
</symbol>
<symbol id="as" overflow="visible">
<path d="m4.8906-1.4219c0-0.10938-0.09375-0.10938-0.125-0.10938-0.09375 0-0.10938 0.046875-0.14062 0.1875-0.20312 0.71875-0.42188 1.2344-0.85938 1.2344-0.20312 0-0.32812-0.10938-0.32812-0.46875 0-0.17188 0.046875-0.40625 0.078125-0.5625 0.046875-0.17188 0.046875-0.20312 0.046875-0.3125 0-0.64062-0.625-0.92188-1.4844-1.0469 0.3125-0.17188 0.64062-0.48438 0.85938-0.73438 0.48438-0.53125 0.9375-0.95312 1.4219-0.95312 0.0625 0 0.078125 0 0.09375 0.015625 0.125 0.015625 0.125 0.015625 0.21875 0.078125 0.015625 0 0.015625 0.015625 0.03125 0.03125-0.46875 0.03125-0.5625 0.42188-0.5625 0.54688 0 0.15625 0.10938 0.34375 0.375 0.34375s0.54688-0.21875 0.54688-0.60938c0-0.29688-0.23438-0.625-0.67188-0.625-0.28125 0-0.73438 0.078125-1.4531 0.875-0.34375 0.375-0.73438 0.78125-1.1094 0.92188l1.0312-4.2031s0-0.10938-0.125-0.10938c-0.23438 0-0.95312 0.078125-1.2188 0.10938-0.078125 0-0.1875 0.015625-0.1875 0.1875 0 0.125 0.09375 0.125 0.23438 0.125 0.48438 0 0.5 0.0625 0.5 0.17188l-0.03125 0.20312-1.4375 5.7344c-0.046875 0.14062-0.046875 0.15625-0.046875 0.21875 0 0.23438 0.20312 0.28125 0.29688 0.28125 0.125 0 0.26562-0.09375 0.32812-0.20312 0.046875-0.09375 0.5-1.9375 0.5625-2.1875 0.34375 0.03125 1.1562 0.1875 1.1562 0.84375 0 0.078125 0 0.10938-0.03125 0.21875-0.015625 0.10938-0.03125 0.23438-0.03125 0.34375 0 0.57812 0.39062 0.98438 0.90625 0.98438 0.29688 0 0.57812-0.15625 0.79688-0.53125 0.25-0.4375 0.35938-1 0.35938-1z"/>
</symbol>
<symbol id="ar" overflow="visible">
<path d="m2.0312-0.015625c0-0.65625-0.25-1.0469-0.64062-1.0469-0.32812 0-0.53125 0.25-0.53125 0.53125 0 0.26562 0.20312 0.53125 0.53125 0.53125 0.10938 0 0.25-0.046875 0.34375-0.125 0.03125-0.03125 0.046875-0.03125 0.046875-0.03125s0.015625 0 0.015625 0.14062c0 0.75-0.34375 1.3438-0.67188 1.6719-0.10938 0.10938-0.10938 0.125-0.10938 0.15625 0 0.078125 0.046875 0.10938 0.09375 0.10938 0.10938 0 0.92188-0.76562 0.92188-1.9375z"/>
</symbol>
<symbol id="aq" overflow="visible">
<path d="m4.4219-7.2812c0-0.10938-0.078125-0.20312-0.1875-0.20312-0.078125 0-0.14062 0.03125-0.17188 0.09375l-3.4688 9.5c-0.046875 0.14062-0.046875 0.1875-0.046875 0.1875 0 0.10938 0.09375 0.20312 0.20312 0.20312 0.125 0 0.15625-0.078125 0.21875-0.25l3.4062-9.3438c0.046875-0.14062 0.046875-0.1875 0.046875-0.1875z"/>
</symbol>
<symbol id="ap" overflow="visible">
<path d="m5.4688-1.7344c0-0.1875-0.17188-0.1875-0.26562-0.1875h-4.1875c-0.10938 0-0.26562 0-0.26562 0.1875 0 0.15625 0.17188 0.15625 0.26562 0.15625h4.1875c0.09375 0 0.26562 0 0.26562-0.15625z"/>
</symbol>
<symbol id="ao" overflow="visible">
<path d="m3.2969 0v-0.25h-0.26562c-0.70312 0-0.70312-0.09375-0.70312-0.32812v-3.8594c0-0.1875 0-0.1875-0.20312-0.1875-0.45312 0.4375-1.0781 0.4375-1.3594 0.4375v0.25c0.15625 0 0.625 0 1-0.1875v3.5469c0 0.23438 0 0.32812-0.6875 0.32812h-0.26562v0.25l1.2344-0.03125z"/>
</symbol>
<symbol id="an" overflow="visible">
<path d="m3.5156-1.2656h-0.23438c-0.015625 0.15625-0.09375 0.5625-0.1875 0.625-0.046875 0.046875-0.57812 0.046875-0.6875 0.046875h-1.2812c0.73438-0.64062 0.98438-0.84375 1.3906-1.1719 0.51562-0.40625 1-0.84375 1-1.5 0-0.84375-0.73438-1.3594-1.625-1.3594-0.85938 0-1.4531 0.60938-1.4531 1.25 0 0.34375 0.29688 0.39062 0.375 0.39062 0.15625 0 0.35938-0.125 0.35938-0.375 0-0.125-0.046875-0.375-0.40625-0.375 0.21875-0.48438 0.6875-0.64062 1.0156-0.64062 0.70312 0 1.0625 0.54688 1.0625 1.1094 0 0.60938-0.4375 1.0781-0.65625 1.3281l-1.6719 1.6719c-0.078125 0.0625-0.078125 0.078125-0.078125 0.26562h2.875z"/>
</symbol>
<symbol id="am" overflow="visible">
<path d="m3.5156-1.4062c0-0.78125-0.59375-1.5-1.4531-1.5-0.3125 0-0.67188 0.0625-0.98438 0.32812v-1.3125c0.35938 0.09375 0.5625 0.09375 0.67188 0.09375 0.92188 0 1.4688-0.625 1.4688-0.73438 0-0.078125-0.046875-0.09375-0.078125-0.09375 0 0-0.03125 0-0.0625 0.015625-0.17188 0.0625-0.53125 0.20312-1.0469 0.20312-0.20312 0-0.5625-0.015625-1.0156-0.1875-0.078125-0.03125-0.09375-0.03125-0.09375-0.03125-0.09375 0-0.09375 0.078125-0.09375 0.1875v2.0469c0 0.125 0 0.20312 0.10938 0.20312 0.0625 0 0.078125 0 0.14062-0.09375 0.29688-0.375 0.73438-0.4375 0.96875-0.4375 0.42188 0 0.60938 0.32812 0.64062 0.39062 0.125 0.23438 0.17188 0.5 0.17188 0.90625 0 0.20312 0 0.60938-0.21875 0.92188-0.17188 0.25-0.46875 0.42188-0.8125 0.42188-0.45312 0-0.92188-0.25-1.0938-0.71875 0.26562 0.015625 0.40625-0.15625 0.40625-0.34375 0-0.29688-0.26562-0.34375-0.35938-0.34375 0 0-0.34375 0-0.34375 0.375 0 0.625 0.57812 1.25 1.4062 1.25 0.89062 0 1.6719-0.65625 1.6719-1.5469z"/>
</symbol>
<symbol id="al" overflow="visible">
<path d="m-6.5-7.2812h-0.3125c0.03125 0.3125 0.03125 0.71875 0.03125 0.96875l-0.03125 1.1406h0.3125c0.015625-0.51562 0.26562-0.73438 0.5-0.73438 0.078125 0 0.14062 0.03125 0.20312 0.046875l4.7969 1.8281-5.0312 1.9062c-0.14062 0.0625-0.17188 0.0625-0.17188 0.0625-0.29688 0-0.29688-0.5625-0.29688-0.8125h-0.3125c0.03125 0.35938 0.03125 1.0469 0.03125 1.4219l-0.03125 1.2656h0.3125c0-0.65625 0-0.84375 0.375-0.98438l6.125-2.3125c0.1875-0.0625 0.21875-0.10938 0.21875-0.25 0-0.15625-0.046875-0.1875-0.1875-0.23438l-5.8594-2.2188c-0.375-0.14062-0.65625-0.40625-0.67188-1.0938z"/>
</symbol>
<symbol id="c" overflow="visible">
<path d="m-1.1875-4.1406c-0.09375 0-0.125 0.078125-0.125 0.14062 0 0.078125 0.0625 0.10938 0.14062 0.125 1.0312 0.34375 1.0312 1.25 1.0312 1.3438 0 0.5-0.29688 0.89062-0.67188 1.125-0.46875 0.29688-1.125 0.29688-1.4844 0.29688v-2.7812c0-0.21875 0-0.25-0.21875-0.25-0.98438 0-1.9531 0.54688-1.9531 1.7812 0 1.1562 1.0312 2.0781 2.2812 2.0781 1.3281 0 2.2969-1.0469 2.2969-2.1875 0-1.2188-1.1094-1.6719-1.2969-1.6719zm-1.3281 0.65625v2.375c-1.4844-0.0625-1.7344-0.90625-1.7344-1.25 0-1.0156 1.3438-1.125 1.7344-1.125z"/>
</symbol>
<symbol id="ae" overflow="visible">
<path d="m0-2.5469h-0.3125c0 0.67188 0 0.78125-0.4375 0.78125h-6.1719l0.10938 1.4375h0.3125c0-0.70312 0.0625-0.78125 0.5625-0.78125h5.1875c0.4375 0 0.4375 0.10938 0.4375 0.78125h0.3125l-0.03125-1.1094z"/>
</symbol>
<symbol id="f" overflow="visible">
<path d="m-2.1406-4.6875c-1.2656 0-2.3281 0.98438-2.3281 2.1875 0 1.25 1.0938 2.2188 2.3281 2.2188 1.2969 0 2.25-1.0312 2.25-2.2031 0-1.2031-0.98438-2.2031-2.25-2.2031zm-0.078125 0.8125c0.35938 0 0.90625 0 1.3438 0.21875 0.45312 0.23438 0.73438 0.67188 0.73438 1.1562 0 0.4375-0.20312 0.875-0.67188 1.1406-0.4375 0.25-1.0469 0.25-1.4062 0.25-0.39062 0-0.92188 0-1.3594-0.23438-0.45312-0.26562-0.67188-0.73438-0.67188-1.1406 0-0.4375 0.21875-0.85938 0.65625-1.125 0.42188-0.26562 1-0.26562 1.375-0.26562z"/>
</symbol>
<symbol id="j" overflow="visible">
<path d="m-1.1875-4.1406c-0.09375 0-0.09375 0.10938-0.09375 0.14062 0 0.078125 0.03125 0.10938 0.09375 0.125 0.92188 0.28125 1.0469 0.9375 1.0469 1.2969 0 0.53125-0.42188 1.4062-2.0312 1.4062-1.625 0-2.0469-0.8125-2.0469-1.3438 0-0.09375 0.015625-0.71875 0.375-1.0625 0.03125 0.40625 0.32812 0.46875 0.45312 0.46875 0.26562 0 0.45312-0.1875 0.45312-0.45312s-0.15625-0.46875-0.46875-0.46875c-0.67188 0-1.0625 0.76562-1.0625 1.5312 0 1.25 1.0781 2.1562 2.3125 2.1562 1.2812 0 2.2656-0.98438 2.2656-2.1406 0-1.3281-1.2031-1.6562-1.2969-1.6562z"/>
</symbol>
<symbol id="ad" overflow="visible">
<path d="m0-2.4688h-0.3125c0 0.67188-0.046875 0.70312-0.4375 0.70312h-3.6562l0.10938 1.3906h0.3125c0-0.64062 0.0625-0.73438 0.54688-0.73438h2.6875c0.4375 0 0.4375 0.10938 0.4375 0.78125h0.3125l-0.03125-1.0938c0-0.35938 0.015625-0.70312 0.03125-1.0469zm-6.0156 0.5625c-0.28125 0-0.53125 0.21875-0.53125 0.51562 0 0.34375 0.28125 0.54688 0.53125 0.54688 0.26562 0 0.51562-0.23438 0.51562-0.53125 0-0.34375-0.26562-0.53125-0.51562-0.53125z"/>
</symbol>
<symbol id="b" overflow="visible">
<path d="m0-5.25h-0.3125c0 0.6875-0.0625 0.78125-0.5625 0.78125h-6.0469l0.10938 1.4219h0.3125c0-0.6875 0.0625-0.76562 0.5625-0.76562h2.1562c-0.35938 0.28125-0.625 0.71875-0.625 1.25 0 1.1719 0.98438 2.2188 2.2656 2.2188 1.2656 0 2.25-0.96875 2.25-2.1094 0-0.64062-0.34375-1.0781-0.65625-1.3281h0.65625zm-1.1719 1.4688c0.17188 0 0.1875 0 0.35938 0.10938 0.48438 0.29688 0.70312 0.73438 0.70312 1.1719 0 0.45312-0.26562 0.8125-0.64062 1.0469-0.40625 0.25-0.96875 0.28125-1.3906 0.28125-0.35938 0-0.95312-0.015625-1.4062-0.29688-0.3125-0.21875-0.64062-0.59375-0.64062-1.1406 0-0.34375 0.15625-0.76562 0.59375-1.0625 0.17188-0.10938 0.1875-0.10938 0.375-0.10938z"/>
</symbol>
<symbol id="ac" overflow="visible">
<path d="m-0.89062-4.8125h-0.5625v0.25h0.5625c0.57812 0 0.64062 0.25 0.64062 0.35938 0 0.32812-0.45312 0.35938-0.5 0.35938h-1.9844c-0.42188 0-0.8125 0-1.1875 0.35938-0.39062 0.39062-0.54688 0.89062-0.54688 1.375 0 0.8125 0.46875 1.5 1.125 1.5 0.29688 0 0.46875-0.20312 0.46875-0.45312 0-0.28125-0.20312-0.46875-0.45312-0.46875-0.125 0-0.45312 0.0625-0.45312 0.51562-0.35938-0.26562-0.46875-0.76562-0.46875-1.0781 0-0.48438 0.39062-1.0625 1.2812-1.0625h0.35938c0.03125 0.51562 0.0625 1.2188 0.35938 1.8438 0.34375 0.75 0.85938 1 1.2969 1 0.8125 0 1.0625-0.96875 1.0625-1.5938 0-0.67188-0.40625-1.125-0.85938-1.3125 0.39062-0.046875 0.8125-0.3125 0.8125-0.78125 0-0.20312-0.14062-0.8125-0.95312-0.8125zm-0.5 1.6562c0.9375 0 1.2812 0.71875 1.2812 1.1719 0 0.48438-0.34375 0.89062-0.84375 0.89062-0.54688 0-1.375-0.40625-1.4375-2.0625z"/>
</symbol>
<symbol id="ab" overflow="visible">
<path d="m0-5.3281h-0.3125c0 0.51562 0 0.76562-0.29688 0.76562h-1.9062c-0.85938 0-1.1562 0-1.5156 0.3125-0.17188 0.14062-0.375 0.46875-0.375 1.0469 0 0.73438 0.42188 1.2031 1.0469 1.4844h-1.0469l0.10938 1.4062h0.3125c0-0.70312 0.0625-0.78125 0.5625-0.78125h2.6719c0.4375 0 0.4375 0.10938 0.4375 0.78125h0.3125l-0.03125-1.1406 0.03125-1.1094h-0.3125c0 0.67188 0 0.78125-0.4375 0.78125h-1.8438c-1.0312 0-1.5938-0.71875-1.5938-1.3438 0-0.64062 0.53125-0.75 1.1094-0.75h2.3281c0.4375 0 0.4375 0.10938 0.4375 0.78125h0.3125l-0.03125-1.125z"/>
</symbol>
<symbol id="ak" overflow="visible">
<path d="m-1.2812-3.5938c-0.51562 0-0.82812 0.29688-0.9375 0.42188-0.32812 0.32812-0.40625 0.71875-0.48438 1.1406-0.10938 0.5625-0.23438 1.2188-0.8125 1.2188-0.35938 0-0.76562-0.25-0.76562-1.1094 0-1.0938 0.90625-1.1562 1.2031-1.1719 0.09375 0 0.09375-0.10938 0.09375-0.10938 0-0.14062-0.046875-0.14062-0.23438-0.14062h-1.0156c-0.15625 0-0.23438 0-0.23438 0.10938 0 0.046875 0 0.078125 0.125 0.20312 0.03125 0.03125 0.125 0.125 0.15625 0.17188-0.28125 0.375-0.28125 0.78125-0.28125 0.9375 0 1.2188 0.67188 1.5938 1.2344 1.5938 0.34375 0 0.625-0.15625 0.84375-0.42188 0.25-0.32812 0.3125-0.60938 0.45312-1.3281 0.046875-0.21875 0.20312-1.0312 0.92188-1.0312 0.5 0 0.90625 0.34375 0.90625 1.125 0 0.84375-0.5625 1.2031-1.4219 1.3906-0.125 0.03125-0.15625 0.03125-0.15625 0.14062 0 0.125 0.0625 0.125 0.23438 0.125h1.3281c0.17188 0 0.23438 0 0.23438-0.10938 0-0.046875-0.015625-0.0625-0.20312-0.25-0.015625-0.015625-0.03125-0.015625-0.21875-0.20312 0.40625-0.4375 0.42188-0.89062 0.42188-1.0938 0-1.1406-0.67188-1.6094-1.3906-1.6094z"/>
</symbol>
<symbol id="aj" overflow="visible">
<path d="m0-5.3281h-0.3125c0 0.6875-0.0625 0.76562-0.5625 0.76562h-3.5312l0.10938 1.4688h0.3125c0-0.6875 0.0625-0.78125 0.5625-0.78125h1.7656c0.875 0 1.5469 0.48438 1.5469 1.2188 0 0.82812-0.46875 0.875-0.98438 0.875h-3.3125l0.10938 1.4688h0.3125c0-0.78125 0.03125-0.78125 0.90625-0.78125h1.5c0.78125 0 1.6875 0 1.6875-1.5156 0-0.5625-0.28125-1-0.89062-1.2812h0.89062z"/>
</symbol>
<symbol id="ai" overflow="visible">
<path d="m0-8.1094h-0.3125c0 0.51562 0 0.76562-0.29688 0.78125h-1.9062c-0.85938 0-1.1562 0-1.5156 0.3125-0.17188 0.14062-0.375 0.46875-0.375 1.0469 0 0.82812 0.59375 1.2812 0.98438 1.4375-0.875 0.14062-0.98438 0.875-0.98438 1.3281 0 0.73438 0.42188 1.2031 1.0469 1.4844h-1.0469l0.10938 1.4062h0.3125c0-0.70312 0.0625-0.78125 0.5625-0.78125h2.6719c0.4375 0 0.4375 0.10938 0.4375 0.78125h0.3125l-0.03125-1.1406 0.03125-1.1094h-0.3125c0 0.67188 0 0.78125-0.4375 0.78125h-1.8438c-1.0312 0-1.5938-0.71875-1.5938-1.3438 0-0.64062 0.53125-0.75 1.1094-0.75h2.3281c0.4375 0 0.4375 0.10938 0.4375 0.78125h0.3125l-0.03125-1.125 0.03125-1.1094h-0.3125c0 0.65625 0 0.76562-0.4375 0.76562h-1.8438c-1.0312 0-1.5938-0.70312-1.5938-1.3438 0-0.625 0.53125-0.73438 1.1094-0.73438h2.3281c0.4375 0 0.4375 0.10938 0.4375 0.78125h0.3125l-0.03125-1.125z"/>
</symbol>
<symbol id="ah" overflow="visible">
<path d="m-6.5-7.1406h-0.3125l0.03125 1.1719-0.03125 1.1562h0.3125c0-1.0156 0.46875-1.0156 0.73438-1.0156h4.2656l-5.1719 3.5156c-0.125 0.09375-0.14062 0.09375-0.14062 0.28125v1.7031h0.3125v-0.29688c0-0.14062 0.015625-0.34375 0.015625-0.48438 0.03125-0.23438 0.046875-0.25 0.23438-0.25h5.2031c0.26562 0 0.73438 0 0.73438 1.0312h0.3125l-0.03125-1.1719 0.03125-1.1562h-0.3125c0 1.0156-0.46875 1.0156-0.73438 1.0156h-5.1875c0.046875-0.046875 0.0625-0.046875 0.125-0.09375l5.9844-4.0625c0.10938-0.09375 0.125-0.10938 0.125-0.17188 0-0.14062-0.0625-0.14062-0.26562-0.14062h-5.5c-0.26562 0-0.73438 0-0.73438-1.0312z"/>
</symbol>
<symbol id="ag" overflow="visible">
<path d="m-3.375-7.1875c-2.0312 0-3.6562 1.5-3.6562 3.3125 0 1.7969 1.5938 3.3125 3.6562 3.3125 2.0469 0 3.5938-1.5312 3.5938-3.3125 0-1.8125-1.5781-3.3125-3.5938-3.3125zm-0.14062 1.0312c2.6406 0 3.4688 1.3594 3.4688 2.2812 0 0.95312-0.875 2.2969-3.4688 2.2969-2.5781 0-3.2656-1.4688-3.2656-2.2969 0-0.85938 0.70312-2.2812 3.2656-2.2812z"/>
</symbol>
<symbol id="af" overflow="visible">
<path d="m-0.015625-2.0312c-0.625 0-1.0469 0.25-1.0469 0.64062 0 0.35938 0.28125 0.53125 0.53125 0.53125 0.26562 0 0.53125-0.17188 0.53125-0.53125 0-0.14062-0.0625-0.28125-0.15625-0.39062 0.78125-0.015625 1.3906 0.25 1.8594 0.6875 0.0625 0.0625 0.078125 0.078125 0.10938 0.078125 0.078125 0 0.10938-0.046875 0.10938-0.09375 0-0.125-0.78125-0.92188-1.9375-0.92188z"/>
</symbol>
<symbol id="aa" overflow="visible">
<path d="m-1.2656-3.5156v0.23438c0.15625 0.015625 0.5625 0.09375 0.625 0.1875 0.046875 0.046875 0.046875 0.57812 0.046875 0.6875v1.2812c-0.64062-0.73438-0.84375-0.98438-1.1719-1.3906-0.40625-0.51562-0.84375-1-1.5-1-0.84375 0-1.3594 0.73438-1.3594 1.625 0 0.85938 0.60938 1.4531 1.25 1.4531 0.34375 0 0.39062-0.29688 0.39062-0.375 0-0.15625-0.125-0.35938-0.375-0.35938-0.125 0-0.375 0.046875-0.375 0.40625-0.48438-0.21875-0.64062-0.6875-0.64062-1.0156 0-0.70312 0.54688-1.0625 1.1094-1.0625 0.60938 0 1.0781 0.4375 1.3281 0.65625l1.6719 1.6719c0.0625 0.078125 0.078125 0.078125 0.26562 0.078125v-2.875z"/>
</symbol>
<symbol id="z" overflow="visible">
<path d="m-1.4062-3.5156c-0.78125 0-1.5 0.59375-1.5 1.4531 0 0.3125 0.0625 0.67188 0.32812 0.98438h-1.3125c0.09375-0.35938 0.09375-0.5625 0.09375-0.67188 0-0.92188-0.625-1.4688-0.73438-1.4688-0.078125 0-0.09375 0.046875-0.09375 0.078125 0 0 0 0.03125 0.015625 0.0625 0.0625 0.17188 0.20312 0.53125 0.20312 1.0469 0 0.20312-0.015625 0.5625-0.1875 1.0156-0.03125 0.078125-0.03125 0.09375-0.03125 0.09375 0 0.09375 0.078125 0.09375 0.1875 0.09375h2.0469c0.125 0 0.20312 0 0.20312-0.10938 0-0.0625 0-0.078125-0.09375-0.14062-0.375-0.29688-0.4375-0.73438-0.4375-0.96875 0-0.42188 0.32812-0.60938 0.39062-0.64062 0.23438-0.125 0.5-0.17188 0.90625-0.17188 0.20312 0 0.60938 0 0.92188 0.21875 0.25 0.17188 0.42188 0.46875 0.42188 0.8125 0 0.45312-0.25 0.92188-0.71875 1.0938 0.015625-0.26562-0.15625-0.40625-0.34375-0.40625-0.29688 0-0.34375 0.26562-0.34375 0.35938 0 0 0 0.34375 0.375 0.34375 0.625 0 1.25-0.57812 1.25-1.4062 0-0.89062-0.65625-1.6719-1.5469-1.6719z"/>
</symbol>
<symbol id="y" overflow="visible">
<path d="m-3.7031-4.6719c-0.54688 0-0.70312 0.26562-0.70312 0.4375 0 0.25 0.26562 0.5 0.48438 0.5 0.125 0 0.1875-0.046875 0.29688-0.15625 0.20312-0.21875 0.45312-0.34375 0.8125-0.34375 0.42188 0 2.7031 0.60938 2.7031 1.7656 0 0.51562-0.34375 0.75-0.875 0.75-0.54688 0-1.2812-0.28125-2.1094-0.57812-0.17188-0.078125-0.3125-0.125-0.5-0.125-0.4375 0-0.8125 0.3125-0.8125 0.8125 0 0.9375 1.4531 1.3125 1.5312 1.3125 0.10938 0 0.10938-0.10938 0.10938-0.10938 0-0.10938-0.03125-0.10938-0.1875-0.15625-1-0.29688-1.2344-0.71875-1.2344-1.0156 0-0.078125 0-0.25 0.3125-0.25 0.25 0 0.53125 0.10938 0.70312 0.17188 1.1562 0.4375 1.6094 0.5625 2.0469 0.5625 1.0781 0 1.2344-0.875 1.2344-1.3281 0-1.6719-3.2969-2.25-3.8125-2.25z"/>
</symbol>
<symbol id="x" overflow="visible">
<path d="m-7.2812-4.4219c-0.10938 0-0.20312 0.078125-0.20312 0.1875 0 0.078125 0.03125 0.14062 0.09375 0.17188l9.5 3.4688c0.14062 0.046875 0.1875 0.046875 0.1875 0.046875 0.10938 0 0.20312-0.09375 0.20312-0.20312 0-0.125-0.078125-0.15625-0.25-0.21875l-9.3438-3.4062c-0.14062-0.046875-0.1875-0.046875-0.1875-0.046875z"/>
</symbol>
<symbol id="w" overflow="visible">
<path d="m2.3906-3.2969c-0.03125 0-0.046875 0-0.21875 0.17188-1.25 1.2344-3.1406 1.5625-4.6719 1.5625-1.7344 0-3.4688-0.375-4.7031-1.6094-0.125-0.125-0.14062-0.125-0.17188-0.125-0.078125 0-0.10938 0.03125-0.10938 0.09375 0 0.10938 0.6875 1 1.9531 1.5938 1.0938 0.5 2.2031 0.625 3.0312 0.625 0.78125 0 1.9844-0.10938 3.125-0.65625 1.2188-0.60938 1.875-1.4531 1.875-1.5625 0-0.0625-0.03125-0.09375-0.10938-0.09375z"/>
</symbol>
<symbol id="i" overflow="visible">
<path d="m0-8.1094h-0.3125c0 0.51562 0 0.76562-0.29688 0.78125h-1.9062c-0.85938 0-1.1562 0-1.5156 0.3125-0.17188 0.14062-0.375 0.46875-0.375 1.0469 0 0.82812 0.59375 1.2812 0.98438 1.4375-0.875 0.14062-0.98438 0.875-0.98438 1.3281 0 0.73438 0.42188 1.2031 1.0469 1.4844h-1.0469l0.10938 1.4062h0.3125c0-0.70312 0.0625-0.78125 0.5625-0.78125h2.6719c0.4375 0 0.4375 0.10938 0.4375 0.78125h0.3125l-0.03125-1.1406 0.03125-1.1094h-0.3125c0 0.67188 0 0.78125-0.4375 0.78125h-1.8438c-1.0312 0-1.5938-0.71875-1.5938-1.3438 0-0.64062 0.53125-0.75 1.1094-0.75h2.3281c0.4375 0 0.4375 0.10938 0.4375 0.78125h0.3125l-0.03125-1.125 0.03125-1.1094h-0.3125c0 0.65625 0 0.76562-0.4375 0.76562h-1.8438c-1.0312 0-1.5938-0.70312-1.5938-1.3438 0-0.625 0.53125-0.73438 1.1094-0.73438h2.3281c0.4375 0 0.4375 0.10938 0.4375 0.78125h0.3125l-0.03125-1.125z"/>
</symbol>
<symbol id="v" overflow="visible">
<path d="m0-8.7656h-0.3125v0.25c0 0.76562-0.10938 0.78125-0.46875 0.78125h-5.25c-0.35938 0-0.46875-0.015625-0.46875-0.78125v-0.25h-0.3125v1.6875c0 0.26562 0.015625 0.26562 0.1875 0.32812l5.625 2.1875-5.5938 2.1562c-0.21875 0.09375-0.21875 0.125-0.21875 0.35938v1.6719h0.3125v-0.23438c0-0.76562 0.10938-0.78125 0.46875-0.78125h4.9844c0.26562 0 0.73438 0 0.73438 1.0156h0.3125l-0.03125-1.1562 0.03125-1.1719h-0.3125c0 1.0312-0.46875 1.0312-0.73438 1.0312h-5.375v-0.015625l6.2031-2.4062c0.125-0.046875 0.21875-0.09375 0.21875-0.1875 0-0.10938-0.078125-0.14062-0.1875-0.1875l-6.3125-2.4531h5.7188c0.35938 0 0.46875 0.015625 0.46875 0.78125v0.23438h0.3125c-0.03125-0.35938-0.03125-1.0469-0.03125-1.4375 0-0.375 0-1.0469 0.03125-1.4219z"/>
</symbol>
<symbol id="u" overflow="visible">
<path d="m0-2.4688h-0.3125c0 0.67188-0.046875 0.70312-0.4375 0.70312h-3.6562l0.10938 1.3906h0.3125c0-0.64062 0.0625-0.73438 0.54688-0.73438h2.6875c0.4375 0 0.4375 0.10938 0.4375 0.78125h0.3125l-0.03125-1.0938c0-0.35938 0.015625-0.70312 0.03125-1.0469zm-6.0156 0.5625c-0.28125 0-0.53125 0.21875-0.53125 0.51562 0 0.34375 0.28125 0.54688 0.53125 0.54688 0.26562 0 0.51562-0.23438 0.51562-0.53125 0-0.34375-0.26562-0.53125-0.51562-0.53125z"/>
</symbol>
<symbol id="t" overflow="visible">
<path d="m0-5.3281h-0.3125c0 0.51562 0 0.76562-0.29688 0.76562h-1.9062c-0.85938 0-1.1562 0-1.5156 0.3125-0.17188 0.14062-0.375 0.46875-0.375 1.0469 0 0.73438 0.42188 1.2031 1.0469 1.4844h-1.0469l0.10938 1.4062h0.3125c0-0.70312 0.0625-0.78125 0.5625-0.78125h2.6719c0.4375 0 0.4375 0.10938 0.4375 0.78125h0.3125l-0.03125-1.1406 0.03125-1.1094h-0.3125c0 0.67188 0 0.78125-0.4375 0.78125h-1.8438c-1.0312 0-1.5938-0.71875-1.5938-1.3438 0-0.64062 0.53125-0.75 1.1094-0.75h2.3281c0.4375 0 0.4375 0.10938 0.4375 0.78125h0.3125l-0.03125-1.125z"/>
</symbol>
<symbol id="s" overflow="visible">
<path d="m-2.5-2.875c-0.76562 0-1.9688 0.10938-3.1094 0.65625-1.2188 0.59375-1.875 1.4531-1.875 1.5469 0 0.0625 0.046875 0.10938 0.10938 0.10938 0.03125 0 0.046875 0 0.23438-0.1875 0.98438-0.98438 2.5625-1.5469 4.6406-1.5469 1.7188 0 3.4688 0.35938 4.7188 1.5938 0.125 0.14062 0.14062 0.14062 0.17188 0.14062 0.0625 0 0.10938-0.046875 0.10938-0.10938 0-0.09375-0.6875-1-1.9531-1.5781-1.0938-0.51562-2.2031-0.625-3.0469-0.625z"/>
</symbol>
<symbol id="r" overflow="visible">
<path d="m-1.7344-5.4688c-0.1875 0-0.1875 0.17188-0.1875 0.26562v4.1875c0 0.10938 0 0.26562 0.1875 0.26562 0.15625 0 0.15625-0.17188 0.15625-0.26562v-4.1875c0-0.09375 0-0.26562-0.15625-0.26562z"/>
</symbol>
<symbol id="at" overflow="visible">
<path d="m0-3.2969h-0.25v0.26562c0 0.70312-0.09375 0.70312-0.32812 0.70312h-3.8594c-0.1875 0-0.1875 0-0.1875 0.20312 0.4375 0.45312 0.4375 1.0781 0.4375 1.3594h0.25c0-0.15625 0-0.625-0.1875-1h3.5469c0.23438 0 0.32812 0 0.32812 0.6875v0.26562h0.25l-0.03125-1.2344z"/>
</symbol>
<clipPath id="br">
<path d="m32.152 24.574h194.27v161.39h-194.27z"/>
</clipPath>
<clipPath id="bq">
<path d="m39 24.574h187.42v158.43h-187.42z"/>
</clipPath>
</defs>
<path transform="matrix(1,0,0,-1,32.151,185.97)" d="m0.0013438 0.00125v161.39m48.566-161.39v161.39m48.566-161.39v161.39m48.566-161.39v161.39m48.57-161.39v161.39" fill="none" stroke="#bfbfbf" stroke-miterlimit="10" stroke-width=".3985"/>
<path transform="matrix(1,0,0,-1,32.151,185.97)" d="m0.0013438 0.00125h194.27m-194.27 40.348h194.27m-194.27 40.348h194.27m-194.27 40.352h194.27m-194.27 40.348h194.27" fill="none" stroke="#bfbfbf" stroke-miterlimit="10" stroke-width=".3985"/>
<path transform="matrix(1,0,0,-1,32.151,185.97)" d="m0.0013438 0.00125v4.25m48.566-4.25v4.25m48.566-4.25v4.25m48.566-4.25v4.25m48.57-4.25v4.25m-194.27 157.14v-4.25m48.566 4.25v-4.25m48.566 4.25v-4.25m48.566 4.25v-4.25m48.57 4.25v-4.25" fill="none" stroke="#7f7f7f" stroke-miterlimit="10" stroke-width=".19925"/>
<path transform="matrix(1,0,0,-1,32.151,185.97)" d="m0.0013438 0.00125h4.25m-4.25 40.348h4.25m-4.25 40.348h4.25m-4.25 40.352h4.25m-4.25 40.348h4.25m190.02-161.39h-4.2539m4.2539 40.348h-4.2539m4.2539 40.348h-4.2539m4.2539 40.352h-4.2539m4.2539 40.348h-4.2539" fill="none" stroke="#7f7f7f" stroke-miterlimit="10" stroke-width=".19925"/>
<path transform="matrix(1,0,0,-1,32.151,185.97)" d="m0.0013438 0.00125v161.39h194.27v-161.39z" fill="none" stroke="#000" stroke-miterlimit="10" stroke-width=".3985"/>
<g>
<use x="29.66" y="195.764" xlink:href="#a"/>
<use x="75.736" y="195.764" xlink:href="#p"/>
<use x="80.7173" y="195.764" xlink:href="#a"/>
<use x="124.303" y="195.764" xlink:href="#o"/>
<use x="129.2843" y="195.764" xlink:href="#a"/>
<use x="172.87" y="195.764" xlink:href="#bi"/>
<use x="177.8513" y="195.764" xlink:href="#a"/>
<use x="221.436" y="195.764" xlink:href="#bh"/>
<use x="226.4173" y="195.764" xlink:href="#a"/>
<use x="23.65" y="189.107" xlink:href="#a"/>
<use x="18.669" y="148.758" xlink:href="#bg"/>
<use x="23.6503" y="148.758" xlink:href="#a"/>
<use x="18.669" y="108.41" xlink:href="#p"/>
<use x="23.6503" y="108.41" xlink:href="#a"/>
<use x="18.669" y="68.061" xlink:href="#bf"/>
<use x="23.6503" y="68.061" xlink:href="#a"/>
<use x="18.669" y="27.713" xlink:href="#o"/>
<use x="23.6503" y="27.713" xlink:href="#a"/>
</g>
<g clip-path="url(#br)">
<path transform="matrix(1,0,0,-1,32.151,185.97)" d="m0.0013438 0.00125 1.3008 1.082 1.3047 1.082 1.3047 1.0859 2.6094 2.1641 1.3008 1.082 1.3047 1.0859 2.6094 2.1641 1.3008 1.0859 2.6094 2.1641 1.3047 1.0859 1.3047 1.082 1.3008 1.082 1.3047 1.082 1.3047 1.0859 1.3047 1.082 1.3008 1.082 1.3047 1.0859 2.6094 2.1641 1.3047 1.0859 1.3008 1.082 2.6094 2.1641 1.3047 1.0859 1.3008 1.082 1.3047 1.082 1.3047 1.0859 2.6094 2.1641 1.3008 1.082 1.3047 1.0859 2.6094 2.1641 1.3008 1.0859 2.6094 2.1641 1.3047 1.0859 1.3047 1.082 1.3008 1.082 1.3047 1.082 1.3047 1.0859 1.3047 1.082 1.3008 1.082 1.3047 1.0859 3.9141 3.2461 1.3008 1.0859 2.6094 2.1641 1.3047 1.0859 1.3008 1.082 1.3047 1.082 1.3047 1.0859 2.6094 2.1641 1.3008 1.082 1.3047 1.0859 2.6094 2.1641 1.3008 1.0859 2.6094 2.1641 1.3047 1.0859 1.3047 1.082 1.3008 1.082 1.3047 1.082 1.3047 1.0859 1.3047 1.082 1.3008 1.082 1.3047 1.0859 2.6094 2.1641 1.3047 1.0859 1.3008 1.082 2.6094 2.1641 1.3047 1.0859 1.3008 1.082 1.3047 1.082 1.3047 1.0859 2.6094 2.1641 1.3008 1.0859 3.9141 3.2461 1.3008 1.0859 2.6094 2.1641 1.3047 1.0859 1.3047 1.082 1.3008 1.082 1.3047 1.0859 2.6094 2.1641 1.3008 1.082 1.3047 1.0859 2.6094 2.1641 1.3047 1.0859 1.3008 1.082 1.3047 1.082 1.3047 1.0859 1.3047 1.082 1.3008 1.082 1.3047 1.0859 3.9141 3.2461 1.3008 1.0859 3.9141 3.2461 1.3008 1.0859 2.6094 2.1641 1.3047 1.0859 1.3047 1.082 1.3008 1.082 1.3047 1.0859 2.6094 2.1641 1.3008 1.0859 3.9141 3.2461 1.3047 1.0859 1.3008 1.082 1.3047 1.082 1.3047 1.0859 1.3047 1.082 1.3008 1.082 1.3047 1.082 1.3047 1.0859 2.6094 2.1641 1.3008 1.0859 2.6094 2.1641 1.3047 1.0859 1.3008 1.082 2.6094 2.1641 1.3047 1.0859 1.3047 1.082" fill="none" stroke="#0c6dfd" stroke-miterlimit="10" stroke-width="1.1955"/>
</g>
<g clip-path="url(#bq)">
<path transform="matrix(1,0,0,-1,32.151,185.97)" d="m24.283 20.173 72.852 60.523 48.566 40.352 48.57 40.348" fill="none" stroke="#0c6dfd" stroke-miterlimit="10" stroke-width="1.1955"/>
</g>
<path transform="matrix(1,0,0,-1,32.151,185.97)" d="m26.603 132.78h130.32v16.887h-130.32z" fill="#fff" stroke="#000" stroke-miterlimit="10" stroke-width=".3985"/>
<g>
<use x="62.076" y="47.934" xlink:href="#n"/>
<use x="66.504376" y="47.934" xlink:href="#e"/>
<use x="71.764629" y="47.934" xlink:href="#k"/>
<use x="76.193004" y="47.934" xlink:href="#ax"/>
<use x="79.237575" y="47.934" xlink:href="#aw"/>
<use x="86.428579" y="47.934" xlink:href="#d"/>
<use x="91.409879" y="47.934" xlink:href="#g"/>
<use x="96.9451" y="47.934" xlink:href="#av"/>
<use x="101.9264" y="47.934" xlink:href="#au"/>
<use x="107.461621" y="47.934" xlink:href="#m"/>
<use x="110.229231" y="47.934" xlink:href="#d"/>
<use x="115.210531" y="47.934" xlink:href="#h"/>
<use x="119.112881" y="47.934" xlink:href="#l"/>
<use x="125.2" y="47.934" xlink:href="#as"/>
<use x="133.468" y="47.934" xlink:href="#be"/>
<use x="143.986513" y="47.934" xlink:href="#a"/>
<use x="148.965" y="47.934" xlink:href="#ar"/>
<use x="151.733" y="47.934" xlink:href="#bd"/>
<use x="158.378054" y="47.934" xlink:href="#q"/>
<use x="166.679889" y="47.934" xlink:href="#bp"/>
<use x="169.447499" y="47.934" xlink:href="#bo"/>
<use x="175.05" y="44.123" xlink:href="#ap"/>
<use x="181.277" y="44.123" xlink:href="#ao"/>
</g>
<path transform="matrix(1,0,0,-1,32.151,185.97)" d="m169.99 141.22h-12.867" fill="none" stroke="#7f7f7f" stroke-miterlimit="10" stroke-width=".19925"/>
<path transform="matrix(1,0,0,-1,32.151,185.97)" d="m26.275 20.173c0 1.1016-0.89062 1.9922-1.9922 1.9922-1.0977 0-1.9922-0.89062-1.9922-1.9922 0-1.0977 0.89453-1.9922 1.9922-1.9922 1.1016 0 1.9922 0.89453 1.9922 1.9922z" fill="#fff" stroke="#0c6dfd" stroke-miterlimit="10" stroke-width="1.1955"/>
<path transform="matrix(1,0,0,-1,32.151,185.97)" d="m50.56 40.349c0 1.1016-0.89062 1.9922-1.9922 1.9922-1.1016 0-1.9922-0.89062-1.9922-1.9922 0-1.1016 0.89062-1.9922 1.9922-1.9922 1.1016 0 1.9922 0.89062 1.9922 1.9922z" fill="#fff" stroke="#0c6dfd" stroke-miterlimit="10" stroke-width="1.1955"/>
<path transform="matrix(1,0,0,-1,32.151,185.97)" d="m99.126 80.697c0 1.1016-0.89062 1.9961-1.9922 1.9961-1.1016 0-1.9922-0.89453-1.9922-1.9961 0-1.0977 0.89062-1.9922 1.9922-1.9922 1.1016 0 1.9922 0.89453 1.9922 1.9922z" fill="#fff" stroke="#0c6dfd" stroke-miterlimit="10" stroke-width="1.1955"/>
<path transform="matrix(1,0,0,-1,32.151,185.97)" d="m147.69 121.05c0 1.1016-0.89062 1.9922-1.9922 1.9922-1.0977 0-1.9922-0.89062-1.9922-1.9922 0-1.1016 0.89453-1.9922 1.9922-1.9922 1.1016 0 1.9922 0.89062 1.9922 1.9922z" fill="#fff" stroke="#0c6dfd" stroke-miterlimit="10" stroke-width="1.1955"/>
<path transform="matrix(1,0,0,-1,32.151,185.97)" d="m196.26 161.4c0 1.1016-0.89453 1.9922-1.9922 1.9922-1.1016 0-1.9961-0.89062-1.9961-1.9922 0-1.1016 0.89453-1.9922 1.9961-1.9922 1.0977 0 1.9922 0.89062 1.9922 1.9922z" fill="#fff" stroke="#0c6dfd" stroke-miterlimit="10" stroke-width="1.1955"/>
<g>
<use x="56.546" y="210.076" xlink:href="#bc"/>
<use x="63.74099" y="210.076" xlink:href="#e"/>
<use x="68.72229" y="210.076" xlink:href="#g"/>
<use x="74.25751" y="210.076" xlink:href="#n"/>
<use x="78.685886" y="210.076" xlink:href="#k"/>
<use x="83.114262" y="210.076" xlink:href="#g"/>
<use x="88.370529" y="210.076" xlink:href="#bb"/>
<use x="92.244985" y="210.076" xlink:href="#h"/>
<use x="96.147335" y="210.076" xlink:href="#d"/>
<use x="101.128635" y="210.076" xlink:href="#ba"/>
<use x="105.557011" y="210.076" xlink:href="#az"/>
<use x="110.538311" y="210.076" xlink:href="#e"/>
<use x="118.837156" y="210.076" xlink:href="#ay"/>
<use x="127.138991" y="210.076" xlink:href="#e"/>
<use x="132.120291" y="210.076" xlink:href="#m"/>
<use x="134.887901" y="210.076" xlink:href="#d"/>
<use x="139.869201" y="210.076" xlink:href="#h"/>
<use x="143.771552" y="210.076" xlink:href="#l"/>
<use x="149.863" y="210.076" xlink:href="#bn"/>
<use x="152.680423" y="210.076" xlink:href="#bm"/>
<use x="160.152" y="211.57" xlink:href="#an"/>
<use x="164.621" y="210.076" xlink:href="#bl"/>
<use x="172.37" y="211.57" xlink:href="#am"/>
<use x="176.839" y="210.076" xlink:href="#bk"/>
<use x="179.607" y="210.076" xlink:href="#aq"/>
<use x="184.588" y="210.076" xlink:href="#q"/>
<use x="192.889835" y="210.076" xlink:href="#bj"/>
<use x="9.338" y="211.423" xlink:href="#al"/>
<use x="9.338" y="204.777946" xlink:href="#c"/>
<use x="9.338" y="200.34957" xlink:href="#ae"/>
<use x="9.338" y="197.58196" xlink:href="#f"/>
<use x="9.338" y="192.33167" xlink:href="#j"/>
<use x="9.338" y="187.903294" xlink:href="#ad"/>
<use x="9.338" y="185.135684" xlink:href="#b"/>
<use x="9.338" y="179.600463" xlink:href="#ac"/>
<use x="9.338" y="174.619163" xlink:href="#b"/>
<use x="9.338" y="169.083943" xlink:href="#c"/>
<use x="9.338" y="161.338021" xlink:href="#b"/>
<use x="9.338" y="155.8028" xlink:href="#c"/>
<use x="9.338" y="148.046916" xlink:href="#j"/>
<use x="9.338" y="143.618541" xlink:href="#f"/>
<use x="9.338" y="138.637241" xlink:href="#ab"/>
<use x="9.338" y="133.10202" xlink:href="#ak"/>
<use x="9.338" y="129.171774" xlink:href="#aj"/>
<use x="9.338" y="123.636554" xlink:href="#ai"/>
<use x="9.338" y="115.334719" xlink:href="#f"/>
<use x="9.338" y="107.035873" xlink:href="#b"/>
<use x="9.338" y="101.500653" xlink:href="#c"/>
<use x="9.338" y="93.754731" xlink:href="#ah"/>
<use x="10.833" y="86.282" xlink:href="#aa"/>
<use x="9.338" y="81.813" xlink:href="#ag"/>
<use x="10.833" y="74.064" xlink:href="#z"/>
<use x="9.338" y="69.594" xlink:href="#af"/>
<use x="9.338" y="63.506" xlink:href="#y"/>
<use x="9.338" y="58.318474" xlink:href="#x"/>
<use x="9.338" y="53.338" xlink:href="#w"/>
<use x="9.338" y="49.463545" xlink:href="#i"/>
<use x="9.338" y="41.16171" xlink:href="#v"/>
<use x="9.338" y="30.365241" xlink:href="#i"/>
<use x="9.338" y="22.063406" xlink:href="#u"/>
<use x="9.338" y="19.295796" xlink:href="#t"/>
<use x="5.528" y="13.693" xlink:href="#r"/>
<use x="5.528" y="7.466" xlink:href="#at"/>
<use x="9.338" y="2.997" xlink:href="#s"/>
</g>
</svg>
