<?xml version="1.0" encoding="UTF-8"?>
<svg width="232pt" height="193pt" version="1.1" viewBox="0 0 232 193" xmlns="http://www.w3.org/2000/svg" xmlns:xlink="http://www.w3.org/1999/xlink">
<defs>
<symbol id="a" overflow="visible">
<path d="m4.5781-3.1875c0-0.79688-0.046875-1.5938-0.39062-2.3281-0.45312-0.96875-1.2812-1.125-1.6875-1.125-0.60938 0-1.3281 0.26562-1.75 1.1875-0.3125 0.6875-0.35938 1.4688-0.35938 2.2656 0 0.75 0.03125 1.6406 0.45312 2.4062 0.42188 0.79688 1.1562 1 1.6406 1 0.53125 0 1.2969-0.20312 1.7344-1.1562 0.3125-0.6875 0.35938-1.4688 0.35938-2.25zm-0.8125-0.125c0 0.75 0 1.4219-0.10938 2.0625-0.15625 0.95312-0.71875 1.25-1.1719 1.25-0.39062 0-0.98438-0.25-1.1562-1.2031-0.10938-0.59375-0.10938-1.5156-0.10938-2.1094 0-0.64062 0-1.2969 0.078125-1.8281 0.1875-1.1875 0.9375-1.2812 1.1875-1.2812 0.32812 0 0.98438 0.1875 1.1719 1.1719 0.10938 0.5625 0.10938 1.3125 0.10938 1.9375z"/>
</symbol>
<symbol id="j" overflow="visible">
<path d="m4.1719 0v-0.3125h-0.3125c-0.90625 0-0.92188-0.10938-0.92188-0.46875v-5.5938c0-0.25 0-0.26562-0.23438-0.26562-0.625 0.64062-1.5 0.64062-1.8125 0.64062v0.3125c0.20312 0 0.78125 0 1.2969-0.26562v5.1719c0 0.35938-0.03125 0.46875-0.92188 0.46875h-0.3125v0.3125c0.34375-0.03125 1.2031-0.03125 1.6094-0.03125 0.39062 0 1.2656 0 1.6094 0.03125z"/>
</symbol>
<symbol id="i" overflow="visible">
<path d="m4.4688-1.7344h-0.23438c-0.0625 0.29688-0.125 0.73438-0.23438 0.89062-0.0625 0.078125-0.71875 0.078125-0.9375 0.078125h-1.7969l1.0625-1.0312c1.5469-1.375 2.1406-1.9062 2.1406-2.9062 0-1.1406-0.89062-1.9375-2.1094-1.9375-1.125 0-1.8594 0.92188-1.8594 1.8125 0 0.54688 0.5 0.54688 0.53125 0.54688 0.17188 0 0.51562-0.10938 0.51562-0.53125 0-0.25-0.1875-0.51562-0.53125-0.51562-0.078125 0-0.09375 0-0.125 0.015625 0.21875-0.65625 0.76562-1.0156 1.3438-1.0156 0.90625 0 1.3281 0.8125 1.3281 1.625 0 0.79688-0.48438 1.5781-1.0469 2.2031l-1.9062 2.125c-0.10938 0.10938-0.10938 0.14062-0.10938 0.375h3.7031z"/>
</symbol>
<symbol id="al" overflow="visible">
<path d="m4.5625-1.7031c0-0.8125-0.64062-1.5938-1.6719-1.8125 0.8125-0.26562 1.3906-0.95312 1.3906-1.75 0-0.8125-0.875-1.375-1.8281-1.375-1 0-1.7656 0.59375-1.7656 1.3594 0 0.32812 0.21875 0.51562 0.51562 0.51562s0.5-0.21875 0.5-0.51562c0-0.48438-0.46875-0.48438-0.60938-0.48438 0.29688-0.5 0.95312-0.625 1.3125-0.625 0.42188 0 0.96875 0.21875 0.96875 1.1094 0 0.125-0.03125 0.70312-0.28125 1.1406-0.29688 0.48438-0.64062 0.51562-0.89062 0.51562-0.078125 0.015625-0.3125 0.03125-0.39062 0.03125-0.078125 0.015625-0.14062 0.03125-0.14062 0.125 0 0.10938 0.0625 0.10938 0.23438 0.10938h0.4375c0.8125 0 1.1875 0.67188 1.1875 1.6562 0 1.3594-0.6875 1.6406-1.125 1.6406s-1.1875-0.17188-1.5312-0.75c0.34375 0.046875 0.65625-0.17188 0.65625-0.54688 0-0.35938-0.26562-0.5625-0.54688-0.5625-0.25 0-0.5625 0.14062-0.5625 0.57812 0 0.90625 0.92188 1.5625 2.0156 1.5625 1.2188 0 2.125-0.90625 2.125-1.9219z"/>
</symbol>
<symbol id="ak" overflow="visible">
<path d="m4.6875-1.6406v-0.3125h-0.98438v-4.5312c0-0.20312 0-0.26562-0.17188-0.26562-0.078125 0-0.10938 0-0.1875 0.125l-3.0625 4.6719v0.3125h2.6562v0.85938c0 0.35938-0.03125 0.46875-0.76562 0.46875h-0.20312v0.3125c0.40625-0.03125 0.92188-0.03125 1.3438-0.03125s0.9375 0 1.3594 0.03125v-0.3125h-0.21875c-0.73438 0-0.75-0.10938-0.75-0.46875v-0.85938zm-1.7031-0.3125h-2.4219l2.4219-3.7188z"/>
</symbol>
<symbol id="c" overflow="visible">
<path d="m4.4688-2c0-1.1875-0.8125-2.1875-1.8906-2.1875-0.46875 0-0.90625 0.15625-1.2656 0.51562v-1.9531c0.20312 0.0625 0.53125 0.125 0.84375 0.125 1.2344 0 1.9375-0.90625 1.9375-1.0312 0-0.0625-0.03125-0.10938-0.10938-0.10938 0 0-0.03125 0-0.078125 0.03125-0.20312 0.09375-0.6875 0.29688-1.3594 0.29688-0.39062 0-0.85938-0.078125-1.3281-0.28125-0.078125-0.03125-0.10938-0.03125-0.10938-0.03125-0.10938 0-0.10938 0.078125-0.10938 0.23438v2.9531c0 0.17188 0 0.25 0.14062 0.25 0.078125 0 0.09375-0.015625 0.14062-0.078125 0.10938-0.15625 0.46875-0.70312 1.2812-0.70312 0.51562 0 0.76562 0.45312 0.84375 0.64062 0.15625 0.375 0.1875 0.75 0.1875 1.25 0 0.35938 0 0.95312-0.25 1.375-0.23438 0.39062-0.60938 0.64062-1.0625 0.64062-0.71875 0-1.2969-0.53125-1.4688-1.1094 0.03125 0 0.0625 0.015625 0.17188 0.015625 0.32812 0 0.5-0.25 0.5-0.48438 0-0.25-0.17188-0.5-0.5-0.5-0.14062 0-0.48438 0.078125-0.48438 0.53125 0 0.85938 0.6875 1.8281 1.7969 1.8281 1.1562 0 2.1719-0.95312 2.1719-2.2188z"/>
</symbol>
<symbol id="aj" overflow="visible">
<path d="m4.8281-6.4219h-2.4219c-1.2031 0-1.2344-0.125-1.2656-0.3125h-0.25l-0.32812 2.0469h0.25c0.03125-0.15625 0.10938-0.78125 0.25-0.90625 0.0625-0.0625 0.84375-0.0625 0.96875-0.0625h2.0625l-1.1094 1.5781c-0.90625 1.3438-1.2344 2.7344-1.2344 3.75 0 0.09375 0 0.54688 0.46875 0.54688 0.45312 0 0.45312-0.45312 0.45312-0.54688v-0.51562c0-0.54688 0.03125-1.0938 0.10938-1.625 0.046875-0.23438 0.17188-1.0938 0.625-1.7031l1.3438-1.9062c0.078125-0.10938 0.078125-0.125 0.078125-0.34375z"/>
</symbol>
<symbol id="ai" overflow="visible">
<path d="m8.1094 0v-0.3125c-0.51562 0-0.76562 0-0.78125-0.29688v-1.9062c0-0.85938 0-1.1562-0.3125-1.5156-0.14062-0.17188-0.46875-0.375-1.0469-0.375-0.82812 0-1.2812 0.59375-1.4375 0.98438-0.14062-0.875-0.875-0.98438-1.3281-0.98438-0.73438 0-1.2031 0.42188-1.4844 1.0469v-1.0469l-1.4062 0.10938v0.3125c0.70312 0 0.78125 0.0625 0.78125 0.5625v2.6719c0 0.4375-0.10938 0.4375-0.78125 0.4375v0.3125l1.1406-0.03125 1.1094 0.03125v-0.3125c-0.67188 0-0.78125 0-0.78125-0.4375v-1.8438c0-1.0312 0.71875-1.5938 1.3438-1.5938 0.64062 0 0.75 0.53125 0.75 1.1094v2.3281c0 0.4375-0.10938 0.4375-0.78125 0.4375v0.3125l1.125-0.03125 1.1094 0.03125v-0.3125c-0.65625 0-0.76562 0-0.76562-0.4375v-1.8438c0-1.0312 0.70312-1.5938 1.3438-1.5938 0.625 0 0.73438 0.53125 0.73438 1.1094v2.3281c0 0.4375-0.10938 0.4375-0.78125 0.4375v0.3125l1.125-0.03125z"/>
</symbol>
<symbol id="ah" overflow="visible">
<path d="m2.4688 0v-0.3125c-0.67188 0-0.70312-0.046875-0.70312-0.4375v-3.6562l-1.3906 0.10938v0.3125c0.64062 0 0.73438 0.0625 0.73438 0.54688v2.6875c0 0.4375-0.10938 0.4375-0.78125 0.4375v0.3125l1.0938-0.03125c0.35938 0 0.70312 0.015625 1.0469 0.03125zm-0.5625-6.0156c0-0.28125-0.21875-0.53125-0.51562-0.53125-0.34375 0-0.54688 0.28125-0.54688 0.53125 0 0.26562 0.23438 0.51562 0.53125 0.51562 0.34375 0 0.53125-0.26562 0.53125-0.51562z"/>
</symbol>
<symbol id="am" overflow="visible">
<path d="m5.3281 0v-0.3125c-0.51562 0-0.76562 0-0.76562-0.29688v-1.9062c0-0.85938 0-1.1562-0.3125-1.5156-0.14062-0.17188-0.46875-0.375-1.0469-0.375-0.73438 0-1.2031 0.42188-1.4844 1.0469v-1.0469l-1.4062 0.10938v0.3125c0.70312 0 0.78125 0.0625 0.78125 0.5625v2.6719c0 0.4375-0.10938 0.4375-0.78125 0.4375v0.3125l1.1406-0.03125 1.1094 0.03125v-0.3125c-0.67188 0-0.78125 0-0.78125-0.4375v-1.8438c0-1.0312 0.71875-1.5938 1.3438-1.5938 0.64062 0 0.75 0.53125 0.75 1.1094v2.3281c0 0.4375-0.10938 0.4375-0.78125 0.4375v0.3125l1.125-0.03125z"/>
</symbol>
<symbol id="ag" overflow="visible">
<path d="m7.1875-0.20312c0-0.10938-0.09375-0.10938-0.23438-0.10938-0.60938 0-0.60938-0.0625-0.64062-0.35938l-0.60938-6.2188c-0.015625-0.20312-0.015625-0.25-0.1875-0.25-0.15625 0-0.20312 0.078125-0.26562 0.17188l-3.4688 5.8281c-0.39062 0.65625-0.78125 0.79688-1.2188 0.82812-0.125 0.015625-0.21875 0.015625-0.21875 0.20312 0 0.0625 0.0625 0.10938 0.14062 0.10938 0.26562 0 0.57812-0.03125 0.84375-0.03125 0.34375 0 0.6875 0.03125 1 0.03125 0.0625 0 0.1875 0 0.1875-0.1875 0-0.10938-0.078125-0.125-0.15625-0.125-0.21875-0.015625-0.46875-0.09375-0.46875-0.34375 0-0.125 0.0625-0.23438 0.14062-0.375 0.078125-0.10938 0.078125-0.10938 0.76562-1.2656h2.5c0.015625 0.20312 0.15625 1.5625 0.15625 1.6562 0 0.29688-0.51562 0.32812-0.71875 0.32812-0.14062 0-0.23438 0-0.23438 0.20312 0 0.10938 0.14062 0.10938 0.14062 0.10938 0.40625 0 0.82812-0.03125 1.2344-0.03125 0.25 0 0.89062 0.03125 1.1406 0.03125 0.046875 0 0.17188 0 0.17188-0.20312zm-1.9219-2.4062h-2.2812l1.9531-3.2969z"/>
</symbol>
<symbol id="af" overflow="visible">
<path d="m7-2.1562c0-0.71875-0.57812-1.2969-1.5469-1.4062 1.0312-0.1875 2.0781-0.92188 2.0781-1.875 0-0.73438-0.65625-1.375-1.8438-1.375h-3.3594c-0.1875 0-0.28125 0-0.28125 0.20312 0 0.10938 0.09375 0.10938 0.28125 0.10938 0 0 0.20312 0 0.375 0.015625 0.17188 0.03125 0.26562 0.03125 0.26562 0.17188 0 0.03125-0.015625 0.0625-0.03125 0.1875l-1.3438 5.3438c-0.09375 0.39062-0.125 0.46875-0.90625 0.46875-0.17188 0-0.26562 0-0.26562 0.20312 0 0.10938 0.09375 0.10938 0.26562 0.10938h3.5625c1.5781 0 2.75-1.1719 2.75-2.1562zm-0.375-3.3125c0 0.875-0.85938 1.8125-2.0625 1.8125h-1.4688l0.625-2.4688c0.09375-0.34375 0.10938-0.375 0.53125-0.375h1.2969c0.875 0 1.0781 0.59375 1.0781 1.0312zm-0.54688 3.2031c0 0.98438-0.89062 1.9531-2.0781 1.9531h-1.3438-0.21875c-0.10938-0.015625-0.14062-0.03125-0.14062-0.10938 0-0.03125 0-0.046875 0.0625-0.21875l0.6875-2.7812h1.875c0.95312 0 1.1562 0.73438 1.1562 1.1562z"/>
</symbol>
<symbol id="ae" overflow="visible">
<path d="m3.125-1.4219c0-0.10938-0.078125-0.10938-0.10938-0.10938-0.09375 0-0.10938 0.03125-0.15625 0.14062-0.42188 1.0469-0.95312 1.2812-1.2969 1.2812-0.20312 0-0.3125-0.125-0.3125-0.45312 0-0.25 0.03125-0.3125 0.0625-0.48438l0.73438-2.9375h0.9375c0.20312 0 0.3125 0 0.3125-0.20312 0-0.10938-0.10938-0.10938-0.28125-0.10938h-0.875c0.35938-1.4219 0.40625-1.6094 0.40625-1.6719 0-0.17188-0.125-0.26562-0.29688-0.26562-0.03125 0-0.3125 0-0.39062 0.35938l-0.39062 1.5781h-0.9375c-0.20312 0-0.29688 0-0.29688 0.1875 0 0.125 0.078125 0.125 0.28125 0.125h0.875c-0.71875 2.8281-0.76562 3-0.76562 3.1719 0 0.54688 0.375 0.92188 0.92188 0.92188 1.0156 0 1.5781-1.4531 1.5781-1.5312z"/>
</symbol>
<symbol id="ad" overflow="visible">
<path d="m4.4219-7.2812c0-0.10938-0.078125-0.20312-0.1875-0.20312-0.078125 0-0.14062 0.03125-0.17188 0.09375l-3.4688 9.5c-0.046875 0.14062-0.046875 0.1875-0.046875 0.1875 0 0.10938 0.09375 0.20312 0.20312 0.20312 0.125 0 0.15625-0.078125 0.21875-0.25l3.4062-9.3438c0.046875-0.14062 0.046875-0.1875 0.046875-0.1875z"/>
</symbol>
<symbol id="ac" overflow="visible">
<path d="m6.8281-4.5-0.1875-2.25h-6.0938l-0.1875 2.25h0.25c0.14062-1.6094 0.28125-1.9375 1.7969-1.9375 0.17188 0 0.4375 0 0.53125 0.015625 0.21875 0.046875 0.21875 0.15625 0.21875 0.375v5.2656c0 0.32812 0 0.46875-1.0469 0.46875h-0.40625v0.3125c0.40625-0.03125 1.4219-0.03125 1.8906-0.03125 0.45312 0 1.4844 0 1.8906 0.03125v-0.3125h-0.40625c-1.0469 0-1.0469-0.14062-1.0469-0.46875v-5.2656c0-0.1875 0-0.32812 0.1875-0.375 0.10938-0.015625 0.375-0.015625 0.5625-0.015625 1.5156 0 1.6562 0.32812 1.7969 1.9375z"/>
</symbol>
<symbol id="ab" overflow="visible">
<path d="m4.1406-1.1875c0-0.09375-0.078125-0.125-0.14062-0.125-0.078125 0-0.10938 0.0625-0.125 0.14062-0.34375 1.0312-1.25 1.0312-1.3438 1.0312-0.5 0-0.89062-0.29688-1.125-0.67188-0.29688-0.46875-0.29688-1.125-0.29688-1.4844h2.7812c0.21875 0 0.25 0 0.25-0.21875 0-0.98438-0.54688-1.9531-1.7812-1.9531-1.1562 0-2.0781 1.0312-2.0781 2.2812 0 1.3281 1.0469 2.2969 2.1875 2.2969 1.2188 0 1.6719-1.1094 1.6719-1.2969zm-0.65625-1.3281h-2.375c0.0625-1.4844 0.90625-1.7344 1.25-1.7344 1.0156 0 1.125 1.3438 1.125 1.7344z"/>
</symbol>
<symbol id="aa" overflow="visible">
<path d="m8.1094 0v-0.3125c-0.51562 0-0.76562 0-0.78125-0.29688v-1.9062c0-0.85938 0-1.1562-0.3125-1.5156-0.14062-0.17188-0.46875-0.375-1.0469-0.375-0.82812 0-1.2812 0.59375-1.4375 0.98438-0.14062-0.875-0.875-0.98438-1.3281-0.98438-0.73438 0-1.2031 0.42188-1.4844 1.0469v-1.0469l-1.4062 0.10938v0.3125c0.70312 0 0.78125 0.0625 0.78125 0.5625v2.6719c0 0.4375-0.10938 0.4375-0.78125 0.4375v0.3125l1.1406-0.03125 1.1094 0.03125v-0.3125c-0.67188 0-0.78125 0-0.78125-0.4375v-1.8438c0-1.0312 0.71875-1.5938 1.3438-1.5938 0.64062 0 0.75 0.53125 0.75 1.1094v2.3281c0 0.4375-0.10938 0.4375-0.78125 0.4375v0.3125l1.125-0.03125 1.1094 0.03125v-0.3125c-0.65625 0-0.76562 0-0.76562-0.4375v-1.8438c0-1.0312 0.70312-1.5938 1.3438-1.5938 0.625 0 0.73438 0.53125 0.73438 1.1094v2.3281c0 0.4375-0.10938 0.4375-0.78125 0.4375v0.3125l1.125-0.03125z"/>
</symbol>
<symbol id="z" overflow="visible">
<path d="m5.1875-2.1562c0-1.2656-0.95312-2.25-2.0781-2.25-0.78125 0-1.2031 0.4375-1.3906 0.65625v-0.65625l-1.4375 0.10938v0.3125c0.70312 0 0.78125 0.0625 0.78125 0.5v4.6562c0 0.45312-0.10938 0.45312-0.78125 0.45312v0.3125l1.1094-0.03125 1.125 0.03125v-0.3125c-0.65625 0-0.76562 0-0.76562-0.45312v-1.7656c0.046875 0.17188 0.46875 0.70312 1.2188 0.70312 1.1875 0 2.2188-0.98438 2.2188-2.2656zm-0.82812 0c0 1.2031-0.6875 2.0469-1.4219 2.0469-0.40625 0-0.78125-0.20312-1.0469-0.60938-0.14062-0.20312-0.14062-0.21875-0.14062-0.42188v-2.2188c0.28125-0.51562 0.76562-0.79688 1.2812-0.79688 0.73438 0 1.3281 0.875 1.3281 2z"/>
</symbol>
<symbol id="y" overflow="visible">
<path d="m4.6875-2.1406c0-1.2656-0.98438-2.3281-2.1875-2.3281-1.25 0-2.2188 1.0938-2.2188 2.3281 0 1.2969 1.0312 2.25 2.2031 2.25 1.2031 0 2.2031-0.98438 2.2031-2.25zm-0.8125-0.078125c0 0.35938 0 0.90625-0.21875 1.3438-0.23438 0.45312-0.67188 0.73438-1.1562 0.73438-0.4375 0-0.875-0.20312-1.1406-0.67188-0.25-0.4375-0.25-1.0469-0.25-1.4062 0-0.39062 0-0.92188 0.23438-1.3594 0.26562-0.45312 0.73438-0.67188 1.1406-0.67188 0.4375 0 0.85938 0.21875 1.125 0.65625 0.26562 0.42188 0.26562 1 0.26562 1.375z"/>
</symbol>
<symbol id="x" overflow="visible">
<path d="m2.0312-0.015625c0-0.625-0.25-1.0469-0.64062-1.0469-0.35938 0-0.53125 0.28125-0.53125 0.53125 0 0.26562 0.17188 0.53125 0.53125 0.53125 0.14062 0 0.28125-0.0625 0.39062-0.15625 0.015625 0.78125-0.25 1.3906-0.6875 1.8594-0.0625 0.0625-0.078125 0.078125-0.078125 0.10938 0 0.078125 0.046875 0.10938 0.09375 0.10938 0.125 0 0.92188-0.78125 0.92188-1.9375z"/>
</symbol>
<symbol id="w" overflow="visible">
<path d="m-2.3281-6.625c-0.09375 0-0.17188 0-0.17188 0.125 0 0.10938 0.0625 0.10938 0.17188 0.125 1.4219 0.078125 2.2344 1.1406 2.2344 2.2344 0 0.60938-0.32812 2.5625-3.3125 2.5625-2.9688 0-3.3125-1.9531-3.3125-2.5625 0-1.0781 0.90625-1.9688 2.3594-2.1719 0.14062-0.015625 0.17188-0.015625 0.17188-0.15625 0-0.15625-0.03125-0.15625-0.23438-0.15625h-2.3594c-0.17188 0-0.25 0-0.25 0.10938 0 0.03125 0 0.078125 0.125 0.15625l0.73438 0.5c-0.35938 0.35938-0.85938 0.875-0.85938 1.8281 0 1.875 1.5938 3.4688 3.625 3.4688 2.0625 0 3.625-1.6094 3.625-3.4688 0-1.625-1.3906-2.5938-2.5469-2.5938z"/>
</symbol>
<symbol id="e" overflow="visible">
<path d="m-2.1406-4.6875c-1.2656 0-2.3281 0.98438-2.3281 2.1875 0 1.25 1.0938 2.2188 2.3281 2.2188 1.2969 0 2.25-1.0312 2.25-2.2031 0-1.2031-0.98438-2.2031-2.25-2.2031zm-0.078125 0.8125c0.35938 0 0.90625 0 1.3438 0.21875 0.45312 0.23438 0.73438 0.67188 0.73438 1.1562 0 0.4375-0.20312 0.875-0.67188 1.1406-0.4375 0.25-1.0469 0.25-1.4062 0.25-0.39062 0-0.92188 0-1.3594-0.23438-0.45312-0.26562-0.67188-0.73438-0.67188-1.1406 0-0.4375 0.21875-0.85938 0.65625-1.125 0.42188-0.26562 1-0.26562 1.375-0.26562z"/>
</symbol>
<symbol id="d" overflow="visible">
<path d="m0-5.3281h-0.3125c0 0.51562 0 0.76562-0.29688 0.76562h-1.9062c-0.85938 0-1.1562 0-1.5156 0.3125-0.17188 0.14062-0.375 0.46875-0.375 1.0469 0 0.73438 0.42188 1.2031 1.0469 1.4844h-1.0469l0.10938 1.4062h0.3125c0-0.70312 0.0625-0.78125 0.5625-0.78125h2.6719c0.4375 0 0.4375 0.10938 0.4375 0.78125h0.3125l-0.03125-1.1406 0.03125-1.1094h-0.3125c0 0.67188 0 0.78125-0.4375 0.78125h-1.8438c-1.0312 0-1.5938-0.71875-1.5938-1.3438 0-0.64062 0.53125-0.75 1.1094-0.75h2.3281c0.4375 0 0.4375 0.10938 0.4375 0.78125h0.3125l-0.03125-1.125z"/>
</symbol>
<symbol id="r" overflow="visible">
<path d="m-1.1875-4.1406c-0.09375 0-0.09375 0.10938-0.09375 0.14062 0 0.078125 0.03125 0.10938 0.09375 0.125 0.92188 0.28125 1.0469 0.9375 1.0469 1.2969 0 0.53125-0.42188 1.4062-2.0312 1.4062-1.625 0-2.0469-0.8125-2.0469-1.3438 0-0.09375 0.015625-0.71875 0.375-1.0625 0.03125 0.40625 0.32812 0.46875 0.45312 0.46875 0.26562 0 0.45312-0.1875 0.45312-0.45312s-0.15625-0.46875-0.46875-0.46875c-0.67188 0-1.0625 0.76562-1.0625 1.5312 0 1.25 1.0781 2.1562 2.3125 2.1562 1.2812 0 2.2656-0.98438 2.2656-2.1406 0-1.3281-1.2031-1.6562-1.2969-1.6562z"/>
</symbol>
<symbol id="b" overflow="visible">
<path d="m-1.1875-4.1406c-0.09375 0-0.125 0.078125-0.125 0.14062 0 0.078125 0.0625 0.10938 0.14062 0.125 1.0312 0.34375 1.0312 1.25 1.0312 1.3438 0 0.5-0.29688 0.89062-0.67188 1.125-0.46875 0.29688-1.125 0.29688-1.4844 0.29688v-2.7812c0-0.21875 0-0.25-0.21875-0.25-0.98438 0-1.9531 0.54688-1.9531 1.7812 0 1.1562 1.0312 2.0781 2.2812 2.0781 1.3281 0 2.2969-1.0469 2.2969-2.1875 0-1.2188-1.1094-1.6719-1.2969-1.6719zm-1.3281 0.65625v2.375c-1.4844-0.0625-1.7344-0.90625-1.7344-1.25 0-1.0156 1.3438-1.125 1.7344-1.125z"/>
</symbol>
<symbol id="h" overflow="visible">
<path d="m-1.2344-3.3125h-0.5625v0.25h0.54688c0.73438 0 1.1094 0.29688 1.1094 0.67188 0 0.67188-0.90625 0.67188-1.0781 0.67188h-2.7656v-1.4375h-0.3125v1.4375h-1.8281v0.25c0.8125 0 1.875 0.29688 1.9219 1.2812h0.21875v-0.84375h2.75c1.2188 0 1.3438-0.9375 1.3438-1.2969 0-0.70312-0.70312-0.98438-1.3438-0.98438z"/>
</symbol>
<symbol id="g" overflow="visible">
<path d="m-3.7969-3.625c-0.3125 0-0.60938 0.3125-0.60938 0.73438 0 0.73438 0.67188 1.0938 1.0938 1.2188h-1.0938l0.10938 1.3906h0.3125c0-0.70312 0.0625-0.78125 0.5625-0.78125h2.6719c0.4375 0 0.4375 0.10938 0.4375 0.78125h0.3125l-0.03125-1.1406c0-0.39062 0-0.85938 0.03125-1.2656h-0.3125v0.21875c0 0.73438-0.10938 0.75-0.46875 0.75h-1.5312c-0.98438 0-1.875-0.42188-1.875-1.1719 0-0.0625 0-0.09375 0.015625-0.10938 0 0.03125 0.125 0.23438 0.39062 0.23438s0.42188-0.21875 0.42188-0.4375c0-0.17188-0.125-0.42188-0.4375-0.42188z"/>
</symbol>
<symbol id="f" overflow="visible">
<path d="m-0.89062-4.8125h-0.5625v0.25h0.5625c0.57812 0 0.64062 0.25 0.64062 0.35938 0 0.32812-0.45312 0.35938-0.5 0.35938h-1.9844c-0.42188 0-0.8125 0-1.1875 0.35938-0.39062 0.39062-0.54688 0.89062-0.54688 1.375 0 0.8125 0.46875 1.5 1.125 1.5 0.29688 0 0.46875-0.20312 0.46875-0.45312 0-0.28125-0.20312-0.46875-0.45312-0.46875-0.125 0-0.45312 0.0625-0.45312 0.51562-0.35938-0.26562-0.46875-0.76562-0.46875-1.0781 0-0.48438 0.39062-1.0625 1.2812-1.0625h0.35938c0.03125 0.51562 0.0625 1.2188 0.35938 1.8438 0.34375 0.75 0.85938 1 1.2969 1 0.8125 0 1.0625-0.96875 1.0625-1.5938 0-0.67188-0.40625-1.125-0.85938-1.3125 0.39062-0.046875 0.8125-0.3125 0.8125-0.78125 0-0.20312-0.14062-0.8125-0.95312-0.8125zm-0.5 1.6562c0.9375 0 1.2812 0.71875 1.2812 1.1719 0 0.48438-0.34375 0.89062-0.84375 0.89062-0.54688 0-1.375-0.40625-1.4375-2.0625z"/>
</symbol>
<symbol id="q" overflow="visible">
<path d="m-1.1875-4.1406c-0.09375 0-0.09375 0.10938-0.09375 0.14062 0 0.078125 0.03125 0.10938 0.09375 0.125 0.92188 0.28125 1.0469 0.9375 1.0469 1.2969 0 0.53125-0.42188 1.4062-2.0312 1.4062-1.625 0-2.0469-0.8125-2.0469-1.3438 0-0.09375 0.015625-0.71875 0.375-1.0625 0.03125 0.40625 0.32812 0.46875 0.45312 0.46875 0.26562 0 0.45312-0.1875 0.45312-0.45312s-0.15625-0.46875-0.46875-0.46875c-0.67188 0-1.0625 0.76562-1.0625 1.5312 0 1.25 1.0781 2.1562 2.3125 2.1562 1.1719 0 2.0938-0.8125 2.25-1.8281h0.82812c0-0.375 0.078125-0.76562 0.40625-0.76562 0.40625 0 0.40625 0.95312 0.40625 1.7031v0.125h0.26562v-0.25c0-1.0781 0-2.4062-0.67188-2.4062-0.46875 0-0.67188 0.53125-0.67188 1.0781h-0.5625c-0.10938-1.1562-1.1875-1.4531-1.2812-1.4531z"/>
</symbol>
<symbol id="v" overflow="visible">
<path d="m-0.89062-4.8125h-0.5625v0.25h0.5625c0.57812 0 0.64062 0.25 0.64062 0.35938 0 0.32812-0.45312 0.35938-0.5 0.35938h-1.9844c-0.42188 0-0.8125 0-1.1875 0.35938-0.39062 0.39062-0.54688 0.89062-0.54688 1.375 0 0.8125 0.46875 1.5 1.125 1.5 0.29688 0 0.46875-0.20312 0.46875-0.45312 0-0.28125-0.20312-0.46875-0.45312-0.46875-0.125 0-0.45312 0.0625-0.45312 0.51562-0.35938-0.26562-0.46875-0.76562-0.46875-1.0781 0-0.48438 0.39062-1.0625 1.2812-1.0625h0.35938c0.03125 0.51562 0.0625 1.2188 0.35938 1.8438 0.34375 0.75 0.85938 1 1.2969 1 0.8125 0 1.0625-0.96875 1.0625-1.5938 0-0.67188-0.40625-1.125-0.85938-1.3125 0.39062-0.046875 0.8125-0.3125 0.8125-0.78125 0-0.20312-0.14062-0.8125-0.95312-0.8125zm-0.5 1.6562c0.9375 0 1.2812 0.71875 1.2812 1.1719 0 0.48438-0.34375 0.89062-0.84375 0.89062-0.54688 0-1.375-0.40625-1.4375-2.0625zm-4.9531-1-0.14062 0.15625s0.46875 0.375 0.46875 0.8125c0 0.23438-0.14062 0.48438-0.25 0.65625-0.15625 0.26562-0.21875 0.45312-0.21875 0.625 0 0.375 0.21875 0.5625 0.76562 1.0625l0.15625-0.15625s-0.48438-0.375-0.48438-0.8125c0-0.23438 0.15625-0.48438 0.25-0.65625 0.17188-0.26562 0.23438-0.4375 0.23438-0.60938 0-0.375-0.21875-0.57812-0.78125-1.0781z"/>
</symbol>
<symbol id="u" overflow="visible">
<path d="m0-5.25h-0.3125c0 0.6875-0.0625 0.78125-0.5625 0.78125h-6.0469l0.10938 1.4219h0.3125c0-0.6875 0.0625-0.76562 0.5625-0.76562h2.1562c-0.35938 0.28125-0.625 0.71875-0.625 1.25 0 1.1719 0.98438 2.2188 2.2656 2.2188 1.2656 0 2.25-0.96875 2.25-2.1094 0-0.64062-0.34375-1.0781-0.65625-1.3281h0.65625zm-1.1719 1.4688c0.17188 0 0.1875 0 0.35938 0.10938 0.48438 0.29688 0.70312 0.73438 0.70312 1.1719 0 0.45312-0.26562 0.8125-0.64062 1.0469-0.40625 0.25-0.96875 0.28125-1.3906 0.28125-0.35938 0-0.95312-0.015625-1.4062-0.29688-0.3125-0.21875-0.64062-0.59375-0.64062-1.1406 0-0.34375 0.15625-0.76562 0.59375-1.0625 0.17188-0.10938 0.1875-0.10938 0.375-0.10938z"/>
</symbol>
<symbol id="t" overflow="visible">
<path d="m-4.0312-4.8281c-0.17188 0-0.48438 0.10938-0.48438 0.5 0 0.20312 0.0625 0.64062 0.46875 1.0625-0.32812 0.42188-0.35938 0.82812-0.35938 1.0469 0 0.9375 0.6875 1.625 1.4531 1.625 0.4375 0 0.8125-0.21875 1.0312-0.46875 0.14062 0.125 0.46875 0.3125 0.82812 0.3125 0.3125 0 0.6875-0.14062 0.89062-0.45312 0.15625 0.60938 0.59375 0.92188 0.98438 0.92188 0.71875 0 1.2656-0.98438 1.2656-2.2031 0-1.1719-0.5-2.2031-1.2812-2.2031-0.34375 0-0.85938 0.125-1.1406 0.64062-0.26562 0.53125-0.26562 1.1094-0.26562 1.7188 0 0.25 0 0.67188-0.015625 0.75-0.046875 0.3125-0.34375 0.51562-0.67188 0.51562-0.03125 0-0.26562 0-0.46875-0.15625 0.28125-0.39062 0.3125-0.8125 0.3125-1 0-0.92188-0.6875-1.6094-1.4531-1.6094-0.375 0-0.73438 0.15625-0.96875 0.40625-0.34375-0.35938-0.39062-0.71875-0.39062-0.89062 0 0 0-0.078125 0.015625-0.10938 0.03125 0.10938 0.14062 0.17188 0.26562 0.17188 0.17188 0 0.28125-0.14062 0.28125-0.29688 0-0.09375-0.0625-0.28125-0.29688-0.28125zm1.0781 1.75c0.26562 0 0.59375 0 0.84375 0.15625 0.10938 0.078125 0.39062 0.3125 0.39062 0.70312 0 0.875-1 0.875-1.2188 0.875-0.26562 0-0.59375-0.015625-0.84375-0.15625-0.10938-0.078125-0.39062-0.3125-0.39062-0.71875 0-0.85938 0.98438-0.85938 1.2188-0.85938zm3.7344-1.0938c0.54688 0 1.0469 0.70312 1.0469 1.6719 0 1.0156-0.51562 1.7031-1.0469 1.7031-0.45312 0-0.82812-0.375-0.84375-0.8125v-0.59375c0-0.85938 0-1.9688 0.84375-1.9688z"/>
</symbol>
<symbol id="s" overflow="visible">
<path d="m-0.015625-2.0312c-0.625 0-1.0469 0.25-1.0469 0.64062 0 0.35938 0.28125 0.53125 0.53125 0.53125 0.26562 0 0.53125-0.17188 0.53125-0.53125 0-0.14062-0.0625-0.28125-0.15625-0.39062 0.78125-0.015625 1.3906 0.25 1.8594 0.6875 0.0625 0.0625 0.078125 0.078125 0.10938 0.078125 0.078125 0 0.10938-0.046875 0.10938-0.09375 0-0.125-0.78125-0.92188-1.9375-0.92188z"/>
</symbol>
<symbol id="p" overflow="visible">
<path d="m2.5-2.5469h-0.40625v0.96875h-9.1719v-0.96875h-0.40625v1.375h9.9844z"/>
</symbol>
<symbol id="o" overflow="visible">
<path d="m0-7.1406h-0.3125v0.17188c0 0.59375-0.0625 0.73438-0.39062 0.84375l-6.2344 2.1562c-0.125 0.046875-0.20312 0.078125-0.20312 0.23438s0.0625 0.1875 0.20312 0.23438l5.9531 2.0625c0.51562 0.1875 0.67188 0.57812 0.67188 1.125h0.3125l-0.03125-1.0156 0.03125-1.1562h-0.3125c0 0.5-0.25 0.75-0.5 0.75-0.03125 0-0.14062-0.015625-0.15625-0.015625l-1.2969-0.46875v-2.4531l1.5156-0.53125c0.046875-0.015625 0.10938-0.03125 0.14062-0.03125 0.29688 0 0.29688 0.5625 0.29688 0.82812h0.3125c-0.03125-0.35938-0.03125-1.0625-0.03125-1.4375zm-2.5781 2.5781v2.2344l-3.25-1.1094z"/>
</symbol>
<symbol id="n" overflow="visible">
<path d="m2.5-1.5781h-9.9844v1.3594h0.40625v-0.96875h9.1719v0.96875h0.40625z"/>
</symbol>
<symbol id="m" overflow="visible">
<path d="m0-8.1094h-0.3125c0 0.51562 0 0.76562-0.29688 0.78125h-1.9062c-0.85938 0-1.1562 0-1.5156 0.3125-0.17188 0.14062-0.375 0.46875-0.375 1.0469 0 0.82812 0.59375 1.2812 0.98438 1.4375-0.875 0.14062-0.98438 0.875-0.98438 1.3281 0 0.73438 0.42188 1.2031 1.0469 1.4844h-1.0469l0.10938 1.4062h0.3125c0-0.70312 0.0625-0.78125 0.5625-0.78125h2.6719c0.4375 0 0.4375 0.10938 0.4375 0.78125h0.3125l-0.03125-1.1406 0.03125-1.1094h-0.3125c0 0.67188 0 0.78125-0.4375 0.78125h-1.8438c-1.0312 0-1.5938-0.71875-1.5938-1.3438 0-0.64062 0.53125-0.75 1.1094-0.75h2.3281c0.4375 0 0.4375 0.10938 0.4375 0.78125h0.3125l-0.03125-1.125 0.03125-1.1094h-0.3125c0 0.65625 0 0.76562-0.4375 0.76562h-1.8438c-1.0312 0-1.5938-0.70312-1.5938-1.3438 0-0.625 0.53125-0.73438 1.1094-0.73438h2.3281c0.4375 0 0.4375 0.10938 0.4375 0.78125h0.3125l-0.03125-1.125z"/>
</symbol>
<symbol id="l" overflow="visible">
<path d="m0-8.7656h-0.3125v0.25c0 0.76562-0.10938 0.78125-0.46875 0.78125h-5.25c-0.35938 0-0.46875-0.015625-0.46875-0.78125v-0.25h-0.3125v1.6875c0 0.26562 0.015625 0.26562 0.1875 0.32812l5.625 2.1875-5.5938 2.1562c-0.21875 0.09375-0.21875 0.125-0.21875 0.35938v1.6719h0.3125v-0.23438c0-0.76562 0.10938-0.78125 0.46875-0.78125h4.9844c0.26562 0 0.73438 0 0.73438 1.0156h0.3125l-0.03125-1.1562 0.03125-1.1719h-0.3125c0 1.0312-0.46875 1.0312-0.73438 1.0312h-5.375v-0.015625l6.2031-2.4062c0.125-0.046875 0.21875-0.09375 0.21875-0.1875 0-0.10938-0.078125-0.14062-0.1875-0.1875l-6.3125-2.4531h5.7188c0.35938 0 0.46875 0.015625 0.46875 0.78125v0.23438h0.3125c-0.03125-0.35938-0.03125-1.0469-0.03125-1.4375 0-0.375 0-1.0469 0.03125-1.4219z"/>
</symbol>
<symbol id="k" overflow="visible">
<path d="m-7.2812-4.4219c-0.10938 0-0.20312 0.078125-0.20312 0.1875 0 0.078125 0.03125 0.14062 0.09375 0.17188l9.5 3.4688c0.14062 0.046875 0.1875 0.046875 0.1875 0.046875 0.10938 0 0.20312-0.09375 0.20312-0.20312 0-0.125-0.078125-0.15625-0.25-0.21875l-9.3438-3.4062c-0.14062-0.046875-0.1875-0.046875-0.1875-0.046875z"/>
</symbol>
<clipPath id="an">
<path d="m35.301 4.2578h194.27v151.74h-194.27z"/>
</clipPath>
</defs>
<path transform="matrix(1 0 0 -1 35.3 165.65)" d="m7.8125e-4 0.0016562v161.39m38.855-161.39v161.39m38.852-161.39v161.39m38.855-161.39v161.39m38.855-161.39v161.39m38.855-161.39v161.39" fill="none" stroke="#bfbfbf" stroke-miterlimit="10" stroke-width=".3985"/>
<path transform="matrix(1 0 0 -1 35.3 165.65)" d="m7.8125e-4 0.0016562h194.27m-194.27 40.348h194.27m-194.27 40.348h194.27m-194.27 40.352h194.27m-194.27 40.348h194.27" fill="none" stroke="#bfbfbf" stroke-miterlimit="10" stroke-width=".3985"/>
<path transform="matrix(1 0 0 -1 35.3 165.65)" d="m7.8125e-4 0.0016562v4.25m38.855-4.25v4.25m38.852-4.25v4.25m38.855-4.25v4.25m38.855-4.25v4.25m38.855-4.25v4.25m-194.27 157.14v-4.2539m38.855 4.2539v-4.2539m38.852 4.2539v-4.2539m38.855 4.2539v-4.2539m38.855 4.2539v-4.2539m38.855 4.2539v-4.2539" fill="none" stroke="#7f7f7f" stroke-miterlimit="10" stroke-width=".19925"/>
<path transform="matrix(1 0 0 -1 35.3 165.65)" d="m7.8125e-4 0.0016562h4.25m-4.25 40.348h4.25m-4.25 40.348h4.25m-4.25 40.352h4.25m-4.25 40.348h4.25m190.02-161.39h-4.2539m4.2539 40.348h-4.2539m4.2539 40.348h-4.2539m4.2539 40.352h-4.2539m4.2539 40.348h-4.2539" fill="none" stroke="#7f7f7f" stroke-miterlimit="10" stroke-width=".19925"/>
<path transform="matrix(1 0 0 -1 35.3 165.65)" d="m7.8125e-4 0.0016562v161.39h194.27v-161.39z" fill="none" stroke="#000" stroke-miterlimit="10" stroke-width=".3985"/>
<g>
<use x="32.809" y="175.447" xlink:href="#a"/>
<use x="71.663" y="175.447" xlink:href="#j"/>
<use x="110.517" y="175.447" xlink:href="#i"/>
<use x="149.372" y="175.447" xlink:href="#al"/>
<use x="188.226" y="175.447" xlink:href="#ak"/>
<use x="227.08" y="175.447" xlink:href="#c"/>
<use x="26.798" y="168.791" xlink:href="#a"/>
<use x="21.817" y="128.442" xlink:href="#i"/>
<use x="26.7983" y="128.442" xlink:href="#c"/>
<use x="21.817" y="88.093" xlink:href="#c"/>
<use x="26.7983" y="88.093" xlink:href="#a"/>
<use x="21.817" y="47.745" xlink:href="#aj"/>
<use x="26.7983" y="47.745" xlink:href="#c"/>
<use x="16.836" y="7.396" xlink:href="#j"/>
<use x="21.8173" y="7.396" xlink:href="#a"/>
<use x="26.7986" y="7.396" xlink:href="#a"/>
</g>
<g clip-path="url(#an)">
<path transform="matrix(1 0 0 -1 35.3 165.65)" d="m7.8125e-4 161.4 0.64844-2.6562 0.64844-2.5664 0.65234-2.4883 0.64844-2.4102 0.64844-2.332 0.65234-2.2656 0.64844-2.1953 0.64844-2.1289 0.65234-2.0703 0.64844-2.0078 0.64844-1.9531 0.65234-1.9023 0.64844-1.8438 0.64844-1.7969 0.65234-1.75 0.64844-1.7031 0.64844-1.6562 0.65234-1.6172 0.64844-1.5703 0.64844-1.5352 0.65234-1.4961 0.64844-1.4609 0.64844-1.4297 0.65234-1.3867 0.64844-1.3594 0.64844-1.3242 0.65234-1.3008 0.64844-1.2656 0.65234-1.2344 0.64844-1.2109 0.64844-1.1875 0.65234-1.1562 0.64844-1.1289 0.64844-1.1094 0.65234-1.0859 0.64844-1.0664 0.64844-1.0391 0.65234-1.0195 0.64844-1 0.64844-0.97656 0.65234-0.96094 0.64844-0.94141 0.64844-0.92188 0.65234-0.90234 0.64844-0.89062 0.64844-0.86719 0.65234-0.85156 0.64844-0.83984 0.64844-0.82422 0.65234-0.80859 0.64844-0.79297 0.64844-0.77734 0.65234-0.76562 0.64844-0.75391 0.64844-0.73828 0.65234-0.72656 0.64844-0.71484 0.64844-0.69922 0.65234-0.69141 0.64844-0.67578 0.64844-0.66797 0.65234-0.65625 0.64844-0.64844 0.64844-0.62891 0.65234-0.62891 0.64844-0.61328 0.64844-0.60547 0.65234-0.59766 0.64844-0.58594 0.64844-0.57422 0.65234-0.57031 0.64844-0.55859 0.64844-0.55078 0.65234-0.54297 0.64844-0.53516 0.64844-0.52734 0.65234-0.51953 0.64844-0.51172 0.64844-0.50781 0.65234-0.49609 0.64844-0.48828 0.64844-0.48438 0.65234-0.47656 0.64844-0.47266 0.64844-0.46094 0.65234-0.45703 0.64844-0.45312 0.64844-0.44141 0.65234-0.4375 0.64844-0.43359 0.64844-0.42969 0.65234-0.42188 1.2969-0.82812 0.65234-0.40234 0.64844-0.40234 0.64844-0.39453 0.65234-0.38672 0.64844-0.39062 0.64844-0.37891 0.65234-0.375 0.64844-0.36719 0.64844-0.37109 0.65234-0.35938 0.64844-0.35938 0.64844-0.35156 0.65234-0.34766 0.64844-0.34766 0.64844-0.33984 0.65234-0.33984 0.64844-0.33203 0.64844-0.32812 0.65234-0.32422 1.2969-0.64062 0.65234-0.3125 1.2969-0.61719 0.65234-0.30078 1.2969-0.60156 0.65234-0.29297 0.64844-0.28906 0.64844-0.28516 0.65234-0.28516 0.64844-0.28125 0.64844-0.27734 0.65234-0.27734 0.64844-0.27344 0.64844-0.26953 0.65234-0.26562 1.2969-0.52344 0.65234-0.26172 0.64844-0.25391 0.64844-0.25 0.65234-0.25391 1.2969-0.49219 0.65234-0.24219 0.64844-0.24219 0.64844-0.23828 0.65234-0.23438 0.64844-0.23438 0.64844-0.23047 0.65234-0.23047 0.64844-0.22656 0.64844-0.22266 0.65234-0.22266 0.64844-0.22266 0.64844-0.21484 0.65234-0.21484 1.2969-0.42969 0.65234-0.21094 1.2969-0.41406 0.65234-0.20312 1.2969-0.40625 0.65234-0.19531 0.64844-0.19922 0.64844-0.19531 0.65234-0.19141 1.2969-0.38281 0.65234-0.1875 0.64844-0.1875 0.64844-0.18359 0.65234-0.1875 1.2969-0.35938 0.65234-0.17969 0.64844-0.17969 0.64844-0.17578 0.65234-0.17188 0.64844-0.17578 0.64844-0.17188 0.65234-0.16406 0.64844-0.17188 0.64844-0.16797 0.65234-0.16406 1.2969-0.32812 0.65234-0.16016 1.2969-0.32031 0.65234-0.16016 0.64844-0.15234 0.64844-0.15625 0.65234-0.15625 0.64844-0.15234 0.64844-0.14844 0.65234-0.15234 1.2969-0.29688 0.65234-0.14844 0.64844-0.14453 0.64844-0.14844 0.65234-0.14062 0.64844-0.14062 0.64844-0.14453 0.65234-0.14062 0.64844-0.14062 0.64844-0.13672 0.65234-0.13672 0.64844-0.13672 0.64844-0.13281 0.65234-0.13672 0.64844-0.12891 0.64844-0.13281 0.65234-0.13281 1.2969-0.25781 0.65234-0.13281 0.64844-0.125 0.64844-0.12891 0.65234-0.12109 1.2969-0.25 0.65234-0.12109 0.64844-0.125 0.64844-0.11719 0.65234-0.12109 0.64844-0.12109 0.64844-0.11719 0.65234-0.11719 1.2969-0.23438 0.65234-0.11719 1.2969-0.22656 0.65234-0.11328 0.64844-0.11328 0.64844-0.10938 0.65234-0.11328 1.2969-0.21875 0.65234-0.10938 0.64844-0.10547 0.64844-0.10938 0.65234-0.10156 1.2969-0.21094 0.65234-0.10547 0.64844-0.10156 0.64844-0.10547 0.65234-0.10156 1.2969-0.20312 0.65234-0.10156 1.2969-0.19531 0.65234-0.10156 1.2969-0.19531 0.65234-0.09375 0.64844-0.097656 0.64844-0.09375 0.65234-0.09375 0.64844-0.09375 0.64844-0.097657 0.65234-0.089843 0.64844-0.09375 0.64844-0.089844 0.65234-0.09375 1.2969-0.17969 0.65234-0.089843 0.64844-0.089844 0.64844-0.085938 0.65234-0.089843 1.2969-0.17188 0.65234-0.085938 0.64844-0.085937 0.64844-0.089844 0.65234-0.082031 0.64844-0.085938 0.64844-0.082031 0.65234-0.082031 0.64844-0.085938 0.64844-0.082031 0.65234-0.082031 0.64844-0.082032 0.64844-0.078125 0.65234-0.082031 0.64844-0.078125 0.64844-0.082031 0.65234-0.078125 1.2969-0.15625 0.65234-0.078125 0.64844-0.078125 0.64844-0.074219 0.65234-0.078125 0.64844-0.078125 0.64844-0.074219 0.65234-0.074218" fill="none" stroke="#0c6dfd" stroke-miterlimit="10" stroke-width="1.1955"/>
</g>
<g>
<use x="77.674" y="81.437" xlink:href="#ag"/>
<use x="155.382" y="121.785" xlink:href="#af"/>
</g>
<path transform="matrix(1 0 0 -1 35.3 165.65)" d="m40.848 80.697c0 1.1016-0.89453 1.9922-1.9922 1.9922-1.1016 0-1.9922-0.89062-1.9922-1.9922 0-1.0977 0.89062-1.9922 1.9922-1.9922 1.0977 0 1.9922 0.89453 1.9922 1.9922z" fill="#fff" stroke="#0c6dfd" stroke-miterlimit="10" stroke-width="1.1955"/>
<path transform="matrix(1 0 0 -1 35.3 165.65)" d="m118.56 40.349c0 1.1016-0.89062 1.9922-1.9922 1.9922-1.0977 0-1.9922-0.89062-1.9922-1.9922 0-1.1016 0.89453-1.9922 1.9922-1.9922 1.1016 0 1.9922 0.89062 1.9922 1.9922z" fill="#fff" stroke="#0c6dfd" stroke-miterlimit="10" stroke-width="1.1955"/>
<g>
<use x="101.82" y="189.759" xlink:href="#ac"/>
<use x="108.188094" y="189.759" xlink:href="#ab"/>
<use x="112.61647" y="189.759" xlink:href="#aa"/>
<use x="120.918304" y="189.759" xlink:href="#z"/>
<use x="126.722515" y="189.759" xlink:href="#y"/>
<use x="131.703815" y="189.759" xlink:href="#x"/>
<use x="137.795" y="189.759" xlink:href="#ae"/>
<use x="141.392495" y="189.759" xlink:href="#ad"/>
<use x="146.374" y="189.759" xlink:href="#ai"/>
<use x="154.675835" y="189.759" xlink:href="#ah"/>
<use x="157.443445" y="189.759" xlink:href="#am"/>
<use x="7.505" y="161.943" xlink:href="#w"/>
<use x="7.505" y="154.74801" xlink:href="#e"/>
<use x="7.505" y="149.76671" xlink:href="#d"/>
<use x="7.505" y="144.23149" xlink:href="#r"/>
<use x="7.505" y="139.803114" xlink:href="#b"/>
<use x="7.505" y="135.374738" xlink:href="#d"/>
<use x="7.505" y="130.118471" xlink:href="#h"/>
<use x="7.505" y="126.244015" xlink:href="#g"/>
<use x="7.505" y="122.341665" xlink:href="#f"/>
<use x="7.505" y="117.360365" xlink:href="#q"/>
<use x="7.505" y="112.931989" xlink:href="#v"/>
<use x="7.505" y="107.950689" xlink:href="#e"/>
<use x="7.505" y="99.651843" xlink:href="#u"/>
<use x="7.505" y="94.116623" xlink:href="#e"/>
<use x="7.505" y="85.807815" xlink:href="#g"/>
<use x="7.505" y="81.905464" xlink:href="#b"/>
<use x="7.505" y="77.487051" xlink:href="#f"/>
<use x="7.505" y="72.505751" xlink:href="#t"/>
<use x="7.505" y="67.524451" xlink:href="#b"/>
<use x="7.505" y="63.096075" xlink:href="#d"/>
<use x="7.505" y="57.829845" xlink:href="#h"/>
<use x="7.505" y="53.95539" xlink:href="#b"/>
<use x="7.505" y="49.527014" xlink:href="#s"/>
<use x="7.505" y="43.443" xlink:href="#p"/>
<use x="7.505" y="40.625577" xlink:href="#o"/>
<use x="7.505" y="33.153627" xlink:href="#n"/>
<use x="7.505" y="30.386" xlink:href="#k"/>
<use x="7.505" y="25.405" xlink:href="#m"/>
<use x="7.505" y="17.103165" xlink:href="#l"/>
</g>
</svg>
