<?xml version="1.0" encoding="UTF-8"?>
<svg width="207pt" height="193pt" version="1.1" viewBox="0 0 207 193" xmlns="http://www.w3.org/2000/svg" xmlns:xlink="http://www.w3.org/1999/xlink">
<defs>
<symbol id="as" overflow="visible">
<path d="m7.25 0.09375c0-0.09375 0-0.20312-0.10938-0.20312-0.09375 0-0.10938 0.078125-0.10938 0.17188-0.0625 0.54688-0.48438 0.84375-0.90625 0.84375-0.46875 0-0.71875-0.34375-0.96875-0.96875 1.1875-0.53125 2.0312-1.8125 2.0312-3.3125 0-2.0312-1.5-3.6562-3.3125-3.6562-1.7969 0-3.3125 1.5938-3.3125 3.6562 0 2.0156 1.5 3.5938 3.3125 3.5938 0.3125 0 0.65625-0.0625 0.95312-0.15625 0.14062 0.95312 0.28125 1.875 1.2188 1.875 1.0156 0 1.2031-1.3281 1.2031-1.8438zm-1.0625-3.4688c0 0.76562-0.10938 2.1719-1.1719 2.9531-0.21875-0.5625-0.54688-1.0469-1.125-1.0469-0.51562 0-0.8125 0.42188-0.8125 0.82812 0 0.26562 0.125 0.46875 0.125 0.48438-0.53125-0.20312-1.6406-0.9375-1.6406-3.2188 0-2.5938 1.3906-3.4062 2.3125-3.4062 0.95312 0 2.3125 0.85938 2.3125 3.4062zm-1.4375 3.1094c-0.32812 0.20312-0.65625 0.23438-0.875 0.23438-0.5 0-0.57812-0.45312-0.57812-0.60938 0-0.28125 0.20312-0.60938 0.59375-0.60938 0.53125 0 0.75 0.40625 0.85938 0.98438z"/>
</symbol>
<symbol id="p" overflow="visible">
<path d="m5.3281 0v-0.3125c-0.6875 0-0.76562-0.0625-0.76562-0.5625v-3.5312l-1.4688 0.10938v0.3125c0.6875 0 0.78125 0.0625 0.78125 0.5625v1.7656c0 0.875-0.48438 1.5469-1.2188 1.5469-0.82812 0-0.875-0.46875-0.875-0.98438v-3.3125l-1.4688 0.10938v0.3125c0.78125 0 0.78125 0.03125 0.78125 0.90625v1.5c0 0.78125 0 1.6875 1.5156 1.6875 0.5625 0 1-0.28125 1.2812-0.89062v0.89062z"/>
</symbol>
<symbol id="b" overflow="visible">
<path d="m4.1406-1.1875c0-0.09375-0.078125-0.125-0.14062-0.125-0.078125 0-0.10938 0.0625-0.125 0.14062-0.34375 1.0312-1.25 1.0312-1.3438 1.0312-0.5 0-0.89062-0.29688-1.125-0.67188-0.29688-0.46875-0.29688-1.125-0.29688-1.4844h2.7812c0.21875 0 0.25 0 0.25-0.21875 0-0.98438-0.54688-1.9531-1.7812-1.9531-1.1562 0-2.0781 1.0312-2.0781 2.2812 0 1.3281 1.0469 2.2969 2.1875 2.2969 1.2188 0 1.6719-1.1094 1.6719-1.2969zm-0.65625-1.3281h-2.375c0.0625-1.4844 0.90625-1.7344 1.25-1.7344 1.0156 0 1.125 1.3438 1.125 1.7344z"/>
</symbol>
<symbol id="o" overflow="visible">
<path d="m5.3281 0v-0.3125c-0.51562 0-0.76562 0-0.76562-0.29688v-1.9062c0-0.85938 0-1.1562-0.3125-1.5156-0.14062-0.17188-0.46875-0.375-1.0469-0.375-0.73438 0-1.2031 0.42188-1.4844 1.0469v-1.0469l-1.4062 0.10938v0.3125c0.70312 0 0.78125 0.0625 0.78125 0.5625v2.6719c0 0.4375-0.10938 0.4375-0.78125 0.4375v0.3125l1.1406-0.03125 1.1094 0.03125v-0.3125c-0.67188 0-0.78125 0-0.78125-0.4375v-1.8438c0-1.0312 0.71875-1.5938 1.3438-1.5938 0.64062 0 0.75 0.53125 0.75 1.1094v2.3281c0 0.4375-0.10938 0.4375-0.78125 0.4375v0.3125l1.125-0.03125z"/>
</symbol>
<symbol id="f" overflow="visible">
<path d="m3.3125-1.2344v-0.5625h-0.25v0.54688c0 0.73438-0.29688 1.1094-0.67188 1.1094-0.67188 0-0.67188-0.90625-0.67188-1.0781v-2.7656h1.4375v-0.3125h-1.4375v-1.8281h-0.25c0 0.8125-0.29688 1.875-1.2812 1.9219v0.21875h0.84375v2.75c0 1.2188 0.9375 1.3438 1.2969 1.3438 0.70312 0 0.98438-0.70312 0.98438-1.3438z"/>
</symbol>
<symbol id="ag" overflow="visible">
<path d="m6.0781-4.5312-0.28125-2.25h-5.4688v0.3125h0.23438c0.76562 0 0.79688 0.10938 0.79688 0.46875v5.2188c0 0.35938-0.03125 0.46875-0.79688 0.46875h-0.23438v0.3125c0.34375-0.03125 1.125-0.03125 1.5156-0.03125 0.40625 0 1.3125 0 1.6719 0.03125v-0.3125h-0.32812c-0.9375 0-0.9375-0.125-0.9375-0.46875v-2.4531h0.84375c0.96875 0 1.0625 0.3125 1.0625 1.1562h0.25v-2.6406h-0.25c0 0.84375-0.09375 1.1719-1.0625 1.1719h-0.84375v-2.5312c0-0.32812 0.015625-0.39062 0.48438-0.39062h1.1875c1.5 0 1.75 0.5625 1.9062 1.9375z"/>
</symbol>
<symbol id="e" overflow="visible">
<path d="m3.625-3.7969c0-0.3125-0.3125-0.60938-0.73438-0.60938-0.73438 0-1.0938 0.67188-1.2188 1.0938v-1.0938l-1.3906 0.10938v0.3125c0.70312 0 0.78125 0.0625 0.78125 0.5625v2.6719c0 0.4375-0.10938 0.4375-0.78125 0.4375v0.3125l1.1406-0.03125c0.39062 0 0.85938 0 1.2656 0.03125v-0.3125h-0.21875c-0.73438 0-0.75-0.10938-0.75-0.46875v-1.5312c0-0.98438 0.42188-1.875 1.1719-1.875 0.0625 0 0.09375 0 0.10938 0.015625-0.03125 0-0.23438 0.125-0.23438 0.39062s0.21875 0.42188 0.4375 0.42188c0.17188 0 0.42188-0.125 0.42188-0.4375z"/>
</symbol>
<symbol id="n" overflow="visible">
<path d="m2.4688 0v-0.3125c-0.67188 0-0.70312-0.046875-0.70312-0.4375v-3.6562l-1.3906 0.10938v0.3125c0.64062 0 0.73438 0.0625 0.73438 0.54688v2.6875c0 0.4375-0.10938 0.4375-0.78125 0.4375v0.3125l1.0938-0.03125c0.35938 0 0.70312 0.015625 1.0469 0.03125zm-0.5625-6.0156c0-0.28125-0.21875-0.53125-0.51562-0.53125-0.34375 0-0.54688 0.28125-0.54688 0.53125 0 0.26562 0.23438 0.51562 0.53125 0.51562 0.34375 0 0.53125-0.26562 0.53125-0.51562z"/>
</symbol>
<symbol id="m" overflow="visible">
<path d="m4.6875-2.1406c0-1.2656-0.98438-2.3281-2.1875-2.3281-1.25 0-2.2188 1.0938-2.2188 2.3281 0 1.2969 1.0312 2.25 2.2031 2.25 1.2031 0 2.2031-0.98438 2.2031-2.25zm-0.8125-0.078125c0 0.35938 0 0.90625-0.21875 1.3438-0.23438 0.45312-0.67188 0.73438-1.1562 0.73438-0.4375 0-0.875-0.20312-1.1406-0.67188-0.25-0.4375-0.25-1.0469-0.25-1.4062 0-0.39062 0-0.92188 0.23438-1.3594 0.26562-0.45312 0.73438-0.67188 1.1406-0.67188 0.4375 0 0.85938 0.21875 1.125 0.65625 0.26562 0.42188 0.26562 1 0.26562 1.375z"/>
</symbol>
<symbol id="ar" overflow="visible">
<path d="m7.1406 0v-0.3125h-0.17188c-0.59375 0-0.73438-0.0625-0.84375-0.39062l-2.1562-6.2344c-0.046875-0.125-0.078125-0.20312-0.23438-0.20312s-0.1875 0.0625-0.23438 0.20312l-2.0625 5.9531c-0.1875 0.51562-0.57812 0.67188-1.125 0.67188v0.3125l1.0156-0.03125 1.1562 0.03125v-0.3125c-0.5 0-0.75-0.25-0.75-0.5 0-0.03125 0.015625-0.14062 0.015625-0.15625l0.46875-1.2969h2.4531l0.53125 1.5156c0.015625 0.046875 0.03125 0.10938 0.03125 0.14062 0 0.29688-0.5625 0.29688-0.82812 0.29688v0.3125c0.35938-0.03125 1.0625-0.03125 1.4375-0.03125zm-2.5781-2.5781h-2.2344l1.1094-3.25z"/>
</symbol>
<symbol id="aq" overflow="visible">
<path d="m2.5469 0v-0.3125c-0.67188 0-0.78125 0-0.78125-0.4375v-6.1719l-1.4375 0.10938v0.3125c0.70312 0 0.78125 0.0625 0.78125 0.5625v5.1875c0 0.4375-0.10938 0.4375-0.78125 0.4375v0.3125l1.1094-0.03125z"/>
</symbol>
<symbol id="a" overflow="visible">
<path d="m4.8125-0.89062v-0.5625h-0.25v0.5625c0 0.57812-0.25 0.64062-0.35938 0.64062-0.32812 0-0.35938-0.45312-0.35938-0.5v-1.9844c0-0.42188 0-0.8125-0.35938-1.1875-0.39062-0.39062-0.89062-0.54688-1.375-0.54688-0.8125 0-1.5 0.46875-1.5 1.125 0 0.29688 0.20312 0.46875 0.45312 0.46875 0.28125 0 0.46875-0.20312 0.46875-0.45312 0-0.125-0.0625-0.45312-0.51562-0.45312 0.26562-0.35938 0.76562-0.46875 1.0781-0.46875 0.48438 0 1.0625 0.39062 1.0625 1.2812v0.35938c-0.51562 0.03125-1.2188 0.0625-1.8438 0.35938-0.75 0.34375-1 0.85938-1 1.2969 0 0.8125 0.96875 1.0625 1.5938 1.0625 0.67188 0 1.125-0.40625 1.3125-0.85938 0.046875 0.39062 0.3125 0.8125 0.78125 0.8125 0.20312 0 0.8125-0.14062 0.8125-0.95312zm-1.6562-0.5c0 0.9375-0.71875 1.2812-1.1719 1.2812-0.48438 0-0.89062-0.34375-0.89062-0.84375 0-0.54688 0.40625-1.375 2.0625-1.4375z"/>
</symbol>
<symbol id="ap" overflow="visible">
<path d="m6.4844-1.8281c0-0.85938-0.8125-1.6094-1.9219-1.7344 0.96875-0.1875 1.6562-0.82812 1.6562-1.5625 0-0.85938-0.92188-1.6875-2.2188-1.6875h-3.6406v0.3125h0.23438c0.76562 0 0.79688 0.10938 0.79688 0.46875v5.25c0 0.35938-0.03125 0.46875-0.79688 0.46875h-0.23438v0.3125h3.9062c1.3281 0 2.2188-0.89062 2.2188-1.8281zm-1.2344-3.2969c0 0.64062-0.48438 1.4688-1.5938 1.4688h-1.4375v-2.4375c0-0.34375 0.015625-0.40625 0.48438-0.40625h1.2344c0.96875 0 1.3125 0.84375 1.3125 1.375zm0.25 3.2969c0 0.70312-0.53125 1.5156-1.5469 1.5156h-1.25c-0.46875 0-0.48438-0.0625-0.48438-0.39062v-2.7188h1.875c0.98438 0 1.4062 0.92188 1.4062 1.5938z"/>
</symbol>
<symbol id="ao" overflow="visible">
<path d="m5.1406 0v-0.3125c-0.53125 0-0.71875-0.015625-0.9375-0.3125l-1.3438-1.7188c0.29688-0.375 0.67188-0.85938 0.92188-1.125 0.3125-0.35938 0.71875-0.51562 1.1875-0.51562v-0.3125c-0.26562 0.015625-0.5625 0.03125-0.82812 0.03125-0.29688 0-0.82812-0.015625-0.95312-0.03125v0.3125c0.21875 0.015625 0.29688 0.14062 0.29688 0.3125 0 0.15625-0.10938 0.28125-0.15625 0.34375l-0.60938 0.78125-0.78125-1.0156c-0.09375-0.09375-0.09375-0.10938-0.09375-0.17188 0-0.15625 0.15625-0.25 0.34375-0.25v-0.3125l-1.0781 0.03125c-0.20312 0-0.67188-0.015625-0.9375-0.03125v0.3125c0.70312 0 0.70312 0 1.1719 0.60938l0.98438 1.2812c-0.46875 0.59375-0.46875 0.625-0.9375 1.1875-0.46875 0.57812-1.0625 0.59375-1.2656 0.59375v0.3125c0.25-0.015625 0.5625-0.03125 0.82812-0.03125l0.9375 0.03125v-0.3125c-0.21875-0.03125-0.28125-0.15625-0.28125-0.3125 0-0.21875 0.28125-0.54688 0.89062-1.2656l0.76562 1c0.078125 0.10938 0.20312 0.26562 0.20312 0.32812 0 0.09375-0.09375 0.25-0.35938 0.25v0.3125l1.0781-0.03125c0.26562 0 0.65625 0.015625 0.95312 0.03125z"/>
</symbol>
<symbol id="an" overflow="visible">
<path d="m3.3125 0v-0.3125h-0.25c-0.79688 0-0.8125-0.10938-0.8125-0.46875v-5.25c0-0.35938 0.015625-0.46875 0.8125-0.46875h0.25v-0.3125c-0.34375 0.03125-1.125 0.03125-1.5156 0.03125-0.375 0-1.1719 0-1.5156-0.03125v0.3125h0.25c0.79688 0 0.82812 0.10938 0.82812 0.46875v5.25c0 0.35938-0.03125 0.46875-0.82812 0.46875h-0.25v0.3125c0.34375-0.03125 1.1406-0.03125 1.5156-0.03125 0.39062 0 1.1719 0 1.5156 0.03125z"/>
</symbol>
<symbol id="am" overflow="visible">
<path d="m5.0625-3.9844v-0.3125c-0.23438 0.015625-0.51562 0.03125-0.75 0.03125l-0.85938-0.03125v0.3125c0.35938 0 0.46875 0.23438 0.46875 0.42188 0 0.09375-0.015625 0.14062-0.046875 0.25l-1.0312 2.5312-1.1094-2.7812c-0.0625-0.125-0.0625-0.17188-0.0625-0.17188 0-0.25 0.39062-0.25 0.57812-0.25v-0.3125l-1.0938 0.03125c-0.26562 0-0.67188-0.015625-0.96875-0.03125v0.3125c0.625 0 0.67188 0.0625 0.79688 0.35938l1.4375 3.5469c0.0625 0.14062 0.078125 0.1875 0.20312 0.1875 0.14062 0 0.17188-0.09375 0.21875-0.1875l1.2969-3.2344c0.09375-0.23438 0.26562-0.67188 0.92188-0.67188z"/>
</symbol>
<symbol id="al" overflow="visible">
<path d="m3.5938-1.2812c0-0.51562-0.29688-0.82812-0.42188-0.9375-0.32812-0.32812-0.71875-0.40625-1.1406-0.48438-0.5625-0.10938-1.2188-0.23438-1.2188-0.8125 0-0.35938 0.25-0.76562 1.1094-0.76562 1.0938 0 1.1562 0.90625 1.1719 1.2031 0 0.09375 0.10938 0.09375 0.10938 0.09375 0.14062 0 0.14062-0.046875 0.14062-0.23438v-1.0156c0-0.15625 0-0.23438-0.10938-0.23438-0.046875 0-0.078125 0-0.20312 0.125-0.03125 0.03125-0.125 0.125-0.17188 0.15625-0.375-0.28125-0.78125-0.28125-0.9375-0.28125-1.2188 0-1.5938 0.67188-1.5938 1.2344 0 0.34375 0.15625 0.625 0.42188 0.84375 0.32812 0.25 0.60938 0.3125 1.3281 0.45312 0.21875 0.046875 1.0312 0.20312 1.0312 0.92188 0 0.5-0.34375 0.90625-1.125 0.90625-0.84375 0-1.2031-0.5625-1.3906-1.4219-0.03125-0.125-0.03125-0.15625-0.14062-0.15625-0.125 0-0.125 0.0625-0.125 0.23438v1.3281c0 0.17188 0 0.23438 0.10938 0.23438 0.046875 0 0.0625-0.015625 0.25-0.20312 0.015625-0.015625 0.015625-0.03125 0.20312-0.21875 0.4375 0.40625 0.89062 0.42188 1.0938 0.42188 1.1406 0 1.6094-0.67188 1.6094-1.3906z"/>
</symbol>
<symbol id="ak" overflow="visible">
<path d="m5.25 0v-0.3125c-0.6875 0-0.78125-0.0625-0.78125-0.5625v-6.0469l-1.4219 0.10938v0.3125c0.6875 0 0.76562 0.0625 0.76562 0.5625v2.1562c-0.28125-0.35938-0.71875-0.625-1.25-0.625-1.1719 0-2.2188 0.98438-2.2188 2.2656 0 1.2656 0.96875 2.25 2.1094 2.25 0.64062 0 1.0781-0.34375 1.3281-0.65625v0.65625zm-1.4688-1.1719c0 0.17188 0 0.1875-0.10938 0.35938-0.29688 0.48438-0.73438 0.70312-1.1719 0.70312-0.45312 0-0.8125-0.26562-1.0469-0.64062-0.25-0.40625-0.28125-0.96875-0.28125-1.3906 0-0.35938 0.015625-0.95312 0.29688-1.4062 0.21875-0.3125 0.59375-0.64062 1.1406-0.64062 0.34375 0 0.76562 0.15625 1.0625 0.59375 0.10938 0.17188 0.10938 0.1875 0.10938 0.375z"/>
</symbol>
<symbol id="aj" overflow="visible">
<path d="m8.1094 0v-0.3125c-0.51562 0-0.76562 0-0.78125-0.29688v-1.9062c0-0.85938 0-1.1562-0.3125-1.5156-0.14062-0.17188-0.46875-0.375-1.0469-0.375-0.82812 0-1.2812 0.59375-1.4375 0.98438-0.14062-0.875-0.875-0.98438-1.3281-0.98438-0.73438 0-1.2031 0.42188-1.4844 1.0469v-1.0469l-1.4062 0.10938v0.3125c0.70312 0 0.78125 0.0625 0.78125 0.5625v2.6719c0 0.4375-0.10938 0.4375-0.78125 0.4375v0.3125l1.1406-0.03125 1.1094 0.03125v-0.3125c-0.67188 0-0.78125 0-0.78125-0.4375v-1.8438c0-1.0312 0.71875-1.5938 1.3438-1.5938 0.64062 0 0.75 0.53125 0.75 1.1094v2.3281c0 0.4375-0.10938 0.4375-0.78125 0.4375v0.3125l1.125-0.03125 1.1094 0.03125v-0.3125c-0.65625 0-0.76562 0-0.76562-0.4375v-1.8438c0-1.0312 0.70312-1.5938 1.3438-1.5938 0.625 0 0.73438 0.53125 0.73438 1.1094v2.3281c0 0.4375-0.10938 0.4375-0.78125 0.4375v0.3125l1.125-0.03125z"/>
</symbol>
<symbol id="ai" overflow="visible">
<path d="m5.1875-2.1562c0-1.2656-0.95312-2.25-2.0781-2.25-0.78125 0-1.2031 0.4375-1.3906 0.65625v-0.65625l-1.4375 0.10938v0.3125c0.70312 0 0.78125 0.0625 0.78125 0.5v4.6562c0 0.45312-0.10938 0.45312-0.78125 0.45312v0.3125l1.1094-0.03125 1.125 0.03125v-0.3125c-0.65625 0-0.76562 0-0.76562-0.45312v-1.7656c0.046875 0.17188 0.46875 0.70312 1.2188 0.70312 1.1875 0 2.2188-0.98438 2.2188-2.2656zm-0.82812 0c0 1.2031-0.6875 2.0469-1.4219 2.0469-0.40625 0-0.78125-0.20312-1.0469-0.60938-0.14062-0.20312-0.14062-0.21875-0.14062-0.42188v-2.2188c0.28125-0.51562 0.76562-0.79688 1.2812-0.79688 0.73438 0 1.3281 0.875 1.3281 2z"/>
</symbol>
<symbol id="ah" overflow="visible">
<path d="m2.0312-0.015625c0-0.625-0.25-1.0469-0.64062-1.0469-0.35938 0-0.53125 0.28125-0.53125 0.53125 0 0.26562 0.17188 0.53125 0.53125 0.53125 0.14062 0 0.28125-0.0625 0.39062-0.15625 0.015625 0.78125-0.25 1.3906-0.6875 1.8594-0.0625 0.0625-0.078125 0.078125-0.078125 0.10938 0 0.078125 0.046875 0.10938 0.09375 0.10938 0.125 0 0.92188-0.78125 0.92188-1.9375z"/>
</symbol>
<symbol id="l" overflow="visible">
<path d="m7.1094-2.4688s0-0.10938-0.125-0.10938c-0.09375 0-0.10938 0.0625-0.125 0.125-0.65625 1.4688-1.0156 2.1406-2.7188 2.1406h-1.4531-0.21875c-0.10938-0.015625-0.14062-0.03125-0.14062-0.10938 0-0.03125 0-0.046875 0.046875-0.21875l0.6875-2.7344h0.98438c0.84375 0 0.84375 0.21875 0.84375 0.46875 0 0.0625 0 0.1875-0.0625 0.48438-0.015625 0.046875-0.03125 0.078125-0.03125 0.10938 0 0.046875 0.03125 0.10938 0.125 0.10938 0.078125 0 0.10938-0.046875 0.15625-0.20312l0.5625-2.3281c0-0.0625-0.046875-0.10938-0.125-0.10938s-0.10938 0.0625-0.125 0.17188c-0.21875 0.76562-0.39062 1-1.3125 1h-0.9375l0.59375-2.4062c0.09375-0.35938 0.10938-0.39062 0.54688-0.39062h1.4062c1.2031 0 1.5156 0.28125 1.5156 1.1094 0 0.23438 0 0.25-0.046875 0.53125 0 0.046875-0.015625 0.125-0.015625 0.17188s0.03125 0.125 0.125 0.125c0.10938 0 0.125-0.0625 0.14062-0.25l0.20312-1.7344c0.03125-0.26562-0.015625-0.26562-0.26562-0.26562h-5.0469c-0.1875 0-0.29688 0-0.29688 0.20312 0 0.10938 0.09375 0.10938 0.28125 0.10938 0.375 0 0.65625 0 0.65625 0.17188 0 0.046875 0 0.0625-0.0625 0.25l-1.3125 5.2656c-0.09375 0.39062-0.10938 0.46875-0.90625 0.46875-0.17188 0-0.28125 0-0.28125 0.1875 0 0.125 0.09375 0.125 0.28125 0.125h5.1719c0.23438 0 0.25-0.015625 0.3125-0.17188l0.92188-2.1562 0.046875-0.14062z"/>
</symbol>
<symbol id="af" overflow="visible">
<path d="m4.4219-7.2812c0-0.10938-0.078125-0.20312-0.1875-0.20312-0.078125 0-0.14062 0.03125-0.17188 0.09375l-3.4688 9.5c-0.046875 0.14062-0.046875 0.1875-0.046875 0.1875 0 0.10938 0.09375 0.20312 0.20312 0.20312 0.125 0 0.15625-0.078125 0.21875-0.25l3.4062-9.3438c0.046875-0.14062 0.046875-0.1875 0.046875-0.1875z"/>
</symbol>
<symbol id="ae" overflow="visible">
<path d="m6.7344-4.7344 0.26562-1.7344c0.015625-0.046875 0.015625-0.14062 0.015625-0.17188 0-0.10938-0.09375-0.10938-0.26562-0.10938h-5.5312c-0.23438 0-0.25 0.015625-0.32812 0.20312l-0.59375 1.75c0 0.015625-0.0625 0.1875-0.0625 0.1875 0 0.046875 0.0625 0.10938 0.125 0.10938 0.09375 0 0.10938-0.0625 0.17188-0.21875 0.53125-1.5469 0.79688-1.7188 2.2656-1.7188h0.39062c0.28125 0 0.28125 0.03125 0.28125 0.125 0 0.046875-0.03125 0.17188-0.046875 0.20312l-1.3281 5.3281c-0.09375 0.35938-0.125 0.46875-1.1875 0.46875-0.35938 0-0.42188 0-0.42188 0.1875 0 0.125 0.10938 0.125 0.17188 0.125 0.26562 0 0.54688-0.015625 0.8125-0.015625l0.85938-0.015625 0.82812 0.015625c0.28125 0 0.57812 0.015625 0.85938 0.015625 0.09375 0 0.21875 0 0.21875-0.20312 0-0.10938-0.078125-0.10938-0.34375-0.10938-0.23438 0-0.375 0-0.625-0.015625-0.29688-0.03125-0.375-0.0625-0.375-0.21875 0 0 0-0.0625 0.046875-0.20312l1.3125-5.2969c0.078125-0.28125 0.10938-0.34375 0.23438-0.375 0.09375-0.015625 0.42188-0.015625 0.625-0.015625 1.0156 0 1.4531 0.03125 1.4531 0.8125 0 0.15625-0.03125 0.54688-0.078125 0.79688 0 0.046875-0.03125 0.15625-0.03125 0.1875 0 0.0625 0.03125 0.14062 0.125 0.14062 0.10938 0 0.125-0.078125 0.15625-0.23438z"/>
</symbol>
<symbol id="k" overflow="visible">
<path d="m3.7969-0.625v-0.39062h-0.25v0.375c0 0.078125 0 0.40625-0.25 0.40625-0.26562 0-0.26562-0.32812-0.26562-0.40625v-1.2344c0-0.35938 0-0.625-0.3125-0.89062-0.28125-0.23438-0.625-0.34375-1.0312-0.34375-0.65625 0-1.125 0.25-1.125 0.67188 0 0.23438 0.14062 0.34375 0.32812 0.34375s0.32812-0.14062 0.32812-0.32812c0-0.10938-0.0625-0.26562-0.25-0.3125 0.25-0.17188 0.65625-0.17188 0.70312-0.17188 0.39062 0 0.8125 0.25 0.8125 0.84375v0.20312c-0.375 0.015625-0.84375 0.046875-1.3438 0.23438-0.625 0.21875-0.82812 0.60938-0.82812 0.92188 0 0.59375 0.71875 0.76562 1.2188 0.76562 0.5625 0 0.89062-0.3125 1.0312-0.57812 0.03125 0.28125 0.21875 0.54688 0.53125 0.54688 0 0 0.70312 0 0.70312-0.65625zm-1.3125-0.35938c0 0.67188-0.57812 0.85938-0.89062 0.85938-0.35938 0-0.6875-0.23438-0.6875-0.57812 0-0.39062 0.32812-0.92188 1.5781-0.96875z"/>
</symbol>
<symbol id="ad" overflow="visible">
<path d="m4.1719 0v-0.3125h-0.3125c-0.90625 0-0.92188-0.10938-0.92188-0.46875v-5.5938c0-0.25 0-0.26562-0.23438-0.26562-0.625 0.64062-1.5 0.64062-1.8125 0.64062v0.3125c0.20312 0 0.78125 0 1.2969-0.26562v5.1719c0 0.35938-0.03125 0.46875-0.92188 0.46875h-0.3125v0.3125c0.34375-0.03125 1.2031-0.03125 1.6094-0.03125 0.39062 0 1.2656 0 1.6094 0.03125z"/>
</symbol>
<symbol id="ac" overflow="visible">
<path d="m-2.5781-5.7969v0.25c1.0156 0.10938 2.2656 0.25 2.2656 2v0.8125c0 0.46875-0.0625 0.48438-0.39062 0.48438h-5.3125c-0.34375 0-0.48438 0-0.48438-0.9375v-0.32812h-0.3125c0.03125 0.35938 0.03125 1.2656 0.03125 1.6719 0 0.39062 0 1.1719-0.03125 1.5156h0.3125v-0.23438c0-0.76562 0.10938-0.79688 0.46875-0.79688h5.25c0.35938 0 0.46875 0.03125 0.46875 0.79688v0.23438h0.3125v-5.1875z"/>
</symbol>
<symbol id="h" overflow="visible">
<path d="m-2.1406-4.6875c-1.2656 0-2.3281 0.98438-2.3281 2.1875 0 1.25 1.0938 2.2188 2.3281 2.2188 1.2969 0 2.25-1.0312 2.25-2.2031 0-1.2031-0.98438-2.2031-2.25-2.2031zm-0.078125 0.8125c0.35938 0 0.90625 0 1.3438 0.21875 0.45312 0.23438 0.73438 0.67188 0.73438 1.1562 0 0.4375-0.20312 0.875-0.67188 1.1406-0.4375 0.25-1.0469 0.25-1.4062 0.25-0.39062 0-0.92188 0-1.3594-0.23438-0.45312-0.26562-0.67188-0.73438-0.67188-1.1406 0-0.4375 0.21875-0.85938 0.65625-1.125 0.42188-0.26562 1-0.26562 1.375-0.26562z"/>
</symbol>
<symbol id="w" overflow="visible">
<path d="m-4.0312-4.8281c-0.17188 0-0.48438 0.10938-0.48438 0.5 0 0.20312 0.0625 0.64062 0.46875 1.0625-0.32812 0.42188-0.35938 0.82812-0.35938 1.0469 0 0.9375 0.6875 1.625 1.4531 1.625 0.4375 0 0.8125-0.21875 1.0312-0.46875 0.14062 0.125 0.46875 0.3125 0.82812 0.3125 0.3125 0 0.6875-0.14062 0.89062-0.45312 0.15625 0.60938 0.59375 0.92188 0.98438 0.92188 0.71875 0 1.2656-0.98438 1.2656-2.2031 0-1.1719-0.5-2.2031-1.2812-2.2031-0.34375 0-0.85938 0.125-1.1406 0.64062-0.26562 0.53125-0.26562 1.1094-0.26562 1.7188 0 0.25 0 0.67188-0.015625 0.75-0.046875 0.3125-0.34375 0.51562-0.67188 0.51562-0.03125 0-0.26562 0-0.46875-0.15625 0.28125-0.39062 0.3125-0.8125 0.3125-1 0-0.92188-0.6875-1.6094-1.4531-1.6094-0.375 0-0.73438 0.15625-0.96875 0.40625-0.34375-0.35938-0.39062-0.71875-0.39062-0.89062 0 0 0-0.078125 0.015625-0.10938 0.03125 0.10938 0.14062 0.17188 0.26562 0.17188 0.17188 0 0.28125-0.14062 0.28125-0.29688 0-0.09375-0.0625-0.28125-0.29688-0.28125zm1.0781 1.75c0.26562 0 0.59375 0 0.84375 0.15625 0.10938 0.078125 0.39062 0.3125 0.39062 0.70312 0 0.875-1 0.875-1.2188 0.875-0.26562 0-0.59375-0.015625-0.84375-0.15625-0.10938-0.078125-0.39062-0.3125-0.39062-0.71875 0-0.85938 0.98438-0.85938 1.2188-0.85938zm3.7344-1.0938c0.54688 0 1.0469 0.70312 1.0469 1.6719 0 1.0156-0.51562 1.7031-1.0469 1.7031-0.45312 0-0.82812-0.375-0.84375-0.8125v-0.59375c0-0.85938 0-1.9688 0.84375-1.9688z"/>
</symbol>
<symbol id="d" overflow="visible">
<path d="m-0.89062-4.8125h-0.5625v0.25h0.5625c0.57812 0 0.64062 0.25 0.64062 0.35938 0 0.32812-0.45312 0.35938-0.5 0.35938h-1.9844c-0.42188 0-0.8125 0-1.1875 0.35938-0.39062 0.39062-0.54688 0.89062-0.54688 1.375 0 0.8125 0.46875 1.5 1.125 1.5 0.29688 0 0.46875-0.20312 0.46875-0.45312 0-0.28125-0.20312-0.46875-0.45312-0.46875-0.125 0-0.45312 0.0625-0.45312 0.51562-0.35938-0.26562-0.46875-0.76562-0.46875-1.0781 0-0.48438 0.39062-1.0625 1.2812-1.0625h0.35938c0.03125 0.51562 0.0625 1.2188 0.35938 1.8438 0.34375 0.75 0.85938 1 1.2969 1 0.8125 0 1.0625-0.96875 1.0625-1.5938 0-0.67188-0.40625-1.125-0.85938-1.3125 0.39062-0.046875 0.8125-0.3125 0.8125-0.78125 0-0.20312-0.14062-0.8125-0.95312-0.8125zm-0.5 1.6562c0.9375 0 1.2812 0.71875 1.2812 1.1719 0 0.48438-0.34375 0.89062-0.84375 0.89062-0.54688 0-1.375-0.40625-1.4375-2.0625z"/>
</symbol>
<symbol id="v" overflow="visible">
<path d="m-3.7969-3.625c-0.3125 0-0.60938 0.3125-0.60938 0.73438 0 0.73438 0.67188 1.0938 1.0938 1.2188h-1.0938l0.10938 1.3906h0.3125c0-0.70312 0.0625-0.78125 0.5625-0.78125h2.6719c0.4375 0 0.4375 0.10938 0.4375 0.78125h0.3125l-0.03125-1.1406c0-0.39062 0-0.85938 0.03125-1.2656h-0.3125v0.21875c0 0.73438-0.10938 0.75-0.46875 0.75h-1.5312c-0.98438 0-1.875-0.42188-1.875-1.1719 0-0.0625 0-0.09375 0.015625-0.10938 0 0.03125 0.125 0.23438 0.39062 0.23438s0.42188-0.21875 0.42188-0.4375c0-0.17188-0.125-0.42188-0.4375-0.42188z"/>
</symbol>
<symbol id="u" overflow="visible">
<path d="m0-2.4688h-0.3125c0 0.67188-0.046875 0.70312-0.4375 0.70312h-3.6562l0.10938 1.3906h0.3125c0-0.64062 0.0625-0.73438 0.54688-0.73438h2.6875c0.4375 0 0.4375 0.10938 0.4375 0.78125h0.3125l-0.03125-1.0938c0-0.35938 0.015625-0.70312 0.03125-1.0469zm-6.5938-0.15625c-0.1875 0-0.35938 0.1875-0.35938 0.35938 0 0.15625 0.10938 0.26562 0.17188 0.29688l1.5156 1.2031 0.1875-0.17188-1.2188-1.5156c-0.078125-0.09375-0.1875-0.17188-0.29688-0.17188z"/>
</symbol>
<symbol id="c" overflow="visible">
<path d="m-1.2344-3.3125h-0.5625v0.25h0.54688c0.73438 0 1.1094 0.29688 1.1094 0.67188 0 0.67188-0.90625 0.67188-1.0781 0.67188h-2.7656v-1.4375h-0.3125v1.4375h-1.8281v0.25c0.8125 0 1.875 0.29688 1.9219 1.2812h0.21875v-0.84375h2.75c1.2188 0 1.3438-0.9375 1.3438-1.2969 0-0.70312-0.70312-0.98438-1.3438-0.98438z"/>
</symbol>
<symbol id="g" overflow="visible">
<path d="m0-2.4688h-0.3125c0 0.67188-0.046875 0.70312-0.4375 0.70312h-3.6562l0.10938 1.3906h0.3125c0-0.64062 0.0625-0.73438 0.54688-0.73438h2.6875c0.4375 0 0.4375 0.10938 0.4375 0.78125h0.3125l-0.03125-1.0938c0-0.35938 0.015625-0.70312 0.03125-1.0469zm-6.0156 0.5625c-0.28125 0-0.53125 0.21875-0.53125 0.51562 0 0.34375 0.28125 0.54688 0.53125 0.54688 0.26562 0 0.51562-0.23438 0.51562-0.53125 0-0.34375-0.26562-0.53125-0.51562-0.53125z"/>
</symbol>
<symbol id="t" overflow="visible">
<path d="m0-8.1094h-0.3125c0 0.51562 0 0.76562-0.29688 0.78125h-1.9062c-0.85938 0-1.1562 0-1.5156 0.3125-0.17188 0.14062-0.375 0.46875-0.375 1.0469 0 0.82812 0.59375 1.2812 0.98438 1.4375-0.875 0.14062-0.98438 0.875-0.98438 1.3281 0 0.73438 0.42188 1.2031 1.0469 1.4844h-1.0469l0.10938 1.4062h0.3125c0-0.70312 0.0625-0.78125 0.5625-0.78125h2.6719c0.4375 0 0.4375 0.10938 0.4375 0.78125h0.3125l-0.03125-1.1406 0.03125-1.1094h-0.3125c0 0.67188 0 0.78125-0.4375 0.78125h-1.8438c-1.0312 0-1.5938-0.71875-1.5938-1.3438 0-0.64062 0.53125-0.75 1.1094-0.75h2.3281c0.4375 0 0.4375 0.10938 0.4375 0.78125h0.3125l-0.03125-1.125 0.03125-1.1094h-0.3125c0 0.65625 0 0.76562-0.4375 0.76562h-1.8438c-1.0312 0-1.5938-0.70312-1.5938-1.3438 0-0.625 0.53125-0.73438 1.1094-0.73438h2.3281c0.4375 0 0.4375 0.10938 0.4375 0.78125h0.3125l-0.03125-1.125z"/>
</symbol>
<symbol id="ab" overflow="visible">
<path d="m0-5.25h-0.3125c0 0.6875-0.0625 0.78125-0.5625 0.78125h-6.0469l0.10938 1.4219h0.3125c0-0.6875 0.0625-0.76562 0.5625-0.76562h2.1562c-0.35938 0.28125-0.625 0.71875-0.625 1.25 0 1.1719 0.98438 2.2188 2.2656 2.2188 1.2656 0 2.25-0.96875 2.25-2.1094 0-0.64062-0.34375-1.0781-0.65625-1.3281h0.65625zm-1.1719 1.4688c0.17188 0 0.1875 0 0.35938 0.10938 0.48438 0.29688 0.70312 0.73438 0.70312 1.1719 0 0.45312-0.26562 0.8125-0.64062 1.0469-0.40625 0.25-0.96875 0.28125-1.3906 0.28125-0.35938 0-0.95312-0.015625-1.4062-0.29688-0.3125-0.21875-0.64062-0.59375-0.64062-1.1406 0-0.34375 0.15625-0.76562 0.59375-1.0625 0.17188-0.10938 0.1875-0.10938 0.375-0.10938z"/>
</symbol>
<symbol id="j" overflow="visible">
<path d="m-1.1875-4.1406c-0.09375 0-0.09375 0.10938-0.09375 0.14062 0 0.078125 0.03125 0.10938 0.09375 0.125 0.92188 0.28125 1.0469 0.9375 1.0469 1.2969 0 0.53125-0.42188 1.4062-2.0312 1.4062-1.625 0-2.0469-0.8125-2.0469-1.3438 0-0.09375 0.015625-0.71875 0.375-1.0625 0.03125 0.40625 0.32812 0.46875 0.45312 0.46875 0.26562 0 0.45312-0.1875 0.45312-0.45312s-0.15625-0.46875-0.46875-0.46875c-0.67188 0-1.0625 0.76562-1.0625 1.5312 0 1.25 1.0781 2.1562 2.3125 2.1562 1.2812 0 2.2656-0.98438 2.2656-2.1406 0-1.3281-1.2031-1.6562-1.2969-1.6562z"/>
</symbol>
<symbol id="i" overflow="visible">
<path d="m0-5.3281h-0.3125c0 0.51562 0 0.76562-0.29688 0.76562h-1.9062c-0.85938 0-1.1562 0-1.5156 0.3125-0.17188 0.14062-0.375 0.46875-0.375 1.0469 0 0.73438 0.42188 1.2031 1.0469 1.4844h-1.0469l0.10938 1.4062h0.3125c0-0.70312 0.0625-0.78125 0.5625-0.78125h2.6719c0.4375 0 0.4375 0.10938 0.4375 0.78125h0.3125l-0.03125-1.1406 0.03125-1.1094h-0.3125c0 0.67188 0 0.78125-0.4375 0.78125h-1.8438c-1.0312 0-1.5938-0.71875-1.5938-1.3438 0-0.64062 0.53125-0.75 1.1094-0.75h2.3281c0.4375 0 0.4375 0.10938 0.4375 0.78125h0.3125l-0.03125-1.125z"/>
</symbol>
<symbol id="aa" overflow="visible">
<path d="m-1.2812-3.5938c-0.51562 0-0.82812 0.29688-0.9375 0.42188-0.32812 0.32812-0.40625 0.71875-0.48438 1.1406-0.10938 0.5625-0.23438 1.2188-0.8125 1.2188-0.35938 0-0.76562-0.25-0.76562-1.1094 0-1.0938 0.90625-1.1562 1.2031-1.1719 0.09375 0 0.09375-0.10938 0.09375-0.10938 0-0.14062-0.046875-0.14062-0.23438-0.14062h-1.0156c-0.15625 0-0.23438 0-0.23438 0.10938 0 0.046875 0 0.078125 0.125 0.20312 0.03125 0.03125 0.125 0.125 0.15625 0.17188-0.28125 0.375-0.28125 0.78125-0.28125 0.9375 0 1.2188 0.67188 1.5938 1.2344 1.5938 0.34375 0 0.625-0.15625 0.84375-0.42188 0.25-0.32812 0.3125-0.60938 0.45312-1.3281 0.046875-0.21875 0.20312-1.0312 0.92188-1.0312 0.5 0 0.90625 0.34375 0.90625 1.125 0 0.84375-0.5625 1.2031-1.4219 1.3906-0.125 0.03125-0.15625 0.03125-0.15625 0.14062 0 0.125 0.0625 0.125 0.23438 0.125h1.3281c0.17188 0 0.23438 0 0.23438-0.10938 0-0.046875-0.015625-0.0625-0.20312-0.25-0.015625-0.015625-0.03125-0.015625-0.21875-0.20312 0.40625-0.4375 0.42188-0.89062 0.42188-1.0938 0-1.1406-0.67188-1.6094-1.3906-1.6094z"/>
</symbol>
<symbol id="z" overflow="visible">
<path d="m-1.1875-4.1406c-0.09375 0-0.125 0.078125-0.125 0.14062 0 0.078125 0.0625 0.10938 0.14062 0.125 1.0312 0.34375 1.0312 1.25 1.0312 1.3438 0 0.5-0.29688 0.89062-0.67188 1.125-0.46875 0.29688-1.125 0.29688-1.4844 0.29688v-2.7812c0-0.21875 0-0.25-0.21875-0.25-0.98438 0-1.9531 0.54688-1.9531 1.7812 0 1.1562 1.0312 2.0781 2.2812 2.0781 1.3281 0 2.2969-1.0469 2.2969-2.1875 0-1.2188-1.1094-1.6719-1.2969-1.6719zm-1.3281 0.65625v2.375c-1.4844-0.0625-1.7344-0.90625-1.7344-1.25 0-1.0156 1.3438-1.125 1.7344-1.125z"/>
</symbol>
<symbol id="y" overflow="visible">
<path d="m-1.1875-4.1406c-0.09375 0-0.125 0.078125-0.125 0.14062 0 0.078125 0.0625 0.10938 0.14062 0.125 1.0312 0.34375 1.0312 1.25 1.0312 1.3438 0 0.5-0.29688 0.89062-0.67188 1.125-0.46875 0.29688-1.125 0.29688-1.4844 0.29688v-2.7812c0-0.21875 0-0.25-0.21875-0.25-0.98438 0-1.9531 0.54688-1.9531 1.7812 0 1.1562 1.0312 2.0781 2.2812 2.0781 1.3281 0 2.2969-1.0469 2.2969-2.1875 0-1.2188-1.1094-1.6719-1.2969-1.6719zm-1.3281 0.65625v2.375c-1.4844-0.0625-1.7344-0.90625-1.7344-1.25 0-1.0156 1.3438-1.125 1.7344-1.125zm-4.0781 0.03125c-0.1875 0-0.35938 0.1875-0.35938 0.35938 0 0.15625 0.10938 0.26562 0.17188 0.29688l1.5156 1.2031 0.1875-0.17188-1.2188-1.5156c-0.078125-0.09375-0.1875-0.17188-0.29688-0.17188z"/>
</symbol>
<symbol id="x" overflow="visible">
<path d="m-0.015625-2.0312c-0.625 0-1.0469 0.25-1.0469 0.64062 0 0.35938 0.28125 0.53125 0.53125 0.53125 0.26562 0 0.53125-0.17188 0.53125-0.53125 0-0.14062-0.0625-0.28125-0.15625-0.39062 0.78125-0.015625 1.3906 0.25 1.8594 0.6875 0.0625 0.0625 0.078125 0.078125 0.10938 0.078125 0.078125 0 0.10938-0.046875 0.10938-0.09375 0-0.125-0.78125-0.92188-1.9375-0.92188z"/>
</symbol>
<symbol id="s" overflow="visible">
<path d="m0-2.5469h-0.3125c0 0.67188 0 0.78125-0.4375 0.78125h-6.1719l0.10938 1.4375h0.3125c0-0.70312 0.0625-0.78125 0.5625-0.78125h5.1875c0.4375 0 0.4375 0.10938 0.4375 0.78125h0.3125l-0.03125-1.1094z"/>
</symbol>
<symbol id="r" overflow="visible">
<path d="m0-5.3281h-0.3125c0 0.51562 0 0.76562-0.29688 0.76562h-1.9062c-0.85938 0-1.1562 0-1.5156 0.3125-0.17188 0.14062-0.375 0.46875-0.375 1.0469 0 0.73438 0.42188 1.2031 1.0469 1.4844h-1.0469l0.10938 1.4062h0.3125c0-0.70312 0.0625-0.78125 0.5625-0.78125h2.6719c0.4375 0 0.4375 0.10938 0.4375 0.78125h0.3125l-0.03125-1.1406 0.03125-1.1094h-0.3125c0 0.67188 0 0.78125-0.4375 0.78125h-1.8438c-1.0312 0-1.5938-0.71875-1.5938-1.3438 0-0.64062 0.53125-0.75 1.1094-0.75h2.3281c0.4375 0 0.4375 0.10938 0.4375 0.78125h0.3125l-0.03125-1.125z"/>
</symbol>
<symbol id="q" overflow="visible">
<path d="m-1.4219-4.8906c-0.10938 0-0.10938 0.09375-0.10938 0.125 0 0.09375 0.046875 0.10938 0.1875 0.14062 0.71875 0.20312 1.2344 0.42188 1.2344 0.85938 0 0.20312-0.10938 0.32812-0.46875 0.32812-0.17188 0-0.40625-0.046875-0.5625-0.078125-0.17188-0.046875-0.20312-0.046875-0.3125-0.046875-0.64062 0-0.92188 0.625-1.0469 1.4844-0.17188-0.3125-0.48438-0.64062-0.73438-0.85938-0.53125-0.48438-0.95312-0.9375-0.95312-1.4219 0-0.0625 0-0.078125 0.015625-0.09375 0.015625-0.125 0.015625-0.125 0.078125-0.21875 0-0.015625 0.015625-0.015625 0.03125-0.03125 0.03125 0.46875 0.42188 0.5625 0.54688 0.5625 0.15625 0 0.34375-0.10938 0.34375-0.375s-0.21875-0.54688-0.60938-0.54688c-0.29688 0-0.625 0.23438-0.625 0.67188 0 0.28125 0.078125 0.73438 0.875 1.4531 0.375 0.34375 0.78125 0.73438 0.92188 1.1094l-4.2031-1.0312s-0.10938 0-0.10938 0.125c0 0.23438 0.078125 0.95312 0.10938 1.2188 0 0.078125 0.015625 0.1875 0.1875 0.1875 0.125 0 0.125-0.09375 0.125-0.23438 0-0.48438 0.0625-0.5 0.17188-0.5l0.20312 0.03125 5.7344 1.4375c0.14062 0.046875 0.15625 0.046875 0.21875 0.046875 0.23438 0 0.28125-0.20312 0.28125-0.29688 0-0.125-0.09375-0.26562-0.20312-0.32812-0.09375-0.046875-1.9375-0.5-2.1875-0.5625 0.03125-0.34375 0.1875-1.1562 0.84375-1.1562 0.078125 0 0.10938 0 0.21875 0.03125 0.10938 0.015625 0.23438 0.03125 0.34375 0.03125 0.57812 0 0.98438-0.39062 0.98438-0.90625 0-0.29688-0.15625-0.57812-0.53125-0.79688-0.4375-0.25-1-0.35938-1-0.35938z"/>
</symbol>
<clipPath id="bn">
<path d="m12.406 1.6094h194.28v161.39h-194.28z"/>
</clipPath>
<clipPath id="bc">
<path d="m12.406 1.6094h194.28v73.391h-194.28z"/>
</clipPath>
<clipPath id="az">
<path d="m12.406 158h14.594v5h-14.594z"/>
</clipPath>
<clipPath id="ay">
<path d="m18 158h20v5h-20z"/>
</clipPath>
<clipPath id="ax">
<path d="m28 158h20v5h-20z"/>
</clipPath>
<clipPath id="aw">
<path d="m38 158h20v5h-20z"/>
</clipPath>
<clipPath id="av">
<path d="m49 158h19v5h-19z"/>
</clipPath>
<clipPath id="au">
<path d="m59 158h20v5h-20z"/>
</clipPath>
<clipPath id="at">
<path d="m69 158h20v5h-20z"/>
</clipPath>
<clipPath id="bm">
<path d="m79 158h20v5h-20z"/>
</clipPath>
<clipPath id="bl">
<path d="m89 158h20v5h-20z"/>
</clipPath>
<clipPath id="bk">
<path d="m100 158h19v5h-19z"/>
</clipPath>
<clipPath id="bj">
<path d="m110 158h20v5h-20z"/>
</clipPath>
<clipPath id="bi">
<path d="m120 158h20v5h-20z"/>
</clipPath>
<clipPath id="bh">
<path d="m130 158h20v5h-20z"/>
</clipPath>
<clipPath id="bg">
<path d="m141 158h19v5h-19z"/>
</clipPath>
<clipPath id="bf">
<path d="m151 158h20v5h-20z"/>
</clipPath>
<clipPath id="be">
<path d="m161 158h20v5h-20z"/>
</clipPath>
<clipPath id="bd">
<path d="m171 158h20v5h-20z"/>
</clipPath>
<clipPath id="bb">
<path d="m181 158h20v5h-20z"/>
</clipPath>
<clipPath id="ba">
<path d="m192 158h14.684v5h-14.684z"/>
</clipPath>
</defs>
<path transform="matrix(1 0 0 -1 12.408 203.35)" d="m-0.00175 40.347v161.39h194.28v-161.39z" fill="none" stroke="#000" stroke-miterlimit="10" stroke-width=".3985"/>
<g fill="#dc3445">
<use x="17.86" y="173.383" xlink:href="#as"/>
<use x="25.60891" y="173.383" xlink:href="#p"/>
<use x="31.144131" y="173.383" xlink:href="#b"/>
<use x="35.572507" y="173.383" xlink:href="#o"/>
<use x="40.828774" y="173.383" xlink:href="#f"/>
<use x="44.703229" y="173.383" xlink:href="#b"/>
</g>
<g fill="#0c6dfd">
<use x="180.251" y="173.383" xlink:href="#ag"/>
<use x="185.927689" y="173.383" xlink:href="#e"/>
<use x="189.83004" y="173.383" xlink:href="#n"/>
<use x="192.59765" y="173.383" xlink:href="#m"/>
</g>
<g clip-path="url(#bn)">
<path transform="matrix(1 0 0 -1 12.408 203.35)" d="m-0.00175 193.67 3.9141-3.9023 1.3047-1.2969 1.3008-1.3008 2.6094-2.6016 1.3047-1.2969 1.3047-1.3008 1.3008-1.3008 1.3047-1.3008 1.3047-1.2969 1.3047-1.3008 1.3008-1.3008 1.3047-1.3008 1.3047-1.2969 2.6094-2.6016 1.3008-1.3008 1.3047-1.2969 3.9141-3.9023 5.2148-5.1992 5.2148-5.1992 1.3047-1.2969 1.3008-1.3008 2.6094-2.6016 1.3047-1.2969 1.3008-1.3008 2.6094-2.6016 1.3047-1.2969 1.3047-1.3008 1.3008-1.3008 1.3047-1.3008 1.3047-1.2969 2.6094-2.6016 1.3008-1.3008 1.3047-1.2969 2.6094-2.6016 1.3008-1.3008 1.3047-1.2969 3.9141-3.9023 3.9102-3.8984 1.3047-1.2969 1.3047-1.3008 1.3008-1.3008 1.3047-1.3008 1.3047-1.2969 1.3047-1.3008 1.3008-1.3008 1.3047-1.3008 1.3047-1.2969 2.6094-2.6016 1.3008-1.3008 1.3047-1.2969 3.9141-3.9023 5.2148-5.1992 5.2148-5.1992 1.3047-1.2969 1.3008-1.3008 2.6094-2.6016 1.3047-1.2969 1.3047-1.3008 1.3008-1.3008 1.3047-1.3008 1.3047-1.2969 1.3047-1.3008 1.3008-1.3008 1.3047-1.3008 1.3047-1.2969 2.6094-2.6016 1.3008-1.3008 1.3047-1.2969 3.9141-3.9023 5.2148-5.1992 5.2148-5.1992 1.3047-1.2969 1.3008-1.3008 2.6094-2.6016 1.3047-1.2969 1.3047-1.3008 1.3008-1.3008 1.3047-1.3008 1.3047-1.2969 1.3047-1.3008 1.3008-1.3008 1.3047-1.3008 1.3047-1.2969 2.6094-2.6016 1.3008-1.3008 1.3047-1.2969 3.9141-3.9023 5.2148-5.1992 5.2148-5.1992 1.3047-1.2969 1.3008-1.3008 2.6094-2.6016 1.3047-1.2969 1.3008-1.3008 2.6094-2.6016 1.3047-1.2969 1.3047-1.3008 1.3008-1.3008" fill="none" stroke="#fd7e13" stroke-miterlimit="10" stroke-width="1.1955"/>
</g>
<g clip-path="url(#bc)">
<path transform="matrix(1 0 0 -1 12.408 203.35)" d="m-0.00175 193.67 1.3047-0.32812 3.9141-0.97266 1.3008-0.32422 1.3047-0.32422 1.3047-0.32812 2.6094-0.64844 1.3008-0.32422 1.3047-0.32422 1.3047-0.32812 1.3047-0.32422 1.3008-0.32422 2.6094-0.64844 1.3047-0.32812 1.3047-0.32422 1.3008-0.32422 3.9141-0.97266 1.3047-0.32812 1.3008-0.32422 3.9141-0.97266 1.3008-0.32812 5.2188-1.2969 1.3008-0.32812 3.9141-0.97266 1.3008-0.32422 1.3047-0.32422 1.3047-0.32812 2.6094-0.64844 1.3008-0.32422 1.3047-0.32422 1.3047-0.32812 2.6094-0.64844 1.3008-0.32422 1.3047-0.32422 1.3047-0.32812 1.3047-0.32422 1.3008-0.32422 3.9141-0.97266 1.3047-0.32812 1.3008-0.32422 3.9141-0.97266 1.3047-0.32812 1.3008-0.32422 3.9141-0.97266 1.3008-0.32812 5.2188-1.2969 1.3008-0.32422 1.3047-0.32812 3.9141-0.97266 1.3008-0.32422 1.3047-0.32812 2.6094-0.64844 1.3008-0.32422 1.3047-0.32422 1.3047-0.32812 2.6094-0.64844 1.3008-0.32422 2.6094-0.64844 1.3047-0.32812 1.3047-0.32422 1.3008-0.32422 2.6094-0.64844 1.3047-0.32812 1.3008-0.32422 5.2188-1.2969 1.3008-0.32812 5.2188-1.2969 1.3008-0.32812 3.9141-0.97266 1.3008-0.32422 1.3047-0.32812 3.9141-0.97266 1.3008-0.32422 1.3047-0.32422 1.3047-0.32812 2.6094-0.64844 1.3008-0.32422 1.3047-0.32422 1.3047-0.32812 1.3047-0.32422 1.3008-0.32422 2.6094-0.64844 1.3047-0.32812 1.3047-0.32422 1.3008-0.32422 3.9141-0.97266 1.3047-0.32812 1.3008-0.32422 3.9141-0.97266 1.3008-0.32812 5.2188-1.2969 1.3008-0.32812 3.9141-0.97266 1.3008-0.32422 1.3047-0.32422 1.3047-0.32812 2.6094-0.64844 1.3008-0.32422" fill="none" stroke="#fd7e13" stroke-miterlimit="10" stroke-width="1.1955"/>
</g>
<g clip-path="url(#az)">
<path transform="matrix(1 0 0 -1 12.408 203.35)" d="m-0.00175 40.347h10.227" fill="none" stroke="#d63649" stroke-miterlimit="10" stroke-width="8.5789"/>
</g>
<g clip-path="url(#ay)">
<path transform="matrix(1 0 0 -1 12.408 203.35)" d="m10.225 40.347h10.227" fill="none" stroke="#cb3953" stroke-miterlimit="10" stroke-width="8.5789"/>
</g>
<g clip-path="url(#ax)">
<path transform="matrix(1 0 0 -1 12.408 203.35)" d="m20.451 40.347h10.223" fill="none" stroke="#c03c5d" stroke-miterlimit="10" stroke-width="8.5789"/>
</g>
<g clip-path="url(#aw)">
<path transform="matrix(1 0 0 -1 12.408 203.35)" d="m30.674 40.347h10.227" fill="none" stroke="#b53f67" stroke-miterlimit="10" stroke-width="8.5789"/>
</g>
<g clip-path="url(#av)">
<path transform="matrix(1 0 0 -1 12.408 203.35)" d="m40.901 40.347h10.223" fill="none" stroke="#aa4270" stroke-miterlimit="10" stroke-width="8.5789"/>
</g>
<g clip-path="url(#au)">
<path transform="matrix(1 0 0 -1 12.408 203.35)" d="m51.123 40.347h10.227" fill="none" stroke="#9f457a" stroke-miterlimit="10" stroke-width="8.5789"/>
</g>
<g clip-path="url(#at)">
<path transform="matrix(1 0 0 -1 12.408 203.35)" d="m61.35 40.347h10.227" fill="none" stroke="#944884" stroke-miterlimit="10" stroke-width="8.5789"/>
</g>
<g clip-path="url(#bm)">
<path transform="matrix(1 0 0 -1 12.408 203.35)" d="m71.576 40.347h10.223" fill="none" stroke="#894b8e" stroke-miterlimit="10" stroke-width="8.5789"/>
</g>
<g clip-path="url(#bl)">
<path transform="matrix(1 0 0 -1 12.408 203.35)" d="m81.799 40.347h10.227" fill="none" stroke="#7e4e97" stroke-miterlimit="10" stroke-width="8.5789"/>
</g>
<g clip-path="url(#bk)">
<path transform="matrix(1 0 0 -1 12.408 203.35)" d="m92.026 40.347h10.223" fill="none" stroke="#7351a1" stroke-miterlimit="10" stroke-width="8.5789"/>
</g>
<g clip-path="url(#bj)">
<path transform="matrix(1 0 0 -1 12.408 203.35)" d="m102.25 40.347h10.227" fill="none" stroke="#6854ab" stroke-miterlimit="10" stroke-width="8.5789"/>
</g>
<g clip-path="url(#bi)">
<path transform="matrix(1 0 0 -1 12.408 203.35)" d="m112.47 40.347h10.223" fill="none" stroke="#5d57b5" stroke-miterlimit="10" stroke-width="8.5789"/>
</g>
<g clip-path="url(#bh)">
<path transform="matrix(1 0 0 -1 12.408 203.35)" d="m122.7 40.347h10.227" fill="none" stroke="#525abe" stroke-miterlimit="10" stroke-width="8.5789"/>
</g>
<g clip-path="url(#bg)">
<path transform="matrix(1 0 0 -1 12.408 203.35)" d="m132.92 40.347h10.227" fill="none" stroke="#475dc8" stroke-miterlimit="10" stroke-width="8.5789"/>
</g>
<g clip-path="url(#bf)">
<path transform="matrix(1 0 0 -1 12.408 203.35)" d="m143.15 40.347h10.223" fill="none" stroke="#3c60d2" stroke-miterlimit="10" stroke-width="8.5789"/>
</g>
<g clip-path="url(#be)">
<path transform="matrix(1 0 0 -1 12.408 203.35)" d="m153.37 40.347h10.227" fill="none" stroke="#3163dc" stroke-miterlimit="10" stroke-width="8.5789"/>
</g>
<g clip-path="url(#bd)">
<path transform="matrix(1 0 0 -1 12.408 203.35)" d="m163.6 40.347h10.223" fill="none" stroke="#2666e5" stroke-miterlimit="10" stroke-width="8.5789"/>
</g>
<g clip-path="url(#bb)">
<path transform="matrix(1 0 0 -1 12.408 203.35)" d="m173.82 40.347h10.227" fill="none" stroke="#1b69ef" stroke-miterlimit="10" stroke-width="8.5789"/>
</g>
<g clip-path="url(#ba)">
<path transform="matrix(1 0 0 -1 12.408 203.35)" d="m184.05 40.347h10.227" fill="none" stroke="#116cf9" stroke-miterlimit="10" stroke-width="8.5789"/>
</g>
<path transform="matrix(1 0 0 -1 12.408 203.35)" d="m27.514 91.906h40.898v14.996h-40.898z" fill="none" stroke="#000" stroke-miterlimit="10" stroke-width=".3985"/>
<g>
<use x="43.242" y="106.629" xlink:href="#ar"/>
<use x="50.71395" y="106.629" xlink:href="#aq"/>
<use x="53.48156" y="106.629" xlink:href="#f"/>
<use x="57.356015" y="106.629" xlink:href="#a"/>
<use x="65.658" y="106.629" xlink:href="#l"/>
<use x="73.012" y="108.123" xlink:href="#k"/>
</g>
<path transform="matrix(1 0 0 -1 12.408 203.35)" d="m77.709 116.2-16.117-9.1016" fill="none" stroke="#7f7f7f" stroke-miterlimit="10" stroke-width=".19925"/>
<path transform="matrix(1 0 0 -1 12.408 203.35)" d="m99.272 130.64h46.848v14.996h-46.848z" fill="none" stroke="#000" stroke-miterlimit="10" stroke-width=".3985"/>
<g>
<use x="115.001" y="67.895" xlink:href="#ap"/>
<use x="122.05751" y="67.895" xlink:href="#a"/>
<use x="127.03881" y="67.895" xlink:href="#n"/>
<use x="129.80642" y="67.895" xlink:href="#ao"/>
<use x="135.06468" y="67.895" xlink:href="#a"/>
<use x="143.366" y="67.895" xlink:href="#l"/>
<use x="150.721" y="69.39" xlink:href="#k"/>
</g>
<path transform="matrix(1 0 0 -1 12.408 203.35)" d="m155.42 154.94-17.73-9.1016" fill="none" stroke="#7f7f7f" stroke-miterlimit="10" stroke-width=".19925"/>
<g>
<use x="46.788" y="189.632" xlink:href="#an"/>
<use x="50.385495" y="189.632" xlink:href="#o"/>
<use x="55.641763" y="189.632" xlink:href="#am"/>
<use x="60.62107" y="189.632" xlink:href="#b"/>
<use x="65.049446" y="189.632" xlink:href="#e"/>
<use x="68.951796" y="189.632" xlink:href="#al"/>
<use x="72.882042" y="189.632" xlink:href="#m"/>
<use x="81.19085" y="189.632" xlink:href="#ak"/>
<use x="86.726071" y="189.632" xlink:href="#a"/>
<use x="95.024917" y="189.632" xlink:href="#f"/>
<use x="98.899372" y="189.632" xlink:href="#b"/>
<use x="103.327748" y="189.632" xlink:href="#aj"/>
<use x="111.629582" y="189.632" xlink:href="#ai"/>
<use x="117.443755" y="189.632" xlink:href="#b"/>
<use x="121.872131" y="189.632" xlink:href="#e"/>
<use x="125.764519" y="189.632" xlink:href="#a"/>
<use x="130.745819" y="189.632" xlink:href="#f"/>
<use x="134.620274" y="189.632" xlink:href="#p"/>
<use x="140.155495" y="189.632" xlink:href="#e"/>
<use x="144.057845" y="189.632" xlink:href="#a"/>
<use x="149.039145" y="189.632" xlink:href="#ah"/>
<use x="155.132" y="189.632" xlink:href="#ad"/>
<use x="160.113" y="189.632" xlink:href="#af"/>
<use x="165.0943" y="189.632" xlink:href="#ae"/>
<use x="6.951" y="164.488" xlink:href="#ac"/>
<use x="6.951" y="158.261375" xlink:href="#h"/>
<use x="6.951" y="153.280075" xlink:href="#w"/>
<use x="6.951" y="148.298775" xlink:href="#d"/>
<use x="6.951" y="143.317475" xlink:href="#v"/>
<use x="6.951" y="139.415125" xlink:href="#u"/>
<use x="6.951" y="136.647514" xlink:href="#c"/>
<use x="6.951" y="132.773059" xlink:href="#g"/>
<use x="6.951" y="130.005449" xlink:href="#t"/>
<use x="6.951" y="121.703614" xlink:href="#h"/>
<use x="6.951" y="113.404768" xlink:href="#ab"/>
<use x="6.951" y="107.869548" xlink:href="#d"/>
<use x="6.951" y="99.56074" xlink:href="#j"/>
<use x="6.951" y="95.132364" xlink:href="#h"/>
<use x="6.951" y="90.151064" xlink:href="#i"/>
<use x="6.951" y="84.625806" xlink:href="#aa"/>
<use x="6.951" y="80.69556" xlink:href="#c"/>
<use x="6.951" y="76.821105" xlink:href="#d"/>
<use x="6.951" y="71.839805" xlink:href="#i"/>
<use x="6.951" y="66.573575" xlink:href="#c"/>
<use x="6.951" y="62.69912" xlink:href="#z"/>
<use x="6.951" y="54.953198" xlink:href="#j"/>
<use x="6.951" y="50.524822" xlink:href="#g"/>
<use x="6.951" y="47.757212" xlink:href="#i"/>
<use x="6.951" y="42.221991" xlink:href="#y"/>
<use x="6.951" y="37.793616" xlink:href="#c"/>
<use x="6.951" y="33.919161" xlink:href="#g"/>
<use x="6.951" y="31.15155" xlink:href="#j"/>
<use x="6.951" y="26.723175" xlink:href="#d"/>
<use x="6.951" y="21.741875" xlink:href="#x"/>
<use x="6.951" y="15.657" xlink:href="#s"/>
<use x="6.951" y="12.88939" xlink:href="#r"/>
<use x="6.951" y="5.622" xlink:href="#q"/>
</g>
</svg>
