<?xml version="1.0" encoding="UTF-8"?>
<svg width="106pt" height="27pt" version="1.1" viewBox="0 0 106 27" xmlns="http://www.w3.org/2000/svg" xmlns:xlink="http://www.w3.org/1999/xlink">
<defs>
<symbol id="a" overflow="visible">
<path d="m4.1406-1.1875c0-0.09375-0.078125-0.125-0.14062-0.125-0.078125 0-0.10938 0.0625-0.125 0.14062-0.34375 1.0312-1.25 1.0312-1.3438 1.0312-0.5 0-0.89062-0.29688-1.125-0.67188-0.29688-0.46875-0.29688-1.125-0.29688-1.4844h2.7812c0.21875 0 0.25 0 0.25-0.21875 0-0.98438-0.54688-1.9531-1.7812-1.9531-1.1562 0-2.0781 1.0312-2.0781 2.2812 0 1.3281 1.0469 2.2969 2.1875 2.2969 1.2188 0 1.6719-1.1094 1.6719-1.2969zm-0.65625-1.3281h-2.375c0.0625-1.4844 0.90625-1.7344 1.25-1.7344 1.0156 0 1.125 1.3438 1.125 1.7344z"/>
</symbol>
<clipPath id="e">
<path d="m0 14h12v13h-12z"/>
</clipPath>
<clipPath id="d">
<path d="m2.4023 26.188-2.1133-2.1133 11.199-9.0859-9.0859 11.199"/>
</clipPath>
<clipPath id="c">
<path d="m94 14h12v13h-12z"/>
</clipPath>
<clipPath id="b">
<path d="m105.36 24.074-2.1133 2.1133-9.0859-11.199 11.199 9.0859"/>
</clipPath>
</defs>
<g clip-path="url(#e)">
<g clip-path="url(#d)">
<path transform="matrix(1,0,0,-1,11.489,14.988)" d="m-10.141-10.141 10.141 10.141" fill="none" stroke="#000" stroke-dasharray="0.59758,2.49008" stroke-miterlimit="10" stroke-width="2.9881"/>
</g>
</g>
<path transform="matrix(1,0,0,-1,11.489,14.988)" d="m-7.1875e-4 -2.8125e-4h14.344" fill="none" stroke="#000" stroke-linecap="round" stroke-miterlimit="10" stroke-width=".59758"/>
<path transform="matrix(1,0,0,-1,11.489,14.988)" d="m25.542-9.0862-2.1133-2.1133-9.0859 11.199z" stroke="#000" stroke-linejoin="bevel" stroke-miterlimit="10" stroke-width=".59758"/>
<path transform="matrix(1,0,0,-1,11.489,14.988)" d="m14.343-2.8125e-4v14.344" fill="none" stroke="#000" stroke-linecap="round" stroke-miterlimit="10" stroke-width=".59758"/>
<path transform="matrix(1,0,0,-1,11.489,14.988)" d="m14.343 14.343h-14.344" fill="none" stroke="#000" stroke-linecap="round" stroke-miterlimit="10" stroke-width=".59758"/>
<path transform="matrix(1,0,0,-1,11.489,14.988)" d="m-7.1875e-4 14.343v-14.344" fill="none" stroke="#000" stroke-linecap="round" stroke-miterlimit="10" stroke-width=".59758"/>
<g>
<use x="50.612" y="14.988" xlink:href="#a"/>
</g>
<path transform="matrix(1,0,0,-1,79.821,14.988)" d="m-9.0866-11.2-2.1133 2.1133 11.199 9.0859z" stroke="#000" stroke-linejoin="bevel" stroke-miterlimit="10" stroke-width=".59758"/>
<path transform="matrix(1,0,0,-1,79.821,14.988)" d="m-6.875e-4 -2.8125e-4h14.344" fill="none" stroke="#000" stroke-linecap="round" stroke-miterlimit="10" stroke-width=".59758"/>
<g clip-path="url(#c)">
<g clip-path="url(#b)">
<path transform="matrix(1,0,0,-1,79.821,14.988)" d="m24.484-10.141-10.141 10.141" fill="none" stroke="#000" stroke-dasharray="0.59758,2.49008" stroke-miterlimit="10" stroke-width="2.9881"/>
</g>
</g>
<path transform="matrix(1,0,0,-1,79.821,14.988)" d="m14.343-2.8125e-4v14.344" fill="none" stroke="#000" stroke-linecap="round" stroke-miterlimit="10" stroke-width=".59758"/>
<path transform="matrix(1,0,0,-1,79.821,14.988)" d="m14.343 14.343h-14.344" fill="none" stroke="#000" stroke-linecap="round" stroke-miterlimit="10" stroke-width=".59758"/>
<path transform="matrix(1,0,0,-1,79.821,14.988)" d="m-6.875e-4 14.343v-14.344" fill="none" stroke="#000" stroke-linecap="round" stroke-miterlimit="10" stroke-width=".59758"/>
</svg>
