<?xml version="1.0" encoding="UTF-8"?>
<svg width="169pt" height="51pt" version="1.1" viewBox="0 0 169 51" xmlns="http://www.w3.org/2000/svg" xmlns:xlink="http://www.w3.org/1999/xlink">
<defs>
<symbol id="c" overflow="visible">
<path d="m5.8594-0.45312-0.0625-0.6875c-0.29688 0.20312-0.57812 0.39062-0.92188 0.5-0.3125 0.10938-0.67188 0.10938-1 0.10938-0.65625 0-1.25-0.34375-1.6562-0.85938-0.45312-0.57812-0.67188-1.3281-0.67188-2.0625 0-0.75 0.21875-1.5 0.67188-2.0938 0.40625-0.5 1-0.85938 1.6562-0.85938 0.29688 0 0.59375 0.03125 0.89062 0.125s0.57812 0.23438 0.84375 0.42188l0.125-0.8125c-0.29688-0.125-0.59375-0.21875-0.92188-0.28125-0.3125-0.0625-0.625-0.078125-0.9375-0.078125-0.89062 0-1.6875 0.39062-2.2812 1.0469-0.60938 0.6875-0.9375 1.5938-0.9375 2.5312 0 0.92188 0.32812 1.8281 0.9375 2.5156 0.59375 0.64062 1.3906 1.0469 2.2812 1.0469 0.34375 0 0.6875-0.015625 1.0312-0.10938s0.64062-0.26562 0.95312-0.45312z"/>
</symbol>
<symbol id="b" overflow="visible">
<path d="m1.5625 0v-6.9219h-0.75v6.9219z"/>
</symbol>
<symbol id="a" overflow="visible">
<path d="m6.1094 0v-6.9219h-0.89062v3.0312h-3.3906v-3.0312h-0.89062v6.9219h0.89062v-3.2969h3.3906v3.2969z"/>
</symbol>
<symbol id="f" overflow="visible">
<path d="m6.0781-1.875c0-0.85938-0.85938-1.5781-1.9219-1.75 0.90625-0.21875 1.6562-0.79688 1.6562-1.5625 0-0.90625-1.0625-1.7344-2.4844-1.7344h-2.3594v6.9219h2.625c1.4375 0 2.4844-0.89062 2.4844-1.875zm-1.0469-3.2969c0 0.59375-0.70312 1.2812-2.0781 1.2812h-1.1562v-2.4688h1.25c1.1094 0 1.9844 0.53125 1.9844 1.1875zm0.25 3.2812c0 0.75-0.89062 1.3281-1.9688 1.3281h-1.5156v-2.7344h1.4375c1.0625 0 2.0469 0.60938 2.0469 1.4062z"/>
</symbol>
<symbol id="e" overflow="visible">
<path d="m3.2656-3.875v-0.65625c-0.89062 0-1.4375 0.5-1.75 0.95312v-0.90625h-0.70312v4.4844h0.75v-2.1406c0-0.98438 0.71875-1.7031 1.7031-1.7344z"/>
</symbol>
<symbol id="d" overflow="visible">
<path d="m4.1406-1.1875c0-0.09375-0.078125-0.125-0.14062-0.125-0.078125 0-0.10938 0.0625-0.125 0.14062-0.34375 1.0312-1.25 1.0312-1.3438 1.0312-0.5 0-0.89062-0.29688-1.125-0.67188-0.29688-0.46875-0.29688-1.125-0.29688-1.4844h2.7812c0.21875 0 0.25 0 0.25-0.21875 0-0.98438-0.54688-1.9531-1.7812-1.9531-1.1562 0-2.0781 1.0312-2.0781 2.2812 0 1.3281 1.0469 2.2969 2.1875 2.2969 1.2188 0 1.6719-1.1094 1.6719-1.2969zm-0.65625-1.3281h-2.375c0.0625-1.4844 0.90625-1.7344 1.25-1.7344 1.0156 0 1.125 1.3438 1.125 1.7344z"/>
</symbol>
</defs>
<g>
<use x="0.29" y="27.669" xlink:href="#c"/>
<use x="6.655105" y="27.669" xlink:href="#b"/>
</g>
<path transform="matrix(1,0,0,-1,4.663,27.669)" d="m5.9112 5.044 7.9414 2.1289" fill="none" stroke="#000" stroke-linecap="round" stroke-miterlimit="10" stroke-width=".59758"/>
<g>
<use x="14.989" y="9.614" xlink:href="#a"/>
</g>
<path transform="matrix(1,0,0,-1,4.663,27.669)" d="m13.853 7.1729v9.2891" fill="none" stroke="#000" stroke-linecap="round" stroke-miterlimit="10" stroke-width=".59758"/>
<path transform="matrix(1,0,0,-1,4.663,27.669)" d="m13.853 7.1729 13.855-3.7148" fill="none" stroke="#000" stroke-linecap="round" stroke-miterlimit="10" stroke-width=".59758"/>
<path transform="matrix(1,0,0,-1,4.663,27.669)" d="m27.708 3.4581 13.855 3.7148" fill="none" stroke="#000" stroke-linecap="round" stroke-miterlimit="10" stroke-width=".59758"/>
<path transform="matrix(1,0,0,-1,4.663,27.669)" d="m41.564 7.1729 7.1719-12.422" fill="none" stroke="#000" stroke-linecap="round" stroke-miterlimit="10" stroke-width=".59758"/>
<g>
<use x="49.024" y="50.721" xlink:href="#c"/>
<use x="55.389105" y="50.721" xlink:href="#b"/>
</g>
<path transform="matrix(1,0,0,-1,4.663,27.669)" d="m48.735-5.249v-9.2891" fill="none" stroke="#000" stroke-linecap="round" stroke-miterlimit="10" stroke-width=".59758"/>
<g>
<use x="63.722" y="32.666" xlink:href="#a"/>
</g>
<path transform="matrix(1,0,0,-1,4.663,27.669)" d="m48.735-5.249 8.7852 2.3555" fill="none" stroke="#000" stroke-linecap="round" stroke-miterlimit="10" stroke-width=".59758"/>
<path transform="matrix(1,0,0,-1,4.663,27.669)" d="m48.735-5.249-13.855 3.7109" fill="none" stroke="#000" stroke-linecap="round" stroke-miterlimit="10" stroke-width=".59758"/>
<path transform="matrix(1,0,0,-1,4.663,27.669)" d="m34.88-1.538-13.855-3.7109" fill="none" stroke="#000" stroke-linecap="round" stroke-miterlimit="10" stroke-width=".59758"/>
<path transform="matrix(1,0,0,-1,4.663,27.669)" d="m13.853 7.1729 7.1719-12.422" fill="none" stroke="#000" stroke-linecap="round" stroke-miterlimit="10" stroke-width=".59758"/>
<g>
<use x="84.062" y="27.669" xlink:href="#d"/>
<use x="101.774" y="27.669" xlink:href="#a"/>
</g>
<path transform="matrix(1 0 0 -1 105.3 27.669)" d="m4.9714 5.7784 8.0273 3.7422" fill="none" stroke="#000" stroke-linecap="round" stroke-miterlimit="10" stroke-width=".59758"/>
<path transform="matrix(1 0 0 -1 105.3 27.669)" d="m12.999 9.5206 13-6.0625" fill="none" stroke="#000" stroke-linecap="round" stroke-miterlimit="10" stroke-width=".59758"/>
<g>
<use x="113.213" y="7.265" xlink:href="#f"/>
<use x="119.855065" y="7.265" xlink:href="#e"/>
</g>
<path transform="matrix(1 0 0 -1 105.3 27.669)" d="m12.999 9.5206v9.2891" fill="none" stroke="#000" stroke-linecap="round" stroke-miterlimit="10" stroke-width=".59758"/>
<path transform="matrix(1 0 0 -1 105.3 27.669)" d="m12.999 9.5206 7.1719-12.422" fill="none" stroke="#000" stroke-linecap="round" stroke-miterlimit="10" stroke-width=".59758"/>
<path transform="matrix(1 0 0 -1 105.3 27.669)" d="m20.171-2.9013h20.367" fill="none" stroke="#000" stroke-linecap="round" stroke-miterlimit="10" stroke-width=".59758"/>
<path transform="matrix(1 0 0 -1 105.3 27.669)" d="m40.538-2.9013 7.1719 12.422" fill="none" stroke="#000" stroke-linecap="round" stroke-miterlimit="10" stroke-width=".59758"/>
<g>
<use x="148.638" y="7.265" xlink:href="#c"/>
<use x="155.003105" y="7.265" xlink:href="#b"/>
</g>
<path transform="matrix(1 0 0 -1 105.3 27.669)" d="m47.71 9.5206v9.2891" fill="none" stroke="#000" stroke-linecap="round" stroke-miterlimit="10" stroke-width=".59758"/>
<g>
<use x="162.481" y="27.669" xlink:href="#a"/>
</g>
<path transform="matrix(1 0 0 -1 105.3 27.669)" d="m47.71 9.5206 8.0273-3.7422" fill="none" stroke="#000" stroke-linecap="round" stroke-miterlimit="10" stroke-width=".59758"/>
<path transform="matrix(1 0 0 -1 105.3 27.669)" d="m47.71 9.5206-13-6.0625" fill="none" stroke="#000" stroke-linecap="round" stroke-miterlimit="10" stroke-width=".59758"/>
<path transform="matrix(1 0 0 -1 105.3 27.669)" d="m25.999 3.4581h8.7109" fill="none" stroke="#000" stroke-linecap="round" stroke-miterlimit="10" stroke-width=".59758"/>
</svg>
