<?xml version="1.0" encoding="UTF-8"?>
<svg width="146pt" height="54pt" version="1.1" viewBox="0 0 146 54" xmlns="http://www.w3.org/2000/svg" xmlns:xlink="http://www.w3.org/1999/xlink">
<defs>
<symbol id="a" overflow="visible">
<path d="m6.1094 0v-6.9219h-0.89062v3.0312h-3.3906v-3.0312h-0.89062v6.9219h0.89062v-3.2969h3.3906v3.2969z"/>
</symbol>
<symbol id="b" overflow="visible">
<path d="m5.8594-0.45312-0.0625-0.6875c-0.29688 0.20312-0.57812 0.39062-0.92188 0.5-0.3125 0.10938-0.67188 0.10938-1 0.10938-0.65625 0-1.25-0.34375-1.6562-0.85938-0.45312-0.57812-0.67188-1.3281-0.67188-2.0625 0-0.75 0.21875-1.5 0.67188-2.0938 0.40625-0.5 1-0.85938 1.6562-0.85938 0.29688 0 0.59375 0.03125 0.89062 0.125s0.57812 0.23438 0.84375 0.42188l0.125-0.8125c-0.29688-0.125-0.59375-0.21875-0.92188-0.28125-0.3125-0.0625-0.625-0.078125-0.9375-0.078125-0.89062 0-1.6875 0.39062-2.2812 1.0469-0.60938 0.6875-0.9375 1.5938-0.9375 2.5312 0 0.92188 0.32812 1.8281 0.9375 2.5156 0.59375 0.64062 1.3906 1.0469 2.2812 1.0469 0.34375 0 0.6875-0.015625 1.0312-0.10938s0.64062-0.26562 0.95312-0.45312z"/>
</symbol>
<symbol id="f" overflow="visible">
<path d="m6.7656-3.4375c0-2.0938-1.4375-3.7031-3.0938-3.7031-1.7031 0-3.1094 1.625-3.1094 3.7031 0 2.1094 1.4688 3.6562 3.0938 3.6562 1.6719 0 3.1094-1.5625 3.1094-3.6562zm-0.89062-0.15625c0 1.9531-1.0625 3.1719-2.2031 3.1719-1.1719 0-2.2188-1.25-2.2188-3.1719 0-1.8125 1.0938-2.9062 2.2031-2.9062 1.1562 0 2.2188 1.125 2.2188 2.9062z"/>
</symbol>
<symbol id="e" overflow="visible">
<path d="m3.3906-1.2656c0-0.57812-0.46875-1.0312-1.0156-1.1875 0.53125-0.28125 0.79688-0.75 0.79688-1.2031 0-0.59375-0.59375-1.0625-1.3438-1.0625-0.60938 0-1.125 0.32812-1.4219 0.73438l0.29688 0.40625c0.28125-0.54688 0.78125-0.70312 1.1094-0.70312 0.42188 0 0.71875 0.23438 0.71875 0.625 0 0.375-0.25 0.82812-0.78125 0.92188-0.03125 0-0.0625 0-0.51562 0.03125v0.46875h0.54688c0.65625 0 0.90625 0.51562 0.90625 0.95312 0 0.54688-0.34375 0.96875-0.875 0.96875-0.5 0-1.0625-0.23438-1.4219-0.6875l-0.078125 0.45312c0.39062 0.45312 0.96875 0.6875 1.5 0.6875 0.92188 0 1.5781-0.67188 1.5781-1.4062z"/>
</symbol>
<symbol id="d" overflow="visible">
<path d="m3.3281 0v-0.53125h-1.3594-0.25-0.79688l1.0781-0.95312c0.125-0.10938 0.46875-0.375 0.60938-0.48438 0.29688-0.28125 0.71875-0.64062 0.71875-1.25 0-0.78125-0.59375-1.5-1.5938-1.5-0.73438 0-1.1875 0.39062-1.4219 1.1094l0.32812 0.40625c0.15625-0.57812 0.39062-1.0312 1-1.0312 0.59375 0 1.0312 0.40625 1.0312 1.0312 0 0.57812-0.34375 0.90625-0.75 1.3125-0.14062 0.14062-0.51562 0.45312-0.67188 0.59375-0.20312 0.17188-0.67188 0.64062-0.875 0.8125v0.48438z"/>
</symbol>
<symbol id="c" overflow="visible">
<path d="m3.3281-1.4219c0-0.85938-0.64062-1.5469-1.4062-1.5469-0.3125 0-0.5625 0.10938-0.78125 0.28125v-1.4062h1.9375v-0.48438h-2.5v2.6094h0.51562c0.17188-0.375 0.5-0.54688 0.8125-0.54688 0.28125 0 0.71875 0.20312 0.71875 1.0938 0 0.90625-0.57812 1.1094-0.9375 1.1094-0.46875 0-0.90625-0.25-1.1406-0.64062l-0.26562 0.42188c0.34375 0.42188 0.85938 0.67188 1.4062 0.67188 0.92188 0 1.6406-0.70312 1.6406-1.5625z"/>
</symbol>
<symbol id="g" overflow="visible">
<path d="m4.1406-1.1875c0-0.09375-0.078125-0.125-0.14062-0.125-0.078125 0-0.10938 0.0625-0.125 0.14062-0.34375 1.0312-1.25 1.0312-1.3438 1.0312-0.5 0-0.89062-0.29688-1.125-0.67188-0.29688-0.46875-0.29688-1.125-0.29688-1.4844h2.7812c0.21875 0 0.25 0 0.25-0.21875 0-0.98438-0.54688-1.9531-1.7812-1.9531-1.1562 0-2.0781 1.0312-2.0781 2.2812 0 1.3281 1.0469 2.2969 2.1875 2.2969 1.2188 0 1.6719-1.1094 1.6719-1.2969zm-0.65625-1.3281h-2.375c0.0625-1.4844 0.90625-1.7344 1.25-1.7344 1.0156 0 1.125 1.3438 1.125 1.7344z"/>
</symbol>
<clipPath id="k">
<path d="m20 10h4v12h-4z"/>
</clipPath>
<clipPath id="j">
<path d="m20.457 10.352h2.9883l-1.4922 11.156-1.4961-11.156"/>
</clipPath>
<clipPath id="i">
<path d="m111 10h4v12h-4z"/>
</clipPath>
<clipPath id="h">
<path d="m111.44 10.434h2.9883l-1.4961 11.156-1.4922-11.156"/>
</clipPath>
</defs>
<g>
<use x="-0.71" y="18.975" xlink:href="#a"/>
<use x="18.768" y="30.021" xlink:href="#b"/>
</g>
<path transform="matrix(1,0,0,-1,2.819,18.975)" d="m5.6537 1.9203-1.4922-2.5898 10.406-4.2852z" stroke="#000" stroke-linejoin="bevel" stroke-miterlimit="10" stroke-width=".59758"/>
<g>
<use x="18.768" y="51.282" xlink:href="#b"/>
<use x="25.133" y="51.282" xlink:href="#a"/>
<use x="32.19" y="52.776" xlink:href="#e"/>
</g>
<path transform="matrix(1,0,0,-1,2.819,18.975)" d="m19.134-12.638v-11.156" fill="none" stroke="#000" stroke-linecap="round" stroke-miterlimit="10" stroke-width=".59758"/>
<g>
<use x="16.667" y="7.265" xlink:href="#b"/>
<use x="23.032" y="8.759" xlink:href="#d"/>
<use x="27.235" y="7.265" xlink:href="#a"/>
<use x="34.291" y="8.759" xlink:href="#c"/>
</g>
<g clip-path="url(#k)">
<g clip-path="url(#j)">
<path transform="matrix(1,0,0,-1,2.819,18.975)" d="m19.134 8.6234v-11.156" fill="none" stroke="#000" stroke-dasharray="0.59758,2.49008" stroke-miterlimit="10" stroke-width="2.9881"/>
</g>
</g>
<g>
<use x="37.554" y="18.895" xlink:href="#f"/>
<use x="44.888" y="18.895" xlink:href="#a"/>
</g>
<path transform="matrix(1,0,0,-1,2.819,18.975)" d="m32.611 1.9203 1.4922-2.5898-10.406-4.2812z" stroke="#000" stroke-linejoin="bevel" stroke-miterlimit="10" stroke-width=".59758"/>
<g>
<use x="65.228" y="18.975" xlink:href="#g"/>
<use x="82.939" y="18.975" xlink:href="#a"/>
<use x="89.996" y="18.975" xlink:href="#f"/>
<use x="109.751" y="30.101" xlink:href="#b"/>
</g>
<path transform="matrix(1,0,0,-1,86.468,18.975)" d="m12.989 1.8383-1.4922-2.5859 10.406-4.2852z" stroke="#000" stroke-linejoin="bevel" stroke-miterlimit="10" stroke-width=".59758"/>
<g>
<use x="107.649" y="51.362" xlink:href="#b"/>
<use x="114.014" y="52.856" xlink:href="#d"/>
<use x="118.217" y="51.362" xlink:href="#a"/>
<use x="125.274" y="52.856" xlink:href="#c"/>
</g>
<path transform="matrix(1,0,0,-1,86.468,18.975)" d="m26.466-12.72v-11.156" fill="none" stroke="#000" stroke-linecap="round" stroke-miterlimit="10" stroke-width=".59758"/>
<g>
<use x="109.405" y="8.839" xlink:href="#a"/>
</g>
<g clip-path="url(#i)">
<g clip-path="url(#h)">
<path transform="matrix(1,0,0,-1,86.468,18.975)" d="m26.466 8.5414v-11.156" fill="none" stroke="#000" stroke-dasharray="0.59758,2.49008" stroke-miterlimit="10" stroke-width="2.9881"/>
</g>
</g>
<g>
<use x="128.537" y="19.254" xlink:href="#b"/>
<use x="134.902" y="19.254" xlink:href="#a"/>
<use x="141.959" y="20.749" xlink:href="#e"/>
</g>
<path transform="matrix(1,0,0,-1,86.468,18.975)" d="m39.942 1.8383 1.4961-2.5859-10.41-4.2852z" stroke="#000" stroke-linejoin="bevel" stroke-miterlimit="10" stroke-width=".59758"/>
</svg>
