<?xml version="1.0" encoding="UTF-8"?>
<svg width="93pt" height="90pt" version="1.1" viewBox="0 0 93 90" xmlns="http://www.w3.org/2000/svg" xmlns:xlink="http://www.w3.org/1999/xlink">
<defs>
<symbol id="m" overflow="visible">
<path d="m7.1875-3.375c0-2.0312-1.5-3.6562-3.3125-3.6562-1.7969 0-3.3125 1.5938-3.3125 3.6562 0 2.0469 1.5312 3.5938 3.3125 3.5938 1.8125 0 3.3125-1.5781 3.3125-3.5938zm-1.0312-0.14062c0 2.6406-1.3594 3.4688-2.2812 3.4688-0.95312 0-2.2969-0.875-2.2969-3.4688 0-2.5781 1.4688-3.2656 2.2969-3.2656 0.85938 0 2.2812 0.70312 2.2812 3.2656z"/>
</symbol>
<symbol id="j" overflow="visible">
<path d="m2.5469 0v-0.3125c-0.67188 0-0.78125 0-0.78125-0.4375v-6.1719l-1.4375 0.10938v0.3125c0.70312 0 0.78125 0.0625 0.78125 0.5625v5.1875c0 0.4375-0.10938 0.4375-0.78125 0.4375v0.3125l1.1094-0.03125z"/>
</symbol>
<symbol id="r" overflow="visible">
<path d="m4.8125-0.89062v-0.5625h-0.25v0.5625c0 0.57812-0.25 0.64062-0.35938 0.64062-0.32812 0-0.35938-0.45312-0.35938-0.5v-1.9844c0-0.42188 0-0.8125-0.35938-1.1875-0.39062-0.39062-0.89062-0.54688-1.375-0.54688-0.8125 0-1.5 0.46875-1.5 1.125 0 0.29688 0.20312 0.46875 0.45312 0.46875 0.28125 0 0.46875-0.20312 0.46875-0.45312 0-0.125-0.0625-0.45312-0.51562-0.45312 0.26562-0.35938 0.76562-0.46875 1.0781-0.46875 0.48438 0 1.0625 0.39062 1.0625 1.2812v0.35938c-0.51562 0.03125-1.2188 0.0625-1.8438 0.35938-0.75 0.34375-1 0.85938-1 1.2969 0 0.8125 0.96875 1.0625 1.5938 1.0625 0.67188 0 1.125-0.40625 1.3125-0.85938 0.046875 0.39062 0.3125 0.8125 0.78125 0.8125 0.20312 0 0.8125-0.14062 0.8125-0.95312zm-1.6562-0.5c0 0.9375-0.71875 1.2812-1.1719 1.2812-0.48438 0-0.89062-0.34375-0.89062-0.84375 0-0.54688 0.40625-1.375 2.0625-1.4375zm0.57812-5.2031c0-0.1875-0.1875-0.35938-0.35938-0.35938-0.15625 0-0.26562 0.10938-0.29688 0.17188l-1.2031 1.5156 0.17188 0.1875 1.5156-1.2188c0.09375-0.078125 0.17188-0.1875 0.17188-0.29688z"/>
</symbol>
<symbol id="a" overflow="visible">
<path d="m4.6875-2.1406c0-1.2656-0.98438-2.3281-2.1875-2.3281-1.25 0-2.2188 1.0938-2.2188 2.3281 0 1.2969 1.0312 2.25 2.2031 2.25 1.2031 0 2.2031-0.98438 2.2031-2.25zm-0.8125-0.078125c0 0.35938 0 0.90625-0.21875 1.3438-0.23438 0.45312-0.67188 0.73438-1.1562 0.73438-0.4375 0-0.875-0.20312-1.1406-0.67188-0.25-0.4375-0.25-1.0469-0.25-1.4062 0-0.39062 0-0.92188 0.23438-1.3594 0.26562-0.45312 0.73438-0.67188 1.1406-0.67188 0.4375 0 0.85938 0.21875 1.125 0.65625 0.26562 0.42188 0.26562 1 0.26562 1.375z"/>
</symbol>
<symbol id="q" overflow="visible">
<path d="m5.3281 0v-0.3125c-0.6875 0-0.76562-0.0625-0.76562-0.5625v-3.5312l-1.4688 0.10938v0.3125c0.6875 0 0.78125 0.0625 0.78125 0.5625v1.7656c0 0.875-0.48438 1.5469-1.2188 1.5469-0.82812 0-0.875-0.46875-0.875-0.98438v-3.3125l-1.4688 0.10938v0.3125c0.78125 0 0.78125 0.03125 0.78125 0.90625v1.5c0 0.78125 0 1.6875 1.5156 1.6875 0.5625 0 1-0.28125 1.2812-0.89062v0.89062z"/>
</symbol>
<symbol id="p" overflow="visible">
<path d="m5.1406 0v-0.3125c-0.53125 0-0.71875-0.015625-0.9375-0.3125l-1.3438-1.7188c0.29688-0.375 0.67188-0.85938 0.92188-1.125 0.3125-0.35938 0.71875-0.51562 1.1875-0.51562v-0.3125c-0.26562 0.015625-0.5625 0.03125-0.82812 0.03125-0.29688 0-0.82812-0.015625-0.95312-0.03125v0.3125c0.21875 0.015625 0.29688 0.14062 0.29688 0.3125 0 0.15625-0.10938 0.28125-0.15625 0.34375l-0.60938 0.78125-0.78125-1.0156c-0.09375-0.09375-0.09375-0.10938-0.09375-0.17188 0-0.15625 0.15625-0.25 0.34375-0.25v-0.3125l-1.0781 0.03125c-0.20312 0-0.67188-0.015625-0.9375-0.03125v0.3125c0.70312 0 0.70312 0 1.1719 0.60938l0.98438 1.2812c-0.46875 0.59375-0.46875 0.625-0.9375 1.1875-0.46875 0.57812-1.0625 0.59375-1.2656 0.59375v0.3125c0.25-0.015625 0.5625-0.03125 0.82812-0.03125l0.9375 0.03125v-0.3125c-0.21875-0.03125-0.28125-0.15625-0.28125-0.3125 0-0.21875 0.28125-0.54688 0.89062-1.2656l0.76562 1c0.078125 0.10938 0.20312 0.26562 0.20312 0.32812 0 0.09375-0.09375 0.25-0.35938 0.25v0.3125l1.0781-0.03125c0.26562 0 0.65625 0.015625 0.95312 0.03125z"/>
</symbol>
<symbol id="e" overflow="visible">
<path d="m4.1406-1.1875c0-0.09375-0.078125-0.125-0.14062-0.125-0.078125 0-0.10938 0.0625-0.125 0.14062-0.34375 1.0312-1.25 1.0312-1.3438 1.0312-0.5 0-0.89062-0.29688-1.125-0.67188-0.29688-0.46875-0.29688-1.125-0.29688-1.4844h2.7812c0.21875 0 0.25 0 0.25-0.21875 0-0.98438-0.54688-1.9531-1.7812-1.9531-1.1562 0-2.0781 1.0312-2.0781 2.2812 0 1.3281 1.0469 2.2969 2.1875 2.2969 1.2188 0 1.6719-1.1094 1.6719-1.2969zm-0.65625-1.3281h-2.375c0.0625-1.4844 0.90625-1.7344 1.25-1.7344 1.0156 0 1.125 1.3438 1.125 1.7344z"/>
</symbol>
<symbol id="o" overflow="visible">
<path d="m4.1719 0v-0.3125h-0.3125c-0.90625 0-0.92188-0.10938-0.92188-0.46875v-5.5938c0-0.25 0-0.26562-0.23438-0.26562-0.625 0.64062-1.5 0.64062-1.8125 0.64062v0.3125c0.20312 0 0.78125 0 1.2969-0.26562v5.1719c0 0.35938-0.03125 0.46875-0.92188 0.46875h-0.3125v0.3125c0.34375-0.03125 1.2031-0.03125 1.6094-0.03125 0.39062 0 1.2656 0 1.6094 0.03125z"/>
</symbol>
<symbol id="n" overflow="visible">
<path d="m6.8281-4.5-0.1875-2.25h-6.0938l-0.1875 2.25h0.25c0.14062-1.6094 0.28125-1.9375 1.7969-1.9375 0.17188 0 0.4375 0 0.53125 0.015625 0.21875 0.046875 0.21875 0.15625 0.21875 0.375v5.2656c0 0.32812 0 0.46875-1.0469 0.46875h-0.40625v0.3125c0.40625-0.03125 1.4219-0.03125 1.8906-0.03125 0.45312 0 1.4844 0 1.8906 0.03125v-0.3125h-0.40625c-1.0469 0-1.0469-0.14062-1.0469-0.46875v-5.2656c0-0.1875 0-0.32812 0.1875-0.375 0.10938-0.015625 0.375-0.015625 0.5625-0.015625 1.5156 0 1.6562 0.32812 1.7969 1.9375z"/>
</symbol>
<symbol id="h" overflow="visible">
<path d="m8.1094 0v-0.3125c-0.51562 0-0.76562 0-0.78125-0.29688v-1.9062c0-0.85938 0-1.1562-0.3125-1.5156-0.14062-0.17188-0.46875-0.375-1.0469-0.375-0.82812 0-1.2812 0.59375-1.4375 0.98438-0.14062-0.875-0.875-0.98438-1.3281-0.98438-0.73438 0-1.2031 0.42188-1.4844 1.0469v-1.0469l-1.4062 0.10938v0.3125c0.70312 0 0.78125 0.0625 0.78125 0.5625v2.6719c0 0.4375-0.10938 0.4375-0.78125 0.4375v0.3125l1.1406-0.03125 1.1094 0.03125v-0.3125c-0.67188 0-0.78125 0-0.78125-0.4375v-1.8438c0-1.0312 0.71875-1.5938 1.3438-1.5938 0.64062 0 0.75 0.53125 0.75 1.1094v2.3281c0 0.4375-0.10938 0.4375-0.78125 0.4375v0.3125l1.125-0.03125 1.1094 0.03125v-0.3125c-0.65625 0-0.76562 0-0.76562-0.4375v-1.8438c0-1.0312 0.70312-1.5938 1.3438-1.5938 0.625 0 0.73438 0.53125 0.73438 1.1094v2.3281c0 0.4375-0.10938 0.4375-0.78125 0.4375v0.3125l1.125-0.03125z"/>
</symbol>
<symbol id="c" overflow="visible">
<path d="m2.4688 0v-0.3125c-0.67188 0-0.70312-0.046875-0.70312-0.4375v-3.6562l-1.3906 0.10938v0.3125c0.64062 0 0.73438 0.0625 0.73438 0.54688v2.6875c0 0.4375-0.10938 0.4375-0.78125 0.4375v0.3125l1.0938-0.03125c0.35938 0 0.70312 0.015625 1.0469 0.03125zm-0.5625-6.0156c0-0.28125-0.21875-0.53125-0.51562-0.53125-0.34375 0-0.54688 0.28125-0.54688 0.53125 0 0.26562 0.23438 0.51562 0.53125 0.51562 0.34375 0 0.53125-0.26562 0.53125-0.51562z"/>
</symbol>
<symbol id="b" overflow="visible">
<path d="m3.5938-1.2812c0-0.51562-0.29688-0.82812-0.42188-0.9375-0.32812-0.32812-0.71875-0.40625-1.1406-0.48438-0.5625-0.10938-1.2188-0.23438-1.2188-0.8125 0-0.35938 0.25-0.76562 1.1094-0.76562 1.0938 0 1.1562 0.90625 1.1719 1.2031 0 0.09375 0.10938 0.09375 0.10938 0.09375 0.14062 0 0.14062-0.046875 0.14062-0.23438v-1.0156c0-0.15625 0-0.23438-0.10938-0.23438-0.046875 0-0.078125 0-0.20312 0.125-0.03125 0.03125-0.125 0.125-0.17188 0.15625-0.375-0.28125-0.78125-0.28125-0.9375-0.28125-1.2188 0-1.5938 0.67188-1.5938 1.2344 0 0.34375 0.15625 0.625 0.42188 0.84375 0.32812 0.25 0.60938 0.3125 1.3281 0.45312 0.21875 0.046875 1.0312 0.20312 1.0312 0.92188 0 0.5-0.34375 0.90625-1.125 0.90625-0.84375 0-1.2031-0.5625-1.3906-1.4219-0.03125-0.125-0.03125-0.15625-0.14062-0.15625-0.125 0-0.125 0.0625-0.125 0.23438v1.3281c0 0.17188 0 0.23438 0.10938 0.23438 0.046875 0 0.0625-0.015625 0.25-0.20312 0.015625-0.015625 0.015625-0.03125 0.20312-0.21875 0.4375 0.40625 0.89062 0.42188 1.0938 0.42188 1.1406 0 1.6094-0.67188 1.6094-1.3906z"/>
</symbol>
<symbol id="w" overflow="visible">
<path d="m3.3125 0v-0.3125h-0.25c-0.79688 0-0.8125-0.10938-0.8125-0.46875v-5.25c0-0.35938 0.015625-0.46875 0.8125-0.46875h0.25v-0.3125c-0.34375 0.03125-1.125 0.03125-1.5156 0.03125-0.375 0-1.1719 0-1.5156-0.03125v0.3125h0.25c0.79688 0 0.82812 0.10938 0.82812 0.46875v5.25c0 0.35938-0.03125 0.46875-0.82812 0.46875h-0.25v0.3125c0.34375-0.03125 1.1406-0.03125 1.5156-0.03125 0.39062 0 1.1719 0 1.5156 0.03125z"/>
</symbol>
<symbol id="v" overflow="visible">
<path d="m3.3125-1.2344v-0.5625h-0.25v0.54688c0 0.73438-0.29688 1.1094-0.67188 1.1094-0.67188 0-0.67188-0.90625-0.67188-1.0781v-2.7656h1.4375v-0.3125h-1.4375v-1.8281h-0.25c0 0.8125-0.29688 1.875-1.2812 1.9219v0.21875h0.84375v2.75c0 1.2188 0.9375 1.3438 1.2969 1.3438 0.70312 0 0.98438-0.70312 0.98438-1.3438z"/>
</symbol>
<symbol id="g" overflow="visible">
<path d="m4.8125-0.89062v-0.5625h-0.25v0.5625c0 0.57812-0.25 0.64062-0.35938 0.64062-0.32812 0-0.35938-0.45312-0.35938-0.5v-1.9844c0-0.42188 0-0.8125-0.35938-1.1875-0.39062-0.39062-0.89062-0.54688-1.375-0.54688-0.8125 0-1.5 0.46875-1.5 1.125 0 0.29688 0.20312 0.46875 0.45312 0.46875 0.28125 0 0.46875-0.20312 0.46875-0.45312 0-0.125-0.0625-0.45312-0.51562-0.45312 0.26562-0.35938 0.76562-0.46875 1.0781-0.46875 0.48438 0 1.0625 0.39062 1.0625 1.2812v0.35938c-0.51562 0.03125-1.2188 0.0625-1.8438 0.35938-0.75 0.34375-1 0.85938-1 1.2969 0 0.8125 0.96875 1.0625 1.5938 1.0625 0.67188 0 1.125-0.40625 1.3125-0.85938 0.046875 0.39062 0.3125 0.8125 0.78125 0.8125 0.20312 0 0.8125-0.14062 0.8125-0.95312zm-1.6562-0.5c0 0.9375-0.71875 1.2812-1.1719 1.2812-0.48438 0-0.89062-0.34375-0.89062-0.84375 0-0.54688 0.40625-1.375 2.0625-1.4375z"/>
</symbol>
<symbol id="f" overflow="visible">
<path d="m5.1875-2.1562c0-1.2656-0.96875-2.25-2.1094-2.25-0.78125 0-1.2031 0.46875-1.3594 0.64062v-3.1562l-1.4375 0.10938v0.3125c0.70312 0 0.78125 0.0625 0.78125 0.5625v5.9375h0.25l0.35938-0.625c0.14062 0.23438 0.5625 0.73438 1.2969 0.73438 1.1875 0 2.2188-0.98438 2.2188-2.2656zm-0.82812 0c0 0.35938-0.015625 0.95312-0.29688 1.4062-0.21875 0.3125-0.59375 0.64062-1.125 0.64062-0.45312 0-0.8125-0.23438-1.0469-0.60938-0.14062-0.20312-0.14062-0.23438-0.14062-0.42188v-2.0469c0-0.1875 0-0.20312 0.10938-0.35938 0.39062-0.5625 0.9375-0.64062 1.1719-0.64062 0.45312 0 0.8125 0.26562 1.0469 0.64062 0.26562 0.40625 0.28125 0.96875 0.28125 1.3906z"/>
</symbol>
<symbol id="u" overflow="visible">
<path d="m4.1406-1.1875c0-0.09375-0.078125-0.125-0.14062-0.125-0.078125 0-0.10938 0.0625-0.125 0.14062-0.34375 1.0312-1.25 1.0312-1.3438 1.0312-0.5 0-0.89062-0.29688-1.125-0.67188-0.29688-0.46875-0.29688-1.125-0.29688-1.4844h2.7812c0.21875 0 0.25 0 0.25-0.21875 0-0.98438-0.54688-1.9531-1.7812-1.9531-1.1562 0-2.0781 1.0312-2.0781 2.2812 0 1.3281 1.0469 2.2969 2.1875 2.2969 1.2188 0 1.6719-1.1094 1.6719-1.2969zm-0.65625-1.3281h-2.375c0.0625-1.4844 0.90625-1.7344 1.25-1.7344 1.0156 0 1.125 1.3438 1.125 1.7344zm-0.03125-4.0781c0-0.1875-0.1875-0.35938-0.35938-0.35938-0.15625 0-0.26562 0.10938-0.29688 0.17188l-1.2031 1.5156 0.17188 0.1875 1.5156-1.2188c0.09375-0.078125 0.17188-0.1875 0.17188-0.29688z"/>
</symbol>
<symbol id="l" overflow="visible">
<path d="m3.625-3.7969c0-0.3125-0.3125-0.60938-0.73438-0.60938-0.73438 0-1.0938 0.67188-1.2188 1.0938v-1.0938l-1.3906 0.10938v0.3125c0.70312 0 0.78125 0.0625 0.78125 0.5625v2.6719c0 0.4375-0.10938 0.4375-0.78125 0.4375v0.3125l1.1406-0.03125c0.39062 0 0.85938 0 1.2656 0.03125v-0.3125h-0.21875c-0.73438 0-0.75-0.10938-0.75-0.46875v-1.5312c0-0.98438 0.42188-1.875 1.1719-1.875 0.0625 0 0.09375 0 0.10938 0.015625-0.03125 0-0.23438 0.125-0.23438 0.39062s0.21875 0.42188 0.4375 0.42188c0.17188 0 0.42188-0.125 0.42188-0.4375z"/>
</symbol>
<symbol id="k" overflow="visible">
<path d="m4.8281-4.0312c0-0.17188-0.10938-0.48438-0.5-0.48438-0.20312 0-0.64062 0.0625-1.0625 0.46875-0.42188-0.32812-0.82812-0.35938-1.0469-0.35938-0.9375 0-1.625 0.6875-1.625 1.4531 0 0.4375 0.21875 0.8125 0.46875 1.0312-0.125 0.14062-0.3125 0.46875-0.3125 0.82812 0 0.3125 0.14062 0.6875 0.45312 0.89062-0.60938 0.15625-0.92188 0.59375-0.92188 0.98438 0 0.71875 0.98438 1.2656 2.2031 1.2656 1.1719 0 2.2031-0.5 2.2031-1.2812 0-0.34375-0.125-0.85938-0.64062-1.1406-0.53125-0.26562-1.1094-0.26562-1.7188-0.26562-0.25 0-0.67188 0-0.75-0.015625-0.3125-0.046875-0.51562-0.34375-0.51562-0.67188 0-0.03125 0-0.26562 0.15625-0.46875 0.39062 0.28125 0.8125 0.3125 1 0.3125 0.92188 0 1.6094-0.6875 1.6094-1.4531 0-0.375-0.15625-0.73438-0.40625-0.96875 0.35938-0.34375 0.71875-0.39062 0.89062-0.39062 0 0 0.078125 0 0.10938 0.015625-0.10938 0.03125-0.17188 0.14062-0.17188 0.26562 0 0.17188 0.14062 0.28125 0.29688 0.28125 0.09375 0 0.28125-0.0625 0.28125-0.29688zm-1.75 1.0781c0 0.26562 0 0.59375-0.15625 0.84375-0.078125 0.10938-0.3125 0.39062-0.70312 0.39062-0.875 0-0.875-1-0.875-1.2188 0-0.26562 0.015625-0.59375 0.15625-0.84375 0.078125-0.10938 0.3125-0.39062 0.71875-0.39062 0.85938 0 0.85938 0.98438 0.85938 1.2188zm1.0938 3.7344c0 0.54688-0.70312 1.0469-1.6719 1.0469-1.0156 0-1.7031-0.51562-1.7031-1.0469 0-0.45312 0.375-0.82812 0.8125-0.84375h0.59375c0.85938 0 1.9688 0 1.9688 0.84375z"/>
</symbol>
<symbol id="i" overflow="visible">
<path d="m5.25 0v-0.3125c-0.6875 0-0.78125-0.0625-0.78125-0.5625v-6.0469l-1.4219 0.10938v0.3125c0.6875 0 0.76562 0.0625 0.76562 0.5625v2.1562c-0.28125-0.35938-0.71875-0.625-1.25-0.625-1.1719 0-2.2188 0.98438-2.2188 2.2656 0 1.2656 0.96875 2.25 2.1094 2.25 0.64062 0 1.0781-0.34375 1.3281-0.65625v0.65625zm-1.4688-1.1719c0 0.17188 0 0.1875-0.10938 0.35938-0.29688 0.48438-0.73438 0.70312-1.1719 0.70312-0.45312 0-0.8125-0.26562-1.0469-0.64062-0.25-0.40625-0.28125-0.96875-0.28125-1.3906 0-0.35938 0.015625-0.95312 0.29688-1.4062 0.21875-0.3125 0.59375-0.64062 1.1406-0.64062 0.34375 0 0.76562 0.15625 1.0625 0.59375 0.10938 0.17188 0.10938 0.1875 0.10938 0.375z"/>
</symbol>
<symbol id="t" overflow="visible">
<path d="m1.9062-6.625c0-0.32812-0.26562-0.51562-0.51562-0.51562-0.26562 0-0.53125 0.1875-0.53125 0.51562l0.39062 4.5312c0 0.15625 0.015625 0.23438 0.14062 0.23438 0.09375 0 0.125-0.046875 0.14062-0.21875zm0 6.0938c0-0.28125-0.23438-0.53125-0.51562-0.53125-0.29688 0-0.53125 0.25-0.53125 0.53125 0 0.29688 0.23438 0.53125 0.53125 0.53125 0.28125 0 0.51562-0.23438 0.51562-0.53125z"/>
</symbol>
<symbol id="s" overflow="visible">
<path d="m4.1406-5.6875c0-0.57812-0.40625-1.3438-1.8906-1.3438-1.0781 0-1.6875 0.6875-1.6875 1.3281 0 0.34375 0.21875 0.48438 0.45312 0.48438 0.28125 0 0.45312-0.20312 0.45312-0.46875 0-0.4375-0.40625-0.4375-0.54688-0.4375 0.29688-0.53125 0.875-0.6875 1.2969-0.6875 1.0938 0 1.0938 0.6875 1.0938 1.0781 0 0.57812-0.15625 0.76562-0.34375 0.9375-0.65625 0.71875-0.875 1.6406-0.875 2.25v0.4375c0 0.1875 0 0.25 0.125 0.25s0.125-0.09375 0.125-0.28125v-0.34375c0-1.25 0.96875-1.9688 1.3125-2.2188 0.26562-0.20312 0.48438-0.5625 0.48438-0.98438zm-1.4062 5.1562c0-0.28125-0.23438-0.53125-0.51562-0.53125-0.29688 0-0.53125 0.25-0.53125 0.53125 0 0.29688 0.23438 0.53125 0.53125 0.53125 0.28125 0 0.51562-0.23438 0.51562-0.53125z"/>
</symbol>
<symbol id="d" overflow="visible">
<path d="m5.3125-2.2969c0-0.79688-0.64062-1.4375-1.4375-1.4375-0.78125 0-1.4375 0.64062-1.4375 1.4375 0 0.78125 0.65625 1.4219 1.4375 1.4219 0.79688 0 1.4375-0.64062 1.4375-1.4219z"/>
</symbol>
</defs>
<path transform="matrix(1 0 0 -1 .892 .247)" d="m-0.001375 9.0625e-4h16.297" fill="none" stroke="#000" stroke-miterlimit="10" stroke-width=".398"/>
<path transform="matrix(1,0,0,-1,1.091,7.309)" d="m-0.0011562 4.0625e-4v6.8633" fill="none" stroke="#000" stroke-miterlimit="10" stroke-width=".398"/>
<g>
<use x="1.29" y="7.309" xlink:href="#m"/>
<use x="9.03891" y="7.309" xlink:href="#j"/>
<use x="11.806521" y="7.309" xlink:href="#r"/>
</g>
<path transform="matrix(1,0,0,-1,16.987,7.309)" d="m0.0012812 4.0625e-4v6.8633" fill="none" stroke="#000" stroke-miterlimit="10" stroke-width=".398"/>
<path transform="matrix(1 0 0 -1 .892 7.508)" d="m-0.001375 1.875e-4h16.297" fill="none" stroke="#000" stroke-miterlimit="10" stroke-width=".398"/>
<g>
<use x="20.109" y="7.309" xlink:href="#a"/>
<use x="25.0903" y="7.309" xlink:href="#j"/>
<use x="27.85791" y="7.309" xlink:href="#q"/>
<use x="33.393131" y="7.309" xlink:href="#p"/>
<use x="38.651391" y="7.309" xlink:href="#e"/>
<use x="43.079767" y="7.309" xlink:href="#o"/>
<use x="-1.477" y="27.234" xlink:href="#d"/>
<use x="11.253" y="27.234" xlink:href="#n"/>
<use x="17.621094" y="27.234" xlink:href="#e"/>
<use x="22.04947" y="27.234" xlink:href="#h"/>
<use x="33.66885" y="27.234" xlink:href="#c"/>
<use x="36.43646" y="27.234" xlink:href="#b"/>
<use x="40.366706" y="27.234" xlink:href="#b"/>
<use x="44.296952" y="27.234" xlink:href="#a"/>
<use x="-1.477" y="47.16" xlink:href="#d"/>
<use x="11.253" y="47.16" xlink:href="#w"/>
<use x="14.850495" y="47.16" xlink:href="#b"/>
<use x="18.780741" y="47.16" xlink:href="#b"/>
<use x="22.710986" y="47.16" xlink:href="#a"/>
<use x="-1.477" y="67.085" xlink:href="#d"/>
<use x="11.253" y="67.085" xlink:href="#e"/>
<use x="18.998922" y="67.085" xlink:href="#c"/>
<use x="21.766532" y="67.085" xlink:href="#b"/>
<use x="25.696777" y="67.085" xlink:href="#b"/>
<use x="29.627023" y="67.085" xlink:href="#a"/>
<use x="37.935832" y="67.085" xlink:href="#v"/>
<use x="41.810287" y="67.085" xlink:href="#g"/>
<use x="46.791587" y="67.085" xlink:href="#h"/>
<use x="54.814469" y="67.085" xlink:href="#f"/>
<use x="60.618679" y="67.085" xlink:href="#u"/>
<use x="65.047055" y="67.085" xlink:href="#h"/>
</g>
<path transform="matrix(1 0 0 -1 .892 78.011)" d="m-0.001375-7.1875e-4h43.996" fill="none" stroke="#000" stroke-miterlimit="10" stroke-width=".398"/>
<path transform="matrix(1,0,0,-1,1.091,87.01)" d="m-0.0011562-0.0017188v8.8008" fill="none" stroke="#000" stroke-miterlimit="10" stroke-width=".398"/>
<g>
<use x="1.29" y="85.073" xlink:href="#m"/>
<use x="9.03891" y="85.073" xlink:href="#f"/>
<use x="14.574131" y="85.073" xlink:href="#l"/>
<use x="18.476481" y="85.073" xlink:href="#c"/>
<use x="21.244092" y="85.073" xlink:href="#k"/>
<use x="26.225392" y="85.073" xlink:href="#g"/>
<use x="31.206692" y="85.073" xlink:href="#i"/>
<use x="36.741912" y="85.073" xlink:href="#a"/>
<use x="41.723212" y="85.073" xlink:href="#t"/>
</g>
<path transform="matrix(1,0,0,-1,44.689,87.01)" d="m-0.0015-0.0017188v8.8008" fill="none" stroke="#000" stroke-miterlimit="10" stroke-width=".398"/>
<path transform="matrix(1 0 0 -1 .892 87.209)" d="m-0.001375-0.0019375h43.996" fill="none" stroke="#000" stroke-miterlimit="10" stroke-width=".398"/>
<g>
<use x="47.81" y="87.01" xlink:href="#a"/>
<use x="52.7913" y="87.01" xlink:href="#f"/>
<use x="58.326521" y="87.01" xlink:href="#l"/>
<use x="62.228871" y="87.01" xlink:href="#c"/>
<use x="64.996481" y="87.01" xlink:href="#k"/>
<use x="69.977781" y="87.01" xlink:href="#g"/>
<use x="74.959081" y="87.01" xlink:href="#i"/>
<use x="80.494302" y="87.01" xlink:href="#a"/>
<use x="88.793148" y="87.01" xlink:href="#s"/>
</g>
</svg>
