<?xml version="1.0" encoding="UTF-8"?>
<svg width="139pt" height="262pt" version="1.1" viewBox="0 0 139 262" xmlns="http://www.w3.org/2000/svg" xmlns:xlink="http://www.w3.org/1999/xlink">
<defs>
<symbol id="o" overflow="visible">
<path d="m4.1719 0v-0.3125h-0.3125c-0.90625 0-0.92188-0.10938-0.92188-0.46875v-5.5938c0-0.25 0-0.26562-0.23438-0.26562-0.625 0.64062-1.5 0.64062-1.8125 0.64062v0.3125c0.20312 0 0.78125 0 1.2969-0.26562v5.1719c0 0.35938-0.03125 0.46875-0.92188 0.46875h-0.3125v0.3125c0.34375-0.03125 1.2031-0.03125 1.6094-0.03125 0.39062 0 1.2656 0 1.6094 0.03125z"/>
</symbol>
<symbol id="i" overflow="visible">
<path d="m4.4688-1.7344h-0.23438c-0.0625 0.29688-0.125 0.73438-0.23438 0.89062-0.0625 0.078125-0.71875 0.078125-0.9375 0.078125h-1.7969l1.0625-1.0312c1.5469-1.375 2.1406-1.9062 2.1406-2.9062 0-1.1406-0.89062-1.9375-2.1094-1.9375-1.125 0-1.8594 0.92188-1.8594 1.8125 0 0.54688 0.5 0.54688 0.53125 0.54688 0.17188 0 0.51562-0.10938 0.51562-0.53125 0-0.25-0.1875-0.51562-0.53125-0.51562-0.078125 0-0.09375 0-0.125 0.015625 0.21875-0.65625 0.76562-1.0156 1.3438-1.0156 0.90625 0 1.3281 0.8125 1.3281 1.625 0 0.79688-0.48438 1.5781-1.0469 2.2031l-1.9062 2.125c-0.10938 0.10938-0.10938 0.14062-0.10938 0.375h3.7031z"/>
</symbol>
<symbol id="a" overflow="visible">
<path d="m3.5938-1.2812c0-0.51562-0.29688-0.82812-0.42188-0.9375-0.32812-0.32812-0.71875-0.40625-1.1406-0.48438-0.5625-0.10938-1.2188-0.23438-1.2188-0.8125 0-0.35938 0.25-0.76562 1.1094-0.76562 1.0938 0 1.1562 0.90625 1.1719 1.2031 0 0.09375 0.10938 0.09375 0.10938 0.09375 0.14062 0 0.14062-0.046875 0.14062-0.23438v-1.0156c0-0.15625 0-0.23438-0.10938-0.23438-0.046875 0-0.078125 0-0.20312 0.125-0.03125 0.03125-0.125 0.125-0.17188 0.15625-0.375-0.28125-0.78125-0.28125-0.9375-0.28125-1.2188 0-1.5938 0.67188-1.5938 1.2344 0 0.34375 0.15625 0.625 0.42188 0.84375 0.32812 0.25 0.60938 0.3125 1.3281 0.45312 0.21875 0.046875 1.0312 0.20312 1.0312 0.92188 0 0.5-0.34375 0.90625-1.125 0.90625-0.84375 0-1.2031-0.5625-1.3906-1.4219-0.03125-0.125-0.03125-0.15625-0.14062-0.15625-0.125 0-0.125 0.0625-0.125 0.23438v1.3281c0 0.17188 0 0.23438 0.10938 0.23438 0.046875 0 0.0625-0.015625 0.25-0.20312 0.015625-0.015625 0.015625-0.03125 0.20312-0.21875 0.4375 0.40625 0.89062 0.42188 1.0938 0.42188 1.1406 0 1.6094-0.67188 1.6094-1.3906z"/>
</symbol>
<symbol id="f" overflow="visible">
<path d="m4.5625-1.7031c0-0.8125-0.64062-1.5938-1.6719-1.8125 0.8125-0.26562 1.3906-0.95312 1.3906-1.75 0-0.8125-0.875-1.375-1.8281-1.375-1 0-1.7656 0.59375-1.7656 1.3594 0 0.32812 0.21875 0.51562 0.51562 0.51562s0.5-0.21875 0.5-0.51562c0-0.48438-0.46875-0.48438-0.60938-0.48438 0.29688-0.5 0.95312-0.625 1.3125-0.625 0.42188 0 0.96875 0.21875 0.96875 1.1094 0 0.125-0.03125 0.70312-0.28125 1.1406-0.29688 0.48438-0.64062 0.51562-0.89062 0.51562-0.078125 0.015625-0.3125 0.03125-0.39062 0.03125-0.078125 0.015625-0.14062 0.03125-0.14062 0.125 0 0.10938 0.0625 0.10938 0.23438 0.10938h0.4375c0.8125 0 1.1875 0.67188 1.1875 1.6562 0 1.3594-0.6875 1.6406-1.125 1.6406s-1.1875-0.17188-1.5312-0.75c0.34375 0.046875 0.65625-0.17188 0.65625-0.54688 0-0.35938-0.26562-0.5625-0.54688-0.5625-0.25 0-0.5625 0.14062-0.5625 0.57812 0 0.90625 0.92188 1.5625 2.0156 1.5625 1.2188 0 2.125-0.90625 2.125-1.9219z"/>
</symbol>
<symbol id="d" overflow="visible">
<path d="m4.6875-1.6406v-0.3125h-0.98438v-4.5312c0-0.20312 0-0.26562-0.17188-0.26562-0.078125 0-0.10938 0-0.1875 0.125l-3.0625 4.6719v0.3125h2.6562v0.85938c0 0.35938-0.03125 0.46875-0.76562 0.46875h-0.20312v0.3125c0.40625-0.03125 0.92188-0.03125 1.3438-0.03125s0.9375 0 1.3594 0.03125v-0.3125h-0.21875c-0.73438 0-0.75-0.10938-0.75-0.46875v-0.85938zm-1.7031-0.3125h-2.4219l2.4219-3.7188z"/>
</symbol>
<symbol id="c" overflow="visible">
<path d="m4.4688-2c0-1.1875-0.8125-2.1875-1.8906-2.1875-0.46875 0-0.90625 0.15625-1.2656 0.51562v-1.9531c0.20312 0.0625 0.53125 0.125 0.84375 0.125 1.2344 0 1.9375-0.90625 1.9375-1.0312 0-0.0625-0.03125-0.10938-0.10938-0.10938 0 0-0.03125 0-0.078125 0.03125-0.20312 0.09375-0.6875 0.29688-1.3594 0.29688-0.39062 0-0.85938-0.078125-1.3281-0.28125-0.078125-0.03125-0.10938-0.03125-0.10938-0.03125-0.10938 0-0.10938 0.078125-0.10938 0.23438v2.9531c0 0.17188 0 0.25 0.14062 0.25 0.078125 0 0.09375-0.015625 0.14062-0.078125 0.10938-0.15625 0.46875-0.70312 1.2812-0.70312 0.51562 0 0.76562 0.45312 0.84375 0.64062 0.15625 0.375 0.1875 0.75 0.1875 1.25 0 0.35938 0 0.95312-0.25 1.375-0.23438 0.39062-0.60938 0.64062-1.0625 0.64062-0.71875 0-1.2969-0.53125-1.4688-1.1094 0.03125 0 0.0625 0.015625 0.17188 0.015625 0.32812 0 0.5-0.25 0.5-0.48438 0-0.25-0.17188-0.5-0.5-0.5-0.14062 0-0.48438 0.078125-0.48438 0.53125 0 0.85938 0.6875 1.8281 1.7969 1.8281 1.1562 0 2.1719-0.95312 2.1719-2.2188z"/>
</symbol>
<symbol id="e" overflow="visible">
<path d="m4.5625-2.0312c0-1.2656-0.89062-2.2188-2-2.2188-0.67188 0-1.0469 0.5-1.25 0.98438v-0.25c0-2.5156 1.2344-2.875 1.75-2.875 0.23438 0 0.65625 0.0625 0.875 0.40625-0.15625 0-0.54688 0-0.54688 0.4375 0 0.3125 0.23438 0.46875 0.45312 0.46875 0.15625 0 0.46875-0.09375 0.46875-0.48438 0-0.59375-0.4375-1.0781-1.2656-1.0781-1.2812 0-2.625 1.2812-2.625 3.4844 0 2.6719 1.1562 3.375 2.0781 3.375 1.1094 0 2.0625-0.9375 2.0625-2.25zm-0.90625-0.015625c0 0.48438 0 0.98438-0.17188 1.3438-0.29688 0.59375-0.75 0.64062-0.98438 0.64062-0.625 0-0.92188-0.59375-0.98438-0.75-0.1875-0.46875-0.1875-1.2656-0.1875-1.4375 0-0.78125 0.32812-1.7812 1.2188-1.7812 0.17188 0 0.625 0 0.9375 0.625 0.17188 0.35938 0.17188 0.875 0.17188 1.3594z"/>
</symbol>
<symbol id="h" overflow="visible">
<path d="m4.8281-6.4219h-2.4219c-1.2031 0-1.2344-0.125-1.2656-0.3125h-0.25l-0.32812 2.0469h0.25c0.03125-0.15625 0.10938-0.78125 0.25-0.90625 0.0625-0.0625 0.84375-0.0625 0.96875-0.0625h2.0625l-1.1094 1.5781c-0.90625 1.3438-1.2344 2.7344-1.2344 3.75 0 0.09375 0 0.54688 0.46875 0.54688 0.45312 0 0.45312-0.45312 0.45312-0.54688v-0.51562c0-0.54688 0.03125-1.0938 0.10938-1.625 0.046875-0.23438 0.17188-1.0938 0.625-1.7031l1.3438-1.9062c0.078125-0.10938 0.078125-0.125 0.078125-0.34375z"/>
</symbol>
<symbol id="b" overflow="visible">
<path d="m5.1875-2.1562c0-1.2656-0.95312-2.25-2.0781-2.25-0.78125 0-1.2031 0.4375-1.3906 0.65625v-0.65625l-1.4375 0.10938v0.3125c0.70312 0 0.78125 0.0625 0.78125 0.5v4.6562c0 0.45312-0.10938 0.45312-0.78125 0.45312v0.3125l1.1094-0.03125 1.125 0.03125v-0.3125c-0.65625 0-0.76562 0-0.76562-0.45312v-1.7656c0.046875 0.17188 0.46875 0.70312 1.2188 0.70312 1.1875 0 2.2188-0.98438 2.2188-2.2656zm-0.82812 0c0 1.2031-0.6875 2.0469-1.4219 2.0469-0.40625 0-0.78125-0.20312-1.0469-0.60938-0.14062-0.20312-0.14062-0.21875-0.14062-0.42188v-2.2188c0.28125-0.51562 0.76562-0.79688 1.2812-0.79688 0.73438 0 1.3281 0.875 1.3281 2z"/>
</symbol>
<symbol id="g" overflow="visible">
<path d="m5.25 0v-0.3125c-0.6875 0-0.78125-0.0625-0.78125-0.5625v-6.0469l-1.4219 0.10938v0.3125c0.6875 0 0.76562 0.0625 0.76562 0.5625v2.1562c-0.28125-0.35938-0.71875-0.625-1.25-0.625-1.1719 0-2.2188 0.98438-2.2188 2.2656 0 1.2656 0.96875 2.25 2.1094 2.25 0.64062 0 1.0781-0.34375 1.3281-0.65625v0.65625zm-1.4688-1.1719c0 0.17188 0 0.1875-0.10938 0.35938-0.29688 0.48438-0.73438 0.70312-1.1719 0.70312-0.45312 0-0.8125-0.26562-1.0469-0.64062-0.25-0.40625-0.28125-0.96875-0.28125-1.3906 0-0.35938 0.015625-0.95312 0.29688-1.4062 0.21875-0.3125 0.59375-0.64062 1.1406-0.64062 0.34375 0 0.76562 0.15625 1.0625 0.59375 0.10938 0.17188 0.10938 0.1875 0.10938 0.375z"/>
</symbol>
<symbol id="n" overflow="visible">
<path d="m3.5625-6.3281c0-0.375-0.375-0.70312-0.90625-0.70312-0.6875 0-1.5469 0.53125-1.5469 1.5938v1.1406h-0.78125v0.3125h0.78125v3.2344c0 0.4375-0.10938 0.4375-0.76562 0.4375v0.3125l1.125-0.03125c0.40625 0 0.875 0 1.2656 0.03125v-0.3125h-0.20312c-0.73438 0-0.75-0.10938-0.75-0.46875v-3.2031h1.125v-0.3125h-1.1562v-1.1562c0-0.875 0.46875-1.3594 0.90625-1.3594 0.03125 0 0.1875 0 0.32812 0.078125-0.10938 0.03125-0.29688 0.17188-0.29688 0.42188 0 0.21875 0.15625 0.42188 0.4375 0.42188s0.4375-0.20312 0.4375-0.4375z"/>
</symbol>
<symbol id="m" overflow="visible">
<path d="m3.9531-1.5469c0-0.35938-0.1875-0.60938-0.3125-0.71875-0.26562-0.28125-0.5625-0.34375-1-0.42188-0.35938-0.078125-0.75-0.15625-0.75-0.60938 0-0.28125 0.23438-0.89062 1.1094-0.89062 0.25 0 0.75 0.078125 0.89062 0.45312-0.26562 0.015625-0.46875 0.23438-0.46875 0.45312 0 0.14062 0.09375 0.29688 0.3125 0.29688s0.45312-0.17188 0.45312-0.5625c0-0.45312-0.42188-0.85938-1.1875-0.85938-1.3125 0-1.6875 1.0156-1.6875 1.4531 0 0.78125 0.73438 0.92188 1.0312 0.98438 0.51562 0.10938 1.0312 0.21875 1.0312 0.76562 0 0.25-0.21875 1.0938-1.4219 1.0938-0.14062 0-0.90625 0-1.1406-0.53125 0.39062 0.046875 0.64062-0.25 0.64062-0.53125 0-0.21875-0.17188-0.34375-0.375-0.34375-0.26562 0-0.5625 0.20312-0.5625 0.65625 0 0.5625 0.57812 0.96875 1.4219 0.96875 1.625 0 2.0156-1.2031 2.0156-1.6562z"/>
</symbol>
<symbol id="l" overflow="visible">
<path d="m4.8906-2.8125c0-0.9375-0.57812-1.5938-1.3281-1.5938-0.5 0-0.98438 0.35938-1.3125 0.75-0.09375-0.54688-0.53125-0.75-0.89062-0.75-0.46875 0-0.65625 0.39062-0.73438 0.5625-0.1875 0.34375-0.3125 0.9375-0.3125 0.96875 0 0.10938 0.10938 0.10938 0.10938 0.10938 0.10938 0 0.10938-0.015625 0.17188-0.23438 0.17188-0.70312 0.375-1.1875 0.73438-1.1875 0.17188 0 0.3125 0.078125 0.3125 0.45312 0 0.23438-0.03125 0.34375-0.078125 0.51562l-1.1094 4.4375c-0.078125 0.34375-0.10938 0.40625-0.54688 0.40625-0.10938 0-0.21875 0-0.21875 0.1875 0 0.078125 0.046875 0.125 0.125 0.125 0.26562 0 0.5625-0.03125 0.82812-0.03125 0.34375 0 0.67188 0.03125 1 0.03125 0.046875 0 0.17188 0 0.17188-0.20312 0-0.10938-0.09375-0.10938-0.23438-0.10938-0.5 0-0.5-0.0625-0.5-0.15625 0-0.125 0.42188-1.75 0.48438-2 0.125 0.29688 0.40625 0.64062 0.92188 0.64062 1.1562 0 2.4062-1.4531 2.4062-2.9219zm-1.2344 1.6719c-0.34375 0.70312-0.8125 1.0312-1.1875 1.0312-0.65625 0-0.78125-0.82812-0.78125-0.89062 0 0 0-0.03125 0.03125-0.15625l0.48438-1.9531c0.0625-0.26562 0.34375-0.54688 0.51562-0.70312 0.35938-0.29688 0.64062-0.375 0.8125-0.375 0.39062 0 0.64062 0.34375 0.64062 0.9375s-0.32812 1.7344-0.51562 2.1094z"/>
</symbol>
<symbol id="k" overflow="visible">
<path d="m4.9688-1.4219c0-0.10938-0.09375-0.10938-0.125-0.10938-0.09375 0-0.10938 0.046875-0.14062 0.1875-0.17188 0.64062-0.34375 1.2344-0.75 1.2344-0.28125 0-0.29688-0.26562-0.29688-0.45312 0-0.25 0.015625-0.3125 0.046875-0.48438l1.4375-5.7656s0-0.10938-0.125-0.10938c-0.15625 0-1.0938 0.09375-1.2656 0.10938-0.078125 0.015625-0.14062 0.0625-0.14062 0.1875s0.09375 0.125 0.23438 0.125c0.48438 0 0.5 0.0625 0.5 0.17188l-0.03125 0.20312-0.59375 2.3594c-0.1875-0.375-0.46875-0.64062-0.92188-0.64062-1.1562 0-2.3906 1.4688-2.3906 2.9219 0 0.9375 0.54688 1.5938 1.3125 1.5938 0.20312 0 0.70312-0.046875 1.2969-0.75 0.078125 0.42188 0.4375 0.75 0.90625 0.75 0.35938 0 0.57812-0.23438 0.75-0.54688 0.15625-0.35938 0.29688-0.98438 0.29688-0.98438zm-1.4062-1.7188-0.48438 1.9531c-0.0625 0.1875-0.0625 0.20312-0.20312 0.375-0.4375 0.54688-0.84375 0.70312-1.125 0.70312-0.5 0-0.64062-0.54688-0.64062-0.9375 0-0.5 0.3125-1.7188 0.54688-2.1875 0.3125-0.57812 0.75-0.95312 1.1562-0.95312 0.64062 0 0.78125 0.8125 0.78125 0.875s-0.015625 0.125-0.03125 0.17188z"/>
</symbol>
<symbol id="j" overflow="visible">
<path d="m5.5-6.3438c0-0.45312-0.45312-0.6875-0.85938-0.6875-0.34375 0-0.96875 0.1875-1.2656 1.1719-0.0625 0.20312-0.09375 0.3125-0.32812 1.5625h-0.6875c-0.20312 0-0.3125 0-0.3125 0.1875 0 0.125 0.09375 0.125 0.28125 0.125h0.65625l-0.73438 3.9375c-0.1875 0.96875-0.35938 1.875-0.875 1.875-0.046875 0-0.28125 0-0.48438-0.1875 0.46875-0.03125 0.5625-0.39062 0.5625-0.53125 0-0.23438-0.1875-0.35938-0.375-0.35938-0.26562 0-0.54688 0.23438-0.54688 0.60938 0 0.4375 0.4375 0.6875 0.84375 0.6875 0.54688 0 0.95312-0.59375 1.125-0.96875 0.32812-0.625 0.54688-1.8281 0.5625-1.9062l0.59375-3.1562h0.85938c0.20312 0 0.29688 0 0.29688-0.20312 0-0.10938-0.09375-0.10938-0.26562-0.10938h-0.82812c0.10938-0.57812 0.09375-0.5625 0.20312-1.1406 0.046875-0.20312 0.1875-0.90625 0.25-1.0312 0.078125-0.1875 0.25-0.34375 0.46875-0.34375 0.03125 0 0.29688 0 0.48438 0.1875-0.4375 0.03125-0.54688 0.39062-0.54688 0.53125 0 0.23438 0.1875 0.35938 0.375 0.35938 0.26562 0 0.54688-0.23438 0.54688-0.60938z"/>
</symbol>
</defs>
<path transform="matrix(1,0,0,-1,13.928,12.159)" d="m10.959-0.0011562c0 6.0547-4.9062 10.961-10.957 10.961-6.0547 0-10.961-4.9062-10.961-10.961 0-6.0508 4.9062-10.957 10.961-10.957 6.0508 0 10.957 4.9062 10.957 10.957z" fill="#dae9fe" stroke="#0c6dfd" stroke-miterlimit="10" stroke-width=".79701"/>
<g>
<use x="9.102" y="15.296" xlink:href="#o"/>
<use x="14.084" y="15.296" xlink:href="#m"/>
</g>
<path transform="matrix(1,0,0,-1,13.928,12.159)" d="m10.959-36.853c0 6.0547-4.9062 10.961-10.957 10.961-6.0547 0-10.961-4.9062-10.961-10.961 0-6.0508 4.9062-10.957 10.961-10.957 6.0508 0 10.957 4.9062 10.957 10.957z" fill="#dae9fe" stroke="#0c6dfd" stroke-miterlimit="10" stroke-width=".79701"/>
<g>
<use x="9.473" y="52.147" xlink:href="#i"/>
<use x="14.4543" y="52.147" xlink:href="#a"/>
</g>
<path transform="matrix(1,0,0,-1,13.928,12.159)" d="m10.959-73.7c0 6.0508-4.9062 10.957-10.957 10.957-6.0547 0-10.961-4.9062-10.961-10.957 0-6.0547 4.9062-10.961 10.961-10.961 6.0508 0 10.957 4.9062 10.957 10.961z" fill="#dae9fe" stroke="#0c6dfd" stroke-miterlimit="10" stroke-width=".79701"/>
<g>
<use x="9.473" y="88.997" xlink:href="#f"/>
<use x="14.4543" y="88.997" xlink:href="#a"/>
</g>
<path transform="matrix(1,0,0,-1,13.928,12.159)" d="m10.959-110.55c0 6.0508-4.9062 10.957-10.957 10.957-6.0547 0-10.961-4.9062-10.961-10.957 0-6.0547 4.9062-10.961 10.961-10.961 6.0508 0 10.957 4.9062 10.957 10.961z" fill="#dae9fe" stroke="#0c6dfd" stroke-miterlimit="10" stroke-width=".79701"/>
<g>
<use x="9.473" y="125.848" xlink:href="#d"/>
<use x="14.4543" y="125.848" xlink:href="#a"/>
</g>
<path transform="matrix(1,0,0,-1,13.928,12.159)" d="m10.959-147.4c0 6.0508-4.9062 10.957-10.957 10.957-6.0547 0-10.961-4.9062-10.961-10.957 0-6.0547 4.9062-10.961 10.961-10.961 6.0508 0 10.957 4.9062 10.957 10.961z" fill="#dae9fe" stroke="#0c6dfd" stroke-miterlimit="10" stroke-width=".79701"/>
<g>
<use x="9.473" y="162.698" xlink:href="#c"/>
<use x="14.4543" y="162.698" xlink:href="#a"/>
</g>
<path transform="matrix(1,0,0,-1,13.928,12.159)" d="m10.959-184.26c0 6.0547-4.9062 10.961-10.957 10.961-6.0547 0-10.961-4.9062-10.961-10.961 0-6.0508 4.9062-10.957 10.961-10.957 6.0508 0 10.957 4.9062 10.957 10.957z" fill="#dae9fe" stroke="#0c6dfd" stroke-miterlimit="10" stroke-width=".79701"/>
<g>
<use x="9.473" y="199.549" xlink:href="#e"/>
<use x="14.4543" y="199.549" xlink:href="#a"/>
</g>
<path transform="matrix(1,0,0,-1,13.928,12.159)" d="m10.959-221.11c0 6.0547-4.9062 10.961-10.957 10.961-6.0547 0-10.961-4.9062-10.961-10.961 0-6.0508 4.9062-10.957 10.961-10.957 6.0508 0 10.957 4.9062 10.957 10.957z" fill="#dae9fe" stroke="#0c6dfd" stroke-miterlimit="10" stroke-width=".79701"/>
<g>
<use x="9.473" y="236.399" xlink:href="#h"/>
<use x="14.4543" y="236.399" xlink:href="#a"/>
</g>
<path transform="matrix(1,0,0,-1,13.928,12.159)" d="m47.998-36.853c0 6.1602-4.9883 11.148-11.148 11.148-6.1562 0-11.145-4.9883-11.145-11.148 0-6.1562 4.9883-11.145 11.145-11.145 6.1602 0 11.148 4.9883 11.148 11.145z" fill="#feebdb" stroke="#fd7e13" stroke-miterlimit="10" stroke-width=".79701"/>
<g>
<use x="45.782" y="51.178" xlink:href="#i"/>
<use x="50.763" y="51.178" xlink:href="#l"/>
</g>
<path transform="matrix(1,0,0,-1,13.928,12.159)" d="m48.17-73.7c0 6.25-5.0664 11.32-11.32 11.32-6.25 0-11.32-5.0703-11.32-11.32 0-6.2539 5.0703-11.32 11.32-11.32 6.2539 0 11.32 5.0664 11.32 11.32z" fill="#feebdb" stroke="#fd7e13" stroke-miterlimit="10" stroke-width=".79701"/>
<g>
<use x="45.521" y="88.029" xlink:href="#f"/>
<use x="50.5023" y="88.029" xlink:href="#b"/>
</g>
<path transform="matrix(1,0,0,-1,13.928,12.159)" d="m48.17-110.55c0 6.25-5.0664 11.32-11.32 11.32-6.25 0-11.32-5.0703-11.32-11.32 0-6.2539 5.0703-11.32 11.32-11.32 6.2539 0 11.32 5.0664 11.32 11.32z" fill="#feebdb" stroke="#fd7e13" stroke-miterlimit="10" stroke-width=".79701"/>
<g>
<use x="45.521" y="124.879" xlink:href="#d"/>
<use x="50.5023" y="124.879" xlink:href="#b"/>
</g>
<path transform="matrix(1,0,0,-1,13.928,12.159)" d="m48.17-147.4c0 6.25-5.0664 11.32-11.32 11.32-6.25 0-11.32-5.0703-11.32-11.32 0-6.2539 5.0703-11.32 11.32-11.32 6.2539 0 11.32 5.0664 11.32 11.32z" fill="#feebdb" stroke="#fd7e13" stroke-miterlimit="10" stroke-width=".79701"/>
<g>
<use x="45.521" y="161.729" xlink:href="#c"/>
<use x="50.5023" y="161.729" xlink:href="#b"/>
</g>
<path transform="matrix(1,0,0,-1,13.928,12.159)" d="m48.17-184.26c0 6.2539-5.0664 11.32-11.32 11.32-6.25 0-11.32-5.0664-11.32-11.32 0-6.25 5.0703-11.32 11.32-11.32 6.2539 0 11.32 5.0703 11.32 11.32z" fill="#feebdb" stroke="#fd7e13" stroke-miterlimit="10" stroke-width=".79701"/>
<g>
<use x="45.521" y="198.58" xlink:href="#e"/>
<use x="50.5023" y="198.58" xlink:href="#b"/>
</g>
<path transform="matrix(1,0,0,-1,13.928,12.159)" d="m48.17-221.11c0 6.2539-5.0664 11.32-11.32 11.32-6.25 0-11.32-5.0664-11.32-11.32 0-6.25 5.0703-11.32 11.32-11.32 6.2539 0 11.32 5.0703 11.32 11.32z" fill="#feebdb" stroke="#fd7e13" stroke-miterlimit="10" stroke-width=".79701"/>
<g>
<use x="45.521" y="235.43" xlink:href="#h"/>
<use x="50.5023" y="235.43" xlink:href="#b"/>
</g>
<path transform="matrix(1,0,0,-1,13.928,12.159)" d="m84.662-73.7c0 6.0508-4.9062 10.957-10.961 10.957-6.0508 0-10.957-4.9062-10.957-10.957 0-6.0547 4.9062-10.961 10.957-10.961 6.0547 0 10.961 4.9062 10.961 10.961z" fill="#f9e0e3" stroke="#dc3445" stroke-miterlimit="10" stroke-width=".79701"/>
<g>
<use x="82.546" y="89.32" xlink:href="#f"/>
<use x="87.527" y="89.32" xlink:href="#k"/>
</g>
<path transform="matrix(1,0,0,-1,13.928,12.159)" d="m84.662-110.55c0 6.0508-4.9062 10.957-10.961 10.957-6.0508 0-10.957-4.9062-10.957-10.957 0-6.0547 4.9062-10.961 10.957-10.961 6.0547 0 10.961 4.9062 10.961 10.961z" fill="#f9e0e3" stroke="#dc3445" stroke-miterlimit="10" stroke-width=".79701"/>
<g>
<use x="82.371" y="126.142" xlink:href="#d"/>
<use x="87.3523" y="126.142" xlink:href="#g"/>
</g>
<path transform="matrix(1,0,0,-1,13.928,12.159)" d="m84.662-147.4c0 6.0508-4.9062 10.957-10.961 10.957-6.0508 0-10.957-4.9062-10.957-10.957 0-6.0547 4.9062-10.961 10.957-10.961 6.0547 0 10.961 4.9062 10.961 10.961z" fill="#f9e0e3" stroke="#dc3445" stroke-miterlimit="10" stroke-width=".79701"/>
<g>
<use x="82.371" y="162.993" xlink:href="#c"/>
<use x="87.3523" y="162.993" xlink:href="#g"/>
</g>
<path transform="matrix(1,0,0,-1,13.928,12.159)" d="m84.662-184.26c0 6.0547-4.9062 10.961-10.961 10.961-6.0508 0-10.957-4.9062-10.957-10.961 0-6.0508 4.9062-10.957 10.957-10.957 6.0547 0 10.961 4.9062 10.961 10.957z" fill="#f9e0e3" stroke="#dc3445" stroke-miterlimit="10" stroke-width=".79701"/>
<g>
<use x="82.371" y="199.843" xlink:href="#e"/>
<use x="87.3523" y="199.843" xlink:href="#g"/>
</g>
<path transform="matrix(1,0,0,-1,13.928,12.159)" d="m122.27-110.55c0 6.4688-5.2461 11.715-11.715 11.715s-11.715-5.2461-11.715-11.715c0-6.4727 5.2461-11.715 11.715-11.715s11.715 5.2422 11.715 11.715z" fill="#e9e2f5" stroke="#6e41c1" stroke-miterlimit="10" stroke-width=".79701"/>
<g>
<use x="119.014" y="125.201" xlink:href="#d"/>
<use x="123.995" y="125.201" xlink:href="#j"/>
</g>
<path transform="matrix(1,0,0,-1,13.928,12.159)" d="m121.51-147.4c0 6.0508-4.9062 10.957-10.961 10.957-6.0508 0-10.957-4.9062-10.957-10.957 0-6.0547 4.9062-10.961 10.957-10.961 6.0547 0 10.961 4.9062 10.961 10.961z" fill="#e9e2f5" stroke="#6e41c1" stroke-miterlimit="10" stroke-width=".79701"/>
<g>
<use x="120.072" y="162.993" xlink:href="#c"/>
<use x="125.0533" y="162.993" xlink:href="#n"/>
</g>
<path transform="matrix(1,0,0,-1,13.928,12.159)" d="m-8.0296-8.0324c-10.887-10.883-2.8555-21.277 8.0313-10.395" fill="none" stroke="#7f7f7f" stroke-miterlimit="10" stroke-width=".59776"/>
<path transform="matrix(1,0,0,-1,13.928,12.159)" d="m0.0016875-18.427c10.883 10.887 18.914 0.49219 8.0312-10.395" fill="none" stroke="#7f7f7f" stroke-miterlimit="10" stroke-width=".59776"/>
<path transform="matrix(1,0,0,-1,13.928,12.159)" d="m-8.0296-44.88c-10.887-10.887-2.8555-21.281 8.0313-10.395" fill="none" stroke="#7f7f7f" stroke-miterlimit="10" stroke-width=".59776"/>
<path transform="matrix(1,0,0,-1,13.928,12.159)" d="m0.0016875-55.275 36.848 36.848" fill="none" stroke="#7f7f7f" stroke-miterlimit="10" stroke-width=".59776"/>
<path transform="matrix(1,0,0,-1,13.928,12.159)" d="m36.849-18.427c10.855 10.855 19.02 0.59375 8.168-10.258" fill="none" stroke="#7f7f7f" stroke-miterlimit="10" stroke-width=".59776"/>
<path transform="matrix(1,0,0,-1,13.928,12.159)" d="m28.685-45.017-20.652-20.652" fill="none" stroke="#7f7f7f" stroke-miterlimit="10" stroke-width=".59776"/>
<path transform="matrix(1,0,0,-1,13.928,12.159)" d="m-8.0296-81.732c-10.887-10.887-2.8555-21.281 8.0313-10.395" fill="none" stroke="#7f7f7f" stroke-miterlimit="10" stroke-width=".59776"/>
<path transform="matrix(1,0,0,-1,13.928,12.159)" d="m0.0016875-92.126 36.848 36.852" fill="none" stroke="#7f7f7f" stroke-miterlimit="10" stroke-width=".59776"/>
<path transform="matrix(1,0,0,-1,13.928,12.159)" d="m36.849-55.275c10.887 10.887 19.176 0.74609 8.2891-10.141" fill="none" stroke="#7f7f7f" stroke-miterlimit="10" stroke-width=".59776"/>
<path transform="matrix(1,0,0,-1,13.928,12.159)" d="m28.564-81.989-20.531-20.531" fill="none" stroke="#7f7f7f" stroke-miterlimit="10" stroke-width=".59776"/>
<path transform="matrix(1,0,0,-1,13.928,12.159)" d="m-8.0296-118.58c-10.887-10.887-2.8555-21.281 8.0313-10.395" fill="none" stroke="#7f7f7f" stroke-miterlimit="10" stroke-width=".59776"/>
<path transform="matrix(1,0,0,-1,13.928,12.159)" d="m0.0016875-128.98 73.699 73.699" fill="none" stroke="#7f7f7f" stroke-miterlimit="10" stroke-width=".59776"/>
<path transform="matrix(1,0,0,-1,13.928,12.159)" d="m73.701-55.278c10.887 10.887 18.918 0.49219 8.0312-10.391" fill="none" stroke="#7f7f7f" stroke-miterlimit="10" stroke-width=".59776"/>
<path transform="matrix(1,0,0,-1,13.928,12.159)" d="m65.67-81.732-20.531-20.535" fill="none" stroke="#7f7f7f" stroke-miterlimit="10" stroke-width=".59776"/>
<path transform="matrix(1,0,0,-1,13.928,12.159)" d="m28.564-118.84-20.531-20.531" fill="none" stroke="#7f7f7f" stroke-miterlimit="10" stroke-width=".59776"/>
<path transform="matrix(1,0,0,-1,13.928,12.159)" d="m-8.0296-155.43c-10.887-10.887-2.8555-21.281 8.0313-10.395" fill="none" stroke="#7f7f7f" stroke-miterlimit="10" stroke-width=".59776"/>
<path transform="matrix(1,0,0,-1,13.928,12.159)" d="m0.0016875-165.83 73.699 73.703" fill="none" stroke="#7f7f7f" stroke-miterlimit="10" stroke-width=".59776"/>
<path transform="matrix(1,0,0,-1,13.928,12.159)" d="m73.701-92.126c10.887 10.887 18.918 0.49219 8.0312-10.395" fill="none" stroke="#7f7f7f" stroke-miterlimit="10" stroke-width=".59776"/>
<path transform="matrix(1,0,0,-1,13.928,12.159)" d="m65.67-118.58-20.531-20.535" fill="none" stroke="#7f7f7f" stroke-miterlimit="10" stroke-width=".59776"/>
<path transform="matrix(1,0,0,-1,13.928,12.159)" d="m28.564-155.69-20.531-20.535" fill="none" stroke="#7f7f7f" stroke-miterlimit="10" stroke-width=".59776"/>
<path transform="matrix(1,0,0,-1,13.928,12.159)" d="m-8.0296-192.29c-10.887-10.887-2.8555-21.281 8.0313-10.395" fill="none" stroke="#7f7f7f" stroke-miterlimit="10" stroke-width=".59776"/>
<path transform="matrix(1,0,0,-1,13.928,12.159)" d="m0.0016875-202.68 110.55 110.55" fill="none" stroke="#7f7f7f" stroke-miterlimit="10" stroke-width=".59776"/>
<path transform="matrix(1,0,0,-1,13.928,12.159)" d="m110.55-92.126c10.805 10.805 19.371 0.94531 8.5664-9.8594" fill="none" stroke="#7f7f7f" stroke-miterlimit="10" stroke-width=".59776"/>
<path transform="matrix(1,0,0,-1,13.928,12.159)" d="m101.99-119.12-20.254-20.254" fill="none" stroke="#7f7f7f" stroke-miterlimit="10" stroke-width=".59776"/>
<path transform="matrix(1,0,0,-1,13.928,12.159)" d="m65.67-155.43-20.531-20.535" fill="none" stroke="#7f7f7f" stroke-miterlimit="10" stroke-width=".59776"/>
<path transform="matrix(1,0,0,-1,13.928,12.159)" d="m28.564-192.54-20.531-20.535" fill="none" stroke="#7f7f7f" stroke-miterlimit="10" stroke-width=".59776"/>
<path transform="matrix(1,0,0,-1,13.928,12.159)" d="m-8.0296-229.14c-10.887-10.883-2.8555-21.277 8.0313-10.395" fill="none" stroke="#7f7f7f" stroke-miterlimit="10" stroke-width=".59776"/>
<path transform="matrix(1,0,0,-1,13.928,12.159)" d="m0.0016875-239.53 110.55 110.55" fill="none" stroke="#7f7f7f" stroke-miterlimit="10" stroke-width=".59776"/>
<path transform="matrix(1,0,0,-1,13.928,12.159)" d="m110.55-128.98c10.887 10.887 18.918 0.49219 8.0312-10.395" fill="none" stroke="#7f7f7f" stroke-miterlimit="10" stroke-width=".59776"/>
<path transform="matrix(1,0,0,-1,13.928,12.159)" d="m102.52-155.43-20.789-20.789" fill="none" stroke="#7f7f7f" stroke-miterlimit="10" stroke-width=".59776"/>
<path transform="matrix(1,0,0,-1,13.928,12.159)" d="m65.67-192.29-20.531-20.531" fill="none" stroke="#7f7f7f" stroke-miterlimit="10" stroke-width=".59776"/>
<path transform="matrix(1,0,0,-1,13.928,12.159)" d="m28.564-229.39-17.523-17.523" fill="none" stroke="#7f7f7f" stroke-miterlimit="10" stroke-width=".59776"/>
<path transform="matrix(-.7071 .7071 .7071 .7071 26.448 257.6)" d="m4.8256-3.8272e-4 -3.8615 1.4584 1.2761-1.4584-1.2761-1.4584z" fill="#7f7f7f" stroke="#7f7f7f" stroke-miterlimit="10" stroke-width=".59776"/>
</svg>
