<?xml version="1.0" encoding="UTF-8"?>
<svg width="139pt" height="262pt" version="1.1" viewBox="0 0 139 262" xmlns="http://www.w3.org/2000/svg" xmlns:xlink="http://www.w3.org/1999/xlink">
<defs>
<symbol id="k" overflow="visible">
<path d="m4.1719 0v-0.3125h-0.3125c-0.90625 0-0.92188-0.10938-0.92188-0.46875v-5.5938c0-0.25 0-0.26562-0.23438-0.26562-0.625 0.64062-1.5 0.64062-1.8125 0.64062v0.3125c0.20312 0 0.78125 0 1.2969-0.26562v5.1719c0 0.35938-0.03125 0.46875-0.92188 0.46875h-0.3125v0.3125c0.34375-0.03125 1.2031-0.03125 1.6094-0.03125 0.39062 0 1.2656 0 1.6094 0.03125z"/>
</symbol>
<symbol id="a" overflow="visible">
<path d="m3.5938-1.2812c0-0.51562-0.29688-0.82812-0.42188-0.9375-0.32812-0.32812-0.71875-0.40625-1.1406-0.48438-0.5625-0.10938-1.2188-0.23438-1.2188-0.8125 0-0.35938 0.25-0.76562 1.1094-0.76562 1.0938 0 1.1562 0.90625 1.1719 1.2031 0 0.09375 0.10938 0.09375 0.10938 0.09375 0.14062 0 0.14062-0.046875 0.14062-0.23438v-1.0156c0-0.15625 0-0.23438-0.10938-0.23438-0.046875 0-0.078125 0-0.20312 0.125-0.03125 0.03125-0.125 0.125-0.17188 0.15625-0.375-0.28125-0.78125-0.28125-0.9375-0.28125-1.2188 0-1.5938 0.67188-1.5938 1.2344 0 0.34375 0.15625 0.625 0.42188 0.84375 0.32812 0.25 0.60938 0.3125 1.3281 0.45312 0.21875 0.046875 1.0312 0.20312 1.0312 0.92188 0 0.5-0.34375 0.90625-1.125 0.90625-0.84375 0-1.2031-0.5625-1.3906-1.4219-0.03125-0.125-0.03125-0.15625-0.14062-0.15625-0.125 0-0.125 0.0625-0.125 0.23438v1.3281c0 0.17188 0 0.23438 0.10938 0.23438 0.046875 0 0.0625-0.015625 0.25-0.20312 0.015625-0.015625 0.015625-0.03125 0.20312-0.21875 0.4375 0.40625 0.89062 0.42188 1.0938 0.42188 1.1406 0 1.6094-0.67188 1.6094-1.3906z"/>
</symbol>
<symbol id="i" overflow="visible">
<path d="m4.4688-1.7344h-0.23438c-0.0625 0.29688-0.125 0.73438-0.23438 0.89062-0.0625 0.078125-0.71875 0.078125-0.9375 0.078125h-1.7969l1.0625-1.0312c1.5469-1.375 2.1406-1.9062 2.1406-2.9062 0-1.1406-0.89062-1.9375-2.1094-1.9375-1.125 0-1.8594 0.92188-1.8594 1.8125 0 0.54688 0.5 0.54688 0.53125 0.54688 0.17188 0 0.51562-0.10938 0.51562-0.53125 0-0.25-0.1875-0.51562-0.53125-0.51562-0.078125 0-0.09375 0-0.125 0.015625 0.21875-0.65625 0.76562-1.0156 1.3438-1.0156 0.90625 0 1.3281 0.8125 1.3281 1.625 0 0.79688-0.48438 1.5781-1.0469 2.2031l-1.9062 2.125c-0.10938 0.10938-0.10938 0.14062-0.10938 0.375h3.7031z"/>
</symbol>
<symbol id="g" overflow="visible">
<path d="m4.5625-1.7031c0-0.8125-0.64062-1.5938-1.6719-1.8125 0.8125-0.26562 1.3906-0.95312 1.3906-1.75 0-0.8125-0.875-1.375-1.8281-1.375-1 0-1.7656 0.59375-1.7656 1.3594 0 0.32812 0.21875 0.51562 0.51562 0.51562s0.5-0.21875 0.5-0.51562c0-0.48438-0.46875-0.48438-0.60938-0.48438 0.29688-0.5 0.95312-0.625 1.3125-0.625 0.42188 0 0.96875 0.21875 0.96875 1.1094 0 0.125-0.03125 0.70312-0.28125 1.1406-0.29688 0.48438-0.64062 0.51562-0.89062 0.51562-0.078125 0.015625-0.3125 0.03125-0.39062 0.03125-0.078125 0.015625-0.14062 0.03125-0.14062 0.125 0 0.10938 0.0625 0.10938 0.23438 0.10938h0.4375c0.8125 0 1.1875 0.67188 1.1875 1.6562 0 1.3594-0.6875 1.6406-1.125 1.6406s-1.1875-0.17188-1.5312-0.75c0.34375 0.046875 0.65625-0.17188 0.65625-0.54688 0-0.35938-0.26562-0.5625-0.54688-0.5625-0.25 0-0.5625 0.14062-0.5625 0.57812 0 0.90625 0.92188 1.5625 2.0156 1.5625 1.2188 0 2.125-0.90625 2.125-1.9219z"/>
</symbol>
<symbol id="d" overflow="visible">
<path d="m4.6875-1.6406v-0.3125h-0.98438v-4.5312c0-0.20312 0-0.26562-0.17188-0.26562-0.078125 0-0.10938 0-0.1875 0.125l-3.0625 4.6719v0.3125h2.6562v0.85938c0 0.35938-0.03125 0.46875-0.76562 0.46875h-0.20312v0.3125c0.40625-0.03125 0.92188-0.03125 1.3438-0.03125s0.9375 0 1.3594 0.03125v-0.3125h-0.21875c-0.73438 0-0.75-0.10938-0.75-0.46875v-0.85938zm-1.7031-0.3125h-2.4219l2.4219-3.7188z"/>
</symbol>
<symbol id="c" overflow="visible">
<path d="m4.4688-2c0-1.1875-0.8125-2.1875-1.8906-2.1875-0.46875 0-0.90625 0.15625-1.2656 0.51562v-1.9531c0.20312 0.0625 0.53125 0.125 0.84375 0.125 1.2344 0 1.9375-0.90625 1.9375-1.0312 0-0.0625-0.03125-0.10938-0.10938-0.10938 0 0-0.03125 0-0.078125 0.03125-0.20312 0.09375-0.6875 0.29688-1.3594 0.29688-0.39062 0-0.85938-0.078125-1.3281-0.28125-0.078125-0.03125-0.10938-0.03125-0.10938-0.03125-0.10938 0-0.10938 0.078125-0.10938 0.23438v2.9531c0 0.17188 0 0.25 0.14062 0.25 0.078125 0 0.09375-0.015625 0.14062-0.078125 0.10938-0.15625 0.46875-0.70312 1.2812-0.70312 0.51562 0 0.76562 0.45312 0.84375 0.64062 0.15625 0.375 0.1875 0.75 0.1875 1.25 0 0.35938 0 0.95312-0.25 1.375-0.23438 0.39062-0.60938 0.64062-1.0625 0.64062-0.71875 0-1.2969-0.53125-1.4688-1.1094 0.03125 0 0.0625 0.015625 0.17188 0.015625 0.32812 0 0.5-0.25 0.5-0.48438 0-0.25-0.17188-0.5-0.5-0.5-0.14062 0-0.48438 0.078125-0.48438 0.53125 0 0.85938 0.6875 1.8281 1.7969 1.8281 1.1562 0 2.1719-0.95312 2.1719-2.2188z"/>
</symbol>
<symbol id="f" overflow="visible">
<path d="m4.5625-2.0312c0-1.2656-0.89062-2.2188-2-2.2188-0.67188 0-1.0469 0.5-1.25 0.98438v-0.25c0-2.5156 1.2344-2.875 1.75-2.875 0.23438 0 0.65625 0.0625 0.875 0.40625-0.15625 0-0.54688 0-0.54688 0.4375 0 0.3125 0.23438 0.46875 0.45312 0.46875 0.15625 0 0.46875-0.09375 0.46875-0.48438 0-0.59375-0.4375-1.0781-1.2656-1.0781-1.2812 0-2.625 1.2812-2.625 3.4844 0 2.6719 1.1562 3.375 2.0781 3.375 1.1094 0 2.0625-0.9375 2.0625-2.25zm-0.90625-0.015625c0 0.48438 0 0.98438-0.17188 1.3438-0.29688 0.59375-0.75 0.64062-0.98438 0.64062-0.625 0-0.92188-0.59375-0.98438-0.75-0.1875-0.46875-0.1875-1.2656-0.1875-1.4375 0-0.78125 0.32812-1.7812 1.2188-1.7812 0.17188 0 0.625 0 0.9375 0.625 0.17188 0.35938 0.17188 0.875 0.17188 1.3594z"/>
</symbol>
<symbol id="h" overflow="visible">
<path d="m4.8281-6.4219h-2.4219c-1.2031 0-1.2344-0.125-1.2656-0.3125h-0.25l-0.32812 2.0469h0.25c0.03125-0.15625 0.10938-0.78125 0.25-0.90625 0.0625-0.0625 0.84375-0.0625 0.96875-0.0625h2.0625l-1.1094 1.5781c-0.90625 1.3438-1.2344 2.7344-1.2344 3.75 0 0.09375 0 0.54688 0.46875 0.54688 0.45312 0 0.45312-0.45312 0.45312-0.54688v-0.51562c0-0.54688 0.03125-1.0938 0.10938-1.625 0.046875-0.23438 0.17188-1.0938 0.625-1.7031l1.3438-1.9062c0.078125-0.10938 0.078125-0.125 0.078125-0.34375z"/>
</symbol>
<symbol id="b" overflow="visible">
<path d="m5.1875-2.1562c0-1.2656-0.95312-2.25-2.0781-2.25-0.78125 0-1.2031 0.4375-1.3906 0.65625v-0.65625l-1.4375 0.10938v0.3125c0.70312 0 0.78125 0.0625 0.78125 0.5v4.6562c0 0.45312-0.10938 0.45312-0.78125 0.45312v0.3125l1.1094-0.03125 1.125 0.03125v-0.3125c-0.65625 0-0.76562 0-0.76562-0.45312v-1.7656c0.046875 0.17188 0.46875 0.70312 1.2188 0.70312 1.1875 0 2.2188-0.98438 2.2188-2.2656zm-0.82812 0c0 1.2031-0.6875 2.0469-1.4219 2.0469-0.40625 0-0.78125-0.20312-1.0469-0.60938-0.14062-0.20312-0.14062-0.21875-0.14062-0.42188v-2.2188c0.28125-0.51562 0.76562-0.79688 1.2812-0.79688 0.73438 0 1.3281 0.875 1.3281 2z"/>
</symbol>
<symbol id="e" overflow="visible">
<path d="m5.25 0v-0.3125c-0.6875 0-0.78125-0.0625-0.78125-0.5625v-6.0469l-1.4219 0.10938v0.3125c0.6875 0 0.76562 0.0625 0.76562 0.5625v2.1562c-0.28125-0.35938-0.71875-0.625-1.25-0.625-1.1719 0-2.2188 0.98438-2.2188 2.2656 0 1.2656 0.96875 2.25 2.1094 2.25 0.64062 0 1.0781-0.34375 1.3281-0.65625v0.65625zm-1.4688-1.1719c0 0.17188 0 0.1875-0.10938 0.35938-0.29688 0.48438-0.73438 0.70312-1.1719 0.70312-0.45312 0-0.8125-0.26562-1.0469-0.64062-0.25-0.40625-0.28125-0.96875-0.28125-1.3906 0-0.35938 0.015625-0.95312 0.29688-1.4062 0.21875-0.3125 0.59375-0.64062 1.1406-0.64062 0.34375 0 0.76562 0.15625 1.0625 0.59375 0.10938 0.17188 0.10938 0.1875 0.10938 0.375z"/>
</symbol>
<symbol id="j" overflow="visible">
<path d="m3.5625-6.3281c0-0.375-0.375-0.70312-0.90625-0.70312-0.6875 0-1.5469 0.53125-1.5469 1.5938v1.1406h-0.78125v0.3125h0.78125v3.2344c0 0.4375-0.10938 0.4375-0.76562 0.4375v0.3125l1.125-0.03125c0.40625 0 0.875 0 1.2656 0.03125v-0.3125h-0.20312c-0.73438 0-0.75-0.10938-0.75-0.46875v-3.2031h1.125v-0.3125h-1.1562v-1.1562c0-0.875 0.46875-1.3594 0.90625-1.3594 0.03125 0 0.1875 0 0.32812 0.078125-0.10938 0.03125-0.29688 0.17188-0.29688 0.42188 0 0.21875 0.15625 0.42188 0.4375 0.42188s0.4375-0.20312 0.4375-0.4375z"/>
</symbol>
</defs>
<path transform="matrix(1,0,0,-1,14.506,11.704)" d="m10.959 8.75e-4c0 6.0508-4.9062 10.957-10.957 10.957-6.0547 0-10.961-4.9062-10.961-10.957 0-6.0547 4.9062-10.961 10.961-10.961 6.0508 0 10.957 4.9062 10.957 10.961z" fill="#dae9fe" stroke="#0c6dfd" stroke-miterlimit="10" stroke-width=".79701"/>
<g>
<use x="10.051" y="14.841" xlink:href="#k"/>
<use x="15.0323" y="14.841" xlink:href="#a"/>
</g>
<path transform="matrix(1,0,0,-1,14.506,11.704)" d="m10.959-36.851c0 6.0508-4.9062 10.957-10.957 10.957-6.0547 0-10.961-4.9062-10.961-10.957 0-6.0547 4.9062-10.961 10.961-10.961 6.0508 0 10.957 4.9062 10.957 10.961z" fill="#dae9fe" stroke="#0c6dfd" stroke-miterlimit="10" stroke-width=".79701"/>
<g>
<use x="10.051" y="51.691" xlink:href="#i"/>
<use x="15.0323" y="51.691" xlink:href="#a"/>
</g>
<path transform="matrix(1,0,0,-1,14.506,11.704)" d="m10.959-73.702c0 6.0547-4.9062 10.961-10.957 10.961-6.0547 0-10.961-4.9062-10.961-10.961 0-6.0508 4.9062-10.957 10.961-10.957 6.0508 0 10.957 4.9062 10.957 10.957z" fill="#dae9fe" stroke="#0c6dfd" stroke-miterlimit="10" stroke-width=".79701"/>
<g>
<use x="10.051" y="88.542" xlink:href="#g"/>
<use x="15.0323" y="88.542" xlink:href="#a"/>
</g>
<path transform="matrix(1,0,0,-1,14.506,11.704)" d="m10.959-110.55c0 6.0547-4.9062 10.961-10.957 10.961-6.0547 0-10.961-4.9062-10.961-10.961 0-6.0508 4.9062-10.957 10.961-10.957 6.0508 0 10.957 4.9062 10.957 10.957z" fill="#dae9fe" stroke="#0c6dfd" stroke-miterlimit="10" stroke-width=".79701"/>
<g>
<use x="10.051" y="125.392" xlink:href="#d"/>
<use x="15.0323" y="125.392" xlink:href="#a"/>
</g>
<path transform="matrix(1,0,0,-1,14.506,11.704)" d="m10.959-147.41c0 6.0547-4.9062 10.961-10.957 10.961-6.0547 0-10.961-4.9062-10.961-10.961 0-6.0508 4.9062-10.957 10.961-10.957 6.0508 0 10.957 4.9062 10.957 10.957z" fill="#dae9fe" stroke="#0c6dfd" stroke-miterlimit="10" stroke-width=".79701"/>
<g>
<use x="10.051" y="162.243" xlink:href="#c"/>
<use x="15.0323" y="162.243" xlink:href="#a"/>
</g>
<path transform="matrix(1,0,0,-1,14.506,11.704)" d="m10.959-184.25c0 6.0508-4.9062 10.957-10.957 10.957-6.0547 0-10.961-4.9062-10.961-10.957 0-6.0547 4.9062-10.961 10.961-10.961 6.0508 0 10.957 4.9062 10.957 10.961z" fill="#dae9fe" stroke="#0c6dfd" stroke-miterlimit="10" stroke-width=".79701"/>
<g>
<use x="10.051" y="199.093" xlink:href="#f"/>
<use x="15.0323" y="199.093" xlink:href="#a"/>
</g>
<path transform="matrix(1,0,0,-1,14.506,11.704)" d="m10.959-221.1c0 6.0508-4.9062 10.957-10.957 10.957-6.0547 0-10.961-4.9062-10.961-10.957 0-6.0547 4.9062-10.961 10.961-10.961 6.0508 0 10.957 4.9062 10.957 10.961z" fill="#dae9fe" stroke="#0c6dfd" stroke-miterlimit="10" stroke-width=".79701"/>
<g>
<use x="10.051" y="235.943" xlink:href="#h"/>
<use x="15.0323" y="235.943" xlink:href="#a"/>
</g>
<path transform="matrix(1,0,0,-1,14.506,11.704)" d="m48.17-36.851c0 6.25-5.0664 11.32-11.32 11.32-6.25 0-11.32-5.0703-11.32-11.32 0-6.2539 5.0703-11.32 11.32-11.32 6.2539 0 11.32 5.0664 11.32 11.32z" fill="#fff5d9" stroke="#ffc106" stroke-miterlimit="10" stroke-width=".79701"/>
<g>
<use x="46.099" y="50.723" xlink:href="#i"/>
<use x="51.0803" y="50.723" xlink:href="#b"/>
</g>
<path transform="matrix(1,0,0,-1,14.506,11.704)" d="m48.17-73.702c0 6.2539-5.0664 11.32-11.32 11.32-6.25 0-11.32-5.0664-11.32-11.32 0-6.25 5.0703-11.32 11.32-11.32 6.2539 0 11.32 5.0703 11.32 11.32z" fill="#fff5d9" stroke="#ffc106" stroke-miterlimit="10" stroke-width=".79701"/>
<g>
<use x="46.099" y="87.573" xlink:href="#g"/>
<use x="51.0803" y="87.573" xlink:href="#b"/>
</g>
<path transform="matrix(1,0,0,-1,14.506,11.704)" d="m48.17-110.55c0 6.2539-5.0664 11.32-11.32 11.32-6.25 0-11.32-5.0664-11.32-11.32 0-6.25 5.0703-11.32 11.32-11.32 6.2539 0 11.32 5.0703 11.32 11.32z" fill="#fff5d9" stroke="#ffc106" stroke-miterlimit="10" stroke-width=".79701"/>
<g>
<use x="46.099" y="124.423" xlink:href="#d"/>
<use x="51.0803" y="124.423" xlink:href="#b"/>
</g>
<path transform="matrix(1,0,0,-1,14.506,11.704)" d="m48.17-147.41c0 6.2539-5.0664 11.32-11.32 11.32-6.25 0-11.32-5.0664-11.32-11.32 0-6.25 5.0703-11.32 11.32-11.32 6.2539 0 11.32 5.0703 11.32 11.32z" fill="#fff5d9" stroke="#ffc106" stroke-miterlimit="10" stroke-width=".79701"/>
<g>
<use x="46.099" y="161.274" xlink:href="#c"/>
<use x="51.0803" y="161.274" xlink:href="#b"/>
</g>
<path transform="matrix(1,0,0,-1,14.506,11.704)" d="m48.17-184.25c0 6.25-5.0664 11.32-11.32 11.32-6.25 0-11.32-5.0703-11.32-11.32 0-6.2539 5.0703-11.32 11.32-11.32 6.2539 0 11.32 5.0664 11.32 11.32z" fill="#fff5d9" stroke="#ffc106" stroke-miterlimit="10" stroke-width=".79701"/>
<g>
<use x="46.099" y="198.124" xlink:href="#f"/>
<use x="51.0803" y="198.124" xlink:href="#b"/>
</g>
<path transform="matrix(1,0,0,-1,14.506,11.704)" d="m48.17-221.1c0 6.25-5.0664 11.32-11.32 11.32-6.25 0-11.32-5.0703-11.32-11.32 0-6.2539 5.0703-11.32 11.32-11.32 6.2539 0 11.32 5.0664 11.32 11.32z" fill="#fff5d9" stroke="#ffc106" stroke-miterlimit="10" stroke-width=".79701"/>
<g>
<use x="46.099" y="234.975" xlink:href="#h"/>
<use x="51.0803" y="234.975" xlink:href="#b"/>
</g>
<path transform="matrix(1,0,0,-1,14.506,11.704)" d="m84.662-73.702c0 6.0547-4.9062 10.961-10.961 10.961-6.0508 0-10.957-4.9062-10.957-10.961 0-6.0508 4.9062-10.957 10.957-10.957 6.0547 0 10.961 4.9062 10.961 10.957z" fill="#f9e0e3" stroke="#dc3445" stroke-miterlimit="10" stroke-width=".79701"/>
<g>
<use x="82.949" y="88.836" xlink:href="#g"/>
<use x="87.9303" y="88.836" xlink:href="#e"/>
</g>
<path transform="matrix(1,0,0,-1,14.506,11.704)" d="m84.662-110.55c0 6.0547-4.9062 10.961-10.961 10.961-6.0508 0-10.957-4.9062-10.957-10.961 0-6.0508 4.9062-10.957 10.957-10.957 6.0547 0 10.961 4.9062 10.961 10.957z" fill="#f9e0e3" stroke="#dc3445" stroke-miterlimit="10" stroke-width=".79701"/>
<g>
<use x="82.949" y="125.687" xlink:href="#d"/>
<use x="87.9303" y="125.687" xlink:href="#e"/>
</g>
<path transform="matrix(1,0,0,-1,14.506,11.704)" d="m84.662-147.41c0 6.0547-4.9062 10.961-10.961 10.961-6.0508 0-10.957-4.9062-10.957-10.961 0-6.0508 4.9062-10.957 10.957-10.957 6.0547 0 10.961 4.9062 10.961 10.957z" fill="#f9e0e3" stroke="#dc3445" stroke-miterlimit="10" stroke-width=".79701"/>
<g>
<use x="82.949" y="162.537" xlink:href="#c"/>
<use x="87.9303" y="162.537" xlink:href="#e"/>
</g>
<path transform="matrix(1,0,0,-1,14.506,11.704)" d="m84.662-184.25c0 6.0508-4.9062 10.957-10.961 10.957-6.0508 0-10.957-4.9062-10.957-10.957 0-6.0547 4.9062-10.961 10.957-10.961 6.0547 0 10.961 4.9062 10.961 10.961z" fill="#f9e0e3" stroke="#dc3445" stroke-miterlimit="10" stroke-width=".79701"/>
<g>
<use x="82.949" y="199.388" xlink:href="#f"/>
<use x="87.9303" y="199.388" xlink:href="#e"/>
</g>
<path transform="matrix(1,0,0,-1,14.506,11.704)" d="m121.51-110.55c0 6.0547-4.9062 10.961-10.961 10.961-6.0508 0-10.957-4.9062-10.957-10.961 0-6.0508 4.9062-10.957 10.957-10.957 6.0547 0 10.961 4.9062 10.961 10.957z" fill="#e9e2f5" stroke="#6e41c1" stroke-miterlimit="10" stroke-width=".79701"/>
<g>
<use x="120.65" y="125.687" xlink:href="#d"/>
<use x="125.6313" y="125.687" xlink:href="#j"/>
</g>
<path transform="matrix(1,0,0,-1,14.506,11.704)" d="m121.51-147.41c0 6.0547-4.9062 10.961-10.961 10.961-6.0508 0-10.957-4.9062-10.957-10.961 0-6.0508 4.9062-10.957 10.957-10.957 6.0547 0 10.961 4.9062 10.961 10.957z" fill="#e9e2f5" stroke="#6e41c1" stroke-miterlimit="10" stroke-width=".79701"/>
<g>
<use x="120.65" y="162.537" xlink:href="#c"/>
<use x="125.6313" y="162.537" xlink:href="#j"/>
</g>
<path transform="matrix(1,0,0,-1,14.506,11.704)" d="m-8.0294-8.0304c-10.887-10.887-2.8555-21.281 8.0313-10.395" fill="none" stroke="#7f7f7f" stroke-miterlimit="10" stroke-width=".59776"/>
<path transform="matrix(1,0,0,-1,14.506,11.704)" d="m0.0018125-18.425c10.883 10.887 18.914 0.49219 8.0273-10.395" fill="none" stroke="#7f7f7f" stroke-miterlimit="10" stroke-width=".59776"/>
<path transform="matrix(.74669 -.66507 -.66507 -.74669 11.326 32.904)" d="m4.8257-8.622e-4 -3.8585 1.4592 1.2741-1.4592-1.2771-1.4573z" fill="#7f7f7f" stroke="#7f7f7f" stroke-miterlimit="10" stroke-width=".59776"/>
<path transform="matrix(1,0,0,-1,14.506,11.704)" d="m-8.0294-44.882c-10.887-10.887-2.8555-21.281 8.0313-10.395" fill="none" stroke="#7f7f7f" stroke-miterlimit="10" stroke-width=".59776"/>
<path transform="matrix(1,0,0,-1,14.506,11.704)" d="m0.0018125-55.276 36.848 36.852" fill="none" stroke="#7f7f7f" stroke-miterlimit="10" stroke-width=".59776"/>
<path transform="matrix(.7071 -.7071 -.7071 -.7071 12.332 69.155)" d="m4.8275-0.0013303-3.8615 1.4584 1.2761-1.4584-1.2761-1.4584z" fill="#7f7f7f" stroke="#7f7f7f" stroke-miterlimit="10" stroke-width=".59776"/>
<path transform="matrix(1,0,0,-1,14.506,11.704)" d="m36.849-18.425c10.887 10.887 19.176 0.74609 8.2891-10.141" fill="none" stroke="#7f7f7f" stroke-miterlimit="10" stroke-width=".59776"/>
<path transform="matrix(.74658 -.6652 -.6652 -.74658 48.177 32.906)" d="m4.8271-0.0010128-3.8637 1.4596 1.2794-1.4591-1.2773-1.4571z" fill="#7f7f7f" stroke="#7f7f7f" stroke-miterlimit="10" stroke-width=".59776"/>
<path transform="matrix(1,0,0,-1,14.506,11.704)" d="m28.564-45.136-20.535-20.535" fill="none" stroke="#7f7f7f" stroke-miterlimit="10" stroke-width=".59776"/>
<path transform="matrix(1,0,0,-1,14.506,11.704)" d="m-8.0294-81.734c-10.887-10.887-2.8555-21.281 8.0313-10.395" fill="none" stroke="#7f7f7f" stroke-miterlimit="10" stroke-width=".59776"/>
<path transform="matrix(1,0,0,-1,14.506,11.704)" d="m0.0018125-92.128 36.848 36.852" fill="none" stroke="#7f7f7f" stroke-miterlimit="10" stroke-width=".59776"/>
<path transform="matrix(.7071 -.7071 -.7071 -.7071 12.332 106.01)" d="m4.827-0.0017704-3.8615 1.4584 1.2761-1.4584-1.2761-1.4584z" fill="#7f7f7f" stroke="#7f7f7f" stroke-miterlimit="10" stroke-width=".59776"/>
<path transform="matrix(1,0,0,-1,14.506,11.704)" d="m36.849-55.276c10.887 10.887 19.176 0.74609 8.2891-10.141" fill="none" stroke="#7f7f7f" stroke-miterlimit="10" stroke-width=".59776"/>
<path transform="matrix(.74658 -.6652 -.6652 -.74658 48.177 69.756)" d="m4.8265-0.0016584-3.8637 1.4596 1.2794-1.4591-1.2773-1.4571z" fill="#7f7f7f" stroke="#7f7f7f" stroke-miterlimit="10" stroke-width=".59776"/>
<path transform="matrix(1,0,0,-1,14.506,11.704)" d="m28.564-81.987-20.535-20.535" fill="none" stroke="#7f7f7f" stroke-miterlimit="10" stroke-width=".59776"/>
<path transform="matrix(1,0,0,-1,14.506,11.704)" d="m-8.0294-118.59c-10.887-10.887-2.8555-21.281 8.0313-10.395" fill="none" stroke="#7f7f7f" stroke-miterlimit="10" stroke-width=".59776"/>
<path transform="matrix(1,0,0,-1,14.506,11.704)" d="m0.0018125-128.98 73.699 73.703" fill="none" stroke="#7f7f7f" stroke-miterlimit="10" stroke-width=".59776"/>
<path transform="matrix(.7071 -.7071 -.7071 -.7071 14.172 141.02)" d="m4.8289 5.3741e-4 -3.8643 1.4557 1.2761-1.4584-1.2734-1.4557z" fill="#7f7f7f" stroke="#7f7f7f" stroke-miterlimit="10" stroke-width=".59776"/>
<path transform="matrix(1,0,0,-1,14.506,11.704)" d="m73.701-55.276c10.887 10.887 18.918 0.49219 8.0312-10.395" fill="none" stroke="#7f7f7f" stroke-miterlimit="10" stroke-width=".59776"/>
<path transform="matrix(.7467 -.66507 -.66507 -.7467 85.028 69.755)" d="m4.829 8.6523e-4 -3.864 1.4589 1.2741-1.4592-1.2741-1.4599z" fill="#7f7f7f" stroke="#7f7f7f" stroke-miterlimit="10" stroke-width=".59776"/>
<path transform="matrix(1,0,0,-1,14.506,11.704)" d="m65.67-81.734-20.531-20.531" fill="none" stroke="#7f7f7f" stroke-miterlimit="10" stroke-width=".59776"/>
<path transform="matrix(1,0,0,-1,14.506,11.704)" d="m28.564-118.84-20.535-20.535" fill="none" stroke="#7f7f7f" stroke-miterlimit="10" stroke-width=".59776"/>
<path transform="matrix(1,0,0,-1,14.506,11.704)" d="m-8.0294-155.44c-10.887-10.883-2.8555-21.277 8.0313-10.391" fill="none" stroke="#7f7f7f" stroke-miterlimit="10" stroke-width=".59776"/>
<path transform="matrix(1,0,0,-1,14.506,11.704)" d="m0.0018125-165.83 73.699 73.699" fill="none" stroke="#7f7f7f" stroke-miterlimit="10" stroke-width=".59776"/>
<path transform="matrix(.7071 -.7071 -.7071 -.7071 14.172 177.87)" d="m4.8284 9.7228e-5 -3.8615 1.4584 1.2761-1.4584-1.2761-1.4584z" fill="#7f7f7f" stroke="#7f7f7f" stroke-miterlimit="10" stroke-width=".59776"/>
<path transform="matrix(1,0,0,-1,14.506,11.704)" d="m73.701-92.128c10.887 10.887 18.918 0.49219 8.0312-10.395" fill="none" stroke="#7f7f7f" stroke-miterlimit="10" stroke-width=".59776"/>
<path transform="matrix(.74669 -.66507 -.66507 -.74669 85.028 106.61)" d="m4.8284 2.896e-4 -3.864 1.4589 1.2741-1.4592-1.2742-1.4599z" fill="#7f7f7f" stroke="#7f7f7f" stroke-miterlimit="10" stroke-width=".59776"/>
<path transform="matrix(1,0,0,-1,14.506,11.704)" d="m65.67-118.59-20.531-20.531" fill="none" stroke="#7f7f7f" stroke-miterlimit="10" stroke-width=".59776"/>
<path transform="matrix(1,0,0,-1,14.506,11.704)" d="m28.564-155.69-20.535-20.531" fill="none" stroke="#7f7f7f" stroke-miterlimit="10" stroke-width=".59776"/>
<path transform="matrix(1,0,0,-1,14.506,11.704)" d="m-8.0294-192.28c-10.887-10.887-2.8555-21.281 8.0313-10.395" fill="none" stroke="#7f7f7f" stroke-miterlimit="10" stroke-width=".59776"/>
<path transform="matrix(1,0,0,-1,14.506,11.704)" d="m0.0018125-202.68 110.55 110.55" fill="none" stroke="#7f7f7f" stroke-miterlimit="10" stroke-width=".59776"/>
<path transform="matrix(.7071 -.7071 -.7071 -.7071 16.018 212.87)" d="m4.8295-3.5709e-4 -3.8643 1.4612 1.2761-1.4584-1.2761-1.4584z" fill="#7f7f7f" stroke="#7f7f7f" stroke-miterlimit="10" stroke-width=".59776"/>
<path transform="matrix(1,0,0,-1,14.506,11.704)" d="m110.55-92.128c10.887 10.887 18.918 0.49219 8.0312-10.395" fill="none" stroke="#7f7f7f" stroke-miterlimit="10" stroke-width=".59776"/>
<path transform="matrix(.74669 -.66507 -.66507 -.74669 121.88 106.61)" d="m4.829 4.1467e-5 -3.864 1.4589 1.2741-1.4592-1.2742-1.4599z" fill="#7f7f7f" stroke="#7f7f7f" stroke-miterlimit="10" stroke-width=".59776"/>
<path transform="matrix(1,0,0,-1,14.506,11.704)" d="m102.52-118.59-20.789-20.789" fill="none" stroke="#7f7f7f" stroke-miterlimit="10" stroke-width=".59776"/>
<path transform="matrix(1,0,0,-1,14.506,11.704)" d="m65.67-155.44-20.531-20.531" fill="none" stroke="#7f7f7f" stroke-miterlimit="10" stroke-width=".59776"/>
<path transform="matrix(1,0,0,-1,14.506,11.704)" d="m28.564-192.54-20.535-20.531" fill="none" stroke="#7f7f7f" stroke-miterlimit="10" stroke-width=".59776"/>
<path transform="matrix(1,0,0,-1,14.506,11.704)" d="m-8.0294-229.14c-10.887-10.887-2.8555-21.281 8.0313-10.395" fill="none" stroke="#7f7f7f" stroke-miterlimit="10" stroke-width=".59776"/>
<path transform="matrix(1,0,0,-1,14.506,11.704)" d="m0.0018125-239.53 110.55 110.55" fill="none" stroke="#7f7f7f" stroke-miterlimit="10" stroke-width=".59776"/>
<path transform="matrix(.7071 -.7071 -.7071 -.7071 16.018 249.72)" d="m4.8289-9.6698e-4 -3.8643 1.4612 1.2761-1.4584-1.2761-1.4584z" fill="#7f7f7f" stroke="#7f7f7f" stroke-miterlimit="10" stroke-width=".59776"/>
<path transform="matrix(1,0,0,-1,14.506,11.704)" d="m110.55-128.98c10.887 10.887 18.918 0.49219 8.0312-10.395" fill="none" stroke="#7f7f7f" stroke-miterlimit="10" stroke-width=".59776"/>
<path transform="matrix(.74669 -.66507 -.66507 -.74669 121.88 143.46)" d="m4.8284-5.8852e-4 -3.864 1.4589 1.2767-1.4563-1.2742-1.4599z" fill="#7f7f7f" stroke="#7f7f7f" stroke-miterlimit="10" stroke-width=".59776"/>
<path transform="matrix(1,0,0,-1,14.506,11.704)" d="m102.52-155.44-20.789-20.785" fill="none" stroke="#7f7f7f" stroke-miterlimit="10" stroke-width=".59776"/>
<path transform="matrix(1,0,0,-1,14.506,11.704)" d="m65.67-192.28-20.531-20.535" fill="none" stroke="#7f7f7f" stroke-miterlimit="10" stroke-width=".59776"/>
<path transform="matrix(1,0,0,-1,14.506,11.704)" d="m28.564-229.39-17.523-17.523" fill="none" stroke="#7f7f7f" stroke-miterlimit="10" stroke-width=".59776"/>
<path transform="matrix(-.7071 .7071 .7071 .7071 27.026 257.14)" d="m4.8269 0.0010315-3.8615 1.4584 1.2761-1.4584-1.2761-1.4584z" fill="#7f7f7f" stroke="#7f7f7f" stroke-miterlimit="10" stroke-width=".59776"/>
</svg>
