<?xml version="1.0" encoding="UTF-8"?>
<svg width="242pt" height="49pt" version="1.1" viewBox="0 0 242 49" xmlns="http://www.w3.org/2000/svg" xmlns:xlink="http://www.w3.org/1999/xlink">
<defs>
<symbol id="l" overflow="visible">
<path d="m6.5625 0.29688v-0.6875h-3.3125v17.938h0.6875v-17.25z"/>
</symbol>
<symbol id="d" overflow="visible">
<path d="m3.9375 5.9844v-6h-0.6875v6z"/>
</symbol>
<symbol id="k" overflow="visible">
<path d="m6.5625 17.531v-0.6875h-2.625v-17.25h-0.6875v17.938z"/>
</symbol>
<symbol id="j" overflow="visible">
<path d="m3.3906 17.547v-17.938h-3.3281v0.6875h2.6406v17.25z"/>
</symbol>
<symbol id="c" overflow="visible">
<path d="m3.3906 5.9844v-6h-0.6875v6z"/>
</symbol>
<symbol id="i" overflow="visible">
<path d="m3.3906 17.531v-17.938h-0.6875v17.25h-2.6406v0.6875z"/>
</symbol>
<symbol id="h" overflow="visible">
<path d="m4.9688-1.8906c0-0.64062-0.29688-1.125-0.51562-1.3594-0.46875-0.5-0.79688-0.59375-1.7188-0.8125-0.57812-0.14062-0.73438-0.1875-1.0469-0.4375-0.0625-0.0625-0.34375-0.35938-0.34375-0.79688 0-0.57812 0.54688-1.1875 1.4531-1.1875 0.84375 0 1.3125 0.32812 1.6875 0.64062l0.15625-0.79688c-0.54688-0.32812-1.1094-0.5-1.8281-0.5-1.3906 0-2.25 0.98438-2.25 1.9688 0 0.42188 0.14062 0.84375 0.53125 1.2656 0.42188 0.45312 0.85938 0.5625 1.4531 0.70312 0.84375 0.21875 0.9375 0.25 1.2188 0.48438 0.20312 0.17188 0.42188 0.5 0.42188 0.9375 0 0.65625-0.54688 1.3125-1.4531 1.3125-0.40625 0-1.3125-0.09375-2.1406-0.8125l-0.15625 0.8125c0.875 0.54688 1.6719 0.6875 2.2969 0.6875 1.3281 0 2.2344-1 2.2344-2.1094z"/>
</symbol>
<symbol id="a" overflow="visible">
<path d="m6.7656-3.4375c0-2.0938-1.4375-3.7031-3.0938-3.7031-1.7031 0-3.1094 1.625-3.1094 3.7031 0 2.1094 1.4688 3.6562 3.0938 3.6562 1.6719 0 3.1094-1.5625 3.1094-3.6562zm-0.89062-0.15625c0 1.9531-1.0625 3.1719-2.2031 3.1719-1.1719 0-2.2188-1.25-2.2188-3.1719 0-1.8125 1.0938-2.9062 2.2031-2.9062 1.1562 0 2.2188 1.125 2.2188 2.9062z"/>
</symbol>
<symbol id="g" overflow="visible">
<path d="m6.0938 0v-6.9219h-0.78125v6.2188h-0.015625l-0.65625-1.375-2.4531-4.8438h-1.2344v6.9219h0.78125v-6.2031h0.015625l0.65625 1.3594 2.4531 4.8438z"/>
</symbol>
<symbol id="f" overflow="visible">
<path d="m4.0781 0v-2.875c0-1.0156-0.73438-1.7188-1.6406-1.7188-0.65625 0-1.1094 0.15625-1.5625 0.42188l0.046875 0.65625c0.53125-0.35938 1.0156-0.48438 1.5156-0.48438 0.46875 0 0.85938 0.39062 0.85938 1.125v0.4375c-1.5 0.015625-2.7656 0.4375-2.7656 1.3125 0 0.42188 0.28125 1.2344 1.1406 1.2344 0.14062 0 1.0781-0.015625 1.6562-0.46875v0.35938zm-0.78125-1.3125c0 0.1875 0 0.4375-0.34375 0.625-0.28125 0.17188-0.65625 0.1875-0.76562 0.1875-0.48438 0-0.9375-0.23438-0.9375-0.64062 0-0.70312 1.625-0.76562 2.0469-0.79688z"/>
</symbol>
<symbol id="b" overflow="visible">
<path d="m2.75-1.8594v-0.57812h-2.6406v0.57812z"/>
</symbol>
<symbol id="e" overflow="visible">
<path d="m7.1875-2.5c0-0.1875-0.1875-0.1875-0.32812-0.1875h-2.7812v-2.7969c0-0.14062 0-0.32812-0.20312-0.32812s-0.20312 0.1875-0.20312 0.32812v2.7969h-2.7812c-0.14062 0-0.32812 0-0.32812 0.1875 0 0.20312 0.1875 0.20312 0.32812 0.20312h2.7812v2.7969c0 0.14062 0 0.32812 0.20312 0.32812s0.20312-0.1875 0.20312-0.32812v-2.7969h2.7812c0.14062 0 0.32812 0 0.32812-0.20312z"/>
</symbol>
</defs>
<g>
<use x="-3.093" y="0.745" xlink:href="#l"/>
<use x="-3.093" y="18.279" xlink:href="#d"/>
<use x="-3.093" y="24.257" xlink:href="#d"/>
<use x="-3.093" y="30.633" xlink:href="#k"/>
</g>
<path transform="matrix(1,0,0,-1,8.364,39.219)" d="m-7.1875e-4 2.5e-4 12.422-7.1719" fill="none" stroke="#000" stroke-linecap="round" stroke-miterlimit="10" stroke-width=".59758"/>
<path transform="matrix(1,0,0,-1,8.364,39.219)" d="m12.421-7.1716 12.422 7.1719" fill="none" stroke="#000" stroke-linecap="round" stroke-miterlimit="10" stroke-width=".59758"/>
<path transform="matrix(1,0,0,-1,8.364,39.219)" d="m24.843 2.5e-4 12.422-7.1719" fill="none" stroke="#000" stroke-linecap="round" stroke-miterlimit="10" stroke-width=".59758"/>
<path transform="matrix(1,0,0,-1,8.364,39.219)" d="m37.265-7.1716 12.422 7.1719" fill="none" stroke="#000" stroke-linecap="round" stroke-miterlimit="10" stroke-width=".59758"/>
<path transform="matrix(1,0,0,-1,8.364,39.219)" d="m49.687 2.5e-4 12.418-7.1719" fill="none" stroke="#000" stroke-linecap="round" stroke-miterlimit="10" stroke-width=".59758"/>
<path transform="matrix(1,0,0,-1,8.364,39.219)" d="m62.105-7.1716 12.422 7.1719" fill="none" stroke="#000" stroke-linecap="round" stroke-miterlimit="10" stroke-width=".59758"/>
<path transform="matrix(1,0,0,-1,8.364,39.219)" d="m74.527 2.5e-4 12.422-7.1719" fill="none" stroke="#000" stroke-linecap="round" stroke-miterlimit="10" stroke-width=".59758"/>
<path transform="matrix(1,0,0,-1,8.364,39.219)" d="m86.948-7.1716 12.422 7.1719" fill="none" stroke="#000" stroke-linecap="round" stroke-miterlimit="10" stroke-width=".59758"/>
<path transform="matrix(1,0,0,-1,8.364,39.219)" d="m99.37 2.5e-4 12.422-7.1719" fill="none" stroke="#000" stroke-linecap="round" stroke-miterlimit="10" stroke-width=".59758"/>
<path transform="matrix(1,0,0,-1,8.364,39.219)" d="m111.79-7.1716 12.422 7.1719" fill="none" stroke="#000" stroke-linecap="round" stroke-miterlimit="10" stroke-width=".59758"/>
<path transform="matrix(1,0,0,-1,8.364,39.219)" d="m124.21 2.5e-4 12.422-7.1719" fill="none" stroke="#000" stroke-linecap="round" stroke-miterlimit="10" stroke-width=".59758"/>
<path transform="matrix(1,0,0,-1,8.364,39.219)" d="m136.64-7.1716 12.422 7.1719" fill="none" stroke="#000" stroke-linecap="round" stroke-miterlimit="10" stroke-width=".59758"/>
<path transform="matrix(1,0,0,-1,8.364,39.219)" d="m149.06 2.5e-4 12.418-7.1719" fill="none" stroke="#000" stroke-linecap="round" stroke-miterlimit="10" stroke-width=".59758"/>
<path transform="matrix(1,0,0,-1,8.364,39.219)" d="m161.48-7.1716 12.422 7.1719" fill="none" stroke="#000" stroke-linecap="round" stroke-miterlimit="10" stroke-width=".59758"/>
<path transform="matrix(1,0,0,-1,8.364,39.219)" d="m161.48-4.2966 9.9336 5.7344" fill="none" stroke="#000" stroke-linecap="round" stroke-miterlimit="10" stroke-width=".59758"/>
<path transform="matrix(1,0,0,-1,8.364,39.219)" d="m173.9 2.5e-4v14.344" fill="none" stroke="#000" stroke-linecap="round" stroke-miterlimit="10" stroke-width=".59758"/>
<g>
<use x="191.914" y="21.164" xlink:href="#h"/>
</g>
<path transform="matrix(1,0,0,-1,8.364,39.219)" d="m173.9 14.344 8.2734 4.7773" fill="none" stroke="#000" stroke-linecap="round" stroke-miterlimit="10" stroke-width=".59758"/>
<g>
<use x="198.186" y="8.743" xlink:href="#a"/>
</g>
<path transform="matrix(1,0,0,-1,8.364,39.219)" d="m188.03 26.977 1.5859 2.7422" fill="none" stroke="#000" stroke-linecap="round" stroke-miterlimit="10" stroke-width=".59758"/>
<path transform="matrix(1,0,0,-1,8.364,39.219)" d="m190.19 25.731 1.5859 2.7422" fill="none" stroke="#000" stroke-linecap="round" stroke-miterlimit="10" stroke-width=".59758"/>
<g>
<use x="183.844" y="8.743" xlink:href="#a"/>
</g>
<path transform="matrix(1,0,0,-1,8.364,39.219)" d="m182.45 25.731-1.5859 2.7422" fill="none" stroke="#000" stroke-linecap="round" stroke-miterlimit="10" stroke-width=".59758"/>
<path transform="matrix(1,0,0,-1,8.364,39.219)" d="m184.6 26.977-1.582 2.7422" fill="none" stroke="#000" stroke-linecap="round" stroke-miterlimit="10" stroke-width=".59758"/>
<g>
<use x="203.436" y="28.336" xlink:href="#a"/>
<use x="210.396" y="21.127" xlink:href="#b"/>
</g>
<path transform="matrix(1,0,0,-1,8.364,39.219)" d="m190.47 19.121 3.2266-1.8633" fill="none" stroke="#000" stroke-linecap="round" stroke-miterlimit="10" stroke-width=".59758"/>
<path transform="matrix(1,0,0,-1,8.364,39.219)" d="m173.9 14.344-12.422 7.1719" fill="none" stroke="#000" stroke-linecap="round" stroke-miterlimit="10" stroke-width=".59758"/>
<path transform="matrix(1,0,0,-1,8.364,39.219)" d="m171.41 12.906-9.9336 5.7344" fill="none" stroke="#000" stroke-linecap="round" stroke-miterlimit="10" stroke-width=".59758"/>
<path transform="matrix(1,0,0,-1,8.364,39.219)" d="m161.48 21.516-12.418-7.1719" fill="none" stroke="#000" stroke-linecap="round" stroke-miterlimit="10" stroke-width=".59758"/>
<path transform="matrix(1,0,0,-1,8.364,39.219)" d="m149.06 14.344v-14.344" fill="none" stroke="#000" stroke-linecap="round" stroke-miterlimit="10" stroke-width=".59758"/>
<path transform="matrix(1,0,0,-1,8.364,39.219)" d="m151.55 12.906v-11.469" fill="none" stroke="#000" stroke-linecap="round" stroke-miterlimit="10" stroke-width=".59758"/>
<g>
<use x="215.286" y="0.745" xlink:href="#j"/>
<use x="215.286" y="18.279" xlink:href="#c"/>
<use x="215.286" y="24.257" xlink:href="#c"/>
<use x="215.286" y="30.633" xlink:href="#i"/>
<use x="221.761" y="3.807" xlink:href="#b"/>
<use x="225.25" y="39.219" xlink:href="#g"/>
<use x="232.30651" y="39.219" xlink:href="#f"/>
<use x="234.714" y="33.969" xlink:href="#e"/>
</g>
</svg>
