<?xml version="1.0" encoding="UTF-8"?>
<svg width="169pt" height="44pt" version="1.1" viewBox="0 0 169 44" xmlns="http://www.w3.org/2000/svg" xmlns:xlink="http://www.w3.org/1999/xlink">
<defs>
<symbol id="m" overflow="visible">
<path d="m5.6875 29.5v-0.625h-2.3281v-28.656h2.3281v-0.625h-2.9531v29.906z"/>
</symbol>
<symbol id="l" overflow="visible">
<path d="m3.0625 29.5v-29.906h-2.9531v0.625h2.3281v28.656h-2.3281v0.625z"/>
</symbol>
<symbol id="k" overflow="visible">
<path d="m6.5625 0.29688v-0.6875h-3.3125v17.938h0.6875v-17.25z"/>
</symbol>
<symbol id="j" overflow="visible">
<path d="m3.9375 5.9844v-6h-0.6875v6z"/>
</symbol>
<symbol id="i" overflow="visible">
<path d="m6.5625 17.531v-0.6875h-2.625v-17.25h-0.6875v17.938z"/>
</symbol>
<symbol id="h" overflow="visible">
<path d="m3.3906 17.547v-17.938h-3.3281v0.6875h2.6406v17.25z"/>
</symbol>
<symbol id="g" overflow="visible">
<path d="m3.3906 5.9844v-6h-0.6875v6z"/>
</symbol>
<symbol id="f" overflow="visible">
<path d="m3.3906 17.531v-17.938h-0.6875v17.25h-2.6406v0.6875z"/>
</symbol>
<symbol id="c" overflow="visible">
<path d="m6.0938 0v-6.9219h-0.78125v6.2188h-0.015625l-0.65625-1.375-2.4531-4.8438h-1.2344v6.9219h0.78125v-6.2031h0.015625l0.65625 1.3594 2.4531 4.8438z"/>
</symbol>
<symbol id="a" overflow="visible">
<path d="m5.25-6.2344v-0.65625h-4.3125v6.8906h0.89062v-3.1406h3v-0.60938h-3v-2.5h1.2969c0.125 0 0.25 0.015625 0.35938 0.015625z"/>
</symbol>
<symbol id="e" overflow="visible">
<path d="m6.0781-1.875c0-0.85938-0.85938-1.5781-1.9219-1.75 0.90625-0.21875 1.6562-0.79688 1.6562-1.5625 0-0.90625-1.0625-1.7344-2.4844-1.7344h-2.3594v6.9219h2.625c1.4375 0 2.4844-0.89062 2.4844-1.875zm-1.0469-3.2969c0 0.59375-0.70312 1.2812-2.0781 1.2812h-1.1562v-2.4688h1.25c1.1094 0 1.9844 0.53125 1.9844 1.1875zm0.25 3.2812c0 0.75-0.89062 1.3281-1.9688 1.3281h-1.5156v-2.7344h1.4375c1.0625 0 2.0469 0.60938 2.0469 1.4062z"/>
</symbol>
<symbol id="b" overflow="visible">
<path d="m7.1875-2.5c0-0.1875-0.1875-0.1875-0.32812-0.1875h-2.7812v-2.7969c0-0.14062 0-0.32812-0.20312-0.32812s-0.20312 0.1875-0.20312 0.32812v2.7969h-2.7812c-0.14062 0-0.32812 0-0.32812 0.1875 0 0.20312 0.1875 0.20312 0.32812 0.20312h2.7812v2.7969c0 0.14062 0 0.32812 0.20312 0.32812s0.20312-0.1875 0.20312-0.32812v-2.7969h2.7812c0.14062 0 0.32812 0 0.32812-0.20312z"/>
</symbol>
<symbol id="d" overflow="visible">
<path d="m2.75-1.8594v-0.57812h-2.6406v0.57812z"/>
</symbol>
</defs>
<g>
<use x="-2.304" y="7.825" xlink:href="#m"/>
</g>
<path transform="matrix(1,0,0,-1,76.683,11.385)" d="m5.9375e-4 -0.0017188h-14.344" fill="none" stroke="#000" stroke-linecap="round" stroke-miterlimit="10" stroke-width=".59758"/>
<path transform="matrix(1,0,0,-1,76.683,11.385)" d="m-1.808-2.49h-10.727" fill="none" stroke="#000" stroke-linecap="round" stroke-miterlimit="10" stroke-width=".59758"/>
<g>
<use x="54.38" y="28.485" xlink:href="#c"/>
<use x="62.607" y="23.148" xlink:href="#b"/>
</g>
<path transform="matrix(1,0,0,-1,76.683,11.385)" d="m-14.343-0.0017188-2.8164-8.6641" fill="none" stroke="#000" stroke-linecap="round" stroke-miterlimit="10" stroke-width=".59758"/>
<path transform="matrix(1,0,0,-1,76.683,11.385)" d="m-23.683-16.474-7.5117-4.3398" fill="none" stroke="#000" stroke-linecap="round" stroke-miterlimit="10" stroke-width=".59758"/>
<path transform="matrix(1,0,0,-1,76.683,11.385)" d="m-31.195-20.814-12.422 7.1719" fill="none" stroke="#000" stroke-linecap="round" stroke-miterlimit="10" stroke-width=".59758"/>
<path transform="matrix(1,0,0,-1,76.683,11.385)" d="m-43.617-13.642-12.422-7.1719" fill="none" stroke="#000" stroke-linecap="round" stroke-miterlimit="10" stroke-width=".59758"/>
<path transform="matrix(1,0,0,-1,76.683,11.385)" d="m-56.038-20.814-12.422 7.1719" fill="none" stroke="#000" stroke-linecap="round" stroke-miterlimit="10" stroke-width=".59758"/>
<path transform="matrix(1,0,0,-1,76.683,11.385)" d="m-13.956-17.142 6.7852-4.9297" fill="none" stroke="#000" stroke-linecap="round" stroke-miterlimit="10" stroke-width=".59758"/>
<path transform="matrix(1,0,0,-1,76.683,11.385)" d="m-12.492-15.127 5.3203-3.8672" fill="none" stroke="#000" stroke-linecap="round" stroke-miterlimit="10" stroke-width=".59758"/>
<g>
<use x="77.587" y="28.485" xlink:href="#c"/>
</g>
<path transform="matrix(1,0,0,-1,76.683,11.385)" d="m-7.1713-22.072 6.7852 4.9297" fill="none" stroke="#000" stroke-linecap="round" stroke-miterlimit="10" stroke-width=".59758"/>
<path transform="matrix(1,0,0,-1,76.683,11.385)" d="m9.3404-16.474 7.5117-4.3398" fill="none" stroke="#000" stroke-linecap="round" stroke-miterlimit="10" stroke-width=".59758"/>
<path transform="matrix(1,0,0,-1,76.683,11.385)" d="m2.817-8.6658-2.8164 8.6641" fill="none" stroke="#000" stroke-linecap="round" stroke-miterlimit="10" stroke-width=".59758"/>
<g>
<use x="98.252" y="7.825" xlink:href="#l"/>
<use x="101.678" y="12.24" xlink:href="#b"/>
<use x="113.472" y="1.745" xlink:href="#k"/>
<use x="113.472" y="19.28" xlink:href="#j"/>
<use x="113.472" y="25.656" xlink:href="#i"/>
<use x="137.051" y="11.385" xlink:href="#a"/>
<use x="136.567" y="25.728" xlink:href="#e"/>
</g>
<path transform="matrix(1 0 0 -1 139.89 11.385)" d="m-0.0012812-1.5955v-4.2344" fill="none" stroke="#000" stroke-linecap="round" stroke-miterlimit="10" stroke-width=".59758"/>
<g>
<use x="137.051" y="40.07" xlink:href="#a"/>
</g>
<path transform="matrix(1 0 0 -1 139.89 11.385)" d="m-0.0012812-15.935v-4.2383" fill="none" stroke="#000" stroke-linecap="round" stroke-miterlimit="10" stroke-width=".59758"/>
<g>
<use x="149.472" y="32.899" xlink:href="#a"/>
</g>
<path transform="matrix(1 0 0 -1 139.89 11.385)" d="m4.7018-13.599 3.5039-2.0195" fill="none" stroke="#000" stroke-linecap="round" stroke-miterlimit="10" stroke-width=".59758"/>
<g>
<use x="124.63" y="32.899" xlink:href="#a"/>
</g>
<path transform="matrix(1 0 0 -1 139.89 11.385)" d="m-4.7005-13.599-3.5039-2.0195" fill="none" stroke="#000" stroke-linecap="round" stroke-miterlimit="10" stroke-width=".59758"/>
<g>
<use x="159.662" y="1.745" xlink:href="#h"/>
<use x="159.662" y="19.28" xlink:href="#g"/>
<use x="159.662" y="25.656" xlink:href="#f"/>
<use x="166.111" y="2.46" xlink:href="#d"/>
</g>
</svg>
