<?xml version="1.0" encoding="UTF-8"?>
<svg width="130pt" height="29pt" version="1.1" viewBox="0 0 130 29" xmlns="http://www.w3.org/2000/svg" xmlns:xlink="http://www.w3.org/1999/xlink">
<defs>
<symbol id="b" overflow="visible">
<path d="m5.25-6.2344v-0.65625h-4.3125v6.8906h0.89062v-3.1406h3v-0.60938h-3v-2.5h1.2969c0.125 0 0.25 0.015625 0.35938 0.015625z"/>
</symbol>
<symbol id="a" overflow="visible">
<path d="m6.1094 0v-6.9219h-0.89062v3.0312h-3.3906v-3.0312h-0.89062v6.9219h0.89062v-3.2969h3.3906v3.2969z"/>
</symbol>
</defs>
<g>
<use x="-0.288" y="7.309" xlink:href="#b"/>
<use x="11.441" y="14.48" xlink:href="#a"/>
</g>
<path transform="matrix(1,0,0,-1,2.548,7.309)" d="m4.2176 1.0238 3.2969-1.9023" fill="none" stroke="#000" stroke-linecap="round" stroke-miterlimit="10" stroke-width=".59758"/>
<g>
<use x="36.975" y="28.823" xlink:href="#b"/>
</g>
<path transform="matrix(1,0,0,-1,2.548,7.309)" d="m17.331-6.5465 15.715-9.0742" fill="none" stroke="#dc3445" stroke-dasharray="2.98883,2.98883" stroke-linecap="round" stroke-miterlimit="10" stroke-width="1.1955"/>
<g>
<use x="48.705" y="21.652" xlink:href="#a"/>
</g>
<path transform="matrix(1,0,0,-1,2.548,7.309)" d="m41.479-15.621 3.2969 1.9023" fill="none" stroke="#000" stroke-linecap="round" stroke-miterlimit="10" stroke-width=".59758"/>
<g>
<use x="74.239" y="7.309" xlink:href="#b"/>
</g>
<path transform="matrix(1,0,0,-1,2.548,7.309)" d="m54.593-8.0504 15.719 9.0742" fill="none" stroke="#dc3445" stroke-dasharray="2.98883,2.98883" stroke-linecap="round" stroke-miterlimit="10" stroke-width="1.1955"/>
<g>
<use x="85.968" y="14.48" xlink:href="#a"/>
</g>
<path transform="matrix(1,0,0,-1,2.548,7.309)" d="m78.745 1.0238 3.2969-1.9023" fill="none" stroke="#000" stroke-linecap="round" stroke-miterlimit="10" stroke-width=".59758"/>
<g>
<use x="111.502" y="28.823" xlink:href="#b"/>
</g>
<path transform="matrix(1,0,0,-1,2.548,7.309)" d="m91.858-6.5465 15.719-9.0742" fill="none" stroke="#dc3445" stroke-dasharray="2.98883,2.98883" stroke-linecap="round" stroke-miterlimit="10" stroke-width="1.1955"/>
<g>
<use x="123.232" y="21.652" xlink:href="#a"/>
</g>
<path transform="matrix(1,0,0,-1,2.548,7.309)" d="m116.01-15.621 3.293 1.9023" fill="none" stroke="#000" stroke-linecap="round" stroke-miterlimit="10" stroke-width=".59758"/>
</svg>
