<?xml version="1.0" encoding="UTF-8"?>
<svg width="114pt" height="33pt" version="1.1" viewBox="0 0 114 33" xmlns="http://www.w3.org/2000/svg" xmlns:xlink="http://www.w3.org/1999/xlink">
<defs>
<symbol id="c" overflow="visible">
<path d="m6.1094 0v-6.9219h-0.89062v3.0312h-3.3906v-3.0312h-0.89062v6.9219h0.89062v-3.2969h3.3906v3.2969z"/>
</symbol>
<symbol id="b" overflow="visible">
<path d="m5.8594-0.45312-0.0625-0.6875c-0.29688 0.20312-0.57812 0.39062-0.92188 0.5-0.3125 0.10938-0.67188 0.10938-1 0.10938-0.65625 0-1.25-0.34375-1.6562-0.85938-0.45312-0.57812-0.67188-1.3281-0.67188-2.0625 0-0.75 0.21875-1.5 0.67188-2.0938 0.40625-0.5 1-0.85938 1.6562-0.85938 0.29688 0 0.59375 0.03125 0.89062 0.125s0.57812 0.23438 0.84375 0.42188l0.125-0.8125c-0.29688-0.125-0.59375-0.21875-0.92188-0.28125-0.3125-0.0625-0.625-0.078125-0.9375-0.078125-0.89062 0-1.6875 0.39062-2.2812 1.0469-0.60938 0.6875-0.9375 1.5938-0.9375 2.5312 0 0.92188 0.32812 1.8281 0.9375 2.5156 0.59375 0.64062 1.3906 1.0469 2.2812 1.0469 0.34375 0 0.6875-0.015625 1.0312-0.10938s0.64062-0.26562 0.95312-0.45312z"/>
</symbol>
<symbol id="a" overflow="visible">
<path d="m6.7656-3.4375c0-2.0938-1.4375-3.7031-3.0938-3.7031-1.7031 0-3.1094 1.625-3.1094 3.7031 0 2.1094 1.4688 3.6562 3.0938 3.6562 1.6719 0 3.1094-1.5625 3.1094-3.6562zm-0.89062-0.15625c0 1.9531-1.0625 3.1719-2.2031 3.1719-1.1719 0-2.2188-1.25-2.2188-3.1719 0-1.8125 1.0938-2.9062 2.2031-2.9062 1.1562 0 2.2188 1.125 2.2188 2.9062z"/>
</symbol>
<symbol id="d" overflow="visible">
<path d="m3.3906-1.2656c0-0.57812-0.46875-1.0312-1.0156-1.1875 0.53125-0.28125 0.79688-0.75 0.79688-1.2031 0-0.59375-0.59375-1.0625-1.3438-1.0625-0.60938 0-1.125 0.32812-1.4219 0.73438l0.29688 0.40625c0.28125-0.54688 0.78125-0.70312 1.1094-0.70312 0.42188 0 0.71875 0.23438 0.71875 0.625 0 0.375-0.25 0.82812-0.78125 0.92188-0.03125 0-0.0625 0-0.51562 0.03125v0.46875h0.54688c0.65625 0 0.90625 0.51562 0.90625 0.95312 0 0.54688-0.34375 0.96875-0.875 0.96875-0.5 0-1.0625-0.23438-1.4219-0.6875l-0.078125 0.45312c0.39062 0.45312 0.96875 0.6875 1.5 0.6875 0.92188 0 1.5781-0.67188 1.5781-1.4062z"/>
</symbol>
</defs>
<g>
<use x="-0.47" y="19.686" xlink:href="#c"/>
<use x="6.586" y="21.181" xlink:href="#d"/>
<use x="10.789" y="19.686" xlink:href="#b"/>
<use x="25.132" y="19.686" xlink:href="#b"/>
</g>
<path transform="matrix(1,0,0,-1,5.16,19.686)" d="m13.59 3.4594h4.7891" fill="none" stroke="#000" stroke-linecap="round" stroke-miterlimit="10" stroke-width=".59758"/>
<g>
<use x="31.819" y="7.265" xlink:href="#a"/>
</g>
<path transform="matrix(1,0,0,-1,5.16,19.686)" d="m25.949 8.2993 1.582 2.7422" fill="none" stroke="#000" stroke-linecap="round" stroke-miterlimit="10" stroke-width=".59758"/>
<g>
<use x="46.3" y="7.265" xlink:href="#c"/>
</g>
<path transform="matrix(1,0,0,-1,5.16,19.686)" d="m35.586 15.881h3.9609" fill="none" stroke="#000" stroke-linecap="round" stroke-miterlimit="10" stroke-width=".59758"/>
<g>
<use x="74.847" y="7.265" xlink:href="#a"/>
</g>
<path transform="matrix(1,0,0,-1,5.16,19.686)" d="m49.793 15.881h18.301" fill="none" stroke="#dc3445" stroke-dasharray="2.98883,2.98883" stroke-linecap="round" stroke-miterlimit="10" stroke-width=".79701"/>
<g>
<use x="82.503" y="19.686" xlink:href="#b"/>
</g>
<path transform="matrix(1,0,0,-1,5.16,19.686)" d="m77.227 11.663 1.5859-2.7422" fill="none" stroke="#000" stroke-linecap="round" stroke-miterlimit="10" stroke-width=".59758"/>
<path transform="matrix(1,0,0,-1,5.16,19.686)" d="m75.07 10.42 1.5859-2.7461" fill="none" stroke="#000" stroke-linecap="round" stroke-miterlimit="10" stroke-width=".59758"/>
<g>
<use x="96.846" y="19.686" xlink:href="#b"/>
<use x="103.211" y="19.686" xlink:href="#c"/>
<use x="110.267" y="21.181" xlink:href="#d"/>
</g>
<path transform="matrix(1,0,0,-1,5.16,19.686)" d="m85.305 3.4594h4.7891" fill="none" stroke="#000" stroke-linecap="round" stroke-miterlimit="10" stroke-width=".59758"/>
<g>
<use x="74.847" y="32.107" xlink:href="#a"/>
</g>
<path transform="matrix(1,0,0,-1,5.16,19.686)" d="m77.735-1.3804-1.5859-2.7422" fill="none" stroke="#000" stroke-linecap="round" stroke-miterlimit="10" stroke-width=".59758"/>
<g>
<use x="60.643" y="32.107" xlink:href="#c"/>
</g>
<path transform="matrix(1,0,0,-1,5.16,19.686)" d="m68.094-8.9624h-3.9609" fill="none" stroke="#000" stroke-linecap="round" stroke-miterlimit="10" stroke-width=".59758"/>
<g>
<use x="31.819" y="32.107" xlink:href="#a"/>
</g>
<path transform="matrix(1,0,0,-1,5.16,19.686)" d="m53.891-8.9624h-18.305" fill="none" stroke="#dc3445" stroke-dasharray="2.98883,2.98883" stroke-linecap="round" stroke-miterlimit="10" stroke-width=".79701"/>
<path transform="matrix(1,0,0,-1,5.16,19.686)" d="m26.453-4.7437-1.6133 2.7969" fill="none" stroke="#000" stroke-linecap="round" stroke-miterlimit="10" stroke-width=".59758"/>
<path transform="matrix(1,0,0,-1,5.16,19.686)" d="m28.61-3.5015-1.6133 2.8008" fill="none" stroke="#000" stroke-linecap="round" stroke-miterlimit="10" stroke-width=".59758"/>
</svg>
