<svg width="200" height="200" viewBox="0 0 4795 5138" xmlns="http://www.w3.org/2000/svg" style="fill:#EF4444">
    <g transform="matrix(1,0,0,1,-3602.95,-3431.05)">
        <g transform="matrix(4.16667,0,0,4.16667,0,0)">
            <path d="M1680.52,1324.96L2015.29,1131.67C1908.68,947.416 1709.44,823.451 1481.26,823.451C1140.75,823.451 864.707,1099.49 864.707,1440C864.707,1780.51 1140.75,2056.55 1481.26,2056.55C1709.44,2056.55 1908.68,1932.59 2015.29,1748.33L1777.17,1610.85C1718.1,1712.95 1607.7,1781.64 1481.26,1781.64C1358.56,1781.64 1365.59,1735.9 1330.65,1654.62C1326.96,1646.03 1425.13,1625.74 1482.53,1558.92C1416.51,1600.14 1268.17,1670.42 1182.35,1631C1171.14,1625.85 1169.84,1611.75 1160.37,1606.58C1112.58,1580.47 1083.03,1534.26 1082.1,1500C1113.85,1458.68 1171.08,1473.69 1166.04,1376.85C1161.23,1320.27 1173.56,1247.47 1287.48,1207.13C1310.16,1199.11 1323.16,1198.43 1317.47,1180.58C1307.98,1150.77 1292.26,1108.93 1286.21,1047.68C1309.47,1044.22 1355.05,1063.07 1408.61,1094.96C1409.46,1085.66 1410.92,1076.97 1413.23,1069.31C1438.4,1075.57 1460.1,1099.43 1501.73,1157.74L1501.72,1157.75C1568.44,1207.68 1635.31,1268.11 1680.52,1324.96Z"/>
        </g>
        <g transform="matrix(4.16667,0,0,4.16667,0,0)">
            <g transform="matrix(0.24,0,0,0.24,0,0)">
                <path d="M5320.4,5668.47C5352.59,5688.83 5373.98,5724.75 5373.98,5765.66C5373.98,5829.11 5322.53,5880.55 5259.08,5880.55C5211.87,5880.55 5171.31,5852.08 5153.64,5811.36L5320.4,5668.47Z"/>
            </g>
        </g>
    </g>
</svg>
