<?xml version="1.0" encoding="UTF-8"?>
<svg width="232pt" height="200pt" version="1.1" viewBox="0 0 232 200" xmlns="http://www.w3.org/2000/svg" xmlns:xlink="http://www.w3.org/1999/xlink">
<defs>
<symbol id="f" overflow="visible">
<path d="m4.5781-3.1875c0-0.79688-0.046875-1.5938-0.39062-2.3281-0.45312-0.96875-1.2812-1.125-1.6875-1.125-0.60938 0-1.3281 0.26562-1.75 1.1875-0.3125 0.6875-0.35938 1.4688-0.35938 2.2656 0 0.75 0.03125 1.6406 0.45312 2.4062 0.42188 0.79688 1.1562 1 1.6406 1 0.53125 0 1.2969-0.20312 1.7344-1.1562 0.3125-0.6875 0.35938-1.4688 0.35938-2.25zm-0.8125-0.125c0 0.75 0 1.4219-0.10938 2.0625-0.15625 0.95312-0.71875 1.25-1.1719 1.25-0.39062 0-0.98438-0.25-1.1562-1.2031-0.10938-0.59375-0.10938-1.5156-0.10938-2.1094 0-0.64062 0-1.2969 0.078125-1.8281 0.1875-1.1875 0.9375-1.2812 1.1875-1.2812 0.32812 0 0.98438 0.1875 1.1719 1.1719 0.10938 0.5625 0.10938 1.3125 0.10938 1.9375z"/>
</symbol>
<symbol id="q" overflow="visible">
<path d="m4.4688-1.7344h-0.23438c-0.0625 0.29688-0.125 0.73438-0.23438 0.89062-0.0625 0.078125-0.71875 0.078125-0.9375 0.078125h-1.7969l1.0625-1.0312c1.5469-1.375 2.1406-1.9062 2.1406-2.9062 0-1.1406-0.89062-1.9375-2.1094-1.9375-1.125 0-1.8594 0.92188-1.8594 1.8125 0 0.54688 0.5 0.54688 0.53125 0.54688 0.17188 0 0.51562-0.10938 0.51562-0.53125 0-0.25-0.1875-0.51562-0.53125-0.51562-0.078125 0-0.09375 0-0.125 0.015625 0.21875-0.65625 0.76562-1.0156 1.3438-1.0156 0.90625 0 1.3281 0.8125 1.3281 1.625 0 0.79688-0.48438 1.5781-1.0469 2.2031l-1.9062 2.125c-0.10938 0.10938-0.10938 0.14062-0.10938 0.375h3.7031z"/>
</symbol>
<symbol id="p" overflow="visible">
<path d="m4.6875-1.6406v-0.3125h-0.98438v-4.5312c0-0.20312 0-0.26562-0.17188-0.26562-0.078125 0-0.10938 0-0.1875 0.125l-3.0625 4.6719v0.3125h2.6562v0.85938c0 0.35938-0.03125 0.46875-0.76562 0.46875h-0.20312v0.3125c0.40625-0.03125 0.92188-0.03125 1.3438-0.03125s0.9375 0 1.3594 0.03125v-0.3125h-0.21875c-0.73438 0-0.75-0.10938-0.75-0.46875v-0.85938zm-1.7031-0.3125h-2.4219l2.4219-3.7188z"/>
</symbol>
<symbol id="ai" overflow="visible">
<path d="m4.5625-2.0312c0-1.2656-0.89062-2.2188-2-2.2188-0.67188 0-1.0469 0.5-1.25 0.98438v-0.25c0-2.5156 1.2344-2.875 1.75-2.875 0.23438 0 0.65625 0.0625 0.875 0.40625-0.15625 0-0.54688 0-0.54688 0.4375 0 0.3125 0.23438 0.46875 0.45312 0.46875 0.15625 0 0.46875-0.09375 0.46875-0.48438 0-0.59375-0.4375-1.0781-1.2656-1.0781-1.2812 0-2.625 1.2812-2.625 3.4844 0 2.6719 1.1562 3.375 2.0781 3.375 1.1094 0 2.0625-0.9375 2.0625-2.25zm-0.90625-0.015625c0 0.48438 0 0.98438-0.17188 1.3438-0.29688 0.59375-0.75 0.64062-0.98438 0.64062-0.625 0-0.92188-0.59375-0.98438-0.75-0.1875-0.46875-0.1875-1.2656-0.1875-1.4375 0-0.78125 0.32812-1.7812 1.2188-1.7812 0.17188 0 0.625 0 0.9375 0.625 0.17188 0.35938 0.17188 0.875 0.17188 1.3594z"/>
</symbol>
<symbol id="ah" overflow="visible">
<path d="m4.5625-1.6719c0-0.35938-0.10938-0.8125-0.5-1.2344-0.1875-0.20312-0.34375-0.29688-0.98438-0.70312 0.71875-0.375 1.2031-0.89062 1.2031-1.5469 0-0.92188-0.875-1.4844-1.7812-1.4844-1 0-1.8125 0.73438-1.8125 1.6719 0 0.17188 0.015625 0.625 0.4375 1.0938 0.10938 0.10938 0.48438 0.35938 0.73438 0.53125-0.57812 0.29688-1.4375 0.84375-1.4375 1.8438 0 1.0469 1.0156 1.7188 2.0625 1.7188 1.125 0 2.0781-0.82812 2.0781-1.8906zm-0.71875-3.4844c0 0.57812-0.39062 1.0469-0.98438 1.3906l-1.2344-0.79688c-0.45312-0.29688-0.5-0.625-0.5-0.79688 0-0.60938 0.65625-1.0312 1.3594-1.0312 0.71875 0 1.3594 0.51562 1.3594 1.2344zm0.21875 3.8438c0 0.73438-0.75 1.25-1.5625 1.25-0.85938 0-1.5781-0.60938-1.5781-1.4375 0-0.57812 0.3125-1.2188 1.1562-1.6875l1.2344 0.78125c0.28125 0.1875 0.75 0.48438 0.75 1.0938z"/>
</symbol>
<symbol id="e" overflow="visible">
<path d="m4.1719 0v-0.3125h-0.3125c-0.90625 0-0.92188-0.10938-0.92188-0.46875v-5.5938c0-0.25 0-0.26562-0.23438-0.26562-0.625 0.64062-1.5 0.64062-1.8125 0.64062v0.3125c0.20312 0 0.78125 0 1.2969-0.26562v5.1719c0 0.35938-0.03125 0.46875-0.92188 0.46875h-0.3125v0.3125c0.34375-0.03125 1.2031-0.03125 1.6094-0.03125 0.39062 0 1.2656 0 1.6094 0.03125z"/>
</symbol>
<symbol id="k" overflow="visible">
<path d="m5.1875-2.1562c0-1.2656-0.95312-2.25-2.0781-2.25-0.78125 0-1.2031 0.4375-1.3906 0.65625v-0.65625l-1.4375 0.10938v0.3125c0.70312 0 0.78125 0.0625 0.78125 0.5v4.6562c0 0.45312-0.10938 0.45312-0.78125 0.45312v0.3125l1.1094-0.03125 1.125 0.03125v-0.3125c-0.65625 0-0.76562 0-0.76562-0.45312v-1.7656c0.046875 0.17188 0.46875 0.70312 1.2188 0.70312 1.1875 0 2.2188-0.98438 2.2188-2.2656zm-0.82812 0c0 1.2031-0.6875 2.0469-1.4219 2.0469-0.40625 0-0.78125-0.20312-1.0469-0.60938-0.14062-0.20312-0.14062-0.21875-0.14062-0.42188v-2.2188c0.28125-0.51562 0.76562-0.79688 1.2812-0.79688 0.73438 0 1.3281 0.875 1.3281 2z"/>
</symbol>
<symbol id="ag" overflow="visible">
<path d="m4.4688-2c0-1.1875-0.8125-2.1875-1.8906-2.1875-0.46875 0-0.90625 0.15625-1.2656 0.51562v-1.9531c0.20312 0.0625 0.53125 0.125 0.84375 0.125 1.2344 0 1.9375-0.90625 1.9375-1.0312 0-0.0625-0.03125-0.10938-0.10938-0.10938 0 0-0.03125 0-0.078125 0.03125-0.20312 0.09375-0.6875 0.29688-1.3594 0.29688-0.39062 0-0.85938-0.078125-1.3281-0.28125-0.078125-0.03125-0.10938-0.03125-0.10938-0.03125-0.10938 0-0.10938 0.078125-0.10938 0.23438v2.9531c0 0.17188 0 0.25 0.14062 0.25 0.078125 0 0.09375-0.015625 0.14062-0.078125 0.10938-0.15625 0.46875-0.70312 1.2812-0.70312 0.51562 0 0.76562 0.45312 0.84375 0.64062 0.15625 0.375 0.1875 0.75 0.1875 1.25 0 0.35938 0 0.95312-0.25 1.375-0.23438 0.39062-0.60938 0.64062-1.0625 0.64062-0.71875 0-1.2969-0.53125-1.4688-1.1094 0.03125 0 0.0625 0.015625 0.17188 0.015625 0.32812 0 0.5-0.25 0.5-0.48438 0-0.25-0.17188-0.5-0.5-0.5-0.14062 0-0.48438 0.078125-0.48438 0.53125 0 0.85938 0.6875 1.8281 1.7969 1.8281 1.1562 0 2.1719-0.95312 2.1719-2.2188z"/>
</symbol>
<symbol id="af" overflow="visible">
<path d="m5.1875-2.1562c0-1.2656-0.95312-2.25-2.0781-2.25-0.78125 0-1.2031 0.4375-1.3906 0.65625v-0.65625l-1.4375 0.10938v0.3125c0.70312 0 0.78125 0.0625 0.78125 0.5v4.6562c0 0.45312-0.10938 0.45312-0.78125 0.45312v0.3125l1.1094-0.03125 1.125 0.03125v-0.3125c-0.65625 0-0.76562 0-0.76562-0.45312v-1.7656c0.046875 0.17188 0.46875 0.70312 1.2188 0.70312 1.1875 0 2.2188-0.98438 2.2188-2.2656zm-0.82812 0c0 1.2031-0.6875 2.0469-1.4219 2.0469-0.40625 0-0.78125-0.20312-1.0469-0.60938-0.14062-0.20312-0.14062-0.21875-0.14062-0.42188v-2.2188c0.28125-0.51562 0.76562-0.79688 1.2812-0.79688 0.73438 0 1.3281 0.875 1.3281 2z"/>
</symbol>
<symbol id="d" overflow="visible">
<path d="m7.1406 0v-0.3125h-0.25c-0.76562 0-0.78125-0.10938-0.78125-0.46875v-5.25c0-0.35938 0.015625-0.46875 0.78125-0.46875h0.25v-0.3125c-0.35938 0.03125-1.0938 0.03125-1.4688 0.03125s-1.125 0-1.4688-0.03125v0.3125h0.23438c0.76562 0 0.78125 0.10938 0.78125 0.46875v2.3281h-2.9688v-2.3281c0-0.35938 0.015625-0.46875 0.78125-0.46875h0.23438v-0.3125c-0.34375 0.03125-1.0781 0.03125-1.4688 0.03125-0.375 0-1.125 0-1.4688-0.03125v0.3125h0.23438c0.76562 0 0.79688 0.10938 0.79688 0.46875v5.25c0 0.35938-0.03125 0.46875-0.79688 0.46875h-0.23438v0.3125c0.34375-0.03125 1.0938-0.03125 1.4688-0.03125s1.125 0 1.4688 0.03125v-0.3125h-0.23438c-0.76562 0-0.78125-0.10938-0.78125-0.46875v-2.6094h2.9688v2.6094c0 0.35938-0.015625 0.46875-0.78125 0.46875h-0.23438v0.3125c0.34375-0.03125 1.0781-0.03125 1.4531-0.03125 0.39062 0 1.125 0 1.4844 0.03125z"/>
</symbol>
<symbol id="c" overflow="visible">
<path d="m6.2188-4.9531c0-0.98438-0.98438-1.8594-2.3438-1.8594h-3.5312v0.3125h0.25c0.76562 0 0.78125 0.10938 0.78125 0.46875v5.25c0 0.35938-0.015625 0.46875-0.78125 0.46875h-0.25v0.3125c0.35938-0.03125 1.0938-0.03125 1.4688-0.03125s1.125 0 1.4844 0.03125v-0.3125h-0.25c-0.76562 0-0.78125-0.10938-0.78125-0.46875v-2.375h1.6875c1.1875 0 2.2656-0.79688 2.2656-1.7969zm-1.0312 0c0 0.46875 0 1.5469-1.5781 1.5469h-1.375v-2.6875c0-0.34375 0.015625-0.40625 0.48438-0.40625h0.89062c1.5781 0 1.5781 1.0625 1.5781 1.5469z"/>
</symbol>
<symbol id="b" overflow="visible">
<path d="m7.1875-3.375c0-2.0312-1.5-3.6562-3.3125-3.6562-1.7969 0-3.3125 1.5938-3.3125 3.6562 0 2.0469 1.5312 3.5938 3.3125 3.5938 1.8125 0 3.3125-1.5781 3.3125-3.5938zm-1.0312-0.14062c0 2.6406-1.3594 3.4688-2.2812 3.4688-0.95312 0-2.2969-0.875-2.2969-3.4688 0-2.5781 1.4688-3.2656 2.2969-3.2656 0.85938 0 2.2812 0.70312 2.2812 3.2656z"/>
</symbol>
<symbol id="j" overflow="visible">
<path d="m7.375-0.20312c0-0.10938-0.10938-0.10938-0.20312-0.10938-0.40625 0-0.53125-0.09375-0.6875-0.4375l-1.4062-3.2812c-0.015625-0.03125-0.046875-0.10938-0.046875-0.14062 0 0 0.17188-0.14062 0.28125-0.21875l1.75-1.3438c0.9375-0.70312 1.3281-0.73438 1.625-0.76562 0.078125-0.015625 0.17188-0.015625 0.17188-0.20312 0-0.03125-0.03125-0.10938-0.10938-0.10938-0.21875 0-0.46875 0.03125-0.70312 0.03125-0.35938 0-0.75-0.03125-1.1094-0.03125-0.0625 0-0.1875 0-0.1875 0.20312 0 0.0625 0.046875 0.09375 0.125 0.10938 0.21875 0.015625 0.29688 0.0625 0.29688 0.20312 0 0.1875-0.29688 0.42188-0.35938 0.46875l-3.875 2.9844 0.79688-3.2031c0.078125-0.35938 0.10938-0.45312 0.82812-0.45312 0.25 0 0.34375 0 0.34375-0.20312 0-0.078125-0.078125-0.10938-0.14062-0.10938l-1.2812 0.03125-1.2812-0.03125c-0.0625 0-0.20312 0-0.20312 0.1875 0 0.125 0.09375 0.125 0.29688 0.125 0.125 0 0.3125 0.015625 0.42188 0.015625 0.15625 0.03125 0.21875 0.046875 0.21875 0.17188 0 0.03125 0 0.0625-0.03125 0.1875l-1.3438 5.3438c-0.09375 0.39062-0.10938 0.46875-0.90625 0.46875-0.17188 0-0.28125 0-0.28125 0.1875 0 0.125 0.125 0.125 0.15625 0.125l1.2656-0.03125 0.64062 0.015625c0.21875 0 0.4375 0.015625 0.64062 0.015625 0.078125 0 0.20312 0 0.20312-0.20312 0-0.10938-0.09375-0.10938-0.28125-0.10938-0.375 0-0.64062 0-0.64062-0.17188 0-0.078125 0.046875-0.29688 0.078125-0.4375l0.40625-1.5781 1.4844-1.1562 1.1562 2.6875c0.125 0.26562 0.125 0.29688 0.125 0.34375 0 0.3125-0.4375 0.3125-0.53125 0.3125-0.10938 0-0.21875 0-0.21875 0.20312 0 0.10938 0.14062 0.10938 0.14062 0.10938 0.40625 0 0.82812-0.03125 1.2188-0.03125 0.21875 0 0.76562 0.03125 0.98438 0.03125 0.046875 0 0.17188 0 0.17188-0.20312z"/>
</symbol>
<symbol id="ae" overflow="visible">
<path d="m2.0312-0.015625c0-0.65625-0.25-1.0469-0.64062-1.0469-0.32812 0-0.53125 0.25-0.53125 0.53125 0 0.26562 0.20312 0.53125 0.53125 0.53125 0.10938 0 0.25-0.046875 0.34375-0.125 0.03125-0.03125 0.046875-0.03125 0.046875-0.03125s0.015625 0 0.015625 0.14062c0 0.75-0.34375 1.3438-0.67188 1.6719-0.10938 0.10938-0.10938 0.125-0.10938 0.15625 0 0.078125 0.046875 0.10938 0.09375 0.10938 0.10938 0 0.92188-0.76562 0.92188-1.9375z"/>
</symbol>
<symbol id="i" overflow="visible">
<path d="m3.7969-0.625v-0.39062h-0.25v0.375c0 0.078125 0 0.40625-0.25 0.40625-0.26562 0-0.26562-0.32812-0.26562-0.40625v-1.2344c0-0.35938 0-0.625-0.3125-0.89062-0.28125-0.23438-0.625-0.34375-1.0312-0.34375-0.65625 0-1.125 0.25-1.125 0.67188 0 0.23438 0.14062 0.34375 0.32812 0.34375s0.32812-0.14062 0.32812-0.32812c0-0.10938-0.0625-0.26562-0.25-0.3125 0.25-0.17188 0.65625-0.17188 0.70312-0.17188 0.39062 0 0.8125 0.25 0.8125 0.84375v0.20312c-0.375 0.015625-0.84375 0.046875-1.3438 0.23438-0.625 0.21875-0.82812 0.60938-0.82812 0.92188 0 0.59375 0.71875 0.76562 1.2188 0.76562 0.5625 0 0.89062-0.3125 1.0312-0.57812 0.03125 0.28125 0.21875 0.54688 0.53125 0.54688 0 0 0.70312 0 0.70312-0.65625zm-1.3125-0.35938c0 0.67188-0.57812 0.85938-0.89062 0.85938-0.35938 0-0.6875-0.23438-0.6875-0.57812 0-0.39062 0.32812-0.92188 1.5781-0.96875z"/>
</symbol>
<symbol id="ad" overflow="visible">
<path d="m3.2969 0v-0.25h-0.26562c-0.70312 0-0.70312-0.09375-0.70312-0.32812v-3.8594c0-0.1875 0-0.1875-0.20312-0.1875-0.45312 0.4375-1.0781 0.4375-1.3594 0.4375v0.25c0.15625 0 0.625 0 1-0.1875v3.5469c0 0.23438 0 0.32812-0.6875 0.32812h-0.26562v0.25l1.2344-0.03125z"/>
</symbol>
<symbol id="ac" overflow="visible">
<path d="m3.5156-1.2656h-0.23438c-0.015625 0.15625-0.09375 0.5625-0.1875 0.625-0.046875 0.046875-0.57812 0.046875-0.6875 0.046875h-1.2812c0.73438-0.64062 0.98438-0.84375 1.3906-1.1719 0.51562-0.40625 1-0.84375 1-1.5 0-0.84375-0.73438-1.3594-1.625-1.3594-0.85938 0-1.4531 0.60938-1.4531 1.25 0 0.34375 0.29688 0.39062 0.375 0.39062 0.15625 0 0.35938-0.125 0.35938-0.375 0-0.125-0.046875-0.375-0.40625-0.375 0.21875-0.48438 0.6875-0.64062 1.0156-0.64062 0.70312 0 1.0625 0.54688 1.0625 1.1094 0 0.60938-0.4375 1.0781-0.65625 1.3281l-1.6719 1.6719c-0.078125 0.0625-0.078125 0.078125-0.078125 0.26562h2.875z"/>
</symbol>
<symbol id="ab" overflow="visible">
<path d="m3.5781-1.2031c0-0.54688-0.4375-1.0938-1.2031-1.25 0.71875-0.26562 0.98438-0.78125 0.98438-1.2188 0-0.54688-0.625-0.95312-1.4062-0.95312-0.76562 0-1.3594 0.375-1.3594 0.9375 0 0.23438 0.15625 0.35938 0.35938 0.35938 0.21875 0 0.35938-0.15625 0.35938-0.34375 0-0.20312-0.14062-0.35938-0.35938-0.375 0.25-0.29688 0.71875-0.375 0.98438-0.375 0.3125 0 0.75 0.15625 0.75 0.75 0 0.29688-0.09375 0.625-0.28125 0.82812-0.21875 0.26562-0.42188 0.28125-0.76562 0.3125-0.17188 0.015625-0.1875 0.015625-0.21875 0.015625 0 0-0.078125 0.015625-0.078125 0.09375 0 0.09375 0.0625 0.09375 0.1875 0.09375h0.375c0.54688 0 0.9375 0.375 0.9375 1.125 0 0.85938-0.51562 1.125-0.90625 1.125-0.28125 0-0.90625-0.078125-1.1875-0.5 0.32812 0 0.40625-0.23438 0.40625-0.39062 0-0.21875-0.17188-0.375-0.39062-0.375-0.1875 0-0.39062 0.125-0.39062 0.40625 0 0.65625 0.71875 1.0781 1.5625 1.0781 0.96875 0 1.6406-0.65625 1.6406-1.3438z"/>
</symbol>
<symbol id="o" overflow="visible">
<path d="m3.5781-1.2031c0-0.54688-0.4375-1.0938-1.2031-1.25 0.71875-0.26562 0.98438-0.78125 0.98438-1.2188 0-0.54688-0.625-0.95312-1.4062-0.95312-0.76562 0-1.3594 0.375-1.3594 0.9375 0 0.23438 0.15625 0.35938 0.35938 0.35938 0.21875 0 0.35938-0.15625 0.35938-0.34375 0-0.20312-0.14062-0.35938-0.35938-0.375 0.25-0.29688 0.71875-0.375 0.98438-0.375 0.3125 0 0.75 0.15625 0.75 0.75 0 0.29688-0.09375 0.625-0.28125 0.82812-0.21875 0.26562-0.42188 0.28125-0.76562 0.3125-0.17188 0.015625-0.1875 0.015625-0.21875 0.015625 0 0-0.078125 0.015625-0.078125 0.09375 0 0.09375 0.0625 0.09375 0.1875 0.09375h0.375c0.54688 0 0.9375 0.375 0.9375 1.125 0 0.85938-0.51562 1.125-0.90625 1.125-0.28125 0-0.90625-0.078125-1.1875-0.5 0.32812 0 0.40625-0.23438 0.40625-0.39062 0-0.21875-0.17188-0.375-0.39062-0.375-0.1875 0-0.39062 0.125-0.39062 0.40625 0 0.65625 0.71875 1.0781 1.5625 1.0781 0.96875 0 1.6406-0.65625 1.6406-1.3438z"/>
</symbol>
<symbol id="a" overflow="visible">
<path d="m3.6875-1.1406v-0.25h-0.78125v-3.1094c0-0.14062 0-0.20312-0.14062-0.20312-0.09375 0-0.125 0-0.1875 0.10938l-2.3125 3.2031v0.25h2.0625v0.5625c0 0.25 0 0.32812-0.57812 0.32812h-0.1875v0.25l1.0469-0.03125 1.0625 0.03125v-0.25h-0.1875c-0.57812 0-0.57812-0.078125-0.57812-0.32812v-0.5625zm-1.3125-0.25h-1.8438l1.8438-2.5469z"/>
</symbol>
<symbol id="n" overflow="visible">
<path d="m3.5156-1.2656h-0.23438c-0.015625 0.15625-0.09375 0.5625-0.1875 0.625-0.046875 0.046875-0.57812 0.046875-0.6875 0.046875h-1.2812c0.73438-0.64062 0.98438-0.84375 1.3906-1.1719 0.51562-0.40625 1-0.84375 1-1.5 0-0.84375-0.73438-1.3594-1.625-1.3594-0.85938 0-1.4531 0.60938-1.4531 1.25 0 0.34375 0.29688 0.39062 0.375 0.39062 0.15625 0 0.35938-0.125 0.35938-0.375 0-0.125-0.046875-0.375-0.40625-0.375 0.21875-0.48438 0.6875-0.64062 1.0156-0.64062 0.70312 0 1.0625 0.54688 1.0625 1.1094 0 0.60938-0.4375 1.0781-0.65625 1.3281l-1.6719 1.6719c-0.078125 0.0625-0.078125 0.078125-0.078125 0.26562h2.875z"/>
</symbol>
<symbol id="h" overflow="visible">
<path d="m3.9062-1.75v-0.20312h-3.8438v0.20312z"/>
</symbol>
<symbol id="aa" overflow="visible">
<path d="m-4.5312-6.0781-2.25 0.28125v5.4688h0.3125v-0.23438c0-0.76562 0.10938-0.79688 0.46875-0.79688h5.2188c0.35938 0 0.46875 0.03125 0.46875 0.79688v0.23438h0.3125c-0.03125-0.34375-0.03125-1.125-0.03125-1.5156 0-0.40625 0-1.3125 0.03125-1.6719h-0.3125v0.32812c0 0.9375-0.125 0.9375-0.46875 0.9375h-2.4531v-0.84375c0-0.96875 0.3125-1.0625 1.1562-1.0625v-0.25h-2.6406v0.25c0.84375 0 1.1719 0.09375 1.1719 1.0625v0.84375h-2.5312c-0.32812 0-0.39062-0.015625-0.39062-0.48438v-1.1875c0-1.5 0.5625-1.75 1.9375-1.9062z"/>
</symbol>
<symbol id="v" overflow="visible">
<path d="m-3.7969-3.625c-0.3125 0-0.60938 0.3125-0.60938 0.73438 0 0.73438 0.67188 1.0938 1.0938 1.2188h-1.0938l0.10938 1.3906h0.3125c0-0.70312 0.0625-0.78125 0.5625-0.78125h2.6719c0.4375 0 0.4375 0.10938 0.4375 0.78125h0.3125l-0.03125-1.1406c0-0.39062 0-0.85938 0.03125-1.2656h-0.3125v0.21875c0 0.73438-0.10938 0.75-0.46875 0.75h-1.5312c-0.98438 0-1.875-0.42188-1.875-1.1719 0-0.0625 0-0.09375 0.015625-0.10938 0 0.03125 0.125 0.23438 0.39062 0.23438s0.42188-0.21875 0.42188-0.4375c0-0.17188-0.125-0.42188-0.4375-0.42188z"/>
</symbol>
<symbol id="m" overflow="visible">
<path d="m-0.89062-4.8125h-0.5625v0.25h0.5625c0.57812 0 0.64062 0.25 0.64062 0.35938 0 0.32812-0.45312 0.35938-0.5 0.35938h-1.9844c-0.42188 0-0.8125 0-1.1875 0.35938-0.39062 0.39062-0.54688 0.89062-0.54688 1.375 0 0.8125 0.46875 1.5 1.125 1.5 0.29688 0 0.46875-0.20312 0.46875-0.45312 0-0.28125-0.20312-0.46875-0.45312-0.46875-0.125 0-0.45312 0.0625-0.45312 0.51562-0.35938-0.26562-0.46875-0.76562-0.46875-1.0781 0-0.48438 0.39062-1.0625 1.2812-1.0625h0.35938c0.03125 0.51562 0.0625 1.2188 0.35938 1.8438 0.34375 0.75 0.85938 1 1.2969 1 0.8125 0 1.0625-0.96875 1.0625-1.5938 0-0.67188-0.40625-1.125-0.85938-1.3125 0.39062-0.046875 0.8125-0.3125 0.8125-0.78125 0-0.20312-0.14062-0.8125-0.95312-0.8125zm-0.5 1.6562c0.9375 0 1.2812 0.71875 1.2812 1.1719 0 0.48438-0.34375 0.89062-0.84375 0.89062-0.54688 0-1.375-0.40625-1.4375-2.0625z"/>
</symbol>
<symbol id="u" overflow="visible">
<path d="m-1.1875-4.1406c-0.09375 0-0.09375 0.10938-0.09375 0.14062 0 0.078125 0.03125 0.10938 0.09375 0.125 0.92188 0.28125 1.0469 0.9375 1.0469 1.2969 0 0.53125-0.42188 1.4062-2.0312 1.4062-1.625 0-2.0469-0.8125-2.0469-1.3438 0-0.09375 0.015625-0.71875 0.375-1.0625 0.03125 0.40625 0.32812 0.46875 0.45312 0.46875 0.26562 0 0.45312-0.1875 0.45312-0.45312s-0.15625-0.46875-0.46875-0.46875c-0.67188 0-1.0625 0.76562-1.0625 1.5312 0 1.25 1.0781 2.1562 2.3125 2.1562 1.1719 0 2.0938-0.8125 2.25-1.8281h0.82812c0-0.375 0.078125-0.76562 0.40625-0.76562 0.40625 0 0.40625 0.95312 0.40625 1.7031v0.125h0.26562v-0.25c0-1.0781 0-2.4062-0.67188-2.4062-0.46875 0-0.67188 0.53125-0.67188 1.0781h-0.5625c-0.10938-1.1562-1.1875-1.4531-1.2812-1.4531z"/>
</symbol>
<symbol id="t" overflow="visible">
<path d="m-0.89062-4.8125h-0.5625v0.25h0.5625c0.57812 0 0.64062 0.25 0.64062 0.35938 0 0.32812-0.45312 0.35938-0.5 0.35938h-1.9844c-0.42188 0-0.8125 0-1.1875 0.35938-0.39062 0.39062-0.54688 0.89062-0.54688 1.375 0 0.8125 0.46875 1.5 1.125 1.5 0.29688 0 0.46875-0.20312 0.46875-0.45312 0-0.28125-0.20312-0.46875-0.45312-0.46875-0.125 0-0.45312 0.0625-0.45312 0.51562-0.35938-0.26562-0.46875-0.76562-0.46875-1.0781 0-0.48438 0.39062-1.0625 1.2812-1.0625h0.35938c0.03125 0.51562 0.0625 1.2188 0.35938 1.8438 0.34375 0.75 0.85938 1 1.2969 1 0.8125 0 1.0625-0.96875 1.0625-1.5938 0-0.67188-0.40625-1.125-0.85938-1.3125 0.39062-0.046875 0.8125-0.3125 0.8125-0.78125 0-0.20312-0.14062-0.8125-0.95312-0.8125zm-0.5 1.6562c0.9375 0 1.2812 0.71875 1.2812 1.1719 0 0.48438-0.34375 0.89062-0.84375 0.89062-0.54688 0-1.375-0.40625-1.4375-2.0625zm-4.9531-1-0.14062 0.15625s0.46875 0.375 0.46875 0.8125c0 0.23438-0.14062 0.48438-0.25 0.65625-0.15625 0.26562-0.21875 0.45312-0.21875 0.625 0 0.375 0.21875 0.5625 0.76562 1.0625l0.15625-0.15625s-0.48438-0.375-0.48438-0.8125c0-0.23438 0.15625-0.48438 0.25-0.65625 0.17188-0.26562 0.23438-0.4375 0.23438-0.60938 0-0.375-0.21875-0.57812-0.78125-1.0781z"/>
</symbol>
<symbol id="s" overflow="visible">
<path d="m-2.1406-4.6875c-1.2656 0-2.3281 0.98438-2.3281 2.1875 0 1.25 1.0938 2.2188 2.3281 2.2188 1.2969 0 2.25-1.0312 2.25-2.2031 0-1.2031-0.98438-2.2031-2.25-2.2031zm-0.078125 0.8125c0.35938 0 0.90625 0 1.3438 0.21875 0.45312 0.23438 0.73438 0.67188 0.73438 1.1562 0 0.4375-0.20312 0.875-0.67188 1.1406-0.4375 0.25-1.0469 0.25-1.4062 0.25-0.39062 0-0.92188 0-1.3594-0.23438-0.45312-0.26562-0.67188-0.73438-0.67188-1.1406 0-0.4375 0.21875-0.85938 0.65625-1.125 0.42188-0.26562 1-0.26562 1.375-0.26562z"/>
</symbol>
<symbol id="r" overflow="visible">
<path d="m0-5.25h-0.3125c0 0.6875-0.0625 0.78125-0.5625 0.78125h-6.0469l0.10938 1.4219h0.3125c0-0.6875 0.0625-0.76562 0.5625-0.76562h2.1562c-0.35938 0.28125-0.625 0.71875-0.625 1.25 0 1.1719 0.98438 2.2188 2.2656 2.2188 1.2656 0 2.25-0.96875 2.25-2.1094 0-0.64062-0.34375-1.0781-0.65625-1.3281h0.65625zm-1.1719 1.4688c0.17188 0 0.1875 0 0.35938 0.10938 0.48438 0.29688 0.70312 0.73438 0.70312 1.1719 0 0.45312-0.26562 0.8125-0.64062 1.0469-0.40625 0.25-0.96875 0.28125-1.3906 0.28125-0.35938 0-0.95312-0.015625-1.4062-0.29688-0.3125-0.21875-0.64062-0.59375-0.64062-1.1406 0-0.34375 0.15625-0.76562 0.59375-1.0625 0.17188-0.10938 0.1875-0.10938 0.375-0.10938z"/>
</symbol>
<symbol id="g" overflow="visible">
<path d="m-1.2812-3.5938c-0.51562 0-0.82812 0.29688-0.9375 0.42188-0.32812 0.32812-0.40625 0.71875-0.48438 1.1406-0.10938 0.5625-0.23438 1.2188-0.8125 1.2188-0.35938 0-0.76562-0.25-0.76562-1.1094 0-1.0938 0.90625-1.1562 1.2031-1.1719 0.09375 0 0.09375-0.10938 0.09375-0.10938 0-0.14062-0.046875-0.14062-0.23438-0.14062h-1.0156c-0.15625 0-0.23438 0-0.23438 0.10938 0 0.046875 0 0.078125 0.125 0.20312 0.03125 0.03125 0.125 0.125 0.15625 0.17188-0.28125 0.375-0.28125 0.78125-0.28125 0.9375 0 1.2188 0.67188 1.5938 1.2344 1.5938 0.34375 0 0.625-0.15625 0.84375-0.42188 0.25-0.32812 0.3125-0.60938 0.45312-1.3281 0.046875-0.21875 0.20312-1.0312 0.92188-1.0312 0.5 0 0.90625 0.34375 0.90625 1.125 0 0.84375-0.5625 1.2031-1.4219 1.3906-0.125 0.03125-0.15625 0.03125-0.15625 0.14062 0 0.125 0.0625 0.125 0.23438 0.125h1.3281c0.17188 0 0.23438 0 0.23438-0.10938 0-0.046875-0.015625-0.0625-0.20312-0.25-0.015625-0.015625-0.03125-0.015625-0.21875-0.20312 0.40625-0.4375 0.42188-0.89062 0.42188-1.0938 0-1.1406-0.67188-1.6094-1.3906-1.6094z"/>
</symbol>
<symbol id="l" overflow="visible">
<path d="m-1.1875-4.1406c-0.09375 0-0.125 0.078125-0.125 0.14062 0 0.078125 0.0625 0.10938 0.14062 0.125 1.0312 0.34375 1.0312 1.25 1.0312 1.3438 0 0.5-0.29688 0.89062-0.67188 1.125-0.46875 0.29688-1.125 0.29688-1.4844 0.29688v-2.7812c0-0.21875 0-0.25-0.21875-0.25-0.98438 0-1.9531 0.54688-1.9531 1.7812 0 1.1562 1.0312 2.0781 2.2812 2.0781 1.3281 0 2.2969-1.0469 2.2969-2.1875 0-1.2188-1.1094-1.6719-1.2969-1.6719zm-1.3281 0.65625v2.375c-1.4844-0.0625-1.7344-0.90625-1.7344-1.25 0-1.0156 1.3438-1.125 1.7344-1.125z"/>
</symbol>
<symbol id="z" overflow="visible">
<path d="m-2.1562-5.1875c-1.2656 0-2.25 0.95312-2.25 2.0781 0 0.78125 0.4375 1.2031 0.65625 1.3906h-0.65625l0.10938 1.4375h0.3125c0-0.70312 0.0625-0.78125 0.5-0.78125h4.6562c0.45312 0 0.45312 0.10938 0.45312 0.78125h0.3125l-0.03125-1.1094 0.03125-1.125h-0.3125c0 0.65625 0 0.76562-0.45312 0.76562h-1.7656c0.17188-0.046875 0.70312-0.46875 0.70312-1.2188 0-1.1875-0.98438-2.2188-2.2656-2.2188zm0 0.82812c1.2031 0 2.0469 0.6875 2.0469 1.4219 0 0.40625-0.20312 0.78125-0.60938 1.0469-0.20312 0.14062-0.21875 0.14062-0.42188 0.14062h-2.2188c-0.51562-0.28125-0.79688-0.76562-0.79688-1.2812 0-0.73438 0.875-1.3281 2-1.3281z"/>
</symbol>
<symbol id="y" overflow="visible">
<path d="m-1.1875-4.1406c-0.09375 0-0.125 0.078125-0.125 0.14062 0 0.078125 0.0625 0.10938 0.14062 0.125 1.0312 0.34375 1.0312 1.25 1.0312 1.3438 0 0.5-0.29688 0.89062-0.67188 1.125-0.46875 0.29688-1.125 0.29688-1.4844 0.29688v-2.7812c0-0.21875 0-0.25-0.21875-0.25-0.98438 0-1.9531 0.54688-1.9531 1.7812 0 1.1562 1.0312 2.0781 2.2812 2.0781 1.3281 0 2.2969-1.0469 2.2969-2.1875 0-1.2188-1.1094-1.6719-1.2969-1.6719zm-1.3281 0.65625v2.375c-1.4844-0.0625-1.7344-0.90625-1.7344-1.25 0-1.0156 1.3438-1.125 1.7344-1.125zm-4.0781 0.03125c-0.1875 0-0.35938 0.1875-0.35938 0.35938 0 0.15625 0.10938 0.26562 0.17188 0.29688l1.5156 1.2031 0.1875-0.17188-1.2188-1.5156c-0.078125-0.09375-0.1875-0.17188-0.29688-0.17188z"/>
</symbol>
<symbol id="x" overflow="visible">
<path d="m-1.1875-4.1406c-0.09375 0-0.09375 0.10938-0.09375 0.14062 0 0.078125 0.03125 0.10938 0.09375 0.125 0.92188 0.28125 1.0469 0.9375 1.0469 1.2969 0 0.53125-0.42188 1.4062-2.0312 1.4062-1.625 0-2.0469-0.8125-2.0469-1.3438 0-0.09375 0.015625-0.71875 0.375-1.0625 0.03125 0.40625 0.32812 0.46875 0.45312 0.46875 0.26562 0 0.45312-0.1875 0.45312-0.45312s-0.15625-0.46875-0.46875-0.46875c-0.67188 0-1.0625 0.76562-1.0625 1.5312 0 1.25 1.0781 2.1562 2.3125 2.1562 1.2812 0 2.2656-0.98438 2.2656-2.1406 0-1.3281-1.2031-1.6562-1.2969-1.6562z"/>
</symbol>
<symbol id="w" overflow="visible">
<path d="m0-2.4688h-0.3125c0 0.67188-0.046875 0.70312-0.4375 0.70312h-3.6562l0.10938 1.3906h0.3125c0-0.64062 0.0625-0.73438 0.54688-0.73438h2.6875c0.4375 0 0.4375 0.10938 0.4375 0.78125h0.3125l-0.03125-1.0938c0-0.35938 0.015625-0.70312 0.03125-1.0469zm-6.0156 0.5625c-0.28125 0-0.53125 0.21875-0.53125 0.51562 0 0.34375 0.28125 0.54688 0.53125 0.54688 0.26562 0 0.51562-0.23438 0.51562-0.53125 0-0.34375-0.26562-0.53125-0.51562-0.53125z"/>
</symbol>
<clipPath id="aj">
<path d="m32.5 12.93h194.27v161.39h-194.27z"/>
</clipPath>
</defs>
<path transform="matrix(1 0 0 -1 32.501 174.33)" d="m-1e-3 0.0017812v4.25m27.754-4.25v4.25m27.754-4.25v4.25m27.754-4.25v4.25m27.754-4.25v4.25m27.754-4.25v4.25m27.75-4.25v4.25m27.754-4.25v4.25" fill="none" stroke="#7f7f7f" stroke-miterlimit="10" stroke-width=".19925"/>
<path transform="matrix(1 0 0 -1 32.501 174.33)" d="m-1e-3 0.0017812h194.27" fill="none" stroke="#000" stroke-miterlimit="10" stroke-width=".3985"/>
<g>
<use x="30.011" y="184.119" xlink:href="#f"/>
<use x="57.764" y="184.119" xlink:href="#q"/>
<use x="85.517" y="184.119" xlink:href="#p"/>
<use x="113.269" y="184.119" xlink:href="#ai"/>
<use x="141.022" y="184.119" xlink:href="#ah"/>
<use x="166.285" y="184.119" xlink:href="#e"/>
<use x="171.2663" y="184.119" xlink:href="#f"/>
<use x="194.038" y="184.119" xlink:href="#e"/>
<use x="199.0193" y="184.119" xlink:href="#q"/>
<use x="221.791" y="184.119" xlink:href="#e"/>
<use x="226.7723" y="184.119" xlink:href="#p"/>
<use x="123.133" y="197.823" xlink:href="#af"/>
<use x="128.668221" y="197.823" xlink:href="#d"/>
</g>
<path transform="matrix(1 0 0 -1 32.501 174.33)" d="m29.14 0.0017812v161.39m70.773-161.39v161.39m66.605-161.39v161.39" fill="none" stroke="#bfbfbf" stroke-miterlimit="10" stroke-width=".3985"/>
<path transform="matrix(1 0 0 -1 32.501 174.33)" d="m-1e-3 0.0017812h194.27m-194.27 80.695h194.27m-194.27 80.699h194.27" fill="none" stroke="#bfbfbf" stroke-miterlimit="10" stroke-width=".3985"/>
<path transform="matrix(1 0 0 -1 32.501 174.33)" d="m29.14 161.4v-4.2539m70.773 4.2539v-4.2539m66.605 4.2539v-4.2539" fill="none" stroke="#7f7f7f" stroke-miterlimit="10" stroke-width=".19925"/>
<path transform="matrix(1 0 0 -1 32.501 174.33)" d="m-1e-3 0.0017812h4.2539m-4.2539 80.695h4.2539m-4.2539 80.699h4.2539m190.02-161.39h-4.25m4.25 80.695h-4.25m4.25 80.699h-4.25" fill="none" stroke="#7f7f7f" stroke-miterlimit="10" stroke-width=".19925"/>
<path transform="matrix(1 0 0 -1 32.501 174.33)" d="m-1e-3 161.4h194.27" fill="none" stroke="#000" stroke-miterlimit="10" stroke-width=".3985"/>
<path transform="matrix(1 0 0 -1 32.501 174.33)" d="m-1e-3 0.0017812v161.39" fill="none" stroke="#000" stroke-miterlimit="10" stroke-width=".3985"/>
<path transform="matrix(1 0 0 -1 32.501 174.33)" d="m194.27 0.0017812v161.39" fill="none" stroke="#000" stroke-miterlimit="10" stroke-width=".3985"/>
<g>
<use x="50.424" y="7.475" xlink:href="#k"/>
<use x="55.958" y="7.475" xlink:href="#j"/>
<use x="64.42" y="8.969" xlink:href="#i"/>
<use x="68.390882" y="8.969" xlink:href="#ad"/>
<use x="121.194" y="7.475" xlink:href="#k"/>
<use x="126.728" y="7.475" xlink:href="#j"/>
<use x="135.19" y="8.969" xlink:href="#i"/>
<use x="139.160882" y="8.969" xlink:href="#ac"/>
<use x="187.801" y="7.475" xlink:href="#k"/>
<use x="193.336" y="7.475" xlink:href="#j"/>
<use x="201.797" y="8.969" xlink:href="#i"/>
<use x="205.767882" y="8.969" xlink:href="#ab"/>
<use x="24" y="177.463" xlink:href="#f"/>
<use x="16.251" y="95.797" xlink:href="#f"/>
<use x="21.233" y="95.797" xlink:href="#ae"/>
<use x="24" y="95.797" xlink:href="#ag"/>
<use x="24" y="16.069" xlink:href="#e"/>
</g>
<g clip-path="url(#aj)" fill="none" stroke-miterlimit="10" stroke-width="1.1955">
<path transform="matrix(1 0 0 -1 32.501 174.33)" d="m-1e-3 160.12 1.3047-0.30469 1.3047-0.375 1.3047-0.46484 1.3008-0.57031 1.3047-0.70703 1.3047-0.86719 1.3047-1.0664 1.3047-1.2969 1.3008-1.5859 1.3047-1.9258 1.3047-2.3164 1.3047-2.7852 1.3008-3.3164 1.3047-3.9102 1.3047-4.5703 1.3047-5.2656 1.3047-5.9922 1.3008-6.7031 1.3047-7.3711 1.3047-7.9453 1.3047-8.3828 1.3008-8.6445 1.3047-8.7227 1.3047-8.5859 1.3047-8.2656 1.3047-7.7852 1.3008-7.1797 1.3047-6.4961 1.3047-5.7734 1.3047-5.0547 1.3047-4.3672 1.3008-3.7266 1.3047-3.1484 1.3047-2.6367 1.3047-2.1953 1.3008-1.8164 1.3047-1.4922 1.3047-1.2266 1.3047-1 1.3047-0.81641 1.3008-0.66406 1.3047-0.53516 1.3047-0.4375 1.3047-0.35156 1.3008-0.28516 1.3047-0.23438 1.3047-0.18359 1.3047-0.15234 1.3047-0.12109 1.3008-0.097656 1.3047-0.078125 1.3047-0.0625 1.3047-0.050781 1.3047-0.042969 1.3008-0.03125 1.3047-0.027344 1.3047-0.023437 2.6055-0.03125 1.3047-0.011719 3.9141-0.023438 1.3008-0.0039063 1.3047-0.0039062h1.3047l2.6055-0.0078125h2.6094l1.3047-0.0039062h101.7" stroke="#0c6dfd"/>
<path transform="matrix(1 0 0 -1 32.501 174.33)" d="m-1e-3 1.2713 1.3047 0.30469 1.3047 0.375 1.3047 0.46484 1.3008 0.57422 1.3047 0.70312 1.3047 0.87109 1.3047 1.0625 1.3047 1.3008 1.3008 1.582 1.3047 1.9258 1.3047 2.3203 1.3047 2.7852 1.3008 3.3125 1.3047 3.9141 1.3047 4.5664 1.3047 5.2695 1.3047 5.9883 1.3008 6.707 1.3047 7.3672 1.3047 7.9453 1.3047 8.3828 1.3008 8.6484 1.3047 8.7188 1.3047 8.5859 1.3047 8.2656 1.3047 7.7852 1.3008 7.1797 1.3047 6.4961 1.3047 5.7734 1.3047 5.0508 1.3047 4.3633 1.3008 3.7266 1.3047 3.1445 1.3047 2.6367 1.3047 2.1914 1.3008 1.8086 1.3047 1.4883 1.3047 1.2188 1.3047 0.99219 1.3047 0.80469 1.3008 0.64844 1.3047 0.51953 1.3047 0.41406 1.3047 0.32422 1.3008 0.25391 1.3047 0.1875 1.3047 0.13672 1.3047 0.089844 1.3047 0.039062h1.3008l1.3047-0.042969 1.3047-0.085937 1.3047-0.14062 1.3047-0.1875 1.3008-0.25391 1.3047-0.32812 1.3047-0.41406 1.3047-0.52344 1.3008-0.65234 1.3047-0.80859 1.3047-0.99609 1.3047-1.2227 1.3047-1.4922 1.3008-1.8164 1.3047-2.2031 1.3047-2.6445 1.3047-3.1562 1.3008-3.7422 1.3047-4.375 1.3047-5.0664 1.3047-5.7891 1.3047-6.5078 1.3008-7.1914 1.3047-7.7969 1.3047-8.2734 1.3047-8.5938 1.3047-8.7188 1.3008-8.6445 1.3047-8.375 1.3047-7.9336 1.3047-7.3555 1.3008-6.6914 1.3047-5.9805 1.3047-5.25 1.3047-4.5547 1.3047-3.8984 1.3008-3.3047 1.3047-2.7734 1.3047-2.3125 1.3047-1.9141 1.3008-1.5781 1.3047-1.2969 1.3047-1.0586 1.3047-0.86328 1.3047-0.70312 1.3008-0.57031 1.3047-0.46484 1.3047-0.37109 1.3047-0.30469 1.3047-0.24609 1.3008-0.19531 1.3047-0.16016 1.3047-0.12891 1.3047-0.10547 1.3008-0.082031 1.3047-0.066406 1.3047-0.054688 1.3047-0.046875 1.3047-0.035156 1.3008-0.027344 1.3047-0.023437 2.6094-0.03125 1.3008-0.011719 1.3047-0.011719 1.3047-0.0078125 1.3047-0.0039063 1.3047-0.0078125 1.3008-0.0039062 1.3047-0.0039062h1.3047l1.3047-0.0039062h2.6055l1.3047-0.0039062h31.293" stroke="#dc3445"/>
<path transform="matrix(1 0 0 -1 32.501 174.33)" d="m-1e-3 0.0017812h36.508l1.3047 0.0039062h2.6094l2.6055 0.0078125h1.3047l1.3047 0.0039062 1.3008 0.0078125 1.3047 0.0039063 2.6094 0.015625 1.3047 0.011719 2.6055 0.03125 1.3047 0.023437 1.3047 0.027344 1.3008 0.03125 1.3047 0.042969 1.3047 0.050781 1.3047 0.0625 1.3047 0.082031 1.3008 0.097656 1.3047 0.12109 1.3047 0.15234 1.3047 0.1875 1.3047 0.23047 1.3008 0.28516 1.3047 0.35547 1.3047 0.4375 1.3047 0.54297 1.3008 0.66406 1.3047 0.82031 1.3047 1.0039 1.3047 1.2305 1.3047 1.5 1.3008 1.8203 1.3047 2.207 1.3047 2.6484 1.3047 3.1562 1.3008 3.7422 1.3047 4.3789 1.3047 5.0664 1.3047 5.7891 1.3047 6.5117 1.3008 7.1914 1.3047 7.7969 1.3047 8.2773 1.3047 8.5898 1.3047 8.7188 1.3008 8.6445 1.3047 8.3711 1.3047 7.9375 1.3047 7.3516 1.3008 6.6914 1.3047 5.9766 1.3047 5.25 1.3047 4.5508 1.3047 3.8945 1.3008 3.3008 1.3047 2.7695 1.3047 2.3008 1.3047 1.9102 1.3008 1.5625 1.3047 1.2852 1.3047 1.043 1.3047 0.84375 1.3047 0.67188 1.3008 0.53906 1.3047 0.42188 1.3047 0.32422 1.3047 0.24219 1.3047 0.16406 1.3008 0.10156 1.3047 0.039063 1.3047-0.015625 1.3047-0.082032 1.3008-0.14453 1.3047-0.21484 1.3047-0.29297 1.3047-0.38672 1.3047-0.49609 1.3008-0.625 1.3047-0.77734 1.3047-0.97266 1.3047-1.1953 1.3008-1.4609 1.3047-1.7852 1.3047-2.1602 1.3047-2.5977 1.3047-3.1094 1.3008-3.6836 1.3047-4.3203 1.3047-5.0078 1.3047-5.7227 1.3047-6.4453 1.3008-7.1367 1.3047-7.7461 1.3047-8.2383 1.3047-8.5742 1.3008-8.7148 1.3047-8.6602 1.3047-8.4023 1.3047-7.9766 1.3047-7.4102 1.3008-6.7539 1.3047-6.0391 1.3047-5.3125 1.3047-4.6133 1.3008-3.9531 1.3047-3.3516 1.3047-2.8164 1.3047-2.3516 1.3047-1.9453 1.3008-1.6055 1.3047-1.3164 1.3047-1.0781 1.3047-0.87891 1.3047-0.71484 1.3008-0.58203 1.3047-0.47266 1.3047-0.37891" stroke="#188653"/>
<path transform="matrix(1 0 0 -1 32.501 174.33)" d="m-1e-3 0.0017812h104.31l1.3047 0.0039062h1.3008l1.3047 0.0039062h1.3047l2.6094 0.0078124 1.3008 0.0039063 1.3047 0.0078125 1.3047 0.0039062 1.3047 0.011719 2.6055 0.023438 2.6094 0.039062 1.3047 0.027344 1.3008 0.03125 1.3047 0.042968 1.3047 0.046875 1.3047 0.066407 1.3047 0.074218 1.3008 0.097657 1.3047 0.12109 1.3047 0.14844 1.3047 0.18359 1.3008 0.22656 1.3047 0.28125 1.3047 0.34766 1.3047 0.42969 1.3047 0.53125 1.3008 0.65625 1.3047 0.80469 1.3047 0.98438 1.3047 1.2109 1.3008 1.4727 1.3047 1.793 1.3047 2.1719 1.3047 2.6055 1.3047 3.1133 1.3008 3.6875 1.3047 4.3203 1.3047 5.0117 1.3047 5.7266 1.3047 6.4453 1.3008 7.1367 1.3047 7.75 1.3047 8.2383 1.3047 8.5742 1.3008 8.7188 1.3047 8.6562 1.3047 8.4062 1.3047 7.9766 1.3047 7.4102 1.3008 6.7539 1.3047 6.0352 1.3047 5.3164 1.3047 4.6133 1.3008 3.9531 1.3047 3.3516 1.3047 2.8164 1.3047 2.3516 1.3047 1.9453 1.3008 1.6055 1.3047 1.3164 1.3047 1.0781 1.3047 0.87891 1.3047 0.71484 1.3008 0.58203 1.3047 0.46875 1.3047 0.38281" stroke="#6e41c1"/>
</g>
<g fill="#0c6dfd">
<use x="73.487" y="125.908" xlink:href="#d"/>
<use x="80.959" y="127.402" xlink:href="#o"/>
<use x="85.429" y="125.908" xlink:href="#c"/>
<use x="92.209546" y="125.908" xlink:href="#b"/>
<use x="99.958" y="127.402" xlink:href="#a"/>
</g>
<g fill="#dc3445">
<use x="73.487" y="61.35" xlink:href="#d"/>
<use x="80.959" y="62.844" xlink:href="#n"/>
<use x="85.429" y="61.35" xlink:href="#c"/>
<use x="92.209546" y="61.35" xlink:href="#b"/>
<use x="99.958" y="62.844" xlink:href="#a"/>
<use x="105.328" y="56.95" xlink:href="#h"/>
</g>
<g fill="#188653">
<use x="142.87" y="61.35" xlink:href="#d"/>
<use x="150.34195" y="61.35" xlink:href="#c"/>
<use x="157.122496" y="61.35" xlink:href="#b"/>
<use x="164.871" y="62.844" xlink:href="#a"/>
<use x="169.34" y="56.95" xlink:href="#n"/>
<use x="174.210502" y="56.95" xlink:href="#h"/>
</g>
<g fill="#6e41c1">
<use x="159.321" y="125.908" xlink:href="#c"/>
<use x="166.101546" y="125.908" xlink:href="#b"/>
<use x="173.85" y="127.402" xlink:href="#a"/>
<use x="178.319" y="121.508" xlink:href="#o"/>
<use x="183.189502" y="121.508" xlink:href="#h"/>
</g>
<path transform="matrix(1 0 0 -1 32.501 174.33)" d="m31.132 80.697c0 1.1016-0.89062 1.9922-1.9922 1.9922-1.0977 0-1.9922-0.89062-1.9922-1.9922 0-1.0977 0.89453-1.9922 1.9922-1.9922 1.1016 0 1.9922 0.89453 1.9922 1.9922z" fill="#fff" stroke="#0c6dfd" stroke-miterlimit="10" stroke-width="1.1955"/>
<path transform="matrix(1 0 0 -1 32.501 174.33)" d="m101.91 80.697c0 1.1016-0.89453 1.9922-1.9922 1.9922-1.1016 0-1.9922-0.89062-1.9922-1.9922 0-1.0977 0.89062-1.9922 1.9922-1.9922 1.0977 0 1.9922 0.89453 1.9922 1.9922z" fill="#fff" stroke="#dc3445" stroke-miterlimit="10" stroke-width="1.1955"/>
<path transform="matrix(1 0 0 -1 32.501 174.33)" d="m168.51 80.697c0 1.1016-0.89062 1.9922-1.9922 1.9922-1.0977 0-1.9922-0.89062-1.9922-1.9922 0-1.0977 0.89453-1.9922 1.9922-1.9922 1.1016 0 1.9922 0.89453 1.9922 1.9922z" fill="#fff" stroke="#188653" stroke-miterlimit="10" stroke-width="1.1955"/>
<g>
<use x="7.474" y="135.721" xlink:href="#aa"/>
<use x="7.474" y="130.044311" xlink:href="#v"/>
<use x="7.474" y="126.14196" xlink:href="#m"/>
<use x="7.474" y="121.16066" xlink:href="#u"/>
<use x="7.474" y="116.732284" xlink:href="#t"/>
<use x="7.474" y="111.750984" xlink:href="#s"/>
<use x="7.474" y="103.452139" xlink:href="#r"/>
<use x="7.474" y="97.916918" xlink:href="#m"/>
<use x="7.474" y="92.935618" xlink:href="#g"/>
<use x="7.474" y="85.687827" xlink:href="#l"/>
<use x="7.474" y="81.259451" xlink:href="#g"/>
<use x="7.474" y="77.329205" xlink:href="#z"/>
<use x="7.474" y="71.515032" xlink:href="#y"/>
<use x="7.474" y="67.086656" xlink:href="#x"/>
<use x="7.474" y="62.65828" xlink:href="#w"/>
<use x="7.474" y="59.89067" xlink:href="#l"/>
<use x="7.474" y="55.462294" xlink:href="#g"/>
</g>
</svg>
