<?xml version="1.0" encoding="UTF-8"?>
<svg width="64pt" height="45pt" version="1.1" viewBox="0 0 64 45" xmlns="http://www.w3.org/2000/svg" xmlns:xlink="http://www.w3.org/1999/xlink">
<defs>
<symbol id="a" overflow="visible">
<path d="m6.1094 0v-6.9219h-0.89062v3.0312h-3.3906v-3.0312h-0.89062v6.9219h0.89062v-3.2969h3.3906v3.2969z"/>
</symbol>
<symbol id="c" overflow="visible">
<path d="m4.7188 0-1.9219-4.8438h-0.67188l-1.9219 4.8438h0.57812l0.54688-1.375h2.1094l0.54688 1.375zm-1.4531-1.7969h-1.7656l0.89062-2.5156z"/>
</symbol>
<symbol id="b" overflow="visible">
<path d="m4.5156-1.3125c0-0.60938-0.64062-1.1094-1.4219-1.2188 0.71875-0.17188 1.2188-0.59375 1.2188-1.0938 0-0.64062-0.8125-1.2188-1.8281-1.2188h-1.7812v4.8438h1.9844c1.0312 0 1.8281-0.60938 1.8281-1.3125zm-0.8125-2.2969c0 0.45312-0.64062 0.85938-1.4219 0.85938h-0.92188v-1.6719h0.90625c0.78125 0 1.4375 0.35938 1.4375 0.8125zm0.17188 2.2969c0 0.51562-0.64062 0.90625-1.4062 0.90625h-1.1094v-1.875h0.98438c0.875 0 1.5312 0.4375 1.5312 0.96875z"/>
</symbol>
</defs>
<path transform="matrix(1 0 0 -1 .589 26.067)" d="m8.4375e-4 5.9375e-4 12.422 7.1719" fill="none" stroke="#000" stroke-linecap="round" stroke-miterlimit="10" stroke-width=".59758"/>
<path transform="matrix(1 0 0 -1 .589 26.067)" d="m12.423 7.1725 12.422-7.1719" fill="none" stroke="#000" stroke-linecap="round" stroke-miterlimit="10" stroke-width=".59758"/>
<g fill="#0c6dfd">
<use x="19.184" y="43.122" xlink:href="#a"/>
<use x="26.241" y="44.616" xlink:href="#c"/>
</g>
<path transform="matrix(1 0 0 -1 .589 26.067)" d="m24.845 5.9375e-4v-8.543" fill="none" stroke="#000" stroke-linecap="round" stroke-miterlimit="10" stroke-width=".59758"/>
<path transform="matrix(1 0 0 -1 .589 26.067)" d="m24.845 5.9375e-4 12.418 7.1719" fill="none" stroke="#000" stroke-linecap="round" stroke-miterlimit="10" stroke-width=".59758"/>
<g fill="#dc3445">
<use x="31.605" y="7.265" xlink:href="#a"/>
<use x="38.662" y="8.759" xlink:href="#b"/>
</g>
<path transform="matrix(1 0 0 -1 .589 26.067)" d="m37.263 7.1725v8.543" fill="none" stroke="#000" stroke-linecap="round" stroke-miterlimit="10" stroke-width=".59758"/>
<path transform="matrix(1 0 0 -1 .589 26.067)" d="m37.263 7.1725 12.422-7.1719" fill="none" stroke="#000" stroke-linecap="round" stroke-miterlimit="10" stroke-width=".59758"/>
<path transform="matrix(1 0 0 -1 .589 26.067)" d="m49.684 5.9375e-4 12.422 7.1719" fill="none" stroke="#000" stroke-linecap="round" stroke-miterlimit="10" stroke-width=".59758"/>
<path transform="matrix(1 0 0 -1 .589 26.067)" d="m48.442 2.1568 12.418 7.1719" fill="none" stroke="#000" stroke-linecap="round" stroke-miterlimit="10" stroke-width=".59758"/>
</svg>
