<?xml version="1.0" encoding="UTF-8"?>
<svg width="222pt" height="195pt" version="1.1" viewBox="0 0 222 195" xmlns="http://www.w3.org/2000/svg" xmlns:xlink="http://www.w3.org/1999/xlink">
<defs>
<symbol id="h" overflow="visible">
<path d="m4.5781-3.1875c0-0.79688-0.046875-1.5938-0.39062-2.3281-0.45312-0.96875-1.2812-1.125-1.6875-1.125-0.60938 0-1.3281 0.26562-1.75 1.1875-0.3125 0.6875-0.35938 1.4688-0.35938 2.2656 0 0.75 0.03125 1.6406 0.45312 2.4062 0.42188 0.79688 1.1562 1 1.6406 1 0.53125 0 1.2969-0.20312 1.7344-1.1562 0.3125-0.6875 0.35938-1.4688 0.35938-2.25zm-0.8125-0.125c0 0.75 0 1.4219-0.10938 2.0625-0.15625 0.95312-0.71875 1.25-1.1719 1.25-0.39062 0-0.98438-0.25-1.1562-1.2031-0.10938-0.59375-0.10938-1.5156-0.10938-2.1094 0-0.64062 0-1.2969 0.078125-1.8281 0.1875-1.1875 0.9375-1.2812 1.1875-1.2812 0.32812 0 0.98438 0.1875 1.1719 1.1719 0.10938 0.5625 0.10938 1.3125 0.10938 1.9375z"/>
</symbol>
<symbol id="aa" overflow="visible">
<path d="m4.1719 0v-0.3125h-0.3125c-0.90625 0-0.92188-0.10938-0.92188-0.46875v-5.5938c0-0.25 0-0.26562-0.23438-0.26562-0.625 0.64062-1.5 0.64062-1.8125 0.64062v0.3125c0.20312 0 0.78125 0 1.2969-0.26562v5.1719c0 0.35938-0.03125 0.46875-0.92188 0.46875h-0.3125v0.3125c0.34375-0.03125 1.2031-0.03125 1.6094-0.03125 0.39062 0 1.2656 0 1.6094 0.03125z"/>
</symbol>
<symbol id="z" overflow="visible">
<path d="m6.8281-4.5-0.1875-2.25h-6.0938l-0.1875 2.25h0.25c0.14062-1.6094 0.28125-1.9375 1.7969-1.9375 0.17188 0 0.4375 0 0.53125 0.015625 0.21875 0.046875 0.21875 0.15625 0.21875 0.375v5.2656c0 0.32812 0 0.46875-1.0469 0.46875h-0.40625v0.3125c0.40625-0.03125 1.4219-0.03125 1.8906-0.03125 0.45312 0 1.4844 0 1.8906 0.03125v-0.3125h-0.40625c-1.0469 0-1.0469-0.14062-1.0469-0.46875v-5.2656c0-0.1875 0-0.32812 0.1875-0.375 0.10938-0.015625 0.375-0.015625 0.5625-0.015625 1.5156 0 1.6562 0.32812 1.7969 1.9375z"/>
</symbol>
<symbol id="y" overflow="visible">
<path d="m4.1406-1.1875c0-0.09375-0.078125-0.125-0.14062-0.125-0.078125 0-0.10938 0.0625-0.125 0.14062-0.34375 1.0312-1.25 1.0312-1.3438 1.0312-0.5 0-0.89062-0.29688-1.125-0.67188-0.29688-0.46875-0.29688-1.125-0.29688-1.4844h2.7812c0.21875 0 0.25 0 0.25-0.21875 0-0.98438-0.54688-1.9531-1.7812-1.9531-1.1562 0-2.0781 1.0312-2.0781 2.2812 0 1.3281 1.0469 2.2969 2.1875 2.2969 1.2188 0 1.6719-1.1094 1.6719-1.2969zm-0.65625-1.3281h-2.375c0.0625-1.4844 0.90625-1.7344 1.25-1.7344 1.0156 0 1.125 1.3438 1.125 1.7344z"/>
</symbol>
<symbol id="x" overflow="visible">
<path d="m8.1094 0v-0.3125c-0.51562 0-0.76562 0-0.78125-0.29688v-1.9062c0-0.85938 0-1.1562-0.3125-1.5156-0.14062-0.17188-0.46875-0.375-1.0469-0.375-0.82812 0-1.2812 0.59375-1.4375 0.98438-0.14062-0.875-0.875-0.98438-1.3281-0.98438-0.73438 0-1.2031 0.42188-1.4844 1.0469v-1.0469l-1.4062 0.10938v0.3125c0.70312 0 0.78125 0.0625 0.78125 0.5625v2.6719c0 0.4375-0.10938 0.4375-0.78125 0.4375v0.3125l1.1406-0.03125 1.1094 0.03125v-0.3125c-0.67188 0-0.78125 0-0.78125-0.4375v-1.8438c0-1.0312 0.71875-1.5938 1.3438-1.5938 0.64062 0 0.75 0.53125 0.75 1.1094v2.3281c0 0.4375-0.10938 0.4375-0.78125 0.4375v0.3125l1.125-0.03125 1.1094 0.03125v-0.3125c-0.65625 0-0.76562 0-0.76562-0.4375v-1.8438c0-1.0312 0.70312-1.5938 1.3438-1.5938 0.625 0 0.73438 0.53125 0.73438 1.1094v2.3281c0 0.4375-0.10938 0.4375-0.78125 0.4375v0.3125l1.125-0.03125z"/>
</symbol>
<symbol id="w" overflow="visible">
<path d="m5.1875-2.1562c0-1.2656-0.95312-2.25-2.0781-2.25-0.78125 0-1.2031 0.4375-1.3906 0.65625v-0.65625l-1.4375 0.10938v0.3125c0.70312 0 0.78125 0.0625 0.78125 0.5v4.6562c0 0.45312-0.10938 0.45312-0.78125 0.45312v0.3125l1.1094-0.03125 1.125 0.03125v-0.3125c-0.65625 0-0.76562 0-0.76562-0.45312v-1.7656c0.046875 0.17188 0.46875 0.70312 1.2188 0.70312 1.1875 0 2.2188-0.98438 2.2188-2.2656zm-0.82812 0c0 1.2031-0.6875 2.0469-1.4219 2.0469-0.40625 0-0.78125-0.20312-1.0469-0.60938-0.14062-0.20312-0.14062-0.21875-0.14062-0.42188v-2.2188c0.28125-0.51562 0.76562-0.79688 1.2812-0.79688 0.73438 0 1.3281 0.875 1.3281 2z"/>
</symbol>
<symbol id="v" overflow="visible">
<path d="m4.6875-2.1406c0-1.2656-0.98438-2.3281-2.1875-2.3281-1.25 0-2.2188 1.0938-2.2188 2.3281 0 1.2969 1.0312 2.25 2.2031 2.25 1.2031 0 2.2031-0.98438 2.2031-2.25zm-0.8125-0.078125c0 0.35938 0 0.90625-0.21875 1.3438-0.23438 0.45312-0.67188 0.73438-1.1562 0.73438-0.4375 0-0.875-0.20312-1.1406-0.67188-0.25-0.4375-0.25-1.0469-0.25-1.4062 0-0.39062 0-0.92188 0.23438-1.3594 0.26562-0.45312 0.73438-0.67188 1.1406-0.67188 0.4375 0 0.85938 0.21875 1.125 0.65625 0.26562 0.42188 0.26562 1 0.26562 1.375z"/>
</symbol>
<symbol id="u" overflow="visible">
<path d="m2.0312-0.015625c0-0.625-0.25-1.0469-0.64062-1.0469-0.35938 0-0.53125 0.28125-0.53125 0.53125 0 0.26562 0.17188 0.53125 0.53125 0.53125 0.14062 0 0.28125-0.0625 0.39062-0.15625 0.015625 0.78125-0.25 1.3906-0.6875 1.8594-0.0625 0.0625-0.078125 0.078125-0.078125 0.10938 0 0.078125 0.046875 0.10938 0.09375 0.10938 0.125 0 0.92188-0.78125 0.92188-1.9375z"/>
</symbol>
<symbol id="g" overflow="visible">
<path d="m3.125-1.4219c0-0.10938-0.078125-0.10938-0.10938-0.10938-0.09375 0-0.10938 0.03125-0.15625 0.14062-0.42188 1.0469-0.95312 1.2812-1.2969 1.2812-0.20312 0-0.3125-0.125-0.3125-0.45312 0-0.25 0.03125-0.3125 0.0625-0.48438l0.73438-2.9375h0.9375c0.20312 0 0.3125 0 0.3125-0.20312 0-0.10938-0.10938-0.10938-0.28125-0.10938h-0.875c0.35938-1.4219 0.40625-1.6094 0.40625-1.6719 0-0.17188-0.125-0.26562-0.29688-0.26562-0.03125 0-0.3125 0-0.39062 0.35938l-0.39062 1.5781h-0.9375c-0.20312 0-0.29688 0-0.29688 0.1875 0 0.125 0.078125 0.125 0.28125 0.125h0.875c-0.71875 2.8281-0.76562 3-0.76562 3.1719 0 0.54688 0.375 0.92188 0.92188 0.92188 1.0156 0 1.5781-1.4531 1.5781-1.5312z"/>
</symbol>
<symbol id="f" overflow="visible">
<path d="m3.2969 0v-0.25h-0.26562c-0.70312 0-0.70312-0.09375-0.70312-0.32812v-3.8594c0-0.1875 0-0.1875-0.20312-0.1875-0.45312 0.4375-1.0781 0.4375-1.3594 0.4375v0.25c0.15625 0 0.625 0 1-0.1875v3.5469c0 0.23438 0 0.32812-0.6875 0.32812h-0.26562v0.25l1.2344-0.03125z"/>
</symbol>
<symbol id="e" overflow="visible">
<path d="m3.5156-1.2656h-0.23438c-0.015625 0.15625-0.09375 0.5625-0.1875 0.625-0.046875 0.046875-0.57812 0.046875-0.6875 0.046875h-1.2812c0.73438-0.64062 0.98438-0.84375 1.3906-1.1719 0.51562-0.40625 1-0.84375 1-1.5 0-0.84375-0.73438-1.3594-1.625-1.3594-0.85938 0-1.4531 0.60938-1.4531 1.25 0 0.34375 0.29688 0.39062 0.375 0.39062 0.15625 0 0.35938-0.125 0.35938-0.375 0-0.125-0.046875-0.375-0.40625-0.375 0.21875-0.48438 0.6875-0.64062 1.0156-0.64062 0.70312 0 1.0625 0.54688 1.0625 1.1094 0 0.60938-0.4375 1.0781-0.65625 1.3281l-1.6719 1.6719c-0.078125 0.0625-0.078125 0.078125-0.078125 0.26562h2.875z"/>
</symbol>
<symbol id="t" overflow="visible">
<path d="m3.5312-5.0469c0-0.10938-0.09375-0.17188-0.17188-0.17188-0.10938 0-0.14062 0.078125-0.1875 0.17188l-2.5938 6.4844c-0.046875 0.09375-0.046875 0.10938-0.046875 0.125 0 0.10938 0.09375 0.17188 0.17188 0.17188 0.125 0 0.15625-0.078125 0.1875-0.17188l2.5938-6.4844c0.046875-0.09375 0.046875-0.10938 0.046875-0.125z"/>
</symbol>
<symbol id="s" overflow="visible">
<path d="m-6.5-7.1406h-0.3125l0.03125 1.1719-0.03125 1.1562h0.3125c0-1.0156 0.46875-1.0156 0.73438-1.0156h4.2656l-5.1719 3.5156c-0.125 0.09375-0.14062 0.09375-0.14062 0.28125v1.7031h0.3125v-0.29688c0-0.14062 0.015625-0.34375 0.015625-0.48438 0.03125-0.23438 0.046875-0.25 0.23438-0.25h5.2031c0.26562 0 0.73438 0 0.73438 1.0312h0.3125l-0.03125-1.1719 0.03125-1.1562h-0.3125c0 1.0156-0.46875 1.0156-0.73438 1.0156h-5.1875c0.046875-0.046875 0.0625-0.046875 0.125-0.09375l5.9844-4.0625c0.10938-0.09375 0.125-0.10938 0.125-0.17188 0-0.14062-0.0625-0.14062-0.26562-0.14062h-5.5c-0.26562 0-0.73438 0-0.73438-1.0312z"/>
</symbol>
<symbol id="d" overflow="visible">
<path d="m0-5.3281h-0.3125c0 0.6875-0.0625 0.76562-0.5625 0.76562h-3.5312l0.10938 1.4688h0.3125c0-0.6875 0.0625-0.78125 0.5625-0.78125h1.7656c0.875 0 1.5469 0.48438 1.5469 1.2188 0 0.82812-0.46875 0.875-0.98438 0.875h-3.3125l0.10938 1.4688h0.3125c0-0.78125 0.03125-0.78125 0.90625-0.78125h1.5c0.78125 0 1.6875 0 1.6875-1.5156 0-0.5625-0.28125-1-0.89062-1.2812h0.89062zm-6.5938 1.3281c-0.1875 0-0.35938 0.17188-0.35938 0.34375 0 0.15625 0.10938 0.26562 0.17188 0.3125l1.5156 1.1875 0.1875-0.17188-1.2188-1.5156c-0.078125-0.078125-0.1875-0.15625-0.29688-0.15625z"/>
</symbol>
<symbol id="o" overflow="visible">
<path d="m0-8.1094h-0.3125c0 0.51562 0 0.76562-0.29688 0.78125h-1.9062c-0.85938 0-1.1562 0-1.5156 0.3125-0.17188 0.14062-0.375 0.46875-0.375 1.0469 0 0.82812 0.59375 1.2812 0.98438 1.4375-0.875 0.14062-0.98438 0.875-0.98438 1.3281 0 0.73438 0.42188 1.2031 1.0469 1.4844h-1.0469l0.10938 1.4062h0.3125c0-0.70312 0.0625-0.78125 0.5625-0.78125h2.6719c0.4375 0 0.4375 0.10938 0.4375 0.78125h0.3125l-0.03125-1.1406 0.03125-1.1094h-0.3125c0 0.67188 0 0.78125-0.4375 0.78125h-1.8438c-1.0312 0-1.5938-0.71875-1.5938-1.3438 0-0.64062 0.53125-0.75 1.1094-0.75h2.3281c0.4375 0 0.4375 0.10938 0.4375 0.78125h0.3125l-0.03125-1.125 0.03125-1.1094h-0.3125c0 0.65625 0 0.76562-0.4375 0.76562h-1.8438c-1.0312 0-1.5938-0.70312-1.5938-1.3438 0-0.625 0.53125-0.73438 1.1094-0.73438h2.3281c0.4375 0 0.4375 0.10938 0.4375 0.78125h0.3125l-0.03125-1.125z"/>
</symbol>
<symbol id="a" overflow="visible">
<path d="m-1.1875-4.1406c-0.09375 0-0.125 0.078125-0.125 0.14062 0 0.078125 0.0625 0.10938 0.14062 0.125 1.0312 0.34375 1.0312 1.25 1.0312 1.3438 0 0.5-0.29688 0.89062-0.67188 1.125-0.46875 0.29688-1.125 0.29688-1.4844 0.29688v-2.7812c0-0.21875 0-0.25-0.21875-0.25-0.98438 0-1.9531 0.54688-1.9531 1.7812 0 1.1562 1.0312 2.0781 2.2812 2.0781 1.3281 0 2.2969-1.0469 2.2969-2.1875 0-1.2188-1.1094-1.6719-1.2969-1.6719zm-1.3281 0.65625v2.375c-1.4844-0.0625-1.7344-0.90625-1.7344-1.25 0-1.0156 1.3438-1.125 1.7344-1.125z"/>
</symbol>
<symbol id="n" overflow="visible">
<path d="m-3.7969-3.625c-0.3125 0-0.60938 0.3125-0.60938 0.73438 0 0.73438 0.67188 1.0938 1.0938 1.2188h-1.0938l0.10938 1.3906h0.3125c0-0.70312 0.0625-0.78125 0.5625-0.78125h2.6719c0.4375 0 0.4375 0.10938 0.4375 0.78125h0.3125l-0.03125-1.1406c0-0.39062 0-0.85938 0.03125-1.2656h-0.3125v0.21875c0 0.73438-0.10938 0.75-0.46875 0.75h-1.5312c-0.98438 0-1.875-0.42188-1.875-1.1719 0-0.0625 0-0.09375 0.015625-0.10938 0 0.03125 0.125 0.23438 0.39062 0.23438s0.42188-0.21875 0.42188-0.4375c0-0.17188-0.125-0.42188-0.4375-0.42188z"/>
</symbol>
<symbol id="c" overflow="visible">
<path d="m-2.1406-4.6875c-1.2656 0-2.3281 0.98438-2.3281 2.1875 0 1.25 1.0938 2.2188 2.3281 2.2188 1.2969 0 2.25-1.0312 2.25-2.2031 0-1.2031-0.98438-2.2031-2.25-2.2031zm-0.078125 0.8125c0.35938 0 0.90625 0 1.3438 0.21875 0.45312 0.23438 0.73438 0.67188 0.73438 1.1562 0 0.4375-0.20312 0.875-0.67188 1.1406-0.4375 0.25-1.0469 0.25-1.4062 0.25-0.39062 0-0.92188 0-1.3594-0.23438-0.45312-0.26562-0.67188-0.73438-0.67188-1.1406 0-0.4375 0.21875-0.85938 0.65625-1.125 0.42188-0.26562 1-0.26562 1.375-0.26562z"/>
</symbol>
<symbol id="m" overflow="visible">
<path d="m0-5.25h-0.3125c0 0.6875-0.0625 0.78125-0.5625 0.78125h-6.0469l0.10938 1.4219h0.3125c0-0.6875 0.0625-0.76562 0.5625-0.76562h2.1562c-0.35938 0.28125-0.625 0.71875-0.625 1.25 0 1.1719 0.98438 2.2188 2.2656 2.2188 1.2656 0 2.25-0.96875 2.25-2.1094 0-0.64062-0.34375-1.0781-0.65625-1.3281h0.65625zm-1.1719 1.4688c0.17188 0 0.1875 0 0.35938 0.10938 0.48438 0.29688 0.70312 0.73438 0.70312 1.1719 0 0.45312-0.26562 0.8125-0.64062 1.0469-0.40625 0.25-0.96875 0.28125-1.3906 0.28125-0.35938 0-0.95312-0.015625-1.4062-0.29688-0.3125-0.21875-0.64062-0.59375-0.64062-1.1406 0-0.34375 0.15625-0.76562 0.59375-1.0625 0.17188-0.10938 0.1875-0.10938 0.375-0.10938z"/>
</symbol>
<symbol id="l" overflow="visible">
<path d="m0-5.3281h-0.3125c0 0.51562 0 0.76562-0.29688 0.76562h-1.9062c-0.85938 0-1.1562 0-1.5156 0.3125-0.17188 0.14062-0.375 0.46875-0.375 1.0469 0 0.73438 0.42188 1.2031 1.0469 1.4844h-1.0469l0.10938 1.4062h0.3125c0-0.70312 0.0625-0.78125 0.5625-0.78125h2.6719c0.4375 0 0.4375 0.10938 0.4375 0.78125h0.3125l-0.03125-1.1406 0.03125-1.1094h-0.3125c0 0.67188 0 0.78125-0.4375 0.78125h-1.8438c-1.0312 0-1.5938-0.71875-1.5938-1.3438 0-0.64062 0.53125-0.75 1.1094-0.75h2.3281c0.4375 0 0.4375 0.10938 0.4375 0.78125h0.3125l-0.03125-1.125z"/>
</symbol>
<symbol id="k" overflow="visible">
<path d="m-1.1875-4.1406c-0.09375 0-0.09375 0.10938-0.09375 0.14062 0 0.078125 0.03125 0.10938 0.09375 0.125 0.92188 0.28125 1.0469 0.9375 1.0469 1.2969 0 0.53125-0.42188 1.4062-2.0312 1.4062-1.625 0-2.0469-0.8125-2.0469-1.3438 0-0.09375 0.015625-0.71875 0.375-1.0625 0.03125 0.40625 0.32812 0.46875 0.45312 0.46875 0.26562 0 0.45312-0.1875 0.45312-0.45312s-0.15625-0.46875-0.46875-0.46875c-0.67188 0-1.0625 0.76562-1.0625 1.5312 0 1.25 1.0781 2.1562 2.3125 2.1562 1.2812 0 2.2656-0.98438 2.2656-2.1406 0-1.3281-1.2031-1.6562-1.2969-1.6562z"/>
</symbol>
<symbol id="r" overflow="visible">
<path d="m0-2.5469h-0.3125c0 0.67188 0 0.78125-0.4375 0.78125h-6.1719l0.10938 1.4375h0.3125c0-0.70312 0.0625-0.78125 0.5625-0.78125h5.1875c0.4375 0 0.4375 0.10938 0.4375 0.78125h0.3125l-0.03125-1.1094z"/>
</symbol>
<symbol id="q" overflow="visible">
<path d="m-1.2812-3.5938c-0.51562 0-0.82812 0.29688-0.9375 0.42188-0.32812 0.32812-0.40625 0.71875-0.48438 1.1406-0.10938 0.5625-0.23438 1.2188-0.8125 1.2188-0.35938 0-0.76562-0.25-0.76562-1.1094 0-1.0938 0.90625-1.1562 1.2031-1.1719 0.09375 0 0.09375-0.10938 0.09375-0.10938 0-0.14062-0.046875-0.14062-0.23438-0.14062h-1.0156c-0.15625 0-0.23438 0-0.23438 0.10938 0 0.046875 0 0.078125 0.125 0.20312 0.03125 0.03125 0.125 0.125 0.15625 0.17188-0.28125 0.375-0.28125 0.78125-0.28125 0.9375 0 1.2188 0.67188 1.5938 1.2344 1.5938 0.34375 0 0.625-0.15625 0.84375-0.42188 0.25-0.32812 0.3125-0.60938 0.45312-1.3281 0.046875-0.21875 0.20312-1.0312 0.92188-1.0312 0.5 0 0.90625 0.34375 0.90625 1.125 0 0.84375-0.5625 1.2031-1.4219 1.3906-0.125 0.03125-0.15625 0.03125-0.15625 0.14062 0 0.125 0.0625 0.125 0.23438 0.125h1.3281c0.17188 0 0.23438 0 0.23438-0.10938 0-0.046875-0.015625-0.0625-0.20312-0.25-0.015625-0.015625-0.03125-0.015625-0.21875-0.20312 0.40625-0.4375 0.42188-0.89062 0.42188-1.0938 0-1.1406-0.67188-1.6094-1.3906-1.6094z"/>
</symbol>
<symbol id="p" overflow="visible">
<path d="m-0.015625-2.0312c-0.625 0-1.0469 0.25-1.0469 0.64062 0 0.35938 0.28125 0.53125 0.53125 0.53125 0.26562 0 0.53125-0.17188 0.53125-0.53125 0-0.14062-0.0625-0.28125-0.15625-0.39062 0.78125-0.015625 1.3906 0.25 1.8594 0.6875 0.0625 0.0625 0.078125 0.078125 0.10938 0.078125 0.078125 0 0.10938-0.046875 0.10938-0.09375 0-0.125-0.78125-0.92188-1.9375-0.92188z"/>
</symbol>
<symbol id="b" overflow="visible">
<path d="m-6.7031-8.7812s-0.10938 0-0.10938 0.125c0 0.32812 0.03125 0.6875 0.03125 1.0156s-0.03125 0.6875-0.03125 1.0156c0 0.0625 0 0.17188 0.20312 0.17188 0.10938 0 0.10938-0.09375 0.10938-0.17188 0.015625-0.57812 0.21875-0.6875 0.4375-0.6875 0.03125 0 0.1875 0.03125 0.20312 0.03125l4.4375 1.125-5.2031 2.2031c-0.17188 0.078125-0.1875 0.078125-0.1875 0.3125v1.3438c0 0.1875 0 0.28125 0.20312 0.28125 0.10938 0 0.10938-0.09375 0.10938-0.28125 0-0.046875 0-0.67188 0.09375-0.67188l5.3438 1.3281c0.40625 0.10938 0.71875 0.28125 0.75 1.0781 0 0.0625 0.015625 0.17188 0.20312 0.17188 0.0625 0 0.10938-0.046875 0.10938-0.125 0-0.32812-0.03125-0.67188-0.03125-1 0-0.34375 0.03125-0.70312 0.03125-1.0312 0-0.046875 0-0.17188-0.20312-0.17188-0.09375 0-0.10938 0.09375-0.10938 0.20312-0.015625 0.57812-0.23438 0.65625-0.4375 0.65625-0.0625 0-0.125-0.015625-0.23438-0.046875l-5.25-1.3125c0.046875-0.046875 0.078125-0.046875 0.17188-0.09375l5.875-2.4844c0.17188-0.0625 0.1875-0.09375 0.1875-0.1875 0-0.10938-0.03125-0.10938-0.20312-0.15625l-5.5625-1.3906c-0.39062-0.10938-0.70312-0.28125-0.73438-1.0781 0-0.046875-0.015625-0.17188-0.20312-0.17188z"/>
</symbol>
<symbol id="j" overflow="visible">
<path d="m-7.2812-4.4219c-0.10938 0-0.20312 0.078125-0.20312 0.1875 0 0.078125 0.03125 0.14062 0.09375 0.17188l9.5 3.4688c0.14062 0.046875 0.1875 0.046875 0.1875 0.046875 0.10938 0 0.20312-0.09375 0.20312-0.20312 0-0.125-0.078125-0.15625-0.25-0.21875l-9.3438-3.4062c-0.14062-0.046875-0.1875-0.046875-0.1875-0.046875z"/>
</symbol>
<symbol id="i" overflow="visible">
<path d="m-2.2188-3.5938c-0.76562 0-1.3281 0.09375-1.8125 0.40625-0.3125 0.21875-0.59375 0.65625-0.59375 1.2031 0 1.625 1.9062 1.625 2.4062 1.625s2.3594 0 2.3594-1.625c0-1.6094-1.8594-1.6094-2.3594-1.6094zm-0.09375 0.625c0.51562 0 1.0312 0 1.4688 0.09375 0.64062 0.14062 0.78125 0.60938 0.78125 0.89062 0 0.32812-0.1875 0.75-0.75 0.89062-0.40625 0.09375-0.98438 0.09375-1.5 0.09375s-1.0469 0-1.4219-0.09375c-0.54688-0.15625-0.70312-0.59375-0.70312-0.89062 0-0.375 0.23438-0.73438 0.64062-0.85938 0.375-0.10938 0.875-0.125 1.4844-0.125z"/>
</symbol>
<clipPath id="ab">
<path d="m26.719 4.2578h194.27v158.74h-194.27z"/>
</clipPath>
</defs>
<path transform="matrix(1 0 0 -1 26.718 165.65)" d="m7.5e-4 0.0016562v161.39m64.758-161.39v161.39" fill="none" stroke="#bfbfbf" stroke-miterlimit="10" stroke-width=".3985"/>
<path transform="matrix(1 0 0 -1 26.718 165.65)" d="m7.5e-4 0.0016562h194.27m-194.27 80.695h194.27m-194.27 80.699h194.27" fill="none" stroke="#bfbfbf" stroke-miterlimit="10" stroke-width=".3985"/>
<path transform="matrix(1 0 0 -1 26.718 165.65)" d="m7.5e-4 0.0016562v4.25m64.758-4.25v4.25m-64.758 157.14v-4.2539m64.758 4.2539v-4.2539" fill="none" stroke="#7f7f7f" stroke-miterlimit="10" stroke-width=".19925"/>
<path transform="matrix(1 0 0 -1 26.718 165.65)" d="m7.5e-4 0.0016562h4.25m-4.25 80.695h4.25m-4.25 80.699h4.25m190.02-161.39h-4.25m4.25 80.695h-4.25m4.25 80.699h-4.25" fill="none" stroke="#7f7f7f" stroke-miterlimit="10" stroke-width=".19925"/>
<path transform="matrix(1 0 0 -1 26.718 165.65)" d="m7.5e-4 0.0016562v161.39h194.27v-161.39z" fill="none" stroke="#000" stroke-miterlimit="10" stroke-width=".3985"/>
<g>
<use x="24.227" y="175.447" xlink:href="#h"/>
<use x="83.414" y="175.301" xlink:href="#g"/>
<use x="87.012" y="177.1" xlink:href="#f"/>
<use x="90.983" y="177.1" xlink:href="#t"/>
<use x="95.065" y="177.1" xlink:href="#e"/>
<use x="18.217" y="168.791" xlink:href="#h"/>
<use x="18.031" y="83.525" xlink:href="#f"/>
</g>
<path transform="matrix(1,0,0,-1,18.031,84.956)" d="m2.5e-4 -0.0010312h3.9727" fill="none" stroke="#000" stroke-miterlimit="10" stroke-width=".398"/>
<g>
<use x="18.031" y="90.883" xlink:href="#e"/>
<use x="18.217" y="7.396" xlink:href="#aa"/>
</g>
<g clip-path="url(#ab)">
<path transform="matrix(1 0 0 -1 26.718 165.65)" d="m7.5e-4 161.4 1.3047-2.207 1.3008-2.2109 1.3047-2.1602 1.3047-2.1484 1.3047-2.1172 1.3008-2.082 1.3047-2.0664 1.3047-2.0312 1.3047-1.9883 1.3047-1.9844 1.3008-1.9375 1.3047-1.9219 1.3047-1.8906 1.3047-1.8711 1.3047-1.8398 1.3008-1.8047 1.3047-1.793 1.3047-1.7617 1.3047-1.7461 1.3008-1.7227 1.3047-1.6836 1.3047-1.6758 1.3047-1.6484 1.3047-1.6133 1.3008-1.5977 1.3047-1.582 2.6094-3.1016 1.3008-1.5 1.3047-1.5 1.3047-1.4688 1.3047-1.4531 1.3047-1.4375 1.3008-1.4062 1.3047-1.3867 1.3047-1.3711 1.3047-1.3594 1.3008-1.3398 1.3047-1.3086 1.3047-1.3047 1.3047-1.2773 1.3047-1.2578 1.3008-1.2422 1.3047-1.2266 1.3047-1.2109 1.3047-1.1953 1.3047-1.1797 1.3008-1.1602 1.3047-1.1484 1.3047-1.1289 1.3047-1.1172 1.3008-1.0938 1.3047-1.082 2.6094-2.1328 1.3047-1.0312 1.3008-1.0195 1.3047-1.0156 2.6094-1.9688 1.3008-0.96875 2.6094-1.9062 1.3047-0.92188 1.3047-0.91406 1.3008-0.90625 1.3047-0.89062 1.3047-0.88672 1.3047-0.85547 1.3008-0.85547 2.6094-1.6797 1.3047-0.80469 1.3047-0.82422 1.3008-0.79297 1.3047-0.78906 1.3047-0.76172 1.3047-0.77344 1.3008-0.75781 1.3047-0.74219 2.6094-1.4531 1.3047-0.71094 1.3008-0.69531 1.3047-0.69141 1.3047-0.69531 1.3047-0.66406 1.3047-0.66016 1.3008-0.66016 1.3047-0.64453 1.3047-0.64844 1.3047-0.61328 1.3008-0.62891 1.3047-0.61328 2.6094-1.1953 1.3047-0.58203 1.3008-0.57812 2.6094-1.1328 1.3047-0.55078 1.3008-0.54688 1.3047-0.54688 1.3047-0.53516 1.3047-0.51562 1.3047-0.51953 1.3008-0.51562 1.3047-0.5 1.3047-0.48047 1.3047-0.50391 1.3008-0.48438 1.3047-0.46484 2.6094-0.9375 1.3047-0.45312 1.3008-0.45312 1.3047-0.4375 1.3047-0.43359 1.3047-0.4375 1.3047-0.41797 1.3008-0.42188 1.3047-0.41797 1.3047-0.40234 1.3047-0.40625 1.3008-0.40234 2.6094-0.77344 1.3047-0.37109 1.3047-0.38672 1.3008-0.35938 1.3047-0.36719 1.3047-0.35938 1.3047-0.35156 1.3008-0.35547 2.6094-0.67969 1.3047-0.33594 1.3047-0.34375 1.3008-0.32031 1.3047-0.32422 1.3047-0.30469 1.3047-0.32422 1.3008-0.30469 1.3047-0.30859 1.3047-0.28906 1.3047-0.30859 1.3047-0.28906 1.3008-0.29297 1.3047-0.27344" fill="none" stroke="#0c6dfd" stroke-miterlimit="10" stroke-width="1.1955"/>
</g>
<path transform="matrix(1 0 0 -1 26.718 165.65)" d="m66.751 80.697c0 1.1016-0.89453 1.9922-1.9922 1.9922-1.1016 0-1.9922-0.89062-1.9922-1.9922 0-1.0977 0.89062-1.9922 1.9922-1.9922 1.0977 0 1.9922 0.89453 1.9922 1.9922z" fill="#fff" stroke="#0c6dfd" stroke-miterlimit="10" stroke-width="1.1955"/>
<g>
<use x="104.066" y="192.547" xlink:href="#z"/>
<use x="110.434094" y="192.547" xlink:href="#y"/>
<use x="114.86247" y="192.547" xlink:href="#x"/>
<use x="123.164304" y="192.547" xlink:href="#w"/>
<use x="128.968515" y="192.547" xlink:href="#v"/>
<use x="133.949815" y="192.547" xlink:href="#u"/>
<use x="140.042" y="192.547" xlink:href="#g"/>
<use x="7.505" y="141.857" xlink:href="#s"/>
<use x="7.505" y="134.38505" xlink:href="#d"/>
<use x="7.505" y="128.849829" xlink:href="#o"/>
<use x="7.505" y="120.547995" xlink:href="#a"/>
<use x="7.505" y="116.119619" xlink:href="#n"/>
<use x="7.505" y="112.217269" xlink:href="#c"/>
<use x="7.505" y="103.918423" xlink:href="#m"/>
<use x="7.505" y="98.383202" xlink:href="#a"/>
<use x="7.505" y="90.637281" xlink:href="#l"/>
<use x="7.505" y="85.371051" xlink:href="#d"/>
<use x="7.505" y="79.83583" xlink:href="#k"/>
<use x="7.505" y="75.407454" xlink:href="#r"/>
<use x="7.505" y="72.649807" xlink:href="#a"/>
<use x="7.505" y="68.221431" xlink:href="#c"/>
<use x="7.505" y="63.240131" xlink:href="#q"/>
<use x="7.505" y="59.309885" xlink:href="#p"/>
<use x="7.505" y="53.218" xlink:href="#b"/>
<use x="7.505" y="44.954023" xlink:href="#j"/>
<use x="7.505" y="40.530629" xlink:href="#b"/>
<use x="9" y="32.524" xlink:href="#i"/>
</g>
</svg>
