<?xml version="1.0" encoding="UTF-8"?>
<svg width="120pt" height="43pt" version="1.1" viewBox="0 0 120 43" xmlns="http://www.w3.org/2000/svg" xmlns:xlink="http://www.w3.org/1999/xlink">
<defs>
<symbol id="c" overflow="visible">
<path d="m5.8594-0.45312-0.0625-0.6875c-0.29688 0.20312-0.57812 0.39062-0.92188 0.5-0.3125 0.10938-0.67188 0.10938-1 0.10938-0.65625 0-1.25-0.34375-1.6562-0.85938-0.45312-0.57812-0.67188-1.3281-0.67188-2.0625 0-0.75 0.21875-1.5 0.67188-2.0938 0.40625-0.5 1-0.85938 1.6562-0.85938 0.29688 0 0.59375 0.03125 0.89062 0.125s0.57812 0.23438 0.84375 0.42188l0.125-0.8125c-0.29688-0.125-0.59375-0.21875-0.92188-0.28125-0.3125-0.0625-0.625-0.078125-0.9375-0.078125-0.89062 0-1.6875 0.39062-2.2812 1.0469-0.60938 0.6875-0.9375 1.5938-0.9375 2.5312 0 0.92188 0.32812 1.8281 0.9375 2.5156 0.59375 0.64062 1.3906 1.0469 2.2812 1.0469 0.34375 0 0.6875-0.015625 1.0312-0.10938s0.64062-0.26562 0.95312-0.45312z"/>
</symbol>
<symbol id="b" overflow="visible">
<path d="m6.1094 0v-6.9219h-0.89062v3.0312h-3.3906v-3.0312h-0.89062v6.9219h0.89062v-3.2969h3.3906v3.2969z"/>
</symbol>
<symbol id="a" overflow="visible">
<path d="m3.3906-1.2656c0-0.57812-0.46875-1.0312-1.0156-1.1875 0.53125-0.28125 0.79688-0.75 0.79688-1.2031 0-0.59375-0.59375-1.0625-1.3438-1.0625-0.60938 0-1.125 0.32812-1.4219 0.73438l0.29688 0.40625c0.28125-0.54688 0.78125-0.70312 1.1094-0.70312 0.42188 0 0.71875 0.23438 0.71875 0.625 0 0.375-0.25 0.82812-0.78125 0.92188-0.03125 0-0.0625 0-0.51562 0.03125v0.46875h0.54688c0.65625 0 0.90625 0.51562 0.90625 0.95312 0 0.54688-0.34375 0.96875-0.875 0.96875-0.5 0-1.0625-0.23438-1.4219-0.6875l-0.078125 0.45312c0.39062 0.45312 0.96875 0.6875 1.5 0.6875 0.92188 0 1.5781-0.67188 1.5781-1.4062z"/>
</symbol>
<symbol id="d" overflow="visible">
<path d="m4.1406-1.1875c0-0.09375-0.078125-0.125-0.14062-0.125-0.078125 0-0.10938 0.0625-0.125 0.14062-0.34375 1.0312-1.25 1.0312-1.3438 1.0312-0.5 0-0.89062-0.29688-1.125-0.67188-0.29688-0.46875-0.29688-1.125-0.29688-1.4844h2.7812c0.21875 0 0.25 0 0.25-0.21875 0-0.98438-0.54688-1.9531-1.7812-1.9531-1.1562 0-2.0781 1.0312-2.0781 2.2812 0 1.3281 1.0469 2.2969 2.1875 2.2969 1.2188 0 1.6719-1.1094 1.6719-1.2969zm-0.65625-1.3281h-2.375c0.0625-1.4844 0.90625-1.7344 1.25-1.7344 1.0156 0 1.125 1.3438 1.125 1.7344z"/>
</symbol>
</defs>
<path transform="matrix(1 0 0 -1 .589 41.782)" d="m8.4375e-4 7.5e-4 7.1719 12.422" fill="none" stroke="#000" stroke-linecap="round" stroke-miterlimit="10" stroke-width=".59758"/>
<path transform="matrix(1 0 0 -1 .589 41.782)" d="m7.1727 12.423 13.477 4.9062" fill="none" stroke="#000" stroke-linecap="round" stroke-miterlimit="10" stroke-width=".59758"/>
<path transform="matrix(1 0 0 -1 .589 41.782)" d="m20.649 17.329-4.9062 13.477" fill="none" stroke="#000" stroke-linecap="round" stroke-miterlimit="10" stroke-width=".59758"/>
<g>
<use x="25.571" y="7.265" xlink:href="#c"/>
<use x="31.936" y="7.265" xlink:href="#b"/>
<use x="38.993" y="8.759" xlink:href="#a"/>
</g>
<path transform="matrix(1 0 0 -1 .589 41.782)" d="m15.743 30.805 7.8594 4.5352" fill="none" stroke="#000" stroke-linecap="round" stroke-miterlimit="10" stroke-width=".59758"/>
<path transform="matrix(1 0 0 -1 .589 41.782)" d="m20.649 17.329 13.477-4.9062" fill="none" stroke="#000" stroke-linecap="round" stroke-miterlimit="10" stroke-width=".59758"/>
<path transform="matrix(1 0 0 -1 .589 41.782)" d="m30.852 11.727-5.3047-9.1875" fill="none" stroke="#000" stroke-linecap="round" stroke-miterlimit="10" stroke-width=".59758"/>
<path transform="matrix(1 0 0 -1 .589 41.782)" d="m34.126 12.423-7.168-12.422" fill="none" stroke="#000" stroke-linecap="round" stroke-miterlimit="10" stroke-width=".59758"/>
<path transform="matrix(1 0 0 -1 .589 41.782)" d="m26.958 7.5e-4 -13.48 4.9062" fill="none" stroke="#000" stroke-linecap="round" stroke-miterlimit="10" stroke-width=".59758"/>
<path transform="matrix(1 0 0 -1 .589 41.782)" d="m15.095 23.364-0.96484-11.016" fill="none" stroke="#fff" stroke-miterlimit="10" stroke-width="2.4901"/>
<path transform="matrix(1 0 0 -1 .589 41.782)" d="m15.743 30.805-2.2656-25.898" fill="none" stroke="#000" stroke-linecap="round" stroke-miterlimit="10" stroke-width=".59758"/>
<path transform="matrix(1 0 0 -1 .589 41.782)" d="m13.477 4.907-13.477-4.9062" fill="none" stroke="#000" stroke-linecap="round" stroke-miterlimit="10" stroke-width=".59758"/>
<g>
<use x="56.479" y="41.782" xlink:href="#d"/>
</g>
<path transform="matrix(1,0,0,-1,85.311,41.782)" d="m5.146 3.9304 3.8086 6.5977" fill="none" stroke="#000" stroke-linecap="round" stroke-miterlimit="10" stroke-width=".59758"/>
<path transform="matrix(1,0,0,-1,85.311,41.782)" d="m0.0015 7.5e-4 7.1719 12.422" fill="none" stroke="#000" stroke-linecap="round" stroke-miterlimit="10" stroke-width=".59758"/>
<path transform="matrix(1,0,0,-1,85.311,41.782)" d="m7.1734 12.423 13.477 4.9062" fill="none" stroke="#000" stroke-linecap="round" stroke-miterlimit="10" stroke-width=".59758"/>
<path transform="matrix(1,0,0,-1,85.311,41.782)" d="m20.65 17.329-4.9062 13.477" fill="none" stroke="#000" stroke-linecap="round" stroke-miterlimit="10" stroke-width=".59758"/>
<g>
<use x="85.45" y="7.265" xlink:href="#c"/>
</g>
<path transform="matrix(1,0,0,-1,85.311,41.782)" d="m15.744 30.805-7.8594 4.5352" fill="none" stroke="#000" stroke-linecap="round" stroke-miterlimit="10" stroke-width=".59758"/>
<g>
<use x="74.191" y="7.265" xlink:href="#b"/>
<use x="81.248" y="8.759" xlink:href="#a"/>
</g>
<path transform="matrix(1,0,0,-1,85.311,41.782)" d="m20.65 17.329 13.477-4.9062" fill="none" stroke="#000" stroke-linecap="round" stroke-miterlimit="10" stroke-width=".59758"/>
<path transform="matrix(1,0,0,-1,85.311,41.782)" d="m34.126 12.423-7.1719-12.422" fill="none" stroke="#000" stroke-linecap="round" stroke-miterlimit="10" stroke-width=".59758"/>
<path transform="matrix(1,0,0,-1,85.311,41.782)" d="m26.955 7.5e-4 -13.477 4.9062" fill="none" stroke="#000" stroke-linecap="round" stroke-miterlimit="10" stroke-width=".59758"/>
<path transform="matrix(1,0,0,-1,85.311,41.782)" d="m15.091 23.364-0.96094-11.016" fill="none" stroke="#fff" stroke-miterlimit="10" stroke-width="2.4901"/>
<path transform="matrix(1,0,0,-1,85.311,41.782)" d="m15.744 30.805-2.2656-25.898" fill="none" stroke="#000" stroke-linecap="round" stroke-miterlimit="10" stroke-width=".59758"/>
<path transform="matrix(1,0,0,-1,85.311,41.782)" d="m13.478 4.907-13.477-4.9062" fill="none" stroke="#000" stroke-linecap="round" stroke-miterlimit="10" stroke-width=".59758"/>
</svg>
