<?xml version="1.0" encoding="UTF-8"?>
<svg width="228pt" height="190pt" version="1.1" viewBox="0 0 228 190" xmlns="http://www.w3.org/2000/svg" xmlns:xlink="http://www.w3.org/1999/xlink">
<defs>
<symbol id="a" overflow="visible">
<path d="m6.7344-4.7344 0.26562-1.7344c0.015625-0.046875 0.015625-0.14062 0.015625-0.17188 0-0.10938-0.09375-0.10938-0.26562-0.10938h-5.5312c-0.23438 0-0.25 0.015625-0.32812 0.20312l-0.59375 1.75c0 0.015625-0.0625 0.1875-0.0625 0.1875 0 0.046875 0.0625 0.10938 0.125 0.10938 0.09375 0 0.10938-0.0625 0.17188-0.21875 0.53125-1.5469 0.79688-1.7188 2.2656-1.7188h0.39062c0.28125 0 0.28125 0.03125 0.28125 0.125 0 0.046875-0.03125 0.17188-0.046875 0.20312l-1.3281 5.3281c-0.09375 0.35938-0.125 0.46875-1.1875 0.46875-0.35938 0-0.42188 0-0.42188 0.1875 0 0.125 0.10938 0.125 0.17188 0.125 0.26562 0 0.54688-0.015625 0.8125-0.015625l0.85938-0.015625 0.82812 0.015625c0.28125 0 0.57812 0.015625 0.85938 0.015625 0.09375 0 0.21875 0 0.21875-0.20312 0-0.10938-0.078125-0.10938-0.34375-0.10938-0.23438 0-0.375 0-0.625-0.015625-0.29688-0.03125-0.375-0.0625-0.375-0.21875 0 0 0-0.0625 0.046875-0.20312l1.3125-5.2969c0.078125-0.28125 0.10938-0.34375 0.23438-0.375 0.09375-0.015625 0.42188-0.015625 0.625-0.015625 1.0156 0 1.4531 0.03125 1.4531 0.8125 0 0.15625-0.03125 0.54688-0.078125 0.79688 0 0.046875-0.03125 0.15625-0.03125 0.1875 0 0.0625 0.03125 0.14062 0.125 0.14062 0.10938 0 0.125-0.078125 0.15625-0.23438z"/>
</symbol>
<symbol id="g" overflow="visible">
<path d="m6.4531-2.3906c0-0.10938-0.125-0.10938-0.125-0.10938-0.0625 0-0.10938 0.03125-0.125 0.10938-0.09375 0.28125-0.32812 1-1.0156 1.5781-0.6875 0.54688-1.3125 0.71875-1.8281 0.71875-0.89062 0-1.9531-0.51562-1.9531-2.0625 0-0.57812 0.20312-2.1875 1.2031-3.3594 0.60938-0.70312 1.5469-1.2031 2.4375-1.2031 1.0156 0 1.6094 0.76562 1.6094 1.9219 0 0.40625-0.03125 0.40625-0.03125 0.51562 0 0.09375 0.10938 0.09375 0.14062 0.09375 0.125 0 0.125-0.015625 0.1875-0.20312l0.625-2.5312c0-0.03125-0.015625-0.10938-0.10938-0.10938-0.03125 0-0.046875 0.015625-0.15625 0.125l-0.6875 0.76562c-0.09375-0.14062-0.54688-0.89062-1.6562-0.89062-2.2344 0-4.4688 2.2031-4.4688 4.5156 0 1.6406 1.1719 2.7344 2.7031 2.7344 0.85938 0 1.625-0.39062 2.1562-0.85938 0.92188-0.8125 1.0938-1.7188 1.0938-1.75z"/>
</symbol>
<symbol id="w" overflow="visible">
<path d="m5.6875-1.4219c0-0.10938-0.078125-0.10938-0.10938-0.10938-0.10938 0-0.10938 0.03125-0.15625 0.1875-0.20312 0.67188-0.53125 1.2344-1.0156 1.2344-0.17188 0-0.23438-0.09375-0.23438-0.32812 0-0.25 0.078125-0.48438 0.17188-0.70312 0.1875-0.53125 0.60938-1.625 0.60938-2.2031 0-0.65625-0.42188-1.0625-1.1406-1.0625-0.90625 0-1.3906 0.64062-1.5625 0.875-0.046875-0.5625-0.45312-0.875-0.92188-0.875-0.45312 0-0.64062 0.39062-0.73438 0.5625-0.17188 0.34375-0.29688 0.9375-0.29688 0.96875 0 0.10938 0.10938 0.10938 0.10938 0.10938 0.10938 0 0.10938-0.015625 0.17188-0.23438 0.17188-0.70312 0.375-1.1875 0.73438-1.1875 0.1875 0 0.29688 0.125 0.29688 0.45312 0 0.21875-0.03125 0.32812-0.15625 0.84375l-0.57812 2.2969c-0.03125 0.15625-0.09375 0.39062-0.09375 0.4375 0 0.17188 0.14062 0.26562 0.29688 0.26562 0.125 0 0.29688-0.078125 0.375-0.28125 0-0.015625 0.125-0.48438 0.1875-0.73438l0.21875-0.89062c0.046875-0.23438 0.10938-0.45312 0.17188-0.67188l0.125-0.5c0.14062-0.3125 0.67188-1.2188 1.625-1.2188 0.45312 0 0.53125 0.375 0.53125 0.70312 0 0.60938-0.48438 1.8906-0.64062 2.3125-0.09375 0.23438-0.10938 0.35938-0.10938 0.46875 0 0.46875 0.35938 0.8125 0.82812 0.8125 0.9375 0 1.2969-1.4531 1.2969-1.5312z"/>
</symbol>
<symbol id="f" overflow="visible">
<path d="m3.2969 0v-0.25h-0.26562c-0.70312 0-0.70312-0.09375-0.70312-0.32812v-3.8594c0-0.1875 0-0.1875-0.20312-0.1875-0.45312 0.4375-1.0781 0.4375-1.3594 0.4375v0.25c0.15625 0 0.625 0 1-0.1875v3.5469c0 0.23438 0 0.32812-0.6875 0.32812h-0.26562v0.25l1.2344-0.03125z"/>
</symbol>
<symbol id="e" overflow="visible">
<path d="m3.5156-1.2656h-0.23438c-0.015625 0.15625-0.09375 0.5625-0.1875 0.625-0.046875 0.046875-0.57812 0.046875-0.6875 0.046875h-1.2812c0.73438-0.64062 0.98438-0.84375 1.3906-1.1719 0.51562-0.40625 1-0.84375 1-1.5 0-0.84375-0.73438-1.3594-1.625-1.3594-0.85938 0-1.4531 0.60938-1.4531 1.25 0 0.34375 0.29688 0.39062 0.375 0.39062 0.15625 0 0.35938-0.125 0.35938-0.375 0-0.125-0.046875-0.375-0.40625-0.375 0.21875-0.48438 0.6875-0.64062 1.0156-0.64062 0.70312 0 1.0625 0.54688 1.0625 1.1094 0 0.60938-0.4375 1.0781-0.65625 1.3281l-1.6719 1.6719c-0.078125 0.0625-0.078125 0.078125-0.078125 0.26562h2.875z"/>
</symbol>
<symbol id="v" overflow="visible">
<path d="m7.1406 0v-0.3125h-0.17188c-0.59375 0-0.73438-0.0625-0.84375-0.39062l-2.1562-6.2344c-0.046875-0.125-0.078125-0.20312-0.23438-0.20312s-0.1875 0.0625-0.23438 0.20312l-2.0625 5.9531c-0.1875 0.51562-0.57812 0.67188-1.125 0.67188v0.3125l1.0156-0.03125 1.1562 0.03125v-0.3125c-0.5 0-0.75-0.25-0.75-0.5 0-0.03125 0.015625-0.14062 0.015625-0.15625l0.46875-1.2969h2.4531l0.53125 1.5156c0.015625 0.046875 0.03125 0.10938 0.03125 0.14062 0 0.29688-0.5625 0.29688-0.82812 0.29688v0.3125c0.35938-0.03125 1.0625-0.03125 1.4375-0.03125zm-2.5781-2.5781h-2.2344l1.1094-3.25zm0.54688-6.0625c0.03125-0.21875-0.14062-0.42188-0.35938-0.42188-0.10938 0-0.21875 0.078125-0.25 0.125l-1.4531 1.2969 0.14062 0.20312 1.7031-0.9375c0.10938-0.046875 0.1875-0.14062 0.21875-0.26562z"/>
</symbol>
<symbol id="d" overflow="visible">
<path d="m3.625-3.7969c0-0.3125-0.3125-0.60938-0.73438-0.60938-0.73438 0-1.0938 0.67188-1.2188 1.0938v-1.0938l-1.3906 0.10938v0.3125c0.70312 0 0.78125 0.0625 0.78125 0.5625v2.6719c0 0.4375-0.10938 0.4375-0.78125 0.4375v0.3125l1.1406-0.03125c0.39062 0 0.85938 0 1.2656 0.03125v-0.3125h-0.21875c-0.73438 0-0.75-0.10938-0.75-0.46875v-1.5312c0-0.98438 0.42188-1.875 1.1719-1.875 0.0625 0 0.09375 0 0.10938 0.015625-0.03125 0-0.23438 0.125-0.23438 0.39062s0.21875 0.42188 0.4375 0.42188c0.17188 0 0.42188-0.125 0.42188-0.4375z"/>
</symbol>
<symbol id="c" overflow="visible">
<path d="m4.1406-1.1875c0-0.09375-0.078125-0.125-0.14062-0.125-0.078125 0-0.10938 0.0625-0.125 0.14062-0.34375 1.0312-1.25 1.0312-1.3438 1.0312-0.5 0-0.89062-0.29688-1.125-0.67188-0.29688-0.46875-0.29688-1.125-0.29688-1.4844h2.7812c0.21875 0 0.25 0 0.25-0.21875 0-0.98438-0.54688-1.9531-1.7812-1.9531-1.1562 0-2.0781 1.0312-2.0781 2.2812 0 1.3281 1.0469 2.2969 2.1875 2.2969 1.2188 0 1.6719-1.1094 1.6719-1.2969zm-0.65625-1.3281h-2.375c0.0625-1.4844 0.90625-1.7344 1.25-1.7344 1.0156 0 1.125 1.3438 1.125 1.7344z"/>
</symbol>
<symbol id="b" overflow="visible">
<path d="m4.8125-0.89062v-0.5625h-0.25v0.5625c0 0.57812-0.25 0.64062-0.35938 0.64062-0.32812 0-0.35938-0.45312-0.35938-0.5v-1.9844c0-0.42188 0-0.8125-0.35938-1.1875-0.39062-0.39062-0.89062-0.54688-1.375-0.54688-0.8125 0-1.5 0.46875-1.5 1.125 0 0.29688 0.20312 0.46875 0.45312 0.46875 0.28125 0 0.46875-0.20312 0.46875-0.45312 0-0.125-0.0625-0.45312-0.51562-0.45312 0.26562-0.35938 0.76562-0.46875 1.0781-0.46875 0.48438 0 1.0625 0.39062 1.0625 1.2812v0.35938c-0.51562 0.03125-1.2188 0.0625-1.8438 0.35938-0.75 0.34375-1 0.85938-1 1.2969 0 0.8125 0.96875 1.0625 1.5938 1.0625 0.67188 0 1.125-0.40625 1.3125-0.85938 0.046875 0.39062 0.3125 0.8125 0.78125 0.8125 0.20312 0 0.8125-0.14062 0.8125-0.95312zm-1.6562-0.5c0 0.9375-0.71875 1.2812-1.1719 1.2812-0.48438 0-0.89062-0.34375-0.89062-0.84375 0-0.54688 0.40625-1.375 2.0625-1.4375z"/>
</symbol>
<symbol id="t" overflow="visible">
<path d="m6.8281-4.5-0.1875-2.25h-6.0938l-0.1875 2.25h0.25c0.14062-1.6094 0.28125-1.9375 1.7969-1.9375 0.17188 0 0.4375 0 0.53125 0.015625 0.21875 0.046875 0.21875 0.15625 0.21875 0.375v5.2656c0 0.32812 0 0.46875-1.0469 0.46875h-0.40625v0.3125c0.40625-0.03125 1.4219-0.03125 1.8906-0.03125 0.45312 0 1.4844 0 1.8906 0.03125v-0.3125h-0.40625c-1.0469 0-1.0469-0.14062-1.0469-0.46875v-5.2656c0-0.1875 0-0.32812 0.1875-0.375 0.10938-0.015625 0.375-0.015625 0.5625-0.015625 1.5156 0 1.6562 0.32812 1.7969 1.9375z"/>
</symbol>
<symbol id="s" overflow="visible">
<path d="m8.1094 0v-0.3125c-0.51562 0-0.76562 0-0.78125-0.29688v-1.9062c0-0.85938 0-1.1562-0.3125-1.5156-0.14062-0.17188-0.46875-0.375-1.0469-0.375-0.82812 0-1.2812 0.59375-1.4375 0.98438-0.14062-0.875-0.875-0.98438-1.3281-0.98438-0.73438 0-1.2031 0.42188-1.4844 1.0469v-1.0469l-1.4062 0.10938v0.3125c0.70312 0 0.78125 0.0625 0.78125 0.5625v2.6719c0 0.4375-0.10938 0.4375-0.78125 0.4375v0.3125l1.1406-0.03125 1.1094 0.03125v-0.3125c-0.67188 0-0.78125 0-0.78125-0.4375v-1.8438c0-1.0312 0.71875-1.5938 1.3438-1.5938 0.64062 0 0.75 0.53125 0.75 1.1094v2.3281c0 0.4375-0.10938 0.4375-0.78125 0.4375v0.3125l1.125-0.03125 1.1094 0.03125v-0.3125c-0.65625 0-0.76562 0-0.76562-0.4375v-1.8438c0-1.0312 0.70312-1.5938 1.3438-1.5938 0.625 0 0.73438 0.53125 0.73438 1.1094v2.3281c0 0.4375-0.10938 0.4375-0.78125 0.4375v0.3125l1.125-0.03125z"/>
</symbol>
<symbol id="r" overflow="visible">
<path d="m5.1875-2.1562c0-1.2656-0.95312-2.25-2.0781-2.25-0.78125 0-1.2031 0.4375-1.3906 0.65625v-0.65625l-1.4375 0.10938v0.3125c0.70312 0 0.78125 0.0625 0.78125 0.5v4.6562c0 0.45312-0.10938 0.45312-0.78125 0.45312v0.3125l1.1094-0.03125 1.125 0.03125v-0.3125c-0.65625 0-0.76562 0-0.76562-0.45312v-1.7656c0.046875 0.17188 0.46875 0.70312 1.2188 0.70312 1.1875 0 2.2188-0.98438 2.2188-2.2656zm-0.82812 0c0 1.2031-0.6875 2.0469-1.4219 2.0469-0.40625 0-0.78125-0.20312-1.0469-0.60938-0.14062-0.20312-0.14062-0.21875-0.14062-0.42188v-2.2188c0.28125-0.51562 0.76562-0.79688 1.2812-0.79688 0.73438 0 1.3281 0.875 1.3281 2z"/>
</symbol>
<symbol id="q" overflow="visible">
<path d="m3.3125-1.2344v-0.5625h-0.25v0.54688c0 0.73438-0.29688 1.1094-0.67188 1.1094-0.67188 0-0.67188-0.90625-0.67188-1.0781v-2.7656h1.4375v-0.3125h-1.4375v-1.8281h-0.25c0 0.8125-0.29688 1.875-1.2812 1.9219v0.21875h0.84375v2.75c0 1.2188 0.9375 1.3438 1.2969 1.3438 0.70312 0 0.98438-0.70312 0.98438-1.3438z"/>
</symbol>
<symbol id="p" overflow="visible">
<path d="m5.3281 0v-0.3125c-0.6875 0-0.76562-0.0625-0.76562-0.5625v-3.5312l-1.4688 0.10938v0.3125c0.6875 0 0.78125 0.0625 0.78125 0.5625v1.7656c0 0.875-0.48438 1.5469-1.2188 1.5469-0.82812 0-0.875-0.46875-0.875-0.98438v-3.3125l-1.4688 0.10938v0.3125c0.78125 0 0.78125 0.03125 0.78125 0.90625v1.5c0 0.78125 0 1.6875 1.5156 1.6875 0.5625 0 1-0.28125 1.2812-0.89062v0.89062z"/>
</symbol>
<symbol id="u" overflow="visible">
<path d="m2.0312-0.015625c0-0.625-0.25-1.0469-0.64062-1.0469-0.35938 0-0.53125 0.28125-0.53125 0.53125 0 0.26562 0.17188 0.53125 0.53125 0.53125 0.14062 0 0.28125-0.0625 0.39062-0.15625 0.015625 0.78125-0.25 1.3906-0.6875 1.8594-0.0625 0.0625-0.078125 0.078125-0.078125 0.10938 0 0.078125 0.046875 0.10938 0.09375 0.10938 0.125 0 0.92188-0.78125 0.92188-1.9375z"/>
</symbol>
<symbol id="o" overflow="visible">
<path d="m7.1875-3.4531c0-0.20312-0.1875-0.20312-0.32812-0.20312h-5.9688c-0.14062 0-0.32812 0-0.32812 0.20312 0 0.1875 0.1875 0.1875 0.32812 0.1875h5.9531c0.15625 0 0.34375 0 0.34375-0.1875zm0 1.9219c0-0.1875-0.1875-0.1875-0.34375-0.1875h-5.9531c-0.14062 0-0.32812 0-0.32812 0.1875 0 0.20312 0.1875 0.20312 0.32812 0.20312h5.9688c0.14062 0 0.32812 0 0.32812-0.20312z"/>
</symbol>
<symbol id="n" overflow="visible">
<path d="m2.5469 0v-0.3125c-0.67188 0-0.78125 0-0.78125-0.4375v-6.1719l-1.4375 0.10938v0.3125c0.70312 0 0.78125 0.0625 0.78125 0.5625v5.1875c0 0.4375-0.10938 0.4375-0.78125 0.4375v0.3125l1.1094-0.03125z"/>
</symbol>
<symbol id="m" overflow="visible">
<path d="m5.3281 0v-0.3125c-0.51562 0-0.76562 0-0.76562-0.29688v-1.9062c0-0.85938 0-1.1562-0.3125-1.5156-0.14062-0.17188-0.46875-0.375-1.0469-0.375-0.73438 0-1.2031 0.42188-1.4844 1.0469v-1.0469l-1.4062 0.10938v0.3125c0.70312 0 0.78125 0.0625 0.78125 0.5625v2.6719c0 0.4375-0.10938 0.4375-0.78125 0.4375v0.3125l1.1406-0.03125 1.1094 0.03125v-0.3125c-0.67188 0-0.78125 0-0.78125-0.4375v-1.8438c0-1.0312 0.71875-1.5938 1.3438-1.5938 0.64062 0 0.75 0.53125 0.75 1.1094v2.3281c0 0.4375-0.10938 0.4375-0.78125 0.4375v0.3125l1.125-0.03125z"/>
</symbol>
<symbol id="l" overflow="visible">
<path d="m6.9844 23.422c0-0.046875-0.03125-0.0625-0.046875-0.09375-0.375-0.375-1.0312-1.0312-1.7031-2.1094-1.6094-2.5781-2.3281-5.8125-2.3281-9.6562 0-2.6875 0.35938-6.1406 2-9.1094 0.78125-1.4219 1.6094-2.2344 2.0469-2.6719 0.03125-0.03125 0.03125-0.046875 0.03125-0.078125 0-0.10938-0.078125-0.10938-0.21875-0.10938s-0.15625 0-0.3125 0.15625c-3.3281 3.0469-4.375 7.6094-4.375 11.797 0 3.9219 0.89062 7.875 3.4219 10.859 0.20312 0.21875 0.57812 0.625 0.98438 0.98438 0.125 0.125 0.14062 0.125 0.28125 0.125s0.21875 0 0.21875-0.09375z"/>
</symbol>
<symbol id="k" overflow="visible">
<path d="m5.25 11.562c0-3.9219-0.89062-7.8594-3.4219-10.844-0.20312-0.23438-0.57812-0.64062-0.98438-1-0.125-0.125-0.14062-0.125-0.28125-0.125-0.125 0-0.21875 0-0.21875 0.10938 0 0.03125 0.046875 0.078125 0.0625 0.09375 0.34375 0.35938 1.0156 1.0312 1.6875 2.1094 1.6094 2.5625 2.3281 5.8125 2.3281 9.6406 0 2.6875-0.35938 6.1406-2 9.125-0.78125 1.4062-1.6094 2.2344-2.0312 2.6562-0.015625 0.03125-0.046875 0.0625-0.046875 0.09375 0 0.09375 0.09375 0.09375 0.21875 0.09375 0.14062 0 0.15625 0 0.3125-0.15625 3.3281-3.0312 4.375-7.5938 4.375-11.797z"/>
</symbol>
<symbol id="j" overflow="visible">
<path d="m-2.3906-6.4531c-0.10938 0-0.10938 0.125-0.10938 0.125 0 0.0625 0.03125 0.10938 0.10938 0.125 0.28125 0.09375 1 0.32812 1.5781 1.0156 0.54688 0.6875 0.71875 1.3125 0.71875 1.8281 0 0.89062-0.51562 1.9531-2.0625 1.9531-0.57812 0-2.1875-0.20312-3.3594-1.2031-0.70312-0.60938-1.2031-1.5469-1.2031-2.4375 0-1.0156 0.76562-1.6094 1.9219-1.6094 0.40625 0 0.40625 0.03125 0.51562 0.03125 0.09375 0 0.09375-0.10938 0.09375-0.14062 0-0.125-0.015625-0.125-0.20312-0.1875l-2.5312-0.625c-0.03125 0-0.10938 0.015625-0.10938 0.10938 0 0.03125 0.015625 0.046875 0.125 0.15625l0.76562 0.6875c-0.14062 0.09375-0.89062 0.54688-0.89062 1.6562 0 2.2344 2.2031 4.4688 4.5156 4.4688 1.6406 0 2.7344-1.1719 2.7344-2.7031 0-0.85938-0.39062-1.625-0.85938-2.1562-0.8125-0.92188-1.7188-1.0938-1.75-1.0938z"/>
</symbol>
<symbol id="i" overflow="visible">
<path d="m-7.2812-4.4219c-0.10938 0-0.20312 0.078125-0.20312 0.1875 0 0.078125 0.03125 0.14062 0.09375 0.17188l9.5 3.4688c0.14062 0.046875 0.1875 0.046875 0.1875 0.046875 0.10938 0 0.20312-0.09375 0.20312-0.20312 0-0.125-0.078125-0.15625-0.25-0.21875l-9.3438-3.4062c-0.14062-0.046875-0.1875-0.046875-0.1875-0.046875z"/>
</symbol>
<symbol id="h" overflow="visible">
<path d="m-4.7344-6.7344-1.7344-0.26562c-0.046875-0.015625-0.14062-0.015625-0.17188-0.015625-0.10938 0-0.10938 0.09375-0.10938 0.26562v5.5312c0 0.23438 0.015625 0.25 0.20312 0.32812l1.75 0.59375c0.015625 0 0.1875 0.0625 0.1875 0.0625 0.046875 0 0.10938-0.0625 0.10938-0.125 0-0.09375-0.0625-0.10938-0.21875-0.17188-1.5469-0.53125-1.7188-0.79688-1.7188-2.2656v-0.39062c0-0.28125 0.03125-0.28125 0.125-0.28125 0.046875 0 0.17188 0.03125 0.20312 0.046875l5.3281 1.3281c0.35938 0.09375 0.46875 0.125 0.46875 1.1875 0 0.35938 0 0.42188 0.1875 0.42188 0.125 0 0.125-0.10938 0.125-0.17188 0-0.26562-0.015625-0.54688-0.015625-0.8125l-0.015625-0.85938 0.015625-0.82812c0-0.28125 0.015625-0.57812 0.015625-0.85938 0-0.09375 0-0.21875-0.20312-0.21875-0.10938 0-0.10938 0.078125-0.10938 0.34375 0 0.23438 0 0.375-0.015625 0.625-0.03125 0.29688-0.0625 0.375-0.21875 0.375 0 0-0.0625 0-0.20312-0.046875l-5.2969-1.3125c-0.28125-0.078125-0.34375-0.10938-0.375-0.23438-0.015625-0.09375-0.015625-0.42188-0.015625-0.625 0-1.0156 0.03125-1.4531 0.8125-1.4531 0.15625 0 0.54688 0.03125 0.79688 0.078125 0.046875 0 0.15625 0.03125 0.1875 0.03125 0.0625 0 0.14062-0.03125 0.14062-0.125 0-0.10938-0.078125-0.125-0.23438-0.15625z"/>
</symbol>
<clipPath id="y">
<path d="m65 27h130v135.39h-130z"/>
</clipPath>
<clipPath id="x">
<path d="m33.039 1h194.27v161.39h-194.27z"/>
</clipPath>
</defs>
<path transform="matrix(1 0 0 -1 33.038 162.4)" d="m32.38 4.6875e-4v161.39m129.51-161.39v161.39" fill="none" stroke="#bfbfbf" stroke-miterlimit="10" stroke-width=".3985"/>
<path transform="matrix(1 0 0 -1 33.038 162.4)" d="m0.0010625 44.383h194.27m-194.27 90.113h194.27" fill="none" stroke="#bfbfbf" stroke-miterlimit="10" stroke-width=".3985"/>
<path transform="matrix(1 0 0 -1 33.038 162.4)" d="m32.38 4.6875e-4v4.2461m129.51-4.2461v4.2461m-129.51 157.15v-4.2461m129.51 4.2461v-4.2461" fill="none" stroke="#7f7f7f" stroke-miterlimit="10" stroke-width=".19925"/>
<path transform="matrix(1 0 0 -1 33.038 162.4)" d="m0.0010625 44.383h4.25m-4.25 90.113h4.25m190.02-90.113h-4.25m4.25 90.113h-4.25" fill="none" stroke="#7f7f7f" stroke-miterlimit="10" stroke-width=".19925"/>
<path transform="matrix(1 0 0 -1 33.038 162.4)" d="m0.0010625 4.6875e-4v161.39h194.27v-161.39z" fill="none" stroke="#000" stroke-miterlimit="10" stroke-width=".3985"/>
<g clip-path="url(#y)">
<path d="m65.418 162.39h129.51v-44.836l-3.043-0.71094-4.3477-1.0586-4.3438-1.1094-4.3477-1.1641-4.3477-1.2227-4.3438-1.2852-4.3477-1.3477-4.3438-1.4297-4.3477-1.5039-4.3438-1.5898-4.3477-1.6836-4.3477-1.7852-4.3438-1.8984-4.3477-2.0195-4.3438-2.1562-4.3477-2.3047-4.3477-2.4648-4.3438-2.6523-4.3477-2.8516-4.3438-3.0859-4.3477-3.3398-4.3477-3.6289-4.3438-3.9609-4.3477-4.3398-4.3438-4.7695-4.3477-5.2773-4.3477-5.8555-4.3438-6.5547-4.3477-7.3633-4.3438-8.3477-0.43359-0.95312z" fill="#0c6dfd" fill-opacity=".2"/>
</g>
<g>
<use x="60.27" y="172.722" xlink:href="#a"/>
<use x="66.092" y="174.217" xlink:href="#f"/>
<use x="189.784" y="172.722" xlink:href="#a"/>
<use x="195.605" y="174.217" xlink:href="#e"/>
<use x="19.26" y="113.881" xlink:href="#g"/>
</g>
<path transform="matrix(1,0,0,-1,18.031,118.13)" d="m2.5e-4 0.0010938h10.289" fill="none" stroke="#000" stroke-miterlimit="10" stroke-width=".398"/>
<g>
<use x="18.031" y="127.455" xlink:href="#a"/>
<use x="23.853" y="128.949" xlink:href="#f"/>
<use x="19.26" y="23.77" xlink:href="#g"/>
</g>
<path transform="matrix(1,0,0,-1,18.031,28.019)" d="m2.5e-4 -5.3125e-4h10.289" fill="none" stroke="#000" stroke-miterlimit="10" stroke-width=".398"/>
<g>
<use x="18.031" y="37.344" xlink:href="#a"/>
<use x="23.853" y="38.838" xlink:href="#e"/>
</g>
<g clip-path="url(#x)">
<path transform="matrix(1 0 0 -1 33.038 162.4)" d="m-28.034 2004 4.3477-1002 4.3477-334.01 4.3438-166.99 4.3477-100.21 4.3438-66.789 4.3477-47.719 4.3477-35.789 4.3438-27.828 4.3477-22.273 4.3438-18.223 4.3477-15.188 4.3438-12.844 4.3477-11 4.3477-9.5469 4.3438-8.3477 4.3477-7.3633 4.3438-6.5547 4.3477-5.8555 4.3477-5.2773 4.3438-4.7695 4.3477-4.3398 4.3438-3.9609 4.3477-3.6289 4.3477-3.3398 4.3438-3.0859 4.3477-2.8516 4.3438-2.6523 4.3477-2.4648 4.3477-2.3047 4.3438-2.1562 4.3477-2.0195 4.3438-1.8984 4.3477-1.7852 4.3477-1.6836 4.3438-1.5898 4.3477-1.5039 4.3438-1.4297 4.3477-1.3477 4.3438-1.2852 4.3477-1.2227 4.3477-1.1641 4.3438-1.1094 4.3477-1.0586 4.3438-1.0117 4.3477-0.97266 4.3477-0.92188 4.3438-0.89062 4.3477-0.85156 4.3438-0.82031 4.3477-0.78516 4.3477-0.75391 4.3438-0.72656 4.3477-0.69922 4.3438-0.67969 4.3477-0.64844 4.3477-0.625 4.3438-0.60938 4.3477-0.58594 4.3438-0.56641 4.3477-0.54688 4.3438-0.52734 4.3477-0.51562 4.3477-0.49609 4.3438-0.48438 4.3477-0.46484 4.3438-0.45312 4.3477-0.44141 4.3477-0.42578 4.3438-0.41406 4.3477-0.40234 4.3438-0.39453 4.3477-0.37891 4.3477-0.37109 4.3438-0.36328 4.3477-0.35156 4.3438-0.33984 4.3477-0.33594 4.3477-0.32422 4.3438-0.31641 4.3477-0.30859 4.3438-0.30078 4.3477-0.29688 4.3477-0.28906 4.3438-0.27734 4.3477-0.27734 4.3438-0.26562 4.3477-0.26172 4.3438-0.25781 4.3477-0.25 8.6914-0.48438 4.3477-0.23438 4.3438-0.22656 4.3477-0.22656 4.3477-0.21875 4.3438-0.21484 4.3477-0.21094 4.3438-0.20703 4.3477-0.20312 4.3477-0.19922 4.3438-0.19531 4.3477-0.1875 4.3438-0.19141 4.3477-0.17969 4.3477-0.18359 4.3438-0.17578 4.3477-0.17188 4.3438-0.16797 4.3477-0.16797 4.3477-0.16406 4.3438-0.16016 4.3477-0.16016 4.3438-0.15625 4.3477-0.15234 8.6914-0.29688 4.3477-0.14844 4.3438-0.14062 4.3477-0.14062 4.3438-0.13672 4.3477-0.13672 8.6914-0.26562 4.3477-0.12891 4.3438-0.125 4.3477-0.12891 8.6914-0.24219 4.3477-0.12109 4.3438-0.11719 4.3477-0.11719 8.6914-0.22656 8.6914-0.21875 4.3477-0.10547 4.3477-0.10938 4.3438-0.10156 4.3477-0.10547 4.3438-0.097657 4.3477-0.10156 4.3438-0.097656 4.3477-0.10156 8.6914-0.1875 8.6914-0.1875 4.3477-0.089844" fill="none" stroke="#0c6dfd" stroke-miterlimit="10" stroke-width="1.1955"/>
</g>
<g>
<use x="86.711" y="144.031" xlink:href="#v"/>
<use x="94.18295" y="144.031" xlink:href="#d"/>
<use x="98.0853" y="144.031" xlink:href="#c"/>
<use x="102.513676" y="144.031" xlink:href="#b"/>
<use x="110.261" y="144.031" xlink:href="#o"/>
<use x="120.777" y="144.031" xlink:href="#w"/>
<use x="126.756553" y="144.031" xlink:href="#g"/>
<use x="136.251" y="144.031" xlink:href="#n"/>
<use x="139.01861" y="144.031" xlink:href="#m"/>
<use x="146.285" y="129.983" xlink:href="#l"/>
<use x="154.814" y="137.291" xlink:href="#a"/>
<use x="160.636" y="138.785" xlink:href="#e"/>
</g>
<path transform="matrix(1 0 0 -1 154.81 141.54)" d="m-0.0015 9.375e-4h10.293" fill="none" stroke="#000" stroke-miterlimit="10" stroke-width=".398"/>
<g>
<use x="154.814" y="150.865" xlink:href="#a"/>
<use x="160.636" y="152.359" xlink:href="#f"/>
<use x="166.301" y="129.983" xlink:href="#k"/>
<use x="95.271" y="187.92" xlink:href="#t"/>
<use x="101.639094" y="187.92" xlink:href="#c"/>
<use x="106.06747" y="187.92" xlink:href="#s"/>
<use x="114.369304" y="187.92" xlink:href="#r"/>
<use x="120.173515" y="187.92" xlink:href="#c"/>
<use x="124.601891" y="187.92" xlink:href="#d"/>
<use x="128.504241" y="187.92" xlink:href="#b"/>
<use x="133.485541" y="187.92" xlink:href="#q"/>
<use x="137.359996" y="187.92" xlink:href="#p"/>
<use x="142.895217" y="187.92" xlink:href="#d"/>
<use x="146.797567" y="187.92" xlink:href="#b"/>
<use x="151.778867" y="187.92" xlink:href="#u"/>
<use x="157.869" y="187.92" xlink:href="#a"/>
<use x="7.505" y="91.57" xlink:href="#j"/>
<use x="7.505" y="84.011375" xlink:href="#i"/>
<use x="7.505" y="79.030075" xlink:href="#h"/>
</g>
</svg>
