<?xml version="1.0" encoding="UTF-8"?>
<svg width="131pt" height="133pt" version="1.1" viewBox="0 0 131 133" xmlns="http://www.w3.org/2000/svg" xmlns:xlink="http://www.w3.org/1999/xlink">
<defs>
<symbol id="a" overflow="visible">
<path d="m4.9688-1.4219c0-0.10938-0.09375-0.10938-0.125-0.10938-0.09375 0-0.10938 0.046875-0.14062 0.1875-0.17188 0.64062-0.34375 1.2344-0.75 1.2344-0.28125 0-0.29688-0.26562-0.29688-0.45312 0-0.21875 0.015625-0.3125 0.125-0.75l0.21875-0.89062 0.35938-1.3906c0.0625-0.28125 0.0625-0.29688 0.0625-0.34375 0-0.17188-0.10938-0.26562-0.28125-0.26562-0.25 0-0.39062 0.21875-0.42188 0.4375-0.1875-0.375-0.46875-0.64062-0.92188-0.64062-1.1562 0-2.3906 1.4688-2.3906 2.9219 0 0.9375 0.54688 1.5938 1.3125 1.5938 0.20312 0 0.70312-0.046875 1.2969-0.75 0.078125 0.42188 0.4375 0.75 0.90625 0.75 0.35938 0 0.57812-0.23438 0.75-0.54688 0.15625-0.35938 0.29688-0.98438 0.29688-0.98438zm-1.4062-1.7188-0.48438 1.9531c-0.0625 0.1875-0.0625 0.20312-0.20312 0.375-0.4375 0.54688-0.84375 0.70312-1.125 0.70312-0.5 0-0.64062-0.54688-0.64062-0.9375 0-0.5 0.3125-1.7188 0.54688-2.1875 0.3125-0.57812 0.75-0.95312 1.1562-0.95312 0.64062 0 0.78125 0.8125 0.78125 0.875s-0.015625 0.125-0.03125 0.17188z"/>
</symbol>
<symbol id="d" overflow="visible">
<path d="m4.3438-3.7656c0-0.34375-0.3125-0.64062-0.82812-0.64062-0.64062 0-1.0781 0.48438-1.2656 0.76562-0.09375-0.45312-0.45312-0.76562-0.92188-0.76562-0.45312 0-0.64062 0.39062-0.73438 0.5625-0.17188 0.34375-0.29688 0.9375-0.29688 0.96875 0 0.10938 0.10938 0.10938 0.10938 0.10938 0.10938 0 0.10938-0.015625 0.17188-0.23438 0.17188-0.70312 0.375-1.1875 0.73438-1.1875 0.15625 0 0.29688 0.078125 0.29688 0.45312 0 0.21875-0.03125 0.32812-0.15625 0.84375l-0.57812 2.2969c-0.03125 0.15625-0.09375 0.39062-0.09375 0.4375 0 0.17188 0.14062 0.26562 0.29688 0.26562 0.125 0 0.29688-0.078125 0.375-0.28125 0.015625-0.03125 0.34375-1.3906 0.39062-1.5781l0.3125-1.2969c0.046875-0.125 0.32812-0.59375 0.5625-0.8125 0.078125-0.0625 0.375-0.32812 0.79688-0.32812 0.26562 0 0.42188 0.125 0.42188 0.125-0.29688 0.046875-0.51562 0.28125-0.51562 0.54688 0 0.15625 0.10938 0.34375 0.375 0.34375s0.54688-0.23438 0.54688-0.59375z"/>
</symbol>
<symbol id="c" overflow="visible">
<path d="m7.1875-3.4531c0-0.20312-0.1875-0.20312-0.32812-0.20312h-5.9688c-0.14062 0-0.32812 0-0.32812 0.20312 0 0.1875 0.1875 0.1875 0.32812 0.1875h5.9531c0.15625 0 0.34375 0 0.34375-0.1875zm0 1.9219c0-0.1875-0.1875-0.1875-0.34375-0.1875h-5.9531c-0.14062 0-0.32812 0-0.32812 0.1875 0 0.20312 0.1875 0.20312 0.32812 0.20312h5.9688c0.14062 0 0.32812 0 0.32812-0.20312z"/>
</symbol>
<symbol id="b" overflow="visible">
<path d="m4.4688-1.7344h-0.23438c-0.0625 0.29688-0.125 0.73438-0.23438 0.89062-0.0625 0.078125-0.71875 0.078125-0.9375 0.078125h-1.7969l1.0625-1.0312c1.5469-1.375 2.1406-1.9062 2.1406-2.9062 0-1.1406-0.89062-1.9375-2.1094-1.9375-1.125 0-1.8594 0.92188-1.8594 1.8125 0 0.54688 0.5 0.54688 0.53125 0.54688 0.17188 0 0.51562-0.10938 0.51562-0.53125 0-0.25-0.1875-0.51562-0.53125-0.51562-0.078125 0-0.09375 0-0.125 0.015625 0.21875-0.65625 0.76562-1.0156 1.3438-1.0156 0.90625 0 1.3281 0.8125 1.3281 1.625 0 0.79688-0.48438 1.5781-1.0469 2.2031l-1.9062 2.125c-0.10938 0.10938-0.10938 0.14062-0.10938 0.375h3.7031z"/>
</symbol>
<clipPath id="l">
<path d="m14.574 73h57.426v57.023h-57.426z"/>
</clipPath>
<clipPath id="k">
<path d="m14.574 62h68.426v68.023h-68.426z"/>
</clipPath>
<clipPath id="j">
<path d="m14.574 16.637h57.426v57.363h-57.426z"/>
</clipPath>
<clipPath id="i">
<path d="m14.574 16.637h68.426v68.363h-68.426z"/>
</clipPath>
<clipPath id="h">
<path d="m71 16.637h56.961v57.363h-56.961z"/>
</clipPath>
<clipPath id="g">
<path d="m60 16.637h67.961v68.363h-67.961z"/>
</clipPath>
<clipPath id="f">
<path d="m71 73h56.961v57.023h-56.961z"/>
</clipPath>
<clipPath id="e">
<path d="m60 62h67.961v68.023h-67.961z"/>
</clipPath>
</defs>
<path d="m14.574 130.02v-113.39h113.39v113.39z" fill="#ffc106" fill-opacity=".25"/>
<g clip-path="url(#l)">
<path d="m71.27 130.02c0-31.312-25.383-56.695-56.695-56.695s-56.695 25.383-56.695 56.695 25.383 56.691 56.695 56.691 56.695-25.379 56.695-56.691z" fill="#5599fd"/>
</g>
<g clip-path="url(#k)">
<path transform="matrix(1 0 0 -1 14.574 130.02)" d="m56.696-4.375e-4c0 31.313-25.383 56.695-56.695 56.695-31.312 0-56.695-25.383-56.695-56.695 0-31.312 25.383-56.691 56.695-56.691 31.313 0 56.695 25.379 56.695 56.691z" fill="none" stroke="#000" stroke-miterlimit="10" stroke-width=".79701"/>
</g>
<g clip-path="url(#j)">
<path d="m71.27 16.637c0-31.312-25.383-56.695-56.695-56.695s-56.695 25.383-56.695 56.695c0 31.309 25.383 56.691 56.695 56.691s56.695-25.383 56.695-56.691z" fill="#5599fd"/>
</g>
<g clip-path="url(#i)">
<path transform="matrix(1 0 0 -1 14.574 130.02)" d="m56.696 113.39c0 31.312-25.383 56.695-56.695 56.695-31.312 0-56.695-25.383-56.695-56.695 0-31.309 25.383-56.691 56.695-56.691 31.313 0 56.695 25.383 56.695 56.691z" fill="none" stroke="#000" stroke-miterlimit="10" stroke-width=".79701"/>
</g>
<g clip-path="url(#h)">
<path d="m184.66 16.637c0-31.312-25.383-56.695-56.695-56.695s-56.691 25.383-56.691 56.695c0 31.309 25.379 56.691 56.691 56.691s56.695-25.383 56.695-56.691z" fill="#5599fd"/>
</g>
<g clip-path="url(#g)">
<path transform="matrix(1 0 0 -1 14.574 130.02)" d="m170.08 113.39c0 31.312-25.383 56.695-56.695 56.695-31.312 0-56.691-25.383-56.691-56.695 0-31.309 25.379-56.691 56.691-56.691 31.312 0 56.695 25.383 56.695 56.691z" fill="none" stroke="#000" stroke-miterlimit="10" stroke-width=".79701"/>
</g>
<g clip-path="url(#f)">
<path d="m184.66 130.02c0-31.312-25.383-56.695-56.695-56.695s-56.691 25.383-56.691 56.695 25.379 56.691 56.691 56.691 56.695-25.379 56.695-56.691z" fill="#5599fd"/>
</g>
<g clip-path="url(#e)">
<path transform="matrix(1 0 0 -1 14.574 130.02)" d="m170.08-4.375e-4c0 31.313-25.383 56.695-56.695 56.695-31.312 0-56.691-25.383-56.691-56.695 0-31.312 25.379-56.691 56.691-56.691 31.312 0 56.695 25.379 56.695 56.691z" fill="none" stroke="#000" stroke-miterlimit="10" stroke-width=".79701"/>
</g>
<path transform="matrix(1 0 0 -1 14.574 130.02)" d="m2.1875e-4 -4.375e-4v113.39h113.39v-113.39z" fill="none" stroke="#000" stroke-miterlimit="10" stroke-width=".79701"/>
<path d="m16.688 130.02c0-1.168-0.94531-2.1133-2.1133-2.1133s-2.1133 0.94531-2.1133 2.1133c0 1.168 0.94531 2.1133 2.1133 2.1133s2.1133-0.94531 2.1133-2.1133z"/>
<path d="m16.688 16.637c0-1.168-0.94531-2.1133-2.1133-2.1133s-2.1133 0.94531-2.1133 2.1133 0.94531 2.1133 2.1133 2.1133 2.1133-0.94531 2.1133-2.1133z"/>
<path d="m130.07 16.637c0-1.168-0.94531-2.1133-2.1133-2.1133-1.168 0-2.1133 0.94531-2.1133 2.1133s0.94531 2.1133 2.1133 2.1133c1.168 0 2.1133-0.94531 2.1133-2.1133z"/>
<path d="m130.07 130.02c0-1.168-0.94531-2.1133-2.1133-2.1133-1.168 0-2.1133 0.94531-2.1133 2.1133 0 1.168 0.94531 2.1133 2.1133 2.1133 1.168 0 2.1133-0.94531 2.1133-2.1133z"/>
<path transform="matrix(1 0 0 -1 14.574 130.02)" d="m5.5783 119.37h102.23" fill="none" stroke="#000" stroke-miterlimit="10" stroke-width=".79701"/>
<path d="m17.562 10.656 4.1445 2.0742-1.5547-2.0742 1.5547-2.0703"/>
<path d="m124.97 10.656-4.1445-2.0703 1.5547 2.0703-1.5547 2.0742"/>
<g>
<use x="57.115" y="6.941" xlink:href="#a"/>
<use x="65.149" y="6.941" xlink:href="#c"/>
<use x="75.667513" y="6.941" xlink:href="#b"/>
<use x="80.646" y="6.941" xlink:href="#d"/>
</g>
<path transform="matrix(1 0 0 -1 14.574 130.02)" d="m-5.9763 5.5777v102.23" fill="none" stroke="#000" stroke-miterlimit="10" stroke-width=".79701"/>
<path d="m8.5977 127.04 2.0703-4.1445-2.0703 1.5547-2.0742-1.5547"/>
<path d="m8.5977 19.625-2.0742 4.1445 2.0742-1.5547 2.0703 1.5547"/>
<g>
<use x="-0.389" y="75.475" xlink:href="#a"/>
</g>
</svg>
