<?xml version="1.0" encoding="UTF-8"?>
<svg width="247pt" height="193pt" version="1.1" viewBox="0 0 247 193" xmlns="http://www.w3.org/2000/svg" xmlns:xlink="http://www.w3.org/1999/xlink">
<defs>
<symbol id="u" overflow="visible">
<path d="m4.8281-6.4219h-2.4219c-1.2031 0-1.2344-0.125-1.2656-0.3125h-0.25l-0.32812 2.0469h0.25c0.03125-0.15625 0.10938-0.78125 0.25-0.90625 0.0625-0.0625 0.84375-0.0625 0.96875-0.0625h2.0625l-1.1094 1.5781c-0.90625 1.3438-1.2344 2.7344-1.2344 3.75 0 0.09375 0 0.54688 0.46875 0.54688 0.45312 0 0.45312-0.45312 0.45312-0.54688v-0.51562c0-0.54688 0.03125-1.0938 0.10938-1.625 0.046875-0.23438 0.17188-1.0938 0.625-1.7031l1.3438-1.9062c0.078125-0.10938 0.078125-0.125 0.078125-0.34375z"/>
</symbol>
<symbol id="a" overflow="visible">
<path d="m4.5781-3.1875c0-0.79688-0.046875-1.5938-0.39062-2.3281-0.45312-0.96875-1.2812-1.125-1.6875-1.125-0.60938 0-1.3281 0.26562-1.75 1.1875-0.3125 0.6875-0.35938 1.4688-0.35938 2.2656 0 0.75 0.03125 1.6406 0.45312 2.4062 0.42188 0.79688 1.1562 1 1.6406 1 0.53125 0 1.2969-0.20312 1.7344-1.1562 0.3125-0.6875 0.35938-1.4688 0.35938-2.25zm-0.8125-0.125c0 0.75 0 1.4219-0.10938 2.0625-0.15625 0.95312-0.71875 1.25-1.1719 1.25-0.39062 0-0.98438-0.25-1.1562-1.2031-0.10938-0.59375-0.10938-1.5156-0.10938-2.1094 0-0.64062 0-1.2969 0.078125-1.8281 0.1875-1.1875 0.9375-1.2812 1.1875-1.2812 0.32812 0 0.98438 0.1875 1.1719 1.1719 0.10938 0.5625 0.10938 1.3125 0.10938 1.9375z"/>
</symbol>
<symbol id="b" overflow="visible">
<path d="m4.4688-2c0-1.1875-0.8125-2.1875-1.8906-2.1875-0.46875 0-0.90625 0.15625-1.2656 0.51562v-1.9531c0.20312 0.0625 0.53125 0.125 0.84375 0.125 1.2344 0 1.9375-0.90625 1.9375-1.0312 0-0.0625-0.03125-0.10938-0.10938-0.10938 0 0-0.03125 0-0.078125 0.03125-0.20312 0.09375-0.6875 0.29688-1.3594 0.29688-0.39062 0-0.85938-0.078125-1.3281-0.28125-0.078125-0.03125-0.10938-0.03125-0.10938-0.03125-0.10938 0-0.10938 0.078125-0.10938 0.23438v2.9531c0 0.17188 0 0.25 0.14062 0.25 0.078125 0 0.09375-0.015625 0.14062-0.078125 0.10938-0.15625 0.46875-0.70312 1.2812-0.70312 0.51562 0 0.76562 0.45312 0.84375 0.64062 0.15625 0.375 0.1875 0.75 0.1875 1.25 0 0.35938 0 0.95312-0.25 1.375-0.23438 0.39062-0.60938 0.64062-1.0625 0.64062-0.71875 0-1.2969-0.53125-1.4688-1.1094 0.03125 0 0.0625 0.015625 0.17188 0.015625 0.32812 0 0.5-0.25 0.5-0.48438 0-0.25-0.17188-0.5-0.5-0.5-0.14062 0-0.48438 0.078125-0.48438 0.53125 0 0.85938 0.6875 1.8281 1.7969 1.8281 1.1562 0 2.1719-0.95312 2.1719-2.2188z"/>
</symbol>
<symbol id="t" overflow="visible">
<path d="m4.5625-1.6719c0-0.35938-0.10938-0.8125-0.5-1.2344-0.1875-0.20312-0.34375-0.29688-0.98438-0.70312 0.71875-0.375 1.2031-0.89062 1.2031-1.5469 0-0.92188-0.875-1.4844-1.7812-1.4844-1 0-1.8125 0.73438-1.8125 1.6719 0 0.17188 0.015625 0.625 0.4375 1.0938 0.10938 0.10938 0.48438 0.35938 0.73438 0.53125-0.57812 0.29688-1.4375 0.84375-1.4375 1.8438 0 1.0469 1.0156 1.7188 2.0625 1.7188 1.125 0 2.0781-0.82812 2.0781-1.8906zm-0.71875-3.4844c0 0.57812-0.39062 1.0469-0.98438 1.3906l-1.2344-0.79688c-0.45312-0.29688-0.5-0.625-0.5-0.79688 0-0.60938 0.65625-1.0312 1.3594-1.0312 0.71875 0 1.3594 0.51562 1.3594 1.2344zm0.21875 3.8438c0 0.73438-0.75 1.25-1.5625 1.25-0.85938 0-1.5781-0.60938-1.5781-1.4375 0-0.57812 0.3125-1.2188 1.1562-1.6875l1.2344 0.78125c0.28125 0.1875 0.75 0.48438 0.75 1.0938z"/>
</symbol>
<symbol id="s" overflow="visible">
<path d="m4.5625-3.2812c0-2.6875-1.1562-3.3594-2.0469-3.3594-0.54688 0-1.0312 0.1875-1.4531 0.625-0.42188 0.45312-0.64062 0.875-0.64062 1.625 0 1.2344 0.875 2.2188 1.9844 2.2188 0.60938 0 1.0156-0.42188 1.25-1v0.32812c0 2.3281-1.0312 2.7812-1.6094 2.7812-0.17188 0-0.71875-0.015625-0.98438-0.35938 0.4375 0 0.51562-0.28125 0.51562-0.45312 0-0.3125-0.23438-0.45312-0.45312-0.45312-0.15625 0-0.45312 0.078125-0.45312 0.46875 0 0.67188 0.53125 1.0781 1.375 1.0781 1.2969 0 2.5156-1.3594 2.5156-3.5zm-0.92188-0.92188c0 0.82812-0.34375 1.7969-1.2188 1.7969-0.15625 0-0.625 0-0.92188-0.625-0.1875-0.375-0.1875-0.85938-0.1875-1.3594 0-0.53125 0-1 0.21875-1.375 0.26562-0.5 0.64062-0.625 0.98438-0.625 0.46875 0 0.79688 0.34375 0.96875 0.78125 0.10938 0.32812 0.15625 0.95312 0.15625 1.4062z"/>
</symbol>
<symbol id="d" overflow="visible">
<path d="m4.1719 0v-0.3125h-0.3125c-0.90625 0-0.92188-0.10938-0.92188-0.46875v-5.5938c0-0.25 0-0.26562-0.23438-0.26562-0.625 0.64062-1.5 0.64062-1.8125 0.64062v0.3125c0.20312 0 0.78125 0 1.2969-0.26562v5.1719c0 0.35938-0.03125 0.46875-0.92188 0.46875h-0.3125v0.3125c0.34375-0.03125 1.2031-0.03125 1.6094-0.03125 0.39062 0 1.2656 0 1.6094 0.03125z"/>
</symbol>
<symbol id="ay" overflow="visible">
<path d="m5.3281 0v-0.3125c-0.51562 0-0.76562 0-0.76562-0.29688v-1.9062c0-0.85938 0-1.1562-0.3125-1.5156-0.14062-0.17188-0.46875-0.375-1.0469-0.375-0.73438 0-1.2031 0.42188-1.4844 1.0469v-1.0469l-1.4062 0.10938v0.3125c0.70312 0 0.78125 0.0625 0.78125 0.5625v2.6719c0 0.4375-0.10938 0.4375-0.78125 0.4375v0.3125l1.1406-0.03125 1.1094 0.03125v-0.3125c-0.67188 0-0.78125 0-0.78125-0.4375v-1.8438c0-1.0312 0.71875-1.5938 1.3438-1.5938 0.64062 0 0.75 0.53125 0.75 1.1094v2.3281c0 0.4375-0.10938 0.4375-0.78125 0.4375v0.3125l1.125-0.03125z"/>
</symbol>
<symbol id="ax" overflow="visible">
<path d="m8.1094 0v-0.3125c-0.51562 0-0.76562 0-0.78125-0.29688v-1.9062c0-0.85938 0-1.1562-0.3125-1.5156-0.14062-0.17188-0.46875-0.375-1.0469-0.375-0.82812 0-1.2812 0.59375-1.4375 0.98438-0.14062-0.875-0.875-0.98438-1.3281-0.98438-0.73438 0-1.2031 0.42188-1.4844 1.0469v-1.0469l-1.4062 0.10938v0.3125c0.70312 0 0.78125 0.0625 0.78125 0.5625v2.6719c0 0.4375-0.10938 0.4375-0.78125 0.4375v0.3125l1.1406-0.03125 1.1094 0.03125v-0.3125c-0.67188 0-0.78125 0-0.78125-0.4375v-1.8438c0-1.0312 0.71875-1.5938 1.3438-1.5938 0.64062 0 0.75 0.53125 0.75 1.1094v2.3281c0 0.4375-0.10938 0.4375-0.78125 0.4375v0.3125l1.125-0.03125 1.1094 0.03125v-0.3125c-0.65625 0-0.76562 0-0.76562-0.4375v-1.8438c0-1.0312 0.70312-1.5938 1.3438-1.5938 0.625 0 0.73438 0.53125 0.73438 1.1094v2.3281c0 0.4375-0.10938 0.4375-0.78125 0.4375v0.3125l1.125-0.03125z"/>
</symbol>
<symbol id="r" overflow="visible">
<path d="m7.1406 0v-0.3125h-0.25c-0.76562 0-0.78125-0.10938-0.78125-0.46875v-5.25c0-0.35938 0.015625-0.46875 0.78125-0.46875h0.25v-0.3125c-0.35938 0.03125-1.0938 0.03125-1.4688 0.03125s-1.125 0-1.4688-0.03125v0.3125h0.23438c0.76562 0 0.78125 0.10938 0.78125 0.46875v2.3281h-2.9688v-2.3281c0-0.35938 0.015625-0.46875 0.78125-0.46875h0.23438v-0.3125c-0.34375 0.03125-1.0781 0.03125-1.4688 0.03125-0.375 0-1.125 0-1.4688-0.03125v0.3125h0.23438c0.76562 0 0.79688 0.10938 0.79688 0.46875v5.25c0 0.35938-0.03125 0.46875-0.79688 0.46875h-0.23438v0.3125c0.34375-0.03125 1.0938-0.03125 1.4688-0.03125s1.125 0 1.4688 0.03125v-0.3125h-0.23438c-0.76562 0-0.78125-0.10938-0.78125-0.46875v-2.6094h2.9688v2.6094c0 0.35938-0.015625 0.46875-0.78125 0.46875h-0.23438v0.3125c0.34375-0.03125 1.0781-0.03125 1.4531-0.03125 0.39062 0 1.125 0 1.4844 0.03125z"/>
</symbol>
<symbol id="n" overflow="visible">
<path d="m5.1875-2.1562c0-1.2656-0.96875-2.25-2.1094-2.25-0.78125 0-1.2031 0.46875-1.3594 0.64062v-3.1562l-1.4375 0.10938v0.3125c0.70312 0 0.78125 0.0625 0.78125 0.5625v5.9375h0.25l0.35938-0.625c0.14062 0.23438 0.5625 0.73438 1.2969 0.73438 1.1875 0 2.2188-0.98438 2.2188-2.2656zm-0.82812 0c0 0.35938-0.015625 0.95312-0.29688 1.4062-0.21875 0.3125-0.59375 0.64062-1.125 0.64062-0.45312 0-0.8125-0.23438-1.0469-0.60938-0.14062-0.20312-0.14062-0.23438-0.14062-0.42188v-2.0469c0-0.1875 0-0.20312 0.10938-0.35938 0.39062-0.5625 0.9375-0.64062 1.1719-0.64062 0.45312 0 0.8125 0.26562 1.0469 0.64062 0.26562 0.40625 0.28125 0.96875 0.28125 1.3906z"/>
</symbol>
<symbol id="at" overflow="visible">
<path d="m7.1875-3.375c0-2.0312-1.5-3.6562-3.3125-3.6562-1.7969 0-3.3125 1.5938-3.3125 3.6562 0 2.0469 1.5312 3.5938 3.3125 3.5938 1.8125 0 3.3125-1.5781 3.3125-3.5938zm-1.0312-0.14062c0 2.6406-1.3594 3.4688-2.2812 3.4688-0.95312 0-2.2969-0.875-2.2969-3.4688 0-2.5781 1.4688-3.2656 2.2969-3.2656 0.85938 0 2.2812 0.70312 2.2812 3.2656z"/>
</symbol>
<symbol id="as" overflow="visible">
<path d="m6.625-2.3281c0-0.09375 0-0.17188-0.125-0.17188-0.10938 0-0.10938 0.0625-0.125 0.17188-0.078125 1.4219-1.1406 2.2344-2.2344 2.2344-0.60938 0-2.5625-0.32812-2.5625-3.3125 0-2.9688 1.9531-3.3125 2.5625-3.3125 1.0781 0 1.9688 0.90625 2.1719 2.3594 0.015625 0.14062 0.015625 0.17188 0.15625 0.17188 0.15625 0 0.15625-0.03125 0.15625-0.23438v-2.3594c0-0.17188 0-0.25-0.10938-0.25-0.03125 0-0.078125 0-0.15625 0.125l-0.5 0.73438c-0.35938-0.35938-0.875-0.85938-1.8281-0.85938-1.875 0-3.4688 1.5938-3.4688 3.625 0 2.0625 1.6094 3.625 3.4688 3.625 1.625 0 2.5938-1.3906 2.5938-2.5469z"/>
</symbol>
<symbol id="c" overflow="visible">
<path d="m4.6875-2.1406c0-1.2656-0.98438-2.3281-2.1875-2.3281-1.25 0-2.2188 1.0938-2.2188 2.3281 0 1.2969 1.0312 2.25 2.2031 2.25 1.2031 0 2.2031-0.98438 2.2031-2.25zm-0.8125-0.078125c0 0.35938 0 0.90625-0.21875 1.3438-0.23438 0.45312-0.67188 0.73438-1.1562 0.73438-0.4375 0-0.875-0.20312-1.1406-0.67188-0.25-0.4375-0.25-1.0469-0.25-1.4062 0-0.39062 0-0.92188 0.23438-1.3594 0.26562-0.45312 0.73438-0.67188 1.1406-0.67188 0.4375 0 0.85938 0.21875 1.125 0.65625 0.26562 0.42188 0.26562 1 0.26562 1.375z"/>
</symbol>
<symbol id="m" overflow="visible">
<path d="m8.1094 0v-0.3125c-0.51562 0-0.76562 0-0.78125-0.29688v-1.9062c0-0.85938 0-1.1562-0.3125-1.5156-0.14062-0.17188-0.46875-0.375-1.0469-0.375-0.82812 0-1.2812 0.59375-1.4375 0.98438-0.14062-0.875-0.875-0.98438-1.3281-0.98438-0.73438 0-1.2031 0.42188-1.4844 1.0469v-1.0469l-1.4062 0.10938v0.3125c0.70312 0 0.78125 0.0625 0.78125 0.5625v2.6719c0 0.4375-0.10938 0.4375-0.78125 0.4375v0.3125l1.1406-0.03125 1.1094 0.03125v-0.3125c-0.67188 0-0.78125 0-0.78125-0.4375v-1.8438c0-1.0312 0.71875-1.5938 1.3438-1.5938 0.64062 0 0.75 0.53125 0.75 1.1094v2.3281c0 0.4375-0.10938 0.4375-0.78125 0.4375v0.3125l1.125-0.03125 1.1094 0.03125v-0.3125c-0.65625 0-0.76562 0-0.76562-0.4375v-1.8438c0-1.0312 0.70312-1.5938 1.3438-1.5938 0.625 0 0.73438 0.53125 0.73438 1.1094v2.3281c0 0.4375-0.10938 0.4375-0.78125 0.4375v0.3125l1.125-0.03125z"/>
</symbol>
<symbol id="ar" overflow="visible">
<path d="m5.1875-2.1562c0-1.2656-0.95312-2.25-2.0781-2.25-0.78125 0-1.2031 0.4375-1.3906 0.65625v-0.65625l-1.4375 0.10938v0.3125c0.70312 0 0.78125 0.0625 0.78125 0.5v4.6562c0 0.45312-0.10938 0.45312-0.78125 0.45312v0.3125l1.1094-0.03125 1.125 0.03125v-0.3125c-0.65625 0-0.76562 0-0.76562-0.45312v-1.7656c0.046875 0.17188 0.46875 0.70312 1.2188 0.70312 1.1875 0 2.2188-0.98438 2.2188-2.2656zm-0.82812 0c0 1.2031-0.6875 2.0469-1.4219 2.0469-0.40625 0-0.78125-0.20312-1.0469-0.60938-0.14062-0.20312-0.14062-0.21875-0.14062-0.42188v-2.2188c0.28125-0.51562 0.76562-0.79688 1.2812-0.79688 0.73438 0 1.3281 0.875 1.3281 2z"/>
</symbol>
<symbol id="aq" overflow="visible">
<path d="m3.625-3.7969c0-0.3125-0.3125-0.60938-0.73438-0.60938-0.73438 0-1.0938 0.67188-1.2188 1.0938v-1.0938l-1.3906 0.10938v0.3125c0.70312 0 0.78125 0.0625 0.78125 0.5625v2.6719c0 0.4375-0.10938 0.4375-0.78125 0.4375v0.3125l1.1406-0.03125c0.39062 0 0.85938 0 1.2656 0.03125v-0.3125h-0.21875c-0.73438 0-0.75-0.10938-0.75-0.46875v-1.5312c0-0.98438 0.42188-1.875 1.1719-1.875 0.0625 0 0.09375 0 0.10938 0.015625-0.03125 0-0.23438 0.125-0.23438 0.39062s0.21875 0.42188 0.4375 0.42188c0.17188 0 0.42188-0.125 0.42188-0.4375z"/>
</symbol>
<symbol id="ap" overflow="visible">
<path d="m2.4688 0v-0.3125c-0.67188 0-0.70312-0.046875-0.70312-0.4375v-3.6562l-1.3906 0.10938v0.3125c0.64062 0 0.73438 0.0625 0.73438 0.54688v2.6875c0 0.4375-0.10938 0.4375-0.78125 0.4375v0.3125l1.0938-0.03125c0.35938 0 0.70312 0.015625 1.0469 0.03125zm-0.5625-6.0156c0-0.28125-0.21875-0.53125-0.51562-0.53125-0.34375 0-0.54688 0.28125-0.54688 0.53125 0 0.26562 0.23438 0.51562 0.53125 0.51562 0.34375 0 0.53125-0.26562 0.53125-0.51562z"/>
</symbol>
<symbol id="q" overflow="visible">
<path d="m4.1406-1.1875c0-0.09375-0.078125-0.125-0.14062-0.125-0.078125 0-0.10938 0.0625-0.125 0.14062-0.34375 1.0312-1.25 1.0312-1.3438 1.0312-0.5 0-0.89062-0.29688-1.125-0.67188-0.29688-0.46875-0.29688-1.125-0.29688-1.4844h2.7812c0.21875 0 0.25 0 0.25-0.21875 0-0.98438-0.54688-1.9531-1.7812-1.9531-1.1562 0-2.0781 1.0312-2.0781 2.2812 0 1.3281 1.0469 2.2969 2.1875 2.2969 1.2188 0 1.6719-1.1094 1.6719-1.2969zm-0.65625-1.3281h-2.375c0.0625-1.4844 0.90625-1.7344 1.25-1.7344 1.0156 0 1.125 1.3438 1.125 1.7344z"/>
</symbol>
<symbol id="p" overflow="visible">
<path d="m5.3281 0v-0.3125c-0.51562 0-0.76562 0-0.76562-0.29688v-1.9062c0-0.85938 0-1.1562-0.3125-1.5156-0.14062-0.17188-0.46875-0.375-1.0469-0.375-0.73438 0-1.2031 0.42188-1.4844 1.0469v-1.0469l-1.4062 0.10938v0.3125c0.70312 0 0.78125 0.0625 0.78125 0.5625v2.6719c0 0.4375-0.10938 0.4375-0.78125 0.4375v0.3125l1.1406-0.03125 1.1094 0.03125v-0.3125c-0.67188 0-0.78125 0-0.78125-0.4375v-1.8438c0-1.0312 0.71875-1.5938 1.3438-1.5938 0.64062 0 0.75 0.53125 0.75 1.1094v2.3281c0 0.4375-0.10938 0.4375-0.78125 0.4375v0.3125l1.125-0.03125z"/>
</symbol>
<symbol id="aw" overflow="visible">
<path d="m3.3125-1.2344v-0.5625h-0.25v0.54688c0 0.73438-0.29688 1.1094-0.67188 1.1094-0.67188 0-0.67188-0.90625-0.67188-1.0781v-2.7656h1.4375v-0.3125h-1.4375v-1.8281h-0.25c0 0.8125-0.29688 1.875-1.2812 1.9219v0.21875h0.84375v2.75c0 1.2188 0.9375 1.3438 1.2969 1.3438 0.70312 0 0.98438-0.70312 0.98438-1.3438z"/>
</symbol>
<symbol id="o" overflow="visible">
<path d="m5.25 0v-0.3125c-0.6875 0-0.78125-0.0625-0.78125-0.5625v-6.0469l-1.4219 0.10938v0.3125c0.6875 0 0.76562 0.0625 0.76562 0.5625v2.1562c-0.28125-0.35938-0.71875-0.625-1.25-0.625-1.1719 0-2.2188 0.98438-2.2188 2.2656 0 1.2656 0.96875 2.25 2.1094 2.25 0.64062 0 1.0781-0.34375 1.3281-0.65625v0.65625zm-1.4688-1.1719c0 0.17188 0 0.1875-0.10938 0.35938-0.29688 0.48438-0.73438 0.70312-1.1719 0.70312-0.45312 0-0.8125-0.26562-1.0469-0.64062-0.25-0.40625-0.28125-0.96875-0.28125-1.3906 0-0.35938 0.015625-0.95312 0.29688-1.4062 0.21875-0.3125 0.59375-0.64062 1.1406-0.64062 0.34375 0 0.76562 0.15625 1.0625 0.59375 0.10938 0.17188 0.10938 0.1875 0.10938 0.375z"/>
</symbol>
<symbol id="av" overflow="visible">
<path d="m4.8125-0.89062v-0.5625h-0.25v0.5625c0 0.57812-0.25 0.64062-0.35938 0.64062-0.32812 0-0.35938-0.45312-0.35938-0.5v-1.9844c0-0.42188 0-0.8125-0.35938-1.1875-0.39062-0.39062-0.89062-0.54688-1.375-0.54688-0.8125 0-1.5 0.46875-1.5 1.125 0 0.29688 0.20312 0.46875 0.45312 0.46875 0.28125 0 0.46875-0.20312 0.46875-0.45312 0-0.125-0.0625-0.45312-0.51562-0.45312 0.26562-0.35938 0.76562-0.46875 1.0781-0.46875 0.48438 0 1.0625 0.39062 1.0625 1.2812v0.35938c-0.51562 0.03125-1.2188 0.0625-1.8438 0.35938-0.75 0.34375-1 0.85938-1 1.2969 0 0.8125 0.96875 1.0625 1.5938 1.0625 0.67188 0 1.125-0.40625 1.3125-0.85938 0.046875 0.39062 0.3125 0.8125 0.78125 0.8125 0.20312 0 0.8125-0.14062 0.8125-0.95312zm-1.6562-0.5c0 0.9375-0.71875 1.2812-1.1719 1.2812-0.48438 0-0.89062-0.34375-0.89062-0.84375 0-0.54688 0.40625-1.375 2.0625-1.4375z"/>
</symbol>
<symbol id="au" overflow="visible">
<path d="m2.0312-0.015625c0-0.625-0.25-1.0469-0.64062-1.0469-0.35938 0-0.53125 0.28125-0.53125 0.53125 0 0.26562 0.17188 0.53125 0.53125 0.53125 0.14062 0 0.28125-0.0625 0.39062-0.15625 0.015625 0.78125-0.25 1.3906-0.6875 1.8594-0.0625 0.0625-0.078125 0.078125-0.078125 0.10938 0 0.078125 0.046875 0.10938 0.09375 0.10938 0.125 0 0.92188-0.78125 0.92188-1.9375z"/>
</symbol>
<symbol id="ao" overflow="visible">
<path d="m3.5156-1.2656h-0.23438c-0.015625 0.15625-0.09375 0.5625-0.1875 0.625-0.046875 0.046875-0.57812 0.046875-0.6875 0.046875h-1.2812c0.73438-0.64062 0.98438-0.84375 1.3906-1.1719 0.51562-0.40625 1-0.84375 1-1.5 0-0.84375-0.73438-1.3594-1.625-1.3594-0.85938 0-1.4531 0.60938-1.4531 1.25 0 0.34375 0.29688 0.39062 0.375 0.39062 0.15625 0 0.35938-0.125 0.35938-0.375 0-0.125-0.046875-0.375-0.40625-0.375 0.21875-0.48438 0.6875-0.64062 1.0156-0.64062 0.70312 0 1.0625 0.54688 1.0625 1.1094 0 0.60938-0.4375 1.0781-0.65625 1.3281l-1.6719 1.6719c-0.078125 0.0625-0.078125 0.078125-0.078125 0.26562h2.875z"/>
</symbol>
<symbol id="an" overflow="visible">
<path d="m5.4688 0.015625c0-0.03125-0.03125-0.0625-0.0625-0.09375-0.09375-0.10938-0.15625-0.26562-0.21875-0.45312l-2.0312-5.6719c-0.21875-0.57812-0.75-0.71875-1.2188-0.71875-0.046875 0-0.1875 0-0.1875 0.10938 0 0.078125 0.09375 0.10938 0.09375 0.10938 0.32812 0.046875 0.40625 0.10938 0.65625 0.79688l0.95312 2.7031-2.75 2.7344c-0.10938 0.125-0.17188 0.17188-0.17188 0.3125 0 0.17188 0.14062 0.28125 0.29688 0.28125s0.25-0.10938 0.32812-0.20312l2.4062-2.8281c0.40625 1.0469 0.89062 2.5625 1.0469 2.7969 0.15625 0.21875 0.25 0.21875 0.53125 0.21875h0.21875c0.09375-0.015625 0.10938-0.0625 0.10938-0.09375z"/>
</symbol>
<symbol id="am" overflow="visible">
<path d="m4.4219-7.2812c0-0.10938-0.078125-0.20312-0.1875-0.20312-0.078125 0-0.14062 0.03125-0.17188 0.09375l-3.4688 9.5c-0.046875 0.14062-0.046875 0.1875-0.046875 0.1875 0 0.10938 0.09375 0.20312 0.20312 0.20312 0.125 0 0.15625-0.078125 0.21875-0.25l3.4062-9.3438c0.046875-0.14062 0.046875-0.1875 0.046875-0.1875z"/>
</symbol>
<symbol id="al" overflow="visible">
<path d="m0-7.1406h-0.3125v0.17188c0 0.59375-0.0625 0.73438-0.39062 0.84375l-6.2344 2.1562c-0.125 0.046875-0.20312 0.078125-0.20312 0.23438s0.0625 0.1875 0.20312 0.23438l5.9531 2.0625c0.51562 0.1875 0.67188 0.57812 0.67188 1.125h0.3125l-0.03125-1.0156 0.03125-1.1562h-0.3125c0 0.5-0.25 0.75-0.5 0.75-0.03125 0-0.14062-0.015625-0.15625-0.015625l-1.2969-0.46875v-2.4531l1.5156-0.53125c0.046875-0.015625 0.10938-0.03125 0.14062-0.03125 0.29688 0 0.29688 0.5625 0.29688 0.82812h0.3125c-0.03125-0.35938-0.03125-1.0625-0.03125-1.4375zm-2.5781 2.5781v2.2344l-3.25-1.1094z"/>
</symbol>
<symbol id="ag" overflow="visible">
<path d="m-2.1562-5.1875c-1.2656 0-2.25 0.96875-2.25 2.1094 0 0.78125 0.46875 1.2031 0.64062 1.3594h-3.1562l0.10938 1.4375h0.3125c0-0.70312 0.0625-0.78125 0.5625-0.78125h5.9375v-0.25l-0.625-0.35938c0.23438-0.14062 0.73438-0.5625 0.73438-1.2969 0-1.1875-0.98438-2.2188-2.2656-2.2188zm0 0.82812c0.35938 0 0.95312 0.015625 1.4062 0.29688 0.3125 0.21875 0.64062 0.59375 0.64062 1.125 0 0.45312-0.23438 0.8125-0.60938 1.0469-0.20312 0.14062-0.23438 0.14062-0.42188 0.14062h-2.0469c-0.1875 0-0.20312 0-0.35938-0.10938-0.5625-0.39062-0.64062-0.9375-0.64062-1.1719 0-0.45312 0.26562-0.8125 0.64062-1.0469 0.40625-0.26562 0.96875-0.28125 1.3906-0.28125z"/>
</symbol>
<symbol id="af" overflow="visible">
<path d="m-1.2812-3.5938c-0.51562 0-0.82812 0.29688-0.9375 0.42188-0.32812 0.32812-0.40625 0.71875-0.48438 1.1406-0.10938 0.5625-0.23438 1.2188-0.8125 1.2188-0.35938 0-0.76562-0.25-0.76562-1.1094 0-1.0938 0.90625-1.1562 1.2031-1.1719 0.09375 0 0.09375-0.10938 0.09375-0.10938 0-0.14062-0.046875-0.14062-0.23438-0.14062h-1.0156c-0.15625 0-0.23438 0-0.23438 0.10938 0 0.046875 0 0.078125 0.125 0.20312 0.03125 0.03125 0.125 0.125 0.15625 0.17188-0.28125 0.375-0.28125 0.78125-0.28125 0.9375 0 1.2188 0.67188 1.5938 1.2344 1.5938 0.34375 0 0.625-0.15625 0.84375-0.42188 0.25-0.32812 0.3125-0.60938 0.45312-1.3281 0.046875-0.21875 0.20312-1.0312 0.92188-1.0312 0.5 0 0.90625 0.34375 0.90625 1.125 0 0.84375-0.5625 1.2031-1.4219 1.3906-0.125 0.03125-0.15625 0.03125-0.15625 0.14062 0 0.125 0.0625 0.125 0.23438 0.125h1.3281c0.17188 0 0.23438 0 0.23438-0.10938 0-0.046875-0.015625-0.0625-0.20312-0.25-0.015625-0.015625-0.03125-0.015625-0.21875-0.20312 0.40625-0.4375 0.42188-0.89062 0.42188-1.0938 0-1.1406-0.67188-1.6094-1.3906-1.6094z"/>
</symbol>
<symbol id="k" overflow="visible">
<path d="m-2.1406-4.6875c-1.2656 0-2.3281 0.98438-2.3281 2.1875 0 1.25 1.0938 2.2188 2.3281 2.2188 1.2969 0 2.25-1.0312 2.25-2.2031 0-1.2031-0.98438-2.2031-2.25-2.2031zm-0.078125 0.8125c0.35938 0 0.90625 0 1.3438 0.21875 0.45312 0.23438 0.73438 0.67188 0.73438 1.1562 0 0.4375-0.20312 0.875-0.67188 1.1406-0.4375 0.25-1.0469 0.25-1.4062 0.25-0.39062 0-0.92188 0-1.3594-0.23438-0.45312-0.26562-0.67188-0.73438-0.67188-1.1406 0-0.4375 0.21875-0.85938 0.65625-1.125 0.42188-0.26562 1-0.26562 1.375-0.26562z"/>
</symbol>
<symbol id="j" overflow="visible">
<path d="m-3.7969-3.625c-0.3125 0-0.60938 0.3125-0.60938 0.73438 0 0.73438 0.67188 1.0938 1.0938 1.2188h-1.0938l0.10938 1.3906h0.3125c0-0.70312 0.0625-0.78125 0.5625-0.78125h2.6719c0.4375 0 0.4375 0.10938 0.4375 0.78125h0.3125l-0.03125-1.1406c0-0.39062 0-0.85938 0.03125-1.2656h-0.3125v0.21875c0 0.73438-0.10938 0.75-0.46875 0.75h-1.5312c-0.98438 0-1.875-0.42188-1.875-1.1719 0-0.0625 0-0.09375 0.015625-0.10938 0 0.03125 0.125 0.23438 0.39062 0.23438s0.42188-0.21875 0.42188-0.4375c0-0.17188-0.125-0.42188-0.4375-0.42188z"/>
</symbol>
<symbol id="ae" overflow="visible">
<path d="m-1.2344-3.3125h-0.5625v0.25h0.54688c0.73438 0 1.1094 0.29688 1.1094 0.67188 0 0.67188-0.90625 0.67188-1.0781 0.67188h-2.7656v-1.4375h-0.3125v1.4375h-1.8281v0.25c0.8125 0 1.875 0.29688 1.9219 1.2812h0.21875v-0.84375h2.75c1.2188 0 1.3438-0.9375 1.3438-1.2969 0-0.70312-0.70312-0.98438-1.3438-0.98438z"/>
</symbol>
<symbol id="i" overflow="visible">
<path d="m0-2.4688h-0.3125c0 0.67188-0.046875 0.70312-0.4375 0.70312h-3.6562l0.10938 1.3906h0.3125c0-0.64062 0.0625-0.73438 0.54688-0.73438h2.6875c0.4375 0 0.4375 0.10938 0.4375 0.78125h0.3125l-0.03125-1.0938c0-0.35938 0.015625-0.70312 0.03125-1.0469zm-6.0156 0.5625c-0.28125 0-0.53125 0.21875-0.53125 0.51562 0 0.34375 0.28125 0.54688 0.53125 0.54688 0.26562 0 0.51562-0.23438 0.51562-0.53125 0-0.34375-0.26562-0.53125-0.51562-0.53125z"/>
</symbol>
<symbol id="ad" overflow="visible">
<path d="m-3.9844-5.0625h-0.3125c0.015625 0.23438 0.03125 0.51562 0.03125 0.75l-0.03125 0.85938h0.3125c0-0.35938 0.23438-0.46875 0.42188-0.46875 0.09375 0 0.14062 0.015625 0.25 0.046875l2.5312 1.0312-2.7812 1.1094c-0.125 0.0625-0.17188 0.0625-0.17188 0.0625-0.25 0-0.25-0.39062-0.25-0.57812h-0.3125l0.03125 1.0938c0 0.26562-0.015625 0.67188-0.03125 0.96875h0.3125c0-0.625 0.0625-0.67188 0.35938-0.79688l3.5469-1.4375c0.14062-0.0625 0.1875-0.078125 0.1875-0.20312 0-0.14062-0.09375-0.17188-0.1875-0.21875l-3.2344-1.2969c-0.23438-0.09375-0.67188-0.26562-0.67188-0.92188z"/>
</symbol>
<symbol id="h" overflow="visible">
<path d="m0-5.25h-0.3125c0 0.6875-0.0625 0.78125-0.5625 0.78125h-6.0469l0.10938 1.4219h0.3125c0-0.6875 0.0625-0.76562 0.5625-0.76562h2.1562c-0.35938 0.28125-0.625 0.71875-0.625 1.25 0 1.1719 0.98438 2.2188 2.2656 2.2188 1.2656 0 2.25-0.96875 2.25-2.1094 0-0.64062-0.34375-1.0781-0.65625-1.3281h0.65625zm-1.1719 1.4688c0.17188 0 0.1875 0 0.35938 0.10938 0.48438 0.29688 0.70312 0.73438 0.70312 1.1719 0 0.45312-0.26562 0.8125-0.64062 1.0469-0.40625 0.25-0.96875 0.28125-1.3906 0.28125-0.35938 0-0.95312-0.015625-1.4062-0.29688-0.3125-0.21875-0.64062-0.59375-0.64062-1.1406 0-0.34375 0.15625-0.76562 0.59375-1.0625 0.17188-0.10938 0.1875-0.10938 0.375-0.10938z"/>
</symbol>
<symbol id="l" overflow="visible">
<path d="m-0.89062-4.8125h-0.5625v0.25h0.5625c0.57812 0 0.64062 0.25 0.64062 0.35938 0 0.32812-0.45312 0.35938-0.5 0.35938h-1.9844c-0.42188 0-0.8125 0-1.1875 0.35938-0.39062 0.39062-0.54688 0.89062-0.54688 1.375 0 0.8125 0.46875 1.5 1.125 1.5 0.29688 0 0.46875-0.20312 0.46875-0.45312 0-0.28125-0.20312-0.46875-0.45312-0.46875-0.125 0-0.45312 0.0625-0.45312 0.51562-0.35938-0.26562-0.46875-0.76562-0.46875-1.0781 0-0.48438 0.39062-1.0625 1.2812-1.0625h0.35938c0.03125 0.51562 0.0625 1.2188 0.35938 1.8438 0.34375 0.75 0.85938 1 1.2969 1 0.8125 0 1.0625-0.96875 1.0625-1.5938 0-0.67188-0.40625-1.125-0.85938-1.3125 0.39062-0.046875 0.8125-0.3125 0.8125-0.78125 0-0.20312-0.14062-0.8125-0.95312-0.8125zm-0.5 1.6562c0.9375 0 1.2812 0.71875 1.2812 1.1719 0 0.48438-0.34375 0.89062-0.84375 0.89062-0.54688 0-1.375-0.40625-1.4375-2.0625z"/>
</symbol>
<symbol id="ak" overflow="visible">
<path d="m-1.1875-4.1406c-0.09375 0-0.125 0.078125-0.125 0.14062 0 0.078125 0.0625 0.10938 0.14062 0.125 1.0312 0.34375 1.0312 1.25 1.0312 1.3438 0 0.5-0.29688 0.89062-0.67188 1.125-0.46875 0.29688-1.125 0.29688-1.4844 0.29688v-2.7812c0-0.21875 0-0.25-0.21875-0.25-0.98438 0-1.9531 0.54688-1.9531 1.7812 0 1.1562 1.0312 2.0781 2.2812 2.0781 1.3281 0 2.2969-1.0469 2.2969-2.1875 0-1.2188-1.1094-1.6719-1.2969-1.6719zm-1.3281 0.65625v2.375c-1.4844-0.0625-1.7344-0.90625-1.7344-1.25 0-1.0156 1.3438-1.125 1.7344-1.125z"/>
</symbol>
<symbol id="aj" overflow="visible">
<path d="m0-8.1094h-0.3125c0 0.51562 0 0.76562-0.29688 0.78125h-1.9062c-0.85938 0-1.1562 0-1.5156 0.3125-0.17188 0.14062-0.375 0.46875-0.375 1.0469 0 0.82812 0.59375 1.2812 0.98438 1.4375-0.875 0.14062-0.98438 0.875-0.98438 1.3281 0 0.73438 0.42188 1.2031 1.0469 1.4844h-1.0469l0.10938 1.4062h0.3125c0-0.70312 0.0625-0.78125 0.5625-0.78125h2.6719c0.4375 0 0.4375 0.10938 0.4375 0.78125h0.3125l-0.03125-1.1406 0.03125-1.1094h-0.3125c0 0.67188 0 0.78125-0.4375 0.78125h-1.8438c-1.0312 0-1.5938-0.71875-1.5938-1.3438 0-0.64062 0.53125-0.75 1.1094-0.75h2.3281c0.4375 0 0.4375 0.10938 0.4375 0.78125h0.3125l-0.03125-1.125 0.03125-1.1094h-0.3125c0 0.65625 0 0.76562-0.4375 0.76562h-1.8438c-1.0312 0-1.5938-0.70312-1.5938-1.3438 0-0.625 0.53125-0.73438 1.1094-0.73438h2.3281c0.4375 0 0.4375 0.10938 0.4375 0.78125h0.3125l-0.03125-1.125z"/>
</symbol>
<symbol id="ai" overflow="visible">
<path d="m0-2.5469h-0.3125c0 0.67188 0 0.78125-0.4375 0.78125h-6.1719l0.10938 1.4375h0.3125c0-0.70312 0.0625-0.78125 0.5625-0.78125h5.1875c0.4375 0 0.4375 0.10938 0.4375 0.78125h0.3125l-0.03125-1.1094z"/>
</symbol>
<symbol id="ah" overflow="visible">
<path d="m-0.015625-2.0312c-0.625 0-1.0469 0.25-1.0469 0.64062 0 0.35938 0.28125 0.53125 0.53125 0.53125 0.26562 0 0.53125-0.17188 0.53125-0.53125 0-0.14062-0.0625-0.28125-0.15625-0.39062 0.78125-0.015625 1.3906 0.25 1.8594 0.6875 0.0625 0.0625 0.078125 0.078125 0.10938 0.078125 0.078125 0 0.10938-0.046875 0.10938-0.09375 0-0.125-0.78125-0.92188-1.9375-0.92188z"/>
</symbol>
<symbol id="ac" overflow="visible">
<path d="m-0.8125-3.7656c-0.0625 0-0.09375 0.0625-0.09375 0.10938 0 0.0625 0.03125 0.09375 0.0625 0.10938 0.23438 0.14062 0.60938 0.375 0.60938 1.5781 0 0.60938-0.15625 1.4531-0.85938 1.4531-0.34375 0-0.875-0.28125-1.1719-0.89062 0.14062-0.32812 0.14062-0.625 0.14062-0.85938 0-0.25 0-0.8125-0.3125-0.8125-0.23438 0-0.26562 0.35938-0.26562 0.73438 0 0.20312 0.015625 0.5625 0.1875 0.92188-0.10938 0.23438-0.3125 0.40625-0.57812 0.40625-0.60938 0-0.96875-0.98438-0.96875-1.875 0-0.15625 0-0.51562 0.28125-0.92188 0.078125-0.10938 0.10938-0.125 0.10938-0.1875 0-0.14062-0.14062-0.28125-0.28125-0.28125-0.1875 0-0.5625 0.60938-0.5625 1.2969 0 1.1406 0.67188 2.2188 1.4219 2.2188 0.4375 0 0.6875-0.35938 0.71875-0.40625 0.32812 0.59375 0.875 0.90625 1.3438 0.90625 0.64062 0 1.25-0.5625 1.25-1.625 0-1.3125-0.875-1.875-1.0312-1.875zm-1.6094 0.95312c0.0625 0.15625 0.078125 0.17188 0.078125 0.54688 0 0.21875 0 0.34375-0.046875 0.53125-0.078125-0.23438-0.09375-0.4375-0.09375-0.60938 0-0.25 0.015625-0.28125 0.0625-0.46875z"/>
</symbol>
<symbol id="ab" overflow="visible">
<path d="m-7.2812-4.4219c-0.10938 0-0.20312 0.078125-0.20312 0.1875 0 0.078125 0.03125 0.14062 0.09375 0.17188l9.5 3.4688c0.14062 0.046875 0.1875 0.046875 0.1875 0.046875 0.10938 0 0.20312-0.09375 0.20312-0.20312 0-0.125-0.078125-0.15625-0.25-0.21875l-9.3438-3.4062c-0.14062-0.046875-0.1875-0.046875-0.1875-0.046875z"/>
</symbol>
<symbol id="aa" overflow="visible">
<path d="m2.3906-3.2969c-0.03125 0-0.046875 0-0.21875 0.17188-1.25 1.2344-3.1406 1.5625-4.6719 1.5625-1.7344 0-3.4688-0.375-4.7031-1.6094-0.125-0.125-0.14062-0.125-0.17188-0.125-0.078125 0-0.10938 0.03125-0.10938 0.09375 0 0.10938 0.6875 1 1.9531 1.5938 1.0938 0.5 2.2031 0.625 3.0312 0.625 0.78125 0 1.9844-0.10938 3.125-0.65625 1.2188-0.60938 1.875-1.4531 1.875-1.5625 0-0.0625-0.03125-0.09375-0.10938-0.09375z"/>
</symbol>
<symbol id="z" overflow="visible">
<path d="m-2.5781-5.7969v0.25c1.0156 0.10938 2.2656 0.25 2.2656 2v0.8125c0 0.46875-0.0625 0.48438-0.39062 0.48438h-5.3125c-0.34375 0-0.48438 0-0.48438-0.9375v-0.32812h-0.3125c0.03125 0.35938 0.03125 1.2656 0.03125 1.6719 0 0.39062 0 1.1719-0.03125 1.5156h0.3125v-0.23438c0-0.76562 0.10938-0.79688 0.46875-0.79688h5.25c0.35938 0 0.46875 0.03125 0.46875 0.79688v0.23438h0.3125v-5.1875z"/>
</symbol>
<symbol id="g" overflow="visible">
<path d="m0-8.1094h-0.3125c0 0.51562 0 0.76562-0.29688 0.78125h-1.9062c-0.85938 0-1.1562 0-1.5156 0.3125-0.17188 0.14062-0.375 0.46875-0.375 1.0469 0 0.82812 0.59375 1.2812 0.98438 1.4375-0.875 0.14062-0.98438 0.875-0.98438 1.3281 0 0.73438 0.42188 1.2031 1.0469 1.4844h-1.0469l0.10938 1.4062h0.3125c0-0.70312 0.0625-0.78125 0.5625-0.78125h2.6719c0.4375 0 0.4375 0.10938 0.4375 0.78125h0.3125l-0.03125-1.1406 0.03125-1.1094h-0.3125c0 0.67188 0 0.78125-0.4375 0.78125h-1.8438c-1.0312 0-1.5938-0.71875-1.5938-1.3438 0-0.64062 0.53125-0.75 1.1094-0.75h2.3281c0.4375 0 0.4375 0.10938 0.4375 0.78125h0.3125l-0.03125-1.125 0.03125-1.1094h-0.3125c0 0.65625 0 0.76562-0.4375 0.76562h-1.8438c-1.0312 0-1.5938-0.70312-1.5938-1.3438 0-0.625 0.53125-0.73438 1.1094-0.73438h2.3281c0.4375 0 0.4375 0.10938 0.4375 0.78125h0.3125l-0.03125-1.125z"/>
</symbol>
<symbol id="y" overflow="visible">
<path d="m-2.1406-4.6875c-1.2656 0-2.3281 0.98438-2.3281 2.1875 0 1.25 1.0938 2.2188 2.3281 2.2188 1.2969 0 2.25-1.0312 2.25-2.2031 0-1.2031-0.98438-2.2031-2.25-2.2031zm-0.078125 0.8125c0.35938 0 0.90625 0 1.3438 0.21875 0.45312 0.23438 0.73438 0.67188 0.73438 1.1562 0 0.4375-0.20312 0.875-0.67188 1.1406-0.4375 0.25-1.0469 0.25-1.4062 0.25-0.39062 0-0.92188 0-1.3594-0.23438-0.45312-0.26562-0.67188-0.73438-0.67188-1.1406 0-0.4375 0.21875-0.85938 0.65625-1.125 0.42188-0.26562 1-0.26562 1.375-0.26562z"/>
</symbol>
<symbol id="x" overflow="visible">
<path d="m0-2.5469h-0.3125c0 0.67188 0 0.78125-0.4375 0.78125h-6.1719l0.10938 1.4375h0.3125c0-0.70312 0.0625-0.78125 0.5625-0.78125h5.1875c0.4375 0 0.4375 0.10938 0.4375 0.78125h0.3125l-0.03125-1.1094z"/>
</symbol>
<symbol id="w" overflow="visible">
<path d="m-1.1875-4.1406c-0.09375 0-0.09375 0.10938-0.09375 0.14062 0 0.078125 0.03125 0.10938 0.09375 0.125 0.92188 0.28125 1.0469 0.9375 1.0469 1.2969 0 0.53125-0.42188 1.4062-2.0312 1.4062-1.625 0-2.0469-0.8125-2.0469-1.3438 0-0.09375 0.015625-0.71875 0.375-1.0625 0.03125 0.40625 0.32812 0.46875 0.45312 0.46875 0.26562 0 0.45312-0.1875 0.45312-0.45312s-0.15625-0.46875-0.46875-0.46875c-0.67188 0-1.0625 0.76562-1.0625 1.5312 0 1.25 1.0781 2.1562 2.3125 2.1562 1.2812 0 2.2656-0.98438 2.2656-2.1406 0-1.3281-1.2031-1.6562-1.2969-1.6562z"/>
</symbol>
<symbol id="v" overflow="visible">
<path d="m-2.5-2.875c-0.76562 0-1.9688 0.10938-3.1094 0.65625-1.2188 0.59375-1.875 1.4531-1.875 1.5469 0 0.0625 0.046875 0.10938 0.10938 0.10938 0.03125 0 0.046875 0 0.23438-0.1875 0.98438-0.98438 2.5625-1.5469 4.6406-1.5469 1.7188 0 3.4688 0.35938 4.7188 1.5938 0.125 0.14062 0.14062 0.14062 0.17188 0.14062 0.0625 0 0.10938-0.046875 0.10938-0.10938 0-0.09375-0.6875-1-1.9531-1.5781-1.0938-0.51562-2.2031-0.625-3.0469-0.625z"/>
</symbol>
<symbol id="f" overflow="visible">
<path d="m-1.7344-5.4688c-0.1875 0-0.1875 0.17188-0.1875 0.26562v4.1875c0 0.10938 0 0.26562 0.1875 0.26562 0.15625 0 0.15625-0.17188 0.15625-0.26562v-4.1875c0-0.09375 0-0.26562-0.15625-0.26562z"/>
</symbol>
<symbol id="e" overflow="visible">
<path d="m0-3.2969h-0.25v0.26562c0 0.70312-0.09375 0.70312-0.32812 0.70312h-3.8594c-0.1875 0-0.1875 0-0.1875 0.20312 0.4375 0.45312 0.4375 1.0781 0.4375 1.3594h0.25c0-0.15625 0-0.625-0.1875-1h3.5469c0.23438 0 0.32812 0 0.32812 0.6875v0.26562h0.25l-0.03125-1.2344z"/>
</symbol>
<clipPath id="ba">
<path d="m42.703 44h194.27v122.08h-194.27z"/>
</clipPath>
<clipPath id="az">
<path d="m42.703 4.6875h194.27v161.39h-194.27z"/>
</clipPath>
</defs>
<path transform="matrix(1 0 0 -1 10.325 170.73)" d="m40.472 4.649v161.39m8.0977-161.39v161.39m8.0938-161.39v161.39m16.188-161.39v161.39m8.0977-161.39v161.39m8.0938-161.39v161.39m16.188-161.39v161.39m8.0977-161.39v161.39m8.0938-161.39v161.39m16.188-161.39v161.39m8.0938-161.39v161.39m8.0977-161.39v161.39m16.188-161.39v161.39m8.0938-161.39v161.39m8.0977-161.39v161.39m16.188-161.39v161.39m8.0938-161.39v161.39m8.0977-161.39v161.39" fill="none" stroke="#bfbfbf" stroke-miterlimit="10" stroke-width=".3985"/>
<path transform="matrix(1 0 0 -1 10.325 170.73)" d="m32.378 4.649v161.39m32.379-161.39v161.39m32.379-161.39v161.39m32.379-161.39v161.39m32.379-161.39v161.39m32.379-161.39v161.39m32.379-161.39v161.39" fill="none" stroke="#bfbfbf" stroke-miterlimit="10" stroke-width=".3985"/>
<path transform="matrix(1 0 0 -1 10.325 170.73)" d="m32.378 4.649h194.27m-194.27 13.449h194.27m-194.27 26.898h194.27m-194.27 13.449h194.27m-194.27 13.449h194.27m-194.27 26.898h194.27m-194.27 13.453h194.27m-194.27 13.449h194.27m-194.27 26.898h194.27m-194.27 13.449h194.27" fill="none" stroke="#bfbfbf" stroke-miterlimit="10" stroke-width=".3985"/>
<path transform="matrix(1 0 0 -1 10.325 170.73)" d="m32.378 31.547h194.27m-194.27 53.797h194.27m-194.27 53.801h194.27" fill="none" stroke="#bfbfbf" stroke-miterlimit="10" stroke-width=".3985"/>
<path transform="matrix(1 0 0 -1 10.325 170.73)" d="m40.472 4.649v2.8359m8.0977-2.8359v2.8359m8.0938-2.8359v2.8359m16.188-2.8359v2.8359m8.0977-2.8359v2.8359m8.0938-2.8359v2.8359m16.188-2.8359v2.8359m8.0977-2.8359v2.8359m8.0938-2.8359v2.8359m16.188-2.8359v2.8359m8.0938-2.8359v2.8359m8.0977-2.8359v2.8359m16.188-2.8359v2.8359m8.0938-2.8359v2.8359m8.0977-2.8359v2.8359m16.188-2.8359v2.8359m8.0938-2.8359v2.8359m8.0977-2.8359v2.8359m-178.09 158.56v-2.8359m8.0977 2.8359v-2.8359m8.0938 2.8359v-2.8359m16.188 2.8359v-2.8359m8.0977 2.8359v-2.8359m8.0938 2.8359v-2.8359m16.188 2.8359v-2.8359m8.0977 2.8359v-2.8359m8.0938 2.8359v-2.8359m16.188 2.8359v-2.8359m8.0938 2.8359v-2.8359m8.0977 2.8359v-2.8359m16.188 2.8359v-2.8359m8.0938 2.8359v-2.8359m8.0977 2.8359v-2.8359m16.188 2.8359v-2.8359m8.0938 2.8359v-2.8359m8.0977 2.8359v-2.8359" fill="none" stroke="#7f7f7f" stroke-miterlimit="10" stroke-width=".19925"/>
<path transform="matrix(1 0 0 -1 10.325 170.73)" d="m32.378 4.649v4.25m32.379-4.25v4.25m32.379-4.25v4.25m32.379-4.25v4.25m32.379-4.25v4.25m32.379-4.25v4.25m32.379-4.25v4.25m-194.27 157.14v-4.2539m32.379 4.2539v-4.2539m32.379 4.2539v-4.2539m32.379 4.2539v-4.2539m32.379 4.2539v-4.2539m32.379 4.2539v-4.2539m32.379 4.2539v-4.2539" fill="none" stroke="#7f7f7f" stroke-miterlimit="10" stroke-width=".19925"/>
<path transform="matrix(1 0 0 -1 10.325 170.73)" d="m32.378 4.649h2.8359m-2.8359 13.449h2.8359m-2.8359 26.898h2.8359m-2.8359 13.449h2.8359m-2.8359 13.449h2.8359m-2.8359 26.898h2.8359m-2.8359 13.453h2.8359m-2.8359 13.449h2.8359m-2.8359 26.898h2.8359m-2.8359 13.449h2.8359m191.44-161.39h-2.8359m2.8359 13.449h-2.8359m2.8359 26.898h-2.8359m2.8359 13.449h-2.8359m2.8359 13.449h-2.8359m2.8359 26.898h-2.8359m2.8359 13.453h-2.8359m2.8359 13.449h-2.8359m2.8359 26.898h-2.8359m2.8359 13.449h-2.8359" fill="none" stroke="#7f7f7f" stroke-miterlimit="10" stroke-width=".19925"/>
<path transform="matrix(1 0 0 -1 10.325 170.73)" d="m32.378 31.547h4.2539m-4.2539 53.797h4.2539m-4.2539 53.801h4.2539m190.02-107.6h-4.2539m4.2539 53.797h-4.2539m4.2539 53.801h-4.2539" fill="none" stroke="#7f7f7f" stroke-miterlimit="10" stroke-width=".19925"/>
<path transform="matrix(1 0 0 -1 10.325 170.73)" d="m32.378 4.649v161.39h194.27v-161.39z" fill="none" stroke="#000" stroke-miterlimit="10" stroke-width=".3985"/>
<g>
<use x="35.231" y="175.877" xlink:href="#u"/>
<use x="40.2123" y="175.877" xlink:href="#a"/>
<use x="45.1936" y="175.877" xlink:href="#a"/>
<use x="67.609" y="175.877" xlink:href="#u"/>
<use x="72.5903" y="175.877" xlink:href="#b"/>
<use x="77.5716" y="175.877" xlink:href="#a"/>
<use x="99.988" y="175.877" xlink:href="#t"/>
<use x="104.9693" y="175.877" xlink:href="#a"/>
<use x="109.9506" y="175.877" xlink:href="#a"/>
<use x="132.366" y="175.877" xlink:href="#t"/>
<use x="137.3473" y="175.877" xlink:href="#b"/>
<use x="142.3286" y="175.877" xlink:href="#a"/>
<use x="164.744" y="175.877" xlink:href="#s"/>
<use x="169.7253" y="175.877" xlink:href="#a"/>
<use x="174.7066" y="175.877" xlink:href="#a"/>
<use x="197.122" y="175.877" xlink:href="#s"/>
<use x="202.1033" y="175.877" xlink:href="#b"/>
<use x="207.0846" y="175.877" xlink:href="#a"/>
<use x="227.01" y="175.877" xlink:href="#d"/>
<use x="231.9913" y="175.877" xlink:href="#a"/>
<use x="236.9726" y="175.877" xlink:href="#a"/>
<use x="241.9539" y="175.877" xlink:href="#a"/>
<use x="24.239" y="142.321" xlink:href="#b"/>
<use x="29.2203" y="142.321" xlink:href="#a"/>
<use x="34.2016" y="142.321" xlink:href="#a"/>
<use x="19.258" y="88.524" xlink:href="#d"/>
<use x="24.2393" y="88.524" xlink:href="#a"/>
<use x="29.2206" y="88.524" xlink:href="#a"/>
<use x="34.2019" y="88.524" xlink:href="#a"/>
<use x="19.258" y="34.726" xlink:href="#d"/>
<use x="24.2393" y="34.726" xlink:href="#b"/>
<use x="29.2206" y="34.726" xlink:href="#a"/>
<use x="34.2019" y="34.726" xlink:href="#a"/>
</g>
<g clip-path="url(#ba)">
<path transform="matrix(1 0 0 -1 10.325 170.73)" d="m-7.8125e-4 17.344s2.3398-2.2578 3.2383-2.9805c0.89844-0.72266 2.3398-1.707 3.2383-2.2266 0.89844-0.51953 2.3398-1.125 3.2383-1.5078 0.89844-0.38281 2.3398-0.92188 3.2383-1.2461 0.89844-0.32812 2.3398-0.85547 3.2383-1.0977 0.89844-0.24609 2.3398-0.51562 3.2383-0.66797 0.89844-0.15234 2.3359-0.40625 3.2344-0.42969 0.89844-0.023437 2.3398 0.15234 3.2383 0.25781 0.89844 0.10547 2.3398 0.28516 3.2383 0.49609 0.89844 0.20703 2.3398 0.71484 3.2383 1.0117 0.89844 0.29297 2.3398 0.75781 3.2383 1.1172 0.89844 0.35938 2.3398 1.043 3.2383 1.4648 0.89844 0.41797 2.3398 1.0625 3.2383 1.5703 0.89844 0.50781 2.3398 1.4961 3.2383 2.0859 0.89844 0.59375 2.3398 1.5469 3.2383 2.1758 0.89844 0.625 2.3359 1.6719 3.2383 2.3438 0.89844 0.67188 2.3359 1.6602 3.2344 2.4961 0.89844 0.83594 2.3398 2.5273 3.2383 3.5312 0.89844 1 2.3398 2.625 3.2383 3.6992 0.89844 1.0742 2.3398 2.9297 3.2383 4.0469 0.89844 1.1172 2.3398 2.9883 3.2383 4 0.89844 1.0156 2.3398 2.4023 3.2383 3.3164 0.89844 0.91406 2.3398 2.3164 3.2383 3.2695 0.89844 0.95703 2.3398 2.6172 3.2383 3.6172 0.89844 0.99609 2.3398 2.6758 3.2383 3.5703 0.89844 0.89453 2.3359 2.1055 3.2344 2.8828 0.89844 0.78125 2.3398 2.0469 3.2383 2.7344 0.89844 0.6875 2.3398 1.5625 3.2383 2.2148 0.89844 0.65625 2.3398 1.6016 3.2383 2.4961 0.89844 0.89844 2.3398 3.0547 3.2383 3.9609 0.89844 0.90625 2.3398 1.8672 3.2383 2.582 0.89844 0.71875 2.3398 1.9336 3.2383 2.582 0.89844 0.65234 2.3398 1.332 3.2383 2.1094 0.89844 0.77734 2.3398 2.4883 3.2383 3.4883 0.89844 1 2.3359 2.8555 3.2383 3.7227 0.89844 0.86328 2.3359 1.8359 3.2344 2.5156 0.89844 0.68359 2.3398 1.6836 3.2383 2.3984 0.89844 0.71875 2.3398 2.0156 3.2383 2.7656 0.89844 0.75 2.3398 2.1016 3.2383 2.6367 0.89844 0.53906 2.3398 0.89453 3.2383 1.2383 0.89844 0.34375 2.3398 0.73047 3.2383 1.2383 0.89844 0.50781 2.3398 1.7461 3.2383 2.418 0.89844 0.67188 2.3398 1.8867 3.2383 2.4219 0.89844 0.53906 2.3398 1.0664 3.2383 1.4531 0.89844 0.38672 2.3359 0.95703 3.2344 1.3438 0.89844 0.39062 2.3398 1.0508 3.2383 1.4531 0.89844 0.40234 2.3398 1.0938 3.2383 1.4531 0.89844 0.35938 2.3398 0.82422 3.2383 1.1289 0.89844 0.30859 2.3398 0.77734 3.2383 1.0781 0.89844 0.29688 2.3398 0.78516 3.2383 1.0742 0.89844 0.29297 2.3398 0.78516 3.2383 1.0234 0.89844 0.23828 2.3398 0.51172 3.2383 0.69922 0.89844 0.1875 2.3398 0.49609 3.2383 0.64453 0.89844 0.14844 2.3359 0.32812 3.2383 0.42969 0.89844 0.10547 2.3359 0.35547 3.2344 0.32422 0.89844-0.03125 2.3398-0.38281 3.2383-0.53906 0.89844-0.15625 2.3398-0.47266 3.2383-0.58984 0.89844-0.12109 2.3398-0.1875 3.2383-0.26953 0.89844-0.082031 2.3398-0.17578 3.2383-0.32422 0.89844-0.14844 2.3398-0.52734 3.2383-0.75391 0.89844-0.22266 2.3398-0.58984 3.2383-0.85938 0.89844-0.26953 2.3398-0.76953 3.2383-1.0742 0.89844-0.30859 2.3398-0.77344 3.2383-1.1328 0.89844-0.35547 2.3359-1.0312 3.2344-1.4492 0.89844-0.41797 2.3398-1.0547 3.2383-1.5625 0.89844-0.50781 2.3398-1.4922 3.2383-2.0977 0.89844-0.60547 2.3398-1.543 3.2383-2.2578 0.89844-0.71875 2.3398-2.0859 3.2383-2.9062 0.89844-0.82031 2.3398-2.1758 3.2383-3.0117 0.89844-0.83594 3.2383-3.0156 3.2383-3.0156" fill="none" stroke="#0c6dfd" stroke-miterlimit="10" stroke-width="1.1955"/>
</g>
<g clip-path="url(#az)">
<path transform="matrix(1 0 0 -1 10.325 170.73)" d="m-7.8125e-4 381.23s2.3398-21.082 3.2383-28.887c0.89844-7.8086 2.3398-20.359 3.2383-27.387 0.89844-7.0234 2.3398-16.789 3.2383-23.238 0.89844-6.4492 2.3398-16.973 3.2383-23.242 0.89844-6.2695 2.3398-16.172 3.2383-21.949 0.89844-5.7773 2.3398-14.219 3.2383-19.691 0.89844-5.4688 2.3359-14.43 3.2344-19.742 0.89844-5.3164 2.3398-14.066 3.2383-18.562 0.89844-4.4922 2.3398-9.9727 3.2383-13.824 0.89844-3.8516 2.3398-10.016 3.2383-13.934 0.89844-3.918 2.3398-10.52 3.2383-14.312 0.89844-3.7891 2.3398-9.6055 3.2383-13.02 0.89844-3.4102 2.3398-8.3711 3.2383-11.566 0.89844-3.1914 2.3398-8.3438 3.2383-11.457 0.89844-3.1133 2.3398-7.6328 3.2383-10.977 0.89844-3.3438 2.3359-11.305 3.2383-13.125 0.89844-1.8203 2.3359-0.21094 3.2344 0 0.89844 0.20703 2.3398-0.50391 3.2383 1.5078 0.89844 2.0078 2.3398 8.6484 3.2383 12.965 0.89844 4.3125 2.3398 13.434 3.2383 18.129 0.89844 4.6953 2.3398 13.559 3.2383 15.707 0.89844 2.1523 2.3398 1.5117 3.2383-0.21484 0.89844-1.7227 2.3398-8.6719 3.2383-12.211 0.89844-3.5391 2.3398-9.6016 3.2383-13.289 0.89844-3.6875 2.3398-9.75 3.2383-13.285 0.89844-3.5391 2.3359-9.0586 3.2344-12.215 0.89844-3.1562 2.3398-7.7891 3.2383-10.539 0.89844-2.75 2.3398-6.875 3.2383-9.2812 0.89844-2.4062 2.3398-6.1328 3.2383-8.0586 0.89844-1.9258 2.3398-4.6016 3.2383-5.832 0.89844-1.2266 2.3398-2.3438 3.2383-3.0117 0.89844-0.66406 2.3398-1.3398 3.2383-1.7852 0.89844-0.44531 2.3398-1.0664 3.2383-1.4141 0.89844-0.34766 2.3398-0.9375 3.2383-1.0938 0.89844-0.15625 2.3359-0.03125 3.2383-0.042969 0.89844-0.011719 2.3359-0.03125 3.2344-0.042969 0.89844-0.011718 2.3398-0.023437 3.2383-0.03125 0.89844-0.007812 2.3398-0.023437 3.2383-0.035156 0.89844-0.011719 2.3398-0.035156 3.2383-0.050781 0.89844-0.019531 2.3398-0.050781 3.2383-0.066406 0.89844-0.015625 2.3398-0.10156 3.2383-0.058594 0.89844 0.046875 2.3398 0.25781 3.2383 0.38281 0.89844 0.12109 2.3398 0.32812 3.2383 0.5 0.89844 0.17188 2.3398 0.48047 3.2383 0.73438 0.89844 0.25781 2.3359 0.80859 3.2344 1.1172 0.89844 0.30469 2.3398 0.82031 3.2383 1.1016 0.89844 0.27734 2.3398 0.65625 3.2383 0.91406 0.89844 0.25781 2.3398 0.67188 3.2383 0.9375 0.89844 0.26562 2.3398 0.70703 3.2383 0.98047 0.89844 0.26953 2.3398 0.73828 3.2383 0.97656 0.89844 0.23828 2.3398 0.53906 3.2383 0.73047 0.89844 0.19141 2.3398 0.50391 3.2383 0.64844 0.89844 0.14062 2.3398 0.34375 3.2383 0.38672 0.89844 0.042969 2.3359-0.03125 3.2383-0.085937 0.89844-0.058594 2.3359-0.10938 3.2344-0.3125 0.89844-0.20312 2.3398-0.49219 3.2383-1.1523 0.89844-0.66016 2.3398-2.5586 3.2383-3.6094 0.89844-1.0508 2.3398-2.7773 3.2383-3.9648 0.89844-1.1875 2.3398-3.2227 3.2383-4.5859 0.89844-1.3594 2.3398-3.8945 3.2383-5.2266 0.89844-1.3281 2.3398-3.2148 3.2383-4.3594 0.89844-1.1406 2.3398-2.7266 3.2383-3.8828 0.89844-1.1523 2.3398-3 3.2383-4.4375 0.89844-1.4375 2.3359-4.6016 3.2344-5.9219 0.89844-1.3242 2.3398-2.5664 3.2383-3.6055 0.89844-1.0391 2.3398-2.7773 3.2383-3.8867 0.89844-1.1094 2.3398-2.9727 3.2383-4.1133 0.89844-1.1406 2.3398-2.9766 3.2383-4.1172 0.89844-1.1406 2.3398-2.9648 3.2383-4.1055 0.89844-1.1367 3.2383-4.1133 3.2383-4.1133" fill="none" stroke="#dc3445" stroke-miterlimit="10" stroke-width="1.1955"/>
</g>
<g>
<use x="165.713" y="49.589" xlink:href="#r"/>
<use x="173.18495" y="49.589" xlink:href="#n"/>
<use x="159.604" y="134.17" xlink:href="#r"/>
<use x="167.07595" y="134.17" xlink:href="#n"/>
<use x="172.611171" y="134.17" xlink:href="#at"/>
<use x="180.359" y="135.665" xlink:href="#ao"/>
<use x="75.861" y="190.189" xlink:href="#as"/>
<use x="83.05599" y="190.189" xlink:href="#c"/>
<use x="88.03729" y="190.189" xlink:href="#m"/>
<use x="96.339124" y="190.189" xlink:href="#ar"/>
<use x="101.874345" y="190.189" xlink:href="#aq"/>
<use x="105.776695" y="190.189" xlink:href="#ap"/>
<use x="108.544306" y="190.189" xlink:href="#m"/>
<use x="116.84614" y="190.189" xlink:href="#q"/>
<use x="121.274516" y="190.189" xlink:href="#p"/>
<use x="126.530784" y="190.189" xlink:href="#aw"/>
<use x="130.405239" y="190.189" xlink:href="#c"/>
<use x="138.704085" y="190.189" xlink:href="#o"/>
<use x="144.239305" y="190.189" xlink:href="#q"/>
<use x="151.995189" y="190.189" xlink:href="#c"/>
<use x="156.976489" y="190.189" xlink:href="#p"/>
<use x="162.51171" y="190.189" xlink:href="#o"/>
<use x="168.036968" y="190.189" xlink:href="#av"/>
<use x="173.018268" y="190.189" xlink:href="#au"/>
<use x="179.111" y="190.189" xlink:href="#an"/>
<use x="184.922185" y="190.189" xlink:href="#am"/>
<use x="189.904" y="190.189" xlink:href="#ay"/>
<use x="195.439221" y="190.189" xlink:href="#ax"/>
<use x="9.927" y="171.651" xlink:href="#al"/>
<use x="9.927" y="164.17905" xlink:href="#ag"/>
<use x="9.927" y="158.643829" xlink:href="#af"/>
<use x="9.927" y="154.713584" xlink:href="#k"/>
<use x="9.927" y="149.732284" xlink:href="#j"/>
<use x="9.927" y="145.829933" xlink:href="#ae"/>
<use x="9.927" y="141.955478" xlink:href="#i"/>
<use x="9.927" y="139.187868" xlink:href="#ad"/>
<use x="9.927" y="133.929608" xlink:href="#i"/>
<use x="9.927" y="131.161997" xlink:href="#h"/>
<use x="9.927" y="125.626777" xlink:href="#l"/>
<use x="9.927" y="120.645477" xlink:href="#h"/>
<use x="9.927" y="115.110256" xlink:href="#ak"/>
<use x="9.927" y="107.364335" xlink:href="#aj"/>
<use x="9.927" y="99.0625" xlink:href="#k"/>
<use x="9.927" y="94.0812" xlink:href="#ai"/>
<use x="9.927" y="91.31359" xlink:href="#l"/>
<use x="9.927" y="86.33229" xlink:href="#j"/>
<use x="9.927" y="82.429939" xlink:href="#ah"/>
<use x="9.927" y="76.342" xlink:href="#ac"/>
<use x="9.927" y="71.69644" xlink:href="#ab"/>
<use x="9.927" y="66.715" xlink:href="#aa"/>
<use x="9.927" y="62.840545" xlink:href="#z"/>
<use x="9.927" y="54.950166" xlink:href="#g"/>
<use x="9.927" y="46.648331" xlink:href="#y"/>
<use x="9.927" y="41.667031" xlink:href="#x"/>
<use x="5.527" y="38.853" xlink:href="#f"/>
<use x="5.527" y="32.626" xlink:href="#e"/>
<use x="9.927" y="26.497" xlink:href="#w"/>
<use x="9.927" y="22.068624" xlink:href="#g"/>
<use x="6.312" y="13.693" xlink:href="#f"/>
<use x="6.312" y="7.466" xlink:href="#e"/>
<use x="9.927" y="2.997" xlink:href="#v"/>
</g>
</svg>
