<?xml version="1.0" encoding="UTF-8"?>
<svg width="94pt" height="50pt" version="1.1" viewBox="0 0 94 50" xmlns="http://www.w3.org/2000/svg" xmlns:xlink="http://www.w3.org/1999/xlink">
<defs>
<symbol id="c" overflow="visible">
<path d="m6.3594 0-2.5938-6.9219h-0.89062l-2.5938 6.9219h0.73438l0.76562-2.0312h2.9062l0.75 2.0312zm-1.8906-2.5938h-2.4688c0.5-1.4219 0.14062-0.375 0.64062-1.7969 0.20312-0.59375 0.51562-1.4375 0.59375-1.8125 0.03125 0.14062 0.09375 0.39062 0.32812 1.0469z"/>
</symbol>
<symbol id="a" overflow="visible">
<path d="m1.5625 0v-6.9219h-0.75v6.9219z"/>
</symbol>
<symbol id="b" overflow="visible">
<path d="m5.8594-0.45312-0.0625-0.6875c-0.29688 0.20312-0.57812 0.39062-0.92188 0.5-0.3125 0.10938-0.67188 0.10938-1 0.10938-0.65625 0-1.25-0.34375-1.6562-0.85938-0.45312-0.57812-0.67188-1.3281-0.67188-2.0625 0-0.75 0.21875-1.5 0.67188-2.0938 0.40625-0.5 1-0.85938 1.6562-0.85938 0.29688 0 0.59375 0.03125 0.89062 0.125s0.57812 0.23438 0.84375 0.42188l0.125-0.8125c-0.29688-0.125-0.59375-0.21875-0.92188-0.28125-0.3125-0.0625-0.625-0.078125-0.9375-0.078125-0.89062 0-1.6875 0.39062-2.2812 1.0469-0.60938 0.6875-0.9375 1.5938-0.9375 2.5312 0 0.92188 0.32812 1.8281 0.9375 2.5156 0.59375 0.64062 1.3906 1.0469 2.2812 1.0469 0.34375 0 0.6875-0.015625 1.0312-0.10938s0.64062-0.26562 0.95312-0.45312z"/>
</symbol>
</defs>
<g>
<use x="25.428" y="28.325" xlink:href="#c"/>
<use x="32.070065" y="28.325" xlink:href="#a"/>
<use x="4.262" y="16.025" xlink:href="#b"/>
<use x="10.627105" y="16.025" xlink:href="#a"/>
</g>
<path transform="matrix(1,0,0,-1,1.904,8.68)" d="m0.42412 0.73859c0.30859-0.17969 0.70312-0.074219 0.87891 0.23438 0.17969 0.30859 0.074219 0.69922-0.23438 0.87891-0.30859 0.17578-0.69922 0.070312-0.87891-0.23438-0.17578-0.30859-0.070313-0.70312 0.23438-0.87891zm-1.4922-2.5898c0.30859-0.17969 0.69922-0.074219 0.87891 0.23438 0.17578 0.30859 0.070312 0.70312-0.23828 0.87891-0.30469 0.17969-0.69922 0.074219-0.875-0.23438-0.17969-0.30859-0.074218-0.70312 0.23438-0.87891z" stroke="#000" stroke-miterlimit="10" stroke-width=".3985"/>
<path transform="matrix(1,0,0,-1,11.992,6.749)" d="m0.73847-0.42678c-0.17969-0.30469-0.074219-0.69922 0.23438-0.87891 0.30859-0.17578 0.69922-0.070312 0.87891 0.23828 0.17578 0.30469 0.070312 0.69922-0.23438 0.87891-0.30859 0.17578-0.70312 0.070312-0.87891-0.23828zm-2.5898 1.4961c-0.17578-0.30859-0.070313-0.70312 0.23438-0.87891 0.30859-0.17969 0.70312-0.074219 0.87891 0.23438 0.17969 0.30859 0.074219 0.70312-0.23438 0.87891-0.30859 0.17969-0.70312 0.074219-0.87891-0.23438z" stroke="#000" stroke-miterlimit="10" stroke-width=".3985"/>
<path transform="matrix(1,0,0,-1,5.276,18.382)" d="m-0.73694 0.42497c0.17578 0.30859 0.070312 0.70312-0.23438 0.87891-0.30859 0.17969-0.70312 0.074219-0.87891-0.23438-0.17969-0.30859-0.074218-0.70312 0.23438-0.87891 0.30859-0.17969 0.70312-0.074219 0.87891 0.23438zm2.5898-1.4922c0.17578 0.30469 0.070313 0.69922-0.23828 0.87891-0.30469 0.17578-0.69922 0.070313-0.87891-0.23828-0.17578-0.30469-0.070313-0.69922 0.23828-0.87891 0.30469-0.17578 0.69922-0.070313 0.87891 0.23828z" stroke="#000" stroke-miterlimit="10" stroke-width=".3985"/>
<path transform="matrix(1,0,0,-1,29.939,28.325)" d="m-5.8921 6.8602-9.6602 5.5781" fill="none" stroke="#000" stroke-linecap="round" stroke-miterlimit="10" stroke-width=".59758"/>
<g>
<use x="4.262" y="40.626" xlink:href="#b"/>
<use x="10.627105" y="40.626" xlink:href="#a"/>
</g>
<path transform="matrix(1,0,0,-1,11.992,42.983)" d="m-0.73809-0.42716c-0.17578 0.30859-0.57031 0.41406-0.87891 0.23828-0.30469-0.17969-0.41016-0.57422-0.23438-0.87891 0.17578-0.30859 0.57031-0.41406 0.87891-0.23828 0.30859 0.17969 0.41406 0.57422 0.23438 0.87891zm2.5898 1.4961c-0.17969 0.30859-0.57031 0.41406-0.87891 0.23438-0.30859-0.17578-0.41406-0.57031-0.23438-0.87891 0.17578-0.30469 0.57031-0.41016 0.87891-0.23438 0.30469 0.17578 0.41016 0.57031 0.23438 0.87891z" stroke="#000" stroke-miterlimit="10" stroke-width=".3985"/>
<path transform="matrix(1,0,0,-1,1.904,41.052)" d="m-0.42744 0.73559c0.30859 0.17969 0.41406 0.57422 0.23828 0.87891-0.17969 0.30859-0.57031 0.41406-0.87891 0.23828-0.30859-0.17969-0.41406-0.57422-0.23438-0.87891 0.17578-0.30859 0.57031-0.41406 0.875-0.23828zm1.4961-2.5859c0.30859 0.17578 0.41406 0.57031 0.23438 0.87891-0.17578 0.30469-0.57031 0.41016-0.87891 0.23438-0.30469-0.17578-0.41016-0.57031-0.23438-0.87891 0.17969-0.30859 0.57031-0.41406 0.87891-0.23438z" stroke="#000" stroke-miterlimit="10" stroke-width=".3985"/>
<path transform="matrix(1,0,0,-1,5.276,31.35)" d="m0.73572 0.42422c0.17969-0.30469 0.57422-0.41016 0.87891-0.23438 0.30859 0.17969 0.41406 0.57031 0.23828 0.87891-0.17969 0.30859-0.57422 0.41406-0.87891 0.23438-0.30859-0.17578-0.41406-0.57031-0.23828-0.87891zm-2.5859-1.4922c0.17578-0.30859 0.57031-0.41406 0.87891-0.23828 0.30469 0.17969 0.41016 0.57422 0.23438 0.87891-0.17578 0.30859-0.57031 0.41406-0.87891 0.23828-0.30859-0.17969-0.41406-0.57031-0.23438-0.87891z" stroke="#000" stroke-miterlimit="10" stroke-width=".3985"/>
<path transform="matrix(1,0,0,-1,29.939,28.325)" d="m-5.8921 0.059375-9.6602-5.5781" fill="none" stroke="#000" stroke-linecap="round" stroke-miterlimit="10" stroke-width=".59758"/>
<g>
<use x="42.627" y="11.265" xlink:href="#b"/>
<use x="48.992105" y="11.265" xlink:href="#a"/>
</g>
<path transform="matrix(1,0,0,-1,52.658,2.148)" d="m0.60372-0.602c-0.25391-0.25-0.25391-0.66016 0-0.91016 0.25-0.25 0.65625-0.25 0.90625 0 0.25391 0.25 0.25391 0.66016 0 0.91016-0.25 0.25-0.65625 0.25-0.90625 0zm-2.1172 2.1133c-0.25-0.25-0.25-0.66016 0-0.91016 0.25391-0.25 0.66016-0.25 0.91016 0 0.25391 0.25 0.25391 0.66016 0 0.91016-0.25 0.25-0.65625 0.25-0.91016 0z" stroke="#000" stroke-miterlimit="10" stroke-width=".3985"/>
<path transform="matrix(1,0,0,-1,41.342,2.148)" d="m0.60331 0.60112c0.25-0.25 0.65625-0.25 0.91016 0 0.25 0.25 0.25 0.66016 0 0.91016-0.25391 0.25-0.66016 0.25-0.91016 0-0.25391-0.25-0.25391-0.66016 0-0.91016zm-2.1133-2.1133c0.25-0.25 0.65625-0.25 0.90625 0 0.25391 0.25 0.25391 0.66016 0 0.91016-0.25 0.25-0.65625 0.25-0.90625 0-0.25391-0.25-0.25391-0.66016 0-0.91016z" stroke="#000" stroke-miterlimit="10" stroke-width=".3985"/>
<path transform="matrix(1,0,0,-1,29.939,28.325)" d="m4.5844 8.0438 7.8906 7.8906" fill="none" stroke="#000" stroke-linecap="round" stroke-miterlimit="10" stroke-width=".59758"/>
<g>
<use x="59.55" y="28.325" xlink:href="#c"/>
<use x="66.192065" y="28.325" xlink:href="#a"/>
</g>
<path transform="matrix(1,0,0,-1,29.939,28.325)" d="m21.647 15.934 7.8906-7.8906" fill="none" stroke="#000" stroke-linecap="round" stroke-miterlimit="10" stroke-width=".59758"/>
<g>
<use x="80.993" y="40.626" xlink:href="#b"/>
<use x="87.358105" y="40.626" xlink:href="#a"/>
</g>
<path transform="matrix(1,0,0,-1,88.724,31.35)" d="m0.73694-0.42734c-0.17578-0.30469-0.070313-0.69922 0.23438-0.87891 0.30859-0.17578 0.70312-0.070313 0.87891 0.23828 0.17969 0.30859 0.074219 0.69922-0.23438 0.87891-0.30859 0.17578-0.70312 0.070313-0.87891-0.23828zm-2.5898 1.4961c-0.17578-0.30859-0.070313-0.69922 0.23828-0.87891 0.30469-0.17578 0.69922-0.070313 0.87891 0.23438 0.17578 0.30859 0.070313 0.70312-0.23828 0.87891-0.30469 0.17969-0.69922 0.074219-0.87891-0.23438z" stroke="#000" stroke-miterlimit="10" stroke-width=".3985"/>
<path transform="matrix(1,0,0,-1,92.096,41.052)" d="m-0.42412-0.73706c-0.30859 0.17578-0.70312 0.074219-0.87891-0.23438-0.17969-0.30859-0.074219-0.70312 0.23438-0.87891 0.30859-0.17969 0.69922-0.074219 0.87891 0.23438 0.17578 0.30859 0.070312 0.70312-0.23438 0.87891zm1.4922 2.5898c-0.30859 0.17578-0.69922 0.070313-0.87891-0.23828-0.17578-0.30469-0.070312-0.69922 0.23828-0.87891 0.30469-0.17578 0.69922-0.070313 0.875 0.23828 0.17969 0.30469 0.074219 0.69922-0.23438 0.87891z" stroke="#000" stroke-miterlimit="10" stroke-width=".3985"/>
<path transform="matrix(1,0,0,-1,82.008,42.983)" d="m-0.73847 0.42441c0.17969 0.30859 0.074219 0.70312-0.23438 0.87891-0.30859 0.17969-0.69922 0.074219-0.87891-0.23438-0.17578-0.30859-0.070312-0.70312 0.23438-0.87891 0.30859-0.17578 0.70312-0.070312 0.87891 0.23438zm2.5898-1.4922c0.17578 0.30469 0.070313 0.69922-0.23438 0.87891-0.30859 0.17578-0.70312 0.070312-0.87891-0.23828-0.17969-0.30469-0.074219-0.69922 0.23438-0.87891 0.30859-0.17578 0.70312-0.070312 0.87891 0.23828z" stroke="#000" stroke-miterlimit="10" stroke-width=".3985"/>
<path transform="matrix(1,0,0,-1,29.939,28.325)" d="m40.014 0.059375 9.6602-5.5781" fill="none" stroke="#000" stroke-linecap="round" stroke-miterlimit="10" stroke-width=".59758"/>
<g>
<use x="80.993" y="16.025" xlink:href="#b"/>
<use x="87.358105" y="16.025" xlink:href="#a"/>
</g>
<path transform="matrix(1,0,0,-1,92.096,8.68)" d="m0.42744-0.73797c-0.30859-0.17578-0.41406-0.57031-0.23828-0.87891 0.17969-0.30859 0.57031-0.41406 0.87891-0.23438 0.30859 0.17578 0.41406 0.57031 0.23438 0.87891-0.17578 0.30859-0.57031 0.41406-0.875 0.23438zm-1.4961 2.5898c-0.30859-0.17969-0.41406-0.57031-0.23438-0.87891 0.17578-0.30859 0.57031-0.41406 0.87891-0.23438 0.30469 0.17578 0.41016 0.57031 0.23438 0.87891-0.17969 0.30469-0.57031 0.41016-0.87891 0.23438z" stroke="#000" stroke-miterlimit="10" stroke-width=".3985"/>
<path transform="matrix(1,0,0,-1,82.008,6.749)" d="m0.73809 0.42478c0.17578-0.30859 0.57031-0.41406 0.87891-0.23438 0.30469 0.17578 0.41016 0.57031 0.23438 0.87891-0.17578 0.30859-0.57031 0.41406-0.87891 0.23438-0.30859-0.17578-0.41406-0.57031-0.23438-0.87891zm-2.5898-1.4922c0.17969-0.30859 0.57031-0.41406 0.87891-0.23828 0.30859 0.17969 0.41406 0.57422 0.23438 0.87891-0.17578 0.30859-0.57031 0.41406-0.87891 0.23828-0.30469-0.17969-0.41016-0.57422-0.23438-0.87891z" stroke="#000" stroke-miterlimit="10" stroke-width=".3985"/>
<path transform="matrix(1,0,0,-1,88.724,18.382)" d="m-0.73572-0.42659c-0.17969 0.30859-0.57422 0.41406-0.87891 0.23828-0.30859-0.17969-0.41406-0.57422-0.23828-0.87891 0.17969-0.30859 0.57422-0.41406 0.87891-0.23828 0.30859 0.17969 0.41406 0.57422 0.23828 0.87891zm2.5859 1.4961c-0.17578 0.30859-0.57031 0.41406-0.87891 0.23438-0.30469-0.17578-0.41016-0.57031-0.23438-0.87891 0.17578-0.30859 0.57031-0.41406 0.87891-0.23438 0.30859 0.17578 0.41406 0.57031 0.23438 0.87891z" stroke="#000" stroke-miterlimit="10" stroke-width=".3985"/>
<path transform="matrix(1,0,0,-1,29.939,28.325)" d="m40.014 6.8602 9.6602 5.5781" fill="none" stroke="#000" stroke-linecap="round" stroke-miterlimit="10" stroke-width=".59758"/>
<g>
<use x="42.627" y="45.386" xlink:href="#b"/>
<use x="48.992105" y="45.386" xlink:href="#a"/>
</g>
<path transform="matrix(1,0,0,-1,52.658,47.584)" d="m-0.60331-0.6035c-0.25 0.25391-0.65625 0.25391-0.91016 0-0.25-0.25-0.25-0.65625 0-0.90625 0.25391-0.25391 0.66016-0.25391 0.91016 0 0.25391 0.25 0.25391 0.65625 0 0.90625zm2.1133 2.1133c-0.25 0.25391-0.65625 0.25391-0.91016 0-0.25-0.25-0.25-0.65625 0-0.90625 0.25391-0.25391 0.66016-0.25391 0.91016 0 0.25391 0.25 0.25391 0.65625 0 0.90625z" stroke="#000" stroke-miterlimit="10" stroke-width=".3985"/>
<path transform="matrix(1,0,0,-1,41.342,47.584)" d="m-0.59981 0.60353c0.25 0.25 0.25 0.65625 0 0.90625-0.25391 0.25391-0.66016 0.25391-0.91016 0-0.25391-0.25-0.25391-0.65625 0-0.90625 0.25-0.25391 0.65625-0.25391 0.91016 0zm2.1133-2.1133c0.25 0.25 0.25 0.65625 0 0.90625-0.25391 0.25391-0.66016 0.25391-0.91016 0-0.25391-0.25-0.25391-0.65625 0-0.90625 0.25-0.25391 0.65625-0.25391 0.91016 0z" stroke="#000" stroke-miterlimit="10" stroke-width=".3985"/>
<path transform="matrix(1,0,0,-1,29.939,28.325)" d="m29.538-1.1281-7.8906-7.8867" fill="none" stroke="#000" stroke-linecap="round" stroke-miterlimit="10" stroke-width=".59758"/>
<path transform="matrix(1,0,0,-1,29.939,28.325)" d="m12.475-9.0148-7.8906 7.8867" fill="none" stroke="#000" stroke-linecap="round" stroke-miterlimit="10" stroke-width=".59758"/>
</svg>
