<?xml version="1.0" encoding="UTF-8"?>
<svg width="142pt" height="58pt" version="1.1" viewBox="0 0 142 58" xmlns="http://www.w3.org/2000/svg" xmlns:xlink="http://www.w3.org/1999/xlink">
<defs>
<symbol id="h" overflow="visible">
<path d="m6.5625 0.29688v-0.6875h-3.3125v17.938h0.6875v-17.25z"/>
</symbol>
<symbol id="c" overflow="visible">
<path d="m3.9375 5.9844v-6h-0.6875v6z"/>
</symbol>
<symbol id="g" overflow="visible">
<path d="m6.5625 17.531v-0.6875h-2.625v-17.25h-0.6875v17.938z"/>
</symbol>
<symbol id="f" overflow="visible">
<path d="m3.3906 17.547v-17.938h-3.3281v0.6875h2.6406v17.25z"/>
</symbol>
<symbol id="b" overflow="visible">
<path d="m3.3906 5.9844v-6h-0.6875v6z"/>
</symbol>
<symbol id="e" overflow="visible">
<path d="m3.3906 17.531v-17.938h-0.6875v17.25h-2.6406v0.6875z"/>
</symbol>
<symbol id="d" overflow="visible">
<path d="m5.7969-4.9062c0-1.0625-0.98438-2.0156-2.3594-2.0156h-2.4844v6.9219h0.89062v-2.875h1.6719c1.2344 0 2.2812-0.90625 2.2812-2.0312zm-0.79688 0c0 0.79688-0.64062 1.4531-1.7812 1.4531h-1.4062v-2.9062h1.4062c1.0938 0 1.7812 0.60938 1.7812 1.4531z"/>
</symbol>
<symbol id="a" overflow="visible">
<path d="m5.25-6.2344v-0.65625h-4.3125v6.8906h0.89062v-3.1406h3v-0.60938h-3v-2.5h1.2969c0.125 0 0.25 0.015625 0.35938 0.015625z"/>
</symbol>
<symbol id="j" overflow="visible">
<path d="m5.6094-1.7344c0-0.1875-0.15625-0.1875-0.25-0.1875h-2.1406v-2.1406c0-0.078125 0-0.25-0.15625-0.25-0.17188 0-0.17188 0.15625-0.17188 0.25v2.1406h-2.1406c-0.09375 0-0.26562 0-0.26562 0.17188s0.15625 0.17188 0.26562 0.17188h2.1406v2.1406c0 0.09375 0 0.26562 0.15625 0.26562 0.17188 0 0.17188-0.17188 0.17188-0.26562v-2.1406h2.1406c0.09375 0 0.25 0 0.25-0.15625z"/>
</symbol>
<symbol id="i" overflow="visible">
<path d="m5.4688-1.7344c0-0.1875-0.17188-0.1875-0.26562-0.1875h-4.1875c-0.10938 0-0.26562 0-0.26562 0.1875 0 0.15625 0.17188 0.15625 0.26562 0.15625h4.1875c0.09375 0 0.26562 0 0.26562-0.15625z"/>
</symbol>
</defs>
<g>
<use x="-3.2" y="2.599" xlink:href="#h"/>
<use x="-3.2" y="20.134" xlink:href="#c"/>
<use x="-3.2" y="26.111" xlink:href="#c"/>
<use x="-3.2" y="32.089" xlink:href="#c"/>
<use x="-3.2" y="38.465" xlink:href="#g"/>
<use x="26.052" y="32.559" xlink:href="#d"/>
<use x="26.398" y="11.298" xlink:href="#a"/>
</g>
<path transform="matrix(1,0,0,-1,35.06,7.839)" d="m-0.0014062-0.85241c-0.35547 0-0.64062-0.28516-0.64062-0.64062s0.28516-0.64453 0.64062-0.64453c0.35547 0 0.64453 0.28906 0.64453 0.64453s-0.28906 0.64062-0.64453 0.64062zm0 2.9883c-0.35547 0-0.64062-0.28516-0.64062-0.64062s0.28516-0.64453 0.64062-0.64453c0.35547 0 0.64453 0.28906 0.64453 0.64453s-0.28906 0.64062-0.64453 0.64062z" stroke="#000" stroke-miterlimit="10" stroke-width=".3985"/>
<path transform="matrix(1,0,0,-1,23.41,7.839)" d="m1.5625e-4 0.85072c0.35547 0 0.64453 0.28906 0.64453 0.64453s-0.28906 0.64062-0.64453 0.64062c-0.35547 0-0.64453-0.28516-0.64453-0.64062s0.28906-0.64453 0.64453-0.64453zm0-2.9883c0.35547 0 0.64453 0.28906 0.64453 0.64453s-0.28906 0.64062-0.64453 0.64062c-0.35547 0-0.64453-0.28516-0.64453-0.64062s0.28906-0.64453 0.64453-0.64453z" stroke="#000" stroke-miterlimit="10" stroke-width=".3985"/>
<path transform="matrix(1,0,0,-1,29.235,1.391)" d="m0.85094 3.75e-4c0-0.35547 0.28906-0.64453 0.64453-0.64453s0.64062 0.28906 0.64062 0.64453-0.28516 0.64453-0.64062 0.64453-0.64453-0.28906-0.64453-0.64453zm-2.9883 0c0-0.35547 0.28906-0.64453 0.64453-0.64453 0.35547 0 0.64062 0.28906 0.64062 0.64453s-0.28516 0.64453-0.64062 0.64453c-0.35547 0-0.64453-0.28906-0.64453-0.64453z" stroke="#000" stroke-miterlimit="10" stroke-width=".3985"/>
<path transform="matrix(1,0,0,-1,29.235,32.559)" d="m-6.25e-4 8.5121v11.156" fill="none" stroke="#000" stroke-linecap="round" stroke-miterlimit="10" stroke-width=".59758"/>
<g>
<use x="26.398" y="53.821" xlink:href="#a"/>
</g>
<path transform="matrix(1,0,0,-1,35.06,50.361)" d="m-0.0014062-0.84994c-0.35547 0-0.64062-0.28906-0.64062-0.64453 0-0.35547 0.28516-0.64453 0.64062-0.64453 0.35547 0 0.64453 0.28906 0.64453 0.64453 0 0.35547-0.28906 0.64453-0.64453 0.64453zm0 2.9883c-0.35547 0-0.64062-0.28906-0.64062-0.64453 0-0.35547 0.28516-0.64453 0.64062-0.64453 0.35547 0 0.64453 0.28906 0.64453 0.64453 0 0.35547-0.28906 0.64453-0.64453 0.64453z" stroke="#000" stroke-miterlimit="10" stroke-width=".3985"/>
<path transform="matrix(1,0,0,-1,23.41,50.361)" d="m1.5625e-4 0.84928c0.35547 0 0.64453 0.28906 0.64453 0.64453 0 0.35547-0.28906 0.64453-0.64453 0.64453-0.35547 0-0.64453-0.28906-0.64453-0.64453 0-0.35547 0.28906-0.64453 0.64453-0.64453zm0-2.9883c0.35547 0 0.64453 0.28906 0.64453 0.64453 0 0.35547-0.28906 0.64453-0.64453 0.64453-0.35547 0-0.64453-0.28906-0.64453-0.64453 0-0.35547 0.28906-0.64453 0.64453-0.64453z" stroke="#000" stroke-miterlimit="10" stroke-width=".3985"/>
<path transform="matrix(1,0,0,-1,29.235,56.809)" d="m-0.85219 4.0625e-4c0 0.35547-0.28516 0.64453-0.64062 0.64453-0.35547 0-0.64453-0.28906-0.64453-0.64453 0-0.35547 0.28906-0.64453 0.64453-0.64453 0.35547 0 0.64062 0.28906 0.64062 0.64453zm2.9883 0c0 0.35547-0.28516 0.64453-0.64062 0.64453s-0.64453-0.28906-0.64453-0.64453c0-0.35547 0.28906-0.64453 0.64453-0.64453s0.64062 0.28906 0.64062 0.64453z" stroke="#000" stroke-miterlimit="10" stroke-width=".3985"/>
<path transform="matrix(1,0,0,-1,29.235,32.559)" d="m-6.25e-4 -1.5933v-11.156" fill="none" stroke="#000" stroke-linecap="round" stroke-miterlimit="10" stroke-width=".59758"/>
<g>
<use x="44.839" y="43.206" xlink:href="#a"/>
</g>
<path transform="matrix(1,0,0,-1,51.034,33.93)" d="m0.73553-0.42547c-0.17578-0.30859-0.070312-0.70312 0.23828-0.87891 0.30469-0.17578 0.69922-0.070312 0.87891 0.23438 0.17578 0.30859 0.070312 0.70312-0.23828 0.87891-0.30469 0.17969-0.69922 0.074219-0.87891-0.23438zm-2.5859 1.4961c-0.17969-0.30859-0.074219-0.70312 0.23438-0.87891 0.30859-0.17969 0.70312-0.074219 0.87891 0.23438 0.17969 0.30859 0.074219 0.69922-0.23438 0.87891-0.30859 0.17578-0.70312 0.070313-0.87891-0.23438z" stroke="#000" stroke-miterlimit="10" stroke-width=".3985"/>
<path transform="matrix(1,0,0,-1,52.869,42.745)" d="m-0.42369-0.73547c-0.30859 0.17578-0.70312 0.070313-0.87891-0.23828-0.17969-0.30469-0.074218-0.69922 0.23438-0.87891 0.30859-0.17578 0.69922-0.070313 0.87891 0.23828 0.17578 0.30469 0.070312 0.69922-0.23438 0.87891zm1.4922 2.5859c-0.30859 0.17969-0.69922 0.074219-0.87891-0.23438-0.17578-0.30859-0.070313-0.70312 0.23438-0.87891 0.30859-0.17969 0.70312-0.074219 0.87891 0.23438 0.17969 0.30859 0.074219 0.70312-0.23438 0.87891z" stroke="#000" stroke-miterlimit="10" stroke-width=".3985"/>
<path transform="matrix(1,0,0,-1,44.317,45.563)" d="m-0.73888 0.42628c0.17969 0.30859 0.074219 0.69922-0.23438 0.87891-0.30859 0.17578-0.69922 0.070312-0.87891-0.23438-0.17578-0.30859-0.070313-0.70312 0.23438-0.87891 0.30859-0.17969 0.70312-0.074218 0.87891 0.23438zm2.5898-1.4961c0.17969 0.30859 0.074219 0.70312-0.23438 0.87891-0.30859 0.17969-0.70312 0.074219-0.87891-0.23438-0.17969-0.30859-0.074219-0.70312 0.23438-0.87891 0.30859-0.17969 0.70312-0.074219 0.87891 0.23438z" stroke="#000" stroke-miterlimit="10" stroke-width=".3985"/>
<path transform="matrix(1,0,0,-1,29.235,32.559)" d="m4.5619 0.82462 9.6602-5.5781" fill="none" stroke="#000" stroke-linecap="round" stroke-miterlimit="10" stroke-width=".59758"/>
<g>
<use x="7.958" y="43.206" xlink:href="#a"/>
</g>
<path transform="matrix(1,0,0,-1,14.153,45.563)" d="m-0.73894-0.42528c-0.17578 0.30859-0.57031 0.41406-0.875 0.23438-0.30859-0.17578-0.41406-0.57031-0.23828-0.87891 0.17969-0.30859 0.57031-0.41406 0.87891-0.23438 0.30859 0.17578 0.41406 0.57031 0.23438 0.87891zm2.5898 1.4961c-0.17578 0.30469-0.57031 0.41016-0.87891 0.23438-0.30859-0.17969-0.41406-0.57031-0.23438-0.87891 0.17578-0.30859 0.57031-0.41406 0.87891-0.23438 0.30859 0.17578 0.41406 0.57031 0.23438 0.87891z" stroke="#000" stroke-miterlimit="10" stroke-width=".3985"/>
<path transform="matrix(1,0,0,-1,5.601,42.745)" d="m-0.42522 0.73719c0.30859 0.17578 0.41406 0.57031 0.23438 0.87891-0.17578 0.30859-0.57031 0.41406-0.87891 0.23438-0.30859-0.17578-0.41406-0.57031-0.23438-0.87891 0.17578-0.30859 0.57031-0.41406 0.87891-0.23438zm1.4922-2.5898c0.30859 0.17969 0.41406 0.57422 0.23828 0.87891-0.17969 0.30859-0.57031 0.41406-0.87891 0.23828-0.30859-0.17969-0.41406-0.57422-0.23438-0.87891 0.17578-0.30859 0.57031-0.41406 0.875-0.23828z" stroke="#000" stroke-miterlimit="10" stroke-width=".3985"/>
<path transform="matrix(1,0,0,-1,7.436,33.93)" d="m0.73588 0.42609c0.17969-0.30859 0.57422-0.41406 0.87891-0.23438 0.30859 0.17578 0.41406 0.57031 0.23828 0.87891-0.17969 0.30469-0.57422 0.41016-0.87891 0.23438-0.30859-0.17969-0.41406-0.57031-0.23828-0.87891zm-2.5859-1.4961c0.17578-0.30469 0.57031-0.41016 0.87891-0.23438 0.30469 0.17578 0.41016 0.57031 0.23438 0.87891-0.17969 0.30859-0.57031 0.41406-0.87891 0.23438-0.30859-0.17578-0.41406-0.57031-0.23438-0.87891z" stroke="#000" stroke-miterlimit="10" stroke-width=".3985"/>
<path transform="matrix(1,0,0,-1,29.235,32.559)" d="m-4.5631 0.82462-9.6602-5.5781" fill="none" stroke="#000" stroke-linecap="round" stroke-miterlimit="10" stroke-width=".59758"/>
<g>
<use x="55.028" y="2.599" xlink:href="#f"/>
<use x="55.028" y="20.134" xlink:href="#b"/>
<use x="55.028" y="26.111" xlink:href="#b"/>
<use x="55.028" y="32.089" xlink:href="#b"/>
<use x="55.028" y="38.465" xlink:href="#e"/>
<use x="61.67" y="4.664" xlink:href="#j"/>
<use x="71.605" y="2.599" xlink:href="#h"/>
<use x="71.605" y="20.134" xlink:href="#c"/>
<use x="71.605" y="26.111" xlink:href="#c"/>
<use x="71.605" y="32.089" xlink:href="#c"/>
<use x="71.605" y="38.465" xlink:href="#g"/>
<use x="100.858" y="32.559" xlink:href="#d"/>
<use x="101.204" y="11.298" xlink:href="#a"/>
</g>
<path transform="matrix(1 0 0 -1 109.87 7.839)" d="m0.0011875-0.85241c-0.35547 0-0.64453-0.28516-0.64453-0.64062s0.28906-0.64453 0.64453-0.64453 0.64062 0.28906 0.64062 0.64453-0.28516 0.64062-0.64062 0.64062zm0 2.9883c-0.35547 0-0.64453-0.28516-0.64453-0.64062s0.28906-0.64453 0.64453-0.64453 0.64062 0.28906 0.64062 0.64453-0.28516 0.64062-0.64062 0.64062z" stroke="#000" stroke-miterlimit="10" stroke-width=".3985"/>
<path transform="matrix(1,0,0,-1,98.215,7.839)" d="m-1.5625e-4 0.85072c0.35547 0 0.64453 0.28906 0.64453 0.64453s-0.28906 0.64062-0.64453 0.64062c-0.35547 0-0.64453-0.28516-0.64453-0.64062s0.28906-0.64453 0.64453-0.64453zm0-2.9883c0.35547 0 0.64453 0.28906 0.64453 0.64453s-0.28906 0.64062-0.64453 0.64062c-0.35547 0-0.64453-0.28516-0.64453-0.64062s0.28906-0.64453 0.64453-0.64453z" stroke="#000" stroke-miterlimit="10" stroke-width=".3985"/>
<path transform="matrix(1,0,0,-1,104.04,1.391)" d="m0.85062 3.75e-4c0-0.35547 0.28906-0.64453 0.64453-0.64453s0.64453 0.28906 0.64453 0.64453-0.28906 0.64453-0.64453 0.64453-0.64453-0.28906-0.64453-0.64453zm-2.9883 0c0-0.35547 0.28906-0.64453 0.64453-0.64453s0.64062 0.28906 0.64062 0.64453-0.28516 0.64453-0.64062 0.64453-0.64453-0.28906-0.64453-0.64453z" stroke="#000" stroke-miterlimit="10" stroke-width=".3985"/>
<path transform="matrix(1,0,0,-1,104.04,32.559)" d="m-9.375e-4 8.5121v11.156" fill="none" stroke="#000" stroke-linecap="round" stroke-miterlimit="10" stroke-width=".59758"/>
<g>
<use x="101.204" y="53.821" xlink:href="#a"/>
</g>
<path transform="matrix(1 0 0 -1 109.87 50.361)" d="m0.0011875-0.84994c-0.35547 0-0.64453-0.28906-0.64453-0.64453 0-0.35547 0.28906-0.64453 0.64453-0.64453s0.64062 0.28906 0.64062 0.64453c0 0.35547-0.28516 0.64453-0.64062 0.64453zm0 2.9883c-0.35547 0-0.64453-0.28906-0.64453-0.64453 0-0.35547 0.28906-0.64453 0.64453-0.64453s0.64062 0.28906 0.64062 0.64453c0 0.35547-0.28516 0.64453-0.64062 0.64453z" stroke="#000" stroke-miterlimit="10" stroke-width=".3985"/>
<path transform="matrix(1,0,0,-1,98.215,50.361)" d="m-1.5625e-4 0.84928c0.35547 0 0.64453 0.28906 0.64453 0.64453 0 0.35547-0.28906 0.64453-0.64453 0.64453-0.35547 0-0.64453-0.28906-0.64453-0.64453 0-0.35547 0.28906-0.64453 0.64453-0.64453zm0-2.9883c0.35547 0 0.64453 0.28906 0.64453 0.64453 0 0.35547-0.28906 0.64453-0.64453 0.64453-0.35547 0-0.64453-0.28906-0.64453-0.64453 0-0.35547 0.28906-0.64453 0.64453-0.64453z" stroke="#000" stroke-miterlimit="10" stroke-width=".3985"/>
<path transform="matrix(1,0,0,-1,104.04,56.809)" d="m-0.8525 4.0625e-4c0 0.35547-0.28516 0.64453-0.64062 0.64453s-0.64453-0.28906-0.64453-0.64453c0-0.35547 0.28906-0.64453 0.64453-0.64453s0.64062 0.28906 0.64062 0.64453zm2.9922 0c0 0.35547-0.28906 0.64453-0.64453 0.64453s-0.64453-0.28906-0.64453-0.64453c0-0.35547 0.28906-0.64453 0.64453-0.64453s0.64453 0.28906 0.64453 0.64453z" stroke="#000" stroke-miterlimit="10" stroke-width=".3985"/>
<path transform="matrix(1,0,0,-1,104.04,32.559)" d="m-9.375e-4 -1.5933v-11.156" fill="none" stroke="#000" stroke-linecap="round" stroke-miterlimit="10" stroke-width=".59758"/>
<g>
<use x="119.644" y="43.206" xlink:href="#a"/>
</g>
<path transform="matrix(1 0 0 -1 125.84 33.93)" d="m0.73522-0.42547c-0.17578-0.30859-0.070313-0.70312 0.23828-0.87891s0.69922-0.070312 0.87891 0.23438c0.17578 0.30859 0.070313 0.70312-0.23828 0.87891-0.30469 0.17969-0.69922 0.074219-0.87891-0.23438zm-2.5859 1.4961c-0.17969-0.30859-0.074219-0.70312 0.23438-0.87891 0.30859-0.17969 0.70312-0.074219 0.87891 0.23438 0.17969 0.30859 0.074219 0.69922-0.23438 0.87891-0.30859 0.17578-0.70312 0.070313-0.87891-0.23438z" stroke="#000" stroke-miterlimit="10" stroke-width=".3985"/>
<path transform="matrix(1 0 0 -1 127.67 42.745)" d="m-0.424-0.73547c-0.30859 0.17578-0.70312 0.070313-0.87891-0.23828-0.17969-0.30469-0.074219-0.69922 0.23438-0.87891 0.30859-0.17578 0.69922-0.070313 0.87891 0.23828 0.17578 0.30469 0.070312 0.69922-0.23438 0.87891zm1.4922 2.5859c-0.30859 0.17969-0.69922 0.074219-0.87891-0.23438-0.17578-0.30859-0.070312-0.70312 0.23438-0.87891 0.30859-0.17969 0.70312-0.074219 0.87891 0.23438 0.17969 0.30859 0.074219 0.70312-0.23438 0.87891z" stroke="#000" stroke-miterlimit="10" stroke-width=".3985"/>
<path transform="matrix(1 0 0 -1 119.12 45.563)" d="m-0.73528 0.42628c0.17578 0.30859 0.070312 0.69922-0.23828 0.87891-0.30859 0.17578-0.69922 0.070312-0.87891-0.23438-0.17578-0.30859-0.070312-0.70312 0.23828-0.87891 0.30469-0.17969 0.69922-0.074218 0.87891 0.23438zm2.5859-1.4961c0.17969 0.30859 0.074219 0.70312-0.23438 0.87891-0.30859 0.17969-0.70312 0.074219-0.87891-0.23438-0.17969-0.30859-0.074219-0.70312 0.23438-0.87891 0.30859-0.17969 0.70312-0.074219 0.87891 0.23438z" stroke="#000" stroke-miterlimit="10" stroke-width=".3985"/>
<path transform="matrix(1,0,0,-1,104.04,32.559)" d="m4.5616 0.82462 9.6641-5.5781" fill="none" stroke="#000" stroke-linecap="round" stroke-miterlimit="10" stroke-width=".59758"/>
<g>
<use x="82.763" y="43.206" xlink:href="#a"/>
</g>
<path transform="matrix(1,0,0,-1,88.958,45.563)" d="m-0.73534-0.42528c-0.17969 0.30859-0.57422 0.41406-0.87891 0.23438-0.30859-0.17578-0.41406-0.57031-0.23828-0.87891 0.17969-0.30859 0.57422-0.41406 0.87891-0.23438 0.30859 0.17578 0.41406 0.57031 0.23828 0.87891zm2.5859 1.4961c-0.17578 0.30469-0.57031 0.41016-0.87891 0.23438-0.30859-0.17969-0.41406-0.57031-0.23438-0.87891 0.17578-0.30859 0.57031-0.41406 0.87891-0.23438 0.30859 0.17578 0.41406 0.57031 0.23438 0.87891z" stroke="#000" stroke-miterlimit="10" stroke-width=".3985"/>
<path transform="matrix(1,0,0,-1,80.406,42.745)" d="m-0.42553 0.73719c0.30859 0.17578 0.41406 0.57031 0.23438 0.87891-0.17578 0.30859-0.57031 0.41406-0.87891 0.23438-0.30469-0.17578-0.41016-0.57031-0.23438-0.87891 0.17578-0.30859 0.57031-0.41406 0.87891-0.23438zm1.4961-2.5898c0.30469 0.17969 0.41016 0.57422 0.23438 0.87891-0.17969 0.30859-0.57031 0.41406-0.87891 0.23828-0.30859-0.17969-0.41406-0.57422-0.23438-0.87891 0.17578-0.30859 0.57031-0.41406 0.87891-0.23828z" stroke="#000" stroke-miterlimit="10" stroke-width=".3985"/>
<path transform="matrix(1,0,0,-1,82.242,33.93)" d="m0.73847 0.42609c0.17578-0.30859 0.57031-0.41406 0.87891-0.23438 0.30469 0.17578 0.41016 0.57031 0.23438 0.87891-0.17969 0.30469-0.57031 0.41016-0.87891 0.23438-0.30859-0.17969-0.41406-0.57031-0.23438-0.87891zm-2.5898-1.4961c0.17578-0.30469 0.57031-0.41016 0.87891-0.23438s0.41406 0.57031 0.23438 0.87891c-0.17578 0.30859-0.57031 0.41406-0.87891 0.23438-0.30469-0.17578-0.41016-0.57031-0.23438-0.87891z" stroke="#000" stroke-miterlimit="10" stroke-width=".3985"/>
<path transform="matrix(1,0,0,-1,104.04,32.559)" d="m-4.5634 0.82462-9.6602-5.5781" fill="none" stroke="#000" stroke-linecap="round" stroke-miterlimit="10" stroke-width=".59758"/>
<g>
<use x="119.644" y="21.913" xlink:href="#a"/>
</g>
<path transform="matrix(1 0 0 -1 127.67 15.455)" d="m0.42366-0.73641c-0.30469-0.17969-0.41016-0.57031-0.23438-0.87891 0.17969-0.30859 0.57031-0.41406 0.87891-0.23438 0.30859 0.17578 0.41406 0.57031 0.23438 0.87891-0.17578 0.30469-0.57031 0.41016-0.87891 0.23438zm-1.4922 2.5859c-0.30859-0.17578-0.41406-0.57031-0.23438-0.87891 0.17578-0.30469 0.57031-0.41016 0.87891-0.23438 0.30469 0.17969 0.41016 0.57031 0.23438 0.87891-0.17969 0.30859-0.57031 0.41406-0.87891 0.23438z" stroke="#000" stroke-miterlimit="10" stroke-width=".3985"/>
<path transform="matrix(1 0 0 -1 119.12 12.637)" d="m0.73738 0.42606c0.17578-0.30859 0.57031-0.41406 0.87891-0.23438 0.30859 0.17578 0.41406 0.57031 0.23438 0.87891-0.17578 0.30469-0.57031 0.41016-0.87891 0.23438-0.30859-0.17969-0.41406-0.57031-0.23438-0.87891zm-2.5898-1.4961c0.17969-0.30469 0.57031-0.41016 0.87891-0.23438 0.30859 0.17578 0.41406 0.57031 0.23828 0.87891-0.17969 0.30859-0.57422 0.41406-0.87891 0.23438-0.30859-0.17578-0.41406-0.57031-0.23828-0.87891z" stroke="#000" stroke-miterlimit="10" stroke-width=".3985"/>
<path transform="matrix(1 0 0 -1 125.84 24.27)" d="m-0.73744-0.42531c-0.17578 0.30859-0.57031 0.41406-0.87891 0.23438-0.30859-0.17578-0.41406-0.57031-0.23438-0.87891 0.17578-0.30859 0.57031-0.41406 0.87891-0.23438 0.30859 0.17578 0.41406 0.57031 0.23438 0.87891zm2.5898 1.4961c-0.17969 0.30469-0.57031 0.41016-0.87891 0.23438-0.30859-0.17969-0.41406-0.57031-0.23828-0.87891 0.17969-0.30859 0.57422-0.41406 0.87891-0.23438 0.30859 0.17578 0.41406 0.57031 0.23828 0.87891z" stroke="#000" stroke-miterlimit="10" stroke-width=".3985"/>
<path transform="matrix(1,0,0,-1,104.04,32.559)" d="m4.5616 6.0942 9.6641 5.5781" fill="none" stroke="#000" stroke-linecap="round" stroke-miterlimit="10" stroke-width=".59758"/>
<g>
<use x="82.763" y="21.913" xlink:href="#a"/>
</g>
<path transform="matrix(1,0,0,-1,80.406,15.455)" d="m0.42603 0.73625c0.30859-0.17578 0.69922-0.070312 0.87891 0.23438 0.17578 0.30859 0.070313 0.70312-0.23438 0.87891-0.30859 0.17969-0.70312 0.074219-0.87891-0.23438-0.17969-0.30859-0.074219-0.69922 0.23438-0.87891zm-1.4961-2.5859c0.30859-0.17969 0.70312-0.074219 0.87891 0.23438 0.17969 0.30859 0.074218 0.69922-0.23438 0.87891-0.30859 0.17578-0.70312 0.070312-0.87891-0.23438-0.17578-0.30859-0.070312-0.70312 0.23438-0.87891z" stroke="#000" stroke-miterlimit="10" stroke-width=".3985"/>
<path transform="matrix(1,0,0,-1,88.958,12.637)" d="m0.73731-0.4255c-0.17969-0.30859-0.074218-0.70312 0.23438-0.87891 0.30859-0.17578 0.70312-0.070313 0.87891 0.23438 0.17969 0.30859 0.074218 0.70312-0.23438 0.87891-0.30859 0.17969-0.70312 0.074219-0.87891-0.23438zm-2.5898 1.4961c-0.17578-0.30859-0.070313-0.70312 0.23828-0.87891 0.30469-0.17969 0.69922-0.074219 0.87891 0.23438 0.17578 0.30859 0.070313 0.69922-0.23828 0.87891-0.30469 0.17578-0.69922 0.070312-0.87891-0.23438z" stroke="#000" stroke-miterlimit="10" stroke-width=".3985"/>
<path transform="matrix(1,0,0,-1,82.242,24.27)" d="m-0.73809 0.42625c0.17969 0.30859 0.074219 0.69922-0.23438 0.87891-0.30859 0.17578-0.70312 0.070313-0.87891-0.23438-0.17578-0.30859-0.070313-0.70312 0.23438-0.87891 0.30859-0.17969 0.70312-0.074219 0.87891 0.23438zm2.5898-1.4961c0.17578 0.30859 0.070312 0.70312-0.23438 0.87891-0.30859 0.17969-0.70312 0.074218-0.87891-0.23438-0.17969-0.30859-0.074219-0.70312 0.23438-0.87891 0.30859-0.17969 0.69922-0.074218 0.87891 0.23438z" stroke="#000" stroke-miterlimit="10" stroke-width=".3985"/>
<path transform="matrix(1,0,0,-1,104.04,32.559)" d="m-4.5634 6.0942-9.6602 5.5781" fill="none" stroke="#000" stroke-linecap="round" stroke-miterlimit="10" stroke-width=".59758"/>
<g>
<use x="129.834" y="2.599" xlink:href="#f"/>
<use x="129.834" y="20.134" xlink:href="#b"/>
<use x="129.834" y="26.111" xlink:href="#b"/>
<use x="129.834" y="32.089" xlink:href="#b"/>
<use x="129.834" y="38.465" xlink:href="#e"/>
<use x="136.475" y="4.664" xlink:href="#i"/>
</g>
</svg>
