<?xml version="1.0" encoding="UTF-8"?>
<svg width="126pt" height="16pt" version="1.1" viewBox="0 0 126 16" xmlns="http://www.w3.org/2000/svg" xmlns:xlink="http://www.w3.org/1999/xlink">
<defs>
<symbol id="a" overflow="visible">
<path d="m5.25-6.2344v-0.65625h-4.3125v6.8906h0.89062v-3.1406h3v-0.60938h-3v-2.5h1.2969c0.125 0 0.25 0.015625 0.35938 0.015625z"/>
</symbol>
<symbol id="b" overflow="visible">
<path d="m7.1875-2.5c0-0.1875-0.1875-0.1875-0.32812-0.1875h-2.7812v-2.7969c0-0.14062 0-0.32812-0.20312-0.32812s-0.20312 0.1875-0.20312 0.32812v2.7969h-2.7812c-0.14062 0-0.32812 0-0.32812 0.1875 0 0.20312 0.1875 0.20312 0.32812 0.20312h2.7812v2.7969c0 0.14062 0 0.32812 0.20312 0.32812s0.20312-0.1875 0.20312-0.32812v-2.7969h2.7812c0.14062 0 0.32812 0 0.32812-0.20312z"/>
</symbol>
</defs>
<g>
<use x="4.632" y="11.309" xlink:href="#a"/>
</g>
<path transform="matrix(1,0,0,-1,13.294,7.85)" d="m-0.0010312-0.84922c-0.35547 0-0.64062-0.28906-0.64062-0.64453s0.28516-0.64453 0.64062-0.64453c0.35547 0 0.64453 0.28906 0.64453 0.64453s-0.28906 0.64453-0.64453 0.64453zm0 2.9883c-0.35547 0-0.64062-0.28906-0.64062-0.64453s0.28516-0.64453 0.64062-0.64453c0.35547 0 0.64453 0.28906 0.64453 0.64453s-0.28906 0.64453-0.64453 0.64453z" stroke="#000" stroke-miterlimit="10" stroke-width=".3985"/>
<path transform="matrix(1,0,0,-1,1.644,7.85)" d="m5.3125e-4 0.85c0.35547 0 0.64453 0.28906 0.64453 0.64453s-0.28906 0.64453-0.64453 0.64453c-0.35547 0-0.64453-0.28906-0.64453-0.64453s0.28906-0.64453 0.64453-0.64453zm0-2.9883c0.35547 0 0.64453 0.28906 0.64453 0.64453s-0.28906 0.64453-0.64453 0.64453c-0.35547 0-0.64453-0.28906-0.64453-0.64453s0.28906-0.64453 0.64453-0.64453z" stroke="#000" stroke-miterlimit="10" stroke-width=".3985"/>
<path transform="matrix(1,0,0,-1,7.469,1.402)" d="m0.85131-3.4375e-4c0-0.35547 0.28906-0.64453 0.64453-0.64453 0.35547 0 0.64062 0.28906 0.64062 0.64453 0 0.35547-0.28516 0.64453-0.64062 0.64453-0.35547 0-0.64453-0.28906-0.64453-0.64453zm-2.9883 0c0-0.35547 0.28906-0.64453 0.64062-0.64453 0.35547 0 0.64453 0.28906 0.64453 0.64453 0 0.35547-0.28906 0.64453-0.64453 0.64453-0.35156 0-0.64062-0.28906-0.64062-0.64453z" stroke="#000" stroke-miterlimit="10" stroke-width=".3985"/>
<path transform="matrix(1,0,0,-1,7.469,14.298)" d="m-0.85181 0.001125c0 0.35547-0.28906 0.64062-0.64453 0.64062-0.35156 0-0.64062-0.28516-0.64062-0.64062s0.28906-0.64453 0.64062-0.64453c0.35547 0 0.64453 0.28906 0.64453 0.64453zm2.9883 0c0 0.35547-0.28516 0.64062-0.64062 0.64062-0.35547 0-0.64453-0.28516-0.64453-0.64062s0.28906-0.64453 0.64453-0.64453c0.35547 0 0.64062 0.28906 0.64062 0.64453z" stroke="#000" stroke-miterlimit="10" stroke-width=".3985"/>
<g>
<use x="21.374" y="11.309" xlink:href="#b"/>
<use x="40.192" y="11.309" xlink:href="#a"/>
</g>
<path transform="matrix(1,0,0,-1,48.854,7.85)" d="m0.0014688-0.84922c-0.35547 0-0.64453-0.28906-0.64453-0.64453s0.28906-0.64453 0.64453-0.64453c0.35547 0 0.64063 0.28906 0.64063 0.64453s-0.28516 0.64453-0.64063 0.64453zm0 2.9883c-0.35547 0-0.64453-0.28906-0.64453-0.64453s0.28906-0.64453 0.64453-0.64453c0.35547 0 0.64063 0.28906 0.64063 0.64453s-0.28516 0.64453-0.64063 0.64453z" stroke="#000" stroke-miterlimit="10" stroke-width=".3985"/>
<path transform="matrix(1,0,0,-1,37.203,7.85)" d="m1.25e-4 0.85c0.35547 0 0.64453 0.28906 0.64453 0.64453s-0.28906 0.64453-0.64453 0.64453-0.64453-0.28906-0.64453-0.64453 0.28906-0.64453 0.64453-0.64453zm0-2.9883c0.35547 0 0.64453 0.28906 0.64453 0.64453s-0.28906 0.64453-0.64453 0.64453-0.64453-0.28906-0.64453-0.64453 0.28906-0.64453 0.64453-0.64453z" stroke="#000" stroke-miterlimit="10" stroke-width=".3985"/>
<path transform="matrix(1,0,0,-1,43.029,1.402)" d="m0.84991-3.4375e-4c0-0.35547 0.28906-0.64453 0.64453-0.64453 0.35547 0 0.64453 0.28906 0.64453 0.64453 0 0.35547-0.28906 0.64453-0.64453 0.64453-0.35547 0-0.64453-0.28906-0.64453-0.64453zm-2.9883 0c0-0.35547 0.28906-0.64453 0.64453-0.64453 0.35547 0 0.64453 0.28906 0.64453 0.64453 0 0.35547-0.28906 0.64453-0.64453 0.64453-0.35547 0-0.64453-0.28906-0.64453-0.64453z" stroke="#000" stroke-miterlimit="10" stroke-width=".3985"/>
<path transform="matrix(1,0,0,-1,43.029,14.298)" d="m-0.84931 0.001125c0 0.35547-0.28906 0.64062-0.64453 0.64062-0.35547 0-0.64453-0.28516-0.64453-0.64062s0.28906-0.64453 0.64453-0.64453c0.35547 0 0.64453 0.28906 0.64453 0.64453zm2.9883 0c0 0.35547-0.28906 0.64062-0.64453 0.64062-0.35547 0-0.64453-0.28516-0.64453-0.64062s0.28906-0.64453 0.64453-0.64453c0.35547 0 0.64453 0.28906 0.64453 0.64453z" stroke="#000" stroke-miterlimit="10" stroke-width=".3985"/>
<path transform="matrix(1,0,0,-1,4.632,11.309)" d="m51.196 3.0473h27.953" fill="none" stroke="#000" stroke-miterlimit="10" stroke-width=".3985"/>
<path transform="matrix(1 0 0 -1 81.072 8.2631)" d="m4.4433 0.0014112-3.2812 1.3125 1.6484-1.3125-1.6484-1.3164z" stroke="#000" stroke-linejoin="round" stroke-miterlimit="10" stroke-width=".3985"/>
<g>
<use x="95.679" y="11.722" xlink:href="#a"/>
</g>
<path transform="matrix(1,0,0,-1,98.515,14.711)" d="m-0.85094 6.25e-5c0 0.35547-0.28906 0.64453-0.64453 0.64453s-0.64062-0.28906-0.64062-0.64453 0.28516-0.64453 0.64062-0.64453 0.64453 0.28906 0.64453 0.64453zm2.9883 0c0 0.35547-0.28906 0.64453-0.64453 0.64453-0.35547 0-0.64062-0.28906-0.64062-0.64453s0.28516-0.64453 0.64062-0.64453c0.35547 0 0.64453 0.28906 0.64453 0.64453z" stroke="#000" stroke-miterlimit="10" stroke-width=".3985"/>
<path transform="matrix(1,0,0,-1,92.69,8.263)" d="m0.0014062 0.85284c0.35547 0 0.64062 0.28516 0.64062 0.64062 0 0.35547-0.28516 0.64453-0.64062 0.64453-0.35547 0-0.64453-0.28906-0.64453-0.64453 0-0.35547 0.28906-0.64062 0.64453-0.64062zm0-2.9922c0.35547 0 0.64062 0.28906 0.64062 0.64453 0 0.35547-0.28516 0.64453-0.64062 0.64453-0.35547 0-0.64453-0.28906-0.64453-0.64453 0-0.35547 0.28906-0.64453 0.64453-0.64453z" stroke="#000" stroke-miterlimit="10" stroke-width=".3985"/>
<path transform="matrix(1,0,0,-1,98.515,1.815)" d="m0.85219-0.0014062c0-0.35547 0.28516-0.64062 0.64062-0.64062 0.35547 0 0.64453 0.28516 0.64453 0.64062 0 0.35547-0.28906 0.64453-0.64453 0.64453-0.35547 0-0.64062-0.28906-0.64062-0.64453zm-2.9883 0c0-0.35547 0.28516-0.64062 0.64062-0.64062s0.64453 0.28516 0.64453 0.64062c0 0.35547-0.28906 0.64453-0.64453 0.64453s-0.64062-0.28906-0.64062-0.64453z" stroke="#000" stroke-miterlimit="10" stroke-width=".3985"/>
<g>
<use x="115.694" y="11.722" xlink:href="#a"/>
</g>
<path transform="matrix(1 0 0 -1 124.36 8.263)" d="m-5.3125e-4 -0.85028c-0.35547 0-0.64453-0.28906-0.64453-0.64453 0-0.35547 0.28906-0.64453 0.64453-0.64453 0.35547 0 0.64453 0.28906 0.64453 0.64453 0 0.35547-0.28906 0.64453-0.64453 0.64453zm0 2.9883c-0.35547 0-0.64453-0.28906-0.64453-0.64453 0-0.35547 0.28906-0.64062 0.64453-0.64062 0.35547 0 0.64453 0.28516 0.64453 0.64062 0 0.35547-0.28906 0.64453-0.64453 0.64453z" stroke="#000" stroke-miterlimit="10" stroke-width=".3985"/>
<path transform="matrix(1 0 0 -1 118.53 14.711)" d="m-0.85131 6.25e-5c0 0.35547-0.28906 0.64453-0.64453 0.64453s-0.64062-0.28906-0.64062-0.64453 0.28516-0.64453 0.64062-0.64453 0.64453 0.28906 0.64453 0.64453zm2.9883 0c0 0.35547-0.28906 0.64453-0.64062 0.64453-0.35547 0-0.64453-0.28906-0.64453-0.64453s0.28906-0.64453 0.64453-0.64453c0.35156 0 0.64062 0.28906 0.64062 0.64453z" stroke="#000" stroke-miterlimit="10" stroke-width=".3985"/>
<path transform="matrix(1 0 0 -1 118.53 1.815)" d="m0.85181-0.0014062c0-0.35547 0.28906-0.64062 0.64453-0.64062 0.35156 0 0.64062 0.28516 0.64062 0.64062 0 0.35547-0.28906 0.64453-0.64062 0.64453-0.35547 0-0.64453-0.28906-0.64453-0.64453zm-2.9883 0c0-0.35547 0.28516-0.64062 0.64062-0.64062s0.64453 0.28516 0.64453 0.64062c0 0.35547-0.28906 0.64453-0.64453 0.64453s-0.64062-0.28906-0.64062-0.64453z" stroke="#000" stroke-miterlimit="10" stroke-width=".3985"/>
<path transform="matrix(1,0,0,-1,98.515,11.722)" d="m4.4303 3.4603h11.156" fill="none" stroke="#000" stroke-linecap="round" stroke-miterlimit="10" stroke-width=".59758"/>
</svg>
