<?xml version="1.0" encoding="UTF-8"?>
<svg width="102pt" height="30pt" version="1.1" viewBox="0 0 102 30" xmlns="http://www.w3.org/2000/svg">
<g stroke="#000" stroke-miterlimit="10">
<path transform="matrix(1 0 0 -1 .952 22.159)" d="m0.001125-0.0011562 12.422-7.1719" fill="none" stroke-linecap="round" stroke-width=".59758"/>
<path transform="matrix(1 0 0 -1 .952 22.159)" d="m2.4894 1.4363 9.9336-5.7344" fill="none" stroke-linecap="round" stroke-width=".59758"/>
<path transform="matrix(1 0 0 -1 .952 22.159)" d="m12.423-7.173 12.418 7.1719" fill="none" stroke-linecap="round" stroke-width=".59758"/>
<path transform="matrix(1 0 0 -1 .952 22.159)" d="m24.841-0.0011562v14.344" fill="none" stroke-linecap="round" stroke-width=".59758"/>
<path transform="matrix(1 0 0 -1 .952 22.159)" d="m22.353 1.4363v11.469" fill="none" stroke-linecap="round" stroke-width=".59758"/>
<path transform="matrix(1 0 0 -1 .952 22.159)" d="m24.841 14.343-12.418 7.1719" fill="none" stroke-linecap="round" stroke-width=".59758"/>
<path transform="matrix(1 0 0 -1 .952 22.159)" d="m12.423 21.514-12.422-7.1719" fill="none" stroke-linecap="round" stroke-width=".59758"/>
<path transform="matrix(1 0 0 -1 .952 22.159)" d="m12.423 18.639-9.9336-5.7344" fill="none" stroke-linecap="round" stroke-width=".59758"/>
<path transform="matrix(1 0 0 -1 .952 22.159)" d="m0.001125 14.343v-14.344" fill="none" stroke-linecap="round" stroke-width=".59758"/>
<path transform="matrix(1 0 0 -1 .653 22.159)" d="m37.335 7.1707h26.023" fill="none" stroke-width=".3985"/>
<path transform="matrix(-1 0 0 1 40.7 14.988)" d="m4.4462 7.3125e-4 -3.2852 1.3164 1.6484-1.3164-1.6484-1.3164z" stroke-linejoin="round" stroke-width=".3985"/>
<path transform="matrix(1 0 0 -1 61.3 14.988)" d="m4.4459-7.3125e-4 -3.2852 1.3164 1.6484-1.3164-1.6484-1.3164z" stroke-linejoin="round" stroke-width=".3985"/>
<path transform="matrix(1,0,0,-1,76.205,22.159)" d="m-0.001875-0.0011562 12.422-7.1719" fill="none" stroke-linecap="round" stroke-width=".59758"/>
<path transform="matrix(1,0,0,-1,76.205,22.159)" d="m12.42-7.173 12.422 7.1719" fill="none" stroke-linecap="round" stroke-width=".59758"/>
<path transform="matrix(1,0,0,-1,76.205,22.159)" d="m12.42-4.298 9.9336 5.7344" fill="none" stroke-linecap="round" stroke-width=".59758"/>
<path transform="matrix(1,0,0,-1,76.205,22.159)" d="m24.842-0.0011562v14.344" fill="none" stroke-linecap="round" stroke-width=".59758"/>
<path transform="matrix(1,0,0,-1,76.205,22.159)" d="m24.842 14.343-12.422 7.1719" fill="none" stroke-linecap="round" stroke-width=".59758"/>
<path transform="matrix(1,0,0,-1,76.205,22.159)" d="m22.354 12.905-9.9336 5.7344" fill="none" stroke-linecap="round" stroke-width=".59758"/>
<path transform="matrix(1,0,0,-1,76.205,22.159)" d="m12.42 21.514-12.422-7.1719" fill="none" stroke-linecap="round" stroke-width=".59758"/>
<path transform="matrix(1,0,0,-1,76.205,22.159)" d="m-0.001875 14.343v-14.344" fill="none" stroke-linecap="round" stroke-width=".59758"/>
<path transform="matrix(1,0,0,-1,76.205,22.159)" d="m2.4903 12.905v-11.469" fill="none" stroke-linecap="round" stroke-width=".59758"/>
</g>
</svg>
