<?xml version="1.0" encoding="UTF-8"?>
<svg width="152pt" height="30pt" version="1.1" viewBox="0 0 152 30" xmlns="http://www.w3.org/2000/svg" xmlns:xlink="http://www.w3.org/1999/xlink">
<defs>
<symbol id="b" overflow="visible">
<path d="m6.0938 0v-6.9219h-0.78125v6.2188h-0.015625l-0.65625-1.375-2.4531-4.8438h-1.2344v6.9219h0.78125v-6.2031h0.015625l0.65625 1.3594 2.4531 4.8438z"/>
</symbol>
<symbol id="a" overflow="visible">
<path d="m4.2344 0v-0.57812h-1.25v-6.1875h-0.20312c-0.59375 0.60938-1.4219 0.64062-1.8906 0.67188v0.57812c0.32812-0.015625 0.79688-0.03125 1.2969-0.25v5.1875h-1.2344v0.57812z"/>
</symbol>
<symbol id="e" overflow="visible">
<path d="m6.7656-3.4375c0-2.0938-1.4375-3.7031-3.0938-3.7031-1.7031 0-3.1094 1.625-3.1094 3.7031 0 2.1094 1.4688 3.6562 3.0938 3.6562 1.6719 0 3.1094-1.5625 3.1094-3.6562zm-0.89062-0.15625c0 1.9531-1.0625 3.1719-2.2031 3.1719-1.1719 0-2.2188-1.25-2.2188-3.1719 0-1.8125 1.0938-2.9062 2.2031-2.9062 1.1562 0 2.2188 1.125 2.2188 2.9062z"/>
</symbol>
<symbol id="g" overflow="visible">
<path d="m4.5625-3.25c0-0.78125-0.046875-1.7188-0.46875-2.5156-0.40625-0.75-1.0938-1-1.5938-1-0.59375 0-1.2969 0.28125-1.7031 1.1562-0.32812 0.73438-0.375 1.5625-0.375 2.3594 0 0.78125 0.03125 1.5156 0.32812 2.25 0.40625 0.95312 1.1562 1.2188 1.7344 1.2188 0.71875 0 1.3594-0.40625 1.6719-1.0938 0.29688-0.65625 0.40625-1.3125 0.40625-2.375zm-0.78125-0.125c0 0.65625 0 1.2969-0.1875 1.9219-0.25 0.90625-0.78125 1.0625-1.0938 1.0625-0.53125 0-0.9375-0.375-1.1406-1.0938-0.15625-0.5625-0.15625-1.1094-0.15625-1.8906 0-0.625 0-1.2188 0.15625-1.7656 0.0625-0.1875 0.3125-1.0156 1.125-1.0156 0.78125 0 1.0312 0.76562 1.1094 0.9375 0.1875 0.5625 0.1875 1.2344 0.1875 1.8438z"/>
</symbol>
<symbol id="f" overflow="visible">
<path d="m4.4688 0v-0.70312h-1.8125-0.35938-1.0781c0.3125-0.28125 1.0781-1.0156 1.3906-1.3125 0.1875-0.17188 0.6875-0.59375 0.875-0.78125 0.45312-0.4375 0.98438-0.96875 0.98438-1.8125 0-1.1562-0.79688-2.1562-2.1094-2.1562-1.1406 0-1.7031 0.78125-1.9375 1.6406 0.10938 0.17188 0.17188 0.23438 0.1875 0.26562 0.015625 0.015625 0.125 0.14062 0.21875 0.28125 0.20312-0.76562 0.48438-1.5469 1.3906-1.5469 0.9375 0 1.4375 0.75 1.4375 1.5312 0 0.84375-0.5625 1.4062-1.1562 2.0156l-0.76562 0.70312-1.2344 1.2344v0.64062z"/>
</symbol>
<symbol id="d" overflow="visible">
<path d="m7.1875-2.5c0-0.1875-0.1875-0.1875-0.32812-0.1875h-2.7812v-2.7969c0-0.14062 0-0.32812-0.20312-0.32812s-0.20312 0.1875-0.20312 0.32812v2.7969h-2.7812c-0.14062 0-0.32812 0-0.32812 0.1875 0 0.20312 0.1875 0.20312 0.32812 0.20312h2.7812v2.7969c0 0.14062 0 0.32812 0.20312 0.32812s0.20312-0.1875 0.20312-0.32812v-2.7969h2.7812c0.14062 0 0.32812 0 0.32812-0.20312z"/>
</symbol>
<symbol id="c" overflow="visible">
<path d="m6.9219-2.5c0-0.1875-0.1875-0.1875-0.32812-0.1875h-5.4375c-0.14062 0-0.32812 0-0.32812 0.1875 0 0.20312 0.1875 0.20312 0.32812 0.20312h5.4375c0.14062 0 0.32812 0 0.32812-0.20312z"/>
</symbol>
</defs>
<g>
<use x="24.263" y="25.771" xlink:href="#b"/>
</g>
<g fill="#dc3445">
<use x="21.426" y="7.268" xlink:href="#d"/>
<use x="29.175" y="7.268" xlink:href="#a"/>
</g>
<g>
<use x="45.662" y="25.771" xlink:href="#e"/>
</g>
<path transform="matrix(1,0,0,-1,49.329,15.863)" d="m0.85069-2.8125e-4c0-0.35547 0.28906-0.64453 0.64453-0.64453s0.64453 0.28906 0.64453 0.64453c0 0.35547-0.28906 0.64453-0.64453 0.64453s-0.64453-0.28906-0.64453-0.64453zm-2.9883 0c0-0.35547 0.28906-0.64453 0.64453-0.64453 0.35547 0 0.64062 0.28906 0.64062 0.64453 0 0.35547-0.28516 0.64453-0.64062 0.64453-0.35547 0-0.64453-0.28906-0.64453-0.64453z" stroke="#000" stroke-miterlimit="10" stroke-width=".3985"/>
<path transform="matrix(1,0,0,-1,49.329,28.76)" d="m-0.85244-0.0017188c0 0.35547-0.28516 0.64453-0.64062 0.64453-0.35547 0-0.64453-0.28906-0.64453-0.64453 0-0.35547 0.28906-0.64063 0.64453-0.64063 0.35547 0 0.64062 0.28516 0.64062 0.64063zm2.9922 0c0 0.35547-0.28906 0.64453-0.64453 0.64453s-0.64453-0.28906-0.64453-0.64453c0-0.35547 0.28906-0.64063 0.64453-0.64063s0.64453 0.28516 0.64453 0.64063z" stroke="#000" stroke-miterlimit="10" stroke-width=".3985"/>
<path transform="matrix(1,0,0,-1,27.791,25.771)" d="m5.1231 4.7046h11.156" fill="none" stroke="#000" stroke-linecap="round" stroke-miterlimit="10" stroke-width=".59758"/>
<path transform="matrix(1,0,0,-1,27.791,25.771)" d="m5.1231 2.2124h11.156" fill="none" stroke="#000" stroke-linecap="round" stroke-miterlimit="10" stroke-width=".59758"/>
<g fill="#dc3445">
<use x="46.838" y="8.095" xlink:href="#g"/>
</g>
<g>
<use x="2.864" y="25.771" xlink:href="#b"/>
</g>
<path transform="matrix(1,0,0,-1,6.392,15.863)" d="m0.85019-2.8125e-4c0-0.35547 0.28906-0.64453 0.64453-0.64453s0.64453 0.28906 0.64453 0.64453c0 0.35547-0.28906 0.64453-0.64453 0.64453s-0.64453-0.28906-0.64453-0.64453zm-2.9883 0c0-0.35547 0.28906-0.64453 0.64453-0.64453 0.35547 0 0.64062 0.28906 0.64062 0.64453 0 0.35547-0.28516 0.64453-0.64062 0.64453-0.35547 0-0.64453-0.28906-0.64453-0.64453z" stroke="#000" stroke-miterlimit="10" stroke-width=".3985"/>
<path transform="matrix(1,0,0,-1,6.392,28.76)" d="m-0.85294-0.0017188c0 0.35547-0.28516 0.64453-0.64062 0.64453-0.35547 0-0.64453-0.28906-0.64453-0.64453 0-0.35547 0.28906-0.64063 0.64453-0.64063 0.35547 0 0.64062 0.28516 0.64062 0.64063zm2.9922 0c0 0.35547-0.28906 0.64453-0.64453 0.64453s-0.64453-0.28906-0.64453-0.64453c0-0.35547 0.28906-0.64063 0.64453-0.64063s0.64453 0.28516 0.64453 0.64063z" stroke="#000" stroke-miterlimit="10" stroke-width=".3985"/>
<path transform="matrix(1,0,0,-1,27.791,25.771)" d="m-5.123 2.2124h-11.156" fill="none" stroke="#000" stroke-linecap="round" stroke-miterlimit="10" stroke-width=".59758"/>
<path transform="matrix(1,0,0,-1,27.791,25.771)" d="m-5.123 4.7046h-11.156" fill="none" stroke="#000" stroke-linecap="round" stroke-miterlimit="10" stroke-width=".59758"/>
<g fill="#dc3445">
<use x="0.027" y="7.265" xlink:href="#c"/>
<use x="7.776" y="7.265" xlink:href="#a"/>
</g>
<g>
<use x="120.403" y="25.771" xlink:href="#e"/>
</g>
<g fill="#dc3445">
<use x="117.705" y="7.268" xlink:href="#d"/>
<use x="125.454" y="7.268" xlink:href="#f"/>
</g>
<g>
<use x="142.079" y="25.771" xlink:href="#b"/>
</g>
<path transform="matrix(1 0 0 -1 145.61 15.863)" d="m0.85294-2.8125e-4c0-0.35547 0.28516-0.64453 0.64062-0.64453 0.35547 0 0.64453 0.28906 0.64453 0.64453 0 0.35547-0.28906 0.64453-0.64453 0.64453-0.35547 0-0.64062-0.28906-0.64062-0.64453zm-2.9922 0c0-0.35547 0.28906-0.64453 0.64453-0.64453 0.35547 0 0.64453 0.28906 0.64453 0.64453 0 0.35547-0.28906 0.64453-0.64453 0.64453-0.35547 0-0.64453-0.28906-0.64453-0.64453z" stroke="#000" stroke-miterlimit="10" stroke-width=".3985"/>
<path transform="matrix(1 0 0 -1 145.61 28.76)" d="m-0.85019-0.0017188c0 0.35547-0.28906 0.64453-0.64453 0.64453-0.35547 0-0.64453-0.28906-0.64453-0.64453 0-0.35547 0.28906-0.64063 0.64453-0.64063 0.35547 0 0.64453 0.28516 0.64453 0.64063zm2.9883 0c0 0.35547-0.28906 0.64453-0.64453 0.64453-0.35547 0-0.64062-0.28906-0.64062-0.64453 0-0.35547 0.28516-0.64063 0.64062-0.64063 0.35547 0 0.64453 0.28516 0.64453 0.64063z" stroke="#000" stroke-miterlimit="10" stroke-width=".3985"/>
<path transform="matrix(1,0,0,-1,124.07,25.771)" d="m5.262 4.7046h11.152" fill="none" stroke="#000" stroke-linecap="round" stroke-miterlimit="10" stroke-width=".59758"/>
<path transform="matrix(1,0,0,-1,124.07,25.771)" d="m5.262 2.2124h11.152" fill="none" stroke="#000" stroke-linecap="round" stroke-miterlimit="10" stroke-width=".59758"/>
<g fill="#dc3445">
<use x="139.243" y="7.265" xlink:href="#c"/>
<use x="146.991" y="7.265" xlink:href="#a"/>
</g>
<g>
<use x="99.004" y="25.771" xlink:href="#b"/>
</g>
<path transform="matrix(1 0 0 -1 102.53 15.863)" d="m0.85081-2.8125e-4c0-0.35547 0.28906-0.64453 0.64453-0.64453s0.64062 0.28906 0.64062 0.64453c0 0.35547-0.28516 0.64453-0.64062 0.64453s-0.64453-0.28906-0.64453-0.64453zm-2.9883 0c0-0.35547 0.28906-0.64453 0.64453-0.64453 0.35547 0 0.64062 0.28906 0.64062 0.64453 0 0.35547-0.28516 0.64453-0.64062 0.64453-0.35547 0-0.64453-0.28906-0.64453-0.64453z" stroke="#000" stroke-miterlimit="10" stroke-width=".3985"/>
<path transform="matrix(1 0 0 -1 102.53 28.76)" d="m-0.85231-0.0017188c0 0.35547-0.28516 0.64453-0.64062 0.64453-0.35547 0-0.64453-0.28906-0.64453-0.64453 0-0.35547 0.28906-0.64063 0.64453-0.64063 0.35547 0 0.64062 0.28516 0.64062 0.64063zm2.9883 0c0 0.35547-0.28516 0.64453-0.64062 0.64453s-0.64453-0.28906-0.64453-0.64453c0-0.35547 0.28906-0.64063 0.64453-0.64063s0.64062 0.28516 0.64062 0.64063z" stroke="#000" stroke-miterlimit="10" stroke-width=".3985"/>
<path transform="matrix(1,0,0,-1,124.07,25.771)" d="m-5.2614 2.2124h-11.156" fill="none" stroke="#000" stroke-linecap="round" stroke-miterlimit="10" stroke-width=".59758"/>
<path transform="matrix(1,0,0,-1,124.07,25.771)" d="m-5.2614 4.7046h-11.156" fill="none" stroke="#000" stroke-linecap="round" stroke-miterlimit="10" stroke-width=".59758"/>
<g fill="#dc3445">
<use x="96.167" y="7.265" xlink:href="#c"/>
<use x="103.916" y="7.265" xlink:href="#a"/>
</g>
</svg>
