<?xml version="1.0" encoding="UTF-8"?>
<svg width="158pt" height="15pt" version="1.1" viewBox="0 0 158 15" xmlns="http://www.w3.org/2000/svg" xmlns:xlink="http://www.w3.org/1999/xlink">
<defs>
<symbol id="c" overflow="visible">
<path d="m5.8594-0.45312-0.0625-0.6875c-0.29688 0.20312-0.57812 0.39062-0.92188 0.5-0.3125 0.10938-0.67188 0.10938-1 0.10938-0.65625 0-1.25-0.34375-1.6562-0.85938-0.45312-0.57812-0.67188-1.3281-0.67188-2.0625 0-0.75 0.21875-1.5 0.67188-2.0938 0.40625-0.5 1-0.85938 1.6562-0.85938 0.29688 0 0.59375 0.03125 0.89062 0.125s0.57812 0.23438 0.84375 0.42188l0.125-0.8125c-0.29688-0.125-0.59375-0.21875-0.92188-0.28125-0.3125-0.0625-0.625-0.078125-0.9375-0.078125-0.89062 0-1.6875 0.39062-2.2812 1.0469-0.60938 0.6875-0.9375 1.5938-0.9375 2.5312 0 0.92188 0.32812 1.8281 0.9375 2.5156 0.59375 0.64062 1.3906 1.0469 2.2812 1.0469 0.34375 0 0.6875-0.015625 1.0312-0.10938s0.64062-0.26562 0.95312-0.45312z"/>
</symbol>
<symbol id="b" overflow="visible">
<path d="m1.5625 0v-6.9219h-0.75v6.9219z"/>
</symbol>
<symbol id="a" overflow="visible">
<path d="m6.7656-3.4375c0-2.0938-1.4375-3.7031-3.0938-3.7031-1.7031 0-3.1094 1.625-3.1094 3.7031 0 2.1094 1.4688 3.6562 3.0938 3.6562 1.6719 0 3.1094-1.5625 3.1094-3.6562zm-0.89062-0.15625c0 1.9531-1.0625 3.1719-2.2031 3.1719-1.1719 0-2.2188-1.25-2.2188-3.1719 0-1.8125 1.0938-2.9062 2.2031-2.9062 1.1562 0 2.2188 1.125 2.2188 2.9062z"/>
</symbol>
</defs>
<g>
<use x="22.012" y="11.022" xlink:href="#c"/>
<use x="28.377105" y="11.022" xlink:href="#b"/>
</g>
<path transform="matrix(1,0,0,-1,26.384,1.115)" d="m0.85038 0.0017188c0-0.35547 0.28906-0.64453 0.64453-0.64453s0.64453 0.28906 0.64453 0.64453c0 0.35547-0.28906 0.64063-0.64453 0.64063s-0.64453-0.28516-0.64453-0.64063zm-2.9883 0c0-0.35547 0.28906-0.64453 0.64453-0.64453s0.64062 0.28906 0.64062 0.64453c0 0.35547-0.28516 0.64063-0.64062 0.64063s-0.64453-0.28516-0.64453-0.64063z" stroke="#000" stroke-miterlimit="10" stroke-width=".3985"/>
<path transform="matrix(1,0,0,-1,26.384,14.011)" d="m-0.85275-7.1875e-4c0 0.35547-0.28516 0.64453-0.64062 0.64453s-0.64453-0.28906-0.64453-0.64453c0-0.35547 0.28906-0.64453 0.64453-0.64453s0.64062 0.28906 0.64062 0.64453zm2.9922 0c0 0.35547-0.28906 0.64453-0.64453 0.64453s-0.64453-0.28906-0.64453-0.64453c0-0.35547 0.28906-0.64453 0.64453-0.64453s0.64453 0.28906 0.64453 0.64453z" stroke="#000" stroke-miterlimit="10" stroke-width=".3985"/>
<g>
<use x="45.099" y="11.022" xlink:href="#a"/>
</g>
<path transform="matrix(1,0,0,-1,48.766,1.115)" d="m0.85119 0.0017188c0-0.35547 0.28906-0.64453 0.64453-0.64453 0.35547 0 0.64062 0.28906 0.64062 0.64453 0 0.35547-0.28516 0.64063-0.64062 0.64063-0.35547 0-0.64453-0.28516-0.64453-0.64063zm-2.9883 0c0-0.35547 0.28906-0.64453 0.64453-0.64453 0.35156 0 0.64062 0.28906 0.64062 0.64453 0 0.35547-0.28906 0.64063-0.64062 0.64063-0.35547 0-0.64453-0.28516-0.64453-0.64063z" stroke="#000" stroke-miterlimit="10" stroke-width=".3985"/>
<path transform="matrix(1,0,0,-1,48.766,14.011)" d="m-0.85194-7.1875e-4c0 0.35547-0.28906 0.64453-0.64062 0.64453-0.35547 0-0.64453-0.28906-0.64453-0.64453 0-0.35547 0.28906-0.64453 0.64453-0.64453 0.35156 0 0.64062 0.28906 0.64062 0.64453zm2.9883 0c0 0.35547-0.28516 0.64453-0.64062 0.64453-0.35547 0-0.64453-0.28906-0.64453-0.64453 0-0.35547 0.28906-0.64453 0.64453-0.64453 0.35547 0 0.64062 0.28906 0.64062 0.64453z" stroke="#000" stroke-miterlimit="10" stroke-width=".3985"/>
<path transform="matrix(1,0,0,-1,26.384,11.022)" d="m5.9676 3.4595h11.152" fill="none" stroke="#000" stroke-linecap="round" stroke-miterlimit="10" stroke-width=".59758"/>
<g>
<use x="0.335" y="11.022" xlink:href="#a"/>
</g>
<path transform="matrix(1,0,0,-1,4.002,1.115)" d="m0.84956 0.0017188c0-0.35547 0.28906-0.64453 0.64453-0.64453 0.35547 0 0.64453 0.28906 0.64453 0.64453 0 0.35547-0.28906 0.64063-0.64453 0.64063-0.35547 0-0.64453-0.28516-0.64453-0.64063zm-2.9883 0c0-0.35547 0.28906-0.64453 0.64453-0.64453 0.35547 0 0.64453 0.28906 0.64453 0.64453 0 0.35547-0.28906 0.64063-0.64453 0.64063-0.35547 0-0.64453-0.28516-0.64453-0.64063z" stroke="#000" stroke-miterlimit="10" stroke-width=".3985"/>
<path transform="matrix(1,0,0,-1,4.002,14.011)" d="m-0.84966-7.1875e-4c0 0.35547-0.28906 0.64453-0.64453 0.64453-0.35547 0-0.64453-0.28906-0.64453-0.64453 0-0.35547 0.28906-0.64453 0.64453-0.64453 0.35547 0 0.64453 0.28906 0.64453 0.64453zm2.9883 0c0 0.35547-0.28906 0.64453-0.64453 0.64453-0.35547 0-0.64453-0.28906-0.64453-0.64453 0-0.35547 0.28906-0.64453 0.64453-0.64453 0.35547 0 0.64453 0.28906 0.64453 0.64453z" stroke="#000" stroke-miterlimit="10" stroke-width=".3985"/>
<path transform="matrix(1,0,0,-1,26.384,11.022)" d="m-5.966 2.2134h-11.156" fill="none" stroke="#000" stroke-linecap="round" stroke-miterlimit="10" stroke-width=".59758"/>
<path transform="matrix(1,0,0,-1,26.384,11.022)" d="m-5.966 4.7056h-11.156" fill="none" stroke="#000" stroke-linecap="round" stroke-miterlimit="10" stroke-width=".59758"/>
<path transform="matrix(1 0 0 -1 .335 11.022)" d="m67.317 2.1431h26.02" fill="none" stroke="#000" stroke-miterlimit="10" stroke-width=".3985"/>
<path transform="matrix(-1 0 0 1 70.361 8.8773)" d="m4.4431 0.0016162-3.2812 1.3125 1.6484-1.3125-1.6484-1.3164z" stroke="#000" stroke-linejoin="round" stroke-miterlimit="10" stroke-width=".3985"/>
<path transform="matrix(1 0 0 -1 90.961 8.8773)" d="m4.4451-0.0016162-3.2852 1.3164 1.6484-1.3164-1.6484-1.3125z" stroke="#000" stroke-linejoin="round" stroke-miterlimit="10" stroke-width=".3985"/>
<g>
<use x="127.243" y="11.022" xlink:href="#c"/>
<use x="133.608105" y="11.022" xlink:href="#b"/>
</g>
<path transform="matrix(1 0 0 -1 131.62 1.115)" d="m0.85275 0.0017188c0-0.35547 0.28516-0.64453 0.64062-0.64453s0.64453 0.28906 0.64453 0.64453c0 0.35547-0.28906 0.64063-0.64453 0.64063s-0.64062-0.28516-0.64062-0.64063zm-2.9922 0c0-0.35547 0.28906-0.64453 0.64453-0.64453 0.35547 0 0.64453 0.28906 0.64453 0.64453 0 0.35547-0.28906 0.64063-0.64453 0.64063-0.35547 0-0.64453-0.28516-0.64453-0.64063z" stroke="#000" stroke-miterlimit="10" stroke-width=".3985"/>
<path transform="matrix(1 0 0 -1 131.62 14.011)" d="m-0.85038-7.1875e-4c0 0.35547-0.28906 0.64453-0.64453 0.64453-0.35547 0-0.64453-0.28906-0.64453-0.64453 0-0.35547 0.28906-0.64453 0.64453-0.64453 0.35547 0 0.64453 0.28906 0.64453 0.64453zm2.9883 0c0 0.35547-0.28906 0.64453-0.64453 0.64453s-0.64062-0.28906-0.64062-0.64453c0-0.35547 0.28516-0.64453 0.64062-0.64453s0.64453 0.28906 0.64453 0.64453z" stroke="#000" stroke-miterlimit="10" stroke-width=".3985"/>
<g>
<use x="150.331" y="11.022" xlink:href="#a"/>
</g>
<path transform="matrix(1 0 0 -1 154 1.115)" d="m0.84966 0.0017188c0-0.35547 0.28906-0.64453 0.64453-0.64453 0.35547 0 0.64453 0.28906 0.64453 0.64453 0 0.35547-0.28906 0.64063-0.64453 0.64063-0.35547 0-0.64453-0.28516-0.64453-0.64063zm-2.9883 0c0-0.35547 0.28906-0.64453 0.64453-0.64453s0.64453 0.28906 0.64453 0.64453c0 0.35547-0.28906 0.64063-0.64453 0.64063s-0.64453-0.28516-0.64453-0.64063z" stroke="#000" stroke-miterlimit="10" stroke-width=".3985"/>
<path transform="matrix(1 0 0 -1 154 14.011)" d="m-0.84956-7.1875e-4c0 0.35547-0.28906 0.64453-0.64453 0.64453s-0.64453-0.28906-0.64453-0.64453c0-0.35547 0.28906-0.64453 0.64453-0.64453s0.64453 0.28906 0.64453 0.64453zm2.9883 0c0 0.35547-0.28906 0.64453-0.64453 0.64453-0.35547 0-0.64453-0.28906-0.64453-0.64453 0-0.35547 0.28906-0.64453 0.64453-0.64453 0.35547 0 0.64453 0.28906 0.64453 0.64453z" stroke="#000" stroke-miterlimit="10" stroke-width=".3985"/>
<path transform="matrix(1 0 0 -1 131.62 11.022)" d="m5.966 4.7056h11.156" fill="none" stroke="#000" stroke-linecap="round" stroke-miterlimit="10" stroke-width=".59758"/>
<path transform="matrix(1 0 0 -1 131.62 11.022)" d="m5.966 2.2134h11.156" fill="none" stroke="#000" stroke-linecap="round" stroke-miterlimit="10" stroke-width=".59758"/>
<g>
<use x="105.567" y="11.022" xlink:href="#a"/>
</g>
<path transform="matrix(1 0 0 -1 109.23 1.115)" d="m0.85194 0.0017188c0-0.35547 0.28906-0.64453 0.64062-0.64453 0.35547 0 0.64453 0.28906 0.64453 0.64453 0 0.35547-0.28906 0.64063-0.64453 0.64063-0.35156 0-0.64062-0.28516-0.64062-0.64063zm-2.9883 0c0-0.35547 0.28516-0.64453 0.64062-0.64453s0.64453 0.28906 0.64453 0.64453c0 0.35547-0.28906 0.64063-0.64453 0.64063s-0.64062-0.28516-0.64062-0.64063z" stroke="#000" stroke-miterlimit="10" stroke-width=".3985"/>
<path transform="matrix(1 0 0 -1 109.23 14.011)" d="m-0.85119-7.1875e-4c0 0.35547-0.28906 0.64453-0.64453 0.64453s-0.64062-0.28906-0.64062-0.64453c0-0.35547 0.28516-0.64453 0.64062-0.64453s0.64453 0.28906 0.64453 0.64453zm2.9883 0c0 0.35547-0.28906 0.64453-0.64453 0.64453-0.35156 0-0.64062-0.28906-0.64062-0.64453 0-0.35547 0.28906-0.64453 0.64062-0.64453 0.35547 0 0.64453 0.28906 0.64453 0.64453z" stroke="#000" stroke-miterlimit="10" stroke-width=".3985"/>
<path transform="matrix(1 0 0 -1 131.62 11.022)" d="m-5.9676 2.2134h-11.152" fill="none" stroke="#000" stroke-linecap="round" stroke-miterlimit="10" stroke-width=".59758"/>
<path transform="matrix(1 0 0 -1 131.62 11.022)" d="m-5.9676 4.7056h-11.152" fill="none" stroke="#000" stroke-linecap="round" stroke-miterlimit="10" stroke-width=".59758"/>
</svg>
