<?xml version="1.0" encoding="UTF-8"?>
<svg width="52pt" height="48pt" version="1.1" viewBox="0 0 52 48" xmlns="http://www.w3.org/2000/svg" xmlns:xlink="http://www.w3.org/1999/xlink">
<defs>
<symbol id="b" overflow="visible">
<path d="m6.0781-1.875c0-0.85938-0.85938-1.5781-1.9219-1.75 0.90625-0.21875 1.6562-0.79688 1.6562-1.5625 0-0.90625-1.0625-1.7344-2.4844-1.7344h-2.3594v6.9219h2.625c1.4375 0 2.4844-0.89062 2.4844-1.875zm-1.0469-3.2969c0 0.59375-0.70312 1.2812-2.0781 1.2812h-1.1562v-2.4688h1.25c1.1094 0 1.9844 0.53125 1.9844 1.1875zm0.25 3.2812c0 0.75-0.89062 1.3281-1.9688 1.3281h-1.5156v-2.7344h1.4375c1.0625 0 2.0469 0.60938 2.0469 1.4062z"/>
</symbol>
<symbol id="a" overflow="visible">
<path d="m5.25-6.2344v-0.65625h-4.3125v6.8906h0.89062v-3.1406h3v-0.60938h-3v-2.5h1.2969c0.125 0 0.25 0.015625 0.35938 0.015625z"/>
</symbol>
</defs>
<g>
<use x="22.679" y="32.526" xlink:href="#b"/>
<use x="23.163" y="11.265" xlink:href="#a"/>
</g>
<path transform="matrix(1,0,0,-1,31.825,7.806)" d="m-7.8125e-4 -0.85025c-0.35547 0-0.64453-0.28906-0.64453-0.64453 0-0.35547 0.28906-0.64453 0.64453-0.64453 0.35547 0 0.64453 0.28906 0.64453 0.64453 0 0.35547-0.28906 0.64453-0.64453 0.64453zm0 2.9883c-0.35547 0-0.64453-0.28906-0.64453-0.64453s0.28906-0.64062 0.64453-0.64062c0.35547 0 0.64453 0.28516 0.64453 0.64062s-0.28906 0.64453-0.64453 0.64453z" stroke="#000" stroke-miterlimit="10" stroke-width=".3985"/>
<path transform="matrix(1,0,0,-1,20.175,7.806)" d="m7.8125e-4 0.85288c0.35547 0 0.64453 0.28516 0.64453 0.64062s-0.28906 0.64453-0.64453 0.64453c-0.35547 0-0.64453-0.28906-0.64453-0.64453s0.28906-0.64062 0.64453-0.64062zm0-2.9922c0.35547 0 0.64453 0.28906 0.64453 0.64453 0 0.35547-0.28906 0.64453-0.64453 0.64453-0.35547 0-0.64453-0.28906-0.64453-0.64453 0-0.35547 0.28906-0.64453 0.64453-0.64453z" stroke="#000" stroke-miterlimit="10" stroke-width=".3985"/>
<path transform="matrix(1,0,0,-1,26,1.358)" d="m0.85156-0.001375c0-0.35547 0.28906-0.64062 0.64453-0.64062 0.35547 0 0.64062 0.28516 0.64062 0.64062s-0.28516 0.64453-0.64062 0.64453c-0.35547 0-0.64453-0.28906-0.64453-0.64453zm-2.9883 0c0-0.35547 0.28516-0.64062 0.64062-0.64062 0.35547 0 0.64453 0.28516 0.64453 0.64062s-0.28906 0.64453-0.64453 0.64453c-0.35547 0-0.64062-0.28906-0.64062-0.64453z" stroke="#000" stroke-miterlimit="10" stroke-width=".3985"/>
<path transform="matrix(1,0,0,-1,26,32.526)" d="m0 8.5143v11.152" fill="none" stroke="#000" stroke-linecap="round" stroke-miterlimit="10" stroke-width=".59758"/>
<g>
<use x="41.742" y="43.253" xlink:href="#a"/>
</g>
<path transform="matrix(1,0,0,-1,47.937,33.977)" d="m0.73878-0.42534c-0.17969-0.30859-0.074218-0.70312 0.23438-0.87891 0.30859-0.17969 0.69922-0.074219 0.87891 0.23438 0.17578 0.30859 0.070312 0.70312-0.23438 0.87891-0.30859 0.17969-0.70312 0.074219-0.87891-0.23438zm-2.5898 1.4961c-0.17969-0.30859-0.074219-0.70312 0.23438-0.87891 0.30859-0.17969 0.70312-0.074219 0.87891 0.23438 0.17969 0.30859 0.074219 0.69922-0.23438 0.87891-0.30859 0.17578-0.70312 0.070312-0.87891-0.23438z" stroke="#000" stroke-miterlimit="10" stroke-width=".3985"/>
<path transform="matrix(1,0,0,-1,49.773,42.792)" d="m-0.42534-0.73534c-0.30859 0.17578-0.70312 0.070313-0.87891-0.23828-0.17969-0.30469-0.074219-0.69922 0.23438-0.87891 0.30859-0.17578 0.70312-0.070313 0.87891 0.23828 0.17969 0.30469 0.074219 0.69922-0.23438 0.87891zm1.4961 2.5859c-0.30859 0.17969-0.70312 0.074218-0.87891-0.23438-0.17969-0.30859-0.074219-0.70312 0.23438-0.87891 0.30859-0.17969 0.69922-0.074218 0.87891 0.23438 0.17578 0.30859 0.070313 0.70312-0.23438 0.87891z" stroke="#000" stroke-miterlimit="10" stroke-width=".3985"/>
<path transform="matrix(1,0,0,-1,41.221,45.61)" d="m-0.73662 0.42641c0.17578 0.30859 0.070313 0.69922-0.23438 0.87891-0.30859 0.17578-0.70312 0.070313-0.87891-0.23828-0.17969-0.30469-0.074219-0.69922 0.23438-0.87891 0.30859-0.17578 0.69922-0.070313 0.87891 0.23828zm2.5898-1.4961c0.17578 0.30859 0.070312 0.70312-0.23828 0.87891-0.30859 0.17969-0.69922 0.074218-0.87891-0.23438-0.17578-0.30859-0.070312-0.70312 0.23828-0.87891 0.30469-0.17969 0.69922-0.074218 0.87891 0.23438z" stroke="#000" stroke-miterlimit="10" stroke-width=".3985"/>
<path transform="matrix(1,0,0,-1,26,32.526)" d="m4.7031 0.74475 9.6602-5.5781" fill="none" stroke="#000" stroke-linecap="round" stroke-miterlimit="10" stroke-width=".59758"/>
<g>
<use x="4.585" y="43.253" xlink:href="#a"/>
</g>
<path transform="matrix(1,0,0,-1,10.779,45.61)" d="m-0.73603-0.42516c-0.17969 0.30859-0.57031 0.41406-0.87891 0.23438-0.30859-0.17578-0.41406-0.57031-0.23828-0.87891 0.17969-0.30859 0.57422-0.41406 0.87891-0.23438 0.30859 0.17578 0.41406 0.57031 0.23828 0.87891zm2.5859 1.4922c-0.17578 0.30859-0.57031 0.41406-0.87891 0.23828-0.30469-0.17969-0.41016-0.57031-0.23438-0.87891 0.17969-0.30859 0.57031-0.41406 0.87891-0.23828 0.30859 0.17969 0.41406 0.57422 0.23438 0.87891z" stroke="#000" stroke-miterlimit="10" stroke-width=".3985"/>
<path transform="matrix(1,0,0,-1,2.227,42.792)" d="m-0.42622 0.73731c0.30859 0.17578 0.41406 0.57031 0.23438 0.87891-0.17578 0.30859-0.57031 0.41406-0.87891 0.23438-0.30469-0.17578-0.41016-0.57031-0.23438-0.87891 0.17969-0.30859 0.57031-0.41406 0.87891-0.23438zm1.4961-2.5898c0.30859 0.17969 0.41406 0.57422 0.23438 0.87891-0.17578 0.30859-0.57031 0.41406-0.87891 0.23828-0.30859-0.17969-0.41406-0.57422-0.23438-0.87891 0.17578-0.30859 0.57031-0.41406 0.87891-0.23828z" stroke="#000" stroke-miterlimit="10" stroke-width=".3985"/>
<path transform="matrix(1,0,0,-1,4.063,33.977)" d="m0.73778 0.42622c0.17578-0.30859 0.57031-0.41406 0.87891-0.23438 0.30859 0.17578 0.41406 0.57031 0.23438 0.87891-0.17578 0.30469-0.57031 0.41016-0.87891 0.23438-0.30859-0.17969-0.41406-0.57031-0.23438-0.87891zm-2.5898-1.4961c0.17969-0.30859 0.57031-0.41406 0.87891-0.23438 0.30859 0.17578 0.41406 0.57031 0.23438 0.87891-0.17578 0.30859-0.57031 0.41406-0.87891 0.23438-0.30469-0.17578-0.41016-0.57031-0.23438-0.87891z" stroke="#000" stroke-miterlimit="10" stroke-width=".3985"/>
<path transform="matrix(1,0,0,-1,26,32.526)" d="m-4.7031 0.74475-9.6602-5.5781" fill="none" stroke="#000" stroke-linecap="round" stroke-miterlimit="10" stroke-width=".59758"/>
</svg>
