<?xml version="1.0" encoding="UTF-8"?>
<svg width="208pt" height="8pt" version="1.1" viewBox="0 0 208 8" xmlns="http://www.w3.org/2000/svg" xmlns:xlink="http://www.w3.org/1999/xlink">
<defs>
<symbol id="c" overflow="visible">
<path d="m6.0938 0v-6.9219h-0.78125v6.2188h-0.015625l-0.65625-1.375-2.4531-4.8438h-1.2344v6.9219h0.78125v-6.2031h0.015625l0.65625 1.3594 2.4531 4.8438z"/>
</symbol>
<symbol id="b" overflow="visible">
<path d="m5.8594-0.45312-0.0625-0.6875c-0.29688 0.20312-0.57812 0.39062-0.92188 0.5-0.3125 0.10938-0.67188 0.10938-1 0.10938-0.65625 0-1.25-0.34375-1.6562-0.85938-0.45312-0.57812-0.67188-1.3281-0.67188-2.0625 0-0.75 0.21875-1.5 0.67188-2.0938 0.40625-0.5 1-0.85938 1.6562-0.85938 0.29688 0 0.59375 0.03125 0.89062 0.125s0.57812 0.23438 0.84375 0.42188l0.125-0.8125c-0.29688-0.125-0.59375-0.21875-0.92188-0.28125-0.3125-0.0625-0.625-0.078125-0.9375-0.078125-0.89062 0-1.6875 0.39062-2.2812 1.0469-0.60938 0.6875-0.9375 1.5938-0.9375 2.5312 0 0.92188 0.32812 1.8281 0.9375 2.5156 0.59375 0.64062 1.3906 1.0469 2.2812 1.0469 0.34375 0 0.6875-0.015625 1.0312-0.10938s0.64062-0.26562 0.95312-0.45312z"/>
</symbol>
<symbol id="a" overflow="visible">
<path d="m4.9688-1.8906c0-0.64062-0.29688-1.125-0.51562-1.3594-0.46875-0.5-0.79688-0.59375-1.7188-0.8125-0.57812-0.14062-0.73438-0.1875-1.0469-0.4375-0.0625-0.0625-0.34375-0.35938-0.34375-0.79688 0-0.57812 0.54688-1.1875 1.4531-1.1875 0.84375 0 1.3125 0.32812 1.6875 0.64062l0.15625-0.79688c-0.54688-0.32812-1.1094-0.5-1.8281-0.5-1.3906 0-2.25 0.98438-2.25 1.9688 0 0.42188 0.14062 0.84375 0.53125 1.2656 0.42188 0.45312 0.85938 0.5625 1.4531 0.70312 0.84375 0.21875 0.9375 0.25 1.2188 0.48438 0.20312 0.17188 0.42188 0.5 0.42188 0.9375 0 0.65625-0.54688 1.3125-1.4531 1.3125-0.40625 0-1.3125-0.09375-2.1406-0.8125l-0.15625 0.8125c0.875 0.54688 1.6719 0.6875 2.2969 0.6875 1.3281 0 2.2344-1 2.2344-2.1094z"/>
</symbol>
</defs>
<g>
<use x="-0.672" y="7.309" xlink:href="#c"/>
<use x="20.728" y="7.309" xlink:href="#b"/>
</g>
<path transform="matrix(1,0,0,-1,2.857,7.309)" d="m5.5492 3.4574h10.301" fill="none" stroke="#cee2fe" stroke-miterlimit="10" stroke-width="3.9851"/>
<g>
<use x="41.436" y="7.309" xlink:href="#a"/>
</g>
<path transform="matrix(1,0,0,-1,2.857,7.309)" d="m26.26 3.4574h10.297" fill="none" stroke="#cee2fe" stroke-miterlimit="10" stroke-width="3.9851"/>
<g>
<use x="80.179" y="7.309" xlink:href="#b"/>
<use x="100.887" y="7.309" xlink:href="#c"/>
</g>
<path transform="matrix(1,0,0,-1,83.362,7.309)" d="m5.2044 3.4574h10.297" fill="none" stroke="#cee2fe" stroke-miterlimit="10" stroke-width="3.9851"/>
<g>
<use x="122.286" y="7.309" xlink:href="#a"/>
</g>
<path transform="matrix(1,0,0,-1,83.362,7.309)" d="m26.603 3.4574h10.301" fill="none" stroke="#cee2fe" stroke-miterlimit="10" stroke-width="3.9851"/>
<g>
<use x="161.03" y="7.309" xlink:href="#b"/>
<use x="181.738" y="7.309" xlink:href="#a"/>
</g>
<path transform="matrix(1 0 0 -1 164.21 7.309)" d="m5.206 3.4574h10.297" fill="none" stroke="#cee2fe" stroke-miterlimit="10" stroke-width="3.9851"/>
<g>
<use x="201.615" y="7.309" xlink:href="#c"/>
</g>
<path transform="matrix(1 0 0 -1 164.21 7.309)" d="m25.085 3.4574h10.297" fill="none" stroke="#cee2fe" stroke-miterlimit="10" stroke-width="3.9851"/>
</svg>
