<?xml version="1.0" encoding="UTF-8"?>
<svg width="80pt" height="54pt" version="1.1" viewBox="0 0 80 54" xmlns="http://www.w3.org/2000/svg" xmlns:xlink="http://www.w3.org/1999/xlink">
<defs>
<symbol id="a" overflow="visible">
<path d="m6.1094 0v-6.9219h-0.89062v3.0312h-3.3906v-3.0312h-0.89062v6.9219h0.89062v-3.2969h3.3906v3.2969z"/>
</symbol>
<symbol id="c" overflow="visible">
<path d="m5.8594-0.45312-0.0625-0.6875c-0.29688 0.20312-0.57812 0.39062-0.92188 0.5-0.3125 0.10938-0.67188 0.10938-1 0.10938-0.65625 0-1.25-0.34375-1.6562-0.85938-0.45312-0.57812-0.67188-1.3281-0.67188-2.0625 0-0.75 0.21875-1.5 0.67188-2.0938 0.40625-0.5 1-0.85938 1.6562-0.85938 0.29688 0 0.59375 0.03125 0.89062 0.125s0.57812 0.23438 0.84375 0.42188l0.125-0.8125c-0.29688-0.125-0.59375-0.21875-0.92188-0.28125-0.3125-0.0625-0.625-0.078125-0.9375-0.078125-0.89062 0-1.6875 0.39062-2.2812 1.0469-0.60938 0.6875-0.9375 1.5938-0.9375 2.5312 0 0.92188 0.32812 1.8281 0.9375 2.5156 0.59375 0.64062 1.3906 1.0469 2.2812 1.0469 0.34375 0 0.6875-0.015625 1.0312-0.10938s0.64062-0.26562 0.95312-0.45312z"/>
</symbol>
<symbol id="b" overflow="visible">
<path d="m6.7656-3.4375c0-2.0938-1.4375-3.7031-3.0938-3.7031-1.7031 0-3.1094 1.625-3.1094 3.7031 0 2.1094 1.4688 3.6562 3.0938 3.6562 1.6719 0 3.1094-1.5625 3.1094-3.6562zm-0.89062-0.15625c0 1.9531-1.0625 3.1719-2.2031 3.1719-1.1719 0-2.2188-1.25-2.2188-3.1719 0-1.8125 1.0938-2.9062 2.2031-2.9062 1.1562 0 2.2188 1.125 2.2188 2.9062z"/>
</symbol>
</defs>
<g>
<use x="-0.761" y="30.605" xlink:href="#a"/>
<use x="20.638" y="30.605" xlink:href="#c"/>
</g>
<path transform="matrix(1,0,0,-1,2.767,30.605)" d="m5.1236 3.4605h11.152" fill="none" stroke="#000" stroke-linecap="round" stroke-miterlimit="10" stroke-width=".59758"/>
<g>
<use x="31.459" y="11.265" xlink:href="#a"/>
</g>
<path transform="matrix(1,0,0,-1,2.767,30.605)" d="m23.846 8.3003 5.5781 9.6602" fill="none" stroke="#000" stroke-linecap="round" stroke-miterlimit="10" stroke-width=".59758"/>
<g>
<use x="31.459" y="49.944" xlink:href="#a"/>
</g>
<path transform="matrix(1,0,0,-1,2.767,30.605)" d="m23.846-1.3794 5.5781-9.6602" fill="none" stroke="#000" stroke-linecap="round" stroke-miterlimit="10" stroke-width=".59758"/>
<g>
<use x="41.346" y="30.605" xlink:href="#c"/>
</g>
<path transform="matrix(1,0,0,-1,2.767,30.605)" d="m25.831 3.4605h11.156" fill="none" stroke="#000" stroke-linecap="round" stroke-miterlimit="10" stroke-width=".59758"/>
<g>
<use x="52.028" y="11.265" xlink:href="#b"/>
</g>
<path transform="matrix(1,0,0,-1,61.852,7.806)" d="m-4.375e-4 -0.85025c-0.35547 0-0.64453-0.28906-0.64453-0.64453s0.28906-0.64453 0.64453-0.64453 0.64453 0.28906 0.64453 0.64453-0.28906 0.64453-0.64453 0.64453zm0 2.9883c-0.35547 0-0.64453-0.28906-0.64453-0.64453s0.28906-0.64062 0.64453-0.64062 0.64453 0.28516 0.64453 0.64062-0.28906 0.64453-0.64453 0.64453z" stroke="#000" stroke-miterlimit="10" stroke-width=".3985"/>
<path transform="matrix(1,0,0,-1,52.337,1.989)" d="m0.73722 0.4265c0.17578-0.30859 0.57031-0.41406 0.87891-0.23828 0.30859 0.17969 0.41406 0.57422 0.23438 0.87891-0.17578 0.30859-0.57031 0.41406-0.87891 0.23828-0.30859-0.17969-0.41406-0.57031-0.23438-0.87891zm-2.5898-1.4961c0.17969-0.30859 0.57422-0.41406 0.87891-0.23438 0.30859 0.17578 0.41406 0.57031 0.23828 0.87891-0.17969 0.30859-0.57422 0.41406-0.87891 0.23438-0.30859-0.17578-0.41406-0.57031-0.23828-0.87891z" stroke="#000" stroke-miterlimit="10" stroke-width=".3985"/>
<path transform="matrix(1,0,0,-1,2.767,30.605)" d="m43.479 8.9214 5.5781 9.6602" fill="none" stroke="#000" stroke-linecap="round" stroke-miterlimit="10" stroke-width=".59758"/>
<path transform="matrix(1,0,0,-1,2.767,30.605)" d="m45.635 7.6753 5.5781 9.6602" fill="none" stroke="#000" stroke-linecap="round" stroke-miterlimit="10" stroke-width=".59758"/>
<g>
<use x="52.028" y="49.944" xlink:href="#b"/>
</g>
<path transform="matrix(1,0,0,-1,57.28,52.401)" d="m-0.82297-0.22009c-0.089844 0.34375-0.44531 0.54688-0.78516 0.45312-0.34375-0.089843-0.54688-0.44141-0.45703-0.78516 0.09375-0.34375 0.44531-0.54688 0.78906-0.45703 0.34375 0.09375 0.54688 0.44531 0.45312 0.78906zm2.8867 0.77344c-0.089844 0.34375-0.44531 0.54688-0.78516 0.45312-0.34375-0.089844-0.54688-0.44141-0.45703-0.78516 0.09375-0.34375 0.44531-0.54688 0.78906-0.45703 0.34375 0.09375 0.54688 0.44531 0.45312 0.78906z" stroke="#000" stroke-miterlimit="10" stroke-width=".3985"/>
<path transform="matrix(1,0,0,-1,49.571,48.126)" d="m-0.21944 0.82131c0.34375 0.09375 0.54688 0.44531 0.45312 0.78906-0.089844 0.34375-0.44531 0.54688-0.78516 0.45312-0.34375-0.089844-0.54688-0.44141-0.45703-0.78516 0.09375-0.34375 0.44531-0.54688 0.78906-0.45703zm0.77344-2.8867c0.34375 0.09375 0.54688 0.44531 0.45312 0.78906-0.089844 0.34375-0.44531 0.54688-0.78516 0.45312-0.34375-0.089843-0.54688-0.44531-0.45703-0.78516 0.09375-0.34375 0.44531-0.54688 0.78906-0.45703z" stroke="#000" stroke-miterlimit="10" stroke-width=".3985"/>
<path transform="matrix(1,0,0,-1,2.767,30.605)" d="m44.557-1.3794 5.5781-9.6602" fill="none" stroke="#000" stroke-linecap="round" stroke-miterlimit="10" stroke-width=".59758"/>
<g>
<use x="73.704" y="49.944" xlink:href="#a"/>
</g>
<path transform="matrix(1,0,0,-1,2.767,30.605)" d="m58.19-15.879h11.152" fill="none" stroke="#000" stroke-linecap="round" stroke-miterlimit="10" stroke-width=".59758"/>
</svg>
