<?xml version="1.0" encoding="UTF-8"?>
<svg width="154pt" height="27pt" version="1.1" viewBox="0 0 154 27" xmlns="http://www.w3.org/2000/svg" xmlns:xlink="http://www.w3.org/1999/xlink">
<defs>
<symbol id="a" overflow="visible">
<path d="m6.7656-3.4375c0-2.0938-1.4375-3.7031-3.0938-3.7031-1.7031 0-3.1094 1.625-3.1094 3.7031 0 2.1094 1.4688 3.6562 3.0938 3.6562 1.6719 0 3.1094-1.5625 3.1094-3.6562zm-0.89062-0.15625c0 1.9531-1.0625 3.1719-2.2031 3.1719-1.1719 0-2.2188-1.25-2.2188-3.1719 0-1.8125 1.0938-2.9062 2.2031-2.9062 1.1562 0 2.2188 1.125 2.2188 2.9062z"/>
</symbol>
</defs>
<g>
<use x="5.251" y="22.671" xlink:href="#a"/>
</g>
<path transform="matrix(1,0,0,-1,8.917,25.659)" d="m-0.85059-0.0011562c0 0.35547-0.28906 0.64453-0.64453 0.64453s-0.64453-0.28906-0.64453-0.64453c0-0.35547 0.28906-0.64062 0.64453-0.64062s0.64453 0.28516 0.64453 0.64062zm2.9883 0c0 0.35547-0.28906 0.64453-0.64453 0.64453s-0.64062-0.28906-0.64062-0.64453c0-0.35547 0.28516-0.64062 0.64062-0.64062s0.64453 0.28516 0.64453 0.64062z" stroke="#000" stroke-miterlimit="10" stroke-width=".3985"/>
<path transform="matrix(1,0,0,-1,2.462,15.484)" d="m0.42472 0.73791c0.30859-0.17969 0.70312-0.074218 0.87891 0.23438 0.17969 0.30859 0.074219 0.70312-0.23438 0.87891-0.30859 0.17969-0.70312 0.074218-0.87891-0.23438-0.17969-0.30859-0.074219-0.70312 0.23438-0.87891zm-1.4922-2.5898c0.30469-0.17578 0.69922-0.070313 0.87891 0.23438 0.17578 0.30859 0.070313 0.70312-0.23828 0.87891-0.30469 0.17969-0.69922 0.074219-0.87891-0.23438-0.17578-0.30859-0.070313-0.69922 0.23828-0.87891z" stroke="#000" stroke-miterlimit="10" stroke-width=".3985"/>
<g>
<use x="25.005" y="11.265" xlink:href="#a"/>
</g>
<path transform="matrix(1,0,0,-1,28.672,1.358)" d="m0.85144-0.001375c0-0.35547 0.28906-0.64062 0.64453-0.64062 0.35547 0 0.64062 0.28516 0.64062 0.64062s-0.28516 0.64453-0.64062 0.64453c-0.35547 0-0.64453-0.28906-0.64453-0.64453zm-2.9883 0c0-0.35547 0.28516-0.64062 0.64062-0.64062s0.64453 0.28516 0.64453 0.64062-0.28906 0.64453-0.64453 0.64453-0.64062-0.28906-0.64062-0.64453z" stroke="#000" stroke-miterlimit="10" stroke-width=".3985"/>
<path transform="matrix(1,0,0,-1,8.917,22.671)" d="m4.4228 7.4522 9.6641 5.5781" fill="none" stroke="#000" stroke-linecap="round" stroke-miterlimit="10" stroke-width=".59758"/>
<path transform="matrix(1,0,0,-1,8.917,22.671)" d="m5.6689 5.296 9.6602 5.5781" fill="none" stroke="#000" stroke-linecap="round" stroke-miterlimit="10" stroke-width=".59758"/>
<g>
<use x="44.76" y="22.671" xlink:href="#a"/>
</g>
<path transform="matrix(1,0,0,-1,51.785,13.395)" d="m0.73844-0.42531c-0.17969-0.30859-0.074218-0.70312 0.23438-0.87891 0.30859-0.17969 0.69922-0.074218 0.87891 0.23438 0.17578 0.30859 0.070312 0.70312-0.23438 0.87891-0.30859 0.17969-0.70312 0.074218-0.87891-0.23438zm-2.5898 1.4961c-0.17578-0.30859-0.070313-0.70312 0.23438-0.87891 0.30859-0.17969 0.70312-0.074219 0.87891 0.23438 0.17969 0.30859 0.074219 0.69922-0.23438 0.87891-0.30859 0.17578-0.70312 0.070313-0.87891-0.23438z" stroke="#000" stroke-miterlimit="10" stroke-width=".3985"/>
<path transform="matrix(1,0,0,-1,54.451,22.689)" d="m-0.42366-0.73678c-0.30859 0.17578-0.70312 0.070312-0.87891-0.23438-0.17969-0.30859-0.074218-0.70312 0.23438-0.87891 0.30859-0.17969 0.69922-0.074219 0.87891 0.23438 0.17578 0.30859 0.070312 0.69922-0.23438 0.87891zm1.4922 2.5898c-0.30859 0.17578-0.69922 0.070312-0.87891-0.23828-0.17578-0.30859-0.070313-0.69922 0.23438-0.87891 0.30859-0.17578 0.70312-0.070312 0.87891 0.23828 0.17969 0.30469 0.074219 0.69922-0.23438 0.87891z" stroke="#000" stroke-miterlimit="10" stroke-width=".3985"/>
<path transform="matrix(1,0,0,-1,45.068,25.028)" d="m-0.73597 0.42644c0.17578 0.30859 0.070313 0.69922-0.23828 0.87891-0.30469 0.17578-0.69922 0.070312-0.87891-0.23828-0.17578-0.30469-0.070313-0.69922 0.23828-0.87891 0.30859-0.17578 0.69922-0.070312 0.87891 0.23828zm2.5859-1.4961c0.17969 0.30859 0.074218 0.70312-0.23438 0.87891-0.30859 0.17969-0.69922 0.074219-0.87891-0.23438-0.17578-0.30859-0.070312-0.70312 0.23438-0.87891 0.30859-0.17969 0.70312-0.074219 0.87891 0.23438z" stroke="#000" stroke-miterlimit="10" stroke-width=".3985"/>
<path transform="matrix(1,0,0,-1,8.917,22.671)" d="m24.802 11.952 9.6602-5.5781" fill="none" stroke="#000" stroke-linecap="round" stroke-miterlimit="10" stroke-width=".59758"/>
<path transform="matrix(1,0,0,-1,5.251,22.671)" d="m58.741 9.1632h26.02" fill="none" stroke="#000" stroke-miterlimit="10" stroke-width=".3985"/>
<path transform="matrix(-1 0 0 1 66.701 13.509)" d="m4.4435-0.0010275-3.2812 1.3164 1.6484-1.3164-1.6484-1.3164z" stroke="#000" stroke-linejoin="round" stroke-miterlimit="10" stroke-width=".3985"/>
<path transform="matrix(1 0 0 -1 87.301 13.509)" d="m4.4447 0.0010275-3.2812 1.3164 1.6445-1.3164-1.6445-1.3164z" stroke="#000" stroke-linejoin="round" stroke-miterlimit="10" stroke-width=".3985"/>
<g>
<use x="101.907" y="22.671" xlink:href="#a"/>
</g>
<path transform="matrix(1 0 0 -1 102.22 13.395)" d="m0.73812 0.42625c0.17578-0.30859 0.57031-0.41406 0.87891-0.23438 0.30469 0.17578 0.41016 0.57031 0.23438 0.87891-0.17578 0.30469-0.57031 0.41016-0.87891 0.23438-0.30859-0.17969-0.41406-0.57031-0.23438-0.87891zm-2.5898-1.4961c0.17969-0.30859 0.57031-0.41406 0.87891-0.23438 0.30859 0.17578 0.41406 0.57031 0.23438 0.87891-0.17578 0.30859-0.57031 0.41406-0.87891 0.23438-0.30469-0.17578-0.41016-0.57031-0.23438-0.87891z" stroke="#000" stroke-miterlimit="10" stroke-width=".3985"/>
<path transform="matrix(1,0,0,-1,99.549,22.689)" d="m-0.424 0.73588c0.30469 0.17969 0.41016 0.57422 0.23438 0.87891-0.17969 0.30859-0.57031 0.41406-0.87891 0.23828-0.30859-0.17969-0.41406-0.57422-0.23438-0.87891 0.17578-0.30859 0.57031-0.41406 0.87891-0.23828zm1.4922-2.5859c0.30859 0.17578 0.41406 0.57031 0.23438 0.87891-0.17578 0.30469-0.57031 0.41016-0.87891 0.23438-0.30469-0.17969-0.41016-0.57031-0.23438-0.87891 0.17969-0.30859 0.57031-0.41406 0.87891-0.23438z" stroke="#000" stroke-miterlimit="10" stroke-width=".3985"/>
<path transform="matrix(1 0 0 -1 108.93 25.028)" d="m-0.73669-0.42512c-0.17969 0.30859-0.57031 0.41406-0.87891 0.23438-0.30859-0.17578-0.41406-0.57031-0.23438-0.87891 0.17578-0.30859 0.57031-0.41406 0.87891-0.23438 0.30469 0.17578 0.41016 0.57031 0.23438 0.87891zm2.5898 1.4922c-0.17969 0.30859-0.57422 0.41406-0.87891 0.23828-0.30859-0.17969-0.41406-0.57031-0.23828-0.87891 0.17969-0.30859 0.57031-0.41406 0.87891-0.23828 0.30859 0.17969 0.41406 0.57422 0.23828 0.87891z" stroke="#000" stroke-miterlimit="10" stroke-width=".3985"/>
<g>
<use x="121.661" y="11.265" xlink:href="#a"/>
</g>
<path transform="matrix(1 0 0 -1 125.33 1.358)" d="m0.85169-0.001375c0-0.35547 0.28906-0.64062 0.64453-0.64062s0.64062 0.28516 0.64062 0.64062-0.28516 0.64453-0.64062 0.64453-0.64453-0.28906-0.64453-0.64453zm-2.9883 0c0-0.35547 0.28516-0.64062 0.64062-0.64062 0.35547 0 0.64453 0.28516 0.64453 0.64062s-0.28906 0.64453-0.64453 0.64453c-0.35547 0-0.64062-0.28906-0.64062-0.64453z" stroke="#000" stroke-miterlimit="10" stroke-width=".3985"/>
<path transform="matrix(1 0 0 -1 105.57 22.671)" d="m5.0481 6.3741 9.6602 5.5781" fill="none" stroke="#000" stroke-linecap="round" stroke-miterlimit="10" stroke-width=".59758"/>
<g>
<use x="141.416" y="22.671" xlink:href="#a"/>
</g>
<path transform="matrix(1 0 0 -1 145.08 25.659)" d="m-0.85253-0.0011562c0 0.35547-0.28516 0.64453-0.64062 0.64453s-0.64453-0.28906-0.64453-0.64453c0-0.35547 0.28906-0.64062 0.64453-0.64062s0.64062 0.28516 0.64062 0.64062zm2.9922 0c0 0.35547-0.28906 0.64453-0.64453 0.64453s-0.64453-0.28906-0.64453-0.64453c0-0.35547 0.28906-0.64062 0.64453-0.64062s0.64453 0.28516 0.64453 0.64062z" stroke="#000" stroke-miterlimit="10" stroke-width=".3985"/>
<path transform="matrix(1 0 0 -1 151.54 15.484)" d="m0.42684-0.73866c-0.30859-0.17578-0.41406-0.57031-0.23828-0.87891 0.17969-0.30469 0.57422-0.41016 0.87891-0.23438 0.30859 0.17969 0.41406 0.57031 0.23828 0.87891-0.17969 0.30859-0.57422 0.41406-0.87891 0.23438zm-1.4961 2.5898c-0.30859-0.17578-0.41406-0.57031-0.23438-0.87891 0.17578-0.30859 0.57031-0.41406 0.87891-0.23438 0.30859 0.17578 0.41406 0.57031 0.23438 0.87891-0.17578 0.30859-0.57031 0.41406-0.87891 0.23438z" stroke="#000" stroke-miterlimit="10" stroke-width=".3985"/>
<path transform="matrix(1 0 0 -1 105.57 22.671)" d="m25.423 13.03 9.6641-5.5781" fill="none" stroke="#000" stroke-linecap="round" stroke-miterlimit="10" stroke-width=".59758"/>
<path transform="matrix(1 0 0 -1 105.57 22.671)" d="m24.181 10.874 9.6602-5.5781" fill="none" stroke="#000" stroke-linecap="round" stroke-miterlimit="10" stroke-width=".59758"/>
</svg>
