<?xml version="1.0" encoding="UTF-8"?>
<svg width="45pt" height="27pt" version="1.1" viewBox="0 0 45 27" xmlns="http://www.w3.org/2000/svg" xmlns:xlink="http://www.w3.org/1999/xlink">
<defs>
<symbol id="b" overflow="visible">
<path d="m4.9688-1.8906c0-0.64062-0.29688-1.125-0.51562-1.3594-0.46875-0.5-0.79688-0.59375-1.7188-0.8125-0.57812-0.14062-0.73438-0.1875-1.0469-0.4375-0.0625-0.0625-0.34375-0.35938-0.34375-0.79688 0-0.57812 0.54688-1.1875 1.4531-1.1875 0.84375 0 1.3125 0.32812 1.6875 0.64062l0.15625-0.79688c-0.54688-0.32812-1.1094-0.5-1.8281-0.5-1.3906 0-2.25 0.98438-2.25 1.9688 0 0.42188 0.14062 0.84375 0.53125 1.2656 0.42188 0.45312 0.85938 0.5625 1.4531 0.70312 0.84375 0.21875 0.9375 0.25 1.2188 0.48438 0.20312 0.17188 0.42188 0.5 0.42188 0.9375 0 0.65625-0.54688 1.3125-1.4531 1.3125-0.40625 0-1.3125-0.09375-2.1406-0.8125l-0.15625 0.8125c0.875 0.54688 1.6719 0.6875 2.2969 0.6875 1.3281 0 2.2344-1 2.2344-2.1094z"/>
</symbol>
<symbol id="a" overflow="visible">
<path d="m5.25-6.2344v-0.65625h-4.3125v6.8906h0.89062v-3.1406h3v-0.60938h-3v-2.5h1.2969c0.125 0 0.25 0.015625 0.35938 0.015625z"/>
</symbol>
</defs>
<g>
<use x="19.233" y="7.309" xlink:href="#b"/>
<use x="39.11" y="7.309" xlink:href="#a"/>
<path d="m30.527 3.8516c0-0.45312-0.36719-0.82031-0.82031-0.82031s-0.81641 0.36719-0.81641 0.82031c0 0.44922 0.36328 0.81641 0.81641 0.81641s0.82031-0.36719 0.82031-0.81641z"/>
<path d="m34.988 3.8516c0-0.45312-0.36719-0.82031-0.82031-0.82031-0.44922 0-0.81641 0.36719-0.81641 0.82031 0 0.44922 0.36719 0.81641 0.81641 0.81641 0.45312 0 0.82031-0.36719 0.82031-0.81641z"/>
<use x="-0.783" y="7.309" xlink:href="#a"/>
<path d="m15.109 3.8516c0-0.45312-0.36328-0.82031-0.81641-0.82031s-0.82031 0.36719-0.82031 0.82031c0 0.44922 0.36719 0.81641 0.82031 0.81641s0.81641-0.36719 0.81641-0.81641z"/>
<path d="m10.648 3.8516c0-0.45312-0.36719-0.82031-0.81641-0.82031-0.45312 0-0.82031 0.36719-0.82031 0.82031 0 0.44922 0.36719 0.81641 0.82031 0.81641 0.44922 0 0.81641-0.36719 0.81641-0.81641z"/>
<use x="30.329" y="26.649" xlink:href="#a"/>
<path d="m27.285 11.586c0-0.44922-0.36719-0.81641-0.81641-0.81641-0.45312 0-0.82031 0.36719-0.82031 0.81641 0 0.45312 0.36719 0.82031 0.82031 0.82031 0.44922 0 0.81641-0.36719 0.81641-0.82031z"/>
<path d="m29.516 15.453c0-0.45312-0.36328-0.82031-0.81641-0.82031s-0.82031 0.36719-0.82031 0.82031c0 0.44922 0.36719 0.81641 0.82031 0.81641s0.81641-0.36719 0.81641-0.81641z"/>
<use x="7.997" y="26.649" xlink:href="#a"/>
<path d="m18.352 11.586c0-0.44922-0.36719-0.81641-0.82031-0.81641-0.44922 0-0.81641 0.36719-0.81641 0.81641 0 0.45312 0.36719 0.82031 0.81641 0.82031 0.45312 0 0.82031-0.36719 0.82031-0.82031z"/>
<path d="m16.121 15.453c0-0.45312-0.36719-0.82031-0.82031-0.82031s-0.81641 0.36719-0.81641 0.82031c0 0.44922 0.36328 0.81641 0.81641 0.81641s0.82031-0.36719 0.82031-0.81641z"/>
</g>
</svg>
