<?xml version="1.0" encoding="UTF-8"?>
<svg width="209pt" height="46pt" version="1.1" viewBox="0 0 209 46" xmlns="http://www.w3.org/2000/svg" xmlns:xlink="http://www.w3.org/1999/xlink">
<defs>
<symbol id="b" overflow="visible">
<path d="m6.1094 0v-6.9219h-0.89062v3.0312h-3.3906v-3.0312h-0.89062v6.9219h0.89062v-3.2969h3.3906v3.2969z"/>
</symbol>
<symbol id="a" overflow="visible">
<path d="m6.7656-3.4375c0-2.0938-1.4375-3.7031-3.0938-3.7031-1.7031 0-3.1094 1.625-3.1094 3.7031 0 2.1094 1.4688 3.6562 3.0938 3.6562 1.6719 0 3.1094-1.5625 3.1094-3.6562zm-0.89062-0.15625c0 1.9531-1.0625 3.1719-2.2031 3.1719-1.1719 0-2.2188-1.25-2.2188-3.1719 0-1.8125 1.0938-2.9062 2.2031-2.9062 1.1562 0 2.2188 1.125 2.2188 2.9062z"/>
</symbol>
<symbol id="d" overflow="visible">
<path d="m5.8594-0.45312-0.0625-0.6875c-0.29688 0.20312-0.57812 0.39062-0.92188 0.5-0.3125 0.10938-0.67188 0.10938-1 0.10938-0.65625 0-1.25-0.34375-1.6562-0.85938-0.45312-0.57812-0.67188-1.3281-0.67188-2.0625 0-0.75 0.21875-1.5 0.67188-2.0938 0.40625-0.5 1-0.85938 1.6562-0.85938 0.29688 0 0.59375 0.03125 0.89062 0.125s0.57812 0.23438 0.84375 0.42188l0.125-0.8125c-0.29688-0.125-0.59375-0.21875-0.92188-0.28125-0.3125-0.0625-0.625-0.078125-0.9375-0.078125-0.89062 0-1.6875 0.39062-2.2812 1.0469-0.60938 0.6875-0.9375 1.5938-0.9375 2.5312 0 0.92188 0.32812 1.8281 0.9375 2.5156 0.59375 0.64062 1.3906 1.0469 2.2812 1.0469 0.34375 0 0.6875-0.015625 1.0312-0.10938s0.64062-0.26562 0.95312-0.45312z"/>
</symbol>
<symbol id="c" overflow="visible">
<path d="m6.0938 0v-6.9219h-0.78125v6.2188h-0.015625l-0.65625-1.375-2.4531-4.8438h-1.2344v6.9219h0.78125v-6.2031h0.015625l0.65625 1.3594 2.4531 4.8438z"/>
</symbol>
</defs>
<g>
<use x="-0.296" y="41.572" xlink:href="#b"/>
<use x="19.181" y="30.247" xlink:href="#a"/>
<path transform="matrix(1,0,0,-1,28.506,21.13)" d="m0.60338-0.60047c-0.25391-0.25391-0.25391-0.66016 0-0.91016 0.25-0.25391 0.65625-0.25391 0.91016 0 0.25 0.25 0.25 0.65625 0 0.91016-0.25391 0.25-0.66016 0.25-0.91016 0zm-2.1133 2.1133c-0.25391-0.25391-0.25391-0.66016 0-0.91016 0.25-0.25391 0.65625-0.25391 0.90625 0 0.25391 0.25 0.25391 0.65625 0 0.91016-0.25 0.25-0.65625 0.25-0.90625 0z" stroke="#000" stroke-miterlimit="10" stroke-width=".3985"/>
<path transform="matrix(1,0,0,-1,17.19,21.13)" d="m0.60297 0.60266c0.25-0.25391 0.65625-0.25391 0.91016 0 0.25 0.25 0.25 0.65625 0 0.91016-0.25391 0.25-0.66016 0.25-0.91016 0-0.25391-0.25391-0.25391-0.66016 0-0.91016zm-2.1133-2.1133c0.25-0.25391 0.65625-0.25391 0.91016 0 0.25 0.25 0.25 0.65625 0 0.91016-0.25391 0.25-0.66016 0.25-0.91016 0-0.25391-0.25391-0.25391-0.66016 0-0.91016z" stroke="#000" stroke-miterlimit="10" stroke-width=".3985"/>
<path d="m11.859 33.605c0-0.45312-0.36719-0.82031-0.82031-0.82031-0.45312 0-0.82031 0.36719-0.82031 0.82031s0.36719 0.82031 0.82031 0.82031c0.45313 0 0.82031-0.36719 0.82031-0.82031z"/>
<path d="m15.723 31.375c0-0.45312-0.36719-0.82031-0.82031-0.82031s-0.81641 0.36719-0.81641 0.82031 0.36328 0.81641 0.81641 0.81641 0.82031-0.36328 0.82031-0.81641z"/>
<use x="38.936" y="41.572" xlink:href="#b"/>
<path d="m31.613 31.375c0-0.45312-0.36719-0.82031-0.82031-0.82031s-0.81641 0.36719-0.81641 0.82031 0.36328 0.81641 0.81641 0.81641 0.82031-0.36328 0.82031-0.81641z"/>
<path d="m35.477 33.605c0-0.45312-0.36719-0.82031-0.82031-0.82031-0.44922 0-0.81641 0.36719-0.81641 0.82031s0.36719 0.82031 0.81641 0.82031c0.45312 0 0.82031-0.36719 0.82031-0.82031z"/>
<use x="79.201" y="41.572" xlink:href="#b"/>
<use x="98.679" y="30.526" xlink:href="#d"/>
<path d="m91.355 33.605c0-0.45312-0.36719-0.82031-0.82031-0.82031-0.44922 0-0.81641 0.36719-0.81641 0.82031s0.36719 0.82031 0.81641 0.82031c0.45312 0 0.82031-0.36719 0.82031-0.82031z"/>
<path d="m95.219 31.375c0-0.45312-0.36719-0.82031-0.81641-0.82031-0.45312 0-0.82031 0.36719-0.82031 0.82031s0.36719 0.81641 0.82031 0.81641c0.44922 0 0.81641-0.36328 0.81641-0.81641z"/>
<use x="98.195" y="9.265" xlink:href="#a"/>
<path transform="matrix(1 0 0 -1 107.89 2.328)" d="m0.4265-0.73841c-0.30859-0.17578-0.41406-0.57031-0.23828-0.87891 0.17969-0.30469 0.57422-0.41016 0.87891-0.23438 0.30859 0.17969 0.41406 0.57031 0.23828 0.87891-0.17969 0.30859-0.57031 0.41406-0.87891 0.23438zm-1.4961 2.5898c-0.30859-0.17578-0.41406-0.57031-0.23438-0.87891 0.17578-0.30859 0.57031-0.41406 0.87891-0.23438 0.30859 0.17578 0.41406 0.57031 0.23438 0.87891-0.17578 0.30469-0.57031 0.41016-0.87891 0.23438z" stroke="#000" stroke-miterlimit="10" stroke-width=".3985"/>
<path transform="matrix(1,0,0,-1,95.838,2.328)" d="m0.42372 0.73816c0.30859-0.17969 0.70312-0.074218 0.87891 0.23438 0.17969 0.30859 0.074219 0.70312-0.23438 0.87891-0.30859 0.17578-0.69922 0.070312-0.87891-0.23438-0.17578-0.30859-0.070313-0.70312 0.23438-0.87891zm-1.4922-2.5898c0.30859-0.17578 0.69922-0.070313 0.87891 0.23438 0.17578 0.30859 0.070313 0.70312-0.23438 0.87891-0.30859 0.17969-0.70312 0.074219-0.87891-0.23438-0.17969-0.30859-0.074219-0.69922 0.23438-0.87891z" stroke="#000" stroke-miterlimit="10" stroke-width=".3985"/>
<path d="m101.19 18.668c0-0.45312-0.36719-0.82031-0.82031-0.82031-0.45313 0-0.81641 0.36719-0.81641 0.82031s0.36328 0.81641 0.81641 0.81641c0.45312 0 0.82031-0.36328 0.82031-0.81641z"/>
<path d="m104.18 18.668c0-0.45312-0.36719-0.82031-0.82031-0.82031-0.44922 0-0.81641 0.36719-0.81641 0.82031s0.36719 0.81641 0.81641 0.81641c0.45312 0 0.82031-0.36328 0.82031-0.81641z"/>
<path d="m101.19 14.203c0-0.44922-0.36719-0.81641-0.82031-0.81641-0.45313 0-0.81641 0.36719-0.81641 0.81641 0 0.45312 0.36328 0.82031 0.81641 0.82031 0.45312 0 0.82031-0.36719 0.82031-0.82031z"/>
<path d="m104.18 14.203c0-0.44922-0.36719-0.81641-0.82031-0.81641-0.44922 0-0.81641 0.36719-0.81641 0.81641 0 0.45312 0.36719 0.82031 0.81641 0.82031 0.45312 0 0.82031-0.36719 0.82031-0.82031z"/>
<use x="117.465" y="41.572" xlink:href="#b"/>
<path d="m110.14 31.375c0-0.45312-0.36328-0.82031-0.81641-0.82031s-0.82031 0.36719-0.82031 0.82031 0.36719 0.81641 0.82031 0.81641 0.81641-0.36328 0.81641-0.81641z"/>
<path d="m114.01 33.605c0-0.45312-0.36719-0.82031-0.82031-0.82031s-0.82031 0.36719-0.82031 0.82031 0.36719 0.82031 0.82031 0.82031 0.82031-0.36719 0.82031-0.82031z"/>
<use x="157.731" y="41.572" xlink:href="#a"/>
<path transform="matrix(1 0 0 -1 161.4 44.561)" d="m-0.85012-0.0015c0 0.35547-0.28906 0.64453-0.64453 0.64453s-0.64453-0.28906-0.64453-0.64453 0.28906-0.64062 0.64453-0.64062 0.64453 0.28516 0.64453 0.64062zm2.9883 0c0 0.35547-0.28906 0.64453-0.64453 0.64453s-0.64453-0.28906-0.64453-0.64453 0.28906-0.64062 0.64453-0.64062 0.64453 0.28516 0.64453 0.64062z" stroke="#000" stroke-miterlimit="10" stroke-width=".3985"/>
<path transform="matrix(1 0 0 -1 154.94 34.386)" d="m0.42519 0.73756c0.30859-0.17969 0.70312-0.074219 0.87891 0.23438 0.17969 0.30859 0.074218 0.70312-0.23438 0.87891-0.30859 0.17969-0.70312 0.074219-0.87891-0.23438-0.17969-0.30859-0.074218-0.70312 0.23438-0.87891zm-1.4922-2.5898c0.30469-0.17578 0.69922-0.070313 0.87891 0.23828 0.17578 0.30469 0.070313 0.69922-0.23828 0.87891-0.30859 0.17578-0.69922 0.070313-0.87891-0.23828-0.17578-0.30859-0.070313-0.69922 0.23828-0.87891z" stroke="#000" stroke-miterlimit="10" stroke-width=".3985"/>
<use x="177.485" y="30.247" xlink:href="#c"/>
<path transform="matrix(1 0 0 -1 181.01 20.339)" d="m0.84928-8.4375e-4c0-0.35547 0.28906-0.64063 0.64453-0.64063 0.35547 0 0.64453 0.28516 0.64453 0.64063 0 0.35547-0.28906 0.64453-0.64453 0.64453-0.35547 0-0.64453-0.28906-0.64453-0.64453zm-2.9883 0c0-0.35547 0.28906-0.64063 0.64453-0.64063 0.35547 0 0.64453 0.28516 0.64453 0.64063 0 0.35547-0.28906 0.64453-0.64453 0.64453-0.35547 0-0.64453-0.28906-0.64453-0.64453z" stroke="#000" stroke-miterlimit="10" stroke-width=".3985"/>
<path d="m169.41 32.23c0-0.45312-0.36719-0.81641-0.82031-0.81641-0.44922 0-0.81641 0.36328-0.81641 0.81641s0.36719 0.82031 0.81641 0.82031c0.45312 0 0.82031-0.36719 0.82031-0.82031z"/>
<path d="m170.91 34.82c0-0.45312-0.36719-0.82031-0.82031-0.82031s-0.82031 0.36719-0.82031 0.82031c0 0.45313 0.36719 0.81641 0.82031 0.81641s0.82031-0.36328 0.82031-0.81641z"/>
<path d="m173.28 30c0-0.45312-0.36719-0.82031-0.81641-0.82031-0.45313 0-0.82031 0.36719-0.82031 0.82031s0.36719 0.82031 0.82031 0.82031c0.44922 0 0.81641-0.36719 0.81641-0.82031z"/>
<path d="m174.77 32.59c0-0.45312-0.36719-0.82031-0.82031-0.82031s-0.81641 0.36719-0.81641 0.82031c0 0.44922 0.36328 0.81641 0.81641 0.81641s0.82031-0.36719 0.82031-0.81641z"/>
<use x="196.963" y="41.572" xlink:href="#a"/>
<path transform="matrix(1 0 0 -1 203.99 32.296)" d="m0.73856-0.42666c-0.17969-0.30469-0.074219-0.69922 0.23438-0.87891 0.30859-0.17578 0.69922-0.070313 0.87891 0.23828 0.17578 0.30469 0.070312 0.69922-0.23438 0.87891-0.30859 0.17578-0.70312 0.070313-0.87891-0.23828zm-2.5898 1.4961c-0.17969-0.30859-0.074219-0.70312 0.23438-0.87891 0.30859-0.17969 0.70312-0.074218 0.87891 0.23438 0.17969 0.30859 0.074219 0.70312-0.23438 0.87891-0.30859 0.17969-0.70312 0.074218-0.87891-0.23438z" stroke="#000" stroke-miterlimit="10" stroke-width=".3985"/>
<path transform="matrix(1 0 0 -1 206.65 41.591)" d="m-0.42744-0.73712c-0.30469 0.17969-0.69922 0.074219-0.87891-0.23438-0.17578-0.30859-0.070312-0.70312 0.23828-0.87891 0.30859-0.17969 0.69922-0.074219 0.87891 0.23438 0.17578 0.30859 0.070312 0.70312-0.23828 0.87891zm1.4961 2.5898c-0.30859 0.17578-0.69922 0.070312-0.87891-0.23828-0.17578-0.30469-0.070312-0.69922 0.23438-0.87891 0.30859-0.17578 0.70312-0.070312 0.87891 0.23828 0.17969 0.30469 0.074219 0.69922-0.23438 0.87891z" stroke="#000" stroke-miterlimit="10" stroke-width=".3985"/>
<path transform="matrix(1 0 0 -1 197.27 43.929)" d="m-0.73684 0.42509c0.17578 0.30859 0.070313 0.70312-0.23438 0.87891-0.30859 0.17969-0.70312 0.074219-0.87891-0.23438-0.17969-0.30859-0.074219-0.70312 0.23438-0.87891 0.30859-0.17969 0.69922-0.074219 0.87891 0.23438zm2.5898-1.4922c0.17578 0.30469 0.070312 0.69922-0.23828 0.87891-0.30469 0.17578-0.69922 0.070312-0.87891-0.23828-0.17578-0.30859-0.070312-0.69922 0.23828-0.87891 0.30469-0.17578 0.69922-0.070312 0.87891 0.23828z" stroke="#000" stroke-miterlimit="10" stroke-width=".3985"/>
<path d="m189.64 31.293c0-0.45312-0.36719-0.81641-0.82031-0.81641-0.45312 0-0.82031 0.36328-0.82031 0.81641s0.36719 0.82031 0.82031 0.82031c0.45313 0 0.82031-0.36719 0.82031-0.82031z"/>
<path d="m193.5 33.523c0-0.44922-0.36719-0.81641-0.82031-0.81641s-0.81641 0.36719-0.81641 0.81641c0 0.45312 0.36328 0.82031 0.81641 0.82031s0.82031-0.36719 0.82031-0.82031z"/>
</g>
</svg>
