<?xml version="1.0" encoding="UTF-8"?>
<svg width="224pt" height="40pt" version="1.1" viewBox="0 0 224 40" xmlns="http://www.w3.org/2000/svg" xmlns:xlink="http://www.w3.org/1999/xlink">
<defs>
<symbol id="b" overflow="visible">
<path d="m6.1094 0v-6.9219h-0.89062v3.0312h-3.3906v-3.0312h-0.89062v6.9219h0.89062v-3.2969h3.3906v3.2969z"/>
</symbol>
<symbol id="a" overflow="visible">
<path d="m6.7656-3.4375c0-2.0938-1.4375-3.7031-3.0938-3.7031-1.7031 0-3.1094 1.625-3.1094 3.7031 0 2.1094 1.4688 3.6562 3.0938 3.6562 1.6719 0 3.1094-1.5625 3.1094-3.6562zm-0.89062-0.15625c0 1.9531-1.0625 3.1719-2.2031 3.1719-1.1719 0-2.2188-1.25-2.2188-3.1719 0-1.8125 1.0938-2.9062 2.2031-2.9062 1.1562 0 2.2188 1.125 2.2188 2.9062z"/>
</symbol>
<symbol id="d" overflow="visible">
<path d="m5.8594-0.45312-0.0625-0.6875c-0.29688 0.20312-0.57812 0.39062-0.92188 0.5-0.3125 0.10938-0.67188 0.10938-1 0.10938-0.65625 0-1.25-0.34375-1.6562-0.85938-0.45312-0.57812-0.67188-1.3281-0.67188-2.0625 0-0.75 0.21875-1.5 0.67188-2.0938 0.40625-0.5 1-0.85938 1.6562-0.85938 0.29688 0 0.59375 0.03125 0.89062 0.125s0.57812 0.23438 0.84375 0.42188l0.125-0.8125c-0.29688-0.125-0.59375-0.21875-0.92188-0.28125-0.3125-0.0625-0.625-0.078125-0.9375-0.078125-0.89062 0-1.6875 0.39062-2.2812 1.0469-0.60938 0.6875-0.9375 1.5938-0.9375 2.5312 0 0.92188 0.32812 1.8281 0.9375 2.5156 0.59375 0.64062 1.3906 1.0469 2.2812 1.0469 0.34375 0 0.6875-0.015625 1.0312-0.10938s0.64062-0.26562 0.95312-0.45312z"/>
</symbol>
<symbol id="c" overflow="visible">
<path d="m6.0938 0v-6.9219h-0.78125v6.2188h-0.015625l-0.65625-1.375-2.4531-4.8438h-1.2344v6.9219h0.78125v-6.2031h0.015625l0.65625 1.3594 2.4531 4.8438z"/>
</symbol>
</defs>
<g>
<use x="-0.259" y="39.572" xlink:href="#b"/>
<use x="19.219" y="28.247" xlink:href="#a"/>
</g>
<path transform="matrix(1,0,0,-1,3.269,39.572)" d="m4.9068 6.2947 9.6641 5.5781" fill="none" stroke="#000" stroke-linecap="round" stroke-miterlimit="10" stroke-width=".59758"/>
<g>
<use x="38.973" y="39.572" xlink:href="#b"/>
</g>
<path transform="matrix(1,0,0,-1,3.269,39.572)" d="m24.665 11.873 9.6602-5.5781" fill="none" stroke="#000" stroke-linecap="round" stroke-miterlimit="10" stroke-width=".59758"/>
<g>
<use x="89.201" y="39.572" xlink:href="#b"/>
<use x="108.679" y="28.526" xlink:href="#d"/>
</g>
<path transform="matrix(1,0,0,-1,92.729,39.572)" d="m4.9077 6.2947 9.6602 5.5781" fill="none" stroke="#000" stroke-linecap="round" stroke-miterlimit="10" stroke-width=".59758"/>
<g>
<use x="108.195" y="7.265" xlink:href="#a"/>
</g>
<path transform="matrix(1,0,0,-1,92.729,39.572)" d="m19.13 19.56v11.152" fill="none" stroke="#000" stroke-linecap="round" stroke-miterlimit="10" stroke-width=".59758"/>
<g>
<use x="127.465" y="39.572" xlink:href="#b"/>
</g>
<path transform="matrix(1,0,0,-1,92.729,39.572)" d="m23.697 11.873 9.6602-5.5781" fill="none" stroke="#000" stroke-linecap="round" stroke-miterlimit="10" stroke-width=".59758"/>
<g>
<use x="177.693" y="39.572" xlink:href="#a"/>
<use x="197.448" y="28.247" xlink:href="#c"/>
</g>
<path transform="matrix(1,0,0,-1,181.36,39.572)" d="m5.0462 6.3728 9.6602 5.5781" fill="none" stroke="#000" stroke-linecap="round" stroke-miterlimit="10" stroke-width=".59758"/>
<g>
<use x="216.926" y="39.572" xlink:href="#a"/>
</g>
<path transform="matrix(1,0,0,-1,181.36,39.572)" d="m24.523 11.951 9.6641-5.5781" fill="none" stroke="#000" stroke-linecap="round" stroke-miterlimit="10" stroke-width=".59758"/>
</svg>
