<?xml version="1.0" encoding="UTF-8"?>
<svg width="208pt" height="175pt" version="1.1" viewBox="0 0 208 175" xmlns="http://www.w3.org/2000/svg" xmlns:xlink="http://www.w3.org/1999/xlink">
<defs>
<symbol id="r" overflow="visible">
<path d="m6.8281-4.5-0.1875-2.25h-6.0938l-0.1875 2.25h0.25c0.14062-1.6094 0.28125-1.9375 1.7969-1.9375 0.17188 0 0.4375 0 0.53125 0.015625 0.21875 0.046875 0.21875 0.15625 0.21875 0.375v5.2656c0 0.32812 0 0.46875-1.0469 0.46875h-0.40625v0.3125c0.40625-0.03125 1.4219-0.03125 1.8906-0.03125 0.45312 0 1.4844 0 1.8906 0.03125v-0.3125h-0.40625c-1.0469 0-1.0469-0.14062-1.0469-0.46875v-5.2656c0-0.1875 0-0.32812 0.1875-0.375 0.10938-0.015625 0.375-0.015625 0.5625-0.015625 1.5156 0 1.6562 0.32812 1.7969 1.9375z"/>
</symbol>
<symbol id="d" overflow="visible">
<path d="m4.1406-1.1875c0-0.09375-0.078125-0.125-0.14062-0.125-0.078125 0-0.10938 0.0625-0.125 0.14062-0.34375 1.0312-1.25 1.0312-1.3438 1.0312-0.5 0-0.89062-0.29688-1.125-0.67188-0.29688-0.46875-0.29688-1.125-0.29688-1.4844h2.7812c0.21875 0 0.25 0 0.25-0.21875 0-0.98438-0.54688-1.9531-1.7812-1.9531-1.1562 0-2.0781 1.0312-2.0781 2.2812 0 1.3281 1.0469 2.2969 2.1875 2.2969 1.2188 0 1.6719-1.1094 1.6719-1.2969zm-0.65625-1.3281h-2.375c0.0625-1.4844 0.90625-1.7344 1.25-1.7344 1.0156 0 1.125 1.3438 1.125 1.7344z"/>
</symbol>
<symbol id="q" overflow="visible">
<path d="m8.1094 0v-0.3125c-0.51562 0-0.76562 0-0.78125-0.29688v-1.9062c0-0.85938 0-1.1562-0.3125-1.5156-0.14062-0.17188-0.46875-0.375-1.0469-0.375-0.82812 0-1.2812 0.59375-1.4375 0.98438-0.14062-0.875-0.875-0.98438-1.3281-0.98438-0.73438 0-1.2031 0.42188-1.4844 1.0469v-1.0469l-1.4062 0.10938v0.3125c0.70312 0 0.78125 0.0625 0.78125 0.5625v2.6719c0 0.4375-0.10938 0.4375-0.78125 0.4375v0.3125l1.1406-0.03125 1.1094 0.03125v-0.3125c-0.67188 0-0.78125 0-0.78125-0.4375v-1.8438c0-1.0312 0.71875-1.5938 1.3438-1.5938 0.64062 0 0.75 0.53125 0.75 1.1094v2.3281c0 0.4375-0.10938 0.4375-0.78125 0.4375v0.3125l1.125-0.03125 1.1094 0.03125v-0.3125c-0.65625 0-0.76562 0-0.76562-0.4375v-1.8438c0-1.0312 0.70312-1.5938 1.3438-1.5938 0.625 0 0.73438 0.53125 0.73438 1.1094v2.3281c0 0.4375-0.10938 0.4375-0.78125 0.4375v0.3125l1.125-0.03125z"/>
</symbol>
<symbol id="p" overflow="visible">
<path d="m5.1875-2.1562c0-1.2656-0.95312-2.25-2.0781-2.25-0.78125 0-1.2031 0.4375-1.3906 0.65625v-0.65625l-1.4375 0.10938v0.3125c0.70312 0 0.78125 0.0625 0.78125 0.5v4.6562c0 0.45312-0.10938 0.45312-0.78125 0.45312v0.3125l1.1094-0.03125 1.125 0.03125v-0.3125c-0.65625 0-0.76562 0-0.76562-0.45312v-1.7656c0.046875 0.17188 0.46875 0.70312 1.2188 0.70312 1.1875 0 2.2188-0.98438 2.2188-2.2656zm-0.82812 0c0 1.2031-0.6875 2.0469-1.4219 2.0469-0.40625 0-0.78125-0.20312-1.0469-0.60938-0.14062-0.20312-0.14062-0.21875-0.14062-0.42188v-2.2188c0.28125-0.51562 0.76562-0.79688 1.2812-0.79688 0.73438 0 1.3281 0.875 1.3281 2z"/>
</symbol>
<symbol id="c" overflow="visible">
<path d="m3.625-3.7969c0-0.3125-0.3125-0.60938-0.73438-0.60938-0.73438 0-1.0938 0.67188-1.2188 1.0938v-1.0938l-1.3906 0.10938v0.3125c0.70312 0 0.78125 0.0625 0.78125 0.5625v2.6719c0 0.4375-0.10938 0.4375-0.78125 0.4375v0.3125l1.1406-0.03125c0.39062 0 0.85938 0 1.2656 0.03125v-0.3125h-0.21875c-0.73438 0-0.75-0.10938-0.75-0.46875v-1.5312c0-0.98438 0.42188-1.875 1.1719-1.875 0.0625 0 0.09375 0 0.10938 0.015625-0.03125 0-0.23438 0.125-0.23438 0.39062s0.21875 0.42188 0.4375 0.42188c0.17188 0 0.42188-0.125 0.42188-0.4375z"/>
</symbol>
<symbol id="b" overflow="visible">
<path d="m4.8125-0.89062v-0.5625h-0.25v0.5625c0 0.57812-0.25 0.64062-0.35938 0.64062-0.32812 0-0.35938-0.45312-0.35938-0.5v-1.9844c0-0.42188 0-0.8125-0.35938-1.1875-0.39062-0.39062-0.89062-0.54688-1.375-0.54688-0.8125 0-1.5 0.46875-1.5 1.125 0 0.29688 0.20312 0.46875 0.45312 0.46875 0.28125 0 0.46875-0.20312 0.46875-0.45312 0-0.125-0.0625-0.45312-0.51562-0.45312 0.26562-0.35938 0.76562-0.46875 1.0781-0.46875 0.48438 0 1.0625 0.39062 1.0625 1.2812v0.35938c-0.51562 0.03125-1.2188 0.0625-1.8438 0.35938-0.75 0.34375-1 0.85938-1 1.2969 0 0.8125 0.96875 1.0625 1.5938 1.0625 0.67188 0 1.125-0.40625 1.3125-0.85938 0.046875 0.39062 0.3125 0.8125 0.78125 0.8125 0.20312 0 0.8125-0.14062 0.8125-0.95312zm-1.6562-0.5c0 0.9375-0.71875 1.2812-1.1719 1.2812-0.48438 0-0.89062-0.34375-0.89062-0.84375 0-0.54688 0.40625-1.375 2.0625-1.4375z"/>
</symbol>
<symbol id="o" overflow="visible">
<path d="m3.3125-1.2344v-0.5625h-0.25v0.54688c0 0.73438-0.29688 1.1094-0.67188 1.1094-0.67188 0-0.67188-0.90625-0.67188-1.0781v-2.7656h1.4375v-0.3125h-1.4375v-1.8281h-0.25c0 0.8125-0.29688 1.875-1.2812 1.9219v0.21875h0.84375v2.75c0 1.2188 0.9375 1.3438 1.2969 1.3438 0.70312 0 0.98438-0.70312 0.98438-1.3438z"/>
</symbol>
<symbol id="n" overflow="visible">
<path d="m5.3281 0v-0.3125c-0.6875 0-0.76562-0.0625-0.76562-0.5625v-3.5312l-1.4688 0.10938v0.3125c0.6875 0 0.78125 0.0625 0.78125 0.5625v1.7656c0 0.875-0.48438 1.5469-1.2188 1.5469-0.82812 0-0.875-0.46875-0.875-0.98438v-3.3125l-1.4688 0.10938v0.3125c0.78125 0 0.78125 0.03125 0.78125 0.90625v1.5c0 0.78125 0 1.6875 1.5156 1.6875 0.5625 0 1-0.28125 1.2812-0.89062v0.89062z"/>
</symbol>
<symbol id="m" overflow="visible">
<path d="m2.0312-0.015625c0-0.625-0.25-1.0469-0.64062-1.0469-0.35938 0-0.53125 0.28125-0.53125 0.53125 0 0.26562 0.17188 0.53125 0.53125 0.53125 0.14062 0 0.28125-0.0625 0.39062-0.15625 0.015625 0.78125-0.25 1.3906-0.6875 1.8594-0.0625 0.0625-0.078125 0.078125-0.078125 0.10938 0 0.078125 0.046875 0.10938 0.09375 0.10938 0.125 0 0.92188-0.78125 0.92188-1.9375z"/>
</symbol>
<symbol id="l" overflow="visible">
<path d="m6.7344-4.7344 0.26562-1.7344c0.015625-0.046875 0.015625-0.14062 0.015625-0.17188 0-0.10938-0.09375-0.10938-0.26562-0.10938h-5.5312c-0.23438 0-0.25 0.015625-0.32812 0.20312l-0.59375 1.75c0 0.015625-0.0625 0.1875-0.0625 0.1875 0 0.046875 0.0625 0.10938 0.125 0.10938 0.09375 0 0.10938-0.0625 0.17188-0.21875 0.53125-1.5469 0.79688-1.7188 2.2656-1.7188h0.39062c0.28125 0 0.28125 0.03125 0.28125 0.125 0 0.046875-0.03125 0.17188-0.046875 0.20312l-1.3281 5.3281c-0.09375 0.35938-0.125 0.46875-1.1875 0.46875-0.35938 0-0.42188 0-0.42188 0.1875 0 0.125 0.10938 0.125 0.17188 0.125 0.26562 0 0.54688-0.015625 0.8125-0.015625l0.85938-0.015625 0.82812 0.015625c0.28125 0 0.57812 0.015625 0.85938 0.015625 0.09375 0 0.21875 0 0.21875-0.20312 0-0.10938-0.078125-0.10938-0.34375-0.10938-0.23438 0-0.375 0-0.625-0.015625-0.29688-0.03125-0.375-0.0625-0.375-0.21875 0 0 0-0.0625 0.046875-0.20312l1.3125-5.2969c0.078125-0.28125 0.10938-0.34375 0.23438-0.375 0.09375-0.015625 0.42188-0.015625 0.625-0.015625 1.0156 0 1.4531 0.03125 1.4531 0.8125 0 0.15625-0.03125 0.54688-0.078125 0.79688 0 0.046875-0.03125 0.15625-0.03125 0.1875 0 0.0625 0.03125 0.14062 0.125 0.14062 0.10938 0 0.125-0.078125 0.15625-0.23438z"/>
</symbol>
<symbol id="k" overflow="visible">
<path d="m-4.9531-6.2188c-0.98438 0-1.8594 0.98438-1.8594 2.3438v3.5312h0.3125v-0.25c0-0.76562 0.10938-0.78125 0.46875-0.78125h5.25c0.35938 0 0.46875 0.015625 0.46875 0.78125v0.25h0.3125c-0.03125-0.35938-0.03125-1.0938-0.03125-1.4688s0-1.125 0.03125-1.4844h-0.3125v0.25c0 0.76562-0.10938 0.78125-0.46875 0.78125h-2.375v-1.6875c0-1.1875-0.79688-2.2656-1.7969-2.2656zm0 1.0312c0.46875 0 1.5469 0 1.5469 1.5781v1.375h-2.6875c-0.34375 0-0.40625-0.015625-0.40625-0.48438v-0.89062c0-1.5781 1.0625-1.5781 1.5469-1.5781z"/>
</symbol>
<symbol id="j" overflow="visible">
<path d="m-3.7969-3.625c-0.3125 0-0.60938 0.3125-0.60938 0.73438 0 0.73438 0.67188 1.0938 1.0938 1.2188h-1.0938l0.10938 1.3906h0.3125c0-0.70312 0.0625-0.78125 0.5625-0.78125h2.6719c0.4375 0 0.4375 0.10938 0.4375 0.78125h0.3125l-0.03125-1.1406c0-0.39062 0-0.85938 0.03125-1.2656h-0.3125v0.21875c0 0.73438-0.10938 0.75-0.46875 0.75h-1.5312c-0.98438 0-1.875-0.42188-1.875-1.1719 0-0.0625 0-0.09375 0.015625-0.10938 0 0.03125 0.125 0.23438 0.39062 0.23438s0.42188-0.21875 0.42188-0.4375c0-0.17188-0.125-0.42188-0.4375-0.42188z"/>
</symbol>
<symbol id="i" overflow="visible">
<path d="m-1.1875-4.1406c-0.09375 0-0.125 0.078125-0.125 0.14062 0 0.078125 0.0625 0.10938 0.14062 0.125 1.0312 0.34375 1.0312 1.25 1.0312 1.3438 0 0.5-0.29688 0.89062-0.67188 1.125-0.46875 0.29688-1.125 0.29688-1.4844 0.29688v-2.7812c0-0.21875 0-0.25-0.21875-0.25-0.98438 0-1.9531 0.54688-1.9531 1.7812 0 1.1562 1.0312 2.0781 2.2812 2.0781 1.3281 0 2.2969-1.0469 2.2969-2.1875 0-1.2188-1.1094-1.6719-1.2969-1.6719zm-1.3281 0.65625v2.375c-1.4844-0.0625-1.7344-0.90625-1.7344-1.25 0-1.0156 1.3438-1.125 1.7344-1.125z"/>
</symbol>
<symbol id="a" overflow="visible">
<path d="m-1.2812-3.5938c-0.51562 0-0.82812 0.29688-0.9375 0.42188-0.32812 0.32812-0.40625 0.71875-0.48438 1.1406-0.10938 0.5625-0.23438 1.2188-0.8125 1.2188-0.35938 0-0.76562-0.25-0.76562-1.1094 0-1.0938 0.90625-1.1562 1.2031-1.1719 0.09375 0 0.09375-0.10938 0.09375-0.10938 0-0.14062-0.046875-0.14062-0.23438-0.14062h-1.0156c-0.15625 0-0.23438 0-0.23438 0.10938 0 0.046875 0 0.078125 0.125 0.20312 0.03125 0.03125 0.125 0.125 0.15625 0.17188-0.28125 0.375-0.28125 0.78125-0.28125 0.9375 0 1.2188 0.67188 1.5938 1.2344 1.5938 0.34375 0 0.625-0.15625 0.84375-0.42188 0.25-0.32812 0.3125-0.60938 0.45312-1.3281 0.046875-0.21875 0.20312-1.0312 0.92188-1.0312 0.5 0 0.90625 0.34375 0.90625 1.125 0 0.84375-0.5625 1.2031-1.4219 1.3906-0.125 0.03125-0.15625 0.03125-0.15625 0.14062 0 0.125 0.0625 0.125 0.23438 0.125h1.3281c0.17188 0 0.23438 0 0.23438-0.10938 0-0.046875-0.015625-0.0625-0.20312-0.25-0.015625-0.015625-0.03125-0.015625-0.21875-0.20312 0.40625-0.4375 0.42188-0.89062 0.42188-1.0938 0-1.1406-0.67188-1.6094-1.3906-1.6094z"/>
</symbol>
<symbol id="h" overflow="visible">
<path d="m-0.89062-4.8125h-0.5625v0.25h0.5625c0.57812 0 0.64062 0.25 0.64062 0.35938 0 0.32812-0.45312 0.35938-0.5 0.35938h-1.9844c-0.42188 0-0.8125 0-1.1875 0.35938-0.39062 0.39062-0.54688 0.89062-0.54688 1.375 0 0.8125 0.46875 1.5 1.125 1.5 0.29688 0 0.46875-0.20312 0.46875-0.45312 0-0.28125-0.20312-0.46875-0.45312-0.46875-0.125 0-0.45312 0.0625-0.45312 0.51562-0.35938-0.26562-0.46875-0.76562-0.46875-1.0781 0-0.48438 0.39062-1.0625 1.2812-1.0625h0.35938c0.03125 0.51562 0.0625 1.2188 0.35938 1.8438 0.34375 0.75 0.85938 1 1.2969 1 0.8125 0 1.0625-0.96875 1.0625-1.5938 0-0.67188-0.40625-1.125-0.85938-1.3125 0.39062-0.046875 0.8125-0.3125 0.8125-0.78125 0-0.20312-0.14062-0.8125-0.95312-0.8125zm-0.5 1.6562c0.9375 0 1.2812 0.71875 1.2812 1.1719 0 0.48438-0.34375 0.89062-0.84375 0.89062-0.54688 0-1.375-0.40625-1.4375-2.0625zm-4.9531-1-0.14062 0.15625s0.46875 0.375 0.46875 0.8125c0 0.23438-0.14062 0.48438-0.25 0.65625-0.15625 0.26562-0.21875 0.45312-0.21875 0.625 0 0.375 0.21875 0.5625 0.76562 1.0625l0.15625-0.15625s-0.48438-0.375-0.48438-0.8125c0-0.23438 0.15625-0.48438 0.25-0.65625 0.17188-0.26562 0.23438-0.4375 0.23438-0.60938 0-0.375-0.21875-0.57812-0.78125-1.0781z"/>
</symbol>
<symbol id="g" overflow="visible">
<path d="m-2.1406-4.6875c-1.2656 0-2.3281 0.98438-2.3281 2.1875 0 1.25 1.0938 2.2188 2.3281 2.2188 1.2969 0 2.25-1.0312 2.25-2.2031 0-1.2031-0.98438-2.2031-2.25-2.2031zm-0.078125 0.8125c0.35938 0 0.90625 0 1.3438 0.21875 0.45312 0.23438 0.73438 0.67188 0.73438 1.1562 0 0.4375-0.20312 0.875-0.67188 1.1406-0.4375 0.25-1.0469 0.25-1.4062 0.25-0.39062 0-0.92188 0-1.3594-0.23438-0.45312-0.26562-0.67188-0.73438-0.67188-1.1406 0-0.4375 0.21875-0.85938 0.65625-1.125 0.42188-0.26562 1-0.26562 1.375-0.26562z"/>
</symbol>
<symbol id="f" overflow="visible">
<path d="m-0.015625-2.0312c-0.625 0-1.0469 0.25-1.0469 0.64062 0 0.35938 0.28125 0.53125 0.53125 0.53125 0.26562 0 0.53125-0.17188 0.53125-0.53125 0-0.14062-0.0625-0.28125-0.15625-0.39062 0.78125-0.015625 1.3906 0.25 1.8594 0.6875 0.0625 0.0625 0.078125 0.078125 0.10938 0.078125 0.078125 0 0.10938-0.046875 0.10938-0.09375 0-0.125-0.78125-0.92188-1.9375-0.92188z"/>
</symbol>
<symbol id="e" overflow="visible">
<path d="m-5.2969-7.5156c-0.78125 0-1.5156 0.65625-1.5156 1.9688v3.2188c0 0.1875 0 0.29688 0.1875 0.29688 0.125 0 0.125-0.078125 0.125-0.28125 0-0.125 0.015625-0.3125 0.015625-0.42188 0.03125-0.17188 0.046875-0.21875 0.17188-0.21875 0.03125 0 0.0625 0 0.1875 0.03125l5.3438 1.3438c0.39062 0.09375 0.46875 0.10938 0.46875 0.90625 0 0.15625 0 0.26562 0.1875 0.26562 0.125 0 0.125-0.10938 0.125-0.14062l-0.03125-1.2656 0.015625-0.64062c0-0.21875 0.015625-0.4375 0.015625-0.64062 0-0.078125 0-0.20312-0.20312-0.20312-0.10938 0-0.10938 0.09375-0.10938 0.28125 0 0.35938 0 0.64062-0.17188 0.64062-0.0625 0-0.10938-0.015625-0.17188-0.03125l-2.5-0.60938v-1.7031c0-1.4062-1.0312-2.7969-2.1406-2.7969zm-0.25 0.92188c0.39062 0 1.25 0.20312 1.6094 0.59375 0.45312 0.5 0.53125 1.0938 0.53125 1.5312v1.4062l-2.7188-0.67188c-0.34375-0.09375-0.375-0.10938-0.375-0.54688v-0.95312c0-0.82812 0.26562-1.3594 0.95312-1.3594z"/>
</symbol>
<clipPath id="w">
<path d="m12.93 118h56.07v43.941h-56.07z"/>
</clipPath>
<clipPath id="v">
<path d="m34 0.54297h173.2v151.46h-173.2z"/>
</clipPath>
<clipPath id="u">
<path d="m34 0.54297h66v151.46h-66z"/>
</clipPath>
<clipPath id="t">
<path d="m19 0.54297h188.2v161.4h-188.2z"/>
</clipPath>
<clipPath id="s">
<path d="m19 0.54297h65v161.4h-65z"/>
</clipPath>
</defs>
<path transform="matrix(1,0,0,-1,12.931,161.94)" d="m-0.0013125-0.0014062v161.4h194.27v-161.4z" fill="none" stroke="#000" stroke-miterlimit="10" stroke-width=".3985"/>
<g clip-path="url(#w)">
<path transform="matrix(1,0,0,-1,12.931,161.94)" d="m-83.259-43.04c61.059 0 108.38 54.203 122.11 69.941" fill="none" stroke="#0c6dfd" stroke-miterlimit="10" stroke-width="1.1955"/>
</g>
<g clip-path="url(#v)">
<path transform="matrix(1,0,0,-1,12.931,161.94)" d="m38.854 26.897 2.5312 1.2031 2.5352 1.2461 2.5312 1.2891 2.5352 1.332 2.5312 1.3789 2.5352 1.4219 2.5312 1.4648 2.5352 1.5078 2.5312 1.5508 2.5352 1.5977 2.5312 1.6406 2.5352 1.6875 2.5312 1.7266 2.5312 1.7734 2.5352 1.8164 2.5312 1.8594 2.5352 1.9062 2.5312 1.9492 2.5352 1.9922 2.5312 2.0352 2.5352 2.0781 2.5312 2.1289 2.5352 2.1641 2.5312 2.2109 2.5352 2.2578 2.5312 2.3008 2.5352 2.3438 2.5312 2.3867 2.5312 2.4336 2.5352 2.4727 2.5312 2.5234 2.5352 2.5625 2.5312 2.6055 2.5352 2.6523 2.5312 2.6953 2.5352 2.7383 2.5312 2.7852 2.5352 2.8242 2.5312 2.875 2.5352 2.9141 2.5312 2.957 2.5352 3.0039 2.5312 3.0469 2.5312 3.0938 2.5352 3.1328 2.5312 3.1797 2.5352 3.2227 2.5312 3.2656 2.5352 3.3086 2.5312 3.3555 2.5352 3.3984 2.5312 3.4414 2.5352 3.4883 2.5312 3.5312 2.5352 3.5742 2.5312 3.6172 2.5352 3.6602 2.5312 3.707 2.5312 3.75 2.5352 3.793 2.5312 3.8398 2.5352 3.8789 2.5312 3.9258 2.5352 3.9727 2.5312 4.0117 2.5352 4.0586 2.5312 4.1016 2.5352 4.1445 2.5312 4.1914 2.5352 4.2305 2.5312 4.2773 2.5352 4.3242 2.5312 4.3633 2.5312 4.4062 2.5352 4.4531 2.5312 4.5 2.5352 4.5391 2.5312 4.5859 2.5352 4.6289 2.5312 4.6719 2.5352 4.7188 2.5312 4.7578 2.5352 4.8047 2.5312 4.8477 2.5352 4.8945 2.5312 4.9336 2.5352 4.9805 2.5312 5.0273 2.5312 5.0664 2.5352 5.1133 2.5312 5.1562 2.5352 5.1992 2.5312 5.2422 2.5352 5.2891 2.5312 5.332 2.5352 5.375 2.5312 5.4219 2.5352 5.4609 2.5312 5.5078 2.5352 5.5547 2.5312 5.5938 2.5312 5.6367 2.5352 5.6875 2.5312 5.7227 2.5352 5.7734 2.5312 5.8125 2.5352 5.8594 2.5312 5.9062 2.5352 5.9453 2.5312 5.9922 2.5352 6.0352 2.5312 6.0781 2.5352 6.1211 2.5312 6.168 2.5352 6.2109 2.5312 6.2539 2.5312 6.2969 2.5352 6.3438 2.5312 6.3867 2.5352 6.4297 2.5312 6.4727 2.5352 6.5195 2.5312 6.5625 2.5352 6.6055 2.5312 6.6484 2.5352 6.6953 2.5312 6.7383 2.5352 6.7812 2.5312 6.8281 2.5352 6.8672 2.5312 6.9102 2.5312 6.9688 2.5352 6.9883 2.5312 7.043 2.5352 7.0977 2.5312 7.1328 2.5352 7.1758 2.5312 7.2227 2.5352 7.2656 2.5312 7.3047 2.5352 7.3555 2.5312 7.3984 2.5352 7.4414 2.5312 7.4883 2.5352 7.5195 2.5312 7.5742 2.5312 7.6211 2.5352 7.6641 2.5312 7.6914" fill="none" stroke="#0c6dfd" stroke-miterlimit="10" stroke-width="1.1955"/>
</g>
<g clip-path="url(#u)">
<path transform="matrix(1,0,0,-1,12.931,161.94)" d="m38.854 26.901 30.527 403.49" fill="none" stroke="#0c6dfd" stroke-miterlimit="10" stroke-width="1.1955"/>
</g>
<g clip-path="url(#t)">
<path transform="matrix(1,0,0,-1,12.931,161.94)" d="m23.589 9.4283 2.6367 0.68359 2.6367 0.75781 2.6328 0.79297 2.6367 0.83984 2.6367 0.89062 2.6367 0.9375 2.6328 0.98828 2.6367 1.0312 2.6367 1.082 2.6328 1.1289 2.6367 1.1758 2.6367 1.2227 2.6328 1.2695 2.6367 1.3203 2.6367 1.3633 2.6367 1.4141 2.6328 1.4609 2.6367 1.5078 2.6367 1.5586 2.6328 1.6016 2.6367 1.6523 2.6367 1.6992 2.6367 1.7461 2.6328 1.793 2.6367 1.8438 2.6367 1.8867 2.6328 1.9375 2.6367 1.9844 2.6367 2.0312 2.6328 2.082 2.6367 2.125 2.6367 2.1758 2.6367 2.2227 2.6328 2.2695 2.6367 2.3164 2.6367 2.3633 2.6328 2.4141 2.6367 2.4609 2.6367 2.5078 2.6367 2.5547 2.6328 2.6016 2.6367 2.6523 2.6367 2.6953 2.6328 2.7461 2.6367 2.793 2.6367 2.8398 2.6328 2.8867 2.6367 2.9375 2.6367 2.9844 2.6367 3.0312 2.6328 3.0781 2.6367 3.125 2.6367 3.1719 2.6328 3.2227 2.6367 3.2695 2.6367 3.3164 2.6367 3.3633 2.6328 3.4102 2.6367 3.4609 2.6367 3.5039 2.6328 3.5547 2.6367 3.6016 2.6367 3.6484 2.6328 3.6992 2.6367 3.7422 2.6367 3.793 2.6367 3.8398 2.6328 3.8867 2.6367 3.9336 2.6367 3.9805 2.6328 4.0312 2.6367 4.0781 2.6367 4.125 2.6328 4.1719 2.6367 4.2188 2.6367 4.2695 2.6367 4.3125 2.6328 4.3633 2.6367 4.4102 2.6367 4.4609 2.6328 4.5039 2.6367 4.5547 2.6367 4.5977 2.6367 4.6484 2.6328 4.6953 2.6367 4.7422 2.6367 4.793 2.6328 4.8359 2.6367 4.8867 2.6367 4.9336 2.6328 4.9805 2.6367 5.0312 2.6367 5.0742 2.6367 5.125 2.6328 5.1719 2.6367 5.2188 2.6367 5.2656 2.6328 5.3125 2.6367 5.3633 2.6367 5.4102 2.6367 5.457 2.6328 5.5039 2.6367 5.5508 2.6367 5.5977 2.6328 5.6484 2.6367 5.6953 2.6367 5.7422 2.6328 5.7891 2.6367 5.8359 2.6367 5.8867 2.6367 5.9336 2.6328 5.9766 2.6367 6.0312 2.6367 6.0742 2.6328 6.1211 2.6367 6.1719 2.6367 6.2148 2.6367 6.2656 2.6328 6.3125 2.6367 6.3633 2.6367 6.4102 2.6328 6.4531 2.6367 6.5039 2.6367 6.5469 2.6328 6.6016 2.6367 6.6445 2.6367 6.6953 2.6367 6.7422 2.6328 6.7852 2.6367 6.8359 2.6367 6.8867 2.6328 6.9297 2.6367 6.9805 2.6367 7.0234 2.6328 7.0781 2.6367 7.1172 2.6367 7.1719 2.6367 7.2109 2.6328 7.2734 2.6367 7.3047 2.6367 7.3633 2.6328 7.4062 2.6367 7.4492 2.6367 7.5078 2.6367 7.5508 2.6328 7.5977 2.6367 7.6406 2.6367 7.6953 2.6328 7.7461" fill="none" stroke="#0c6dfd" stroke-dasharray="2.98883,2.98883" stroke-miterlimit="10" stroke-width="1.1955"/>
</g>
<g clip-path="url(#s)">
<path transform="matrix(1,0,0,-1,12.931,161.94)" d="m23.589 10.76 30.527 419.63" fill="none" stroke="#0c6dfd" stroke-dasharray="2.98883,2.98883" stroke-miterlimit="10" stroke-width="1.1955"/>
</g>
<path transform="matrix(1,0,0,-1,12.931,161.94)" d="m40.846 26.901c0 1.0977-0.89062 1.9922-1.9922 1.9922-1.1016 0-1.9922-0.89453-1.9922-1.9922 0-1.1016 0.89062-1.9922 1.9922-1.9922 1.1016 0 1.9922 0.89062 1.9922 1.9922z" fill="#fff" stroke="#0c6dfd" stroke-miterlimit="10" stroke-width="1.1955"/>
<path transform="matrix(1,0,0,-1,12.931,161.94)" d="m25.581 10.76c0 1.1016-0.89062 1.9922-1.9922 1.9922-1.0977 0-1.9922-0.89062-1.9922-1.9922 0-1.1016 0.89453-1.9922 1.9922-1.9922 1.1016 0 1.9922 0.89062 1.9922 1.9922z" fill="#fff" stroke="#0c6dfd" stroke-miterlimit="10" stroke-width="1.1955"/>
<g>
<use x="75.162" y="172.323" xlink:href="#r"/>
<use x="81.530094" y="172.323" xlink:href="#d"/>
<use x="85.95847" y="172.323" xlink:href="#q"/>
<use x="94.260304" y="172.323" xlink:href="#p"/>
<use x="100.064515" y="172.323" xlink:href="#d"/>
<use x="104.492891" y="172.323" xlink:href="#c"/>
<use x="108.395241" y="172.323" xlink:href="#b"/>
<use x="113.376541" y="172.323" xlink:href="#o"/>
<use x="117.250996" y="172.323" xlink:href="#n"/>
<use x="122.786217" y="172.323" xlink:href="#c"/>
<use x="126.688567" y="172.323" xlink:href="#b"/>
<use x="131.669867" y="172.323" xlink:href="#m"/>
<use x="137.76" y="172.323" xlink:href="#l"/>
<use x="7.474" y="104.643" xlink:href="#k"/>
<use x="7.474" y="97.862454" xlink:href="#j"/>
<use x="7.474" y="93.960104" xlink:href="#i"/>
<use x="7.474" y="89.531728" xlink:href="#a"/>
<use x="7.474" y="85.601483" xlink:href="#a"/>
<use x="7.474" y="81.671237" xlink:href="#h"/>
<use x="7.474" y="76.689937" xlink:href="#g"/>
<use x="7.474" y="71.708637" xlink:href="#f"/>
<use x="7.474" y="65.623" xlink:href="#e"/>
</g>
</svg>
