<?xml version="1.0" standalone="no" ?>
<!DOCTYPE svg PUBLIC "-//W3C//DTD SVG 1.1//EN" "http://www.w3.org/Graphics/SVG/1.1/DTD/svg11.dtd">
<svg width="183px" height="156px" viewBox="0 0 183 156" style="background-color: #ffffff00" xmlns="http://www.w3.org/2000/svg" xmlns:xlink="http://www.w3.org/1999/xlink" version="1.1" >
<text x="0" y="0" stroke="none" fill="#000000" transform="matrix(0.1 0 0 0.1 134.634 122.367)" font-style="normal" font-weight="normal" font-size="200px" font-family="PT Sans" >
N</text>
<text x="0" y="0" stroke="none" fill="#000000" transform="matrix(0.1 0 0 0.1 148.134 115.117)" font-style="normal" font-weight="normal" font-size="150px" font-family="PT Sans" >
+</text>
<text x="0" y="0" stroke="none" fill="#000000" transform="matrix(0.1 0 0 0.1 159.475 107.967)" font-style="normal" font-weight="normal" font-size="200px" font-family="PT Sans" >
O</text>
<text x="0" y="0" stroke="none" fill="#000000" transform="matrix(0.1 0 0 0.1 173.175 100.717)" font-style="normal" font-weight="normal" font-size="150px" font-family="PT Sans" >
-</text>
<text x="0" y="0" stroke="none" fill="#000000" transform="matrix(0.1 0 0 0.1 134.534 151.167)" font-style="normal" font-weight="normal" font-size="200px" font-family="PT Sans" >
O</text>
<text x="0" y="0" stroke="none" fill="#000000" transform="matrix(0.1 0 0 0.1 34.8658 122.367)" font-style="normal" font-weight="normal" font-size="200px" font-family="PT Sans" >
N</text>
<text x="0" y="0" stroke="none" fill="#000000" transform="matrix(0.1 0 0 0.1 48.3658 115.117)" font-style="normal" font-weight="normal" font-size="150px" font-family="PT Sans" >
+</text>
<text x="0" y="0" stroke="none" fill="#000000" transform="matrix(0.1 0 0 0.1 4.42504 100.717)" font-style="normal" font-weight="normal" font-size="150px" font-family="PT Sans" >
-</text>
<text x="0" y="0" stroke="none" fill="#000000" transform="matrix(0.1 0 0 0.1 9.82504 107.967)" font-style="normal" font-weight="normal" font-size="200px" font-family="PT Sans" >
O</text>
<text x="0" y="0" stroke="none" fill="#000000" transform="matrix(0.1 0 0 0.1 34.7658 151.167)" font-style="normal" font-weight="normal" font-size="200px" font-family="PT Sans" >
O</text>
<text x="0" y="0" stroke="none" fill="#000000" transform="matrix(0.1 0 0 0.1 84.75 35.9664)" font-style="normal" font-weight="normal" font-size="200px" font-family="PT Sans" >
N</text>
<text x="0" y="0" stroke="none" fill="#000000" transform="matrix(0.1 0 0 0.1 98.25 28.7164)" font-style="normal" font-weight="normal" font-size="150px" font-family="PT Sans" >
+</text>
<text x="0" y="0" stroke="none" fill="#000000" transform="matrix(0.1 0 0 0.1 109.591 21.5663)" font-style="normal" font-weight="normal" font-size="200px" font-family="PT Sans" >
O</text>
<text x="0" y="0" stroke="none" fill="#000000" transform="matrix(0.1 0 0 0.1 123.291 14.3163)" font-style="normal" font-weight="normal" font-size="150px" font-family="PT Sans" >
-</text>
<text x="0" y="0" stroke="none" fill="#000000" transform="matrix(0.1 0 0 0.1 59.709 21.5663)" font-style="normal" font-weight="normal" font-size="200px" font-family="PT Sans" >
O</text>
<path stroke="none" fill="#000000" transform="matrix(0.1 0 0 0.1 -440 -189)" d="M 5071.59,2612.63 L 5059.59,2605.7 L 5309,2461.7 L 5315,2465.16 L 5315,2472.09 L 5071.59,2612.63 Z " />
<path stroke="none" fill="#000000" transform="matrix(0.1 0 0 0.1 -440 -189)" d="M 5071.59,2893.7 L 5065.59,2897.17 L 5059.59,2893.7 L 5059.59,2605.7 L 5071.59,2612.63 L 5071.59,2893.7 Z " />
<path stroke="none" fill="#000000" transform="matrix(0.1 0 0 0.1 -440 -189)" d="M 5123.43,2867.24 L 5111.43,2867.24 L 5111.43,2639.09 L 5123.43,2639.09 L 5123.43,2867.24 Z " />
<path stroke="none" fill="#000000" transform="matrix(0.1 0 0 0.1 -440 -189)" d="M 5315,3034.24 L 5315,3048.1 L 5065.59,2904.1 L 5065.59,2897.17 L 5071.59,2893.7 L 5315,3034.24 Z " />
<path stroke="none" fill="#000000" transform="matrix(0.1 0 0 0.1 -440 -189)" d="M 5558.41,2893.7 L 5564.41,2897.17 L 5564.41,2904.1 L 5315,3048.1 L 5315,3034.24 L 5558.41,2893.7 Z " />
<path stroke="none" fill="#000000" transform="matrix(0.1 0 0 0.1 -440 -189)" d="M 5509.57,2862.04 L 5515.57,2872.43 L 5318,2986.51 L 5312,2976.11 L 5509.57,2862.04 Z " />
<path stroke="none" fill="#000000" transform="matrix(0.1 0 0 0.1 -440 -189)" d="M 5558.41,2612.63 L 5564.41,2609.17 L 5570.41,2612.63 L 5570.41,2893.7 L 5564.41,2897.17 L 5558.41,2893.7 L 5558.41,2612.63 Z " />
<path stroke="none" fill="#000000" transform="matrix(0.1 0 0 0.1 -440 -189)" d="M 5564.41,2602.24 L 5564.41,2609.17 L 5558.41,2612.63 L 5315,2472.09 L 5315,2465.16 L 5321,2461.7 L 5564.41,2602.24 Z " />
<path stroke="none" fill="#000000" transform="matrix(0.1 0 0 0.1 -440 -189)" d="M 5515.57,2633.9 L 5509.57,2644.29 L 5312,2530.22 L 5318,2519.83 L 5515.57,2633.9 Z " />
<path stroke="none" fill="#000000" transform="matrix(0.1 0 0 0.1 -440 -189)" d="M 5810.84,2459.97 L 5816.84,2470.36 L 5570.41,2612.63 L 5564.41,2609.17 L 5564.41,2602.24 L 5810.84,2459.97 Z " />
<path stroke="none" fill="#000000" transform="matrix(0.1 0 0 0.1 -440 -189)" d="M 5976.17,2940.52 L 5982.17,2950.91 L 5970.96,2957.38 L 5964.96,2946.99 L 5976.17,2940.52 Z " />
<path stroke="none" fill="#000000" transform="matrix(0.1 0 0 0.1 -440 -189)" d="M 5845.76,3227.34 L 5833.76,3227.34 L 5833.76,3144.67 L 5845.76,3144.67 L 5845.76,3227.34 Z " />
<path stroke="none" fill="#000000" transform="matrix(0.1 0 0 0.1 -440 -189)" d="M 5793.92,3227.34 L 5781.92,3227.34 L 5781.92,3144.67 L 5793.92,3144.67 L 5793.92,3227.34 Z " />
<path stroke="none" fill="#000000" transform="matrix(0.1 0 0 0.1 -440 -189)" d="M 5721.16,2980.73 L 5715.16,2991.13 L 5564.41,2904.1 L 5564.41,2897.17 L 5570.41,2893.7 L 5721.16,2980.73 Z " />
<path stroke="none" fill="#000000" transform="matrix(0.1 0 0 0.1 -440 -189)" d="M 4647.74,2950.86 L 4653.74,2940.47 L 4723.48,2980.73 L 4717.48,2991.12 L 4647.74,2950.86 Z " />
<path stroke="none" fill="#000000" transform="matrix(0.1 0 0 0.1 -440 -189)" d="M 4848.08,3227.34 L 4836.08,3227.34 L 4836.08,3144.67 L 4848.08,3144.67 L 4848.08,3227.34 Z " />
<path stroke="none" fill="#000000" transform="matrix(0.1 0 0 0.1 -440 -189)" d="M 4796.24,3227.34 L 4784.24,3227.34 L 4784.24,3144.67 L 4796.24,3144.67 L 4796.24,3227.34 Z " />
<path stroke="none" fill="#000000" transform="matrix(0.1 0 0 0.1 -440 -189)" d="M 4973.28,2957.39 L 4967.28,2947 L 5059.59,2893.7 L 5065.59,2897.17 L 5065.59,2904.1 L 4973.28,2957.39 Z " />
<path stroke="none" fill="#000000" transform="matrix(0.1 0 0 0.1 -440 -189)" d="M 5477.33,2076.51 L 5483.33,2086.9 L 5472.12,2093.38 L 5466.12,2082.99 L 5477.33,2076.51 Z " />
<path stroke="none" fill="#000000" transform="matrix(0.1 0 0 0.1 -440 -189)" d="M 5133.62,2109.3 L 5139.62,2098.91 L 5209.36,2139.17 L 5203.36,2149.56 L 5133.62,2109.3 Z " />
<path stroke="none" fill="#000000" transform="matrix(0.1 0 0 0.1 -440 -189)" d="M 5159.54,2064.41 L 5165.54,2054.02 L 5235.28,2094.28 L 5229.28,2104.67 L 5159.54,2064.41 Z " />
<path stroke="none" fill="#000000" transform="matrix(0.1 0 0 0.1 -440 -189)" d="M 5309,2280.66 L 5321,2280.66 L 5321,2461.7 L 5315,2465.16 L 5309,2461.7 L 5309,2280.66 Z " />
</svg>
