<?xml version="1.0" encoding="UTF-8"?>
<svg width="238pt" height="192pt" version="1.1" viewBox="0 0 238 192" xmlns="http://www.w3.org/2000/svg" xmlns:xlink="http://www.w3.org/1999/xlink">
<defs>
<symbol id="a" overflow="visible">
<path d="m4.5781-3.1875c0-0.79688-0.046875-1.5938-0.39062-2.3281-0.45312-0.96875-1.2812-1.125-1.6875-1.125-0.60938 0-1.3281 0.26562-1.75 1.1875-0.3125 0.6875-0.35938 1.4688-0.35938 2.2656 0 0.75 0.03125 1.6406 0.45312 2.4062 0.42188 0.79688 1.1562 1 1.6406 1 0.53125 0 1.2969-0.20312 1.7344-1.1562 0.3125-0.6875 0.35938-1.4688 0.35938-2.25zm-0.8125-0.125c0 0.75 0 1.4219-0.10938 2.0625-0.15625 0.95312-0.71875 1.25-1.1719 1.25-0.39062 0-0.98438-0.25-1.1562-1.2031-0.10938-0.59375-0.10938-1.5156-0.10938-2.1094 0-0.64062 0-1.2969 0.078125-1.8281 0.1875-1.1875 0.9375-1.2812 1.1875-1.2812 0.32812 0 0.98438 0.1875 1.1719 1.1719 0.10938 0.5625 0.10938 1.3125 0.10938 1.9375z"/>
</symbol>
<symbol id="v" overflow="visible">
<path d="m4.4688-1.7344h-0.23438c-0.0625 0.29688-0.125 0.73438-0.23438 0.89062-0.0625 0.078125-0.71875 0.078125-0.9375 0.078125h-1.7969l1.0625-1.0312c1.5469-1.375 2.1406-1.9062 2.1406-2.9062 0-1.1406-0.89062-1.9375-2.1094-1.9375-1.125 0-1.8594 0.92188-1.8594 1.8125 0 0.54688 0.5 0.54688 0.53125 0.54688 0.17188 0 0.51562-0.10938 0.51562-0.53125 0-0.25-0.1875-0.51562-0.53125-0.51562-0.078125 0-0.09375 0-0.125 0.015625 0.21875-0.65625 0.76562-1.0156 1.3438-1.0156 0.90625 0 1.3281 0.8125 1.3281 1.625 0 0.79688-0.48438 1.5781-1.0469 2.2031l-1.9062 2.125c-0.10938 0.10938-0.10938 0.14062-0.10938 0.375h3.7031z"/>
</symbol>
<symbol id="u" overflow="visible">
<path d="m4.6875-1.6406v-0.3125h-0.98438v-4.5312c0-0.20312 0-0.26562-0.17188-0.26562-0.078125 0-0.10938 0-0.1875 0.125l-3.0625 4.6719v0.3125h2.6562v0.85938c0 0.35938-0.03125 0.46875-0.76562 0.46875h-0.20312v0.3125c0.40625-0.03125 0.92188-0.03125 1.3438-0.03125s0.9375 0 1.3594 0.03125v-0.3125h-0.21875c-0.73438 0-0.75-0.10938-0.75-0.46875v-0.85938zm-1.7031-0.3125h-2.4219l2.4219-3.7188z"/>
</symbol>
<symbol id="t" overflow="visible">
<path d="m4.5625-2.0312c0-1.2656-0.89062-2.2188-2-2.2188-0.67188 0-1.0469 0.5-1.25 0.98438v-0.25c0-2.5156 1.2344-2.875 1.75-2.875 0.23438 0 0.65625 0.0625 0.875 0.40625-0.15625 0-0.54688 0-0.54688 0.4375 0 0.3125 0.23438 0.46875 0.45312 0.46875 0.15625 0 0.46875-0.09375 0.46875-0.48438 0-0.59375-0.4375-1.0781-1.2656-1.0781-1.2812 0-2.625 1.2812-2.625 3.4844 0 2.6719 1.1562 3.375 2.0781 3.375 1.1094 0 2.0625-0.9375 2.0625-2.25zm-0.90625-0.015625c0 0.48438 0 0.98438-0.17188 1.3438-0.29688 0.59375-0.75 0.64062-0.98438 0.64062-0.625 0-0.92188-0.59375-0.98438-0.75-0.1875-0.46875-0.1875-1.2656-0.1875-1.4375 0-0.78125 0.32812-1.7812 1.2188-1.7812 0.17188 0 0.625 0 0.9375 0.625 0.17188 0.35938 0.17188 0.875 0.17188 1.3594z"/>
</symbol>
<symbol id="s" overflow="visible">
<path d="m4.5625-1.6719c0-0.35938-0.10938-0.8125-0.5-1.2344-0.1875-0.20312-0.34375-0.29688-0.98438-0.70312 0.71875-0.375 1.2031-0.89062 1.2031-1.5469 0-0.92188-0.875-1.4844-1.7812-1.4844-1 0-1.8125 0.73438-1.8125 1.6719 0 0.17188 0.015625 0.625 0.4375 1.0938 0.10938 0.10938 0.48438 0.35938 0.73438 0.53125-0.57812 0.29688-1.4375 0.84375-1.4375 1.8438 0 1.0469 1.0156 1.7188 2.0625 1.7188 1.125 0 2.0781-0.82812 2.0781-1.8906zm-0.71875-3.4844c0 0.57812-0.39062 1.0469-0.98438 1.3906l-1.2344-0.79688c-0.45312-0.29688-0.5-0.625-0.5-0.79688 0-0.60938 0.65625-1.0312 1.3594-1.0312 0.71875 0 1.3594 0.51562 1.3594 1.2344zm0.21875 3.8438c0 0.73438-0.75 1.25-1.5625 1.25-0.85938 0-1.5781-0.60938-1.5781-1.4375 0-0.57812 0.3125-1.2188 1.1562-1.6875l1.2344 0.78125c0.28125 0.1875 0.75 0.48438 0.75 1.0938z"/>
</symbol>
<symbol id="r" overflow="visible">
<path d="m4.1719 0v-0.3125h-0.3125c-0.90625 0-0.92188-0.10938-0.92188-0.46875v-5.5938c0-0.25 0-0.26562-0.23438-0.26562-0.625 0.64062-1.5 0.64062-1.8125 0.64062v0.3125c0.20312 0 0.78125 0 1.2969-0.26562v5.1719c0 0.35938-0.03125 0.46875-0.92188 0.46875h-0.3125v0.3125c0.34375-0.03125 1.2031-0.03125 1.6094-0.03125 0.39062 0 1.2656 0 1.6094 0.03125z"/>
</symbol>
<symbol id="i" overflow="visible">
<path d="m7.1406-6.5v-0.3125l-1.1719 0.03125-1.1562-0.03125v0.3125c1.0156 0 1.0156 0.46875 1.0156 0.73438v4.2656l-3.5156-5.1719c-0.09375-0.125-0.09375-0.14062-0.28125-0.14062h-1.7031v0.3125h0.29688c0.14062 0 0.34375 0.015625 0.48438 0.015625 0.23438 0.03125 0.25 0.046875 0.25 0.23438v5.2031c0 0.26562 0 0.73438-1.0312 0.73438v0.3125l1.1719-0.03125 1.1562 0.03125v-0.3125c-1.0156 0-1.0156-0.46875-1.0156-0.73438v-5.1875c0.046875 0.046875 0.046875 0.0625 0.09375 0.125l4.0625 5.9844c0.09375 0.10938 0.10938 0.125 0.17188 0.125 0.14062 0 0.14062-0.0625 0.14062-0.26562v-5.5c0-0.26562 0-0.73438 1.0312-0.73438z"/>
</symbol>
<symbol id="av" overflow="visible">
<path d="m4.8125-0.89062v-0.5625h-0.25v0.5625c0 0.57812-0.25 0.64062-0.35938 0.64062-0.32812 0-0.35938-0.45312-0.35938-0.5v-1.9844c0-0.42188 0-0.8125-0.35938-1.1875-0.39062-0.39062-0.89062-0.54688-1.375-0.54688-0.8125 0-1.5 0.46875-1.5 1.125 0 0.29688 0.20312 0.46875 0.45312 0.46875 0.28125 0 0.46875-0.20312 0.46875-0.45312 0-0.125-0.0625-0.45312-0.51562-0.45312 0.26562-0.35938 0.76562-0.46875 1.0781-0.46875 0.48438 0 1.0625 0.39062 1.0625 1.2812v0.35938c-0.51562 0.03125-1.2188 0.0625-1.8438 0.35938-0.75 0.34375-1 0.85938-1 1.2969 0 0.8125 0.96875 1.0625 1.5938 1.0625 0.67188 0 1.125-0.40625 1.3125-0.85938 0.046875 0.39062 0.3125 0.8125 0.78125 0.8125 0.20312 0 0.8125-0.14062 0.8125-0.95312zm-1.6562-0.5c0 0.9375-0.71875 1.2812-1.1719 1.2812-0.48438 0-0.89062-0.34375-0.89062-0.84375 0-0.54688 0.40625-1.375 2.0625-1.4375z"/>
</symbol>
<symbol id="b" overflow="visible">
<path d="m7.1875-3.375c0-2.0312-1.5-3.6562-3.3125-3.6562-1.7969 0-3.3125 1.5938-3.3125 3.6562 0 2.0469 1.5312 3.5938 3.3125 3.5938 1.8125 0 3.3125-1.5781 3.3125-3.5938zm-1.0312-0.14062c0 2.6406-1.3594 3.4688-2.2812 3.4688-0.95312 0-2.2969-0.875-2.2969-3.4688 0-2.5781 1.4688-3.2656 2.2969-3.2656 0.85938 0 2.2812 0.70312 2.2812 3.2656z"/>
</symbol>
<symbol id="w" overflow="visible">
<path d="m7.3438 0v-0.3125c-0.54688 0-0.75-0.03125-1.0469-0.46875l-2.3125-3.3906 1.7969-1.7344c0.078125-0.078125 0.60938-0.57812 1.4219-0.59375v-0.3125c-0.26562 0.03125-0.57812 0.03125-0.85938 0.03125-0.35938 0-0.92188 0-1.2656-0.03125v0.3125c0.40625 0.015625 0.46875 0.23438 0.46875 0.32812 0 0.15625-0.10938 0.26562-0.1875 0.32812l-3.1094 2.9844v-3.1719c0-0.35938 0.015625-0.46875 0.78125-0.46875h0.23438v-0.3125c-0.34375 0.03125-1.0781 0.03125-1.4688 0.03125-0.375 0-1.125 0-1.4688-0.03125v0.3125h0.23438c0.76562 0 0.79688 0.10938 0.79688 0.46875v5.25c0 0.35938-0.03125 0.46875-0.79688 0.46875h-0.23438v0.3125c0.34375-0.03125 1.0938-0.03125 1.4688-0.03125s1.125 0 1.4688 0.03125v-0.3125h-0.23438c-0.76562 0-0.78125-0.10938-0.78125-0.46875v-1.7344l1.1562-1.1094 1.7969 2.6719c0.0625 0.09375 0.15625 0.21875 0.15625 0.34375 0 0.29688-0.39062 0.29688-0.59375 0.29688v0.3125c0.34375-0.03125 1.0469-0.03125 1.4219-0.03125z"/>
</symbol>
<symbol id="j" overflow="visible">
<path d="m6.625-2.3281c0-0.09375 0-0.17188-0.125-0.17188-0.10938 0-0.10938 0.0625-0.125 0.17188-0.078125 1.4219-1.1406 2.2344-2.2344 2.2344-0.60938 0-2.5625-0.32812-2.5625-3.3125 0-2.9688 1.9531-3.3125 2.5625-3.3125 1.0781 0 1.9688 0.90625 2.1719 2.3594 0.015625 0.14062 0.015625 0.17188 0.15625 0.17188 0.15625 0 0.15625-0.03125 0.15625-0.23438v-2.3594c0-0.17188 0-0.25-0.10938-0.25-0.03125 0-0.078125 0-0.15625 0.125l-0.5 0.73438c-0.35938-0.35938-0.875-0.85938-1.8281-0.85938-1.875 0-3.4688 1.5938-3.4688 3.625 0 2.0625 1.6094 3.625 3.4688 3.625 1.625 0 2.5938-1.3906 2.5938-2.5469z"/>
</symbol>
<symbol id="ba" overflow="visible">
<path d="m3.625-3.7969c0-0.3125-0.3125-0.60938-0.73438-0.60938-0.73438 0-1.0938 0.67188-1.2188 1.0938v-1.0938l-1.3906 0.10938v0.3125c0.70312 0 0.78125 0.0625 0.78125 0.5625v2.6719c0 0.4375-0.10938 0.4375-0.78125 0.4375v0.3125l1.1406-0.03125c0.39062 0 0.85938 0 1.2656 0.03125v-0.3125h-0.21875c-0.73438 0-0.75-0.10938-0.75-0.46875v-1.5312c0-0.98438 0.42188-1.875 1.1719-1.875 0.0625 0 0.09375 0 0.10938 0.015625-0.03125 0-0.23438 0.125-0.23438 0.39062s0.21875 0.42188 0.4375 0.42188c0.17188 0 0.42188-0.125 0.42188-0.4375z"/>
</symbol>
<symbol id="az" overflow="visible">
<path d="m4.1406-1.1875c0-0.09375-0.078125-0.125-0.14062-0.125-0.078125 0-0.10938 0.0625-0.125 0.14062-0.34375 1.0312-1.25 1.0312-1.3438 1.0312-0.5 0-0.89062-0.29688-1.125-0.67188-0.29688-0.46875-0.29688-1.125-0.29688-1.4844h2.7812c0.21875 0 0.25 0 0.25-0.21875 0-0.98438-0.54688-1.9531-1.7812-1.9531-1.1562 0-2.0781 1.0312-2.0781 2.2812 0 1.3281 1.0469 2.2969 2.1875 2.2969 1.2188 0 1.6719-1.1094 1.6719-1.2969zm-0.65625-1.3281h-2.375c0.0625-1.4844 0.90625-1.7344 1.25-1.7344 1.0156 0 1.125 1.3438 1.125 1.7344z"/>
</symbol>
<symbol id="ay" overflow="visible">
<path d="m3.2969 2.3906c0-0.03125 0-0.046875-0.17188-0.21875-1.2344-1.25-1.5625-3.1406-1.5625-4.6719 0-1.7344 0.375-3.4688 1.6094-4.7031 0.125-0.125 0.125-0.14062 0.125-0.17188 0-0.078125-0.03125-0.10938-0.09375-0.10938-0.10938 0-1 0.6875-1.5938 1.9531-0.5 1.0938-0.625 2.2031-0.625 3.0312 0 0.78125 0.10938 1.9844 0.65625 3.125 0.60938 1.2188 1.4531 1.875 1.5625 1.875 0.0625 0 0.09375-0.03125 0.09375-0.10938z"/>
</symbol>
<symbol id="ax" overflow="visible">
<path d="m4.9688-1.8594c0-0.98438-0.65625-1.8125-1.4844-2.0156l-1.2812-0.29688c-0.625-0.15625-1-0.6875-1-1.2656 0-0.70312 0.53125-1.3125 1.3125-1.3125 1.6562 0 1.875 1.6406 1.9375 2.0781 0.015625 0.0625 0.015625 0.125 0.125 0.125 0.125 0 0.125-0.046875 0.125-0.23438v-2c0-0.17188 0-0.25-0.10938-0.25-0.0625 0-0.078125 0.015625-0.14062 0.14062l-0.35938 0.5625c-0.29688-0.29688-0.70312-0.70312-1.5938-0.70312-1.1094 0-1.9375 0.875-1.9375 1.9375 0 0.82812 0.53125 1.5625 1.2969 1.8281 0.10938 0.03125 0.625 0.15625 1.3281 0.32812 0.26562 0.0625 0.5625 0.14062 0.84375 0.5 0.20312 0.26562 0.3125 0.59375 0.3125 0.92188 0 0.70312-0.5 1.4219-1.3438 1.4219-0.28125 0-1.0469-0.046875-1.5781-0.53125-0.57812-0.54688-0.60938-1.1719-0.60938-1.5312-0.015625-0.10938-0.09375-0.10938-0.125-0.10938-0.125 0-0.125 0.078125-0.125 0.25v2c0 0.17188 0 0.23438 0.10938 0.23438 0.0625 0 0.078125-0.015625 0.14062-0.125 0 0 0.03125-0.046875 0.35938-0.57812 0.3125 0.34375 0.95312 0.70312 1.8438 0.70312 1.1562 0 1.9531-0.96875 1.9531-2.0781z"/>
</symbol>
<symbol id="aw" overflow="visible">
<path d="m2.875-2.5c0-0.76562-0.10938-1.9688-0.65625-3.1094-0.59375-1.2188-1.4531-1.875-1.5469-1.875-0.0625 0-0.10938 0.046875-0.10938 0.10938 0 0.03125 0 0.046875 0.1875 0.23438 0.98438 0.98438 1.5469 2.5625 1.5469 4.6406 0 1.7188-0.35938 3.4688-1.5938 4.7188-0.14062 0.125-0.14062 0.14062-0.14062 0.17188 0 0.0625 0.046875 0.10938 0.10938 0.10938 0.09375 0 1-0.6875 1.5781-1.9531 0.51562-1.0938 0.625-2.2031 0.625-3.0469z"/>
</symbol>
<symbol id="h" overflow="visible">
<path d="m3.5781-1.2031c0-0.54688-0.4375-1.0938-1.2031-1.25 0.71875-0.26562 0.98438-0.78125 0.98438-1.2188 0-0.54688-0.625-0.95312-1.4062-0.95312-0.76562 0-1.3594 0.375-1.3594 0.9375 0 0.23438 0.15625 0.35938 0.35938 0.35938 0.21875 0 0.35938-0.15625 0.35938-0.34375 0-0.20312-0.14062-0.35938-0.35938-0.375 0.25-0.29688 0.71875-0.375 0.98438-0.375 0.3125 0 0.75 0.15625 0.75 0.75 0 0.29688-0.09375 0.625-0.28125 0.82812-0.21875 0.26562-0.42188 0.28125-0.76562 0.3125-0.17188 0.015625-0.1875 0.015625-0.21875 0.015625 0 0-0.078125 0.015625-0.078125 0.09375 0 0.09375 0.0625 0.09375 0.1875 0.09375h0.375c0.54688 0 0.9375 0.375 0.9375 1.125 0 0.85938-0.51562 1.125-0.90625 1.125-0.28125 0-0.90625-0.078125-1.1875-0.5 0.32812 0 0.40625-0.23438 0.40625-0.39062 0-0.21875-0.17188-0.375-0.39062-0.375-0.1875 0-0.39062 0.125-0.39062 0.40625 0 0.65625 0.71875 1.0781 1.5625 1.0781 0.96875 0 1.6406-0.65625 1.6406-1.3438z"/>
</symbol>
<symbol id="g" overflow="visible">
<path d="m3.5156-1.2656h-0.23438c-0.015625 0.15625-0.09375 0.5625-0.1875 0.625-0.046875 0.046875-0.57812 0.046875-0.6875 0.046875h-1.2812c0.73438-0.64062 0.98438-0.84375 1.3906-1.1719 0.51562-0.40625 1-0.84375 1-1.5 0-0.84375-0.73438-1.3594-1.625-1.3594-0.85938 0-1.4531 0.60938-1.4531 1.25 0 0.34375 0.29688 0.39062 0.375 0.39062 0.15625 0 0.35938-0.125 0.35938-0.375 0-0.125-0.046875-0.375-0.40625-0.375 0.21875-0.48438 0.6875-0.64062 1.0156-0.64062 0.70312 0 1.0625 0.54688 1.0625 1.1094 0 0.60938-0.4375 1.0781-0.65625 1.3281l-1.6719 1.6719c-0.078125 0.0625-0.078125 0.078125-0.078125 0.26562h2.875z"/>
</symbol>
<symbol id="au" overflow="visible">
<path d="m3.7969-4.4844h-1.8281c-0.28125 0-0.35938-0.015625-0.60938-0.03125-0.35938-0.03125-0.375-0.078125-0.39062-0.1875h-0.23438l-0.25 1.4844h0.23438c0.015625-0.10938 0.09375-0.5625 0.20312-0.64062 0.046875-0.03125 0.625-0.03125 0.71875-0.03125h1.5156l-0.71875 0.92188c-0.90625 1.1875-1 2.2969-1 2.7031 0 0.078125 0 0.40625 0.32812 0.40625 0.34375 0 0.34375-0.3125 0.34375-0.40625v-0.28125c0-1.3438 0.28125-1.9688 0.57812-2.3438l1.0469-1.3125c0.0625-0.09375 0.0625-0.10938 0.0625-0.28125z"/>
</symbol>
<symbol id="at" overflow="visible">
<path d="m3.6875-1.1406v-0.25h-0.78125v-3.1094c0-0.14062 0-0.20312-0.14062-0.20312-0.09375 0-0.125 0-0.1875 0.10938l-2.3125 3.2031v0.25h2.0625v0.5625c0 0.25 0 0.32812-0.57812 0.32812h-0.1875v0.25l1.0469-0.03125 1.0625 0.03125v-0.25h-0.1875c-0.57812 0-0.57812-0.078125-0.57812-0.32812v-0.5625zm-1.3125-0.25h-1.8438l1.8438-2.5469z"/>
</symbol>
<symbol id="as" overflow="visible">
<path d="m6.8281-4.5-0.1875-2.25h-6.0938l-0.1875 2.25h0.25c0.14062-1.6094 0.28125-1.9375 1.7969-1.9375 0.17188 0 0.4375 0 0.53125 0.015625 0.21875 0.046875 0.21875 0.15625 0.21875 0.375v5.2656c0 0.32812 0 0.46875-1.0469 0.46875h-0.40625v0.3125c0.40625-0.03125 1.4219-0.03125 1.8906-0.03125 0.45312 0 1.4844 0 1.8906 0.03125v-0.3125h-0.40625c-1.0469 0-1.0469-0.14062-1.0469-0.46875v-5.2656c0-0.1875 0-0.32812 0.1875-0.375 0.10938-0.015625 0.375-0.015625 0.5625-0.015625 1.5156 0 1.6562 0.32812 1.7969 1.9375z"/>
</symbol>
<symbol id="q" overflow="visible">
<path d="m4.1406-1.1875c0-0.09375-0.078125-0.125-0.14062-0.125-0.078125 0-0.10938 0.0625-0.125 0.14062-0.34375 1.0312-1.25 1.0312-1.3438 1.0312-0.5 0-0.89062-0.29688-1.125-0.67188-0.29688-0.46875-0.29688-1.125-0.29688-1.4844h2.7812c0.21875 0 0.25 0 0.25-0.21875 0-0.98438-0.54688-1.9531-1.7812-1.9531-1.1562 0-2.0781 1.0312-2.0781 2.2812 0 1.3281 1.0469 2.2969 2.1875 2.2969 1.2188 0 1.6719-1.1094 1.6719-1.2969zm-0.65625-1.3281h-2.375c0.0625-1.4844 0.90625-1.7344 1.25-1.7344 1.0156 0 1.125 1.3438 1.125 1.7344z"/>
</symbol>
<symbol id="ar" overflow="visible">
<path d="m8.1094 0v-0.3125c-0.51562 0-0.76562 0-0.78125-0.29688v-1.9062c0-0.85938 0-1.1562-0.3125-1.5156-0.14062-0.17188-0.46875-0.375-1.0469-0.375-0.82812 0-1.2812 0.59375-1.4375 0.98438-0.14062-0.875-0.875-0.98438-1.3281-0.98438-0.73438 0-1.2031 0.42188-1.4844 1.0469v-1.0469l-1.4062 0.10938v0.3125c0.70312 0 0.78125 0.0625 0.78125 0.5625v2.6719c0 0.4375-0.10938 0.4375-0.78125 0.4375v0.3125l1.1406-0.03125 1.1094 0.03125v-0.3125c-0.67188 0-0.78125 0-0.78125-0.4375v-1.8438c0-1.0312 0.71875-1.5938 1.3438-1.5938 0.64062 0 0.75 0.53125 0.75 1.1094v2.3281c0 0.4375-0.10938 0.4375-0.78125 0.4375v0.3125l1.125-0.03125 1.1094 0.03125v-0.3125c-0.65625 0-0.76562 0-0.76562-0.4375v-1.8438c0-1.0312 0.70312-1.5938 1.3438-1.5938 0.625 0 0.73438 0.53125 0.73438 1.1094v2.3281c0 0.4375-0.10938 0.4375-0.78125 0.4375v0.3125l1.125-0.03125z"/>
</symbol>
<symbol id="aq" overflow="visible">
<path d="m5.1875-2.1562c0-1.2656-0.95312-2.25-2.0781-2.25-0.78125 0-1.2031 0.4375-1.3906 0.65625v-0.65625l-1.4375 0.10938v0.3125c0.70312 0 0.78125 0.0625 0.78125 0.5v4.6562c0 0.45312-0.10938 0.45312-0.78125 0.45312v0.3125l1.1094-0.03125 1.125 0.03125v-0.3125c-0.65625 0-0.76562 0-0.76562-0.45312v-1.7656c0.046875 0.17188 0.46875 0.70312 1.2188 0.70312 1.1875 0 2.2188-0.98438 2.2188-2.2656zm-0.82812 0c0 1.2031-0.6875 2.0469-1.4219 2.0469-0.40625 0-0.78125-0.20312-1.0469-0.60938-0.14062-0.20312-0.14062-0.21875-0.14062-0.42188v-2.2188c0.28125-0.51562 0.76562-0.79688 1.2812-0.79688 0.73438 0 1.3281 0.875 1.3281 2z"/>
</symbol>
<symbol id="p" overflow="visible">
<path d="m3.625-3.7969c0-0.3125-0.3125-0.60938-0.73438-0.60938-0.73438 0-1.0938 0.67188-1.2188 1.0938v-1.0938l-1.3906 0.10938v0.3125c0.70312 0 0.78125 0.0625 0.78125 0.5625v2.6719c0 0.4375-0.10938 0.4375-0.78125 0.4375v0.3125l1.1406-0.03125c0.39062 0 0.85938 0 1.2656 0.03125v-0.3125h-0.21875c-0.73438 0-0.75-0.10938-0.75-0.46875v-1.5312c0-0.98438 0.42188-1.875 1.1719-1.875 0.0625 0 0.09375 0 0.10938 0.015625-0.03125 0-0.23438 0.125-0.23438 0.39062s0.21875 0.42188 0.4375 0.42188c0.17188 0 0.42188-0.125 0.42188-0.4375z"/>
</symbol>
<symbol id="o" overflow="visible">
<path d="m4.8125-0.89062v-0.5625h-0.25v0.5625c0 0.57812-0.25 0.64062-0.35938 0.64062-0.32812 0-0.35938-0.45312-0.35938-0.5v-1.9844c0-0.42188 0-0.8125-0.35938-1.1875-0.39062-0.39062-0.89062-0.54688-1.375-0.54688-0.8125 0-1.5 0.46875-1.5 1.125 0 0.29688 0.20312 0.46875 0.45312 0.46875 0.28125 0 0.46875-0.20312 0.46875-0.45312 0-0.125-0.0625-0.45312-0.51562-0.45312 0.26562-0.35938 0.76562-0.46875 1.0781-0.46875 0.48438 0 1.0625 0.39062 1.0625 1.2812v0.35938c-0.51562 0.03125-1.2188 0.0625-1.8438 0.35938-0.75 0.34375-1 0.85938-1 1.2969 0 0.8125 0.96875 1.0625 1.5938 1.0625 0.67188 0 1.125-0.40625 1.3125-0.85938 0.046875 0.39062 0.3125 0.8125 0.78125 0.8125 0.20312 0 0.8125-0.14062 0.8125-0.95312zm-1.6562-0.5c0 0.9375-0.71875 1.2812-1.1719 1.2812-0.48438 0-0.89062-0.34375-0.89062-0.84375 0-0.54688 0.40625-1.375 2.0625-1.4375z"/>
</symbol>
<symbol id="ap" overflow="visible">
<path d="m3.3125-1.2344v-0.5625h-0.25v0.54688c0 0.73438-0.29688 1.1094-0.67188 1.1094-0.67188 0-0.67188-0.90625-0.67188-1.0781v-2.7656h1.4375v-0.3125h-1.4375v-1.8281h-0.25c0 0.8125-0.29688 1.875-1.2812 1.9219v0.21875h0.84375v2.75c0 1.2188 0.9375 1.3438 1.2969 1.3438 0.70312 0 0.98438-0.70312 0.98438-1.3438z"/>
</symbol>
<symbol id="ao" overflow="visible">
<path d="m5.3281 0v-0.3125c-0.6875 0-0.76562-0.0625-0.76562-0.5625v-3.5312l-1.4688 0.10938v0.3125c0.6875 0 0.78125 0.0625 0.78125 0.5625v1.7656c0 0.875-0.48438 1.5469-1.2188 1.5469-0.82812 0-0.875-0.46875-0.875-0.98438v-3.3125l-1.4688 0.10938v0.3125c0.78125 0 0.78125 0.03125 0.78125 0.90625v1.5c0 0.78125 0 1.6875 1.5156 1.6875 0.5625 0 1-0.28125 1.2812-0.89062v0.89062z"/>
</symbol>
<symbol id="an" overflow="visible">
<path d="m2.0312-0.015625c0-0.625-0.25-1.0469-0.64062-1.0469-0.35938 0-0.53125 0.28125-0.53125 0.53125 0 0.26562 0.17188 0.53125 0.53125 0.53125 0.14062 0 0.28125-0.0625 0.39062-0.15625 0.015625 0.78125-0.25 1.3906-0.6875 1.8594-0.0625 0.0625-0.078125 0.078125-0.078125 0.10938 0 0.078125 0.046875 0.10938 0.09375 0.10938 0.125 0 0.92188-0.78125 0.92188-1.9375z"/>
</symbol>
<symbol id="am" overflow="visible">
<path d="m6.7344-4.7344 0.26562-1.7344c0.015625-0.046875 0.015625-0.14062 0.015625-0.17188 0-0.10938-0.09375-0.10938-0.26562-0.10938h-5.5312c-0.23438 0-0.25 0.015625-0.32812 0.20312l-0.59375 1.75c0 0.015625-0.0625 0.1875-0.0625 0.1875 0 0.046875 0.0625 0.10938 0.125 0.10938 0.09375 0 0.10938-0.0625 0.17188-0.21875 0.53125-1.5469 0.79688-1.7188 2.2656-1.7188h0.39062c0.28125 0 0.28125 0.03125 0.28125 0.125 0 0.046875-0.03125 0.17188-0.046875 0.20312l-1.3281 5.3281c-0.09375 0.35938-0.125 0.46875-1.1875 0.46875-0.35938 0-0.42188 0-0.42188 0.1875 0 0.125 0.10938 0.125 0.17188 0.125 0.26562 0 0.54688-0.015625 0.8125-0.015625l0.85938-0.015625 0.82812 0.015625c0.28125 0 0.57812 0.015625 0.85938 0.015625 0.09375 0 0.21875 0 0.21875-0.20312 0-0.10938-0.078125-0.10938-0.34375-0.10938-0.23438 0-0.375 0-0.625-0.015625-0.29688-0.03125-0.375-0.0625-0.375-0.21875 0 0 0-0.0625 0.046875-0.20312l1.3125-5.2969c0.078125-0.28125 0.10938-0.34375 0.23438-0.375 0.09375-0.015625 0.42188-0.015625 0.625-0.015625 1.0156 0 1.4531 0.03125 1.4531 0.8125 0 0.15625-0.03125 0.54688-0.078125 0.79688 0 0.046875-0.03125 0.15625-0.03125 0.1875 0 0.0625 0.03125 0.14062 0.125 0.14062 0.10938 0 0.125-0.078125 0.15625-0.23438z"/>
</symbol>
<symbol id="al" overflow="visible">
<path d="m4.4219-7.2812c0-0.10938-0.078125-0.20312-0.1875-0.20312-0.078125 0-0.14062 0.03125-0.17188 0.09375l-3.4688 9.5c-0.046875 0.14062-0.046875 0.1875-0.046875 0.1875 0 0.10938 0.09375 0.20312 0.20312 0.20312 0.125 0 0.15625-0.078125 0.21875-0.25l3.4062-9.3438c0.046875-0.14062 0.046875-0.1875 0.046875-0.1875z"/>
</symbol>
<symbol id="ak" overflow="visible">
<path d="m3.5312-1.7344c0-0.85938-0.6875-1.5-1.5-1.5-0.82812 0-1.4844 0.67188-1.4844 1.4844 0 0.84375 0.67188 1.5 1.4844 1.5 0.82812 0 1.5-0.67188 1.5-1.4844zm-0.34375-0.015625c0 0.64062-0.51562 1.1562-1.1562 1.1562s-1.1406-0.53125-1.1406-1.1406c0-0.65625 0.51562-1.1719 1.1406-1.1719 0.65625 0 1.1562 0.53125 1.1562 1.1562z"/>
</symbol>
<symbol id="aj" overflow="visible">
<path d="m-1.8594-4.9688c-0.98438 0-1.8125 0.65625-2.0156 1.4844l-0.29688 1.2812c-0.15625 0.625-0.6875 1-1.2656 1-0.70312 0-1.3125-0.53125-1.3125-1.3125 0-1.6562 1.6406-1.875 2.0781-1.9375 0.0625-0.015625 0.125-0.015625 0.125-0.125 0-0.125-0.046875-0.125-0.23438-0.125h-2c-0.17188 0-0.25 0-0.25 0.10938 0 0.0625 0.015625 0.078125 0.14062 0.14062l0.5625 0.35938c-0.29688 0.29688-0.70312 0.70312-0.70312 1.5938 0 1.1094 0.875 1.9375 1.9375 1.9375 0.82812 0 1.5625-0.53125 1.8281-1.2969 0.03125-0.10938 0.15625-0.625 0.32812-1.3281 0.0625-0.26562 0.14062-0.5625 0.5-0.84375 0.26562-0.20312 0.59375-0.3125 0.92188-0.3125 0.70312 0 1.4219 0.5 1.4219 1.3438 0 0.28125-0.046875 1.0469-0.53125 1.5781-0.54688 0.57812-1.1719 0.60938-1.5312 0.60938-0.10938 0.015625-0.10938 0.09375-0.10938 0.125 0 0.125 0.078125 0.125 0.25 0.125h2c0.17188 0 0.23438 0 0.23438-0.10938 0-0.0625-0.015625-0.078125-0.125-0.14062 0 0-0.046875-0.03125-0.57812-0.35938 0.34375-0.3125 0.70312-0.95312 0.70312-1.8438 0-1.1562-0.96875-1.9531-2.0781-1.9531z"/>
</symbol>
<symbol id="e" overflow="visible">
<path d="m-2.1406-4.6875c-1.2656 0-2.3281 0.98438-2.3281 2.1875 0 1.25 1.0938 2.2188 2.3281 2.2188 1.2969 0 2.25-1.0312 2.25-2.2031 0-1.2031-0.98438-2.2031-2.25-2.2031zm-0.078125 0.8125c0.35938 0 0.90625 0 1.3438 0.21875 0.45312 0.23438 0.73438 0.67188 0.73438 1.1562 0 0.4375-0.20312 0.875-0.67188 1.1406-0.4375 0.25-1.0469 0.25-1.4062 0.25-0.39062 0-0.92188 0-1.3594-0.23438-0.45312-0.26562-0.67188-0.73438-0.67188-1.1406 0-0.4375 0.21875-0.85938 0.65625-1.125 0.42188-0.26562 1-0.26562 1.375-0.26562z"/>
</symbol>
<symbol id="d" overflow="visible">
<path d="m0-2.5469h-0.3125c0 0.67188 0 0.78125-0.4375 0.78125h-6.1719l0.10938 1.4375h0.3125c0-0.70312 0.0625-0.78125 0.5625-0.78125h5.1875c0.4375 0 0.4375 0.10938 0.4375 0.78125h0.3125l-0.03125-1.1094z"/>
</symbol>
<symbol id="c" overflow="visible">
<path d="m0-5.3281h-0.3125c0 0.6875-0.0625 0.76562-0.5625 0.76562h-3.5312l0.10938 1.4688h0.3125c0-0.6875 0.0625-0.78125 0.5625-0.78125h1.7656c0.875 0 1.5469 0.48438 1.5469 1.2188 0 0.82812-0.46875 0.875-0.98438 0.875h-3.3125l0.10938 1.4688h0.3125c0-0.78125 0.03125-0.78125 0.90625-0.78125h1.5c0.78125 0 1.6875 0 1.6875-1.5156 0-0.5625-0.28125-1-0.89062-1.2812h0.89062z"/>
</symbol>
<symbol id="ac" overflow="visible">
<path d="m-2.1562-5.1875c-1.2656 0-2.25 0.96875-2.25 2.1094 0 0.78125 0.46875 1.2031 0.64062 1.3594h-3.1562l0.10938 1.4375h0.3125c0-0.70312 0.0625-0.78125 0.5625-0.78125h5.9375v-0.25l-0.625-0.35938c0.23438-0.14062 0.73438-0.5625 0.73438-1.2969 0-1.1875-0.98438-2.2188-2.2656-2.2188zm0 0.82812c0.35938 0 0.95312 0.015625 1.4062 0.29688 0.3125 0.21875 0.64062 0.59375 0.64062 1.125 0 0.45312-0.23438 0.8125-0.60938 1.0469-0.20312 0.14062-0.23438 0.14062-0.42188 0.14062h-2.0469c-0.1875 0-0.20312 0-0.35938-0.10938-0.5625-0.39062-0.64062-0.9375-0.64062-1.1719 0-0.45312 0.26562-0.8125 0.64062-1.0469 0.40625-0.26562 0.96875-0.28125 1.3906-0.28125z"/>
</symbol>
<symbol id="m" overflow="visible">
<path d="m0-2.4688h-0.3125c0 0.67188-0.046875 0.70312-0.4375 0.70312h-3.6562l0.10938 1.3906h0.3125c0-0.64062 0.0625-0.73438 0.54688-0.73438h2.6875c0.4375 0 0.4375 0.10938 0.4375 0.78125h0.3125l-0.03125-1.0938c0-0.35938 0.015625-0.70312 0.03125-1.0469zm-6.0156 0.5625c-0.28125 0-0.53125 0.21875-0.53125 0.51562 0 0.34375 0.28125 0.54688 0.53125 0.54688 0.26562 0 0.51562-0.23438 0.51562-0.53125 0-0.34375-0.26562-0.53125-0.51562-0.53125z"/>
</symbol>
<symbol id="l" overflow="visible">
<path d="m0-5.25h-0.3125c0 0.6875-0.0625 0.78125-0.5625 0.78125h-6.0469l0.10938 1.4219h0.3125c0-0.6875 0.0625-0.76562 0.5625-0.76562h2.1562c-0.35938 0.28125-0.625 0.71875-0.625 1.25 0 1.1719 0.98438 2.2188 2.2656 2.2188 1.2656 0 2.25-0.96875 2.25-2.1094 0-0.64062-0.34375-1.0781-0.65625-1.3281h0.65625zm-1.1719 1.4688c0.17188 0 0.1875 0 0.35938 0.10938 0.48438 0.29688 0.70312 0.73438 0.70312 1.1719 0 0.45312-0.26562 0.8125-0.64062 1.0469-0.40625 0.25-0.96875 0.28125-1.3906 0.28125-0.35938 0-0.95312-0.015625-1.4062-0.29688-0.3125-0.21875-0.64062-0.59375-0.64062-1.1406 0-0.34375 0.15625-0.76562 0.59375-1.0625 0.17188-0.10938 0.1875-0.10938 0.375-0.10938z"/>
</symbol>
<symbol id="k" overflow="visible">
<path d="m-0.89062-4.8125h-0.5625v0.25h0.5625c0.57812 0 0.64062 0.25 0.64062 0.35938 0 0.32812-0.45312 0.35938-0.5 0.35938h-1.9844c-0.42188 0-0.8125 0-1.1875 0.35938-0.39062 0.39062-0.54688 0.89062-0.54688 1.375 0 0.8125 0.46875 1.5 1.125 1.5 0.29688 0 0.46875-0.20312 0.46875-0.45312 0-0.28125-0.20312-0.46875-0.45312-0.46875-0.125 0-0.45312 0.0625-0.45312 0.51562-0.35938-0.26562-0.46875-0.76562-0.46875-1.0781 0-0.48438 0.39062-1.0625 1.2812-1.0625h0.35938c0.03125 0.51562 0.0625 1.2188 0.35938 1.8438 0.34375 0.75 0.85938 1 1.2969 1 0.8125 0 1.0625-0.96875 1.0625-1.5938 0-0.67188-0.40625-1.125-0.85938-1.3125 0.39062-0.046875 0.8125-0.3125 0.8125-0.78125 0-0.20312-0.14062-0.8125-0.95312-0.8125zm-0.5 1.6562c0.9375 0 1.2812 0.71875 1.2812 1.1719 0 0.48438-0.34375 0.89062-0.84375 0.89062-0.54688 0-1.375-0.40625-1.4375-2.0625z"/>
</symbol>
<symbol id="ab" overflow="visible">
<path d="m-1.1875-4.1406c-0.09375 0-0.125 0.078125-0.125 0.14062 0 0.078125 0.0625 0.10938 0.14062 0.125 1.0312 0.34375 1.0312 1.25 1.0312 1.3438 0 0.5-0.29688 0.89062-0.67188 1.125-0.46875 0.29688-1.125 0.29688-1.4844 0.29688v-2.7812c0-0.21875 0-0.25-0.21875-0.25-0.98438 0-1.9531 0.54688-1.9531 1.7812 0 1.1562 1.0312 2.0781 2.2812 2.0781 1.3281 0 2.2969-1.0469 2.2969-2.1875 0-1.2188-1.1094-1.6719-1.2969-1.6719zm-1.3281 0.65625v2.375c-1.4844-0.0625-1.7344-0.90625-1.7344-1.25 0-1.0156 1.3438-1.125 1.7344-1.125z"/>
</symbol>
<symbol id="ai" overflow="visible">
<path d="m-0.015625-2.0312c-0.625 0-1.0469 0.25-1.0469 0.64062 0 0.35938 0.28125 0.53125 0.53125 0.53125 0.26562 0 0.53125-0.17188 0.53125-0.53125 0-0.14062-0.0625-0.28125-0.15625-0.39062 0.78125-0.015625 1.3906 0.25 1.8594 0.6875 0.0625 0.0625 0.078125 0.078125 0.10938 0.078125 0.078125 0 0.10938-0.046875 0.10938-0.09375 0-0.125-0.78125-0.92188-1.9375-0.92188z"/>
</symbol>
<symbol id="f" overflow="visible">
<path d="m-4.0312-4.8281c-0.17188 0-0.48438 0.10938-0.48438 0.5 0 0.20312 0.0625 0.64062 0.46875 1.0625-0.32812 0.42188-0.35938 0.82812-0.35938 1.0469 0 0.9375 0.6875 1.625 1.4531 1.625 0.4375 0 0.8125-0.21875 1.0312-0.46875 0.14062 0.125 0.46875 0.3125 0.82812 0.3125 0.3125 0 0.6875-0.14062 0.89062-0.45312 0.15625 0.60938 0.59375 0.92188 0.98438 0.92188 0.71875 0 1.2656-0.98438 1.2656-2.2031 0-1.1719-0.5-2.2031-1.2812-2.2031-0.34375 0-0.85938 0.125-1.1406 0.64062-0.26562 0.53125-0.26562 1.1094-0.26562 1.7188 0 0.25 0 0.67188-0.015625 0.75-0.046875 0.3125-0.34375 0.51562-0.67188 0.51562-0.03125 0-0.26562 0-0.46875-0.15625 0.28125-0.39062 0.3125-0.8125 0.3125-1 0-0.92188-0.6875-1.6094-1.4531-1.6094-0.375 0-0.73438 0.15625-0.96875 0.40625-0.34375-0.35938-0.39062-0.71875-0.39062-0.89062 0 0 0-0.078125 0.015625-0.10938 0.03125 0.10938 0.14062 0.17188 0.26562 0.17188 0.17188 0 0.28125-0.14062 0.28125-0.29688 0-0.09375-0.0625-0.28125-0.29688-0.28125zm1.0781 1.75c0.26562 0 0.59375 0 0.84375 0.15625 0.10938 0.078125 0.39062 0.3125 0.39062 0.70312 0 0.875-1 0.875-1.2188 0.875-0.26562 0-0.59375-0.015625-0.84375-0.15625-0.10938-0.078125-0.39062-0.3125-0.39062-0.71875 0-0.85938 0.98438-0.85938 1.2188-0.85938zm3.7344-1.0938c0.54688 0 1.0469 0.70312 1.0469 1.6719 0 1.0156-0.51562 1.7031-1.0469 1.7031-0.45312 0-0.82812-0.375-0.84375-0.8125v-0.59375c0-0.85938 0-1.9688 0.84375-1.9688z"/>
</symbol>
<symbol id="ah" overflow="visible">
<path d="m-1.2812-3.5938c-0.51562 0-0.82812 0.29688-0.9375 0.42188-0.32812 0.32812-0.40625 0.71875-0.48438 1.1406-0.10938 0.5625-0.23438 1.2188-0.8125 1.2188-0.35938 0-0.76562-0.25-0.76562-1.1094 0-1.0938 0.90625-1.1562 1.2031-1.1719 0.09375 0 0.09375-0.10938 0.09375-0.10938 0-0.14062-0.046875-0.14062-0.23438-0.14062h-1.0156c-0.15625 0-0.23438 0-0.23438 0.10938 0 0.046875 0 0.078125 0.125 0.20312 0.03125 0.03125 0.125 0.125 0.15625 0.17188-0.28125 0.375-0.28125 0.78125-0.28125 0.9375 0 1.2188 0.67188 1.5938 1.2344 1.5938 0.34375 0 0.625-0.15625 0.84375-0.42188 0.25-0.32812 0.3125-0.60938 0.45312-1.3281 0.046875-0.21875 0.20312-1.0312 0.92188-1.0312 0.5 0 0.90625 0.34375 0.90625 1.125 0 0.84375-0.5625 1.2031-1.4219 1.3906-0.125 0.03125-0.15625 0.03125-0.15625 0.14062 0 0.125 0.0625 0.125 0.23438 0.125h1.3281c0.17188 0 0.23438 0 0.23438-0.10938 0-0.046875-0.015625-0.0625-0.20312-0.25-0.015625-0.015625-0.03125-0.015625-0.21875-0.20312 0.40625-0.4375 0.42188-0.89062 0.42188-1.0938 0-1.1406-0.67188-1.6094-1.3906-1.6094z"/>
</symbol>
<symbol id="ag" overflow="visible">
<path d="m-1.2344-3.3125h-0.5625v0.25h0.54688c0.73438 0 1.1094 0.29688 1.1094 0.67188 0 0.67188-0.90625 0.67188-1.0781 0.67188h-2.7656v-1.4375h-0.3125v1.4375h-1.8281v0.25c0.8125 0 1.875 0.29688 1.9219 1.2812h0.21875v-0.84375h2.75c1.2188 0 1.3438-0.9375 1.3438-1.2969 0-0.70312-0.70312-0.98438-1.3438-0.98438z"/>
</symbol>
<symbol id="af" overflow="visible">
<path d="m-7.2812-4.4219c-0.10938 0-0.20312 0.09375-0.20312 0.20312 0 0.14062 0.10938 0.1875 0.20312 0.21875l9.3906 3.3906c0.14062 0.046875 0.1875 0.046875 0.1875 0.046875 0.10938 0 0.20312-0.078125 0.20312-0.1875 0-0.14062-0.10938-0.1875-0.20312-0.21875l-9.3906-3.3906c-0.14062-0.0625-0.1875-0.0625-0.1875-0.0625z"/>
</symbol>
<symbol id="ae" overflow="visible">
<path d="m0-4.1719h-0.3125v0.3125c0 0.90625-0.10938 0.92188-0.46875 0.92188h-5.5938c-0.25 0-0.26562 0-0.26562 0.23438 0.64062 0.625 0.64062 1.5 0.64062 1.8125h0.3125c0-0.20312 0-0.78125-0.26562-1.2969h5.1719c0.35938 0 0.46875 0.03125 0.46875 0.92188v0.3125h0.3125c-0.03125-0.34375-0.03125-1.2031-0.03125-1.6094 0-0.39062 0-1.2656 0.03125-1.6094z"/>
</symbol>
<symbol id="n" overflow="visible">
<path d="m-3.1875-4.5781c-0.79688 0-1.5938 0.046875-2.3281 0.39062-0.96875 0.45312-1.125 1.2812-1.125 1.6875 0 0.60938 0.26562 1.3281 1.1875 1.75 0.6875 0.3125 1.4688 0.35938 2.2656 0.35938 0.75 0 1.6406-0.03125 2.4062-0.45312 0.79688-0.42188 1-1.1562 1-1.6406 0-0.53125-0.20312-1.2969-1.1562-1.7344-0.6875-0.3125-1.4688-0.35938-2.25-0.35938zm-0.125 0.8125c0.75 0 1.4219 0 2.0625 0.10938 0.95312 0.15625 1.25 0.71875 1.25 1.1719 0 0.39062-0.25 0.98438-1.2031 1.1562-0.59375 0.10938-1.5156 0.10938-2.1094 0.10938-0.64062 0-1.2969 0-1.8281-0.078125-1.1875-0.1875-1.2812-0.9375-1.2812-1.1875 0-0.32812 0.1875-0.98438 1.1719-1.1719 0.5625-0.10938 1.3125-0.10938 1.9375-0.10938z"/>
</symbol>
<symbol id="ad" overflow="visible">
<path d="m-0.89062-4.8125h-0.5625v0.25h0.5625c0.57812 0 0.64062 0.25 0.64062 0.35938 0 0.32812-0.45312 0.35938-0.5 0.35938h-1.9844c-0.42188 0-0.8125 0-1.1875 0.35938-0.39062 0.39062-0.54688 0.89062-0.54688 1.375 0 0.8125 0.46875 1.5 1.125 1.5 0.29688 0 0.46875-0.20312 0.46875-0.45312 0-0.28125-0.20312-0.46875-0.45312-0.46875-0.125 0-0.45312 0.0625-0.45312 0.51562-0.35938-0.26562-0.46875-0.76562-0.46875-1.0781 0-0.48438 0.39062-1.0625 1.2812-1.0625h0.35938c0.03125 0.51562 0.0625 1.2188 0.35938 1.8438 0.34375 0.75 0.85938 1 1.2969 1 0.8125 0 1.0625-0.96875 1.0625-1.5938 0-0.67188-0.40625-1.125-0.85938-1.3125 0.39062-0.046875 0.8125-0.3125 0.8125-0.78125 0-0.20312-0.14062-0.8125-0.95312-0.8125zm-0.5 1.6562c0.9375 0 1.2812 0.71875 1.2812 1.1719 0 0.48438-0.34375 0.89062-0.84375 0.89062-0.54688 0-1.375-0.40625-1.4375-2.0625zm-5.2031-0.57812c-0.1875 0-0.35938 0.1875-0.35938 0.35938 0 0.15625 0.10938 0.26562 0.17188 0.29688l1.5156 1.2031 0.1875-0.17188-1.2188-1.5156c-0.078125-0.09375-0.1875-0.17188-0.29688-0.17188z"/>
</symbol>
<symbol id="aa" overflow="visible">
<path d="m-1.5469-3.9531c-0.35938 0-0.60938 0.1875-0.71875 0.3125-0.28125 0.26562-0.34375 0.5625-0.42188 1-0.078125 0.35938-0.15625 0.75-0.60938 0.75-0.28125 0-0.89062-0.23438-0.89062-1.1094 0-0.25 0.078125-0.75 0.45312-0.89062 0.015625 0.26562 0.23438 0.46875 0.45312 0.46875 0.14062 0 0.29688-0.09375 0.29688-0.3125s-0.17188-0.45312-0.5625-0.45312c-0.45312 0-0.85938 0.42188-0.85938 1.1875 0 1.3125 1.0156 1.6875 1.4531 1.6875 0.78125 0 0.92188-0.73438 0.98438-1.0312 0.10938-0.51562 0.21875-1.0312 0.76562-1.0312 0.25 0 1.0938 0.21875 1.0938 1.4219 0 0.14062 0 0.90625-0.53125 1.1406 0.046875-0.39062-0.25-0.64062-0.53125-0.64062-0.21875 0-0.34375 0.17188-0.34375 0.375 0 0.26562 0.20312 0.5625 0.65625 0.5625 0.5625 0 0.96875-0.57812 0.96875-1.4219 0-1.625-1.2031-2.0156-1.6562-2.0156z"/>
</symbol>
<symbol id="z" overflow="visible">
<path d="m-7.2812-4.4219c-0.10938 0-0.20312 0.078125-0.20312 0.1875 0 0.078125 0.03125 0.14062 0.09375 0.17188l9.5 3.4688c0.14062 0.046875 0.1875 0.046875 0.1875 0.046875 0.10938 0 0.20312-0.09375 0.20312-0.20312 0-0.125-0.078125-0.15625-0.25-0.21875l-9.3438-3.4062c-0.14062-0.046875-0.1875-0.046875-0.1875-0.046875z"/>
</symbol>
<symbol id="y" overflow="visible">
<path d="m2.3906-3.2969c-0.03125 0-0.046875 0-0.21875 0.17188-1.25 1.2344-3.1406 1.5625-4.6719 1.5625-1.7344 0-3.4688-0.375-4.7031-1.6094-0.125-0.125-0.14062-0.125-0.17188-0.125-0.078125 0-0.10938 0.03125-0.10938 0.09375 0 0.10938 0.6875 1 1.9531 1.5938 1.0938 0.5 2.2031 0.625 3.0312 0.625 0.78125 0 1.9844-0.10938 3.125-0.65625 1.2188-0.60938 1.875-1.4531 1.875-1.5625 0-0.0625-0.03125-0.09375-0.10938-0.09375z"/>
</symbol>
<symbol id="x" overflow="visible">
<path d="m-2.5-2.875c-0.76562 0-1.9688 0.10938-3.1094 0.65625-1.2188 0.59375-1.875 1.4531-1.875 1.5469 0 0.0625 0.046875 0.10938 0.10938 0.10938 0.03125 0 0.046875 0 0.23438-0.1875 0.98438-0.98438 2.5625-1.5469 4.6406-1.5469 1.7188 0 3.4688 0.35938 4.7188 1.5938 0.125 0.14062 0.14062 0.14062 0.17188 0.14062 0.0625 0 0.10938-0.046875 0.10938-0.10938 0-0.09375-0.6875-1-1.9531-1.5781-1.0938-0.51562-2.2031-0.625-3.0469-0.625z"/>
</symbol>
<clipPath id="be">
<path d="m35.879 3.8008h194.27v61.199h-194.27z"/>
</clipPath>
<clipPath id="bd">
<path d="m35.879 3.8008h194.27v161.2h-194.27z"/>
</clipPath>
<clipPath id="bc">
<path d="m35.879 22h194.27v143.2h-194.27z"/>
</clipPath>
<clipPath id="bb">
<path d="m35.879 114h194.27v51.199h-194.27z"/>
</clipPath>
</defs>
<path transform="matrix(1 0 0 -1 35.878 165.2)" d="m9.0625e-4 -0.0012188v161.4m38.855-161.4v161.4m38.852-161.4v161.4m38.855-161.4v161.4m38.855-161.4v161.4m38.855-161.4v161.4" fill="none" stroke="#bfbfbf" stroke-miterlimit="10" stroke-width=".3985"/>
<path transform="matrix(1 0 0 -1 35.878 165.2)" d="m9.0625e-4 -0.0012188h194.27m-194.27 32.281h194.27m-194.27 32.277h194.27m-194.27 32.281h194.27m-194.27 32.277h194.27m-194.27 32.281h194.27" fill="none" stroke="#bfbfbf" stroke-miterlimit="10" stroke-width=".3985"/>
<path transform="matrix(1 0 0 -1 35.878 165.2)" d="m9.0625e-4 -0.0012188v4.2539m38.855-4.2539v4.2539m38.852-4.2539v4.2539m38.855-4.2539v4.2539m38.855-4.2539v4.2539m38.855-4.2539v4.2539m-194.27 157.14v-4.2539m38.855 4.2539v-4.2539m38.852 4.2539v-4.2539m38.855 4.2539v-4.2539m38.855 4.2539v-4.2539m38.855 4.2539v-4.2539" fill="none" stroke="#7f7f7f" stroke-miterlimit="10" stroke-width=".19925"/>
<path transform="matrix(1 0 0 -1 35.878 165.2)" d="m9.0625e-4 -0.0012188h4.25m-4.25 32.281h4.25m-4.25 32.277h4.25m-4.25 32.281h4.25m-4.25 32.277h4.25m-4.25 32.281h4.25m190.02-161.4h-4.2539m4.2539 32.281h-4.2539m4.2539 32.277h-4.2539m4.2539 32.281h-4.2539m4.2539 32.277h-4.2539m4.2539 32.281h-4.2539" fill="none" stroke="#7f7f7f" stroke-miterlimit="10" stroke-width=".19925"/>
<path transform="matrix(1 0 0 -1 35.878 165.2)" d="m9.0625e-4 -0.0012188v161.4h194.27v-161.4z" fill="none" stroke="#000" stroke-miterlimit="10" stroke-width=".3985"/>
<g>
<use x="33.387" y="174.992" xlink:href="#a"/>
<use x="69.751" y="174.992" xlink:href="#v"/>
<use x="74.7323" y="174.992" xlink:href="#a"/>
<use x="108.605" y="174.992" xlink:href="#u"/>
<use x="113.5863" y="174.992" xlink:href="#a"/>
<use x="147.459" y="174.992" xlink:href="#t"/>
<use x="152.4403" y="174.992" xlink:href="#a"/>
<use x="186.313" y="174.992" xlink:href="#s"/>
<use x="191.2943" y="174.992" xlink:href="#a"/>
<use x="222.677" y="174.992" xlink:href="#r"/>
<use x="227.6583" y="174.992" xlink:href="#a"/>
<use x="232.6396" y="174.992" xlink:href="#a"/>
<use x="27.377" y="168.335" xlink:href="#a"/>
<use x="22.395" y="136.056" xlink:href="#v"/>
<use x="27.3763" y="136.056" xlink:href="#a"/>
<use x="22.395" y="103.777" xlink:href="#u"/>
<use x="27.3763" y="103.777" xlink:href="#a"/>
<use x="22.395" y="71.498" xlink:href="#t"/>
<use x="27.3763" y="71.498" xlink:href="#a"/>
<use x="22.395" y="39.22" xlink:href="#s"/>
<use x="27.3763" y="39.22" xlink:href="#a"/>
<use x="17.414" y="6.941" xlink:href="#r"/>
<use x="22.3953" y="6.941" xlink:href="#a"/>
<use x="27.3766" y="6.941" xlink:href="#a"/>
</g>
<g clip-path="url(#be)">
<path transform="matrix(1 0 0 -1 35.878 165.2)" d="m9.0625e-4 117.82 1.3047 0.85938 1.3008 0.85938 1.3047 0.86328 2.6094 1.7188 1.3008 0.85938 1.3047 0.85938 1.3047 0.86328 2.6094 1.7188 1.3008 0.85938 1.3047 0.85938 1.3047 0.86328 1.3047 0.85938 1.3008 0.85938 2.6094 1.7188 1.3047 0.86328 1.3047 0.85938 1.3008 0.85938 1.3047 0.85938 1.3047 0.86328 1.3047 0.85938 1.3008 0.85938 2.6094 1.7188 1.3047 0.86328 1.3047 0.85938 1.3008 0.85938 2.6094 1.7188 1.3047 0.86328 1.3047 0.85938 1.3008 0.85938 2.6094 1.7188 1.3047 0.86328 1.3008 0.85938 3.9141 2.5781 1.3047 0.86328 1.3008 0.85938 3.9141 2.5781 1.3008 0.86328 5.2188 3.4375 1.3008 0.86328 3.9141 2.5781 1.3008 0.85938 1.3047 0.86328 3.9141 2.5781 1.3008 0.85938 1.3047 0.86328 2.6094 1.7188 1.3008 0.85938 1.3047 0.85938 1.3047 0.86328 2.6094 1.7188 1.3008 0.85938 1.3047 0.85938 1.3047 0.86328 2.6094 1.7188 1.3008 0.85938 1.3047 0.85938 1.3047 0.86328 1.3047 0.85938 1.3008 0.85938 2.6094 1.7188 1.3047 0.86328 1.3047 0.85938 1.3008 0.85938 2.6094 1.7188 1.3047 0.86328 1.3008 0.85938 3.9141 2.5781 1.3047 0.86328 1.3008 0.85938 3.9141 2.5781 1.3008 0.86328 5.2188 3.4375 1.3008 0.86328 3.9141 2.5781 1.3008 0.85938 1.3047 0.86328 3.9141 2.5781 1.3008 0.85938 1.3047 0.86328 2.6094 1.7188 1.3008 0.85938 1.3047 0.85938 1.3047 0.86328 2.6094 1.7188 1.3008 0.85938 1.3047 0.86328 2.6094 1.7188 1.3008 0.85938 1.3047 0.85938 1.3047 0.86328 2.6094 1.7188 1.3008 0.85938 1.3047 0.85938 1.3047 0.86328 2.6094 1.7188 1.3008 0.85938 1.3047 0.85938 1.3047 0.86328 1.3047 0.85938 1.3008 0.85938 2.6094 1.7188 1.3047 0.86328 1.3047 0.85938 1.3008 0.85938 2.6094 1.7188 1.3047 0.86328 1.3008 0.85938 2.6094 1.7188" fill="none" stroke="#0c6dfd" stroke-miterlimit="10" stroke-width="1.1955"/>
</g>
<g clip-path="url(#bd)">
<path transform="matrix(1 0 0 -1 35.878 165.2)" d="m9.0625e-4 17.753 1.3047 0.66406 1.3008 0.6875 1.3047 0.71484 1.3047 0.73828 1.3047 0.76562 1.3008 0.78906 1.3047 0.8125 1.3047 0.84375 1.3047 0.86328 1.3047 0.89453 1.3008 0.91406 1.3047 0.94531 1.3047 0.96484 1.3047 0.99609 1.3008 1.0195 1.3047 1.043 1.3047 1.0703 1.3047 1.0938 1.3047 1.1211 1.3008 1.1445 1.3047 1.1719 1.3047 1.1992 1.3047 1.2227 1.3008 1.2461 1.3047 1.2734 1.3047 1.3008 1.3047 1.3203 1.3047 1.3516 1.3008 1.375 1.3047 1.4023 1.3047 1.4258 1.3047 1.4492 1.3047 1.4766 1.3008 1.5039 1.3047 1.5273 1.3047 1.5508 1.3047 1.582 1.3008 1.6016 1.3047 1.6289 1.3047 1.6562 1.3047 1.6797 1.3047 1.707 1.3008 1.7305 1.3047 1.7578 1.3047 1.7812 1.3047 1.8086 1.3008 1.832 1.3047 1.8594 1.3047 1.8828 1.3047 1.9102 1.3047 1.9336 1.3008 1.9609 1.3047 1.9844 1.3047 2.0117 1.3047 2.0352 1.3008 2.0625 1.3047 2.0898 1.3047 2.1133 1.3047 2.1367 1.3047 2.1641 1.3008 2.1875 1.3047 2.2148 1.3047 2.2422 1.3047 2.2656 1.3008 2.2891 1.3047 2.3164 1.3047 2.3438 1.3047 2.3672 1.3047 2.3906 1.3008 2.418 1.3047 2.4453 1.3047 2.4688 1.3047 2.4961 1.3047 2.5195 1.3008 2.543 1.3047 2.5742 1.3047 2.5938 1.3047 2.6211 1.3008 2.6484 1.3047 2.6719 1.3047 2.6992 1.3047 2.7227 1.3047 2.75 1.3008 2.7734 1.3047 2.8008 1.3047 2.8242 1.3047 2.8516 1.3008 2.875 1.3047 2.9023 1.3047 2.9297 1.3047 2.9492 1.3047 2.9805 1.3008 3.0039 1.3047 3.0273 1.3047 3.0547 1.3047 3.0781 1.3008 3.1055 1.3047 3.1328 1.3047 3.1562 1.3047 3.1797 1.3047 3.207 1.3008 3.2344 1.3047 3.2578 1.3047 3.2812 1.3047 3.3086 1.3008 3.3359 1.3047 3.3594 1.3047 3.3828 1.3047 3.4102 1.3047 3.4375 1.3008 3.4609 1.3047 3.4883 1.3047 3.5117 1.3047 3.5391 1.3008 3.5625 1.3047 3.5898 1.3047 3.6133 1.3047 3.6367 1.3047 3.668 1.3008 3.6875 1.3047 3.7188 1.3047 3.7383 1.3047 3.7695 1.3008 3.7891 1.3047 3.8203 1.3047 3.8438 1.3047 3.8672 1.3047 3.8945 1.3008 3.918 1.3047 3.9453 1.3047 3.9688 1.3047 3.9961 1.3047 4.0234 1.3008 4.0469 1.3047 4.0703 1.3047 4.0977 1.3047 4.1211 1.3008 4.1484 1.3047 4.1758 1.3047 4.1992 1.3047 4.2266 1.3047 4.2461 1.3008 4.2773 1.3047 4.3008 1.3047 4.3281 1.3047 4.3516 1.3008 4.375 1.3047 4.4062 1.3047 4.4258" fill="none" stroke="#dc3445" stroke-miterlimit="10" stroke-width="1.1955"/>
</g>
<g clip-path="url(#bc)">
<path transform="matrix(1 0 0 -1 35.878 165.2)" d="m9.0625e-4 8.0691 1.3047 0.46875 1.3008 0.47266 1.3047 0.47656 1.3047 0.48047 1.3047 0.48438 1.3008 0.49219 1.3047 0.49219 1.3047 0.5 2.6094 1.0078 1.3008 0.51172 1.3047 0.51562 2.6094 1.0469 1.3008 0.52734 1.3047 0.53516 2.6094 1.0781 1.3047 0.54688 1.3008 0.55078 1.3047 0.55469 2.6094 1.125 1.3008 0.56641 1.3047 0.57422 1.3047 0.57812 1.3047 0.58203 1.3047 0.58594 1.3008 0.58984 1.3047 0.59375 1.3047 0.59766 1.3047 0.60156 1.3047 0.60938 1.3008 0.61328 1.3047 0.61328 1.3047 0.62109 1.3047 0.625 1.3008 0.62891 2.6094 1.2734 1.3047 0.64062 1.3047 0.64844 1.3008 0.65234 1.3047 0.65234 1.3047 0.66016 1.3047 0.66406 1.3008 0.67188 1.3047 0.67188 1.3047 0.67578 2.6094 1.3672 1.3008 0.69141 1.3047 0.69531 1.3047 0.69922 1.3047 0.70312 1.3008 0.70703 2.6094 1.4297 2.6094 1.4453 1.3008 0.73047 1.3047 0.73438 1.3047 0.73828 1.3047 0.74219 1.3008 0.74609 2.6094 1.5078 1.3047 0.76172 1.3047 0.76562 1.3008 0.76562 1.3047 0.77344 1.3047 0.77734 2.6094 1.5703 1.3008 0.78906 1.3047 0.79688 2.6094 1.6016 1.3008 0.80859 1.3047 0.8125 1.3047 0.81641 2.6094 1.6484 1.3008 0.82812 1.3047 0.83594 1.3047 0.83984 1.3047 0.84375 1.3008 0.84375 1.3047 0.85156 2.6094 1.7188 1.3047 0.86328 1.3008 0.87109 2.6094 1.75 1.3047 0.88281 1.3008 0.88672 1.3047 0.89062 1.3047 0.89453 2.6094 1.8047 1.3008 0.91016 2.6094 1.8281 1.3047 0.92188 1.3008 0.92578 1.3047 0.92969 2.6094 1.875 1.3047 0.94531 1.3008 0.94531 1.3047 0.95312 1.3047 0.95703 1.3047 0.96094 1.3008 0.96484 1.3047 0.96875 1.3047 0.97266 2.6094 1.9609 1.3008 0.98828 1.3047 0.99219 1.3047 0.99609 1.3047 1 1.3008 1.0039 1.3047 1.0078 2.6094 2.0312 1.3047 1.0234 1.3008 1.0234 1.3047 1.0312 1.3047 1.0352 1.3047 1.0391 1.3047 1.043 1.3008 1.0508 1.3047 1.0508 2.6094 2.1172 1.3008 1.0664 1.3047 1.0703 1.3047 1.0742 1.3047 1.0781 1.3047 1.082 1.3008 1.0898 1.3047 1.0898 2.6094 2.1953 1.3008 1.1055 1.3047 1.1094 1.3047 1.1133" fill="none" stroke="#188653" stroke-miterlimit="10" stroke-width="1.1955"/>
</g>
<g clip-path="url(#bb)">
<path transform="matrix(1 0 0 -1 35.878 165.2)" d="m9.0625e-4 33.893 1.3047-0.92969 1.3008-0.90625 1.3047-0.87891 1.3047-0.84375 1.3047-0.82422 1.3008-0.79297 1.3047-0.76953 1.3047-0.74219 1.3047-0.72266 1.3047-0.69531 1.3008-0.67578 1.3047-0.64844 1.3047-0.63672 1.3047-0.60938 1.3008-0.59375 1.3047-0.57031 1.3047-0.55469 1.3047-0.53516 1.3047-0.51953 1.3008-0.50391 1.3047-0.48438 1.3047-0.47266 1.3047-0.45703 1.3008-0.44141 1.3047-0.42188 1.3047-0.41797 1.3047-0.39453 1.3047-0.38672 1.3008-0.375 1.3047-0.36328 1.3047-0.35156 1.3047-0.33984 1.3047-0.32812 1.3008-0.31641 1.3047-0.30859 1.3047-0.29688 1.3047-0.28516 1.3008-0.28125 1.3047-0.26953 1.3047-0.26172 1.3047-0.25 1.3047-0.24609 1.3008-0.23828 1.3047-0.23047 1.3047-0.21875 1.3047-0.21484 1.3008-0.20703 1.3047-0.19922 1.3047-0.19531 1.3047-0.19141 1.3047-0.17969 1.3008-0.17578 1.3047-0.17188 1.3047-0.16406 1.3047-0.16016 1.3008-0.15625 1.3047-0.14844 1.3047-0.14453 1.3047-0.14062 1.3047-0.13672 1.3008-0.12891 1.3047-0.12891 1.3047-0.125 1.3047-0.11719 1.3008-0.11328 1.3047-0.10938 1.3047-0.11328 2.6094-0.20312 1.3008-0.097657 2.6094-0.1875 2.6094-0.17188 1.3008-0.082031 1.3047-0.082031 1.3047-0.078125 1.3047-0.074219 1.3008-0.074219 1.3047-0.070312 3.9141-0.19922 1.3008-0.058594 1.3047-0.0625 1.3047-0.058593 1.3047-0.054688 1.3008-0.054687 3.9141-0.15234 1.3047-0.046875 1.3008-0.046875 3.9141-0.12891 1.3008-0.039063 2.6094-0.078125 2.6094-0.070312 1.3008-0.035157 1.3047-0.035156 2.6094-0.0625 1.3008-0.03125 5.2188-0.10938 1.3008-0.027344 3.9141-0.070312 1.3008-0.023438 1.3047-0.019531 1.3047-0.023437 3.9102-0.058594 1.3047-0.015625 1.3047-0.019531 1.3047-0.015625 1.3008-0.019532 3.9141-0.046875 1.3047-0.011718 1.3008-0.015625 1.3047-0.015625 3.9141-0.035157 1.3008-0.015625 1.3047-0.011718 1.3047-0.007813 2.6055-0.023437 1.3047-0.011719 1.3047-0.007813 1.3047-0.011718 2.6055-0.015625 1.3047-0.007813 1.3047-0.011719 2.6055-0.015625 1.3047-0.007812 1.3047-0.003906" fill="none" stroke="#000" stroke-miterlimit="10" stroke-width="1.1955"/>
</g>
<g>
<use x="39.233" y="19.4" xlink:href="#i"/>
<use x="46.70495" y="19.4" xlink:href="#av"/>
<use x="51.68625" y="19.4" xlink:href="#i"/>
<use x="59.1582" y="19.4" xlink:href="#b"/>
<use x="66.907" y="20.894" xlink:href="#h"/>
<use x="80.439" y="62.976" xlink:href="#w"/>
<use x="88.18791" y="62.976" xlink:href="#i"/>
<use x="95.65986" y="62.976" xlink:href="#b"/>
<use x="103.409" y="64.471" xlink:href="#h"/>
<use x="151.866" y="62.976" xlink:href="#w"/>
<use x="159.615" y="64.471" xlink:href="#g"/>
<use x="164.084" y="62.976" xlink:href="#j"/>
<use x="171.27899" y="62.976" xlink:href="#ba"/>
<use x="175.182" y="64.471" xlink:href="#g"/>
<use x="179.651" y="62.976" xlink:href="#b"/>
<use x="187.4" y="64.471" xlink:href="#au"/>
<use x="168.263" y="151.549" xlink:href="#j"/>
<use x="175.45799" y="151.549" xlink:href="#az"/>
<use x="179.886" y="153.044" xlink:href="#g"/>
<use x="184.355" y="151.549" xlink:href="#ay"/>
<use x="188.229455" y="151.549" xlink:href="#ax"/>
<use x="193.764676" y="151.549" xlink:href="#b"/>
<use x="201.513" y="153.044" xlink:href="#at"/>
<use x="205.982" y="151.549" xlink:href="#aw"/>
<use x="209.857" y="153.044" xlink:href="#h"/>
<use x="89.872" y="189.304" xlink:href="#as"/>
<use x="96.240094" y="189.304" xlink:href="#q"/>
<use x="100.66847" y="189.304" xlink:href="#ar"/>
<use x="108.970304" y="189.304" xlink:href="#aq"/>
<use x="114.774515" y="189.304" xlink:href="#q"/>
<use x="119.202891" y="189.304" xlink:href="#p"/>
<use x="123.105241" y="189.304" xlink:href="#o"/>
<use x="128.086541" y="189.304" xlink:href="#ap"/>
<use x="131.960996" y="189.304" xlink:href="#ao"/>
<use x="137.496217" y="189.304" xlink:href="#p"/>
<use x="141.398567" y="189.304" xlink:href="#o"/>
<use x="146.379867" y="189.304" xlink:href="#an"/>
<use x="152.47" y="189.304" xlink:href="#am"/>
<use x="159.397992" y="189.304" xlink:href="#al"/>
<use x="164.38" y="185.688" xlink:href="#ak"/>
<use x="168.96" y="189.304" xlink:href="#j"/>
<use x="8.083" y="166.011" xlink:href="#aj"/>
<use x="8.083" y="160.475779" xlink:href="#e"/>
<use x="8.083" y="155.494479" xlink:href="#d"/>
<use x="8.083" y="152.726869" xlink:href="#c"/>
<use x="8.083" y="147.191649" xlink:href="#ac"/>
<use x="8.083" y="141.656428" xlink:href="#m"/>
<use x="8.083" y="138.888818" xlink:href="#d"/>
<use x="8.083" y="136.121207" xlink:href="#m"/>
<use x="8.083" y="133.353597" xlink:href="#l"/>
<use x="8.083" y="127.818377" xlink:href="#k"/>
<use x="8.083" y="122.837077" xlink:href="#l"/>
<use x="8.083" y="117.301856" xlink:href="#ab"/>
<use x="8.083" y="112.87348" xlink:href="#ai"/>
<use x="8.083" y="106.789" xlink:href="#aa"/>
<use x="8.083" y="102.118533" xlink:href="#z"/>
<use x="8.083" y="97.138" xlink:href="#y"/>
<use x="8.083" y="93.263" xlink:href="#f"/>
<use x="8.083" y="84.964154" xlink:href="#ah"/>
<use x="8.083" y="81.033909" xlink:href="#e"/>
<use x="8.083" y="76.052609" xlink:href="#d"/>
<use x="8.083" y="73.284998" xlink:href="#c"/>
<use x="8.083" y="67.749778" xlink:href="#ag"/>
<use x="8.083" y="63.875323" xlink:href="#e"/>
<use x="8.083" y="58.894023" xlink:href="#af"/>
<use x="8.083" y="53.912723" xlink:href="#ae"/>
<use x="8.083" y="48.931423" xlink:href="#n"/>
<use x="8.083" y="43.950123" xlink:href="#n"/>
<use x="8.083" y="35.641314" xlink:href="#f"/>
<use x="8.083" y="27.342468" xlink:href="#ad"/>
<use x="8.083" y="22.361168" xlink:href="#f"/>
<use x="8.083" y="17.379868" xlink:href="#c"/>
<use x="8.083" y="11.844648" xlink:href="#k"/>
<use x="8.083" y="6.865" xlink:href="#x"/>
</g>
</svg>
