<?xml version="1.0" encoding="UTF-8"?>
<svg width="141pt" height="45pt" version="1.1" viewBox="0 0 141 45" xmlns="http://www.w3.org/2000/svg" xmlns:xlink="http://www.w3.org/1999/xlink">
<defs>
<symbol id="b" overflow="visible">
<path d="m5.8594-0.45312-0.0625-0.6875c-0.29688 0.20312-0.57812 0.39062-0.92188 0.5-0.3125 0.10938-0.67188 0.10938-1 0.10938-0.65625 0-1.25-0.34375-1.6562-0.85938-0.45312-0.57812-0.67188-1.3281-0.67188-2.0625 0-0.75 0.21875-1.5 0.67188-2.0938 0.40625-0.5 1-0.85938 1.6562-0.85938 0.29688 0 0.59375 0.03125 0.89062 0.125s0.57812 0.23438 0.84375 0.42188l0.125-0.8125c-0.29688-0.125-0.59375-0.21875-0.92188-0.28125-0.3125-0.0625-0.625-0.078125-0.9375-0.078125-0.89062 0-1.6875 0.39062-2.2812 1.0469-0.60938 0.6875-0.9375 1.5938-0.9375 2.5312 0 0.92188 0.32812 1.8281 0.9375 2.5156 0.59375 0.64062 1.3906 1.0469 2.2812 1.0469 0.34375 0 0.6875-0.015625 1.0312-0.10938s0.64062-0.26562 0.95312-0.45312z"/>
</symbol>
<symbol id="a" overflow="visible">
<path d="m1.5625 0v-6.9219h-0.75v6.9219z"/>
</symbol>
<symbol id="d" overflow="visible">
<path d="m6.7656-3.4375c0-2.0938-1.4375-3.7031-3.0938-3.7031-1.7031 0-3.1094 1.625-3.1094 3.7031 0 2.1094 1.4688 3.6562 3.0938 3.6562 1.6719 0 3.1094-1.5625 3.1094-3.6562zm-0.89062-0.15625c0 1.9531-1.0625 3.1719-2.2031 3.1719-1.1719 0-2.2188-1.25-2.2188-3.1719 0-1.8125 1.0938-2.9062 2.2031-2.9062 1.1562 0 2.2188 1.125 2.2188 2.9062z"/>
</symbol>
<symbol id="c" overflow="visible">
<path d="m6.1094 0v-6.9219h-0.89062v3.0312h-3.3906v-3.0312h-0.89062v6.9219h0.89062v-3.2969h3.3906v3.2969z"/>
</symbol>
<symbol id="e" overflow="visible">
<path d="m4.1406-1.1875c0-0.09375-0.078125-0.125-0.14062-0.125-0.078125 0-0.10938 0.0625-0.125 0.14062-0.34375 1.0312-1.25 1.0312-1.3438 1.0312-0.5 0-0.89062-0.29688-1.125-0.67188-0.29688-0.46875-0.29688-1.125-0.29688-1.4844h2.7812c0.21875 0 0.25 0 0.25-0.21875 0-0.98438-0.54688-1.9531-1.7812-1.9531-1.1562 0-2.0781 1.0312-2.0781 2.2812 0 1.3281 1.0469 2.2969 2.1875 2.2969 1.2188 0 1.6719-1.1094 1.6719-1.2969zm-0.65625-1.3281h-2.375c0.0625-1.4844 0.90625-1.7344 1.25-1.7344 1.0156 0 1.125 1.3438 1.125 1.7344z"/>
</symbol>
</defs>
<g>
<use x="0.29" y="26.858" xlink:href="#b"/>
<use x="6.655105" y="26.858" xlink:href="#a"/>
</g>
<path transform="matrix(1,0,0,-1,4.663,26.858)" d="m5.7511 6.7799 6.6719 3.8516" fill="none" stroke="#000" stroke-linecap="round" stroke-miterlimit="10" stroke-width=".59758"/>
<g>
<use x="19.883" y="7.265" xlink:href="#b"/>
<use x="26.248105" y="7.265" xlink:href="#a"/>
</g>
<path transform="matrix(1,0,0,-1,4.663,26.858)" d="m12.423 10.631 4.375 7.582" fill="none" stroke="#000" stroke-linecap="round" stroke-miterlimit="10" stroke-width=".59758"/>
<g>
<use x="5.54" y="7.265" xlink:href="#b"/>
<use x="11.905105" y="7.265" xlink:href="#a"/>
</g>
<path transform="matrix(1,0,0,-1,4.663,26.858)" d="m12.423 10.631-4.3789 7.582" fill="none" stroke="#000" stroke-linecap="round" stroke-miterlimit="10" stroke-width=".59758"/>
<path transform="matrix(1,0,0,-1,4.663,26.858)" d="m12.423 10.631 12.418-7.1719" fill="none" stroke="#000" stroke-linecap="round" stroke-miterlimit="10" stroke-width=".59758"/>
<g>
<use x="25.839" y="41.2" xlink:href="#d"/>
<use x="33.172" y="41.2" xlink:href="#c"/>
</g>
<path transform="matrix(1,0,0,-1,4.663,26.858)" d="m24.841 3.4596v-9.2891" fill="none" stroke="#000" stroke-linecap="round" stroke-miterlimit="10" stroke-width=".59758"/>
<path transform="matrix(1,0,0,-1,4.663,26.858)" d="m24.841 3.4596 12.422 7.1719" fill="none" stroke="#000" stroke-linecap="round" stroke-miterlimit="10" stroke-width=".59758"/>
<g>
<use x="44.725" y="7.265" xlink:href="#b"/>
<use x="51.090105" y="7.265" xlink:href="#a"/>
</g>
<path transform="matrix(1,0,0,-1,4.663,26.858)" d="m37.263 10.631 4.3789 7.582" fill="none" stroke="#000" stroke-linecap="round" stroke-miterlimit="10" stroke-width=".59758"/>
<g>
<use x="30.383" y="7.265" xlink:href="#b"/>
<use x="36.748105" y="7.265" xlink:href="#a"/>
</g>
<path transform="matrix(1,0,0,-1,4.663,26.858)" d="m37.263 10.631-4.375 7.582" fill="none" stroke="#000" stroke-linecap="round" stroke-miterlimit="10" stroke-width=".59758"/>
<g>
<use x="49.975" y="26.858" xlink:href="#b"/>
<use x="56.340105" y="26.858" xlink:href="#a"/>
</g>
<path transform="matrix(1,0,0,-1,4.663,26.858)" d="m37.263 10.631 6.668-3.8516" fill="none" stroke="#000" stroke-linecap="round" stroke-miterlimit="10" stroke-width=".59758"/>
<g>
<use x="72.004" y="26.858" xlink:href="#e"/>
</g>
<path transform="matrix(1,0,0,-1,90.014,26.858)" d="m0.001625-0.001375 12.418 7.1719" fill="none" stroke="#000" stroke-linecap="round" stroke-miterlimit="10" stroke-width=".59758"/>
<path transform="matrix(1,0,0,-1,90.014,26.858)" d="m12.42 7.1705 7.1719 12.422" fill="none" stroke="#000" stroke-linecap="round" stroke-miterlimit="10" stroke-width=".59758"/>
<path transform="matrix(1,0,0,-1,90.014,26.858)" d="m12.42 7.1705-7.168 12.422" fill="none" stroke="#000" stroke-linecap="round" stroke-miterlimit="10" stroke-width=".59758"/>
<path transform="matrix(1,0,0,-1,90.014,26.858)" d="m12.42 7.1705 12.422-7.1719" fill="none" stroke="#000" stroke-linecap="round" stroke-miterlimit="10" stroke-width=".59758"/>
<g>
<use x="111.19" y="44.66" xlink:href="#d"/>
<use x="118.523" y="44.66" xlink:href="#c"/>
</g>
<path transform="matrix(1,0,0,-1,90.014,26.858)" d="m24.841-0.001375v-9.2891" fill="none" stroke="#000" stroke-linecap="round" stroke-miterlimit="10" stroke-width=".59758"/>
<path transform="matrix(1,0,0,-1,90.014,26.858)" d="m24.841-0.001375 12.422 7.1719" fill="none" stroke="#000" stroke-linecap="round" stroke-miterlimit="10" stroke-width=".59758"/>
<path transform="matrix(1,0,0,-1,90.014,26.858)" d="m37.263 7.1705 7.1719 12.422" fill="none" stroke="#000" stroke-linecap="round" stroke-miterlimit="10" stroke-width=".59758"/>
<path transform="matrix(1,0,0,-1,90.014,26.858)" d="m37.263 7.1705-7.1719 12.422" fill="none" stroke="#000" stroke-linecap="round" stroke-miterlimit="10" stroke-width=".59758"/>
<path transform="matrix(1,0,0,-1,90.014,26.858)" d="m37.263 7.1705 12.422-7.1719" fill="none" stroke="#000" stroke-linecap="round" stroke-miterlimit="10" stroke-width=".59758"/>
</svg>
