<?xml version="1.0" encoding="UTF-8"?>
<svg width="152pt" height="44pt" version="1.1" viewBox="0 0 152 44" xmlns="http://www.w3.org/2000/svg" xmlns:xlink="http://www.w3.org/1999/xlink">
<defs>
<symbol id="d" overflow="visible">
<path d="m6.0781-1.875c0-0.85938-0.85938-1.5781-1.9219-1.75 0.90625-0.21875 1.6562-0.79688 1.6562-1.5625 0-0.90625-1.0625-1.7344-2.4844-1.7344h-2.3594v6.9219h2.625c1.4375 0 2.4844-0.89062 2.4844-1.875zm-1.0469-3.2969c0 0.59375-0.70312 1.2812-2.0781 1.2812h-1.1562v-2.4688h1.25c1.1094 0 1.9844 0.53125 1.9844 1.1875zm0.25 3.2812c0 0.75-0.89062 1.3281-1.9688 1.3281h-1.5156v-2.7344h1.4375c1.0625 0 2.0469 0.60938 2.0469 1.4062z"/>
</symbol>
<symbol id="c" overflow="visible">
<path d="m3.2656-3.875v-0.65625c-0.89062 0-1.4375 0.5-1.75 0.95312v-0.90625h-0.70312v4.4844h0.75v-2.1406c0-0.98438 0.71875-1.7031 1.7031-1.7344z"/>
</symbol>
<symbol id="a" overflow="visible">
<path d="m6.7656-3.4375c0-2.0938-1.4375-3.7031-3.0938-3.7031-1.7031 0-3.1094 1.625-3.1094 3.7031 0 2.1094 1.4688 3.6562 3.0938 3.6562 1.6719 0 3.1094-1.5625 3.1094-3.6562zm-0.89062-0.15625c0 1.9531-1.0625 3.1719-2.2031 3.1719-1.1719 0-2.2188-1.25-2.2188-3.1719 0-1.8125 1.0938-2.9062 2.2031-2.9062 1.1562 0 2.2188 1.125 2.2188 2.9062z"/>
</symbol>
<symbol id="b" overflow="visible">
<path d="m6.1094 0v-6.9219h-0.89062v3.0312h-3.3906v-3.0312h-0.89062v6.9219h0.89062v-3.2969h3.3906v3.2969z"/>
</symbol>
<symbol id="e" overflow="visible">
<path d="m4.1406-1.1875c0-0.09375-0.078125-0.125-0.14062-0.125-0.078125 0-0.10938 0.0625-0.125 0.14062-0.34375 1.0312-1.25 1.0312-1.3438 1.0312-0.5 0-0.89062-0.29688-1.125-0.67188-0.29688-0.46875-0.29688-1.125-0.29688-1.4844h2.7812c0.21875 0 0.25 0 0.25-0.21875 0-0.98438-0.54688-1.9531-1.7812-1.9531-1.1562 0-2.0781 1.0312-2.0781 2.2812 0 1.3281 1.0469 2.2969 2.1875 2.2969 1.2188 0 1.6719-1.1094 1.6719-1.2969zm-0.65625-1.3281h-2.375c0.0625-1.4844 0.90625-1.7344 1.25-1.7344 1.0156 0 1.125 1.3438 1.125 1.7344z"/>
</symbol>
</defs>
<path transform="matrix(1 0 0 -1 .589 25.32)" d="m8.4375e-4 -3.125e-4 12.422 7.1719" fill="none" stroke="#000" stroke-linecap="round" stroke-miterlimit="10" stroke-width=".59758"/>
<path transform="matrix(1 0 0 -1 .589 25.32)" d="m12.423 7.1716 12.422-7.1719" fill="none" stroke="#000" stroke-linecap="round" stroke-miterlimit="10" stroke-width=".59758"/>
<g>
<use x="20.343" y="43.122" xlink:href="#d"/>
<use x="26.985065" y="43.122" xlink:href="#c"/>
</g>
<path transform="matrix(1 0 0 -1 .589 25.32)" d="m24.845-3.125e-4v-9.2891" fill="none" stroke="#000" stroke-linecap="round" stroke-miterlimit="10" stroke-width=".59758"/>
<path transform="matrix(1 0 0 -1 .589 25.32)" d="m24.845-3.125e-4 12.418 7.1719" fill="none" stroke="#000" stroke-linecap="round" stroke-miterlimit="10" stroke-width=".59758"/>
<g>
<use x="34.186" y="7.265" xlink:href="#a"/>
</g>
<path transform="matrix(1 0 0 -1 .589 25.32)" d="m36.02 6.527v9.9336" fill="none" stroke="#000" stroke-linecap="round" stroke-miterlimit="10" stroke-width=".59758"/>
<path transform="matrix(1 0 0 -1 .589 25.32)" d="m38.509 6.527v9.9336" fill="none" stroke="#000" stroke-linecap="round" stroke-miterlimit="10" stroke-width=".59758"/>
<g>
<use x="46.607" y="28.779" xlink:href="#a"/>
<use x="53.941" y="28.779" xlink:href="#b"/>
</g>
<path transform="matrix(1 0 0 -1 .589 25.32)" d="m37.263 7.1716 7.375-4.2578" fill="none" stroke="#000" stroke-linecap="round" stroke-miterlimit="10" stroke-width=".59758"/>
<g>
<use x="74.281" y="25.32" xlink:href="#e"/>
</g>
<path transform="matrix(1,0,0,-1,92.291,25.32)" d="m-0.0019375-3.125e-4 12.422 7.1719" fill="none" stroke="#000" stroke-linecap="round" stroke-miterlimit="10" stroke-width=".59758"/>
<g>
<use x="99.624" y="7.265" xlink:href="#d"/>
<use x="106.266065" y="7.265" xlink:href="#c"/>
</g>
<path transform="matrix(1,0,0,-1,92.291,25.32)" d="m12.42 7.1716v9.2891" fill="none" stroke="#000" stroke-linecap="round" stroke-miterlimit="10" stroke-width=".59758"/>
<path transform="matrix(1,0,0,-1,92.291,25.32)" d="m12.42 7.1716 12.422-7.1719" fill="none" stroke="#000" stroke-linecap="round" stroke-miterlimit="10" stroke-width=".59758"/>
<path transform="matrix(1,0,0,-1,92.291,25.32)" d="m24.842-3.125e-4 12.422 7.1719" fill="none" stroke="#000" stroke-linecap="round" stroke-miterlimit="10" stroke-width=".59758"/>
<g>
<use x="125.888" y="7.265" xlink:href="#a"/>
</g>
<path transform="matrix(1,0,0,-1,92.291,25.32)" d="m36.018 6.527v9.9336" fill="none" stroke="#000" stroke-linecap="round" stroke-miterlimit="10" stroke-width=".59758"/>
<path transform="matrix(1,0,0,-1,92.291,25.32)" d="m38.51 6.527v9.9336" fill="none" stroke="#000" stroke-linecap="round" stroke-miterlimit="10" stroke-width=".59758"/>
<g>
<use x="138.309" y="28.779" xlink:href="#a"/>
<use x="145.642" y="28.779" xlink:href="#b"/>
</g>
<path transform="matrix(1,0,0,-1,92.291,25.32)" d="m37.264 7.1716 7.375-4.2578" fill="none" stroke="#000" stroke-linecap="round" stroke-miterlimit="10" stroke-width=".59758"/>
</svg>
