<?xml version="1.0" encoding="UTF-8"?>
<svg width="218pt" height="190pt" version="1.1" viewBox="0 0 218 190" xmlns="http://www.w3.org/2000/svg" xmlns:xlink="http://www.w3.org/1999/xlink">
<defs>
<symbol id="a" overflow="visible">
<path d="m4.5781-3.1875c0-0.79688-0.046875-1.5938-0.39062-2.3281-0.45312-0.96875-1.2812-1.125-1.6875-1.125-0.60938 0-1.3281 0.26562-1.75 1.1875-0.3125 0.6875-0.35938 1.4688-0.35938 2.2656 0 0.75 0.03125 1.6406 0.45312 2.4062 0.42188 0.79688 1.1562 1 1.6406 1 0.53125 0 1.2969-0.20312 1.7344-1.1562 0.3125-0.6875 0.35938-1.4688 0.35938-2.25zm-0.8125-0.125c0 0.75 0 1.4219-0.10938 2.0625-0.15625 0.95312-0.71875 1.25-1.1719 1.25-0.39062 0-0.98438-0.25-1.1562-1.2031-0.10938-0.59375-0.10938-1.5156-0.10938-2.1094 0-0.64062 0-1.2969 0.078125-1.8281 0.1875-1.1875 0.9375-1.2812 1.1875-1.2812 0.32812 0 0.98438 0.1875 1.1719 1.1719 0.10938 0.5625 0.10938 1.3125 0.10938 1.9375z"/>
</symbol>
<symbol id="ap" overflow="visible">
<path d="m4.1719 0v-0.3125h-0.3125c-0.90625 0-0.92188-0.10938-0.92188-0.46875v-5.5938c0-0.25 0-0.26562-0.23438-0.26562-0.625 0.64062-1.5 0.64062-1.8125 0.64062v0.3125c0.20312 0 0.78125 0 1.2969-0.26562v5.1719c0 0.35938-0.03125 0.46875-0.92188 0.46875h-0.3125v0.3125c0.34375-0.03125 1.2031-0.03125 1.6094-0.03125 0.39062 0 1.2656 0 1.6094 0.03125z"/>
</symbol>
<symbol id="ao" overflow="visible">
<path d="m4.4688-1.7344h-0.23438c-0.0625 0.29688-0.125 0.73438-0.23438 0.89062-0.0625 0.078125-0.71875 0.078125-0.9375 0.078125h-1.7969l1.0625-1.0312c1.5469-1.375 2.1406-1.9062 2.1406-2.9062 0-1.1406-0.89062-1.9375-2.1094-1.9375-1.125 0-1.8594 0.92188-1.8594 1.8125 0 0.54688 0.5 0.54688 0.53125 0.54688 0.17188 0 0.51562-0.10938 0.51562-0.53125 0-0.25-0.1875-0.51562-0.53125-0.51562-0.078125 0-0.09375 0-0.125 0.015625 0.21875-0.65625 0.76562-1.0156 1.3438-1.0156 0.90625 0 1.3281 0.8125 1.3281 1.625 0 0.79688-0.48438 1.5781-1.0469 2.2031l-1.9062 2.125c-0.10938 0.10938-0.10938 0.14062-0.10938 0.375h3.7031z"/>
</symbol>
<symbol id="an" overflow="visible">
<path d="m4.5625-1.7031c0-0.8125-0.64062-1.5938-1.6719-1.8125 0.8125-0.26562 1.3906-0.95312 1.3906-1.75 0-0.8125-0.875-1.375-1.8281-1.375-1 0-1.7656 0.59375-1.7656 1.3594 0 0.32812 0.21875 0.51562 0.51562 0.51562s0.5-0.21875 0.5-0.51562c0-0.48438-0.46875-0.48438-0.60938-0.48438 0.29688-0.5 0.95312-0.625 1.3125-0.625 0.42188 0 0.96875 0.21875 0.96875 1.1094 0 0.125-0.03125 0.70312-0.28125 1.1406-0.29688 0.48438-0.64062 0.51562-0.89062 0.51562-0.078125 0.015625-0.3125 0.03125-0.39062 0.03125-0.078125 0.015625-0.14062 0.03125-0.14062 0.125 0 0.10938 0.0625 0.10938 0.23438 0.10938h0.4375c0.8125 0 1.1875 0.67188 1.1875 1.6562 0 1.3594-0.6875 1.6406-1.125 1.6406s-1.1875-0.17188-1.5312-0.75c0.34375 0.046875 0.65625-0.17188 0.65625-0.54688 0-0.35938-0.26562-0.5625-0.54688-0.5625-0.25 0-0.5625 0.14062-0.5625 0.57812 0 0.90625 0.92188 1.5625 2.0156 1.5625 1.2188 0 2.125-0.90625 2.125-1.9219z"/>
</symbol>
<symbol id="am" overflow="visible">
<path d="m4.6875-1.6406v-0.3125h-0.98438v-4.5312c0-0.20312 0-0.26562-0.17188-0.26562-0.078125 0-0.10938 0-0.1875 0.125l-3.0625 4.6719v0.3125h2.6562v0.85938c0 0.35938-0.03125 0.46875-0.76562 0.46875h-0.20312v0.3125c0.40625-0.03125 0.92188-0.03125 1.3438-0.03125s0.9375 0 1.3594 0.03125v-0.3125h-0.21875c-0.73438 0-0.75-0.10938-0.75-0.46875v-0.85938zm-1.7031-0.3125h-2.4219l2.4219-3.7188z"/>
</symbol>
<symbol id="al" overflow="visible">
<path d="m4.4688-2c0-1.1875-0.8125-2.1875-1.8906-2.1875-0.46875 0-0.90625 0.15625-1.2656 0.51562v-1.9531c0.20312 0.0625 0.53125 0.125 0.84375 0.125 1.2344 0 1.9375-0.90625 1.9375-1.0312 0-0.0625-0.03125-0.10938-0.10938-0.10938 0 0-0.03125 0-0.078125 0.03125-0.20312 0.09375-0.6875 0.29688-1.3594 0.29688-0.39062 0-0.85938-0.078125-1.3281-0.28125-0.078125-0.03125-0.10938-0.03125-0.10938-0.03125-0.10938 0-0.10938 0.078125-0.10938 0.23438v2.9531c0 0.17188 0 0.25 0.14062 0.25 0.078125 0 0.09375-0.015625 0.14062-0.078125 0.10938-0.15625 0.46875-0.70312 1.2812-0.70312 0.51562 0 0.76562 0.45312 0.84375 0.64062 0.15625 0.375 0.1875 0.75 0.1875 1.25 0 0.35938 0 0.95312-0.25 1.375-0.23438 0.39062-0.60938 0.64062-1.0625 0.64062-0.71875 0-1.2969-0.53125-1.4688-1.1094 0.03125 0 0.0625 0.015625 0.17188 0.015625 0.32812 0 0.5-0.25 0.5-0.48438 0-0.25-0.17188-0.5-0.5-0.5-0.14062 0-0.48438 0.078125-0.48438 0.53125 0 0.85938 0.6875 1.8281 1.7969 1.8281 1.1562 0 2.1719-0.95312 2.1719-2.2188z"/>
</symbol>
<symbol id="ak" overflow="visible">
<path d="m8.1094 0v-0.3125c-0.51562 0-0.76562 0-0.78125-0.29688v-1.9062c0-0.85938 0-1.1562-0.3125-1.5156-0.14062-0.17188-0.46875-0.375-1.0469-0.375-0.82812 0-1.2812 0.59375-1.4375 0.98438-0.14062-0.875-0.875-0.98438-1.3281-0.98438-0.73438 0-1.2031 0.42188-1.4844 1.0469v-1.0469l-1.4062 0.10938v0.3125c0.70312 0 0.78125 0.0625 0.78125 0.5625v2.6719c0 0.4375-0.10938 0.4375-0.78125 0.4375v0.3125l1.1406-0.03125 1.1094 0.03125v-0.3125c-0.67188 0-0.78125 0-0.78125-0.4375v-1.8438c0-1.0312 0.71875-1.5938 1.3438-1.5938 0.64062 0 0.75 0.53125 0.75 1.1094v2.3281c0 0.4375-0.10938 0.4375-0.78125 0.4375v0.3125l1.125-0.03125 1.1094 0.03125v-0.3125c-0.65625 0-0.76562 0-0.76562-0.4375v-1.8438c0-1.0312 0.70312-1.5938 1.3438-1.5938 0.625 0 0.73438 0.53125 0.73438 1.1094v2.3281c0 0.4375-0.10938 0.4375-0.78125 0.4375v0.3125l1.125-0.03125z"/>
</symbol>
<symbol id="aj" overflow="visible">
<path d="m3.5938-1.2812c0-0.51562-0.29688-0.82812-0.42188-0.9375-0.32812-0.32812-0.71875-0.40625-1.1406-0.48438-0.5625-0.10938-1.2188-0.23438-1.2188-0.8125 0-0.35938 0.25-0.76562 1.1094-0.76562 1.0938 0 1.1562 0.90625 1.1719 1.2031 0 0.09375 0.10938 0.09375 0.10938 0.09375 0.14062 0 0.14062-0.046875 0.14062-0.23438v-1.0156c0-0.15625 0-0.23438-0.10938-0.23438-0.046875 0-0.078125 0-0.20312 0.125-0.03125 0.03125-0.125 0.125-0.17188 0.15625-0.375-0.28125-0.78125-0.28125-0.9375-0.28125-1.2188 0-1.5938 0.67188-1.5938 1.2344 0 0.34375 0.15625 0.625 0.42188 0.84375 0.32812 0.25 0.60938 0.3125 1.3281 0.45312 0.21875 0.046875 1.0312 0.20312 1.0312 0.92188 0 0.5-0.34375 0.90625-1.125 0.90625-0.84375 0-1.2031-0.5625-1.3906-1.4219-0.03125-0.125-0.03125-0.15625-0.14062-0.15625-0.125 0-0.125 0.0625-0.125 0.23438v1.3281c0 0.17188 0 0.23438 0.10938 0.23438 0.046875 0 0.0625-0.015625 0.25-0.20312 0.015625-0.015625 0.015625-0.03125 0.20312-0.21875 0.4375 0.40625 0.89062 0.42188 1.0938 0.42188 1.1406 0 1.6094-0.67188 1.6094-1.3906z"/>
</symbol>
<symbol id="ai" overflow="visible">
<path d="m7.1406 0v-0.3125h-0.17188c-0.59375 0-0.73438-0.0625-0.84375-0.39062l-2.1562-6.2344c-0.046875-0.125-0.078125-0.20312-0.23438-0.20312s-0.1875 0.0625-0.23438 0.20312l-2.0625 5.9531c-0.1875 0.51562-0.57812 0.67188-1.125 0.67188v0.3125l1.0156-0.03125 1.1562 0.03125v-0.3125c-0.5 0-0.75-0.25-0.75-0.5 0-0.03125 0.015625-0.14062 0.015625-0.15625l0.46875-1.2969h2.4531l0.53125 1.5156c0.015625 0.046875 0.03125 0.10938 0.03125 0.14062 0 0.29688-0.5625 0.29688-0.82812 0.29688v0.3125c0.35938-0.03125 1.0625-0.03125 1.4375-0.03125zm-2.5781-2.5781h-2.2344l1.1094-3.25z"/>
</symbol>
<symbol id="af" overflow="visible">
<path d="m6.4844-1.8281c0-0.85938-0.8125-1.6094-1.9219-1.7344 0.96875-0.1875 1.6562-0.82812 1.6562-1.5625 0-0.85938-0.92188-1.6875-2.2188-1.6875h-3.6406v0.3125h0.23438c0.76562 0 0.79688 0.10938 0.79688 0.46875v5.25c0 0.35938-0.03125 0.46875-0.79688 0.46875h-0.23438v0.3125h3.9062c1.3281 0 2.2188-0.89062 2.2188-1.8281zm-1.2344-3.2969c0 0.64062-0.48438 1.4688-1.5938 1.4688h-1.4375v-2.4375c0-0.34375 0.015625-0.40625 0.48438-0.40625h1.2344c0.96875 0 1.3125 0.84375 1.3125 1.375zm0.25 3.2969c0 0.70312-0.53125 1.5156-1.5469 1.5156h-1.25c-0.46875 0-0.48438-0.0625-0.48438-0.39062v-2.7188h1.875c0.98438 0 1.4062 0.92188 1.4062 1.5938z"/>
</symbol>
<symbol id="ae" overflow="visible">
<path d="m6.625-2.3281c0-0.09375 0-0.17188-0.125-0.17188-0.10938 0-0.10938 0.0625-0.125 0.17188-0.078125 1.4219-1.1406 2.2344-2.2344 2.2344-0.60938 0-2.5625-0.32812-2.5625-3.3125 0-2.9688 1.9531-3.3125 2.5625-3.3125 1.0781 0 1.9688 0.90625 2.1719 2.3594 0.015625 0.14062 0.015625 0.17188 0.15625 0.17188 0.15625 0 0.15625-0.03125 0.15625-0.23438v-2.3594c0-0.17188 0-0.25-0.10938-0.25-0.03125 0-0.078125 0-0.15625 0.125l-0.5 0.73438c-0.35938-0.35938-0.875-0.85938-1.8281-0.85938-1.875 0-3.4688 1.5938-3.4688 3.625 0 2.0625 1.6094 3.625 3.4688 3.625 1.625 0 2.5938-1.3906 2.5938-2.5469z"/>
</symbol>
<symbol id="ad" overflow="visible">
<path d="m7.2812-6.5v-0.3125c-0.3125 0.03125-0.71875 0.03125-0.96875 0.03125l-1.1406-0.03125v0.3125c0.51562 0.015625 0.73438 0.26562 0.73438 0.5 0 0.078125-0.03125 0.14062-0.046875 0.20312l-1.8281 4.7969-1.9062-5.0312c-0.0625-0.14062-0.0625-0.17188-0.0625-0.17188 0-0.29688 0.5625-0.29688 0.8125-0.29688v-0.3125c-0.35938 0.03125-1.0469 0.03125-1.4219 0.03125l-1.2656-0.03125v0.3125c0.65625 0 0.84375 0 0.98438 0.375l2.3125 6.125c0.0625 0.1875 0.10938 0.21875 0.25 0.21875 0.15625 0 0.1875-0.046875 0.23438-0.1875l2.2188-5.8594c0.14062-0.375 0.40625-0.65625 1.0938-0.67188z"/>
</symbol>
<symbol id="f" overflow="visible">
<path d="m4.1406-1.1875c0-0.09375-0.078125-0.125-0.14062-0.125-0.078125 0-0.10938 0.0625-0.125 0.14062-0.34375 1.0312-1.25 1.0312-1.3438 1.0312-0.5 0-0.89062-0.29688-1.125-0.67188-0.29688-0.46875-0.29688-1.125-0.29688-1.4844h2.7812c0.21875 0 0.25 0 0.25-0.21875 0-0.98438-0.54688-1.9531-1.7812-1.9531-1.1562 0-2.0781 1.0312-2.0781 2.2812 0 1.3281 1.0469 2.2969 2.1875 2.2969 1.2188 0 1.6719-1.1094 1.6719-1.2969zm-0.65625-1.3281h-2.375c0.0625-1.4844 0.90625-1.7344 1.25-1.7344 1.0156 0 1.125 1.3438 1.125 1.7344z"/>
</symbol>
<symbol id="ac" overflow="visible">
<path d="m2.5469 0v-0.3125c-0.67188 0-0.78125 0-0.78125-0.4375v-6.1719l-1.4375 0.10938v0.3125c0.70312 0 0.78125 0.0625 0.78125 0.5625v5.1875c0 0.4375-0.10938 0.4375-0.78125 0.4375v0.3125l1.1094-0.03125z"/>
</symbol>
<symbol id="ab" overflow="visible">
<path d="m4.6875-2.1406c0-1.2656-0.98438-2.3281-2.1875-2.3281-1.25 0-2.2188 1.0938-2.2188 2.3281 0 1.2969 1.0312 2.25 2.2031 2.25 1.2031 0 2.2031-0.98438 2.2031-2.25zm-0.8125-0.078125c0 0.35938 0 0.90625-0.21875 1.3438-0.23438 0.45312-0.67188 0.73438-1.1562 0.73438-0.4375 0-0.875-0.20312-1.1406-0.67188-0.25-0.4375-0.25-1.0469-0.25-1.4062 0-0.39062 0-0.92188 0.23438-1.3594 0.26562-0.45312 0.73438-0.67188 1.1406-0.67188 0.4375 0 0.85938 0.21875 1.125 0.65625 0.26562 0.42188 0.26562 1 0.26562 1.375z"/>
</symbol>
<symbol id="aa" overflow="visible">
<path d="m4.1406-1.1875c0-0.09375-0.10938-0.09375-0.14062-0.09375-0.078125 0-0.10938 0.03125-0.125 0.09375-0.28125 0.92188-0.9375 1.0469-1.2969 1.0469-0.53125 0-1.4062-0.42188-1.4062-2.0312 0-1.625 0.8125-2.0469 1.3438-2.0469 0.09375 0 0.71875 0.015625 1.0625 0.375-0.40625 0.03125-0.46875 0.32812-0.46875 0.45312 0 0.26562 0.1875 0.45312 0.45312 0.45312s0.46875-0.15625 0.46875-0.46875c0-0.67188-0.76562-1.0625-1.5312-1.0625-1.25 0-2.1562 1.0781-2.1562 2.3125 0 1.2812 0.98438 2.2656 2.1406 2.2656 1.3281 0 1.6562-1.2031 1.6562-1.2969z"/>
</symbol>
<symbol id="z" overflow="visible">
<path d="m2.4688 0v-0.3125c-0.67188 0-0.70312-0.046875-0.70312-0.4375v-3.6562l-1.3906 0.10938v0.3125c0.64062 0 0.73438 0.0625 0.73438 0.54688v2.6875c0 0.4375-0.10938 0.4375-0.78125 0.4375v0.3125l1.0938-0.03125c0.35938 0 0.70312 0.015625 1.0469 0.03125zm-0.5625-6.0156c0-0.28125-0.21875-0.53125-0.51562-0.53125-0.34375 0-0.54688 0.28125-0.54688 0.53125 0 0.26562 0.23438 0.51562 0.53125 0.51562 0.34375 0 0.53125-0.26562 0.53125-0.51562z"/>
</symbol>
<symbol id="g" overflow="visible">
<path d="m5.25 0v-0.3125c-0.6875 0-0.78125-0.0625-0.78125-0.5625v-6.0469l-1.4219 0.10938v0.3125c0.6875 0 0.76562 0.0625 0.76562 0.5625v2.1562c-0.28125-0.35938-0.71875-0.625-1.25-0.625-1.1719 0-2.2188 0.98438-2.2188 2.2656 0 1.2656 0.96875 2.25 2.1094 2.25 0.64062 0 1.0781-0.34375 1.3281-0.65625v0.65625zm-1.4688-1.1719c0 0.17188 0 0.1875-0.10938 0.35938-0.29688 0.48438-0.73438 0.70312-1.1719 0.70312-0.45312 0-0.8125-0.26562-1.0469-0.64062-0.25-0.40625-0.28125-0.96875-0.28125-1.3906 0-0.35938 0.015625-0.95312 0.29688-1.4062 0.21875-0.3125 0.59375-0.64062 1.1406-0.64062 0.34375 0 0.76562 0.15625 1.0625 0.59375 0.10938 0.17188 0.10938 0.1875 0.10938 0.375z"/>
</symbol>
<symbol id="ah" overflow="visible">
<path d="m4.8125-0.89062v-0.5625h-0.25v0.5625c0 0.57812-0.25 0.64062-0.35938 0.64062-0.32812 0-0.35938-0.45312-0.35938-0.5v-1.9844c0-0.42188 0-0.8125-0.35938-1.1875-0.39062-0.39062-0.89062-0.54688-1.375-0.54688-0.8125 0-1.5 0.46875-1.5 1.125 0 0.29688 0.20312 0.46875 0.45312 0.46875 0.28125 0 0.46875-0.20312 0.46875-0.45312 0-0.125-0.0625-0.45312-0.51562-0.45312 0.26562-0.35938 0.76562-0.46875 1.0781-0.46875 0.48438 0 1.0625 0.39062 1.0625 1.2812v0.35938c-0.51562 0.03125-1.2188 0.0625-1.8438 0.35938-0.75 0.34375-1 0.85938-1 1.2969 0 0.8125 0.96875 1.0625 1.5938 1.0625 0.67188 0 1.125-0.40625 1.3125-0.85938 0.046875 0.39062 0.3125 0.8125 0.78125 0.8125 0.20312 0 0.8125-0.14062 0.8125-0.95312zm-1.6562-0.5c0 0.9375-0.71875 1.2812-1.1719 1.2812-0.48438 0-0.89062-0.34375-0.89062-0.84375 0-0.54688 0.40625-1.375 2.0625-1.4375z"/>
</symbol>
<symbol id="ag" overflow="visible">
<path d="m2.0312-0.015625c0-0.625-0.25-1.0469-0.64062-1.0469-0.35938 0-0.53125 0.28125-0.53125 0.53125 0 0.26562 0.17188 0.53125 0.53125 0.53125 0.14062 0 0.28125-0.0625 0.39062-0.15625 0.015625 0.78125-0.25 1.3906-0.6875 1.8594-0.0625 0.0625-0.078125 0.078125-0.078125 0.10938 0 0.078125 0.046875 0.10938 0.09375 0.10938 0.125 0 0.92188-0.78125 0.92188-1.9375z"/>
</symbol>
<symbol id="y" overflow="visible">
<path d="m4.6719-3.7031c0-0.54688-0.26562-0.70312-0.4375-0.70312-0.25 0-0.5 0.26562-0.5 0.48438 0 0.125 0.046875 0.1875 0.15625 0.29688 0.21875 0.20312 0.34375 0.45312 0.34375 0.8125 0 0.42188-0.60938 2.7031-1.7656 2.7031-0.51562 0-0.75-0.34375-0.75-0.875 0-0.54688 0.28125-1.2812 0.57812-2.1094 0.078125-0.17188 0.125-0.3125 0.125-0.5 0-0.4375-0.3125-0.8125-0.8125-0.8125-0.9375 0-1.3125 1.4531-1.3125 1.5312 0 0.10938 0.10938 0.10938 0.10938 0.10938 0.10938 0 0.10938-0.03125 0.15625-0.1875 0.29688-1 0.71875-1.2344 1.0156-1.2344 0.078125 0 0.25 0 0.25 0.3125 0 0.25-0.10938 0.53125-0.17188 0.70312-0.4375 1.1562-0.5625 1.6094-0.5625 2.0469 0 1.0781 0.875 1.2344 1.3281 1.2344 1.6719 0 2.25-3.2969 2.25-3.8125z"/>
</symbol>
<symbol id="x" overflow="visible">
<path d="m4.4219-7.2812c0-0.10938-0.078125-0.20312-0.1875-0.20312-0.078125 0-0.14062 0.03125-0.17188 0.09375l-3.4688 9.5c-0.046875 0.14062-0.046875 0.1875-0.046875 0.1875 0 0.10938 0.09375 0.20312 0.20312 0.20312 0.125 0 0.15625-0.078125 0.21875-0.25l3.4062-9.3438c0.046875-0.14062 0.046875-0.1875 0.046875-0.1875z"/>
</symbol>
<symbol id="w" overflow="visible">
<path d="m5.4688-1.7344c0-0.1875-0.17188-0.1875-0.26562-0.1875h-4.1875c-0.10938 0-0.26562 0-0.26562 0.1875 0 0.15625 0.17188 0.15625 0.26562 0.15625h4.1875c0.09375 0 0.26562 0 0.26562-0.15625z"/>
</symbol>
<symbol id="v" overflow="visible">
<path d="m3.2969 0v-0.25h-0.26562c-0.70312 0-0.70312-0.09375-0.70312-0.32812v-3.8594c0-0.1875 0-0.1875-0.20312-0.1875-0.45312 0.4375-1.0781 0.4375-1.3594 0.4375v0.25c0.15625 0 0.625 0 1-0.1875v3.5469c0 0.23438 0 0.32812-0.6875 0.32812h-0.26562v0.25l1.2344-0.03125z"/>
</symbol>
<symbol id="u" overflow="visible">
<path d="m-4.5312-6.0781-2.25 0.28125v5.4688h0.3125v-0.23438c0-0.76562 0.10938-0.79688 0.46875-0.79688h5.2188c0.35938 0 0.46875 0.03125 0.46875 0.79688v0.23438h0.3125c-0.03125-0.34375-0.03125-1.125-0.03125-1.5156 0-0.40625 0-1.3125 0.03125-1.6719h-0.3125v0.32812c0 0.9375-0.125 0.9375-0.46875 0.9375h-2.4531v-0.84375c0-0.96875 0.3125-1.0625 1.1562-1.0625v-0.25h-2.6406v0.25c0.84375 0 1.1719 0.09375 1.1719 1.0625v0.84375h-2.5312c-0.32812 0-0.39062-0.015625-0.39062-0.48438v-1.1875c0-1.5 0.5625-1.75 1.9375-1.9062z"/>
</symbol>
<symbol id="p" overflow="visible">
<path d="m-3.7969-3.625c-0.3125 0-0.60938 0.3125-0.60938 0.73438 0 0.73438 0.67188 1.0938 1.0938 1.2188h-1.0938l0.10938 1.3906h0.3125c0-0.70312 0.0625-0.78125 0.5625-0.78125h2.6719c0.4375 0 0.4375 0.10938 0.4375 0.78125h0.3125l-0.03125-1.1406c0-0.39062 0-0.85938 0.03125-1.2656h-0.3125v0.21875c0 0.73438-0.10938 0.75-0.46875 0.75h-1.5312c-0.98438 0-1.875-0.42188-1.875-1.1719 0-0.0625 0-0.09375 0.015625-0.10938 0 0.03125 0.125 0.23438 0.39062 0.23438s0.42188-0.21875 0.42188-0.4375c0-0.17188-0.125-0.42188-0.4375-0.42188z"/>
</symbol>
<symbol id="b" overflow="visible">
<path d="m-0.89062-4.8125h-0.5625v0.25h0.5625c0.57812 0 0.64062 0.25 0.64062 0.35938 0 0.32812-0.45312 0.35938-0.5 0.35938h-1.9844c-0.42188 0-0.8125 0-1.1875 0.35938-0.39062 0.39062-0.54688 0.89062-0.54688 1.375 0 0.8125 0.46875 1.5 1.125 1.5 0.29688 0 0.46875-0.20312 0.46875-0.45312 0-0.28125-0.20312-0.46875-0.45312-0.46875-0.125 0-0.45312 0.0625-0.45312 0.51562-0.35938-0.26562-0.46875-0.76562-0.46875-1.0781 0-0.48438 0.39062-1.0625 1.2812-1.0625h0.35938c0.03125 0.51562 0.0625 1.2188 0.35938 1.8438 0.34375 0.75 0.85938 1 1.2969 1 0.8125 0 1.0625-0.96875 1.0625-1.5938 0-0.67188-0.40625-1.125-0.85938-1.3125 0.39062-0.046875 0.8125-0.3125 0.8125-0.78125 0-0.20312-0.14062-0.8125-0.95312-0.8125zm-0.5 1.6562c0.9375 0 1.2812 0.71875 1.2812 1.1719 0 0.48438-0.34375 0.89062-0.84375 0.89062-0.54688 0-1.375-0.40625-1.4375-2.0625z"/>
</symbol>
<symbol id="o" overflow="visible">
<path d="m-1.1875-4.1406c-0.09375 0-0.09375 0.10938-0.09375 0.14062 0 0.078125 0.03125 0.10938 0.09375 0.125 0.92188 0.28125 1.0469 0.9375 1.0469 1.2969 0 0.53125-0.42188 1.4062-2.0312 1.4062-1.625 0-2.0469-0.8125-2.0469-1.3438 0-0.09375 0.015625-0.71875 0.375-1.0625 0.03125 0.40625 0.32812 0.46875 0.45312 0.46875 0.26562 0 0.45312-0.1875 0.45312-0.45312s-0.15625-0.46875-0.46875-0.46875c-0.67188 0-1.0625 0.76562-1.0625 1.5312 0 1.25 1.0781 2.1562 2.3125 2.1562 1.1719 0 2.0938-0.8125 2.25-1.8281h0.82812c0-0.375 0.078125-0.76562 0.40625-0.76562 0.40625 0 0.40625 0.95312 0.40625 1.7031v0.125h0.26562v-0.25c0-1.0781 0-2.4062-0.67188-2.4062-0.46875 0-0.67188 0.53125-0.67188 1.0781h-0.5625c-0.10938-1.1562-1.1875-1.4531-1.2812-1.4531z"/>
</symbol>
<symbol id="n" overflow="visible">
<path d="m-0.89062-4.8125h-0.5625v0.25h0.5625c0.57812 0 0.64062 0.25 0.64062 0.35938 0 0.32812-0.45312 0.35938-0.5 0.35938h-1.9844c-0.42188 0-0.8125 0-1.1875 0.35938-0.39062 0.39062-0.54688 0.89062-0.54688 1.375 0 0.8125 0.46875 1.5 1.125 1.5 0.29688 0 0.46875-0.20312 0.46875-0.45312 0-0.28125-0.20312-0.46875-0.45312-0.46875-0.125 0-0.45312 0.0625-0.45312 0.51562-0.35938-0.26562-0.46875-0.76562-0.46875-1.0781 0-0.48438 0.39062-1.0625 1.2812-1.0625h0.35938c0.03125 0.51562 0.0625 1.2188 0.35938 1.8438 0.34375 0.75 0.85938 1 1.2969 1 0.8125 0 1.0625-0.96875 1.0625-1.5938 0-0.67188-0.40625-1.125-0.85938-1.3125 0.39062-0.046875 0.8125-0.3125 0.8125-0.78125 0-0.20312-0.14062-0.8125-0.95312-0.8125zm-0.5 1.6562c0.9375 0 1.2812 0.71875 1.2812 1.1719 0 0.48438-0.34375 0.89062-0.84375 0.89062-0.54688 0-1.375-0.40625-1.4375-2.0625zm-4.9531-1-0.14062 0.15625s0.46875 0.375 0.46875 0.8125c0 0.23438-0.14062 0.48438-0.25 0.65625-0.15625 0.26562-0.21875 0.45312-0.21875 0.625 0 0.375 0.21875 0.5625 0.76562 1.0625l0.15625-0.15625s-0.48438-0.375-0.48438-0.8125c0-0.23438 0.15625-0.48438 0.25-0.65625 0.17188-0.26562 0.23438-0.4375 0.23438-0.60938 0-0.375-0.21875-0.57812-0.78125-1.0781z"/>
</symbol>
<symbol id="d" overflow="visible">
<path d="m-2.1406-4.6875c-1.2656 0-2.3281 0.98438-2.3281 2.1875 0 1.25 1.0938 2.2188 2.3281 2.2188 1.2969 0 2.25-1.0312 2.25-2.2031 0-1.2031-0.98438-2.2031-2.25-2.2031zm-0.078125 0.8125c0.35938 0 0.90625 0 1.3438 0.21875 0.45312 0.23438 0.73438 0.67188 0.73438 1.1562 0 0.4375-0.20312 0.875-0.67188 1.1406-0.4375 0.25-1.0469 0.25-1.4062 0.25-0.39062 0-0.92188 0-1.3594-0.23438-0.45312-0.26562-0.67188-0.73438-0.67188-1.1406 0-0.4375 0.21875-0.85938 0.65625-1.125 0.42188-0.26562 1-0.26562 1.375-0.26562z"/>
</symbol>
<symbol id="m" overflow="visible">
<path d="m0-5.25h-0.3125c0 0.6875-0.0625 0.78125-0.5625 0.78125h-6.0469l0.10938 1.4219h0.3125c0-0.6875 0.0625-0.76562 0.5625-0.76562h2.1562c-0.35938 0.28125-0.625 0.71875-0.625 1.25 0 1.1719 0.98438 2.2188 2.2656 2.2188 1.2656 0 2.25-0.96875 2.25-2.1094 0-0.64062-0.34375-1.0781-0.65625-1.3281h0.65625zm-1.1719 1.4688c0.17188 0 0.1875 0 0.35938 0.10938 0.48438 0.29688 0.70312 0.73438 0.70312 1.1719 0 0.45312-0.26562 0.8125-0.64062 1.0469-0.40625 0.25-0.96875 0.28125-1.3906 0.28125-0.35938 0-0.95312-0.015625-1.4062-0.29688-0.3125-0.21875-0.64062-0.59375-0.64062-1.1406 0-0.34375 0.15625-0.76562 0.59375-1.0625 0.17188-0.10938 0.1875-0.10938 0.375-0.10938z"/>
</symbol>
<symbol id="c" overflow="visible">
<path d="m-1.2812-3.5938c-0.51562 0-0.82812 0.29688-0.9375 0.42188-0.32812 0.32812-0.40625 0.71875-0.48438 1.1406-0.10938 0.5625-0.23438 1.2188-0.8125 1.2188-0.35938 0-0.76562-0.25-0.76562-1.1094 0-1.0938 0.90625-1.1562 1.2031-1.1719 0.09375 0 0.09375-0.10938 0.09375-0.10938 0-0.14062-0.046875-0.14062-0.23438-0.14062h-1.0156c-0.15625 0-0.23438 0-0.23438 0.10938 0 0.046875 0 0.078125 0.125 0.20312 0.03125 0.03125 0.125 0.125 0.15625 0.17188-0.28125 0.375-0.28125 0.78125-0.28125 0.9375 0 1.2188 0.67188 1.5938 1.2344 1.5938 0.34375 0 0.625-0.15625 0.84375-0.42188 0.25-0.32812 0.3125-0.60938 0.45312-1.3281 0.046875-0.21875 0.20312-1.0312 0.92188-1.0312 0.5 0 0.90625 0.34375 0.90625 1.125 0 0.84375-0.5625 1.2031-1.4219 1.3906-0.125 0.03125-0.15625 0.03125-0.15625 0.14062 0 0.125 0.0625 0.125 0.23438 0.125h1.3281c0.17188 0 0.23438 0 0.23438-0.10938 0-0.046875-0.015625-0.0625-0.20312-0.25-0.015625-0.015625-0.03125-0.015625-0.21875-0.20312 0.40625-0.4375 0.42188-0.89062 0.42188-1.0938 0-1.1406-0.67188-1.6094-1.3906-1.6094z"/>
</symbol>
<symbol id="l" overflow="visible">
<path d="m0-8.1094h-0.3125c0 0.51562 0 0.76562-0.29688 0.78125h-1.9062c-0.85938 0-1.1562 0-1.5156 0.3125-0.17188 0.14062-0.375 0.46875-0.375 1.0469 0 0.82812 0.59375 1.2812 0.98438 1.4375-0.875 0.14062-0.98438 0.875-0.98438 1.3281 0 0.73438 0.42188 1.2031 1.0469 1.4844h-1.0469l0.10938 1.4062h0.3125c0-0.70312 0.0625-0.78125 0.5625-0.78125h2.6719c0.4375 0 0.4375 0.10938 0.4375 0.78125h0.3125l-0.03125-1.1406 0.03125-1.1094h-0.3125c0 0.67188 0 0.78125-0.4375 0.78125h-1.8438c-1.0312 0-1.5938-0.71875-1.5938-1.3438 0-0.64062 0.53125-0.75 1.1094-0.75h2.3281c0.4375 0 0.4375 0.10938 0.4375 0.78125h0.3125l-0.03125-1.125 0.03125-1.1094h-0.3125c0 0.65625 0 0.76562-0.4375 0.76562h-1.8438c-1.0312 0-1.5938-0.70312-1.5938-1.3438 0-0.625 0.53125-0.73438 1.1094-0.73438h2.3281c0.4375 0 0.4375 0.10938 0.4375 0.78125h0.3125l-0.03125-1.125z"/>
</symbol>
<symbol id="e" overflow="visible">
<path d="m0-2.5469h-0.3125c0 0.67188 0 0.78125-0.4375 0.78125h-6.1719l0.10938 1.4375h0.3125c0-0.70312 0.0625-0.78125 0.5625-0.78125h5.1875c0.4375 0 0.4375 0.10938 0.4375 0.78125h0.3125l-0.03125-1.1094z"/>
</symbol>
<symbol id="t" overflow="visible">
<path d="m-1.1875-4.1406c-0.09375 0-0.125 0.078125-0.125 0.14062 0 0.078125 0.0625 0.10938 0.14062 0.125 1.0312 0.34375 1.0312 1.25 1.0312 1.3438 0 0.5-0.29688 0.89062-0.67188 1.125-0.46875 0.29688-1.125 0.29688-1.4844 0.29688v-2.7812c0-0.21875 0-0.25-0.21875-0.25-0.98438 0-1.9531 0.54688-1.9531 1.7812 0 1.1562 1.0312 2.0781 2.2812 2.0781 1.3281 0 2.2969-1.0469 2.2969-2.1875 0-1.2188-1.1094-1.6719-1.2969-1.6719zm-1.3281 0.65625v2.375c-1.4844-0.0625-1.7344-0.90625-1.7344-1.25 0-1.0156 1.3438-1.125 1.7344-1.125zm-4.0781 0.03125c-0.1875 0-0.35938 0.1875-0.35938 0.35938 0 0.15625 0.10938 0.26562 0.17188 0.29688l1.5156 1.2031 0.1875-0.17188-1.2188-1.5156c-0.078125-0.09375-0.1875-0.17188-0.29688-0.17188z"/>
</symbol>
<symbol id="s" overflow="visible">
<path d="m-1.1875-4.1406c-0.09375 0-0.09375 0.10938-0.09375 0.14062 0 0.078125 0.03125 0.10938 0.09375 0.125 0.92188 0.28125 1.0469 0.9375 1.0469 1.2969 0 0.53125-0.42188 1.4062-2.0312 1.4062-1.625 0-2.0469-0.8125-2.0469-1.3438 0-0.09375 0.015625-0.71875 0.375-1.0625 0.03125 0.40625 0.32812 0.46875 0.45312 0.46875 0.26562 0 0.45312-0.1875 0.45312-0.45312s-0.15625-0.46875-0.46875-0.46875c-0.67188 0-1.0625 0.76562-1.0625 1.5312 0 1.25 1.0781 2.1562 2.3125 2.1562 1.2812 0 2.2656-0.98438 2.2656-2.1406 0-1.3281-1.2031-1.6562-1.2969-1.6562z"/>
</symbol>
<symbol id="r" overflow="visible">
<path d="m0-5.3281h-0.3125c0 0.6875-0.0625 0.76562-0.5625 0.76562h-3.5312l0.10938 1.4688h0.3125c0-0.6875 0.0625-0.78125 0.5625-0.78125h1.7656c0.875 0 1.5469 0.48438 1.5469 1.2188 0 0.82812-0.46875 0.875-0.98438 0.875h-3.3125l0.10938 1.4688h0.3125c0-0.78125 0.03125-0.78125 0.90625-0.78125h1.5c0.78125 0 1.6875 0 1.6875-1.5156 0-0.5625-0.28125-1-0.89062-1.2812h0.89062z"/>
</symbol>
<symbol id="q" overflow="visible">
<path d="m-0.015625-2.0312c-0.625 0-1.0469 0.25-1.0469 0.64062 0 0.35938 0.28125 0.53125 0.53125 0.53125 0.26562 0 0.53125-0.17188 0.53125-0.53125 0-0.14062-0.0625-0.28125-0.15625-0.39062 0.78125-0.015625 1.3906 0.25 1.8594 0.6875 0.0625 0.0625 0.078125 0.078125 0.10938 0.078125 0.078125 0 0.10938-0.046875 0.10938-0.09375 0-0.125-0.78125-0.92188-1.9375-0.92188z"/>
</symbol>
<symbol id="k" overflow="visible">
<path d="m-6.3438-5.5c-0.45312 0-0.6875 0.45312-0.6875 0.85938 0 0.34375 0.1875 0.96875 1.1719 1.2656 0.20312 0.0625 0.3125 0.09375 1.5625 0.32812v0.6875c0 0.20312 0 0.3125 0.1875 0.3125 0.125 0 0.125-0.09375 0.125-0.28125v-0.65625l3.9375 0.73438c0.96875 0.1875 1.875 0.35938 1.875 0.875 0 0.046875 0 0.28125-0.1875 0.48438-0.03125-0.46875-0.39062-0.5625-0.53125-0.5625-0.23438 0-0.35938 0.1875-0.35938 0.375 0 0.26562 0.23438 0.54688 0.60938 0.54688 0.4375 0 0.6875-0.4375 0.6875-0.84375 0-0.54688-0.59375-0.95312-0.96875-1.125-0.625-0.32812-1.8281-0.54688-1.9062-0.5625l-3.1562-0.59375v-0.85938c0-0.20312 0-0.29688-0.20312-0.29688-0.10938 0-0.10938 0.09375-0.10938 0.26562v0.82812c-0.57812-0.10938-0.5625-0.09375-1.1406-0.20312-0.20312-0.046875-0.90625-0.1875-1.0312-0.25-0.1875-0.078125-0.34375-0.25-0.34375-0.46875 0-0.03125 0-0.29688 0.1875-0.48438 0.03125 0.4375 0.39062 0.54688 0.53125 0.54688 0.23438 0 0.35938-0.1875 0.35938-0.375 0-0.26562-0.23438-0.54688-0.60938-0.54688z"/>
</symbol>
<symbol id="j" overflow="visible">
<path d="m-3.7031-4.6719c-0.54688 0-0.70312 0.26562-0.70312 0.4375 0 0.25 0.26562 0.5 0.48438 0.5 0.125 0 0.1875-0.046875 0.29688-0.15625 0.20312-0.21875 0.45312-0.34375 0.8125-0.34375 0.42188 0 2.7031 0.60938 2.7031 1.7656 0 0.51562-0.34375 0.75-0.875 0.75-0.54688 0-1.2812-0.28125-2.1094-0.57812-0.17188-0.078125-0.3125-0.125-0.5-0.125-0.4375 0-0.8125 0.3125-0.8125 0.8125 0 0.9375 1.4531 1.3125 1.5312 1.3125 0.10938 0 0.10938-0.10938 0.10938-0.10938 0-0.10938-0.03125-0.10938-0.1875-0.15625-1-0.29688-1.2344-0.71875-1.2344-1.0156 0-0.078125 0-0.25 0.3125-0.25 0.25 0 0.53125 0.10938 0.70312 0.17188 1.1562 0.4375 1.6094 0.5625 2.0469 0.5625 1.0781 0 1.2344-0.875 1.2344-1.3281 0-1.6719-3.2969-2.25-3.8125-2.25z"/>
</symbol>
<symbol id="i" overflow="visible">
<path d="m2.3906-3.2969c-0.03125 0-0.046875 0-0.21875 0.17188-1.25 1.2344-3.1406 1.5625-4.6719 1.5625-1.7344 0-3.4688-0.375-4.7031-1.6094-0.125-0.125-0.14062-0.125-0.17188-0.125-0.078125 0-0.10938 0.03125-0.10938 0.09375 0 0.10938 0.6875 1 1.9531 1.5938 1.0938 0.5 2.2031 0.625 3.0312 0.625 0.78125 0 1.9844-0.10938 3.125-0.65625 1.2188-0.60938 1.875-1.4531 1.875-1.5625 0-0.0625-0.03125-0.09375-0.10938-0.09375z"/>
</symbol>
<symbol id="h" overflow="visible">
<path d="m-2.5-2.875c-0.76562 0-1.9688 0.10938-3.1094 0.65625-1.2188 0.59375-1.875 1.4531-1.875 1.5469 0 0.0625 0.046875 0.10938 0.10938 0.10938 0.03125 0 0.046875 0 0.23438-0.1875 0.98438-0.98438 2.5625-1.5469 4.6406-1.5469 1.7188 0 3.4688 0.35938 4.7188 1.5938 0.125 0.14062 0.14062 0.14062 0.17188 0.14062 0.0625 0 0.10938-0.046875 0.10938-0.10938 0-0.09375-0.6875-1-1.9531-1.5781-1.0938-0.51562-2.2031-0.625-3.0469-0.625z"/>
</symbol>
<clipPath id="as">
<path d="m13.516 1h194.27v161.39h-194.27z"/>
</clipPath>
<clipPath id="ar">
<path d="m13.516 60h194.27v102.39h-194.27z"/>
</clipPath>
<clipPath id="aq">
<path d="m13.516 85h194.27v77.391h-194.27z"/>
</clipPath>
</defs>
<path transform="matrix(1 0 0 -1 13.515 162.39)" d="m6.25e-4 3.75e-4v4.25m38.855-4.25v4.25m38.852-4.25v4.25m38.855-4.25v4.25m38.855-4.25v4.25m38.855-4.25v4.25m-194.27 157.14v-4.25m38.855 4.25v-4.25m38.852 4.25v-4.25m38.855 4.25v-4.25m38.855 4.25v-4.25m38.855 4.25v-4.25" fill="none" stroke="#7f7f7f" stroke-miterlimit="10" stroke-width=".19925"/>
<path transform="matrix(1 0 0 -1 13.515 162.39)" d="m6.25e-4 3.75e-4v161.39h194.27v-161.39z" fill="none" stroke="#000" stroke-miterlimit="10" stroke-width=".3985"/>
<g>
<use x="11.025" y="172.185" xlink:href="#a"/>
<use x="42.407" y="172.185" xlink:href="#ap"/>
<use x="47.3883" y="172.185" xlink:href="#a"/>
<use x="52.3696" y="172.185" xlink:href="#a"/>
<use x="57.3509" y="172.185" xlink:href="#a"/>
<use x="81.261" y="172.185" xlink:href="#ao"/>
<use x="86.2423" y="172.185" xlink:href="#a"/>
<use x="91.2236" y="172.185" xlink:href="#a"/>
<use x="96.2049" y="172.185" xlink:href="#a"/>
<use x="120.115" y="172.185" xlink:href="#an"/>
<use x="125.0963" y="172.185" xlink:href="#a"/>
<use x="130.0776" y="172.185" xlink:href="#a"/>
<use x="135.0589" y="172.185" xlink:href="#a"/>
<use x="158.97" y="172.185" xlink:href="#am"/>
<use x="163.9513" y="172.185" xlink:href="#a"/>
<use x="168.9326" y="172.185" xlink:href="#a"/>
<use x="173.9139" y="172.185" xlink:href="#a"/>
<use x="197.824" y="172.185" xlink:href="#al"/>
<use x="202.8053" y="172.185" xlink:href="#a"/>
<use x="207.7866" y="172.185" xlink:href="#a"/>
<use x="212.7679" y="172.185" xlink:href="#a"/>
</g>
<g clip-path="url(#as)">
<path transform="matrix(1 0 0 -1 13.515 162.39)" d="m6.25e-4 3.75e-4 1.3047 0.35938 1.3008 1.0742 1.3047 1.7812 1.3047 2.4648 1.3047 3.125 1.3047 3.75 1.3008 4.332 1.3047 4.8711 1.3047 5.3633 1.3047 5.7891 1.3008 6.168 1.3047 6.4727 1.3047 6.7109 1.3047 6.8945 1.3047 6.9922 1.3008 7.0391 1.3047 7.0078 1.3047 6.9141 1.3047 6.7578 1.3047 6.5391 1.3008 6.2734 1.3047 5.9375 1.3047 5.5742 1.3047 5.1484 1.3008 4.7031 1.3047 4.2148 1.3047 3.6992 1.3047 3.1641 1.3047 2.6328 1.3008 2.0703 1.3047 1.543 1.3047 0.96875 1.3047 0.38281 1.3047-0.09375 1.3008-0.64844 1.3047-1.1094 1.3047-1.6055 1.3047-2.0898 1.3008-2.4414 1.3047-2.8164 1.3047-3.2344 1.3047-3.4922 1.3047-3.7656 1.3008-4.0078 1.3047-4.2617 1.3047-4.4141 1.3047-4.5156 1.3047-4.6445 1.3008-4.625 1.3047-4.7617 1.3047-4.7266 1.3047-4.7148 1.3008-4.6758 1.3047-4.6055 1.3047-4.5156 1.3047-4.4102 1.3047-4.293 1.3008-4.1523 1.3047-4.0039 1.3047-3.8516 1.3047-3.6875 1.3047-3.5156 1.3008-3.3438 1.3047-3.168 1.3047-2.9922 1.3047-2.8164 1.3008-2.6445 1.3047-2.4766 1.3047-2.3086 1.3047-2.1445 1.3047-1.9922 1.3008-1.8438 1.3047-1.6992 1.3047-1.5625 1.3047-1.4336 1.3047-1.3125 1.3008-1.1992 1.3047-1.0898 1.3047-0.98828 1.3047-0.89453 1.3008-0.8125 1.3047-0.72656 1.3047-0.65625 1.3047-0.58984 1.3047-0.52344 1.3008-0.46875 1.3047-0.41797 1.3047-0.37109 1.3047-0.32812 1.3047-0.29297 1.3008-0.25391 1.3047-0.22656 1.3047-0.19531 1.3047-0.17578 1.3008-0.15234 1.3047-0.12891 1.3047-0.11719 1.3047-0.097656 1.3047-0.085938 1.3008-0.078125 1.3047-0.0625 1.3047-0.054687 1.3047-0.046875 1.3008-0.042969 1.3047-0.035156 2.6094-0.054688 2.6055-0.039062 1.3047-0.015625 3.9141-0.035156 1.3008-0.0078125 1.3047-0.0039062 1.3047-0.0078125 2.6094-0.0078125h1.3008l2.6094-0.0078125h2.6055l1.3047-0.0039062h3.9141l1.3008-0.0039062h27.383" fill="none" stroke="#0c6dfd" stroke-miterlimit="10" stroke-width="1.1955"/>
</g>
<g clip-path="url(#ar)">
<path transform="matrix(1 0 0 -1 13.515 162.39)" d="m6.25e-4 3.75e-4 1.3047 0.070312 1.3008 0.20703 1.3047 0.34375 1.3047 0.48438 1.3047 0.61328 1.3047 0.75 1.3008 0.87891 1.3047 1.0039 1.3047 1.1289 1.3047 1.2461 1.3008 1.3633 1.3047 1.4727 1.3047 1.5742 1.3047 1.6758 1.3047 1.7656 1.3008 1.8555 1.3047 1.9336 1.3047 2.0078 1.3047 2.0781 1.3047 2.1328 1.3008 2.1914 1.3047 2.2305 1.3047 2.2734 1.3047 2.2969 1.3008 2.3242 1.3047 2.3398 1.3047 2.3477 1.3047 2.3438 1.3047 2.332 1.3008 2.3281 1.3047 2.3008 1.3047 2.2695 1.3047 2.2383 1.3047 2.1953 1.3008 2.1445 1.3047 2.0898 1.3047 2.0352 1.3047 1.9609 1.3008 1.8867 1.3047 1.8203 1.3047 1.7344 1.3047 1.6484 1.3047 1.5664 1.3008 1.4727 1.3047 1.3672 1.3047 1.2734 1.3047 1.1758 1.3047 1.0703 1.3008 0.96094 1.3047 0.87109 1.3047 0.75781 1.3047 0.64062 1.3008 0.53906 1.3047 0.43359 1.3047 0.33203 1.3047 0.22656 1.3047 0.12109 1.3008 0.007813 1.3047-0.089844 1.3047-0.17969 1.3047-0.28125 1.3047-0.38672 1.3008-0.46875 1.3047-0.57422 1.3047-0.64453 1.3047-0.71484 1.3008-0.8125 1.3047-0.87891 1.3047-0.94141 1.3047-1.0273 1.3047-1.0859 1.3008-1.168 1.3047-1.1797 1.3047-1.25 1.3047-1.332 1.3047-1.3555 1.3008-1.3867 1.3047-1.4023 1.3047-1.457 1.3047-1.5078 1.3008-1.5156 1.3047-1.5078 1.3047-1.5508 1.3047-1.5742 1.3047-1.5547 1.3008-1.5703 1.3047-1.5977 1.3047-1.5547 2.6094-3.1484 1.3008-1.5625 1.3047-1.5508 1.3047-1.5352 1.3047-1.5234 1.3008-1.5039 1.3047-1.4844 1.3047-1.4609 1.3047-1.4414 1.3047-1.4141 1.3008-1.3867 1.3047-1.3594 1.3047-1.332 1.3047-1.3008 1.3008-1.2695 1.3047-1.2383 1.3047-1.2031 1.3047-1.1758 1.3047-1.1367 1.3008-1.1094 1.3047-1.0703 1.3047-1.0391 1.3047-1.0039 1.3047-0.97266 1.3008-0.9375 1.3047-0.90234 1.3047-0.87109 1.3047-0.83984 1.3047-0.80469 1.3008-0.77344 1.3047-0.74609 1.3047-0.71094 1.3047-0.67969 1.3008-0.65234 1.3047-0.625 1.3047-0.59766 1.3047-0.56641 1.3047-0.54297 1.3008-0.51562 1.3047-0.49219 1.3047-0.46484 1.3047-0.44531 1.3008-0.41797 1.3047-0.40234 1.3047-0.375 1.3047-0.35938 1.3047-0.33984 1.3008-0.31641 1.3047-0.30469 1.3047-0.28516 1.3047-0.26953 1.3047-0.25 1.3008-0.23828 1.3047-0.22656 1.3047-0.20703 1.3047-0.19922 1.3047-0.1875 1.3008-0.17188 1.3047-0.16016 1.3047-0.15234" fill="none" stroke="#dc3445" stroke-miterlimit="10" stroke-width="1.1955"/>
</g>
<g clip-path="url(#aq)">
<path transform="matrix(1 0 0 -1 13.515 162.39)" d="m6.25e-4 3.75e-4 1.3047 0.023438 1.3008 0.074219 1.3047 0.12109 1.3047 0.17188 1.3047 0.21875 1.3047 0.26953 1.3008 0.3125 1.3047 0.36328 1.3047 0.40625 1.3047 0.45312 1.3008 0.49609 1.3047 0.54297 1.3047 0.58594 1.3047 0.625 1.3047 0.66797 1.3008 0.70703 1.3047 0.74219 1.3047 0.78125 1.3047 0.82031 1.3047 0.84766 1.3008 0.88672 1.3047 0.91406 1.3047 0.94141 1.3047 0.97266 1.3008 1 1.3047 1.0195 1.3047 1.0469 1.3047 1.0664 1.3047 1.0859 1.3008 1.1016 1.3047 1.1172 1.3047 1.1328 1.3047 1.1445 1.3047 1.1523 1.3008 1.1602 2.6094 2.3359 1.3047 1.1758 1.3008 1.1719 1.3047 1.1719 1.3047 1.168 2.6094 2.3203 1.3008 1.1445 1.3047 1.1367 1.3047 1.1289 1.3047 1.1055 1.3047 1.0977 1.3008 1.0742 1.3047 1.0586 1.3047 1.043 1.3047 1.0195 1.3008 0.99219 1.3047 0.97266 1.3047 0.94531 1.3047 0.91797 1.3047 0.88281 1.3008 0.86328 1.3047 0.83203 1.3047 0.80078 1.3047 0.76953 1.3047 0.73047 1.3008 0.70703 1.3047 0.66016 1.3047 0.64062 1.3047 0.58984 1.3008 0.55859 1.3047 0.52734 1.3047 0.48438 1.3047 0.44922 1.3047 0.41797 1.3008 0.37109 1.3047 0.33594 1.3047 0.30078 1.3047 0.26562 1.3047 0.21484 1.3008 0.19141 1.3047 0.13672 1.3047 0.12109 1.3047 0.078125 1.3008 0.027344 1.3047 0.003906 1.3047-0.03125 1.3047-0.074218 1.3047-0.10547 1.3008-0.14844 1.3047-0.16016 1.3047-0.20703 1.3047-0.23828 1.3047-0.27734 1.3008-0.29297 1.3047-0.34766 1.3047-0.34375 1.3047-0.39844 1.3008-0.41016 1.3047-0.44531 1.3047-0.48047 1.3047-0.48438 1.3047-0.52734 1.3008-0.52344 1.3047-0.55859 1.3047-0.58594 1.3047-0.60938 1.3008-0.62109 1.3047-0.61328 1.3047-0.66797 1.3047-0.66406 1.3047-0.69141 1.3008-0.68359 1.3047-0.73438 1.3047-0.72656 1.3047-0.70703 1.3047-0.76172 1.3008-0.75 1.3047-0.75781 1.3047-0.77734 1.3047-0.75781 1.3047-0.76953 1.3008-0.78125 1.3047-0.78516 1.3047-0.79688 1.3047-0.80078 1.3008-0.76562 1.3047-0.79688 1.3047-0.78906 2.6094-1.5703 1.3008-0.78516 2.6094-1.5547 1.3047-0.76953 1.3008-0.76562 1.3047-0.75781 1.3047-0.75391 1.3047-0.74609 1.3047-0.73828 1.3008-0.73047 1.3047-0.72266 1.3047-0.71484 1.3047-0.70703 1.3047-0.69531 1.3008-0.68359 1.3047-0.67969 1.3047-0.66406 1.3047-0.65625 1.3047-0.64453 1.3008-0.63281 1.3047-0.62109 1.3047-0.61328" fill="none" stroke="#188653" stroke-miterlimit="10" stroke-width="1.1955"/>
</g>
<g>
<use x="71.431" y="20.695" xlink:href="#ai"/>
<use x="110.285" y="79.914" xlink:href="#af"/>
<use x="172.452" y="115.445" xlink:href="#ae"/>
<use x="66.807" y="187.135" xlink:href="#ad"/>
<use x="73.452054" y="187.135" xlink:href="#f"/>
<use x="77.88043" y="187.135" xlink:href="#ac"/>
<use x="80.64804" y="187.135" xlink:href="#ab"/>
<use x="85.89833" y="187.135" xlink:href="#aa"/>
<use x="90.326706" y="187.135" xlink:href="#z"/>
<use x="93.094316" y="187.135" xlink:href="#g"/>
<use x="98.629537" y="187.135" xlink:href="#ah"/>
<use x="103.610837" y="187.135" xlink:href="#g"/>
<use x="109.146057" y="187.135" xlink:href="#f"/>
<use x="113.574433" y="187.135" xlink:href="#ag"/>
<use x="119.665" y="187.135" xlink:href="#y"/>
<use x="124.852526" y="187.135" xlink:href="#x"/>
<use x="129.832" y="187.135" xlink:href="#ak"/>
<use x="139.867327" y="187.135" xlink:href="#aj"/>
<use x="143.799" y="183.519" xlink:href="#w"/>
<use x="150.025" y="183.519" xlink:href="#v"/>
<use x="7.505" y="140.26" xlink:href="#u"/>
<use x="7.505" y="134.583311" xlink:href="#p"/>
<use x="7.505" y="130.68096" xlink:href="#b"/>
<use x="7.505" y="125.69966" xlink:href="#o"/>
<use x="7.505" y="121.271284" xlink:href="#n"/>
<use x="7.505" y="116.289984" xlink:href="#d"/>
<use x="7.505" y="107.991139" xlink:href="#m"/>
<use x="7.505" y="102.455918" xlink:href="#b"/>
<use x="7.505" y="97.474618" xlink:href="#c"/>
<use x="7.505" y="90.226827" xlink:href="#l"/>
<use x="7.505" y="81.924992" xlink:href="#d"/>
<use x="7.505" y="76.943692" xlink:href="#e"/>
<use x="7.505" y="74.176082" xlink:href="#t"/>
<use x="7.505" y="69.747706" xlink:href="#s"/>
<use x="7.505" y="65.31933" xlink:href="#r"/>
<use x="7.505" y="59.78411" xlink:href="#e"/>
<use x="7.505" y="57.016499" xlink:href="#b"/>
<use x="7.505" y="52.035199" xlink:href="#c"/>
<use x="7.505" y="48.104954" xlink:href="#q"/>
<use x="7.505" y="42.018" xlink:href="#k"/>
<use x="7.505" y="36.068" xlink:href="#i"/>
<use x="7.505" y="32.193" xlink:href="#j"/>
<use x="7.505" y="27.007" xlink:href="#h"/>
</g>
</svg>
