<?xml version="1.0" standalone="no" ?>
<!DOCTYPE svg PUBLIC "-//W3C//DTD SVG 1.1//EN" "http://www.w3.org/Graphics/SVG/1.1/DTD/svg11.dtd">
<svg width="184px" height="184px" viewBox="0 0 184 184" style="background-color: #ffffff00" xmlns="http://www.w3.org/2000/svg" xmlns:xlink="http://www.w3.org/1999/xlink" version="1.1" >
<text x="0" y="0" stroke="none" fill="#000000" transform="matrix(0.1 0 0 0.1 114.472 99.5354)" font-style="normal" font-weight="normal" font-size="200px" font-family="PT Sans" >
HN</text>
<text x="0" y="0" stroke="none" fill="#000000" transform="matrix(0.1 0 0 0.1 85.25 56.8738)" font-style="normal" font-weight="normal" font-size="200px" font-family="PT Sans" >
N</text>
<text x="0" y="0" stroke="none" fill="#000000" transform="matrix(0.1 0 0 0.1 42.5884 99.5354)" font-style="normal" font-weight="normal" font-size="200px" font-family="PT Sans" >
NH</text>
<text x="0" y="0" stroke="none" fill="#000000" transform="matrix(0.1 0 0 0.1 85.25 142.197)" font-style="normal" font-weight="normal" font-size="200px" font-family="PT Sans" >
N</text>
<path stroke="none" fill="#000000" transform="matrix(0.1 0 0 0.1 -448 -78)" d="M 5989.25,1936.9 L 5995.9,1935.85 L 6000.66,1940.61 L 5911.66,2214.52 L 5902.14,2204.99 L 5989.25,1936.9 Z " />
<path stroke="none" fill="#000000" transform="matrix(0.1 0 0 0.1 -448 -78)" d="M 6263.8,1842.49 L 6275.8,1851.21 L 6000.66,1940.61 L 5995.9,1935.85 L 5998.19,1928.8 L 6263.8,1842.49 Z " />
<path stroke="none" fill="#000000" transform="matrix(0.1 0 0 0.1 -448 -78)" d="M 6216.11,1803.48 L 6219.82,1814.9 L 6017.55,1880.62 L 6013.84,1869.2 L 6216.11,1803.48 Z " />
<path stroke="none" fill="#000000" transform="matrix(0.1 0 0 0.1 -448 -78)" d="M 6263.8,1563.21 L 6275.8,1554.49 L 6275.8,1851.21 L 6263.8,1842.49 L 6263.8,1563.21 Z " />
<path stroke="none" fill="#000000" transform="matrix(0.1 0 0 0.1 -448 -78)" d="M 5998.19,1476.91 L 5995.9,1469.86 L 6000.66,1465.1 L 6275.8,1554.49 L 6263.8,1563.21 L 5998.19,1476.91 Z " />
<path stroke="none" fill="#000000" transform="matrix(0.1 0 0 0.1 -448 -78)" d="M 6013.84,1536.5 L 6017.55,1525.09 L 6219.82,1590.81 L 6216.11,1602.22 L 6013.84,1536.5 Z " />
<path stroke="none" fill="#000000" transform="matrix(0.1 0 0 0.1 -448 -78)" d="M 6000.66,1465.1 L 5995.9,1469.86 L 5989.25,1468.8 L 5902.14,1200.71 L 5911.66,1191.19 L 6000.66,1465.1 Z " />
<path stroke="none" fill="#000000" transform="matrix(0.1 0 0 0.1 -448 -78)" d="M 5899.26,1613.07 L 5889.55,1606.02 L 5989.25,1468.8 L 5995.9,1469.86 L 5998.19,1476.91 L 5899.26,1613.07 Z " />
<path stroke="none" fill="#000000" transform="matrix(0.1 0 0 0.1 -448 -78)" d="M 5891.61,1802.52 L 5901.32,1795.47 L 5998.19,1928.8 L 5995.9,1935.85 L 5989.25,1936.9 L 5891.61,1802.52 Z " />
<path stroke="none" fill="#000000" transform="matrix(0.1 0 0 0.1 -448 -78)" d="M 5634.05,1113.61 L 5633,1106.96 L 5637.76,1102.19 L 5911.66,1191.19 L 5902.14,1200.71 L 5634.05,1113.61 Z " />
<path stroke="none" fill="#000000" transform="matrix(0.1 0 0 0.1 -448 -78)" d="M 5640.24,1170.13 L 5643.95,1158.71 L 5867.61,1231.39 L 5863.91,1242.8 L 5640.24,1170.13 Z " />
<path stroke="none" fill="#000000" transform="matrix(0.1 0 0 0.1 -448 -78)" d="M 5539.64,839.052 L 5548.36,827.052 L 5637.76,1102.19 L 5633,1106.96 L 5625.94,1104.66 L 5539.64,839.052 Z " />
<path stroke="none" fill="#000000" transform="matrix(0.1 0 0 0.1 -448 -78)" d="M 5260.36,839.052 L 5251.64,827.052 L 5548.36,827.052 L 5539.64,839.052 L 5260.36,839.052 Z " />
<path stroke="none" fill="#000000" transform="matrix(0.1 0 0 0.1 -448 -78)" d="M 5293.66,890.892 L 5293.66,878.892 L 5506.34,878.892 L 5506.34,890.892 L 5293.66,890.892 Z " />
<path stroke="none" fill="#000000" transform="matrix(0.1 0 0 0.1 -448 -78)" d="M 5174.06,1104.66 L 5167,1106.96 L 5162.24,1102.19 L 5251.64,827.052 L 5260.36,839.052 L 5174.06,1104.66 Z " />
<path stroke="none" fill="#000000" transform="matrix(0.1 0 0 0.1 -448 -78)" d="M 5162.24,1102.19 L 5167,1106.96 L 5165.95,1113.61 L 4897.86,1200.71 L 4888.34,1191.19 L 5162.24,1102.19 Z " />
<path stroke="none" fill="#000000" transform="matrix(0.1 0 0 0.1 -448 -78)" d="M 5311.62,1204.61 L 5304.56,1214.31 L 5165.95,1113.61 L 5167,1106.96 L 5174.06,1104.66 L 5311.62,1204.61 Z " />
<path stroke="none" fill="#000000" transform="matrix(0.1 0 0 0.1 -448 -78)" d="M 5342.09,1162.67 L 5335.03,1172.38 L 5224.42,1092.01 L 5231.47,1082.3 L 5342.09,1162.67 Z " />
<path stroke="none" fill="#000000" transform="matrix(0.1 0 0 0.1 -448 -78)" d="M 5493.83,1215.48 L 5486.78,1205.77 L 5625.94,1104.66 L 5633,1106.96 L 5634.05,1113.61 L 5493.83,1215.48 Z " />
<path stroke="none" fill="#000000" transform="matrix(0.1 0 0 0.1 -448 -78)" d="M 4810.75,1468.8 L 4804.1,1469.86 L 4799.34,1465.1 L 4888.34,1191.19 L 4897.86,1200.71 L 4810.75,1468.8 Z " />
<path stroke="none" fill="#000000" transform="matrix(0.1 0 0 0.1 -448 -78)" d="M 4867.27,1462.61 L 4855.86,1458.9 L 4928.53,1235.24 L 4939.95,1238.95 L 4867.27,1462.61 Z " />
<path stroke="none" fill="#000000" transform="matrix(0.1 0 0 0.1 -448 -78)" d="M 4536.2,1563.21 L 4524.2,1554.49 L 4799.34,1465.1 L 4804.1,1469.86 L 4801.81,1476.91 L 4536.2,1563.21 Z " />
<path stroke="none" fill="#000000" transform="matrix(0.1 0 0 0.1 -448 -78)" d="M 4536.2,1842.49 L 4524.2,1851.21 L 4524.2,1554.49 L 4536.2,1563.21 L 4536.2,1842.49 Z " />
<path stroke="none" fill="#000000" transform="matrix(0.1 0 0 0.1 -448 -78)" d="M 4588.04,1809.19 L 4576.04,1809.19 L 4576.04,1596.52 L 4588.04,1596.52 L 4588.04,1809.19 Z " />
<path stroke="none" fill="#000000" transform="matrix(0.1 0 0 0.1 -448 -78)" d="M 4801.81,1928.8 L 4804.1,1935.85 L 4799.34,1940.61 L 4524.2,1851.21 L 4536.2,1842.49 L 4801.81,1928.8 Z " />
<path stroke="none" fill="#000000" transform="matrix(0.1 0 0 0.1 -448 -78)" d="M 4799.34,1940.61 L 4804.1,1935.85 L 4810.75,1936.9 L 4897.86,2204.99 L 4888.34,2214.52 L 4799.34,1940.61 Z " />
<path stroke="none" fill="#000000" transform="matrix(0.1 0 0 0.1 -448 -78)" d="M 4855.86,1946.81 L 4867.27,1943.1 L 4939.95,2166.76 L 4928.53,2170.47 L 4855.86,1946.81 Z " />
<path stroke="none" fill="#000000" transform="matrix(0.1 0 0 0.1 -448 -78)" d="M 4898.19,1796.14 L 4907.9,1803.19 L 4810.75,1936.9 L 4804.1,1935.85 L 4801.81,1928.8 L 4898.19,1796.14 Z " />
<path stroke="none" fill="#000000" transform="matrix(0.1 0 0 0.1 -448 -78)" d="M 4909.01,1604.05 L 4899.3,1611.1 L 4801.81,1476.91 L 4804.1,1469.86 L 4810.75,1468.8 L 4909.01,1604.05 Z " />
<path stroke="none" fill="#000000" transform="matrix(0.1 0 0 0.1 -448 -78)" d="M 5165.95,2292.1 L 5167,2298.75 L 5162.24,2303.51 L 4888.34,2214.52 L 4897.86,2204.99 L 5165.95,2292.1 Z " />
<path stroke="none" fill="#000000" transform="matrix(0.1 0 0 0.1 -448 -78)" d="M 5260.36,2566.66 L 5251.64,2578.66 L 5162.24,2303.51 L 5167,2298.75 L 5174.06,2301.04 L 5260.36,2566.66 Z " />
<path stroke="none" fill="#000000" transform="matrix(0.1 0 0 0.1 -448 -78)" d="M 5539.64,2566.66 L 5548.36,2578.66 L 5251.64,2578.66 L 5260.36,2566.66 L 5539.64,2566.66 Z " />
<path stroke="none" fill="#000000" transform="matrix(0.1 0 0 0.1 -448 -78)" d="M 5506.34,2514.82 L 5506.34,2526.82 L 5293.66,2526.82 L 5293.66,2514.82 L 5506.34,2514.82 Z " />
<path stroke="none" fill="#000000" transform="matrix(0.1 0 0 0.1 -448 -78)" d="M 5625.94,2301.04 L 5633,2298.75 L 5637.76,2303.51 L 5548.36,2578.66 L 5539.64,2566.66 L 5625.94,2301.04 Z " />
<path stroke="none" fill="#000000" transform="matrix(0.1 0 0 0.1 -448 -78)" d="M 5637.76,2303.51 L 5633,2298.75 L 5634.05,2292.1 L 5902.14,2204.99 L 5911.66,2214.52 L 5637.76,2303.51 Z " />
<path stroke="none" fill="#000000" transform="matrix(0.1 0 0 0.1 -448 -78)" d="M 5643.95,2246.99 L 5640.24,2235.58 L 5863.91,2162.91 L 5867.61,2174.32 L 5643.95,2246.99 Z " />
<path stroke="none" fill="#000000" transform="matrix(0.1 0 0 0.1 -448 -78)" d="M 5488.84,2201.43 L 5495.89,2191.72 L 5634.05,2292.1 L 5633,2298.75 L 5625.94,2301.04 L 5488.84,2201.43 Z " />
<path stroke="none" fill="#000000" transform="matrix(0.1 0 0 0.1 -448 -78)" d="M 5303.45,2192.2 L 5310.51,2201.91 L 5174.06,2301.04 L 5167,2298.75 L 5165.95,2292.1 L 5303.45,2192.2 Z " />
<path stroke="none" fill="#000000" transform="matrix(0.1 0 0 0.1 -448 -78)" d="M 5333.92,2234.14 L 5340.98,2243.85 L 5231.47,2323.41 L 5224.42,2313.7 L 5333.92,2234.14 Z " />
</svg>
