<?xml version="1.0" encoding="UTF-8"?>
<svg width="244pt" height="61pt" version="1.1" viewBox="0 0 244 61" xmlns="http://www.w3.org/2000/svg" xmlns:xlink="http://www.w3.org/1999/xlink">
<defs>
<symbol id="b" overflow="visible">
<path d="m4.9688-1.8906c0-0.64062-0.29688-1.125-0.51562-1.3594-0.46875-0.5-0.79688-0.59375-1.7188-0.8125-0.57812-0.14062-0.73438-0.1875-1.0469-0.4375-0.0625-0.0625-0.34375-0.35938-0.34375-0.79688 0-0.57812 0.54688-1.1875 1.4531-1.1875 0.84375 0 1.3125 0.32812 1.6875 0.64062l0.15625-0.79688c-0.54688-0.32812-1.1094-0.5-1.8281-0.5-1.3906 0-2.25 0.98438-2.25 1.9688 0 0.42188 0.14062 0.84375 0.53125 1.2656 0.42188 0.45312 0.85938 0.5625 1.4531 0.70312 0.84375 0.21875 0.9375 0.25 1.2188 0.48438 0.20312 0.17188 0.42188 0.5 0.42188 0.9375 0 0.65625-0.54688 1.3125-1.4531 1.3125-0.40625 0-1.3125-0.09375-2.1406-0.8125l-0.15625 0.8125c0.875 0.54688 1.6719 0.6875 2.2969 0.6875 1.3281 0 2.2344-1 2.2344-2.1094z"/>
</symbol>
<symbol id="a" overflow="visible">
<path d="m6.7656-3.4375c0-2.0938-1.4375-3.7031-3.0938-3.7031-1.7031 0-3.1094 1.625-3.1094 3.7031 0 2.1094 1.4688 3.6562 3.0938 3.6562 1.6719 0 3.1094-1.5625 3.1094-3.6562zm-0.89062-0.15625c0 1.9531-1.0625 3.1719-2.2031 3.1719-1.1719 0-2.2188-1.25-2.2188-3.1719 0-1.8125 1.0938-2.9062 2.2031-2.9062 1.1562 0 2.2188 1.125 2.2188 2.9062z"/>
</symbol>
<symbol id="e" overflow="visible">
<path d="m4.9219 0v-0.46875h-1.3906v-5.7344c0-0.23438 0-0.32812-0.26562-0.32812-0.10938 0-0.125 0-0.21875 0.078125-0.76562 0.5625-1.7969 0.5625-2 0.5625h-0.20312v0.46875h0.20312c0.15625 0 0.70312-0.015625 1.2969-0.20312v5.1562h-1.3906v0.46875c0.4375-0.03125 1.5-0.03125 1.9844-0.03125s1.5469 0 1.9844 0.03125z"/>
</symbol>
<symbol id="d" overflow="visible">
<path d="m5.1562-2.2188h-0.46875c-0.03125 0.20312-0.125 0.84375-0.26562 0.90625-0.10938 0.0625-0.85938 0.0625-1.0156 0.0625h-1.4688c0.46875-0.39062 1-0.8125 1.4375-1.1406 1.1406-0.84375 1.7812-1.3125 1.7812-2.25 0-1.1562-1.0469-1.8906-2.4375-1.8906-1.2188 0-2.1562 0.625-2.1562 1.5156 0 0.59375 0.48438 0.73438 0.71875 0.73438 0.32812 0 0.71875-0.21875 0.71875-0.71875 0-0.51562-0.42188-0.67188-0.5625-0.71875 0.28125-0.23438 0.67188-0.34375 1.0312-0.34375 0.84375 0 1.3125 0.67188 1.3125 1.4219 0 0.6875-0.375 1.375-1.0781 2.0781l-2 2.0469c-0.14062 0.10938-0.14062 0.14062-0.14062 0.34375v0.17188h4.2812z"/>
</symbol>
<symbol id="c" overflow="visible">
<path d="m5.25-1.7969c0-0.54688-0.29688-1.4062-1.7344-1.7188 0.6875-0.20312 1.4062-0.76562 1.4062-1.625 0-0.76562-0.75-1.3906-2.1562-1.3906-1.1875 0-1.9688 0.64062-1.9688 1.4375 0 0.42188 0.3125 0.70312 0.6875 0.70312 0.45312 0 0.70312-0.32812 0.70312-0.6875 0-0.57812-0.54688-0.6875-0.57812-0.70312 0.34375-0.28125 0.78125-0.35938 1.0938-0.35938 0.82812 0 0.85938 0.64062 0.85938 0.96875 0 0.125-0.015625 1.4375-1.0469 1.5-0.40625 0.015625-0.4375 0.015625-0.48438 0.03125-0.09375 0.015625-0.125 0.10938-0.125 0.17188 0 0.17188 0.10938 0.17188 0.28125 0.17188h0.4375c1.0938 0 1.0938 0.98438 1.0938 1.5 0 0.46875 0 1.4844-1.0312 1.4844-0.26562 0-0.78125-0.046875-1.2656-0.34375 0.32812-0.09375 0.57812-0.34375 0.57812-0.75 0-0.45312-0.3125-0.75-0.75-0.75-0.42188 0-0.76562 0.26562-0.76562 0.76562 0 0.90625 0.96875 1.5 2.25 1.5 1.7812 0 2.5156-1 2.5156-1.9062z"/>
</symbol>
</defs>
<g>
<use x="24.375" y="32.526" xlink:href="#b"/>
<use x="42.331" y="43.412" xlink:href="#a"/>
</g>
<path transform="matrix(1,0,0,-1,45.998,46.401)" d="m-0.84956-0.0013438c0 0.35547-0.28906 0.64453-0.64453 0.64453s-0.64453-0.28906-0.64453-0.64453c0-0.35547 0.28906-0.64063 0.64453-0.64063s0.64453 0.28516 0.64453 0.64063zm2.9883 0c0 0.35547-0.28906 0.64453-0.64453 0.64453-0.35547 0-0.64453-0.28906-0.64453-0.64453 0-0.35547 0.28906-0.64063 0.64453-0.64063 0.35547 0 0.64453 0.28516 0.64453 0.64063z" stroke="#000" stroke-miterlimit="10" stroke-width=".3985"/>
<path transform="matrix(1,0,0,-1,52.022,36.475)" d="m0.42722-0.73594c-0.30859-0.17969-0.41406-0.57031-0.23828-0.87891 0.17969-0.30859 0.57031-0.41406 0.87891-0.23828 0.30859 0.17969 0.41406 0.57422 0.23828 0.87891-0.17969 0.30859-0.57422 0.41406-0.87891 0.23828zm-1.4961 2.5859c-0.30859-0.17578-0.41406-0.57031-0.23438-0.87891 0.17578-0.30469 0.57031-0.41016 0.87891-0.23438 0.30469 0.17969 0.41016 0.57031 0.23438 0.87891-0.17578 0.30859-0.57031 0.41406-0.87891 0.23438z" stroke="#000" stroke-miterlimit="10" stroke-width=".3985"/>
<path transform="matrix(1,0,0,-1,27.143,32.526)" d="m4.7711 2.1432 9.6602-5.5781" fill="none" stroke="#000" stroke-linecap="round" stroke-miterlimit="10" stroke-width=".59758"/>
<path transform="matrix(1,0,0,-1,27.143,32.526)" d="m3.525-0.013062 9.6602-5.5781" fill="none" stroke="#000" stroke-linecap="round" stroke-miterlimit="10" stroke-width=".59758"/>
<g>
<use x="23.476" y="11.265" xlink:href="#a"/>
</g>
<path transform="matrix(1,0,0,-1,33.167,4.328)" d="m0.42675-0.73841c-0.30859-0.17578-0.41406-0.57031-0.23828-0.87891 0.17969-0.30469 0.57422-0.41016 0.87891-0.23438 0.30859 0.17969 0.41406 0.57031 0.23828 0.87891-0.17969 0.30859-0.57422 0.41406-0.87891 0.23438zm-1.4961 2.5898c-0.30859-0.17578-0.41406-0.57031-0.23438-0.87891 0.17578-0.30859 0.57031-0.41406 0.87891-0.23438 0.30859 0.17578 0.41406 0.57031 0.23438 0.87891-0.17578 0.30469-0.57031 0.41016-0.87891 0.23438z" stroke="#000" stroke-miterlimit="10" stroke-width=".3985"/>
<path transform="matrix(1,0,0,-1,21.119,4.328)" d="m0.42397 0.73816c0.30859-0.17969 0.70312-0.074219 0.87891 0.23438 0.17969 0.30859 0.074219 0.70312-0.23438 0.87891-0.30859 0.17578-0.69922 0.070313-0.87891-0.23438-0.17578-0.30859-0.070313-0.70312 0.23438-0.87891zm-1.4922-2.5898c0.30859-0.17578 0.69922-0.070312 0.87891 0.23438 0.17578 0.30859 0.070313 0.70312-0.23438 0.87891-0.30859 0.17969-0.70312 0.074218-0.87891-0.23438-0.17969-0.30859-0.074219-0.69922 0.23438-0.87891z" stroke="#000" stroke-miterlimit="10" stroke-width=".3985"/>
<path transform="matrix(1,0,0,-1,27.143,32.526)" d="m-1.2446 8.5143v11.152" fill="none" stroke="#000" stroke-linecap="round" stroke-miterlimit="10" stroke-width=".59758"/>
<path transform="matrix(1,0,0,-1,27.143,32.526)" d="m1.2437 8.5143v11.152" fill="none" stroke="#000" stroke-linecap="round" stroke-miterlimit="10" stroke-width=".59758"/>
<g>
<use x="4.621" y="43.412" xlink:href="#a"/>
</g>
<path transform="matrix(1,0,0,-1,8.288,46.401)" d="m-0.8505-0.0013438c0 0.35547-0.28906 0.64453-0.64453 0.64453-0.35547 0-0.64453-0.28906-0.64453-0.64453 0-0.35547 0.28906-0.64063 0.64453-0.64063 0.35547 0 0.64453 0.28516 0.64453 0.64063zm2.9883 0c0 0.35547-0.28906 0.64453-0.64453 0.64453s-0.64062-0.28906-0.64062-0.64453c0-0.35547 0.28516-0.64063 0.64062-0.64063s0.64453 0.28516 0.64453 0.64063z" stroke="#000" stroke-miterlimit="10" stroke-width=".3985"/>
<path transform="matrix(1,0,0,-1,2.263,36.475)" d="m0.4245 0.73672c0.30859-0.17578 0.70312-0.070313 0.87891 0.23438 0.17969 0.30859 0.074219 0.70312-0.23438 0.87891-0.30859 0.17969-0.70312 0.074219-0.87891-0.23438-0.17969-0.30859-0.074219-0.69922 0.23438-0.87891zm-1.4922-2.5898c0.30469-0.17578 0.69922-0.070313 0.87891 0.23828 0.17578 0.30859 0.070312 0.69922-0.23828 0.87891-0.30469 0.17578-0.69922 0.070313-0.87891-0.23828-0.17578-0.30469-0.070312-0.69922 0.23828-0.87891z" stroke="#000" stroke-miterlimit="10" stroke-width=".3985"/>
<path transform="matrix(1,0,0,-1,27.143,32.526)" d="m-3.5258-0.013062-9.6602-5.5781" fill="none" stroke="#000" stroke-linecap="round" stroke-miterlimit="10" stroke-width=".59758"/>
<path transform="matrix(1,0,0,-1,27.143,32.526)" d="m-4.768 2.1432-9.6641-5.5781" fill="none" stroke="#000" stroke-linecap="round" stroke-miterlimit="10" stroke-width=".59758"/>
<g>
<use x="24.279" y="59.958" xlink:href="#e"/>
</g>
<path transform="matrix(1,0,0,-1,4.621,32.526)" d="m56.942 2.1432h26.02" fill="none" stroke="#000" stroke-miterlimit="10" stroke-width=".3985"/>
<path transform="matrix(-1 0 0 1 64.273 30.381)" d="m4.4444 0.0015225-3.2812 1.3125 1.6445-1.3125-1.6445-1.3164z" stroke="#000" stroke-linejoin="round" stroke-miterlimit="10" stroke-width=".3985"/>
<path transform="matrix(1 0 0 -1 84.873 30.381)" d="m4.4438-0.0015225-3.2812 1.3164 1.6484-1.3164-1.6484-1.3125z" stroke="#000" stroke-linejoin="round" stroke-miterlimit="10" stroke-width=".3985"/>
<g>
<use x="119.233" y="32.526" xlink:href="#b"/>
<use x="137.189" y="43.412" xlink:href="#a"/>
</g>
<path transform="matrix(1 0 0 -1 140.86 46.401)" d="m-0.85109-0.0013438c0 0.35547-0.28906 0.64453-0.64453 0.64453s-0.64062-0.28906-0.64062-0.64453c0-0.35547 0.28516-0.64063 0.64062-0.64063s0.64453 0.28516 0.64453 0.64063zm2.9883 0c0 0.35547-0.28906 0.64453-0.64453 0.64453-0.35547 0-0.64062-0.28906-0.64062-0.64453 0-0.35547 0.28516-0.64063 0.64062-0.64063 0.35547 0 0.64453 0.28516 0.64453 0.64063z" stroke="#000" stroke-miterlimit="10" stroke-width=".3985"/>
<path transform="matrix(1 0 0 -1 146.88 36.475)" d="m0.42569-0.73594c-0.30859-0.17969-0.41406-0.57031-0.23438-0.87891 0.17578-0.30859 0.57031-0.41406 0.87891-0.23828 0.30469 0.17969 0.41016 0.57422 0.23438 0.87891-0.17969 0.30859-0.57031 0.41406-0.87891 0.23828zm-1.4961 2.5859c-0.30469-0.17578-0.41016-0.57031-0.23438-0.87891 0.17969-0.30469 0.57031-0.41016 0.87891-0.23438 0.30859 0.17969 0.41406 0.57031 0.23438 0.87891-0.17578 0.30859-0.57031 0.41406-0.87891 0.23438z" stroke="#000" stroke-miterlimit="10" stroke-width=".3985"/>
<path transform="matrix(1,0,0,-1,122,32.526)" d="m4.7695 2.1432 9.6602-5.5781" fill="none" stroke="#000" stroke-linecap="round" stroke-miterlimit="10" stroke-width=".59758"/>
<path transform="matrix(1,0,0,-1,122,32.526)" d="m3.5234-0.013062 9.6641-5.5781" fill="none" stroke="#000" stroke-linecap="round" stroke-miterlimit="10" stroke-width=".59758"/>
<g>
<use x="118.333" y="11.265" xlink:href="#a"/>
</g>
<path transform="matrix(1 0 0 -1 128.66 7.806)" d="m2.5e-4 -0.85025c-0.35547 0-0.64453-0.28906-0.64453-0.64453 0-0.35547 0.28906-0.64453 0.64453-0.64453s0.64453 0.28906 0.64453 0.64453c0 0.35547-0.28906 0.64453-0.64453 0.64453zm0 2.9883c-0.35547 0-0.64453-0.28906-0.64453-0.64453s0.28906-0.64062 0.64453-0.64062 0.64453 0.28516 0.64453 0.64062-0.28906 0.64453-0.64453 0.64453z" stroke="#000" stroke-miterlimit="10" stroke-width=".3985"/>
<path transform="matrix(1,0,0,-1,122,1.358)" d="m0.85156-0.001375c0-0.35547 0.28906-0.64062 0.64453-0.64062 0.35547 0 0.64062 0.28516 0.64062 0.64062s-0.28516 0.64453-0.64062 0.64453c-0.35547 0-0.64453-0.28906-0.64453-0.64453zm-2.9883 0c0-0.35547 0.28516-0.64062 0.64062-0.64062 0.35547 0 0.64453 0.28516 0.64453 0.64062s-0.28906 0.64453-0.64453 0.64453c-0.35547 0-0.64062-0.28906-0.64062-0.64453z" stroke="#000" stroke-miterlimit="10" stroke-width=".3985"/>
<path transform="matrix(1 0 0 -1 115.84 7.806)" d="m7.5e-4 0.85288c0.35547 0 0.64453 0.28516 0.64453 0.64062s-0.28906 0.64453-0.64453 0.64453-0.64453-0.28906-0.64453-0.64453 0.28906-0.64062 0.64453-0.64062zm0-2.9922c0.35547 0 0.64453 0.28906 0.64453 0.64453 0 0.35547-0.28906 0.64453-0.64453 0.64453s-0.64453-0.28906-0.64453-0.64453c0-0.35547 0.28906-0.64453 0.64453-0.64453z" stroke="#000" stroke-miterlimit="10" stroke-width=".3985"/>
<path transform="matrix(1,0,0,-1,122,32.526)" d="m0 8.5143v11.152" fill="none" stroke="#000" stroke-linecap="round" stroke-miterlimit="10" stroke-width=".59758"/>
<g>
<use x="99.478" y="43.412" xlink:href="#a"/>
</g>
<path transform="matrix(1 0 0 -1 103.14 46.401)" d="m-0.85203-0.0013438c0 0.35547-0.28516 0.64453-0.64062 0.64453-0.35547 0-0.64453-0.28906-0.64453-0.64453 0-0.35547 0.28906-0.64063 0.64453-0.64063 0.35547 0 0.64062 0.28516 0.64062 0.64063zm2.9883 0c0 0.35547-0.28516 0.64453-0.64062 0.64453s-0.64453-0.28906-0.64453-0.64453c0-0.35547 0.28906-0.64063 0.64453-0.64063s0.64062 0.28516 0.64062 0.64063z" stroke="#000" stroke-miterlimit="10" stroke-width=".3985"/>
<path transform="matrix(1,0,0,-1,97.121,36.475)" d="m0.42588 0.73672c0.30859-0.17578 0.69922-0.070313 0.87891 0.23438 0.17578 0.30859 0.070313 0.70312-0.23438 0.87891-0.30859 0.17969-0.70312 0.074219-0.87891-0.23438-0.17969-0.30859-0.074219-0.69922 0.23438-0.87891zm-1.4961-2.5898c0.30859-0.17578 0.70312-0.070313 0.87891 0.23828 0.17969 0.30859 0.074219 0.69922-0.23438 0.87891-0.30859 0.17578-0.69922 0.070313-0.87891-0.23828-0.17578-0.30469-0.070312-0.69922 0.23438-0.87891z" stroke="#000" stroke-miterlimit="10" stroke-width=".3985"/>
<path transform="matrix(1,0,0,-1,122,32.526)" d="m-3.5234-0.013062-9.6641-5.5781" fill="none" stroke="#000" stroke-linecap="round" stroke-miterlimit="10" stroke-width=".59758"/>
<path transform="matrix(1,0,0,-1,122,32.526)" d="m-4.7695 2.1432-9.6602-5.5781" fill="none" stroke="#000" stroke-linecap="round" stroke-miterlimit="10" stroke-width=".59758"/>
<g>
<use x="119.136" y="59.958" xlink:href="#d"/>
</g>
<path transform="matrix(1,0,0,-1,4.621,32.526)" d="m151.8 2.1432h26.02" fill="none" stroke="#000" stroke-miterlimit="10" stroke-width=".3985"/>
<path transform="matrix(-1 0 0 1 159.13 30.381)" d="m4.4435 0.0015225-3.2812 1.3125 1.6484-1.3125-1.6484-1.3164z" stroke="#000" stroke-linejoin="round" stroke-miterlimit="10" stroke-width=".3985"/>
<path transform="matrix(1 0 0 -1 179.73 30.381)" d="m4.4447-0.0015225-3.2812 1.3164 1.6445-1.3164-1.6445-1.3125z" stroke="#000" stroke-linejoin="round" stroke-miterlimit="10" stroke-width=".3985"/>
<g>
<use x="214.09" y="32.526" xlink:href="#b"/>
<use x="232.046" y="43.412" xlink:href="#a"/>
</g>
<path transform="matrix(1 0 0 -1 239.07 34.136)" d="m0.73759-0.4265c-0.17969-0.30859-0.074219-0.69922 0.23438-0.87891 0.30859-0.17578 0.70312-0.070313 0.87891 0.23828 0.17969 0.30469 0.074219 0.69922-0.23438 0.87891-0.30859 0.17578-0.70312 0.070313-0.87891-0.23828zm-2.5898 1.4961c-0.17578-0.30859-0.070312-0.70312 0.23828-0.87891 0.30469-0.17969 0.69922-0.074218 0.87891 0.23438 0.17578 0.30859 0.070312 0.70312-0.23828 0.87891-0.30859 0.17969-0.69922 0.074218-0.87891-0.23438z" stroke="#000" stroke-miterlimit="10" stroke-width=".3985"/>
<path transform="matrix(1 0 0 -1 241.74 43.431)" d="m-0.4245-0.73697c-0.30859 0.17578-0.70312 0.070313-0.87891-0.23438-0.17969-0.30859-0.074219-0.70312 0.23438-0.87891 0.30859-0.17969 0.70312-0.074219 0.87891 0.23438 0.17969 0.30859 0.074219 0.70312-0.23438 0.87891zm1.4922 2.5898c-0.30469 0.17578-0.69922 0.070312-0.87891-0.23828-0.17578-0.30469-0.070312-0.69922 0.23828-0.87891 0.30469-0.17578 0.69922-0.070312 0.87891 0.23828 0.17578 0.30469 0.070312 0.69922-0.23828 0.87891z" stroke="#000" stroke-miterlimit="10" stroke-width=".3985"/>
<path transform="matrix(1 0 0 -1 232.35 45.769)" d="m-0.73681 0.42525c0.17578 0.30859 0.070312 0.70312-0.23438 0.87891-0.30859 0.17969-0.70312 0.074219-0.87891-0.23438-0.17969-0.30859-0.074218-0.70312 0.23438-0.87891 0.30859-0.17969 0.69922-0.074219 0.87891 0.23438zm2.5898-1.4961c0.17578 0.30859 0.070313 0.70312-0.23828 0.87891-0.30469 0.17969-0.69922 0.074219-0.87891-0.23438-0.17578-0.30859-0.070313-0.69922 0.23828-0.87891 0.30469-0.17578 0.69922-0.070312 0.87891 0.23438z" stroke="#000" stroke-miterlimit="10" stroke-width=".3985"/>
<path transform="matrix(1 0 0 -1 216.86 32.526)" d="m4.1469 1.0651 9.6602-5.5781" fill="none" stroke="#000" stroke-linecap="round" stroke-miterlimit="10" stroke-width=".59758"/>
<g>
<use x="213.191" y="11.265" xlink:href="#a"/>
</g>
<path transform="matrix(1 0 0 -1 223.51 7.805)" d="m-0.0012812-0.85125c-0.35547 0-0.64062-0.28906-0.64062-0.64453 0-0.35547 0.28516-0.64062 0.64062-0.64062 0.35547 0 0.64453 0.28516 0.64453 0.64062 0 0.35547-0.28906 0.64453-0.64453 0.64453zm0 2.9883c-0.35547 0-0.64062-0.28906-0.64062-0.64453 0-0.35156 0.28516-0.64062 0.64062-0.64062 0.35547 0 0.64453 0.28906 0.64453 0.64062 0 0.35547-0.28906 0.64453-0.64453 0.64453z" stroke="#000" stroke-miterlimit="10" stroke-width=".3985"/>
<path transform="matrix(1 0 0 -1 216.86 1.357)" d="m0.85003 0.0015312c0-0.35547 0.28906-0.64453 0.64453-0.64453 0.35547 0 0.64453 0.28906 0.64453 0.64453 0 0.35547-0.28906 0.64062-0.64453 0.64062-0.35547 0-0.64453-0.28516-0.64453-0.64062zm-2.9883 0c0-0.35547 0.28906-0.64453 0.64453-0.64453 0.35547 0 0.64453 0.28906 0.64453 0.64453 0 0.35547-0.28906 0.64062-0.64453 0.64062-0.35547 0-0.64453-0.28516-0.64453-0.64062z" stroke="#000" stroke-miterlimit="10" stroke-width=".3985"/>
<path transform="matrix(1,0,0,-1,210.7,7.805)" d="m-7.8125e-4 0.85188c0.35547 0 0.64453 0.28906 0.64453 0.64062 0 0.35547-0.28906 0.64453-0.64453 0.64453-0.35547 0-0.64453-0.28906-0.64453-0.64453 0-0.35156 0.28906-0.64062 0.64453-0.64062zm0-2.9883c0.35547 0 0.64453 0.28516 0.64453 0.64062 0 0.35547-0.28906 0.64453-0.64453 0.64453-0.35547 0-0.64453-0.28906-0.64453-0.64453 0-0.35547 0.28906-0.64062 0.64453-0.64062z" stroke="#000" stroke-miterlimit="10" stroke-width=".3985"/>
<path transform="matrix(1 0 0 -1 216.86 32.526)" d="m-0.0015312 8.5143v11.152" fill="none" stroke="#000" stroke-linecap="round" stroke-miterlimit="10" stroke-width=".59758"/>
<g>
<use x="194.335" y="43.412" xlink:href="#a"/>
</g>
<path transform="matrix(1 0 0 -1 198 46.401)" d="m-0.84966-0.0013438c0 0.35547-0.28906 0.64453-0.64453 0.64453-0.35547 0-0.64453-0.28906-0.64453-0.64453 0-0.35547 0.28906-0.64063 0.64453-0.64063 0.35547 0 0.64453 0.28516 0.64453 0.64063zm2.9883 0c0 0.35547-0.28906 0.64453-0.64453 0.64453s-0.64453-0.28906-0.64453-0.64453c0-0.35547 0.28906-0.64063 0.64453-0.64063s0.64453 0.28516 0.64453 0.64063z" stroke="#000" stroke-miterlimit="10" stroke-width=".3985"/>
<path transform="matrix(1 0 0 -1 191.98 36.475)" d="m0.42434 0.73672c0.30859-0.17578 0.70312-0.070313 0.87891 0.23438 0.17969 0.30859 0.074219 0.70312-0.23438 0.87891-0.30859 0.17969-0.70312 0.074219-0.87891-0.23438-0.17578-0.30859-0.070313-0.69922 0.23438-0.87891zm-1.4922-2.5898c0.30859-0.17578 0.69922-0.070313 0.87891 0.23828 0.17578 0.30859 0.070312 0.69922-0.23828 0.87891-0.30469 0.17578-0.69922 0.070313-0.87891-0.23828-0.17578-0.30469-0.070312-0.69922 0.23828-0.87891z" stroke="#000" stroke-miterlimit="10" stroke-width=".3985"/>
<path transform="matrix(1 0 0 -1 216.86 32.526)" d="m-3.525-0.013062-9.6602-5.5781" fill="none" stroke="#000" stroke-linecap="round" stroke-miterlimit="10" stroke-width=".59758"/>
<path transform="matrix(1 0 0 -1 216.86 32.526)" d="m-4.7711 2.1432-9.6602-5.5781" fill="none" stroke="#000" stroke-linecap="round" stroke-miterlimit="10" stroke-width=".59758"/>
<g>
<use x="213.993" y="59.957" xlink:href="#c"/>
</g>
</svg>
