<?xml version="1.0" encoding="UTF-8"?>
<svg width="234pt" height="191pt" version="1.1" viewBox="0 0 234 191" xmlns="http://www.w3.org/2000/svg" xmlns:xlink="http://www.w3.org/1999/xlink">
<defs>
<symbol id="u" overflow="visible">
<path d="m4.5625-1.7031c0-0.8125-0.64062-1.5938-1.6719-1.8125 0.8125-0.26562 1.3906-0.95312 1.3906-1.75 0-0.8125-0.875-1.375-1.8281-1.375-1 0-1.7656 0.59375-1.7656 1.3594 0 0.32812 0.21875 0.51562 0.51562 0.51562s0.5-0.21875 0.5-0.51562c0-0.48438-0.46875-0.48438-0.60938-0.48438 0.29688-0.5 0.95312-0.625 1.3125-0.625 0.42188 0 0.96875 0.21875 0.96875 1.1094 0 0.125-0.03125 0.70312-0.28125 1.1406-0.29688 0.48438-0.64062 0.51562-0.89062 0.51562-0.078125 0.015625-0.3125 0.03125-0.39062 0.03125-0.078125 0.015625-0.14062 0.03125-0.14062 0.125 0 0.10938 0.0625 0.10938 0.23438 0.10938h0.4375c0.8125 0 1.1875 0.67188 1.1875 1.6562 0 1.3594-0.6875 1.6406-1.125 1.6406s-1.1875-0.17188-1.5312-0.75c0.34375 0.046875 0.65625-0.17188 0.65625-0.54688 0-0.35938-0.26562-0.5625-0.54688-0.5625-0.25 0-0.5625 0.14062-0.5625 0.57812 0 0.90625 0.92188 1.5625 2.0156 1.5625 1.2188 0 2.125-0.90625 2.125-1.9219z"/>
</symbol>
<symbol id="a" overflow="visible">
<path d="m4.4688-2c0-1.1875-0.8125-2.1875-1.8906-2.1875-0.46875 0-0.90625 0.15625-1.2656 0.51562v-1.9531c0.20312 0.0625 0.53125 0.125 0.84375 0.125 1.2344 0 1.9375-0.90625 1.9375-1.0312 0-0.0625-0.03125-0.10938-0.10938-0.10938 0 0-0.03125 0-0.078125 0.03125-0.20312 0.09375-0.6875 0.29688-1.3594 0.29688-0.39062 0-0.85938-0.078125-1.3281-0.28125-0.078125-0.03125-0.10938-0.03125-0.10938-0.03125-0.10938 0-0.10938 0.078125-0.10938 0.23438v2.9531c0 0.17188 0 0.25 0.14062 0.25 0.078125 0 0.09375-0.015625 0.14062-0.078125 0.10938-0.15625 0.46875-0.70312 1.2812-0.70312 0.51562 0 0.76562 0.45312 0.84375 0.64062 0.15625 0.375 0.1875 0.75 0.1875 1.25 0 0.35938 0 0.95312-0.25 1.375-0.23438 0.39062-0.60938 0.64062-1.0625 0.64062-0.71875 0-1.2969-0.53125-1.4688-1.1094 0.03125 0 0.0625 0.015625 0.17188 0.015625 0.32812 0 0.5-0.25 0.5-0.48438 0-0.25-0.17188-0.5-0.5-0.5-0.14062 0-0.48438 0.078125-0.48438 0.53125 0 0.85938 0.6875 1.8281 1.7969 1.8281 1.1562 0 2.1719-0.95312 2.1719-2.2188z"/>
</symbol>
<symbol id="e" overflow="visible">
<path d="m4.6875-1.6406v-0.3125h-0.98438v-4.5312c0-0.20312 0-0.26562-0.17188-0.26562-0.078125 0-0.10938 0-0.1875 0.125l-3.0625 4.6719v0.3125h2.6562v0.85938c0 0.35938-0.03125 0.46875-0.76562 0.46875h-0.20312v0.3125c0.40625-0.03125 0.92188-0.03125 1.3438-0.03125s0.9375 0 1.3594 0.03125v-0.3125h-0.21875c-0.73438 0-0.75-0.10938-0.75-0.46875v-0.85938zm-1.7031-0.3125h-2.4219l2.4219-3.7188z"/>
</symbol>
<symbol id="t" overflow="visible">
<path d="m4.5625-2.0312c0-1.2656-0.89062-2.2188-2-2.2188-0.67188 0-1.0469 0.5-1.25 0.98438v-0.25c0-2.5156 1.2344-2.875 1.75-2.875 0.23438 0 0.65625 0.0625 0.875 0.40625-0.15625 0-0.54688 0-0.54688 0.4375 0 0.3125 0.23438 0.46875 0.45312 0.46875 0.15625 0 0.46875-0.09375 0.46875-0.48438 0-0.59375-0.4375-1.0781-1.2656-1.0781-1.2812 0-2.625 1.2812-2.625 3.4844 0 2.6719 1.1562 3.375 2.0781 3.375 1.1094 0 2.0625-0.9375 2.0625-2.25zm-0.90625-0.015625c0 0.48438 0 0.98438-0.17188 1.3438-0.29688 0.59375-0.75 0.64062-0.98438 0.64062-0.625 0-0.92188-0.59375-0.98438-0.75-0.1875-0.46875-0.1875-1.2656-0.1875-1.4375 0-0.78125 0.32812-1.7812 1.2188-1.7812 0.17188 0 0.625 0 0.9375 0.625 0.17188 0.35938 0.17188 0.875 0.17188 1.3594z"/>
</symbol>
<symbol id="s" overflow="visible">
<path d="m4.4688-1.7344h-0.23438c-0.0625 0.29688-0.125 0.73438-0.23438 0.89062-0.0625 0.078125-0.71875 0.078125-0.9375 0.078125h-1.7969l1.0625-1.0312c1.5469-1.375 2.1406-1.9062 2.1406-2.9062 0-1.1406-0.89062-1.9375-2.1094-1.9375-1.125 0-1.8594 0.92188-1.8594 1.8125 0 0.54688 0.5 0.54688 0.53125 0.54688 0.17188 0 0.51562-0.10938 0.51562-0.53125 0-0.25-0.1875-0.51562-0.53125-0.51562-0.078125 0-0.09375 0-0.125 0.015625 0.21875-0.65625 0.76562-1.0156 1.3438-1.0156 0.90625 0 1.3281 0.8125 1.3281 1.625 0 0.79688-0.48438 1.5781-1.0469 2.2031l-1.9062 2.125c-0.10938 0.10938-0.10938 0.14062-0.10938 0.375h3.7031z"/>
</symbol>
<symbol id="b" overflow="visible">
<path d="m4.5781-3.1875c0-0.79688-0.046875-1.5938-0.39062-2.3281-0.45312-0.96875-1.2812-1.125-1.6875-1.125-0.60938 0-1.3281 0.26562-1.75 1.1875-0.3125 0.6875-0.35938 1.4688-0.35938 2.2656 0 0.75 0.03125 1.6406 0.45312 2.4062 0.42188 0.79688 1.1562 1 1.6406 1 0.53125 0 1.2969-0.20312 1.7344-1.1562 0.3125-0.6875 0.35938-1.4688 0.35938-2.25zm-0.8125-0.125c0 0.75 0 1.4219-0.10938 2.0625-0.15625 0.95312-0.71875 1.25-1.1719 1.25-0.39062 0-0.98438-0.25-1.1562-1.2031-0.10938-0.59375-0.10938-1.5156-0.10938-2.1094 0-0.64062 0-1.2969 0.078125-1.8281 0.1875-1.1875 0.9375-1.2812 1.1875-1.2812 0.32812 0 0.98438 0.1875 1.1719 1.1719 0.10938 0.5625 0.10938 1.3125 0.10938 1.9375z"/>
</symbol>
<symbol id="r" overflow="visible">
<path d="m4.1719 0v-0.3125h-0.3125c-0.90625 0-0.92188-0.10938-0.92188-0.46875v-5.5938c0-0.25 0-0.26562-0.23438-0.26562-0.625 0.64062-1.5 0.64062-1.8125 0.64062v0.3125c0.20312 0 0.78125 0 1.2969-0.26562v5.1719c0 0.35938-0.03125 0.46875-0.92188 0.46875h-0.3125v0.3125c0.34375-0.03125 1.2031-0.03125 1.6094-0.03125 0.39062 0 1.2656 0 1.6094 0.03125z"/>
</symbol>
<symbol id="q" overflow="visible">
<path d="m7.3438 0v-0.3125c-0.54688 0-0.75-0.03125-1.0469-0.46875l-2.3125-3.3906 1.7969-1.7344c0.078125-0.078125 0.60938-0.57812 1.4219-0.59375v-0.3125c-0.26562 0.03125-0.57812 0.03125-0.85938 0.03125-0.35938 0-0.92188 0-1.2656-0.03125v0.3125c0.40625 0.015625 0.46875 0.23438 0.46875 0.32812 0 0.15625-0.10938 0.26562-0.1875 0.32812l-3.1094 2.9844v-3.1719c0-0.35938 0.015625-0.46875 0.78125-0.46875h0.23438v-0.3125c-0.34375 0.03125-1.0781 0.03125-1.4688 0.03125-0.375 0-1.125 0-1.4688-0.03125v0.3125h0.23438c0.76562 0 0.79688 0.10938 0.79688 0.46875v5.25c0 0.35938-0.03125 0.46875-0.79688 0.46875h-0.23438v0.3125c0.34375-0.03125 1.0938-0.03125 1.4688-0.03125s1.125 0 1.4688 0.03125v-0.3125h-0.23438c-0.76562 0-0.78125-0.10938-0.78125-0.46875v-1.7344l1.1562-1.1094 1.7969 2.6719c0.0625 0.09375 0.15625 0.21875 0.15625 0.34375 0 0.29688-0.39062 0.29688-0.59375 0.29688v0.3125c0.34375-0.03125 1.0469-0.03125 1.4219-0.03125z"/>
</symbol>
<symbol id="d" overflow="visible">
<path d="m2.0312-0.015625c0-0.65625-0.25-1.0469-0.64062-1.0469-0.32812 0-0.53125 0.25-0.53125 0.53125 0 0.26562 0.20312 0.53125 0.53125 0.53125 0.10938 0 0.25-0.046875 0.34375-0.125 0.03125-0.03125 0.046875-0.03125 0.046875-0.03125s0.015625 0 0.015625 0.14062c0 0.75-0.34375 1.3438-0.67188 1.6719-0.10938 0.10938-0.10938 0.125-0.10938 0.15625 0 0.078125 0.046875 0.10938 0.09375 0.10938 0.10938 0 0.92188-0.76562 0.92188-1.9375z"/>
</symbol>
<symbol id="p" overflow="visible">
<path d="m4.4219-7.2812c0-0.10938-0.078125-0.20312-0.1875-0.20312-0.078125 0-0.14062 0.03125-0.17188 0.09375l-3.4688 9.5c-0.046875 0.14062-0.046875 0.1875-0.046875 0.1875 0 0.10938 0.09375 0.20312 0.20312 0.20312 0.125 0 0.15625-0.078125 0.21875-0.25l3.4062-9.3438c0.046875-0.14062 0.046875-0.1875 0.046875-0.1875z"/>
</symbol>
<symbol id="o" overflow="visible">
<path d="m6.7344-4.7344 0.26562-1.7344c0.015625-0.046875 0.015625-0.14062 0.015625-0.17188 0-0.10938-0.09375-0.10938-0.26562-0.10938h-5.5312c-0.23438 0-0.25 0.015625-0.32812 0.20312l-0.59375 1.75c0 0.015625-0.0625 0.1875-0.0625 0.1875 0 0.046875 0.0625 0.10938 0.125 0.10938 0.09375 0 0.10938-0.0625 0.17188-0.21875 0.53125-1.5469 0.79688-1.7188 2.2656-1.7188h0.39062c0.28125 0 0.28125 0.03125 0.28125 0.125 0 0.046875-0.03125 0.17188-0.046875 0.20312l-1.3281 5.3281c-0.09375 0.35938-0.125 0.46875-1.1875 0.46875-0.35938 0-0.42188 0-0.42188 0.1875 0 0.125 0.10938 0.125 0.17188 0.125 0.26562 0 0.54688-0.015625 0.8125-0.015625l0.85938-0.015625 0.82812 0.015625c0.28125 0 0.57812 0.015625 0.85938 0.015625 0.09375 0 0.21875 0 0.21875-0.20312 0-0.10938-0.078125-0.10938-0.34375-0.10938-0.23438 0-0.375 0-0.625-0.015625-0.29688-0.03125-0.375-0.0625-0.375-0.21875 0 0 0-0.0625 0.046875-0.20312l1.3125-5.2969c0.078125-0.28125 0.10938-0.34375 0.23438-0.375 0.09375-0.015625 0.42188-0.015625 0.625-0.015625 1.0156 0 1.4531 0.03125 1.4531 0.8125 0 0.15625-0.03125 0.54688-0.078125 0.79688 0 0.046875-0.03125 0.15625-0.03125 0.1875 0 0.0625 0.03125 0.14062 0.125 0.14062 0.10938 0 0.125-0.078125 0.15625-0.23438z"/>
</symbol>
<symbol id="c" overflow="visible">
<path d="m6.9219-2.5c0-0.1875-0.1875-0.1875-0.32812-0.1875h-5.4375c-0.14062 0-0.32812 0-0.32812 0.1875 0 0.20312 0.1875 0.20312 0.32812 0.20312h5.4375c0.14062 0 0.32812 0 0.32812-0.20312z"/>
</symbol>
<symbol id="n" overflow="visible">
<path d="m0-2.5469h-0.3125c0 0.67188 0 0.78125-0.4375 0.78125h-6.1719l0.10938 1.4375h0.3125c0-0.70312 0.0625-0.78125 0.5625-0.78125h5.1875c0.4375 0 0.4375 0.10938 0.4375 0.78125h0.3125l-0.03125-1.1094z"/>
</symbol>
<symbol id="m" overflow="visible">
<path d="m0-5.3281h-0.3125c0 0.51562 0 0.76562-0.29688 0.76562h-1.9062c-0.85938 0-1.1562 0-1.5156 0.3125-0.17188 0.14062-0.375 0.46875-0.375 1.0469 0 0.73438 0.42188 1.2031 1.0469 1.4844h-1.0469l0.10938 1.4062h0.3125c0-0.70312 0.0625-0.78125 0.5625-0.78125h2.6719c0.4375 0 0.4375 0.10938 0.4375 0.78125h0.3125l-0.03125-1.1406 0.03125-1.1094h-0.3125c0 0.67188 0 0.78125-0.4375 0.78125h-1.8438c-1.0312 0-1.5938-0.71875-1.5938-1.3438 0-0.64062 0.53125-0.75 1.1094-0.75h2.3281c0.4375 0 0.4375 0.10938 0.4375 0.78125h0.3125l-0.03125-1.125z"/>
</symbol>
<symbol id="l" overflow="visible">
<path d="m2.3906-3.2969c-0.03125 0-0.046875 0-0.21875 0.17188-1.25 1.2344-3.1406 1.5625-4.6719 1.5625-1.7344 0-3.4688-0.375-4.7031-1.6094-0.125-0.125-0.14062-0.125-0.17188-0.125-0.078125 0-0.10938 0.03125-0.10938 0.09375 0 0.10938 0.6875 1 1.9531 1.5938 1.0938 0.5 2.2031 0.625 3.0312 0.625 0.78125 0 1.9844-0.10938 3.125-0.65625 1.2188-0.60938 1.875-1.4531 1.875-1.5625 0-0.0625-0.03125-0.09375-0.10938-0.09375z"/>
</symbol>
<symbol id="k" overflow="visible">
<path d="m-0.89062-4.8125h-0.5625v0.25h0.5625c0.57812 0 0.64062 0.25 0.64062 0.35938 0 0.32812-0.45312 0.35938-0.5 0.35938h-1.9844c-0.42188 0-0.8125 0-1.1875 0.35938-0.39062 0.39062-0.54688 0.89062-0.54688 1.375 0 0.8125 0.46875 1.5 1.125 1.5 0.29688 0 0.46875-0.20312 0.46875-0.45312 0-0.28125-0.20312-0.46875-0.45312-0.46875-0.125 0-0.45312 0.0625-0.45312 0.51562-0.35938-0.26562-0.46875-0.76562-0.46875-1.0781 0-0.48438 0.39062-1.0625 1.2812-1.0625h0.35938c0.03125 0.51562 0.0625 1.2188 0.35938 1.8438 0.34375 0.75 0.85938 1 1.2969 1 0.8125 0 1.0625-0.96875 1.0625-1.5938 0-0.67188-0.40625-1.125-0.85938-1.3125 0.39062-0.046875 0.8125-0.3125 0.8125-0.78125 0-0.20312-0.14062-0.8125-0.95312-0.8125zm-0.5 1.6562c0.9375 0 1.2812 0.71875 1.2812 1.1719 0 0.48438-0.34375 0.89062-0.84375 0.89062-0.54688 0-1.375-0.40625-1.4375-2.0625z"/>
</symbol>
<symbol id="j" overflow="visible">
<path d="m-1.2344-3.3125h-0.5625v0.25h0.54688c0.73438 0 1.1094 0.29688 1.1094 0.67188 0 0.67188-0.90625 0.67188-1.0781 0.67188h-2.7656v-1.4375h-0.3125v1.4375h-1.8281v0.25c0.8125 0 1.875 0.29688 1.9219 1.2812h0.21875v-0.84375h2.75c1.2188 0 1.3438-0.9375 1.3438-1.2969 0-0.70312-0.70312-0.98438-1.3438-0.98438z"/>
</symbol>
<symbol id="i" overflow="visible">
<path d="m0-8.1094h-0.3125c0 0.51562 0 0.76562-0.29688 0.78125h-1.9062c-0.85938 0-1.1562 0-1.5156 0.3125-0.17188 0.14062-0.375 0.46875-0.375 1.0469 0 0.82812 0.59375 1.2812 0.98438 1.4375-0.875 0.14062-0.98438 0.875-0.98438 1.3281 0 0.73438 0.42188 1.2031 1.0469 1.4844h-1.0469l0.10938 1.4062h0.3125c0-0.70312 0.0625-0.78125 0.5625-0.78125h2.6719c0.4375 0 0.4375 0.10938 0.4375 0.78125h0.3125l-0.03125-1.1406 0.03125-1.1094h-0.3125c0 0.67188 0 0.78125-0.4375 0.78125h-1.8438c-1.0312 0-1.5938-0.71875-1.5938-1.3438 0-0.64062 0.53125-0.75 1.1094-0.75h2.3281c0.4375 0 0.4375 0.10938 0.4375 0.78125h0.3125l-0.03125-1.125 0.03125-1.1094h-0.3125c0 0.65625 0 0.76562-0.4375 0.76562h-1.8438c-1.0312 0-1.5938-0.70312-1.5938-1.3438 0-0.625 0.53125-0.73438 1.1094-0.73438h2.3281c0.4375 0 0.4375 0.10938 0.4375 0.78125h0.3125l-0.03125-1.125z"/>
</symbol>
<symbol id="h" overflow="visible">
<path d="m-2.5-2.875c-0.76562 0-1.9688 0.10938-3.1094 0.65625-1.2188 0.59375-1.875 1.4531-1.875 1.5469 0 0.0625 0.046875 0.10938 0.10938 0.10938 0.03125 0 0.046875 0 0.23438-0.1875 0.98438-0.98438 2.5625-1.5469 4.6406-1.5469 1.7188 0 3.4688 0.35938 4.7188 1.5938 0.125 0.14062 0.14062 0.14062 0.17188 0.14062 0.0625 0 0.10938-0.046875 0.10938-0.10938 0-0.09375-0.6875-1-1.9531-1.5781-1.0938-0.51562-2.2031-0.625-3.0469-0.625z"/>
</symbol>
<symbol id="g" overflow="visible">
<path d="m-5.2969-7.5156c-0.78125 0-1.5156 0.65625-1.5156 1.9688v3.2188c0 0.1875 0 0.29688 0.1875 0.29688 0.125 0 0.125-0.078125 0.125-0.28125 0-0.125 0.015625-0.3125 0.015625-0.42188 0.03125-0.17188 0.046875-0.21875 0.17188-0.21875 0.03125 0 0.0625 0 0.1875 0.03125l5.3438 1.3438c0.39062 0.09375 0.46875 0.10938 0.46875 0.90625 0 0.15625 0 0.26562 0.1875 0.26562 0.125 0 0.125-0.10938 0.125-0.14062l-0.03125-1.2656 0.015625-0.64062c0-0.21875 0.015625-0.4375 0.015625-0.64062 0-0.078125 0-0.20312-0.20312-0.20312-0.10938 0-0.10938 0.09375-0.10938 0.28125 0 0.35938 0 0.64062-0.17188 0.64062-0.0625 0-0.10938-0.015625-0.17188-0.03125l-2.5-0.60938v-1.7031c0-1.4062-1.0312-2.7969-2.1406-2.7969zm-0.25 0.92188c0.39062 0 1.25 0.20312 1.6094 0.59375 0.45312 0.5 0.53125 1.0938 0.53125 1.5312v1.4062l-2.7188-0.67188c-0.34375-0.09375-0.375-0.10938-0.375-0.54688v-0.95312c0-0.82812 0.26562-1.3594 0.95312-1.3594z"/>
</symbol>
<symbol id="f" overflow="visible">
<path d="m-7.2812-4.4219c-0.10938 0-0.20312 0.078125-0.20312 0.1875 0 0.078125 0.03125 0.14062 0.09375 0.17188l9.5 3.4688c0.14062 0.046875 0.1875 0.046875 0.1875 0.046875 0.10938 0 0.20312-0.09375 0.20312-0.20312 0-0.125-0.078125-0.15625-0.25-0.21875l-9.3438-3.4062c-0.14062-0.046875-0.1875-0.046875-0.1875-0.046875z"/>
</symbol>
<clipPath id="v">
<path d="m33.664 0.54297h194.27v161.4h-194.27z"/>
</clipPath>
</defs>
<path transform="matrix(1 0 0 -1 33.664 148.49)" d="m24.285-13.452v161.4m48.566-161.4v161.4m48.57-161.4v161.4m48.566-161.4v161.4" fill="none" stroke="#bfbfbf" stroke-miterlimit="10" stroke-width=".3985"/>
<path transform="matrix(1 0 0 -1 33.664 148.49)" d="m6.25e-5 -13.452v161.4m48.566-161.4v161.4m48.57-161.4v161.4m48.566-161.4v161.4m48.57-161.4v161.4" fill="none" stroke="#bfbfbf" stroke-miterlimit="10" stroke-width=".3985"/>
<path transform="matrix(1 0 0 -1 33.664 148.49)" d="m6.25e-5 24.544h194.27m-194.27 40.047h194.27m-194.27 40.043h194.27m-194.27 40.047h194.27" fill="none" stroke="#bfbfbf" stroke-miterlimit="10" stroke-width=".3985"/>
<path transform="matrix(1 0 0 -1 33.664 148.49)" d="m6.25e-5 4.5242h194.27m-194.27 40.043h194.27m-194.27 40.047h194.27m-194.27 40.043h194.27" fill="none" stroke="#bfbfbf" stroke-miterlimit="10" stroke-width=".3985"/>
<path transform="matrix(1 0 0 -1 33.664 148.49)" d="m24.285-13.452v2.8359m48.566-2.8359v2.8359m48.57-2.8359v2.8359m48.566-2.8359v2.8359m-145.7 158.57v-2.8359m48.566 2.8359v-2.8359m48.57 2.8359v-2.8359m48.566 2.8359v-2.8359" fill="none" stroke="#7f7f7f" stroke-miterlimit="10" stroke-width=".19925"/>
<path transform="matrix(1 0 0 -1 33.664 148.49)" d="m6.25e-5 -13.452v4.2539m48.566-4.2539v4.2539m48.57-4.2539v4.2539m48.566-4.2539v4.2539m48.57-4.2539v4.2539m-194.27 157.15v-4.2539m48.566 4.2539v-4.2539m48.57 4.2539v-4.2539m48.566 4.2539v-4.2539m48.57 4.2539v-4.2539" fill="none" stroke="#7f7f7f" stroke-miterlimit="10" stroke-width=".19925"/>
<path transform="matrix(1 0 0 -1 33.664 148.49)" d="m6.25e-5 24.544h2.8359m-2.8359 40.047h2.8359m-2.8359 40.043h2.8359m-2.8359 40.047h2.8359m191.44-120.14h-2.8359m2.8359 40.047h-2.8359m2.8359 40.043h-2.8359m2.8359 40.047h-2.8359" fill="none" stroke="#7f7f7f" stroke-miterlimit="10" stroke-width=".19925"/>
<path transform="matrix(1 0 0 -1 33.664 148.49)" d="m6.25e-5 4.5242h4.25m-4.25 40.043h4.25m-4.25 40.047h4.25m-4.25 40.043h4.25m190.02-120.13h-4.2539m4.2539 40.043h-4.2539m4.2539 40.047h-4.2539m4.2539 40.043h-4.2539" fill="none" stroke="#7f7f7f" stroke-miterlimit="10" stroke-width=".19925"/>
<path transform="matrix(1 0 0 -1 33.664 148.49)" d="m6.25e-5 -13.452v161.4h194.27v-161.4z" fill="none" stroke="#000" stroke-miterlimit="10" stroke-width=".3985"/>
<g>
<use x="27.299" y="171.737" xlink:href="#u"/>
<use x="32.28" y="171.737" xlink:href="#d"/>
<use x="35.047" y="171.737" xlink:href="#a"/>
<use x="79.74" y="171.737" xlink:href="#e"/>
<use x="124.434" y="171.737" xlink:href="#e"/>
<use x="129.415" y="171.737" xlink:href="#d"/>
<use x="132.182" y="171.737" xlink:href="#a"/>
<use x="176.875" y="171.737" xlink:href="#a"/>
<use x="221.568" y="171.737" xlink:href="#a"/>
<use x="226.55" y="171.737" xlink:href="#d"/>
<use x="229.317" y="171.737" xlink:href="#a"/>
<use x="17.414" y="146.692" xlink:href="#c"/>
<use x="25.163" y="146.692" xlink:href="#t"/>
<use x="17.414" y="106.648" xlink:href="#c"/>
<use x="25.163" y="106.648" xlink:href="#e"/>
<use x="17.414" y="66.603" xlink:href="#c"/>
<use x="25.163" y="66.603" xlink:href="#s"/>
<use x="25.163" y="26.974" xlink:href="#b"/>
</g>
<g clip-path="url(#v)">
<path transform="matrix(1 0 0 -1 33.664 148.49)" d="m6.25e-5 134.5 2.6094-1.8047 1.3008-0.90234 3.9141-2.707 1.3008-0.90234 5.2188-3.6094 1.3008-0.90625 3.9141-2.707 1.3008-0.90234 5.2188-3.6094 1.3008-0.90234 1.3047-0.90234 1.3047-0.90625 1.3047-0.90234 1.3008-0.90234 5.2188-3.6094 1.3008-0.90234 5.2188-3.6094 1.3008-0.90625 3.9141-2.707 1.3008-0.90234 5.2188-3.6094 1.3008-0.90234 2.6094-1.8047 1.3047-0.90625 1.3008-0.90234 5.2188-3.6094 1.3008-0.90234 3.9141-2.707 1.3008-0.90234 1.3047-0.90234 1.3047-0.90625 2.6094-1.8047 1.3008-0.90234 3.9141-2.707 1.3008-0.90234 3.9141-2.707 1.3047-0.90625 1.3008-0.90234 3.9141-2.707 1.3008-0.90234 5.2188-3.6094 1.3008-0.90234 1.3047-0.90234 1.3047-0.90625 2.6094-1.8047 1.3008-0.90234 3.9141-2.707 1.3008-0.90234 5.2188-3.6094 1.3008-0.90625 3.9141-2.707 1.3008-0.90234 5.2188-3.6094 1.3008-0.90234 2.6094-1.8047 1.3047-0.90625 1.3008-0.90234 5.2188-3.6094 1.3008-0.90234 3.9141-2.707 1.3008-0.90234 1.3047-0.90625 3.9141-2.707 1.3008-0.90234 3.9141-2.707 1.3008-0.90234 3.9141-2.707 1.3047-0.90625 1.3008-0.90234 3.9141-2.707 1.3008-0.90234 5.2188-3.6094 1.3008-0.90234 1.3047-0.90234 1.3047-0.90625 2.6094-1.8047 1.3008-0.90234 3.9141-2.707 1.3008-0.90234 1.3047-0.90234" fill="none" stroke="#0c6dfd" stroke-miterlimit="10" stroke-width="1.1955"/>
</g>
<g>
<use x="110.038" y="187.987" xlink:href="#r"/>
<use x="115.0193" y="187.987" xlink:href="#b"/>
<use x="120.0006" y="187.987" xlink:href="#b"/>
<use x="124.9819" y="187.987" xlink:href="#b"/>
<use x="131.626954" y="187.987" xlink:href="#q"/>
<use x="139.372" y="187.987" xlink:href="#p"/>
<use x="144.3533" y="187.987" xlink:href="#o"/>
<use x="8.083" y="104.026" xlink:href="#n"/>
<use x="8.083" y="101.25839" xlink:href="#m"/>
<use x="8.083" y="95.653431" xlink:href="#l"/>
<use x="8.083" y="91.777" xlink:href="#g"/>
<use x="8.083" y="84.554115" xlink:href="#f"/>
<use x="8.083" y="79.57" xlink:href="#k"/>
<use x="8.083" y="74.5887" xlink:href="#j"/>
<use x="8.083" y="70.714245" xlink:href="#i"/>
<use x="8.083" y="62.342672" xlink:href="#h"/>
</g>
</svg>
