<?xml version="1.0" encoding="UTF-8"?>
<svg width="234pt" height="194pt" version="1.1" viewBox="0 0 234 194" xmlns="http://www.w3.org/2000/svg" xmlns:xlink="http://www.w3.org/1999/xlink">
<defs>
<symbol id="e" overflow="visible">
<path d="m4.5781-3.1875c0-0.79688-0.046875-1.5938-0.39062-2.3281-0.45312-0.96875-1.2812-1.125-1.6875-1.125-0.60938 0-1.3281 0.26562-1.75 1.1875-0.3125 0.6875-0.35938 1.4688-0.35938 2.2656 0 0.75 0.03125 1.6406 0.45312 2.4062 0.42188 0.79688 1.1562 1 1.6406 1 0.53125 0 1.2969-0.20312 1.7344-1.1562 0.3125-0.6875 0.35938-1.4688 0.35938-2.25zm-0.8125-0.125c0 0.75 0 1.4219-0.10938 2.0625-0.15625 0.95312-0.71875 1.25-1.1719 1.25-0.39062 0-0.98438-0.25-1.1562-1.2031-0.10938-0.59375-0.10938-1.5156-0.10938-2.1094 0-0.64062 0-1.2969 0.078125-1.8281 0.1875-1.1875 0.9375-1.2812 1.1875-1.2812 0.32812 0 0.98438 0.1875 1.1719 1.1719 0.10938 0.5625 0.10938 1.3125 0.10938 1.9375z"/>
</symbol>
<symbol id="j" overflow="visible">
<path d="m4.4688-2c0-1.1875-0.8125-2.1875-1.8906-2.1875-0.46875 0-0.90625 0.15625-1.2656 0.51562v-1.9531c0.20312 0.0625 0.53125 0.125 0.84375 0.125 1.2344 0 1.9375-0.90625 1.9375-1.0312 0-0.0625-0.03125-0.10938-0.10938-0.10938 0 0-0.03125 0-0.078125 0.03125-0.20312 0.09375-0.6875 0.29688-1.3594 0.29688-0.39062 0-0.85938-0.078125-1.3281-0.28125-0.078125-0.03125-0.10938-0.03125-0.10938-0.03125-0.10938 0-0.10938 0.078125-0.10938 0.23438v2.9531c0 0.17188 0 0.25 0.14062 0.25 0.078125 0 0.09375-0.015625 0.14062-0.078125 0.10938-0.15625 0.46875-0.70312 1.2812-0.70312 0.51562 0 0.76562 0.45312 0.84375 0.64062 0.15625 0.375 0.1875 0.75 0.1875 1.25 0 0.35938 0 0.95312-0.25 1.375-0.23438 0.39062-0.60938 0.64062-1.0625 0.64062-0.71875 0-1.2969-0.53125-1.4688-1.1094 0.03125 0 0.0625 0.015625 0.17188 0.015625 0.32812 0 0.5-0.25 0.5-0.48438 0-0.25-0.17188-0.5-0.5-0.5-0.14062 0-0.48438 0.078125-0.48438 0.53125 0 0.85938 0.6875 1.8281 1.7969 1.8281 1.1562 0 2.1719-0.95312 2.1719-2.2188z"/>
</symbol>
<symbol id="a" overflow="visible">
<path d="m4.1719 0v-0.3125h-0.3125c-0.90625 0-0.92188-0.10938-0.92188-0.46875v-5.5938c0-0.25 0-0.26562-0.23438-0.26562-0.625 0.64062-1.5 0.64062-1.8125 0.64062v0.3125c0.20312 0 0.78125 0 1.2969-0.26562v5.1719c0 0.35938-0.03125 0.46875-0.92188 0.46875h-0.3125v0.3125c0.34375-0.03125 1.2031-0.03125 1.6094-0.03125 0.39062 0 1.2656 0 1.6094 0.03125z"/>
</symbol>
<symbol id="c" overflow="visible">
<path d="m4.4688-1.7344h-0.23438c-0.0625 0.29688-0.125 0.73438-0.23438 0.89062-0.0625 0.078125-0.71875 0.078125-0.9375 0.078125h-1.7969l1.0625-1.0312c1.5469-1.375 2.1406-1.9062 2.1406-2.9062 0-1.1406-0.89062-1.9375-2.1094-1.9375-1.125 0-1.8594 0.92188-1.8594 1.8125 0 0.54688 0.5 0.54688 0.53125 0.54688 0.17188 0 0.51562-0.10938 0.51562-0.53125 0-0.25-0.1875-0.51562-0.53125-0.51562-0.078125 0-0.09375 0-0.125 0.015625 0.21875-0.65625 0.76562-1.0156 1.3438-1.0156 0.90625 0 1.3281 0.8125 1.3281 1.625 0 0.79688-0.48438 1.5781-1.0469 2.2031l-1.9062 2.125c-0.10938 0.10938-0.10938 0.14062-0.10938 0.375h3.7031z"/>
</symbol>
<symbol id="av" overflow="visible">
<path d="m4.6875-1.6406v-0.3125h-0.98438v-4.5312c0-0.20312 0-0.26562-0.17188-0.26562-0.078125 0-0.10938 0-0.1875 0.125l-3.0625 4.6719v0.3125h2.6562v0.85938c0 0.35938-0.03125 0.46875-0.76562 0.46875h-0.20312v0.3125c0.40625-0.03125 0.92188-0.03125 1.3438-0.03125s0.9375 0 1.3594 0.03125v-0.3125h-0.21875c-0.73438 0-0.75-0.10938-0.75-0.46875v-0.85938zm-1.7031-0.3125h-2.4219l2.4219-3.7188z"/>
</symbol>
<symbol id="au" overflow="visible">
<path d="m4.5625-2.0312c0-1.2656-0.89062-2.2188-2-2.2188-0.67188 0-1.0469 0.5-1.25 0.98438v-0.25c0-2.5156 1.2344-2.875 1.75-2.875 0.23438 0 0.65625 0.0625 0.875 0.40625-0.15625 0-0.54688 0-0.54688 0.4375 0 0.3125 0.23438 0.46875 0.45312 0.46875 0.15625 0 0.46875-0.09375 0.46875-0.48438 0-0.59375-0.4375-1.0781-1.2656-1.0781-1.2812 0-2.625 1.2812-2.625 3.4844 0 2.6719 1.1562 3.375 2.0781 3.375 1.1094 0 2.0625-0.9375 2.0625-2.25zm-0.90625-0.015625c0 0.48438 0 0.98438-0.17188 1.3438-0.29688 0.59375-0.75 0.64062-0.98438 0.64062-0.625 0-0.92188-0.59375-0.98438-0.75-0.1875-0.46875-0.1875-1.2656-0.1875-1.4375 0-0.78125 0.32812-1.7812 1.2188-1.7812 0.17188 0 0.625 0 0.9375 0.625 0.17188 0.35938 0.17188 0.875 0.17188 1.3594z"/>
</symbol>
<symbol id="at" overflow="visible">
<path d="m4.5625-1.6719c0-0.35938-0.10938-0.8125-0.5-1.2344-0.1875-0.20312-0.34375-0.29688-0.98438-0.70312 0.71875-0.375 1.2031-0.89062 1.2031-1.5469 0-0.92188-0.875-1.4844-1.7812-1.4844-1 0-1.8125 0.73438-1.8125 1.6719 0 0.17188 0.015625 0.625 0.4375 1.0938 0.10938 0.10938 0.48438 0.35938 0.73438 0.53125-0.57812 0.29688-1.4375 0.84375-1.4375 1.8438 0 1.0469 1.0156 1.7188 2.0625 1.7188 1.125 0 2.0781-0.82812 2.0781-1.8906zm-0.71875-3.4844c0 0.57812-0.39062 1.0469-0.98438 1.3906l-1.2344-0.79688c-0.45312-0.29688-0.5-0.625-0.5-0.79688 0-0.60938 0.65625-1.0312 1.3594-1.0312 0.71875 0 1.3594 0.51562 1.3594 1.2344zm0.21875 3.8438c0 0.73438-0.75 1.25-1.5625 1.25-0.85938 0-1.5781-0.60938-1.5781-1.4375 0-0.57812 0.3125-1.2188 1.1562-1.6875l1.2344 0.78125c0.28125 0.1875 0.75 0.48438 0.75 1.0938z"/>
</symbol>
<symbol id="as" overflow="visible">
<path d="m8.1094 0v-0.3125c-0.51562 0-0.76562 0-0.78125-0.29688v-1.9062c0-0.85938 0-1.1562-0.3125-1.5156-0.14062-0.17188-0.46875-0.375-1.0469-0.375-0.82812 0-1.2812 0.59375-1.4375 0.98438-0.14062-0.875-0.875-0.98438-1.3281-0.98438-0.73438 0-1.2031 0.42188-1.4844 1.0469v-1.0469l-1.4062 0.10938v0.3125c0.70312 0 0.78125 0.0625 0.78125 0.5625v2.6719c0 0.4375-0.10938 0.4375-0.78125 0.4375v0.3125l1.1406-0.03125 1.1094 0.03125v-0.3125c-0.67188 0-0.78125 0-0.78125-0.4375v-1.8438c0-1.0312 0.71875-1.5938 1.3438-1.5938 0.64062 0 0.75 0.53125 0.75 1.1094v2.3281c0 0.4375-0.10938 0.4375-0.78125 0.4375v0.3125l1.125-0.03125 1.1094 0.03125v-0.3125c-0.65625 0-0.76562 0-0.76562-0.4375v-1.8438c0-1.0312 0.70312-1.5938 1.3438-1.5938 0.625 0 0.73438 0.53125 0.73438 1.1094v2.3281c0 0.4375-0.10938 0.4375-0.78125 0.4375v0.3125l1.125-0.03125z"/>
</symbol>
<symbol id="ar" overflow="visible">
<path d="m5.7969-2.5781h-0.25c-0.10938 1.0156-0.25 2.2656-2 2.2656h-0.8125c-0.46875 0-0.48438-0.0625-0.48438-0.39062v-5.3125c0-0.34375 0-0.48438 0.9375-0.48438h0.32812v-0.3125c-0.35938 0.03125-1.2656 0.03125-1.6719 0.03125-0.39062 0-1.1719 0-1.5156-0.03125v0.3125h0.23438c0.76562 0 0.79688 0.10938 0.79688 0.46875v5.25c0 0.35938-0.03125 0.46875-0.79688 0.46875h-0.23438v0.3125h5.1875z"/>
</symbol>
<symbol id="b" overflow="visible">
<path d="m2.0312-0.015625c0-0.65625-0.25-1.0469-0.64062-1.0469-0.32812 0-0.53125 0.25-0.53125 0.53125 0 0.26562 0.20312 0.53125 0.53125 0.53125 0.10938 0 0.25-0.046875 0.34375-0.125 0.03125-0.03125 0.046875-0.03125 0.046875-0.03125s0.015625 0 0.015625 0.14062c0 0.75-0.34375 1.3438-0.67188 1.6719-0.10938 0.10938-0.10938 0.125-0.10938 0.15625 0 0.078125 0.046875 0.10938 0.09375 0.10938 0.10938 0 0.92188-0.76562 0.92188-1.9375z"/>
</symbol>
<symbol id="aq" overflow="visible">
<path d="m7.6719-6.6875c0-0.078125-0.0625-0.125-0.14062-0.125-0.25 0-0.54688 0.03125-0.8125 0.03125-0.32812 0-0.67188-0.03125-0.98438-0.03125-0.0625 0-0.1875 0-0.1875 0.1875 0 0.10938 0.078125 0.125 0.15625 0.125 0.26562 0.015625 0.45312 0.125 0.45312 0.32812 0 0.15625-0.14062 0.375-0.14062 0.375l-3.0625 4.875-0.6875-5.2812c0-0.17188 0.23438-0.29688 0.6875-0.29688 0.14062 0 0.25 0 0.25-0.20312 0-0.078125-0.078125-0.10938-0.125-0.10938-0.40625 0-0.82812 0.03125-1.25 0.03125h-0.54688c-0.17188 0-0.35938-0.03125-0.53125-0.03125-0.078125 0-0.1875 0-0.1875 0.1875 0 0.125 0.078125 0.125 0.25 0.125 0.54688 0 0.5625 0.09375 0.59375 0.34375l0.78125 6.1406c0.03125 0.20312 0.078125 0.23438 0.20312 0.23438 0.15625 0 0.20312-0.046875 0.28125-0.17188l3.5938-5.7188c0.48438-0.78125 0.90625-0.8125 1.2656-0.82812 0.125-0.015625 0.14062-0.1875 0.14062-0.1875z"/>
</symbol>
<symbol id="ap" overflow="visible">
<path d="m4.4219-7.2812c0-0.10938-0.078125-0.20312-0.1875-0.20312-0.078125 0-0.14062 0.03125-0.17188 0.09375l-3.4688 9.5c-0.046875 0.14062-0.046875 0.1875-0.046875 0.1875 0 0.10938 0.09375 0.20312 0.20312 0.20312 0.125 0 0.15625-0.078125 0.21875-0.25l3.4062-9.3438c0.046875-0.14062 0.046875-0.1875 0.046875-0.1875z"/>
</symbol>
<symbol id="ao" overflow="visible">
<path d="m7.2812-6.5v-0.3125c-0.3125 0.03125-0.71875 0.03125-0.96875 0.03125l-1.1406-0.03125v0.3125c0.51562 0.015625 0.73438 0.26562 0.73438 0.5 0 0.078125-0.03125 0.14062-0.046875 0.20312l-1.8281 4.7969-1.9062-5.0312c-0.0625-0.14062-0.0625-0.17188-0.0625-0.17188 0-0.29688 0.5625-0.29688 0.8125-0.29688v-0.3125c-0.35938 0.03125-1.0469 0.03125-1.4219 0.03125l-1.2656-0.03125v0.3125c0.65625 0 0.84375 0 0.98438 0.375l2.3125 6.125c0.0625 0.1875 0.10938 0.21875 0.25 0.21875 0.15625 0 0.1875-0.046875 0.23438-0.1875l2.2188-5.8594c0.14062-0.375 0.40625-0.65625 1.0938-0.67188z"/>
</symbol>
<symbol id="ak" overflow="visible">
<path d="m4.6875-2.1406c0-1.2656-0.98438-2.3281-2.1875-2.3281-1.25 0-2.2188 1.0938-2.2188 2.3281 0 1.2969 1.0312 2.25 2.2031 2.25 1.2031 0 2.2031-0.98438 2.2031-2.25zm-0.8125-0.078125c0 0.35938 0 0.90625-0.21875 1.3438-0.23438 0.45312-0.67188 0.73438-1.1562 0.73438-0.4375 0-0.875-0.20312-1.1406-0.67188-0.25-0.4375-0.25-1.0469-0.25-1.4062 0-0.39062 0-0.92188 0.23438-1.3594 0.26562-0.45312 0.73438-0.67188 1.1406-0.67188 0.4375 0 0.85938 0.21875 1.125 0.65625 0.26562 0.42188 0.26562 1 0.26562 1.375z"/>
</symbol>
<symbol id="aj" overflow="visible">
<path d="m2.5469 0v-0.3125c-0.67188 0-0.78125 0-0.78125-0.4375v-6.1719l-1.4375 0.10938v0.3125c0.70312 0 0.78125 0.0625 0.78125 0.5625v5.1875c0 0.4375-0.10938 0.4375-0.78125 0.4375v0.3125l1.1094-0.03125z"/>
</symbol>
<symbol id="ai" overflow="visible">
<path d="m5.3281 0v-0.3125c-0.6875 0-0.76562-0.0625-0.76562-0.5625v-3.5312l-1.4688 0.10938v0.3125c0.6875 0 0.78125 0.0625 0.78125 0.5625v1.7656c0 0.875-0.48438 1.5469-1.2188 1.5469-0.82812 0-0.875-0.46875-0.875-0.98438v-3.3125l-1.4688 0.10938v0.3125c0.78125 0 0.78125 0.03125 0.78125 0.90625v1.5c0 0.78125 0 1.6875 1.5156 1.6875 0.5625 0 1-0.28125 1.2812-0.89062v0.89062z"/>
</symbol>
<symbol id="ah" overflow="visible">
<path d="m8.1094 0v-0.3125c-0.51562 0-0.76562 0-0.78125-0.29688v-1.9062c0-0.85938 0-1.1562-0.3125-1.5156-0.14062-0.17188-0.46875-0.375-1.0469-0.375-0.82812 0-1.2812 0.59375-1.4375 0.98438-0.14062-0.875-0.875-0.98438-1.3281-0.98438-0.73438 0-1.2031 0.42188-1.4844 1.0469v-1.0469l-1.4062 0.10938v0.3125c0.70312 0 0.78125 0.0625 0.78125 0.5625v2.6719c0 0.4375-0.10938 0.4375-0.78125 0.4375v0.3125l1.1406-0.03125 1.1094 0.03125v-0.3125c-0.67188 0-0.78125 0-0.78125-0.4375v-1.8438c0-1.0312 0.71875-1.5938 1.3438-1.5938 0.64062 0 0.75 0.53125 0.75 1.1094v2.3281c0 0.4375-0.10938 0.4375-0.78125 0.4375v0.3125l1.125-0.03125 1.1094 0.03125v-0.3125c-0.65625 0-0.76562 0-0.76562-0.4375v-1.8438c0-1.0312 0.70312-1.5938 1.3438-1.5938 0.625 0 0.73438 0.53125 0.73438 1.1094v2.3281c0 0.4375-0.10938 0.4375-0.78125 0.4375v0.3125l1.125-0.03125z"/>
</symbol>
<symbol id="h" overflow="visible">
<path d="m4.1406-1.1875c0-0.09375-0.078125-0.125-0.14062-0.125-0.078125 0-0.10938 0.0625-0.125 0.14062-0.34375 1.0312-1.25 1.0312-1.3438 1.0312-0.5 0-0.89062-0.29688-1.125-0.67188-0.29688-0.46875-0.29688-1.125-0.29688-1.4844h2.7812c0.21875 0 0.25 0 0.25-0.21875 0-0.98438-0.54688-1.9531-1.7812-1.9531-1.1562 0-2.0781 1.0312-2.0781 2.2812 0 1.3281 1.0469 2.2969 2.1875 2.2969 1.2188 0 1.6719-1.1094 1.6719-1.2969zm-0.65625-1.3281h-2.375c0.0625-1.4844 0.90625-1.7344 1.25-1.7344 1.0156 0 1.125 1.3438 1.125 1.7344z"/>
</symbol>
<symbol id="ag" overflow="visible">
<path d="m5.25 0v-0.3125c-0.6875 0-0.78125-0.0625-0.78125-0.5625v-6.0469l-1.4219 0.10938v0.3125c0.6875 0 0.76562 0.0625 0.76562 0.5625v2.1562c-0.28125-0.35938-0.71875-0.625-1.25-0.625-1.1719 0-2.2188 0.98438-2.2188 2.2656 0 1.2656 0.96875 2.25 2.1094 2.25 0.64062 0 1.0781-0.34375 1.3281-0.65625v0.65625zm-1.4688-1.1719c0 0.17188 0 0.1875-0.10938 0.35938-0.29688 0.48438-0.73438 0.70312-1.1719 0.70312-0.45312 0-0.8125-0.26562-1.0469-0.64062-0.25-0.40625-0.28125-0.96875-0.28125-1.3906 0-0.35938 0.015625-0.95312 0.29688-1.4062 0.21875-0.3125 0.59375-0.64062 1.1406-0.64062 0.34375 0 0.76562 0.15625 1.0625 0.59375 0.10938 0.17188 0.10938 0.1875 0.10938 0.375z"/>
</symbol>
<symbol id="af" overflow="visible">
<path d="m7.1406 0v-0.3125h-0.17188c-0.59375 0-0.73438-0.0625-0.84375-0.39062l-2.1562-6.2344c-0.046875-0.125-0.078125-0.20312-0.23438-0.20312s-0.1875 0.0625-0.23438 0.20312l-2.0625 5.9531c-0.1875 0.51562-0.57812 0.67188-1.125 0.67188v0.3125l1.0156-0.03125 1.1562 0.03125v-0.3125c-0.5 0-0.75-0.25-0.75-0.5 0-0.03125 0.015625-0.14062 0.015625-0.15625l0.46875-1.2969h2.4531l0.53125 1.5156c0.015625 0.046875 0.03125 0.10938 0.03125 0.14062 0 0.29688-0.5625 0.29688-0.82812 0.29688v0.3125c0.35938-0.03125 1.0625-0.03125 1.4375-0.03125zm-2.5781-2.5781h-2.2344l1.1094-3.25z"/>
</symbol>
<symbol id="ae" overflow="visible">
<path d="m4.8281-4.0312c0-0.17188-0.10938-0.48438-0.5-0.48438-0.20312 0-0.64062 0.0625-1.0625 0.46875-0.42188-0.32812-0.82812-0.35938-1.0469-0.35938-0.9375 0-1.625 0.6875-1.625 1.4531 0 0.4375 0.21875 0.8125 0.46875 1.0312-0.125 0.14062-0.3125 0.46875-0.3125 0.82812 0 0.3125 0.14062 0.6875 0.45312 0.89062-0.60938 0.15625-0.92188 0.59375-0.92188 0.98438 0 0.71875 0.98438 1.2656 2.2031 1.2656 1.1719 0 2.2031-0.5 2.2031-1.2812 0-0.34375-0.125-0.85938-0.64062-1.1406-0.53125-0.26562-1.1094-0.26562-1.7188-0.26562-0.25 0-0.67188 0-0.75-0.015625-0.3125-0.046875-0.51562-0.34375-0.51562-0.67188 0-0.03125 0-0.26562 0.15625-0.46875 0.39062 0.28125 0.8125 0.3125 1 0.3125 0.92188 0 1.6094-0.6875 1.6094-1.4531 0-0.375-0.15625-0.73438-0.40625-0.96875 0.35938-0.34375 0.71875-0.39062 0.89062-0.39062 0 0 0.078125 0 0.10938 0.015625-0.10938 0.03125-0.17188 0.14062-0.17188 0.26562 0 0.17188 0.14062 0.28125 0.29688 0.28125 0.09375 0 0.28125-0.0625 0.28125-0.29688zm-1.75 1.0781c0 0.26562 0 0.59375-0.15625 0.84375-0.078125 0.10938-0.3125 0.39062-0.70312 0.39062-0.875 0-0.875-1-0.875-1.2188 0-0.26562 0.015625-0.59375 0.15625-0.84375 0.078125-0.10938 0.3125-0.39062 0.71875-0.39062 0.85938 0 0.85938 0.98438 0.85938 1.2188zm1.0938 3.7344c0 0.54688-0.70312 1.0469-1.6719 1.0469-1.0156 0-1.7031-0.51562-1.7031-1.0469 0-0.45312 0.375-0.82812 0.8125-0.84375h0.59375c0.85938 0 1.9688 0 1.9688 0.84375z"/>
</symbol>
<symbol id="an" overflow="visible">
<path d="m7.1406-6.5v-0.3125l-1.1719 0.03125-1.1562-0.03125v0.3125c1.0156 0 1.0156 0.46875 1.0156 0.73438v4.2656l-3.5156-5.1719c-0.09375-0.125-0.09375-0.14062-0.28125-0.14062h-1.7031v0.3125h0.29688c0.14062 0 0.34375 0.015625 0.48438 0.015625 0.23438 0.03125 0.25 0.046875 0.25 0.23438v5.2031c0 0.26562 0 0.73438-1.0312 0.73438v0.3125l1.1719-0.03125 1.1562 0.03125v-0.3125c-1.0156 0-1.0156-0.46875-1.0156-0.73438v-5.1875c0.046875 0.046875 0.046875 0.0625 0.09375 0.125l4.0625 5.9844c0.09375 0.10938 0.10938 0.125 0.17188 0.125 0.14062 0 0.14062-0.0625 0.14062-0.26562v-5.5c0-0.26562 0-0.73438 1.0312-0.73438z"/>
</symbol>
<symbol id="am" overflow="visible">
<path d="m7.1875-3.375c0-2.0312-1.5-3.6562-3.3125-3.6562-1.7969 0-3.3125 1.5938-3.3125 3.6562 0 2.0469 1.5312 3.5938 3.3125 3.5938 1.8125 0 3.3125-1.5781 3.3125-3.5938zm-1.0312-0.14062c0 2.6406-1.3594 3.4688-2.2812 3.4688-0.95312 0-2.2969-0.875-2.2969-3.4688 0-2.5781 1.4688-3.2656 2.2969-3.2656 0.85938 0 2.2812 0.70312 2.2812 3.2656z"/>
</symbol>
<symbol id="al" overflow="visible">
<path d="m2.0312-0.015625c0-0.625-0.25-1.0469-0.64062-1.0469-0.35938 0-0.53125 0.28125-0.53125 0.53125 0 0.26562 0.17188 0.53125 0.53125 0.53125 0.14062 0 0.28125-0.0625 0.39062-0.15625 0.015625 0.78125-0.25 1.3906-0.6875 1.8594-0.0625 0.0625-0.078125 0.078125-0.078125 0.10938 0 0.078125 0.046875 0.10938 0.09375 0.10938 0.125 0 0.92188-0.78125 0.92188-1.9375z"/>
</symbol>
<symbol id="ad" overflow="visible">
<path d="m3.5781-1.2031c0-0.54688-0.4375-1.0938-1.2031-1.25 0.71875-0.26562 0.98438-0.78125 0.98438-1.2188 0-0.54688-0.625-0.95312-1.4062-0.95312-0.76562 0-1.3594 0.375-1.3594 0.9375 0 0.23438 0.15625 0.35938 0.35938 0.35938 0.21875 0 0.35938-0.15625 0.35938-0.34375 0-0.20312-0.14062-0.35938-0.35938-0.375 0.25-0.29688 0.71875-0.375 0.98438-0.375 0.3125 0 0.75 0.15625 0.75 0.75 0 0.29688-0.09375 0.625-0.28125 0.82812-0.21875 0.26562-0.42188 0.28125-0.76562 0.3125-0.17188 0.015625-0.1875 0.015625-0.21875 0.015625 0 0-0.078125 0.015625-0.078125 0.09375 0 0.09375 0.0625 0.09375 0.1875 0.09375h0.375c0.54688 0 0.9375 0.375 0.9375 1.125 0 0.85938-0.51562 1.125-0.90625 1.125-0.28125 0-0.90625-0.078125-1.1875-0.5 0.32812 0 0.40625-0.23438 0.40625-0.39062 0-0.21875-0.17188-0.375-0.39062-0.375-0.1875 0-0.39062 0.125-0.39062 0.40625 0 0.65625 0.71875 1.0781 1.5625 1.0781 0.96875 0 1.6406-0.65625 1.6406-1.3438z"/>
</symbol>
<symbol id="ac" overflow="visible">
<path d="m5.5469 0v-0.25h-0.125c-0.46875 0-0.51562-0.078125-0.59375-0.26562l-1.7031-4.2969c-0.03125-0.10938-0.0625-0.15625-0.1875-0.15625-0.14062 0-0.15625 0.046875-0.20312 0.15625l-1.6094 4.0781c-0.0625 0.17188-0.1875 0.48438-0.8125 0.48438v0.25c0.23438-0.015625 0.48438-0.03125 0.71875-0.03125 0.28125 0 0.79688 0.03125 0.84375 0.03125v-0.25c-0.3125 0-0.51562-0.14062-0.51562-0.32812 0-0.0625 0.015625-0.078125 0.046875-0.14062l0.32812-0.85938h1.9844l0.40625 1.0156c0 0.03125 0.03125 0.078125 0.03125 0.10938 0 0.20312-0.375 0.20312-0.5625 0.20312v0.25l1.0312-0.03125c0.32812 0 0.85938 0.03125 0.92188 0.03125zm-1.9375-1.8281h-1.7812l0.89062-2.2656z"/>
</symbol>
<symbol id="ab" overflow="visible">
<path d="m3.7969-2.7812c0-0.17188-0.125-0.35938-0.40625-0.35938-0.10938 0-0.48438 0.015625-0.8125 0.3125-0.20312-0.14062-0.5-0.25-0.8125-0.25-0.71875 0-1.2344 0.48438-1.2344 1.0312 0 0.26562 0.14062 0.51562 0.32812 0.70312-0.046875 0.0625-0.20312 0.29688-0.20312 0.5625 0 0.09375 0.015625 0.42188 0.29688 0.625-0.3125 0.09375-0.6875 0.32812-0.6875 0.6875 0 0.51562 0.76562 0.89062 1.7188 0.89062 0.875 0 1.7031-0.34375 1.7031-0.90625 0-0.20312-0.078125-0.57812-0.46875-0.78125-0.40625-0.21875-0.82812-0.21875-1.5-0.21875-0.15625 0-0.40625 0-0.45312-0.015625-0.23438-0.046875-0.35938-0.25-0.35938-0.45312 0-0.17188 0.0625-0.23438 0.09375-0.28125 0.10938 0.0625 0.35938 0.20312 0.76562 0.20312 0.71875 0 1.2344-0.46875 1.2344-1.0156 0-0.28125-0.125-0.48438-0.29688-0.67188 0.32812-0.21875 0.59375-0.23438 0.71875-0.23438-0.03125 0.03125-0.0625 0.0625-0.0625 0.17188 0 0.14062 0.09375 0.21875 0.21875 0.21875 0.09375 0 0.21875-0.0625 0.21875-0.21875zm-1.3438 0.73438c0 0.10938 0 0.39062-0.14062 0.5625-0.10938 0.125-0.29688 0.25-0.54688 0.25-0.67188 0-0.67188-0.67188-0.67188-0.8125 0-0.10938 0-0.39062 0.125-0.57812 0.10938-0.10938 0.29688-0.23438 0.54688-0.23438 0.6875 0 0.6875 0.67188 0.6875 0.8125zm0.8125 2.5781c0 0.375-0.5625 0.6875-1.2812 0.6875-0.73438 0-1.2812-0.32812-1.2812-0.6875 0-0.25 0.21875-0.54688 0.65625-0.54688h0.40625c0.625 0 1.5 0 1.5 0.54688z"/>
</symbol>
<symbol id="aa" overflow="visible">
<path d="m5.4844-4.5156v-0.25c-0.29688 0.03125-0.57812 0.03125-0.85938 0.03125s-0.5625 0-0.84375-0.03125v0.25c0.71875 0 0.71875 0.32812 0.71875 0.51562v2.9531l-2.6875-3.6094c-0.078125-0.09375-0.078125-0.10938-0.21875-0.10938h-1.2031v0.25h0.20312c0.3125 0 0.48438 0.046875 0.51562 0.046875v3.7188c0 0.1875 0 0.5-0.71875 0.5v0.25c0.28125-0.015625 0.5625-0.03125 0.84375-0.03125 0.29688 0 0.57812 0.015625 0.85938 0.03125v-0.25c-0.71875 0-0.71875-0.3125-0.71875-0.5v-3.5156l3.0938 4.1562c0.0625 0.10938 0.078125 0.10938 0.15625 0.10938 0.14062 0 0.14062-0.0625 0.14062-0.1875v-3.8125c0-0.1875 0-0.51562 0.71875-0.51562z"/>
</symbol>
<symbol id="z" overflow="visible">
<path d="m5.6094-2.3594c0-1.3906-1.1406-2.5469-2.5625-2.5469s-2.5625 1.1562-2.5625 2.5469c0 1.375 1.1406 2.5 2.5625 2.5 1.4375 0 2.5625-1.125 2.5625-2.5zm-0.73438-0.10938c0 1.7188-1 2.375-1.8281 2.375-0.8125 0-1.8125-0.65625-1.8125-2.375 0-1.6094 1.0312-2.2031 1.8125-2.2031 0.79688 0 1.8281 0.59375 1.8281 2.2031z"/>
</symbol>
<symbol id="y" overflow="visible">
<path d="m2.9844-0.875c0-0.40625-0.35938-0.75-0.92188-0.875 0.59375-0.20312 0.75-0.57812 0.75-0.85938 0-0.40625-0.5-0.70312-1.125-0.70312s-1.1094 0.25-1.1094 0.70312c0 0.23438 0.1875 0.29688 0.28125 0.29688 0.14062 0 0.28125-0.10938 0.28125-0.29688 0-0.10938-0.0625-0.25-0.23438-0.28125 0.20312-0.21875 0.65625-0.23438 0.76562-0.23438 0.35938 0 0.60938 0.17188 0.60938 0.51562 0 0.29688-0.1875 0.75-0.70312 0.78125-0.14062 0-0.15625 0-0.29688 0.015625-0.046875 0-0.10938 0-0.10938 0.078125s0.046875 0.078125 0.14062 0.078125h0.32812c0.46875 0 0.76562 0.29688 0.76562 0.78125 0 0.51562-0.3125 0.78125-0.75 0.78125-0.0625 0-0.65625 0-0.90625-0.26562 0.20312-0.03125 0.26562-0.17188 0.26562-0.29688 0-0.1875-0.14062-0.3125-0.3125-0.3125-0.15625 0-0.29688 0.10938-0.29688 0.32812 0 0.51562 0.57812 0.75 1.2656 0.75 0.8125 0 1.3125-0.5 1.3125-0.98438z"/>
</symbol>
<symbol id="x" overflow="visible">
<path d="m-2.3281-6.625c-0.09375 0-0.17188 0-0.17188 0.125 0 0.10938 0.0625 0.10938 0.17188 0.125 1.4219 0.078125 2.2344 1.1406 2.2344 2.2344 0 0.60938-0.32812 2.5625-3.3125 2.5625-2.9688 0-3.3125-1.9531-3.3125-2.5625 0-1.0781 0.90625-1.9688 2.3594-2.1719 0.14062-0.015625 0.17188-0.015625 0.17188-0.15625 0-0.15625-0.03125-0.15625-0.23438-0.15625h-2.3594c-0.17188 0-0.25 0-0.25 0.10938 0 0.03125 0 0.078125 0.125 0.15625l0.73438 0.5c-0.35938 0.35938-0.85938 0.875-0.85938 1.8281 0 1.875 1.5938 3.4688 3.625 3.4688 2.0625 0 3.625-1.6094 3.625-3.4688 0-1.625-1.3906-2.5938-2.5469-2.5938z"/>
</symbol>
<symbol id="u" overflow="visible">
<path d="m-2.1406-4.6875c-1.2656 0-2.3281 0.98438-2.3281 2.1875 0 1.25 1.0938 2.2188 2.3281 2.2188 1.2969 0 2.25-1.0312 2.25-2.2031 0-1.2031-0.98438-2.2031-2.25-2.2031zm-0.078125 0.8125c0.35938 0 0.90625 0 1.3438 0.21875 0.45312 0.23438 0.73438 0.67188 0.73438 1.1562 0 0.4375-0.20312 0.875-0.67188 1.1406-0.4375 0.25-1.0469 0.25-1.4062 0.25-0.39062 0-0.92188 0-1.3594-0.23438-0.45312-0.26562-0.67188-0.73438-0.67188-1.1406 0-0.4375 0.21875-0.85938 0.65625-1.125 0.42188-0.26562 1-0.26562 1.375-0.26562z"/>
</symbol>
<symbol id="t" overflow="visible">
<path d="m0-5.3281h-0.3125c0 0.51562 0 0.76562-0.29688 0.76562h-1.9062c-0.85938 0-1.1562 0-1.5156 0.3125-0.17188 0.14062-0.375 0.46875-0.375 1.0469 0 0.73438 0.42188 1.2031 1.0469 1.4844h-1.0469l0.10938 1.4062h0.3125c0-0.70312 0.0625-0.78125 0.5625-0.78125h2.6719c0.4375 0 0.4375 0.10938 0.4375 0.78125h0.3125l-0.03125-1.1406 0.03125-1.1094h-0.3125c0 0.67188 0 0.78125-0.4375 0.78125h-1.8438c-1.0312 0-1.5938-0.71875-1.5938-1.3438 0-0.64062 0.53125-0.75 1.1094-0.75h2.3281c0.4375 0 0.4375 0.10938 0.4375 0.78125h0.3125l-0.03125-1.125z"/>
</symbol>
<symbol id="d" overflow="visible">
<path d="m0-5.25h-0.3125c0 0.6875-0.0625 0.78125-0.5625 0.78125h-6.0469l0.10938 1.4219h0.3125c0-0.6875 0.0625-0.76562 0.5625-0.76562h2.1562c-0.35938 0.28125-0.625 0.71875-0.625 1.25 0 1.1719 0.98438 2.2188 2.2656 2.2188 1.2656 0 2.25-0.96875 2.25-2.1094 0-0.64062-0.34375-1.0781-0.65625-1.3281h0.65625zm-1.1719 1.4688c0.17188 0 0.1875 0 0.35938 0.10938 0.48438 0.29688 0.70312 0.73438 0.70312 1.1719 0 0.45312-0.26562 0.8125-0.64062 1.0469-0.40625 0.25-0.96875 0.28125-1.3906 0.28125-0.35938 0-0.95312-0.015625-1.4062-0.29688-0.3125-0.21875-0.64062-0.59375-0.64062-1.1406 0-0.34375 0.15625-0.76562 0.59375-1.0625 0.17188-0.10938 0.1875-0.10938 0.375-0.10938z"/>
</symbol>
<symbol id="s" overflow="visible">
<path d="m0-5.3281h-0.3125c0 0.6875-0.0625 0.76562-0.5625 0.76562h-3.5312l0.10938 1.4688h0.3125c0-0.6875 0.0625-0.78125 0.5625-0.78125h1.7656c0.875 0 1.5469 0.48438 1.5469 1.2188 0 0.82812-0.46875 0.875-0.98438 0.875h-3.3125l0.10938 1.4688h0.3125c0-0.78125 0.03125-0.78125 0.90625-0.78125h1.5c0.78125 0 1.6875 0 1.6875-1.5156 0-0.5625-0.28125-1-0.89062-1.2812h0.89062z"/>
</symbol>
<symbol id="r" overflow="visible">
<path d="m-1.2344-3.3125h-0.5625v0.25h0.54688c0.73438 0 1.1094 0.29688 1.1094 0.67188 0 0.67188-0.90625 0.67188-1.0781 0.67188h-2.7656v-1.4375h-0.3125v1.4375h-1.8281v0.25c0.8125 0 1.875 0.29688 1.9219 1.2812h0.21875v-0.84375h2.75c1.2188 0 1.3438-0.9375 1.3438-1.2969 0-0.70312-0.70312-0.98438-1.3438-0.98438z"/>
</symbol>
<symbol id="g" overflow="visible">
<path d="m0-2.4688h-0.3125c0 0.67188-0.046875 0.70312-0.4375 0.70312h-3.6562l0.10938 1.3906h0.3125c0-0.64062 0.0625-0.73438 0.54688-0.73438h2.6875c0.4375 0 0.4375 0.10938 0.4375 0.78125h0.3125l-0.03125-1.0938c0-0.35938 0.015625-0.70312 0.03125-1.0469zm-6.0156 0.5625c-0.28125 0-0.53125 0.21875-0.53125 0.51562 0 0.34375 0.28125 0.54688 0.53125 0.54688 0.26562 0 0.51562-0.23438 0.51562-0.53125 0-0.34375-0.26562-0.53125-0.51562-0.53125z"/>
</symbol>
<symbol id="q" overflow="visible">
<path d="m-3.9844-5.0625h-0.3125c0.015625 0.23438 0.03125 0.51562 0.03125 0.75l-0.03125 0.85938h0.3125c0-0.35938 0.23438-0.46875 0.42188-0.46875 0.09375 0 0.14062 0.015625 0.25 0.046875l2.5312 1.0312-2.7812 1.1094c-0.125 0.0625-0.17188 0.0625-0.17188 0.0625-0.25 0-0.25-0.39062-0.25-0.57812h-0.3125l0.03125 1.0938c0 0.26562-0.015625 0.67188-0.03125 0.96875h0.3125c0-0.625 0.0625-0.67188 0.35938-0.79688l3.5469-1.4375c0.14062-0.0625 0.1875-0.078125 0.1875-0.20312 0-0.14062-0.09375-0.17188-0.1875-0.21875l-3.2344-1.2969c-0.23438-0.09375-0.67188-0.26562-0.67188-0.92188z"/>
</symbol>
<symbol id="p" overflow="visible">
<path d="m-0.89062-4.8125h-0.5625v0.25h0.5625c0.57812 0 0.64062 0.25 0.64062 0.35938 0 0.32812-0.45312 0.35938-0.5 0.35938h-1.9844c-0.42188 0-0.8125 0-1.1875 0.35938-0.39062 0.39062-0.54688 0.89062-0.54688 1.375 0 0.8125 0.46875 1.5 1.125 1.5 0.29688 0 0.46875-0.20312 0.46875-0.45312 0-0.28125-0.20312-0.46875-0.45312-0.46875-0.125 0-0.45312 0.0625-0.45312 0.51562-0.35938-0.26562-0.46875-0.76562-0.46875-1.0781 0-0.48438 0.39062-1.0625 1.2812-1.0625h0.35938c0.03125 0.51562 0.0625 1.2188 0.35938 1.8438 0.34375 0.75 0.85938 1 1.2969 1 0.8125 0 1.0625-0.96875 1.0625-1.5938 0-0.67188-0.40625-1.125-0.85938-1.3125 0.39062-0.046875 0.8125-0.3125 0.8125-0.78125 0-0.20312-0.14062-0.8125-0.95312-0.8125zm-0.5 1.6562c0.9375 0 1.2812 0.71875 1.2812 1.1719 0 0.48438-0.34375 0.89062-0.84375 0.89062-0.54688 0-1.375-0.40625-1.4375-2.0625z"/>
</symbol>
<symbol id="w" overflow="visible">
<path d="m-1.1875-4.1406c-0.09375 0-0.125 0.078125-0.125 0.14062 0 0.078125 0.0625 0.10938 0.14062 0.125 1.0312 0.34375 1.0312 1.25 1.0312 1.3438 0 0.5-0.29688 0.89062-0.67188 1.125-0.46875 0.29688-1.125 0.29688-1.4844 0.29688v-2.7812c0-0.21875 0-0.25-0.21875-0.25-0.98438 0-1.9531 0.54688-1.9531 1.7812 0 1.1562 1.0312 2.0781 2.2812 2.0781 1.3281 0 2.2969-1.0469 2.2969-2.1875 0-1.2188-1.1094-1.6719-1.2969-1.6719zm-1.3281 0.65625v2.375c-1.4844-0.0625-1.7344-0.90625-1.7344-1.25 0-1.0156 1.3438-1.125 1.7344-1.125z"/>
</symbol>
<symbol id="v" overflow="visible">
<path d="m-0.015625-2.0312c-0.625 0-1.0469 0.25-1.0469 0.64062 0 0.35938 0.28125 0.53125 0.53125 0.53125 0.26562 0 0.53125-0.17188 0.53125-0.53125 0-0.14062-0.0625-0.28125-0.15625-0.39062 0.78125-0.015625 1.3906 0.25 1.8594 0.6875 0.0625 0.0625 0.078125 0.078125 0.10938 0.078125 0.078125 0 0.10938-0.046875 0.10938-0.09375 0-0.125-0.78125-0.92188-1.9375-0.92188z"/>
</symbol>
<symbol id="o" overflow="visible">
<path d="m-1.4219-5.4375c-0.10938 0-0.10938 0.078125-0.10938 0.10938 0 0.10938 0.046875 0.10938 0.1875 0.14062 0.6875 0.1875 1.2344 0.42188 1.2344 0.875 0 0.20312-0.125 0.3125-0.48438 0.3125-0.14062 0-0.39062-0.03125-0.54688-0.078125-0.09375-0.015625-0.21875-0.046875-0.32812-0.046875-0.9375 0-1.0156 1.375-1.0312 1.9375-0.1875-0.32812-0.45312-0.65625-0.6875-0.92188-0.375-0.45312-0.625-0.75-0.79688-1.1406 0.0625 0.015625 0.17188 0.046875 0.21875 0.046875 0.125 0 0.35938-0.078125 0.35938-0.375 0-0.32812-0.29688-0.54688-0.54688-0.54688-0.078125 0-0.34375 0.046875-0.34375 0.40625 0 0.60938 0.5 1.1875 0.875 1.625 0.57812 0.6875 0.71875 0.92188 0.84375 1.2812l-0.78125-0.20312c-0.26562-0.0625-0.73438-0.17188-0.78125-0.17188-0.17188 0-0.26562 0.10938-0.26562 0.28125 0 0.03125 0 0.3125 0.35938 0.40625l3.6562 0.90625c0.14062 0.046875 0.15625 0.046875 0.23438 0.046875 0.17188 0 0.26562-0.14062 0.26562-0.29688 0-0.29688-0.23438-0.35938-0.5625-0.4375-0.35938-0.09375-0.17188-0.03125-1.8438-0.46875 0.03125-0.82812 0.20312-1.7031 0.84375-1.7031 0.078125 0 0.125 0 0.23438 0.03125 0.15625 0.03125 0.26562 0.046875 0.34375 0.046875 0.57812 0 0.98438-0.40625 0.98438-0.92188 0-0.3125-0.17188-0.57812-0.51562-0.78125-0.42188-0.25-1.0156-0.35938-1.0156-0.35938z"/>
</symbol>
<symbol id="n" overflow="visible">
<path d="m-7.2812-4.4219c-0.10938 0-0.20312 0.078125-0.20312 0.1875 0 0.078125 0.03125 0.14062 0.09375 0.17188l9.5 3.4688c0.14062 0.046875 0.1875 0.046875 0.1875 0.046875 0.10938 0 0.20312-0.09375 0.20312-0.20312 0-0.125-0.078125-0.15625-0.25-0.21875l-9.3438-3.4062c-0.14062-0.046875-0.1875-0.046875-0.1875-0.046875z"/>
</symbol>
<symbol id="m" overflow="visible">
<path d="m-1.8594-4.9688c-0.98438 0-1.8125 0.65625-2.0156 1.4844l-0.29688 1.2812c-0.15625 0.625-0.6875 1-1.2656 1-0.70312 0-1.3125-0.53125-1.3125-1.3125 0-1.6562 1.6406-1.875 2.0781-1.9375 0.0625-0.015625 0.125-0.015625 0.125-0.125 0-0.125-0.046875-0.125-0.23438-0.125h-2c-0.17188 0-0.25 0-0.25 0.10938 0 0.0625 0.015625 0.078125 0.14062 0.14062l0.5625 0.35938c-0.29688 0.29688-0.70312 0.70312-0.70312 1.5938 0 1.1094 0.875 1.9375 1.9375 1.9375 0.82812 0 1.5625-0.53125 1.8281-1.2969 0.03125-0.10938 0.15625-0.625 0.32812-1.3281 0.0625-0.26562 0.14062-0.5625 0.5-0.84375 0.26562-0.20312 0.59375-0.3125 0.92188-0.3125 0.70312 0 1.4219 0.5 1.4219 1.3438 0 0.28125-0.046875 1.0469-0.53125 1.5781-0.54688 0.57812-1.1719 0.60938-1.5312 0.60938-0.10938 0.015625-0.10938 0.09375-0.10938 0.125 0 0.125 0.078125 0.125 0.25 0.125h2c0.17188 0 0.23438 0 0.23438-0.10938 0-0.0625-0.015625-0.078125-0.125-0.14062 0 0-0.046875-0.03125-0.57812-0.35938 0.34375-0.3125 0.70312-0.95312 0.70312-1.8438 0-1.1562-0.96875-1.9531-2.0781-1.9531z"/>
</symbol>
<symbol id="l" overflow="visible">
<path d="m0-8.1094h-0.3125c0 0.51562 0 0.76562-0.29688 0.78125h-1.9062c-0.85938 0-1.1562 0-1.5156 0.3125-0.17188 0.14062-0.375 0.46875-0.375 1.0469 0 0.82812 0.59375 1.2812 0.98438 1.4375-0.875 0.14062-0.98438 0.875-0.98438 1.3281 0 0.73438 0.42188 1.2031 1.0469 1.4844h-1.0469l0.10938 1.4062h0.3125c0-0.70312 0.0625-0.78125 0.5625-0.78125h2.6719c0.4375 0 0.4375 0.10938 0.4375 0.78125h0.3125l-0.03125-1.1406 0.03125-1.1094h-0.3125c0 0.67188 0 0.78125-0.4375 0.78125h-1.8438c-1.0312 0-1.5938-0.71875-1.5938-1.3438 0-0.64062 0.53125-0.75 1.1094-0.75h2.3281c0.4375 0 0.4375 0.10938 0.4375 0.78125h0.3125l-0.03125-1.125 0.03125-1.1094h-0.3125c0 0.65625 0 0.76562-0.4375 0.76562h-1.8438c-1.0312 0-1.5938-0.70312-1.5938-1.3438 0-0.625 0.53125-0.73438 1.1094-0.73438h2.3281c0.4375 0 0.4375 0.10938 0.4375 0.78125h0.3125l-0.03125-1.125z"/>
</symbol>
<symbol id="k" overflow="visible">
<path d="m0-8.7656h-0.3125v0.25c0 0.76562-0.10938 0.78125-0.46875 0.78125h-5.25c-0.35938 0-0.46875-0.015625-0.46875-0.78125v-0.25h-0.3125v1.6875c0 0.26562 0.015625 0.26562 0.1875 0.32812l5.625 2.1875-5.5938 2.1562c-0.21875 0.09375-0.21875 0.125-0.21875 0.35938v1.6719h0.3125v-0.23438c0-0.76562 0.10938-0.78125 0.46875-0.78125h4.9844c0.26562 0 0.73438 0 0.73438 1.0156h0.3125l-0.03125-1.1562 0.03125-1.1719h-0.3125c0 1.0312-0.46875 1.0312-0.73438 1.0312h-5.375v-0.015625l6.2031-2.4062c0.125-0.046875 0.21875-0.09375 0.21875-0.1875 0-0.10938-0.078125-0.14062-0.1875-0.1875l-6.3125-2.4531h5.7188c0.35938 0 0.46875 0.015625 0.46875 0.78125v0.23438h0.3125c-0.03125-0.35938-0.03125-1.0469-0.03125-1.4375 0-0.375 0-1.0469 0.03125-1.4219z"/>
</symbol>
<symbol id="f" overflow="visible">
<path d="m-1.7344-5.4688c-0.1875 0-0.1875 0.17188-0.1875 0.26562v4.1875c0 0.10938 0 0.26562 0.1875 0.26562 0.15625 0 0.15625-0.17188 0.15625-0.26562v-4.1875c0-0.09375 0-0.26562-0.15625-0.26562z"/>
</symbol>
<symbol id="i" overflow="visible">
<path d="m0-3.2969h-0.25v0.26562c0 0.70312-0.09375 0.70312-0.32812 0.70312h-3.8594c-0.1875 0-0.1875 0-0.1875 0.20312 0.4375 0.45312 0.4375 1.0781 0.4375 1.3594h0.25c0-0.15625 0-0.625-0.1875-1h3.5469c0.23438 0 0.32812 0 0.32812 0.6875v0.26562h0.25l-0.03125-1.2344z"/>
</symbol>
<clipPath id="aw">
<path d="m34.301 4.7695h194.27v161.39h-194.27z"/>
</clipPath>
</defs>
<path transform="matrix(1 0 0 -1 34.301 166.17)" d="m-2.1875e-4 0.0019375v161.39m48.566-161.39v161.39m48.57-161.39v161.39m48.566-161.39v161.39m48.57-161.39v161.39" fill="none" stroke="#bfbfbf" stroke-miterlimit="10" stroke-width=".3985"/>
<path transform="matrix(1 0 0 -1 34.301 166.17)" d="m-2.1875e-4 0.0019375h194.27m-194.27 26.898h194.27m-194.27 26.898h194.27m-194.27 26.898h194.27m-194.27 26.898h194.27m-194.27 26.902h194.27m-194.27 26.898h194.27" fill="none" stroke="#bfbfbf" stroke-miterlimit="10" stroke-width=".3985"/>
<path transform="matrix(1 0 0 -1 34.301 166.17)" d="m-2.1875e-4 0.0019375v4.25m48.566-4.25v4.25m48.57-4.25v4.25m48.566-4.25v4.25m48.57-4.25v4.25m-194.27 157.14v-4.2539m48.566 4.2539v-4.2539m48.57 4.2539v-4.2539m48.566 4.2539v-4.2539m48.57 4.2539v-4.2539" fill="none" stroke="#7f7f7f" stroke-miterlimit="10" stroke-width=".19925"/>
<path transform="matrix(1 0 0 -1 34.301 166.17)" d="m-2.1875e-4 0.0019375h4.25m-4.25 26.898h4.25m-4.25 26.898h4.25m-4.25 26.898h4.25m-4.25 26.898h4.25m-4.25 26.902h4.25m-4.25 26.898h4.25m190.02-161.39h-4.2539m4.2539 26.898h-4.2539m4.2539 26.898h-4.2539m4.2539 26.898h-4.2539m4.2539 26.898h-4.2539m4.2539 26.902h-4.2539m4.2539 26.898h-4.2539" fill="none" stroke="#7f7f7f" stroke-miterlimit="10" stroke-width=".19925"/>
<path transform="matrix(1 0 0 -1 34.301 166.17)" d="m-2.1875e-4 0.0019375v161.39h194.27v-161.39z" fill="none" stroke="#000" stroke-miterlimit="10" stroke-width=".3985"/>
<g>
<use x="31.811" y="175.96" xlink:href="#e"/>
<use x="80.378" y="175.96" xlink:href="#j"/>
<use x="126.455" y="175.96" xlink:href="#a"/>
<use x="131.4363" y="175.96" xlink:href="#e"/>
<use x="175.022" y="175.96" xlink:href="#a"/>
<use x="180.0033" y="175.96" xlink:href="#j"/>
<use x="223.59" y="175.96" xlink:href="#c"/>
<use x="228.5713" y="175.96" xlink:href="#e"/>
<use x="25.8" y="169.303" xlink:href="#a"/>
<use x="18.051" y="141.435" xlink:href="#a"/>
<use x="23.033" y="141.435" xlink:href="#b"/>
<use x="25.8" y="141.435" xlink:href="#c"/>
<use x="18.051" y="114.536" xlink:href="#a"/>
<use x="23.033" y="114.536" xlink:href="#b"/>
<use x="25.8" y="114.536" xlink:href="#av"/>
<use x="18.051" y="87.638" xlink:href="#a"/>
<use x="23.033" y="87.638" xlink:href="#b"/>
<use x="25.8" y="87.638" xlink:href="#au"/>
<use x="18.051" y="60.739" xlink:href="#a"/>
<use x="23.033" y="60.739" xlink:href="#b"/>
<use x="25.8" y="60.739" xlink:href="#at"/>
<use x="25.8" y="34.808" xlink:href="#c"/>
<use x="18.051" y="6.941" xlink:href="#c"/>
<use x="23.033" y="6.941" xlink:href="#b"/>
<use x="25.8" y="6.941" xlink:href="#c"/>
</g>
<g clip-path="url(#aw)">
<path transform="matrix(1 0 0 -1 34.301 166.17)" d="m-2.1875e-4 34.971 1.3047-0.32031 1.3047-0.31641 1.3008-0.31641 1.3047-0.3125 1.3047-0.31641 2.6094-0.625 1.3008-0.30859 1.3047-0.3125 1.3047-0.30859 1.3047-0.3125 1.3008-0.30469 2.6094-0.61719 2.6094-0.60938 1.3008-0.30469 2.6094-0.60156 1.3047-0.30469 1.3008-0.30078 2.6094-0.60156 2.6094-0.59375 1.3008-0.29688 2.6094-0.59375 1.3047-0.29297 1.3008-0.29688 1.3047-0.28906 2.6094-0.58594 1.3047-0.28906 1.3008-0.28906 1.3047-0.29297 1.3047-0.28516 1.3047-0.29297 1.3008-0.28516 1.3047-0.28906 1.3047-0.28125 2.6094-0.57031 1.3008-0.28516 1.3047-0.28125 1.3047-0.28516 1.3047-0.28125 1.3008-0.28125 1.3047-0.27734 1.3047-0.28125 2.6094-0.55469 1.3008-0.27734 3.9141-0.83203 1.3047-0.27344 1.3008-0.27344 1.3047-0.27344 1.3047-0.26953 1.3047-0.27344 1.3008-0.26953 1.3047-0.26953 1.3047-0.27344 1.3047-0.26562 1.3047-0.26953 1.3008-0.26953 1.3047-0.26172 1.3047-0.27344 1.3047-0.26172 1.3008-0.26562 1.3047-0.26562 1.3047-0.26172 1.3047-0.26562 1.3047 0.87109 1.3008 1.9961 1.3047 1.9922 1.3047 1.9883 1.3047 1.9844 1.3008 1.9766 2.6094 3.9375 1.3047 1.9648 1.3047 1.9609 1.3008 1.9531 1.3047 1.9492 1.3047 1.9453 1.3047 1.9414 1.3008 1.9336 1.3047 1.9336 1.3047 1.9258 1.3047 1.9219 1.3047 1.9141 1.3008 1.9141 2.6094 3.8125 1.3047 1.8984 1.3008 1.8945 2.6094 3.7734 1.3047 1.8828 1.3047 1.8789 1.3008 1.8672 1.3047 1.8711 1.3047 1.8594 1.3047 1.8633 1.3047 1.8555 1.3008 1.8477 1.3047 1.8477 2.6094 3.6797 1.3008 1.832 1.3047 1.8281 1.3047 1.8242 1.3047 1.8203 1.3047 1.8164 1.3008 1.8125 1.3047 1.8086 1.3047 1.8008 1.3047 1.7969 1.3008 1.7969 2.6094 3.5781 1.3047 1.7852 1.3047 1.7773 1.3008 1.7734 1.3047 1.7695 1.3047 1.7656 1.3047 1.7617 1.3008 1.7617 1.3047 1.75 1.3047 1.7539 1.3047 1.7461 1.3047 1.7422 1.3008 1.7383 1.3047 1.7305 1.3047 1.7344 1.3047 1.7266 1.3008 1.7227 1.3047 1.7188 1.3047 1.7148 1.3047 1.7109 1.3047 1.707 1.3008 1.707 1.3047 1.6953 1.3047 1.6992 1.3047 1.6875 1.3047 1.6914 1.3008 1.6836" fill="none" stroke="#0c6dfd" stroke-miterlimit="10" stroke-width="1.1955"/>
</g>
<g>
<use x="61.912" y="190.272" xlink:href="#ao"/>
<use x="68.557054" y="190.272" xlink:href="#ak"/>
<use x="73.538354" y="190.272" xlink:href="#aj"/>
<use x="76.305964" y="190.272" xlink:href="#ai"/>
<use x="81.841185" y="190.272" xlink:href="#ah"/>
<use x="90.14302" y="190.272" xlink:href="#h"/>
<use x="97.888941" y="190.272" xlink:href="#ag"/>
<use x="103.424162" y="190.272" xlink:href="#h"/>
<use x="111.170083" y="190.272" xlink:href="#af"/>
<use x="118.642033" y="190.272" xlink:href="#ae"/>
<use x="123.623333" y="190.272" xlink:href="#an"/>
<use x="131.095283" y="190.272" xlink:href="#am"/>
<use x="138.846" y="191.766" xlink:href="#ad"/>
<use x="143.315" y="190.272" xlink:href="#al"/>
<use x="149.403" y="190.272" xlink:href="#aq"/>
<use x="155.215" y="191.766" xlink:href="#ac"/>
<use x="161.096006" y="191.766" xlink:href="#ab"/>
<use x="165.066887" y="191.766" xlink:href="#aa"/>
<use x="170.947893" y="191.766" xlink:href="#z"/>
<use x="177.064" y="192.763" xlink:href="#y"/>
<use x="181.45" y="190.272" xlink:href="#ap"/>
<use x="186.431" y="190.272" xlink:href="#as"/>
<use x="194.732835" y="190.272" xlink:href="#ar"/>
<use x="8.72" y="149.716" xlink:href="#x"/>
<use x="8.72" y="142.52101" xlink:href="#u"/>
<use x="8.72" y="137.53971" xlink:href="#t"/>
<use x="8.72" y="132.00449" xlink:href="#d"/>
<use x="8.72" y="126.469269" xlink:href="#s"/>
<use x="8.72" y="120.934049" xlink:href="#r"/>
<use x="8.72" y="117.059593" xlink:href="#g"/>
<use x="8.72" y="114.291983" xlink:href="#q"/>
<use x="8.72" y="109.033723" xlink:href="#g"/>
<use x="8.72" y="106.266113" xlink:href="#d"/>
<use x="8.72" y="100.730892" xlink:href="#p"/>
<use x="8.72" y="95.749592" xlink:href="#d"/>
<use x="8.72" y="90.214372" xlink:href="#w"/>
<use x="8.72" y="85.785996" xlink:href="#v"/>
<use x="8.72" y="79.701" xlink:href="#o"/>
<use x="8.72" y="73.96055" xlink:href="#n"/>
<use x="8.72" y="68.979" xlink:href="#m"/>
<use x="8.72" y="61.780025" xlink:href="#l"/>
<use x="5.104" y="53.408" xlink:href="#f"/>
<use x="5.104" y="47.181" xlink:href="#i"/>
<use x="8.72" y="41.052" xlink:href="#k"/>
<use x="5.104" y="31.919" xlink:href="#f"/>
<use x="5.104" y="25.692" xlink:href="#i"/>
</g>
</svg>
