<?xml version="1.0" encoding="UTF-8"?>
<svg width="268pt" height="58pt" version="1.1" viewBox="0 0 268 58" xmlns="http://www.w3.org/2000/svg" xmlns:xlink="http://www.w3.org/1999/xlink">
<defs>
<symbol id="a" overflow="visible">
<path d="m6.7656-3.4375c0-2.0938-1.4375-3.7031-3.0938-3.7031-1.7031 0-3.1094 1.625-3.1094 3.7031 0 2.1094 1.4688 3.6562 3.0938 3.6562 1.6719 0 3.1094-1.5625 3.1094-3.6562zm-0.89062-0.15625c0 1.9531-1.0625 3.1719-2.2031 3.1719-1.1719 0-2.2188-1.25-2.2188-3.1719 0-1.8125 1.0938-2.9062 2.2031-2.9062 1.1562 0 2.2188 1.125 2.2188 2.9062z"/>
</symbol>
<symbol id="e" overflow="visible">
<path d="m5.8594-0.45312-0.0625-0.6875c-0.29688 0.20312-0.57812 0.39062-0.92188 0.5-0.3125 0.10938-0.67188 0.10938-1 0.10938-0.65625 0-1.25-0.34375-1.6562-0.85938-0.45312-0.57812-0.67188-1.3281-0.67188-2.0625 0-0.75 0.21875-1.5 0.67188-2.0938 0.40625-0.5 1-0.85938 1.6562-0.85938 0.29688 0 0.59375 0.03125 0.89062 0.125s0.57812 0.23438 0.84375 0.42188l0.125-0.8125c-0.29688-0.125-0.59375-0.21875-0.92188-0.28125-0.3125-0.0625-0.625-0.078125-0.9375-0.078125-0.89062 0-1.6875 0.39062-2.2812 1.0469-0.60938 0.6875-0.9375 1.5938-0.9375 2.5312 0 0.92188 0.32812 1.8281 0.9375 2.5156 0.59375 0.64062 1.3906 1.0469 2.2812 1.0469 0.34375 0 0.6875-0.015625 1.0312-0.10938s0.64062-0.26562 0.95312-0.45312z"/>
</symbol>
<symbol id="c" overflow="visible">
<path d="m6.1094 0v-6.9219h-0.89062v3.0312h-3.3906v-3.0312h-0.89062v6.9219h0.89062v-3.2969h3.3906v3.2969z"/>
</symbol>
<symbol id="d" overflow="visible">
<path d="m7.1875-2.5c0-0.1875-0.1875-0.1875-0.32812-0.1875h-2.7812v-2.7969c0-0.14062 0-0.32812-0.20312-0.32812s-0.20312 0.1875-0.20312 0.32812v2.7969h-2.7812c-0.14062 0-0.32812 0-0.32812 0.1875 0 0.20312 0.1875 0.20312 0.32812 0.20312h2.7812v2.7969c0 0.14062 0 0.32812 0.20312 0.32812s0.20312-0.1875 0.20312-0.32812v-2.7969h2.7812c0.14062 0 0.32812 0 0.32812-0.20312z"/>
</symbol>
<symbol id="b" overflow="visible">
<path d="m5.4688-1.7344c0-0.1875-0.17188-0.1875-0.26562-0.1875h-4.1875c-0.10938 0-0.26562 0-0.26562 0.1875 0 0.15625 0.17188 0.15625 0.26562 0.15625h4.1875c0.09375 0 0.26562 0 0.26562-0.15625z"/>
</symbol>
</defs>
<g>
<use x="10.521" y="53.788" xlink:href="#a"/>
</g>
<path transform="matrix(1,0,0,-1,19.141,55.281)" d="m-0.60194-0.60181c-0.25 0.25-0.66016 0.25-0.91016 0s-0.25-0.66016 0-0.91016 0.66016-0.25 0.91016 0 0.25 0.66016 0 0.91016zm2.1133 2.1133c-0.25 0.25-0.66016 0.25-0.91016 0s-0.25-0.66016 0-0.91016 0.66016-0.25 0.91016 0 0.25 0.66016 0 0.91016z" stroke="#000" stroke-miterlimit="10" stroke-width=".3985"/>
<path transform="matrix(1,0,0,-1,9.235,55.281)" d="m-0.60219 0.60131c0.25 0.25 0.25 0.66016 0 0.91016s-0.65625 0.25-0.91016 0c-0.25-0.25-0.25-0.66016 0-0.91016 0.25391-0.25 0.66016-0.25 0.91016 0zm2.1133-2.1133c0.25 0.25 0.25 0.66016 0 0.91016s-0.65625 0.25-0.91016 0c-0.25-0.25-0.25-0.66016 0-0.91016 0.25391-0.25 0.66016-0.25 0.91016 0z" stroke="#000" stroke-miterlimit="10" stroke-width=".3985"/>
<g>
<use x="11.005" y="32.526" xlink:href="#e"/>
</g>
<path transform="matrix(1,0,0,-1,14.188,53.788)" d="m-1.2466 8.5107v11.156" fill="none" stroke="#000" stroke-linecap="round" stroke-miterlimit="10" stroke-width=".59758"/>
<path transform="matrix(1,0,0,-1,14.188,53.788)" d="m1.2456 8.5107v11.156" fill="none" stroke="#000" stroke-linecap="round" stroke-miterlimit="10" stroke-width=".59758"/>
<g>
<use x="10.521" y="11.265" xlink:href="#a"/>
</g>
<path transform="matrix(1,0,0,-1,19.141,2.853)" d="m0.60119-0.60012c-0.25-0.25391-0.25-0.66016 0-0.91016 0.25-0.25391 0.66016-0.25391 0.91016 0 0.25 0.25 0.25 0.65625 0 0.91016-0.25 0.25-0.66016 0.25-0.91016 0zm-2.1133 2.1133c-0.25-0.25391-0.25-0.66016 0-0.91016 0.25-0.25391 0.66016-0.25391 0.91016 0 0.25 0.25 0.25 0.65625 0 0.91016-0.25 0.25-0.66016 0.25-0.91016 0z" stroke="#000" stroke-miterlimit="10" stroke-width=".3985"/>
<path transform="matrix(1,0,0,-1,9.235,2.853)" d="m0.60094 0.603c0.25391-0.25391 0.66016-0.25391 0.91016 0 0.25 0.25 0.25 0.65625 0 0.91016-0.25 0.25-0.65625 0.25-0.91016 0-0.25-0.25391-0.25-0.66016 0-0.91016zm-2.1133-2.1133c0.25-0.25391 0.66016-0.25391 0.91016 0 0.25 0.25 0.25 0.65625 0 0.91016-0.25 0.25-0.66016 0.25-0.91016 0-0.25-0.25391-0.25-0.66016 0-0.91016z" stroke="#000" stroke-miterlimit="10" stroke-width=".3985"/>
<path transform="matrix(1,0,0,-1,14.188,53.788)" d="m-1.2466 29.772v11.156" fill="none" stroke="#000" stroke-linecap="round" stroke-miterlimit="10" stroke-width=".59758"/>
<path transform="matrix(1,0,0,-1,14.188,53.788)" d="m1.2456 29.772v11.156" fill="none" stroke="#000" stroke-linecap="round" stroke-miterlimit="10" stroke-width=".59758"/>
<g>
<use x="29.81" y="31.558" xlink:href="#d"/>
<use x="49.514" y="32.526" xlink:href="#a"/>
</g>
<path transform="matrix(1,0,0,-1,53.181,35.515)" d="m-0.85288-6.25e-4c0 0.35547-0.28516 0.64453-0.64062 0.64453s-0.64453-0.28906-0.64453-0.64453 0.28906-0.64453 0.64453-0.64453 0.64062 0.28906 0.64062 0.64453zm2.9922 0c0 0.35547-0.28906 0.64453-0.64453 0.64453s-0.64453-0.28906-0.64453-0.64453 0.28906-0.64453 0.64453-0.64453 0.64453 0.28906 0.64453 0.64453z" stroke="#000" stroke-miterlimit="10" stroke-width=".3985"/>
<path transform="matrix(1,0,0,-1,53.181,22.619)" d="m0.85025 0.0018125c0-0.35547 0.28906-0.64453 0.64453-0.64453s0.64453 0.28906 0.64453 0.64453c0 0.35156-0.28906 0.64063-0.64453 0.64063s-0.64453-0.28906-0.64453-0.64063zm-2.9883 0c0-0.35547 0.28906-0.64453 0.64453-0.64453s0.64062 0.28906 0.64062 0.64453c0 0.35156-0.28516 0.64063-0.64062 0.64063s-0.64453-0.28906-0.64453-0.64063z" stroke="#000" stroke-miterlimit="10" stroke-width=".3985"/>
<path transform="matrix(1,0,0,-1,46.525,29.067)" d="m-0.0015625 0.85216c0.35547 0 0.64453 0.28516 0.64453 0.64062 0 0.35547-0.28906 0.64453-0.64453 0.64453s-0.64063-0.28906-0.64063-0.64453c0-0.35547 0.28516-0.64062 0.64063-0.64062zm0-2.9883c0.35547 0 0.64453 0.28516 0.64453 0.64062s-0.28906 0.64453-0.64453 0.64453-0.64063-0.28906-0.64063-0.64453 0.28516-0.64062 0.64063-0.64062z" stroke="#000" stroke-miterlimit="10" stroke-width=".3985"/>
<g>
<use x="41.854" y="23.918" xlink:href="#b"/>
</g>
<g fill="#dc3445">
<use x="71.19" y="32.526" xlink:href="#c"/>
</g>
<path transform="matrix(1,0,0,-1,53.181,32.526)" d="m5.2604 3.4596h11.156" fill="none" stroke="#000" stroke-linecap="round" stroke-miterlimit="10" stroke-width=".59758"/>
<g>
<use x="90.202" y="31.558" xlink:href="#d"/>
<use x="109.906" y="32.526" xlink:href="#a"/>
</g>
<path transform="matrix(1 0 0 -1 113.57 35.515)" d="m-0.85034-6.25e-4c0 0.35547-0.28906 0.64453-0.64453 0.64453s-0.64453-0.28906-0.64453-0.64453 0.28906-0.64453 0.64453-0.64453 0.64453 0.28906 0.64453 0.64453zm2.9883 0c0 0.35547-0.28906 0.64453-0.64453 0.64453s-0.64062-0.28906-0.64062-0.64453 0.28516-0.64453 0.64062-0.64453 0.64453 0.28906 0.64453 0.64453z" stroke="#000" stroke-miterlimit="10" stroke-width=".3985"/>
<path transform="matrix(1 0 0 -1 113.57 22.619)" d="m0.85278 0.0018125c0-0.35547 0.28516-0.64453 0.64062-0.64453s0.64453 0.28906 0.64453 0.64453c0 0.35156-0.28906 0.64063-0.64453 0.64063s-0.64062-0.28906-0.64062-0.64063zm-2.9922 0c0-0.35547 0.28906-0.64453 0.64453-0.64453s0.64453 0.28906 0.64453 0.64453c0 0.35156-0.28906 0.64063-0.64453 0.64063s-0.64453-0.28906-0.64453-0.64063z" stroke="#000" stroke-miterlimit="10" stroke-width=".3985"/>
<path transform="matrix(1 0 0 -1 106.92 29.067)" d="m9.6875e-4 0.85216c0.35547 0 0.64063 0.28516 0.64063 0.64062 0 0.35547-0.28516 0.64453-0.64063 0.64453-0.35547 0-0.64453-0.28906-0.64453-0.64453 0-0.35547 0.28906-0.64062 0.64453-0.64062zm0-2.9883c0.35547 0 0.64063 0.28516 0.64063 0.64062s-0.28516 0.64453-0.64063 0.64453c-0.35547 0-0.64453-0.28906-0.64453-0.64453s0.28906-0.64062 0.64453-0.64062z" stroke="#000" stroke-miterlimit="10" stroke-width=".3985"/>
<g>
<use x="102.246" y="23.918" xlink:href="#b"/>
<use x="117.24" y="32.526" xlink:href="#c"/>
</g>
<path transform="matrix(1,0,0,-1,10.521,53.788)" d="m123.74 24.722h27.953" fill="none" stroke="#000" stroke-miterlimit="10" stroke-width=".3985"/>
<path transform="matrix(1 0 0 -1 159.5 29.067)" d="m4.4452 7.5375e-4 -3.2852 1.3164 1.6484-1.3164-1.6484-1.3164z" stroke="#000" stroke-linejoin="round" stroke-miterlimit="10" stroke-width=".3985"/>
<g>
<use x="174.108" y="48.72" xlink:href="#a"/>
</g>
<path transform="matrix(1 0 0 -1 181.13 51.077)" d="m-0.73847-0.42691c-0.17578 0.30859-0.57031 0.41406-0.87891 0.23828-0.30469-0.17969-0.41016-0.57422-0.23438-0.87891 0.17969-0.30859 0.57031-0.41406 0.87891-0.23828 0.30859 0.17969 0.41406 0.57422 0.23438 0.87891zm2.5898 1.4961c-0.17578 0.30859-0.57031 0.41406-0.87891 0.23438-0.30859-0.17578-0.41406-0.57031-0.23438-0.87891 0.17578-0.30859 0.57031-0.41406 0.87891-0.23438 0.30469 0.17578 0.41016 0.57031 0.23438 0.87891z" stroke="#000" stroke-miterlimit="10" stroke-width=".3985"/>
<path transform="matrix(1 0 0 -1 171.75 48.739)" d="m-0.42678 0.73509c0.30859 0.17969 0.41406 0.57422 0.23828 0.87891-0.17969 0.30859-0.57422 0.41406-0.87891 0.23828-0.30859-0.17969-0.41406-0.57031-0.23828-0.87891 0.17969-0.30859 0.57422-0.41406 0.87891-0.23828zm1.4961-2.5859c0.30859 0.17578 0.41406 0.57031 0.23438 0.87891-0.17578 0.30859-0.57031 0.41406-0.87891 0.23438-0.30859-0.17578-0.41406-0.57031-0.23438-0.87891 0.17578-0.30859 0.57031-0.41406 0.87891-0.23438z" stroke="#000" stroke-miterlimit="10" stroke-width=".3985"/>
<path transform="matrix(1 0 0 -1 174.42 39.444)" d="m0.73534 0.42447c0.17969-0.30859 0.57422-0.41406 0.87891-0.23438 0.30859 0.17578 0.41406 0.57031 0.23828 0.87891-0.17969 0.30859-0.57422 0.41406-0.87891 0.23438-0.30859-0.17578-0.41406-0.57031-0.23828-0.87891zm-2.5859-1.4922c0.17578-0.30859 0.57031-0.41406 0.87891-0.23828 0.30859 0.17969 0.41406 0.57422 0.23438 0.87891-0.17578 0.30859-0.57031 0.41406-0.87891 0.23828-0.30859-0.17969-0.41406-0.57422-0.23438-0.87891z" stroke="#000" stroke-miterlimit="10" stroke-width=".3985"/>
<g>
<use x="163.727" y="44.074" xlink:href="#b"/>
<use x="193.863" y="37.594" xlink:href="#e"/>
</g>
<path transform="matrix(1 0 0 -1 177.78 48.72)" d="m5.0453 6.3723 9.6641 5.5781" fill="none" stroke="#000" stroke-linecap="round" stroke-miterlimit="10" stroke-width=".59758"/>
<g>
<use x="193.379" y="16.333" xlink:href="#a"/>
</g>
<path transform="matrix(1 0 0 -1 202 7.92)" d="m0.60256-0.60344c-0.25391-0.25-0.25391-0.65625 0-0.90625 0.25-0.25391 0.65625-0.25391 0.91016 0 0.25 0.25 0.25 0.65625 0 0.90625-0.25391 0.25391-0.66016 0.25391-0.91016 0zm-2.1133 2.1133c-0.25391-0.25-0.25391-0.65625 0-0.90625 0.25-0.25391 0.65625-0.25391 0.91016 0 0.25 0.25 0.25 0.65625 0 0.90625-0.25391 0.25391-0.66016 0.25391-0.91016 0z" stroke="#000" stroke-miterlimit="10" stroke-width=".3985"/>
<path transform="matrix(1 0 0 -1 192.09 7.92)" d="m0.60231 0.60359c0.25-0.25391 0.65625-0.25391 0.91016 0 0.25 0.25 0.25 0.65625 0 0.90625-0.25391 0.25391-0.66016 0.25391-0.91016 0-0.25-0.25-0.25-0.65625 0-0.90625zm-2.1133-2.1133c0.25-0.25391 0.65625-0.25391 0.91016 0 0.25 0.25 0.25 0.65625 0 0.90625-0.25391 0.25391-0.66016 0.25391-0.91016 0-0.25-0.25-0.25-0.65625 0-0.90625z" stroke="#000" stroke-miterlimit="10" stroke-width=".3985"/>
<path transform="matrix(1 0 0 -1 177.78 48.72)" d="m18.026 19.638v11.156" fill="none" stroke="#000" stroke-linecap="round" stroke-miterlimit="10" stroke-width=".59758"/>
<path transform="matrix(1 0 0 -1 177.78 48.72)" d="m20.514 19.638v11.156" fill="none" stroke="#000" stroke-linecap="round" stroke-miterlimit="10" stroke-width=".59758"/>
<g>
<use x="212.649" y="48.72" xlink:href="#a"/>
</g>
<path transform="matrix(1 0 0 -1 219.67 39.444)" d="m0.73616-0.42709c-0.17578-0.30469-0.070312-0.69922 0.23828-0.87891 0.30469-0.17578 0.69922-0.070312 0.875 0.23828 0.17969 0.30469 0.074219 0.69922-0.23438 0.87891-0.30859 0.17578-0.69922 0.070312-0.87891-0.23828zm-2.5859 1.4961c-0.17969-0.30859-0.074219-0.70312 0.23438-0.87891 0.30859-0.17969 0.69922-0.074219 0.87891 0.23438 0.17578 0.30859 0.070312 0.70312-0.23438 0.87891-0.30859 0.17969-0.70312 0.074219-0.87891-0.23438z" stroke="#000" stroke-miterlimit="10" stroke-width=".3985"/>
<path transform="matrix(1,0,0,-1,222.34,48.739)" d="m-0.42594-0.73756c-0.30859 0.17969-0.69922 0.074218-0.87891-0.23438-0.17578-0.30859-0.070312-0.70312 0.23438-0.87891 0.30859-0.17969 0.70312-0.074218 0.87891 0.23438 0.17969 0.30859 0.074219 0.70312-0.23438 0.87891zm1.4961 2.5898c-0.30859 0.17578-0.70312 0.070313-0.87891-0.23828-0.17969-0.30469-0.074219-0.69922 0.23438-0.87891 0.30859-0.17578 0.69922-0.070313 0.87891 0.23828 0.17578 0.30859 0.070313 0.69922-0.23438 0.87891z" stroke="#000" stroke-miterlimit="10" stroke-width=".3985"/>
<path transform="matrix(1 0 0 -1 212.96 51.077)" d="m-0.73534 0.42466c0.17578 0.30859 0.070313 0.70312-0.23828 0.87891-0.30469 0.17969-0.69922 0.074218-0.87891-0.23438-0.17578-0.30859-0.070313-0.70312 0.23828-0.87891 0.30469-0.17969 0.69922-0.074218 0.87891 0.23438zm2.5859-1.4922c0.17969 0.30469 0.074218 0.69922-0.23438 0.87891-0.30859 0.17578-0.70312 0.070313-0.87891-0.23828-0.17969-0.30469-0.074218-0.69922 0.23438-0.87891 0.30859-0.17578 0.70312-0.070313 0.87891 0.23828z" stroke="#000" stroke-miterlimit="10" stroke-width=".3985"/>
<g>
<use x="224.138" y="44.074" xlink:href="#b"/>
</g>
<path transform="matrix(1 0 0 -1 177.78 48.72)" d="m23.834 11.95 9.6602-5.5781" fill="none" stroke="#000" stroke-linecap="round" stroke-miterlimit="10" stroke-width=".59758"/>
<g>
<use x="226.957" y="31.558" xlink:href="#d"/>
</g>
<g fill="#dc3445">
<use x="246.661" y="32.526" xlink:href="#c"/>
</g>
<g>
<use x="253.718" y="32.526" xlink:href="#a"/>
</g>
<path transform="matrix(1 0 0 -1 257.38 22.121)" d="m0.85038-9.375e-5c0-0.35547 0.28906-0.64453 0.64453-0.64453s0.64453 0.28906 0.64453 0.64453c0 0.35547-0.28906 0.64453-0.64453 0.64453s-0.64453-0.28906-0.64453-0.64453zm-2.9883 0c0-0.35547 0.28906-0.64453 0.64453-0.64453s0.64062 0.28906 0.64062 0.64453c0 0.35547-0.28516 0.64453-0.64062 0.64453s-0.64453-0.28906-0.64453-0.64453z" stroke="#000" stroke-miterlimit="10" stroke-width=".3985"/>
<path transform="matrix(1 0 0 -1 257.38 36.013)" d="m-0.85275 0.0012812c0 0.35547-0.28516 0.64062-0.64062 0.64062s-0.64453-0.28516-0.64453-0.64062c0-0.35547 0.28906-0.64453 0.64453-0.64453s0.64062 0.28906 0.64062 0.64453zm2.9922 0c0 0.35547-0.28906 0.64062-0.64453 0.64062s-0.64453-0.28516-0.64453-0.64062c0-0.35547 0.28906-0.64453 0.64453-0.64453s0.64453 0.28906 0.64453 0.64453z" stroke="#000" stroke-miterlimit="10" stroke-width=".3985"/>
<g>
<use x="261.051" y="32.526" xlink:href="#c"/>
</g>
<path transform="matrix(1 0 0 -1 268.11 53.788)" d="m-225.43 35.226c-5.5312 5.5312-12.457 5.5312-21.672-3.6875" fill="none" stroke="#188653" stroke-miterlimit="10" stroke-width=".59776"/>
<path transform="matrix(-.70708 .70712 .70712 .70708 23.35 19.902)" d="m5.1724-0.001907-3.4278 1.3784 1.7236-1.3756-1.7236-1.3755z" fill="#188653" stroke="#188653" stroke-linejoin="round" stroke-miterlimit="10" stroke-width=".59776"/>
<path transform="matrix(1 0 0 -1 268.11 53.788)" d="m-259.99 23.097c-10.359-2.7773-8.6602-11.133-2.0508-14.949" fill="none" stroke="#188653" stroke-miterlimit="10" stroke-width=".59776"/>
<path transform="matrix(.86601 .5 .5 -.86601 3.1913 43.982)" d="m5.1727 0.001958-3.4302 1.3709 1.7257-1.3717-1.727-1.376z" fill="#188653" stroke="#188653" stroke-linejoin="round" stroke-miterlimit="10" stroke-width=".59776"/>
<path transform="matrix(1 0 0 -1 268.11 53.788)" d="m-195.09 18.374c-4.168-15.559-13.969-15.559-16.547-5.9297" fill="none" stroke="#188653" stroke-miterlimit="10" stroke-width=".59776"/>
<path transform="matrix(-.25882 -.96591 -.96591 .25882 57.326 44.548)" d="m5.1732-0.0011064-3.4288 1.3757 1.7222-1.3755-1.723-1.3743z" fill="#188653" stroke="#188653" stroke-linejoin="round" stroke-miterlimit="10" stroke-width=".59776"/>
<path transform="matrix(1 0 0 -1 268.11 53.788)" d="m-161.51 36.808c-7.1953 12.461-17.703 12.461-27.309-4.1719" fill="none" stroke="#188653" stroke-miterlimit="10" stroke-width=".59776"/>
<path transform="matrix(-.5 .86601 .86601 .5 80.943 18.281)" d="m5.1745-6.3106e-4 -3.4322 1.3743 1.7257-1.3717-1.725-1.3794z" fill="#188653" stroke="#188653" stroke-linejoin="round" stroke-miterlimit="10" stroke-width=".59776"/>
</svg>
