<?xml version="1.0" encoding="UTF-8"?>
<svg width="82pt" height="25pt" version="1.1" viewBox="0 0 82 25" xmlns="http://www.w3.org/2000/svg" xmlns:xlink="http://www.w3.org/1999/xlink">
<defs>
<symbol id="b" overflow="visible">
<path d="m5.25-6.2344v-0.65625h-4.3125v6.8906h0.89062v-3.1406h3v-0.60938h-3v-2.5h1.2969c0.125 0 0.25 0.015625 0.35938 0.015625z"/>
</symbol>
<symbol id="a" overflow="visible">
<path d="m4.125-2.1875c0-0.32812-0.015625-1.0781-0.39062-1.6875-0.42188-0.60938-1.0156-0.71875-1.375-0.71875-1.1094 0-2.0156 1.0625-2.0156 2.3438 0 1.3125 0.96875 2.3594 2.1562 2.3594 0.625 0 1.2031-0.23438 1.5938-0.51562l-0.0625-0.65625c-0.625 0.53125-1.2969 0.5625-1.5156 0.5625-0.79688 0-1.4375-0.70312-1.4688-1.6875zm-0.5625-0.54688h-2.4688c0.15625-0.75 0.6875-1.25 1.2656-1.25 0.51562 0 1.0625 0.32812 1.2031 1.25z"/>
</symbol>
</defs>
<path transform="matrix(1,0,0,-1,23.349,5.398)" d="m-2.4662-7.1723c0 4.0898-3.3164 7.4023-7.4062 7.4023-4.0859 0-7.4023-3.3125-7.4023-7.4023 0-4.0859 3.3164-7.4023 7.4023-7.4023 4.0898 0 7.4062 3.3164 7.4062 7.4023" fill="none" stroke="#000" stroke-miterlimit="10" stroke-width=".59758"/>
<path transform="matrix(1,0,0,-1,23.349,5.398)" d="m-0.0013438-4.375e-4 -13.641 4.4336" fill="none" stroke="#000" stroke-linecap="round" stroke-miterlimit="10" stroke-width=".59758"/>
<path transform="matrix(1,0,0,-1,23.349,5.398)" d="m-13.642 4.4332-8.4297-11.605" fill="none" stroke="#000" stroke-linecap="round" stroke-miterlimit="10" stroke-width=".59758"/>
<path transform="matrix(1,0,0,-1,23.349,5.398)" d="m-22.072-7.1723 8.4297-11.602" fill="none" stroke="#000" stroke-linecap="round" stroke-miterlimit="10" stroke-width=".59758"/>
<path transform="matrix(1,0,0,-1,23.349,5.398)" d="m-13.642-18.774 13.641 4.4297" fill="none" stroke="#000" stroke-linecap="round" stroke-miterlimit="10" stroke-width=".59758"/>
<path transform="matrix(1,0,0,-1,23.349,5.398)" d="m-0.0013438-14.344v14.344" fill="none" stroke="#000" stroke-linecap="round" stroke-miterlimit="10" stroke-width=".59758"/>
<path transform="matrix(1,0,0,-1,58.651,19.741)" d="m17.275 7.1707c0 4.0898-3.3164 7.4023-7.4023 7.4023-4.0898 0-7.4062-3.3125-7.4062-7.4023 0-4.0859 3.3164-7.4023 7.4062-7.4023 4.0859 0 7.4023 3.3164 7.4023 7.4023" fill="none" stroke="#000" stroke-miterlimit="10" stroke-width=".59758"/>
<path transform="matrix(1,0,0,-1,58.651,19.741)" d="m0.0013438-0.0011875 13.641-4.4297" fill="none" stroke="#000" stroke-linecap="round" stroke-miterlimit="10" stroke-width=".59758"/>
<path transform="matrix(1,0,0,-1,58.651,19.741)" d="m13.642-4.4309 8.4297 11.602" fill="none" stroke="#000" stroke-linecap="round" stroke-miterlimit="10" stroke-width=".59758"/>
<path transform="matrix(1,0,0,-1,58.651,19.741)" d="m22.072 7.1707-8.4297 11.605" fill="none" stroke="#000" stroke-linecap="round" stroke-miterlimit="10" stroke-width=".59758"/>
<path transform="matrix(1,0,0,-1,58.651,19.741)" d="m13.642 18.776-13.641-4.4336" fill="none" stroke="#000" stroke-linecap="round" stroke-miterlimit="10" stroke-width=".59758"/>
<path transform="matrix(1,0,0,-1,58.651,19.741)" d="m0.0013438 14.343v-14.344" fill="none" stroke="#000" stroke-linecap="round" stroke-miterlimit="10" stroke-width=".59758"/>
<g fill="#dc3445">
<use x="36.088" y="16.029" xlink:href="#b"/>
<use x="41.482748" y="16.029" xlink:href="#a"/>
</g>
<path transform="matrix(1,0,0,-1,12.313,12.569)" d="m20.253-0.0013125h-20.254" fill="none" stroke="#dc3445" stroke-miterlimit="10" stroke-width=".79701"/>
<path transform="matrix(1,0,0,-1,12.313,12.569)" d="m37.121-0.0013125h20.254" fill="none" stroke="#dc3445" stroke-miterlimit="10" stroke-width=".79701"/>
</svg>
