<?xml version="1.0" encoding="UTF-8"?>
<svg width="179pt" height="57pt" version="1.1" viewBox="0 0 179 57" xmlns="http://www.w3.org/2000/svg" xmlns:xlink="http://www.w3.org/1999/xlink">
<defs>
<symbol id="n" overflow="visible">
<path d="m6.5625 0.29688v-0.6875h-3.3125v17.938h0.6875v-17.25z"/>
</symbol>
<symbol id="e" overflow="visible">
<path d="m3.9375 5.9844v-6h-0.6875v6z"/>
</symbol>
<symbol id="m" overflow="visible">
<path d="m6.5625 17.531v-0.6875h-2.625v-17.25h-0.6875v17.938z"/>
</symbol>
<symbol id="l" overflow="visible">
<path d="m3.3906 17.547v-17.938h-3.3281v0.6875h2.6406v17.25z"/>
</symbol>
<symbol id="d" overflow="visible">
<path d="m3.3906 5.9844v-6h-0.6875v6z"/>
</symbol>
<symbol id="k" overflow="visible">
<path d="m3.3906 17.531v-17.938h-0.6875v17.25h-2.6406v0.6875z"/>
</symbol>
<symbol id="j" overflow="visible">
<path d="m5.25-6.2344v-0.65625h-4.3125v6.8906h0.89062v-3.1406h3v-0.60938h-3v-2.5h1.2969c0.125 0 0.25 0.015625 0.35938 0.015625z"/>
</symbol>
<symbol id="i" overflow="visible">
<path d="m4.125-2.1875c0-0.32812-0.015625-1.0781-0.39062-1.6875-0.42188-0.60938-1.0156-0.71875-1.375-0.71875-1.1094 0-2.0156 1.0625-2.0156 2.3438 0 1.3125 0.96875 2.3594 2.1562 2.3594 0.625 0 1.2031-0.23438 1.5938-0.51562l-0.0625-0.65625c-0.625 0.53125-1.2969 0.5625-1.5156 0.5625-0.79688 0-1.4375-0.70312-1.4688-1.6875zm-0.5625-0.54688h-2.4688c0.15625-0.75 0.6875-1.25 1.2656-1.25 0.51562 0 1.0625 0.32812 1.2031 1.25z"/>
</symbol>
<symbol id="a" overflow="visible">
<path d="m5.8594-0.45312-0.0625-0.6875c-0.29688 0.20312-0.57812 0.39062-0.92188 0.5-0.3125 0.10938-0.67188 0.10938-1 0.10938-0.65625 0-1.25-0.34375-1.6562-0.85938-0.45312-0.57812-0.67188-1.3281-0.67188-2.0625 0-0.75 0.21875-1.5 0.67188-2.0938 0.40625-0.5 1-0.85938 1.6562-0.85938 0.29688 0 0.59375 0.03125 0.89062 0.125s0.57812 0.23438 0.84375 0.42188l0.125-0.8125c-0.29688-0.125-0.59375-0.21875-0.92188-0.28125-0.3125-0.0625-0.625-0.078125-0.9375-0.078125-0.89062 0-1.6875 0.39062-2.2812 1.0469-0.60938 0.6875-0.9375 1.5938-0.9375 2.5312 0 0.92188 0.32812 1.8281 0.9375 2.5156 0.59375 0.64062 1.3906 1.0469 2.2812 1.0469 0.34375 0 0.6875-0.015625 1.0312-0.10938s0.64062-0.26562 0.95312-0.45312z"/>
</symbol>
<symbol id="b" overflow="visible">
<path d="m6.0938 0v-6.9219h-0.78125v6.2188h-0.015625l-0.65625-1.375-2.4531-4.8438h-1.2344v6.9219h0.78125v-6.2031h0.015625l0.65625 1.3594 2.4531 4.8438z"/>
</symbol>
<symbol id="h" overflow="visible">
<path d="m1.5625 0v-4.4219h-0.75v4.4219zm0.078125-5.6406v-0.89062h-0.89062v0.89062z"/>
</symbol>
<symbol id="c" overflow="visible">
<path d="m6.7656-3.4375c0-2.0938-1.4375-3.7031-3.0938-3.7031-1.7031 0-3.1094 1.625-3.1094 3.7031 0 2.1094 1.4688 3.6562 3.0938 3.6562 1.6719 0 3.1094-1.5625 3.1094-3.6562zm-0.89062-0.15625c0 1.9531-1.0625 3.1719-2.2031 3.1719-1.1719 0-2.2188-1.25-2.2188-3.1719 0-1.8125 1.0938-2.9062 2.2031-2.9062 1.1562 0 2.2188 1.125 2.2188 2.9062z"/>
</symbol>
<symbol id="g" overflow="visible">
<path d="m3.6875-1.1406v-0.25h-0.78125v-3.1094c0-0.14062 0-0.20312-0.14062-0.20312-0.09375 0-0.125 0-0.1875 0.10938l-2.3125 3.2031v0.25h2.0625v0.5625c0 0.25 0 0.32812-0.57812 0.32812h-0.1875v0.25l1.0469-0.03125 1.0625 0.03125v-0.25h-0.1875c-0.57812 0-0.57812-0.078125-0.57812-0.32812v-0.5625zm-1.3125-0.25h-1.8438l1.8438-2.5469z"/>
</symbol>
<symbol id="f" overflow="visible">
<path d="m5.4688-1.7344c0-0.1875-0.17188-0.1875-0.26562-0.1875h-4.1875c-0.10938 0-0.26562 0-0.26562 0.1875 0 0.15625 0.17188 0.15625 0.26562 0.15625h4.1875c0.09375 0 0.26562 0 0.26562-0.15625z"/>
</symbol>
</defs>
<g>
<use x="-2.683" y="2.776" xlink:href="#n"/>
<use x="-2.683" y="20.311" xlink:href="#e"/>
<use x="-2.683" y="26.288" xlink:href="#e"/>
<use x="-2.683" y="32.266" xlink:href="#e"/>
<use x="-2.683" y="38.642" xlink:href="#m"/>
</g>
<g fill="#dc3445">
<use x="34.318" y="32.736" xlink:href="#j"/>
<use x="39.712748" y="32.736" xlink:href="#i"/>
</g>
<g>
<use x="56.563" y="20.891" xlink:href="#a"/>
<use x="62.929" y="20.891" xlink:href="#b"/>
</g>
<path transform="matrix(1,0,0,-1,39.23,32.736)" d="m6.2934 7.0915 9.6602 5.5781" fill="none" stroke="#dc3445" stroke-linecap="round" stroke-miterlimit="10" stroke-width=".79701"/>
<g>
<use x="36.048" y="11.475" xlink:href="#a"/>
<use x="42.413" y="11.475" xlink:href="#b"/>
</g>
<path transform="matrix(1,0,0,-1,39.23,32.736)" d="m4.6875e-4 8.5133v11.156" fill="none" stroke="#dc3445" stroke-linecap="round" stroke-miterlimit="10" stroke-width=".79701"/>
<g>
<use x="15.532" y="20.891" xlink:href="#a"/>
</g>
<path transform="matrix(1,0,0,-1,39.23,32.736)" d="m-6.2925 7.0915-9.6602 5.5781" fill="none" stroke="#dc3445" stroke-linecap="round" stroke-miterlimit="10" stroke-width=".79701"/>
<g>
<use x="8.475" y="20.891" xlink:href="#b"/>
<use x="56.563" y="44.581" xlink:href="#a"/>
<use x="62.929" y="44.581" xlink:href="#b"/>
</g>
<path transform="matrix(1,0,0,-1,39.23,32.736)" d="m6.2934-0.17416 9.6602-5.5781" fill="none" stroke="#dc3445" stroke-linecap="round" stroke-miterlimit="10" stroke-width=".79701"/>
<g>
<use x="36.047" y="53.997" xlink:href="#a"/>
<use x="42.413" y="53.997" xlink:href="#b"/>
</g>
<path transform="matrix(1,0,0,-1,39.23,32.736)" d="m4.6875e-4 -1.5921v-11.156" fill="none" stroke="#dc3445" stroke-linecap="round" stroke-miterlimit="10" stroke-width=".79701"/>
<g>
<use x="15.532" y="44.581" xlink:href="#a"/>
</g>
<path transform="matrix(1,0,0,-1,39.23,32.736)" d="m-6.2925-0.17416-9.6602-5.5781" fill="none" stroke="#dc3445" stroke-linecap="round" stroke-miterlimit="10" stroke-width=".79701"/>
<g>
<use x="8.475" y="44.581" xlink:href="#b"/>
<use x="74.501" y="2.776" xlink:href="#l"/>
<use x="74.501" y="20.31" xlink:href="#d"/>
<use x="74.501" y="26.288" xlink:href="#d"/>
<use x="74.501" y="32.266" xlink:href="#d"/>
<use x="74.501" y="38.642" xlink:href="#k"/>
<use x="81.143" y="4.84" xlink:href="#g"/>
<use x="85.114" y="4.84" xlink:href="#f"/>
</g>
<g fill="#dc3445">
<use x="143.127" y="32.736" xlink:href="#b"/>
<use x="150.18351" y="32.736" xlink:href="#h"/>
</g>
<g>
<use x="164.984" y="44.469" xlink:href="#a"/>
<use x="171.35" y="44.469" xlink:href="#c"/>
</g>
<path transform="matrix(1 0 0 -1 147.84 32.736)" d="m6.0964-0.060875 9.6641-5.5781" fill="none" stroke="#dc3445" stroke-linecap="round" stroke-miterlimit="10" stroke-width=".79701"/>
<g>
<use x="144.662" y="11.475" xlink:href="#a"/>
<use x="151.028" y="11.475" xlink:href="#c"/>
</g>
<path transform="matrix(1 0 0 -1 147.84 32.736)" d="m-0.00125 8.5133v11.156" fill="none" stroke="#dc3445" stroke-linecap="round" stroke-miterlimit="10" stroke-width=".79701"/>
<g>
<use x="122.419" y="32.736" xlink:href="#a"/>
</g>
<path transform="matrix(1 0 0 -1 147.84 32.736)" d="m-6.3138 3.4587h-11.152" fill="none" stroke="#dc3445" stroke-linecap="round" stroke-miterlimit="10" stroke-width=".79701"/>
<g>
<use x="115.085" y="32.736" xlink:href="#c"/>
<use x="133.496" y="52.076" xlink:href="#a"/>
</g>
<path transform="matrix(1 0 0 -1 147.84 32.736)" d="m-2.7942-1.3812-5.5781-9.6602" fill="none" stroke="#dc3445" stroke-linecap="round" stroke-miterlimit="10" stroke-width=".79701"/>
<g>
<use x="126.163" y="52.076" xlink:href="#c"/>
</g>
</svg>
