<?xml version="1.0" encoding="UTF-8"?>
<svg width="208pt" height="190pt" version="1.1" viewBox="0 0 208 190" xmlns="http://www.w3.org/2000/svg" xmlns:xlink="http://www.w3.org/1999/xlink">
<defs>
<symbol id="af" overflow="visible">
<path d="m7.1094-2.4688s0-0.10938-0.125-0.10938c-0.09375 0-0.10938 0.0625-0.125 0.125-0.65625 1.4688-1.0156 2.1406-2.7188 2.1406h-1.4531-0.21875c-0.10938-0.015625-0.14062-0.03125-0.14062-0.10938 0-0.03125 0-0.046875 0.046875-0.21875l0.6875-2.7344h0.98438c0.84375 0 0.84375 0.21875 0.84375 0.46875 0 0.0625 0 0.1875-0.0625 0.48438-0.015625 0.046875-0.03125 0.078125-0.03125 0.10938 0 0.046875 0.03125 0.10938 0.125 0.10938 0.078125 0 0.10938-0.046875 0.15625-0.20312l0.5625-2.3281c0-0.0625-0.046875-0.10938-0.125-0.10938s-0.10938 0.0625-0.125 0.17188c-0.21875 0.76562-0.39062 1-1.3125 1h-0.9375l0.59375-2.4062c0.09375-0.35938 0.10938-0.39062 0.54688-0.39062h1.4062c1.2031 0 1.5156 0.28125 1.5156 1.1094 0 0.23438 0 0.25-0.046875 0.53125 0 0.046875-0.015625 0.125-0.015625 0.17188s0.03125 0.125 0.125 0.125c0.10938 0 0.125-0.0625 0.14062-0.25l0.20312-1.7344c0.03125-0.26562-0.015625-0.26562-0.26562-0.26562h-5.0469c-0.1875 0-0.29688 0-0.29688 0.20312 0 0.10938 0.09375 0.10938 0.28125 0.10938 0.375 0 0.65625 0 0.65625 0.17188 0 0.046875 0 0.0625-0.0625 0.25l-1.3125 5.2656c-0.09375 0.39062-0.10938 0.46875-0.90625 0.46875-0.17188 0-0.28125 0-0.28125 0.1875 0 0.125 0.09375 0.125 0.28125 0.125h5.1719c0.23438 0 0.25-0.015625 0.3125-0.17188l0.92188-2.1562 0.046875-0.14062z"/>
</symbol>
<symbol id="ae" overflow="visible">
<path d="m3.7969-0.625v-0.39062h-0.25v0.375c0 0.078125 0 0.40625-0.25 0.40625-0.26562 0-0.26562-0.32812-0.26562-0.40625v-1.2344c0-0.35938 0-0.625-0.3125-0.89062-0.28125-0.23438-0.625-0.34375-1.0312-0.34375-0.65625 0-1.125 0.25-1.125 0.67188 0 0.23438 0.14062 0.34375 0.32812 0.34375s0.32812-0.14062 0.32812-0.32812c0-0.10938-0.0625-0.26562-0.25-0.3125 0.25-0.17188 0.65625-0.17188 0.70312-0.17188 0.39062 0 0.8125 0.25 0.8125 0.84375v0.20312c-0.375 0.015625-0.84375 0.046875-1.3438 0.23438-0.625 0.21875-0.82812 0.60938-0.82812 0.92188 0 0.59375 0.71875 0.76562 1.2188 0.76562 0.5625 0 0.89062-0.3125 1.0312-0.57812 0.03125 0.28125 0.21875 0.54688 0.53125 0.54688 0 0 0.70312 0 0.70312-0.65625zm-1.3125-0.35938c0 0.67188-0.57812 0.85938-0.89062 0.85938-0.35938 0-0.6875-0.23438-0.6875-0.57812 0-0.39062 0.32812-0.92188 1.5781-0.96875z"/>
</symbol>
<symbol id="ad" overflow="visible">
<path d="m6.4844-1.8281c0-0.85938-0.8125-1.6094-1.9219-1.7344 0.96875-0.1875 1.6562-0.82812 1.6562-1.5625 0-0.85938-0.92188-1.6875-2.2188-1.6875h-3.6406v0.3125h0.23438c0.76562 0 0.79688 0.10938 0.79688 0.46875v5.25c0 0.35938-0.03125 0.46875-0.79688 0.46875h-0.23438v0.3125h3.9062c1.3281 0 2.2188-0.89062 2.2188-1.8281zm-1.2344-3.2969c0 0.64062-0.48438 1.4688-1.5938 1.4688h-1.4375v-2.4375c0-0.34375 0.015625-0.40625 0.48438-0.40625h1.2344c0.96875 0 1.3125 0.84375 1.3125 1.375zm0.25 3.2969c0 0.70312-0.53125 1.5156-1.5469 1.5156h-1.25c-0.46875 0-0.48438-0.0625-0.48438-0.39062v-2.7188h1.875c0.98438 0 1.4062 0.92188 1.4062 1.5938z"/>
</symbol>
<symbol id="a" overflow="visible">
<path d="m4.8125-0.89062v-0.5625h-0.25v0.5625c0 0.57812-0.25 0.64062-0.35938 0.64062-0.32812 0-0.35938-0.45312-0.35938-0.5v-1.9844c0-0.42188 0-0.8125-0.35938-1.1875-0.39062-0.39062-0.89062-0.54688-1.375-0.54688-0.8125 0-1.5 0.46875-1.5 1.125 0 0.29688 0.20312 0.46875 0.45312 0.46875 0.28125 0 0.46875-0.20312 0.46875-0.45312 0-0.125-0.0625-0.45312-0.51562-0.45312 0.26562-0.35938 0.76562-0.46875 1.0781-0.46875 0.48438 0 1.0625 0.39062 1.0625 1.2812v0.35938c-0.51562 0.03125-1.2188 0.0625-1.8438 0.35938-0.75 0.34375-1 0.85938-1 1.2969 0 0.8125 0.96875 1.0625 1.5938 1.0625 0.67188 0 1.125-0.40625 1.3125-0.85938 0.046875 0.39062 0.3125 0.8125 0.78125 0.8125 0.20312 0 0.8125-0.14062 0.8125-0.95312zm-1.6562-0.5c0 0.9375-0.71875 1.2812-1.1719 1.2812-0.48438 0-0.89062-0.34375-0.89062-0.84375 0-0.54688 0.40625-1.375 2.0625-1.4375z"/>
</symbol>
<symbol id="e" overflow="visible">
<path d="m2.4688 0v-0.3125c-0.67188 0-0.70312-0.046875-0.70312-0.4375v-3.6562l-1.3906 0.10938v0.3125c0.64062 0 0.73438 0.0625 0.73438 0.54688v2.6875c0 0.4375-0.10938 0.4375-0.78125 0.4375v0.3125l1.0938-0.03125c0.35938 0 0.70312 0.015625 1.0469 0.03125zm-0.5625-6.0156c0-0.28125-0.21875-0.53125-0.51562-0.53125-0.34375 0-0.54688 0.28125-0.54688 0.53125 0 0.26562 0.23438 0.51562 0.53125 0.51562 0.34375 0 0.53125-0.26562 0.53125-0.51562z"/>
</symbol>
<symbol id="x" overflow="visible">
<path d="m5.1406 0v-0.3125c-0.53125 0-0.71875-0.015625-0.9375-0.3125l-1.3438-1.7188c0.29688-0.375 0.67188-0.85938 0.92188-1.125 0.3125-0.35938 0.71875-0.51562 1.1875-0.51562v-0.3125c-0.26562 0.015625-0.5625 0.03125-0.82812 0.03125-0.29688 0-0.82812-0.015625-0.95312-0.03125v0.3125c0.21875 0.015625 0.29688 0.14062 0.29688 0.3125 0 0.15625-0.10938 0.28125-0.15625 0.34375l-0.60938 0.78125-0.78125-1.0156c-0.09375-0.09375-0.09375-0.10938-0.09375-0.17188 0-0.15625 0.15625-0.25 0.34375-0.25v-0.3125l-1.0781 0.03125c-0.20312 0-0.67188-0.015625-0.9375-0.03125v0.3125c0.70312 0 0.70312 0 1.1719 0.60938l0.98438 1.2812c-0.46875 0.59375-0.46875 0.625-0.9375 1.1875-0.46875 0.57812-1.0625 0.59375-1.2656 0.59375v0.3125c0.25-0.015625 0.5625-0.03125 0.82812-0.03125l0.9375 0.03125v-0.3125c-0.21875-0.03125-0.28125-0.15625-0.28125-0.3125 0-0.21875 0.28125-0.54688 0.89062-1.2656l0.76562 1c0.078125 0.10938 0.20312 0.26562 0.20312 0.32812 0 0.09375-0.09375 0.25-0.35938 0.25v0.3125l1.0781-0.03125c0.26562 0 0.65625 0.015625 0.95312 0.03125z"/>
</symbol>
<symbol id="b" overflow="visible">
<path d="m3.3125-1.2344v-0.5625h-0.25v0.54688c0 0.73438-0.29688 1.1094-0.67188 1.1094-0.67188 0-0.67188-0.90625-0.67188-1.0781v-2.7656h1.4375v-0.3125h-1.4375v-1.8281h-0.25c0 0.8125-0.29688 1.875-1.2812 1.9219v0.21875h0.84375v2.75c0 1.2188 0.9375 1.3438 1.2969 1.3438 0.70312 0 0.98438-0.70312 0.98438-1.3438z"/>
</symbol>
<symbol id="d" overflow="visible">
<path d="m4.1406-1.1875c0-0.09375-0.078125-0.125-0.14062-0.125-0.078125 0-0.10938 0.0625-0.125 0.14062-0.34375 1.0312-1.25 1.0312-1.3438 1.0312-0.5 0-0.89062-0.29688-1.125-0.67188-0.29688-0.46875-0.29688-1.125-0.29688-1.4844h2.7812c0.21875 0 0.25 0 0.25-0.21875 0-0.98438-0.54688-1.9531-1.7812-1.9531-1.1562 0-2.0781 1.0312-2.0781 2.2812 0 1.3281 1.0469 2.2969 2.1875 2.2969 1.2188 0 1.6719-1.1094 1.6719-1.2969zm-0.65625-1.3281h-2.375c0.0625-1.4844 0.90625-1.7344 1.25-1.7344 1.0156 0 1.125 1.3438 1.125 1.7344z"/>
</symbol>
<symbol id="k" overflow="visible">
<path d="m8.1094 0v-0.3125c-0.51562 0-0.76562 0-0.78125-0.29688v-1.9062c0-0.85938 0-1.1562-0.3125-1.5156-0.14062-0.17188-0.46875-0.375-1.0469-0.375-0.82812 0-1.2812 0.59375-1.4375 0.98438-0.14062-0.875-0.875-0.98438-1.3281-0.98438-0.73438 0-1.2031 0.42188-1.4844 1.0469v-1.0469l-1.4062 0.10938v0.3125c0.70312 0 0.78125 0.0625 0.78125 0.5625v2.6719c0 0.4375-0.10938 0.4375-0.78125 0.4375v0.3125l1.1406-0.03125 1.1094 0.03125v-0.3125c-0.67188 0-0.78125 0-0.78125-0.4375v-1.8438c0-1.0312 0.71875-1.5938 1.3438-1.5938 0.64062 0 0.75 0.53125 0.75 1.1094v2.3281c0 0.4375-0.10938 0.4375-0.78125 0.4375v0.3125l1.125-0.03125 1.1094 0.03125v-0.3125c-0.65625 0-0.76562 0-0.76562-0.4375v-1.8438c0-1.0312 0.70312-1.5938 1.3438-1.5938 0.625 0 0.73438 0.53125 0.73438 1.1094v2.3281c0 0.4375-0.10938 0.4375-0.78125 0.4375v0.3125l1.125-0.03125z"/>
</symbol>
<symbol id="j" overflow="visible">
<path d="m5.1875-2.1562c0-1.2656-0.95312-2.25-2.0781-2.25-0.78125 0-1.2031 0.4375-1.3906 0.65625v-0.65625l-1.4375 0.10938v0.3125c0.70312 0 0.78125 0.0625 0.78125 0.5v4.6562c0 0.45312-0.10938 0.45312-0.78125 0.45312v0.3125l1.1094-0.03125 1.125 0.03125v-0.3125c-0.65625 0-0.76562 0-0.76562-0.45312v-1.7656c0.046875 0.17188 0.46875 0.70312 1.2188 0.70312 1.1875 0 2.2188-0.98438 2.2188-2.2656zm-0.82812 0c0 1.2031-0.6875 2.0469-1.4219 2.0469-0.40625 0-0.78125-0.20312-1.0469-0.60938-0.14062-0.20312-0.14062-0.21875-0.14062-0.42188v-2.2188c0.28125-0.51562 0.76562-0.79688 1.2812-0.79688 0.73438 0 1.3281 0.875 1.3281 2z"/>
</symbol>
<symbol id="c" overflow="visible">
<path d="m3.625-3.7969c0-0.3125-0.3125-0.60938-0.73438-0.60938-0.73438 0-1.0938 0.67188-1.2188 1.0938v-1.0938l-1.3906 0.10938v0.3125c0.70312 0 0.78125 0.0625 0.78125 0.5625v2.6719c0 0.4375-0.10938 0.4375-0.78125 0.4375v0.3125l1.1406-0.03125c0.39062 0 0.85938 0 1.2656 0.03125v-0.3125h-0.21875c-0.73438 0-0.75-0.10938-0.75-0.46875v-1.5312c0-0.98438 0.42188-1.875 1.1719-1.875 0.0625 0 0.09375 0 0.10938 0.015625-0.03125 0-0.23438 0.125-0.23438 0.39062s0.21875 0.42188 0.4375 0.42188c0.17188 0 0.42188-0.125 0.42188-0.4375z"/>
</symbol>
<symbol id="n" overflow="visible">
<path d="m5.3281 0v-0.3125c-0.6875 0-0.76562-0.0625-0.76562-0.5625v-3.5312l-1.4688 0.10938v0.3125c0.6875 0 0.78125 0.0625 0.78125 0.5625v1.7656c0 0.875-0.48438 1.5469-1.2188 1.5469-0.82812 0-0.875-0.46875-0.875-0.98438v-3.3125l-1.4688 0.10938v0.3125c0.78125 0 0.78125 0.03125 0.78125 0.90625v1.5c0 0.78125 0 1.6875 1.5156 1.6875 0.5625 0 1-0.28125 1.2812-0.89062v0.89062z"/>
</symbol>
<symbol id="ac" overflow="visible">
<path d="m7.1406 0v-0.3125h-0.17188c-0.59375 0-0.73438-0.0625-0.84375-0.39062l-2.1562-6.2344c-0.046875-0.125-0.078125-0.20312-0.23438-0.20312s-0.1875 0.0625-0.23438 0.20312l-2.0625 5.9531c-0.1875 0.51562-0.57812 0.67188-1.125 0.67188v0.3125l1.0156-0.03125 1.1562 0.03125v-0.3125c-0.5 0-0.75-0.25-0.75-0.5 0-0.03125 0.015625-0.14062 0.015625-0.15625l0.46875-1.2969h2.4531l0.53125 1.5156c0.015625 0.046875 0.03125 0.10938 0.03125 0.14062 0 0.29688-0.5625 0.29688-0.82812 0.29688v0.3125c0.35938-0.03125 1.0625-0.03125 1.4375-0.03125zm-2.5781-2.5781h-2.2344l1.1094-3.25z"/>
</symbol>
<symbol id="ab" overflow="visible">
<path d="m2.5469 0v-0.3125c-0.67188 0-0.78125 0-0.78125-0.4375v-6.1719l-1.4375 0.10938v0.3125c0.70312 0 0.78125 0.0625 0.78125 0.5625v5.1875c0 0.4375-0.10938 0.4375-0.78125 0.4375v0.3125l1.1094-0.03125z"/>
</symbol>
<symbol id="aa" overflow="visible">
<path d="m6.5-2.5781h-0.25c-0.25 1.5469-0.48438 2.2656-2.1875 2.2656h-1.3281c-0.46875 0-0.48438-0.0625-0.48438-0.39062v-2.6719h0.89062c0.96875 0 1.0781 0.32812 1.0781 1.1719h0.25v-2.6406h-0.25c0 0.85938-0.10938 1.1719-1.0781 1.1719h-0.89062v-2.4062c0-0.32812 0.015625-0.39062 0.48438-0.39062h1.2812c1.5312 0 1.7969 0.54688 1.9531 1.9375h0.25l-0.28125-2.25h-5.6094v0.3125h0.23438c0.76562 0 0.79688 0.10938 0.79688 0.46875v5.2188c0 0.35938-0.03125 0.46875-0.79688 0.46875h-0.23438v0.3125h5.75z"/>
</symbol>
<symbol id="m" overflow="visible">
<path d="m5.3281 0v-0.3125c-0.51562 0-0.76562 0-0.76562-0.29688v-1.9062c0-0.85938 0-1.1562-0.3125-1.5156-0.14062-0.17188-0.46875-0.375-1.0469-0.375-0.73438 0-1.2031 0.42188-1.4844 1.0469v-1.0469l-1.4062 0.10938v0.3125c0.70312 0 0.78125 0.0625 0.78125 0.5625v2.6719c0 0.4375-0.10938 0.4375-0.78125 0.4375v0.3125l1.1406-0.03125 1.1094 0.03125v-0.3125c-0.67188 0-0.78125 0-0.78125-0.4375v-1.8438c0-1.0312 0.71875-1.5938 1.3438-1.5938 0.64062 0 0.75 0.53125 0.75 1.1094v2.3281c0 0.4375-0.10938 0.4375-0.78125 0.4375v0.3125l1.125-0.03125z"/>
</symbol>
<symbol id="z" overflow="visible">
<path d="m4.8281-4.0312c0-0.17188-0.10938-0.48438-0.5-0.48438-0.20312 0-0.64062 0.0625-1.0625 0.46875-0.42188-0.32812-0.82812-0.35938-1.0469-0.35938-0.9375 0-1.625 0.6875-1.625 1.4531 0 0.4375 0.21875 0.8125 0.46875 1.0312-0.125 0.14062-0.3125 0.46875-0.3125 0.82812 0 0.3125 0.14062 0.6875 0.45312 0.89062-0.60938 0.15625-0.92188 0.59375-0.92188 0.98438 0 0.71875 0.98438 1.2656 2.2031 1.2656 1.1719 0 2.2031-0.5 2.2031-1.2812 0-0.34375-0.125-0.85938-0.64062-1.1406-0.53125-0.26562-1.1094-0.26562-1.7188-0.26562-0.25 0-0.67188 0-0.75-0.015625-0.3125-0.046875-0.51562-0.34375-0.51562-0.67188 0-0.03125 0-0.26562 0.15625-0.46875 0.39062 0.28125 0.8125 0.3125 1 0.3125 0.92188 0 1.6094-0.6875 1.6094-1.4531 0-0.375-0.15625-0.73438-0.40625-0.96875 0.35938-0.34375 0.71875-0.39062 0.89062-0.39062 0 0 0.078125 0 0.10938 0.015625-0.10938 0.03125-0.17188 0.14062-0.17188 0.26562 0 0.17188 0.14062 0.28125 0.29688 0.28125 0.09375 0 0.28125-0.0625 0.28125-0.29688zm-1.75 1.0781c0 0.26562 0 0.59375-0.15625 0.84375-0.078125 0.10938-0.3125 0.39062-0.70312 0.39062-0.875 0-0.875-1-0.875-1.2188 0-0.26562 0.015625-0.59375 0.15625-0.84375 0.078125-0.10938 0.3125-0.39062 0.71875-0.39062 0.85938 0 0.85938 0.98438 0.85938 1.2188zm1.0938 3.7344c0 0.54688-0.70312 1.0469-1.6719 1.0469-1.0156 0-1.7031-0.51562-1.7031-1.0469 0-0.45312 0.375-0.82812 0.8125-0.84375h0.59375c0.85938 0 1.9688 0 1.9688 0.84375z"/>
</symbol>
<symbol id="l" overflow="visible">
<path d="m4.1406-1.1875c0-0.09375-0.10938-0.09375-0.14062-0.09375-0.078125 0-0.10938 0.03125-0.125 0.09375-0.28125 0.92188-0.9375 1.0469-1.2969 1.0469-0.53125 0-1.4062-0.42188-1.4062-2.0312 0-1.625 0.8125-2.0469 1.3438-2.0469 0.09375 0 0.71875 0.015625 1.0625 0.375-0.40625 0.03125-0.46875 0.32812-0.46875 0.45312 0 0.26562 0.1875 0.45312 0.45312 0.45312s0.46875-0.15625 0.46875-0.46875c0-0.67188-0.76562-1.0625-1.5312-1.0625-1.25 0-2.1562 1.0781-2.1562 2.3125 0 1.2812 0.98438 2.2656 2.1406 2.2656 1.3281 0 1.6562-1.2031 1.6562-1.2969z"/>
</symbol>
<symbol id="y" overflow="visible">
<path d="m4.1406-1.1875c0-0.09375-0.078125-0.125-0.14062-0.125-0.078125 0-0.10938 0.0625-0.125 0.14062-0.34375 1.0312-1.25 1.0312-1.3438 1.0312-0.5 0-0.89062-0.29688-1.125-0.67188-0.29688-0.46875-0.29688-1.125-0.29688-1.4844h2.7812c0.21875 0 0.25 0 0.25-0.21875 0-0.98438-0.54688-1.9531-1.7812-1.9531-1.1562 0-2.0781 1.0312-2.0781 2.2812 0 1.3281 1.0469 2.2969 2.1875 2.2969 1.2188 0 1.6719-1.1094 1.6719-1.2969zm-0.65625-1.3281h-2.375c0.0625-1.4844 0.90625-1.7344 1.25-1.7344 1.0156 0 1.125 1.3438 1.125 1.7344zm-0.03125-4.0781c0-0.1875-0.1875-0.35938-0.35938-0.35938-0.15625 0-0.26562 0.10938-0.29688 0.17188l-1.2031 1.5156 0.17188 0.1875 1.5156-1.2188c0.09375-0.078125 0.17188-0.1875 0.17188-0.29688z"/>
</symbol>
<symbol id="w" overflow="visible">
<path d="m-4.5312-6.0781-2.25 0.28125v5.4688h0.3125v-0.23438c0-0.76562 0.10938-0.79688 0.46875-0.79688h5.2188c0.35938 0 0.46875 0.03125 0.46875 0.79688v0.23438h0.3125c-0.03125-0.34375-0.03125-1.125-0.03125-1.5156 0-0.40625 0-1.3125 0.03125-1.6719h-0.3125v0.32812c0 0.9375-0.125 0.9375-0.46875 0.9375h-2.4531v-0.84375c0-0.96875 0.3125-1.0625 1.1562-1.0625v-0.25h-2.6406v0.25c0.84375 0 1.1719 0.09375 1.1719 1.0625v0.84375h-2.5312c-0.32812 0-0.39062-0.015625-0.39062-0.48438v-1.1875c0-1.5 0.5625-1.75 1.9375-1.9062z"/>
</symbol>
<symbol id="s" overflow="visible">
<path d="m-3.7969-3.625c-0.3125 0-0.60938 0.3125-0.60938 0.73438 0 0.73438 0.67188 1.0938 1.0938 1.2188h-1.0938l0.10938 1.3906h0.3125c0-0.70312 0.0625-0.78125 0.5625-0.78125h2.6719c0.4375 0 0.4375 0.10938 0.4375 0.78125h0.3125l-0.03125-1.1406c0-0.39062 0-0.85938 0.03125-1.2656h-0.3125v0.21875c0 0.73438-0.10938 0.75-0.46875 0.75h-1.5312c-0.98438 0-1.875-0.42188-1.875-1.1719 0-0.0625 0-0.09375 0.015625-0.10938 0 0.03125 0.125 0.23438 0.39062 0.23438s0.42188-0.21875 0.42188-0.4375c0-0.17188-0.125-0.42188-0.4375-0.42188z"/>
</symbol>
<symbol id="f" overflow="visible">
<path d="m-0.89062-4.8125h-0.5625v0.25h0.5625c0.57812 0 0.64062 0.25 0.64062 0.35938 0 0.32812-0.45312 0.35938-0.5 0.35938h-1.9844c-0.42188 0-0.8125 0-1.1875 0.35938-0.39062 0.39062-0.54688 0.89062-0.54688 1.375 0 0.8125 0.46875 1.5 1.125 1.5 0.29688 0 0.46875-0.20312 0.46875-0.45312 0-0.28125-0.20312-0.46875-0.45312-0.46875-0.125 0-0.45312 0.0625-0.45312 0.51562-0.35938-0.26562-0.46875-0.76562-0.46875-1.0781 0-0.48438 0.39062-1.0625 1.2812-1.0625h0.35938c0.03125 0.51562 0.0625 1.2188 0.35938 1.8438 0.34375 0.75 0.85938 1 1.2969 1 0.8125 0 1.0625-0.96875 1.0625-1.5938 0-0.67188-0.40625-1.125-0.85938-1.3125 0.39062-0.046875 0.8125-0.3125 0.8125-0.78125 0-0.20312-0.14062-0.8125-0.95312-0.8125zm-0.5 1.6562c0.9375 0 1.2812 0.71875 1.2812 1.1719 0 0.48438-0.34375 0.89062-0.84375 0.89062-0.54688 0-1.375-0.40625-1.4375-2.0625z"/>
</symbol>
<symbol id="r" overflow="visible">
<path d="m-1.1875-4.1406c-0.09375 0-0.09375 0.10938-0.09375 0.14062 0 0.078125 0.03125 0.10938 0.09375 0.125 0.92188 0.28125 1.0469 0.9375 1.0469 1.2969 0 0.53125-0.42188 1.4062-2.0312 1.4062-1.625 0-2.0469-0.8125-2.0469-1.3438 0-0.09375 0.015625-0.71875 0.375-1.0625 0.03125 0.40625 0.32812 0.46875 0.45312 0.46875 0.26562 0 0.45312-0.1875 0.45312-0.45312s-0.15625-0.46875-0.46875-0.46875c-0.67188 0-1.0625 0.76562-1.0625 1.5312 0 1.25 1.0781 2.1562 2.3125 2.1562 1.1719 0 2.0938-0.8125 2.25-1.8281h0.82812c0-0.375 0.078125-0.76562 0.40625-0.76562 0.40625 0 0.40625 0.95312 0.40625 1.7031v0.125h0.26562v-0.25c0-1.0781 0-2.4062-0.67188-2.4062-0.46875 0-0.67188 0.53125-0.67188 1.0781h-0.5625c-0.10938-1.1562-1.1875-1.4531-1.2812-1.4531z"/>
</symbol>
<symbol id="q" overflow="visible">
<path d="m-0.89062-4.8125h-0.5625v0.25h0.5625c0.57812 0 0.64062 0.25 0.64062 0.35938 0 0.32812-0.45312 0.35938-0.5 0.35938h-1.9844c-0.42188 0-0.8125 0-1.1875 0.35938-0.39062 0.39062-0.54688 0.89062-0.54688 1.375 0 0.8125 0.46875 1.5 1.125 1.5 0.29688 0 0.46875-0.20312 0.46875-0.45312 0-0.28125-0.20312-0.46875-0.45312-0.46875-0.125 0-0.45312 0.0625-0.45312 0.51562-0.35938-0.26562-0.46875-0.76562-0.46875-1.0781 0-0.48438 0.39062-1.0625 1.2812-1.0625h0.35938c0.03125 0.51562 0.0625 1.2188 0.35938 1.8438 0.34375 0.75 0.85938 1 1.2969 1 0.8125 0 1.0625-0.96875 1.0625-1.5938 0-0.67188-0.40625-1.125-0.85938-1.3125 0.39062-0.046875 0.8125-0.3125 0.8125-0.78125 0-0.20312-0.14062-0.8125-0.95312-0.8125zm-0.5 1.6562c0.9375 0 1.2812 0.71875 1.2812 1.1719 0 0.48438-0.34375 0.89062-0.84375 0.89062-0.54688 0-1.375-0.40625-1.4375-2.0625zm-4.9531-1-0.14062 0.15625s0.46875 0.375 0.46875 0.8125c0 0.23438-0.14062 0.48438-0.25 0.65625-0.15625 0.26562-0.21875 0.45312-0.21875 0.625 0 0.375 0.21875 0.5625 0.76562 1.0625l0.15625-0.15625s-0.48438-0.375-0.48438-0.8125c0-0.23438 0.15625-0.48438 0.25-0.65625 0.17188-0.26562 0.23438-0.4375 0.23438-0.60938 0-0.375-0.21875-0.57812-0.78125-1.0781z"/>
</symbol>
<symbol id="h" overflow="visible">
<path d="m-2.1406-4.6875c-1.2656 0-2.3281 0.98438-2.3281 2.1875 0 1.25 1.0938 2.2188 2.3281 2.2188 1.2969 0 2.25-1.0312 2.25-2.2031 0-1.2031-0.98438-2.2031-2.25-2.2031zm-0.078125 0.8125c0.35938 0 0.90625 0 1.3438 0.21875 0.45312 0.23438 0.73438 0.67188 0.73438 1.1562 0 0.4375-0.20312 0.875-0.67188 1.1406-0.4375 0.25-1.0469 0.25-1.4062 0.25-0.39062 0-0.92188 0-1.3594-0.23438-0.45312-0.26562-0.67188-0.73438-0.67188-1.1406 0-0.4375 0.21875-0.85938 0.65625-1.125 0.42188-0.26562 1-0.26562 1.375-0.26562z"/>
</symbol>
<symbol id="p" overflow="visible">
<path d="m0-5.25h-0.3125c0 0.6875-0.0625 0.78125-0.5625 0.78125h-6.0469l0.10938 1.4219h0.3125c0-0.6875 0.0625-0.76562 0.5625-0.76562h2.1562c-0.35938 0.28125-0.625 0.71875-0.625 1.25 0 1.1719 0.98438 2.2188 2.2656 2.2188 1.2656 0 2.25-0.96875 2.25-2.1094 0-0.64062-0.34375-1.0781-0.65625-1.3281h0.65625zm-1.1719 1.4688c0.17188 0 0.1875 0 0.35938 0.10938 0.48438 0.29688 0.70312 0.73438 0.70312 1.1719 0 0.45312-0.26562 0.8125-0.64062 1.0469-0.40625 0.25-0.96875 0.28125-1.3906 0.28125-0.35938 0-0.95312-0.015625-1.4062-0.29688-0.3125-0.21875-0.64062-0.59375-0.64062-1.1406 0-0.34375 0.15625-0.76562 0.59375-1.0625 0.17188-0.10938 0.1875-0.10938 0.375-0.10938z"/>
</symbol>
<symbol id="g" overflow="visible">
<path d="m-1.2812-3.5938c-0.51562 0-0.82812 0.29688-0.9375 0.42188-0.32812 0.32812-0.40625 0.71875-0.48438 1.1406-0.10938 0.5625-0.23438 1.2188-0.8125 1.2188-0.35938 0-0.76562-0.25-0.76562-1.1094 0-1.0938 0.90625-1.1562 1.2031-1.1719 0.09375 0 0.09375-0.10938 0.09375-0.10938 0-0.14062-0.046875-0.14062-0.23438-0.14062h-1.0156c-0.15625 0-0.23438 0-0.23438 0.10938 0 0.046875 0 0.078125 0.125 0.20312 0.03125 0.03125 0.125 0.125 0.15625 0.17188-0.28125 0.375-0.28125 0.78125-0.28125 0.9375 0 1.2188 0.67188 1.5938 1.2344 1.5938 0.34375 0 0.625-0.15625 0.84375-0.42188 0.25-0.32812 0.3125-0.60938 0.45312-1.3281 0.046875-0.21875 0.20312-1.0312 0.92188-1.0312 0.5 0 0.90625 0.34375 0.90625 1.125 0 0.84375-0.5625 1.2031-1.4219 1.3906-0.125 0.03125-0.15625 0.03125-0.15625 0.14062 0 0.125 0.0625 0.125 0.23438 0.125h1.3281c0.17188 0 0.23438 0 0.23438-0.10938 0-0.046875-0.015625-0.0625-0.20312-0.25-0.015625-0.015625-0.03125-0.015625-0.21875-0.20312 0.40625-0.4375 0.42188-0.89062 0.42188-1.0938 0-1.1406-0.67188-1.6094-1.3906-1.6094z"/>
</symbol>
<symbol id="o" overflow="visible">
<path d="m0-8.1094h-0.3125c0 0.51562 0 0.76562-0.29688 0.78125h-1.9062c-0.85938 0-1.1562 0-1.5156 0.3125-0.17188 0.14062-0.375 0.46875-0.375 1.0469 0 0.82812 0.59375 1.2812 0.98438 1.4375-0.875 0.14062-0.98438 0.875-0.98438 1.3281 0 0.73438 0.42188 1.2031 1.0469 1.4844h-1.0469l0.10938 1.4062h0.3125c0-0.70312 0.0625-0.78125 0.5625-0.78125h2.6719c0.4375 0 0.4375 0.10938 0.4375 0.78125h0.3125l-0.03125-1.1406 0.03125-1.1094h-0.3125c0 0.67188 0 0.78125-0.4375 0.78125h-1.8438c-1.0312 0-1.5938-0.71875-1.5938-1.3438 0-0.64062 0.53125-0.75 1.1094-0.75h2.3281c0.4375 0 0.4375 0.10938 0.4375 0.78125h0.3125l-0.03125-1.125 0.03125-1.1094h-0.3125c0 0.65625 0 0.76562-0.4375 0.76562h-1.8438c-1.0312 0-1.5938-0.70312-1.5938-1.3438 0-0.625 0.53125-0.73438 1.1094-0.73438h2.3281c0.4375 0 0.4375 0.10938 0.4375 0.78125h0.3125l-0.03125-1.125z"/>
</symbol>
<symbol id="i" overflow="visible">
<path d="m0-2.5469h-0.3125c0 0.67188 0 0.78125-0.4375 0.78125h-6.1719l0.10938 1.4375h0.3125c0-0.70312 0.0625-0.78125 0.5625-0.78125h5.1875c0.4375 0 0.4375 0.10938 0.4375 0.78125h0.3125l-0.03125-1.1094z"/>
</symbol>
<symbol id="v" overflow="visible">
<path d="m-1.1875-4.1406c-0.09375 0-0.125 0.078125-0.125 0.14062 0 0.078125 0.0625 0.10938 0.14062 0.125 1.0312 0.34375 1.0312 1.25 1.0312 1.3438 0 0.5-0.29688 0.89062-0.67188 1.125-0.46875 0.29688-1.125 0.29688-1.4844 0.29688v-2.7812c0-0.21875 0-0.25-0.21875-0.25-0.98438 0-1.9531 0.54688-1.9531 1.7812 0 1.1562 1.0312 2.0781 2.2812 2.0781 1.3281 0 2.2969-1.0469 2.2969-2.1875 0-1.2188-1.1094-1.6719-1.2969-1.6719zm-1.3281 0.65625v2.375c-1.4844-0.0625-1.7344-0.90625-1.7344-1.25 0-1.0156 1.3438-1.125 1.7344-1.125zm-4.0781 0.03125c-0.1875 0-0.35938 0.1875-0.35938 0.35938 0 0.15625 0.10938 0.26562 0.17188 0.29688l1.5156 1.2031 0.1875-0.17188-1.2188-1.5156c-0.078125-0.09375-0.1875-0.17188-0.29688-0.17188z"/>
</symbol>
<symbol id="u" overflow="visible">
<path d="m-1.1875-4.1406c-0.09375 0-0.09375 0.10938-0.09375 0.14062 0 0.078125 0.03125 0.10938 0.09375 0.125 0.92188 0.28125 1.0469 0.9375 1.0469 1.2969 0 0.53125-0.42188 1.4062-2.0312 1.4062-1.625 0-2.0469-0.8125-2.0469-1.3438 0-0.09375 0.015625-0.71875 0.375-1.0625 0.03125 0.40625 0.32812 0.46875 0.45312 0.46875 0.26562 0 0.45312-0.1875 0.45312-0.45312s-0.15625-0.46875-0.46875-0.46875c-0.67188 0-1.0625 0.76562-1.0625 1.5312 0 1.25 1.0781 2.1562 2.3125 2.1562 1.2812 0 2.2656-0.98438 2.2656-2.1406 0-1.3281-1.2031-1.6562-1.2969-1.6562z"/>
</symbol>
<symbol id="t" overflow="visible">
<path d="m0-5.3281h-0.3125c0 0.6875-0.0625 0.76562-0.5625 0.76562h-3.5312l0.10938 1.4688h0.3125c0-0.6875 0.0625-0.78125 0.5625-0.78125h1.7656c0.875 0 1.5469 0.48438 1.5469 1.2188 0 0.82812-0.46875 0.875-0.98438 0.875h-3.3125l0.10938 1.4688h0.3125c0-0.78125 0.03125-0.78125 0.90625-0.78125h1.5c0.78125 0 1.6875 0 1.6875-1.5156 0-0.5625-0.28125-1-0.89062-1.2812h0.89062z"/>
</symbol>
<clipPath id="aj">
<path d="m124 71h83.621v91.391h-83.621z"/>
</clipPath>
<clipPath id="ai">
<path d="m124 110h83.621v52.391h-83.621z"/>
</clipPath>
<clipPath id="ah">
<path d="m13.352 1h194.27v161.39h-194.27z"/>
</clipPath>
<clipPath id="ag">
<path d="m13.352 49h194.27v113.39h-194.27z"/>
</clipPath>
</defs>
<path transform="matrix(1 0 0 -1 13.353 162.39)" d="m111.01 3.75e-4v161.39" fill="none" stroke="#bfbfbf" stroke-miterlimit="10" stroke-width=".3985"/>
<path transform="matrix(1 0 0 -1 13.353 162.39)" d="m111.01 3.75e-4v4.25m0 157.14v-4.25" fill="none" stroke="#7f7f7f" stroke-miterlimit="10" stroke-width=".19925"/>
<path transform="matrix(1 0 0 -1 13.353 162.39)" d="m-0.0014375 3.75e-4v161.39h194.27v-161.39z" fill="none" stroke="#000" stroke-miterlimit="10" stroke-width=".3985"/>
<g clip-path="url(#aj)">
<path d="m124.36 71.59 0.74609 0.45312 1.8633 1.25 1.8633 1.3281 1.8594 1.4414 1.8633 1.5 1.8633 1.6016 1.8633 1.6484 1.8633 1.7227 1.8594 1.8047 1.8633 1.8281 1.8633 1.8828 1.8633 1.9414 1.8633 1.9297 1.8633 2.0117 1.8594 1.9883 1.8633 2 1.8633 2.0625 1.8633 2.0078 1.8633 2.0234 1.8633 2.0195 1.8594 2.0156 1.8633 1.9961 1.8633 1.9805 1.8633 1.9531 1.8633 1.9297 1.8594 1.9023 1.8633 1.8672 1.8633 1.8281 1.8633 1.7969 1.8633 1.75 1.8633 1.7148 1.8594 1.6641 1.8633 1.625 1.8633 1.5742 1.8633 1.5312 1.8633 1.4766 1.8633 1.4336 1.8594 1.3828 1.8633 1.332 1.8633 1.2852 1.8633 1.2344 1.8633 1.1875 1.8594 1.1367 1.8633 1.0859 1.8633 1.043 0.55859 0.30078v16.328h-83.258z" fill="#fbeaec"/>
</g>
<g clip-path="url(#ai)">
<path d="m124.36 110.61 0.74609 1.5391 1.8633 3.6875 1.8633 3.5156 1.8594 3.3438 1.8633 3.168 1.8633 2.9922 1.8633 2.8164 1.8633 2.6445 1.8594 2.4766 1.8633 2.3086 1.8633 2.1445 1.8633 1.9922 1.8633 1.8438 1.8633 1.6992 1.8594 1.5625 1.8633 1.4336 1.8633 1.3125 1.8633 1.1992 1.8633 1.0898 1.8633 0.98828 1.8594 0.89453 1.8633 0.8125 1.8633 0.72656 1.8633 0.65625 1.8633 0.58984 1.8594 0.52344 1.8633 0.46875 1.8633 0.41797 1.8633 0.37109 1.8633 0.32812 1.8633 0.29297 1.8594 0.25391 1.8633 0.22656 1.8633 0.19531 1.8633 0.17578 1.8633 0.15234 1.8633 0.12891 1.8594 0.11719 1.8633 0.097656 1.8633 0.085937 1.8633 0.078126 1.8633 0.0625 1.8594 0.054687 1.8633 0.046875 1.8633 0.042969 0.55859 0.011719v0.21094h-83.258z" fill="#e6f0fe"/>
</g>
<g>
<use x="118.45" y="172.719" xlink:href="#af"/>
<use x="125.805" y="174.213" xlink:href="#ae"/>
</g>
<path transform="matrix(1 0 0 -1 13.353 162.39)" d="m79.674 137.37h89.027v15.441h-89.027z" fill="#fff" stroke="#000" stroke-miterlimit="10" stroke-width=".3985"/>
<g>
<use x="96.346" y="19.769" xlink:href="#ad"/>
<use x="103.40251" y="19.769" xlink:href="#a"/>
<use x="108.38381" y="19.769" xlink:href="#e"/>
<use x="111.15142" y="19.769" xlink:href="#x"/>
<use x="116.40968" y="19.769" xlink:href="#a"/>
<use x="124.708526" y="19.769" xlink:href="#b"/>
<use x="128.582981" y="19.769" xlink:href="#d"/>
<use x="133.011357" y="19.769" xlink:href="#k"/>
<use x="141.313191" y="19.769" xlink:href="#j"/>
<use x="147.127365" y="19.769" xlink:href="#d"/>
<use x="151.55574" y="19.769" xlink:href="#c"/>
<use x="155.458091" y="19.769" xlink:href="#a"/>
<use x="160.439391" y="19.769" xlink:href="#b"/>
<use x="164.313846" y="19.769" xlink:href="#n"/>
<use x="169.849067" y="19.769" xlink:href="#c"/>
<use x="173.751417" y="19.769" xlink:href="#a"/>
</g>
<path transform="matrix(1 0 0 -1 13.353 162.39)" d="m66.608 145.09h12.867" fill="none" stroke="#7f7f7f" stroke-miterlimit="10" stroke-width=".19925"/>
<path transform="matrix(1 0 0 -1 13.353 162.39)" d="m106.43 105.04h83.078v15.441h-83.078z" fill="#fff" stroke="#000" stroke-miterlimit="10" stroke-width=".3985"/>
<g>
<use x="123.105" y="52.099" xlink:href="#ac"/>
<use x="130.57695" y="52.099" xlink:href="#ab"/>
<use x="133.34456" y="52.099" xlink:href="#b"/>
<use x="137.219015" y="52.099" xlink:href="#a"/>
<use x="145.517861" y="52.099" xlink:href="#b"/>
<use x="149.392316" y="52.099" xlink:href="#d"/>
<use x="153.820692" y="52.099" xlink:href="#k"/>
<use x="162.122527" y="52.099" xlink:href="#j"/>
<use x="167.9367" y="52.099" xlink:href="#d"/>
<use x="172.365076" y="52.099" xlink:href="#c"/>
<use x="176.267426" y="52.099" xlink:href="#a"/>
<use x="181.248726" y="52.099" xlink:href="#b"/>
<use x="185.123181" y="52.099" xlink:href="#n"/>
<use x="190.658402" y="52.099" xlink:href="#c"/>
<use x="194.560752" y="52.099" xlink:href="#a"/>
</g>
<path transform="matrix(1 0 0 -1 13.353 162.39)" d="m97.135 95.739 27.184 9.0977" fill="none" stroke="#7f7f7f" stroke-miterlimit="10" stroke-width=".19925"/>
<g clip-path="url(#ah)">
<path transform="matrix(1 0 0 -1 13.353 162.39)" d="m-0.0014375 3.75e-4 1.8633 0.35938 1.8633 1.0742 1.8633 1.7812 1.8633 2.4648 1.8594 3.125 1.8633 3.75 1.8633 4.332 1.8633 4.8711 1.8633 5.3633 1.8633 5.7891 1.8594 6.168 1.8633 6.4727 1.8633 6.7109 1.8633 6.8945 1.8633 6.9922 1.8633 7.0391 1.8594 7.0078 1.8633 6.9141 1.8633 6.7578 1.8633 6.5391 1.8633 6.2734 1.8633 5.9375 1.8594 5.5742 1.8633 5.1484 1.8633 4.7031 1.8633 4.2148 1.8633 3.6992 1.8594 3.1641 1.8633 2.6328 1.8633 2.0703 1.8633 1.543 1.8633 0.96875 1.8633 0.38281 1.8594-0.09375 1.8633-0.64844 1.8633-1.1094 1.8633-1.6055 1.8633-2.0898 1.8633-2.4414 1.8594-2.8164 1.8633-3.2344 1.8633-3.4922 1.8633-3.7656 1.8633-4.0078 1.8594-4.2617 1.8633-4.4141 1.8633-4.5156 1.8633-4.6445 1.8633-4.625 1.8633-4.7617 1.8594-4.7266 1.8633-4.7148 1.8633-4.6758 1.8633-4.6055 1.8633-4.5156 1.8633-4.4102 1.8594-4.293 1.8633-4.1523 1.8633-4.0039 1.8633-3.8516 1.8633-3.6875 1.8633-3.5156 1.8594-3.3438 1.8633-3.168 1.8633-2.9922 1.8633-2.8164 1.8633-2.6445 1.8594-2.4766 1.8633-2.3086 1.8633-2.1445 1.8633-1.9922 1.8633-1.8438 1.8633-1.6992 1.8594-1.5625 1.8633-1.4336 1.8633-1.3125 1.8633-1.1992 1.8633-1.0898 1.8633-0.98828 1.8594-0.89453 1.8633-0.8125 1.8633-0.72656 1.8633-0.65625 1.8633-0.58984 1.8594-0.52344 1.8633-0.46875 1.8633-0.41797 1.8633-0.37109 1.8633-0.32812 1.8633-0.29297 1.8594-0.25391 1.8633-0.22656 1.8633-0.19531 1.8633-0.17578 1.8633-0.15234 1.8633-0.12891 1.8594-0.11719 1.8633-0.097656 1.8633-0.085938 1.8633-0.078125 1.8633-0.0625 1.8594-0.054687 1.8633-0.046875 1.8633-0.042969 1.8633-0.035156 3.7266-0.054688 1.8594-0.019531 1.8633-0.019531 1.8633-0.015625 5.5898-0.035156 1.8594-0.0078125 1.8633-0.0039062 1.8633-0.0078125 3.7266-0.0078125h1.8594l3.7266-0.0078125h3.7266l1.8633-0.0039062h5.5859l1.8633-0.0039062h39.113" fill="none" stroke="#0c6dfd" stroke-miterlimit="10" stroke-width="1.1955"/>
</g>
<g clip-path="url(#ag)">
<path transform="matrix(1 0 0 -1 13.353 162.39)" d="m-0.0014375 3.75e-4 1.8633 0.10156 1.8633 0.30078 1.8633 0.50391 1.8633 0.69922 1.8594 0.89844 1.8633 1.082 1.8633 1.2734 1.8633 1.4492 1.8633 1.625 1.8633 1.7891 1.8594 1.9453 1.8633 2.0977 1.8633 2.2344 1.8633 2.3633 1.8633 2.4805 1.8633 2.5898 1.8594 2.6875 1.8633 2.7656 1.8633 2.8438 1.8633 2.9023 1.8633 2.9492 1.8633 2.9844 1.8594 3.0078 3.7266 6.0234 1.8633 3 1.8633 2.9766 1.8594 2.9297 1.8633 2.8867 1.8633 2.8242 1.8633 2.75 1.8633 2.6719 1.8633 2.582 1.8594 2.4805 1.8633 2.3789 1.8633 2.2539 1.8633 2.1289 1.8633 2.0117 1.8633 1.8672 1.8594 1.7305 1.8633 1.5859 1.8633 1.4375 1.8633 1.2773 1.8633 1.1289 1.8594 0.97656 1.8633 0.82031 1.8633 0.66406 1.8633 0.51953 1.8633 0.35547 1.8633 0.18359 1.8594 0.070313 1.8633-0.10547 1.8633-0.24609 1.8633-0.39453 1.8633-0.53125 1.8633-0.64062 1.8594-0.78125 1.8633-0.90625 1.8633-1.0039 1.8633-1.1328 1.8633-1.25 1.8633-1.3281 1.8594-1.4414 1.8633-1.5 1.8633-1.6016 1.8633-1.6484 1.8633-1.7227 1.8594-1.8047 1.8633-1.8281 1.8633-1.8828 1.8633-1.9414 1.8633-1.9297 1.8633-2.0117 1.8594-1.9883 1.8633-2 1.8633-2.0625 1.8633-2.0078 1.8633-2.0234 1.8633-2.0195 1.8594-2.0156 1.8633-1.9961 1.8633-1.9805 1.8633-1.9531 1.8633-1.9297 1.8594-1.9023 1.8633-1.8672 1.8633-1.8281 1.8633-1.7969 1.8633-1.75 1.8633-1.7148 1.8594-1.6641 1.8633-1.625 1.8633-1.5742 1.8633-1.5312 1.8633-1.4766 1.8633-1.4336 1.8594-1.3828 1.8633-1.332 1.8633-1.2852 1.8633-1.2344 1.8633-1.1875 1.8594-1.1367 1.8633-1.0859 1.8633-1.043 1.8633-0.99609 1.8633-0.94922 1.8633-0.90625 1.8594-0.86328 1.8633-0.81641 1.8633-0.78125 1.8633-0.73438 1.8633-0.69922 1.8633-0.66406 1.8594-0.625 1.8633-0.58984 1.8633-0.55469 1.8633-0.52734 1.8633-0.49219 1.8594-0.46484 1.8633-0.43359 1.8633-0.40625 1.8633-0.38281 1.8633-0.35938 1.8633-0.33594 1.8594-0.3125 1.8633-0.28906 1.8633-0.27344 1.8633-0.25 1.8633-0.23828 1.8633-0.21484 1.8594-0.20312 1.8633-0.1875 1.8633-0.17578 1.8633-0.16016 1.8633-0.14844 1.8633-0.13672 1.8594-0.12891 1.8633-0.11719 1.8633-0.10547 1.8633-0.097657 1.8633-0.09375 1.8594-0.082031 1.8633-0.078125 3.7266-0.13281 1.8633-0.058594 1.8633-0.054688 1.8594-0.046875 1.8633-0.042968" fill="none" stroke="#dc3445" stroke-miterlimit="10" stroke-width="1.1955"/>
</g>
<g>
<use x="75.534" y="187.917" xlink:href="#aa"/>
<use x="82.314546" y="187.917" xlink:href="#m"/>
<use x="87.849766" y="187.917" xlink:href="#d"/>
<use x="92.278142" y="187.917" xlink:href="#c"/>
<use x="96.180492" y="187.917" xlink:href="#z"/>
<use x="101.161792" y="187.917" xlink:href="#e"/>
<use x="103.929403" y="187.917" xlink:href="#a"/>
<use x="112.228248" y="187.917" xlink:href="#l"/>
<use x="116.656624" y="187.917" xlink:href="#e"/>
<use x="119.424234" y="187.917" xlink:href="#m"/>
<use x="124.959455" y="187.917" xlink:href="#y"/>
<use x="129.387831" y="187.917" xlink:href="#b"/>
<use x="133.262286" y="187.917" xlink:href="#e"/>
<use x="136.029896" y="187.917" xlink:href="#l"/>
<use x="140.458272" y="187.917" xlink:href="#a"/>
<use x="7.896" y="127.774" xlink:href="#w"/>
<use x="7.896" y="122.097311" xlink:href="#s"/>
<use x="7.896" y="118.19496" xlink:href="#f"/>
<use x="7.896" y="113.21366" xlink:href="#r"/>
<use x="7.896" y="108.785284" xlink:href="#q"/>
<use x="7.896" y="103.803984" xlink:href="#h"/>
<use x="7.896" y="95.505139" xlink:href="#p"/>
<use x="7.896" y="89.969918" xlink:href="#f"/>
<use x="7.896" y="84.988618" xlink:href="#g"/>
<use x="7.896" y="77.740827" xlink:href="#o"/>
<use x="7.896" y="69.438992" xlink:href="#h"/>
<use x="7.896" y="64.457692" xlink:href="#i"/>
<use x="7.896" y="61.690082" xlink:href="#v"/>
<use x="7.896" y="57.261706" xlink:href="#u"/>
<use x="7.896" y="52.83333" xlink:href="#t"/>
<use x="7.896" y="47.29811" xlink:href="#i"/>
<use x="7.896" y="44.530499" xlink:href="#f"/>
<use x="7.896" y="39.549199" xlink:href="#g"/>
</g>
</svg>
