<?xml version="1.0" encoding="UTF-8"?>
<svg width="215pt" height="175pt" version="1.1" viewBox="0 0 215 175" xmlns="http://www.w3.org/2000/svg" xmlns:xlink="http://www.w3.org/1999/xlink">
<defs>
<symbol id="an" overflow="visible">
<path d="m7.2969-0.875c0-0.0625 0-0.17188-0.125-0.17188-0.10938 0-0.10938 0.09375-0.125 0.15625-0.0625 0.71875-0.40625 0.89062-0.65625 0.89062-0.48438 0-0.5625-0.51562-0.70312-1.4375l-0.14062-0.79688c-0.17188-0.64062-0.65625-0.96875-1.2031-1.1562 0.95312-0.23438 1.7344-0.84375 1.7344-1.625 0-0.95312-1.1406-1.7969-2.5938-1.7969h-3.1406v0.3125h0.25c0.76562 0 0.78125 0.10938 0.78125 0.46875v5.25c0 0.35938-0.015625 0.46875-0.78125 0.46875h-0.25v0.3125c0.35938-0.03125 1.0781-0.03125 1.4531-0.03125 0.39062 0 1.1094 0 1.4688 0.03125v-0.3125h-0.25c-0.76562 0-0.78125-0.10938-0.78125-0.46875v-2.5156h1.1406c0.15625 0 0.57812 0 0.9375 0.34375 0.375 0.34375 0.375 0.65625 0.375 1.3281 0 0.64062 0 1.0469 0.40625 1.4219 0.40625 0.35938 0.95312 0.42188 1.25 0.42188 0.78125 0 0.95312-0.8125 0.95312-1.0938zm-2.25-4.1406c0 0.6875-0.23438 1.5-1.7031 1.5h-1.1094v-2.5781c0-0.23438 0-0.35938 0.21875-0.39062 0.09375-0.015625 0.39062-0.015625 0.59375-0.015625 0.89062 0 2 0.046875 2 1.4844z"/>
</symbol>
<symbol id="c" overflow="visible">
<path d="m4.1406-1.1875c0-0.09375-0.078125-0.125-0.14062-0.125-0.078125 0-0.10938 0.0625-0.125 0.14062-0.34375 1.0312-1.25 1.0312-1.3438 1.0312-0.5 0-0.89062-0.29688-1.125-0.67188-0.29688-0.46875-0.29688-1.125-0.29688-1.4844h2.7812c0.21875 0 0.25 0 0.25-0.21875 0-0.98438-0.54688-1.9531-1.7812-1.9531-1.1562 0-2.0781 1.0312-2.0781 2.2812 0 1.3281 1.0469 2.2969 2.1875 2.2969 1.2188 0 1.6719-1.1094 1.6719-1.2969zm-0.65625-1.3281h-2.375c0.0625-1.4844 0.90625-1.7344 1.25-1.7344 1.0156 0 1.125 1.3438 1.125 1.7344z"/>
</symbol>
<symbol id="d" overflow="visible">
<path d="m4.8125-0.89062v-0.5625h-0.25v0.5625c0 0.57812-0.25 0.64062-0.35938 0.64062-0.32812 0-0.35938-0.45312-0.35938-0.5v-1.9844c0-0.42188 0-0.8125-0.35938-1.1875-0.39062-0.39062-0.89062-0.54688-1.375-0.54688-0.8125 0-1.5 0.46875-1.5 1.125 0 0.29688 0.20312 0.46875 0.45312 0.46875 0.28125 0 0.46875-0.20312 0.46875-0.45312 0-0.125-0.0625-0.45312-0.51562-0.45312 0.26562-0.35938 0.76562-0.46875 1.0781-0.46875 0.48438 0 1.0625 0.39062 1.0625 1.2812v0.35938c-0.51562 0.03125-1.2188 0.0625-1.8438 0.35938-0.75 0.34375-1 0.85938-1 1.2969 0 0.8125 0.96875 1.0625 1.5938 1.0625 0.67188 0 1.125-0.40625 1.3125-0.85938 0.046875 0.39062 0.3125 0.8125 0.78125 0.8125 0.20312 0 0.8125-0.14062 0.8125-0.95312zm-1.6562-0.5c0 0.9375-0.71875 1.2812-1.1719 1.2812-0.48438 0-0.89062-0.34375-0.89062-0.84375 0-0.54688 0.40625-1.375 2.0625-1.4375z"/>
</symbol>
<symbol id="q" overflow="visible">
<path d="m4.8281-4.0312c0-0.17188-0.10938-0.48438-0.5-0.48438-0.20312 0-0.64062 0.0625-1.0625 0.46875-0.42188-0.32812-0.82812-0.35938-1.0469-0.35938-0.9375 0-1.625 0.6875-1.625 1.4531 0 0.4375 0.21875 0.8125 0.46875 1.0312-0.125 0.14062-0.3125 0.46875-0.3125 0.82812 0 0.3125 0.14062 0.6875 0.45312 0.89062-0.60938 0.15625-0.92188 0.59375-0.92188 0.98438 0 0.71875 0.98438 1.2656 2.2031 1.2656 1.1719 0 2.2031-0.5 2.2031-1.2812 0-0.34375-0.125-0.85938-0.64062-1.1406-0.53125-0.26562-1.1094-0.26562-1.7188-0.26562-0.25 0-0.67188 0-0.75-0.015625-0.3125-0.046875-0.51562-0.34375-0.51562-0.67188 0-0.03125 0-0.26562 0.15625-0.46875 0.39062 0.28125 0.8125 0.3125 1 0.3125 0.92188 0 1.6094-0.6875 1.6094-1.4531 0-0.375-0.15625-0.73438-0.40625-0.96875 0.35938-0.34375 0.71875-0.39062 0.89062-0.39062 0 0 0.078125 0 0.10938 0.015625-0.10938 0.03125-0.17188 0.14062-0.17188 0.26562 0 0.17188 0.14062 0.28125 0.29688 0.28125 0.09375 0 0.28125-0.0625 0.28125-0.29688zm-1.75 1.0781c0 0.26562 0 0.59375-0.15625 0.84375-0.078125 0.10938-0.3125 0.39062-0.70312 0.39062-0.875 0-0.875-1-0.875-1.2188 0-0.26562 0.015625-0.59375 0.15625-0.84375 0.078125-0.10938 0.3125-0.39062 0.71875-0.39062 0.85938 0 0.85938 0.98438 0.85938 1.2188zm1.0938 3.7344c0 0.54688-0.70312 1.0469-1.6719 1.0469-1.0156 0-1.7031-0.51562-1.7031-1.0469 0-0.45312 0.375-0.82812 0.8125-0.84375h0.59375c0.85938 0 1.9688 0 1.9688 0.84375z"/>
</symbol>
<symbol id="ad" overflow="visible">
<path d="m5.3281 0v-0.3125c-0.51562 0-0.76562 0-0.76562-0.29688v-1.9062c0-0.85938 0-1.1562-0.3125-1.5156-0.14062-0.17188-0.46875-0.375-1.0469-0.375-0.73438 0-1.2031 0.42188-1.4844 1.0469v-1.0469l-1.4062 0.10938v0.3125c0.70312 0 0.78125 0.0625 0.78125 0.5625v2.6719c0 0.4375-0.10938 0.4375-0.78125 0.4375v0.3125l1.1406-0.03125 1.1094 0.03125v-0.3125c-0.67188 0-0.78125 0-0.78125-0.4375v-1.8438c0-1.0312 0.71875-1.5938 1.3438-1.5938 0.64062 0 0.75 0.53125 0.75 1.1094v2.3281c0 0.4375-0.10938 0.4375-0.78125 0.4375v0.3125l1.125-0.03125z"/>
</symbol>
<symbol id="i" overflow="visible">
<path d="m3.3125-1.2344v-0.5625h-0.25v0.54688c0 0.73438-0.29688 1.1094-0.67188 1.1094-0.67188 0-0.67188-0.90625-0.67188-1.0781v-2.7656h1.4375v-0.3125h-1.4375v-1.8281h-0.25c0 0.8125-0.29688 1.875-1.2812 1.9219v0.21875h0.84375v2.75c0 1.2188 0.9375 1.3438 1.2969 1.3438 0.70312 0 0.98438-0.70312 0.98438-1.3438z"/>
</symbol>
<symbol id="e" overflow="visible">
<path d="m3.5938-1.2812c0-0.51562-0.29688-0.82812-0.42188-0.9375-0.32812-0.32812-0.71875-0.40625-1.1406-0.48438-0.5625-0.10938-1.2188-0.23438-1.2188-0.8125 0-0.35938 0.25-0.76562 1.1094-0.76562 1.0938 0 1.1562 0.90625 1.1719 1.2031 0 0.09375 0.10938 0.09375 0.10938 0.09375 0.14062 0 0.14062-0.046875 0.14062-0.23438v-1.0156c0-0.15625 0-0.23438-0.10938-0.23438-0.046875 0-0.078125 0-0.20312 0.125-0.03125 0.03125-0.125 0.125-0.17188 0.15625-0.375-0.28125-0.78125-0.28125-0.9375-0.28125-1.2188 0-1.5938 0.67188-1.5938 1.2344 0 0.34375 0.15625 0.625 0.42188 0.84375 0.32812 0.25 0.60938 0.3125 1.3281 0.45312 0.21875 0.046875 1.0312 0.20312 1.0312 0.92188 0 0.5-0.34375 0.90625-1.125 0.90625-0.84375 0-1.2031-0.5625-1.3906-1.4219-0.03125-0.125-0.03125-0.15625-0.14062-0.15625-0.125 0-0.125 0.0625-0.125 0.23438v1.3281c0 0.17188 0 0.23438 0.10938 0.23438 0.046875 0 0.0625-0.015625 0.25-0.20312 0.015625-0.015625 0.015625-0.03125 0.20312-0.21875 0.4375 0.40625 0.89062 0.42188 1.0938 0.42188 1.1406 0 1.6094-0.67188 1.6094-1.3906z"/>
</symbol>
<symbol id="h" overflow="visible">
<path d="m7.1406 0v-0.3125h-0.17188c-0.59375 0-0.73438-0.0625-0.84375-0.39062l-2.1562-6.2344c-0.046875-0.125-0.078125-0.20312-0.23438-0.20312s-0.1875 0.0625-0.23438 0.20312l-2.0625 5.9531c-0.1875 0.51562-0.57812 0.67188-1.125 0.67188v0.3125l1.0156-0.03125 1.1562 0.03125v-0.3125c-0.5 0-0.75-0.25-0.75-0.5 0-0.03125 0.015625-0.14062 0.015625-0.15625l0.46875-1.2969h2.4531l0.53125 1.5156c0.015625 0.046875 0.03125 0.10938 0.03125 0.14062 0 0.29688-0.5625 0.29688-0.82812 0.29688v0.3125c0.35938-0.03125 1.0625-0.03125 1.4375-0.03125zm-2.5781-2.5781h-2.2344l1.1094-3.25z"/>
</symbol>
<symbol id="p" overflow="visible">
<path d="m4.9688-2.5469v-0.21875h-4.9688v0.21875z"/>
</symbol>
<symbol id="k" overflow="visible">
<path d="m6.4844-1.8281c0-0.85938-0.8125-1.6094-1.9219-1.7344 0.96875-0.1875 1.6562-0.82812 1.6562-1.5625 0-0.85938-0.92188-1.6875-2.2188-1.6875h-3.6406v0.3125h0.23438c0.76562 0 0.79688 0.10938 0.79688 0.46875v5.25c0 0.35938-0.03125 0.46875-0.79688 0.46875h-0.23438v0.3125h3.9062c1.3281 0 2.2188-0.89062 2.2188-1.8281zm-1.2344-3.2969c0 0.64062-0.48438 1.4688-1.5938 1.4688h-1.4375v-2.4375c0-0.34375 0.015625-0.40625 0.48438-0.40625h1.2344c0.96875 0 1.3125 0.84375 1.3125 1.375zm0.25 3.2969c0 0.70312-0.53125 1.5156-1.5469 1.5156h-1.25c-0.46875 0-0.48438-0.0625-0.48438-0.39062v-2.7188h1.875c0.98438 0 1.4062 0.92188 1.4062 1.5938z"/>
</symbol>
<symbol id="s" overflow="visible">
<path d="m7.1875-2.5c0-0.1875-0.1875-0.1875-0.32812-0.1875h-2.7812v-2.7969c0-0.14062 0-0.32812-0.20312-0.32812s-0.20312 0.1875-0.20312 0.32812v2.7969h-2.7812c-0.14062 0-0.32812 0-0.32812 0.1875 0 0.20312 0.1875 0.20312 0.32812 0.20312h2.7812v2.7969c0 0.14062 0 0.32812 0.20312 0.32812s0.20312-0.1875 0.20312-0.32812v-2.7969h2.7812c0.14062 0 0.32812 0 0.32812-0.20312z"/>
</symbol>
<symbol id="g" overflow="visible">
<path d="m6.625-2.3281c0-0.09375 0-0.17188-0.125-0.17188-0.10938 0-0.10938 0.0625-0.125 0.17188-0.078125 1.4219-1.1406 2.2344-2.2344 2.2344-0.60938 0-2.5625-0.32812-2.5625-3.3125 0-2.9688 1.9531-3.3125 2.5625-3.3125 1.0781 0 1.9688 0.90625 2.1719 2.3594 0.015625 0.14062 0.015625 0.17188 0.15625 0.17188 0.15625 0 0.15625-0.03125 0.15625-0.23438v-2.3594c0-0.17188 0-0.25-0.10938-0.25-0.03125 0-0.078125 0-0.15625 0.125l-0.5 0.73438c-0.35938-0.35938-0.875-0.85938-1.8281-0.85938-1.875 0-3.4688 1.5938-3.4688 3.625 0 2.0625 1.6094 3.625 3.4688 3.625 1.625 0 2.5938-1.3906 2.5938-2.5469z"/>
</symbol>
<symbol id="b" overflow="visible">
<path d="m4.6875-2.1406c0-1.2656-0.98438-2.3281-2.1875-2.3281-1.25 0-2.2188 1.0938-2.2188 2.3281 0 1.2969 1.0312 2.25 2.2031 2.25 1.2031 0 2.2031-0.98438 2.2031-2.25zm-0.8125-0.078125c0 0.35938 0 0.90625-0.21875 1.3438-0.23438 0.45312-0.67188 0.73438-1.1562 0.73438-0.4375 0-0.875-0.20312-1.1406-0.67188-0.25-0.4375-0.25-1.0469-0.25-1.4062 0-0.39062 0-0.92188 0.23438-1.3594 0.26562-0.45312 0.73438-0.67188 1.1406-0.67188 0.4375 0 0.85938 0.21875 1.125 0.65625 0.26562 0.42188 0.26562 1 0.26562 1.375z"/>
</symbol>
<symbol id="am" overflow="visible">
<path d="m8.1094 0v-0.3125c-0.51562 0-0.76562 0-0.78125-0.29688v-1.9062c0-0.85938 0-1.1562-0.3125-1.5156-0.14062-0.17188-0.46875-0.375-1.0469-0.375-0.82812 0-1.2812 0.59375-1.4375 0.98438-0.14062-0.875-0.875-0.98438-1.3281-0.98438-0.73438 0-1.2031 0.42188-1.4844 1.0469v-1.0469l-1.4062 0.10938v0.3125c0.70312 0 0.78125 0.0625 0.78125 0.5625v2.6719c0 0.4375-0.10938 0.4375-0.78125 0.4375v0.3125l1.1406-0.03125 1.1094 0.03125v-0.3125c-0.67188 0-0.78125 0-0.78125-0.4375v-1.8438c0-1.0312 0.71875-1.5938 1.3438-1.5938 0.64062 0 0.75 0.53125 0.75 1.1094v2.3281c0 0.4375-0.10938 0.4375-0.78125 0.4375v0.3125l1.125-0.03125 1.1094 0.03125v-0.3125c-0.65625 0-0.76562 0-0.76562-0.4375v-1.8438c0-1.0312 0.70312-1.5938 1.3438-1.5938 0.625 0 0.73438 0.53125 0.73438 1.1094v2.3281c0 0.4375-0.10938 0.4375-0.78125 0.4375v0.3125l1.125-0.03125z"/>
</symbol>
<symbol id="al" overflow="visible">
<path d="m5.1875-2.1562c0-1.2656-0.95312-2.25-2.0781-2.25-0.78125 0-1.2031 0.4375-1.3906 0.65625v-0.65625l-1.4375 0.10938v0.3125c0.70312 0 0.78125 0.0625 0.78125 0.5v4.6562c0 0.45312-0.10938 0.45312-0.78125 0.45312v0.3125l1.1094-0.03125 1.125 0.03125v-0.3125c-0.65625 0-0.76562 0-0.76562-0.45312v-1.7656c0.046875 0.17188 0.46875 0.70312 1.2188 0.70312 1.1875 0 2.2188-0.98438 2.2188-2.2656zm-0.82812 0c0 1.2031-0.6875 2.0469-1.4219 2.0469-0.40625 0-0.78125-0.20312-1.0469-0.60938-0.14062-0.20312-0.14062-0.21875-0.14062-0.42188v-2.2188c0.28125-0.51562 0.76562-0.79688 1.2812-0.79688 0.73438 0 1.3281 0.875 1.3281 2z"/>
</symbol>
<symbol id="ak" overflow="visible">
<path d="m2.5469 0v-0.3125c-0.67188 0-0.78125 0-0.78125-0.4375v-6.1719l-1.4375 0.10938v0.3125c0.70312 0 0.78125 0.0625 0.78125 0.5625v5.1875c0 0.4375-0.10938 0.4375-0.78125 0.4375v0.3125l1.1094-0.03125z"/>
</symbol>
<symbol id="aj" overflow="visible">
<path d="m5.1406 0v-0.3125c-0.53125 0-0.71875-0.015625-0.9375-0.3125l-1.3438-1.7188c0.29688-0.375 0.67188-0.85938 0.92188-1.125 0.3125-0.35938 0.71875-0.51562 1.1875-0.51562v-0.3125c-0.26562 0.015625-0.5625 0.03125-0.82812 0.03125-0.29688 0-0.82812-0.015625-0.95312-0.03125v0.3125c0.21875 0.015625 0.29688 0.14062 0.29688 0.3125 0 0.15625-0.10938 0.28125-0.15625 0.34375l-0.60938 0.78125-0.78125-1.0156c-0.09375-0.09375-0.09375-0.10938-0.09375-0.17188 0-0.15625 0.15625-0.25 0.34375-0.25v-0.3125l-1.0781 0.03125c-0.20312 0-0.67188-0.015625-0.9375-0.03125v0.3125c0.70312 0 0.70312 0 1.1719 0.60938l0.98438 1.2812c-0.46875 0.59375-0.46875 0.625-0.9375 1.1875-0.46875 0.57812-1.0625 0.59375-1.2656 0.59375v0.3125c0.25-0.015625 0.5625-0.03125 0.82812-0.03125l0.9375 0.03125v-0.3125c-0.21875-0.03125-0.28125-0.15625-0.28125-0.3125 0-0.21875 0.28125-0.54688 0.89062-1.2656l0.76562 1c0.078125 0.10938 0.20312 0.26562 0.20312 0.32812 0 0.09375-0.09375 0.25-0.35938 0.25v0.3125l1.0781-0.03125c0.26562 0 0.65625 0.015625 0.95312 0.03125z"/>
</symbol>
<symbol id="ai" overflow="visible">
<path d="m2.4688 0v-0.3125c-0.67188 0-0.70312-0.046875-0.70312-0.4375v-3.6562l-1.3906 0.10938v0.3125c0.64062 0 0.73438 0.0625 0.73438 0.54688v2.6875c0 0.4375-0.10938 0.4375-0.78125 0.4375v0.3125l1.0938-0.03125c0.35938 0 0.70312 0.015625 1.0469 0.03125zm-0.5625-6.0156c0-0.28125-0.21875-0.53125-0.51562-0.53125-0.34375 0-0.54688 0.28125-0.54688 0.53125 0 0.26562 0.23438 0.51562 0.53125 0.51562 0.34375 0 0.53125-0.26562 0.53125-0.51562z"/>
</symbol>
<symbol id="ah" overflow="visible">
<path d="m5.0625-3.9844v-0.3125c-0.23438 0.015625-0.51562 0.03125-0.75 0.03125l-0.85938-0.03125v0.3125c0.35938 0 0.46875 0.23438 0.46875 0.42188 0 0.09375-0.015625 0.14062-0.046875 0.25l-1.0312 2.5312-1.1094-2.7812c-0.0625-0.125-0.0625-0.17188-0.0625-0.17188 0-0.25 0.39062-0.25 0.57812-0.25v-0.3125l-1.0938 0.03125c-0.26562 0-0.67188-0.015625-0.96875-0.03125v0.3125c0.625 0 0.67188 0.0625 0.79688 0.35938l1.4375 3.5469c0.0625 0.14062 0.078125 0.1875 0.20312 0.1875 0.14062 0 0.17188-0.09375 0.21875-0.1875l1.2969-3.2344c0.09375-0.23438 0.26562-0.67188 0.92188-0.67188z"/>
</symbol>
<symbol id="j" overflow="visible">
<path d="m5.25 0v-0.3125c-0.6875 0-0.78125-0.0625-0.78125-0.5625v-6.0469l-1.4219 0.10938v0.3125c0.6875 0 0.76562 0.0625 0.76562 0.5625v2.1562c-0.28125-0.35938-0.71875-0.625-1.25-0.625-1.1719 0-2.2188 0.98438-2.2188 2.2656 0 1.2656 0.96875 2.25 2.1094 2.25 0.64062 0 1.0781-0.34375 1.3281-0.65625v0.65625zm-1.4688-1.1719c0 0.17188 0 0.1875-0.10938 0.35938-0.29688 0.48438-0.73438 0.70312-1.1719 0.70312-0.45312 0-0.8125-0.26562-1.0469-0.64062-0.25-0.40625-0.28125-0.96875-0.28125-1.3906 0-0.35938 0.015625-0.95312 0.29688-1.4062 0.21875-0.3125 0.59375-0.64062 1.1406-0.64062 0.34375 0 0.76562 0.15625 1.0625 0.59375 0.10938 0.17188 0.10938 0.1875 0.10938 0.375z"/>
</symbol>
<symbol id="r" overflow="visible">
<path d="m6.2188-4.9531c0-0.98438-0.98438-1.8594-2.3438-1.8594h-3.5312v0.3125h0.25c0.76562 0 0.78125 0.10938 0.78125 0.46875v5.25c0 0.35938-0.015625 0.46875-0.78125 0.46875h-0.25v0.3125c0.35938-0.03125 1.0938-0.03125 1.4688-0.03125s1.125 0 1.4844 0.03125v-0.3125h-0.25c-0.76562 0-0.78125-0.10938-0.78125-0.46875v-2.375h1.6875c1.1875 0 2.2656-0.79688 2.2656-1.7969zm-1.0312 0c0 0.46875 0 1.5469-1.5781 1.5469h-1.375v-2.6875c0-0.34375 0.015625-0.40625 0.48438-0.40625h0.89062c1.5781 0 1.5781 1.0625 1.5781 1.5469z"/>
</symbol>
<symbol id="f" overflow="visible">
<path d="m3.625-3.7969c0-0.3125-0.3125-0.60938-0.73438-0.60938-0.73438 0-1.0938 0.67188-1.2188 1.0938v-1.0938l-1.3906 0.10938v0.3125c0.70312 0 0.78125 0.0625 0.78125 0.5625v2.6719c0 0.4375-0.10938 0.4375-0.78125 0.4375v0.3125l1.1406-0.03125c0.39062 0 0.85938 0 1.2656 0.03125v-0.3125h-0.21875c-0.73438 0-0.75-0.10938-0.75-0.46875v-1.5312c0-0.98438 0.42188-1.875 1.1719-1.875 0.0625 0 0.09375 0 0.10938 0.015625-0.03125 0-0.23438 0.125-0.23438 0.39062s0.21875 0.42188 0.4375 0.42188c0.17188 0 0.42188-0.125 0.42188-0.4375z"/>
</symbol>
<symbol id="ag" overflow="visible">
<path d="m5.3281 0v-0.3125c-0.6875 0-0.76562-0.0625-0.76562-0.5625v-3.5312l-1.4688 0.10938v0.3125c0.6875 0 0.78125 0.0625 0.78125 0.5625v1.7656c0 0.875-0.48438 1.5469-1.2188 1.5469-0.82812 0-0.875-0.46875-0.875-0.98438v-3.3125l-1.4688 0.10938v0.3125c0.78125 0 0.78125 0.03125 0.78125 0.90625v1.5c0 0.78125 0 1.6875 1.5156 1.6875 0.5625 0 1-0.28125 1.2812-0.89062v0.89062z"/>
</symbol>
<symbol id="af" overflow="visible">
<path d="m4.1406-1.1875c0-0.09375-0.10938-0.09375-0.14062-0.09375-0.078125 0-0.10938 0.03125-0.125 0.09375-0.28125 0.92188-0.9375 1.0469-1.2969 1.0469-0.53125 0-1.4062-0.42188-1.4062-2.0312 0-1.625 0.8125-2.0469 1.3438-2.0469 0.09375 0 0.71875 0.015625 1.0625 0.375-0.40625 0.03125-0.46875 0.32812-0.46875 0.45312 0 0.26562 0.1875 0.45312 0.45312 0.45312s0.46875-0.15625 0.46875-0.46875c0-0.67188-0.76562-1.0625-1.5312-1.0625-1.25 0-2.1562 1.0781-2.1562 2.3125 0 1.1719 0.8125 2.0938 1.8281 2.25v0.82812c0.375 0 0.76562 0.078125 0.76562 0.40625 0 0.40625-0.95312 0.40625-1.7031 0.40625h-0.125v0.26562h0.25c1.0781 0 2.4062 0 2.4062-0.67188 0-0.46875-0.53125-0.67188-1.0781-0.67188v-0.5625c1.1562-0.10938 1.4531-1.1875 1.4531-1.2812z"/>
</symbol>
<symbol id="ae" overflow="visible">
<path d="m4.8125-0.89062v-0.5625h-0.25v0.5625c0 0.57812-0.25 0.64062-0.35938 0.64062-0.32812 0-0.35938-0.45312-0.35938-0.5v-1.9844c0-0.42188 0-0.8125-0.35938-1.1875-0.39062-0.39062-0.89062-0.54688-1.375-0.54688-0.8125 0-1.5 0.46875-1.5 1.125 0 0.29688 0.20312 0.46875 0.45312 0.46875 0.28125 0 0.46875-0.20312 0.46875-0.45312 0-0.125-0.0625-0.45312-0.51562-0.45312 0.26562-0.35938 0.76562-0.46875 1.0781-0.46875 0.48438 0 1.0625 0.39062 1.0625 1.2812v0.35938c-0.51562 0.03125-1.2188 0.0625-1.8438 0.35938-0.75 0.34375-1 0.85938-1 1.2969 0 0.8125 0.96875 1.0625 1.5938 1.0625 0.67188 0 1.125-0.40625 1.3125-0.85938 0.046875 0.39062 0.3125 0.8125 0.78125 0.8125 0.20312 0 0.8125-0.14062 0.8125-0.95312zm-1.6562-0.5c0 0.9375-0.71875 1.2812-1.1719 1.2812-0.48438 0-0.89062-0.34375-0.89062-0.84375 0-0.54688 0.40625-1.375 2.0625-1.4375zm1-4.9531-0.15625-0.14062s-0.375 0.46875-0.8125 0.46875c-0.23438 0-0.48438-0.14062-0.65625-0.25-0.26562-0.15625-0.45312-0.21875-0.625-0.21875-0.375 0-0.5625 0.21875-1.0625 0.76562l0.15625 0.15625s0.375-0.48438 0.8125-0.48438c0.23438 0 0.48438 0.15625 0.65625 0.25 0.26562 0.17188 0.4375 0.23438 0.60938 0.23438 0.375 0 0.57812-0.21875 1.0781-0.78125z"/>
</symbol>
<symbol id="a" overflow="visible">
<path d="m1.9062-2.5c0-0.28125-0.23438-0.51562-0.51562-0.51562-0.29688 0-0.53125 0.23438-0.53125 0.51562 0 0.29688 0.23438 0.53125 0.53125 0.53125 0.28125 0 0.51562-0.23438 0.51562-0.53125z"/>
</symbol>
<symbol id="ac" overflow="visible">
<path d="m7.1094-2.4688s0-0.10938-0.125-0.10938c-0.09375 0-0.10938 0.0625-0.125 0.125-0.65625 1.4688-1.0156 2.1406-2.7188 2.1406h-1.4531-0.21875c-0.10938-0.015625-0.14062-0.03125-0.14062-0.10938 0-0.03125 0-0.046875 0.046875-0.21875l0.6875-2.7344h0.98438c0.84375 0 0.84375 0.21875 0.84375 0.46875 0 0.0625 0 0.1875-0.0625 0.48438-0.015625 0.046875-0.03125 0.078125-0.03125 0.10938 0 0.046875 0.03125 0.10938 0.125 0.10938 0.078125 0 0.10938-0.046875 0.15625-0.20312l0.5625-2.3281c0-0.0625-0.046875-0.10938-0.125-0.10938s-0.10938 0.0625-0.125 0.17188c-0.21875 0.76562-0.39062 1-1.3125 1h-0.9375l0.59375-2.4062c0.09375-0.35938 0.10938-0.39062 0.54688-0.39062h1.4062c1.2031 0 1.5156 0.28125 1.5156 1.1094 0 0.23438 0 0.25-0.046875 0.53125 0 0.046875-0.015625 0.125-0.015625 0.17188s0.03125 0.125 0.125 0.125c0.10938 0 0.125-0.0625 0.14062-0.25l0.20312-1.7344c0.03125-0.26562-0.015625-0.26562-0.26562-0.26562h-5.0469c-0.1875 0-0.29688 0-0.29688 0.20312 0 0.10938 0.09375 0.10938 0.28125 0.10938 0.375 0 0.65625 0 0.65625 0.17188 0 0.046875 0 0.0625-0.0625 0.25l-1.3125 5.2656c-0.09375 0.39062-0.10938 0.46875-0.90625 0.46875-0.17188 0-0.28125 0-0.28125 0.1875 0 0.125 0.09375 0.125 0.28125 0.125h5.1719c0.23438 0 0.25-0.015625 0.3125-0.17188l0.92188-2.1562 0.046875-0.14062z"/>
</symbol>
<symbol id="ab" overflow="visible">
<path d="m3.7969-0.625v-0.39062h-0.25v0.375c0 0.078125 0 0.40625-0.25 0.40625-0.26562 0-0.26562-0.32812-0.26562-0.40625v-1.2344c0-0.35938 0-0.625-0.3125-0.89062-0.28125-0.23438-0.625-0.34375-1.0312-0.34375-0.65625 0-1.125 0.25-1.125 0.67188 0 0.23438 0.14062 0.34375 0.32812 0.34375s0.32812-0.14062 0.32812-0.32812c0-0.10938-0.0625-0.26562-0.25-0.3125 0.25-0.17188 0.65625-0.17188 0.70312-0.17188 0.39062 0 0.8125 0.25 0.8125 0.84375v0.20312c-0.375 0.015625-0.84375 0.046875-1.3438 0.23438-0.625 0.21875-0.82812 0.60938-0.82812 0.92188 0 0.59375 0.71875 0.76562 1.2188 0.76562 0.5625 0 0.89062-0.3125 1.0312-0.57812 0.03125 0.28125 0.21875 0.54688 0.53125 0.54688 0 0 0.70312 0 0.70312-0.65625zm-1.3125-0.35938c0 0.67188-0.57812 0.85938-0.89062 0.85938-0.35938 0-0.6875-0.23438-0.6875-0.57812 0-0.39062 0.32812-0.92188 1.5781-0.96875z"/>
</symbol>
<symbol id="aa" overflow="visible">
<path d="m-2.5781-6.5v0.25c1.5469 0.25 2.2656 0.48438 2.2656 2.1875v1.3281c0 0.46875-0.0625 0.48438-0.39062 0.48438h-2.6719v-0.89062c0-0.96875 0.32812-1.0781 1.1719-1.0781v-0.25h-2.6406v0.25c0.85938 0 1.1719 0.10938 1.1719 1.0781v0.89062h-2.4062c-0.32812 0-0.39062-0.015625-0.39062-0.48438v-1.2812c0-1.5312 0.54688-1.7969 1.9375-1.9531v-0.25l-2.25 0.28125v5.6094h0.3125v-0.23438c0-0.76562 0.10938-0.79688 0.46875-0.79688h5.2188c0.35938 0 0.46875 0.03125 0.46875 0.79688v0.23438h0.3125v-5.75z"/>
</symbol>
<symbol id="o" overflow="visible">
<path d="m0-5.3281h-0.3125c0 0.51562 0 0.76562-0.29688 0.76562h-1.9062c-0.85938 0-1.1562 0-1.5156 0.3125-0.17188 0.14062-0.375 0.46875-0.375 1.0469 0 0.73438 0.42188 1.2031 1.0469 1.4844h-1.0469l0.10938 1.4062h0.3125c0-0.70312 0.0625-0.78125 0.5625-0.78125h2.6719c0.4375 0 0.4375 0.10938 0.4375 0.78125h0.3125l-0.03125-1.1406 0.03125-1.1094h-0.3125c0 0.67188 0 0.78125-0.4375 0.78125h-1.8438c-1.0312 0-1.5938-0.71875-1.5938-1.3438 0-0.64062 0.53125-0.75 1.1094-0.75h2.3281c0.4375 0 0.4375 0.10938 0.4375 0.78125h0.3125l-0.03125-1.125z"/>
</symbol>
<symbol id="n" overflow="visible">
<path d="m-1.1875-4.1406c-0.09375 0-0.125 0.078125-0.125 0.14062 0 0.078125 0.0625 0.10938 0.14062 0.125 1.0312 0.34375 1.0312 1.25 1.0312 1.3438 0 0.5-0.29688 0.89062-0.67188 1.125-0.46875 0.29688-1.125 0.29688-1.4844 0.29688v-2.7812c0-0.21875 0-0.25-0.21875-0.25-0.98438 0-1.9531 0.54688-1.9531 1.7812 0 1.1562 1.0312 2.0781 2.2812 2.0781 1.3281 0 2.2969-1.0469 2.2969-2.1875 0-1.2188-1.1094-1.6719-1.2969-1.6719zm-1.3281 0.65625v2.375c-1.4844-0.0625-1.7344-0.90625-1.7344-1.25 0-1.0156 1.3438-1.125 1.7344-1.125z"/>
</symbol>
<symbol id="w" overflow="visible">
<path d="m-3.7969-3.625c-0.3125 0-0.60938 0.3125-0.60938 0.73438 0 0.73438 0.67188 1.0938 1.0938 1.2188h-1.0938l0.10938 1.3906h0.3125c0-0.70312 0.0625-0.78125 0.5625-0.78125h2.6719c0.4375 0 0.4375 0.10938 0.4375 0.78125h0.3125l-0.03125-1.1406c0-0.39062 0-0.85938 0.03125-1.2656h-0.3125v0.21875c0 0.73438-0.10938 0.75-0.46875 0.75h-1.5312c-0.98438 0-1.875-0.42188-1.875-1.1719 0-0.0625 0-0.09375 0.015625-0.10938 0 0.03125 0.125 0.23438 0.39062 0.23438s0.42188-0.21875 0.42188-0.4375c0-0.17188-0.125-0.42188-0.4375-0.42188z"/>
</symbol>
<symbol id="v" overflow="visible">
<path d="m-4.0312-4.8281c-0.17188 0-0.48438 0.10938-0.48438 0.5 0 0.20312 0.0625 0.64062 0.46875 1.0625-0.32812 0.42188-0.35938 0.82812-0.35938 1.0469 0 0.9375 0.6875 1.625 1.4531 1.625 0.4375 0 0.8125-0.21875 1.0312-0.46875 0.14062 0.125 0.46875 0.3125 0.82812 0.3125 0.3125 0 0.6875-0.14062 0.89062-0.45312 0.15625 0.60938 0.59375 0.92188 0.98438 0.92188 0.71875 0 1.2656-0.98438 1.2656-2.2031 0-1.1719-0.5-2.2031-1.2812-2.2031-0.34375 0-0.85938 0.125-1.1406 0.64062-0.26562 0.53125-0.26562 1.1094-0.26562 1.7188 0 0.25 0 0.67188-0.015625 0.75-0.046875 0.3125-0.34375 0.51562-0.67188 0.51562-0.03125 0-0.26562 0-0.46875-0.15625 0.28125-0.39062 0.3125-0.8125 0.3125-1 0-0.92188-0.6875-1.6094-1.4531-1.6094-0.375 0-0.73438 0.15625-0.96875 0.40625-0.34375-0.35938-0.39062-0.71875-0.39062-0.89062 0 0 0-0.078125 0.015625-0.10938 0.03125 0.10938 0.14062 0.17188 0.26562 0.17188 0.17188 0 0.28125-0.14062 0.28125-0.29688 0-0.09375-0.0625-0.28125-0.29688-0.28125zm1.0781 1.75c0.26562 0 0.59375 0 0.84375 0.15625 0.10938 0.078125 0.39062 0.3125 0.39062 0.70312 0 0.875-1 0.875-1.2188 0.875-0.26562 0-0.59375-0.015625-0.84375-0.15625-0.10938-0.078125-0.39062-0.3125-0.39062-0.71875 0-0.85938 0.98438-0.85938 1.2188-0.85938zm3.7344-1.0938c0.54688 0 1.0469 0.70312 1.0469 1.6719 0 1.0156-0.51562 1.7031-1.0469 1.7031-0.45312 0-0.82812-0.375-0.84375-0.8125v-0.59375c0-0.85938 0-1.9688 0.84375-1.9688z"/>
</symbol>
<symbol id="m" overflow="visible">
<path d="m0-2.4688h-0.3125c0 0.67188-0.046875 0.70312-0.4375 0.70312h-3.6562l0.10938 1.3906h0.3125c0-0.64062 0.0625-0.73438 0.54688-0.73438h2.6875c0.4375 0 0.4375 0.10938 0.4375 0.78125h0.3125l-0.03125-1.0938c0-0.35938 0.015625-0.70312 0.03125-1.0469zm-6.0156 0.5625c-0.28125 0-0.53125 0.21875-0.53125 0.51562 0 0.34375 0.28125 0.54688 0.53125 0.54688 0.26562 0 0.51562-0.23438 0.51562-0.53125 0-0.34375-0.26562-0.53125-0.51562-0.53125z"/>
</symbol>
<symbol id="l" overflow="visible">
<path d="m-0.89062-4.8125h-0.5625v0.25h0.5625c0.57812 0 0.64062 0.25 0.64062 0.35938 0 0.32812-0.45312 0.35938-0.5 0.35938h-1.9844c-0.42188 0-0.8125 0-1.1875 0.35938-0.39062 0.39062-0.54688 0.89062-0.54688 1.375 0 0.8125 0.46875 1.5 1.125 1.5 0.29688 0 0.46875-0.20312 0.46875-0.45312 0-0.28125-0.20312-0.46875-0.45312-0.46875-0.125 0-0.45312 0.0625-0.45312 0.51562-0.35938-0.26562-0.46875-0.76562-0.46875-1.0781 0-0.48438 0.39062-1.0625 1.2812-1.0625h0.35938c0.03125 0.51562 0.0625 1.2188 0.35938 1.8438 0.34375 0.75 0.85938 1 1.2969 1 0.8125 0 1.0625-0.96875 1.0625-1.5938 0-0.67188-0.40625-1.125-0.85938-1.3125 0.39062-0.046875 0.8125-0.3125 0.8125-0.78125 0-0.20312-0.14062-0.8125-0.95312-0.8125zm-0.5 1.6562c0.9375 0 1.2812 0.71875 1.2812 1.1719 0 0.48438-0.34375 0.89062-0.84375 0.89062-0.54688 0-1.375-0.40625-1.4375-2.0625z"/>
</symbol>
<symbol id="u" overflow="visible">
<path d="m-2.1562-5.1875c-1.2656 0-2.25 0.95312-2.25 2.0781 0 0.78125 0.4375 1.2031 0.65625 1.3906h-0.65625l0.10938 1.4375h0.3125c0-0.70312 0.0625-0.78125 0.5-0.78125h4.6562c0.45312 0 0.45312 0.10938 0.45312 0.78125h0.3125l-0.03125-1.1094 0.03125-1.125h-0.3125c0 0.65625 0 0.76562-0.45312 0.76562h-1.7656c0.17188-0.046875 0.70312-0.46875 0.70312-1.2188 0-1.1875-0.98438-2.2188-2.2656-2.2188zm0 0.82812c1.2031 0 2.0469 0.6875 2.0469 1.4219 0 0.40625-0.20312 0.78125-0.60938 1.0469-0.20312 0.14062-0.21875 0.14062-0.42188 0.14062h-2.2188c-0.51562-0.28125-0.79688-0.76562-0.79688-1.2812 0-0.73438 0.875-1.3281 2-1.3281z"/>
</symbol>
<symbol id="t" overflow="visible">
<path d="m-2.1406-4.6875c-1.2656 0-2.3281 0.98438-2.3281 2.1875 0 1.25 1.0938 2.2188 2.3281 2.2188 1.2969 0 2.25-1.0312 2.25-2.2031 0-1.2031-0.98438-2.2031-2.25-2.2031zm-0.078125 0.8125c0.35938 0 0.90625 0 1.3438 0.21875 0.45312 0.23438 0.73438 0.67188 0.73438 1.1562 0 0.4375-0.20312 0.875-0.67188 1.1406-0.4375 0.25-1.0469 0.25-1.4062 0.25-0.39062 0-0.92188 0-1.3594-0.23438-0.45312-0.26562-0.67188-0.73438-0.67188-1.1406 0-0.4375 0.21875-0.85938 0.65625-1.125 0.42188-0.26562 1-0.26562 1.375-0.26562z"/>
</symbol>
<symbol id="z" overflow="visible">
<path d="m-1.2344-3.3125h-0.5625v0.25h0.54688c0.73438 0 1.1094 0.29688 1.1094 0.67188 0 0.67188-0.90625 0.67188-1.0781 0.67188h-2.7656v-1.4375h-0.3125v1.4375h-1.8281v0.25c0.8125 0 1.875 0.29688 1.9219 1.2812h0.21875v-0.84375h2.75c1.2188 0 1.3438-0.9375 1.3438-1.2969 0-0.70312-0.70312-0.98438-1.3438-0.98438z"/>
</symbol>
<symbol id="y" overflow="visible">
<path d="m-1.1875-4.1406c-0.09375 0-0.09375 0.10938-0.09375 0.14062 0 0.078125 0.03125 0.10938 0.09375 0.125 0.92188 0.28125 1.0469 0.9375 1.0469 1.2969 0 0.53125-0.42188 1.4062-2.0312 1.4062-1.625 0-2.0469-0.8125-2.0469-1.3438 0-0.09375 0.015625-0.71875 0.375-1.0625 0.03125 0.40625 0.32812 0.46875 0.45312 0.46875 0.26562 0 0.45312-0.1875 0.45312-0.45312s-0.15625-0.46875-0.46875-0.46875c-0.67188 0-1.0625 0.76562-1.0625 1.5312 0 1.25 1.0781 2.1562 2.3125 2.1562 1.2812 0 2.2656-0.98438 2.2656-2.1406 0-1.3281-1.2031-1.6562-1.2969-1.6562z"/>
</symbol>
<symbol id="x" overflow="visible">
<path d="m0-2.5469h-0.3125c0 0.67188 0 0.78125-0.4375 0.78125h-6.1719l0.10938 1.4375h0.3125c0-0.70312 0.0625-0.78125 0.5625-0.78125h5.1875c0.4375 0 0.4375 0.10938 0.4375 0.78125h0.3125l-0.03125-1.1094z"/>
</symbol>
<clipPath id="ao">
<path d="m20.191 27h194.27v135.39h-194.27z"/>
</clipPath>
</defs>
<path transform="matrix(1 0 0 -1 20.193 162.39)" d="m-0.0015938 80.695h194.27m-194.27 38.039h194.27" fill="none" stroke="#bfbfbf" stroke-miterlimit="10" stroke-width=".3985"/>
<path transform="matrix(1 0 0 -1 20.193 162.39)" d="m-0.0015938 80.695h4.2539m-4.2539 38.039h4.2539m190.02-38.039h-4.25m4.25 38.039h-4.25" fill="none" stroke="#7f7f7f" stroke-miterlimit="10" stroke-width=".19925"/>
<path transform="matrix(1 0 0 -1 20.193 162.39)" d="m-0.0015938-7.1875e-4v161.39h194.27v-161.39z" fill="none" stroke="#000" stroke-miterlimit="10" stroke-width=".3985"/>
<g clip-path="url(#ao)">
<path transform="matrix(1 0 0 -1 20.193 162.39)" d="m-0.0015938 80.695h28.645c11.004 0 26.395 6.1406 34.375 13.719l19.668 18.672c7.9805 7.5781 17.91 5.5 22.184-4.6406l33.098-78.555c4.2695-10.141 16.656-18.363 27.66-18.363h28.641" fill="none" stroke="#0c6dfd" stroke-miterlimit="10" stroke-width="1.1955"/>
</g>
<g>
<use x="27.512" y="96.688" xlink:href="#an"/>
<use x="34.84547" y="96.688" xlink:href="#c"/>
<use x="39.273846" y="96.688" xlink:href="#d"/>
<use x="44.255146" y="96.688" xlink:href="#q"/>
<use x="49.236446" y="96.688" xlink:href="#c"/>
<use x="53.664821" y="96.688" xlink:href="#ad"/>
<use x="58.921089" y="96.688" xlink:href="#i"/>
<use x="62.795544" y="96.688" xlink:href="#c"/>
<use x="67.22392" y="96.688" xlink:href="#e"/>
<use x="28.675" y="110.358" xlink:href="#h"/>
<use x="37.432125" y="110.358" xlink:href="#p"/>
<use x="43.698601" y="110.358" xlink:href="#k"/>
<use x="52.907032" y="110.358" xlink:href="#s"/>
<use x="62.797901" y="110.358" xlink:href="#g"/>
<use x="73.173" y="20.699" xlink:href="#g"/>
<use x="80.36799" y="20.699" xlink:href="#b"/>
<use x="85.34929" y="20.699" xlink:href="#am"/>
<use x="93.651124" y="20.699" xlink:href="#al"/>
<use x="99.186345" y="20.699" xlink:href="#ak"/>
<use x="101.953955" y="20.699" xlink:href="#c"/>
<use x="106.382331" y="20.699" xlink:href="#aj"/>
<use x="111.640591" y="20.699" xlink:href="#b"/>
<use x="119.939437" y="20.699" xlink:href="#d"/>
<use x="124.920737" y="20.699" xlink:href="#i"/>
<use x="128.795192" y="20.699" xlink:href="#ai"/>
<use x="131.562802" y="20.699" xlink:href="#ah"/>
<use x="136.27312" y="20.699" xlink:href="#d"/>
<use x="141.25442" y="20.699" xlink:href="#j"/>
<use x="146.78964" y="20.699" xlink:href="#b"/>
<use x="90.538" y="34.369" xlink:href="#h"/>
<use x="98.01" y="34.369" xlink:href="#a"/>
<use x="100.77761" y="34.369" xlink:href="#a"/>
<use x="103.545221" y="34.369" xlink:href="#a"/>
<use x="106.312831" y="34.369" xlink:href="#a"/>
<use x="109.08" y="34.369" xlink:href="#k"/>
<use x="116.136" y="34.369" xlink:href="#a"/>
<use x="118.90361" y="34.369" xlink:href="#a"/>
<use x="121.671221" y="34.369" xlink:href="#a"/>
<use x="124.438831" y="34.369" xlink:href="#a"/>
<use x="127.206" y="34.369" xlink:href="#g"/>
<use x="170.279" y="125.925" xlink:href="#r"/>
<use x="177.059546" y="125.925" xlink:href="#f"/>
<use x="180.961896" y="125.925" xlink:href="#b"/>
<use x="186.222149" y="125.925" xlink:href="#j"/>
<use x="191.757369" y="125.925" xlink:href="#ag"/>
<use x="197.29259" y="125.925" xlink:href="#i"/>
<use x="201.167045" y="125.925" xlink:href="#b"/>
<use x="206.148345" y="125.925" xlink:href="#e"/>
<use x="169.518" y="139.596" xlink:href="#h"/>
<use x="179.131909" y="139.596" xlink:href="#s"/>
<use x="189.032741" y="139.596" xlink:href="#k"/>
<use x="197.374426" y="139.596" xlink:href="#p"/>
<use x="203.640901" y="139.596" xlink:href="#g"/>
</g>
<path transform="matrix(1 0 0 -1 20.193 162.39)" d="m92.28 80.695v35.449" fill="none" stroke="#000" stroke-miterlimit="10" stroke-width=".79701"/>
<path d="m112.47 43.652-2.0742 4.1445 2.0742-1.5547 2.0703 1.5547"/>
<g>
<use x="116.189" y="65.33" xlink:href="#ac"/>
<use x="123.543" y="66.824" xlink:href="#ab"/>
<use x="73.989" y="172.769" xlink:href="#r"/>
<use x="80.769546" y="172.769" xlink:href="#f"/>
<use x="84.671896" y="172.769" xlink:href="#b"/>
<use x="89.653196" y="172.769" xlink:href="#q"/>
<use x="94.634496" y="172.769" xlink:href="#f"/>
<use x="98.536846" y="172.769" xlink:href="#c"/>
<use x="102.965222" y="172.769" xlink:href="#e"/>
<use x="106.895468" y="172.769" xlink:href="#e"/>
<use x="110.825714" y="172.769" xlink:href="#b"/>
<use x="119.124559" y="172.769" xlink:href="#j"/>
<use x="124.65978" y="172.769" xlink:href="#d"/>
<use x="132.958626" y="172.769" xlink:href="#f"/>
<use x="136.860976" y="172.769" xlink:href="#c"/>
<use x="141.289352" y="172.769" xlink:href="#d"/>
<use x="146.270652" y="172.769" xlink:href="#af"/>
<use x="150.699027" y="172.769" xlink:href="#ae"/>
<use x="155.680327" y="172.769" xlink:href="#b"/>
<use x="7.896" y="119.829" xlink:href="#aa"/>
<use x="7.896" y="113.048454" xlink:href="#o"/>
<use x="7.896" y="107.513234" xlink:href="#n"/>
<use x="7.896" y="103.084858" xlink:href="#w"/>
<use x="7.896" y="99.182508" xlink:href="#v"/>
<use x="7.896" y="94.201208" xlink:href="#m"/>
<use x="7.896" y="91.433597" xlink:href="#l"/>
<use x="7.896" y="83.134752" xlink:href="#u"/>
<use x="7.896" y="77.320578" xlink:href="#t"/>
<use x="7.896" y="72.339278" xlink:href="#z"/>
<use x="7.896" y="68.464823" xlink:href="#n"/>
<use x="7.896" y="64.036447" xlink:href="#o"/>
<use x="7.896" y="58.501227" xlink:href="#y"/>
<use x="7.896" y="54.072851" xlink:href="#m"/>
<use x="7.896" y="51.305241" xlink:href="#l"/>
<use x="7.896" y="46.323941" xlink:href="#x"/>
</g>
</svg>
