<?xml version="1.0" encoding="UTF-8"?>
<svg width="215pt" height="175pt" version="1.1" viewBox="0 0 215 175" xmlns="http://www.w3.org/2000/svg" xmlns:xlink="http://www.w3.org/1999/xlink">
<defs>
<symbol id="s" overflow="visible">
<path d="m7.1094-2.4688s0-0.10938-0.125-0.10938c-0.09375 0-0.10938 0.0625-0.125 0.125-0.65625 1.4688-1.0156 2.1406-2.7188 2.1406h-1.4531-0.21875c-0.10938-0.015625-0.14062-0.03125-0.14062-0.10938 0-0.03125 0-0.046875 0.046875-0.21875l0.6875-2.7344h0.98438c0.84375 0 0.84375 0.21875 0.84375 0.46875 0 0.0625 0 0.1875-0.0625 0.48438-0.015625 0.046875-0.03125 0.078125-0.03125 0.10938 0 0.046875 0.03125 0.10938 0.125 0.10938 0.078125 0 0.10938-0.046875 0.15625-0.20312l0.5625-2.3281c0-0.0625-0.046875-0.10938-0.125-0.10938s-0.10938 0.0625-0.125 0.17188c-0.21875 0.76562-0.39062 1-1.3125 1h-0.9375l0.59375-2.4062c0.09375-0.35938 0.10938-0.39062 0.54688-0.39062h1.4062c1.2031 0 1.5156 0.28125 1.5156 1.1094 0 0.23438 0 0.25-0.046875 0.53125 0 0.046875-0.015625 0.125-0.015625 0.17188s0.03125 0.125 0.125 0.125c0.10938 0 0.125-0.0625 0.14062-0.25l0.20312-1.7344c0.03125-0.26562-0.015625-0.26562-0.26562-0.26562h-5.0469c-0.1875 0-0.29688 0-0.29688 0.20312 0 0.10938 0.09375 0.10938 0.28125 0.10938 0.375 0 0.65625 0 0.65625 0.17188 0 0.046875 0 0.0625-0.0625 0.25l-1.3125 5.2656c-0.09375 0.39062-0.10938 0.46875-0.90625 0.46875-0.17188 0-0.28125 0-0.28125 0.1875 0 0.125 0.09375 0.125 0.28125 0.125h5.1719c0.23438 0 0.25-0.015625 0.3125-0.17188l0.92188-2.1562 0.046875-0.14062z"/>
</symbol>
<symbol id="ao" overflow="visible">
<path d="m7.1562-0.20312c0-0.10938-0.09375-0.10938-0.28125-0.10938-0.35938 0-0.64062 0-0.64062-0.17188 0-0.0625 0.015625-0.10938 0.03125-0.17188l1.3438-5.3906c0.09375-0.35938 0.10938-0.45312 0.82812-0.45312 0.26562 0 0.34375 0 0.34375-0.20312 0-0.10938-0.10938-0.10938-0.14062-0.10938l-1.2812 0.03125-1.2812-0.03125c-0.078125 0-0.1875 0-0.1875 0.20312 0 0.10938 0.09375 0.10938 0.28125 0.10938 0 0 0.20312 0 0.375 0.015625 0.1875 0.03125 0.26562 0.03125 0.26562 0.17188 0 0.03125 0 0.046875-0.03125 0.1875l-0.59375 2.4219h-3.0469l0.59375-2.3438c0.078125-0.35938 0.10938-0.45312 0.82812-0.45312 0.26562 0 0.34375 0 0.34375-0.20312 0-0.10938-0.10938-0.10938-0.14062-0.10938l-1.2812 0.03125-1.2812-0.03125c-0.078125 0-0.1875 0-0.1875 0.20312 0 0.10938 0.09375 0.10938 0.28125 0.10938 0 0 0.20312 0 0.375 0.015625 0.17188 0.03125 0.26562 0.03125 0.26562 0.17188 0 0.03125 0 0.0625-0.03125 0.1875l-1.3438 5.3438c-0.09375 0.39062-0.10938 0.46875-0.90625 0.46875-0.17188 0-0.26562 0-0.26562 0.20312 0 0.10938 0.14062 0.10938 0.14062 0.10938l1.2656-0.03125 0.64062 0.015625c0.21875 0 0.4375 0.015625 0.64062 0.015625 0.078125 0 0.20312 0 0.20312-0.20312 0-0.10938-0.09375-0.10938-0.28125-0.10938-0.375 0-0.64062 0-0.64062-0.17188 0-0.0625 0.015625-0.10938 0.015625-0.17188l0.6875-2.7344h3.0312l-0.6875 2.75c-0.09375 0.32812-0.28125 0.32812-0.90625 0.32812-0.14062 0-0.23438 0-0.23438 0.20312 0 0.10938 0.14062 0.10938 0.14062 0.10938l1.2656-0.03125 0.64062 0.015625c0.21875 0 0.4375 0.015625 0.64062 0.015625 0.078125 0 0.20312 0 0.20312-0.20312z"/>
</symbol>
<symbol id="an" overflow="visible">
<path d="m6.9219-2.5c0-0.10938-0.078125-0.15625-0.1875-0.21875l-5.5312-2.5938c-0.125-0.078125-0.14062-0.078125-0.17188-0.078125-0.10938 0-0.20312 0.09375-0.20312 0.20312 0 0.09375 0.046875 0.15625 0.1875 0.21875l5.2344 2.4688-5.2344 2.4844c-0.14062 0.0625-0.1875 0.125-0.1875 0.21875 0 0.10938 0.09375 0.20312 0.20312 0.20312 0.03125 0 0.046875 0 0.17188-0.078125l5.5312-2.5938c0.10938-0.0625 0.1875-0.10938 0.1875-0.23438z"/>
</symbol>
<symbol id="e" overflow="visible">
<path d="m3.7969-0.625v-0.39062h-0.25v0.375c0 0.078125 0 0.40625-0.25 0.40625-0.26562 0-0.26562-0.32812-0.26562-0.40625v-1.2344c0-0.35938 0-0.625-0.3125-0.89062-0.28125-0.23438-0.625-0.34375-1.0312-0.34375-0.65625 0-1.125 0.25-1.125 0.67188 0 0.23438 0.14062 0.34375 0.32812 0.34375s0.32812-0.14062 0.32812-0.32812c0-0.10938-0.0625-0.26562-0.25-0.3125 0.25-0.17188 0.65625-0.17188 0.70312-0.17188 0.39062 0 0.8125 0.25 0.8125 0.84375v0.20312c-0.375 0.015625-0.84375 0.046875-1.3438 0.23438-0.625 0.21875-0.82812 0.60938-0.82812 0.92188 0 0.59375 0.71875 0.76562 1.2188 0.76562 0.5625 0 0.89062-0.3125 1.0312-0.57812 0.03125 0.28125 0.21875 0.54688 0.53125 0.54688 0 0 0.70312 0 0.70312-0.65625zm-1.3125-0.35938c0 0.67188-0.57812 0.85938-0.89062 0.85938-0.35938 0-0.6875-0.23438-0.6875-0.57812 0-0.39062 0.32812-0.92188 1.5781-0.96875z"/>
</symbol>
<symbol id="am" overflow="visible">
<path d="m4.0469 0v-0.25c-0.46875 0-0.51562-0.046875-0.51562-0.39062v-4.2031l-1.0469 0.078125v0.25c0.46875 0 0.51562 0.0625 0.51562 0.39062v1.4531c-0.25-0.25-0.59375-0.40625-0.96875-0.40625-0.9375 0-1.7031 0.70312-1.7031 1.5781s0.73438 1.5625 1.6094 1.5625c0.57812 0 0.92188-0.29688 1.0312-0.42188v0.42188zm-1.0781-0.73438c-0.17188 0.32812-0.53125 0.60938-0.98438 0.60938-0.39062 0-0.67188-0.23438-0.8125-0.4375s-0.21875-0.48438-0.21875-0.92188c0-0.17188 0-0.6875 0.28125-1.0156 0.28125-0.3125 0.625-0.375 0.82812-0.375 0.32812 0 0.64062 0.15625 0.82812 0.40625 0.078125 0.10938 0.078125 0.10938 0.078125 0.25z"/>
</symbol>
<symbol id="r" overflow="visible">
<path d="m1.9062 0v-0.25c-0.40625 0-0.46875 0-0.46875-0.29688v-2.5312l-1.0312 0.078125v0.25c0.4375 0 0.5 0.046875 0.5 0.39062v1.8125c0 0.29688-0.0625 0.29688-0.51562 0.29688v0.25s0.5-0.03125 0.78125-0.03125c0.25 0 0.5 0.015625 0.73438 0.03125zm-0.375-4.1875c0-0.23438-0.17188-0.40625-0.40625-0.40625s-0.39062 0.1875-0.39062 0.39062c0 0.21875 0.17188 0.40625 0.39062 0.40625 0.23438 0 0.40625-0.20312 0.40625-0.39062z"/>
</symbol>
<symbol id="q" overflow="visible">
<path d="m2.8438-2.625c0-0.23438-0.23438-0.45312-0.5625-0.45312-0.34375 0-0.73438 0.21875-0.9375 0.75v-0.75l-1 0.078125v0.25c0.46875 0 0.51562 0.046875 0.51562 0.39062v1.8125c0 0.29688-0.0625 0.29688-0.51562 0.29688v0.25c0.03125 0 0.5-0.03125 0.79688-0.03125l0.90625 0.03125v-0.25h-0.14062c-0.51562 0-0.51562-0.078125-0.51562-0.3125v-1.0312c0-0.57812 0.26562-1.2812 0.9375-1.2812-0.0625 0.046875-0.125 0.14062-0.125 0.25 0 0.23438 0.1875 0.3125 0.3125 0.3125 0.17188 0 0.32812-0.10938 0.32812-0.3125z"/>
</symbol>
<symbol id="p" overflow="visible">
<path d="m3.2656-0.84375c0-0.015625-0.015625-0.09375-0.125-0.09375-0.09375 0-0.10938 0.046875-0.125 0.10938-0.21875 0.5625-0.75 0.67188-1 0.67188-0.32812 0-0.64062-0.14062-0.84375-0.40625-0.26562-0.32812-0.26562-0.75-0.26562-1.0312h2.1562c0.15625 0 0.20312 0 0.20312-0.14062 0-0.625-0.34375-1.375-1.3906-1.375-0.90625 0-1.6094 0.71875-1.6094 1.5781 0 0.89062 0.78125 1.5938 1.7031 1.5938 0.9375 0 1.2969-0.75 1.2969-0.90625zm-0.48438-0.92188h-1.875c0.078125-0.98438 0.70312-1.1406 0.96875-1.1406 0.85938 0 0.89062 0.96875 0.90625 1.1406z"/>
</symbol>
<symbol id="al" overflow="visible">
<path d="m2.6094-0.875v-0.39062h-0.23438v0.375c0 0.48438-0.21875 0.73438-0.5 0.73438-0.46875 0-0.46875-0.57812-0.46875-0.70312v-1.8906h1.0781v-0.25h-1.0781v-1.2812h-0.25c0 0.625-0.28125 1.3125-0.95312 1.3281v0.20312h0.64062v1.875c0 0.78125 0.59375 0.9375 0.98438 0.9375 0.46875 0 0.78125-0.39062 0.78125-0.9375z"/>
</symbol>
<symbol id="ak" overflow="visible">
<path d="m4.1094 0v-0.25c-0.45312 0-0.51562 0-0.51562-0.29688v-1.5625c0-0.60938-0.29688-0.96875-1.0469-0.96875-0.57812 0-0.9375 0.3125-1.1406 0.6875v-0.6875l-1.0312 0.078125v0.25c0.46875 0 0.53125 0.046875 0.53125 0.39062v1.8125c0 0.29688-0.078125 0.29688-0.53125 0.29688v0.25s0.5-0.03125 0.79688-0.03125c0.25 0 0.73438 0.03125 0.79688 0.03125v-0.25c-0.45312 0-0.51562 0-0.51562-0.29688v-1.2656c0-0.71875 0.57812-1.0625 1.0312-1.0625 0.48438 0 0.54688 0.375 0.54688 0.73438v1.5938c0 0.29688-0.0625 0.29688-0.51562 0.29688v0.25s0.5-0.03125 0.79688-0.03125c0.25 0 0.73438 0.03125 0.79688 0.03125z"/>
</symbol>
<symbol id="aj" overflow="visible">
<path d="m3.9531-2.75v-0.25c-0.17188 0.015625-0.34375 0.03125-0.53125 0.03125s-0.4375-0.015625-0.625-0.03125v0.25c0.29688 0.015625 0.29688 0.23438 0.29688 0.26562s-0.015625 0.09375-0.0625 0.20312l-0.78125 1.7188-0.875-1.8906s-0.03125-0.09375-0.03125-0.14062c0-0.15625 0.23438-0.15625 0.34375-0.15625v-0.25s-0.5 0.03125-0.78125 0.03125c-0.21875 0-0.48438-0.015625-0.6875-0.03125v0.25c0.375 0 0.46875 0.015625 0.5625 0.25l1.1094 2.4219c0.03125 0.078125 0.078125 0.14062 0.1875 0.14062 0.14062 0 0.17188-0.0625 0.20312-0.125l1.0156-2.2656c0.20312-0.42188 0.54688-0.42188 0.65625-0.42188z"/>
</symbol>
<symbol id="ai" overflow="visible">
<path d="m2.8438-0.90625c0-0.26562-0.125-0.48438-0.3125-0.64062-0.26562-0.25-0.57812-0.3125-0.82812-0.34375-0.54688-0.10938-1-0.1875-1-0.5625 0-0.21875 0.1875-0.48438 0.84375-0.48438 0.8125 0 0.84375 0.5625 0.85938 0.76562 0 0.078125 0.09375 0.078125 0.10938 0.078125 0.125 0 0.125-0.046875 0.125-0.1875v-0.64062c0-0.125 0-0.1875-0.09375-0.1875-0.03125 0-0.046875 0-0.14062 0.078125-0.015625 0.015625-0.078125 0.078125-0.125 0.10938-0.21875-0.14062-0.46875-0.1875-0.73438-0.1875-1 0-1.2344 0.53125-1.2344 0.875 0 0.21875 0.09375 0.40625 0.26562 0.54688 0.26562 0.21875 0.53125 0.26562 0.96875 0.34375 0.34375 0.0625 0.90625 0.15625 0.90625 0.625 0 0.26562-0.1875 0.59375-0.85938 0.59375s-0.90625-0.4375-1.0312-0.90625c-0.03125-0.09375-0.03125-0.125-0.125-0.125-0.125 0-0.125 0.046875-0.125 0.1875v0.85938c0 0.10938 0 0.17188 0.09375 0.17188 0.0625 0 0.20312-0.14062 0.34375-0.29688 0.29688 0.29688 0.67188 0.29688 0.84375 0.29688 0.90625 0 1.25-0.48438 1.25-0.96875z"/>
</symbol>
<symbol id="o" overflow="visible">
<path d="m1.6719-0.046875c0-0.42188-0.17188-0.75-0.5-0.75-0.21875 0-0.39062 0.17188-0.39062 0.39062s0.15625 0.40625 0.40625 0.40625c0.17188 0 0.28125-0.10938 0.28125-0.10938 0 0.375-0.0625 0.82812-0.54688 1.2656-0.015625 0.03125-0.046875 0.0625-0.046875 0.09375 0 0.046875 0.0625 0.09375 0.09375 0.09375 0.10938 0 0.70312-0.5625 0.70312-1.3906z"/>
</symbol>
<symbol id="ah" overflow="visible">
<path d="m7.8281-0.078125s0-0.03125-0.046875-0.125l-3.375-6.75c-0.0625-0.14062-0.09375-0.1875-0.26562-0.1875-0.15625 0-0.1875 0.046875-0.25 0.1875l-3.375 6.75c-0.046875 0.09375-0.046875 0.125-0.046875 0.125 0 0.078125 0.0625 0.078125 0.21875 0.078125h6.9219c0.15625 0 0.21875 0 0.21875-0.078125zm-1.3125-0.67188h-5.375l2.6875-5.3906z"/>
</symbol>
<symbol id="ag" overflow="visible">
<path d="m4.5781-3.1875c0-0.79688-0.046875-1.5938-0.39062-2.3281-0.45312-0.96875-1.2812-1.125-1.6875-1.125-0.60938 0-1.3281 0.26562-1.75 1.1875-0.3125 0.6875-0.35938 1.4688-0.35938 2.2656 0 0.75 0.03125 1.6406 0.45312 2.4062 0.42188 0.79688 1.1562 1 1.6406 1 0.53125 0 1.2969-0.20312 1.7344-1.1562 0.3125-0.6875 0.35938-1.4688 0.35938-2.25zm-0.8125-0.125c0 0.75 0 1.4219-0.10938 2.0625-0.15625 0.95312-0.71875 1.25-1.1719 1.25-0.39062 0-0.98438-0.25-1.1562-1.2031-0.10938-0.59375-0.10938-1.5156-0.10938-2.1094 0-0.64062 0-1.2969 0.078125-1.8281 0.1875-1.1875 0.9375-1.2812 1.1875-1.2812 0.32812 0 0.98438 0.1875 1.1719 1.1719 0.10938 0.5625 0.10938 1.3125 0.10938 1.9375z"/>
</symbol>
<symbol id="n" overflow="visible">
<path d="m6.2188-4.9531c0-0.98438-0.98438-1.8594-2.3438-1.8594h-3.5312v0.3125h0.25c0.76562 0 0.78125 0.10938 0.78125 0.46875v5.25c0 0.35938-0.015625 0.46875-0.78125 0.46875h-0.25v0.3125c0.35938-0.03125 1.0938-0.03125 1.4688-0.03125s1.125 0 1.4844 0.03125v-0.3125h-0.25c-0.76562 0-0.78125-0.10938-0.78125-0.46875v-2.375h1.6875c1.1875 0 2.2656-0.79688 2.2656-1.7969zm-1.0312 0c0 0.46875 0 1.5469-1.5781 1.5469h-1.375v-2.6875c0-0.34375 0.015625-0.40625 0.48438-0.40625h0.89062c1.5781 0 1.5781 1.0625 1.5781 1.5469z"/>
</symbol>
<symbol id="d" overflow="visible">
<path d="m3.625-3.7969c0-0.3125-0.3125-0.60938-0.73438-0.60938-0.73438 0-1.0938 0.67188-1.2188 1.0938v-1.0938l-1.3906 0.10938v0.3125c0.70312 0 0.78125 0.0625 0.78125 0.5625v2.6719c0 0.4375-0.10938 0.4375-0.78125 0.4375v0.3125l1.1406-0.03125c0.39062 0 0.85938 0 1.2656 0.03125v-0.3125h-0.21875c-0.73438 0-0.75-0.10938-0.75-0.46875v-1.5312c0-0.98438 0.42188-1.875 1.1719-1.875 0.0625 0 0.09375 0 0.10938 0.015625-0.03125 0-0.23438 0.125-0.23438 0.39062s0.21875 0.42188 0.4375 0.42188c0.17188 0 0.42188-0.125 0.42188-0.4375z"/>
</symbol>
<symbol id="b" overflow="visible">
<path d="m4.6875-2.1406c0-1.2656-0.98438-2.3281-2.1875-2.3281-1.25 0-2.2188 1.0938-2.2188 2.3281 0 1.2969 1.0312 2.25 2.2031 2.25 1.2031 0 2.2031-0.98438 2.2031-2.25zm-0.8125-0.078125c0 0.35938 0 0.90625-0.21875 1.3438-0.23438 0.45312-0.67188 0.73438-1.1562 0.73438-0.4375 0-0.875-0.20312-1.1406-0.67188-0.25-0.4375-0.25-1.0469-0.25-1.4062 0-0.39062 0-0.92188 0.23438-1.3594 0.26562-0.45312 0.73438-0.67188 1.1406-0.67188 0.4375 0 0.85938 0.21875 1.125 0.65625 0.26562 0.42188 0.26562 1 0.26562 1.375z"/>
</symbol>
<symbol id="l" overflow="visible">
<path d="m5.25 0v-0.3125c-0.6875 0-0.78125-0.0625-0.78125-0.5625v-6.0469l-1.4219 0.10938v0.3125c0.6875 0 0.76562 0.0625 0.76562 0.5625v2.1562c-0.28125-0.35938-0.71875-0.625-1.25-0.625-1.1719 0-2.2188 0.98438-2.2188 2.2656 0 1.2656 0.96875 2.25 2.1094 2.25 0.64062 0 1.0781-0.34375 1.3281-0.65625v0.65625zm-1.4688-1.1719c0 0.17188 0 0.1875-0.10938 0.35938-0.29688 0.48438-0.73438 0.70312-1.1719 0.70312-0.45312 0-0.8125-0.26562-1.0469-0.64062-0.25-0.40625-0.28125-0.96875-0.28125-1.3906 0-0.35938 0.015625-0.95312 0.29688-1.4062 0.21875-0.3125 0.59375-0.64062 1.1406-0.64062 0.34375 0 0.76562 0.15625 1.0625 0.59375 0.10938 0.17188 0.10938 0.1875 0.10938 0.375z"/>
</symbol>
<symbol id="ac" overflow="visible">
<path d="m5.3281 0v-0.3125c-0.6875 0-0.76562-0.0625-0.76562-0.5625v-3.5312l-1.4688 0.10938v0.3125c0.6875 0 0.78125 0.0625 0.78125 0.5625v1.7656c0 0.875-0.48438 1.5469-1.2188 1.5469-0.82812 0-0.875-0.46875-0.875-0.98438v-3.3125l-1.4688 0.10938v0.3125c0.78125 0 0.78125 0.03125 0.78125 0.90625v1.5c0 0.78125 0 1.6875 1.5156 1.6875 0.5625 0 1-0.28125 1.2812-0.89062v0.89062z"/>
</symbol>
<symbol id="k" overflow="visible">
<path d="m3.3125-1.2344v-0.5625h-0.25v0.54688c0 0.73438-0.29688 1.1094-0.67188 1.1094-0.67188 0-0.67188-0.90625-0.67188-1.0781v-2.7656h1.4375v-0.3125h-1.4375v-1.8281h-0.25c0 0.8125-0.29688 1.875-1.2812 1.9219v0.21875h0.84375v2.75c0 1.2188 0.9375 1.3438 1.2969 1.3438 0.70312 0 0.98438-0.70312 0.98438-1.3438z"/>
</symbol>
<symbol id="c" overflow="visible">
<path d="m3.5938-1.2812c0-0.51562-0.29688-0.82812-0.42188-0.9375-0.32812-0.32812-0.71875-0.40625-1.1406-0.48438-0.5625-0.10938-1.2188-0.23438-1.2188-0.8125 0-0.35938 0.25-0.76562 1.1094-0.76562 1.0938 0 1.1562 0.90625 1.1719 1.2031 0 0.09375 0.10938 0.09375 0.10938 0.09375 0.14062 0 0.14062-0.046875 0.14062-0.23438v-1.0156c0-0.15625 0-0.23438-0.10938-0.23438-0.046875 0-0.078125 0-0.20312 0.125-0.03125 0.03125-0.125 0.125-0.17188 0.15625-0.375-0.28125-0.78125-0.28125-0.9375-0.28125-1.2188 0-1.5938 0.67188-1.5938 1.2344 0 0.34375 0.15625 0.625 0.42188 0.84375 0.32812 0.25 0.60938 0.3125 1.3281 0.45312 0.21875 0.046875 1.0312 0.20312 1.0312 0.92188 0 0.5-0.34375 0.90625-1.125 0.90625-0.84375 0-1.2031-0.5625-1.3906-1.4219-0.03125-0.125-0.03125-0.15625-0.14062-0.15625-0.125 0-0.125 0.0625-0.125 0.23438v1.3281c0 0.17188 0 0.23438 0.10938 0.23438 0.046875 0 0.0625-0.015625 0.25-0.20312 0.015625-0.015625 0.015625-0.03125 0.20312-0.21875 0.4375 0.40625 0.89062 0.42188 1.0938 0.42188 1.1406 0 1.6094-0.67188 1.6094-1.3906z"/>
</symbol>
<symbol id="ab" overflow="visible">
<path d="m7.2969-0.875c0-0.0625 0-0.17188-0.125-0.17188-0.10938 0-0.10938 0.09375-0.125 0.15625-0.0625 0.71875-0.40625 0.89062-0.65625 0.89062-0.48438 0-0.5625-0.51562-0.70312-1.4375l-0.14062-0.79688c-0.17188-0.64062-0.65625-0.96875-1.2031-1.1562 0.95312-0.23438 1.7344-0.84375 1.7344-1.625 0-0.95312-1.1406-1.7969-2.5938-1.7969h-3.1406v0.3125h0.25c0.76562 0 0.78125 0.10938 0.78125 0.46875v5.25c0 0.35938-0.015625 0.46875-0.78125 0.46875h-0.25v0.3125c0.35938-0.03125 1.0781-0.03125 1.4531-0.03125 0.39062 0 1.1094 0 1.4688 0.03125v-0.3125h-0.25c-0.76562 0-0.78125-0.10938-0.78125-0.46875v-2.5156h1.1406c0.15625 0 0.57812 0 0.9375 0.34375 0.375 0.34375 0.375 0.65625 0.375 1.3281 0 0.64062 0 1.0469 0.40625 1.4219 0.40625 0.35938 0.95312 0.42188 1.25 0.42188 0.78125 0 0.95312-0.8125 0.95312-1.0938zm-2.25-4.1406c0 0.6875-0.23438 1.5-1.7031 1.5h-1.1094v-2.5781c0-0.23438 0-0.35938 0.21875-0.39062 0.09375-0.015625 0.39062-0.015625 0.59375-0.015625 0.89062 0 2 0.046875 2 1.4844z"/>
</symbol>
<symbol id="a" overflow="visible">
<path d="m4.1406-1.1875c0-0.09375-0.078125-0.125-0.14062-0.125-0.078125 0-0.10938 0.0625-0.125 0.14062-0.34375 1.0312-1.25 1.0312-1.3438 1.0312-0.5 0-0.89062-0.29688-1.125-0.67188-0.29688-0.46875-0.29688-1.125-0.29688-1.4844h2.7812c0.21875 0 0.25 0 0.25-0.21875 0-0.98438-0.54688-1.9531-1.7812-1.9531-1.1562 0-2.0781 1.0312-2.0781 2.2812 0 1.3281 1.0469 2.2969 2.1875 2.2969 1.2188 0 1.6719-1.1094 1.6719-1.2969zm-0.65625-1.3281h-2.375c0.0625-1.4844 0.90625-1.7344 1.25-1.7344 1.0156 0 1.125 1.3438 1.125 1.7344z"/>
</symbol>
<symbol id="f" overflow="visible">
<path d="m4.8125-0.89062v-0.5625h-0.25v0.5625c0 0.57812-0.25 0.64062-0.35938 0.64062-0.32812 0-0.35938-0.45312-0.35938-0.5v-1.9844c0-0.42188 0-0.8125-0.35938-1.1875-0.39062-0.39062-0.89062-0.54688-1.375-0.54688-0.8125 0-1.5 0.46875-1.5 1.125 0 0.29688 0.20312 0.46875 0.45312 0.46875 0.28125 0 0.46875-0.20312 0.46875-0.45312 0-0.125-0.0625-0.45312-0.51562-0.45312 0.26562-0.35938 0.76562-0.46875 1.0781-0.46875 0.48438 0 1.0625 0.39062 1.0625 1.2812v0.35938c-0.51562 0.03125-1.2188 0.0625-1.8438 0.35938-0.75 0.34375-1 0.85938-1 1.2969 0 0.8125 0.96875 1.0625 1.5938 1.0625 0.67188 0 1.125-0.40625 1.3125-0.85938 0.046875 0.39062 0.3125 0.8125 0.78125 0.8125 0.20312 0 0.8125-0.14062 0.8125-0.95312zm-1.6562-0.5c0 0.9375-0.71875 1.2812-1.1719 1.2812-0.48438 0-0.89062-0.34375-0.89062-0.84375 0-0.54688 0.40625-1.375 2.0625-1.4375z"/>
</symbol>
<symbol id="m" overflow="visible">
<path d="m4.8281-4.0312c0-0.17188-0.10938-0.48438-0.5-0.48438-0.20312 0-0.64062 0.0625-1.0625 0.46875-0.42188-0.32812-0.82812-0.35938-1.0469-0.35938-0.9375 0-1.625 0.6875-1.625 1.4531 0 0.4375 0.21875 0.8125 0.46875 1.0312-0.125 0.14062-0.3125 0.46875-0.3125 0.82812 0 0.3125 0.14062 0.6875 0.45312 0.89062-0.60938 0.15625-0.92188 0.59375-0.92188 0.98438 0 0.71875 0.98438 1.2656 2.2031 1.2656 1.1719 0 2.2031-0.5 2.2031-1.2812 0-0.34375-0.125-0.85938-0.64062-1.1406-0.53125-0.26562-1.1094-0.26562-1.7188-0.26562-0.25 0-0.67188 0-0.75-0.015625-0.3125-0.046875-0.51562-0.34375-0.51562-0.67188 0-0.03125 0-0.26562 0.15625-0.46875 0.39062 0.28125 0.8125 0.3125 1 0.3125 0.92188 0 1.6094-0.6875 1.6094-1.4531 0-0.375-0.15625-0.73438-0.40625-0.96875 0.35938-0.34375 0.71875-0.39062 0.89062-0.39062 0 0 0.078125 0 0.10938 0.015625-0.10938 0.03125-0.17188 0.14062-0.17188 0.26562 0 0.17188 0.14062 0.28125 0.29688 0.28125 0.09375 0 0.28125-0.0625 0.28125-0.29688zm-1.75 1.0781c0 0.26562 0 0.59375-0.15625 0.84375-0.078125 0.10938-0.3125 0.39062-0.70312 0.39062-0.875 0-0.875-1-0.875-1.2188 0-0.26562 0.015625-0.59375 0.15625-0.84375 0.078125-0.10938 0.3125-0.39062 0.71875-0.39062 0.85938 0 0.85938 0.98438 0.85938 1.2188zm1.0938 3.7344c0 0.54688-0.70312 1.0469-1.6719 1.0469-1.0156 0-1.7031-0.51562-1.7031-1.0469 0-0.45312 0.375-0.82812 0.8125-0.84375h0.59375c0.85938 0 1.9688 0 1.9688 0.84375z"/>
</symbol>
<symbol id="af" overflow="visible">
<path d="m5.3281 0v-0.3125c-0.51562 0-0.76562 0-0.76562-0.29688v-1.9062c0-0.85938 0-1.1562-0.3125-1.5156-0.14062-0.17188-0.46875-0.375-1.0469-0.375-0.73438 0-1.2031 0.42188-1.4844 1.0469v-1.0469l-1.4062 0.10938v0.3125c0.70312 0 0.78125 0.0625 0.78125 0.5625v2.6719c0 0.4375-0.10938 0.4375-0.78125 0.4375v0.3125l1.1406-0.03125 1.1094 0.03125v-0.3125c-0.67188 0-0.78125 0-0.78125-0.4375v-1.8438c0-1.0312 0.71875-1.5938 1.3438-1.5938 0.64062 0 0.75 0.53125 0.75 1.1094v2.3281c0 0.4375-0.10938 0.4375-0.78125 0.4375v0.3125l1.125-0.03125z"/>
</symbol>
<symbol id="ae" overflow="visible">
<path d="m4.1406-1.1875c0-0.09375-0.10938-0.09375-0.14062-0.09375-0.078125 0-0.10938 0.03125-0.125 0.09375-0.28125 0.92188-0.9375 1.0469-1.2969 1.0469-0.53125 0-1.4062-0.42188-1.4062-2.0312 0-1.625 0.8125-2.0469 1.3438-2.0469 0.09375 0 0.71875 0.015625 1.0625 0.375-0.40625 0.03125-0.46875 0.32812-0.46875 0.45312 0 0.26562 0.1875 0.45312 0.45312 0.45312s0.46875-0.15625 0.46875-0.46875c0-0.67188-0.76562-1.0625-1.5312-1.0625-1.25 0-2.1562 1.0781-2.1562 2.3125 0 1.1719 0.8125 2.0938 1.8281 2.25v0.82812c0.375 0 0.76562 0.078125 0.76562 0.40625 0 0.40625-0.95312 0.40625-1.7031 0.40625h-0.125v0.26562h0.25c1.0781 0 2.4062 0 2.4062-0.67188 0-0.46875-0.53125-0.67188-1.0781-0.67188v-0.5625c1.1562-0.10938 1.4531-1.1875 1.4531-1.2812z"/>
</symbol>
<symbol id="ad" overflow="visible">
<path d="m4.8125-0.89062v-0.5625h-0.25v0.5625c0 0.57812-0.25 0.64062-0.35938 0.64062-0.32812 0-0.35938-0.45312-0.35938-0.5v-1.9844c0-0.42188 0-0.8125-0.35938-1.1875-0.39062-0.39062-0.89062-0.54688-1.375-0.54688-0.8125 0-1.5 0.46875-1.5 1.125 0 0.29688 0.20312 0.46875 0.45312 0.46875 0.28125 0 0.46875-0.20312 0.46875-0.45312 0-0.125-0.0625-0.45312-0.51562-0.45312 0.26562-0.35938 0.76562-0.46875 1.0781-0.46875 0.48438 0 1.0625 0.39062 1.0625 1.2812v0.35938c-0.51562 0.03125-1.2188 0.0625-1.8438 0.35938-0.75 0.34375-1 0.85938-1 1.2969 0 0.8125 0.96875 1.0625 1.5938 1.0625 0.67188 0 1.125-0.40625 1.3125-0.85938 0.046875 0.39062 0.3125 0.8125 0.78125 0.8125 0.20312 0 0.8125-0.14062 0.8125-0.95312zm-1.6562-0.5c0 0.9375-0.71875 1.2812-1.1719 1.2812-0.48438 0-0.89062-0.34375-0.89062-0.84375 0-0.54688 0.40625-1.375 2.0625-1.4375zm1-4.9531-0.15625-0.14062s-0.375 0.46875-0.8125 0.46875c-0.23438 0-0.48438-0.14062-0.65625-0.25-0.26562-0.15625-0.45312-0.21875-0.625-0.21875-0.375 0-0.5625 0.21875-1.0625 0.76562l0.15625 0.15625s0.375-0.48438 0.8125-0.48438c0.23438 0 0.48438 0.15625 0.65625 0.25 0.26562 0.17188 0.4375 0.23438 0.60938 0.23438 0.375 0 0.57812-0.21875 1.0781-0.78125z"/>
</symbol>
<symbol id="aa" overflow="visible">
<path d="m-2.5781-6.5v0.25c1.5469 0.25 2.2656 0.48438 2.2656 2.1875v1.3281c0 0.46875-0.0625 0.48438-0.39062 0.48438h-2.6719v-0.89062c0-0.96875 0.32812-1.0781 1.1719-1.0781v-0.25h-2.6406v0.25c0.85938 0 1.1719 0.10938 1.1719 1.0781v0.89062h-2.4062c-0.32812 0-0.39062-0.015625-0.39062-0.48438v-1.2812c0-1.5312 0.54688-1.7969 1.9375-1.9531v-0.25l-2.25 0.28125v5.6094h0.3125v-0.23438c0-0.76562 0.10938-0.79688 0.46875-0.79688h5.2188c0.35938 0 0.46875 0.03125 0.46875 0.79688v0.23438h0.3125v-5.75z"/>
</symbol>
<symbol id="j" overflow="visible">
<path d="m0-5.3281h-0.3125c0 0.51562 0 0.76562-0.29688 0.76562h-1.9062c-0.85938 0-1.1562 0-1.5156 0.3125-0.17188 0.14062-0.375 0.46875-0.375 1.0469 0 0.73438 0.42188 1.2031 1.0469 1.4844h-1.0469l0.10938 1.4062h0.3125c0-0.70312 0.0625-0.78125 0.5625-0.78125h2.6719c0.4375 0 0.4375 0.10938 0.4375 0.78125h0.3125l-0.03125-1.1406 0.03125-1.1094h-0.3125c0 0.67188 0 0.78125-0.4375 0.78125h-1.8438c-1.0312 0-1.5938-0.71875-1.5938-1.3438 0-0.64062 0.53125-0.75 1.1094-0.75h2.3281c0.4375 0 0.4375 0.10938 0.4375 0.78125h0.3125l-0.03125-1.125z"/>
</symbol>
<symbol id="i" overflow="visible">
<path d="m-1.1875-4.1406c-0.09375 0-0.125 0.078125-0.125 0.14062 0 0.078125 0.0625 0.10938 0.14062 0.125 1.0312 0.34375 1.0312 1.25 1.0312 1.3438 0 0.5-0.29688 0.89062-0.67188 1.125-0.46875 0.29688-1.125 0.29688-1.4844 0.29688v-2.7812c0-0.21875 0-0.25-0.21875-0.25-0.98438 0-1.9531 0.54688-1.9531 1.7812 0 1.1562 1.0312 2.0781 2.2812 2.0781 1.3281 0 2.2969-1.0469 2.2969-2.1875 0-1.2188-1.1094-1.6719-1.2969-1.6719zm-1.3281 0.65625v2.375c-1.4844-0.0625-1.7344-0.90625-1.7344-1.25 0-1.0156 1.3438-1.125 1.7344-1.125z"/>
</symbol>
<symbol id="w" overflow="visible">
<path d="m-3.7969-3.625c-0.3125 0-0.60938 0.3125-0.60938 0.73438 0 0.73438 0.67188 1.0938 1.0938 1.2188h-1.0938l0.10938 1.3906h0.3125c0-0.70312 0.0625-0.78125 0.5625-0.78125h2.6719c0.4375 0 0.4375 0.10938 0.4375 0.78125h0.3125l-0.03125-1.1406c0-0.39062 0-0.85938 0.03125-1.2656h-0.3125v0.21875c0 0.73438-0.10938 0.75-0.46875 0.75h-1.5312c-0.98438 0-1.875-0.42188-1.875-1.1719 0-0.0625 0-0.09375 0.015625-0.10938 0 0.03125 0.125 0.23438 0.39062 0.23438s0.42188-0.21875 0.42188-0.4375c0-0.17188-0.125-0.42188-0.4375-0.42188z"/>
</symbol>
<symbol id="v" overflow="visible">
<path d="m-4.0312-4.8281c-0.17188 0-0.48438 0.10938-0.48438 0.5 0 0.20312 0.0625 0.64062 0.46875 1.0625-0.32812 0.42188-0.35938 0.82812-0.35938 1.0469 0 0.9375 0.6875 1.625 1.4531 1.625 0.4375 0 0.8125-0.21875 1.0312-0.46875 0.14062 0.125 0.46875 0.3125 0.82812 0.3125 0.3125 0 0.6875-0.14062 0.89062-0.45312 0.15625 0.60938 0.59375 0.92188 0.98438 0.92188 0.71875 0 1.2656-0.98438 1.2656-2.2031 0-1.1719-0.5-2.2031-1.2812-2.2031-0.34375 0-0.85938 0.125-1.1406 0.64062-0.26562 0.53125-0.26562 1.1094-0.26562 1.7188 0 0.25 0 0.67188-0.015625 0.75-0.046875 0.3125-0.34375 0.51562-0.67188 0.51562-0.03125 0-0.26562 0-0.46875-0.15625 0.28125-0.39062 0.3125-0.8125 0.3125-1 0-0.92188-0.6875-1.6094-1.4531-1.6094-0.375 0-0.73438 0.15625-0.96875 0.40625-0.34375-0.35938-0.39062-0.71875-0.39062-0.89062 0 0 0-0.078125 0.015625-0.10938 0.03125 0.10938 0.14062 0.17188 0.26562 0.17188 0.17188 0 0.28125-0.14062 0.28125-0.29688 0-0.09375-0.0625-0.28125-0.29688-0.28125zm1.0781 1.75c0.26562 0 0.59375 0 0.84375 0.15625 0.10938 0.078125 0.39062 0.3125 0.39062 0.70312 0 0.875-1 0.875-1.2188 0.875-0.26562 0-0.59375-0.015625-0.84375-0.15625-0.10938-0.078125-0.39062-0.3125-0.39062-0.71875 0-0.85938 0.98438-0.85938 1.2188-0.85938zm3.7344-1.0938c0.54688 0 1.0469 0.70312 1.0469 1.6719 0 1.0156-0.51562 1.7031-1.0469 1.7031-0.45312 0-0.82812-0.375-0.84375-0.8125v-0.59375c0-0.85938 0-1.9688 0.84375-1.9688z"/>
</symbol>
<symbol id="h" overflow="visible">
<path d="m0-2.4688h-0.3125c0 0.67188-0.046875 0.70312-0.4375 0.70312h-3.6562l0.10938 1.3906h0.3125c0-0.64062 0.0625-0.73438 0.54688-0.73438h2.6875c0.4375 0 0.4375 0.10938 0.4375 0.78125h0.3125l-0.03125-1.0938c0-0.35938 0.015625-0.70312 0.03125-1.0469zm-6.0156 0.5625c-0.28125 0-0.53125 0.21875-0.53125 0.51562 0 0.34375 0.28125 0.54688 0.53125 0.54688 0.26562 0 0.51562-0.23438 0.51562-0.53125 0-0.34375-0.26562-0.53125-0.51562-0.53125z"/>
</symbol>
<symbol id="g" overflow="visible">
<path d="m-0.89062-4.8125h-0.5625v0.25h0.5625c0.57812 0 0.64062 0.25 0.64062 0.35938 0 0.32812-0.45312 0.35938-0.5 0.35938h-1.9844c-0.42188 0-0.8125 0-1.1875 0.35938-0.39062 0.39062-0.54688 0.89062-0.54688 1.375 0 0.8125 0.46875 1.5 1.125 1.5 0.29688 0 0.46875-0.20312 0.46875-0.45312 0-0.28125-0.20312-0.46875-0.45312-0.46875-0.125 0-0.45312 0.0625-0.45312 0.51562-0.35938-0.26562-0.46875-0.76562-0.46875-1.0781 0-0.48438 0.39062-1.0625 1.2812-1.0625h0.35938c0.03125 0.51562 0.0625 1.2188 0.35938 1.8438 0.34375 0.75 0.85938 1 1.2969 1 0.8125 0 1.0625-0.96875 1.0625-1.5938 0-0.67188-0.40625-1.125-0.85938-1.3125 0.39062-0.046875 0.8125-0.3125 0.8125-0.78125 0-0.20312-0.14062-0.8125-0.95312-0.8125zm-0.5 1.6562c0.9375 0 1.2812 0.71875 1.2812 1.1719 0 0.48438-0.34375 0.89062-0.84375 0.89062-0.54688 0-1.375-0.40625-1.4375-2.0625z"/>
</symbol>
<symbol id="u" overflow="visible">
<path d="m-2.1562-5.1875c-1.2656 0-2.25 0.95312-2.25 2.0781 0 0.78125 0.4375 1.2031 0.65625 1.3906h-0.65625l0.10938 1.4375h0.3125c0-0.70312 0.0625-0.78125 0.5-0.78125h4.6562c0.45312 0 0.45312 0.10938 0.45312 0.78125h0.3125l-0.03125-1.1094 0.03125-1.125h-0.3125c0 0.65625 0 0.76562-0.45312 0.76562h-1.7656c0.17188-0.046875 0.70312-0.46875 0.70312-1.2188 0-1.1875-0.98438-2.2188-2.2656-2.2188zm0 0.82812c1.2031 0 2.0469 0.6875 2.0469 1.4219 0 0.40625-0.20312 0.78125-0.60938 1.0469-0.20312 0.14062-0.21875 0.14062-0.42188 0.14062h-2.2188c-0.51562-0.28125-0.79688-0.76562-0.79688-1.2812 0-0.73438 0.875-1.3281 2-1.3281z"/>
</symbol>
<symbol id="t" overflow="visible">
<path d="m-2.1406-4.6875c-1.2656 0-2.3281 0.98438-2.3281 2.1875 0 1.25 1.0938 2.2188 2.3281 2.2188 1.2969 0 2.25-1.0312 2.25-2.2031 0-1.2031-0.98438-2.2031-2.25-2.2031zm-0.078125 0.8125c0.35938 0 0.90625 0 1.3438 0.21875 0.45312 0.23438 0.73438 0.67188 0.73438 1.1562 0 0.4375-0.20312 0.875-0.67188 1.1406-0.4375 0.25-1.0469 0.25-1.4062 0.25-0.39062 0-0.92188 0-1.3594-0.23438-0.45312-0.26562-0.67188-0.73438-0.67188-1.1406 0-0.4375 0.21875-0.85938 0.65625-1.125 0.42188-0.26562 1-0.26562 1.375-0.26562z"/>
</symbol>
<symbol id="z" overflow="visible">
<path d="m-1.2344-3.3125h-0.5625v0.25h0.54688c0.73438 0 1.1094 0.29688 1.1094 0.67188 0 0.67188-0.90625 0.67188-1.0781 0.67188h-2.7656v-1.4375h-0.3125v1.4375h-1.8281v0.25c0.8125 0 1.875 0.29688 1.9219 1.2812h0.21875v-0.84375h2.75c1.2188 0 1.3438-0.9375 1.3438-1.2969 0-0.70312-0.70312-0.98438-1.3438-0.98438z"/>
</symbol>
<symbol id="y" overflow="visible">
<path d="m-1.1875-4.1406c-0.09375 0-0.09375 0.10938-0.09375 0.14062 0 0.078125 0.03125 0.10938 0.09375 0.125 0.92188 0.28125 1.0469 0.9375 1.0469 1.2969 0 0.53125-0.42188 1.4062-2.0312 1.4062-1.625 0-2.0469-0.8125-2.0469-1.3438 0-0.09375 0.015625-0.71875 0.375-1.0625 0.03125 0.40625 0.32812 0.46875 0.45312 0.46875 0.26562 0 0.45312-0.1875 0.45312-0.45312s-0.15625-0.46875-0.46875-0.46875c-0.67188 0-1.0625 0.76562-1.0625 1.5312 0 1.25 1.0781 2.1562 2.3125 2.1562 1.2812 0 2.2656-0.98438 2.2656-2.1406 0-1.3281-1.2031-1.6562-1.2969-1.6562z"/>
</symbol>
<symbol id="x" overflow="visible">
<path d="m0-2.5469h-0.3125c0 0.67188 0 0.78125-0.4375 0.78125h-6.1719l0.10938 1.4375h0.3125c0-0.70312 0.0625-0.78125 0.5625-0.78125h5.1875c0.4375 0 0.4375 0.10938 0.4375 0.78125h0.3125l-0.03125-1.1094z"/>
</symbol>
<clipPath id="ap">
<path d="m20.191 1h194.27v153h-194.27z"/>
</clipPath>
</defs>
<path transform="matrix(1 0 0 -1 20.193 162.4)" d="m-0.0015938 25.618h194.27m-194.27 76.855h194.27m-194.27 42.27h194.27" fill="none" stroke="#bfbfbf" stroke-miterlimit="10" stroke-width=".3985"/>
<path transform="matrix(1 0 0 -1 20.193 162.4)" d="m-0.0015938 25.618h4.2539m-4.2539 76.855h4.2539m-4.2539 42.27h4.2539m190.02-119.12h-4.25m4.25 76.855h-4.25m4.25 42.27h-4.25" fill="none" stroke="#7f7f7f" stroke-miterlimit="10" stroke-width=".19925"/>
<path transform="matrix(1 0 0 -1 20.193 162.4)" d="m-0.0015938 4.6875e-4v161.39h194.27v-161.39z" fill="none" stroke="#000" stroke-miterlimit="10" stroke-width=".3985"/>
<g clip-path="url(#ap)">
<path transform="matrix(1 0 0 -1 20.193 162.4)" d="m-0.0015938 25.618h28.645c11.004 0 23.086 8.3438 26.988 18.633l34.441 90.828c3.8984 10.289 13.199 12.156 20.77 4.1719l21.152-22.316c7.5703-7.9883 22.629-14.461 33.633-14.461h28.641" fill="none" stroke="#0c6dfd" stroke-miterlimit="10" stroke-width="1.1955"/>
</g>
<path transform="matrix(1 0 0 -1 20.193 162.4)" d="m19.428 25.618v116.54" fill="none" stroke="#000" stroke-miterlimit="10" stroke-width=".79701"/>
<path d="m39.621 17.652-2.0742 4.1445 2.0742-1.5547 2.0703 1.5547"/>
<g>
<use x="43.339" y="79.194" xlink:href="#s"/>
<use x="50.693" y="80.688" xlink:href="#e"/>
<use x="54.68" y="80.688" xlink:href="#o"/>
<use x="57.047" y="80.688" xlink:href="#am"/>
<use x="61.447468" y="80.688" xlink:href="#r"/>
<use x="63.702795" y="80.688" xlink:href="#q"/>
<use x="66.815899" y="80.688" xlink:href="#p"/>
<use x="70.357892" y="80.688" xlink:href="#al"/>
<use x="73.470996" y="80.688" xlink:href="#e"/>
</g>
<path transform="matrix(1 0 0 -1 20.193 162.4)" d="m174.84 102.47v39.68" fill="none" stroke="#000" stroke-miterlimit="10" stroke-width=".79701"/>
<path d="m195.04 17.652-2.0703 4.1445 2.0703-1.5547 2.0703 1.5547"/>
<g>
<use x="152.896" y="40.767" xlink:href="#s"/>
<use x="160.251" y="42.261" xlink:href="#e"/>
<use x="164.238" y="42.261" xlink:href="#o"/>
<use x="166.604" y="42.261" xlink:href="#r"/>
<use x="168.859327" y="42.261" xlink:href="#ak"/>
<use x="173.043607" y="42.261" xlink:href="#aj"/>
<use x="177.020068" y="42.261" xlink:href="#p"/>
<use x="180.562061" y="42.261" xlink:href="#q"/>
<use x="183.675165" y="42.261" xlink:href="#ai"/>
<use x="186.831507" y="42.261" xlink:href="#e"/>
</g>
<path transform="matrix(1 0 0 -1 20.193 162.4)" d="m101.99 25.618v74.266" fill="none" stroke="#000" stroke-miterlimit="10" stroke-width=".79701"/>
<path d="m122.18 59.922-2.0703 4.1445 2.0703-1.5547 2.0742 1.5547"/>
<g>
<use x="125.902" y="101.722" xlink:href="#ah"/>
<use x="134.204" y="101.722" xlink:href="#ao"/>
<use x="146.062483" y="101.722" xlink:href="#an"/>
<use x="156.578" y="101.722" xlink:href="#ag"/>
<use x="170.279" y="75.429" xlink:href="#n"/>
<use x="177.059546" y="75.429" xlink:href="#d"/>
<use x="180.961896" y="75.429" xlink:href="#b"/>
<use x="186.222149" y="75.429" xlink:href="#l"/>
<use x="191.757369" y="75.429" xlink:href="#ac"/>
<use x="197.29259" y="75.429" xlink:href="#k"/>
<use x="201.167045" y="75.429" xlink:href="#b"/>
<use x="206.148345" y="75.429" xlink:href="#c"/>
<use x="25.852" y="152.283" xlink:href="#ab"/>
<use x="33.18547" y="152.283" xlink:href="#a"/>
<use x="37.613846" y="152.283" xlink:href="#f"/>
<use x="42.595146" y="152.283" xlink:href="#m"/>
<use x="47.576446" y="152.283" xlink:href="#a"/>
<use x="52.004821" y="152.283" xlink:href="#af"/>
<use x="57.261089" y="152.283" xlink:href="#k"/>
<use x="61.135544" y="152.283" xlink:href="#a"/>
<use x="65.56392" y="152.283" xlink:href="#c"/>
<use x="73.989" y="172.778" xlink:href="#n"/>
<use x="80.769546" y="172.778" xlink:href="#d"/>
<use x="84.671896" y="172.778" xlink:href="#b"/>
<use x="89.653196" y="172.778" xlink:href="#m"/>
<use x="94.634496" y="172.778" xlink:href="#d"/>
<use x="98.536846" y="172.778" xlink:href="#a"/>
<use x="102.965222" y="172.778" xlink:href="#c"/>
<use x="106.895468" y="172.778" xlink:href="#c"/>
<use x="110.825714" y="172.778" xlink:href="#b"/>
<use x="119.124559" y="172.778" xlink:href="#l"/>
<use x="124.65978" y="172.778" xlink:href="#f"/>
<use x="132.958626" y="172.778" xlink:href="#d"/>
<use x="136.860976" y="172.778" xlink:href="#a"/>
<use x="141.289352" y="172.778" xlink:href="#f"/>
<use x="146.270652" y="172.778" xlink:href="#ae"/>
<use x="150.699027" y="172.778" xlink:href="#ad"/>
<use x="155.680327" y="172.778" xlink:href="#b"/>
<use x="7.896" y="119.833" xlink:href="#aa"/>
<use x="7.896" y="113.052454" xlink:href="#j"/>
<use x="7.896" y="107.517234" xlink:href="#i"/>
<use x="7.896" y="103.088858" xlink:href="#w"/>
<use x="7.896" y="99.186508" xlink:href="#v"/>
<use x="7.896" y="94.205208" xlink:href="#h"/>
<use x="7.896" y="91.437597" xlink:href="#g"/>
<use x="7.896" y="83.138752" xlink:href="#u"/>
<use x="7.896" y="77.324578" xlink:href="#t"/>
<use x="7.896" y="72.343278" xlink:href="#z"/>
<use x="7.896" y="68.468823" xlink:href="#i"/>
<use x="7.896" y="64.040447" xlink:href="#j"/>
<use x="7.896" y="58.505227" xlink:href="#y"/>
<use x="7.896" y="54.076851" xlink:href="#h"/>
<use x="7.896" y="51.309241" xlink:href="#g"/>
<use x="7.896" y="46.327941" xlink:href="#x"/>
</g>
</svg>
