<?xml version="1.0" encoding="UTF-8"?>
<svg width="261pt" height="38pt" version="1.1" viewBox="0 0 261 38" xmlns="http://www.w3.org/2000/svg" xmlns:xlink="http://www.w3.org/1999/xlink">
<defs>
<symbol id="b" overflow="visible">
<path d="m4.9688-1.8594c0-0.98438-0.65625-1.8125-1.4844-2.0156l-1.2812-0.29688c-0.625-0.15625-1-0.6875-1-1.2656 0-0.70312 0.53125-1.3125 1.3125-1.3125 1.6562 0 1.875 1.6406 1.9375 2.0781 0.015625 0.0625 0.015625 0.125 0.125 0.125 0.125 0 0.125-0.046875 0.125-0.23438v-2c0-0.17188 0-0.25-0.10938-0.25-0.0625 0-0.078125 0.015625-0.14062 0.14062l-0.35938 0.5625c-0.29688-0.29688-0.70312-0.70312-1.5938-0.70312-1.1094 0-1.9375 0.875-1.9375 1.9375 0 0.82812 0.53125 1.5625 1.2969 1.8281 0.10938 0.03125 0.625 0.15625 1.3281 0.32812 0.26562 0.0625 0.5625 0.14062 0.84375 0.5 0.20312 0.26562 0.3125 0.59375 0.3125 0.92188 0 0.70312-0.5 1.4219-1.3438 1.4219-0.28125 0-1.0469-0.046875-1.5781-0.53125-0.57812-0.54688-0.60938-1.1719-0.60938-1.5312-0.015625-0.10938-0.09375-0.10938-0.125-0.10938-0.125 0-0.125 0.078125-0.125 0.25v2c0 0.17188 0 0.23438 0.10938 0.23438 0.0625 0 0.078125-0.015625 0.14062-0.125 0 0 0.03125-0.046875 0.35938-0.57812 0.3125 0.34375 0.95312 0.70312 1.8438 0.70312 1.1562 0 1.9531-0.96875 1.9531-2.0781z"/>
</symbol>
<symbol id="k" overflow="visible">
<path d="m7.1875-3.375c0-2.0312-1.5-3.6562-3.3125-3.6562-1.7969 0-3.3125 1.5938-3.3125 3.6562 0 2.0469 1.5312 3.5938 3.3125 3.5938 1.8125 0 3.3125-1.5781 3.3125-3.5938zm-1.0312-0.14062c0 2.6406-1.3594 3.4688-2.2812 3.4688-0.95312 0-2.2969-0.875-2.2969-3.4688 0-2.5781 1.4688-3.2656 2.2969-3.2656 0.85938 0 2.2812 0.70312 2.2812 3.2656z"/>
</symbol>
<symbol id="r" overflow="visible">
<path d="m7.1406 0v-0.3125h-0.25c-0.76562 0-0.78125-0.10938-0.78125-0.46875v-5.25c0-0.35938 0.015625-0.46875 0.78125-0.46875h0.25v-0.3125c-0.35938 0.03125-1.0938 0.03125-1.4688 0.03125s-1.125 0-1.4688-0.03125v0.3125h0.23438c0.76562 0 0.78125 0.10938 0.78125 0.46875v2.3281h-2.9688v-2.3281c0-0.35938 0.015625-0.46875 0.78125-0.46875h0.23438v-0.3125c-0.34375 0.03125-1.0781 0.03125-1.4688 0.03125-0.375 0-1.125 0-1.4688-0.03125v0.3125h0.23438c0.76562 0 0.79688 0.10938 0.79688 0.46875v5.25c0 0.35938-0.03125 0.46875-0.79688 0.46875h-0.23438v0.3125c0.34375-0.03125 1.0938-0.03125 1.4688-0.03125s1.125 0 1.4688 0.03125v-0.3125h-0.23438c-0.76562 0-0.78125-0.10938-0.78125-0.46875v-2.6094h2.9688v2.6094c0 0.35938-0.015625 0.46875-0.78125 0.46875h-0.23438v0.3125c0.34375-0.03125 1.0781-0.03125 1.4531-0.03125 0.39062 0 1.125 0 1.4844 0.03125z"/>
</symbol>
<symbol id="q" overflow="visible">
<path d="m3.6875-1.1406v-0.25h-0.78125v-3.1094c0-0.14062 0-0.20312-0.14062-0.20312-0.09375 0-0.125 0-0.1875 0.10938l-2.3125 3.2031v0.25h2.0625v0.5625c0 0.25 0 0.32812-0.57812 0.32812h-0.1875v0.25l1.0469-0.03125 1.0625 0.03125v-0.25h-0.1875c-0.57812 0-0.57812-0.078125-0.57812-0.32812v-0.5625zm-1.3125-0.25h-1.8438l1.8438-2.5469z"/>
</symbol>
<symbol id="i" overflow="visible">
<path d="m3.5156-1.2656h-0.23438c-0.015625 0.15625-0.09375 0.5625-0.1875 0.625-0.046875 0.046875-0.57812 0.046875-0.6875 0.046875h-1.2812c0.73438-0.64062 0.98438-0.84375 1.3906-1.1719 0.51562-0.40625 1-0.84375 1-1.5 0-0.84375-0.73438-1.3594-1.625-1.3594-0.85938 0-1.4531 0.60938-1.4531 1.25 0 0.34375 0.29688 0.39062 0.375 0.39062 0.15625 0 0.35938-0.125 0.35938-0.375 0-0.125-0.046875-0.375-0.40625-0.375 0.21875-0.48438 0.6875-0.64062 1.0156-0.64062 0.70312 0 1.0625 0.54688 1.0625 1.1094 0 0.60938-0.4375 1.0781-0.65625 1.3281l-1.6719 1.6719c-0.078125 0.0625-0.078125 0.078125-0.078125 0.26562h2.875z"/>
</symbol>
<symbol id="h" overflow="visible">
<path d="m3.9062-1.75v-0.20312h-3.8438v0.20312z"/>
</symbol>
<symbol id="n" overflow="visible">
<path d="m3.5781-1.2031c0-0.54688-0.4375-1.0938-1.2031-1.25 0.71875-0.26562 0.98438-0.78125 0.98438-1.2188 0-0.54688-0.625-0.95312-1.4062-0.95312-0.76562 0-1.3594 0.375-1.3594 0.9375 0 0.23438 0.15625 0.35938 0.35938 0.35938 0.21875 0 0.35938-0.15625 0.35938-0.34375 0-0.20312-0.14062-0.35938-0.35938-0.375 0.25-0.29688 0.71875-0.375 0.98438-0.375 0.3125 0 0.75 0.15625 0.75 0.75 0 0.29688-0.09375 0.625-0.28125 0.82812-0.21875 0.26562-0.42188 0.28125-0.76562 0.3125-0.17188 0.015625-0.1875 0.015625-0.21875 0.015625 0 0-0.078125 0.015625-0.078125 0.09375 0 0.09375 0.0625 0.09375 0.1875 0.09375h0.375c0.54688 0 0.9375 0.375 0.9375 1.125 0 0.85938-0.51562 1.125-0.90625 1.125-0.28125 0-0.90625-0.078125-1.1875-0.5 0.32812 0 0.40625-0.23438 0.40625-0.39062 0-0.21875-0.17188-0.375-0.39062-0.375-0.1875 0-0.39062 0.125-0.39062 0.40625 0 0.65625 0.71875 1.0781 1.5625 1.0781 0.96875 0 1.6406-0.65625 1.6406-1.3438z"/>
</symbol>
<symbol id="p" overflow="visible">
<path d="m3.5781-1.1719c0-0.46875-0.26562-0.85938-0.67188-1.0938l-0.4375-0.25c0.54688-0.26562 0.89062-0.59375 0.89062-1.0781 0-0.67188-0.70312-1.0312-1.375-1.0312-0.76562 0-1.3906 0.5-1.3906 1.1562 0 0.32812 0.15625 0.5625 0.28125 0.70312 0.125 0.15625 0.17188 0.1875 0.57812 0.42188-0.39062 0.17188-1.0781 0.54688-1.0781 1.2812 0 0.76562 0.79688 1.2031 1.5938 1.2031 0.89062 0 1.6094-0.5625 1.6094-1.3125zm-0.57812-2.4219c0 0.625-0.73438 0.9375-0.73438 0.9375s-0.03125 0-0.078125-0.03125l-0.84375-0.48438c-0.1875-0.10938-0.375-0.29688-0.375-0.5625 0-0.4375 0.5-0.6875 1-0.6875 0.54688 0 1.0312 0.34375 1.0312 0.82812zm0.15625 2.6562c0 0.53125-0.57812 0.85938-1.1719 0.85938-0.64062 0-1.1875-0.42188-1.1875-0.98438 0-0.51562 0.375-0.92188 0.875-1.1406 0.39062 0.21875 0.40625 0.21875 0.96875 0.54688 0.17188 0.10938 0.51562 0.3125 0.51562 0.71875z"/>
</symbol>
<symbol id="g" overflow="visible">
<path d="m5.4688-1.7344c0-0.1875-0.17188-0.1875-0.26562-0.1875h-4.1875c-0.10938 0-0.26562 0-0.26562 0.1875 0 0.15625 0.17188 0.15625 0.26562 0.15625h4.1875c0.09375 0 0.26562 0 0.26562-0.15625z"/>
</symbol>
<symbol id="f" overflow="visible">
<path d="m3.5938-2.2188c0-0.76562-0.09375-1.3281-0.40625-1.8125-0.21875-0.3125-0.65625-0.59375-1.2031-0.59375-1.625 0-1.625 1.9062-1.625 2.4062s0 2.3594 1.625 2.3594c1.6094 0 1.6094-1.8594 1.6094-2.3594zm-0.625-0.09375c0 0.51562 0 1.0312-0.09375 1.4688-0.14062 0.64062-0.60938 0.78125-0.89062 0.78125-0.32812 0-0.75-0.1875-0.89062-0.75-0.09375-0.40625-0.09375-0.98438-0.09375-1.5s0-1.0469 0.09375-1.4219c0.15625-0.54688 0.59375-0.70312 0.89062-0.70312 0.375 0 0.73438 0.23438 0.85938 0.64062 0.10938 0.375 0.125 0.875 0.125 1.4844z"/>
</symbol>
<symbol id="o" overflow="visible">
<path d="m3.5781-2.2969c0-1.7188-0.76562-2.3281-1.5781-2.3281-0.23438 0-0.70312 0.03125-1.1094 0.42188-0.23438 0.23438-0.51562 0.5-0.51562 1.125 0 0.89062 0.70312 1.5469 1.5156 1.5469 0.5625 0 0.85938-0.375 1.0156-0.6875v0.14062c0 1.7344-0.84375 2-1.2656 2-0.15625 0-0.53125-0.015625-0.71875-0.23438 0.29688-0.03125 0.3125-0.26562 0.3125-0.32812 0-0.17188-0.125-0.32812-0.32812-0.32812s-0.32812 0.14062-0.32812 0.34375c0 0.46875 0.39062 0.76562 1.0625 0.76562 1 0 1.9375-0.9375 1.9375-2.4375zm-0.6875-0.70312c0 0.90625-0.51562 1.2656-0.95312 1.2656-0.28125 0-0.53125-0.078125-0.73438-0.40625-0.15625-0.25-0.15625-0.54688-0.15625-0.9375 0-0.40625 0-0.67188 0.20312-0.95312 0.17188-0.25 0.39062-0.39062 0.75-0.39062s0.57812 0.21875 0.6875 0.40625c0.1875 0.28125 0.20312 0.78125 0.20312 1.0156z"/>
</symbol>
<symbol id="j" overflow="visible">
<path d="m3.6875-1.1406v-0.25h-0.78125v-3.1094c0-0.14062 0-0.20312-0.14062-0.20312-0.09375 0-0.125 0-0.1875 0.10938l-2.3125 3.2031v0.25h2.0625v0.5625c0 0.25 0 0.32812-0.57812 0.32812h-0.1875v0.25l1.0469-0.03125 1.0625 0.03125v-0.25h-0.1875c-0.57812 0-0.57812-0.078125-0.57812-0.32812v-0.5625zm-1.3125-0.25h-1.8438l1.8438-2.5469z"/>
</symbol>
<symbol id="e" overflow="visible">
<path d="m5.6562-4.5156v-0.25c-0.20312 0.03125-0.48438 0.03125-0.6875 0.03125-0.26562 0-0.78125-0.03125-0.82812-0.03125v0.25c0.25 0 0.48438 0.125 0.48438 0.32812 0 0.0625-0.015625 0.10938-0.046875 0.15625l-1.4375 3.3594-1.5-3.5312c-0.046875-0.078125-0.046875-0.09375-0.046875-0.125 0-0.1875 0.35938-0.1875 0.54688-0.1875v-0.25l-1.0312 0.03125c-0.34375 0-0.875-0.03125-0.89062-0.03125v0.25h0.10938c0.375 0 0.5 0.046875 0.59375 0.25l1.8125 4.25c0.046875 0.10938 0.0625 0.15625 0.20312 0.15625 0.0625 0 0.14062 0 0.20312-0.14062l1.7188-4.0469c0.09375-0.21875 0.26562-0.45312 0.79688-0.46875z"/>
</symbol>
<symbol id="m" overflow="visible">
<path d="m3.7969-4.4844h-1.8281c-0.28125 0-0.35938-0.015625-0.60938-0.03125-0.35938-0.03125-0.375-0.078125-0.39062-0.1875h-0.23438l-0.25 1.4844h0.23438c0.015625-0.10938 0.09375-0.5625 0.20312-0.64062 0.046875-0.03125 0.625-0.03125 0.71875-0.03125h1.5156l-0.71875 0.92188c-0.90625 1.1875-1 2.2969-1 2.7031 0 0.078125 0 0.40625 0.32812 0.40625 0.34375 0 0.34375-0.3125 0.34375-0.40625v-0.28125c0-1.3438 0.28125-1.9688 0.57812-2.3438l1.0469-1.3125c0.0625-0.09375 0.0625-0.10938 0.0625-0.28125z"/>
</symbol>
<symbol id="l" overflow="visible">
<path d="m3.5781-1.4219c0-0.89062-0.70312-1.5469-1.5156-1.5469-0.5625 0-0.85938 0.375-1.0156 0.6875 0-0.5625 0.046875-1.0781 0.3125-1.5156 0.23438-0.375 0.60938-0.625 1.0625-0.625 0.20312 0 0.48438 0.046875 0.625 0.23438-0.17188 0.015625-0.32812 0.14062-0.32812 0.34375 0 0.17188 0.125 0.32812 0.32812 0.32812 0.21875 0 0.34375-0.14062 0.34375-0.34375 0-0.40625-0.29688-0.76562-0.98438-0.76562-1 0-2.0312 0.92188-2.0312 2.4219 0 1.7969 0.84375 2.3438 1.625 2.3438 0.84375 0 1.5781-0.65625 1.5781-1.5625zm-0.67188 0c0 0.39062 0 0.6875-0.1875 0.96875-0.15625 0.23438-0.39062 0.375-0.71875 0.375-0.35938 0-0.625-0.20312-0.78125-0.51562-0.09375-0.20312-0.15625-0.5625-0.15625-0.96875 0-0.6875 0.40625-1.2031 0.96875-1.2031 0.3125 0 0.53125 0.125 0.70312 0.375 0.17188 0.26562 0.17188 0.5625 0.17188 0.96875z"/>
</symbol>
<symbol id="d" overflow="visible">
<path d="m1.6719-0.046875c0-0.42188-0.17188-0.75-0.5-0.75-0.21875 0-0.39062 0.17188-0.39062 0.39062s0.15625 0.40625 0.40625 0.40625c0.17188 0 0.28125-0.10938 0.28125-0.10938 0 0.375-0.0625 0.82812-0.54688 1.2656-0.015625 0.03125-0.046875 0.0625-0.046875 0.09375 0 0.046875 0.0625 0.09375 0.09375 0.09375 0.10938 0 0.70312-0.5625 0.70312-1.3906z"/>
</symbol>
<symbol id="a" overflow="visible">
<path d="m6.9219-2.5c0-0.1875-0.1875-0.1875-0.32812-0.1875h-5.4375c-0.14062 0-0.32812 0-0.32812 0.1875 0 0.20312 0.1875 0.20312 0.32812 0.20312h5.4375c0.14062 0 0.32812 0 0.32812-0.20312z"/>
</symbol>
<symbol id="c" overflow="visible">
<path d="m9.4062-2.5c0-0.046875-0.046875-0.078125-0.078125-0.09375-1.0781-0.375-1.8594-1.2969-2.0469-2.4062-0.015625-0.046875-0.0625-0.09375-0.10938-0.09375h-0.1875c-0.0625 0-0.10938 0.046875-0.10938 0.125 0.15625 0.92188 0.6875 1.7344 1.4219 2.2812h-7.5469c-0.125 0-0.20312 0.09375-0.20312 0.1875 0 0.10938 0.078125 0.20312 0.20312 0.20312h7.5469c-0.73438 0.54688-1.2656 1.3594-1.4219 2.2812 0 0.078125 0.046875 0.125 0.10938 0.125h0.1875c0.046875 0 0.09375-0.046875 0.10938-0.09375 0.1875-1.1094 0.96875-2.0312 2.0469-2.4062 0.03125-0.015625 0.078125-0.046875 0.078125-0.10938z"/>
</symbol>
</defs>
<g>
<use x="0.29" y="11.265" xlink:href="#b"/>
<use x="5.825221" y="11.265" xlink:href="#k"/>
<use x="13.574" y="12.759" xlink:href="#q"/>
<use x="18.043" y="6.865" xlink:href="#i"/>
<use x="22.913502" y="6.865" xlink:href="#h"/>
<use x="33.32" y="5.147" xlink:href="#g"/>
<use x="39.547" y="5.147" xlink:href="#f"/>
<use x="43.518" y="5.147" xlink:href="#d"/>
<use x="45.884" y="5.147" xlink:href="#o"/>
<use x="49.854882" y="5.147" xlink:href="#j"/>
<use x="55.150785" y="5.147" xlink:href="#e"/>
<use x="31.053" y="11.265" xlink:href="#a"/>
<use x="34.796945" y="11.265" xlink:href="#a"/>
<use x="40.334158" y="11.265" xlink:href="#a"/>
<use x="45.871371" y="11.265" xlink:href="#a"/>
<use x="51.408584" y="11.265" xlink:href="#a"/>
<use x="55.152529" y="11.265" xlink:href="#c"/>
<use x="67.881" y="11.265" xlink:href="#b"/>
<use x="73.416221" y="11.265" xlink:href="#k"/>
<use x="81.164" y="12.759" xlink:href="#n"/>
<use x="85.634" y="6.865" xlink:href="#i"/>
<use x="90.504502" y="6.865" xlink:href="#h"/>
<use x="98.643" y="11.265" xlink:href="#a"/>
<use x="103.622307" y="11.265" xlink:href="#a"/>
<use x="108.601615" y="11.265" xlink:href="#c"/>
<use x="121.335" y="11.265" xlink:href="#b"/>
<use x="126.87" y="12.759" xlink:href="#i"/>
<use x="131.339" y="11.265" xlink:href="#k"/>
<use x="139.088" y="12.759" xlink:href="#n"/>
<use x="143.558" y="6.865" xlink:href="#i"/>
<use x="148.428502" y="6.865" xlink:href="#h"/>
<use x="158.835" y="5.147" xlink:href="#g"/>
<use x="165.061" y="5.147" xlink:href="#f"/>
<use x="169.032" y="5.147" xlink:href="#d"/>
<use x="171.398" y="5.147" xlink:href="#m"/>
<use x="175.368882" y="5.147" xlink:href="#j"/>
<use x="180.664785" y="5.147" xlink:href="#e"/>
<use x="156.567" y="11.265" xlink:href="#a"/>
<use x="160.310945" y="11.265" xlink:href="#a"/>
<use x="165.848158" y="11.265" xlink:href="#a"/>
<use x="171.385371" y="11.265" xlink:href="#a"/>
<use x="176.922584" y="11.265" xlink:href="#a"/>
<use x="180.666529" y="11.265" xlink:href="#c"/>
<use x="193.395" y="11.265" xlink:href="#b"/>
<use x="198.93" y="12.759" xlink:href="#p"/>
<use x="208.434" y="5.147" xlink:href="#g"/>
<use x="214.661" y="5.147" xlink:href="#f"/>
<use x="218.632" y="5.147" xlink:href="#d"/>
<use x="220.998" y="5.147" xlink:href="#j"/>
<use x="224.968882" y="5.147" xlink:href="#m"/>
<use x="230.264785" y="5.147" xlink:href="#e"/>
<use x="206.166" y="11.265" xlink:href="#a"/>
<use x="209.909945" y="11.265" xlink:href="#a"/>
<use x="215.447158" y="11.265" xlink:href="#a"/>
<use x="220.984371" y="11.265" xlink:href="#a"/>
<use x="226.521584" y="11.265" xlink:href="#a"/>
<use x="230.265529" y="11.265" xlink:href="#c"/>
<use x="242.994" y="11.265" xlink:href="#r"/>
<use x="250.46595" y="11.265" xlink:href="#b"/>
<use x="256.902" y="6.865" xlink:href="#h"/>
</g>
<path transform="matrix(1 0 0 -1 265.59 11.265)" d="m-183.72-5.985v-19.922h116.52v17.988" fill="none" stroke="#000" stroke-miterlimit="10" stroke-width=".3985"/>
<path transform="matrix(0 -1 -1 0 198.4 21.892)" d="m4.443 0.0018288-3.2812 1.3125 1.6484-1.3125-1.6484-1.3164z" stroke="#000" stroke-linejoin="round" stroke-miterlimit="10" stroke-width=".3985"/>
<g>
<use x="167.166" y="32.297" xlink:href="#g"/>
<use x="173.393" y="32.297" xlink:href="#f"/>
<use x="177.364" y="32.297" xlink:href="#d"/>
<use x="179.73" y="32.297" xlink:href="#l"/>
<use x="183.700882" y="32.297" xlink:href="#l"/>
<use x="188.996785" y="32.297" xlink:href="#e"/>
</g>
</svg>
