<?xml version="1.0" encoding="UTF-8"?>
<svg width="250pt" height="66pt" version="1.1" viewBox="0 0 250 66" xmlns="http://www.w3.org/2000/svg" xmlns:xlink="http://www.w3.org/1999/xlink">
<defs>
<symbol id="c" overflow="visible">
<path d="m8.7656 0v-0.3125h-0.25c-0.76562 0-0.78125-0.10938-0.78125-0.46875v-5.25c0-0.35938 0.015625-0.46875 0.78125-0.46875h0.25v-0.3125h-1.6875c-0.26562 0-0.26562 0.015625-0.32812 0.1875l-2.1875 5.625-2.1562-5.5938c-0.09375-0.21875-0.125-0.21875-0.35938-0.21875h-1.6719v0.3125h0.23438c0.76562 0 0.78125 0.10938 0.78125 0.46875v4.9844c0 0.26562 0 0.73438-1.0156 0.73438v0.3125l1.1562-0.03125 1.1719 0.03125v-0.3125c-1.0312 0-1.0312-0.46875-1.0312-0.73438v-5.375h0.015625l2.4062 6.2031c0.046875 0.125 0.09375 0.21875 0.1875 0.21875 0.10938 0 0.14062-0.078125 0.1875-0.1875l2.4531-6.3125v5.7188c0 0.35938-0.015625 0.46875-0.78125 0.46875h-0.23438v0.3125c0.35938-0.03125 1.0469-0.03125 1.4375-0.03125 0.375 0 1.0469 0 1.4219 0.03125z"/>
</symbol>
<symbol id="b" overflow="visible">
<path d="m5.3281 0v-0.3125c-0.51562 0-0.76562 0-0.76562-0.29688v-1.9062c0-0.85938 0-1.1562-0.3125-1.5156-0.14062-0.17188-0.46875-0.375-1.0469-0.375-0.73438 0-1.2031 0.42188-1.4844 1.0469v-1.0469l-1.4062 0.10938v0.3125c0.70312 0 0.78125 0.0625 0.78125 0.5625v2.6719c0 0.4375-0.10938 0.4375-0.78125 0.4375v0.3125l1.1406-0.03125 1.1094 0.03125v-0.3125c-0.67188 0-0.78125 0-0.78125-0.4375v-1.8438c0-1.0312 0.71875-1.5938 1.3438-1.5938 0.64062 0 0.75 0.53125 0.75 1.1094v2.3281c0 0.4375-0.10938 0.4375-0.78125 0.4375v0.3125l1.125-0.03125z"/>
</symbol>
<symbol id="m" overflow="visible">
<path d="m7.1875-3.375c0-2.0312-1.5-3.6562-3.3125-3.6562-1.7969 0-3.3125 1.5938-3.3125 3.6562 0 2.0469 1.5312 3.5938 3.3125 3.5938 1.8125 0 3.3125-1.5781 3.3125-3.5938zm-1.0312-0.14062c0 2.6406-1.3594 3.4688-2.2812 3.4688-0.95312 0-2.2969-0.875-2.2969-3.4688 0-2.5781 1.4688-3.2656 2.2969-3.2656 0.85938 0 2.2812 0.70312 2.2812 3.2656z"/>
</symbol>
<symbol id="s" overflow="visible">
<path d="m3.6875-1.1406v-0.25h-0.78125v-3.1094c0-0.14062 0-0.20312-0.14062-0.20312-0.09375 0-0.125 0-0.1875 0.10938l-2.3125 3.2031v0.25h2.0625v0.5625c0 0.25 0 0.32812-0.57812 0.32812h-0.1875v0.25l1.0469-0.03125 1.0625 0.03125v-0.25h-0.1875c-0.57812 0-0.57812-0.078125-0.57812-0.32812v-0.5625zm-1.3125-0.25h-1.8438l1.8438-2.5469z"/>
</symbol>
<symbol id="r" overflow="visible">
<path d="m3.9062-1.75v-0.20312h-3.8438v0.20312z"/>
</symbol>
<symbol id="l" overflow="visible">
<path d="m3.5156-1.2656h-0.23438c-0.015625 0.15625-0.09375 0.5625-0.1875 0.625-0.046875 0.046875-0.57812 0.046875-0.6875 0.046875h-1.2812c0.73438-0.64062 0.98438-0.84375 1.3906-1.1719 0.51562-0.40625 1-0.84375 1-1.5 0-0.84375-0.73438-1.3594-1.625-1.3594-0.85938 0-1.4531 0.60938-1.4531 1.25 0 0.34375 0.29688 0.39062 0.375 0.39062 0.15625 0 0.35938-0.125 0.35938-0.375 0-0.125-0.046875-0.375-0.40625-0.375 0.21875-0.48438 0.6875-0.64062 1.0156-0.64062 0.70312 0 1.0625 0.54688 1.0625 1.1094 0 0.60938-0.4375 1.0781-0.65625 1.3281l-1.6719 1.6719c-0.078125 0.0625-0.078125 0.078125-0.078125 0.26562h2.875z"/>
</symbol>
<symbol id="q" overflow="visible">
<path d="m3.5781-1.2031c0-0.54688-0.4375-1.0938-1.2031-1.25 0.71875-0.26562 0.98438-0.78125 0.98438-1.2188 0-0.54688-0.625-0.95312-1.4062-0.95312-0.76562 0-1.3594 0.375-1.3594 0.9375 0 0.23438 0.15625 0.35938 0.35938 0.35938 0.21875 0 0.35938-0.15625 0.35938-0.34375 0-0.20312-0.14062-0.35938-0.35938-0.375 0.25-0.29688 0.71875-0.375 0.98438-0.375 0.3125 0 0.75 0.15625 0.75 0.75 0 0.29688-0.09375 0.625-0.28125 0.82812-0.21875 0.26562-0.42188 0.28125-0.76562 0.3125-0.17188 0.015625-0.1875 0.015625-0.21875 0.015625 0 0-0.078125 0.015625-0.078125 0.09375 0 0.09375 0.0625 0.09375 0.1875 0.09375h0.375c0.54688 0 0.9375 0.375 0.9375 1.125 0 0.85938-0.51562 1.125-0.90625 1.125-0.28125 0-0.90625-0.078125-1.1875-0.5 0.32812 0 0.40625-0.23438 0.40625-0.39062 0-0.21875-0.17188-0.375-0.39062-0.375-0.1875 0-0.39062 0.125-0.39062 0.40625 0 0.65625 0.71875 1.0781 1.5625 1.0781 0.96875 0 1.6406-0.65625 1.6406-1.3438z"/>
</symbol>
<symbol id="k" overflow="visible">
<path d="m5.6094-1.7344c0-0.1875-0.15625-0.1875-0.25-0.1875h-2.1406v-2.1406c0-0.078125 0-0.25-0.15625-0.25-0.17188 0-0.17188 0.15625-0.17188 0.25v2.1406h-2.1406c-0.09375 0-0.26562 0-0.26562 0.17188s0.15625 0.17188 0.26562 0.17188h2.1406v2.1406c0 0.09375 0 0.26562 0.15625 0.26562 0.17188 0 0.17188-0.17188 0.17188-0.26562v-2.1406h2.1406c0.09375 0 0.25 0 0.25-0.15625z"/>
</symbol>
<symbol id="a" overflow="visible">
<path d="m6.9219-2.5c0-0.1875-0.1875-0.1875-0.32812-0.1875h-5.4375c-0.14062 0-0.32812 0-0.32812 0.1875 0 0.20312 0.1875 0.20312 0.32812 0.20312h5.4375c0.14062 0 0.32812 0 0.32812-0.20312z"/>
</symbol>
<symbol id="g" overflow="visible">
<path d="m9.4062-2.5c0-0.046875-0.046875-0.078125-0.078125-0.09375-1.0781-0.375-1.8594-1.2969-2.0469-2.4062-0.015625-0.046875-0.0625-0.09375-0.10938-0.09375h-0.1875c-0.0625 0-0.10938 0.046875-0.10938 0.125 0.15625 0.92188 0.6875 1.7344 1.4219 2.2812h-7.5469c-0.125 0-0.20312 0.09375-0.20312 0.1875 0 0.10938 0.078125 0.20312 0.20312 0.20312h7.5469c-0.73438 0.54688-1.2656 1.3594-1.4219 2.2812 0 0.078125 0.046875 0.125 0.10938 0.125h0.1875c0.046875 0 0.09375-0.046875 0.10938-0.09375 0.1875-1.1094 0.96875-2.0312 2.0469-2.4062 0.03125-0.015625 0.078125-0.046875 0.078125-0.10938z"/>
</symbol>
<symbol id="j" overflow="visible">
<path d="m3.5938-2.2188c0-0.76562-0.09375-1.3281-0.40625-1.8125-0.21875-0.3125-0.65625-0.59375-1.2031-0.59375-1.625 0-1.625 1.9062-1.625 2.4062s0 2.3594 1.625 2.3594c1.6094 0 1.6094-1.8594 1.6094-2.3594zm-0.625-0.09375c0 0.51562 0 1.0312-0.09375 1.4688-0.14062 0.64062-0.60938 0.78125-0.89062 0.78125-0.32812 0-0.75-0.1875-0.89062-0.75-0.09375-0.40625-0.09375-0.98438-0.09375-1.5s0-1.0469 0.09375-1.4219c0.15625-0.54688 0.59375-0.70312 0.89062-0.70312 0.375 0 0.73438 0.23438 0.85938 0.64062 0.10938 0.375 0.125 0.875 0.125 1.4844z"/>
</symbol>
<symbol id="p" overflow="visible">
<path d="m3.5781-2.2969c0-1.7188-0.76562-2.3281-1.5781-2.3281-0.23438 0-0.70312 0.03125-1.1094 0.42188-0.23438 0.23438-0.51562 0.5-0.51562 1.125 0 0.89062 0.70312 1.5469 1.5156 1.5469 0.5625 0 0.85938-0.375 1.0156-0.6875v0.14062c0 1.7344-0.84375 2-1.2656 2-0.15625 0-0.53125-0.015625-0.71875-0.23438 0.29688-0.03125 0.3125-0.26562 0.3125-0.32812 0-0.17188-0.125-0.32812-0.32812-0.32812s-0.32812 0.14062-0.32812 0.34375c0 0.46875 0.39062 0.76562 1.0625 0.76562 1 0 1.9375-0.9375 1.9375-2.4375zm-0.6875-0.70312c0 0.90625-0.51562 1.2656-0.95312 1.2656-0.28125 0-0.53125-0.078125-0.73438-0.40625-0.15625-0.25-0.15625-0.54688-0.15625-0.9375 0-0.40625 0-0.67188 0.20312-0.95312 0.17188-0.25 0.39062-0.39062 0.75-0.39062s0.57812 0.21875 0.6875 0.40625c0.1875 0.28125 0.20312 0.78125 0.20312 1.0156z"/>
</symbol>
<symbol id="i" overflow="visible">
<path d="m3.5156-1.4062c0-0.78125-0.59375-1.5-1.4531-1.5-0.3125 0-0.67188 0.0625-0.98438 0.32812v-1.3125c0.35938 0.09375 0.5625 0.09375 0.67188 0.09375 0.92188 0 1.4688-0.625 1.4688-0.73438 0-0.078125-0.046875-0.09375-0.078125-0.09375 0 0-0.03125 0-0.0625 0.015625-0.17188 0.0625-0.53125 0.20312-1.0469 0.20312-0.20312 0-0.5625-0.015625-1.0156-0.1875-0.078125-0.03125-0.09375-0.03125-0.09375-0.03125-0.09375 0-0.09375 0.078125-0.09375 0.1875v2.0469c0 0.125 0 0.20312 0.10938 0.20312 0.0625 0 0.078125 0 0.14062-0.09375 0.29688-0.375 0.73438-0.4375 0.96875-0.4375 0.42188 0 0.60938 0.32812 0.64062 0.39062 0.125 0.23438 0.17188 0.5 0.17188 0.90625 0 0.20312 0 0.60938-0.21875 0.92188-0.17188 0.25-0.46875 0.42188-0.8125 0.42188-0.45312 0-0.92188-0.25-1.0938-0.71875 0.26562 0.015625 0.40625-0.15625 0.40625-0.34375 0-0.29688-0.26562-0.34375-0.35938-0.34375 0 0-0.34375 0-0.34375 0.375 0 0.625 0.57812 1.25 1.4062 1.25 0.89062 0 1.6719-0.65625 1.6719-1.5469z"/>
</symbol>
<symbol id="f" overflow="visible">
<path d="m5.6562-4.5156v-0.25c-0.20312 0.03125-0.48438 0.03125-0.6875 0.03125-0.26562 0-0.78125-0.03125-0.82812-0.03125v0.25c0.25 0 0.48438 0.125 0.48438 0.32812 0 0.0625-0.015625 0.10938-0.046875 0.15625l-1.4375 3.3594-1.5-3.5312c-0.046875-0.078125-0.046875-0.09375-0.046875-0.125 0-0.1875 0.35938-0.1875 0.54688-0.1875v-0.25l-1.0312 0.03125c-0.34375 0-0.875-0.03125-0.89062-0.03125v0.25h0.10938c0.375 0 0.5 0.046875 0.59375 0.25l1.8125 4.25c0.046875 0.10938 0.0625 0.15625 0.20312 0.15625 0.0625 0 0.14062 0 0.20312-0.14062l1.7188-4.0469c0.09375-0.21875 0.26562-0.45312 0.79688-0.46875z"/>
</symbol>
<symbol id="e" overflow="visible">
<path d="m3.2969 0v-0.25h-0.26562c-0.70312 0-0.70312-0.09375-0.70312-0.32812v-3.8594c0-0.1875 0-0.1875-0.20312-0.1875-0.45312 0.4375-1.0781 0.4375-1.3594 0.4375v0.25c0.15625 0 0.625 0 1-0.1875v3.5469c0 0.23438 0 0.32812-0.6875 0.32812h-0.26562v0.25l1.2344-0.03125z"/>
</symbol>
<symbol id="h" overflow="visible">
<path d="m3.5781-1.1719c0-0.46875-0.26562-0.85938-0.67188-1.0938l-0.4375-0.25c0.54688-0.26562 0.89062-0.59375 0.89062-1.0781 0-0.67188-0.70312-1.0312-1.375-1.0312-0.76562 0-1.3906 0.5-1.3906 1.1562 0 0.32812 0.15625 0.5625 0.28125 0.70312 0.125 0.15625 0.17188 0.1875 0.57812 0.42188-0.39062 0.17188-1.0781 0.54688-1.0781 1.2812 0 0.76562 0.79688 1.2031 1.5938 1.2031 0.89062 0 1.6094-0.5625 1.6094-1.3125zm-0.57812-2.4219c0 0.625-0.73438 0.9375-0.73438 0.9375s-0.03125 0-0.078125-0.03125l-0.84375-0.48438c-0.1875-0.10938-0.375-0.29688-0.375-0.5625 0-0.4375 0.5-0.6875 1-0.6875 0.54688 0 1.0312 0.34375 1.0312 0.82812zm0.15625 2.6562c0 0.53125-0.57812 0.85938-1.1719 0.85938-0.64062 0-1.1875-0.42188-1.1875-0.98438 0-0.51562 0.375-0.92188 0.875-1.1406 0.39062 0.21875 0.40625 0.21875 0.96875 0.54688 0.17188 0.10938 0.51562 0.3125 0.51562 0.71875z"/>
</symbol>
<symbol id="o" overflow="visible">
<path d="m3.5156-1.2656h-0.23438c-0.015625 0.15625-0.09375 0.5625-0.1875 0.625-0.046875 0.046875-0.57812 0.046875-0.6875 0.046875h-1.2812c0.73438-0.64062 0.98438-0.84375 1.3906-1.1719 0.51562-0.40625 1-0.84375 1-1.5 0-0.84375-0.73438-1.3594-1.625-1.3594-0.85938 0-1.4531 0.60938-1.4531 1.25 0 0.34375 0.29688 0.39062 0.375 0.39062 0.15625 0 0.35938-0.125 0.35938-0.375 0-0.125-0.046875-0.375-0.40625-0.375 0.21875-0.48438 0.6875-0.64062 1.0156-0.64062 0.70312 0 1.0625 0.54688 1.0625 1.1094 0 0.60938-0.4375 1.0781-0.65625 1.3281l-1.6719 1.6719c-0.078125 0.0625-0.078125 0.078125-0.078125 0.26562h2.875z"/>
</symbol>
<symbol id="d" overflow="visible">
<path d="m1.6719-0.046875c0-0.42188-0.17188-0.75-0.5-0.75-0.21875 0-0.39062 0.17188-0.39062 0.39062s0.15625 0.40625 0.40625 0.40625c0.17188 0 0.28125-0.10938 0.28125-0.10938 0 0.375-0.0625 0.82812-0.54688 1.2656-0.015625 0.03125-0.046875 0.0625-0.046875 0.09375 0 0.046875 0.0625 0.09375 0.09375 0.09375 0.10938 0 0.70312-0.5625 0.70312-1.3906z"/>
</symbol>
<symbol id="n" overflow="visible">
<path d="m5.4688-1.7344c0-0.1875-0.17188-0.1875-0.26562-0.1875h-4.1875c-0.10938 0-0.26562 0-0.26562 0.1875 0 0.15625 0.17188 0.15625 0.26562 0.15625h4.1875c0.09375 0 0.26562 0 0.26562-0.15625z"/>
</symbol>
</defs>
<g>
<use x="0.346" y="41.264" xlink:href="#c"/>
<use x="9.478715" y="41.264" xlink:href="#b"/>
<use x="15.013936" y="41.264" xlink:href="#m"/>
<use x="22.763" y="42.759" xlink:href="#s"/>
<use x="28.133" y="36.864" xlink:href="#r"/>
<use x="36.27" y="41.264" xlink:href="#a"/>
<use x="41.249307" y="41.264" xlink:href="#a"/>
<use x="46.228615" y="41.264" xlink:href="#g"/>
<use x="58.963" y="41.264" xlink:href="#c"/>
<use x="68.095715" y="41.264" xlink:href="#b"/>
<use x="73.630936" y="41.264" xlink:href="#m"/>
<use x="81.379" y="42.759" xlink:href="#l"/>
<use x="90.884" y="35.146" xlink:href="#j"/>
<use x="94.855" y="35.146" xlink:href="#d"/>
<use x="97.221" y="35.146" xlink:href="#p"/>
<use x="101.191882" y="35.146" xlink:href="#i"/>
<use x="106.487785" y="35.146" xlink:href="#f"/>
<use x="88.616" y="41.264" xlink:href="#a"/>
<use x="92.021217" y="41.264" xlink:href="#a"/>
<use x="97.548467" y="41.264" xlink:href="#a"/>
<use x="103.08568" y="41.264" xlink:href="#a"/>
<use x="106.490897" y="41.264" xlink:href="#g"/>
<use x="119.217" y="41.264" xlink:href="#c"/>
<use x="128.349715" y="41.264" xlink:href="#b"/>
<use x="133.885" y="36.864" xlink:href="#q"/>
<use x="137.855882" y="36.864" xlink:href="#k"/>
<use x="147.237" y="41.264" xlink:href="#a"/>
<use x="152.216307" y="41.264" xlink:href="#a"/>
<use x="157.195615" y="41.264" xlink:href="#g"/>
<use x="169.93" y="41.264" xlink:href="#c"/>
<use x="179.062715" y="41.264" xlink:href="#b"/>
<use x="184.597" y="36.864" xlink:href="#l"/>
<use x="188.567882" y="36.864" xlink:href="#k"/>
<use x="200.218" y="35.146" xlink:href="#n"/>
<use x="206.444" y="35.146" xlink:href="#e"/>
<use x="210.416" y="35.146" xlink:href="#d"/>
<use x="212.782" y="35.146" xlink:href="#e"/>
<use x="216.752882" y="35.146" xlink:href="#h"/>
<use x="222.048785" y="35.146" xlink:href="#f"/>
<use x="197.95" y="41.264" xlink:href="#a"/>
<use x="201.693945" y="41.264" xlink:href="#a"/>
<use x="207.231158" y="41.264" xlink:href="#a"/>
<use x="212.768371" y="41.264" xlink:href="#a"/>
<use x="218.305584" y="41.264" xlink:href="#a"/>
<use x="222.049529" y="41.264" xlink:href="#g"/>
<use x="234.778" y="41.264" xlink:href="#c"/>
<use x="243.910715" y="41.264" xlink:href="#b"/>
</g>
<path transform="matrix(1,0,0,-1,8.649,53.219)" d="m8.2768 23.309v19.922h165.63v-16.062" fill="none" stroke="#000" stroke-miterlimit="10" stroke-width=".3985"/>
<path transform="matrix(0 1 1 0 182.56 23.339)" d="m4.446-3.1625e-4 -3.2852 1.3164 1.6484-1.3164-1.6484-1.3164z" stroke="#000" stroke-linejoin="round" stroke-miterlimit="10" stroke-width=".3985"/>
<g>
<use x="157.552" y="5.112" xlink:href="#e"/>
<use x="161.523" y="5.112" xlink:href="#d"/>
<use x="163.889" y="5.112" xlink:href="#i"/>
<use x="167.859882" y="5.112" xlink:href="#e"/>
<use x="173.155785" y="5.112" xlink:href="#f"/>
</g>
<path transform="matrix(1,0,0,-1,8.649,53.219)" d="m123.19 7.4651v-19.926h110.27v17.992" fill="none" stroke="#000" stroke-miterlimit="10" stroke-width=".3985"/>
<path transform="matrix(0 -1 -1 0 242.12 50.397)" d="m4.4434 0.0018588-3.2812 1.3125 1.6484-1.3125-1.6484-1.3164z" stroke="#000" stroke-linejoin="round" stroke-miterlimit="10" stroke-width=".3985"/>
<g>
<use x="217.108" y="60.802" xlink:href="#j"/>
<use x="221.079" y="60.802" xlink:href="#d"/>
<use x="223.445" y="60.802" xlink:href="#o"/>
<use x="227.415882" y="60.802" xlink:href="#h"/>
<use x="232.711785" y="60.802" xlink:href="#f"/>
</g>
</svg>
