<?xml version="1.0" encoding="UTF-8"?>
<svg width="61pt" height="38pt" version="1.1" viewBox="0 0 61 38" xmlns="http://www.w3.org/2000/svg" xmlns:xlink="http://www.w3.org/1999/xlink">
<defs>
<symbol id="b" overflow="visible">
<path d="m6.1094 0v-6.9219h-0.89062v3.0312h-3.3906v-3.0312h-0.89062v6.9219h0.89062v-3.2969h3.3906v3.2969z"/>
</symbol>
<symbol id="a" overflow="visible">
<path d="m6.0938 0v-6.9219h-0.78125v6.2188h-0.015625l-0.65625-1.375-2.4531-4.8438h-1.2344v6.9219h0.78125v-6.2031h0.015625l0.65625 1.3594 2.4531 4.8438z"/>
</symbol>
<symbol id="d" overflow="visible">
<path d="m4.7188 0-1.9219-4.8438h-0.67188l-1.9219 4.8438h0.57812l0.54688-1.375h2.1094l0.54688 1.375zm-1.4531-1.7969h-1.7656l0.89062-2.5156z"/>
</symbol>
<symbol id="c" overflow="visible">
<path d="m4.5156-1.3125c0-0.60938-0.64062-1.1094-1.4219-1.2188 0.71875-0.17188 1.2188-0.59375 1.2188-1.0938 0-0.64062-0.8125-1.2188-1.8281-1.2188h-1.7812v4.8438h1.9844c1.0312 0 1.8281-0.60938 1.8281-1.3125zm-0.8125-2.2969c0 0.45312-0.64062 0.85938-1.4219 0.85938h-0.92188v-1.6719h0.90625c0.78125 0 1.4375 0.35938 1.4375 0.8125zm0.17188 2.2969c0 0.51562-0.64062 0.90625-1.4062 0.90625h-1.1094v-1.875h0.98438c0.875 0 1.5312 0.4375 1.5312 0.96875z"/>
</symbol>
</defs>
<g fill="#0c6dfd">
<use x="-0.71" y="35.95" xlink:href="#b"/>
<use x="6.347" y="37.445" xlink:href="#d"/>
</g>
<path transform="matrix(1,0,0,-1,5.538,35.95)" d="m7.6261 7.1141 4.7969 2.7695" fill="none" stroke="#000" stroke-linecap="round" stroke-miterlimit="10" stroke-width=".59758"/>
<path transform="matrix(1,0,0,-1,5.538,35.95)" d="m12.423 9.8836 12.418-7.1719" fill="none" stroke="#000" stroke-linecap="round" stroke-miterlimit="10" stroke-width=".59758"/>
<path transform="matrix(1,0,0,-1,5.538,35.95)" d="m24.841 2.7117 12.422 7.1719" fill="none" stroke="#000" stroke-linecap="round" stroke-miterlimit="10" stroke-width=".59758"/>
<g>
<use x="39.273" y="15.183" xlink:href="#a"/>
</g>
<path transform="matrix(1,0,0,-1,5.538,35.95)" d="m37.263 9.8836v9.2891" fill="none" stroke="#000" stroke-linecap="round" stroke-miterlimit="10" stroke-width=".59758"/>
<g fill="#dc3445">
<use x="48.975" y="7.265" xlink:href="#b"/>
<use x="56.032" y="8.759" xlink:href="#c"/>
</g>
<path transform="matrix(1,0,0,-1,5.538,35.95)" d="m42.173 27.059-0.11328-0.066406" fill="none" stroke="#000" stroke-linecap="round" stroke-miterlimit="10" stroke-width=".59758"/>
<path transform="matrix(1,0,0,-1,5.538,35.95)" d="m32.357 27.059-7.5156 4.3398" fill="none" stroke="#000" stroke-linecap="round" stroke-miterlimit="10" stroke-width=".59758"/>
<g>
<use x="14.431" y="15.183" xlink:href="#a"/>
</g>
<path transform="matrix(1,0,0,-1,5.538,35.95)" d="m24.841 31.399-7.5117-4.3398" fill="none" stroke="#000" stroke-linecap="round" stroke-miterlimit="10" stroke-width=".59758"/>
<path transform="matrix(1,0,0,-1,5.538,35.95)" d="m24.841 28.524-6.2656-3.6211" fill="none" stroke="#000" stroke-linecap="round" stroke-miterlimit="10" stroke-width=".59758"/>
<path transform="matrix(1,0,0,-1,5.538,35.95)" d="m12.423 19.173v-9.2891" fill="none" stroke="#000" stroke-linecap="round" stroke-miterlimit="10" stroke-width=".59758"/>
</svg>
