<?xml version="1.0" encoding="UTF-8"?>
<svg width="266pt" height="191pt" version="1.1" viewBox="0 0 266 191" xmlns="http://www.w3.org/2000/svg" xmlns:xlink="http://www.w3.org/1999/xlink">
<defs>
<symbol id="a" overflow="visible">
<path d="m4.5781-3.1875c0-0.79688-0.046875-1.5938-0.39062-2.3281-0.45312-0.96875-1.2812-1.125-1.6875-1.125-0.60938 0-1.3281 0.26562-1.75 1.1875-0.3125 0.6875-0.35938 1.4688-0.35938 2.2656 0 0.75 0.03125 1.6406 0.45312 2.4062 0.42188 0.79688 1.1562 1 1.6406 1 0.53125 0 1.2969-0.20312 1.7344-1.1562 0.3125-0.6875 0.35938-1.4688 0.35938-2.25zm-0.8125-0.125c0 0.75 0 1.4219-0.10938 2.0625-0.15625 0.95312-0.71875 1.25-1.1719 1.25-0.39062 0-0.98438-0.25-1.1562-1.2031-0.10938-0.59375-0.10938-1.5156-0.10938-2.1094 0-0.64062 0-1.2969 0.078125-1.8281 0.1875-1.1875 0.9375-1.2812 1.1875-1.2812 0.32812 0 0.98438 0.1875 1.1719 1.1719 0.10938 0.5625 0.10938 1.3125 0.10938 1.9375z"/>
</symbol>
<symbol id="q" overflow="visible">
<path d="m4.4688-1.7344h-0.23438c-0.0625 0.29688-0.125 0.73438-0.23438 0.89062-0.0625 0.078125-0.71875 0.078125-0.9375 0.078125h-1.7969l1.0625-1.0312c1.5469-1.375 2.1406-1.9062 2.1406-2.9062 0-1.1406-0.89062-1.9375-2.1094-1.9375-1.125 0-1.8594 0.92188-1.8594 1.8125 0 0.54688 0.5 0.54688 0.53125 0.54688 0.17188 0 0.51562-0.10938 0.51562-0.53125 0-0.25-0.1875-0.51562-0.53125-0.51562-0.078125 0-0.09375 0-0.125 0.015625 0.21875-0.65625 0.76562-1.0156 1.3438-1.0156 0.90625 0 1.3281 0.8125 1.3281 1.625 0 0.79688-0.48438 1.5781-1.0469 2.2031l-1.9062 2.125c-0.10938 0.10938-0.10938 0.14062-0.10938 0.375h3.7031z"/>
</symbol>
<symbol id="h" overflow="visible">
<path d="m4.6875-1.6406v-0.3125h-0.98438v-4.5312c0-0.20312 0-0.26562-0.17188-0.26562-0.078125 0-0.10938 0-0.1875 0.125l-3.0625 4.6719v0.3125h2.6562v0.85938c0 0.35938-0.03125 0.46875-0.76562 0.46875h-0.20312v0.3125c0.40625-0.03125 0.92188-0.03125 1.3438-0.03125s0.9375 0 1.3594 0.03125v-0.3125h-0.21875c-0.73438 0-0.75-0.10938-0.75-0.46875v-0.85938zm-1.7031-0.3125h-2.4219l2.4219-3.7188z"/>
</symbol>
<symbol id="g" overflow="visible">
<path d="m4.5625-2.0312c0-1.2656-0.89062-2.2188-2-2.2188-0.67188 0-1.0469 0.5-1.25 0.98438v-0.25c0-2.5156 1.2344-2.875 1.75-2.875 0.23438 0 0.65625 0.0625 0.875 0.40625-0.15625 0-0.54688 0-0.54688 0.4375 0 0.3125 0.23438 0.46875 0.45312 0.46875 0.15625 0 0.46875-0.09375 0.46875-0.48438 0-0.59375-0.4375-1.0781-1.2656-1.0781-1.2812 0-2.625 1.2812-2.625 3.4844 0 2.6719 1.1562 3.375 2.0781 3.375 1.1094 0 2.0625-0.9375 2.0625-2.25zm-0.90625-0.015625c0 0.48438 0 0.98438-0.17188 1.3438-0.29688 0.59375-0.75 0.64062-0.98438 0.64062-0.625 0-0.92188-0.59375-0.98438-0.75-0.1875-0.46875-0.1875-1.2656-0.1875-1.4375 0-0.78125 0.32812-1.7812 1.2188-1.7812 0.17188 0 0.625 0 0.9375 0.625 0.17188 0.35938 0.17188 0.875 0.17188 1.3594z"/>
</symbol>
<symbol id="f" overflow="visible">
<path d="m4.5625-1.6719c0-0.35938-0.10938-0.8125-0.5-1.2344-0.1875-0.20312-0.34375-0.29688-0.98438-0.70312 0.71875-0.375 1.2031-0.89062 1.2031-1.5469 0-0.92188-0.875-1.4844-1.7812-1.4844-1 0-1.8125 0.73438-1.8125 1.6719 0 0.17188 0.015625 0.625 0.4375 1.0938 0.10938 0.10938 0.48438 0.35938 0.73438 0.53125-0.57812 0.29688-1.4375 0.84375-1.4375 1.8438 0 1.0469 1.0156 1.7188 2.0625 1.7188 1.125 0 2.0781-0.82812 2.0781-1.8906zm-0.71875-3.4844c0 0.57812-0.39062 1.0469-0.98438 1.3906l-1.2344-0.79688c-0.45312-0.29688-0.5-0.625-0.5-0.79688 0-0.60938 0.65625-1.0312 1.3594-1.0312 0.71875 0 1.3594 0.51562 1.3594 1.2344zm0.21875 3.8438c0 0.73438-0.75 1.25-1.5625 1.25-0.85938 0-1.5781-0.60938-1.5781-1.4375 0-0.57812 0.3125-1.2188 1.1562-1.6875l1.2344 0.78125c0.28125 0.1875 0.75 0.48438 0.75 1.0938z"/>
</symbol>
<symbol id="c" overflow="visible">
<path d="m4.1719 0v-0.3125h-0.3125c-0.90625 0-0.92188-0.10938-0.92188-0.46875v-5.5938c0-0.25 0-0.26562-0.23438-0.26562-0.625 0.64062-1.5 0.64062-1.8125 0.64062v0.3125c0.20312 0 0.78125 0 1.2969-0.26562v5.1719c0 0.35938-0.03125 0.46875-0.92188 0.46875h-0.3125v0.3125c0.34375-0.03125 1.2031-0.03125 1.6094-0.03125 0.39062 0 1.2656 0 1.6094 0.03125z"/>
</symbol>
<symbol id="ab" overflow="visible">
<path d="m4.4688-2c0-1.1875-0.8125-2.1875-1.8906-2.1875-0.46875 0-0.90625 0.15625-1.2656 0.51562v-1.9531c0.20312 0.0625 0.53125 0.125 0.84375 0.125 1.2344 0 1.9375-0.90625 1.9375-1.0312 0-0.0625-0.03125-0.10938-0.10938-0.10938 0 0-0.03125 0-0.078125 0.03125-0.20312 0.09375-0.6875 0.29688-1.3594 0.29688-0.39062 0-0.85938-0.078125-1.3281-0.28125-0.078125-0.03125-0.10938-0.03125-0.10938-0.03125-0.10938 0-0.10938 0.078125-0.10938 0.23438v2.9531c0 0.17188 0 0.25 0.14062 0.25 0.078125 0 0.09375-0.015625 0.14062-0.078125 0.10938-0.15625 0.46875-0.70312 1.2812-0.70312 0.51562 0 0.76562 0.45312 0.84375 0.64062 0.15625 0.375 0.1875 0.75 0.1875 1.25 0 0.35938 0 0.95312-0.25 1.375-0.23438 0.39062-0.60938 0.64062-1.0625 0.64062-0.71875 0-1.2969-0.53125-1.4688-1.1094 0.03125 0 0.0625 0.015625 0.17188 0.015625 0.32812 0 0.5-0.25 0.5-0.48438 0-0.25-0.17188-0.5-0.5-0.5-0.14062 0-0.48438 0.078125-0.48438 0.53125 0 0.85938 0.6875 1.8281 1.7969 1.8281 1.1562 0 2.1719-0.95312 2.1719-2.2188z"/>
</symbol>
<symbol id="aa" overflow="visible">
<path d="m4.8281-6.4219h-2.4219c-1.2031 0-1.2344-0.125-1.2656-0.3125h-0.25l-0.32812 2.0469h0.25c0.03125-0.15625 0.10938-0.78125 0.25-0.90625 0.0625-0.0625 0.84375-0.0625 0.96875-0.0625h2.0625l-1.1094 1.5781c-0.90625 1.3438-1.2344 2.7344-1.2344 3.75 0 0.09375 0 0.54688 0.46875 0.54688 0.45312 0 0.45312-0.45312 0.45312-0.54688v-0.51562c0-0.54688 0.03125-1.0938 0.10938-1.625 0.046875-0.23438 0.17188-1.0938 0.625-1.7031l1.3438-1.9062c0.078125-0.10938 0.078125-0.125 0.078125-0.34375z"/>
</symbol>
<symbol id="z" overflow="visible">
<path d="m4.5625-3.2812c0-2.6875-1.1562-3.3594-2.0469-3.3594-0.54688 0-1.0312 0.1875-1.4531 0.625-0.42188 0.45312-0.64062 0.875-0.64062 1.625 0 1.2344 0.875 2.2188 1.9844 2.2188 0.60938 0 1.0156-0.42188 1.25-1v0.32812c0 2.3281-1.0312 2.7812-1.6094 2.7812-0.17188 0-0.71875-0.015625-0.98438-0.35938 0.4375 0 0.51562-0.28125 0.51562-0.45312 0-0.3125-0.23438-0.45312-0.45312-0.45312-0.15625 0-0.45312 0.078125-0.45312 0.46875 0 0.67188 0.53125 1.0781 1.375 1.0781 1.2969 0 2.5156-1.3594 2.5156-3.5zm-0.92188-0.92188c0 0.82812-0.34375 1.7969-1.2188 1.7969-0.15625 0-0.625 0-0.92188-0.625-0.1875-0.375-0.1875-0.85938-0.1875-1.3594 0-0.53125 0-1 0.21875-1.375 0.26562-0.5 0.64062-0.625 0.98438-0.625 0.46875 0 0.79688 0.34375 0.96875 0.78125 0.10938 0.32812 0.15625 0.95312 0.15625 1.4062z"/>
</symbol>
<symbol id="p" overflow="visible">
<path d="m2.5-2.5469h-0.40625v0.96875h-9.1719v-0.96875h-0.40625v1.375h9.9844z"/>
</symbol>
<symbol id="u" overflow="visible">
<path d="m0-2.4688h-0.3125c0 0.67188-0.046875 0.70312-0.4375 0.70312h-3.6562l0.10938 1.3906h0.3125c0-0.64062 0.0625-0.73438 0.54688-0.73438h2.6875c0.4375 0 0.4375 0.10938 0.4375 0.78125h0.3125l-0.03125-1.0938c0-0.35938 0.015625-0.70312 0.03125-1.0469zm-6.5938-0.15625c-0.1875 0-0.35938 0.1875-0.35938 0.35938 0 0.15625 0.10938 0.26562 0.17188 0.29688l1.5156 1.2031 0.1875-0.17188-1.2188-1.5156c-0.078125-0.09375-0.1875-0.17188-0.29688-0.17188z"/>
</symbol>
<symbol id="b" overflow="visible">
<path d="m-2.1406-4.6875c-1.2656 0-2.3281 0.98438-2.3281 2.1875 0 1.25 1.0938 2.2188 2.3281 2.2188 1.2969 0 2.25-1.0312 2.25-2.2031 0-1.2031-0.98438-2.2031-2.25-2.2031zm-0.078125 0.8125c0.35938 0 0.90625 0 1.3438 0.21875 0.45312 0.23438 0.73438 0.67188 0.73438 1.1562 0 0.4375-0.20312 0.875-0.67188 1.1406-0.4375 0.25-1.0469 0.25-1.4062 0.25-0.39062 0-0.92188 0-1.3594-0.23438-0.45312-0.26562-0.67188-0.73438-0.67188-1.1406 0-0.4375 0.21875-0.85938 0.65625-1.125 0.42188-0.26562 1-0.26562 1.375-0.26562z"/>
</symbol>
<symbol id="t" overflow="visible">
<path d="m0-5.3281h-0.3125c0 0.51562 0 0.76562-0.29688 0.76562h-1.9062c-0.85938 0-1.1562 0-1.5156 0.3125-0.17188 0.14062-0.375 0.46875-0.375 1.0469 0 0.73438 0.42188 1.2031 1.0469 1.4844h-1.0469l0.10938 1.4062h0.3125c0-0.70312 0.0625-0.78125 0.5625-0.78125h2.6719c0.4375 0 0.4375 0.10938 0.4375 0.78125h0.3125l-0.03125-1.1406 0.03125-1.1094h-0.3125c0 0.67188 0 0.78125-0.4375 0.78125h-1.8438c-1.0312 0-1.5938-0.71875-1.5938-1.3438 0-0.64062 0.53125-0.75 1.1094-0.75h2.3281c0.4375 0 0.4375 0.10938 0.4375 0.78125h0.3125l-0.03125-1.125z"/>
</symbol>
<symbol id="k" overflow="visible">
<path d="m0-5.3281h-0.3125c0 0.51562 0 0.76562-0.29688 0.76562h-1.9062c-0.85938 0-1.1562 0-1.5156 0.3125-0.17188 0.14062-0.375 0.46875-0.375 1.0469 0 0.84375 0.59375 1.2812 0.95312 1.4375v0.015625h-3.4688l0.10938 1.4375h0.3125c0-0.70312 0.0625-0.78125 0.5625-0.78125h5.1875c0.4375 0 0.4375 0.10938 0.4375 0.78125h0.3125l-0.03125-1.1406 0.03125-1.1094h-0.3125c0 0.67188 0 0.78125-0.4375 0.78125h-1.8438c-1.0312 0-1.5938-0.71875-1.5938-1.3438 0-0.64062 0.53125-0.75 1.1094-0.75h2.3281c0.4375 0 0.4375 0.10938 0.4375 0.78125h0.3125l-0.03125-1.125z"/>
</symbol>
<symbol id="d" overflow="visible">
<path d="m0-2.4688h-0.3125c0 0.67188-0.046875 0.70312-0.4375 0.70312h-3.6562l0.10938 1.3906h0.3125c0-0.64062 0.0625-0.73438 0.54688-0.73438h2.6875c0.4375 0 0.4375 0.10938 0.4375 0.78125h0.3125l-0.03125-1.0938c0-0.35938 0.015625-0.70312 0.03125-1.0469zm-6.0156 0.5625c-0.28125 0-0.53125 0.21875-0.53125 0.51562 0 0.34375 0.28125 0.54688 0.53125 0.54688 0.26562 0 0.51562-0.23438 0.51562-0.53125 0-0.34375-0.26562-0.53125-0.51562-0.53125z"/>
</symbol>
<symbol id="j" overflow="visible">
<path d="m-2.1562-5.1875c-1.2656 0-2.25 0.95312-2.25 2.0781 0 0.78125 0.4375 1.2031 0.65625 1.3906h-0.65625l0.10938 1.4375h0.3125c0-0.70312 0.0625-0.78125 0.5-0.78125h4.6562c0.45312 0 0.45312 0.10938 0.45312 0.78125h0.3125l-0.03125-1.1094 0.03125-1.125h-0.3125c0 0.65625 0 0.76562-0.45312 0.76562h-1.7656c0.17188-0.046875 0.70312-0.46875 0.70312-1.2188 0-1.1875-0.98438-2.2188-2.2656-2.2188zm0 0.82812c1.2031 0 2.0469 0.6875 2.0469 1.4219 0 0.40625-0.20312 0.78125-0.60938 1.0469-0.20312 0.14062-0.21875 0.14062-0.42188 0.14062h-2.2188c-0.51562-0.28125-0.79688-0.76562-0.79688-1.2812 0-0.73438 0.875-1.3281 2-1.3281z"/>
</symbol>
<symbol id="e" overflow="visible">
<path d="m-1.1875-4.1406c-0.09375 0-0.09375 0.10938-0.09375 0.14062 0 0.078125 0.03125 0.10938 0.09375 0.125 0.92188 0.28125 1.0469 0.9375 1.0469 1.2969 0 0.53125-0.42188 1.4062-2.0312 1.4062-1.625 0-2.0469-0.8125-2.0469-1.3438 0-0.09375 0.015625-0.71875 0.375-1.0625 0.03125 0.40625 0.32812 0.46875 0.45312 0.46875 0.26562 0 0.45312-0.1875 0.45312-0.45312s-0.15625-0.46875-0.46875-0.46875c-0.67188 0-1.0625 0.76562-1.0625 1.5312 0 1.25 1.0781 2.1562 2.3125 2.1562 1.2812 0 2.2656-0.98438 2.2656-2.1406 0-1.3281-1.2031-1.6562-1.2969-1.6562z"/>
</symbol>
<symbol id="i" overflow="visible">
<path d="m0-2.5469h-0.3125c0 0.67188 0 0.78125-0.4375 0.78125h-6.1719l0.10938 1.4375h0.3125c0-0.70312 0.0625-0.78125 0.5625-0.78125h5.1875c0.4375 0 0.4375 0.10938 0.4375 0.78125h0.3125l-0.03125-1.1094z"/>
</symbol>
<symbol id="o" overflow="visible">
<path d="m-3.7969-3.625c-0.3125 0-0.60938 0.3125-0.60938 0.73438 0 0.73438 0.67188 1.0938 1.0938 1.2188h-1.0938l0.10938 1.3906h0.3125c0-0.70312 0.0625-0.78125 0.5625-0.78125h2.6719c0.4375 0 0.4375 0.10938 0.4375 0.78125h0.3125l-0.03125-1.1406c0-0.39062 0-0.85938 0.03125-1.2656h-0.3125v0.21875c0 0.73438-0.10938 0.75-0.46875 0.75h-1.5312c-0.98438 0-1.875-0.42188-1.875-1.1719 0-0.0625 0-0.09375 0.015625-0.10938 0 0.03125 0.125 0.23438 0.39062 0.23438s0.42188-0.21875 0.42188-0.4375c0-0.17188-0.125-0.42188-0.4375-0.42188z"/>
</symbol>
<symbol id="y" overflow="visible">
<path d="m-1.2344-3.3125h-0.5625v0.25h0.54688c0.73438 0 1.1094 0.29688 1.1094 0.67188 0 0.67188-0.90625 0.67188-1.0781 0.67188h-2.7656v-1.4375h-0.3125v1.4375h-1.8281v0.25c0.8125 0 1.875 0.29688 1.9219 1.2812h0.21875v-0.84375h2.75c1.2188 0 1.3438-0.9375 1.3438-1.2969 0-0.70312-0.70312-0.98438-1.3438-0.98438z"/>
</symbol>
<symbol id="n" overflow="visible">
<path d="m2.5-1.5781h-9.9844v1.3594h0.40625v-0.96875h9.1719v0.96875h0.40625z"/>
</symbol>
<symbol id="m" overflow="visible">
<path d="m-7.2812-4.4219c-0.10938 0-0.20312 0.09375-0.20312 0.20312 0 0.14062 0.10938 0.1875 0.20312 0.21875l9.3906 3.3906c0.14062 0.046875 0.1875 0.046875 0.1875 0.046875 0.10938 0 0.20312-0.078125 0.20312-0.1875 0-0.14062-0.10938-0.1875-0.20312-0.21875l-9.3906-3.3906c-0.14062-0.0625-0.1875-0.0625-0.1875-0.0625z"/>
</symbol>
<symbol id="l" overflow="visible">
<path d="m-7.2812-6.9062c-0.10938 0-0.20312 0.09375-0.20312 0.20312 0 0.09375 0.078125 0.14062 0.14062 0.20312 0.6875 0.5 0.95312 1.1719 0.95312 1.8906 0 0.70312-0.25 1.3125-0.76562 1.875-0.17188 0.1875-0.32812 0.39062-0.32812 0.70312 0 0.76562 0.84375 1.4688 2.0156 1.4688 1.2031 0 2.0156-0.71875 2.0156-1.4688 0-0.71875-0.89062-1.2812-2.0156-1.2812-0.14062 0-0.60938 0-1.125 0.20312 0.375-0.65625 0.42188-1.1406 0.42188-1.5 0-0.76562-0.3125-1.2656-0.34375-1.3281v-0.015625l6.6719 4.4844c0.14062 0.078125 0.20312 0.078125 0.20312 0.078125 0.10938 0 0.20312-0.09375 0.20312-0.1875 0-0.10938-0.046875-0.125-0.15625-0.20312l-7.5-5.0469c-0.09375-0.0625-0.125-0.078125-0.1875-0.078125zm5.8281-0.82812c-1.1406 0-2 0.59375-2 1.2969 0 0.75 0.82812 1.4688 2 1.4688 1.2031 0 2.0156-0.71875 2.0156-1.4688 0-0.73438-0.89062-1.2969-2.0156-1.2969zm-4.0156 4.6562c1.0781 0 1.7969 0.53125 1.7969 1.0469 0 0.20312-0.14062 0.85938-1.7969 0.85938s-1.7812-0.65625-1.7812-0.85938c0-0.53125 0.73438-1.0469 1.7812-1.0469zm4.0156-4.4062c1.0781 0 1.7969 0.51562 1.7969 1.0312 0 0.20312-0.14062 0.85938-1.7969 0.85938s-1.7812-0.64062-1.7812-0.85938c0-0.53125 0.73438-1.0312 1.7812-1.0312z"/>
</symbol>
<symbol id="x" overflow="visible">
<path d="m-0.89062-4.8125h-0.5625v0.25h0.5625c0.57812 0 0.64062 0.25 0.64062 0.35938 0 0.32812-0.45312 0.35938-0.5 0.35938h-1.9844c-0.42188 0-0.8125 0-1.1875 0.35938-0.39062 0.39062-0.54688 0.89062-0.54688 1.375 0 0.8125 0.46875 1.5 1.125 1.5 0.29688 0 0.46875-0.20312 0.46875-0.45312 0-0.28125-0.20312-0.46875-0.45312-0.46875-0.125 0-0.45312 0.0625-0.45312 0.51562-0.35938-0.26562-0.46875-0.76562-0.46875-1.0781 0-0.48438 0.39062-1.0625 1.2812-1.0625h0.35938c0.03125 0.51562 0.0625 1.2188 0.35938 1.8438 0.34375 0.75 0.85938 1 1.2969 1 0.8125 0 1.0625-0.96875 1.0625-1.5938 0-0.67188-0.40625-1.125-0.85938-1.3125 0.39062-0.046875 0.8125-0.3125 0.8125-0.78125 0-0.20312-0.14062-0.8125-0.95312-0.8125zm-0.5 1.6562c0.9375 0 1.2812 0.71875 1.2812 1.1719 0 0.48438-0.34375 0.89062-0.84375 0.89062-0.54688 0-1.375-0.40625-1.4375-2.0625zm-5.2031-0.57812c-0.1875 0-0.35938 0.1875-0.35938 0.35938 0 0.15625 0.10938 0.26562 0.17188 0.29688l1.5156 1.2031 0.1875-0.17188-1.2188-1.5156c-0.078125-0.09375-0.1875-0.17188-0.29688-0.17188z"/>
</symbol>
<symbol id="w" overflow="visible">
<path d="m0-5.25h-0.3125c0 0.6875-0.0625 0.78125-0.5625 0.78125h-6.0469l0.10938 1.4219h0.3125c0-0.6875 0.0625-0.76562 0.5625-0.76562h2.1562c-0.35938 0.28125-0.625 0.71875-0.625 1.25 0 1.1719 0.98438 2.2188 2.2656 2.2188 1.2656 0 2.25-0.96875 2.25-2.1094 0-0.64062-0.34375-1.0781-0.65625-1.3281h0.65625zm-1.1719 1.4688c0.17188 0 0.1875 0 0.35938 0.10938 0.48438 0.29688 0.70312 0.73438 0.70312 1.1719 0 0.45312-0.26562 0.8125-0.64062 1.0469-0.40625 0.25-0.96875 0.28125-1.3906 0.28125-0.35938 0-0.95312-0.015625-1.4062-0.29688-0.3125-0.21875-0.64062-0.59375-0.64062-1.1406 0-0.34375 0.15625-0.76562 0.59375-1.0625 0.17188-0.10938 0.1875-0.10938 0.375-0.10938z"/>
</symbol>
<symbol id="v" overflow="visible">
<path d="m-1.2812-3.5938c-0.51562 0-0.82812 0.29688-0.9375 0.42188-0.32812 0.32812-0.40625 0.71875-0.48438 1.1406-0.10938 0.5625-0.23438 1.2188-0.8125 1.2188-0.35938 0-0.76562-0.25-0.76562-1.1094 0-1.0938 0.90625-1.1562 1.2031-1.1719 0.09375 0 0.09375-0.10938 0.09375-0.10938 0-0.14062-0.046875-0.14062-0.23438-0.14062h-1.0156c-0.15625 0-0.23438 0-0.23438 0.10938 0 0.046875 0 0.078125 0.125 0.20312 0.03125 0.03125 0.125 0.125 0.15625 0.17188-0.28125 0.375-0.28125 0.78125-0.28125 0.9375 0 1.2188 0.67188 1.5938 1.2344 1.5938 0.34375 0 0.625-0.15625 0.84375-0.42188 0.25-0.32812 0.3125-0.60938 0.45312-1.3281 0.046875-0.21875 0.20312-1.0312 0.92188-1.0312 0.5 0 0.90625 0.34375 0.90625 1.125 0 0.84375-0.5625 1.2031-1.4219 1.3906-0.125 0.03125-0.15625 0.03125-0.15625 0.14062 0 0.125 0.0625 0.125 0.23438 0.125h1.3281c0.17188 0 0.23438 0 0.23438-0.10938 0-0.046875-0.015625-0.0625-0.20312-0.25-0.015625-0.015625-0.03125-0.015625-0.21875-0.20312 0.40625-0.4375 0.42188-0.89062 0.42188-1.0938 0-1.1406-0.67188-1.6094-1.3906-1.6094z"/>
</symbol>
<symbol id="s" overflow="visible">
<path d="m5.1875-2.1562c0-1.2656-0.95312-2.25-2.0781-2.25-0.78125 0-1.2031 0.4375-1.3906 0.65625v-0.65625l-1.4375 0.10938v0.3125c0.70312 0 0.78125 0.0625 0.78125 0.5v4.6562c0 0.45312-0.10938 0.45312-0.78125 0.45312v0.3125l1.1094-0.03125 1.125 0.03125v-0.3125c-0.65625 0-0.76562 0-0.76562-0.45312v-1.7656c0.046875 0.17188 0.46875 0.70312 1.2188 0.70312 1.1875 0 2.2188-0.98438 2.2188-2.2656zm-0.82812 0c0 1.2031-0.6875 2.0469-1.4219 2.0469-0.40625 0-0.78125-0.20312-1.0469-0.60938-0.14062-0.20312-0.14062-0.21875-0.14062-0.42188v-2.2188c0.28125-0.51562 0.76562-0.79688 1.2812-0.79688 0.73438 0 1.3281 0.875 1.3281 2z"/>
</symbol>
<symbol id="r" overflow="visible">
<path d="m7.1406 0v-0.3125h-0.25c-0.76562 0-0.78125-0.10938-0.78125-0.46875v-5.25c0-0.35938 0.015625-0.46875 0.78125-0.46875h0.25v-0.3125c-0.35938 0.03125-1.0938 0.03125-1.4688 0.03125s-1.125 0-1.4688-0.03125v0.3125h0.23438c0.76562 0 0.78125 0.10938 0.78125 0.46875v2.3281h-2.9688v-2.3281c0-0.35938 0.015625-0.46875 0.78125-0.46875h0.23438v-0.3125c-0.34375 0.03125-1.0781 0.03125-1.4688 0.03125-0.375 0-1.125 0-1.4688-0.03125v0.3125h0.23438c0.76562 0 0.79688 0.10938 0.79688 0.46875v5.25c0 0.35938-0.03125 0.46875-0.79688 0.46875h-0.23438v0.3125c0.34375-0.03125 1.0938-0.03125 1.4688-0.03125s1.125 0 1.4688 0.03125v-0.3125h-0.23438c-0.76562 0-0.78125-0.10938-0.78125-0.46875v-2.6094h2.9688v2.6094c0 0.35938-0.015625 0.46875-0.78125 0.46875h-0.23438v0.3125c0.34375-0.03125 1.0781-0.03125 1.4531-0.03125 0.39062 0 1.125 0 1.4844 0.03125z"/>
</symbol>
<clipPath id="ac">
<path d="m35.879 3.8008h194.27v161.4h-194.27z"/>
</clipPath>
</defs>
<path transform="matrix(1,0,0,-1,35.878,3.804)" d="m194.27-6.875e-4h-4.2539m4.2539-32.277h-4.2539m4.2539-32.281h-4.2539m4.2539-32.277h-4.2539m4.2539-32.281h-4.2539m4.2539-32.277h-4.2539" fill="none" stroke="#7f7f7f" stroke-miterlimit="10" stroke-width=".19925"/>
<path transform="matrix(1,0,0,-1,35.878,3.804)" d="m194.27-6.875e-4v-161.39" fill="none" stroke="#000" stroke-miterlimit="10" stroke-width=".3985"/>
<g>
<use x="233.664" y="6.941" xlink:href="#a"/>
<use x="233.664" y="39.22" xlink:href="#q"/>
<use x="238.6453" y="39.22" xlink:href="#a"/>
<use x="233.664" y="71.498" xlink:href="#h"/>
<use x="238.6453" y="71.498" xlink:href="#a"/>
<use x="233.664" y="103.777" xlink:href="#g"/>
<use x="238.6453" y="103.777" xlink:href="#a"/>
<use x="233.664" y="136.056" xlink:href="#f"/>
<use x="238.6453" y="136.056" xlink:href="#a"/>
<use x="233.664" y="168.335" xlink:href="#c"/>
<use x="238.6453" y="168.335" xlink:href="#a"/>
<use x="243.6266" y="168.335" xlink:href="#a"/>
<use x="262.92" y="125.749" xlink:href="#p"/>
<use x="262.92" y="122.98139" xlink:href="#u"/>
<use x="262.92" y="120.213779" xlink:href="#b"/>
<use x="262.92" y="115.232479" xlink:href="#t"/>
<use x="262.92" y="106.379713" xlink:href="#k"/>
<use x="262.92" y="100.844493" xlink:href="#d"/>
<use x="262.92" y="98.076882" xlink:href="#j"/>
<use x="262.92" y="92.262709" xlink:href="#b"/>
<use x="262.92" y="87.002456" xlink:href="#e"/>
<use x="262.92" y="82.57408" xlink:href="#i"/>
<use x="262.92" y="79.80647" xlink:href="#b"/>
<use x="262.92" y="74.82517" xlink:href="#o"/>
<use x="262.92" y="70.92282" xlink:href="#d"/>
<use x="262.92" y="68.155209" xlink:href="#y"/>
<use x="262.92" y="64.280754" xlink:href="#b"/>
<use x="262.92" y="59.299454" xlink:href="#n"/>
<use x="262.92" y="56.531844" xlink:href="#m"/>
<use x="262.92" y="51.550544" xlink:href="#l"/>
</g>
<path transform="matrix(1 0 0 -1 8.125 165.2)" d="m27.754-0.0012188v161.4m27.75-161.4v161.4m27.754-161.4v161.4m27.754-161.4v161.4m27.75-161.4v161.4m27.754-161.4v161.4m27.754-161.4v161.4m27.754-161.4v161.4" fill="none" stroke="#bfbfbf" stroke-miterlimit="10" stroke-width=".3985"/>
<path transform="matrix(1 0 0 -1 8.125 165.2)" d="m27.754-0.0012188h194.27m-194.27 32.281h194.27m-194.27 32.277h194.27m-194.27 32.281h194.27m-194.27 32.277h194.27m-194.27 32.281h194.27" fill="none" stroke="#bfbfbf" stroke-miterlimit="10" stroke-width=".3985"/>
<path transform="matrix(1 0 0 -1 8.125 165.2)" d="m27.754-0.0012188v4.2539m27.75-4.2539v4.2539m27.754-4.2539v4.2539m27.754-4.2539v4.2539m27.75-4.2539v4.2539m27.754-4.2539v4.2539m27.754-4.2539v4.2539m27.754-4.2539v4.2539m-194.27 157.14v-4.2539m27.75 4.2539v-4.2539m27.754 4.2539v-4.2539m27.754 4.2539v-4.2539m27.75 4.2539v-4.2539m27.754 4.2539v-4.2539m27.754 4.2539v-4.2539m27.754 4.2539v-4.2539" fill="none" stroke="#7f7f7f" stroke-miterlimit="10" stroke-width=".19925"/>
<path transform="matrix(1 0 0 -1 8.125 165.2)" d="m27.754-0.0012188h4.25m-4.25 32.281h4.25m-4.25 32.277h4.25m-4.25 32.281h4.25m-4.25 32.277h4.25m-4.25 32.281h4.25m190.02-161.4h-4.2539m4.2539 32.281h-4.2539m4.2539 32.277h-4.2539m4.2539 32.281h-4.2539m4.2539 32.277h-4.2539m4.2539 32.281h-4.2539" fill="none" stroke="#7f7f7f" stroke-miterlimit="10" stroke-width=".19925"/>
<path transform="matrix(1 0 0 -1 8.125 165.2)" d="m27.754-0.0012188v161.4h194.27v-161.4z" fill="none" stroke="#000" stroke-miterlimit="10" stroke-width=".3985"/>
<g>
<use x="33.387" y="174.992" xlink:href="#h"/>
<use x="61.139" y="174.992" xlink:href="#ab"/>
<use x="88.892" y="174.992" xlink:href="#g"/>
<use x="116.644" y="174.992" xlink:href="#aa"/>
<use x="144.396" y="174.992" xlink:href="#f"/>
<use x="172.149" y="174.992" xlink:href="#z"/>
<use x="197.411" y="174.992" xlink:href="#c"/>
<use x="202.3923" y="174.992" xlink:href="#a"/>
<use x="225.163" y="174.992" xlink:href="#c"/>
<use x="230.1443" y="174.992" xlink:href="#c"/>
<use x="27.377" y="168.335" xlink:href="#a"/>
<use x="22.395" y="136.056" xlink:href="#q"/>
<use x="27.3763" y="136.056" xlink:href="#a"/>
<use x="22.395" y="103.777" xlink:href="#h"/>
<use x="27.3763" y="103.777" xlink:href="#a"/>
<use x="22.395" y="71.498" xlink:href="#g"/>
<use x="27.3763" y="71.498" xlink:href="#a"/>
<use x="22.395" y="39.22" xlink:href="#f"/>
<use x="27.3763" y="39.22" xlink:href="#a"/>
<use x="17.414" y="6.941" xlink:href="#c"/>
<use x="22.3953" y="6.941" xlink:href="#a"/>
<use x="27.3766" y="6.941" xlink:href="#a"/>
</g>
<g clip-path="url(#ac)">
<path transform="matrix(1 0 0 -1 8.125 165.2)" d="m1.4211e-14 161.39 1.4883 0.003907 1.4922-0.003907h1.4883l1.4922-0.003906h2.9805l1.4883-0.003906h4.4727l1.4883-0.003906 7.4492-0.019532h1.4922l1.4883-0.007812 2.9805-0.015625 2.9805-0.015625 1.4922-0.011719 1.4883-0.007812 1.4922-0.015625 1.4883-0.011719 1.4883-0.019531 2.9805-0.039063 1.4922-0.023437 1.4883-0.03125 1.4922-0.03125 1.4883-0.035157 1.4922-0.039062 1.4883-0.042969 1.4922-0.054687 1.4883-0.054688 1.4883-0.0625 1.4922-0.070312 1.4883-0.085938 1.4922-0.089844 1.4883-0.10938 1.4922-0.12109 1.4883-0.13281 1.4922-0.15234 1.4883-0.17188 1.4922-0.19531 1.4883-0.21875 1.4922-0.24609 1.4883-0.28125 1.4883-0.3125 1.4922-0.35547 1.4883-0.39844 1.4922-0.45312 1.4883-0.50391 1.4922-0.56641 1.4883-0.63672 1.4922-0.71484 1.4883-0.80078 1.4922-0.89844 1.4883-1.0039 1.4922-1.1172 1.4883-1.2461 1.4883-1.3867 1.4922-1.5195 1.4883-1.7227 1.4922-1.8789 1.4883-2.0664 1.4922-2.2734 1.4883-2.4805 1.4922-2.707 1.4883-2.9336 1.4922-3.168 1.4883-3.4102 1.4922-3.6406 1.4883-3.8711 1.4883-4.0938 1.4922-4.2969 1.4883-4.4883 1.4922-4.6484 1.4883-4.7812 1.4922-4.8867 1.4883-4.9531 1.4922-4.9883 1.4883-4.9766 1.4922-4.9297 1.4883-4.8516 1.4922-4.7422 1.4883-4.5898 1.4883-4.418 1.4922-4.2188 1.4883-4.0156 1.4922-3.7891 1.4883-3.5508 1.4922-3.3164 1.4883-3.082 1.4922-2.8477 1.4883-2.6211 1.4922-2.3984 1.4883-2.1953 1.4922-1.9961 1.4883-1.8125 1.4883-1.6367 1.4922-1.4805 1.4883-1.332 1.4922-1.1992 1.4883-1.0742 1.4922-0.96094 1.4883-0.85938 1.4922-0.76953 1.4883-0.68359 1.4922-0.61328 1.4883-0.54297 1.4883-0.48438 1.4922-0.42969 1.4883-0.37891 1.4922-0.33984 1.4883-0.30078 1.4922-0.26562 1.4883-0.23828 1.4922-0.20703 1.4883-0.1875 1.4922-0.16406 1.4883-0.14453 1.4922-0.12891 1.4883-0.11719 1.4883-0.097656 1.4922-0.089844 1.4883-0.078125 1.4922-0.070312 1.4883-0.0625 1.4922-0.054688 1.4883-0.046875 1.4922-0.042969 1.4883-0.039062 1.4922-0.035156 1.4883-0.027344 1.4922-0.027344 1.4883-0.023437 1.4883-0.019532 1.4922-0.019531 1.4883-0.015625 2.9805-0.023438 2.9805-0.023438 2.9805-0.015625 1.4922-0.0078125" fill="none" stroke="#0c6dfd" stroke-miterlimit="10" stroke-width="1.1955"/>
</g>
<g>
<use x="126.508" y="188.695" xlink:href="#s"/>
<use x="132.043221" y="188.695" xlink:href="#r"/>
<use x="8.083" y="131.588" xlink:href="#p"/>
<use x="8.083" y="128.82039" xlink:href="#x"/>
<use x="8.083" y="123.83909" xlink:href="#e"/>
<use x="8.083" y="119.410714" xlink:href="#d"/>
<use x="8.083" y="116.643104" xlink:href="#w"/>
<use x="8.083" y="111.107883" xlink:href="#b"/>
<use x="8.083" y="102.809037" xlink:href="#k"/>
<use x="8.083" y="97.273817" xlink:href="#d"/>
<use x="8.083" y="94.506207" xlink:href="#j"/>
<use x="8.083" y="88.692033" xlink:href="#b"/>
<use x="8.083" y="83.43178" xlink:href="#e"/>
<use x="8.083" y="79.003405" xlink:href="#i"/>
<use x="8.083" y="76.235794" xlink:href="#b"/>
<use x="8.083" y="71.254494" xlink:href="#o"/>
<use x="8.083" y="67.352144" xlink:href="#b"/>
<use x="8.083" y="62.370844" xlink:href="#v"/>
<use x="8.083" y="58.450561" xlink:href="#b"/>
<use x="8.083" y="53.469261" xlink:href="#n"/>
<use x="8.083" y="50.701651" xlink:href="#m"/>
<use x="8.083" y="45.720351" xlink:href="#l"/>
</g>
</svg>
