<?xml version="1.0" encoding="UTF-8"?>
<svg width="230pt" height="189pt" version="1.1" viewBox="0 0 230 189" xmlns="http://www.w3.org/2000/svg" xmlns:xlink="http://www.w3.org/1999/xlink">
<defs>
<symbol id="af" overflow="visible">
<path d="m4.5781-3.1875c0-0.79688-0.046875-1.5938-0.39062-2.3281-0.45312-0.96875-1.2812-1.125-1.6875-1.125-0.60938 0-1.3281 0.26562-1.75 1.1875-0.3125 0.6875-0.35938 1.4688-0.35938 2.2656 0 0.75 0.03125 1.6406 0.45312 2.4062 0.42188 0.79688 1.1562 1 1.6406 1 0.53125 0 1.2969-0.20312 1.7344-1.1562 0.3125-0.6875 0.35938-1.4688 0.35938-2.25zm-0.8125-0.125c0 0.75 0 1.4219-0.10938 2.0625-0.15625 0.95312-0.71875 1.25-1.1719 1.25-0.39062 0-0.98438-0.25-1.1562-1.2031-0.10938-0.59375-0.10938-1.5156-0.10938-2.1094 0-0.64062 0-1.2969 0.078125-1.8281 0.1875-1.1875 0.9375-1.2812 1.1875-1.2812 0.32812 0 0.98438 0.1875 1.1719 1.1719 0.10938 0.5625 0.10938 1.3125 0.10938 1.9375z"/>
</symbol>
<symbol id="ae" overflow="visible">
<path d="m4.1719 0v-0.3125h-0.3125c-0.90625 0-0.92188-0.10938-0.92188-0.46875v-5.5938c0-0.25 0-0.26562-0.23438-0.26562-0.625 0.64062-1.5 0.64062-1.8125 0.64062v0.3125c0.20312 0 0.78125 0 1.2969-0.26562v5.1719c0 0.35938-0.03125 0.46875-0.92188 0.46875h-0.3125v0.3125c0.34375-0.03125 1.2031-0.03125 1.6094-0.03125 0.39062 0 1.2656 0 1.6094 0.03125z"/>
</symbol>
<symbol id="ad" overflow="visible">
<path d="m5.1875-2.1562c0-1.2656-0.96875-2.25-2.1094-2.25-0.78125 0-1.2031 0.46875-1.3594 0.64062v-3.1562l-1.4375 0.10938v0.3125c0.70312 0 0.78125 0.0625 0.78125 0.5625v5.9375h0.25l0.35938-0.625c0.14062 0.23438 0.5625 0.73438 1.2969 0.73438 1.1875 0 2.2188-0.98438 2.2188-2.2656zm-0.82812 0c0 0.35938-0.015625 0.95312-0.29688 1.4062-0.21875 0.3125-0.59375 0.64062-1.125 0.64062-0.45312 0-0.8125-0.23438-1.0469-0.60938-0.14062-0.20312-0.14062-0.23438-0.14062-0.42188v-2.0469c0-0.1875 0-0.20312 0.10938-0.35938 0.39062-0.5625 0.9375-0.64062 1.1719-0.64062 0.45312 0 0.8125 0.26562 1.0469 0.64062 0.26562 0.40625 0.28125 0.96875 0.28125 1.3906z"/>
</symbol>
<symbol id="ac" overflow="visible">
<path d="m4.8125-0.89062v-0.5625h-0.25v0.5625c0 0.57812-0.25 0.64062-0.35938 0.64062-0.32812 0-0.35938-0.45312-0.35938-0.5v-1.9844c0-0.42188 0-0.8125-0.35938-1.1875-0.39062-0.39062-0.89062-0.54688-1.375-0.54688-0.8125 0-1.5 0.46875-1.5 1.125 0 0.29688 0.20312 0.46875 0.45312 0.46875 0.28125 0 0.46875-0.20312 0.46875-0.45312 0-0.125-0.0625-0.45312-0.51562-0.45312 0.26562-0.35938 0.76562-0.46875 1.0781-0.46875 0.48438 0 1.0625 0.39062 1.0625 1.2812v0.35938c-0.51562 0.03125-1.2188 0.0625-1.8438 0.35938-0.75 0.34375-1 0.85938-1 1.2969 0 0.8125 0.96875 1.0625 1.5938 1.0625 0.67188 0 1.125-0.40625 1.3125-0.85938 0.046875 0.39062 0.3125 0.8125 0.78125 0.8125 0.20312 0 0.8125-0.14062 0.8125-0.95312zm-1.6562-0.5c0 0.9375-0.71875 1.2812-1.1719 1.2812-0.48438 0-0.89062-0.34375-0.89062-0.84375 0-0.54688 0.40625-1.375 2.0625-1.4375z"/>
</symbol>
<symbol id="ab" overflow="visible">
<path d="m3.625-3.7969c0-0.3125-0.3125-0.60938-0.73438-0.60938-0.73438 0-1.0938 0.67188-1.2188 1.0938v-1.0938l-1.3906 0.10938v0.3125c0.70312 0 0.78125 0.0625 0.78125 0.5625v2.6719c0 0.4375-0.10938 0.4375-0.78125 0.4375v0.3125l1.1406-0.03125c0.39062 0 0.85938 0 1.2656 0.03125v-0.3125h-0.21875c-0.73438 0-0.75-0.10938-0.75-0.46875v-1.5312c0-0.98438 0.42188-1.875 1.1719-1.875 0.0625 0 0.09375 0 0.10938 0.015625-0.03125 0-0.23438 0.125-0.23438 0.39062s0.21875 0.42188 0.4375 0.42188c0.17188 0 0.42188-0.125 0.42188-0.4375z"/>
</symbol>
<symbol id="aa" overflow="visible">
<path d="m4.5781-3.1875c0-0.79688-0.046875-1.5938-0.39062-2.3281-0.45312-0.96875-1.2812-1.125-1.6875-1.125-0.60938 0-1.3281 0.26562-1.75 1.1875-0.3125 0.6875-0.35938 1.4688-0.35938 2.2656 0 0.75 0.03125 1.6406 0.45312 2.4062 0.42188 0.79688 1.1562 1 1.6406 1 0.53125 0 1.2969-0.20312 1.7344-1.1562 0.3125-0.6875 0.35938-1.4688 0.35938-2.25zm-0.8125-0.125c0 0.75 0 1.4219-0.10938 2.0625-0.15625 0.95312-0.71875 1.25-1.1719 1.25-0.39062 0-0.98438-0.25-1.1562-1.2031-0.10938-0.59375-0.10938-1.5156-0.10938-2.1094 0-0.64062 0-1.2969 0.078125-1.8281 0.1875-1.1875 0.9375-1.2812 1.1875-1.2812 0.32812 0 0.98438 0.1875 1.1719 1.1719 0.10938 0.5625 0.10938 1.3125 0.10938 1.9375z"/>
</symbol>
<symbol id="z" overflow="visible">
<path d="m6.2188-4.9531c0-0.98438-0.98438-1.8594-2.3438-1.8594h-3.5312v0.3125h0.25c0.76562 0 0.78125 0.10938 0.78125 0.46875v5.25c0 0.35938-0.015625 0.46875-0.78125 0.46875h-0.25v0.3125c0.35938-0.03125 1.0938-0.03125 1.4688-0.03125s1.125 0 1.4844 0.03125v-0.3125h-0.25c-0.76562 0-0.78125-0.10938-0.78125-0.46875v-2.375h1.6875c1.1875 0 2.2656-0.79688 2.2656-1.7969zm-1.0312 0c0 0.46875 0 1.5469-1.5781 1.5469h-1.375v-2.6875c0-0.34375 0.015625-0.40625 0.48438-0.40625h0.89062c1.5781 0 1.5781 1.0625 1.5781 1.5469z"/>
</symbol>
<symbol id="y" overflow="visible">
<path d="m3.625-3.7969c0-0.3125-0.3125-0.60938-0.73438-0.60938-0.73438 0-1.0938 0.67188-1.2188 1.0938v-1.0938l-1.3906 0.10938v0.3125c0.70312 0 0.78125 0.0625 0.78125 0.5625v2.6719c0 0.4375-0.10938 0.4375-0.78125 0.4375v0.3125l1.1406-0.03125c0.39062 0 0.85938 0 1.2656 0.03125v-0.3125h-0.21875c-0.73438 0-0.75-0.10938-0.75-0.46875v-1.5312c0-0.98438 0.42188-1.875 1.1719-1.875 0.0625 0 0.09375 0 0.10938 0.015625-0.03125 0-0.23438 0.125-0.23438 0.39062s0.21875 0.42188 0.4375 0.42188c0.17188 0 0.42188-0.125 0.42188-0.4375z"/>
</symbol>
<symbol id="x" overflow="visible">
<path d="m4.1406-1.1875c0-0.09375-0.078125-0.125-0.14062-0.125-0.078125 0-0.10938 0.0625-0.125 0.14062-0.34375 1.0312-1.25 1.0312-1.3438 1.0312-0.5 0-0.89062-0.29688-1.125-0.67188-0.29688-0.46875-0.29688-1.125-0.29688-1.4844h2.7812c0.21875 0 0.25 0 0.25-0.21875 0-0.98438-0.54688-1.9531-1.7812-1.9531-1.1562 0-2.0781 1.0312-2.0781 2.2812 0 1.3281 1.0469 2.2969 2.1875 2.2969 1.2188 0 1.6719-1.1094 1.6719-1.2969zm-0.65625-1.3281h-2.375c0.0625-1.4844 0.90625-1.7344 1.25-1.7344 1.0156 0 1.125 1.3438 1.125 1.7344z"/>
</symbol>
<symbol id="f" overflow="visible">
<path d="m3.5938-1.2812c0-0.51562-0.29688-0.82812-0.42188-0.9375-0.32812-0.32812-0.71875-0.40625-1.1406-0.48438-0.5625-0.10938-1.2188-0.23438-1.2188-0.8125 0-0.35938 0.25-0.76562 1.1094-0.76562 1.0938 0 1.1562 0.90625 1.1719 1.2031 0 0.09375 0.10938 0.09375 0.10938 0.09375 0.14062 0 0.14062-0.046875 0.14062-0.23438v-1.0156c0-0.15625 0-0.23438-0.10938-0.23438-0.046875 0-0.078125 0-0.20312 0.125-0.03125 0.03125-0.125 0.125-0.17188 0.15625-0.375-0.28125-0.78125-0.28125-0.9375-0.28125-1.2188 0-1.5938 0.67188-1.5938 1.2344 0 0.34375 0.15625 0.625 0.42188 0.84375 0.32812 0.25 0.60938 0.3125 1.3281 0.45312 0.21875 0.046875 1.0312 0.20312 1.0312 0.92188 0 0.5-0.34375 0.90625-1.125 0.90625-0.84375 0-1.2031-0.5625-1.3906-1.4219-0.03125-0.125-0.03125-0.15625-0.14062-0.15625-0.125 0-0.125 0.0625-0.125 0.23438v1.3281c0 0.17188 0 0.23438 0.10938 0.23438 0.046875 0 0.0625-0.015625 0.25-0.20312 0.015625-0.015625 0.015625-0.03125 0.20312-0.21875 0.4375 0.40625 0.89062 0.42188 1.0938 0.42188 1.1406 0 1.6094-0.67188 1.6094-1.3906z"/>
</symbol>
<symbol id="w" overflow="visible">
<path d="m4.8125-0.89062v-0.5625h-0.25v0.5625c0 0.57812-0.25 0.64062-0.35938 0.64062-0.32812 0-0.35938-0.45312-0.35938-0.5v-1.9844c0-0.42188 0-0.8125-0.35938-1.1875-0.39062-0.39062-0.89062-0.54688-1.375-0.54688-0.8125 0-1.5 0.46875-1.5 1.125 0 0.29688 0.20312 0.46875 0.45312 0.46875 0.28125 0 0.46875-0.20312 0.46875-0.45312 0-0.125-0.0625-0.45312-0.51562-0.45312 0.26562-0.35938 0.76562-0.46875 1.0781-0.46875 0.48438 0 1.0625 0.39062 1.0625 1.2812v0.35938c-0.51562 0.03125-1.2188 0.0625-1.8438 0.35938-0.75 0.34375-1 0.85938-1 1.2969 0 0.8125 0.96875 1.0625 1.5938 1.0625 0.67188 0 1.125-0.40625 1.3125-0.85938 0.046875 0.39062 0.3125 0.8125 0.78125 0.8125 0.20312 0 0.8125-0.14062 0.8125-0.95312zm-1.6562-0.5c0 0.9375-0.71875 1.2812-1.1719 1.2812-0.48438 0-0.89062-0.34375-0.89062-0.84375 0-0.54688 0.40625-1.375 2.0625-1.4375zm1-4.9531-0.15625-0.14062s-0.375 0.46875-0.8125 0.46875c-0.23438 0-0.48438-0.14062-0.65625-0.25-0.26562-0.15625-0.45312-0.21875-0.625-0.21875-0.375 0-0.5625 0.21875-1.0625 0.76562l0.15625 0.15625s0.375-0.48438 0.8125-0.48438c0.23438 0 0.48438 0.15625 0.65625 0.25 0.26562 0.17188 0.4375 0.23438 0.60938 0.23438 0.375 0 0.57812-0.21875 1.0781-0.78125z"/>
</symbol>
<symbol id="v" overflow="visible">
<path d="m4.6875-2.1406c0-1.2656-0.98438-2.3281-2.1875-2.3281-1.25 0-2.2188 1.0938-2.2188 2.3281 0 1.2969 1.0312 2.25 2.2031 2.25 1.2031 0 2.2031-0.98438 2.2031-2.25zm-0.8125-0.078125c0 0.35938 0 0.90625-0.21875 1.3438-0.23438 0.45312-0.67188 0.73438-1.1562 0.73438-0.4375 0-0.875-0.20312-1.1406-0.67188-0.25-0.4375-0.25-1.0469-0.25-1.4062 0-0.39062 0-0.92188 0.23438-1.3594 0.26562-0.45312 0.73438-0.67188 1.1406-0.67188 0.4375 0 0.85938 0.21875 1.125 0.65625 0.26562 0.42188 0.26562 1 0.26562 1.375z"/>
</symbol>
<symbol id="u" overflow="visible">
<path d="m2.0312-0.015625c0-0.625-0.25-1.0469-0.64062-1.0469-0.35938 0-0.53125 0.28125-0.53125 0.53125 0 0.26562 0.17188 0.53125 0.53125 0.53125 0.14062 0 0.28125-0.0625 0.39062-0.15625 0.015625 0.78125-0.25 1.3906-0.6875 1.8594-0.0625 0.0625-0.078125 0.078125-0.078125 0.10938 0 0.078125 0.046875 0.10938 0.09375 0.10938 0.125 0 0.92188-0.78125 0.92188-1.9375z"/>
</symbol>
<symbol id="t" overflow="visible">
<path d="m7.1875-2.6094c0-0.078125-0.046875-0.10938-0.125-0.10938-0.23438 0-0.82812 0.03125-1.0469 0.03125l-1.4062-0.03125c-0.078125 0-0.20312 0-0.20312 0.20312 0 0.10938 0.078125 0.10938 0.29688 0.10938 0 0 0.29688 0 0.53125 0.015625 0.26562 0.03125 0.3125 0.0625 0.3125 0.1875 0 0.09375-0.10938 0.53125-0.21875 0.90625-0.28125 1.0938-1.5625 1.2031-1.9219 1.2031-0.95312 0-2-0.5625-2-2.0938 0-0.3125 0.09375-1.9531 1.1406-3.25 0.54688-0.67188 1.5156-1.2812 2.5-1.2812 1.0156 0 1.6094 0.76562 1.6094 1.9219 0 0.40625-0.03125 0.40625-0.03125 0.51562 0 0.09375 0.10938 0.09375 0.14062 0.09375 0.125 0 0.125-0.015625 0.1875-0.20312l0.625-2.5312c0-0.03125-0.015625-0.10938-0.10938-0.10938-0.03125 0-0.046875 0.015625-0.15625 0.125l-0.6875 0.76562c-0.09375-0.14062-0.54688-0.89062-1.6562-0.89062-2.2344 0-4.4688 2.2031-4.4688 4.5156 0 1.5938 1.1094 2.7344 2.7188 2.7344 0.4375 0 0.89062-0.09375 1.25-0.23438 0.5-0.20312 0.6875-0.40625 0.85938-0.60938 0.09375 0.25 0.35938 0.60938 0.45312 0.60938 0.046875 0 0.078125-0.03125 0.078125-0.03125 0.015625-0.015625 0.10938-0.40625 0.15625-0.60938l0.1875-0.76562 0.14062-0.51562c0.10938-0.4375 0.10938-0.46875 0.6875-0.46875 0.046875 0 0.15625-0.015625 0.15625-0.20312z"/>
</symbol>
<symbol id="s" overflow="visible">
<path d="m7.5156-5.2969c0-0.78125-0.65625-1.5156-1.9688-1.5156h-3.2188c-0.1875 0-0.29688 0-0.29688 0.1875 0 0.125 0.078125 0.125 0.28125 0.125 0.125 0 0.3125 0.015625 0.42188 0.015625 0.17188 0.03125 0.21875 0.046875 0.21875 0.17188 0 0.03125 0 0.0625-0.03125 0.1875l-1.3438 5.3438c-0.09375 0.39062-0.10938 0.46875-0.90625 0.46875-0.15625 0-0.26562 0-0.26562 0.1875 0 0.125 0.10938 0.125 0.14062 0.125l1.2656-0.03125 0.64062 0.015625c0.21875 0 0.4375 0.015625 0.64062 0.015625 0.078125 0 0.20312 0 0.20312-0.20312 0-0.10938-0.09375-0.10938-0.28125-0.10938-0.35938 0-0.64062 0-0.64062-0.17188 0-0.0625 0.015625-0.10938 0.03125-0.17188l0.60938-2.5h1.7031c1.4062 0 2.7969-1.0312 2.7969-2.1406zm-0.92188-0.25c0 0.39062-0.20312 1.25-0.59375 1.6094-0.5 0.45312-1.0938 0.53125-1.5312 0.53125h-1.4062l0.67188-2.7188c0.09375-0.34375 0.10938-0.375 0.54688-0.375h0.95312c0.82812 0 1.3594 0.26562 1.3594 0.95312z"/>
</symbol>
<symbol id="r" overflow="visible">
<path d="m4.4219-7.2812c0-0.10938-0.078125-0.20312-0.1875-0.20312-0.078125 0-0.14062 0.03125-0.17188 0.09375l-3.4688 9.5c-0.046875 0.14062-0.046875 0.1875-0.046875 0.1875 0 0.10938 0.09375 0.20312 0.20312 0.20312 0.125 0 0.15625-0.078125 0.21875-0.25l3.4062-9.3438c0.046875-0.14062 0.046875-0.1875 0.046875-0.1875z"/>
</symbol>
<symbol id="q" overflow="visible">
<path d="m3.5312-1.7344c0-0.85938-0.6875-1.5-1.5-1.5-0.82812 0-1.4844 0.67188-1.4844 1.4844 0 0.84375 0.67188 1.5 1.4844 1.5 0.82812 0 1.5-0.67188 1.5-1.4844zm-0.34375-0.015625c0 0.64062-0.51562 1.1562-1.1562 1.1562s-1.1406-0.53125-1.1406-1.1406c0-0.65625 0.51562-1.1719 1.1406-1.1719 0.65625 0 1.1562 0.53125 1.1562 1.1562z"/>
</symbol>
<symbol id="p" overflow="visible">
<path d="m6.25 0v-0.25c-0.45312 0-0.51562 0-0.51562-0.29688v-1.5625c0-0.60938-0.3125-0.96875-1.0469-0.96875-0.5625 0-0.9375 0.29688-1.125 0.65625-0.14062-0.5-0.51562-0.65625-1.0156-0.65625-0.57812 0-0.9375 0.3125-1.1406 0.6875v-0.6875l-1.0312 0.078125v0.25c0.46875 0 0.53125 0.046875 0.53125 0.39062v1.8125c0 0.29688-0.078125 0.29688-0.53125 0.29688v0.25s0.5-0.03125 0.79688-0.03125c0.25 0 0.73438 0.03125 0.79688 0.03125v-0.25c-0.45312 0-0.51562 0-0.51562-0.29688v-1.2656c0-0.71875 0.57812-1.0625 1.0312-1.0625 0.48438 0 0.54688 0.375 0.54688 0.73438v1.5938c0 0.29688-0.0625 0.29688-0.51562 0.29688v0.25s0.5-0.03125 0.79688-0.03125c0.25 0 0.73438 0.03125 0.79688 0.03125v-0.25c-0.45312 0-0.51562 0-0.51562-0.29688v-1.2656c0-0.71875 0.57812-1.0625 1.0312-1.0625 0.48438 0 0.54688 0.375 0.54688 0.73438v1.5938c0 0.29688-0.0625 0.29688-0.51562 0.29688v0.25s0.5-0.03125 0.79688-0.03125c0.25 0 0.73438 0.03125 0.79688 0.03125z"/>
</symbol>
<symbol id="o" overflow="visible">
<path d="m-2.5781-6.5v0.25c1.5469 0.25 2.2656 0.48438 2.2656 2.1875v1.3281c0 0.46875-0.0625 0.48438-0.39062 0.48438h-2.6719v-0.89062c0-0.96875 0.32812-1.0781 1.1719-1.0781v-0.25h-2.6406v0.25c0.85938 0 1.1719 0.10938 1.1719 1.0781v0.89062h-2.4062c-0.32812 0-0.39062-0.015625-0.39062-0.48438v-1.2812c0-1.5312 0.54688-1.7969 1.9375-1.9531v-0.25l-2.25 0.28125v5.6094h0.3125v-0.23438c0-0.76562 0.10938-0.79688 0.46875-0.79688h5.2188c0.35938 0 0.46875 0.03125 0.46875 0.79688v0.23438h0.3125v-5.75z"/>
</symbol>
<symbol id="k" overflow="visible">
<path d="m0-5.3281h-0.3125c0 0.51562 0 0.76562-0.29688 0.76562h-1.9062c-0.85938 0-1.1562 0-1.5156 0.3125-0.17188 0.14062-0.375 0.46875-0.375 1.0469 0 0.73438 0.42188 1.2031 1.0469 1.4844h-1.0469l0.10938 1.4062h0.3125c0-0.70312 0.0625-0.78125 0.5625-0.78125h2.6719c0.4375 0 0.4375 0.10938 0.4375 0.78125h0.3125l-0.03125-1.1406 0.03125-1.1094h-0.3125c0 0.67188 0 0.78125-0.4375 0.78125h-1.8438c-1.0312 0-1.5938-0.71875-1.5938-1.3438 0-0.64062 0.53125-0.75 1.1094-0.75h2.3281c0.4375 0 0.4375 0.10938 0.4375 0.78125h0.3125l-0.03125-1.125z"/>
</symbol>
<symbol id="e" overflow="visible">
<path d="m-1.1875-4.1406c-0.09375 0-0.125 0.078125-0.125 0.14062 0 0.078125 0.0625 0.10938 0.14062 0.125 1.0312 0.34375 1.0312 1.25 1.0312 1.3438 0 0.5-0.29688 0.89062-0.67188 1.125-0.46875 0.29688-1.125 0.29688-1.4844 0.29688v-2.7812c0-0.21875 0-0.25-0.21875-0.25-0.98438 0-1.9531 0.54688-1.9531 1.7812 0 1.1562 1.0312 2.0781 2.2812 2.0781 1.3281 0 2.2969-1.0469 2.2969-2.1875 0-1.2188-1.1094-1.6719-1.2969-1.6719zm-1.3281 0.65625v2.375c-1.4844-0.0625-1.7344-0.90625-1.7344-1.25 0-1.0156 1.3438-1.125 1.7344-1.125z"/>
</symbol>
<symbol id="a" overflow="visible">
<path d="m-3.7969-3.625c-0.3125 0-0.60938 0.3125-0.60938 0.73438 0 0.73438 0.67188 1.0938 1.0938 1.2188h-1.0938l0.10938 1.3906h0.3125c0-0.70312 0.0625-0.78125 0.5625-0.78125h2.6719c0.4375 0 0.4375 0.10938 0.4375 0.78125h0.3125l-0.03125-1.1406c0-0.39062 0-0.85938 0.03125-1.2656h-0.3125v0.21875c0 0.73438-0.10938 0.75-0.46875 0.75h-1.5312c-0.98438 0-1.875-0.42188-1.875-1.1719 0-0.0625 0-0.09375 0.015625-0.10938 0 0.03125 0.125 0.23438 0.39062 0.23438s0.42188-0.21875 0.42188-0.4375c0-0.17188-0.125-0.42188-0.4375-0.42188z"/>
</symbol>
<symbol id="j" overflow="visible">
<path d="m-4.0312-4.8281c-0.17188 0-0.48438 0.10938-0.48438 0.5 0 0.20312 0.0625 0.64062 0.46875 1.0625-0.32812 0.42188-0.35938 0.82812-0.35938 1.0469 0 0.9375 0.6875 1.625 1.4531 1.625 0.4375 0 0.8125-0.21875 1.0312-0.46875 0.14062 0.125 0.46875 0.3125 0.82812 0.3125 0.3125 0 0.6875-0.14062 0.89062-0.45312 0.15625 0.60938 0.59375 0.92188 0.98438 0.92188 0.71875 0 1.2656-0.98438 1.2656-2.2031 0-1.1719-0.5-2.2031-1.2812-2.2031-0.34375 0-0.85938 0.125-1.1406 0.64062-0.26562 0.53125-0.26562 1.1094-0.26562 1.7188 0 0.25 0 0.67188-0.015625 0.75-0.046875 0.3125-0.34375 0.51562-0.67188 0.51562-0.03125 0-0.26562 0-0.46875-0.15625 0.28125-0.39062 0.3125-0.8125 0.3125-1 0-0.92188-0.6875-1.6094-1.4531-1.6094-0.375 0-0.73438 0.15625-0.96875 0.40625-0.34375-0.35938-0.39062-0.71875-0.39062-0.89062 0 0 0-0.078125 0.015625-0.10938 0.03125 0.10938 0.14062 0.17188 0.26562 0.17188 0.17188 0 0.28125-0.14062 0.28125-0.29688 0-0.09375-0.0625-0.28125-0.29688-0.28125zm1.0781 1.75c0.26562 0 0.59375 0 0.84375 0.15625 0.10938 0.078125 0.39062 0.3125 0.39062 0.70312 0 0.875-1 0.875-1.2188 0.875-0.26562 0-0.59375-0.015625-0.84375-0.15625-0.10938-0.078125-0.39062-0.3125-0.39062-0.71875 0-0.85938 0.98438-0.85938 1.2188-0.85938zm3.7344-1.0938c0.54688 0 1.0469 0.70312 1.0469 1.6719 0 1.0156-0.51562 1.7031-1.0469 1.7031-0.45312 0-0.82812-0.375-0.84375-0.8125v-0.59375c0-0.85938 0-1.9688 0.84375-1.9688z"/>
</symbol>
<symbol id="d" overflow="visible">
<path d="m0-2.4688h-0.3125c0 0.67188-0.046875 0.70312-0.4375 0.70312h-3.6562l0.10938 1.3906h0.3125c0-0.64062 0.0625-0.73438 0.54688-0.73438h2.6875c0.4375 0 0.4375 0.10938 0.4375 0.78125h0.3125l-0.03125-1.0938c0-0.35938 0.015625-0.70312 0.03125-1.0469zm-6.0156 0.5625c-0.28125 0-0.53125 0.21875-0.53125 0.51562 0 0.34375 0.28125 0.54688 0.53125 0.54688 0.26562 0 0.51562-0.23438 0.51562-0.53125 0-0.34375-0.26562-0.53125-0.51562-0.53125z"/>
</symbol>
<symbol id="c" overflow="visible">
<path d="m-0.89062-4.8125h-0.5625v0.25h0.5625c0.57812 0 0.64062 0.25 0.64062 0.35938 0 0.32812-0.45312 0.35938-0.5 0.35938h-1.9844c-0.42188 0-0.8125 0-1.1875 0.35938-0.39062 0.39062-0.54688 0.89062-0.54688 1.375 0 0.8125 0.46875 1.5 1.125 1.5 0.29688 0 0.46875-0.20312 0.46875-0.45312 0-0.28125-0.20312-0.46875-0.45312-0.46875-0.125 0-0.45312 0.0625-0.45312 0.51562-0.35938-0.26562-0.46875-0.76562-0.46875-1.0781 0-0.48438 0.39062-1.0625 1.2812-1.0625h0.35938c0.03125 0.51562 0.0625 1.2188 0.35938 1.8438 0.34375 0.75 0.85938 1 1.2969 1 0.8125 0 1.0625-0.96875 1.0625-1.5938 0-0.67188-0.40625-1.125-0.85938-1.3125 0.39062-0.046875 0.8125-0.3125 0.8125-0.78125 0-0.20312-0.14062-0.8125-0.95312-0.8125zm-0.5 1.6562c0.9375 0 1.2812 0.71875 1.2812 1.1719 0 0.48438-0.34375 0.89062-0.84375 0.89062-0.54688 0-1.375-0.40625-1.4375-2.0625z"/>
</symbol>
<symbol id="b" overflow="visible">
<path d="m0-2.5469h-0.3125c0 0.67188 0 0.78125-0.4375 0.78125h-6.1719l0.10938 1.4375h0.3125c0-0.70312 0.0625-0.78125 0.5625-0.78125h5.1875c0.4375 0 0.4375 0.10938 0.4375 0.78125h0.3125l-0.03125-1.1094z"/>
</symbol>
<symbol id="i" overflow="visible">
<path d="m-3.9844-5.0625h-0.3125c0.015625 0.23438 0.03125 0.51562 0.03125 0.75l-0.03125 0.85938h0.3125c0-0.35938 0.23438-0.46875 0.42188-0.46875 0.09375 0 0.14062 0.015625 0.25 0.046875l2.5312 1.0312-2.7812 1.1094c-0.125 0.0625-0.17188 0.0625-0.17188 0.0625-0.25 0-0.25-0.39062-0.25-0.57812h-0.3125l0.03125 1.0938c0 0.26562-0.015625 0.67188-0.03125 0.96875h0.3125c0-0.625 0.0625-0.67188 0.35938-0.79688l3.5469-1.4375c0.14062-0.0625 0.1875-0.078125 0.1875-0.20312 0-0.14062-0.09375-0.17188-0.1875-0.21875l-3.2344-1.2969c-0.23438-0.09375-0.67188-0.26562-0.67188-0.92188z"/>
</symbol>
<symbol id="n" overflow="visible">
<path d="m0-8.1094h-0.3125c0 0.51562 0 0.76562-0.29688 0.78125h-1.9062c-0.85938 0-1.1562 0-1.5156 0.3125-0.17188 0.14062-0.375 0.46875-0.375 1.0469 0 0.82812 0.59375 1.2812 0.98438 1.4375-0.875 0.14062-0.98438 0.875-0.98438 1.3281 0 0.73438 0.42188 1.2031 1.0469 1.4844h-1.0469l0.10938 1.4062h0.3125c0-0.70312 0.0625-0.78125 0.5625-0.78125h2.6719c0.4375 0 0.4375 0.10938 0.4375 0.78125h0.3125l-0.03125-1.1406 0.03125-1.1094h-0.3125c0 0.67188 0 0.78125-0.4375 0.78125h-1.8438c-1.0312 0-1.5938-0.71875-1.5938-1.3438 0-0.64062 0.53125-0.75 1.1094-0.75h2.3281c0.4375 0 0.4375 0.10938 0.4375 0.78125h0.3125l-0.03125-1.125 0.03125-1.1094h-0.3125c0 0.65625 0 0.76562-0.4375 0.76562h-1.8438c-1.0312 0-1.5938-0.70312-1.5938-1.3438 0-0.625 0.53125-0.73438 1.1094-0.73438h2.3281c0.4375 0 0.4375 0.10938 0.4375 0.78125h0.3125l-0.03125-1.125z"/>
</symbol>
<symbol id="m" overflow="visible">
<path d="m-2.1406-4.6875c-1.2656 0-2.3281 0.98438-2.3281 2.1875 0 1.25 1.0938 2.2188 2.3281 2.2188 1.2969 0 2.25-1.0312 2.25-2.2031 0-1.2031-0.98438-2.2031-2.25-2.2031zm-0.078125 0.8125c0.35938 0 0.90625 0 1.3438 0.21875 0.45312 0.23438 0.73438 0.67188 0.73438 1.1562 0 0.4375-0.20312 0.875-0.67188 1.1406-0.4375 0.25-1.0469 0.25-1.4062 0.25-0.39062 0-0.92188 0-1.3594-0.23438-0.45312-0.26562-0.67188-0.73438-0.67188-1.1406 0-0.4375 0.21875-0.85938 0.65625-1.125 0.42188-0.26562 1-0.26562 1.375-0.26562z"/>
</symbol>
<symbol id="l" overflow="visible">
<path d="m-0.015625-2.0312c-0.625 0-1.0469 0.25-1.0469 0.64062 0 0.35938 0.28125 0.53125 0.53125 0.53125 0.26562 0 0.53125-0.17188 0.53125-0.53125 0-0.14062-0.0625-0.28125-0.15625-0.39062 0.78125-0.015625 1.3906 0.25 1.8594 0.6875 0.0625 0.0625 0.078125 0.078125 0.10938 0.078125 0.078125 0 0.10938-0.046875 0.10938-0.09375 0-0.125-0.78125-0.92188-1.9375-0.92188z"/>
</symbol>
<symbol id="h" overflow="visible">
<path d="m-2.6094-7.1875c-0.078125 0-0.10938 0.046875-0.10938 0.125 0 0.23438 0.03125 0.82812 0.03125 1.0469l-0.03125 1.4062c0 0.078125 0 0.20312 0.20312 0.20312 0.10938 0 0.10938-0.078125 0.10938-0.29688 0 0 0-0.29688 0.015625-0.53125 0.03125-0.26562 0.0625-0.3125 0.1875-0.3125 0.09375 0 0.53125 0.10938 0.90625 0.21875 1.0938 0.28125 1.2031 1.5625 1.2031 1.9219 0 0.95312-0.5625 2-2.0938 2-0.3125 0-1.9531-0.09375-3.25-1.1406-0.67188-0.54688-1.2812-1.5156-1.2812-2.5 0-1.0156 0.76562-1.6094 1.9219-1.6094 0.40625 0 0.40625 0.03125 0.51562 0.03125 0.09375 0 0.09375-0.10938 0.09375-0.14062 0-0.125-0.015625-0.125-0.20312-0.1875l-2.5312-0.625c-0.03125 0-0.10938 0.015625-0.10938 0.10938 0 0.03125 0.015625 0.046875 0.125 0.15625l0.76562 0.6875c-0.14062 0.09375-0.89062 0.54688-0.89062 1.6562 0 2.2344 2.2031 4.4688 4.5156 4.4688 1.5938 0 2.7344-1.1094 2.7344-2.7188 0-0.4375-0.09375-0.89062-0.23438-1.25-0.20312-0.5-0.40625-0.6875-0.60938-0.85938 0.25-0.09375 0.60938-0.35938 0.60938-0.45312 0-0.046875-0.03125-0.078125-0.03125-0.078125-0.015625-0.015625-0.40625-0.10938-0.60938-0.15625l-0.76562-0.1875c-0.17188-0.046875-0.34375-0.09375-0.51562-0.14062-0.4375-0.10938-0.46875-0.10938-0.46875-0.6875 0-0.046875-0.015625-0.15625-0.20312-0.15625z"/>
</symbol>
<symbol id="g" overflow="visible">
<path d="m0-6.25h-0.25c0 0.45312 0 0.51562-0.29688 0.51562h-1.5625c-0.60938 0-0.96875 0.3125-0.96875 1.0469 0 0.5625 0.29688 0.9375 0.65625 1.125-0.5 0.14062-0.65625 0.51562-0.65625 1.0156 0 0.57812 0.3125 0.9375 0.6875 1.1406h-0.6875l0.078125 1.0312h0.25c0-0.46875 0.046875-0.53125 0.39062-0.53125h1.8125c0.29688 0 0.29688 0.078125 0.29688 0.53125h0.25s-0.03125-0.5-0.03125-0.79688c0-0.25 0.03125-0.73438 0.03125-0.79688h-0.25c0 0.45312 0 0.51562-0.29688 0.51562h-1.2656c-0.71875 0-1.0625-0.57812-1.0625-1.0312 0-0.48438 0.375-0.54688 0.73438-0.54688h1.5938c0.29688 0 0.29688 0.0625 0.29688 0.51562h0.25s-0.03125-0.5-0.03125-0.79688c0-0.25 0.03125-0.73438 0.03125-0.79688h-0.25c0 0.45312 0 0.51562-0.29688 0.51562h-1.2656c-0.71875 0-1.0625-0.57812-1.0625-1.0312 0-0.48438 0.375-0.54688 0.73438-0.54688h1.5938c0.29688 0 0.29688 0.0625 0.29688 0.51562h0.25s-0.03125-0.5-0.03125-0.79688c0-0.25 0.03125-0.73438 0.03125-0.79688z"/>
</symbol>
<clipPath id="ag">
<path d="m35.07 1h194.27v161.39h-194.27z"/>
</clipPath>
</defs>
<path transform="matrix(1 0 0 -1 35.069 211.17)" d="m0.0013125 48.779v161.39m97.137-161.39v161.39" fill="none" stroke="#bfbfbf" stroke-miterlimit="10" stroke-width=".3985"/>
<path transform="matrix(1 0 0 -1 35.069 211.17)" d="m0.0013125 48.779h194.27m-194.27 95.223h194.27" fill="none" stroke="#bfbfbf" stroke-miterlimit="10" stroke-width=".3985"/>
<path transform="matrix(1 0 0 -1 35.069 211.17)" d="m0.0013125 48.779v4.25m97.137-4.25v4.25m-97.137 157.14v-4.25m97.137 4.25v-4.25" fill="none" stroke="#7f7f7f" stroke-miterlimit="10" stroke-width=".19925"/>
<path transform="matrix(1 0 0 -1 35.069 211.17)" d="m0.0013125 48.779h4.25m-4.25 95.223h4.25m190.02-95.223h-4.25m4.25 95.223h-4.25" fill="none" stroke="#7f7f7f" stroke-miterlimit="10" stroke-width=".19925"/>
<path transform="matrix(1 0 0 -1 35.069 211.17)" d="m0.0013125 48.779v161.39h194.27v-161.39z" fill="none" stroke="#000" stroke-miterlimit="10" stroke-width=".3985"/>
<g>
<use x="32.579" y="172.189" xlink:href="#af"/>
<use x="129.713" y="172.189" xlink:href="#ae"/>
<use x="26.568" y="165.532" xlink:href="#aa"/>
<use x="16.673" y="69.372" xlink:href="#t"/>
<use x="24.506" y="65.756" xlink:href="#q"/>
<use x="24.506" y="71.834" xlink:href="#p"/>
</g>
<g clip-path="url(#ag)">
<path transform="matrix(1 0 0 -1 35.069 211.17)" d="m0.098969-0.0017812 6.5156 23.246 6.5195 18.031 6.5195 14.727 6.5156 12.445 6.5195 10.781 6.5195 9.5078 6.5195 8.5078 6.5156 7.6914 6.5195 7.0312 6.5195 6.4609 6.5195 5.9844 6.5156 5.5703 6.5195 5.207 6.5195 4.8945 6.5195 4.6133 6.5156 4.3672 6.5195 4.1367 6.5195 3.9414 6.5195 3.75 6.5156 3.5898 6.5195 3.4336 6.5195 3.293 6.5195 3.1602 6.5156 3.0547 6.5195 2.9336 6.5195 2.8281 6.5195 2.7422 6.5156 2.6484 6.5195 2.5586 6.5195 2.4844 6.5195 2.4141 6.5156 2.3359 6.5195 2.2773 6.5195 2.2109 6.5195 2.1484 6.5156 2.0977 6.5195 2.043 6.5195 1.9922 6.5195 1.9453 6.5156 1.8984 6.5195 1.8516 6.5195 1.8164 6.5156 1.7773 6.5195 1.7344 6.5195 1.6992 6.5195 1.6602 6.5156 1.6328 6.5195 1.5938 6.5195 1.5742 6.5195 1.5312 6.5156 1.5117 6.5195 1.4727 6.5195 1.4531 6.5195 1.4375 6.5156 1.3906 6.5195 1.3906 6.5195 1.3633 6.5195 1.332 6.5156 1.3125 6.5195 1.293 6.5195 1.2695 6.5195 1.25 6.5156 1.2344 6.5195 1.2109 6.5195 1.1953 6.5195 1.1797 6.5156 1.1641 6.5195 1.1445 6.5195 1.125 6.5195 1.1133 6.5156 1.0977 6.5195 1.0859 6.5195 1.0664 6.5195 1.0586 6.5156 1.0391 6.5195 1.0273 6.5195 1.0156 6.5195 1.0039 6.5156 0.98828 6.5195 0.97656 6.5195 0.96875 6.5195 0.95312 6.5156 0.94531 6.5195 0.92969 6.5195 0.92578 6.5156 0.91016 6.5195 0.90234 13.039 1.7734 6.5156 0.87109 6.5195 0.86328 6.5195 0.85938 6.5195 0.84375 6.5156 0.83203 13.039 1.6484 6.5195 0.80859 6.5156 0.80469 6.5195 0.79688 6.5195 0.78516 6.5195 0.78125 6.5156 0.76953 6.5195 0.76953 6.5195 0.75781 6.5195 0.74219 6.5156 0.74219 6.5195 0.73828 6.5195 0.73047 6.5156 0.72266 6.5195 0.72656 6.5195 0.70703 13.039 1.3906 6.5156 0.70703 6.5195 0.67578 6.5195 0.67969 6.5156 0.69141 6.5195 0.67188 13.039 1.3203 6.5195 0.65234 6.5156 0.64844 6.5195 0.64453 6.5195 0.63672 6.5156 0.63281 6.5195 0.62891 13.039 1.2422 6.5156 0.61328 6.5195 0.60938 13.039 1.2031 6.5156 0.59766 6.5195 0.59375 13.039 1.1641 6.5156 0.58203 6.5195 0.57031 6.5195 0.57422 6.5195 0.56641 6.5156 0.55859 13.039 1.1172 6.5156 0.55078 6.5195 0.54688 6.5195 0.54297 13.039 1.0781 6.5156 0.53125" fill="none" stroke="#0c6dfd" stroke-miterlimit="10" stroke-width="1.1955"/>
</g>
<g>
<use x="99.38" y="186.501" xlink:href="#z"/>
<use x="106.160546" y="186.501" xlink:href="#y"/>
<use x="110.062896" y="186.501" xlink:href="#x"/>
<use x="114.491272" y="186.501" xlink:href="#f"/>
<use x="118.421517" y="186.501" xlink:href="#f"/>
<use x="122.351763" y="186.501" xlink:href="#w"/>
<use x="127.333063" y="186.501" xlink:href="#v"/>
<use x="132.314363" y="186.501" xlink:href="#u"/>
<use x="138.401" y="186.501" xlink:href="#s"/>
<use x="145.623885" y="186.501" xlink:href="#r"/>
<use x="150.609" y="186.501" xlink:href="#ad"/>
<use x="156.144221" y="186.501" xlink:href="#ac"/>
<use x="161.125521" y="186.501" xlink:href="#ab"/>
<use x="7.896" y="134.217" xlink:href="#o"/>
<use x="7.896" y="127.436454" xlink:href="#k"/>
<use x="7.896" y="121.901234" xlink:href="#e"/>
<use x="7.896" y="117.472858" xlink:href="#a"/>
<use x="7.896" y="113.570508" xlink:href="#j"/>
<use x="7.896" y="108.589208" xlink:href="#d"/>
<use x="7.896" y="105.821597" xlink:href="#c"/>
<use x="7.896" y="97.522752" xlink:href="#b"/>
<use x="7.896" y="94.755141" xlink:href="#d"/>
<use x="7.896" y="91.987531" xlink:href="#i"/>
<use x="7.896" y="86.729271" xlink:href="#a"/>
<use x="7.896" y="82.82692" xlink:href="#e"/>
<use x="7.896" y="75.080999" xlink:href="#n"/>
<use x="7.896" y="66.779164" xlink:href="#m"/>
<use x="7.896" y="61.797864" xlink:href="#b"/>
<use x="7.896" y="59.030254" xlink:href="#c"/>
<use x="7.896" y="54.048954" xlink:href="#a"/>
<use x="7.896" y="50.146604" xlink:href="#l"/>
<use x="7.896" y="44.056" xlink:href="#h"/>
<use x="9.391" y="36.222" xlink:href="#g"/>
</g>
</svg>
