<?xml version="1.0" encoding="UTF-8"?>
<svg width="227pt" height="191pt" version="1.1" viewBox="0 0 227 191" xmlns="http://www.w3.org/2000/svg" xmlns:xlink="http://www.w3.org/1999/xlink">
<defs>
<symbol id="c" overflow="visible">
<path d="m4.1719 0v-0.3125h-0.3125c-0.90625 0-0.92188-0.10938-0.92188-0.46875v-5.5938c0-0.25 0-0.26562-0.23438-0.26562-0.625 0.64062-1.5 0.64062-1.8125 0.64062v0.3125c0.20312 0 0.78125 0 1.2969-0.26562v5.1719c0 0.35938-0.03125 0.46875-0.92188 0.46875h-0.3125v0.3125c0.34375-0.03125 1.2031-0.03125 1.6094-0.03125 0.39062 0 1.2656 0 1.6094 0.03125z"/>
</symbol>
<symbol id="a" overflow="visible">
<path d="m4.4688-2c0-1.1875-0.8125-2.1875-1.8906-2.1875-0.46875 0-0.90625 0.15625-1.2656 0.51562v-1.9531c0.20312 0.0625 0.53125 0.125 0.84375 0.125 1.2344 0 1.9375-0.90625 1.9375-1.0312 0-0.0625-0.03125-0.10938-0.10938-0.10938 0 0-0.03125 0-0.078125 0.03125-0.20312 0.09375-0.6875 0.29688-1.3594 0.29688-0.39062 0-0.85938-0.078125-1.3281-0.28125-0.078125-0.03125-0.10938-0.03125-0.10938-0.03125-0.10938 0-0.10938 0.078125-0.10938 0.23438v2.9531c0 0.17188 0 0.25 0.14062 0.25 0.078125 0 0.09375-0.015625 0.14062-0.078125 0.10938-0.15625 0.46875-0.70312 1.2812-0.70312 0.51562 0 0.76562 0.45312 0.84375 0.64062 0.15625 0.375 0.1875 0.75 0.1875 1.25 0 0.35938 0 0.95312-0.25 1.375-0.23438 0.39062-0.60938 0.64062-1.0625 0.64062-0.71875 0-1.2969-0.53125-1.4688-1.1094 0.03125 0 0.0625 0.015625 0.17188 0.015625 0.32812 0 0.5-0.25 0.5-0.48438 0-0.25-0.17188-0.5-0.5-0.5-0.14062 0-0.48438 0.078125-0.48438 0.53125 0 0.85938 0.6875 1.8281 1.7969 1.8281 1.1562 0 2.1719-0.95312 2.1719-2.2188z"/>
</symbol>
<symbol id="f" overflow="visible">
<path d="m4.4688-1.7344h-0.23438c-0.0625 0.29688-0.125 0.73438-0.23438 0.89062-0.0625 0.078125-0.71875 0.078125-0.9375 0.078125h-1.7969l1.0625-1.0312c1.5469-1.375 2.1406-1.9062 2.1406-2.9062 0-1.1406-0.89062-1.9375-2.1094-1.9375-1.125 0-1.8594 0.92188-1.8594 1.8125 0 0.54688 0.5 0.54688 0.53125 0.54688 0.17188 0 0.51562-0.10938 0.51562-0.53125 0-0.25-0.1875-0.51562-0.53125-0.51562-0.078125 0-0.09375 0-0.125 0.015625 0.21875-0.65625 0.76562-1.0156 1.3438-1.0156 0.90625 0 1.3281 0.8125 1.3281 1.625 0 0.79688-0.48438 1.5781-1.0469 2.2031l-1.9062 2.125c-0.10938 0.10938-0.10938 0.14062-0.10938 0.375h3.7031z"/>
</symbol>
<symbol id="e" overflow="visible">
<path d="m4.5625-1.7031c0-0.8125-0.64062-1.5938-1.6719-1.8125 0.8125-0.26562 1.3906-0.95312 1.3906-1.75 0-0.8125-0.875-1.375-1.8281-1.375-1 0-1.7656 0.59375-1.7656 1.3594 0 0.32812 0.21875 0.51562 0.51562 0.51562s0.5-0.21875 0.5-0.51562c0-0.48438-0.46875-0.48438-0.60938-0.48438 0.29688-0.5 0.95312-0.625 1.3125-0.625 0.42188 0 0.96875 0.21875 0.96875 1.1094 0 0.125-0.03125 0.70312-0.28125 1.1406-0.29688 0.48438-0.64062 0.51562-0.89062 0.51562-0.078125 0.015625-0.3125 0.03125-0.39062 0.03125-0.078125 0.015625-0.14062 0.03125-0.14062 0.125 0 0.10938 0.0625 0.10938 0.23438 0.10938h0.4375c0.8125 0 1.1875 0.67188 1.1875 1.6562 0 1.3594-0.6875 1.6406-1.125 1.6406s-1.1875-0.17188-1.5312-0.75c0.34375 0.046875 0.65625-0.17188 0.65625-0.54688 0-0.35938-0.26562-0.5625-0.54688-0.5625-0.25 0-0.5625 0.14062-0.5625 0.57812 0 0.90625 0.92188 1.5625 2.0156 1.5625 1.2188 0 2.125-0.90625 2.125-1.9219z"/>
</symbol>
<symbol id="t" overflow="visible">
<path d="m4.6875-1.6406v-0.3125h-0.98438v-4.5312c0-0.20312 0-0.26562-0.17188-0.26562-0.078125 0-0.10938 0-0.1875 0.125l-3.0625 4.6719v0.3125h2.6562v0.85938c0 0.35938-0.03125 0.46875-0.76562 0.46875h-0.20312v0.3125c0.40625-0.03125 0.92188-0.03125 1.3438-0.03125s0.9375 0 1.3594 0.03125v-0.3125h-0.21875c-0.73438 0-0.75-0.10938-0.75-0.46875v-0.85938zm-1.7031-0.3125h-2.4219l2.4219-3.7188z"/>
</symbol>
<symbol id="b" overflow="visible">
<path d="m4.5781-3.1875c0-0.79688-0.046875-1.5938-0.39062-2.3281-0.45312-0.96875-1.2812-1.125-1.6875-1.125-0.60938 0-1.3281 0.26562-1.75 1.1875-0.3125 0.6875-0.35938 1.4688-0.35938 2.2656 0 0.75 0.03125 1.6406 0.45312 2.4062 0.42188 0.79688 1.1562 1 1.6406 1 0.53125 0 1.2969-0.20312 1.7344-1.1562 0.3125-0.6875 0.35938-1.4688 0.35938-2.25zm-0.8125-0.125c0 0.75 0 1.4219-0.10938 2.0625-0.15625 0.95312-0.71875 1.25-1.1719 1.25-0.39062 0-0.98438-0.25-1.1562-1.2031-0.10938-0.59375-0.10938-1.5156-0.10938-2.1094 0-0.64062 0-1.2969 0.078125-1.8281 0.1875-1.1875 0.9375-1.2812 1.1875-1.2812 0.32812 0 0.98438 0.1875 1.1719 1.1719 0.10938 0.5625 0.10938 1.3125 0.10938 1.9375z"/>
</symbol>
<symbol id="s" overflow="visible">
<path d="m7.3438 0v-0.3125c-0.54688 0-0.75-0.03125-1.0469-0.46875l-2.3125-3.3906 1.7969-1.7344c0.078125-0.078125 0.60938-0.57812 1.4219-0.59375v-0.3125c-0.26562 0.03125-0.57812 0.03125-0.85938 0.03125-0.35938 0-0.92188 0-1.2656-0.03125v0.3125c0.40625 0.015625 0.46875 0.23438 0.46875 0.32812 0 0.15625-0.10938 0.26562-0.1875 0.32812l-3.1094 2.9844v-3.1719c0-0.35938 0.015625-0.46875 0.78125-0.46875h0.23438v-0.3125c-0.34375 0.03125-1.0781 0.03125-1.4688 0.03125-0.375 0-1.125 0-1.4688-0.03125v0.3125h0.23438c0.76562 0 0.79688 0.10938 0.79688 0.46875v5.25c0 0.35938-0.03125 0.46875-0.79688 0.46875h-0.23438v0.3125c0.34375-0.03125 1.0938-0.03125 1.4688-0.03125s1.125 0 1.4688 0.03125v-0.3125h-0.23438c-0.76562 0-0.78125-0.10938-0.78125-0.46875v-1.7344l1.1562-1.1094 1.7969 2.6719c0.0625 0.09375 0.15625 0.21875 0.15625 0.34375 0 0.29688-0.39062 0.29688-0.59375 0.29688v0.3125c0.34375-0.03125 1.0469-0.03125 1.4219-0.03125z"/>
</symbol>
<symbol id="d" overflow="visible">
<path d="m2.0312-0.015625c0-0.65625-0.25-1.0469-0.64062-1.0469-0.32812 0-0.53125 0.25-0.53125 0.53125 0 0.26562 0.20312 0.53125 0.53125 0.53125 0.10938 0 0.25-0.046875 0.34375-0.125 0.03125-0.03125 0.046875-0.03125 0.046875-0.03125s0.015625 0 0.015625 0.14062c0 0.75-0.34375 1.3438-0.67188 1.6719-0.10938 0.10938-0.10938 0.125-0.10938 0.15625 0 0.078125 0.046875 0.10938 0.09375 0.10938 0.10938 0 0.92188-0.76562 0.92188-1.9375z"/>
</symbol>
<symbol id="r" overflow="visible">
<path d="m7.1875-0.20312c0-0.10938-0.09375-0.10938-0.23438-0.10938-0.60938 0-0.60938-0.0625-0.64062-0.35938l-0.60938-6.2188c-0.015625-0.20312-0.015625-0.25-0.1875-0.25-0.15625 0-0.20312 0.078125-0.26562 0.17188l-3.4688 5.8281c-0.39062 0.65625-0.78125 0.79688-1.2188 0.82812-0.125 0.015625-0.21875 0.015625-0.21875 0.20312 0 0.0625 0.0625 0.10938 0.14062 0.10938 0.26562 0 0.57812-0.03125 0.84375-0.03125 0.34375 0 0.6875 0.03125 1 0.03125 0.0625 0 0.1875 0 0.1875-0.1875 0-0.10938-0.078125-0.125-0.15625-0.125-0.21875-0.015625-0.46875-0.09375-0.46875-0.34375 0-0.125 0.0625-0.23438 0.14062-0.375 0.078125-0.10938 0.078125-0.10938 0.76562-1.2656h2.5c0.015625 0.20312 0.15625 1.5625 0.15625 1.6562 0 0.29688-0.51562 0.32812-0.71875 0.32812-0.14062 0-0.23438 0-0.23438 0.20312 0 0.10938 0.14062 0.10938 0.14062 0.10938 0.40625 0 0.82812-0.03125 1.2344-0.03125 0.25 0 0.89062 0.03125 1.1406 0.03125 0.046875 0 0.17188 0 0.17188-0.20312zm-1.9219-2.4062h-2.2812l1.9531-3.2969z"/>
</symbol>
<symbol id="q" overflow="visible">
<path d="m7-2.1562c0-0.71875-0.57812-1.2969-1.5469-1.4062 1.0312-0.1875 2.0781-0.92188 2.0781-1.875 0-0.73438-0.65625-1.375-1.8438-1.375h-3.3594c-0.1875 0-0.28125 0-0.28125 0.20312 0 0.10938 0.09375 0.10938 0.28125 0.10938 0 0 0.20312 0 0.375 0.015625 0.17188 0.03125 0.26562 0.03125 0.26562 0.17188 0 0.03125-0.015625 0.0625-0.03125 0.1875l-1.3438 5.3438c-0.09375 0.39062-0.125 0.46875-0.90625 0.46875-0.17188 0-0.26562 0-0.26562 0.20312 0 0.10938 0.09375 0.10938 0.26562 0.10938h3.5625c1.5781 0 2.75-1.1719 2.75-2.1562zm-0.375-3.3125c0 0.875-0.85938 1.8125-2.0625 1.8125h-1.4688l0.625-2.4688c0.09375-0.34375 0.10938-0.375 0.53125-0.375h1.2969c0.875 0 1.0781 0.59375 1.0781 1.0312zm-0.54688 3.2031c0 0.98438-0.89062 1.9531-2.0781 1.9531h-1.3438-0.21875c-0.10938-0.015625-0.14062-0.03125-0.14062-0.10938 0-0.03125 0-0.046875 0.0625-0.21875l0.6875-2.7812h1.875c0.95312 0 1.1562 0.73438 1.1562 1.1562z"/>
</symbol>
<symbol id="p" overflow="visible">
<path d="m4.4219-7.2812c0-0.10938-0.078125-0.20312-0.1875-0.20312-0.078125 0-0.14062 0.03125-0.17188 0.09375l-3.4688 9.5c-0.046875 0.14062-0.046875 0.1875-0.046875 0.1875 0 0.10938 0.09375 0.20312 0.20312 0.20312 0.125 0 0.15625-0.078125 0.21875-0.25l3.4062-9.3438c0.046875-0.14062 0.046875-0.1875 0.046875-0.1875z"/>
</symbol>
<symbol id="o" overflow="visible">
<path d="m6.7344-4.7344 0.26562-1.7344c0.015625-0.046875 0.015625-0.14062 0.015625-0.17188 0-0.10938-0.09375-0.10938-0.26562-0.10938h-5.5312c-0.23438 0-0.25 0.015625-0.32812 0.20312l-0.59375 1.75c0 0.015625-0.0625 0.1875-0.0625 0.1875 0 0.046875 0.0625 0.10938 0.125 0.10938 0.09375 0 0.10938-0.0625 0.17188-0.21875 0.53125-1.5469 0.79688-1.7188 2.2656-1.7188h0.39062c0.28125 0 0.28125 0.03125 0.28125 0.125 0 0.046875-0.03125 0.17188-0.046875 0.20312l-1.3281 5.3281c-0.09375 0.35938-0.125 0.46875-1.1875 0.46875-0.35938 0-0.42188 0-0.42188 0.1875 0 0.125 0.10938 0.125 0.17188 0.125 0.26562 0 0.54688-0.015625 0.8125-0.015625l0.85938-0.015625 0.82812 0.015625c0.28125 0 0.57812 0.015625 0.85938 0.015625 0.09375 0 0.21875 0 0.21875-0.20312 0-0.10938-0.078125-0.10938-0.34375-0.10938-0.23438 0-0.375 0-0.625-0.015625-0.29688-0.03125-0.375-0.0625-0.375-0.21875 0 0 0-0.0625 0.046875-0.20312l1.3125-5.2969c0.078125-0.28125 0.10938-0.34375 0.23438-0.375 0.09375-0.015625 0.42188-0.015625 0.625-0.015625 1.0156 0 1.4531 0.03125 1.4531 0.8125 0 0.15625-0.03125 0.54688-0.078125 0.79688 0 0.046875-0.03125 0.15625-0.03125 0.1875 0 0.0625 0.03125 0.14062 0.125 0.14062 0.10938 0 0.125-0.078125 0.15625-0.23438z"/>
</symbol>
<symbol id="n" overflow="visible">
<path d="m0-2.5469h-0.3125c0 0.67188 0 0.78125-0.4375 0.78125h-6.1719l0.10938 1.4375h0.3125c0-0.70312 0.0625-0.78125 0.5625-0.78125h5.1875c0.4375 0 0.4375 0.10938 0.4375 0.78125h0.3125l-0.03125-1.1094z"/>
</symbol>
<symbol id="m" overflow="visible">
<path d="m0-5.3281h-0.3125c0 0.51562 0 0.76562-0.29688 0.76562h-1.9062c-0.85938 0-1.1562 0-1.5156 0.3125-0.17188 0.14062-0.375 0.46875-0.375 1.0469 0 0.73438 0.42188 1.2031 1.0469 1.4844h-1.0469l0.10938 1.4062h0.3125c0-0.70312 0.0625-0.78125 0.5625-0.78125h2.6719c0.4375 0 0.4375 0.10938 0.4375 0.78125h0.3125l-0.03125-1.1406 0.03125-1.1094h-0.3125c0 0.67188 0 0.78125-0.4375 0.78125h-1.8438c-1.0312 0-1.5938-0.71875-1.5938-1.3438 0-0.64062 0.53125-0.75 1.1094-0.75h2.3281c0.4375 0 0.4375 0.10938 0.4375 0.78125h0.3125l-0.03125-1.125z"/>
</symbol>
<symbol id="l" overflow="visible">
<path d="m2.3906-3.2969c-0.03125 0-0.046875 0-0.21875 0.17188-1.25 1.2344-3.1406 1.5625-4.6719 1.5625-1.7344 0-3.4688-0.375-4.7031-1.6094-0.125-0.125-0.14062-0.125-0.17188-0.125-0.078125 0-0.10938 0.03125-0.10938 0.09375 0 0.10938 0.6875 1 1.9531 1.5938 1.0938 0.5 2.2031 0.625 3.0312 0.625 0.78125 0 1.9844-0.10938 3.125-0.65625 1.2188-0.60938 1.875-1.4531 1.875-1.5625 0-0.0625-0.03125-0.09375-0.10938-0.09375z"/>
</symbol>
<symbol id="k" overflow="visible">
<path d="m-4.9531-6.2188c-0.98438 0-1.8594 0.98438-1.8594 2.3438v3.5312h0.3125v-0.25c0-0.76562 0.10938-0.78125 0.46875-0.78125h5.25c0.35938 0 0.46875 0.015625 0.46875 0.78125v0.25h0.3125c-0.03125-0.35938-0.03125-1.0938-0.03125-1.4688s0-1.125 0.03125-1.4844h-0.3125v0.25c0 0.76562-0.10938 0.78125-0.46875 0.78125h-2.375v-1.6875c0-1.1875-0.79688-2.2656-1.7969-2.2656zm0 1.0312c0.46875 0 1.5469 0 1.5469 1.5781v1.375h-2.6875c-0.34375 0-0.40625-0.015625-0.40625-0.48438v-0.89062c0-1.5781 1.0625-1.5781 1.5469-1.5781z"/>
</symbol>
<symbol id="j" overflow="visible">
<path d="m-0.89062-4.8125h-0.5625v0.25h0.5625c0.57812 0 0.64062 0.25 0.64062 0.35938 0 0.32812-0.45312 0.35938-0.5 0.35938h-1.9844c-0.42188 0-0.8125 0-1.1875 0.35938-0.39062 0.39062-0.54688 0.89062-0.54688 1.375 0 0.8125 0.46875 1.5 1.125 1.5 0.29688 0 0.46875-0.20312 0.46875-0.45312 0-0.28125-0.20312-0.46875-0.45312-0.46875-0.125 0-0.45312 0.0625-0.45312 0.51562-0.35938-0.26562-0.46875-0.76562-0.46875-1.0781 0-0.48438 0.39062-1.0625 1.2812-1.0625h0.35938c0.03125 0.51562 0.0625 1.2188 0.35938 1.8438 0.34375 0.75 0.85938 1 1.2969 1 0.8125 0 1.0625-0.96875 1.0625-1.5938 0-0.67188-0.40625-1.125-0.85938-1.3125 0.39062-0.046875 0.8125-0.3125 0.8125-0.78125 0-0.20312-0.14062-0.8125-0.95312-0.8125zm-0.5 1.6562c0.9375 0 1.2812 0.71875 1.2812 1.1719 0 0.48438-0.34375 0.89062-0.84375 0.89062-0.54688 0-1.375-0.40625-1.4375-2.0625z"/>
</symbol>
<symbol id="i" overflow="visible">
<path d="m-2.5-2.875c-0.76562 0-1.9688 0.10938-3.1094 0.65625-1.2188 0.59375-1.875 1.4531-1.875 1.5469 0 0.0625 0.046875 0.10938 0.10938 0.10938 0.03125 0 0.046875 0 0.23438-0.1875 0.98438-0.98438 2.5625-1.5469 4.6406-1.5469 1.7188 0 3.4688 0.35938 4.7188 1.5938 0.125 0.14062 0.14062 0.14062 0.17188 0.14062 0.0625 0 0.10938-0.046875 0.10938-0.10938 0-0.09375-0.6875-1-1.9531-1.5781-1.0938-0.51562-2.2031-0.625-3.0469-0.625z"/>
</symbol>
<symbol id="h" overflow="visible">
<path d="m-5.2969-7.5156c-0.78125 0-1.5156 0.65625-1.5156 1.9688v3.2188c0 0.1875 0 0.29688 0.1875 0.29688 0.125 0 0.125-0.078125 0.125-0.28125 0-0.125 0.015625-0.3125 0.015625-0.42188 0.03125-0.17188 0.046875-0.21875 0.17188-0.21875 0.03125 0 0.0625 0 0.1875 0.03125l5.3438 1.3438c0.39062 0.09375 0.46875 0.10938 0.46875 0.90625 0 0.15625 0 0.26562 0.1875 0.26562 0.125 0 0.125-0.10938 0.125-0.14062l-0.03125-1.2656 0.015625-0.64062c0-0.21875 0.015625-0.4375 0.015625-0.64062 0-0.078125 0-0.20312-0.20312-0.20312-0.10938 0-0.10938 0.09375-0.10938 0.28125 0 0.35938 0 0.64062-0.17188 0.64062-0.0625 0-0.10938-0.015625-0.17188-0.03125l-2.5-0.60938v-1.7031c0-1.4062-1.0312-2.7969-2.1406-2.7969zm-0.25 0.92188c0.39062 0 1.25 0.20312 1.6094 0.59375 0.45312 0.5 0.53125 1.0938 0.53125 1.5312v1.4062l-2.7188-0.67188c-0.34375-0.09375-0.375-0.10938-0.375-0.54688v-0.95312c0-0.82812 0.26562-1.3594 0.95312-1.3594z"/>
</symbol>
<symbol id="g" overflow="visible">
<path d="m-7.2812-4.4219c-0.10938 0-0.20312 0.078125-0.20312 0.1875 0 0.078125 0.03125 0.14062 0.09375 0.17188l9.5 3.4688c0.14062 0.046875 0.1875 0.046875 0.1875 0.046875 0.10938 0 0.20312-0.09375 0.20312-0.20312 0-0.125-0.078125-0.15625-0.25-0.21875l-9.3438-3.4062c-0.14062-0.046875-0.1875-0.046875-0.1875-0.046875z"/>
</symbol>
<clipPath id="u">
<path d="m30.316 1h194.27v161.39h-194.27z"/>
</clipPath>
</defs>
<path transform="matrix(1 0 0 -1 30.318 148.94)" d="m-0.0015938-13.451v161.39m38.855-161.39v161.39m38.855-161.39v161.39m38.855-161.39v161.39m38.855-161.39v161.39m38.852-161.39v161.39" fill="none" stroke="#bfbfbf" stroke-miterlimit="10" stroke-width=".3985"/>
<path transform="matrix(1 0 0 -1 30.318 148.94)" d="m-0.0015938 26.897h194.27m-194.27 44.832h194.27m-194.27 44.832h194.27" fill="none" stroke="#bfbfbf" stroke-miterlimit="10" stroke-width=".3985"/>
<path transform="matrix(1 0 0 -1 30.318 148.94)" d="m-0.0015938-13.451v4.2539m38.855-4.2539v4.2539m38.855-4.2539v4.2539m38.855-4.2539v4.2539m38.855-4.2539v4.2539m38.852-4.2539v4.2539m-194.27 157.14v-4.25m38.855 4.25v-4.25m38.855 4.25v-4.25m38.855 4.25v-4.25m38.855 4.25v-4.25m38.852 4.25v-4.25" fill="none" stroke="#7f7f7f" stroke-miterlimit="10" stroke-width=".19925"/>
<path transform="matrix(1 0 0 -1 30.318 148.94)" d="m-0.0015938 26.897h4.2539m-4.2539 44.832h4.2539m-4.2539 44.832h4.2539m190.02-89.664h-4.25m4.25 44.832h-4.25m4.25 44.832h-4.25" fill="none" stroke="#7f7f7f" stroke-miterlimit="10" stroke-width=".19925"/>
<path transform="matrix(1 0 0 -1 30.318 148.94)" d="m-0.0015938-13.451v161.39h194.27v-161.39z" fill="none" stroke="#000" stroke-miterlimit="10" stroke-width=".3985"/>
<g>
<use x="23.953" y="172.188" xlink:href="#c"/>
<use x="28.934" y="172.188" xlink:href="#d"/>
<use x="31.702" y="172.188" xlink:href="#a"/>
<use x="66.682" y="172.188" xlink:href="#f"/>
<use x="101.662" y="172.188" xlink:href="#f"/>
<use x="106.643" y="172.188" xlink:href="#d"/>
<use x="109.41" y="172.188" xlink:href="#a"/>
<use x="144.39" y="172.188" xlink:href="#e"/>
<use x="179.37" y="172.188" xlink:href="#e"/>
<use x="184.351" y="172.188" xlink:href="#d"/>
<use x="187.119" y="172.188" xlink:href="#a"/>
<use x="222.099" y="172.188" xlink:href="#t"/>
<use x="21.817" y="125.184" xlink:href="#a"/>
<use x="16.836" y="80.352" xlink:href="#c"/>
<use x="21.8173" y="80.352" xlink:href="#b"/>
<use x="16.836" y="35.521" xlink:href="#c"/>
<use x="21.8173" y="35.521" xlink:href="#a"/>
</g>
<g clip-path="url(#u)">
<path transform="matrix(1 0 0 -1 30.318 148.94)" d="m-0.0015938 134.49 5.2187-3.6094 1.3008-0.90234 1.3047-0.90625 2.6094-1.8047 1.3008-0.90234 5.2188-3.6094 1.3008-0.90234 3.9141-2.707 1.3008-0.90234 1.3047-0.90625 3.9141-2.707 1.3008-0.90234 5.2188-3.6094 1.3008-0.90234 3.9141-2.707 1.3008-0.90625 5.2188-3.6094 1.3008-0.90234 3.9141-2.707 1.3008-0.90234 3.9141-2.707 1.3047-0.90625 1.3008-0.90234 3.9141-2.707 1.3008-0.90234 5.2188-3.6094 1.3008-0.90234 2.6094-1.8047 1.3047-0.90625 1.3008-0.90234 5.2188-3.6094 1.3008-0.90234 5.2188-3.6094 1.3008-0.90234 1.3047-0.90625 2.6094-1.8047 1.3008-0.90234 5.2188-3.6094 1.3008-0.90234 3.9141-2.707 1.3008-0.90234 1.3047-0.90625 3.9141-2.707 1.3008-0.90234 5.2188-3.6094 1.3008-0.90234 3.9141-2.707 1.3008-0.90625 5.2188-3.6094 1.3008-0.90234 3.9141-2.707 1.3008-0.90234 3.9141-2.707 1.3047-0.90625 1.3008-0.90234 3.9141-2.707 1.3008-0.90234 5.2188-3.6094 1.3008-0.90234 1.3047-0.90234 1.3047-0.90625 2.6094-1.8047 1.3008-0.90234 3.9141-2.707 1.3008-0.90234 5.2188-3.6094 1.3008-0.90234 1.3047-0.90625 2.6094-1.8047 1.3008-0.90234 5.2188-3.6094 1.3008-0.90234 3.9141-2.707 1.3008-0.90234 1.3047-0.90625 2.6094-1.8047" fill="none" stroke="#0c6dfd" stroke-miterlimit="10" stroke-width="1.1955"/>
</g>
<path transform="matrix(1 0 0 -1 30.318 148.94)" d="m38.854 107.6 116.57-80.699" fill="none" stroke="#0c6dfd" stroke-miterlimit="10" stroke-width="1.1955"/>
<g>
<use x="72.692" y="37.831" xlink:href="#r"/>
<use x="189.255" y="118.527" xlink:href="#q"/>
</g>
<path transform="matrix(1 0 0 -1 30.318 148.94)" d="m40.846 107.6c0 1.0977-0.89062 1.9922-1.9922 1.9922-1.1016 0-1.9922-0.89453-1.9922-1.9922 0-1.1016 0.89062-1.9922 1.9922-1.9922 1.1016 0 1.9922 0.89062 1.9922 1.9922z" fill="#fff" stroke="#0c6dfd" stroke-miterlimit="10" stroke-width="1.1955"/>
<path transform="matrix(1 0 0 -1 30.318 148.94)" d="m157.41 26.897c0 1.1016-0.89453 1.9922-1.9922 1.9922-1.1016 0-1.9922-0.89062-1.9922-1.9922 0-1.1016 0.89062-1.9922 1.9922-1.9922 1.0977 0 1.9922 0.89062 1.9922 1.9922z" fill="#fff" stroke="#0c6dfd" stroke-miterlimit="10" stroke-width="1.1955"/>
<g>
<use x="106.693" y="188.437" xlink:href="#c"/>
<use x="111.6743" y="188.437" xlink:href="#b"/>
<use x="116.6556" y="188.437" xlink:href="#b"/>
<use x="121.6369" y="188.437" xlink:href="#b"/>
<use x="128.281954" y="188.437" xlink:href="#s"/>
<use x="136.028" y="188.437" xlink:href="#p"/>
<use x="141.0093" y="188.437" xlink:href="#o"/>
<use x="7.505" y="101.659" xlink:href="#n"/>
<use x="7.505" y="98.89139" xlink:href="#m"/>
<use x="7.505" y="93.286431" xlink:href="#l"/>
<use x="7.505" y="89.411" xlink:href="#h"/>
<use x="7.505" y="82.188115" xlink:href="#g"/>
<use x="7.505" y="77.203" xlink:href="#k"/>
<use x="7.505" y="70.701407" xlink:href="#j"/>
<use x="7.505" y="65.610519" xlink:href="#i"/>
</g>
</svg>
