<?xml version="1.0" encoding="UTF-8"?>
<svg width="266pt" height="37pt" version="1.1" viewBox="0 0 266 37" xmlns="http://www.w3.org/2000/svg" xmlns:xlink="http://www.w3.org/1999/xlink">
<defs>
<symbol id="a" overflow="visible">
<path d="m6.1094 0v-6.9219h-0.89062v3.0312h-3.3906v-3.0312h-0.89062v6.9219h0.89062v-3.2969h3.3906v3.2969z"/>
</symbol>
<symbol id="b" overflow="visible">
<path d="m6.7656-3.4375c0-2.0938-1.4375-3.7031-3.0938-3.7031-1.7031 0-3.1094 1.625-3.1094 3.7031 0 2.1094 1.4688 3.6562 3.0938 3.6562 1.6719 0 3.1094-1.5625 3.1094-3.6562zm-0.89062-0.15625c0 1.9531-1.0625 3.1719-2.2031 3.1719-1.1719 0-2.2188-1.25-2.2188-3.1719 0-1.8125 1.0938-2.9062 2.2031-2.9062 1.1562 0 2.2188 1.125 2.2188 2.9062z"/>
</symbol>
<symbol id="c" overflow="visible">
<path d="m7.1875-2.5c0-0.1875-0.1875-0.1875-0.32812-0.1875h-2.7812v-2.7969c0-0.14062 0-0.32812-0.20312-0.32812s-0.20312 0.1875-0.20312 0.32812v2.7969h-2.7812c-0.14062 0-0.32812 0-0.32812 0.1875 0 0.20312 0.1875 0.20312 0.32812 0.20312h2.7812v2.7969c0 0.14062 0 0.32812 0.20312 0.32812s0.20312-0.1875 0.20312-0.32812v-2.7969h2.7812c0.14062 0 0.32812 0 0.32812-0.20312z"/>
</symbol>
<symbol id="e" overflow="visible">
<path d="m5.6094-1.7344c0-0.1875-0.15625-0.1875-0.25-0.1875h-2.1406v-2.1406c0-0.078125 0-0.25-0.15625-0.25-0.17188 0-0.17188 0.15625-0.17188 0.25v2.1406h-2.1406c-0.09375 0-0.26562 0-0.26562 0.17188s0.15625 0.17188 0.26562 0.17188h2.1406v2.1406c0 0.09375 0 0.26562 0.15625 0.26562 0.17188 0 0.17188-0.17188 0.17188-0.26562v-2.1406h2.1406c0.09375 0 0.25 0 0.25-0.15625z"/>
</symbol>
<symbol id="d" overflow="visible">
<path d="m5.4688-1.7344c0-0.1875-0.17188-0.1875-0.26562-0.1875h-4.1875c-0.10938 0-0.26562 0-0.26562 0.1875 0 0.15625 0.17188 0.15625 0.26562 0.15625h4.1875c0.09375 0 0.26562 0 0.26562-0.15625z"/>
</symbol>
</defs>
<g>
<use x="-0.194" y="28.598" xlink:href="#a"/>
<use x="19.284" y="17.272" xlink:href="#b"/>
</g>
<path transform="matrix(1,0,0,-1,27.903,8.86)" d="m0.60091-0.60094c-0.25-0.25391-0.25-0.66016 0-0.91016 0.25391-0.25 0.66016-0.25 0.91016 0s0.25 0.65625 0 0.91016c-0.25 0.25-0.65625 0.25-0.91016 0zm-2.1133 2.1133c-0.25-0.25-0.25-0.66016 0-0.91016 0.25391-0.25 0.66016-0.25 0.91016 0s0.25 0.66016 0 0.91016-0.65625 0.25-0.91016 0z" stroke="#000" stroke-miterlimit="10" stroke-width=".3985"/>
<path transform="matrix(1,0,0,-1,17.997,8.86)" d="m0.60066 0.60219c0.25391-0.25 0.66016-0.25 0.91016 0 0.25391 0.25 0.25391 0.66016 0 0.91016-0.25 0.25-0.65625 0.25-0.91016 0-0.25-0.25-0.25-0.66016 0-0.91016zm-2.1133-2.1133c0.25391-0.25 0.66016-0.25 0.91016 0s0.25 0.65625 0 0.91016c-0.25 0.25-0.65625 0.25-0.91016 0-0.25-0.25391-0.25-0.66016 0-0.91016z" stroke="#000" stroke-miterlimit="10" stroke-width=".3985"/>
<path transform="matrix(1,0,0,-1,3.334,28.598)" d="m4.9082 6.2933 9.6602 5.5781" fill="none" stroke="#000" stroke-linecap="round" stroke-miterlimit="10" stroke-width=".59758"/>
<g>
<use x="39.038" y="28.598" xlink:href="#a"/>
</g>
<path transform="matrix(1,0,0,-1,3.334,28.598)" d="m24.662 11.871 9.6641-5.5781" fill="none" stroke="#000" stroke-linecap="round" stroke-miterlimit="10" stroke-width=".59758"/>
<g>
<use x="58.05" y="21.966" xlink:href="#c"/>
</g>
<g fill="#dc3445">
<use x="77.754" y="28.598" xlink:href="#a"/>
</g>
<g>
<use x="97.232" y="17.272" xlink:href="#b"/>
</g>
<path transform="matrix(1 0 0 -1 105.85 8.86)" d="m0.60212-0.60094c-0.25-0.25391-0.25-0.66016 0-0.91016s0.66016-0.25 0.91016 0 0.25 0.65625 0 0.91016c-0.25 0.25-0.66016 0.25-0.91016 0zm-2.1133 2.1133c-0.25-0.25-0.25-0.66016 0-0.91016s0.65625-0.25 0.91016 0c0.25 0.25 0.25 0.66016 0 0.91016-0.25391 0.25-0.66016 0.25-0.91016 0z" stroke="#000" stroke-miterlimit="10" stroke-width=".3985"/>
<path transform="matrix(1,0,0,-1,95.945,8.86)" d="m0.60188 0.60219c0.25-0.25 0.66016-0.25 0.91016 0s0.25 0.66016 0 0.91016-0.66016 0.25-0.91016 0-0.25-0.66016 0-0.91016zm-2.1133-2.1133c0.25-0.25 0.66016-0.25 0.91016 0s0.25 0.65625 0 0.91016c-0.25 0.25-0.66016 0.25-0.91016 0-0.25-0.25391-0.25-0.66016 0-0.91016z" stroke="#000" stroke-miterlimit="10" stroke-width=".3985"/>
<path transform="matrix(1,0,0,-1,81.282,28.598)" d="m4.9094 6.2933 9.6602 5.5781" fill="none" stroke="#000" stroke-linecap="round" stroke-miterlimit="10" stroke-width=".59758"/>
<g>
<use x="116.986" y="28.598" xlink:href="#a"/>
</g>
<path transform="matrix(1,0,0,-1,81.282,28.598)" d="m24.663 11.871 9.6602-5.5781" fill="none" stroke="#000" stroke-linecap="round" stroke-miterlimit="10" stroke-width=".59758"/>
<path transform="matrix(1 0 0 -1 -.194 28.598)" d="m134.2 9.1214h27.953" fill="none" stroke="#000" stroke-miterlimit="10" stroke-width=".3985"/>
<path transform="matrix(1 0 0 -1 159.25 19.476)" d="m4.4438-7.225e-4 -3.2812 1.3164 1.6484-1.3164-1.6484-1.3164z" stroke="#000" stroke-linejoin="round" stroke-miterlimit="10" stroke-width=".3985"/>
<g fill="#dc3445">
<use x="173.856" y="24.591" xlink:href="#a"/>
</g>
<g>
<use x="193.334" y="13.265" xlink:href="#b"/>
</g>
<path transform="matrix(1,0,0,-1,197,2.86)" d="m0.85156 6.25e-4c0-0.35547 0.28906-0.64453 0.64453-0.64453 0.35547 0 0.64062 0.28906 0.64062 0.64453s-0.28516 0.64453-0.64062 0.64453c-0.35547 0-0.64453-0.28906-0.64453-0.64453zm-2.9883 0c0-0.35547 0.28516-0.64453 0.64062-0.64453 0.35547 0 0.64453 0.28906 0.64453 0.64453s-0.28906 0.64453-0.64453 0.64453c-0.35547 0-0.64062-0.28906-0.64062-0.64453z" stroke="#000" stroke-miterlimit="10" stroke-width=".3985"/>
<g>
<use x="202.156" y="4.657" xlink:href="#e"/>
</g>
<path transform="matrix(1 0 0 -1 177.38 24.591)" d="m4.909 6.2941 9.6602 5.5781" fill="none" stroke="#000" stroke-linecap="round" stroke-miterlimit="10" stroke-width=".59758"/>
<g>
<use x="182.306" y="32.605" xlink:href="#a"/>
</g>
<path transform="matrix(1 0 0 -1 177.38 24.591)" d="m16.823 9.9465-5.5781-9.6602" fill="none" stroke="#000" stroke-linecap="round" stroke-miterlimit="10" stroke-width=".59758"/>
<g>
<use x="213.088" y="24.591" xlink:href="#a"/>
</g>
<path transform="matrix(1 0 0 -1 177.38 24.591)" d="m24.663 11.872 9.6602-5.5781" fill="none" stroke="#000" stroke-linecap="round" stroke-miterlimit="10" stroke-width=".59758"/>
<g>
<use x="227.118" y="21.966" xlink:href="#c"/>
<use x="251.804" y="22.935" xlink:href="#b"/>
</g>
<path transform="matrix(1 0 0 -1 255.47 25.924)" d="m-0.84991-0.0017812c0 0.35547-0.28906 0.64453-0.64453 0.64453-0.35547 0-0.64453-0.28906-0.64453-0.64453 0-0.35547 0.28906-0.64062 0.64453-0.64062 0.35547 0 0.64453 0.28516 0.64453 0.64062zm2.9883 0c0 0.35547-0.28906 0.64453-0.64453 0.64453-0.35547 0-0.64453-0.28906-0.64453-0.64453 0-0.35547 0.28906-0.64062 0.64453-0.64062 0.35547 0 0.64453 0.28516 0.64453 0.64062z" stroke="#000" stroke-miterlimit="10" stroke-width=".3985"/>
<path transform="matrix(1 0 0 -1 255.47 13.028)" d="m0.84931 6.5625e-4c0-0.35547 0.28906-0.64453 0.64453-0.64453 0.35547 0 0.64453 0.28906 0.64453 0.64453 0 0.35547-0.28906 0.64453-0.64453 0.64453-0.35547 0-0.64453-0.28906-0.64453-0.64453zm-2.9883 0c0-0.35547 0.28906-0.64453 0.64453-0.64453 0.35547 0 0.64453 0.28906 0.64453 0.64453 0 0.35547-0.28906 0.64453-0.64453 0.64453-0.35547 0-0.64453-0.28906-0.64453-0.64453z" stroke="#000" stroke-miterlimit="10" stroke-width=".3985"/>
<path transform="matrix(1 0 0 -1 248.82 19.476)" d="m0.0014062 0.851c0.35547 0 0.64062 0.28906 0.64062 0.64453 0 0.35547-0.28516 0.64062-0.64062 0.64062-0.35547 0-0.64453-0.28516-0.64453-0.64062 0-0.35547 0.28906-0.64453 0.64453-0.64453zm0-2.9883c0.35547 0 0.64062 0.28906 0.64062 0.64453s-0.28516 0.64062-0.64062 0.64062c-0.35547 0-0.64453-0.28516-0.64453-0.64062s0.28906-0.64453 0.64453-0.64453z" stroke="#000" stroke-miterlimit="10" stroke-width=".3985"/>
<g>
<use x="244.144" y="14.327" xlink:href="#d"/>
<use x="259.138" y="22.935" xlink:href="#a"/>
</g>
<path transform="matrix(1 0 0 -1 266.19 28.598)" d="m-232.68 20.887c13.98 8.0703 33.59 7.1211 43.195-9.5156" fill="none" stroke="#188653" stroke-miterlimit="10" stroke-width=".59776"/>
<path transform="matrix(.5 .86601 .86601 -.5 75.053 14.352)" d="m5.1735 0.0013333-3.4282 1.3749 1.7217-1.3774-1.7223-1.3737z" fill="#188653" stroke="#188653" stroke-linejoin="round" stroke-miterlimit="10" stroke-width=".59776"/>
<path transform="matrix(1 0 0 -1 266.19 28.598)" d="m-181.42-2.5895c5.0156-8.6797 16.125-5.3047 16.125 8.7734" fill="none" stroke="#188653" stroke-miterlimit="10" stroke-width=".59776"/>
<path transform="matrix(0 -1 -1 0 100.9 25.733)" d="m5.1743 0.0016188-3.4297 1.375 1.7227-1.375-1.7227-1.3789z" fill="#188653" stroke="#188653" stroke-linejoin="round" stroke-miterlimit="10" stroke-width=".59776"/>
</svg>
