<?xml version="1.0" encoding="UTF-8"?>
<svg width="265pt" height="49pt" version="1.1" viewBox="0 0 265 49" xmlns="http://www.w3.org/2000/svg" xmlns:xlink="http://www.w3.org/1999/xlink">
<defs>
<symbol id="a" overflow="visible">
<path d="m6.1094 0v-6.9219h-0.89062v3.0312h-3.3906v-3.0312h-0.89062v6.9219h0.89062v-3.2969h3.3906v3.2969z"/>
</symbol>
<symbol id="d" overflow="visible">
<path d="m6.0938 0v-6.9219h-0.78125v6.2188h-0.015625l-0.65625-1.375-2.4531-4.8438h-1.2344v6.9219h0.78125v-6.2031h0.015625l0.65625 1.3594 2.4531 4.8438z"/>
</symbol>
<symbol id="c" overflow="visible">
<path d="m6.7656-3.4375c0-2.0938-1.4375-3.7031-3.0938-3.7031-1.7031 0-3.1094 1.625-3.1094 3.7031 0 2.1094 1.4688 3.6562 3.0938 3.6562 1.6719 0 3.1094-1.5625 3.1094-3.6562zm-0.89062-0.15625c0 1.9531-1.0625 3.1719-2.2031 3.1719-1.1719 0-2.2188-1.25-2.2188-3.1719 0-1.8125 1.0938-2.9062 2.2031-2.9062 1.1562 0 2.2188 1.125 2.2188 2.9062z"/>
</symbol>
<symbol id="b" overflow="visible">
<path d="m7.1875-2.5c0-0.1875-0.1875-0.1875-0.32812-0.1875h-2.7812v-2.7969c0-0.14062 0-0.32812-0.20312-0.32812s-0.20312 0.1875-0.20312 0.32812v2.7969h-2.7812c-0.14062 0-0.32812 0-0.32812 0.1875 0 0.20312 0.1875 0.20312 0.32812 0.20312h2.7812v2.7969c0 0.14062 0 0.32812 0.20312 0.32812s0.20312-0.1875 0.20312-0.32812v-2.7969h2.7812c0.14062 0 0.32812 0 0.32812-0.20312z"/>
</symbol>
<symbol id="f" overflow="visible">
<path d="m5.6094-1.7344c0-0.1875-0.15625-0.1875-0.25-0.1875h-2.1406v-2.1406c0-0.078125 0-0.25-0.15625-0.25-0.17188 0-0.17188 0.15625-0.17188 0.25v2.1406h-2.1406c-0.09375 0-0.26562 0-0.26562 0.17188s0.15625 0.17188 0.26562 0.17188h2.1406v2.1406c0 0.09375 0 0.26562 0.15625 0.26562 0.17188 0 0.17188-0.17188 0.17188-0.26562v-2.1406h2.1406c0.09375 0 0.25 0 0.25-0.15625z"/>
</symbol>
<symbol id="e" overflow="visible">
<path d="m5.4688-1.7344c0-0.1875-0.17188-0.1875-0.26562-0.1875h-4.1875c-0.10938 0-0.26562 0-0.26562 0.1875 0 0.15625 0.17188 0.15625 0.26562 0.15625h4.1875c0.09375 0 0.26562 0 0.26562-0.15625z"/>
</symbol>
</defs>
<g>
<use x="-0.293" y="29.597" xlink:href="#a"/>
<use x="19.184" y="18.351" xlink:href="#d"/>
</g>
<path transform="matrix(1,0,0,-1,22.713,7.946)" d="m0.8495 6.875e-4c0-0.35547 0.28906-0.64453 0.64453-0.64453 0.35547 0 0.64453 0.28906 0.64453 0.64453s-0.28906 0.64453-0.64453 0.64453c-0.35547 0-0.64453-0.28906-0.64453-0.64453zm-2.9883 0c0-0.35547 0.28906-0.64453 0.64453-0.64453s0.64453 0.28906 0.64453 0.64453-0.28906 0.64453-0.64453 0.64453-0.64453-0.28906-0.64453-0.64453z" stroke="#000" stroke-miterlimit="10" stroke-width=".3985"/>
<path transform="matrix(1,0,0,-1,3.235,29.597)" d="m4.9095 6.2923 9.6602 5.5781" fill="none" stroke="#000" stroke-linecap="round" stroke-miterlimit="10" stroke-width=".59758"/>
<g>
<use x="8.018" y="37.691" xlink:href="#a"/>
</g>
<path transform="matrix(1,0,0,-1,3.235,29.597)" d="m16.683 9.8665-5.5781-9.6602" fill="none" stroke="#000" stroke-linecap="round" stroke-miterlimit="10" stroke-width=".59758"/>
<g>
<use x="38.662" y="29.597" xlink:href="#a"/>
</g>
<path transform="matrix(1,0,0,-1,3.235,29.597)" d="m24.386 11.87 9.6602-5.5781" fill="none" stroke="#000" stroke-linecap="round" stroke-miterlimit="10" stroke-width=".59758"/>
<g>
<use x="57.674" y="27.052" xlink:href="#b"/>
</g>
<g fill="#dc3445">
<use x="77.378" y="33.684" xlink:href="#a"/>
</g>
<g>
<use x="96.856" y="22.358" xlink:href="#c"/>
</g>
<path transform="matrix(1 0 0 -1 105.48 13.946)" d="m0.60312-0.60088c-0.25391-0.25391-0.25391-0.66016 0-0.91016 0.25-0.25 0.65625-0.25 0.91016 0 0.25 0.25 0.25 0.65625 0 0.91016-0.25391 0.25-0.66016 0.25-0.91016 0zm-2.1133 2.1133c-0.25391-0.25391-0.25391-0.66016 0-0.91016 0.25-0.25 0.65625-0.25 0.91016 0 0.25 0.25 0.25 0.65625 0 0.91016-0.25391 0.25-0.66016 0.25-0.91016 0z" stroke="#000" stroke-miterlimit="10" stroke-width=".3985"/>
<path transform="matrix(1,0,0,-1,95.569,13.946)" d="m0.60288 0.60225c0.25-0.25 0.65625-0.25 0.91016 0 0.25 0.25 0.25 0.65625 0 0.91016-0.25391 0.25-0.66016 0.25-0.91016 0-0.25391-0.25391-0.25391-0.66016 0-0.91016zm-2.1133-2.1133c0.25-0.25 0.65625-0.25 0.91016 0 0.25 0.25 0.25 0.65625 0 0.91016-0.25391 0.25-0.66016 0.25-0.91016 0-0.25391-0.25391-0.25391-0.66016 0-0.91016z" stroke="#000" stroke-miterlimit="10" stroke-width=".3985"/>
<path transform="matrix(1,0,0,-1,80.906,33.684)" d="m4.9065 6.2934 9.6641 5.5781" fill="none" stroke="#000" stroke-linecap="round" stroke-miterlimit="10" stroke-width=".59758"/>
<g>
<use x="116.61" y="33.684" xlink:href="#a"/>
</g>
<path transform="matrix(1,0,0,-1,80.906,33.684)" d="m24.664 11.872 9.6602-5.5781" fill="none" stroke="#000" stroke-linecap="round" stroke-miterlimit="10" stroke-width=".59758"/>
<path transform="matrix(1 0 0 -1 -.293 29.597)" d="m133.93 5.0345h27.953" fill="none" stroke="#000" stroke-miterlimit="10" stroke-width=".3985"/>
<path transform="matrix(1 0 0 -1 158.88 24.562)" d="m4.4448-5.8e-4 -3.2812 1.3164 1.6445-1.3164-1.6445-1.3164z" stroke="#000" stroke-linejoin="round" stroke-miterlimit="10" stroke-width=".3985"/>
<g>
<use x="173.48" y="40.228" xlink:href="#a"/>
<use x="192.958" y="28.982" xlink:href="#d"/>
<use x="199.085" y="21.609" xlink:href="#f"/>
</g>
<path transform="matrix(1 0 0 -1 177.01 40.228)" d="m4.91 6.2944 9.6602 5.5781" fill="none" stroke="#000" stroke-linecap="round" stroke-miterlimit="10" stroke-width=".59758"/>
<g fill="#dc3445">
<use x="192.958" y="7.721" xlink:href="#a"/>
</g>
<path transform="matrix(1 0 0 -1 177.01 40.228)" d="m19.476 19.759v11.156" fill="none" stroke="#000" stroke-linecap="round" stroke-miterlimit="10" stroke-width=".59758"/>
<g>
<use x="181.792" y="48.322" xlink:href="#a"/>
</g>
<path transform="matrix(1 0 0 -1 177.01 40.228)" d="m16.683 9.8647-5.5781-9.6602" fill="none" stroke="#000" stroke-linecap="round" stroke-miterlimit="10" stroke-width=".59758"/>
<g>
<use x="212.435" y="40.228" xlink:href="#a"/>
</g>
<path transform="matrix(1 0 0 -1 177.01 40.228)" d="m24.387 11.873 9.6602-5.5781" fill="none" stroke="#000" stroke-linecap="round" stroke-miterlimit="10" stroke-width=".59758"/>
<g>
<use x="226.465" y="27.053" xlink:href="#b"/>
<use x="251.151" y="28.021" xlink:href="#c"/>
</g>
<path transform="matrix(1 0 0 -1 254.82 31.01)" d="m-0.84925-0.0017188c0 0.35547-0.28906 0.64453-0.64453 0.64453s-0.64453-0.28906-0.64453-0.64453c0-0.35547 0.28906-0.64063 0.64453-0.64063s0.64453 0.28516 0.64453 0.64063zm2.9883 0c0 0.35547-0.28906 0.64453-0.64453 0.64453s-0.64453-0.28906-0.64453-0.64453c0-0.35547 0.28906-0.64063 0.64453-0.64063s0.64453 0.28516 0.64453 0.64063z" stroke="#000" stroke-miterlimit="10" stroke-width=".3985"/>
<path transform="matrix(1 0 0 -1 254.82 18.114)" d="m0.84997 7.1875e-4c0-0.35547 0.28906-0.64453 0.64453-0.64453s0.64453 0.28906 0.64453 0.64453c0 0.35547-0.28906 0.64453-0.64453 0.64453s-0.64453-0.28906-0.64453-0.64453zm-2.9883 0c0-0.35547 0.28906-0.64453 0.64453-0.64453s0.64453 0.28906 0.64453 0.64453c0 0.35547-0.28906 0.64453-0.64453 0.64453s-0.64453-0.28906-0.64453-0.64453z" stroke="#000" stroke-miterlimit="10" stroke-width=".3985"/>
<path transform="matrix(1 0 0 -1 248.16 24.562)" d="m-0.0018438 0.85106c0.35547 0 0.64453 0.28906 0.64453 0.64453 0 0.35547-0.28906 0.64062-0.64453 0.64062-0.35156 0-0.64063-0.28516-0.64063-0.64062 0-0.35547 0.28906-0.64453 0.64063-0.64453zm0-2.9883c0.35547 0 0.64453 0.28906 0.64453 0.64453 0 0.35547-0.28906 0.64062-0.64453 0.64062-0.35156 0-0.64063-0.28516-0.64063-0.64062 0-0.35547 0.28906-0.64453 0.64063-0.64453z" stroke="#000" stroke-miterlimit="10" stroke-width=".3985"/>
<g>
<use x="243.491" y="19.413" xlink:href="#e"/>
<use x="258.485" y="28.021" xlink:href="#a"/>
</g>
<path transform="matrix(1 0 0 -1 265.54 29.597)" d="m-236.71 18.238c18.43 10.641 37.902 5.6836 47.508-10.953" fill="none" stroke="#188653" stroke-miterlimit="10" stroke-width=".59776"/>
<path transform="matrix(.5 .86601 .86601 -.5 74.677 19.438)" d="m5.172-0.00109-3.4282 1.3749 1.7236-1.374-1.7243-1.3771z" fill="#188653" stroke="#188653" stroke-linejoin="round" stroke-miterlimit="10" stroke-width=".59776"/>
<path transform="matrix(1 0 0 -1 265.54 29.597)" d="m-181.15-6.6764c5.0117-8.6797 16.125-5.3047 16.125 8.7734" fill="none" stroke="#188653" stroke-miterlimit="10" stroke-width=".59776"/>
<path transform="matrix(0 -1 -1 0 100.52 30.819)" d="m5.1745 5.9875e-4 -3.4297 1.375 1.7227-1.375-1.7227-1.375z" fill="#188653" stroke="#188653" stroke-linejoin="round" stroke-miterlimit="10" stroke-width=".59776"/>
</svg>
