<?xml version="1.0" encoding="UTF-8"?>
<svg width="230pt" height="58pt" version="1.1" viewBox="0 0 230 58" xmlns="http://www.w3.org/2000/svg" xmlns:xlink="http://www.w3.org/1999/xlink">
<defs>
<symbol id="a" overflow="visible">
<path d="m6.7656-3.4375c0-2.0938-1.4375-3.7031-3.0938-3.7031-1.7031 0-3.1094 1.625-3.1094 3.7031 0 2.1094 1.4688 3.6562 3.0938 3.6562 1.6719 0 3.1094-1.5625 3.1094-3.6562zm-0.89062-0.15625c0 1.9531-1.0625 3.1719-2.2031 3.1719-1.1719 0-2.2188-1.25-2.2188-3.1719 0-1.8125 1.0938-2.9062 2.2031-2.9062 1.1562 0 2.2188 1.125 2.2188 2.9062z"/>
</symbol>
<symbol id="c" overflow="visible">
<path d="m5.8594-0.45312-0.0625-0.6875c-0.29688 0.20312-0.57812 0.39062-0.92188 0.5-0.3125 0.10938-0.67188 0.10938-1 0.10938-0.65625 0-1.25-0.34375-1.6562-0.85938-0.45312-0.57812-0.67188-1.3281-0.67188-2.0625 0-0.75 0.21875-1.5 0.67188-2.0938 0.40625-0.5 1-0.85938 1.6562-0.85938 0.29688 0 0.59375 0.03125 0.89062 0.125s0.57812 0.23438 0.84375 0.42188l0.125-0.8125c-0.29688-0.125-0.59375-0.21875-0.92188-0.28125-0.3125-0.0625-0.625-0.078125-0.9375-0.078125-0.89062 0-1.6875 0.39062-2.2812 1.0469-0.60938 0.6875-0.9375 1.5938-0.9375 2.5312 0 0.92188 0.32812 1.8281 0.9375 2.5156 0.59375 0.64062 1.3906 1.0469 2.2812 1.0469 0.34375 0 0.6875-0.015625 1.0312-0.10938s0.64062-0.26562 0.95312-0.45312z"/>
</symbol>
<symbol id="b" overflow="visible">
<path d="m6.1094 0v-6.9219h-0.89062v3.0312h-3.3906v-3.0312h-0.89062v6.9219h0.89062v-3.2969h3.3906v3.2969z"/>
</symbol>
<symbol id="d" overflow="visible">
<path d="m7.1875-2.5c0-0.1875-0.1875-0.1875-0.32812-0.1875h-2.7812v-2.7969c0-0.14062 0-0.32812-0.20312-0.32812s-0.20312 0.1875-0.20312 0.32812v2.7969h-2.7812c-0.14062 0-0.32812 0-0.32812 0.1875 0 0.20312 0.1875 0.20312 0.32812 0.20312h2.7812v2.7969c0 0.14062 0 0.32812 0.20312 0.32812s0.20312-0.1875 0.20312-0.32812v-2.7969h2.7812c0.14062 0 0.32812 0 0.32812-0.20312z"/>
</symbol>
</defs>
<g>
<use x="10.976" y="53.243" xlink:href="#a"/>
</g>
<path transform="matrix(1,0,0,-1,19.596,54.736)" d="m-0.59991-0.59994c-0.25391 0.25-0.66016 0.25-0.91016 0-0.25391-0.25391-0.25391-0.66016 0-0.91016 0.25-0.25391 0.65625-0.25391 0.91016 0 0.25 0.25 0.25 0.65625 0 0.91016zm2.1133 2.1133c-0.25391 0.25-0.66016 0.25-0.91016 0-0.25391-0.25391-0.25391-0.66016 0-0.91016 0.25-0.25391 0.65625-0.25391 0.91016 0 0.25 0.25 0.25 0.65625 0 0.91016z" stroke="#000" stroke-miterlimit="10" stroke-width=".3985"/>
<path transform="matrix(1,0,0,-1,9.69,54.736)" d="m-0.60016 0.60319c0.25 0.25 0.25 0.65625 0 0.91016-0.25391 0.25-0.66016 0.25-0.91016 0-0.25391-0.25391-0.25391-0.66016 0-0.91016 0.25-0.25391 0.65625-0.25391 0.91016 0zm2.1133-2.1133c0.25 0.25 0.25 0.65625 0 0.91016-0.25391 0.25-0.66016 0.25-0.91016 0-0.25391-0.25391-0.25391-0.66016 0-0.91016 0.25-0.25391 0.65625-0.25391 0.91016 0z" stroke="#000" stroke-miterlimit="10" stroke-width=".3985"/>
<g>
<use x="11.46" y="31.982" xlink:href="#c"/>
</g>
<path transform="matrix(1,0,0,-1,14.643,53.243)" d="m-1.2446 8.5125v11.156" fill="none" stroke="#000" stroke-linecap="round" stroke-miterlimit="10" stroke-width=".59758"/>
<path transform="matrix(1,0,0,-1,14.643,53.243)" d="m1.2437 8.5125v11.156" fill="none" stroke="#000" stroke-linecap="round" stroke-miterlimit="10" stroke-width=".59758"/>
<g>
<use x="10.976" y="10.721" xlink:href="#a"/>
</g>
<path transform="matrix(1,0,0,-1,19.596,2.308)" d="m0.60322-0.60216c-0.25391-0.25-0.25391-0.66016 0-0.91016 0.25-0.25 0.65625-0.25 0.91016 0 0.25 0.25 0.25 0.66016 0 0.91016-0.25391 0.25-0.66016 0.25-0.91016 0zm-2.1133 2.1133c-0.25391-0.25-0.25391-0.65625 0-0.91016 0.25-0.25 0.65625-0.25 0.91016 0 0.25 0.25391 0.25 0.66016 0 0.91016-0.25391 0.25-0.66016 0.25-0.91016 0z" stroke="#000" stroke-miterlimit="10" stroke-width=".3985"/>
<path transform="matrix(1,0,0,-1,9.69,2.308)" d="m0.60297 0.60097c0.25-0.25 0.65625-0.25 0.91016 0 0.25 0.25391 0.25 0.66016 0 0.91016-0.25391 0.25-0.66016 0.25-0.91016 0-0.25391-0.25-0.25391-0.65625 0-0.91016zm-2.1133-2.1133c0.25-0.25 0.65625-0.25 0.91016 0 0.25 0.25 0.25 0.66016 0 0.91016-0.25391 0.25-0.66016 0.25-0.91016 0-0.25391-0.25-0.25391-0.66016 0-0.91016z" stroke="#000" stroke-miterlimit="10" stroke-width=".3985"/>
<path transform="matrix(1,0,0,-1,14.643,53.243)" d="m-1.2446 29.774v11.156" fill="none" stroke="#000" stroke-linecap="round" stroke-miterlimit="10" stroke-width=".59758"/>
<path transform="matrix(1,0,0,-1,14.643,53.243)" d="m1.2437 29.774v11.156" fill="none" stroke="#000" stroke-linecap="round" stroke-miterlimit="10" stroke-width=".59758"/>
<g>
<use x="30.265" y="31.013" xlink:href="#d"/>
</g>
<g fill="#dc3445">
<use x="49.969" y="37.645" xlink:href="#b"/>
</g>
<g>
<use x="69.447" y="26.319" xlink:href="#a"/>
</g>
<path transform="matrix(1,0,0,-1,78.066,17.907)" d="m0.60197-0.60081c-0.25-0.25391-0.25-0.66016 0-0.91016s0.66016-0.25 0.91016 0 0.25 0.65625 0 0.91016c-0.25 0.25-0.66016 0.25-0.91016 0zm-2.1133 2.1133c-0.25-0.25391-0.25-0.66016 0-0.91016s0.66016-0.25 0.91016 0 0.25 0.65625 0 0.91016c-0.25 0.25-0.66016 0.25-0.91016 0z" stroke="#000" stroke-miterlimit="10" stroke-width=".3985"/>
<path transform="matrix(1,0,0,-1,68.16,17.907)" d="m0.60172 0.60231c0.25-0.25 0.66016-0.25 0.91016 0s0.25 0.65625 0 0.91016c-0.25 0.25-0.66016 0.25-0.91016 0-0.25-0.25391-0.25-0.66016 0-0.91016zm-2.1133-2.1133c0.25-0.25 0.66016-0.25 0.91016 0s0.25 0.65625 0 0.91016c-0.25 0.25-0.66016 0.25-0.91016 0-0.25-0.25391-0.25-0.66016 0-0.91016z" stroke="#000" stroke-miterlimit="10" stroke-width=".3985"/>
<path transform="matrix(1,0,0,-1,53.497,37.645)" d="m4.9092 6.2934 9.6602 5.5781" fill="none" stroke="#000" stroke-linecap="round" stroke-miterlimit="10" stroke-width=".59758"/>
<g>
<use x="89.201" y="37.645" xlink:href="#b"/>
</g>
<path transform="matrix(1,0,0,-1,53.497,37.645)" d="m24.663 11.872 9.6602-5.5781" fill="none" stroke="#000" stroke-linecap="round" stroke-miterlimit="10" stroke-width=".59758"/>
<path transform="matrix(1,0,0,-1,10.976,53.243)" d="m95.247 24.72h27.953" fill="none" stroke="#000" stroke-miterlimit="10" stroke-width=".3985"/>
<path transform="matrix(1 0 0 -1 131.47 28.522)" d="m4.4445-0.0012775-3.2812 1.3164 1.6445-1.3164-1.6445-1.3125z" stroke="#000" stroke-linejoin="round" stroke-miterlimit="10" stroke-width=".3985"/>
<g fill="#dc3445">
<use x="146.071" y="36.85" xlink:href="#b"/>
</g>
<g>
<use x="165.549" y="48.175" xlink:href="#a"/>
</g>
<path transform="matrix(1 0 0 -1 174.17 49.669)" d="m-0.60159-0.60053c-0.25 0.25-0.66016 0.25-0.91016 0-0.25-0.25391-0.25-0.66016 0-0.91016 0.25-0.25391 0.66016-0.25391 0.91016 0 0.25 0.25 0.25 0.65625 0 0.91016zm2.1133 2.1133c-0.25 0.25-0.66016 0.25-0.91016 0-0.25-0.25391-0.25-0.66016 0-0.91016 0.25-0.25391 0.66016-0.25391 0.91016 0 0.25 0.25 0.25 0.65625 0 0.91016z" stroke="#000" stroke-miterlimit="10" stroke-width=".3985"/>
<path transform="matrix(1 0 0 -1 164.26 49.669)" d="m-0.60184 0.60259c0.25 0.25 0.25 0.65625 0 0.91016-0.25 0.25-0.66016 0.25-0.91016 0-0.25-0.25391-0.25-0.66016 0-0.91016 0.25-0.25391 0.66016-0.25391 0.91016 0zm2.1133-2.1133c0.25 0.25 0.25 0.65625 0 0.91016-0.25 0.25-0.66016 0.25-0.91016 0-0.25-0.25391-0.25-0.66016 0-0.91016 0.25-0.25391 0.66016-0.25391 0.91016 0z" stroke="#000" stroke-miterlimit="10" stroke-width=".3985"/>
<path transform="matrix(1 0 0 -1 149.6 36.85)" d="m4.9088 0.62734 9.6602-5.582" fill="none" stroke="#000" stroke-linecap="round" stroke-miterlimit="10" stroke-width=".59758"/>
<g>
<use x="185.303" y="37.049" xlink:href="#c"/>
</g>
<path transform="matrix(1 0 0 -1 149.6 36.85)" d="m24.663-4.9508 9.6602 5.5742" fill="none" stroke="#000" stroke-linecap="round" stroke-miterlimit="10" stroke-width=".59758"/>
<g>
<use x="184.819" y="15.788" xlink:href="#a"/>
</g>
<path transform="matrix(1 0 0 -1 193.44 7.376)" d="m0.60006-0.60056c-0.25-0.25391-0.25-0.66016 0-0.91016 0.25391-0.25391 0.66016-0.25391 0.91016 0 0.25391 0.25 0.25391 0.65625 0 0.91016-0.25 0.25-0.65625 0.25-0.91016 0zm-2.1133 2.1133c-0.25-0.25391-0.25-0.66016 0-0.91016 0.25391-0.25391 0.66016-0.25391 0.91016 0 0.25391 0.25 0.25391 0.65625 0 0.91016-0.25 0.25-0.65625 0.25-0.91016 0z" stroke="#000" stroke-miterlimit="10" stroke-width=".3985"/>
<path transform="matrix(1 0 0 -1 183.53 7.376)" d="m0.60372 0.60256c0.25-0.25391 0.65625-0.25391 0.90625 0 0.25391 0.25 0.25391 0.65625 0 0.91016-0.25 0.25-0.65625 0.25-0.90625 0-0.25391-0.25391-0.25391-0.66016 0-0.91016zm-2.1172-2.1133c0.25391-0.25391 0.66016-0.25391 0.91016 0 0.25391 0.25 0.25391 0.65625 0 0.91016-0.25 0.25-0.65625 0.25-0.91016 0-0.25-0.25391-0.25-0.66016 0-0.91016z" stroke="#000" stroke-miterlimit="10" stroke-width=".3985"/>
<path transform="matrix(1 0 0 -1 149.6 36.85)" d="m37.643 8.3109v11.156" fill="none" stroke="#000" stroke-linecap="round" stroke-miterlimit="10" stroke-width=".59758"/>
<path transform="matrix(1 0 0 -1 149.6 36.85)" d="m40.131 8.3109v11.156" fill="none" stroke="#000" stroke-linecap="round" stroke-miterlimit="10" stroke-width=".59758"/>
<g>
<use x="204.09" y="48.175" xlink:href="#a"/>
</g>
<path transform="matrix(1 0 0 -1 212.71 49.669)" d="m-0.60353-0.60053c-0.25 0.25-0.65625 0.25-0.90625 0-0.25391-0.25391-0.25391-0.66016 0-0.91016 0.25-0.25391 0.65625-0.25391 0.90625 0 0.25391 0.25 0.25391 0.65625 0 0.91016zm2.1133 2.1133c-0.25 0.25-0.65625 0.25-0.90625 0-0.25391-0.25391-0.25391-0.66016 0-0.91016 0.25-0.25391 0.65625-0.25391 0.90625 0 0.25391 0.25 0.25391 0.65625 0 0.91016z" stroke="#000" stroke-miterlimit="10" stroke-width=".3985"/>
<path transform="matrix(1 0 0 -1 202.8 49.669)" d="m-0.59988 0.60259c0.25 0.25 0.25 0.65625 0 0.91016-0.25391 0.25-0.66016 0.25-0.91016 0-0.25391-0.25391-0.25391-0.66016 0-0.91016 0.25-0.25391 0.65625-0.25391 0.91016 0zm2.1133-2.1133c0.25 0.25 0.25 0.65625 0 0.91016-0.25391 0.25-0.66016 0.25-0.91016 0-0.25391-0.25391-0.25391-0.66016 0-0.91016 0.25-0.25391 0.65625-0.25391 0.91016 0z" stroke="#000" stroke-miterlimit="10" stroke-width=".3985"/>
<path transform="matrix(1 0 0 -1 149.6 36.85)" d="m43.452 0.62734 9.6602-5.5781" fill="none" stroke="#000" stroke-linecap="round" stroke-miterlimit="10" stroke-width=".59758"/>
<g>
<use x="223.844" y="36.85" xlink:href="#b"/>
</g>
<path transform="matrix(1 0 0 -1 149.6 36.85)" d="m63.206-4.9508 9.6602 5.5781" fill="none" stroke="#000" stroke-linecap="round" stroke-miterlimit="10" stroke-width=".59758"/>
<path transform="matrix(1 0 0 -1 230.9 53.243)" d="m-165.48 38.071c-14.363 14.359-28.738 8.6992-43.965-6.5312" fill="none" stroke="#188653" stroke-miterlimit="10" stroke-width=".59776"/>
<path transform="matrix(-.70709 .7071 .7071 .70709 23.805 19.357)" d="m5.1728 9.4101e-4 -3.4306 1.3756 1.7236-1.3756-1.7236-1.3756z" fill="#188653" stroke="#188653" stroke-linejoin="round" stroke-miterlimit="10" stroke-width=".59776"/>
<path transform="matrix(1 0 0 -1 230.9 53.243)" d="m-207.42-1.6476c10.797-6.2305 18.672 1.0664 25.441 12.793" fill="none" stroke="#188653" stroke-miterlimit="10" stroke-width=".59776"/>
<path transform="matrix(.5 -.86601 -.86601 -.5 47.268 44.971)" d="m5.1729-0.0013325-3.4288 1.3763 1.7223-1.3737-1.7217-1.3774z" fill="#188653" stroke="#188653" stroke-linejoin="round" stroke-miterlimit="10" stroke-width=".59776"/>
<path transform="matrix(1 0 0 -1 230.9 53.243)" d="m-222.33 23.095c-10.359-2.7773-8.6602-11.133-2.0508-14.945" fill="none" stroke="#188653" stroke-miterlimit="10" stroke-width=".59776"/>
<path transform="matrix(.86601 .5 .5 -.86601 3.6465 43.437)" d="m5.1719-8.536e-4 -3.4288 1.3763 1.7243-1.3771-1.7236-1.374z" fill="#188653" stroke="#188653" stroke-linejoin="round" stroke-miterlimit="10" stroke-width=".59776"/>
</svg>
