<?xml version="1.0" encoding="UTF-8"?>
<svg width="267pt" height="57pt" version="1.1" viewBox="0 0 267 57" xmlns="http://www.w3.org/2000/svg" xmlns:xlink="http://www.w3.org/1999/xlink">
<defs>
<symbol id="a" overflow="visible">
<path d="m6.7656-3.4375c0-2.0938-1.4375-3.7031-3.0938-3.7031-1.7031 0-3.1094 1.625-3.1094 3.7031 0 2.1094 1.4688 3.6562 3.0938 3.6562 1.6719 0 3.1094-1.5625 3.1094-3.6562zm-0.89062-0.15625c0 1.9531-1.0625 3.1719-2.2031 3.1719-1.1719 0-2.2188-1.25-2.2188-3.1719 0-1.8125 1.0938-2.9062 2.2031-2.9062 1.1562 0 2.2188 1.125 2.2188 2.9062z"/>
</symbol>
<symbol id="e" overflow="visible">
<path d="m5.8594-0.45312-0.0625-0.6875c-0.29688 0.20312-0.57812 0.39062-0.92188 0.5-0.3125 0.10938-0.67188 0.10938-1 0.10938-0.65625 0-1.25-0.34375-1.6562-0.85938-0.45312-0.57812-0.67188-1.3281-0.67188-2.0625 0-0.75 0.21875-1.5 0.67188-2.0938 0.40625-0.5 1-0.85938 1.6562-0.85938 0.29688 0 0.59375 0.03125 0.89062 0.125s0.57812 0.23438 0.84375 0.42188l0.125-0.8125c-0.29688-0.125-0.59375-0.21875-0.92188-0.28125-0.3125-0.0625-0.625-0.078125-0.9375-0.078125-0.89062 0-1.6875 0.39062-2.2812 1.0469-0.60938 0.6875-0.9375 1.5938-0.9375 2.5312 0 0.92188 0.32812 1.8281 0.9375 2.5156 0.59375 0.64062 1.3906 1.0469 2.2812 1.0469 0.34375 0 0.6875-0.015625 1.0312-0.10938s0.64062-0.26562 0.95312-0.45312z"/>
</symbol>
<symbol id="c" overflow="visible">
<path d="m6.1094 0v-6.9219h-0.89062v3.0312h-3.3906v-3.0312h-0.89062v6.9219h0.89062v-3.2969h3.3906v3.2969z"/>
</symbol>
<symbol id="d" overflow="visible">
<path d="m7.1875-2.5c0-0.1875-0.1875-0.1875-0.32812-0.1875h-2.7812v-2.7969c0-0.14062 0-0.32812-0.20312-0.32812s-0.20312 0.1875-0.20312 0.32812v2.7969h-2.7812c-0.14062 0-0.32812 0-0.32812 0.1875 0 0.20312 0.1875 0.20312 0.32812 0.20312h2.7812v2.7969c0 0.14062 0 0.32812 0.20312 0.32812s0.20312-0.1875 0.20312-0.32812v-2.7969h2.7812c0.14062 0 0.32812 0 0.32812-0.20312z"/>
</symbol>
<symbol id="b" overflow="visible">
<path d="m5.4688-1.7344c0-0.1875-0.17188-0.1875-0.26562-0.1875h-4.1875c-0.10938 0-0.26562 0-0.26562 0.1875 0 0.15625 0.17188 0.15625 0.26562 0.15625h4.1875c0.09375 0 0.26562 0 0.26562-0.15625z"/>
</symbol>
</defs>
<g>
<use x="10.145" y="53.243" xlink:href="#a"/>
</g>
<path transform="matrix(1,0,0,-1,18.765,54.736)" d="m-0.60094-0.59994c-0.25391 0.25-0.66016 0.25-0.91016 0-0.25-0.25391-0.25-0.66016 0-0.91016 0.25-0.25391 0.65625-0.25391 0.91016 0 0.25 0.25 0.25 0.65625 0 0.91016zm2.1133 2.1133c-0.25391 0.25-0.66016 0.25-0.91016 0-0.25-0.25391-0.25-0.66016 0-0.91016 0.25-0.25391 0.65625-0.25391 0.91016 0 0.25 0.25 0.25 0.65625 0 0.91016z" stroke="#000" stroke-miterlimit="10" stroke-width=".3985"/>
<path transform="matrix(1,0,0,-1,8.859,54.736)" d="m-0.60119 0.60319c0.25 0.25 0.25 0.65625 0 0.91016-0.25 0.25-0.66016 0.25-0.91016 0-0.25-0.25391-0.25-0.66016 0-0.91016 0.25-0.25391 0.66016-0.25391 0.91016 0zm2.1133-2.1133c0.25 0.25 0.25 0.65625 0 0.91016-0.25 0.25-0.66016 0.25-0.91016 0-0.25-0.25391-0.25-0.66016 0-0.91016 0.25-0.25391 0.66016-0.25391 0.91016 0z" stroke="#000" stroke-miterlimit="10" stroke-width=".3985"/>
<g>
<use x="10.629" y="31.982" xlink:href="#e"/>
</g>
<path transform="matrix(1,0,0,-1,13.812,53.243)" d="m-1.2456 8.5125v11.156" fill="none" stroke="#000" stroke-linecap="round" stroke-miterlimit="10" stroke-width=".59758"/>
<path transform="matrix(1,0,0,-1,13.812,53.243)" d="m1.2466 8.5125v11.156" fill="none" stroke="#000" stroke-linecap="round" stroke-miterlimit="10" stroke-width=".59758"/>
<g>
<use x="10.145" y="10.721" xlink:href="#a"/>
</g>
<path transform="matrix(1,0,0,-1,18.765,2.308)" d="m0.60219-0.60216c-0.25-0.25-0.25-0.66016 0-0.91016s0.66016-0.25 0.91016 0 0.25 0.66016 0 0.91016-0.66016 0.25-0.91016 0zm-2.1133 2.1133c-0.25-0.25-0.25-0.65625 0-0.91016 0.25-0.25 0.65625-0.25 0.91016 0 0.25 0.25391 0.25 0.66016 0 0.91016-0.25391 0.25-0.66016 0.25-0.91016 0z" stroke="#000" stroke-miterlimit="10" stroke-width=".3985"/>
<path transform="matrix(1,0,0,-1,8.859,2.308)" d="m0.60194 0.60097c0.25-0.25 0.66016-0.25 0.91016 0 0.25 0.25391 0.25 0.66016 0 0.91016s-0.66016 0.25-0.91016 0-0.25-0.65625 0-0.91016zm-2.1133-2.1133c0.25-0.25 0.66016-0.25 0.91016 0s0.25 0.66016 0 0.91016-0.66016 0.25-0.91016 0-0.25-0.66016 0-0.91016z" stroke="#000" stroke-miterlimit="10" stroke-width=".3985"/>
<path transform="matrix(1,0,0,-1,13.812,53.243)" d="m-1.2456 29.774v11.156" fill="none" stroke="#000" stroke-linecap="round" stroke-miterlimit="10" stroke-width=".59758"/>
<path transform="matrix(1,0,0,-1,13.812,53.243)" d="m1.2466 29.774v11.156" fill="none" stroke="#000" stroke-linecap="round" stroke-miterlimit="10" stroke-width=".59758"/>
<g>
<use x="29.434" y="31.013" xlink:href="#d"/>
<use x="49.138" y="31.982" xlink:href="#a"/>
</g>
<path transform="matrix(1,0,0,-1,52.805,34.971)" d="m-0.85188-0.0016562c0 0.35547-0.28906 0.64453-0.64062 0.64453-0.35547 0-0.64453-0.28906-0.64453-0.64453 0-0.35547 0.28906-0.64062 0.64453-0.64062 0.35156 0 0.64062 0.28516 0.64062 0.64062zm2.9883 0c0 0.35547-0.28516 0.64453-0.64062 0.64453-0.35547 0-0.64453-0.28906-0.64453-0.64453 0-0.35547 0.28906-0.64062 0.64453-0.64062 0.35547 0 0.64062 0.28516 0.64062 0.64062z" stroke="#000" stroke-miterlimit="10" stroke-width=".3985"/>
<path transform="matrix(1,0,0,-1,52.805,22.074)" d="m0.85125-2.1875e-4c0-0.35547 0.28906-0.64453 0.64453-0.64453 0.35547 0 0.64062 0.28906 0.64062 0.64453 0 0.35547-0.28516 0.64453-0.64062 0.64453-0.35547 0-0.64453-0.28906-0.64453-0.64453zm-2.9883 0c0-0.35547 0.28906-0.64453 0.64453-0.64453 0.35156 0 0.64062 0.28906 0.64062 0.64453 0 0.35547-0.28906 0.64453-0.64062 0.64453-0.35547 0-0.64453-0.28906-0.64453-0.64453z" stroke="#000" stroke-miterlimit="10" stroke-width=".3985"/>
<path transform="matrix(1,0,0,-1,46.149,28.522)" d="m-5.625e-4 0.85012c0.35547 0 0.64453 0.28906 0.64453 0.64453 0 0.35547-0.28906 0.64453-0.64453 0.64453s-0.64453-0.28906-0.64453-0.64453c0-0.35547 0.28906-0.64453 0.64453-0.64453zm0-2.9883c0.35547 0 0.64453 0.28906 0.64453 0.64453s-0.28906 0.64453-0.64453 0.64453-0.64453-0.28906-0.64453-0.64453 0.28906-0.64453 0.64453-0.64453z" stroke="#000" stroke-miterlimit="10" stroke-width=".3985"/>
<g>
<use x="41.478" y="23.374" xlink:href="#b"/>
</g>
<g fill="#dc3445">
<use x="70.814" y="31.982" xlink:href="#c"/>
</g>
<path transform="matrix(1,0,0,-1,52.805,31.982)" d="m5.2614 3.4586h11.156" fill="none" stroke="#000" stroke-linecap="round" stroke-miterlimit="10" stroke-width=".59758"/>
<g>
<use x="89.826" y="31.013" xlink:href="#d"/>
<use x="109.53" y="31.982" xlink:href="#a"/>
</g>
<path transform="matrix(1 0 0 -1 113.2 34.971)" d="m-0.84934-0.0016562c0 0.35547-0.28906 0.64453-0.64453 0.64453s-0.64453-0.28906-0.64453-0.64453c0-0.35547 0.28906-0.64062 0.64453-0.64062s0.64453 0.28516 0.64453 0.64062zm2.9883 0c0 0.35547-0.28906 0.64453-0.64453 0.64453-0.35547 0-0.64453-0.28906-0.64453-0.64453 0-0.35547 0.28906-0.64062 0.64453-0.64062 0.35547 0 0.64453 0.28516 0.64453 0.64062z" stroke="#000" stroke-miterlimit="10" stroke-width=".3985"/>
<path transform="matrix(1 0 0 -1 113.2 22.074)" d="m0.84988-2.1875e-4c0-0.35547 0.28906-0.64453 0.64453-0.64453 0.35547 0 0.64453 0.28906 0.64453 0.64453 0 0.35547-0.28906 0.64453-0.64453 0.64453-0.35547 0-0.64453-0.28906-0.64453-0.64453zm-2.9883 0c0-0.35547 0.28906-0.64453 0.64453-0.64453s0.64453 0.28906 0.64453 0.64453c0 0.35547-0.28906 0.64453-0.64453 0.64453s-0.64453-0.28906-0.64453-0.64453z" stroke="#000" stroke-miterlimit="10" stroke-width=".3985"/>
<path transform="matrix(1 0 0 -1 106.54 28.523)" d="m-0.0019375 0.85112c0.35547 0 0.64453 0.28906 0.64453 0.64453 0 0.35547-0.28906 0.64062-0.64453 0.64062-0.35156 0-0.64062-0.28516-0.64062-0.64062 0-0.35547 0.28906-0.64453 0.64062-0.64453zm0-2.9883c0.35547 0 0.64453 0.28906 0.64453 0.64453s-0.28906 0.64062-0.64453 0.64062c-0.35156 0-0.64062-0.28516-0.64062-0.64062s0.28906-0.64453 0.64062-0.64453z" stroke="#000" stroke-miterlimit="10" stroke-width=".3985"/>
<g>
<use x="101.87" y="23.374" xlink:href="#b"/>
<use x="116.864" y="31.982" xlink:href="#c"/>
</g>
<path transform="matrix(1,0,0,-1,10.145,53.243)" d="m123.74 24.72h27.957" fill="none" stroke="#000" stroke-miterlimit="10" stroke-width=".3985"/>
<path transform="matrix(1 0 0 -1 159.13 28.522)" d="m4.4462-0.0012775-3.2852 1.3164 1.6484-1.3164-1.6484-1.3125z" stroke="#000" stroke-linejoin="round" stroke-miterlimit="10" stroke-width=".3985"/>
<g>
<use x="173.733" y="48.175" xlink:href="#a"/>
</g>
<path transform="matrix(1 0 0 -1 180.76 50.533)" d="m-0.73847-0.42403c-0.17578 0.30469-0.57031 0.41016-0.87891 0.23438-0.30469-0.17969-0.41016-0.57031-0.23438-0.87891 0.17969-0.30859 0.57031-0.41406 0.87891-0.23438 0.30859 0.17578 0.41406 0.57031 0.23438 0.87891zm2.5898 1.4922c-0.17578 0.30859-0.57031 0.41406-0.87891 0.23438-0.30859-0.17578-0.41406-0.57031-0.23438-0.87891 0.17578-0.30469 0.57031-0.41016 0.87891-0.23438 0.30469 0.17969 0.41016 0.57031 0.23438 0.87891z" stroke="#000" stroke-miterlimit="10" stroke-width=".3985"/>
<path transform="matrix(1 0 0 -1 171.38 48.194)" d="m-0.42678 0.73697c0.30859 0.17578 0.41406 0.57031 0.23828 0.87891-0.17969 0.30859-0.57422 0.41406-0.87891 0.23438-0.30859-0.17578-0.41406-0.57031-0.23828-0.87891 0.17969-0.30469 0.57422-0.41016 0.87891-0.23438zm1.4961-2.5898c0.30859 0.17969 0.41406 0.57422 0.23438 0.87891-0.17578 0.30859-0.57031 0.41406-0.87891 0.23828-0.30859-0.17969-0.41406-0.57422-0.23438-0.87891 0.17578-0.30859 0.57031-0.41406 0.87891-0.23828z" stroke="#000" stroke-miterlimit="10" stroke-width=".3985"/>
<path transform="matrix(1 0 0 -1 174.04 38.9)" d="m0.73534 0.42734c0.17969-0.30859 0.57422-0.41406 0.87891-0.23828 0.30859 0.17969 0.41406 0.57031 0.23828 0.87891-0.17969 0.30859-0.57422 0.41406-0.87891 0.23828-0.30859-0.17969-0.41406-0.57422-0.23828-0.87891zm-2.5859-1.4961c0.17578-0.30859 0.57031-0.41406 0.87891-0.23438 0.30859 0.17578 0.41406 0.57031 0.23438 0.87891-0.17578 0.30469-0.57031 0.41016-0.87891 0.23438-0.30859-0.17969-0.41406-0.57031-0.23438-0.87891z" stroke="#000" stroke-miterlimit="10" stroke-width=".3985"/>
<g>
<use x="163.352" y="43.53" xlink:href="#b"/>
<use x="193.488" y="37.049" xlink:href="#e"/>
</g>
<path transform="matrix(1,0,0,-1,177.4,48.175)" d="m5.0453 6.3742 9.6641 5.5781" fill="none" stroke="#000" stroke-linecap="round" stroke-miterlimit="10" stroke-width=".59758"/>
<g>
<use x="193.004" y="15.788" xlink:href="#a"/>
</g>
<path transform="matrix(1 0 0 -1 201.62 7.376)" d="m0.60256-0.60056c-0.25391-0.25391-0.25391-0.66016 0-0.91016 0.25-0.25391 0.65625-0.25391 0.91016 0 0.25 0.25 0.25 0.65625 0 0.91016-0.25391 0.25-0.66016 0.25-0.91016 0zm-2.1133 2.1133c-0.25391-0.25391-0.25391-0.66016 0-0.91016 0.25-0.25391 0.65625-0.25391 0.91016 0 0.25 0.25 0.25 0.65625 0 0.91016-0.25391 0.25-0.66016 0.25-0.91016 0z" stroke="#000" stroke-miterlimit="10" stroke-width=".3985"/>
<path transform="matrix(1 0 0 -1 191.72 7.376)" d="m0.60331 0.60256c0.25-0.25391 0.65625-0.25391 0.91016 0 0.25 0.25 0.25 0.65625 0 0.91016-0.25391 0.25-0.66016 0.25-0.91016 0-0.25391-0.25391-0.25391-0.66016 0-0.91016zm-2.1133-2.1133c0.25-0.25391 0.65625-0.25391 0.90625 0 0.25391 0.25 0.25391 0.65625 0 0.91016-0.25 0.25-0.65625 0.25-0.90625 0-0.25391-0.25391-0.25391-0.66016 0-0.91016z" stroke="#000" stroke-miterlimit="10" stroke-width=".3985"/>
<path transform="matrix(1,0,0,-1,177.4,48.175)" d="m18.026 19.64v11.152" fill="none" stroke="#000" stroke-linecap="round" stroke-miterlimit="10" stroke-width=".59758"/>
<path transform="matrix(1,0,0,-1,177.4,48.175)" d="m20.514 19.64v11.152" fill="none" stroke="#000" stroke-linecap="round" stroke-miterlimit="10" stroke-width=".59758"/>
<g>
<use x="212.274" y="48.175" xlink:href="#a"/>
</g>
<path transform="matrix(1 0 0 -1 219.3 38.899)" d="m0.73616-0.42522c-0.17578-0.30859-0.070312-0.70312 0.23828-0.87891 0.30469-0.17969 0.69922-0.074219 0.875 0.23438 0.17969 0.30859 0.074219 0.70312-0.23438 0.87891-0.30859 0.17969-0.69922 0.074219-0.87891-0.23438zm-2.5859 1.4922c-0.17969-0.30469-0.074219-0.69922 0.23438-0.875 0.30859-0.17969 0.69922-0.074219 0.87891 0.23438 0.17578 0.30859 0.070312 0.69922-0.23438 0.87891-0.30859 0.17578-0.70312 0.070313-0.87891-0.23828z" stroke="#000" stroke-miterlimit="10" stroke-width=".3985"/>
<path transform="matrix(1 0 0 -1 221.96 48.194)" d="m-0.42594-0.73569c-0.30859 0.17578-0.69922 0.070312-0.87891-0.23828-0.17578-0.30469-0.070312-0.69922 0.23438-0.87891 0.30859-0.17578 0.70312-0.070312 0.87891 0.23828 0.17969 0.30469 0.074219 0.69922-0.23438 0.87891zm1.4961 2.5859c-0.30859 0.17969-0.70312 0.074219-0.87891-0.23438-0.17969-0.30859-0.074219-0.70312 0.23438-0.87891s0.69922-0.070313 0.87891 0.23438c0.17578 0.30859 0.070313 0.70312-0.23438 0.87891z" stroke="#000" stroke-miterlimit="10" stroke-width=".3985"/>
<path transform="matrix(1 0 0 -1 212.58 50.533)" d="m-0.73534 0.42362c0.17578 0.30859 0.070313 0.70312-0.23828 0.87891-0.30469 0.17969-0.69922 0.074219-0.87891-0.23438-0.17578-0.30859-0.070313-0.69922 0.23828-0.87891 0.30469-0.17578 0.69922-0.070312 0.87891 0.23438zm2.5859-1.4922c0.17969 0.30859 0.074219 0.69922-0.23438 0.87891-0.30859 0.17578-0.70312 0.070312-0.87891-0.23438-0.17969-0.30859-0.074219-0.70312 0.23438-0.87891 0.30859-0.17969 0.70312-0.074219 0.87891 0.23438z" stroke="#000" stroke-miterlimit="10" stroke-width=".3985"/>
<g>
<use x="223.763" y="43.529" xlink:href="#b"/>
</g>
<path transform="matrix(1,0,0,-1,177.4,48.175)" d="m23.834 11.952 9.6602-5.5781" fill="none" stroke="#000" stroke-linecap="round" stroke-miterlimit="10" stroke-width=".59758"/>
<g>
<use x="226.581" y="31.013" xlink:href="#d"/>
</g>
<g fill="#dc3445">
<use x="246.285" y="31.982" xlink:href="#c"/>
</g>
<g>
<use x="253.342" y="31.982" xlink:href="#a"/>
</g>
<path transform="matrix(1 0 0 -1 257.01 21.576)" d="m0.85138 0.0017812c0-0.35547 0.28906-0.64453 0.64453-0.64453 0.35547 0 0.64062 0.28906 0.64062 0.64453 0 0.35547-0.28516 0.64062-0.64062 0.64062-0.35547 0-0.64453-0.28516-0.64453-0.64062zm-2.9883 0c0-0.35547 0.28906-0.64453 0.64062-0.64453 0.35547 0 0.64453 0.28906 0.64453 0.64453 0 0.35547-0.28906 0.64062-0.64453 0.64062-0.35156 0-0.64062-0.28516-0.64062-0.64062z" stroke="#000" stroke-miterlimit="10" stroke-width=".3985"/>
<path transform="matrix(1 0 0 -1 257.01 35.469)" d="m-0.85175 2.5e-4c0 0.35547-0.28906 0.64453-0.64453 0.64453-0.35156 0-0.64062-0.28906-0.64062-0.64453s0.28906-0.64453 0.64062-0.64453c0.35547 0 0.64453 0.28906 0.64453 0.64453zm2.9883 0c0 0.35547-0.28516 0.64453-0.64062 0.64453-0.35547 0-0.64453-0.28906-0.64453-0.64453s0.28906-0.64453 0.64453-0.64453c0.35547 0 0.64062 0.28906 0.64062 0.64453z" stroke="#000" stroke-miterlimit="10" stroke-width=".3985"/>
<g>
<use x="260.675" y="31.982" xlink:href="#c"/>
</g>
<path transform="matrix(1 0 0 -1 267.73 53.243)" d="m-225.44 35.223c-5.5312 5.5312-12.453 5.5312-21.668-3.6836" fill="none" stroke="#188653" stroke-miterlimit="10" stroke-width=".59776"/>
<path transform="matrix(-.70708 .70712 .70712 .70708 22.974 19.357)" d="m5.1731 2.3641e-4 -3.4306 1.3757 1.7236-1.3756-1.7236-1.3755z" fill="#188653" stroke="#188653" stroke-linejoin="round" stroke-miterlimit="10" stroke-width=".59776"/>
<path transform="matrix(1 0 0 -1 267.73 53.243)" d="m-259.99 23.095c-10.359-2.7773-8.6602-11.133-2.0508-14.945" fill="none" stroke="#188653" stroke-miterlimit="10" stroke-width=".59776"/>
<path transform="matrix(.86601 .5 .5 -.86601 2.8153 43.437)" d="m5.1746 6.9894e-4 -3.4322 1.3743 1.7243-1.3771-1.7236-1.374z" fill="#188653" stroke="#188653" stroke-linejoin="round" stroke-miterlimit="10" stroke-width=".59776"/>
<path transform="matrix(1 0 0 -1 267.73 53.243)" d="m-195.09 18.376c-4.168-15.559-13.969-15.559-16.551-5.9297" fill="none" stroke="#188653" stroke-miterlimit="10" stroke-width=".59776"/>
<path transform="matrix(-.25882 -.96591 -.96591 .25882 56.95 44.003)" d="m5.172 0.0022266-3.4298 1.372 1.726-1.3765-1.7268-1.3733z" fill="#188653" stroke="#188653" stroke-linejoin="round" stroke-miterlimit="10" stroke-width=".59776"/>
<path transform="matrix(1 0 0 -1 267.73 53.243)" d="m-161.51 36.809c-7.1953 12.461-17.703 12.461-27.309-4.1758" fill="none" stroke="#188653" stroke-miterlimit="10" stroke-width=".59776"/>
<path transform="matrix(-.5 .86601 .86601 .5 80.567 17.736)" d="m5.1724-7.0255e-4 -3.4288 1.3763 1.7243-1.3771-1.7236-1.374z" fill="#188653" stroke="#188653" stroke-linejoin="round" stroke-miterlimit="10" stroke-width=".59776"/>
</svg>
