<?xml version="1.0" encoding="UTF-8"?>
<svg width="265pt" height="37pt" version="1.1" viewBox="0 0 265 37" xmlns="http://www.w3.org/2000/svg" xmlns:xlink="http://www.w3.org/1999/xlink">
<defs>
<symbol id="a" overflow="visible">
<path d="m6.1094 0v-6.9219h-0.89062v3.0312h-3.3906v-3.0312h-0.89062v6.9219h0.89062v-3.2969h3.3906v3.2969z"/>
</symbol>
<symbol id="b" overflow="visible">
<path d="m6.7656-3.4375c0-2.0938-1.4375-3.7031-3.0938-3.7031-1.7031 0-3.1094 1.625-3.1094 3.7031 0 2.1094 1.4688 3.6562 3.0938 3.6562 1.6719 0 3.1094-1.5625 3.1094-3.6562zm-0.89062-0.15625c0 1.9531-1.0625 3.1719-2.2031 3.1719-1.1719 0-2.2188-1.25-2.2188-3.1719 0-1.8125 1.0938-2.9062 2.2031-2.9062 1.1562 0 2.2188 1.125 2.2188 2.9062z"/>
</symbol>
<symbol id="c" overflow="visible">
<path d="m7.1875-2.5c0-0.1875-0.1875-0.1875-0.32812-0.1875h-2.7812v-2.7969c0-0.14062 0-0.32812-0.20312-0.32812s-0.20312 0.1875-0.20312 0.32812v2.7969h-2.7812c-0.14062 0-0.32812 0-0.32812 0.1875 0 0.20312 0.1875 0.20312 0.32812 0.20312h2.7812v2.7969c0 0.14062 0 0.32812 0.20312 0.32812s0.20312-0.1875 0.20312-0.32812v-2.7969h2.7812c0.14062 0 0.32812 0 0.32812-0.20312z"/>
</symbol>
<symbol id="e" overflow="visible">
<path d="m5.6094-1.7344c0-0.1875-0.15625-0.1875-0.25-0.1875h-2.1406v-2.1406c0-0.078125 0-0.25-0.15625-0.25-0.17188 0-0.17188 0.15625-0.17188 0.25v2.1406h-2.1406c-0.09375 0-0.26562 0-0.26562 0.17188s0.15625 0.17188 0.26562 0.17188h2.1406v2.1406c0 0.09375 0 0.26562 0.15625 0.26562 0.17188 0 0.17188-0.17188 0.17188-0.26562v-2.1406h2.1406c0.09375 0 0.25 0 0.25-0.15625z"/>
</symbol>
<symbol id="d" overflow="visible">
<path d="m5.4688-1.7344c0-0.1875-0.17188-0.1875-0.26562-0.1875h-4.1875c-0.10938 0-0.26562 0-0.26562 0.1875 0 0.15625 0.17188 0.15625 0.26562 0.15625h4.1875c0.09375 0 0.26562 0 0.26562-0.15625z"/>
</symbol>
</defs>
<g>
<use x="-0.57" y="29.053" xlink:href="#a"/>
<use x="18.907" y="17.728" xlink:href="#b"/>
</g>
<path transform="matrix(1,0,0,-1,27.527,9.315)" d="m0.60191-0.60297c-0.25-0.25-0.25-0.65625 0-0.91016 0.25-0.25 0.66016-0.25 0.91016 0 0.25 0.25391 0.25 0.66016 0 0.91016-0.25 0.25391-0.66016 0.25391-0.91016 0zm-2.1133 2.1133c-0.25-0.25-0.25-0.65625 0-0.91016 0.25-0.25 0.66016-0.25 0.91016 0 0.25 0.25391 0.25 0.66016 0 0.91016-0.25 0.25391-0.66016 0.25391-0.91016 0z" stroke="#000" stroke-miterlimit="10" stroke-width=".3985"/>
<path transform="matrix(1,0,0,-1,17.621,9.315)" d="m0.60166 0.60016c0.25-0.25 0.66016-0.25 0.91016 0 0.25 0.25391 0.25 0.66016 0 0.91016-0.25 0.25391-0.66016 0.25391-0.91016 0-0.25-0.25-0.25-0.65625 0-0.91016zm-2.1133-2.1133c0.25-0.25 0.66016-0.25 0.91016 0 0.25 0.25391 0.25 0.66016 0 0.91016-0.25 0.25391-0.66016 0.25391-0.91016 0-0.25-0.25-0.25-0.65625 0-0.91016z" stroke="#000" stroke-miterlimit="10" stroke-width=".3985"/>
<path transform="matrix(1,0,0,-1,2.958,29.053)" d="m4.9092 6.2913 9.6602 5.582" fill="none" stroke="#000" stroke-linecap="round" stroke-miterlimit="10" stroke-width=".59758"/>
<g>
<use x="38.662" y="29.053" xlink:href="#a"/>
</g>
<path transform="matrix(1,0,0,-1,2.958,29.053)" d="m24.663 11.869 9.6602-5.5781" fill="none" stroke="#000" stroke-linecap="round" stroke-miterlimit="10" stroke-width=".59758"/>
<g>
<use x="57.674" y="22.422" xlink:href="#c"/>
</g>
<g fill="#dc3445">
<use x="77.378" y="29.053" xlink:href="#a"/>
</g>
<g>
<use x="96.856" y="17.728" xlink:href="#b"/>
</g>
<path transform="matrix(1 0 0 -1 105.48 9.315)" d="m0.60312-0.60297c-0.25391-0.25-0.25391-0.65625 0-0.91016 0.25-0.25 0.65625-0.25 0.91016 0 0.25 0.25391 0.25 0.66016 0 0.91016-0.25391 0.25391-0.66016 0.25391-0.91016 0zm-2.1133 2.1133c-0.25391-0.25-0.25391-0.65625 0-0.91016 0.25-0.25 0.65625-0.25 0.91016 0 0.25 0.25391 0.25 0.66016 0 0.91016-0.25391 0.25391-0.66016 0.25391-0.91016 0z" stroke="#000" stroke-miterlimit="10" stroke-width=".3985"/>
<path transform="matrix(1,0,0,-1,95.569,9.315)" d="m0.60288 0.60016c0.25-0.25 0.65625-0.25 0.91016 0 0.25 0.25391 0.25 0.66016 0 0.91016-0.25391 0.25391-0.66016 0.25391-0.91016 0-0.25391-0.25-0.25391-0.65625 0-0.91016zm-2.1133-2.1133c0.25-0.25 0.65625-0.25 0.91016 0 0.25 0.25391 0.25 0.66016 0 0.91016-0.25391 0.25391-0.66016 0.25391-0.91016 0-0.25391-0.25-0.25391-0.65625 0-0.91016z" stroke="#000" stroke-miterlimit="10" stroke-width=".3985"/>
<path transform="matrix(1,0,0,-1,80.906,29.053)" d="m4.9065 6.2913 9.6641 5.582" fill="none" stroke="#000" stroke-linecap="round" stroke-miterlimit="10" stroke-width=".59758"/>
<g>
<use x="116.61" y="29.053" xlink:href="#a"/>
</g>
<path transform="matrix(1,0,0,-1,80.906,29.053)" d="m24.664 11.869 9.6602-5.5781" fill="none" stroke="#000" stroke-linecap="round" stroke-miterlimit="10" stroke-width=".59758"/>
<path transform="matrix(1 0 0 -1 -.57 29.053)" d="m134.2 9.1233h27.953" fill="none" stroke="#000" stroke-miterlimit="10" stroke-width=".3985"/>
<path transform="matrix(1 0 0 -1 158.88 19.931)" d="m4.4448 0.0011525-3.2812 1.3125 1.6445-1.3125-1.6445-1.3164z" stroke="#000" stroke-linejoin="round" stroke-miterlimit="10" stroke-width=".3985"/>
<g fill="#dc3445">
<use x="173.48" y="25.046" xlink:href="#a"/>
</g>
<g>
<use x="192.958" y="13.72" xlink:href="#b"/>
</g>
<path transform="matrix(1 0 0 -1 196.62 3.315)" d="m0.85256-0.0014062c0-0.35547 0.28516-0.64062 0.64062-0.64062 0.35547 0 0.64453 0.28516 0.64453 0.64062 0 0.35547-0.28906 0.64453-0.64453 0.64453-0.35547 0-0.64062-0.28906-0.64062-0.64453zm-2.9922 0c0-0.35547 0.28906-0.64062 0.64453-0.64062 0.35547 0 0.64453 0.28516 0.64453 0.64062 0 0.35547-0.28906 0.64453-0.64453 0.64453-0.35547 0-0.64453-0.28906-0.64453-0.64453z" stroke="#000" stroke-miterlimit="10" stroke-width=".3985"/>
<g>
<use x="201.78" y="5.112" xlink:href="#e"/>
</g>
<path transform="matrix(1 0 0 -1 177.01 25.046)" d="m4.91 6.2921 9.6602 5.5781" fill="none" stroke="#000" stroke-linecap="round" stroke-miterlimit="10" stroke-width=".59758"/>
<g>
<use x="181.93" y="33.06" xlink:href="#a"/>
</g>
<path transform="matrix(1 0 0 -1 177.01 25.046)" d="m16.824 9.9444-5.5781-9.6602" fill="none" stroke="#000" stroke-linecap="round" stroke-miterlimit="10" stroke-width=".59758"/>
<g>
<use x="212.712" y="25.046" xlink:href="#a"/>
</g>
<path transform="matrix(1 0 0 -1 177.01 25.046)" d="m24.664 11.87 9.6602-5.5781" fill="none" stroke="#000" stroke-linecap="round" stroke-miterlimit="10" stroke-width=".59758"/>
<g>
<use x="226.742" y="22.422" xlink:href="#c"/>
<use x="251.428" y="23.39" xlink:href="#b"/>
</g>
<path transform="matrix(1 0 0 -1 255.1 26.379)" d="m-0.85281 9.375e-5c0 0.35547-0.28516 0.64453-0.64062 0.64453-0.35547 0-0.64453-0.28906-0.64453-0.64453 0-0.35547 0.28906-0.64453 0.64453-0.64453 0.35547 0 0.64062 0.28906 0.64062 0.64453zm2.9922 0c0 0.35547-0.28906 0.64453-0.64453 0.64453-0.35547 0-0.64453-0.28906-0.64453-0.64453 0-0.35547 0.28906-0.64453 0.64453-0.64453 0.35547 0 0.64453 0.28906 0.64453 0.64453z" stroke="#000" stroke-miterlimit="10" stroke-width=".3985"/>
<path transform="matrix(1 0 0 -1 255.1 13.483)" d="m0.85031-0.001375c0-0.35547 0.28906-0.64062 0.64453-0.64062 0.35547 0 0.64453 0.28516 0.64453 0.64062s-0.28906 0.64453-0.64453 0.64453c-0.35547 0-0.64453-0.28906-0.64453-0.64453zm-2.9883 0c0-0.35547 0.28906-0.64062 0.64453-0.64062 0.35547 0 0.64062 0.28516 0.64062 0.64062s-0.28516 0.64453-0.64062 0.64453c-0.35547 0-0.64453-0.28906-0.64453-0.64453z" stroke="#000" stroke-miterlimit="10" stroke-width=".3985"/>
<path transform="matrix(1 0 0 -1 248.44 19.931)" d="m-0.0015 0.85288c0.35547 0 0.64453 0.28516 0.64453 0.64062s-0.28906 0.64453-0.64453 0.64453-0.64062-0.28906-0.64062-0.64453 0.28516-0.64062 0.64062-0.64062zm0-2.9922c0.35547 0 0.64453 0.28906 0.64453 0.64453s-0.28906 0.64453-0.64453 0.64453-0.64062-0.28906-0.64062-0.64453 0.28516-0.64453 0.64062-0.64453z" stroke="#000" stroke-miterlimit="10" stroke-width=".3985"/>
<g>
<use x="243.768" y="14.782" xlink:href="#d"/>
<use x="258.762" y="23.39" xlink:href="#a"/>
</g>
<path transform="matrix(1 0 0 -1 265.82 29.053)" d="m-232.68 20.885c13.98 8.0742 33.59 7.125 43.195-9.5117" fill="none" stroke="#188653" stroke-miterlimit="10" stroke-width=".59776"/>
<path transform="matrix(.5 .86601 .86601 -.5 74.677 14.807)" d="m5.1738-0.0021992-3.4315 1.3768 1.7236-1.374-1.7243-1.3771z" fill="#188653" stroke="#188653" stroke-linejoin="round" stroke-miterlimit="10" stroke-width=".59776"/>
<path transform="matrix(1 0 0 -1 265.82 29.053)" d="m-181.42-2.5876c5.0117-8.6836 16.125-5.3047 16.125 8.7695" fill="none" stroke="#188653" stroke-miterlimit="10" stroke-width=".59776"/>
<path transform="matrix(0 -1 -1 0 100.52 26.188)" d="m5.1723 6.1875e-4 -3.4297 1.375 1.7266-1.375-1.7266-1.375z" fill="#188653" stroke="#188653" stroke-linejoin="round" stroke-miterlimit="10" stroke-width=".59776"/>
</svg>
