<?xml version="1.0" encoding="UTF-8"?>
<svg width="253pt" height="194pt" version="1.1" viewBox="0 0 253 194" xmlns="http://www.w3.org/2000/svg" xmlns:xlink="http://www.w3.org/1999/xlink">
<defs>
<symbol id="at" overflow="visible">
<path d="m5.7969-2.5781h-0.25c-0.10938 1.0156-0.25 2.2656-2 2.2656h-0.8125c-0.46875 0-0.48438-0.0625-0.48438-0.39062v-5.3125c0-0.34375 0-0.48438 0.9375-0.48438h0.32812v-0.3125c-0.35938 0.03125-1.2656 0.03125-1.6719 0.03125-0.39062 0-1.1719 0-1.5156-0.03125v0.3125h0.23438c0.76562 0 0.79688 0.10938 0.79688 0.46875v5.25c0 0.35938-0.03125 0.46875-0.79688 0.46875h-0.23438v0.3125h5.1875z"/>
</symbol>
<symbol id="w" overflow="visible">
<path d="m2.4688 0v-0.3125c-0.67188 0-0.70312-0.046875-0.70312-0.4375v-3.6562l-1.3906 0.10938v0.3125c0.64062 0 0.73438 0.0625 0.73438 0.54688v2.6875c0 0.4375-0.10938 0.4375-0.78125 0.4375v0.3125l1.0938-0.03125c0.35938 0 0.70312 0.015625 1.0469 0.03125zm-0.5625-6.0156c0-0.28125-0.21875-0.53125-0.51562-0.53125-0.34375 0-0.54688 0.28125-0.54688 0.53125 0 0.26562 0.23438 0.51562 0.53125 0.51562 0.34375 0 0.53125-0.26562 0.53125-0.51562z"/>
</symbol>
<symbol id="t" overflow="visible">
<path d="m7.1406-6.5v-0.3125l-1.1719 0.03125-1.1562-0.03125v0.3125c1.0156 0 1.0156 0.46875 1.0156 0.73438v4.2656l-3.5156-5.1719c-0.09375-0.125-0.09375-0.14062-0.28125-0.14062h-1.7031v0.3125h0.29688c0.14062 0 0.34375 0.015625 0.48438 0.015625 0.23438 0.03125 0.25 0.046875 0.25 0.23438v5.2031c0 0.26562 0 0.73438-1.0312 0.73438v0.3125l1.1719-0.03125 1.1562 0.03125v-0.3125c-1.0156 0-1.0156-0.46875-1.0156-0.73438v-5.1875c0.046875 0.046875 0.046875 0.0625 0.09375 0.125l4.0625 5.9844c0.09375 0.10938 0.10938 0.125 0.17188 0.125 0.14062 0 0.14062-0.0625 0.14062-0.26562v-5.5c0-0.26562 0-0.73438 1.0312-0.73438z"/>
</symbol>
<symbol id="p" overflow="visible">
<path d="m4.8125-0.89062v-0.5625h-0.25v0.5625c0 0.57812-0.25 0.64062-0.35938 0.64062-0.32812 0-0.35938-0.45312-0.35938-0.5v-1.9844c0-0.42188 0-0.8125-0.35938-1.1875-0.39062-0.39062-0.89062-0.54688-1.375-0.54688-0.8125 0-1.5 0.46875-1.5 1.125 0 0.29688 0.20312 0.46875 0.45312 0.46875 0.28125 0 0.46875-0.20312 0.46875-0.45312 0-0.125-0.0625-0.45312-0.51562-0.45312 0.26562-0.35938 0.76562-0.46875 1.0781-0.46875 0.48438 0 1.0625 0.39062 1.0625 1.2812v0.35938c-0.51562 0.03125-1.2188 0.0625-1.8438 0.35938-0.75 0.34375-1 0.85938-1 1.2969 0 0.8125 0.96875 1.0625 1.5938 1.0625 0.67188 0 1.125-0.40625 1.3125-0.85938 0.046875 0.39062 0.3125 0.8125 0.78125 0.8125 0.20312 0 0.8125-0.14062 0.8125-0.95312zm-1.6562-0.5c0 0.9375-0.71875 1.2812-1.1719 1.2812-0.48438 0-0.89062-0.34375-0.89062-0.84375 0-0.54688 0.40625-1.375 2.0625-1.4375z"/>
</symbol>
<symbol id="aa" overflow="visible">
<path d="m7.3438 0v-0.3125c-0.54688 0-0.75-0.03125-1.0469-0.46875l-2.3125-3.3906 1.7969-1.7344c0.078125-0.078125 0.60938-0.57812 1.4219-0.59375v-0.3125c-0.26562 0.03125-0.57812 0.03125-0.85938 0.03125-0.35938 0-0.92188 0-1.2656-0.03125v0.3125c0.40625 0.015625 0.46875 0.23438 0.46875 0.32812 0 0.15625-0.10938 0.26562-0.1875 0.32812l-3.1094 2.9844v-3.1719c0-0.35938 0.015625-0.46875 0.78125-0.46875h0.23438v-0.3125c-0.34375 0.03125-1.0781 0.03125-1.4688 0.03125-0.375 0-1.125 0-1.4688-0.03125v0.3125h0.23438c0.76562 0 0.79688 0.10938 0.79688 0.46875v5.25c0 0.35938-0.03125 0.46875-0.79688 0.46875h-0.23438v0.3125c0.34375-0.03125 1.0938-0.03125 1.4688-0.03125s1.125 0 1.4688 0.03125v-0.3125h-0.23438c-0.76562 0-0.78125-0.10938-0.78125-0.46875v-1.7344l1.1562-1.1094 1.7969 2.6719c0.0625 0.09375 0.15625 0.21875 0.15625 0.34375 0 0.29688-0.39062 0.29688-0.59375 0.29688v0.3125c0.34375-0.03125 1.0469-0.03125 1.4219-0.03125z"/>
</symbol>
<symbol id="z" overflow="visible">
<path d="m7.2969-0.875c0-0.0625 0-0.17188-0.125-0.17188-0.10938 0-0.10938 0.09375-0.125 0.15625-0.0625 0.71875-0.40625 0.89062-0.65625 0.89062-0.48438 0-0.5625-0.51562-0.70312-1.4375l-0.14062-0.79688c-0.17188-0.64062-0.65625-0.96875-1.2031-1.1562 0.95312-0.23438 1.7344-0.84375 1.7344-1.625 0-0.95312-1.1406-1.7969-2.5938-1.7969h-3.1406v0.3125h0.25c0.76562 0 0.78125 0.10938 0.78125 0.46875v5.25c0 0.35938-0.015625 0.46875-0.78125 0.46875h-0.25v0.3125c0.35938-0.03125 1.0781-0.03125 1.4531-0.03125 0.39062 0 1.1094 0 1.4688 0.03125v-0.3125h-0.25c-0.76562 0-0.78125-0.10938-0.78125-0.46875v-2.5156h1.1406c0.15625 0 0.57812 0 0.9375 0.34375 0.375 0.34375 0.375 0.65625 0.375 1.3281 0 0.64062 0 1.0469 0.40625 1.4219 0.40625 0.35938 0.95312 0.42188 1.25 0.42188 0.78125 0 0.95312-0.8125 0.95312-1.0938zm-2.25-4.1406c0 0.6875-0.23438 1.5-1.7031 1.5h-1.1094v-2.5781c0-0.23438 0-0.35938 0.21875-0.39062 0.09375-0.015625 0.39062-0.015625 0.59375-0.015625 0.89062 0 2 0.046875 2 1.4844z"/>
</symbol>
<symbol id="s" overflow="visible">
<path d="m5.1875-2.1562c0-1.2656-0.96875-2.25-2.1094-2.25-0.78125 0-1.2031 0.46875-1.3594 0.64062v-3.1562l-1.4375 0.10938v0.3125c0.70312 0 0.78125 0.0625 0.78125 0.5625v5.9375h0.25l0.35938-0.625c0.14062 0.23438 0.5625 0.73438 1.2969 0.73438 1.1875 0 2.2188-0.98438 2.2188-2.2656zm-0.82812 0c0 0.35938-0.015625 0.95312-0.29688 1.4062-0.21875 0.3125-0.59375 0.64062-1.125 0.64062-0.45312 0-0.8125-0.23438-1.0469-0.60938-0.14062-0.20312-0.14062-0.23438-0.14062-0.42188v-2.0469c0-0.1875 0-0.20312 0.10938-0.35938 0.39062-0.5625 0.9375-0.64062 1.1719-0.64062 0.45312 0 0.8125 0.26562 1.0469 0.64062 0.26562 0.40625 0.28125 0.96875 0.28125 1.3906z"/>
</symbol>
<symbol id="o" overflow="visible">
<path d="m6.625-2.3281c0-0.09375 0-0.17188-0.125-0.17188-0.10938 0-0.10938 0.0625-0.125 0.17188-0.078125 1.4219-1.1406 2.2344-2.2344 2.2344-0.60938 0-2.5625-0.32812-2.5625-3.3125 0-2.9688 1.9531-3.3125 2.5625-3.3125 1.0781 0 1.9688 0.90625 2.1719 2.3594 0.015625 0.14062 0.015625 0.17188 0.15625 0.17188 0.15625 0 0.15625-0.03125 0.15625-0.23438v-2.3594c0-0.17188 0-0.25-0.10938-0.25-0.03125 0-0.078125 0-0.15625 0.125l-0.5 0.73438c-0.35938-0.35938-0.875-0.85938-1.8281-0.85938-1.875 0-3.4688 1.5938-3.4688 3.625 0 2.0625 1.6094 3.625 3.4688 3.625 1.625 0 2.5938-1.3906 2.5938-2.5469z"/>
</symbol>
<symbol id="y" overflow="visible">
<path d="m3.5938-1.2812c0-0.51562-0.29688-0.82812-0.42188-0.9375-0.32812-0.32812-0.71875-0.40625-1.1406-0.48438-0.5625-0.10938-1.2188-0.23438-1.2188-0.8125 0-0.35938 0.25-0.76562 1.1094-0.76562 1.0938 0 1.1562 0.90625 1.1719 1.2031 0 0.09375 0.10938 0.09375 0.10938 0.09375 0.14062 0 0.14062-0.046875 0.14062-0.23438v-1.0156c0-0.15625 0-0.23438-0.10938-0.23438-0.046875 0-0.078125 0-0.20312 0.125-0.03125 0.03125-0.125 0.125-0.17188 0.15625-0.375-0.28125-0.78125-0.28125-0.9375-0.28125-1.2188 0-1.5938 0.67188-1.5938 1.2344 0 0.34375 0.15625 0.625 0.42188 0.84375 0.32812 0.25 0.60938 0.3125 1.3281 0.45312 0.21875 0.046875 1.0312 0.20312 1.0312 0.92188 0 0.5-0.34375 0.90625-1.125 0.90625-0.84375 0-1.2031-0.5625-1.3906-1.4219-0.03125-0.125-0.03125-0.15625-0.14062-0.15625-0.125 0-0.125 0.0625-0.125 0.23438v1.3281c0 0.17188 0 0.23438 0.10938 0.23438 0.046875 0 0.0625-0.015625 0.25-0.20312 0.015625-0.015625 0.015625-0.03125 0.20312-0.21875 0.4375 0.40625 0.89062 0.42188 1.0938 0.42188 1.1406 0 1.6094-0.67188 1.6094-1.3906z"/>
</symbol>
<symbol id="n" overflow="visible">
<path d="m6.4844-1.8281c0-0.85938-0.8125-1.6094-1.9219-1.7344 0.96875-0.1875 1.6562-0.82812 1.6562-1.5625 0-0.85938-0.92188-1.6875-2.2188-1.6875h-3.6406v0.3125h0.23438c0.76562 0 0.79688 0.10938 0.79688 0.46875v5.25c0 0.35938-0.03125 0.46875-0.79688 0.46875h-0.23438v0.3125h3.9062c1.3281 0 2.2188-0.89062 2.2188-1.8281zm-1.2344-3.2969c0 0.64062-0.48438 1.4688-1.5938 1.4688h-1.4375v-2.4375c0-0.34375 0.015625-0.40625 0.48438-0.40625h1.2344c0.96875 0 1.3125 0.84375 1.3125 1.375zm0.25 3.2969c0 0.70312-0.53125 1.5156-1.5469 1.5156h-1.25c-0.46875 0-0.48438-0.0625-0.48438-0.39062v-2.7188h1.875c0.98438 0 1.4062 0.92188 1.4062 1.5938z"/>
</symbol>
<symbol id="k" overflow="visible">
<path d="m4.1406-1.1875c0-0.09375-0.078125-0.125-0.14062-0.125-0.078125 0-0.10938 0.0625-0.125 0.14062-0.34375 1.0312-1.25 1.0312-1.3438 1.0312-0.5 0-0.89062-0.29688-1.125-0.67188-0.29688-0.46875-0.29688-1.125-0.29688-1.4844h2.7812c0.21875 0 0.25 0 0.25-0.21875 0-0.98438-0.54688-1.9531-1.7812-1.9531-1.1562 0-2.0781 1.0312-2.0781 2.2812 0 1.3281 1.0469 2.2969 2.1875 2.2969 1.2188 0 1.6719-1.1094 1.6719-1.2969zm-0.65625-1.3281h-2.375c0.0625-1.4844 0.90625-1.7344 1.25-1.7344 1.0156 0 1.125 1.3438 1.125 1.7344z"/>
</symbol>
<symbol id="as" overflow="visible">
<path d="m8.7656 0v-0.3125h-0.25c-0.76562 0-0.78125-0.10938-0.78125-0.46875v-5.25c0-0.35938 0.015625-0.46875 0.78125-0.46875h0.25v-0.3125h-1.6875c-0.26562 0-0.26562 0.015625-0.32812 0.1875l-2.1875 5.625-2.1562-5.5938c-0.09375-0.21875-0.125-0.21875-0.35938-0.21875h-1.6719v0.3125h0.23438c0.76562 0 0.78125 0.10938 0.78125 0.46875v4.9844c0 0.26562 0 0.73438-1.0156 0.73438v0.3125l1.1562-0.03125 1.1719 0.03125v-0.3125c-1.0312 0-1.0312-0.46875-1.0312-0.73438v-5.375h0.015625l2.4062 6.2031c0.046875 0.125 0.09375 0.21875 0.1875 0.21875 0.10938 0 0.14062-0.078125 0.1875-0.1875l2.4531-6.3125v5.7188c0 0.35938-0.015625 0.46875-0.78125 0.46875h-0.23438v0.3125c0.35938-0.03125 1.0469-0.03125 1.4375-0.03125 0.375 0 1.0469 0 1.4219 0.03125z"/>
</symbol>
<symbol id="ar" overflow="visible">
<path d="m4.8281-4.0312c0-0.17188-0.10938-0.48438-0.5-0.48438-0.20312 0-0.64062 0.0625-1.0625 0.46875-0.42188-0.32812-0.82812-0.35938-1.0469-0.35938-0.9375 0-1.625 0.6875-1.625 1.4531 0 0.4375 0.21875 0.8125 0.46875 1.0312-0.125 0.14062-0.3125 0.46875-0.3125 0.82812 0 0.3125 0.14062 0.6875 0.45312 0.89062-0.60938 0.15625-0.92188 0.59375-0.92188 0.98438 0 0.71875 0.98438 1.2656 2.2031 1.2656 1.1719 0 2.2031-0.5 2.2031-1.2812 0-0.34375-0.125-0.85938-0.64062-1.1406-0.53125-0.26562-1.1094-0.26562-1.7188-0.26562-0.25 0-0.67188 0-0.75-0.015625-0.3125-0.046875-0.51562-0.34375-0.51562-0.67188 0-0.03125 0-0.26562 0.15625-0.46875 0.39062 0.28125 0.8125 0.3125 1 0.3125 0.92188 0 1.6094-0.6875 1.6094-1.4531 0-0.375-0.15625-0.73438-0.40625-0.96875 0.35938-0.34375 0.71875-0.39062 0.89062-0.39062 0 0 0.078125 0 0.10938 0.015625-0.10938 0.03125-0.17188 0.14062-0.17188 0.26562 0 0.17188 0.14062 0.28125 0.29688 0.28125 0.09375 0 0.28125-0.0625 0.28125-0.29688zm-1.75 1.0781c0 0.26562 0 0.59375-0.15625 0.84375-0.078125 0.10938-0.3125 0.39062-0.70312 0.39062-0.875 0-0.875-1-0.875-1.2188 0-0.26562 0.015625-0.59375 0.15625-0.84375 0.078125-0.10938 0.3125-0.39062 0.71875-0.39062 0.85938 0 0.85938 0.98438 0.85938 1.2188zm1.0938 3.7344c0 0.54688-0.70312 1.0469-1.6719 1.0469-1.0156 0-1.7031-0.51562-1.7031-1.0469 0-0.45312 0.375-0.82812 0.8125-0.84375h0.59375c0.85938 0 1.9688 0 1.9688 0.84375z"/>
</symbol>
<symbol id="m" overflow="visible">
<path d="m4.9688-1.8594c0-0.98438-0.65625-1.8125-1.4844-2.0156l-1.2812-0.29688c-0.625-0.15625-1-0.6875-1-1.2656 0-0.70312 0.53125-1.3125 1.3125-1.3125 1.6562 0 1.875 1.6406 1.9375 2.0781 0.015625 0.0625 0.015625 0.125 0.125 0.125 0.125 0 0.125-0.046875 0.125-0.23438v-2c0-0.17188 0-0.25-0.10938-0.25-0.0625 0-0.078125 0.015625-0.14062 0.14062l-0.35938 0.5625c-0.29688-0.29688-0.70312-0.70312-1.5938-0.70312-1.1094 0-1.9375 0.875-1.9375 1.9375 0 0.82812 0.53125 1.5625 1.2969 1.8281 0.10938 0.03125 0.625 0.15625 1.3281 0.32812 0.26562 0.0625 0.5625 0.14062 0.84375 0.5 0.20312 0.26562 0.3125 0.59375 0.3125 0.92188 0 0.70312-0.5 1.4219-1.3438 1.4219-0.28125 0-1.0469-0.046875-1.5781-0.53125-0.57812-0.54688-0.60938-1.1719-0.60938-1.5312-0.015625-0.10938-0.09375-0.10938-0.125-0.10938-0.125 0-0.125 0.078125-0.125 0.25v2c0 0.17188 0 0.23438 0.10938 0.23438 0.0625 0 0.078125-0.015625 0.14062-0.125 0 0 0.03125-0.046875 0.35938-0.57812 0.3125 0.34375 0.95312 0.70312 1.8438 0.70312 1.1562 0 1.9531-0.96875 1.9531-2.0781z"/>
</symbol>
<symbol id="r" overflow="visible">
<path d="m3.625-3.7969c0-0.3125-0.3125-0.60938-0.73438-0.60938-0.73438 0-1.0938 0.67188-1.2188 1.0938v-1.0938l-1.3906 0.10938v0.3125c0.70312 0 0.78125 0.0625 0.78125 0.5625v2.6719c0 0.4375-0.10938 0.4375-0.78125 0.4375v0.3125l1.1406-0.03125c0.39062 0 0.85938 0 1.2656 0.03125v-0.3125h-0.21875c-0.73438 0-0.75-0.10938-0.75-0.46875v-1.5312c0-0.98438 0.42188-1.875 1.1719-1.875 0.0625 0 0.09375 0 0.10938 0.015625-0.03125 0-0.23438 0.125-0.23438 0.39062s0.21875 0.42188 0.4375 0.42188c0.17188 0 0.42188-0.125 0.42188-0.4375z"/>
</symbol>
<symbol id="q" overflow="visible">
<path d="m7.1406 0v-0.3125h-0.17188c-0.59375 0-0.73438-0.0625-0.84375-0.39062l-2.1562-6.2344c-0.046875-0.125-0.078125-0.20312-0.23438-0.20312s-0.1875 0.0625-0.23438 0.20312l-2.0625 5.9531c-0.1875 0.51562-0.57812 0.67188-1.125 0.67188v0.3125l1.0156-0.03125 1.1562 0.03125v-0.3125c-0.5 0-0.75-0.25-0.75-0.5 0-0.03125 0.015625-0.14062 0.015625-0.15625l0.46875-1.2969h2.4531l0.53125 1.5156c0.015625 0.046875 0.03125 0.10938 0.03125 0.14062 0 0.29688-0.5625 0.29688-0.82812 0.29688v0.3125c0.35938-0.03125 1.0625-0.03125 1.4375-0.03125zm-2.5781-2.5781h-2.2344l1.1094-3.25z"/>
</symbol>
<symbol id="x" overflow="visible">
<path d="m2.5469 0v-0.3125c-0.67188 0-0.78125 0-0.78125-0.4375v-6.1719l-1.4375 0.10938v0.3125c0.70312 0 0.78125 0.0625 0.78125 0.5625v5.1875c0 0.4375-0.10938 0.4375-0.78125 0.4375v0.3125l1.1094-0.03125z"/>
</symbol>
<symbol id="aj" overflow="visible">
<path d="m7.3281-2.4062v-0.3125l-1.2188 0.03125c-0.39062 0-1.25 0-1.6094-0.03125v0.3125h0.32812c0.89062 0 0.92188 0.10938 0.92188 0.46875v0.64062c0 1.125-1.2656 1.2031-1.5469 1.2031-0.64062 0-2.625-0.34375-2.625-3.3125 0-2.9844 1.9688-3.3125 2.5625-3.3125 1.0781 0 1.9844 0.89062 2.1719 2.3594 0.03125 0.14062 0.03125 0.17188 0.17188 0.17188 0.15625 0 0.15625-0.03125 0.15625-0.23438v-2.3594c0-0.17188 0-0.25-0.10938-0.25-0.046875 0-0.078125 0-0.15625 0.125l-0.5 0.73438c-0.32812-0.3125-0.85938-0.85938-1.8438-0.85938-1.8594 0-3.4688 1.5781-3.4688 3.625s1.5938 3.625 3.4844 3.625c0.73438 0 1.5312-0.26562 1.8594-0.84375 0.14062 0.21875 0.53125 0.60938 0.64062 0.60938 0.09375 0 0.09375-0.078125 0.09375-0.21875v-1.7344c0-0.39062 0.03125-0.4375 0.6875-0.4375z"/>
</symbol>
<symbol id="ai" overflow="visible">
<path d="m3.3125 0v-0.3125h-0.25c-0.79688 0-0.8125-0.10938-0.8125-0.46875v-5.25c0-0.35938 0.015625-0.46875 0.8125-0.46875h0.25v-0.3125c-0.34375 0.03125-1.125 0.03125-1.5156 0.03125-0.375 0-1.1719 0-1.5156-0.03125v0.3125h0.25c0.79688 0 0.82812 0.10938 0.82812 0.46875v5.25c0 0.35938-0.03125 0.46875-0.82812 0.46875h-0.25v0.3125c0.34375-0.03125 1.1406-0.03125 1.5156-0.03125 0.39062 0 1.1719 0 1.5156 0.03125z"/>
</symbol>
<symbol id="v" overflow="visible">
<path d="m5.3281 0v-0.3125c-0.51562 0-0.76562 0-0.76562-0.29688v-1.9062c0-0.85938 0-1.1562-0.3125-1.5156-0.14062-0.17188-0.46875-0.375-1.0469-0.375-0.73438 0-1.2031 0.42188-1.4844 1.0469v-1.0469l-1.4062 0.10938v0.3125c0.70312 0 0.78125 0.0625 0.78125 0.5625v2.6719c0 0.4375-0.10938 0.4375-0.78125 0.4375v0.3125l1.1406-0.03125 1.1094 0.03125v-0.3125c-0.67188 0-0.78125 0-0.78125-0.4375v-1.8438c0-1.0312 0.71875-1.5938 1.3438-1.5938 0.64062 0 0.75 0.53125 0.75 1.1094v2.3281c0 0.4375-0.10938 0.4375-0.78125 0.4375v0.3125l1.125-0.03125z"/>
</symbol>
<symbol id="ah" overflow="visible">
<path d="m6.8281-4.5-0.1875-2.25h-6.0938l-0.1875 2.25h0.25c0.14062-1.6094 0.28125-1.9375 1.7969-1.9375 0.17188 0 0.4375 0 0.53125 0.015625 0.21875 0.046875 0.21875 0.15625 0.21875 0.375v5.2656c0 0.32812 0 0.46875-1.0469 0.46875h-0.40625v0.3125c0.40625-0.03125 1.4219-0.03125 1.8906-0.03125 0.45312 0 1.4844 0 1.8906 0.03125v-0.3125h-0.40625c-1.0469 0-1.0469-0.14062-1.0469-0.46875v-5.2656c0-0.1875 0-0.32812 0.1875-0.375 0.10938-0.015625 0.375-0.015625 0.5625-0.015625 1.5156 0 1.6562 0.32812 1.7969 1.9375z"/>
</symbol>
<symbol id="u" overflow="visible">
<path d="m6.2188-4.9531c0-0.98438-0.98438-1.8594-2.3438-1.8594h-3.5312v0.3125h0.25c0.76562 0 0.78125 0.10938 0.78125 0.46875v5.25c0 0.35938-0.015625 0.46875-0.78125 0.46875h-0.25v0.3125c0.35938-0.03125 1.0938-0.03125 1.4688-0.03125s1.125 0 1.4844 0.03125v-0.3125h-0.25c-0.76562 0-0.78125-0.10938-0.78125-0.46875v-2.375h1.6875c1.1875 0 2.2656-0.79688 2.2656-1.7969zm-1.0312 0c0 0.46875 0 1.5469-1.5781 1.5469h-1.375v-2.6875c0-0.34375 0.015625-0.40625 0.48438-0.40625h0.89062c1.5781 0 1.5781 1.0625 1.5781 1.5469z"/>
</symbol>
<symbol id="aq" overflow="visible">
<path d="m7.1875-3.375c0-2.0312-1.5-3.6562-3.3125-3.6562-1.7969 0-3.3125 1.5938-3.3125 3.6562 0 2.0469 1.5312 3.5938 3.3125 3.5938 1.8125 0 3.3125-1.5781 3.3125-3.5938zm-1.0312-0.14062c0 2.6406-1.3594 3.4688-2.2812 3.4688-0.95312 0-2.2969-0.875-2.2969-3.4688 0-2.5781 1.4688-3.2656 2.2969-3.2656 0.85938 0 2.2812 0.70312 2.2812 3.2656z"/>
</symbol>
<symbol id="ap" overflow="visible">
<path d="m4.6875-2.1406c0-1.2656-0.98438-2.3281-2.1875-2.3281-1.25 0-2.2188 1.0938-2.2188 2.3281 0 1.2969 1.0312 2.25 2.2031 2.25 1.2031 0 2.2031-0.98438 2.2031-2.25zm-0.8125-0.078125c0 0.35938 0 0.90625-0.21875 1.3438-0.23438 0.45312-0.67188 0.73438-1.1562 0.73438-0.4375 0-0.875-0.20312-1.1406-0.67188-0.25-0.4375-0.25-1.0469-0.25-1.4062 0-0.39062 0-0.92188 0.23438-1.3594 0.26562-0.45312 0.73438-0.67188 1.1406-0.67188 0.4375 0 0.85938 0.21875 1.125 0.65625 0.26562 0.42188 0.26562 1 0.26562 1.375z"/>
</symbol>
<symbol id="ao" overflow="visible">
<path d="m6.0781-4.5312-0.28125-2.25h-5.4688v0.3125h0.23438c0.76562 0 0.79688 0.10938 0.79688 0.46875v5.2188c0 0.35938-0.03125 0.46875-0.79688 0.46875h-0.23438v0.3125c0.34375-0.03125 1.125-0.03125 1.5156-0.03125 0.40625 0 1.3125 0 1.6719 0.03125v-0.3125h-0.32812c-0.9375 0-0.9375-0.125-0.9375-0.46875v-2.4531h0.84375c0.96875 0 1.0625 0.3125 1.0625 1.1562h0.25v-2.6406h-0.25c0 0.84375-0.09375 1.1719-1.0625 1.1719h-0.84375v-2.5312c0-0.32812 0.015625-0.39062 0.48438-0.39062h1.1875c1.5 0 1.75 0.5625 1.9062 1.9375z"/>
</symbol>
<symbol id="an" overflow="visible">
<path d="m3.3125-1.2344v-0.5625h-0.25v0.54688c0 0.73438-0.29688 1.1094-0.67188 1.1094-0.67188 0-0.67188-0.90625-0.67188-1.0781v-2.7656h1.4375v-0.3125h-1.4375v-1.8281h-0.25c0 0.8125-0.29688 1.875-1.2812 1.9219v0.21875h0.84375v2.75c0 1.2188 0.9375 1.3438 1.2969 1.3438 0.70312 0 0.98438-0.70312 0.98438-1.3438z"/>
</symbol>
<symbol id="am" overflow="visible">
<path d="m7.2344 0v-0.3125h-0.1875c-0.51562 0-0.73438-0.046875-0.9375-0.35938l-2.1094-3.1719 1.375-2.0156c0.21875-0.3125 0.5625-0.625 1.4375-0.64062v-0.3125l-1.0938 0.03125c-0.40625 0-0.89062 0-1.2812-0.03125v0.3125c0.39062 0.015625 0.60938 0.23438 0.60938 0.45312 0 0.10938-0.015625 0.125-0.078125 0.23438l-1.1406 1.6875-1.2812-1.9219c-0.03125-0.03125-0.078125-0.10938-0.078125-0.15625 0-0.10938 0.21875-0.28125 0.65625-0.29688v-0.3125c-0.35938 0.03125-1.0781 0.03125-1.4531 0.03125l-1.2969-0.03125v0.3125h0.1875c0.54688 0 0.73438 0.0625 0.92188 0.34375l1.8281 2.7812-1.625 2.4062c-0.14062 0.20312-0.4375 0.65625-1.4531 0.65625v0.3125l1.1094-0.03125c0.375 0 0.92188 0 1.2812 0.03125v-0.3125c-0.46875 0-0.625-0.28125-0.625-0.45312 0-0.09375 0.03125-0.125 0.09375-0.23438l1.4219-2.0938 1.5625 2.375c0.03125 0.046875 0.0625 0.078125 0.0625 0.10938 0 0.125-0.21875 0.29688-0.65625 0.29688v0.3125c0.34375-0.03125 1.0781-0.03125 1.4531-0.03125z"/>
</symbol>
<symbol id="ag" overflow="visible">
<path d="m7.1406 0v-0.3125h-0.25c-0.76562 0-0.78125-0.10938-0.78125-0.46875v-5.25c0-0.35938 0.015625-0.46875 0.78125-0.46875h0.25v-0.3125c-0.35938 0.03125-1.0938 0.03125-1.4688 0.03125s-1.125 0-1.4688-0.03125v0.3125h0.23438c0.76562 0 0.78125 0.10938 0.78125 0.46875v2.3281h-2.9688v-2.3281c0-0.35938 0.015625-0.46875 0.78125-0.46875h0.23438v-0.3125c-0.34375 0.03125-1.0781 0.03125-1.4688 0.03125-0.375 0-1.125 0-1.4688-0.03125v0.3125h0.23438c0.76562 0 0.79688 0.10938 0.79688 0.46875v5.25c0 0.35938-0.03125 0.46875-0.79688 0.46875h-0.23438v0.3125c0.34375-0.03125 1.0938-0.03125 1.4688-0.03125s1.125 0 1.4688 0.03125v-0.3125h-0.23438c-0.76562 0-0.78125-0.10938-0.78125-0.46875v-2.6094h2.9688v2.6094c0 0.35938-0.015625 0.46875-0.78125 0.46875h-0.23438v0.3125c0.34375-0.03125 1.0781-0.03125 1.4531-0.03125 0.39062 0 1.125 0 1.4844 0.03125z"/>
</symbol>
<symbol id="i" overflow="visible">
<path d="m4.1719 0v-0.3125h-0.3125c-0.90625 0-0.92188-0.10938-0.92188-0.46875v-5.5938c0-0.25 0-0.26562-0.23438-0.26562-0.625 0.64062-1.5 0.64062-1.8125 0.64062v0.3125c0.20312 0 0.78125 0 1.2969-0.26562v5.1719c0 0.35938-0.03125 0.46875-0.92188 0.46875h-0.3125v0.3125c0.34375-0.03125 1.2031-0.03125 1.6094-0.03125 0.39062 0 1.2656 0 1.6094 0.03125z"/>
</symbol>
<symbol id="af" overflow="visible">
<path d="m4.5625-1.7031c0-0.8125-0.64062-1.5938-1.6719-1.8125 0.8125-0.26562 1.3906-0.95312 1.3906-1.75 0-0.8125-0.875-1.375-1.8281-1.375-1 0-1.7656 0.59375-1.7656 1.3594 0 0.32812 0.21875 0.51562 0.51562 0.51562s0.5-0.21875 0.5-0.51562c0-0.48438-0.46875-0.48438-0.60938-0.48438 0.29688-0.5 0.95312-0.625 1.3125-0.625 0.42188 0 0.96875 0.21875 0.96875 1.1094 0 0.125-0.03125 0.70312-0.28125 1.1406-0.29688 0.48438-0.64062 0.51562-0.89062 0.51562-0.078125 0.015625-0.3125 0.03125-0.39062 0.03125-0.078125 0.015625-0.14062 0.03125-0.14062 0.125 0 0.10938 0.0625 0.10938 0.23438 0.10938h0.4375c0.8125 0 1.1875 0.67188 1.1875 1.6562 0 1.3594-0.6875 1.6406-1.125 1.6406s-1.1875-0.17188-1.5312-0.75c0.34375 0.046875 0.65625-0.17188 0.65625-0.54688 0-0.35938-0.26562-0.5625-0.54688-0.5625-0.25 0-0.5625 0.14062-0.5625 0.57812 0 0.90625 0.92188 1.5625 2.0156 1.5625 1.2188 0 2.125-0.90625 2.125-1.9219z"/>
</symbol>
<symbol id="ae" overflow="visible">
<path d="m4.4688-1.7344h-0.23438c-0.0625 0.29688-0.125 0.73438-0.23438 0.89062-0.0625 0.078125-0.71875 0.078125-0.9375 0.078125h-1.7969l1.0625-1.0312c1.5469-1.375 2.1406-1.9062 2.1406-2.9062 0-1.1406-0.89062-1.9375-2.1094-1.9375-1.125 0-1.8594 0.92188-1.8594 1.8125 0 0.54688 0.5 0.54688 0.53125 0.54688 0.17188 0 0.51562-0.10938 0.51562-0.53125 0-0.25-0.1875-0.51562-0.53125-0.51562-0.078125 0-0.09375 0-0.125 0.015625 0.21875-0.65625 0.76562-1.0156 1.3438-1.0156 0.90625 0 1.3281 0.8125 1.3281 1.625 0 0.79688-0.48438 1.5781-1.0469 2.2031l-1.9062 2.125c-0.10938 0.10938-0.10938 0.14062-0.10938 0.375h3.7031z"/>
</symbol>
<symbol id="ad" overflow="visible">
<path d="m4.6875-1.6406v-0.3125h-0.98438v-4.5312c0-0.20312 0-0.26562-0.17188-0.26562-0.078125 0-0.10938 0-0.1875 0.125l-3.0625 4.6719v0.3125h2.6562v0.85938c0 0.35938-0.03125 0.46875-0.76562 0.46875h-0.20312v0.3125c0.40625-0.03125 0.92188-0.03125 1.3438-0.03125s0.9375 0 1.3594 0.03125v-0.3125h-0.21875c-0.73438 0-0.75-0.10938-0.75-0.46875v-0.85938zm-1.7031-0.3125h-2.4219l2.4219-3.7188z"/>
</symbol>
<symbol id="ac" overflow="visible">
<path d="m4.4688-2c0-1.1875-0.8125-2.1875-1.8906-2.1875-0.46875 0-0.90625 0.15625-1.2656 0.51562v-1.9531c0.20312 0.0625 0.53125 0.125 0.84375 0.125 1.2344 0 1.9375-0.90625 1.9375-1.0312 0-0.0625-0.03125-0.10938-0.10938-0.10938 0 0-0.03125 0-0.078125 0.03125-0.20312 0.09375-0.6875 0.29688-1.3594 0.29688-0.39062 0-0.85938-0.078125-1.3281-0.28125-0.078125-0.03125-0.10938-0.03125-0.10938-0.03125-0.10938 0-0.10938 0.078125-0.10938 0.23438v2.9531c0 0.17188 0 0.25 0.14062 0.25 0.078125 0 0.09375-0.015625 0.14062-0.078125 0.10938-0.15625 0.46875-0.70312 1.2812-0.70312 0.51562 0 0.76562 0.45312 0.84375 0.64062 0.15625 0.375 0.1875 0.75 0.1875 1.25 0 0.35938 0 0.95312-0.25 1.375-0.23438 0.39062-0.60938 0.64062-1.0625 0.64062-0.71875 0-1.2969-0.53125-1.4688-1.1094 0.03125 0 0.0625 0.015625 0.17188 0.015625 0.32812 0 0.5-0.25 0.5-0.48438 0-0.25-0.17188-0.5-0.5-0.5-0.14062 0-0.48438 0.078125-0.48438 0.53125 0 0.85938 0.6875 1.8281 1.7969 1.8281 1.1562 0 2.1719-0.95312 2.1719-2.2188z"/>
</symbol>
<symbol id="ab" overflow="visible">
<path d="m4.5625-2.0312c0-1.2656-0.89062-2.2188-2-2.2188-0.67188 0-1.0469 0.5-1.25 0.98438v-0.25c0-2.5156 1.2344-2.875 1.75-2.875 0.23438 0 0.65625 0.0625 0.875 0.40625-0.15625 0-0.54688 0-0.54688 0.4375 0 0.3125 0.23438 0.46875 0.45312 0.46875 0.15625 0 0.46875-0.09375 0.46875-0.48438 0-0.59375-0.4375-1.0781-1.2656-1.0781-1.2812 0-2.625 1.2812-2.625 3.4844 0 2.6719 1.1562 3.375 2.0781 3.375 1.1094 0 2.0625-0.9375 2.0625-2.25zm-0.90625-0.015625c0 0.48438 0 0.98438-0.17188 1.3438-0.29688 0.59375-0.75 0.64062-0.98438 0.64062-0.625 0-0.92188-0.59375-0.98438-0.75-0.1875-0.46875-0.1875-1.2656-0.1875-1.4375 0-0.78125 0.32812-1.7812 1.2188-1.7812 0.17188 0 0.625 0 0.9375 0.625 0.17188 0.35938 0.17188 0.875 0.17188 1.3594z"/>
</symbol>
<symbol id="al" overflow="visible">
<path d="m4.8281-6.4219h-2.4219c-1.2031 0-1.2344-0.125-1.2656-0.3125h-0.25l-0.32812 2.0469h0.25c0.03125-0.15625 0.10938-0.78125 0.25-0.90625 0.0625-0.0625 0.84375-0.0625 0.96875-0.0625h2.0625l-1.1094 1.5781c-0.90625 1.3438-1.2344 2.7344-1.2344 3.75 0 0.09375 0 0.54688 0.46875 0.54688 0.45312 0 0.45312-0.45312 0.45312-0.54688v-0.51562c0-0.54688 0.03125-1.0938 0.10938-1.625 0.046875-0.23438 0.17188-1.0938 0.625-1.7031l1.3438-1.9062c0.078125-0.10938 0.078125-0.125 0.078125-0.34375z"/>
</symbol>
<symbol id="ak" overflow="visible">
<path d="m4.5625-1.6719c0-0.35938-0.10938-0.8125-0.5-1.2344-0.1875-0.20312-0.34375-0.29688-0.98438-0.70312 0.71875-0.375 1.2031-0.89062 1.2031-1.5469 0-0.92188-0.875-1.4844-1.7812-1.4844-1 0-1.8125 0.73438-1.8125 1.6719 0 0.17188 0.015625 0.625 0.4375 1.0938 0.10938 0.10938 0.48438 0.35938 0.73438 0.53125-0.57812 0.29688-1.4375 0.84375-1.4375 1.8438 0 1.0469 1.0156 1.7188 2.0625 1.7188 1.125 0 2.0781-0.82812 2.0781-1.8906zm-0.71875-3.4844c0 0.57812-0.39062 1.0469-0.98438 1.3906l-1.2344-0.79688c-0.45312-0.29688-0.5-0.625-0.5-0.79688 0-0.60938 0.65625-1.0312 1.3594-1.0312 0.71875 0 1.3594 0.51562 1.3594 1.2344zm0.21875 3.8438c0 0.73438-0.75 1.25-1.5625 1.25-0.85938 0-1.5781-0.60938-1.5781-1.4375 0-0.57812 0.3125-1.2188 1.1562-1.6875l1.2344 0.78125c0.28125 0.1875 0.75 0.48438 0.75 1.0938z"/>
</symbol>
<symbol id="d" overflow="visible">
<path d="m4.4688-2c0-1.1875-0.8125-2.1875-1.8906-2.1875-0.46875 0-0.90625 0.15625-1.2656 0.51562v-1.9531c0.20312 0.0625 0.53125 0.125 0.84375 0.125 1.2344 0 1.9375-0.90625 1.9375-1.0312 0-0.0625-0.03125-0.10938-0.10938-0.10938 0 0-0.03125 0-0.078125 0.03125-0.20312 0.09375-0.6875 0.29688-1.3594 0.29688-0.39062 0-0.85938-0.078125-1.3281-0.28125-0.078125-0.03125-0.10938-0.03125-0.10938-0.03125-0.10938 0-0.10938 0.078125-0.10938 0.23438v2.9531c0 0.17188 0 0.25 0.14062 0.25 0.078125 0 0.09375-0.015625 0.14062-0.078125 0.10938-0.15625 0.46875-0.70312 1.2812-0.70312 0.51562 0 0.76562 0.45312 0.84375 0.64062 0.15625 0.375 0.1875 0.75 0.1875 1.25 0 0.35938 0 0.95312-0.25 1.375-0.23438 0.39062-0.60938 0.64062-1.0625 0.64062-0.71875 0-1.2969-0.53125-1.4688-1.1094 0.03125 0 0.0625 0.015625 0.17188 0.015625 0.32812 0 0.5-0.25 0.5-0.48438 0-0.25-0.17188-0.5-0.5-0.5-0.14062 0-0.48438 0.078125-0.48438 0.53125 0 0.85938 0.6875 1.8281 1.7969 1.8281 1.1562 0 2.1719-0.95312 2.1719-2.2188z"/>
</symbol>
<symbol id="b" overflow="visible">
<path d="m4.1719 0v-0.3125h-0.3125c-0.90625 0-0.92188-0.10938-0.92188-0.46875v-5.5938c0-0.25 0-0.26562-0.23438-0.26562-0.625 0.64062-1.5 0.64062-1.8125 0.64062v0.3125c0.20312 0 0.78125 0 1.2969-0.26562v5.1719c0 0.35938-0.03125 0.46875-0.92188 0.46875h-0.3125v0.3125c0.34375-0.03125 1.2031-0.03125 1.6094-0.03125 0.39062 0 1.2656 0 1.6094 0.03125z"/>
</symbol>
<symbol id="g" overflow="visible">
<path d="m4.5625-3.2812c0-2.6875-1.1562-3.3594-2.0469-3.3594-0.54688 0-1.0312 0.1875-1.4531 0.625-0.42188 0.45312-0.64062 0.875-0.64062 1.625 0 1.2344 0.875 2.2188 1.9844 2.2188 0.60938 0 1.0156-0.42188 1.25-1v0.32812c0 2.3281-1.0312 2.7812-1.6094 2.7812-0.17188 0-0.71875-0.015625-0.98438-0.35938 0.4375 0 0.51562-0.28125 0.51562-0.45312 0-0.3125-0.23438-0.45312-0.45312-0.45312-0.15625 0-0.45312 0.078125-0.45312 0.46875 0 0.67188 0.53125 1.0781 1.375 1.0781 1.2969 0 2.5156-1.3594 2.5156-3.5zm-0.92188-0.92188c0 0.82812-0.34375 1.7969-1.2188 1.7969-0.15625 0-0.625 0-0.92188-0.625-0.1875-0.375-0.1875-0.85938-0.1875-1.3594 0-0.53125 0-1 0.21875-1.375 0.26562-0.5 0.64062-0.625 0.98438-0.625 0.46875 0 0.79688 0.34375 0.96875 0.78125 0.10938 0.32812 0.15625 0.95312 0.15625 1.4062z"/>
</symbol>
<symbol id="e" overflow="visible">
<path d="m4.6875-1.6406v-0.3125h-0.98438v-4.5312c0-0.20312 0-0.26562-0.17188-0.26562-0.078125 0-0.10938 0-0.1875 0.125l-3.0625 4.6719v0.3125h2.6562v0.85938c0 0.35938-0.03125 0.46875-0.76562 0.46875h-0.20312v0.3125c0.40625-0.03125 0.92188-0.03125 1.3438-0.03125s0.9375 0 1.3594 0.03125v-0.3125h-0.21875c-0.73438 0-0.75-0.10938-0.75-0.46875v-0.85938zm-1.7031-0.3125h-2.4219l2.4219-3.7188z"/>
</symbol>
<symbol id="f" overflow="visible">
<path d="m4.5625-1.6719c0-0.35938-0.10938-0.8125-0.5-1.2344-0.1875-0.20312-0.34375-0.29688-0.98438-0.70312 0.71875-0.375 1.2031-0.89062 1.2031-1.5469 0-0.92188-0.875-1.4844-1.7812-1.4844-1 0-1.8125 0.73438-1.8125 1.6719 0 0.17188 0.015625 0.625 0.4375 1.0938 0.10938 0.10938 0.48438 0.35938 0.73438 0.53125-0.57812 0.29688-1.4375 0.84375-1.4375 1.8438 0 1.0469 1.0156 1.7188 2.0625 1.7188 1.125 0 2.0781-0.82812 2.0781-1.8906zm-0.71875-3.4844c0 0.57812-0.39062 1.0469-0.98438 1.3906l-1.2344-0.79688c-0.45312-0.29688-0.5-0.625-0.5-0.79688 0-0.60938 0.65625-1.0312 1.3594-1.0312 0.71875 0 1.3594 0.51562 1.3594 1.2344zm0.21875 3.8438c0 0.73438-0.75 1.25-1.5625 1.25-0.85938 0-1.5781-0.60938-1.5781-1.4375 0-0.57812 0.3125-1.2188 1.1562-1.6875l1.2344 0.78125c0.28125 0.1875 0.75 0.48438 0.75 1.0938z"/>
</symbol>
<symbol id="a" overflow="visible">
<path d="m4.5781-3.1875c0-0.79688-0.046875-1.5938-0.39062-2.3281-0.45312-0.96875-1.2812-1.125-1.6875-1.125-0.60938 0-1.3281 0.26562-1.75 1.1875-0.3125 0.6875-0.35938 1.4688-0.35938 2.2656 0 0.75 0.03125 1.6406 0.45312 2.4062 0.42188 0.79688 1.1562 1 1.6406 1 0.53125 0 1.2969-0.20312 1.7344-1.1562 0.3125-0.6875 0.35938-1.4688 0.35938-2.25zm-0.8125-0.125c0 0.75 0 1.4219-0.10938 2.0625-0.15625 0.95312-0.71875 1.25-1.1719 1.25-0.39062 0-0.98438-0.25-1.1562-1.2031-0.10938-0.59375-0.10938-1.5156-0.10938-2.1094 0-0.64062 0-1.2969 0.078125-1.8281 0.1875-1.1875 0.9375-1.2812 1.1875-1.2812 0.32812 0 0.98438 0.1875 1.1719 1.1719 0.10938 0.5625 0.10938 1.3125 0.10938 1.9375z"/>
</symbol>
<symbol id="j" overflow="visible">
<path d="m4.4688-1.7344h-0.23438c-0.0625 0.29688-0.125 0.73438-0.23438 0.89062-0.0625 0.078125-0.71875 0.078125-0.9375 0.078125h-1.7969l1.0625-1.0312c1.5469-1.375 2.1406-1.9062 2.1406-2.9062 0-1.1406-0.89062-1.9375-2.1094-1.9375-1.125 0-1.8594 0.92188-1.8594 1.8125 0 0.54688 0.5 0.54688 0.53125 0.54688 0.17188 0 0.51562-0.10938 0.51562-0.53125 0-0.25-0.1875-0.51562-0.53125-0.51562-0.078125 0-0.09375 0-0.125 0.015625 0.21875-0.65625 0.76562-1.0156 1.3438-1.0156 0.90625 0 1.3281 0.8125 1.3281 1.625 0 0.79688-0.48438 1.5781-1.0469 2.2031l-1.9062 2.125c-0.10938 0.10938-0.10938 0.14062-0.10938 0.375h3.7031z"/>
</symbol>
<symbol id="h" overflow="visible">
<path d="m4.5625-1.7031c0-0.8125-0.64062-1.5938-1.6719-1.8125 0.8125-0.26562 1.3906-0.95312 1.3906-1.75 0-0.8125-0.875-1.375-1.8281-1.375-1 0-1.7656 0.59375-1.7656 1.3594 0 0.32812 0.21875 0.51562 0.51562 0.51562s0.5-0.21875 0.5-0.51562c0-0.48438-0.46875-0.48438-0.60938-0.48438 0.29688-0.5 0.95312-0.625 1.3125-0.625 0.42188 0 0.96875 0.21875 0.96875 1.1094 0 0.125-0.03125 0.70312-0.28125 1.1406-0.29688 0.48438-0.64062 0.51562-0.89062 0.51562-0.078125 0.015625-0.3125 0.03125-0.39062 0.03125-0.078125 0.015625-0.14062 0.03125-0.14062 0.125 0 0.10938 0.0625 0.10938 0.23438 0.10938h0.4375c0.8125 0 1.1875 0.67188 1.1875 1.6562 0 1.3594-0.6875 1.6406-1.125 1.6406s-1.1875-0.17188-1.5312-0.75c0.34375 0.046875 0.65625-0.17188 0.65625-0.54688 0-0.35938-0.26562-0.5625-0.54688-0.5625-0.25 0-0.5625 0.14062-0.5625 0.57812 0 0.90625 0.92188 1.5625 2.0156 1.5625 1.2188 0 2.125-0.90625 2.125-1.9219z"/>
</symbol>
<symbol id="c" overflow="visible">
<path d="m4.8281-6.4219h-2.4219c-1.2031 0-1.2344-0.125-1.2656-0.3125h-0.25l-0.32812 2.0469h0.25c0.03125-0.15625 0.10938-0.78125 0.25-0.90625 0.0625-0.0625 0.84375-0.0625 0.96875-0.0625h2.0625l-1.1094 1.5781c-0.90625 1.3438-1.2344 2.7344-1.2344 3.75 0 0.09375 0 0.54688 0.46875 0.54688 0.45312 0 0.45312-0.45312 0.45312-0.54688v-0.51562c0-0.54688 0.03125-1.0938 0.10938-1.625 0.046875-0.23438 0.17188-1.0938 0.625-1.7031l1.3438-1.9062c0.078125-0.10938 0.078125-0.125 0.078125-0.34375z"/>
</symbol>
<symbol id="l" overflow="visible">
<path d="m4.5625-2.0312c0-1.2656-0.89062-2.2188-2-2.2188-0.67188 0-1.0469 0.5-1.25 0.98438v-0.25c0-2.5156 1.2344-2.875 1.75-2.875 0.23438 0 0.65625 0.0625 0.875 0.40625-0.15625 0-0.54688 0-0.54688 0.4375 0 0.3125 0.23438 0.46875 0.45312 0.46875 0.15625 0 0.46875-0.09375 0.46875-0.48438 0-0.59375-0.4375-1.0781-1.2656-1.0781-1.2812 0-2.625 1.2812-2.625 3.4844 0 2.6719 1.1562 3.375 2.0781 3.375 1.1094 0 2.0625-0.9375 2.0625-2.25zm-0.90625-0.015625c0 0.48438 0 0.98438-0.17188 1.3438-0.29688 0.59375-0.75 0.64062-0.98438 0.64062-0.625 0-0.92188-0.59375-0.98438-0.75-0.1875-0.46875-0.1875-1.2656-0.1875-1.4375 0-0.78125 0.32812-1.7812 1.2188-1.7812 0.17188 0 0.625 0 0.9375 0.625 0.17188 0.35938 0.17188 0.875 0.17188 1.3594z"/>
</symbol>
</defs>
<g>
<path transform="matrix(1,0,0,-1,22.88,55.947)" d="m11.956 13.947h-23.91c-1.1016 0-1.9922-0.89062-1.9922-1.9922v-23.91c0-1.1016 0.89062-1.9922 1.9922-1.9922h23.91c1.1016 0 1.9922 0.89062 1.9922 1.9922v23.91c0 1.1016-0.89062 1.9922-1.9922 1.9922z" fill="#daf7fc" stroke="#0cc9f0" stroke-miterlimit="10" stroke-width=".79701"/>
<g>
<use x="18.383" y="53.401" xlink:href="#at"/>
<use x="24.609625" y="53.401" xlink:href="#w"/>
<use x="15.408" y="65.356" xlink:href="#d"/>
<use x="20.3893" y="65.356" xlink:href="#b"/>
<use x="25.3706" y="65.356" xlink:href="#g"/>
</g>
<path transform="matrix(1,0,0,-1,22.88,55.947)" d="m11.956-16.737h-23.91c-1.1016 0-1.9922-0.89453-1.9922-1.9922v-23.91c0-1.1016 0.89062-1.9961 1.9922-1.9961h23.91c1.1016 0 1.9922 0.89453 1.9922 1.9961v23.91c0 1.0977-0.89062 1.9922-1.9922 1.9922z" fill="#dae9fe" stroke="#0c6dfd" stroke-miterlimit="10" stroke-width=".79701"/>
<g>
<use x="16.653" y="84.086" xlink:href="#t"/>
<use x="24.12495" y="84.086" xlink:href="#p"/>
<use x="15.408" y="96.041" xlink:href="#e"/>
<use x="20.3893" y="96.041" xlink:href="#g"/>
<use x="25.3706" y="96.041" xlink:href="#e"/>
</g>
<path transform="matrix(1,0,0,-1,22.88,55.947)" d="m11.956-47.424h-23.91c-1.1016 0-1.9922-0.89062-1.9922-1.9922v-23.91c0-1.1016 0.89062-1.9922 1.9922-1.9922h23.91c1.1016 0 1.9922 0.89062 1.9922 1.9922v23.91c0 1.1016-0.89062 1.9922-1.9922 1.9922z" fill="#dae9fe" stroke="#0c6dfd" stroke-miterlimit="10" stroke-width=".79701"/>
<g>
<use x="19.006" y="114.771" xlink:href="#aa"/>
<use x="15.408" y="126.726" xlink:href="#e"/>
<use x="20.3893" y="126.726" xlink:href="#b"/>
<use x="25.3706" y="126.726" xlink:href="#f"/>
</g>
<path transform="matrix(1,0,0,-1,22.88,55.947)" d="m11.956-78.108h-23.91c-1.1016 0-1.9922-0.89062-1.9922-1.9922v-23.91c0-1.1016 0.89062-1.9922 1.9922-1.9922h23.91c1.1016 0 1.9922 0.89062 1.9922 1.9922v23.91c0 1.1016-0.89062 1.9922-1.9922 1.9922z" fill="#dae9fe" stroke="#0c6dfd" stroke-miterlimit="10" stroke-width=".79701"/>
<g>
<use x="16.446" y="145.456" xlink:href="#z"/>
<use x="23.77947" y="145.456" xlink:href="#s"/>
<use x="15.408" y="157.411" xlink:href="#e"/>
<use x="20.3893" y="157.411" xlink:href="#a"/>
<use x="25.3706" y="157.411" xlink:href="#j"/>
</g>
<path transform="matrix(1,0,0,-1,22.88,55.947)" d="m11.956-108.8h-23.91c-1.1016 0-1.9922-0.89062-1.9922-1.9922v-23.91c0-1.1016 0.89062-1.9922 1.9922-1.9922h23.91c1.1016 0 1.9922 0.89062 1.9922 1.9922v23.91c0 1.1016-0.89062 1.9922-1.9922 1.9922z" fill="#dae9fe" stroke="#0c6dfd" stroke-miterlimit="10" stroke-width=".79701"/>
<g>
<use x="17.318" y="176.141" xlink:href="#o"/>
<use x="24.51299" y="176.141" xlink:href="#y"/>
<use x="15.408" y="188.096" xlink:href="#h"/>
<use x="20.3893" y="188.096" xlink:href="#c"/>
<use x="25.3706" y="188.096" xlink:href="#l"/>
</g>
<path transform="matrix(1,0,0,-1,22.88,55.947)" d="m42.64 13.947h-23.91c-1.1016 0-1.9922-0.89062-1.9922-1.9922v-23.91c0-1.1016 0.89062-1.9922 1.9922-1.9922h23.91c1.1016 0 1.9922 0.89062 1.9922 1.9922v23.91c0 1.1016-0.89062 1.9922-1.9922 1.9922z" fill="#daf7fc" stroke="#0cc9f0" stroke-miterlimit="10" stroke-width=".79701"/>
<g>
<use x="47.823" y="53.401" xlink:href="#n"/>
<use x="54.87951" y="53.401" xlink:href="#k"/>
<use x="46.093" y="65.356" xlink:href="#g"/>
<use x="51.0743" y="65.356" xlink:href="#a"/>
<use x="56.0556" y="65.356" xlink:href="#a"/>
</g>
<path transform="matrix(1,0,0,-1,22.88,55.947)" d="m42.64-16.737h-23.91c-1.1016 0-1.9922-0.89453-1.9922-1.9922v-23.91c0-1.1016 0.89062-1.9961 1.9922-1.9961h23.91c1.1016 0 1.9922 0.89453 1.9922 1.9961v23.91c0 1.0977-0.89062 1.9922-1.9922 1.9922z" fill="#daf7fc" stroke="#0cc9f0" stroke-miterlimit="10" stroke-width=".79701"/>
<g>
<use x="46.508" y="84.086" xlink:href="#as"/>
<use x="55.640715" y="84.086" xlink:href="#ar"/>
<use x="46.093" y="96.041" xlink:href="#c"/>
<use x="51.0743" y="96.041" xlink:href="#h"/>
<use x="56.0556" y="96.041" xlink:href="#l"/>
</g>
<path transform="matrix(1,0,0,-1,22.88,55.947)" d="m42.64-47.424h-23.91c-1.1016 0-1.9922-0.89062-1.9922-1.9922v-23.91c0-1.1016 0.89062-1.9922 1.9922-1.9922h23.91c1.1016 0 1.9922 0.89062 1.9922 1.9922v23.91c0 1.1016-0.89062 1.9922-1.9922 1.9922z" fill="#daf7fc" stroke="#0cc9f0" stroke-miterlimit="10" stroke-width=".79701"/>
<g>
<use x="47.477" y="114.771" xlink:href="#o"/>
<use x="54.67199" y="114.771" xlink:href="#p"/>
<use x="46.093" y="126.726" xlink:href="#d"/>
<use x="51.0743" y="126.726" xlink:href="#g"/>
<use x="56.0556" y="126.726" xlink:href="#a"/>
</g>
<path transform="matrix(1,0,0,-1,22.88,55.947)" d="m42.64-78.108h-23.91c-1.1016 0-1.9922-0.89062-1.9922-1.9922v-23.91c0-1.1016 0.89062-1.9922 1.9922-1.9922h23.91c1.1016 0 1.9922 0.89062 1.9922 1.9922v23.91c0 1.1016-0.89062 1.9922-1.9922 1.9922z" fill="#daf7fc" stroke="#0cc9f0" stroke-miterlimit="10" stroke-width=".79701"/>
<g>
<use x="48.847" y="145.456" xlink:href="#m"/>
<use x="54.382221" y="145.456" xlink:href="#r"/>
<use x="46.093" y="157.411" xlink:href="#d"/>
<use x="51.0743" y="157.411" xlink:href="#e"/>
<use x="56.0556" y="157.411" xlink:href="#f"/>
</g>
<path transform="matrix(1,0,0,-1,22.88,55.947)" d="m42.64-108.8h-23.91c-1.1016 0-1.9922-0.89062-1.9922-1.9922v-23.91c0-1.1016 0.89062-1.9922 1.9922-1.9922h23.91c1.1016 0 1.9922 0.89062 1.9922 1.9922v23.91c0 1.1016-0.89062 1.9922-1.9922 1.9922z" fill="#daf7fc" stroke="#0cc9f0" stroke-miterlimit="10" stroke-width=".79701"/>
<g>
<use x="47.546" y="176.141" xlink:href="#n"/>
<use x="54.60251" y="176.141" xlink:href="#p"/>
<use x="46.093" y="188.096" xlink:href="#d"/>
<use x="51.0743" y="188.096" xlink:href="#a"/>
<use x="56.0556" y="188.096" xlink:href="#j"/>
</g>
<path transform="matrix(1,0,0,-1,22.88,55.947)" d="m73.327 13.947h-23.91c-1.1016 0-1.9922-0.89062-1.9922-1.9922v-23.91c0-1.1016 0.89062-1.9922 1.9922-1.9922h23.91c1.0977 0 1.9922 0.89062 1.9922 1.9922v23.91c0 1.1016-0.89453 1.9922-1.9922 1.9922z" fill="#daf7fc" stroke="#0cc9f0" stroke-miterlimit="10" stroke-width=".79701"/>
<g>
<use x="80.722" y="53.401" xlink:href="#n"/>
<use x="76.778" y="65.356" xlink:href="#c"/>
<use x="81.7593" y="65.356" xlink:href="#g"/>
<use x="86.7406" y="65.356" xlink:href="#g"/>
</g>
<path transform="matrix(1,0,0,-1,22.88,55.947)" d="m73.327-16.737h-23.91c-1.1016 0-1.9922-0.89453-1.9922-1.9922v-23.91c0-1.1016 0.89062-1.9961 1.9922-1.9961h23.91c1.0977 0 1.9922 0.89453 1.9922 1.9961v23.91c0 1.0977-0.89453 1.9922-1.9922 1.9922z" fill="#daf7fc" stroke="#0cc9f0" stroke-miterlimit="10" stroke-width=".79701"/>
<g>
<use x="79.13" y="84.086" xlink:href="#q"/>
<use x="86.60195" y="84.086" xlink:href="#x"/>
<use x="76.778" y="96.041" xlink:href="#d"/>
<use x="81.7593" y="96.041" xlink:href="#c"/>
<use x="86.7406" y="96.041" xlink:href="#c"/>
</g>
<path transform="matrix(1,0,0,-1,22.88,55.947)" d="m73.327-47.424h-23.91c-1.1016 0-1.9922-0.89062-1.9922-1.9922v-23.91c0-1.1016 0.89062-1.9922 1.9922-1.9922h23.91c1.0977 0 1.9922 0.89062 1.9922 1.9922v23.91c0 1.1016-0.89453 1.9922-1.9922 1.9922z" fill="#daf7fc" stroke="#0cc9f0" stroke-miterlimit="10" stroke-width=".79701"/>
<g>
<use x="77.85" y="114.771" xlink:href="#aj"/>
<use x="85.667652" y="114.771" xlink:href="#p"/>
<use x="76.778" y="126.726" xlink:href="#d"/>
<use x="81.7593" y="126.726" xlink:href="#c"/>
<use x="86.7406" y="126.726" xlink:href="#c"/>
</g>
<path transform="matrix(1,0,0,-1,22.88,55.947)" d="m73.327-78.108h-23.91c-1.1016 0-1.9922-0.89062-1.9922-1.9922v-23.91c0-1.1016 0.89062-1.9922 1.9922-1.9922h23.91c1.0977 0 1.9922 0.89062 1.9922 1.9922v23.91c0 1.1016-0.89453 1.9922-1.9922 1.9922z" fill="#daf7fc" stroke="#0cc9f0" stroke-miterlimit="10" stroke-width=".79701"/>
<g>
<use x="79.684" y="145.456" xlink:href="#ai"/>
<use x="83.281495" y="145.456" xlink:href="#v"/>
<use x="76.778" y="157.411" xlink:href="#d"/>
<use x="81.7593" y="157.411" xlink:href="#d"/>
<use x="86.7406" y="157.411" xlink:href="#l"/>
</g>
<path transform="matrix(1,0,0,-1,22.88,55.947)" d="m73.327-108.8h-23.91c-1.1016 0-1.9922-0.89062-1.9922-1.9922v-23.91c0-1.1016 0.89062-1.9922 1.9922-1.9922h23.91c1.0977 0 1.9922 0.89062 1.9922 1.9922v23.91c0 1.1016-0.89453 1.9922-1.9922 1.9922z" fill="#daf7fc" stroke="#0cc9f0" stroke-miterlimit="10" stroke-width=".79701"/>
<g>
<use x="79.269" y="176.141" xlink:href="#ah"/>
<use x="86.46399" y="176.141" xlink:href="#x"/>
<use x="76.778" y="188.096" xlink:href="#d"/>
<use x="81.7593" y="188.096" xlink:href="#g"/>
<use x="86.7406" y="188.096" xlink:href="#a"/>
</g>
<path transform="matrix(1,0,0,-1,22.88,55.947)" d="m104.01 13.947h-23.91c-1.1016 0-1.9922-0.89062-1.9922-1.9922v-23.91c0-1.1016 0.89062-1.9922 1.9922-1.9922h23.91c1.1016 0 1.9922 0.89062 1.9922 1.9922v23.91c0 1.1016-0.89062 1.9922-1.9922 1.9922z" fill="#ecf7dc" stroke="#83cb15" stroke-miterlimit="10" stroke-width=".79701"/>
<g>
<use x="111.337" y="53.401" xlink:href="#o"/>
<use x="104.972" y="65.356" xlink:href="#b"/>
<use x="109.9533" y="65.356" xlink:href="#a"/>
<use x="114.9346" y="65.356" xlink:href="#g"/>
<use x="119.9159" y="65.356" xlink:href="#a"/>
</g>
<path transform="matrix(1,0,0,-1,22.88,55.947)" d="m104.01-16.737h-23.91c-1.1016 0-1.9922-0.89453-1.9922-1.9922v-23.91c0-1.1016 0.89062-1.9961 1.9922-1.9961h23.91c1.1016 0 1.9922 0.89453 1.9922 1.9961v23.91c0 1.0977-0.89062 1.9922-1.9922 1.9922z" fill="#daf7fc" stroke="#0cc9f0" stroke-miterlimit="10" stroke-width=".79701"/>
<g>
<use x="110.784" y="84.086" xlink:href="#m"/>
<use x="116.319221" y="84.086" xlink:href="#w"/>
<use x="107.463" y="96.041" xlink:href="#c"/>
<use x="112.4443" y="96.041" xlink:href="#f"/>
<use x="117.4256" y="96.041" xlink:href="#l"/>
</g>
<path transform="matrix(1,0,0,-1,22.88,55.947)" d="m104.01-47.424h-23.91c-1.1016 0-1.9922-0.89062-1.9922-1.9922v-23.91c0-1.1016 0.89062-1.9922 1.9922-1.9922h23.91c1.1016 0 1.9922 0.89062 1.9922 1.9922v23.91c0 1.1016-0.89062 1.9922-1.9922 1.9922z" fill="#daf7fc" stroke="#0cc9f0" stroke-miterlimit="10" stroke-width=".79701"/>
<g>
<use x="108.812" y="114.771" xlink:href="#aj"/>
<use x="116.629652" y="114.771" xlink:href="#k"/>
<use x="107.463" y="126.726" xlink:href="#c"/>
<use x="112.4443" y="126.726" xlink:href="#f"/>
<use x="117.4256" y="126.726" xlink:href="#e"/>
</g>
<path transform="matrix(1,0,0,-1,22.88,55.947)" d="m104.01-78.108h-23.91c-1.1016 0-1.9922-0.89062-1.9922-1.9922v-23.91c0-1.1016 0.89062-1.9922 1.9922-1.9922h23.91c1.1016 0 1.9922 0.89062 1.9922 1.9922v23.91c0 1.1016-0.89062 1.9922-1.9922 1.9922z" fill="#daf7fc" stroke="#0cc9f0" stroke-miterlimit="10" stroke-width=".79701"/>
<g>
<use x="109.4" y="145.456" xlink:href="#m"/>
<use x="114.935221" y="145.456" xlink:href="#v"/>
<use x="107.463" y="157.411" xlink:href="#c"/>
<use x="112.4443" y="157.411" xlink:href="#a"/>
<use x="117.4256" y="157.411" xlink:href="#c"/>
</g>
<path transform="matrix(1,0,0,-1,22.88,55.947)" d="m104.01-108.8h-23.91c-1.1016 0-1.9922-0.89062-1.9922-1.9922v-23.91c0-1.1016 0.89062-1.9922 1.9922-1.9922h23.91c1.1016 0 1.9922 0.89062 1.9922 1.9922v23.91c0 1.1016-0.89062 1.9922-1.9922 1.9922z" fill="#daf7fc" stroke="#0cc9f0" stroke-miterlimit="10" stroke-width=".79701"/>
<g>
<use x="108.778" y="176.141" xlink:href="#u"/>
<use x="115.558546" y="176.141" xlink:href="#s"/>
<use x="107.463" y="188.096" xlink:href="#c"/>
<use x="112.4443" y="188.096" xlink:href="#b"/>
<use x="117.4256" y="188.096" xlink:href="#l"/>
</g>
<path transform="matrix(1,0,0,-1,22.88,55.947)" d="m134.7 13.947h-23.91c-1.1016 0-1.9961-0.89062-1.9961-1.9922v-23.91c0-1.1016 0.89453-1.9922 1.9961-1.9922h23.91c1.0977 0 1.9922 0.89062 1.9922 1.9922v23.91c0 1.1016-0.89453 1.9922-1.9922 1.9922z" fill="#ecf7dc" stroke="#83cb15" stroke-miterlimit="10" stroke-width=".79701"/>
<g>
<use x="141.884" y="53.401" xlink:href="#t"/>
<use x="135.657" y="65.356" xlink:href="#b"/>
<use x="140.6383" y="65.356" xlink:href="#e"/>
<use x="145.6196" y="65.356" xlink:href="#a"/>
<use x="150.6009" y="65.356" xlink:href="#a"/>
</g>
<path transform="matrix(1,0,0,-1,22.88,55.947)" d="m134.7-16.737h-23.91c-1.1016 0-1.9961-0.89453-1.9961-1.9922v-23.91c0-1.1016 0.89453-1.9961 1.9961-1.9961h23.91c1.0977 0 1.9922 0.89453 1.9922 1.9961v23.91c0 1.0977-0.89453 1.9922-1.9922 1.9922z" fill="#ecf7dc" stroke="#83cb15" stroke-miterlimit="10" stroke-width=".79701"/>
<g>
<use x="142.23" y="84.086" xlink:href="#u"/>
<use x="135.657" y="96.041" xlink:href="#b"/>
<use x="140.6383" y="96.041" xlink:href="#a"/>
<use x="145.6196" y="96.041" xlink:href="#b"/>
<use x="150.6009" y="96.041" xlink:href="#b"/>
</g>
<path transform="matrix(1,0,0,-1,22.88,55.947)" d="m134.7-47.424h-23.91c-1.1016 0-1.9961-0.89062-1.9961-1.9922v-23.91c0-1.1016 0.89453-1.9922 1.9961-1.9922h23.91c1.0977 0 1.9922 0.89062 1.9922 1.9922v23.91c0 1.1016-0.89453 1.9922-1.9922 1.9922z" fill="#daf7fc" stroke="#0cc9f0" stroke-miterlimit="10" stroke-width=".79701"/>
<g>
<use x="139.919" y="114.771" xlink:href="#q"/>
<use x="147.39095" y="114.771" xlink:href="#y"/>
<use x="138.148" y="126.726" xlink:href="#g"/>
<use x="143.1293" y="126.726" xlink:href="#e"/>
<use x="148.1106" y="126.726" xlink:href="#c"/>
</g>
<path transform="matrix(1,0,0,-1,22.88,55.947)" d="m134.7-78.108h-23.91c-1.1016 0-1.9961-0.89062-1.9961-1.9922v-23.91c0-1.1016 0.89453-1.9922 1.9961-1.9922h23.91c1.0977 0 1.9922 0.89062 1.9922 1.9922v23.91c0 1.1016-0.89453 1.9922-1.9922 1.9922z" fill="#daf7fc" stroke="#0cc9f0" stroke-miterlimit="10" stroke-width=".79701"/>
<g>
<use x="140.085" y="145.456" xlink:href="#m"/>
<use x="145.620221" y="145.456" xlink:href="#s"/>
<use x="138.148" y="157.411" xlink:href="#f"/>
<use x="143.1293" y="157.411" xlink:href="#h"/>
<use x="148.1106" y="157.411" xlink:href="#e"/>
</g>
<path transform="matrix(1,0,0,-1,22.88,55.947)" d="m134.7-108.8h-23.91c-1.1016 0-1.9961-0.89062-1.9961-1.9922v-23.91c0-1.1016 0.89453-1.9922 1.9961-1.9922h23.91c1.0977 0 1.9922 0.89062 1.9922 1.9922v23.91c0 1.1016-0.89453 1.9922-1.9922 1.9922z" fill="#daf7fc" stroke="#0cc9f0" stroke-miterlimit="10" stroke-width=".79701"/>
<g>
<use x="140.708" y="176.141" xlink:href="#n"/>
<use x="147.76451" y="176.141" xlink:href="#w"/>
<use x="138.148" y="188.096" xlink:href="#c"/>
<use x="143.1293" y="188.096" xlink:href="#a"/>
<use x="148.1106" y="188.096" xlink:href="#h"/>
</g>
<path transform="matrix(1,0,0,-1,22.88,55.947)" d="m165.38 13.947h-23.91c-1.1016 0-1.9922-0.89062-1.9922-1.9922v-23.91c0-1.1016 0.89062-1.9922 1.9922-1.9922h23.91c1.1016 0 1.9922 0.89062 1.9922 1.9922v23.91c0 1.1016-0.89062 1.9922-1.9922 1.9922z" fill="#ecf7dc" stroke="#83cb15" stroke-miterlimit="10" stroke-width=".79701"/>
<g>
<use x="172.43" y="53.401" xlink:href="#aq"/>
<use x="166.342" y="65.356" xlink:href="#b"/>
<use x="171.3233" y="65.356" xlink:href="#h"/>
<use x="176.3046" y="65.356" xlink:href="#b"/>
<use x="181.2859" y="65.356" xlink:href="#a"/>
</g>
<path transform="matrix(1,0,0,-1,22.88,55.947)" d="m165.38-16.737h-23.91c-1.1016 0-1.9922-0.89453-1.9922-1.9922v-23.91c0-1.1016 0.89062-1.9961 1.9922-1.9961h23.91c1.1016 0 1.9922 0.89453 1.9922 1.9961v23.91c0 1.0977-0.89062 1.9922-1.9922 1.9922z" fill="#ecf7dc" stroke="#83cb15" stroke-miterlimit="10" stroke-width=".79701"/>
<g>
<use x="173.538" y="84.086" xlink:href="#m"/>
<use x="166.342" y="96.041" xlink:href="#b"/>
<use x="171.3233" y="96.041" xlink:href="#a"/>
<use x="176.3046" y="96.041" xlink:href="#a"/>
<use x="181.2859" y="96.041" xlink:href="#a"/>
</g>
<path transform="matrix(1,0,0,-1,22.88,55.947)" d="m165.38-47.424h-23.91c-1.1016 0-1.9922-0.89062-1.9922-1.9922v-23.91c0-1.1016 0.89062-1.9922 1.9922-1.9922h23.91c1.1016 0 1.9922 0.89062 1.9922 1.9922v23.91c0 1.1016-0.89062 1.9922-1.9922 1.9922z" fill="#daf7fc" stroke="#0cc9f0" stroke-miterlimit="10" stroke-width=".79701"/>
<g>
<use x="171.324" y="114.771" xlink:href="#m"/>
<use x="176.859221" y="114.771" xlink:href="#k"/>
<use x="168.833" y="126.726" xlink:href="#g"/>
<use x="173.8143" y="126.726" xlink:href="#e"/>
<use x="178.7956" y="126.726" xlink:href="#b"/>
</g>
<path transform="matrix(1,0,0,-1,22.88,55.947)" d="m165.38-78.108h-23.91c-1.1016 0-1.9922-0.89062-1.9922-1.9922v-23.91c0-1.1016 0.89062-1.9922 1.9922-1.9922h23.91c1.1016 0 1.9922 0.89062 1.9922 1.9922v23.91c0 1.1016-0.89062 1.9922-1.9922 1.9922z" fill="#daf7fc" stroke="#0cc9f0" stroke-miterlimit="10" stroke-width=".79701"/>
<g>
<use x="170.909" y="145.456" xlink:href="#ah"/>
<use x="177.277094" y="145.456" xlink:href="#k"/>
<use x="168.833" y="157.411" xlink:href="#f"/>
<use x="173.8143" y="157.411" xlink:href="#c"/>
<use x="178.7956" y="157.411" xlink:href="#a"/>
</g>
<path transform="matrix(1,0,0,-1,22.88,55.947)" d="m165.38-108.8h-23.91c-1.1016 0-1.9922-0.89062-1.9922-1.9922v-23.91c0-1.1016 0.89062-1.9922 1.9922-1.9922h23.91c1.1016 0 1.9922 0.89062 1.9922 1.9922v23.91c0 1.1016-0.89062 1.9922-1.9922 1.9922z" fill="#daf7fc" stroke="#0cc9f0" stroke-miterlimit="10" stroke-width=".79701"/>
<g>
<use x="170.563" y="176.141" xlink:href="#u"/>
<use x="177.064593" y="176.141" xlink:href="#ap"/>
<use x="168.833" y="188.096" xlink:href="#f"/>
<use x="173.8143" y="188.096" xlink:href="#b"/>
<use x="178.7956" y="188.096" xlink:href="#j"/>
</g>
<path transform="matrix(1,0,0,-1,22.88,55.947)" d="m196.07 13.947h-23.914c-1.0977 0-1.9922-0.89062-1.9922-1.9922v-23.91c0-1.1016 0.89453-1.9922 1.9922-1.9922h23.914c1.0977 0 1.9922 0.89062 1.9922 1.9922v23.91c0 1.1016-0.89453 1.9922-1.9922 1.9922z" fill="#fff5d9" stroke="#ffc106" stroke-miterlimit="10" stroke-width=".79701"/>
<g>
<use x="203.738" y="53.401" xlink:href="#ao"/>
<use x="197.027" y="65.356" xlink:href="#b"/>
<use x="202.0083" y="65.356" xlink:href="#l"/>
<use x="206.9896" y="65.356" xlink:href="#f"/>
<use x="211.9709" y="65.356" xlink:href="#a"/>
</g>
<path transform="matrix(1,0,0,-1,22.88,55.947)" d="m196.07-16.737h-23.914c-1.0977 0-1.9922-0.89453-1.9922-1.9922v-23.91c0-1.1016 0.89453-1.9961 1.9922-1.9961h23.914c1.0977 0 1.9922 0.89453 1.9922 1.9961v23.91c0 1.0977-0.89453 1.9922-1.9922 1.9922z" fill="#ecf7dc" stroke="#83cb15" stroke-miterlimit="10" stroke-width=".79701"/>
<g>
<use x="202.009" y="84.086" xlink:href="#o"/>
<use x="209.20399" y="84.086" xlink:href="#x"/>
<use x="197.027" y="96.041" xlink:href="#b"/>
<use x="202.0083" y="96.041" xlink:href="#j"/>
<use x="206.9896" y="96.041" xlink:href="#d"/>
<use x="211.9709" y="96.041" xlink:href="#d"/>
</g>
<path transform="matrix(1,0,0,-1,22.88,55.947)" d="m196.07-47.424h-23.914c-1.0977 0-1.9922-0.89062-1.9922-1.9922v-23.91c0-1.1016 0.89453-1.9922 1.9922-1.9922h23.914c1.0977 0 1.9922 0.89062 1.9922 1.9922v23.91c0 1.1016-0.89453 1.9922-1.9922 1.9922z" fill="#ecf7dc" stroke="#83cb15" stroke-miterlimit="10" stroke-width=".79701"/>
<g>
<use x="201.511" y="114.771" xlink:href="#n"/>
<use x="208.56751" y="114.771" xlink:href="#r"/>
<use x="197.027" y="126.726" xlink:href="#b"/>
<use x="202.0083" y="126.726" xlink:href="#b"/>
<use x="206.9896" y="126.726" xlink:href="#e"/>
<use x="211.9709" y="126.726" xlink:href="#a"/>
</g>
<path transform="matrix(1,0,0,-1,22.88,55.947)" d="m196.07-78.108h-23.914c-1.0977 0-1.9922-0.89062-1.9922-1.9922v-23.91c0-1.1016 0.89453-1.9922 1.9922-1.9922h23.914c1.0977 0 1.9922 0.89062 1.9922 1.9922v23.91c0 1.1016-0.89453 1.9922-1.9922 1.9922z" fill="#ecf7dc" stroke="#83cb15" stroke-miterlimit="10" stroke-width=".79701"/>
<g>
<use x="205.191" y="145.456" xlink:href="#ai"/>
<use x="197.027" y="157.411" xlink:href="#b"/>
<use x="202.0083" y="157.411" xlink:href="#a"/>
<use x="206.9896" y="157.411" xlink:href="#a"/>
<use x="211.9709" y="157.411" xlink:href="#f"/>
</g>
<path transform="matrix(1,0,0,-1,22.88,55.947)" d="m196.07-108.8h-23.914c-1.0977 0-1.9922-0.89062-1.9922-1.9922v-23.91c0-1.1016 0.89453-1.9922 1.9922-1.9922h23.914c1.0977 0 1.9922 0.89062 1.9922 1.9922v23.91c0 1.1016-0.89453 1.9922-1.9922 1.9922z" fill="#ecf7dc" stroke="#83cb15" stroke-miterlimit="10" stroke-width=".79701"/>
<g>
<use x="201.455" y="176.141" xlink:href="#q"/>
<use x="208.647997" y="176.141" xlink:href="#an"/>
<use x="197.027" y="188.096" xlink:href="#b"/>
<use x="202.0083" y="188.096" xlink:href="#a"/>
<use x="206.9896" y="188.096" xlink:href="#h"/>
<use x="211.9709" y="188.096" xlink:href="#c"/>
</g>
<path transform="matrix(1,0,0,-1,22.88,55.947)" d="m226.75 13.947h-23.91c-1.1016 0-1.9922-0.89062-1.9922-1.9922v-23.91c0-1.1016 0.89062-1.9922 1.9922-1.9922h23.91c1.1016 0 1.9922 0.89062 1.9922 1.9922v23.91c0 1.1016-0.89062 1.9922-1.9922 1.9922z" fill="#f9e0e3" stroke="#dc3445" stroke-miterlimit="10" stroke-width=".79701"/>
<g>
<use x="231.725" y="53.401" xlink:href="#t"/>
<use x="239.19695" y="53.401" xlink:href="#k"/>
<use x="227.712" y="65.356" xlink:href="#j"/>
<use x="232.6933" y="65.356" xlink:href="#a"/>
<use x="237.6746" y="65.356" xlink:href="#f"/>
<use x="242.6559" y="65.356" xlink:href="#a"/>
</g>
<path transform="matrix(1,0,0,-1,22.88,55.947)" d="m226.75-16.737h-23.91c-1.1016 0-1.9922-0.89453-1.9922-1.9922v-23.91c0-1.1016 0.89062-1.9961 1.9922-1.9961h23.91c1.1016 0 1.9922 0.89453 1.9922 1.9961v23.91c0 1.0977-0.89062 1.9922-1.9922 1.9922z" fill="#fff5d9" stroke="#ffc106" stroke-miterlimit="10" stroke-width=".79701"/>
<g>
<use x="231.988" y="84.086" xlink:href="#q"/>
<use x="239.45995" y="84.086" xlink:href="#r"/>
<use x="227.712" y="96.041" xlink:href="#b"/>
<use x="232.6933" y="96.041" xlink:href="#j"/>
<use x="237.6746" y="96.041" xlink:href="#d"/>
<use x="242.6559" y="96.041" xlink:href="#d"/>
</g>
<path transform="matrix(1,0,0,-1,22.88,55.947)" d="m226.75-47.424h-23.91c-1.1016 0-1.9922-0.89062-1.9922-1.9922v-23.91c0-1.1016 0.89062-1.9922 1.9922-1.9922h23.91c1.1016 0 1.9922 0.89062 1.9922 1.9922v23.91c0 1.1016-0.89062 1.9922-1.9922 1.9922z" fill="#fff5d9" stroke="#ffc106" stroke-miterlimit="10" stroke-width=".79701"/>
<g>
<use x="231.849" y="114.771" xlink:href="#aa"/>
<use x="239.59791" y="114.771" xlink:href="#r"/>
<use x="227.712" y="126.726" xlink:href="#b"/>
<use x="232.6933" y="126.726" xlink:href="#b"/>
<use x="237.6746" y="126.726" xlink:href="#e"/>
<use x="242.6559" y="126.726" xlink:href="#a"/>
</g>
<path transform="matrix(1,0,0,-1,22.88,55.947)" d="m226.75-78.108h-23.91c-1.1016 0-1.9922-0.89062-1.9922-1.9922v-23.91c0-1.1016 0.89062-1.9922 1.9922-1.9922h23.91c1.1016 0 1.9922 0.89062 1.9922 1.9922v23.91c0 1.1016-0.89062 1.9922-1.9922 1.9922z" fill="#ecf7dc" stroke="#83cb15" stroke-miterlimit="10" stroke-width=".79701"/>
<g>
<use x="231.725" y="145.456" xlink:href="#am"/>
<use x="239.19695" y="145.456" xlink:href="#k"/>
<use x="227.712" y="157.411" xlink:href="#b"/>
<use x="232.6933" y="157.411" xlink:href="#a"/>
<use x="237.6746" y="157.411" xlink:href="#a"/>
<use x="242.6559" y="157.411" xlink:href="#f"/>
</g>
<path transform="matrix(1,0,0,-1,22.88,55.947)" d="m226.75-108.8h-23.91c-1.1016 0-1.9922-0.89062-1.9922-1.9922v-23.91c0-1.1016 0.89062-1.9922 1.9922-1.9922h23.91c1.1016 0 1.9922 0.89062 1.9922 1.9922v23.91c0 1.1016-0.89062 1.9922-1.9922 1.9922z" fill="#ecf7dc" stroke="#83cb15" stroke-miterlimit="10" stroke-width=".79701"/>
<g>
<use x="231.241" y="176.141" xlink:href="#z"/>
<use x="238.57447" y="176.141" xlink:href="#v"/>
<use x="227.712" y="188.096" xlink:href="#b"/>
<use x="232.6933" y="188.096" xlink:href="#a"/>
<use x="237.6746" y="188.096" xlink:href="#h"/>
<use x="242.6559" y="188.096" xlink:href="#c"/>
</g>
<path transform="matrix(1,0,0,-1,22.88,55.947)" d="m11.956 44.634h-23.91c-1.1016 0-1.9922-0.89453-1.9922-1.9922v-23.914c0-1.0977 0.89062-1.9922 1.9922-1.9922h23.91c1.1016 0 1.9922 0.89453 1.9922 1.9922v23.914c0 1.0977-0.89062 1.9922-1.9922 1.9922z" fill="#ecf7dc" stroke="#83cb15" stroke-miterlimit="10" stroke-width=".79701"/>
<g>
<use x="19.144" y="22.716" xlink:href="#ag"/>
<use x="12.917" y="34.671" xlink:href="#b"/>
<use x="17.8983" y="34.671" xlink:href="#h"/>
<use x="22.8796" y="34.671" xlink:href="#b"/>
<use x="27.8609" y="34.671" xlink:href="#a"/>
</g>
<path transform="matrix(1,0,0,-1,22.88,55.947)" d="m226.75 44.634h-23.91c-1.1016 0-1.9922-0.89453-1.9922-1.9922v-23.914c0-1.0977 0.89062-1.9922 1.9922-1.9922h23.91c1.1016 0 1.9922 0.89453 1.9922 1.9922v23.914c0 1.0977-0.89062 1.9922-1.9922 1.9922z" fill="#f9e0e3" stroke="#dc3445" stroke-miterlimit="10" stroke-width=".79701"/>
<g>
<use x="231.725" y="22.716" xlink:href="#ag"/>
<use x="239.19695" y="22.716" xlink:href="#k"/>
<use x="227.712" y="34.671" xlink:href="#j"/>
<use x="232.6933" y="34.671" xlink:href="#h"/>
<use x="237.6746" y="34.671" xlink:href="#c"/>
<use x="242.6559" y="34.671" xlink:href="#a"/>
<use x="79.269" y="38.081" xlink:href="#i"/>
<use x="84.2503" y="38.081" xlink:href="#af"/>
<use x="20.389" y="7.396" xlink:href="#i"/>
<use x="51.074" y="38.081" xlink:href="#ae"/>
<use x="109.954" y="38.081" xlink:href="#i"/>
<use x="114.9353" y="38.081" xlink:href="#ad"/>
<use x="140.638" y="38.081" xlink:href="#i"/>
<use x="145.6193" y="38.081" xlink:href="#ac"/>
<use x="171.323" y="38.081" xlink:href="#i"/>
<use x="176.3043" y="38.081" xlink:href="#ab"/>
<use x="202.008" y="38.081" xlink:href="#i"/>
<use x="206.9893" y="38.081" xlink:href="#al"/>
<use x="232.693" y="7.396" xlink:href="#i"/>
<use x="237.6743" y="7.396" xlink:href="#ak"/>
<use x="0.033" y="28.399" xlink:href="#i"/>
<use x="0.033" y="59.084" xlink:href="#ae"/>
<use x="0.033" y="89.769" xlink:href="#af"/>
<use x="0.033" y="120.454" xlink:href="#ad"/>
<use x="0.033" y="151.139" xlink:href="#ac"/>
<use x="0.033" y="181.824" xlink:href="#ab"/>
</g>
</g>
</svg>
