<?xml version="1.0" encoding="UTF-8"?>
<svg width="238pt" height="175pt" version="1.1" viewBox="0 0 238 175" xmlns="http://www.w3.org/2000/svg" xmlns:xlink="http://www.w3.org/1999/xlink">
<defs>
<symbol id="f" overflow="visible">
<path d="m4.4688-2c0-1.1875-0.8125-2.1875-1.8906-2.1875-0.46875 0-0.90625 0.15625-1.2656 0.51562v-1.9531c0.20312 0.0625 0.53125 0.125 0.84375 0.125 1.2344 0 1.9375-0.90625 1.9375-1.0312 0-0.0625-0.03125-0.10938-0.10938-0.10938 0 0-0.03125 0-0.078125 0.03125-0.20312 0.09375-0.6875 0.29688-1.3594 0.29688-0.39062 0-0.85938-0.078125-1.3281-0.28125-0.078125-0.03125-0.10938-0.03125-0.10938-0.03125-0.10938 0-0.10938 0.078125-0.10938 0.23438v2.9531c0 0.17188 0 0.25 0.14062 0.25 0.078125 0 0.09375-0.015625 0.14062-0.078125 0.10938-0.15625 0.46875-0.70312 1.2812-0.70312 0.51562 0 0.76562 0.45312 0.84375 0.64062 0.15625 0.375 0.1875 0.75 0.1875 1.25 0 0.35938 0 0.95312-0.25 1.375-0.23438 0.39062-0.60938 0.64062-1.0625 0.64062-0.71875 0-1.2969-0.53125-1.4688-1.1094 0.03125 0 0.0625 0.015625 0.17188 0.015625 0.32812 0 0.5-0.25 0.5-0.48438 0-0.25-0.17188-0.5-0.5-0.5-0.14062 0-0.48438 0.078125-0.48438 0.53125 0 0.85938 0.6875 1.8281 1.7969 1.8281 1.1562 0 2.1719-0.95312 2.1719-2.2188z"/>
</symbol>
<symbol id="a" overflow="visible">
<path d="m4.5781-3.1875c0-0.79688-0.046875-1.5938-0.39062-2.3281-0.45312-0.96875-1.2812-1.125-1.6875-1.125-0.60938 0-1.3281 0.26562-1.75 1.1875-0.3125 0.6875-0.35938 1.4688-0.35938 2.2656 0 0.75 0.03125 1.6406 0.45312 2.4062 0.42188 0.79688 1.1562 1 1.6406 1 0.53125 0 1.2969-0.20312 1.7344-1.1562 0.3125-0.6875 0.35938-1.4688 0.35938-2.25zm-0.8125-0.125c0 0.75 0 1.4219-0.10938 2.0625-0.15625 0.95312-0.71875 1.25-1.1719 1.25-0.39062 0-0.98438-0.25-1.1562-1.2031-0.10938-0.59375-0.10938-1.5156-0.10938-2.1094 0-0.64062 0-1.2969 0.078125-1.8281 0.1875-1.1875 0.9375-1.2812 1.1875-1.2812 0.32812 0 0.98438 0.1875 1.1719 1.1719 0.10938 0.5625 0.10938 1.3125 0.10938 1.9375z"/>
</symbol>
<symbol id="u" overflow="visible">
<path d="m4.1719 0v-0.3125h-0.3125c-0.90625 0-0.92188-0.10938-0.92188-0.46875v-5.5938c0-0.25 0-0.26562-0.23438-0.26562-0.625 0.64062-1.5 0.64062-1.8125 0.64062v0.3125c0.20312 0 0.78125 0 1.2969-0.26562v5.1719c0 0.35938-0.03125 0.46875-0.92188 0.46875h-0.3125v0.3125c0.34375-0.03125 1.2031-0.03125 1.6094-0.03125 0.39062 0 1.2656 0 1.6094 0.03125z"/>
</symbol>
<symbol id="t" overflow="visible">
<path d="m4.4688-1.7344h-0.23438c-0.0625 0.29688-0.125 0.73438-0.23438 0.89062-0.0625 0.078125-0.71875 0.078125-0.9375 0.078125h-1.7969l1.0625-1.0312c1.5469-1.375 2.1406-1.9062 2.1406-2.9062 0-1.1406-0.89062-1.9375-2.1094-1.9375-1.125 0-1.8594 0.92188-1.8594 1.8125 0 0.54688 0.5 0.54688 0.53125 0.54688 0.17188 0 0.51562-0.10938 0.51562-0.53125 0-0.25-0.1875-0.51562-0.53125-0.51562-0.078125 0-0.09375 0-0.125 0.015625 0.21875-0.65625 0.76562-1.0156 1.3438-1.0156 0.90625 0 1.3281 0.8125 1.3281 1.625 0 0.79688-0.48438 1.5781-1.0469 2.2031l-1.9062 2.125c-0.10938 0.10938-0.10938 0.14062-0.10938 0.375h3.7031z"/>
</symbol>
<symbol id="s" overflow="visible">
<path d="m7.1406 0v-0.3125h-0.25c-0.76562 0-0.78125-0.10938-0.78125-0.46875v-5.25c0-0.35938 0.015625-0.46875 0.78125-0.46875h0.25v-0.3125c-0.35938 0.03125-1.0938 0.03125-1.4688 0.03125s-1.125 0-1.4688-0.03125v0.3125h0.23438c0.76562 0 0.78125 0.10938 0.78125 0.46875v2.3281h-2.9688v-2.3281c0-0.35938 0.015625-0.46875 0.78125-0.46875h0.23438v-0.3125c-0.34375 0.03125-1.0781 0.03125-1.4688 0.03125-0.375 0-1.125 0-1.4688-0.03125v0.3125h0.23438c0.76562 0 0.79688 0.10938 0.79688 0.46875v5.25c0 0.35938-0.03125 0.46875-0.79688 0.46875h-0.23438v0.3125c0.34375-0.03125 1.0938-0.03125 1.4688-0.03125s1.125 0 1.4688 0.03125v-0.3125h-0.23438c-0.76562 0-0.78125-0.10938-0.78125-0.46875v-2.6094h2.9688v2.6094c0 0.35938-0.015625 0.46875-0.78125 0.46875h-0.23438v0.3125c0.34375-0.03125 1.0781-0.03125 1.4531-0.03125 0.39062 0 1.125 0 1.4844 0.03125z"/>
</symbol>
<symbol id="b" overflow="visible">
<path d="m4.1406-1.1875c0-0.09375-0.078125-0.125-0.14062-0.125-0.078125 0-0.10938 0.0625-0.125 0.14062-0.34375 1.0312-1.25 1.0312-1.3438 1.0312-0.5 0-0.89062-0.29688-1.125-0.67188-0.29688-0.46875-0.29688-1.125-0.29688-1.4844h2.7812c0.21875 0 0.25 0 0.25-0.21875 0-0.98438-0.54688-1.9531-1.7812-1.9531-1.1562 0-2.0781 1.0312-2.0781 2.2812 0 1.3281 1.0469 2.2969 2.1875 2.2969 1.2188 0 1.6719-1.1094 1.6719-1.2969zm-0.65625-1.3281h-2.375c0.0625-1.4844 0.90625-1.7344 1.25-1.7344 1.0156 0 1.125 1.3438 1.125 1.7344z"/>
</symbol>
<symbol id="am" overflow="visible">
<path d="m5.7969-2.5781h-0.25c-0.10938 1.0156-0.25 2.2656-2 2.2656h-0.8125c-0.46875 0-0.48438-0.0625-0.48438-0.39062v-5.3125c0-0.34375 0-0.48438 0.9375-0.48438h0.32812v-0.3125c-0.35938 0.03125-1.2656 0.03125-1.6719 0.03125-0.39062 0-1.1719 0-1.5156-0.03125v0.3125h0.23438c0.76562 0 0.79688 0.10938 0.79688 0.46875v5.25c0 0.35938-0.03125 0.46875-0.79688 0.46875h-0.23438v0.3125h5.1875z"/>
</symbol>
<symbol id="o" overflow="visible">
<path d="m2.4688 0v-0.3125c-0.67188 0-0.70312-0.046875-0.70312-0.4375v-3.6562l-1.3906 0.10938v0.3125c0.64062 0 0.73438 0.0625 0.73438 0.54688v2.6875c0 0.4375-0.10938 0.4375-0.78125 0.4375v0.3125l1.0938-0.03125c0.35938 0 0.70312 0.015625 1.0469 0.03125zm-0.5625-6.0156c0-0.28125-0.21875-0.53125-0.51562-0.53125-0.34375 0-0.54688 0.28125-0.54688 0.53125 0 0.26562 0.23438 0.51562 0.53125 0.51562 0.34375 0 0.53125-0.26562 0.53125-0.51562z"/>
</symbol>
<symbol id="e" overflow="visible">
<path d="m7.1406-6.5v-0.3125l-1.1719 0.03125-1.1562-0.03125v0.3125c1.0156 0 1.0156 0.46875 1.0156 0.73438v4.2656l-3.5156-5.1719c-0.09375-0.125-0.09375-0.14062-0.28125-0.14062h-1.7031v0.3125h0.29688c0.14062 0 0.34375 0.015625 0.48438 0.015625 0.23438 0.03125 0.25 0.046875 0.25 0.23438v5.2031c0 0.26562 0 0.73438-1.0312 0.73438v0.3125l1.1719-0.03125 1.1562 0.03125v-0.3125c-1.0156 0-1.0156-0.46875-1.0156-0.73438v-5.1875c0.046875 0.046875 0.046875 0.0625 0.09375 0.125l4.0625 5.9844c0.09375 0.10938 0.10938 0.125 0.17188 0.125 0.14062 0 0.14062-0.0625 0.14062-0.26562v-5.5c0-0.26562 0-0.73438 1.0312-0.73438z"/>
</symbol>
<symbol id="n" overflow="visible">
<path d="m4.8125-0.89062v-0.5625h-0.25v0.5625c0 0.57812-0.25 0.64062-0.35938 0.64062-0.32812 0-0.35938-0.45312-0.35938-0.5v-1.9844c0-0.42188 0-0.8125-0.35938-1.1875-0.39062-0.39062-0.89062-0.54688-1.375-0.54688-0.8125 0-1.5 0.46875-1.5 1.125 0 0.29688 0.20312 0.46875 0.45312 0.46875 0.28125 0 0.46875-0.20312 0.46875-0.45312 0-0.125-0.0625-0.45312-0.51562-0.45312 0.26562-0.35938 0.76562-0.46875 1.0781-0.46875 0.48438 0 1.0625 0.39062 1.0625 1.2812v0.35938c-0.51562 0.03125-1.2188 0.0625-1.8438 0.35938-0.75 0.34375-1 0.85938-1 1.2969 0 0.8125 0.96875 1.0625 1.5938 1.0625 0.67188 0 1.125-0.40625 1.3125-0.85938 0.046875 0.39062 0.3125 0.8125 0.78125 0.8125 0.20312 0 0.8125-0.14062 0.8125-0.95312zm-1.6562-0.5c0 0.9375-0.71875 1.2812-1.1719 1.2812-0.48438 0-0.89062-0.34375-0.89062-0.84375 0-0.54688 0.40625-1.375 2.0625-1.4375z"/>
</symbol>
<symbol id="m" overflow="visible">
<path d="m7.1406 0v-0.3125h-0.17188c-0.59375 0-0.73438-0.0625-0.84375-0.39062l-2.1562-6.2344c-0.046875-0.125-0.078125-0.20312-0.23438-0.20312s-0.1875 0.0625-0.23438 0.20312l-2.0625 5.9531c-0.1875 0.51562-0.57812 0.67188-1.125 0.67188v0.3125l1.0156-0.03125 1.1562 0.03125v-0.3125c-0.5 0-0.75-0.25-0.75-0.5 0-0.03125 0.015625-0.14062 0.015625-0.15625l0.46875-1.2969h2.4531l0.53125 1.5156c0.015625 0.046875 0.03125 0.10938 0.03125 0.14062 0 0.29688-0.5625 0.29688-0.82812 0.29688v0.3125c0.35938-0.03125 1.0625-0.03125 1.4375-0.03125zm-2.5781-2.5781h-2.2344l1.1094-3.25z"/>
</symbol>
<symbol id="d" overflow="visible">
<path d="m3.625-3.7969c0-0.3125-0.3125-0.60938-0.73438-0.60938-0.73438 0-1.0938 0.67188-1.2188 1.0938v-1.0938l-1.3906 0.10938v0.3125c0.70312 0 0.78125 0.0625 0.78125 0.5625v2.6719c0 0.4375-0.10938 0.4375-0.78125 0.4375v0.3125l1.1406-0.03125c0.39062 0 0.85938 0 1.2656 0.03125v-0.3125h-0.21875c-0.73438 0-0.75-0.10938-0.75-0.46875v-1.5312c0-0.98438 0.42188-1.875 1.1719-1.875 0.0625 0 0.09375 0 0.10938 0.015625-0.03125 0-0.23438 0.125-0.23438 0.39062s0.21875 0.42188 0.4375 0.42188c0.17188 0 0.42188-0.125 0.42188-0.4375z"/>
</symbol>
<symbol id="l" overflow="visible">
<path d="m7.3438 0v-0.3125c-0.54688 0-0.75-0.03125-1.0469-0.46875l-2.3125-3.3906 1.7969-1.7344c0.078125-0.078125 0.60938-0.57812 1.4219-0.59375v-0.3125c-0.26562 0.03125-0.57812 0.03125-0.85938 0.03125-0.35938 0-0.92188 0-1.2656-0.03125v0.3125c0.40625 0.015625 0.46875 0.23438 0.46875 0.32812 0 0.15625-0.10938 0.26562-0.1875 0.32812l-3.1094 2.9844v-3.1719c0-0.35938 0.015625-0.46875 0.78125-0.46875h0.23438v-0.3125c-0.34375 0.03125-1.0781 0.03125-1.4688 0.03125-0.375 0-1.125 0-1.4688-0.03125v0.3125h0.23438c0.76562 0 0.79688 0.10938 0.79688 0.46875v5.25c0 0.35938-0.03125 0.46875-0.79688 0.46875h-0.23438v0.3125c0.34375-0.03125 1.0938-0.03125 1.4688-0.03125s1.125 0 1.4688 0.03125v-0.3125h-0.23438c-0.76562 0-0.78125-0.10938-0.78125-0.46875v-1.7344l1.1562-1.1094 1.7969 2.6719c0.0625 0.09375 0.15625 0.21875 0.15625 0.34375 0 0.29688-0.39062 0.29688-0.59375 0.29688v0.3125c0.34375-0.03125 1.0469-0.03125 1.4219-0.03125z"/>
</symbol>
<symbol id="av" overflow="visible">
<path d="m7.2969-0.875c0-0.0625 0-0.17188-0.125-0.17188-0.10938 0-0.10938 0.09375-0.125 0.15625-0.0625 0.71875-0.40625 0.89062-0.65625 0.89062-0.48438 0-0.5625-0.51562-0.70312-1.4375l-0.14062-0.79688c-0.17188-0.64062-0.65625-0.96875-1.2031-1.1562 0.95312-0.23438 1.7344-0.84375 1.7344-1.625 0-0.95312-1.1406-1.7969-2.5938-1.7969h-3.1406v0.3125h0.25c0.76562 0 0.78125 0.10938 0.78125 0.46875v5.25c0 0.35938-0.015625 0.46875-0.78125 0.46875h-0.25v0.3125c0.35938-0.03125 1.0781-0.03125 1.4531-0.03125 0.39062 0 1.1094 0 1.4688 0.03125v-0.3125h-0.25c-0.76562 0-0.78125-0.10938-0.78125-0.46875v-2.5156h1.1406c0.15625 0 0.57812 0 0.9375 0.34375 0.375 0.34375 0.375 0.65625 0.375 1.3281 0 0.64062 0 1.0469 0.40625 1.4219 0.40625 0.35938 0.95312 0.42188 1.25 0.42188 0.78125 0 0.95312-0.8125 0.95312-1.0938zm-2.25-4.1406c0 0.6875-0.23438 1.5-1.7031 1.5h-1.1094v-2.5781c0-0.23438 0-0.35938 0.21875-0.39062 0.09375-0.015625 0.39062-0.015625 0.59375-0.015625 0.89062 0 2 0.046875 2 1.4844z"/>
</symbol>
<symbol id="au" overflow="visible">
<path d="m5.1875-2.1562c0-1.2656-0.96875-2.25-2.1094-2.25-0.78125 0-1.2031 0.46875-1.3594 0.64062v-3.1562l-1.4375 0.10938v0.3125c0.70312 0 0.78125 0.0625 0.78125 0.5625v5.9375h0.25l0.35938-0.625c0.14062 0.23438 0.5625 0.73438 1.2969 0.73438 1.1875 0 2.2188-0.98438 2.2188-2.2656zm-0.82812 0c0 0.35938-0.015625 0.95312-0.29688 1.4062-0.21875 0.3125-0.59375 0.64062-1.125 0.64062-0.45312 0-0.8125-0.23438-1.0469-0.60938-0.14062-0.20312-0.14062-0.23438-0.14062-0.42188v-2.0469c0-0.1875 0-0.20312 0.10938-0.35938 0.39062-0.5625 0.9375-0.64062 1.1719-0.64062 0.45312 0 0.8125 0.26562 1.0469 0.64062 0.26562 0.40625 0.28125 0.96875 0.28125 1.3906z"/>
</symbol>
<symbol id="at" overflow="visible">
<path d="m7.2344 0v-0.3125h-0.1875c-0.51562 0-0.73438-0.046875-0.9375-0.35938l-2.1094-3.1719 1.375-2.0156c0.21875-0.3125 0.5625-0.625 1.4375-0.64062v-0.3125l-1.0938 0.03125c-0.40625 0-0.89062 0-1.2812-0.03125v0.3125c0.39062 0.015625 0.60938 0.23438 0.60938 0.45312 0 0.10938-0.015625 0.125-0.078125 0.23438l-1.1406 1.6875-1.2812-1.9219c-0.03125-0.03125-0.078125-0.10938-0.078125-0.15625 0-0.10938 0.21875-0.28125 0.65625-0.29688v-0.3125c-0.35938 0.03125-1.0781 0.03125-1.4531 0.03125l-1.2969-0.03125v0.3125h0.1875c0.54688 0 0.73438 0.0625 0.92188 0.34375l1.8281 2.7812-1.625 2.4062c-0.14062 0.20312-0.4375 0.65625-1.4531 0.65625v0.3125l1.1094-0.03125c0.375 0 0.92188 0 1.2812 0.03125v-0.3125c-0.46875 0-0.625-0.28125-0.625-0.45312 0-0.09375 0.03125-0.125 0.09375-0.23438l1.4219-2.0938 1.5625 2.375c0.03125 0.046875 0.0625 0.078125 0.0625 0.10938 0 0.125-0.21875 0.29688-0.65625 0.29688v0.3125c0.34375-0.03125 1.0781-0.03125 1.4531-0.03125z"/>
</symbol>
<symbol id="as" overflow="visible">
<path d="m6.625-2.3281c0-0.09375 0-0.17188-0.125-0.17188-0.10938 0-0.10938 0.0625-0.125 0.17188-0.078125 1.4219-1.1406 2.2344-2.2344 2.2344-0.60938 0-2.5625-0.32812-2.5625-3.3125 0-2.9688 1.9531-3.3125 2.5625-3.3125 1.0781 0 1.9688 0.90625 2.1719 2.3594 0.015625 0.14062 0.015625 0.17188 0.15625 0.17188 0.15625 0 0.15625-0.03125 0.15625-0.23438v-2.3594c0-0.17188 0-0.25-0.10938-0.25-0.03125 0-0.078125 0-0.15625 0.125l-0.5 0.73438c-0.35938-0.35938-0.875-0.85938-1.8281-0.85938-1.875 0-3.4688 1.5938-3.4688 3.625 0 2.0625 1.6094 3.625 3.4688 3.625 1.625 0 2.5938-1.3906 2.5938-2.5469z"/>
</symbol>
<symbol id="ar" overflow="visible">
<path d="m3.5938-1.2812c0-0.51562-0.29688-0.82812-0.42188-0.9375-0.32812-0.32812-0.71875-0.40625-1.1406-0.48438-0.5625-0.10938-1.2188-0.23438-1.2188-0.8125 0-0.35938 0.25-0.76562 1.1094-0.76562 1.0938 0 1.1562 0.90625 1.1719 1.2031 0 0.09375 0.10938 0.09375 0.10938 0.09375 0.14062 0 0.14062-0.046875 0.14062-0.23438v-1.0156c0-0.15625 0-0.23438-0.10938-0.23438-0.046875 0-0.078125 0-0.20312 0.125-0.03125 0.03125-0.125 0.125-0.17188 0.15625-0.375-0.28125-0.78125-0.28125-0.9375-0.28125-1.2188 0-1.5938 0.67188-1.5938 1.2344 0 0.34375 0.15625 0.625 0.42188 0.84375 0.32812 0.25 0.60938 0.3125 1.3281 0.45312 0.21875 0.046875 1.0312 0.20312 1.0312 0.92188 0 0.5-0.34375 0.90625-1.125 0.90625-0.84375 0-1.2031-0.5625-1.3906-1.4219-0.03125-0.125-0.03125-0.15625-0.14062-0.15625-0.125 0-0.125 0.0625-0.125 0.23438v1.3281c0 0.17188 0 0.23438 0.10938 0.23438 0.046875 0 0.0625-0.015625 0.25-0.20312 0.015625-0.015625 0.015625-0.03125 0.20312-0.21875 0.4375 0.40625 0.89062 0.42188 1.0938 0.42188 1.1406 0 1.6094-0.67188 1.6094-1.3906z"/>
</symbol>
<symbol id="r" overflow="visible">
<path d="m3.3125-1.2344v-0.5625h-0.25v0.54688c0 0.73438-0.29688 1.1094-0.67188 1.1094-0.67188 0-0.67188-0.90625-0.67188-1.0781v-2.7656h1.4375v-0.3125h-1.4375v-1.8281h-0.25c0 0.8125-0.29688 1.875-1.2812 1.9219v0.21875h0.84375v2.75c0 1.2188 0.9375 1.3438 1.2969 1.3438 0.70312 0 0.98438-0.70312 0.98438-1.3438z"/>
</symbol>
<symbol id="aq" overflow="visible">
<path d="m5.3281 0v-0.3125c-0.6875 0-0.76562-0.0625-0.76562-0.5625v-3.5312l-1.4688 0.10938v0.3125c0.6875 0 0.78125 0.0625 0.78125 0.5625v1.7656c0 0.875-0.48438 1.5469-1.2188 1.5469-0.82812 0-0.875-0.46875-0.875-0.98438v-3.3125l-1.4688 0.10938v0.3125c0.78125 0 0.78125 0.03125 0.78125 0.90625v1.5c0 0.78125 0 1.6875 1.5156 1.6875 0.5625 0 1-0.28125 1.2812-0.89062v0.89062zm-1.3281-6.5938c0-0.1875-0.17188-0.35938-0.34375-0.35938-0.15625 0-0.26562 0.10938-0.3125 0.17188l-1.1875 1.5156 0.17188 0.1875 1.5156-1.2188c0.078125-0.078125 0.15625-0.1875 0.15625-0.29688z"/>
</symbol>
<symbol id="q" overflow="visible">
<path d="m8.1094 0v-0.3125c-0.51562 0-0.76562 0-0.78125-0.29688v-1.9062c0-0.85938 0-1.1562-0.3125-1.5156-0.14062-0.17188-0.46875-0.375-1.0469-0.375-0.82812 0-1.2812 0.59375-1.4375 0.98438-0.14062-0.875-0.875-0.98438-1.3281-0.98438-0.73438 0-1.2031 0.42188-1.4844 1.0469v-1.0469l-1.4062 0.10938v0.3125c0.70312 0 0.78125 0.0625 0.78125 0.5625v2.6719c0 0.4375-0.10938 0.4375-0.78125 0.4375v0.3125l1.1406-0.03125 1.1094 0.03125v-0.3125c-0.67188 0-0.78125 0-0.78125-0.4375v-1.8438c0-1.0312 0.71875-1.5938 1.3438-1.5938 0.64062 0 0.75 0.53125 0.75 1.1094v2.3281c0 0.4375-0.10938 0.4375-0.78125 0.4375v0.3125l1.125-0.03125 1.1094 0.03125v-0.3125c-0.65625 0-0.76562 0-0.76562-0.4375v-1.8438c0-1.0312 0.70312-1.5938 1.3438-1.5938 0.625 0 0.73438 0.53125 0.73438 1.1094v2.3281c0 0.4375-0.10938 0.4375-0.78125 0.4375v0.3125l1.125-0.03125z"/>
</symbol>
<symbol id="p" overflow="visible">
<path d="m4.6875-2.1406c0-1.2656-0.98438-2.3281-2.1875-2.3281-1.25 0-2.2188 1.0938-2.2188 2.3281 0 1.2969 1.0312 2.25 2.2031 2.25 1.2031 0 2.2031-0.98438 2.2031-2.25zm-0.8125-0.078125c0 0.35938 0 0.90625-0.21875 1.3438-0.23438 0.45312-0.67188 0.73438-1.1562 0.73438-0.4375 0-0.875-0.20312-1.1406-0.67188-0.25-0.4375-0.25-1.0469-0.25-1.4062 0-0.39062 0-0.92188 0.23438-1.3594 0.26562-0.45312 0.73438-0.67188 1.1406-0.67188 0.4375 0 0.85938 0.21875 1.125 0.65625 0.26562 0.42188 0.26562 1 0.26562 1.375z"/>
</symbol>
<symbol id="ap" overflow="visible">
<path d="m4.6875-2.1406c0-1.2656-0.98438-2.3281-2.1875-2.3281-1.25 0-2.2188 1.0938-2.2188 2.3281 0 1.2969 1.0312 2.25 2.2031 2.25 1.2031 0 2.2031-0.98438 2.2031-2.25zm-0.8125-0.078125c0 0.35938 0 0.90625-0.21875 1.3438-0.23438 0.45312-0.67188 0.73438-1.1562 0.73438-0.4375 0-0.875-0.20312-1.1406-0.67188-0.25-0.4375-0.25-1.0469-0.25-1.4062 0-0.39062 0-0.92188 0.23438-1.3594 0.26562-0.45312 0.73438-0.67188 1.1406-0.67188 0.4375 0 0.85938 0.21875 1.125 0.65625 0.26562 0.42188 0.26562 1 0.26562 1.375zm0.125-3.0625-1.5-1.6094-1.5156 1.6094 0.125 0.14062 1.3906-1.0781 1.375 1.0781z"/>
</symbol>
<symbol id="ao" overflow="visible">
<path d="m4.1406-1.1875c0-0.09375-0.10938-0.09375-0.14062-0.09375-0.078125 0-0.10938 0.03125-0.125 0.09375-0.28125 0.92188-0.9375 1.0469-1.2969 1.0469-0.53125 0-1.4062-0.42188-1.4062-2.0312 0-1.625 0.8125-2.0469 1.3438-2.0469 0.09375 0 0.71875 0.015625 1.0625 0.375-0.40625 0.03125-0.46875 0.32812-0.46875 0.45312 0 0.26562 0.1875 0.45312 0.45312 0.45312s0.46875-0.15625 0.46875-0.46875c0-0.67188-0.76562-1.0625-1.5312-1.0625-1.25 0-2.1562 1.0781-2.1562 2.3125 0 1.2812 0.98438 2.2656 2.1406 2.2656 1.3281 0 1.6562-1.2031 1.6562-1.2969z"/>
</symbol>
<symbol id="an" overflow="visible">
<path d="m2.0312-0.015625c0-0.625-0.25-1.0469-0.64062-1.0469-0.35938 0-0.53125 0.28125-0.53125 0.53125 0 0.26562 0.17188 0.53125 0.53125 0.53125 0.14062 0 0.28125-0.0625 0.39062-0.15625 0.015625 0.78125-0.25 1.3906-0.6875 1.8594-0.0625 0.0625-0.078125 0.078125-0.078125 0.10938 0 0.078125 0.046875 0.10938 0.09375 0.10938 0.125 0 0.92188-0.78125 0.92188-1.9375z"/>
</symbol>
<symbol id="al" overflow="visible">
<path d="m6.2188-2.5469c0-0.0625-0.03125-0.10938-0.125-0.10938s-0.10938 0.03125-0.17188 0.25c-0.4375 1.3438-0.92188 2.0625-2.6094 2.0625h-1.7031l5.5625-6.2188c0.015625-0.046875 0.03125-0.09375 0.03125-0.15625 0-0.09375-0.046875-0.09375-0.25-0.09375h-4.2031c-0.23438 0-0.25 0.015625-0.3125 0.20312l-0.54688 1.7969c-0.015625 0.046875-0.03125 0.14062-0.03125 0.14062s0 0.10938 0.125 0.10938c0.09375 0 0.10938-0.078125 0.125-0.10938 0.39062-1.1719 0.90625-1.8281 2.4531-1.8281h1.625l-5.5625 6.2344s-0.046875 0.14062-0.046875 0.17188c0 0.09375 0.0625 0.09375 0.25 0.09375h4.3281c0.25 0 0.25-0.015625 0.3125-0.20312l0.71875-2.2031c0-0.03125 0.03125-0.10938 0.03125-0.14062z"/>
</symbol>
<symbol id="ak" overflow="visible">
<path d="m-2.5781-6.5v0.25c1.5469 0.25 2.2656 0.48438 2.2656 2.1875v1.3281c0 0.46875-0.0625 0.48438-0.39062 0.48438h-2.6719v-0.89062c0-0.96875 0.32812-1.0781 1.1719-1.0781v-0.25h-2.6406v0.25c0.85938 0 1.1719 0.10938 1.1719 1.0781v0.89062h-2.4062c-0.32812 0-0.39062-0.015625-0.39062-0.48438v-1.2812c0-1.5312 0.54688-1.7969 1.9375-1.9531v-0.25l-2.25 0.28125v5.6094h0.3125v-0.23438c0-0.76562 0.10938-0.79688 0.46875-0.79688h5.2188c0.35938 0 0.46875 0.03125 0.46875 0.79688v0.23438h0.3125v-5.75z"/>
</symbol>
<symbol id="k" overflow="visible">
<path d="m0-5.3281h-0.3125c0 0.51562 0 0.76562-0.29688 0.76562h-1.9062c-0.85938 0-1.1562 0-1.5156 0.3125-0.17188 0.14062-0.375 0.46875-0.375 1.0469 0 0.73438 0.42188 1.2031 1.0469 1.4844h-1.0469l0.10938 1.4062h0.3125c0-0.70312 0.0625-0.78125 0.5625-0.78125h2.6719c0.4375 0 0.4375 0.10938 0.4375 0.78125h0.3125l-0.03125-1.1406 0.03125-1.1094h-0.3125c0 0.67188 0 0.78125-0.4375 0.78125h-1.8438c-1.0312 0-1.5938-0.71875-1.5938-1.3438 0-0.64062 0.53125-0.75 1.1094-0.75h2.3281c0.4375 0 0.4375 0.10938 0.4375 0.78125h0.3125l-0.03125-1.125z"/>
</symbol>
<symbol id="j" overflow="visible">
<path d="m-1.1875-4.1406c-0.09375 0-0.125 0.078125-0.125 0.14062 0 0.078125 0.0625 0.10938 0.14062 0.125 1.0312 0.34375 1.0312 1.25 1.0312 1.3438 0 0.5-0.29688 0.89062-0.67188 1.125-0.46875 0.29688-1.125 0.29688-1.4844 0.29688v-2.7812c0-0.21875 0-0.25-0.21875-0.25-0.98438 0-1.9531 0.54688-1.9531 1.7812 0 1.1562 1.0312 2.0781 2.2812 2.0781 1.3281 0 2.2969-1.0469 2.2969-2.1875 0-1.2188-1.1094-1.6719-1.2969-1.6719zm-1.3281 0.65625v2.375c-1.4844-0.0625-1.7344-0.90625-1.7344-1.25 0-1.0156 1.3438-1.125 1.7344-1.125z"/>
</symbol>
<symbol id="af" overflow="visible">
<path d="m-3.7969-3.625c-0.3125 0-0.60938 0.3125-0.60938 0.73438 0 0.73438 0.67188 1.0938 1.0938 1.2188h-1.0938l0.10938 1.3906h0.3125c0-0.70312 0.0625-0.78125 0.5625-0.78125h2.6719c0.4375 0 0.4375 0.10938 0.4375 0.78125h0.3125l-0.03125-1.1406c0-0.39062 0-0.85938 0.03125-1.2656h-0.3125v0.21875c0 0.73438-0.10938 0.75-0.46875 0.75h-1.5312c-0.98438 0-1.875-0.42188-1.875-1.1719 0-0.0625 0-0.09375 0.015625-0.10938 0 0.03125 0.125 0.23438 0.39062 0.23438s0.42188-0.21875 0.42188-0.4375c0-0.17188-0.125-0.42188-0.4375-0.42188z"/>
</symbol>
<symbol id="ae" overflow="visible">
<path d="m-4.0312-4.8281c-0.17188 0-0.48438 0.10938-0.48438 0.5 0 0.20312 0.0625 0.64062 0.46875 1.0625-0.32812 0.42188-0.35938 0.82812-0.35938 1.0469 0 0.9375 0.6875 1.625 1.4531 1.625 0.4375 0 0.8125-0.21875 1.0312-0.46875 0.14062 0.125 0.46875 0.3125 0.82812 0.3125 0.3125 0 0.6875-0.14062 0.89062-0.45312 0.15625 0.60938 0.59375 0.92188 0.98438 0.92188 0.71875 0 1.2656-0.98438 1.2656-2.2031 0-1.1719-0.5-2.2031-1.2812-2.2031-0.34375 0-0.85938 0.125-1.1406 0.64062-0.26562 0.53125-0.26562 1.1094-0.26562 1.7188 0 0.25 0 0.67188-0.015625 0.75-0.046875 0.3125-0.34375 0.51562-0.67188 0.51562-0.03125 0-0.26562 0-0.46875-0.15625 0.28125-0.39062 0.3125-0.8125 0.3125-1 0-0.92188-0.6875-1.6094-1.4531-1.6094-0.375 0-0.73438 0.15625-0.96875 0.40625-0.34375-0.35938-0.39062-0.71875-0.39062-0.89062 0 0 0-0.078125 0.015625-0.10938 0.03125 0.10938 0.14062 0.17188 0.26562 0.17188 0.17188 0 0.28125-0.14062 0.28125-0.29688 0-0.09375-0.0625-0.28125-0.29688-0.28125zm1.0781 1.75c0.26562 0 0.59375 0 0.84375 0.15625 0.10938 0.078125 0.39062 0.3125 0.39062 0.70312 0 0.875-1 0.875-1.2188 0.875-0.26562 0-0.59375-0.015625-0.84375-0.15625-0.10938-0.078125-0.39062-0.3125-0.39062-0.71875 0-0.85938 0.98438-0.85938 1.2188-0.85938zm3.7344-1.0938c0.54688 0 1.0469 0.70312 1.0469 1.6719 0 1.0156-0.51562 1.7031-1.0469 1.7031-0.45312 0-0.82812-0.375-0.84375-0.8125v-0.59375c0-0.85938 0-1.9688 0.84375-1.9688z"/>
</symbol>
<symbol id="c" overflow="visible">
<path d="m0-2.4688h-0.3125c0 0.67188-0.046875 0.70312-0.4375 0.70312h-3.6562l0.10938 1.3906h0.3125c0-0.64062 0.0625-0.73438 0.54688-0.73438h2.6875c0.4375 0 0.4375 0.10938 0.4375 0.78125h0.3125l-0.03125-1.0938c0-0.35938 0.015625-0.70312 0.03125-1.0469zm-6.0156 0.5625c-0.28125 0-0.53125 0.21875-0.53125 0.51562 0 0.34375 0.28125 0.54688 0.53125 0.54688 0.26562 0 0.51562-0.23438 0.51562-0.53125 0-0.34375-0.26562-0.53125-0.51562-0.53125z"/>
</symbol>
<symbol id="i" overflow="visible">
<path d="m-0.89062-4.8125h-0.5625v0.25h0.5625c0.57812 0 0.64062 0.25 0.64062 0.35938 0 0.32812-0.45312 0.35938-0.5 0.35938h-1.9844c-0.42188 0-0.8125 0-1.1875 0.35938-0.39062 0.39062-0.54688 0.89062-0.54688 1.375 0 0.8125 0.46875 1.5 1.125 1.5 0.29688 0 0.46875-0.20312 0.46875-0.45312 0-0.28125-0.20312-0.46875-0.45312-0.46875-0.125 0-0.45312 0.0625-0.45312 0.51562-0.35938-0.26562-0.46875-0.76562-0.46875-1.0781 0-0.48438 0.39062-1.0625 1.2812-1.0625h0.35938c0.03125 0.51562 0.0625 1.2188 0.35938 1.8438 0.34375 0.75 0.85938 1 1.2969 1 0.8125 0 1.0625-0.96875 1.0625-1.5938 0-0.67188-0.40625-1.125-0.85938-1.3125 0.39062-0.046875 0.8125-0.3125 0.8125-0.78125 0-0.20312-0.14062-0.8125-0.95312-0.8125zm-0.5 1.6562c0.9375 0 1.2812 0.71875 1.2812 1.1719 0 0.48438-0.34375 0.89062-0.84375 0.89062-0.54688 0-1.375-0.40625-1.4375-2.0625z"/>
</symbol>
<symbol id="ad" overflow="visible">
<path d="m0-5.25h-0.3125c0 0.6875-0.0625 0.78125-0.5625 0.78125h-6.0469l0.10938 1.4219h0.3125c0-0.6875 0.0625-0.76562 0.5625-0.76562h2.1562c-0.35938 0.28125-0.625 0.71875-0.625 1.25 0 1.1719 0.98438 2.2188 2.2656 2.2188 1.2656 0 2.25-0.96875 2.25-2.1094 0-0.64062-0.34375-1.0781-0.65625-1.3281h0.65625zm-1.1719 1.4688c0.17188 0 0.1875 0 0.35938 0.10938 0.48438 0.29688 0.70312 0.73438 0.70312 1.1719 0 0.45312-0.26562 0.8125-0.64062 1.0469-0.40625 0.25-0.96875 0.28125-1.3906 0.28125-0.35938 0-0.95312-0.015625-1.4062-0.29688-0.3125-0.21875-0.64062-0.59375-0.64062-1.1406 0-0.34375 0.15625-0.76562 0.59375-1.0625 0.17188-0.10938 0.1875-0.10938 0.375-0.10938z"/>
</symbol>
<symbol id="h" overflow="visible">
<path d="m-2.1406-4.6875c-1.2656 0-2.3281 0.98438-2.3281 2.1875 0 1.25 1.0938 2.2188 2.3281 2.2188 1.2969 0 2.25-1.0312 2.25-2.2031 0-1.2031-0.98438-2.2031-2.25-2.2031zm-0.078125 0.8125c0.35938 0 0.90625 0 1.3438 0.21875 0.45312 0.23438 0.73438 0.67188 0.73438 1.1562 0 0.4375-0.20312 0.875-0.67188 1.1406-0.4375 0.25-1.0469 0.25-1.4062 0.25-0.39062 0-0.92188 0-1.3594-0.23438-0.45312-0.26562-0.67188-0.73438-0.67188-1.1406 0-0.4375 0.21875-0.85938 0.65625-1.125 0.42188-0.26562 1-0.26562 1.375-0.26562z"/>
</symbol>
<symbol id="aj" overflow="visible">
<path d="m-1.8594-4v0.25c1.1719 0.09375 1.6094 0.29688 1.6094 1.4531v1.1875l-3.75-2.7812c-0.10938-0.09375-0.125-0.09375-0.17188-0.09375-0.125 0-0.125 0.09375-0.125 0.26562v3.1875l1.6094 0.10938v-0.25c-1.0156-0.0625-1.3906-0.25-1.3906-1.3438v-1.1406l3.7656 2.7812c0.10938 0.09375 0.125 0.09375 0.17188 0.09375 0.14062 0 0.14062-0.0625 0.14062-0.25v-3.2969z"/>
</symbol>
<symbol id="ai" overflow="visible">
<path d="m-1.1875-4.1406c-0.09375 0-0.09375 0.10938-0.09375 0.14062 0 0.078125 0.03125 0.10938 0.09375 0.125 0.92188 0.28125 1.0469 0.9375 1.0469 1.2969 0 0.53125-0.42188 1.4062-2.0312 1.4062-1.625 0-2.0469-0.8125-2.0469-1.3438 0-0.09375 0.015625-0.71875 0.375-1.0625 0.03125 0.40625 0.32812 0.46875 0.45312 0.46875 0.26562 0 0.45312-0.1875 0.45312-0.45312s-0.15625-0.46875-0.46875-0.46875c-0.67188 0-1.0625 0.76562-1.0625 1.5312 0 1.25 1.0781 2.1562 2.3125 2.1562 1.1719 0 2.0938-0.8125 2.25-1.8281h0.82812c0-0.375 0.078125-0.76562 0.40625-0.76562 0.40625 0 0.40625 0.95312 0.40625 1.7031v0.125h0.26562v-0.25c0-1.0781 0-2.4062-0.67188-2.4062-0.46875 0-0.67188 0.53125-0.67188 1.0781h-0.5625c-0.10938-1.1562-1.1875-1.4531-1.2812-1.4531z"/>
</symbol>
<symbol id="ah" overflow="visible">
<path d="m-0.89062-4.8125h-0.5625v0.25h0.5625c0.57812 0 0.64062 0.25 0.64062 0.35938 0 0.32812-0.45312 0.35938-0.5 0.35938h-1.9844c-0.42188 0-0.8125 0-1.1875 0.35938-0.39062 0.39062-0.54688 0.89062-0.54688 1.375 0 0.8125 0.46875 1.5 1.125 1.5 0.29688 0 0.46875-0.20312 0.46875-0.45312 0-0.28125-0.20312-0.46875-0.45312-0.46875-0.125 0-0.45312 0.0625-0.45312 0.51562-0.35938-0.26562-0.46875-0.76562-0.46875-1.0781 0-0.48438 0.39062-1.0625 1.2812-1.0625h0.35938c0.03125 0.51562 0.0625 1.2188 0.35938 1.8438 0.34375 0.75 0.85938 1 1.2969 1 0.8125 0 1.0625-0.96875 1.0625-1.5938 0-0.67188-0.40625-1.125-0.85938-1.3125 0.39062-0.046875 0.8125-0.3125 0.8125-0.78125 0-0.20312-0.14062-0.8125-0.95312-0.8125zm-0.5 1.6562c0.9375 0 1.2812 0.71875 1.2812 1.1719 0 0.48438-0.34375 0.89062-0.84375 0.89062-0.54688 0-1.375-0.40625-1.4375-2.0625zm-4.9531-1-0.14062 0.15625s0.46875 0.375 0.46875 0.8125c0 0.23438-0.14062 0.48438-0.25 0.65625-0.15625 0.26562-0.21875 0.45312-0.21875 0.625 0 0.375 0.21875 0.5625 0.76562 1.0625l0.15625-0.15625s-0.48438-0.375-0.48438-0.8125c0-0.23438 0.15625-0.48438 0.25-0.65625 0.17188-0.26562 0.23438-0.4375 0.23438-0.60938 0-0.375-0.21875-0.57812-0.78125-1.0781z"/>
</symbol>
<symbol id="ag" overflow="visible">
<path d="m-0.015625-2.0312c-0.625 0-1.0469 0.25-1.0469 0.64062 0 0.35938 0.28125 0.53125 0.53125 0.53125 0.26562 0 0.53125-0.17188 0.53125-0.53125 0-0.14062-0.0625-0.28125-0.15625-0.39062 0.78125-0.015625 1.3906 0.25 1.8594 0.6875 0.0625 0.0625 0.078125 0.078125 0.10938 0.078125 0.078125 0 0.10938-0.046875 0.10938-0.09375 0-0.125-0.78125-0.92188-1.9375-0.92188z"/>
</symbol>
<symbol id="ac" overflow="visible">
<path d="m-0.1875-3.3281c-0.125 0-0.125 0.078125-0.125 0.29688 0 0.1875 0 0.23438-0.015625 0.42188-0.015625 0.21875-0.0625 0.25-0.17188 0.25-0.078125 0-0.15625-0.015625-0.23438-0.03125l-5.3125-1.3438c-0.35938-0.078125-0.45312-0.10938-0.45312-0.90625 0-0.23438 0-0.3125-0.1875-0.3125-0.125 0-0.125 0.10938-0.125 0.14062l0.03125 1.3281-0.03125 1.3281c0 0.0625 0 0.1875 0.20312 0.1875 0.10938 0 0.10938-0.078125 0.10938-0.28125 0-0.40625 0-0.6875 0.1875-0.6875 0.046875 0 0.078125 0 0.15625 0.03125l5.375 1.3438c0.375 0.09375 0.46875 0.10938 0.46875 0.90625 0 0.23438 0 0.3125 0.20312 0.3125 0.10938 0 0.10938-0.10938 0.10938-0.14062l-0.03125-1.3125 0.03125-1.3281c0-0.078125 0-0.20312-0.1875-0.20312z"/>
</symbol>
<symbol id="ab" overflow="visible">
<path d="m-7.2812-4.4219c-0.10938 0-0.20312 0.078125-0.20312 0.1875 0 0.078125 0.03125 0.14062 0.09375 0.17188l9.5 3.4688c0.14062 0.046875 0.1875 0.046875 0.1875 0.046875 0.10938 0 0.20312-0.09375 0.20312-0.20312 0-0.125-0.078125-0.15625-0.25-0.21875l-9.3438-3.4062c-0.14062-0.046875-0.1875-0.046875-0.1875-0.046875z"/>
</symbol>
<symbol id="g" overflow="visible">
<path d="m0-3.2969h-0.25v0.26562c0 0.70312-0.09375 0.70312-0.32812 0.70312h-3.8594c-0.1875 0-0.1875 0-0.1875 0.20312 0.4375 0.45312 0.4375 1.0781 0.4375 1.3594h0.25c0-0.15625 0-0.625-0.1875-1h3.5469c0.23438 0 0.32812 0 0.32812 0.6875v0.26562h0.25l-0.03125-1.2344z"/>
</symbol>
<symbol id="aa" overflow="visible">
<path d="m0-5.0938h-0.3125c0 0.375 0 0.59375-0.53125 0.96875l-1.7812 1.2656c-0.015625 0.015625-0.078125 0.0625-0.10938 0.0625s-0.64062-0.71875-0.71875-0.8125c-0.5-0.625-0.53125-1.0469-0.53125-1.25h-0.3125c0.03125 0.28125 0.03125 0.40625 0.03125 0.6875 0 0.35938-0.015625 0.98438-0.03125 1.125h0.3125c0-0.1875 0.10938-0.29688 0.25-0.29688 0.20312 0 0.3125 0.14062 0.39062 0.21875l1.2031 1.4062h-4.7812l0.10938 1.4375h0.3125c0-0.70312 0.0625-0.78125 0.5625-0.78125h5.1875c0.4375 0 0.4375 0.10938 0.4375 0.78125h0.3125l-0.03125-1.0781 0.03125-1.1094h-0.3125c0 0.67188 0 0.78125-0.4375 0.78125h-1.0312l-0.54688-0.64062c1.0469-0.76562 1.6094-1.1875 1.7969-1.1875s0.21875 0.17188 0.21875 0.35938h0.3125l-0.03125-1.0781c0-0.28125 0.015625-0.57812 0.03125-0.85938z"/>
</symbol>
<symbol id="z" overflow="visible">
<path d="m-6.5-4.6406h-0.3125l0.03125 1.2969c0 0.40625 0 1.2969-0.03125 1.6719h0.3125v-0.35938c0-0.98438 0.125-0.98438 0.48438-0.98438h4.5469c0.90625 0 1.4688 0.5 1.4688 1.0312 0 0.0625 0 0.73438-0.57812 1.0938 0-0.51562-0.29688-0.64062-0.5625-0.64062-0.35938 0-0.54688 0.28125-0.54688 0.5625 0 0.21875 0.125 0.5625 0.57812 0.5625 0.73438 0 1.3281-0.70312 1.3281-1.5938 0-1.0156-0.70312-1.75-1.4375-1.8594-0.09375-0.015625-0.10938-0.015625-0.45312-0.015625h-4.4219c-0.40625 0-0.40625-0.125-0.40625-0.76562z"/>
</symbol>
<symbol id="y" overflow="visible">
<path d="m0-8.1094h-0.3125c0 0.51562 0 0.76562-0.29688 0.78125h-1.9062c-0.85938 0-1.1562 0-1.5156 0.3125-0.17188 0.14062-0.375 0.46875-0.375 1.0469 0 0.82812 0.59375 1.2812 0.98438 1.4375-0.875 0.14062-0.98438 0.875-0.98438 1.3281 0 0.73438 0.42188 1.2031 1.0469 1.4844h-1.0469l0.10938 1.4062h0.3125c0-0.70312 0.0625-0.78125 0.5625-0.78125h2.6719c0.4375 0 0.4375 0.10938 0.4375 0.78125h0.3125l-0.03125-1.1406 0.03125-1.1094h-0.3125c0 0.67188 0 0.78125-0.4375 0.78125h-1.8438c-1.0312 0-1.5938-0.71875-1.5938-1.3438 0-0.64062 0.53125-0.75 1.1094-0.75h2.3281c0.4375 0 0.4375 0.10938 0.4375 0.78125h0.3125l-0.03125-1.125 0.03125-1.1094h-0.3125c0 0.65625 0 0.76562-0.4375 0.76562h-1.8438c-1.0312 0-1.5938-0.70312-1.5938-1.3438 0-0.625 0.53125-0.73438 1.1094-0.73438h2.3281c0.4375 0 0.4375 0.10938 0.4375 0.78125h0.3125l-0.03125-1.125z"/>
</symbol>
<symbol id="x" overflow="visible">
<path d="m-2.1406-4.6875c-1.2656 0-2.3281 0.98438-2.3281 2.1875 0 1.25 1.0938 2.2188 2.3281 2.2188 1.2969 0 2.25-1.0312 2.25-2.2031 0-1.2031-0.98438-2.2031-2.25-2.2031zm-0.078125 0.8125c0.35938 0 0.90625 0 1.3438 0.21875 0.45312 0.23438 0.73438 0.67188 0.73438 1.1562 0 0.4375-0.20312 0.875-0.67188 1.1406-0.4375 0.25-1.0469 0.25-1.4062 0.25-0.39062 0-0.92188 0-1.3594-0.23438-0.45312-0.26562-0.67188-0.73438-0.67188-1.1406 0-0.4375 0.21875-0.85938 0.65625-1.125 0.42188-0.26562 1-0.26562 1.375-0.26562z"/>
</symbol>
<symbol id="w" overflow="visible">
<path d="m0-2.5469h-0.3125c0 0.67188 0 0.78125-0.4375 0.78125h-6.1719l0.10938 1.4375h0.3125c0-0.70312 0.0625-0.78125 0.5625-0.78125h5.1875c0.4375 0 0.4375 0.10938 0.4375 0.78125h0.3125l-0.03125-1.1094z"/>
</symbol>
<symbol id="v" overflow="visible">
<path d="m-1.7344-5.4688c-0.1875 0-0.1875 0.17188-0.1875 0.26562v4.1875c0 0.10938 0 0.26562 0.1875 0.26562 0.15625 0 0.15625-0.17188 0.15625-0.26562v-4.1875c0-0.09375 0-0.26562-0.15625-0.26562z"/>
</symbol>
<clipPath id="ba">
<path d="m42.703 0.41016h35.297v102.59h-35.297z"/>
</clipPath>
<clipPath id="az">
<path d="m76 117h36v44.809h-36z"/>
</clipPath>
<clipPath id="ay">
<path d="m110 119h37v42.809h-37z"/>
</clipPath>
<clipPath id="ax">
<path d="m144 122h37v39.809h-37z"/>
</clipPath>
<clipPath id="aw">
<path d="m192 86h44.98v65h-44.98z"/>
</clipPath>
</defs>
<path transform="matrix(1 0 0 -1 58.893 148.36)" d="m-16.19 8.3726h4.25m-4.25 33.684h4.25m-4.25 33.68h4.25m-4.25 33.684h4.25m-4.25 33.68h4.25m190.03-134.73h-4.2539m4.2539 33.684h-4.2539m4.2539 33.68h-4.2539m4.2539 33.684h-4.2539m4.2539 33.68h-4.2539" fill="none" stroke="#7f7f7f" stroke-miterlimit="10" stroke-width=".19925"/>
<path transform="matrix(1 0 0 -1 58.893 148.36)" d="m-16.19-13.452v161.4h194.28v-161.4z" fill="none" stroke="#000" stroke-miterlimit="10" stroke-width=".3985"/>
<g>
<use x="24.239" y="143.121" xlink:href="#f"/>
<use x="29.2203" y="143.121" xlink:href="#a"/>
<use x="34.2016" y="143.121" xlink:href="#a"/>
<use x="19.258" y="109.439" xlink:href="#u"/>
<use x="24.2393" y="109.439" xlink:href="#a"/>
<use x="29.2206" y="109.439" xlink:href="#a"/>
<use x="34.2019" y="109.439" xlink:href="#a"/>
<use x="19.258" y="75.758" xlink:href="#u"/>
<use x="24.2393" y="75.758" xlink:href="#f"/>
<use x="29.2206" y="75.758" xlink:href="#a"/>
<use x="34.2019" y="75.758" xlink:href="#a"/>
<use x="19.258" y="42.077" xlink:href="#t"/>
<use x="24.2393" y="42.077" xlink:href="#a"/>
<use x="29.2206" y="42.077" xlink:href="#a"/>
<use x="34.2019" y="42.077" xlink:href="#a"/>
<use x="19.258" y="8.396" xlink:href="#t"/>
<use x="24.2393" y="8.396" xlink:href="#f"/>
<use x="29.2206" y="8.396" xlink:href="#a"/>
<use x="34.2019" y="8.396" xlink:href="#a"/>
<use x="47.902" y="95.668" xlink:href="#s"/>
</g>
<g clip-path="url(#ba)">
<path transform="matrix(1 0 0 -1 58.893 148.36)" d="m0.0015312 63.072 1.9023 71.426" fill="none" stroke="#000" stroke-miterlimit="10" stroke-width="1.1955"/>
</g>
<g>
<use x="64.318" y="10.342" xlink:href="#s"/>
<use x="71.78995" y="10.342" xlink:href="#b"/>
<use x="50.189" y="149.006" xlink:href="#am"/>
<use x="56.415625" y="149.006" xlink:href="#o"/>
</g>
<path transform="matrix(1 0 0 -1 58.893 148.36)" d="m3.8101 9.732 1.9023 25.551" fill="none" stroke="#000" stroke-miterlimit="10" stroke-width="1.1955"/>
<path transform="matrix(1 0 0 -1 58.893 148.36)" d="m5.7125 35.252 1.9062-6.668 1.9062 19.297 1.9023 21.273 1.9062-5.9531 1.9023 24.727 1.9062 26.926" fill="none" stroke="#000" stroke-miterlimit="10" stroke-width="1.1955"/>
<g>
<use x="79.555" y="29.985" xlink:href="#e"/>
<use x="87.02695" y="29.985" xlink:href="#b"/>
<use x="61.967" y="150.649" xlink:href="#e"/>
<use x="69.43895" y="150.649" xlink:href="#n"/>
</g>
<path transform="matrix(1 0 0 -1 58.893 148.36)" d="m19.048 8.0914 1.9023 16.293" fill="none" stroke="#000" stroke-miterlimit="10" stroke-width="1.1955"/>
<path transform="matrix(1 0 0 -1 58.893 148.36)" d="m20.951 24.384 1.9062-10.789 1.9023 14.078 1.9062 15.176 1.9023-0.82031 1.9062 16.949 1.9062 18.145" fill="none" stroke="#000" stroke-miterlimit="10" stroke-width="1.1955"/>
<g>
<use x="94.792" y="67.714" xlink:href="#m"/>
<use x="102.26395" y="67.714" xlink:href="#d"/>
<use x="81.908" y="155.836" xlink:href="#l"/>
</g>
<g clip-path="url(#az)">
<path transform="matrix(1 0 0 -1 58.893 148.36)" d="m34.283 2.9039 1.9062 11.52" fill="none" stroke="#000" stroke-miterlimit="10" stroke-width="1.1955"/>
</g>
<path transform="matrix(1 0 0 -1 58.893 148.36)" d="m36.189 14.423 1.9023 2.9141 1.9062 1.7344 1.9062-0.53516 1.9023 0.13672 1.9062 4.3359 1.9023 3.0469 1.9062-0.14062 1.9062-1.5703 1.9023 0.56641 1.9062 10.836" fill="none" stroke="#000" stroke-miterlimit="10" stroke-width="1.1955"/>
<path transform="matrix(1 0 0 -1 58.893 148.36)" d="m55.236 35.748 1.9023-22.066 1.9062 12.34 1.9062 12.465 1.9023-0.40625 1.9062 13.398 1.9023 14.207" fill="none" stroke="#000" stroke-miterlimit="10" stroke-width="1.1955"/>
<g>
<use x="129.075" y="79.152" xlink:href="#l"/>
<use x="136.82391" y="79.152" xlink:href="#d"/>
<use x="111.072" y="156.901" xlink:href="#av"/>
<use x="118.40547" y="156.901" xlink:href="#au"/>
</g>
<g clip-path="url(#ay)">
<path transform="matrix(1 0 0 -1 58.893 148.36)" d="m68.568 1.8375 1.9062 9.8711" fill="none" stroke="#000" stroke-miterlimit="10" stroke-width="1.1955"/>
</g>
<path transform="matrix(1 0 0 -1 58.893 148.36)" d="m70.474 11.709 1.9023 3.4023 1.9062 2.6992 1.9023 0.80859 1.9062 2.168 1.9023 1.1953 1.9062 0.55078 1.9062 0.64062 1.9023 5.707 1.9062-4.9453 1.9023 9.2148" fill="none" stroke="#000" stroke-miterlimit="10" stroke-width="1.1955"/>
<path transform="matrix(1 0 0 -1 58.893 148.36)" d="m89.517 33.15 1.9062-20.848 1.9062 10.121 1.9023 8.4492 1.9062 2.3789 1.9023 9.3672h1.9062" fill="none" stroke="#000" stroke-miterlimit="10" stroke-width="1.1955"/>
<g>
<use x="163.359" y="102.217" xlink:href="#at"/>
<use x="170.83095" y="102.217" xlink:href="#b"/>
<use x="147.099" y="158.74" xlink:href="#as"/>
<use x="154.29399" y="158.74" xlink:href="#ar"/>
</g>
<g clip-path="url(#ax)">
<path transform="matrix(1 0 0 -1 58.893 148.36)" d="m102.85 0.0015312 1.9023 8.5664" fill="none" stroke="#000" stroke-miterlimit="10" stroke-width="1.1955"/>
</g>
<path transform="matrix(1 0 0 -1 58.893 148.36)" d="m104.76 8.5679 1.9062 2.3711 1.9023-0.25 1.9062-0.49609 1.9062 0.41016 1.9023 0.46484 1.9062 0.30469 1.9023 0.17188 1.9062 3.1211 1.9023-1.8594 1.9062 0.48438 1.9062 0.53906 1.9023 0.55859 1.9062 0.5 1.9023 0.44922" fill="none" stroke="#000" stroke-miterlimit="10" stroke-width="1.1955"/>
<path transform="matrix(1 0 0 -1 58.893 148.36)" d="m131.42 15.337 1.9062-5.3828 1.9062 9.0938 1.9023 6.9062 1.9062 0.60547 1.9023-0.67188 1.9062 5.3867 1.9062 2.6953 1.9023-0.67188 1.9062 1.3516 1.9023 7.8828" fill="none" stroke="#000" stroke-miterlimit="10" stroke-width="1.1955"/>
<g clip-path="url(#aw)">
<path transform="matrix(1 0 0 -1 58.893 148.36)" d="m150.47 42.533 1.9062-28.137 1.9062 8.5 1.9023-0.84766 1.9062 7.3477 1.9023 5.25 1.9062 9.9023" fill="none" stroke="#000" stroke-miterlimit="10" stroke-width="1.1955"/>
</g>
<g>
<use x="215.252" y="100.29" xlink:href="#m"/>
<use x="222.444997" y="100.29" xlink:href="#r"/>
<use x="96.911" y="172.19" xlink:href="#e"/>
<use x="104.38295" y="172.19" xlink:href="#aq"/>
<use x="109.918171" y="172.19" xlink:href="#q"/>
<use x="118.220005" y="172.19" xlink:href="#b"/>
<use x="122.648381" y="172.19" xlink:href="#d"/>
<use x="126.550731" y="172.19" xlink:href="#p"/>
<use x="134.849577" y="172.19" xlink:href="#n"/>
<use x="139.830877" y="172.19" xlink:href="#r"/>
<use x="143.705332" y="172.19" xlink:href="#ap"/>
<use x="148.686632" y="172.19" xlink:href="#q"/>
<use x="156.988467" y="172.19" xlink:href="#o"/>
<use x="159.756077" y="172.19" xlink:href="#ao"/>
<use x="164.184453" y="172.19" xlink:href="#p"/>
<use x="169.165753" y="172.19" xlink:href="#an"/>
<use x="175.256" y="172.19" xlink:href="#al"/>
<use x="9.927" y="155.401" xlink:href="#ak"/>
<use x="9.927" y="148.620454" xlink:href="#k"/>
<use x="9.927" y="143.085234" xlink:href="#j"/>
<use x="9.927" y="138.656858" xlink:href="#af"/>
<use x="9.927" y="134.754508" xlink:href="#ae"/>
<use x="9.927" y="129.773208" xlink:href="#c"/>
<use x="9.927" y="127.005597" xlink:href="#i"/>
<use x="9.927" y="118.706752" xlink:href="#ad"/>
<use x="9.927" y="113.171531" xlink:href="#j"/>
<use x="9.927" y="105.42561" xlink:href="#c"/>
<use x="9.927" y="102.657999" xlink:href="#h"/>
<use x="9.927" y="97.676699" xlink:href="#k"/>
<use x="9.927" y="92.141479" xlink:href="#c"/>
<use x="9.927" y="89.373868" xlink:href="#aj"/>
<use x="9.927" y="84.945493" xlink:href="#i"/>
<use x="9.927" y="79.964193" xlink:href="#ai"/>
<use x="9.927" y="75.535817" xlink:href="#ah"/>
<use x="9.927" y="70.554517" xlink:href="#h"/>
<use x="9.927" y="65.573217" xlink:href="#ag"/>
<use x="9.927" y="59.483" xlink:href="#ac"/>
<use x="11.421" y="55.104" xlink:href="#g"/>
<use x="9.927" y="50.634" xlink:href="#ab"/>
<use x="9.927" y="45.653" xlink:href="#aa"/>
<use x="9.927" y="40.39474" xlink:href="#z"/>
<use x="9.927" y="33.611205" xlink:href="#y"/>
<use x="9.927" y="25.309371" xlink:href="#x"/>
<use x="9.927" y="20.328071" xlink:href="#w"/>
<use x="5.527" y="17.514" xlink:href="#v"/>
<use x="5.527" y="11.287" xlink:href="#g"/>
</g>
</svg>
